<svg xmlns="http://www.w3.org/2000/svg" viewBox="0 0 512 512"><path fill="#c83da4" d="M0-1h513v514H0z"/><path d="M272.9 209.8c6 0 11.4.8 16.4-.2 10.7-1.9 15.7 5.2 22.6 13h-38.8v21.3c.2.2.5.7.7.7 14.1-.3 28.4.6 42.3-1.3 13.9-1.8 22.1-12.6 21.1-24.8-.3-3.5-2-7-3.6-10.2-2.6-5.4-6.3-10.3-8.4-15.9-4-10.3 2-19 14-20.4-4.5 13.3 5 19.4 13.2 26.2 11.4 9.3 18.4 20.7 18.2 35.9-.1 11.7-4.7 21-13.8 28.1-13.6 10.5-29.7 14.3-46.4 14.5-32.4.4-64.8.7-97.1-.6-11.1-.4-22.6-4.1-32.8-8.8-30.7-14-26.3-48.6-9.8-63.9 2.6-2.4 5.1-4.8 7.8-7 7.8-6.2 15.1-12.7 11.1-24.4 12.6 1.6 18.1 10.4 13.4 21.5-2.1 5-4.9 9.7-7.8 14.2-9.2 14.1-1.5 28.1 10.4 33.3 4.7 2 10 3.4 15.1 3.6 11.6.5 23.2.2 35.1.2v-21.9h-37.2c-.2-.5-.4-1.1-.6-1.6 5.3-4 7.5-11.8 16.3-11.5 7 .2 13.9 0 21.8 0 0-3.6.3-6.8-.1-10-.2-1.3-1.6-3-2.9-3.4-11.3-3.4-19.5-10.8-26.3-20.1-2.9-4.1-6-8.1-9.1-12.1-9.3-11.9-21.5-18.6-36.5-20.3-12.3-1.4-17-6.4-17-19 0-6.4.5-12.8 1.4-19.1.8-5.7 2.6-6.2 7-2.5 15.6 13 32 24.5 51.2 31.5 25 9.1 48.3 6.5 69.2-10.9 3.6-3 7.4-5.7 11.2-8.3 5.1-3.5 11-4.9 16.4-1.5 11.4 7.1 22.4 15 33.5 22.5-.2.5-.4 1.1-.6 1.6-2 .4-4.1 1-6.1 1.1-11.9.7-21.7 5.6-28.9 15.1-5.2 6.8-10.1 13.8-15 20.7-7 9.9-15.6 17.7-27.5 21.3-1.3.4-2.7 2.4-3 3.9-.5 2.8-.1 5.7-.1 9.5zm34.8-80.3v2.7c2.4 1.7 4.6 4.5 7.1 4.8 3.9.5 7-2.5 6-6.4-.6-2.4-3.8-5.5-6.2-5.8-2.1-.2-4.6 3-6.9 4.7zm-10.5 175.2c5.2 0 10.3-.1 15.5 0 10.7.1 21.4-.2 32 .7 12.2 1 21.8 7 26.4 18.8 4.5 11.5.8 21.2-8.1 29.2-.4.4-.6.9-.4.6 4.6 4.8 10 8.7 13.1 14 10 16.8-2.9 38.7-24 40-17.9 1.1-36 .2-54.5.2V304.7zm20.1 85.4c10.3 0 19.9.3 29.5-.1 6.5-.3 11.3-5.5 11.5-11.6.2-5.8-4-11.6-9.7-11.9-10.3-.5-20.7-.1-31.4-.1.1 8 .1 15.5.1 23.7zm-.1-43c8.4 0 16.1.2 23.8-.1 5.5-.2 9.9-4.6 10.5-9.8.7-6.2-1.9-11.8-7.5-12.6-8.8-1.3-17.8-1.1-26.8-1.5v24zm-74.3 61.4c-7 0-13.2.2-19.3-.2-1.4-.1-3.1-1.9-3.8-3.3-2.5-5.5-4.3-11.2-6.9-16.6-.9-1.7-3.5-3.6-5.3-3.6-10.5-.4-20.9-.1-31.4-.3-3.3-.1-4.8 1.4-5.8 4.3-1.8 5.1-4.1 10-5.8 15.2-1.2 3.5-3.2 4.8-6.9 4.6-5.3-.3-10.7-.1-17-.1 4.3-11.1 8.2-21.1 12.2-31.1 8.8-22.3 17.7-44.6 26.3-66.9 1.5-3.9 3.2-6.3 7.9-5.5 2.4.4 5 0 7.5 0 5.5-.1 8.9 2.4 11 7.6 12 30.8 24.2 61.5 36.4 92.3.3.6.4 1.6.9 3.6zm-51-72.8c-4.3 10.7-8.1 20.1-12 29.8h24c-3.9-9.8-7.7-19.2-12-29.8zm90.3 72.7h-23.4c-4.7 0-5.2-3-5.1-6.6v-77.3c0-5.2-.5-9.9-4.7-13.8-1.1-1-1-3.3-1.8-5.9 8.5 0 16-.1 23.5 0 4.3.1 4.6 3.3 4.6 6.6v54.1c0 7.6-.1 15.1 0 22.7.1 5.4.2 10.8 5.1 14.8 1 .8 1 2.9 1.8 5.4z" fill="#fff"/></svg>