<svg xmlns="http://www.w3.org/2000/svg" viewBox="0 0 512 512"><path fill="#00b9ee" d="M0 0h512v512H0z"/><path d="M275.4 231c.7-.5 1.3-1.1 1.9-1.8 5.4-6.9 11.5-13 18.8-17.8 4.3-2.8 8.9-5 14.2-4.8 6.3.2 10.3 5.8 8.6 11.9-1.9 6.6-4.2 13-6.3 19.5-2.2 6.8-4.4 13.5-6.6 20.3-.3 1-.6 2-.6 3 0 1.8.7 2.5 2.5 2.7 1.6.1 3-.3 4.4-1 1.2-.6 2.3-1.2 3.4-1.9.7-.4 1.2-.4 1.6.4.2.4.5.7.8 1 .5.7.4 1.3-.2 1.9-4.3 4.2-8.8 8-14.8 9.3-2.6.6-5.3.8-8-.2-1.8-.7-3.3-1.8-4.3-3.5-1.8-3.2-2.6-6.5-2-10.2 1.4-8.5 4.7-16.3 7.2-24.5 1.5-4.9 3.5-9.7 4.9-14.7.3-1 .4-2 .4-3 0-1.5-.6-2-2.1-1.6-1.3.4-2.6 1-3.7 1.8-4.6 3.1-8.5 6.8-12.1 10.9-3.9 4.3-7.5 8.9-10.6 13.9-2.5 4-4.1 8.5-5.4 13-1.4 5.2-3.1 10.3-4.6 15.5-.3 1.2-1 1.6-2.2 1.6h-13.8c-1.7 0-1.8-.2-1.3-1.9 3.1-9.7 6.3-19.4 9.3-29.1 2.2-7.2 4.6-14.4 7-21.6.3-.9.4-1.7.4-2.6 0-1.3-.6-1.8-2-1.5-2.4.6-4.4 1.9-6.3 3.4-6.8 5.4-12.3 11.9-17.5 18.8-5.1 6.7-7.5 14.5-9.7 22.5-1 3.6-2.1 7.1-3.1 10.7-.3 1-.9 1.3-1.8 1.3h-5.2c-3.1 0-6.1-.1-9.2 0-1.4 0-1.6-.6-1.3-1.8.7-2.2 1.3-4.5 2-6.7 1.5-5.1 3-10.2 4.6-15.2 2.8-9 5.8-18 8.6-27 .3-.9.6-1.8.8-2.7.4-1.8-.6-3-2.5-2.9-1.3 0-2.4.4-3.6.9-1.4.7-2.7 1.4-4.1 2.1-1.3.7-1.4.8-2.3-.4-1.4-1.7-1.5-1.8.2-3.3 3.6-3.5 7.6-6.6 12.5-8.2 3.1-1 6.3-1.2 9.5-.4 3.7 1 5.6 4.1 6.2 8.4.3 2.7-.3 5.2-.9 7.8-.7 2.9-1.6 5.7-2.6 8.6-.1.4-.2.8-.1 1.3 1-.2 1.3-1 1.7-1.6 3.6-5 7.6-9.6 12.2-13.6 4.5-4 9.2-7.6 14.8-9.9 3.2-1.3 6.5-2.1 10-1.1 4.8 1.4 7.2 5.8 5.9 10.6-.9 3.5-2.1 6.8-3.5 10.1-.3.7-.7 1.5-.8 2.3-1 1.6-1.6 3.3-1.9 4.9 1-1.2 2.3-2.3 2.6-3.9zM111.5 348.4c4.6 1 9.2 1.6 13.6 3.2 4.1 1.5 7.8 3.5 10.8 6.7 3.7 4.1 5 8.9 4.3 14.3-1 8.4-6.1 13.6-13.3 17.1-4.5 2.2-9.3 3.4-14.2 4.1-4.1.6-8.3.7-12.4.7H57.2c-1 .1-1.5-.4-1.4-1.4v-.7c0-2.5 0-2.5 2.5-3.1 3.1-.7 6.2-1.5 9.4-2.2 1-.2 1.3-.7 1.3-1.6v-66.7c0-1.2.3-2.5-.3-3.4-.6-1.1-2.1-.7-3.2-1.1-2.6-.9-5.2-1.2-7.8-1.9-1.8-.4-1.8-.4-1.9-2.3v-1.3c.1-1.5.2-1.6 1.7-1.7h.4c14.9 0 29.7 0 44.6.1 6.2 0 12.3 1 18.2 3 3.7 1.3 7.2 3.2 9.9 6.2 5.3 5.9 6.4 15.3-.4 22.3-4.1 4.2-9.2 6.9-14.7 8.6-1.3.4-2.6.9-4 1.1zm-22.9 21.5v16.2c0 1.8.1 2.1 1.6 2.3 5.5 1 11.1 1.7 16.7.6s9.4-4.4 11.1-9.7c1.8-5.7 1.8-11.5-.1-17.2-1.1-3.2-3.2-5.6-6.1-7.4-2.5-1.5-5.3-2.3-8.2-2.8-4.6-.8-9.2-.4-13.7-.4-.7 0-1.1.3-1.1 1.1 0 .7-.1 1.5-.1 2.2-.1 5.1-.1 10.1-.1 15.1zm0-40.3c0 5 0 10 .1 15.1 0 1.7.2 1.9 1.7 1.9 4.4 0 8.7.4 13-.8 4.9-1.4 8.6-4.1 10.2-9.2 1.4-4.2 1.6-8.5.7-12.9-1.3-6.6-5.2-9.4-10.7-10.6-4.1-.9-8.4-1-12.6-.5-2.2.3-2.4.5-2.4 2.7v14.3zm358.8 10.5v43.8c0 1.2.6 1.8 1.8 2 2.5.5 5 1.1 7.5 1.4 2.1.3 2.3.6 2.2 2.7v1.3c0 .9-.4 1.3-1.3 1.4-1.9.2-3.8.5-5.6.7-5.7.7-11.4 1.5-17.1 2.2-.7.1-1.5.1-2.2.2-1 .1-1.5-.4-1.6-1.3-.2-1.6-.5-3.2-.9-4.7-.5-2-.7-2.1-2.3-.8-1.4 1.1-2.8 2.2-4.3 3.1-4.9 2.9-10.2 4.1-15.9 3.9-7.7-.3-14.8-2.1-20.9-7-3.3-2.6-5.7-5.8-7.4-9.5-2.5-5.7-3.3-11.7-2.7-17.9.5-5.1 1.7-9.9 4.1-14.4 3-5.5 7.2-9.8 12.7-12.9 5.2-3 10.9-4.8 16.9-5.3 1.8-.1 3.6-.7 5.4-.5 3.8.3 7.5.8 11.1 2.1.5.2.9.4 1.4.5.6.2 1-.1 1-.7v-21.9c0-2.2 0-2.2-2.2-2.9-2.4-.7-4.7-1.4-7.1-2.2-1.4-.4-1.7-.8-1.6-2.6.1-1.4.2-1.5 1.9-1.8 7.6-1.1 15.2-2.3 22.9-3.4 1-.1 2-.2 3.1-.2.8-.1 1 .3 1 1-.1.9 0 1.7 0 2.6.1 13.5.1 27.3.1 41.1zm-18 19.4v-20.3c0-1.6-.6-2.5-2-3.2-3-1.6-6.2-2.3-9.6-2.3-6.7 0-11.9 2.9-15.8 8.2-3.7 5-5.1 10.9-5.7 16.9-.4 4.6-.4 9.3.5 13.9.6 3.5 1.6 6.8 3.5 9.8 3.8 6.2 10.2 8.1 16.8 6.8 4.1-.8 7.4-3.2 10.5-5.9 1.4-1.2 1.9-2.5 1.9-4.3-.2-6.6-.1-13.1-.1-19.6zm-115.6-20.1c1.6-1.5 2.9-3.2 4.7-4.5 4.3-3.1 8.8-5.6 14.2-6.2 1.9-.2 3.7-.8 5.6-.5 4.6.5 9.2 1 13.2 4 2.6 2 4.4 4.4 5.6 7.3 1.5 3.7 2 7.6 2 11.5 0 11.1 0 22.2-.1 33.2v1.1c0 1 .2 1.6 1.3 1.8 2.9.7 5.7 1.6 8.6 2.3 1 .2 1.3.6 1.4 1.6.3 3.3.2 3.4-3.1 3.4h-31.9c-2.7 0-2.7 0-2.6-2.6 0-2 0-2 1.8-2.7 1.8-.7 3.5-1.3 5.3-1.9.7-.2 1.1-.6 1.1-1.4v-36.7c0-3.1-.4-6.1-1.8-8.9-1.2-2.6-3.4-4-6.2-4.3-2.5-.3-4.9-.1-7.3.7-4.8 1.7-8.6 4.7-11.7 8.8-.6.7-.7 1.6-.7 2.5V384c0 .4.1.9 0 1.3-.1 1.1.3 1.6 1.5 1.9 2.8.6 5.6 1.5 8.4 2.2 1 .3 1.4.7 1.4 1.8 0 3.7.1 3.2-3.1 3.2h-35.2c-1.9 0-2 0-2-1.9v-1.1c-.1-1.2.3-1.8 1.6-2.1 2.6-.6 5.2-1.5 7.8-2.2 1-.2 1.3-.8 1.3-1.7v-44.2c0-2.2 0-2.2-2.1-2.8l-6.9-2.1c-1.5-.5-2.3-2.5-1.6-3.8.3-.5.9-.5 1.3-.6 1.9-.3 3.7-.6 5.6-.8 6.1-.8 12.1-1.6 18.2-2.4.1 0 .3 0 .4-.1 3.2-.6 3.2-.6 3.3 2.7v7.8c.4.2.6.3.7.3zM140.6 225.1v37.4c0 2.5 0 2.5 2.4 3 2.7.7 5.4 1.3 8 2 1.6.4 1.7.7 1.3 2.3-.1.3-.2.7-.3 1-.6 1.8-.6 1.9-2.6 1.9h-36.3c-1.6 0-1.6-.2-1.4-1.8.4-2.2 1.5-3.5 3.7-4.1 1.5-.4 2.9-1 4.3-1.5 1.1-.3 1.5-1 1.5-2.1v-18.4c0-1.6-.2-1.8-2-1.8h-28c-1.3 0-2.2.4-3 1.4-2.8 4.1-5.7 8.1-8.6 12.1-1.6 2.3-3.2 4.5-4.8 6.8-.9 1.3-.7 1.5.7 1.9 2.7.7 5.5 1.3 8.2 2 1.9.5 2 .6 1.4 2.5-.9 3.1-.5 2.8-3.7 2.8h-26c-.6-.1-.9-.4-.7-1.1 0-.1.1-.1.1-.2 1.4-4.2.2-3 4.5-4.7 1.1-.5 2.3-.9 3.5-1.3 1-.3 1.8-1 2.4-1.8l14.7-19.5c5.3-7 10.6-14 15.9-21.1 4.6-6 9.1-12.1 13.7-18.1 4-5.2 7.9-10.4 11.9-15.6l.3-.3c1-1.3 1.7-3 3-3.7 1.4-.8 3.3-.2 4.9-.3h8.7c2.1 0 2.2 0 2.2 2.2v19.9c.1 6.2.1 12.2.1 18.2zM94.7 236c.9.1 1.8.2 2.6.2 7 0 14 0 21-.1h1.5c.9 0 1.3-.5 1.3-1.4v-34.4c0-.3 0-.8-.5-.8-.3 0-.5.2-.7.5-.1.2-.2.4-.4.5-7.5 10.4-14.9 20.8-22.4 31.3-.7 1.3-1.9 2.4-2.4 4.2zM251 387.1c-1.5 1.4-2.8 2.8-4.5 4-4.5 3.1-9.5 5-14.9 5-4.7 0-9.3-.9-13.3-3.5-6.4-4.2-8.4-11.1-5.5-17.9 1.2-2.8 3.4-4.9 5.9-6.5 4-2.6 8.4-4.1 12.9-5 5.4-1.1 10.8-1.7 16.3-1.7 2.2 0 2.3-.1 2.3-2.2 0-4.3.2-8.6-.2-12.9-.5-5.6-3.4-10.7-9.8-12.2-2.8-.7-5.6-.6-8.4 0-1.7.4-2 .7-1.6 2.3.6 2.2.4 4.3.5 6.5.1 3.3-.7 6.5-2 9.5-.4.9-.9 1.6-1.9 1.5-2.3-.1-4.5-.4-6.6-1.4-5.5-2.7-6.8-11-1.7-15.5 3.1-2.8 6.7-4.6 10.6-6 4.4-1.6 9-2.4 13.7-2.7 5.9-.4 11.8.3 17.1 3.2 4.8 2.6 7.1 6.9 8.1 12.1 1 5.1.7 10.2.5 15.3-.3 7.2-.4 14.4-.4 21.6 0 1.2.2 2.3.4 3.5.7 2.9 2.5 4.2 5.4 3.6 1.6-.3 3.1-.7 4.6-1.2 1-.4 1.2-.1 1.6.7.9 2.2 1 2.2-1 3.5-3.6 2.3-7.4 4-11.7 4.5-2.6.3-5.1.6-7.8 0-3.9-.8-6.6-2.8-8-6.6.1-.5.1-1.1-.6-1.5zm-.6-13.1v-7.2c0-1-.4-1.4-1.4-1.4-3.3.1-6.6.1-9.7 1.1-4 1.2-7 3.5-8.1 7.7-.5 1.9-.5 3.8-.2 5.6.7 4 2.2 6.7 6.5 8.1 2.1.7 4.1.2 6-.4 2.6-.8 4.6-2.4 6.2-4.5.6-.7.8-1.5.8-2.4-.1-2.2-.1-4.4-.1-6.6zM206 173.3c-4.2 12.6-8.3 25-12.4 37.5-3.5 10.6-6.8 21.2-10.3 31.7-1.8 5.4-3.6 10.8-5.4 16.1 0 .1-.1.3-.1.4-.5 1.4-.9 2.9.3 4.1 1.2 1.1 2.8.9 4.2.5 2-.5 3.8-1.6 5.5-2.6.7-.4 1.1-.3 1.7.3 1.5 1.7 1.6 2.3 0 3.8-3.2 3-6.5 5.8-10.6 7.5-2.9 1.2-5.9 1.8-9 1.5-4.3-.4-6.9-3-8.1-6.9-1-3.3-.8-6.8-.2-10.2.8-4.7 2.7-9 4.1-13.5 2.4-7.5 4.9-15.1 7.3-22.6 1.8-5.7 3.8-11.3 5.5-17 1.3-4.4 2.8-8.7 4.2-13.1l2.1-6.6c.4-1.4.3-1.5-1-1.7-1.7-.3-3.3-.3-5-.3h-3.3c-2.1 0-3-1.4-2.3-3.4.2-.7.8-.8 1.4-.9 2.4-.4 4.7-.8 7.1-1.1 4.1-.5 8.2-1.3 12.3-1.9 3.3-.5 6.6-.8 9.8-1.7.6-.3 1.4-.3 2.2.1zm-28.9 164.6c2.1-2.3 4.1-4.3 6.5-5.9 3.7-2.4 7.8-4 12.3-3.8 2.6.1 5.1.7 7.4 2.2 5.5 3.8 7.2 15.1-1.4 19.9-1.5.8-3.1 1.3-4.7 1.7-1.1.2-1.7-.1-2.4-.9-2.3-2.7-3.3-5.9-3.6-9.4-.2-1.7 0-3.5 0-5.2 0-1.4-.2-1.6-1.5-1.2-4.7 1.5-8.6 4.1-11.6 8-.7.9-1 2-1 3.3v38.5c0 1.8 0 1.8 1.8 2.2 3.7.8 7.4 1.6 11.1 2.3 1.8.4 1.9.4 1.9 2.3 0 2.7 0 2.7-2.7 2.7h-39.1c-2.7 0-2.7 0-2.6-2.6 0-2 0-2 1.9-2.5 2.7-.7 5.3-1.5 8-2.1 1.2-.3 1.5-.9 1.5-2 0-.9-.1-1.7-.1-2.6v-41.3c0-2.2 0-2.2-2.2-2.8-2.5-.7-5-1.5-7.5-2.3-1.5-.4-1-1.7-1.2-2.7-.1-1 .4-1.5 1.3-1.6 3.4-.5 6.8-.9 10.2-1.4 3.6-.5 7.2-1.1 10.8-1.6 1.7-.2 3.5-.2 5.2-.7 1-.3 1.4.1 1.4 1.3.1 2 0 3.9 0 5.9-.1.6-.2 1.3.3 2.3z" fill="#fafefe"/></svg>