<svg xmlns="http://www.w3.org/2000/svg" viewBox="0 0 512 512"><path d="M106.2 213.7c0-11.4-.9-22.9.2-34.2 4.5-49.5 49.7-89.2 99.5-88 53.5 1.3 92.6 35.4 100.2 88.3 2.9 20.5-1.4 40.2-11.6 58.1-10.4 18.1-22.5 35.3-32.1 53.8-17.1 33.2-9.7 76.7 16.5 103.7 5.8 5.9 12 11.6 18.6 16.4 6.4 4.7 13.6 8.2 21.7 13-4.7 1.2-8.4 2.6-12.1 3.1-64.4 7.9-120.3-33.2-131-97.2-4.2-24.9-.2-49.2 11.6-71.9 5.3-10.2 8.7-20.8 6.6-32.5-3.3-18-17.5-32.7-34.7-36.2-18.4-3.8-36.3 3.5-47 19.2-1 1.5-2 3.1-3.1 4.6-1.1 0-2.2-.1-3.3-.2zm287.2-67.1c7.4 11.9 8.1 25.3 5.6 38.7-1.3 6.9-.6 11.6 4.1 17.2 13.9 16.6 13.3 52.4-.3 69.6-.4.6-1.3.8-2.7 1.6-1.9-4-3.7-7.7-5.5-11.5-8.6-18-21.8-32.2-37.2-44.6-20.5-16.5-29.9-46.3-22.3-71 2.7 4.4 4.9 8.3 7.5 12.1 7.4 10.6 18.2 16.5 29.8 20.8 1.8.7 6.3-1.6 7.4-3.7 5-9.4 9.1-19.2 13.6-29.2zm-53.7 270.8c-15.8-19.7-16.5-50.7-2.3-73.2 14-22.1 42.6-35.2 66.1-29.7-1.6 1.4-2.9 2.5-4.2 3.5-16.5 12.4-21.9 31.9-13.5 50.7 2.1 4.6 1.5 7.6-1.3 11.4-11.8 16-26.5 28.3-44.8 37.3zm14.6-178.2c-3.6 2.4-7 6.2-10.9 6.8-5.7.8-8.5-3.9-8.5-9.3 0-5.5 4.1-9 8.7-8.3 3.9.6 7.1 4.7 10.7 7.3v3.5z" fill="#ee533b"/></svg>