<svg version="1.1" id="Layer_1" xmlns="http://www.w3.org/2000/svg" x="0" y="0" viewBox="0 0 512 512" xml:space="preserve"><style>.st0{fill-rule:evenodd;clip-rule:evenodd;fill:#004993}</style><path class="st0" d="M108.2 110v304.9H412V110H108.2z"/><path fill-rule="evenodd" clip-rule="evenodd" fill="#e3003a" d="M279.2 261h18.1l114.2-150.5h-17L279.2 261z"/><path d="M332.9 383s.3-4.4-2.2-12.7c-2.5-8.3-10.9-35.1-10.9-35.1H274l-7.1 10.1s7 21.1 8.4 25.1c1.4 3.9 3.6 8.5 6.3 12.6h-28.1s-.3-6.1-3.7-14.5c0 0-5.2 5.8-6.8 8.2-1.6 2.4-3.2 6.3-3.2 6.3H218s-1.4-10.2-3.8-15.1c-4.2 4.7-8.2 10.4-9.9 15.1h-21.7s6.6-6.3 14.2-15.8 10.8-13.6 10.8-13.6l-5.1-18.4h-45.2l-28.7 37.2c-2.7 3.5-6.6 8.8-6.8 10.6h-13.2v-8.7s26.9-32.5 64.6-83.8c5.1-7 8.7-9.9 12.6-20.5h23.6s-.2 6 3 16.6l13.1 43.4 7.6-9.6s-9.4-29.7-11.2-35.6c-1.8-5.9-4.1-12.5-5.9-14.8h27.7s-.5 3.3.9 8c1.3 4.7 6.6 23.8 6.6 23.8s16.2-20.2 18.5-23.3c2.3-3.1 3.2-4.6 3.5-8.5h22.9s-2.5 2-5.5 5.3-32.7 40.5-32.7 40.5l3.4 12.3s29.4-38.3 34.6-45.2c5.2-6.9 7.1-11.2 7.7-12.9h22.6s.2 5.2 1.2 8.8c5.3 18.6 19.3 65 27.2 88.1 4.2 12.1 5.8 14.4 7.2 16.1h-28.9z" fill-rule="evenodd" clip-rule="evenodd" fill="#fff"/><path class="st0" d="M284.5 321.7s7.4-8.8 11.8-14.4 9.9-13.2 11-15.8c.2 5.6.4 7.5 1.8 12.2 1.4 4.7 5.7 18 5.7 18h-30.3zm-116.6 0s7.2-8.3 12.4-15c5.3-6.7 9.2-12 10.6-15.2-.6 6.3.5 8.8 1.8 13.4s5.3 16.8 5.3 16.8h-30.1zm70.7 14.5s3.1 10.4 5.4 14.7c0 0-6 7.7-8.3 11.1 0 0-3.3-10.5-4.7-15.4l7.6-10.4z"/></svg>