<svg xmlns="http://www.w3.org/2000/svg" viewBox="0 0 512 512"><path d="M93.9 200.4c.6.1 1.2.1 1.8.2 3.3.1 6.5.6 9.6 1.5 4.2 1.2 8.1 3.1 11.3 6.1 4 3.7 6.4 8.3 7.2 13.7.7 5 0 9.7-1.7 14.4-1.1 3.1-2.7 6.1-4.6 8.9-2.1 3.2-4.3 6.3-6.4 9.5-.2.2-.3.5-.5.8.3.2.6.3.9.5 5.4 2.9 10.3 6.4 14.6 10.8 5.5 5.6 9.5 12 11.7 19.5 1.3 4.3 1.9 8.8 1.6 13.3-.7 13-6.3 23.4-16.6 31.4-5.5 4.2-11.6 6.8-18.3 8.4-3.5.8-7.1 1.3-10.7 1.4-1.5 0-3.1.1-4.6.1H33.4c-.4 0-.7 0-1.1.1V200.7c20.6-.3 41.1-.3 61.6-.3zm-28.4 18.3c0 .1-.1.2-.1.3v102.8l.1.1h.3c4.2 0 8.4 0 12.6-.1 3-.1 5.9-.7 8.7-1.6 6.7-2.3 11.7-6.5 14.7-13 1.7-3.7 2.5-7.6 2.9-11.6.2-2.3.2-4.7 0-7-.2-3.1-.7-6.2-1.6-9.2-1.6-5.2-4.4-9.5-8.8-12.8-2.7-2-5.8-3.4-9.1-4.3-.2 0-.4-.1-.6-.2.2-.3.3-.5.5-.7 3.7-5.6 7.5-11.2 11.2-16.8.8-1.2 1.5-2.5 2.1-3.8 1.9-4.2 1.9-8.5-.1-12.6-3.1-6.2-8.2-9.4-15.1-9.5-5.6-.1-11.2 0-16.8 0-.4-.1-.7 0-.9 0zm146.9-18.3c.6.1 1.1.1 1.7.2 2.7.1 5.5.4 8.1 1.1 4.5 1.1 8.6 2.9 12.1 5.8 4.4 3.7 7.1 8.4 8 14.2.8 5.2 0 10.3-1.8 15.2-1.2 3.1-2.7 5.9-4.5 8.6-2.1 3.1-4.1 6.1-6.2 9.2-.2.2-.3.5-.5.8.3.2.6.4.9.5 5.5 2.9 10.5 6.5 14.9 11 5.6 5.7 9.6 12.4 11.7 20.1 1.2 4.4 1.7 8.8 1.3 13.3-1 13-6.9 23.4-17.4 31.1-5.3 3.9-11.2 6.3-17.5 7.7-3.5.8-7.1 1.3-10.7 1.4-1.5 0-3 .1-4.5.1h-56.8c0-.2-.1-.4-.1-.6V201.7c0-.4 0-.8.1-1.2 20.4-.1 40.8-.1 61.2-.1zm-28.5 18.3v102.6c0 .2.1.3.1.5.2 0 .3.1.5.1 4.2 0 8.4 0 12.5-.1 2.8-.1 5.5-.6 8.2-1.5 7.2-2.3 12.4-6.8 15.4-13.7 1.8-4 2.5-8.3 2.7-12.6.1-2.1 0-4.2-.1-6.2-.2-3.1-.8-6.2-1.8-9.2-1.7-5.1-4.7-9.3-9.1-12.4-2.7-1.9-5.6-3.1-8.7-3.9-.2 0-.3-.1-.5-.2.2-.3.3-.5.5-.7l11.1-16.5c.8-1.2 1.5-2.4 2.1-3.7 2.2-4.7 2.1-9.4-.5-13.9-3.2-5.6-8.1-8.4-14.5-8.5-5.7-.1-11.3 0-17 0-.2-.2-.5-.1-.9-.1zm187.3-18.3c-.1.5-.2 1-.4 1.5-9.5 31.1-19 62.2-28.5 93.4l-13.5 44.4c-.1.3-.2.5-.3.8h-33.6c-15.2-46.6-30.5-93.2-45.7-139.9.4 0 .8-.1 1.1-.1h18.8c.3 0 .7-.1 1-.1h4.1c.3 0 .6.1.9.1.9.1 1.8.1 2.6.2 3 .3 5.5 1.7 7.3 4.2.9 1.2 1.6 2.5 2.2 3.9 1.5 3.3 2.6 6.7 3.7 10.2 5.7 18.9 11.4 37.7 17 56.6 3.1 10.2 6.1 20.3 9.2 30.5.1.2.2.5.3.7.2-.3.4-.6.4-1 4.6-15.4 9.1-30.7 13.7-46.1 5.2-17.4 10.4-34.9 15.6-52.3.7-2.3 1.4-4.7 2.1-7h22zm-16.1 140c14.3-46.7 28.5-93.2 42.8-139.9.3 0 .5-.1.7-.1h28.2c1.7 0 3.4.2 5 .7 2.2.6 3.9 1.9 5.3 3.7 1.2 1.7 2.2 3.5 2.9 5.4 1.3 3.5 2.5 7 3.7 10.4 11.7 34.6 23.4 69.1 35 103.7 1.7 5 3.4 10.1 5.1 15.2.1.2.2.5.3.8h-37.7c-.1-.3-.2-.6-.3-.8-2.9-9.5-5.8-18.9-8.7-28.4-.3-1-.1-1-1.3-1h-49.4c-.7 0-.7 0-1 .7-1.4 4.5-2.7 9-4.1 13.5-1.5 5.1-3.1 10.1-4.6 15.2-.1.3-.2.5-.3.8-7.2.1-14.3.1-21.6.1zM411.3 226s-.1 0-.1.1-.1.2-.1.3c-6.3 21-12.6 42-18.8 63v.4l.1.1c1.1.1 37.9.1 38.4-.1-.3-1-19.2-63.3-19.5-63.8z" fill="#19559b"/></svg>