<svg version="1.1" id="Layer_1" xmlns="http://www.w3.org/2000/svg" x="0" y="0" viewBox="0 0 512 512" xml:space="preserve"><style>.st1{fill:#005b80}</style><path d="M152.3 149.5c-3.4 2.6-12.1 9.7-17.7 16.9-5.7 7.3-7.5 10.3-12.1 19.1s-12.5 23.9-14.9 45.1c-2.3 21.1-1 33.9 1.1 45.9 2.1 12.1 6.7 27.3 12.4 40 5.7 12.9 21 31.7 24.9 35.5 3.9 3.7 21.6 21.7 36.9 30.1 15.3 8.3 20 9.5 41.5 13.1 21.4 3.6 33.6 3.2 40.4 3.3 6.8.1 19.3-.5 27-1.1 7.7-.7 13.2 0 28.4-5.3s17.1-7.8 26.6-12.2c9.4-4.4 19-11.7 25.1-17.9 6.3-6.2 10.8-12.1 17.3-22.4 6.6-10.3 11.7-22.7 15.9-35.5 4.2-12.8 7.4-29.5 8.5-39.7 1.1-10 .3-18.8-.5-30.1-.7-11.3-7.8-33.6-11.2-40.4-3.4-6.8-6.3-13.8-15.5-25-9.4-11.2-16.2-16.9-29.7-25.5-13.5-8.5-32.7-14.3-46.6-17.5-13.9-3.1-34.6-5.2-39.1-5.2-4.4 0-15.9.1-27.6.8-11.6.7-33.7 4.9-40.3 6.1-6.6 1.1-17.2 4.7-19.3 5.6-2.1.9-9.6 4.4-9.6 4.4-2.1 1-16.3 7.7-21.9 11.9z" fill="none" stroke="#060a02" stroke-width="16" stroke-miterlimit="10"/><path class="st1" d="M331.7 212.8c0-4.8-3.9-8.7-8.7-8.7s-8.7 3.9-8.7 8.7c0 4.8 3.9 8.7 8.7 8.7 4.9 0 8.8-3.9 8.7-8.7z"/><circle class="st1" cx="226.2" cy="212.8" r="8.7"/><path class="st1" d="M311.5 263.4c-.1-4.3-3.8-6.3-6.4-6.8-2.6-.5-3 1.4-3 1.4v12c0 .6 0 .9 2.1.8 4.7-.1 7.3-3.1 7.3-7.4z"/><path class="st1" d="M412.6 234.3c-.1-2.1-.7-4.5-1.7-8.5s-2.5-13.7-4.5-17.6c-1.9-4-4.6-10.3-6.4-13.9-1.8-3.5-2.4-7.1-9.1-18.1-6.7-11-14.3-17.2-21.3-23.5s-22.8-14.2-33.4-18.5c-10.7-4.3-20.9-6-28.3-7.9-7.4-1.9-29.1-4.9-40.6-4.8-11.4.1-15.9.8-36.5 3s-29.4 5.1-45.6 9.7c-16.3 4.6-23.8 11.8-27.4 13.4-3.6 1.6-13.4 11.4-13.4 11.4-.9 1.1-8.4 9-12.3 14.2-4 5.3-12.5 21.8-13.9 25.5-1.4 3.7-12.9 27.1-10.4 58.6s9.7 43.2 12.1 48.8c2.4 5.6 7.1 16.6 19.1 31.4 12 14.8 23.4 23.7 27.6 27.1 11.7 9.4 24.6 16.1 38.6 21.6 11 4.3 25.3 7.5 35.8 7.5 2.9 0 17.7.3 18.9.4 1.2 0 5.7-.7 8.2-1.1 2.5-.4 10.5 0 14.2-.3s3 1 19.7-2.3 31.7-10.8 39.6-15.3c7.9-4.6 21.5-14.4 33.2-26.2 11.7-11.8 17.7-22.1 22.9-32.2 5.3-10 8.8-23.7 11.7-33 2.9-9.3 4-23 4.1-26.4.2-3.4-.8-20.9-.9-23zm-34.5-9.8c1.2 1.4 3.8 5 1.5 21s-6.2 20.5-6.2 20.5c-1.6-1.4-5.1-9-3.1-23.7 2-14.7 7.8-17.8 7.8-17.8zm-27.4 6.7c3.7.1 8.1 5.5 13.7 17.8s4.7 22.5 4.7 22.5c-5.2-1.1-8.6-7.4-14.6-19.3-6-12-3.8-21-3.8-21zm-1-27.4c0-2.5 2.1-4.6 4.6-4.6s4.6 2 4.6 4.6c0 2.6-2.1 4.6-4.6 4.6-2.6 0-4.6-2.1-4.6-4.6zm19.2 81.2c2-2.9 4.7-8.6 4.8-9.6s2.4-.6 2.5-.1c.1.5-1.9 8.7-3.5 12.2-1.6 3.6-3.8 8.4-5.5 9.4-1.7 1.1-2.4 0-3.1-2-.1-.3 2.9-7.1 4.8-9.9zm2.5-61.5c.2 4.6-2.8 3.3-2.8 3.3-2.4-.7-2.1-1.2-2.3-5.1-.3-3.8-3.5-15.4-4.5-17.8-1-2.4.8-1.8.8-1.8 4.3 3.9 8.6 16.8 8.8 21.4zm-13.6-71.9c.5 0 5.4 2.6 7.3 23.3 1.9 20.7-1.4 21.9-2.3 21.9-.9 0-5.7-6.9-6.8-19-2.2-23.8 1.4-26.2 1.8-26.2zm-29.1 2.2c1.5-1 9.1 6 10.6 7.2 1.4 1.3 3.6 3.2 4.6 4.7s2.3 2 7.8 11.1c5.4 9.1 4.1 11.9 4.1 11.9-3.7 1-11.2-5.3-18-13.5-7-8.1-10.6-20.5-9.1-21.4zm9.2 28c12 5.8 15.8 12.2 15.8 12.2-4 2.1-13.2-1.3-21.3-4.8-8.1-3.6-14.6-10.1-15.1-10.8-.5-.7.3-1.2.3-1.2 5.9-1.5 11.6.4 20.3 4.6zm-35.8 107.4h-5s-2 .1-2-1.4v-37.2s.1-1.5 2.3-1.5h8s14.9-.1 14.9 14.6-11.9 15.1-15.4 15.3c0 0-1.2-.2-1.2 1.1v7.5s.1 1.6-1.6 1.6zm3.5-76.3c0-9.7 7.9-17.6 17.6-17.6s17.6 7.9 17.6 17.6-7.9 17.6-17.6 17.6-17.6-7.9-17.6-17.6zm-31.2-70.3c.3-.8 3-1.8 7.2-2.1 4.2-.3 6.8 0 19 3.2 17.3 4.5 17.1 8.6 17.3 8.9-1.4 1.8-15.7 1.1-25.3-1.1-9.3-2.2-18.9-6.8-18.2-8.9zm-7.1 55.2s.3-3 2.7-.8 18.3 18 18.3 18 .9 1 .9-1.3c-.1-2.3 0-16 0-16s-.2-1.4 1.3-1.4h5.5s1 .1 1 1.2v34.6s-.1 1.3-1.7 0c-1.6-1.3-18.8-15.4-18.8-15.4s-1.1-.8-1.1.9c-.1 1.6 0 14.5 0 14.5s.3 1.5-1.1 1.5H269s-1.7.2-1.7-2v-33.8zm-17-3.1c0-.9.7-1.7 1.7-1.7h5c.9 0 1.7.7 1.7 1.7v36c0 .9-.8 1.7-1.7 1.7h-5c-.9 0-1.7-.8-1.7-1.7v-36zm-21.8 91.5h-5.6s-1.7.2-1.8-1.8v-23s0-.5-.8-1.3-12.7-12.9-12.7-12.9-1.1-1.1.2-2.5 4-3.9 4-3.9 1-.7 2.4.8c1.4 1.4 10.6 10.9 10.6 10.9s.9.6 1.7-.2c.8-.8 11.3-11 11.3-11s1-.8 1.8.1l3.8 3.8s1.1.9.1 2.3c-1.1 1.4-13.1 14.3-13.1 14.3s-.5.7-.5 1.5V284s.2 2.2-1.4 2.2zm-76.6 4.9c1.4 7.8 6.9 15.9 6.9 17.9s-2.5 3.2-3.9 2.3c-2.6-1.7-6.7-16.9-5.5-20.1 1.2-3 2.5-.1 2.5-.1zm-.1-24.9c.7-14 7.4-23.6 7.9-23.4s4.9 8.5 1.5 23.1c-3.4 14.6-8.8 19-8.8 19-1.3.5-1.4-4.8-.6-18.7zm6.9 24.2c0-2.4 2-4.4 4.4-4.4 2.4 0 4.4 2 4.4 4.4 0 2.4-2 4.4-4.4 4.4-2.4 0-4.4-2-4.4-4.4zm3.6 19.7c2.4.7 8.3 4 13.6 15 5.3 11 5.8 20.9 5.8 20.9-8.1-3.9-10.1-9.2-15.1-18.6-4.8-9.2-4.3-17.3-4.3-17.3zm19.2-95.7c1.1-1.2 13.9-16.4 13.9-16.4s.7-.8 1.9.2c1.2 1.1 4.4 3.6 4.4 3.6s.6.5-.1 1.6c-.8 1.1-11 12.4-11 12.4s-1.1 1.2 0 2.2c1.2 1 15.5 12.2 15.5 12.2s.6 1 .1 1.8-3.2 3.8-3.2 3.8-.6.9-2.1-.4c-1.6-1.4-19.7-14.5-19.7-14.5s-.8-.5-.8.9v16.8s.1 1.5-1 1.5h-6s-1.2-.1-1.2-1.3v-39.1s.2-1.1 1.2-1.1c.9 0 5.8-.1 5.8-.1s1.1-.1 1.1 1.7v14.7s.1.7 1.2-.5zm-.1 114.8c-2.5-14.3 2.5-22.5 2.5-22.5s4.7 2.7 6.3 18.6c1.5 15.9-3.4 22.6-3.4 22.6s-3-4.3-5.4-18.7zm3.3-52.1s-.8-.5-.8.9v14.3s.1 1.5-1 1.5h-6s-1.2-.2-1.2-1.4v-36.5s.2-1.1 1.2-1.1c.9 0 5.8-.1 5.8-.1s1.1-.1 1.1 1.7v14.7s.1.7 1.2-.5c1.1-1.2 13.9-16.4 13.9-16.4s.7-.8 1.9.2c1.2 1.1 4.4 3.6 4.4 3.6s.6.5-.1 1.6c-.8 1.1-11 12.4-11 12.4s-1.1 1.2 0 2.2c1.2 1 15.5 12.2 15.5 12.2s.6 1 .1 1.8-3.2 3.8-3.2 3.8-.6.9-2.1-.4c-1.6-1.4-19.7-14.5-19.7-14.5zm59.2-64.2c0 9.7-7.9 17.6-17.6 17.6s-17.6-7.9-17.6-17.6 7.9-17.6 17.6-17.6c9.8 0 17.6 7.9 17.6 17.6zm-58.5-62.4c6.2-3.2 13-6.7 18.8-7.5s12.6-.7 12.6 1c-.1 1.6-6.2 5.4-7.8 6.7-1.6 1.3-12.5 6.9-19.1 8.1-6.8 1.1-12.5 1-12.6.5 0 0 1.9-5.6 8.1-8.8zm-6.3 29c.3 2.1-4.4 12.3-11.3 19.9-6.9 7.6-13.5 10.3-13.6 10.1-.7-2.4 3.6-12.6 9-19.4 5.4-6.8 15.6-12.7 15.9-10.6zm-28.9 4.7c2.5-8.1 10.3-19.8 12-18.6 1.7 1.2-.5 15.8-2.7 22.5-2.2 6.7-8.3 17.3-9.6 16.2-3.8-3.1-2.1-12 .3-20.1zm-3.3 43.6c.8-5.1 3-11.7 3.5-12.2s1.6 1.8 1.9 3c.3 1.2-1.3 9.5-1.3 12.6 0 3.1.2 6.3-.8 7.2 0 0-1.4.5-3.3-.1-1.8-.6-.7-5.4 0-10.5zm.8 53.6c-.5.5-3.5-4.9-7.2-15.9s-.9-29-.2-29.2 5.5 5 7.8 18-.4 27.1-.4 27.1zm-9.1-106.6c2.8 2.3 5.3 11.5 6.6 19.1s-.1 20.7-.1 20.7c-1.6-.4-7.2-7.6-9.2-20.4-2-12.9 2.7-19.4 2.7-19.4zm-4.2 39.8c2.4 0 4.3 2 4.3 4.3 0 2.4-1.9 4.3-4.3 4.3s-4.3-1.9-4.3-4.3 1.9-4.3 4.3-4.3zm9.9 74.1c-1.4.6-9.4-6.1-14.8-16.1-5.4-9.9-5.9-22.6-5.9-22.6 7.4 3.3 11.8 11.8 14.3 17.1s7.3 21.2 6.4 21.6zm13.5 52.8c-7.4-4.8-12.5-16.1-12.5-16.1 8.8-.2 18.4 7.5 21.8 10.3 3.4 2.8 13.1 16 13.1 16-5.6-.3-15-5.3-22.4-10.2zm27.6 24.6c-2.3 0-4.2-1.9-4.2-4.2s1.9-4.2 4.2-4.2c2.3 0 4.2 1.9 4.2 4.2 0 2.3-1.9 4.2-4.2 4.2zm37.8 6.3c-.7.8-4.4.6-4.4.6-2.4-.1-6.4-3-9.4-4.6-4.6-2.3-14.5-8.3-18-11.9-1.2-1.3-1.4-2.3-1.4-3 0-.7 1-1.9 2-1.3 1 .5 3.7 3.4 8.3 6.3 4.6 2.9 16.6 8 18.7 9.4 2.1 1.4 4.9 3.8 4.2 4.5zm5.4 10.9c-1.3.3-4.3-2.5-4.3-2.5.3-1.2-.7-3.2-.5-3.6.2-.5 4.1-7.6 4.1-7.6s5.2-7.3 7.7-3.5c2.6 3.8.2 7.2-.9 9.8-1.2 2.6-4.8 7.1-6.1 7.4zm19.4-13.6c-.5 1.8-1.6 4.5-2.8 8-1.2 3.6-4.2 7.2-6.3 5.9-2.1-1.3-2.8-3.6-2.7-5.9.1-2.4 4.5-8.3 5.5-9.6s3-2.7 4.1-2c1.1.6 2.7 1.8 2.2 3.6zm7.1 14.4c-2 3.5-4.8 1.3-5.9.1-.8-.8-1.1-1.1.1-3.9 1.1-2.8.9-7.6 4-12.5 3.1-5 6.2-.2 6.2-.2.5 10.6-2.4 13-4.4 16.5zm3.8-51.6c-5.3 5.7-14.4 7.7-21.5 2.9-3.3-2.2-4.2-6-4.2-6s-.7-.6-1 .1-3.6 7.1-9 8c-5.5.9-9.7.2-12.8-3.8-3.1-4-4.5-7.7-4.5-13.6 0-5.8.1-13.1.1-13.1s-.1-1.6 1.6-1.6h5.2s1.5.1 1.5 1.5v13.2s.2 8.4 7.7 8.4c6.1-.1 8.7-7.8 8.8-9.8v-5.5s.6-1.2 1.4-1.2h4.1s1.2.3 1.2 1.5v5.7c0 .6.8 9.2 9.2 9.2 5.8.1 9.9-9.2 10-12.1v-8.6s.1-1.3 1.3-1.3h4.8s1.4.4 1.4 1.4v8s-.1 11.1-5.3 16.7zm11.7 40.2c.1 2.6-3.2 9.2-4.4 10.7 0 0-1 2.3-4.6.1-3.6-2.4.2-10.4 1.8-13.1 1.6-2.7.4-4.8 4.2-3.4s2.9 3.1 3 5.7zm1.4-88.9c.2-1.6 3.4-20.7 3.4-20.7s.1-1.8-1.6-1.7c-1.7.1-15.5 0-15.5 0s-1.7-.2-1.7 2.1v20.7s-.1 1.6-1.6 1.6h-5.3s-1.5-.2-1.5-1.3V255s.4-1.4 2-1.4h33s1.1.4 1 2.2c-.2 1.7-4.1 28.3-4.1 28.3s-.2 1.3-1.3 1.4c-1.1.2-5.4 0-5.4 0s-1.6-.1-1.4-1.7zm11.2 83.7c-.2 1.8 0 2.9-.4 8.1-.3 5.2-2.7 6.3-5.2 5.4-3.1-1.2-3.7-6.4-2.4-12.2 1.5-6.2 4.6-6 5.9-5.6 1.4.4 2.3 2.5 2.1 4.3zm1.7-40.7s-1.1-.8-1.1.9v14.5s.3 1.5-1.1 1.5h-5.3s-1.7.1-1.7-2.1v-33.7s.3-3 2.7-.8 18.3 18 18.3 18 .9 1 .9-1.3c-.1-2.3 0-16 0-16s-.2-1.4 1.3-1.4h5.5s1 0 1 1.2v34.6s-.1 1.3-1.7 0c-1.6-1.3-18.8-15.4-18.8-15.4zm47.4 27.3c-.1 4.9-5.5 6.5-18.7 13.4s-24.6 8.9-24.7 7.8c-.4-5.5 3.6-5.5 5.9-6 2.3-.5 10.7-1.3 24.5-9.4s13-5.8 13-5.8zm4.8-66.3c0 .9-.8 1.7-1.7 1.7h-5c-.9 0-1.7-.8-1.7-1.7v-35.9c0-.9.7-1.7 1.7-1.7h5c.9 0 1.7.7 1.7 1.7v35.9zm2.7 23c2.1-9.1 5.7-11.5 5.7-11.5 2 3.4 3.5 11.2 2.7 21.3-.8 10.1-6.3 19.8-6.3 19.8-4-2.6-3.4-24.1-2.1-29.6zm4.1 47.9c-2.4 0-4.4-2-4.4-4.4 0-2.4 2-4.4 4.4-4.4 2.4 0 4.4 2 4.4 4.4 0 2.4-2 4.4-4.4 4.4zm3.8-21.8s1.4-13.9 10.1-26.4c4.2-6 10.6-9.1 10.9-9 0 0 1.2 8.8-3.8 16.9-5.1 8.3-12 16.7-16.4 19.2l-.8-.7zm25.3-4.2c-12.1 10.2-22.7 12.6-23.4 10 0 0 4.6-8.8 12.6-14.9s14.5-10.4 21.2-10c0 0 1.7 4.7-10.4 14.9zm11.5-46.1c-2.5 0-4.5-2-4.5-4.5s2-4.5 4.5-4.5c2.4 0 4.5 2 4.5 4.5s-2 4.5-4.5 4.5zm5.1-28.4c-1.1 3.2-5 8.1-6.9 11-1.9 2.9-4.6 4.8-4.6 4.8-2-2.9.1-18.9 5.5-28.9 5.4-10.1 10.8-11.6 10.8-11.6 1.4 9.8-3.7 21.5-4.8 24.7z"/></svg>