<svg xmlns="http://www.w3.org/2000/svg" viewBox="0 0 349 348"><defs><radialGradient id="a" cx="148.74" cy="183.88" r="99.22" gradientTransform="rotate(84.16 274.097 277.322) scale(1.14)" gradientUnits="userSpaceOnUse"><stop offset=".03" stop-color="#fff"/><stop offset=".03" stop-color="#fffefe"/><stop offset=".19" stop-color="#f7bdc1"/><stop offset=".35" stop-color="#f1858c"/><stop offset=".5" stop-color="#ec5860"/><stop offset=".64" stop-color="#e7343f"/><stop offset=".78" stop-color="#e41b27"/><stop offset=".9" stop-color="#e30b18"/><stop offset="1" stop-color="#e20613"/></radialGradient><radialGradient id="b" cx="123.58" cy="174.74" r="285.32" gradientTransform="matrix(1.12 0 0 1.12 16.26 -34.07)" gradientUnits="userSpaceOnUse"><stop offset=".65" stop-color="#fdfdfd"/><stop offset=".72" stop-color="#f4f4f4"/><stop offset=".84" stop-color="#dadada"/><stop offset="1" stop-color="#b2b2b2"/><stop offset="1" stop-color="#b1b1b1"/></radialGradient><linearGradient id="c" x1="109.04" y1="372.82" x2="432.02" y2="186.34" gradientUnits="userSpaceOnUse"><stop offset=".04" stop-color="#454443"/><stop offset=".08" stop-color="#929191"/><stop offset=".15" stop-color="#454443"/><stop offset=".91" stop-color="#454443"/><stop offset=".97" stop-color="#929191"/><stop offset=".98" stop-color="#727171"/><stop offset=".99" stop-color="#555554"/><stop offset="1" stop-color="#4a4a49"/></linearGradient></defs><g data-name="Layer 1"><path d="M130.29 183.7c-3.16.28-5.38-.21-5.32-4.28 0-3.89 2.31-4.06 5.13-3.91 3.07.16 6.94-.19 7 4.07s-3.8 3.94-6.81 4.12zm-.41-12.82c-1.92-.15-4.75.77-4.81-3.17-.06-3.6 2.25-3.74 4.83-3.66s6.24-.27 6.22 3.51c-.03 3.32-3.24 3.37-6.24 3.32z" fill="#fcfdfc"/><path d="M338.88 171.2A166.84 166.84 0 1 1 172.04 4.36 166.84 166.84 0 0 1 338.88 171.2z" fill="#e20613"/><circle cx="258.16" cy="259.32" r="166.84" transform="rotate(-84.16 166.276 262.952)" fill="url(#a)"/><path d="M425 259.32A166.84 166.84 0 1 1 258.16 92.48 166.84 166.84 0 0 1 425 259.32z" transform="translate(-86.12 -88.12)" fill="url(#b)"/><path d="M157.88 82.88c3.48 2.65 20.93 12.87 26.16 16.15a15.94 15.94 0 0 1 1.78 1.26c.41-.57.71-1 .87-1.29 1.84-3.06 2.57-5.52-2.65-8.79s-22.66-13.46-26.16-16.12c-.21-.16-5.54-4.41-5.72-4.62 2.2 5.98 3.64 11.82 5.72 13.41z" fill="#4a4a49"/><path d="M408.62 149.29c1.41 3.4 2.66 9.88 2.11 12-2 7.72-13.89 19.41-32.69 36.37 0 0-31.07 28.82-53.75 48.64s-95.23 80.93-109.33 92-68.78 51.7-72.33 54.35c-2.7 2-14.75 3.77-20 3.63 1.71 2.44 4.76 5.14 7.91 8.19 5.57 5.4 15.33-2.41 18.88-5.08S207.6 356.05 221.7 345s86.65-72.15 109.34-92 53.74-48.64 53.74-48.64c18.8-17 29.07-26.19 31.07-33.91.92-3.45 2.15-14.65-7.23-21.16z" transform="translate(-86.12 -88.12)" fill="url(#c)"/><path d="M162.47 127.88s19.27-24.93 21.11-28 2.57-5.51-2.65-8.78-22.69-13.49-26.16-16.15-2.86-12.46 7.36-14.51 98.9-9.4 133.44-5.72 29.84 13.49 30 21.46-13.85 19.4-32.69 36.36c0 0-31.07 28.82-53.75 48.64s-95.23 80.93-109.33 92-68.74 51.7-72.29 54.35-13.47 10.64-18.87 5.08 0-11.78 2.74-15.57S154.3 137.68 162.47 127.88z" fill="#fff"/></g></svg>