<svg xmlns="http://www.w3.org/2000/svg" viewBox="0 0 512 512"><path d="M120.6 397.8c19.9-14.4 39.6-28.2 58.8-42.6 79.1-59.6 153.3-125 225.4-192.8 5.8-5.4 9.6-12.9 14.5-19.7 5.7 2.8 9.5 14.3 3.4 21.7-7.1 8.6-4.5 15.3-1 24 28.7 71 12 146.9-44.8 198.2-37.4 33.8-82.2 48.1-132.8 43.7-31.5-2.7-60-13.3-85.6-31.5-4.4-3.1-7.9-3.4-11.8.2-1.1 1.1-2.6 1.8-3.8 2.7-11.1 7.8-15.7 6.8-22.3-3.9zM370 121.5c-4.3 0-7.3-.1-10.4 0-35.2 1.7-70.4 3.4-105.6 5.3-4.2.2-8.6 1.2-12.3 3-2.8 1.5-5.9 4.7-6.5 7.6-.4 2.4 2 6.5 4.3 8.1 6.9 4.9 14.4 9 21.6 13.5 8.1 5.1 8.7 7.1 2.9 14.7-17.8 23.7-36.3 47-53.7 71.1-27.3 37.9-53.7 76.3-80.6 114.4-5.4 7.7-5.9 7.7-11.5-.1-27.1-38.2-38.7-80.6-31.4-127.1C98 160.3 138.6 112.1 207.1 89.2c56.4-18.9 109.2-8.2 157.4 26 1.3.9 2.5 1.9 3.6 2.9.6.5.8 1.2 1.9 3.4z" fill="red"/></svg>