<svg id="Layer_1" xmlns="http://www.w3.org/2000/svg" viewBox="0 0 512 512"><style>.st1{fill:#fdfdfd}</style><path fill="#3475bb" d="M0 0h512v509H0z"/><path class="st1" d="M88.2 379.8c.2-3.7.6-7.3.6-11 0-96.7.2-193.3-.3-290 0-10 3-11.8 12.2-11.8 80.3.4 160.7.2 241 .2 3.7 0 7.4-.2 11.1-.3 15.1.1 30.2.6 45.3.1 7-.2 9.4 1.5 9.4 9-.3 48.7 0 97.4 0 146.1 0 51.5-.3 102.9-.1 154.4 0 7.1-1.6 9.3-9.1 9.3-100.5-.3-201-.2-301.4-.2-4.3 0-9 .9-8.7-5.8zm277.3-225.7c.1-12.3-.2-24.7.5-36.9.4-6.9-1.7-8.8-8.7-8.8-45.9.3-91.8.2-137.7.2-9.2 0-18.4.4-27.6.6-18.7-1.8-37.5-.1-56.3-.8-5.8-.2-5.5 3.3-5.5 7.2-.1 73.9-.2 147.9-.4 221.8 0 5.7 1.8 7.2 7.4 7.2 73.9-.2 147.9-.2 221.8-.1 5 0 7-1.1 7-6.6-.4-61.2-.4-122.5-.5-183.8z"/><path d="M315.9 403.9c-20.4-.4-40.4 2.9-60.3 6.6-26.1 4.8-51.4 11.8-75 24.2-5.2.6-9.7 3.3-13.9 6-4.7 3.1-5.8-.1-7.7-2.9 16-9.2 32.1-18.3 49.5-24.7 41-12.2 82.8-18.6 125.5-17.4 31.4.9 62.3 5.7 92.1 16.5-11.5-3.6-23.5-.7-35.2-3.7-24.6-6.3-49.8-6.4-75-4.6z" fill="#f38f1e"/><path class="st1" d="M240.7 122.3c2.4-1.1 3.4-4.2 6.9-4.5.3 3.5.5 7 .8 10.4-.1 13.5-.4 27.1-.3 40.6.1 5.2-1 9.1-5 13-13.3 12.8-26 26.3-39.2 39.2-4.1 4-5 6.4-.3 10.8 13.4 12.7 26.5 25.8 39.3 39.1 4.1 4.2 6.5 4.6 10.8.2 13-13.6 26.5-26.7 39.8-40 2.4-2.4 4.4-4.8 8.4-4.8 18.4.2 36.8.1 55.3.1.3 3.6-2.3 4.7-3.9 6.3-33.1 33.2-66.3 66.2-99.2 99.5-4.5 4.6-6.8 4.7-11.3 0-33.3-33.7-66.8-67.2-100.5-100.5-4.7-4.6-3.5-7 .4-10.9 27.4-27.1 54.6-54.4 81.8-81.6 5.3-5.5 10.7-11.2 16.2-16.9z"/></svg>