<svg version="1.1" id="Layer_1" xmlns="http://www.w3.org/2000/svg" x="0" y="0" viewBox="0 0 512 512" xml:space="preserve"><style>.st4{fill:#f5dea2}</style><path d="M216.4 271.8c-3.2.3-5.4-.2-5.3-4.3.1-3.9 2.3-4.1 5.1-3.9 3.1.2 6.9-.2 7 4.1.2 4.4-3.8 3.9-6.8 4.1zM216 259c-1.9-.2-4.8.8-4.8-3.2-.1-3.6 2.3-3.7 4.8-3.7 2.7.1 6.2-.3 6.2 3.5 0 3.4-3.2 3.4-6.2 3.4z" fill="#fcfdfc"/><path d="M411.4 131.2c-2.4 14.3-4.4 28.7-4.7 43.2-.5 29.9 4.5 59 12.7 87.6.8 2.9.8 5.3-.3 8.1-22.8 57-58.2 104.3-107.9 140.8-.8.6-1.7 1.1-2.6 1.7-9.6-3.3-19-7.1-28.3-11.3-9-4.1-18.2-7.7-26.6-13.1 1.7-1 3.4-2 5.1-2.9 6.2-2.9 12.2-6.3 17.9-10 46.1-29.9 79.1-70.9 101.7-120.6.9-2 .9-3.9.3-6-6.3-24.6-10.3-49.6-11-75-.5-18.8 1.2-37.5 4.5-56 1 .2 2 .4 3 .7 12.5 3.4 24.3 8.2 36.2 12.8z" fill="#e33d35"/><path d="M258.9 385.2c-1.7 1-3.4 2-5.1 2.9-1.3-.5-2.6-1-3.9-1.7-18.7-10-36.6-21.4-53.2-34.7-31.2-24.8-56.2-54.5-73.7-90.3-.9-1.9-1.5-3.7-1-5.9 3.8-15.3 6.5-30.8 8-46.5 1.8-18.4 1.2-36.7-1.5-55-2.9-19.6-8.3-38.6-14.4-57.4 18.1-7.2 36.8-12.2 55.7-16.3 39.2-8.5 78.9-11.2 118.9-8.4 43.9 3 86.4 12.5 127.3 29 2.5 1 3 1.9 2.2 4.4-2.9 8.4-4.7 17.2-6.8 25.8-11.9-4.6-23.7-9.5-36-13-1-.3-2-.4-3-.7-.2-.2-.4-.4-.6-.5-30.8-9.2-62.2-14.4-94.2-15.8-21.6-.9-43.2-.3-64.8 2.3-21.7 2.6-43.1 6.8-64.1 12.9-2 .6-2.6 1.2-2.2 3.4 2.5 13.6 3.8 27.4 4.1 41.3.6 29.7-3.7 58.8-11 87.5-.5 2-.5 3.7.3 5.6 17.1 38.2 41.1 71.5 72.7 99.1 14.1 12.7 29.7 23.1 46.3 32z" fill="#1a57b7"/><path d="M114.2 96.7c6.1 18.8 11.6 37.8 14.4 57.4 2.7 18.3 3.2 36.6 1.5 55-1.5 15.7-4.2 31.2-8 46.5-.5 2.2 0 4 1 5.9 17.5 35.9 42.6 65.6 73.7 90.3 16.7 13.2 34.5 24.6 53.2 34.7 1.2.7 2.6 1.1 3.9 1.7 8.4 5.4 17.5 9.1 26.5 13.1 9.3 4.2 18.7 8 28.3 11.3-14.7 10.7-30.6 19.3-47.3 26.3-1.8.8-3.2.3-4.8-.4-22.7-9.4-43.3-22.1-62.2-37.6-43-35.4-74.4-79.2-94.9-130.9-1.1-2.7-1.1-5.1-.3-7.8 5.9-20.3 10-40.9 11.9-61.9 2.8-32.1-1.1-63.5-10.5-94.2-.9-2.9-.8-4.4 2.4-5.3 3.7-1.2 7.2-3.3 11.2-4.1z" fill="#f6cd4c"/><path class="st4" d="M258.9 385.2c-16.6-8.8-32.2-19.3-46.3-31.7-31.6-27.6-55.5-60.9-72.7-99.1-.8-1.9-.8-3.6-.3-5.6 7.3-28.7 11.6-57.8 11-87.5-.3-13.9-1.6-27.6-4.1-41.3-.4-2.2.1-2.8 2.2-3.4 21-6.1 42.4-10.4 64.1-12.9 21.5-2.6 43.1-3.2 64.8-2.3 32.1 1.4 63.5 6.6 94.2 15.8.2.1.4.3.6.5-3.4 18.5-5 37.2-4.5 56 .7 25.4 4.7 50.4 11 75 .5 2.1.6 4-.3 6-22.6 49.7-55.5 90.7-101.7 120.6-5.8 3.6-11.8 7-18 9.9zm-26.7-171.6c3.5-.6 6.9-1.4 10.1-2.8 4.9-2.2 8.6-5.6 10.6-10.8 5-13-.8-27.5-13.5-33.3-6.2-2.9-12.9-3.8-19.7-3.8h-43.5c-7.6 0-7.5 0-7.6 7.4 0 2.2.2 3.4 3 3.6 4.3.4 6 2.6 6.3 7 .1 1.8.1 3.6.1 5.4v70.3c0 7.2 1.6 8.8 8.9 8.8H223c4.1 0 8.3-.2 12.4-.9 14.8-2.2 22.4-10.7 22.5-25 .1-13.9-7.6-22.4-22.2-24.8-1.1-.1-2.6.3-3.5-1.1zm61.4 6.3c0 14.1.1 28.2-.1 42.3 0 2.5.6 3.3 3.2 3.3 6.7-.2 13.5-.2 20.2 0 3.1.1 3.6-1 3.5-3.7-.1-24.7-.1-49.5-.1-74.2 0-3.4.1-6.7 0-10.1-.1-2 .6-2.7 2.7-2.8 7.7-.3 10.6 1.7 13.2 8.7 1 2.8.3 7 3.2 8.3 2.6 1.2 6.1.2 9.2.4 2.4.2 2.8-.8 2.7-2.9-.5-6.7-.9-13.4-1.4-20.1-.3-4-2.4-6.1-6.6-6.1-24.2-.1-48.4-.1-72.7 0-4.2 0-6.2 2-6.6 6.1-.5 6.3-.7 12.7-1.4 19-.3 3.2.5 4.2 3.8 4.1 8.4-.2 8.4 0 11.1-8.4 2.2-7 4.9-8.7 12.1-9 3.2-.1 3.8 1.1 3.8 4 .1 13.6.2 27.3.2 41.1z"/><path d="M232.2 213.6c.9 1.4 2.4 1 3.6 1.2 14.6 2.4 22.3 10.9 22.2 24.8-.1 14.2-7.7 22.7-22.5 25-4.1.6-8.2.9-12.4.9H187c-7.3 0-8.9-1.6-8.9-8.8v-70.3c0-1.8 0-3.6-.1-5.4-.3-4.4-2-6.6-6.3-7-2.8-.2-3-1.4-3-3.6 0-7.4 0-7.4 7.6-7.4h43.5c6.8 0 13.4.9 19.7 3.8 12.6 5.8 18.4 20.3 13.5 33.3-2 5.2-5.7 8.5-10.6 10.8-3.3 1.3-6.7 2.1-10.2 2.7zm-27 23.5c0 4.9.1 9.8 0 14.7 0 1.8.2 2.9 2.5 2.7 3.2-.2 6.5.1 9.7-.2 6.7-.4 10.4-3.5 11.7-9.8 1-4.8 1-9.8-.1-14.6-1.4-6.2-4.5-9.1-10.8-9.9-3.3-.4-6.7-.2-10-.4-2.5-.2-3 .9-3 3.1.1 4.8 0 9.6 0 14.4zm0-46v8.1c0 10.4 0 10.4 10.7 8.8 5.6-.9 7.8-2.9 9.1-8.5.8-3.6.7-7.2.5-10.8-.4-9.9-4.3-13.7-14.1-14.1-1.3-.1-2.6.1-3.9 0-1.9-.2-2.4.7-2.4 2.5.1 4.7.1 9.4.1 14zm88.4 28.8c0-13.7-.1-27.5.1-41.2 0-2.9-.6-4.1-3.8-4-7.3.3-9.9 2.1-12.1 9-2.7 8.3-2.7 8.2-11.1 8.4-3.4.1-4.2-1-3.8-4.1.6-6.3.9-12.7 1.4-19 .3-4.1 2.4-6.1 6.6-6.1 24.2-.1 48.4-.1 72.7 0 4.2 0 6.2 2 6.6 6.1.5 6.7.9 13.4 1.4 20.1.2 2.1-.3 3.1-2.7 2.9-3.1-.2-6.6.8-9.2-.4-2.9-1.3-2.2-5.4-3.2-8.3-2.5-7-5.5-9-13.2-8.7-2 .1-2.7.8-2.7 2.8.1 3.4 0 6.7 0 10.1 0 24.7 0 49.5.1 74.2 0 2.8-.5 3.9-3.5 3.7-6.7-.3-13.5-.2-20.2 0-2.6.1-3.2-.8-3.2-3.3-.2-14-.2-28.1-.2-42.2z" fill="#302b26"/><path class="st4" d="M205.2 237.1c0-4.8.1-9.6 0-14.3-.1-2.3.4-3.3 3-3.1 3.3.3 6.7 0 10 .4 6.3.8 9.4 3.7 10.8 9.9 1.1 4.8 1 9.8.1 14.6-1.3 6.3-5 9.3-11.7 9.8-3.2.2-6.5 0-9.7.2-2.2.1-2.5-.9-2.5-2.7v-14.8zm0-46c0-4.7.1-9.3 0-14 0-1.8.5-2.7 2.4-2.5 1.3.1 2.6 0 3.9 0 9.8.4 13.7 4.2 14.1 14.1.2 3.6.3 7.2-.5 10.8-1.3 5.6-3.5 7.6-9.1 8.5-10.7 1.6-10.7 1.6-10.7-8.8-.1-2.7-.1-5.4-.1-8.1z"/></svg>