<svg id="Layer_1" xmlns="http://www.w3.org/2000/svg" viewBox="0 0 512 512"><style>.st0,.st1{fill-rule:evenodd;clip-rule:evenodd;fill:#312782}.st1{fill:#fff}</style><path class="st0" d="M74.9 71.4h366.9V437H74.9V71.4z"/><path class="st1" d="M257.3 120.2c117.4 0 137.2 81.3 137.2 135.8 0 50.2-19.1 132.9-135 132.9C127.3 388.9 123 287.8 123 256c-.1-43.8 13.4-135.8 134.3-135.8z"/><path class="st0" d="M255.9 140.7c112.4-3.1 116.7 78.5 116.7 112.4 0 15.6 7.1 116.7-116 116.7-109.6 0-111.7-86.3-111.7-114.5 0-28.3-3.5-111.4 111-114.6z"/><path class="st1" d="M167.5 203h36.1v-37.5s24-7.1 41.7-7.1v44.5h103.2s7.1 20.5 7.1 44.5h-75l62.9 67.2s-12 18.4-33.2 29.7c-21.9-24-65.1-68.6-65.1-68.6v76.4s-13.4 2.1-41.7-7.8v-96.9h-42.4c0 .1.7-26.1 6.4-44.4z"/></svg>