<svg id="Layer_1" xmlns="http://www.w3.org/2000/svg" viewBox="0 0 512 512"><style>.st0{fill:#ce0e2d}</style><path class="st0" d="M438.4 319.9c-1.2-35-19.3-64.4-52.2-77.2 23.3-17.9 32.7-40.1 32-61.8-1.8-52.5-45.6-83.2-96.3-83.2-20.7 0-44.8 7.3-63.4 20.2-18.5-12.9-42.7-20.3-63.3-20.3-50.8 0-94.5 30.7-96.3 83.2-.8 21.8 8.7 43.9 32 61.8-32.9 12.8-51 42.2-52.2 77.2-1.9 55 43.6 95.1 103.3 95.1 30.4 0 57.1-10 76.6-24.9 19.5 15 46.2 24.9 76.6 24.9 59.6.1 105.2-40 103.2-95zm-105.2 28.6c-22.6 0-32.9-10.7-41.4-21.9-2.7-14.5-17.2-25.8-30.4-25.8-1 0-2 0-2.9.1-.9-.1-1.9-.1-2.9-.1-13.2 0-27.7 11.4-30.4 25.8-8.5 11.3-18.8 21.9-41.3 21.9-20.1 0-34-16.6-33.3-36.3.9-26 22.1-32.9 44.2-33.3 14.1-.4 29.8-9.8 30.6-32.4.7-18.8-8.1-25.2-35.2-31.6-15.7-3.4-25.6-11.1-25-28.2.5-15.4 13.2-22.6 26.8-22.6 33 0 35.3 32.2 61.9 35.9 1.4.2 2.8.4 4.2.4h.8c1.5 0 2.9-.1 4.2-.4 26.6-3.7 28.9-35.9 61.9-35.9 13.6 0 26.3 7.3 26.8 22.6.6 17.1-9.4 24.7-25 28.2-27.1 6.4-35.8 12.8-35.2 31.6.8 22.6 16.5 32 30.6 32.4 22.2.4 43.3 7.2 44.3 33.3.7 19.6-13.2 36.3-33.3 36.3z"/><path class="st0" d="M282.7 266.9c0 13.3-10.8 24.2-24.2 24.2-13.3 0-24.2-10.8-24.2-24.2v-34.2c0-13.4 10.8-24.2 24.2-24.2 13.3 0 24.2 10.8 24.2 24.2v34.2z"/></svg>