<svg id="Layer_1" xmlns="http://www.w3.org/2000/svg" viewBox="0 0 512 512"><style>.st0{fill:#004e92}</style><path class="st0" d="M258.7 435c-63.2-1.8-115-25.6-151-79-17.5-25.9-26.5-54.9-28.8-86-3.4-45.4 6.4-87.3 33.2-124.4 28.3-39 66.9-61.9 114.3-69.6 47.3-7.7 92.1-.4 132.7 25.7 43.6 27.9 69 68.4 77.6 119.2 7.3 43 1.8 84.4-19.4 122.8C390 393.2 347.5 422 292 431.9c-4 .7-8 1.4-12 1.8-6.9.5-14.1.8-21.3 1.3zM109 254.1c0 4.9-.2 9.7.1 14.6.3 4.8 1 9.7 1.9 14.4 8.3 45.4 31.2 80.9 71.8 103.8 32.6 18.4 67.9 22.9 104.4 16.7 42.2-7.2 75.8-28.4 98.7-65 23.1-36.8 28.5-77.2 19.9-119.2-9.7-47.3-36.2-82.5-80.2-103.5-30.5-14.5-62.8-17.5-95.8-11.8-31.4 5.4-58.6 19.3-80.6 42.6-28.3 30.3-40.4 66.7-40.2 107.4z"/><path class="st0" d="M217.6 156.2v-21.7c10.9 0 21.5-.1 32.2 0 7.3.1 14.6.1 21.8.9 7.6.8 11.3 4.9 12.6 12.6.4 2.4.8 4.8.8 7.2v199.5h-52.1V169.3c-.2-10.1-2.6-12.6-12.6-12.9-.8.1-1.6-.1-2.7-.2zm91 23c12.5 0 24.5-.3 36.4.1 8.1.3 12.6 4.9 14.1 12.9.5 2.5.8 5.1.8 7.7v154.9h-51.3V179.2zm-99.6.4v175.2h-51V200c0-2.7.4-5.5.8-8.2 1.1-6.9 5.3-11.7 12.1-12 12.6-.7 25.2-.2 38.1-.2z"/></svg>