<svg version="1.1" id="Layer_1" xmlns="http://www.w3.org/2000/svg" x="0" y="0" viewBox="0 0 512 512" xml:space="preserve"><style>.st1{fill:#fff}</style><path fill="#0056a5" d="M1 1h513v510H1z"/><path class="st1" d="M266.9 218.5v-66.1c0-2.1.6-3.2 2.5-4.1 5.4-2.5 10.8-5.3 16.2-7.8 16.8-7.7 33 2.1 34.2 20.5 1.1 16.9-5.2 30.4-19.5 39.4-10.2 6.4-21.1 11.7-31.8 17.4-.4.4-.8.4-1.6.7zm-66.5-54c9.9 8.3 21.5 11.9 31.8 17.7 11.8 6.6 16.8 16.3 14.9 29.7-2.3 16.9-13.7 28.2-30.6 30.2-8.8 1.1-16-5-16.1-13.9-.2-11.1-.1-22.1-.1-33.2v-26.7c.1-1 .1-2.1.1-3.8zm46.8.7c-2.3-1.1-4.2-1.8-6-2.8-8.7-4.7-17.8-8.9-26-14.5-15.2-10.4-16.7-29-4-42.4 4.9-5.2 10.3-9.6 16.8-12.5 3.9-1.8 8-2.7 12.3-1.8 3.6.7 6 3.1 6.6 6.7.2 1.4.4 2.8.4 4.2v60.3c.1.7 0 1.5-.1 2.8zm19.9-35.8c-.1-1.5-.2-2.2-.2-2.8V84.4c0-7.6 3.3-11.8 10.5-14.1 13.2-4.2 26.7 2.4 30.4 14.9 3.4 11.4-.5 23-11.3 29.5-9.2 5.4-19.2 9.6-29.4 14.7zm-23.7 292.2v-30.5c2.6 0 5-.2 7.4.1.5.1 1.3 1.6 1.3 2.5.1 6.8.1 13.5.1 20.3v22.6c-2.8 0-5.4.2-8-.1-.8-.1-1.6-1.2-2.1-1.9-6.3-9.2-12.6-18.5-18.8-27.7l-1-1.5c-.1 1.5-.2 2.3-.2 3.2 0 8.4-.1 16.7 0 25.1 0 2.3-.7 3.2-3 3-1.8-.2-3.7 0-5.9 0-.1-1.2-.2-2.1-.2-3 0-13.1.1-26.3-.1-39.4 0-2.5.7-3 3.1-3.2 4.5-.5 7.1 1.3 9.5 5.1 5.5 8.7 11.5 17.1 17.3 25.7.2-.3.4-.3.6-.3zm-128.5 15v-45.2c.6-.1 1.1-.3 1.6-.3 5.5 0 11.1-.1 16.6.1 8 .4 13.7 7.1 11.7 14.2-.7 2.6-2.8 4.8-4.4 7.4 4 1.7 6.8 5 6.9 10.3.1 7.8-4.3 12.7-12.4 13.4-1.8.2-3.6.2-5.3.2-4.9-.1-9.6-.1-14.7-.1zm8.6-7.9c3.2 0 6.3.2 9.3 0 3.6-.3 5.4-2.3 5.6-5.5.1-3.1-1.6-5.6-5-6-3.2-.4-6.5-.1-9.8-.1-.1 3.8-.1 7.6-.1 11.6zm0-19.3c3.5-.4 6.9-.5 10.1-1.2 2.4-.6 3-2.8 2.7-5.2-.2-2.2-1.5-3.5-3.5-3.8-3-.4-6.1-.4-9.3-.6v10.8zm241.2-99.5h8.6v7.8c.1 7.5 0 15 .4 22.5.3 5.1 3.3 7.5 8.6 7.7 5.7.2 9-2 9.8-7.1.5-2.9.4-6 .5-9 .1-6.5.1-13 0-19.4 0-2.1.7-2.8 2.8-2.8 6.1-.1 6.1-.2 6.1 5.8v22.8c.1 6.9-2.6 12.3-8.7 16-1.3.8-2.7 1.8-3.6 3.1-.7 1-.6 2.6-.8 3.9h3.4c.3 0 .7-.2 1-.3 3 5.6 3 5.7-3.1 7.6-1.5.4-3.2.4-4.7.1-3.7-.5-5.7-3.9-4.4-7.6.5-1.4 1.3-2.7 2-4.1-2.4-.6-4.9-.8-7.2-1.7-6.7-2.6-10.5-7.7-10.8-14.7-.4-9.7-.1-19.3-.1-29 0-.5.1-.9.2-1.6zm-125.3 16.3c0-4.7.1-9.4 0-14.1 0-1.8.5-2.6 2.4-2.5 8 .1 6.5-1 6.6 6.4.1 6.7 0 13.3 0 20 0 2 .2 4 .6 5.9 1 3.9 3.6 5.7 8.2 6 4.7.3 8-1.3 9.3-4.9.7-1.8.9-3.8 1-5.8.1-8.3.1-16.5 0-24.8 0-2 .6-2.9 2.7-2.8 7.8.1 6.4-.7 6.5 6.4.1 7.2 0 14.5 0 21.7 0 18.4-17.4 21.9-27.7 17-6.3-3-9.2-8.3-9.5-15.2-.2-4.4-.1-8.8-.1-13.3zm38.9 110.2h-8.9c-.1-.9-.2-1.8-.2-2.7 0-13.2 0-26.5-.1-39.7 0-2.3.6-3.2 3-3 1.8.2 3.7 0 6 0v17c.2.1.5.2.7.3 2-2.2 3.9-4.4 5.9-6.6 1.6-1.8 3.6-3.4 4.8-5.5 3.4-5.6 8.4-6 14.7-4.9-5.5 6.2-10.8 12.1-16.3 18.3 6 8.7 12 17.5 18.4 26.8-3.8 0-7 .1-10.1-.1-.7 0-1.5-1-2-1.8-3.5-5.2-7-10.4-10.5-15.7-.5-.8-1.1-1.5-1.7-2.3-2.6 2-4.3 4.1-4 7.6.5 4.1.3 8.2.3 12.3zm-50-81.1c-3.1 0-5.7.1-8.3-.1-.7-.1-1.7-1-2-1.7-1-2.5-1.9-5.1-2.7-7.7-.4-1.4-1.1-1.9-2.6-1.9-4.1.1-8.3.1-12.4 0-1.7-.1-2.3.7-2.8 2.1-.8 2.5-1.6 5-2.5 7.4-.3.7-1.1 1.7-1.7 1.8-2.6.2-5.2.1-8.2.1 1.1-3.2 2.1-6 3.1-8.8 4.3-11.4 8.7-22.8 12.9-34.2.8-2.2 2-2.8 4.1-2.7 5.9 0 5.9 0 8.1 5.5 4.7 12.4 9.4 24.9 14.1 37.3.3.8.5 1.6.9 2.9zm-27.4-19.1h11c-1.8-5.5-3.6-10.6-5.5-16.2-1.8 5.5-3.6 10.6-5.5 16.2zm-.5 100.4c-3.3 0-6.2.1-9-.1-.5 0-1.2-1-1.5-1.7-1-2.6-1.8-5.3-2.9-7.9-.3-.7-1.4-1.5-2.1-1.5-4.8-.1-9.6-.1-14.5-.1-1.1 3.2-2.2 6.4-3.5 9.5-.4.8-1.6 1.7-2.5 1.8-2.3.3-4.6.1-7.5.1 1.9-4.9 3.6-9.4 5.3-14 3.7-9.8 7.5-19.6 11.1-29.5.6-1.6 1.4-2.1 3.1-2.2 7-.1 6.9-.2 9.4 6.4 4.4 11.8 8.9 23.5 13.3 35.3.3 1.1.7 2.2 1.3 3.9zm-16.5-19.1c-1.8-5.4-3.5-10.4-5.2-15.5-.2 0-.4.1-.6.1-1.7 5.1-3.4 10.1-5.1 15.4h10.9zm130.9 19.1c2.2-5.8 4.2-11.1 6.2-16.5 3.4-8.9 6.8-17.9 10.1-26.8.6-1.7 1.5-2.3 3.3-2.3 6.8 0 6.7-.1 9.1 6.3 4.4 11.7 8.9 23.5 13.3 35.2.5 1.2.9 2.4 1.4 4.1-3.3 0-6.1.1-8.8-.1-.6 0-1.4-1.1-1.7-1.8-1-2.6-1.8-5.3-2.9-7.9-.3-.7-1.2-1.5-1.9-1.5-4.9-.1-9.7-.1-14.8-.1-1.1 3.3-2.2 6.5-3.4 9.6-.3.7-1 1.7-1.5 1.7-2.6.2-5.3.1-8.4.1zm26.9-19.1c-1.8-5.3-3.5-10.4-5.5-16.3-2 5.9-3.7 11-5.5 16.3h11zM145.4 315.1c-1.6 1.6-3 3.2-4.7 4.5-.5.4-1.9.1-2.5-.3-2.8-2.1-5.8-3-9.2-2.6-2.6.3-4.5 1.6-4.8 4.3-.3 2.5 1.2 4.1 3.4 4.9 2.3.8 4.7 1.4 7 2 6.9 1.8 11.6 6.5 12 12.2.6 7.3-2.4 12.7-8.8 15-3.1 1.1-6.6 1.5-9.9 1.3-6.2-.4-11.2-3.4-15.3-8.5 2-1.9 4-3.7 6-5.6 1.4 1.2 2.6 2.4 4 3.4 3.6 2.5 7.4 3.6 11.7 1.9 2.3-.9 3.3-2.7 3.4-5.1.1-2.3-.9-4.1-3.1-4.9-2.8-1-5.7-1.8-8.6-2.6-8.6-2.1-13.3-10.2-10-18.1.8-1.9 2.2-3.8 3.8-5.1 6.2-5.1 20.5-4.5 25.6 3.3zM368.3 429c2-1.9 3.9-3.6 6.7-6.2.6 1.1.9 2.2 1.6 2.8 3.1 2.9 6.7 4.3 11 3.8 2.9-.4 5.1-2.3 5.5-4.9.4-2.9-.7-5-3.8-6.1-2.6-1-5.4-1.6-8.1-2.3-7.4-2-11.5-7.7-10.6-15 .7-6.2 6.3-11.1 13.5-11.1 3.4 0 7 .3 10.2 1.3 2.4.8 4.5 2.8 7.2 4.6-2.4 2.3-4.3 4-5.4 5.1-3.9-1.2-7.1-2.6-10.4-3.1-3.3-.5-5.8 1.6-6.2 4.1-.4 2.4 1.1 4.4 4.6 5.6 2.7.9 5.6 1.4 8.4 2.5 6.5 2.4 9.9 7.2 9.8 13.6-.1 6-3.8 10.9-10.1 13.2-8.1 3-18.8-.4-23.9-7.9zm-43.8-73.8h-31c-.1-1-.3-1.9-.3-2.8v-39.5c0-2.5.8-3.4 3.4-3.4 7 .2 5.6-.5 5.7 5.7.1 9.5 0 19 0 28.5v3.5h6c4.5 0 9 .1 13.5 0 2.1-.1 2.9.8 2.7 2.8-.1 1.7 0 3.4 0 5.2zm23.2-.2c-.7.2-1 .3-1.3.3-7.9.5-7.9.5-7.9-7.3 0-11.7.1-23.5 0-35.2 0-2.5.7-3.3 3.2-3.2 7.2.2 6-.7 6 5.9.1 11.7 0 23.5 0 35.2v4.3zm-184.1.3c-.1-1.2-.2-2.1-.2-3v-39.6c0-2.3.6-3.1 3-3.1 7.2.2 6.1-.8 6.1 6.1.1 12.2-.1 24.4.1 36.5 0 2.5-.7 3.4-3.2 3.1-1.9-.1-3.8 0-5.8 0z"/><path class="st1" d="M119.9 296.1c5.2-1.5 8.8 0 11 5.8 2.4-5.6 5.9-7.4 11.3-5.6-2.4 3.4-4.6 6.8-7.1 10-1.3 1.7-7.9.7-9.2-1.1l-5.7-8.1c-.1-.3-.1-.6-.3-1z"/></svg>