<svg id="Layer_1" xmlns="http://www.w3.org/2000/svg" viewBox="0 0 512 512"><style>.st0{fill:#00529d}</style><path class="st0" d="M408.6 152.2c-6.5 7.9-12.7 15.3-19.5 23.4 41.4 13.3 67.8 40.1 75.9 82.6 5.4 28.2-.6 54.6-17.3 78.2-33.5 47.2-94.9 53.3-130.7 31.2 9.8-10.3 19.7-20.8 29.8-31.2 1.1-1.1 3.6-1.4 5.3-1 34.5 7.4 68.1-18.6 71.6-53.8 2.7-27.1-15.2-53.9-42.3-62.6-26-8.3-56 3.7-69.1 27.4-8.3 14.9-9.9 30.4-5.8 46.9.6 2.5.3 5.8-.9 8-5.9 11.5-15.5 19-27.2 24.2-4.3 1.9-5.4-.8-6.8-3.7-12.6-26.7-13.6-54.1-4.3-82 4.1-12.3 11.7-22.2 20.6-31.3 28.4-29.4 56.7-59 85.1-88.5.6-.6 1.3-1.1 2.6-2.2 10.8 11.3 21.6 22.5 33 34.4zM206.1 304.1c8.3 13.1 18.7 22.4 32.6 27.3-20.4 35.9-77.8 61.2-130.3 34.4-57.3-29.1-70.9-98.1-41.4-146.2 32.7-53.4 97.7-59.1 132.3-38.2-10 10.3-20.2 20.9-30.7 31.3-1.2 1.2-3.9 1.7-5.8 1.5-30.4-3.5-56.7 13.7-65.7 43-8.3 27 5.1 57 31.4 70.4 24.9 12.6 56.3 5.1 73.3-17.5 1.3-1.7 2.5-3.5 4.3-6z"/><path class="st0" d="M304.6 182.8c-9.7 10.6-18.9 21-28.7 30.9-1.6 1.7-5.6 1.7-8.4 1.4-30.5-3.5-56.7 12.4-66.1 40.6-4.2 12.5-3.9 25.1-.1 37.9.9 3 .3 7.5-1.4 10.2-6.9 11.4-17.2 18.7-29.9 22.5-18.9-26.5-23.1-79.5 8.9-117.9 30.7-36.5 84.9-48 125.7-25.6zM213.3 367c10-10.5 19.9-21.1 30-31.4 1.1-1.2 3.4-2 5-1.8 26.8 3.4 46.8-7.4 62.2-29.5 7.8 12.6 17.5 22.8 31.6 27.8-21.7 39.3-82.6 59.8-128.8 34.9z"/></svg>