<svg xmlns="http://www.w3.org/2000/svg" viewBox="0 0 512 512"><path d="M254.5 282.5c-61 0-122 0-183 .1-2.9 0-3.9-.5-3.8-3.6.3-7.5.2-15 0-22.5-.1-2.3.8-3 2.8-3.3 18.8-3.4 37.6-6.5 56.4-9.3 20.5-3 41.1-5.5 61.6-7.8 1.6-.2 2.7.2 4 1.1 15.8 11.4 33.6 17 53.1 16.4 21.6-.8 40.3-8.7 55.9-23.7 2.2-2.2 4.4-3.1 7.5-3.2 27.2-1.1 54.3-2.2 81.5-2.7 16.1-.3 32.2-.3 48.3-.5 2 0 2.6.4 2.6 2.5-.1 18-.1 35.9 0 53.9 0 3-1.5 2.7-3.4 2.7-61.1-.1-122.3-.1-183.5-.1z" fill="#1cadce"/><path d="M192.4 174.5c0-36 28.9-64.5 65.3-64.5 35.1 0 64.1 29.3 64.1 64.6 0 36.2-29.1 64.7-65.8 64.7-34.9 0-63.6-29.3-63.6-64.8z" fill="#1bacce"/><path d="M425.3 358.1c12.5 2.6 20.8 11.8 20.7 22.1-.2 15.3-8 23.7-23.4 25.6-4.9.6-9.8.8-14.7.9-17 .1-34.1 0-51.1.1-2.5 0-3-.7-3-3.1.1-30 .1-59.9 0-89.9 0-2.3.5-3.1 3-3.1 20.1.1 40.2.1 60.3.2 4.7 0 9.4 1.1 13.7 3 8.7 3.7 13.2 10.3 13.4 19.8.2 10.1-3.6 17.7-13 22.1-.9.4-1.9.8-2.9 1.1-.8.4-1.6.7-3 1.2zm-37.8 18.7v8c0 .9-.3 2 1.2 1.9 4.6-.2 9.2.6 13.7-.7 5.4-1.5 8-5 7.6-10.3-.3-4.6-3.5-7.6-8.9-8-3.9-.3-7.8-.2-11.6-.4-1.7-.1-2.1.6-2 2.2v7.3zm6.9-29.4c2.2-.1 4.9 0 7.5-.7 4.9-1.3 7.5-4.5 7.3-8.9-.2-4.6-3.2-7.6-8.3-8.4-3.7-.6-7.4-.4-11.1-.5-1.9-.1-2.6.5-2.5 2.4.1 3.2 0 6.4 0 9.5.2 6.6.2 6.6 7.1 6.6z" fill="#182b58"/><path d="M241.6 359.6c0-10.4 1.5-19.4 5.9-27.8 5.6-10.5 14.5-16.9 25.7-20.1 13.5-3.8 27.2-3.8 40.7.3 17.8 5.4 29.1 19.7 30.8 38.2.8 8.8.6 17.4-1.8 25.9-4.2 14.9-13.8 24.7-28.5 29.2-14.4 4.3-29 4.4-43.3-.3-17-5.6-26-18.1-28.7-35.5-.6-3.6-.9-7.3-.8-9.9zm37.4-1.1c0 6.3.3 12.5 2.8 18.4 2.1 4.9 5.5 8.1 11.2 8.2 5.6.1 9.6-2.5 11.9-7.6 1.6-3.6 2.2-7.4 2.5-11.3.6-8.2.6-16.4-2.1-24.3-2.2-6.2-6.2-9.4-11.8-9.5-5.7-.1-9.7 3-12 9.2-2.1 5.4-2.5 11.1-2.5 16.9z" fill="#172b58"/><path d="M152.5 378.8c6.2 2.3 12.2 4.2 18.5 5.1 7.4 1.1 14.9 1.8 22.3.3 3.1-.6 6.4-1.4 7.1-5.3.4-2.5-1.8-4.7-6.4-6-5.6-1.5-11.4-2.6-17-4.1-6.3-1.6-12.4-3.8-17.3-8.3-12.8-11.7-10.4-34.9 4.5-44 8.7-5.3 18.4-6.7 28.3-7.3 11.8-.7 23.6.5 35.2 2.6 2 .4 2.7 1.1 2.6 3.1-.2 6.5-.1 12.9 0 19.4.1 2.5-.6 2.6-2.8 1.9-9.7-3.2-19.8-4.4-30-3.8-2 .1-3.9.4-5.7 1.1-2.3.8-4.1 1.9-4.3 4.6-.2 2.7 1.7 4 3.8 5 4.5 1.9 9.3 2.5 14 3.5 4.7 1 9.4 2.1 13.9 3.9 9.7 3.9 15.8 10.8 16.9 21.5 1.1 11.7-2.1 21.8-12.5 28.5-8.8 5.7-18.8 7.4-29.1 7.7-13.1.4-26-.9-38.8-3.7-2.6-.5-3.4-1.6-3.3-4.2.2-7 .1-14.1.1-21.5zm-50.4-67.6c-5.6-1.7-10.7-3.4-15.3-6.3-3.9-2.5-3.9-2.5-.5-5.7 1.7-1.6 3.6-3.1 5.2-4.8 1.4-1.5 2.2-1.5 3.9 0 11.9 10.9 28.9 12.7 42.1 4.8 1.5-.9 2.9-1.9 4.2-3.1 1.3-1.2 2-.1 2.8.5 1.3.9.3 1.6-.3 2.2-3.7 3.8-8.1 6.6-12.8 8.9-.9.4-2 .5-2.7 1.6 4.8.8 9.5 1.6 14.2 2.3 2 .3 2.9.9 2.9 3.3-.2 7.5-.1 15-.1 22.7-5.2-1.5-10-3.1-15.2-3.4-5.5-.4-10.9.2-15.9 2.4-10.4 4.6-15 14.6-12.8 27.5 1.8 10.3 10 17.5 20.9 18.4 7.1.6 13.9-.4 20.6-2.7 2.1-.7 2.7-.4 2.6 1.8-.1 7-.1 14 0 20.9 0 1.3-.2 2.1-1.6 2.5-18.4 4.6-36.5 5.5-54-3.2-15.8-7.8-23.8-21.1-25.4-38.4-1-10.5.3-20.7 5.7-30 6.4-10.9 16.2-17.4 28-21.2 1-.3 2-.6 3.5-1z" fill="#182c58"/></svg>