<svg version="1.1" id="Layer_1" xmlns="http://www.w3.org/2000/svg" x="0" y="0" viewBox="0 0 512 512" xml:space="preserve"><style>.st1{fill:#fff}</style><path fill="#ff0d02" d="M1-4h509v519H1z"/><path class="st1" d="M241.4 157.3c1-.8 2.2-1.5 3.1-2.4 4.6-4.5 9-9.1 13.6-13.5.9-.9 2.4-1.5 3.7-1.5 6.2.1 12.6-.4 18.6.9 24.7 5.6 33.8 35.4 16.7 54.1-.4.4-.7.8-1.2 1.3 3.6 3.8 6.4 8 8.2 12.9 7.3 21.1-8 42.9-30.2 43.1-18.1.1-36.2 0-54.3 0-.5 0-1.1-.1-1.9-.1v-40.3c-.9 1.2-1.5 1.9-1.9 2.6-15.9 21.2-36.9 34-63.2 37.2-48.7 6.1-93.3-27.4-101.6-75.7-8.8-49.7 25-97.2 74.9-105.7 40.1-6.8 80.2 13.7 97.9 50.1.8 1.6.8 2.5-.5 3.9-4.7 4.8-9.3 9.7-14.1 14.7-.4-.8-.7-1.4-1-2.1-10.8-27.4-30.9-43.4-60.2-46.8-37.2-4.2-72 23.4-76.9 60.3-5.1 38 18.7 71.9 56.1 79.9 32 6.9 65.4-10.2 78.9-40.6.9-2 1.9-2.6 4-2.6 20.6.1 41.2.1 61.8 0 7.4 0 12.9-3.8 14.8-10.2 2.7-8.6-3.2-17.9-12.2-18.4-9.9-.5-19.9-.2-29.8-.2h-2.8c-.1-.2-.3-.5-.5-.9zm-6.1 76.9c.6.1 1 .1 1.4.1 12.1 0 24.3.1 36.4 0 8.1-.1 14.3-6.4 14.3-14.3 0-8-6.3-14.5-14.4-14.5-12.4 0-24.8.3-37.1.5-.1 0-.3.1-.5.2-.1 9.2-.1 18.5-.1 28z"/><path class="st1" d="M174.6 187.9c33.1-34.6 65.7-68.7 98.6-103.2.1 1.1.3 1.6.3 2.2 0 6.9.1 13.9-.1 20.8 0 1.1-.6 2.5-1.3 3.3-24.2 25.2-48.5 50.4-72.8 75.6-.6.6-1.4 1.2-2.1 1.2-7.3.1-14.5.1-22.6.1zm-113 253v-57.7c.8 0 1.5-.1 2.3-.1 5.2.1 10.4 0 15.6.4 6.2.5 10.8 3.6 13 9.5 2.2 5.8 1 11.2-3.3 15.8-.1.1-.2.3-.4.7.1 0 .4.1.6.2 6.6 4 9.6 10.3 8.3 17.3-1.4 7.1-7.2 13.1-14.7 13.8-7.1.6-14.1.1-21.4.1zm9.2-8.5c4-.3 7.8-.4 11.6-1.1 3.3-.6 5.3-3 5.8-6.3.6-3.4-1-6.4-4.1-8.1-4.2-2.3-8.8-1.7-13.3-1.7v17.2zm0-26.3c3.1-.5 6-.6 8.7-1.4 3-.9 4.6-3.8 4.4-6.8-.1-2.6-1.6-4.6-4.4-5.1-2.8-.5-5.7-.5-8.8-.8.1 4.8.1 9.1.1 14.1zm139.7-75.8v-19c0-.1.1-.1.3-.3h8.3v59.2h-8.6c-.1-1.1-.1-2.2-.2-3.8-5.5 4.2-11.6 5.8-18.2 4.7-6.7-1.2-11.7-4.9-15.2-10.7-5.5-8.9-4.1-20.7 3.2-28.2 7.9-8.2 17.8-8.9 30.4-1.9zm-13.9 32.6c8 0 14-6 14.1-14.1.1-8.2-5.9-14.5-13.9-14.5-7.9-.1-14.3 6.3-14.2 14.3 0 7.8 6.3 14.3 14 14.3zm144.2-32.8V311h8.8v59.2h-8.7c-.1-1.1-.2-2.2-.3-3.4-13.8 6.9-24.1 5.6-31.7-3.9-6.7-8.5-6.6-21 .2-29.1 8.1-9.6 18.1-10.8 31.7-3.7zm-13.6 4.1c-7.8 0-14 6.2-14.1 14.2 0 8 6.3 14.5 14.1 14.5 8-.1 14-6.1 14-14.2 0-8.3-6-14.4-14-14.5zm-213.4-9.4c-2.3 1.7-4.6 3.5-7.1 5.4-5.1-7.2-12.2-10.6-21-10-5.7.4-10.7 2.8-14.6 7-7.6 8.2-7 21.6.8 29.6 7 7.2 24.5 10 34.9-3.5 2.3 1.7 4.6 3.5 7.1 5.4-3.2 4.7-7.4 8.1-12.4 10.3-12.8 5.7-28.7 3-37.3-6.8-8.6-9.7-10.4-21.1-5.5-32.9 4.8-11.6 14.2-17.6 26.7-18.3 11.2-.7 20.6 3 27.5 12.2.2.3.5.6.7 1 .1 0 .1.2.2.6zm318.5 26c.1 5.2 3.7 10.1 8.6 11.4 8.8 2.4 14.8-1.6 18.8-9.5 2.6 1.4 5 2.6 7.6 4-3.3 7.7-8.7 12.8-16.9 14.5-13.6 2.7-25.5-5.8-27.5-19.4-1.9-13.4 7.9-25.6 21.3-26.4 13.5-.7 24.2 9.9 23.9 23.6 0 1.7-.9 1.9-2.2 1.9h-30.8c-1-.1-1.8-.1-2.8-.1zm25.1-8.5c-1.1-4.6-6.1-8-11.8-8.1-5.8-.1-10.7 3.1-12 8.1h23.8zm-222.7 8.4c.4 5.6 4 10.4 9.1 11.6 8.7 2.1 14.4-1.9 18.3-9.7 2.6 1.4 5.1 2.7 7.5 4-4.7 12.1-17.2 17.8-29.6 13.7-10.9-3.6-17.3-16.5-14-28.4 3.3-11.9 14.9-18.7 27.1-16 10.6 2.3 18.5 12.7 17.2 24.9-11.7-.1-23.5-.1-35.6-.1zm1.4-8.5H260c-1.6-4.9-6.4-8.1-12.2-8-5.6 0-10.2 3.1-11.7 8zm-97.2 59v-3.8h8.8c0 .7.1 1.5.1 2.2v39.3c0 1.8-.4 2.6-2.3 2.4-2.1-.2-4.2 0-6.5 0-.1-1.4-.2-2.5-.3-4-6.1 4.5-12.6 6.1-19.8 4.3-5.2-1.3-9.3-4.3-12.4-8.5-6.4-8.6-5.8-21 1.1-29.1 6.3-7.2 19.2-11.7 31.3-2.8zm-13.8 32.6c8.1 0 14.2-6.1 14.2-14.2 0-8.2-6-14.5-14-14.5-7.8-.1-14.2 6.5-14.2 14.4 0 7.7 6.4 14.2 14 14.3zm267.5-103.4c.1-1.4.2-2.5.3-3.7h8.6v43.6H393c-.1-1.1-.2-2.2-.3-3.7-5.6 4.3-11.8 5.8-18.5 4.6-6.8-1.3-11.8-5.2-15.2-11.1-5.4-9.3-3.5-21.1 4.3-28.6 6.3-6.3 18.5-9.4 29.3-1.1zm.4 18.4c0-8.4-5.8-14.5-13.8-14.5-7.9-.1-14.1 6.1-14.2 14-.1 8.1 6.1 14.6 13.9 14.6 8 0 14-6 14.1-14.1zm-182.1 33.1v29.2c1.4-1.2 2.3-2 3.3-2.8 3.8-3.3 7.5-6.5 11.3-9.8.6-.5 1.5-1.1 2.2-1.1 3.9-.1 7.9-.1 12.5-.1-8.4 7.3-16.2 14.2-24.2 21.1 8.4 7.5 16.6 15 24.8 22.4-.1.2-.1.3-.2.5-3.9 0-7.8.1-11.7-.1-.7 0-1.5-.8-2.1-1.4-5.1-4.6-10.2-9.1-15.9-14.2v13.8c0 1.4-.4 2-1.9 2-2.3-.1-4.6 0-7 0V382c2.8-.1 5.7-.1 8.9-.1zm-46.3 59.3h-8.7v-43.8h8.6c.1 1.1.2 2.3.3 3.7.9-.6 1.6-1.1 2.3-1.5 6.9-4.7 15.8-4.4 21.6.5 3.9 3.3 5.5 7.7 5.7 12.6.3 9.2.2 18.5.2 27.7 0 .2-.1.4-.2.8H186c-.1-.9-.1-1.8-.2-2.7-.1-8.2-.1-16.4-.3-24.6-.1-3.5-1-6.7-4.5-8.2-3.6-1.5-7.1-1-10.3 1.2-3.4 2.4-5.3 5.6-5.5 9.7-.2 7.2-.3 14.4-.4 21.5-.2.9-.2 1.9-.2 3.1zm-34-114.8c3.1 0 5.8-.1 8.5.1.7 0 1.5 1 1.8 1.7 3.5 7.7 7 15.5 10.5 23.3.4.8.8 1.6 1.4 2.9 1.6-3.7 3.1-7 4.5-10.3 2.3-5.3 4.6-10.5 6.8-15.9.6-1.4 1.3-1.9 2.8-1.9 2.4.1 4.8 0 7.6 0-.4 1-.6 1.6-.8 2.2-7.9 18.1-15.9 36.2-23.7 54.4-.7 1.6-1.6 2.3-3.3 2.1-2.3-.2-4.5 0-7.2 0 .6-1.4 1-2.5 1.4-3.5 2.1-4.8 4.2-9.5 6.2-14.3.4-1 .4-2.5 0-3.5-5-11.4-10.1-22.8-15.1-34.2-.5-.8-.9-1.7-1.4-3.1zm170.7 6.4c-2.2 1.9-4.2 3.7-6.4 5.6-.8-.6-1.8-1.9-3.1-2.4-1.9-.8-4-1.7-5.9-1.6-2.9.2-4 3.5-2 5.7 1 1.1 2.4 2 3.7 2.8 2.2 1.4 4.6 2.5 6.7 4 5.4 3.8 7.3 9.4 5.4 15.3-1.9 5.7-7.4 9.4-13.7 9.3-5.6-.1-10.5-2.8-13.9-7.8 1.8-2 3.6-4.1 5.5-6.3 1.5 1.4 2.7 2.7 4.1 3.7 2.3 1.7 4.9 2.2 7.5.7 3-1.8 3.3-5.4.4-7.4-2.6-1.8-5.4-3.2-8.1-4.8-3.2-1.9-5.8-4.4-6.8-8.2-1.2-4.7-.3-9 3.2-12.4 3.7-3.6 8.2-4.5 13.2-3.1 4.1 1.2 7.1 3.7 10.2 6.9zM408.8 311h8.7v59.3h-8.7V311zm-289.9 0h8.6v59.2h-8.6V311z"/></svg>