<svg id="Layer_1" xmlns="http://www.w3.org/2000/svg" viewBox="0 0 512 512"><style>.st0{fill-rule:evenodd;clip-rule:evenodd;fill:#004a6a}</style><path class="st0" d="M320.9 302.7H481v-67.5H320.9v67.5zm158.3-65.8v64H322.7v-64h156.5zm-329.3 40c-.7.4-1.4 1.8-1.4 3.5 0 1.4.4 2.5 1.1 2.8 1.1.7 2.8.7 6 .7 2.8 0 4.6 0 6-.4 2.1-.7 2.1-2.5 2.1-4.6v-2.5h-7.8c-3.9.1-4.9.1-6 .5zm136.4-9.2c-2.8 0-4.9.4-6 1.1-1.4.7-1.8 2.1-2.1 4.9h15.5c0-1.8 0-2.5-.4-3.2-.6-2.1-2.8-2.8-7-2.8z"/><path class="st0" d="M34 235.2v67.5h279.9v-67.5H34zm101.8 38.1c0 6-2.1 13.8-16.3 13.8h-18V255h16.6c7.1 0 17.7.4 17.7 14.1v4.2zm32.8 1.1v12.7h-4.2l-.4-1.8c-1.8 1.4-4.6 2.1-8.8 2.1-8.5 0-11.7-1.8-11.7-7.1 0-2.1.4-3.2 1.1-4.6 1.8-2.5 5.3-2.5 8.1-2.5h11v-2.1c0-1.1 0-2.1-.7-2.8-1.1-.7-3.9-.7-7.4-.7-3.5 0-4.6.4-4.9.7-.7.7-.7 2.1-.7 2.8h-5v-2.5c0-1.1 0-1.8.7-2.1 2.1-2.1 8.1-2.1 10.2-2.1 2.8 0 8.5 0 11 1.8 1.1.7 1.4 1.8 1.8 2.8-.1 1.5-.1 2.9-.1 5.4zm34.3 12.7H198v-12.4c0-4.2-.4-5.3-1.1-6-1.1-.7-3.2-1.1-6-1.1-2.5 0-5.3.4-7.8 1.1v18.4h-4.9v-22.6h4.6l.4 1.8c.7-.7 1.4-1.1 2.5-1.4 1.8-.4 3.5-.7 6.4-.7 3.2 0 5.7.7 7.4 1.4 1.8.7 2.8 2.1 3.2 3.9 0 1.1.4 2.1.4 4.6v13zm30.7-1.4c-2.1 1.1-5.7 1.8-10.6 1.8-3.2-.4-6-.4-8.1-1.1-2.1-.4-3.2-1.4-3.5-3.5 0-1.1 0-1.8.4-3.2h4.6v1.8c.4 1.1.4 1.8 1.4 2.1 1.4.4 3.2.7 5.7.7 3.2 0 5.3-.4 6.7-1.1 1.1-.4 1.4-1.4 1.4-2.8 0-1.8-.4-2.5-2.1-2.8h-1.8c-.4-.4-1.4-.4-3.2-.4h-2.8c-4.6-.4-9.9-.4-9.9-6 0-5.3 3.2-7.1 11.7-7.1 2.1 0 4.9.4 6.4.4 2.1.4 3.5.7 4.6 1.4 1.1.4 1.4 1.4 1.4 3.2v1.8H231v-1.1c-.4-1.1-.4-1.4-.7-1.4-.7-.7-2.8-1.1-5.7-1.1-3.2 0-4.6.4-6 .7-1.4.4-1.8 1.4-1.8 2.8 0 1.1.4 2.1.7 2.5 1.4.7 8.1.7 10.2.7 2.5 0 3.9 0 5.3.7 2.5.7 3.5 2.5 3.5 5.7 0 2.5-.7 4.2-2.9 5.3zm29.7 1.4l-11.7-10.6h-1.8v10.6h-4.6V255h4.6v18.4h1.8l9.9-8.8h5.7l-11.3 9.9 13.8 12.7h-6.4zm35-10.2h-20.1v.4c0 2.8.4 4.6 1.4 5.3 1.1 1.1 3.2 1.8 7.1 1.8 3.9 0 5.3-.4 6-1.1.7-.7.7-2.5.7-3.2h4.9v2.5c0 1.4-.7 2.8-3.5 3.9-2.8.7-5.3 1.1-8.8 1.1-3.9 0-7.1-.7-8.8-1.8-2.8-1.4-3.9-4.6-3.9-9.5 0-3.2.4-5.7 1.4-7.4 1.4-2.8 5.3-4.2 11.7-4.2 4.6 0 8.1.7 9.9 2.8 1.8 1.4 2.1 3.5 2.1 7.1-.1.8-.1 1.2-.1 2.3z"/><path class="st0" d="M118.8 258.5h-12.4v24.7h12.7c8.1 0 11.7-3.2 11.7-9.9v-4.9c0-5.3-2.5-9.9-12-9.9zm243.1 4.6c0 4.6-2.5 5.7-8.1 5.7h-12v-10.2h12.7c4.9-.1 7.4.2 7.4 4.5zm6.4 14.8c0-3.9-2.1-6.7-7.8-7.8 4.2-1.1 6.7-3.2 6.7-6.7 0-5.7-2.8-8.5-10.6-8.5h-20.1v32.2h20.8c7.1 0 11-3.2 11-9.2zm-5 .4c0 4.6-3.5 4.9-8.5 4.9h-13.1v-11h13.8c6.1.1 7.8 2.2 7.8 6.1zm31.5.7c0 2.1-.4 3.9-2.5 4.6-1.1.4-2.8.4-6 .4-2.8 0-4.6 0-5.7-.7-1.1-.4-1.1-1.4-1.1-2.8 0-1.8.4-3.2 1.4-3.5.7-.4 2.1-.4 5.7-.4h8.1v2.4h.1zm4.6 8.1v-18c-.4-1.1-.7-2.1-1.8-2.8-2.5-1.8-8.1-1.8-11-1.8-2.1 0-7.8 0-9.9 2.1-.7.4-1.1 1.1-1.1 2.1v2.5h4.9c0-.7 0-2.1.7-2.8.7-.4 1.8-.7 4.9-.7 3.5 0 6.4 0 7.4.7 1.1.7 1.1 1.8 1.1 2.8v2.1h-11c-3.2 0-6.4 0-8.5 2.5-.7 1.4-1.1 2.5-1.1 4.6 0 5.3 3.2 7.1 11.7 7.1 4.6 0 7.4-.7 9.2-2.1l.4 1.8h4.1v-.1zm28.2 0v-12.4c0-4.2-.4-5.3-1.4-6-.7-.7-2.8-1.1-5.7-1.1-2.8 0-5.3.4-7.8 1.1v18.4h-4.9v-22.6h4.2l.4 1.8c1.1-.7 1.8-1.1 2.8-1.4 1.8-.4 3.5-.7 6.4-.7 3.2 0 5.3.7 7.4 1.4 1.8.7 2.5 2.1 3.2 3.9v17.7h-4.6v-.1zm31.5 0l-11.7-10.6h-1.7v10.6h-5V255h5v18.3h1.7l9.6-8.8h5.6l-11.3 9.9 14.2 12.7h-6.4z"/></svg>