<svg id="Layer_1" xmlns="http://www.w3.org/2000/svg" viewBox="0 0 512 512"><style>.st0{fill:#7ec346}</style><path class="st0" d="M36.9 247.9c1.6-1.3 1.3-3.4 1.9-5.1 4-12.3 15.7-19.8 28.1-17.9 12.6 1.9 21.6 12.2 22 25 .1 3-.6 4.1-3.8 4-11.9-.2-23.9.1-35.8-.2-4.3-.1-4.8 1.6-3.9 5 2.1 7.8 7 12.4 14.9 13.9 8.2 1.5 14.4-1.7 19.1-8.2 1.2-1.6 1.6-3.9 4.8-2 3.4 1.9 3.1 3.5 1.3 6.2-6.5 9.2-15.5 12.7-26.3 11.1-10.5-1.5-17.1-7.9-20.5-17.9-.5-1.6-.2-3.5-1.9-4.6.1-3 .1-6.1.1-9.3zm25.9-.9c5.2 0 10.3-.1 15.5 0 2.3 0 3.1-.3 2.2-2.9-2.4-7-9.3-12.3-16.7-12.4-8-.1-15.3 4.9-17.9 12-1 2.7-.2 3.3 2.4 3.2 4.8 0 9.7.1 14.5.1z"/><path d="M248.3 209.4h10.4c.3.3.6.5.8.8v20.7c6.9-6.5 14.6-7.9 22.8-6.1 6.6 1.4 11.7 5.1 15.6 10.7 8.3 11.9 6.6 29.4-3.8 38.9-10 9.1-23.6 8.8-34.9-1-1.2 1.7.7 4.9-1.2 5.4-2.9.8-6.2.4-9.3.4-1.9 0-1.6-1.6-1.6-2.8.1-22 .1-44 .2-66 .3-.5.6-.8 1-1zm26.5 27.2c-8.7.1-15.9 7-15.9 15.3 0 9.1 7.1 16.2 16.1 16.4 8.5.1 15.3-6.8 15.5-15.7.1-9-6.7-16-15.7-16zm78.3-10.5h9.4c.3.4.6.7.9 1.1.1 16.2.1 32.3.2 48.5 0 2.6-.7 3.8-3.4 3.4-.9-.1-1.9-.1-2.8 0-4.3.5-6.8-.6-4.8-7-6.9 5.9-13.4 9.4-21.3 8.7-7.9-.8-14.4-4.3-18.9-10.9-8.1-11.8-6.6-28.7 3.4-38.5 9.8-9.6 22.2-9.5 35.5.3 1.1-1.4.2-3 .7-4.5.4-.4.8-.7 1.1-1.1zm-1.8 26.1c-.1-9.1-6.4-15.6-15.3-15.6-9.2 0-16 6.9-15.9 16.2 0 8.5 7.2 15.6 15.8 15.5 9 0 15.5-6.8 15.4-16.1z" fill="#7dc243"/><path class="st0" d="M477 278.8c-1.3.2-1.8.2-2.2.3-10.5 1.9-18.3-1.3-23.3-11.3-2.2-4.4-5.8-8.1-9.7-11.8 0 6.5-.1 13 .1 19.5.1 2.9-.8 3.7-3.7 3.7-9.3.1-9.3.2-9.3-8.9v-59.9c0-.3.1-.6.2-1.4 3.2 1.1 6.2-.5 9.4-.7 2.7-.2 3.5.7 3.5 3.4-.1 11.9-.1 23.9-.1 35.8 0 .6.1 1.1.2 2.9 5.1-7.4 9.7-13.6 13.7-20.2 2.2-3.7 4.8-4.9 8.8-4.5 2.8.3 5.6.1 9.5.1-2.2 3-4 5.5-5.8 7.9-3.3 4.4-6.2 9.2-9.9 13.2-3.6 3.9-2.8 6.5.4 10.1 6.2 6.8 11.8 14.1 18.2 21.8zm-104.2-26.4c0-7.7.1-15.4-.1-23.1-.1-2.7.9-4 3.5-3.3 2.9.8 7-2.4 8.8 2.6.5 1.3 1.5-.1 2.2-.5 15.8-9.6 32.4-.6 32.8 17.8.3 9.9 0 19.8.1 29.7 0 2.6-.6 3.5-3.4 3.6-9.6.2-9.6.3-9.6-9.1 0-7.4.1-14.8-.2-22.2-.3-7.1-4.3-11.2-10.2-11.2-6.2 0-10.4 4.2-10.7 11.3-.3 8.8-.4 17.6-.2 26.4.1 3.5-.7 4.9-4.6 4.8-8.4-.3-8.4 0-8.4-8.4v-18.4zm-233-26.3h4.6c.3.4.7.7 1 1.1.1 16.3.1 32.7.2 49 0 2.7-1.3 3.1-3.4 3-1.9-.1-4 .4-3.7-2.7.1-.9-.1-1.8-.2-3.8-6.6 5.3-13.4 8.3-21.4 7.4-8.1-1-14.5-4.8-18.9-11.7-7-11.4-5.6-27.4 3.2-36.4 9.2-9.3 21.9-9.5 36.8-.4 1.1-1.4.1-3 .7-4.5.4-.3.7-.7 1.1-1zm-1.1 25.4c-.1-11.7-8-19.8-19.4-19.7-10.3.1-18.3 9.2-18.3 20.5 0 11.8 8.5 21 19.1 20.9 10.9-.1 18.7-9.2 18.6-21.7z"/><path d="M216.7 270c5.9-13.9 11.6-27.2 17.3-40.5.6-1.4.6-3.4 2.6-3.6 1.8-.2 4.2-.6 5.5.2 1.7 1.2-.3 3.1-.8 4.5-10 24.9-20.1 49.7-30.2 74.6-.6 1.5-.7 3.7-3 3.7-1.8 0-4.1.9-5.4-.5-1-1.1.5-2.9 1.1-4.3 2.6-7.1 5.1-14.2 7.9-21.2 1.2-3.1.9-5.6-.5-8.5-7-14.6-13.9-29.2-20.8-43.8-.7-1.4-1.3-2.8-1.9-4.3 6.7-1.6 7.1-1.5 9.8 4.3 5.9 13 12 25.9 18.4 39.4zm-45.3 10.1c-8.3 0-15.4-4.8-17.9-12.1-.6-1.7-1.4-3.5 1.3-4 2-.4 4.1-2.6 5.9 1 3.6 7.4 8.7 9.7 14.6 7.4 4-1.6 6.2-4.6 6.4-9 .2-4.3-2.2-6.6-5.9-8.1-3.3-1.4-6.8-2.5-10-4.1-8.1-4-10.9-11-7.5-18.2 3.4-7.2 12.6-10.3 20.1-6.8 2 .9 4 2.1 5.3 3.9 1.1 1.5 4.1 3.1 1.4 5.3-1.9 1.5-4.3 3.8-6.8-.3-2.3-3.7-7-4.2-10.5-2-4.6 2.9-4.7 8.3.1 11 3.3 1.8 7 2.9 10.4 4.4 8.8 3.9 12.2 10.1 10.4 18.7-1.6 7.6-8.7 12.9-17.3 12.9z" fill="#7fc346"/><path d="M139.8 226.1l-1.1 1.1c0-.8.3-1.1 1.1-1.1zm5.6 1.1c-.3-.4-.7-.7-1-1.1.8 0 1.1.4 1 1.1zm207.7-1.1l-1.1 1.1c0-.8.4-1.1 1.1-1.1zm10.3 1c-.3-.4-.6-.7-.9-1.1.7 0 .9.5.9 1.1zm-103.8-17c-.3-.3-.6-.5-.8-.8.5 0 .8.2.8.8zm-11.3-.7c-.3.3-.6.5-1 .8 0-.7.4-.9 1-.8z" fill="#76c136"/></svg>