<svg version="1.1" id="Layer_1" xmlns="http://www.w3.org/2000/svg" x="0" y="0" viewBox="0 0 512 512" xml:space="preserve"><style>.st0{fill:#025da8}</style><path class="st0" d="M304.7 414H101.3c0-104.1 0-208.1-.1-312.2 0-3.7 1-4.5 4.5-4.5 26.5.2 53 .1 79.5.1 5.8 0 5.3-1.1 5.3 5.2 0 72.4 0 144.8-.1 217.2 0 3.9 1.1 4.8 4.8 4.8 34.8-.1 69.6 0 104.5-.2 3.7 0 4.6 1 4.6 4.6-.2 27.4-.1 54.9-.1 82.3.1.9-.2 1.9.5 2.7z"/><path class="st0" d="M417.9 97.4c0 104.4 0 208.7.1 313.1 0 3-.7 3.7-3.6 3.6-28.6-.1-57.3-.1-85.9-.1 0-3.4-.1-6.9-.1-10.3 0-70.8 0-141.6.1-212.5 0-3.6-.9-4.6-4.6-4.6-34.9.1-69.9 0-104.9.2-3.4 0-4.5-.8-4.5-4.3.1-26.6.1-53.3.1-79.9 0-6.2-.2-5.1 5-5.1 66.2-.1 132.3-.1 198.3-.1z"/><path d="M304.3 255.3c0 13.7-.1 27.4.1 41.1 0 3.1-.9 4-4 4-27.3-.1-54.6-.1-81.9 0-2.9 0-3.9-.7-3.9-3.7.1-27.4.1-54.8 0-82.3 0-3 .9-3.8 3.8-3.8 27.4.1 54.8.1 82.3 0 3.1 0 3.7 1 3.7 3.9-.2 13.7-.1 27.2-.1 40.8z" fill="#e2021d"/></svg>