<svg xmlns="http://www.w3.org/2000/svg" viewBox="0 0 512 512"><path d="M259.2 70.9c9.2 9.4 19.2 19.7 28.5 29.2L152.8 235c-9.2-9.3-19.4-19.5-29-29.1 44.9-44.7 89.9-89.7 135.4-135zM153 211.6c37.4-37.5 74.4-74.4 111.8-111.9-1.8-1.7-4.4-4.2-5.2-5-37.6 37.7-74.6 74.7-111.9 111.9 1.4 1.3 3.8 3.6 5.3 5zm288 43.5l-28.2 28.2c-45.1-45-90.2-90.2-135.2-135.1 8.9-8.7 19.2-18.7 28.6-28 44.4 44.4 89.4 89.5 134.8 134.9zm-140.6-107c37.7 37.7 74.7 74.6 112.1 112 1.6-1.7 4-4.3 5.5-5.8-37.5-37.6-74.3-74.4-111.6-111.7-1.8 1.6-4.3 3.9-6 5.5zm-91.3 239.2c-43.8-43.9-88.8-88.9-133.4-133.6 9.5-9.2 20-19.3 29.8-28.9 43.9 43.9 88.9 88.9 133.5 133.4-9.5 9.3-19.9 19.4-29.9 29.1zm7.7-28c-37.9-37.8-74.9-74.7-111.5-111.4-2.1 1.5-5.2 3.6-6.2 4.3 37.8 37.8 74.7 74.8 111.5 111.6 1.5-1.1 4.2-3.1 6.2-4.5zm12.5 47.2c44-44 88.9-89 133.4-133.5 9.4 9.5 19.6 19.9 29.3 29.7-44.1 44.1-89.1 89-133.8 133.7-9.3-9.6-19.4-20.1-28.9-29.9zm27.2 6.5l112.2-112.2c-1.3-1.2-3.7-3.5-5.1-4.8L251.4 408.2c1.6 1.5 4.1 3.8 5.1 4.8zM238 253.7c0-20.1.2-40.2-.1-60.3-.1-6.3 2.1-8.3 8.1-8.1 8.8.4 17.6-.3 26.4.4 2.2.2 5.8 3.8 5.8 5.8.3 41.5.3 82.9 0 124.4 0 2-3.7 5.6-5.9 5.8-8.7.7-17.6 0-26.4.4-6.1.3-8.2-1.9-8.1-8.1.4-20.1.2-40.2.2-60.3z" fill="#004282"/></svg>