<svg id="Layer_1" xmlns="http://www.w3.org/2000/svg" viewBox="0 0 512 512"><style>.st0{fill:#f26521}</style><path class="st0" d="M258.8 380.6V364c0-4.4-.1-8.9.1-13.3 0-1.2.6-2.7 1.5-3.5 21.9-21.8 43.8-43.6 65.7-65.3 1.1-1.1 2.3-1.5 3.8-1.5 27.4 0 54.9 0 82.3.1 2 0 3.4-.6 4.8-2l57.9-57.6c.5-.5 1.1-1 1.9-1.8.1 1 .2 1.6.2 2.2 0 9.1.1 18.2-.1 27.3 0 1.3-.7 2.9-1.6 3.8-16.5 16.5-33 32.9-49.6 49.3-.8.8-2.4 1.4-3.6 1.4-27.5.1-55 .1-82.6 0-1.9 0-3.3.6-4.6 1.9-24.7 24.7-49.5 49.3-74.2 74-.4.2-.9.7-1.9 1.6z"/><path class="st0" d="M258.8 326.2c0-10.6 0-20.6.1-30.6 0-.9.6-1.9 1.2-2.5 16.7-16.7 33.4-33.4 50.3-49.9.8-.8 2.5-1.1 3.7-1.1 27-.1 54-.1 80.9 0 2.8 0 4.8-.8 6.8-2.8 23.7-23.7 47.5-47.4 71.3-71.1 1.1-1.1 2-2.3 3-3.4l.6.3c.1.6.2 1.2.2 1.8 0 9.2.1 18.3-.1 27.5 0 1.1-.6 2.6-1.4 3.4-21.8 21.8-43.7 43.6-65.7 65.3-.9.9-2.7 1.4-4 1.4-27.1.1-54.3.1-81.4 0-2.4 0-4.1.7-5.8 2.4-19.2 19.2-38.6 38.4-57.9 57.6-.4.5-.9.9-1.8 1.7z"/><path d="M40.5 165.7h32.2v12.9H55.6v8.1h15.5v12.5H55.4v20.5h-15c.1-17.9.1-35.9.1-54zM97.3 181c7.4.2 13.7 1.5 18.3 6.7 5.5 6.2 6.3 13.4 3.6 21-2.6 7.4-8.4 11.2-15.9 12.1-4.1.5-8.4.4-12.5-.4-10.1-2-15.7-9.6-15.3-20.3.3-9.8 6.7-17 16.7-18.6 1.9-.3 3.9-.4 5.1-.5zm9.3 20.3c-.3-1.8-.4-3.3-.9-4.7-1.2-3.7-4.1-5.9-7.9-5.8-3.7.1-6.5 2.1-7.6 5.8-1 3.3-1 6.6.3 9.9 1.3 3.3 3.9 5 7.5 5 3.5 0 6.2-1.7 7.4-5 .6-1.8.9-3.6 1.2-5.2zm63.7 2.8c.2 6.9 5.3 10.6 11.2 8.5 1.1-.4 2.4-1.1 2.9-2.1.9-2 2.4-2.1 4.2-2.1 3.2.1 6.4 0 9.9 0-1.6 4.7-4.2 8.2-8.5 10.2-7.6 3.6-15.4 3.8-23-.1-8.3-4.3-11.8-14.5-8.7-24.4 2.6-8.1 8.5-12.1 16.6-13 7.3-.8 14.1.4 19.1 6.5 3.8 4.7 4.7 10.2 4.8 16.3-9.5.2-19 .2-28.5.2zm.3-7.6h15c-.5-4.6-3.3-7.3-7.4-7.3-4.1-.1-7 2.7-7.6 7.3zm204.6 20.1c-.1 1-.2 2-.3 3.1h-8.4v-54.2c2.5 0 4.8-.1 7.2.1.5 0 1.3 1.1 1.3 1.8.1 5.3.1 10.7.1 16v2.5c.3 0 .5.1.6.1 9.4-8 22.6-4.9 27.3 6.6 3 7.4 2.5 14.8-2.3 21.3-6.2 8.2-16 9.2-25.5 2.7zm20.3-15.7c0-.3 0-1.2-.2-2-.9-4.5-3-8-7.7-9.3-3.9-1.1-8.2.3-10.6 3.5-2.9 4-3.2 8.5-1.8 13.1 1.3 4.2 4.8 6.8 9 7 6.7.3 11.3-4.4 11.3-12.3zm-146.9 19c-5.1 0-9.8.1-14.5-.1-.8 0-1.8-.8-2.2-1.5-2.2-3.4-4.3-6.8-6.7-10.6-1.5 2.2-3.1 4.1-4 6.2-2.3 5.1-5.9 6.9-11.3 6.1-2.8-.4-5.7-.1-9.2-.1 5.7-6.9 11-13.4 16.5-20-4.5-5.7-9-11.4-13.8-17.4 5.7 0 10.8 0 16 .1.5 0 1.2.8 1.6 1.4 1.7 2.7 3.3 5.4 5.1 8.5 1.9-3 3.6-5.7 5.2-8.4.7-1.1 1.4-1.6 2.7-1.5 4.5.1 9.1 0 14.2 0-1.6 2-3 3.7-4.3 5.3-2.9 3.6-5.7 7.2-8.7 10.7-1.1 1.3-1 2.1 0 3.3 4 5.3 8 10.6 11.9 16 .5.4.9 1 1.5 2zm46.9-12.7c0 3 .1 5.8-.1 8.5 0 .7-.7 1.6-1.3 1.9-18.8 9.7-40.1-2.2-42-21.6-1-9.9 1.7-18.6 9.2-25.5 4.8-4.3 10.4-6.5 16.9-6.5 5.2 0 10.4-.1 15.2 2.6 1.5.8 2.1 1.7 2 3.4-.1 2.3 0 4.7 0 7.6-6.1-5.4-12.8-7.1-20.3-5.3-4.3 1-7.8 3.4-10.4 7.1-5.9 8.1-5.2 20.7 1.6 27.8 7.2 7.6 17.1 7.7 29.2 0zm51.6-24.6h8.2c.1.2.3.4.3.6 0 7.9.3 15.9-.1 23.8-.3 7.5-4.6 12-12 13.6-4 .9-7.9.6-11.6-1.2-4.8-2.2-7.9-5.9-8.1-11.3-.3-8.2-.1-16.5-.2-24.7 0-.2.1-.4.2-.8h8.4v2.5c0 6.9-.1 13.7 0 20.6.1 5 3.1 7.8 8.1 7.4 3.3-.2 5.8-2.2 6.3-5.6.4-2.4.3-4.9.4-7.3.2-5.8.1-11.6.1-17.6zm-192.7-1.2v12.2c-.5-.1-.9-.2-1.3-.2-7.3-1-12 3-12.2 10.4-.1 4.4 0 8.9 0 13.3v2.7h-13.5v-37.2h12.9v3.8c2.3-1.4 4.3-3.1 6.6-3.9 2.3-.9 4.9-.8 7.5-1.1zM313 219.8h-8.3v-54.1h8.3v54.1z"/></svg>