<svg xmlns="http://www.w3.org/2000/svg" viewBox="0 0 512 512"><path fill="#006aa7" d="M1 1h509v511H1z"/><path d="M256 160c.1 1.8.2 3.7.2 5.5v195.1H215v-89.5h-79.1V361H94V160h42v76.4h5.1c22.8 0 45.6-.1 68.4.1 4.5 0 5.6-1.4 5.5-5.7-.2-23.6 0-47.2 0-70.9 13.7.1 27.3.1 41 .1zm64 205c-1.9-.5-3.8-1.1-5.7-1.6-24.8-6.1-34.9-25.7-31.7-49.2 3.2-23.3 18.2-36.6 43.6-40.1 11.7-1.6 23.4-3.4 35-5.2 8.5-1.3 12.8-5.2 13.1-11.3.5-8.5-3.6-15.1-11.9-16.6-7.1-1.3-14.6-1.6-21.7-.8-8.6 1-14 6.9-15.6 15.4-.7 3.7-2.3 4.4-5.6 4.4-10.6-.2-21.2-.1-31.8-.1-1.9-17.7 11.4-38.5 28.7-45.6 13.4-5.5 27.5-6.6 41.7-5.6 8.5.6 17.3 2 25.4 4.6 20 6.5 28.9 19.4 29 40.4.1 25.2-.1 50.3.1 75.5 0 5.6.4 11.3 1.4 16.8.5 2.9 3 5.4 4.5 8 1.1 1.9 2.1 3.7 3.9 6.8-14.9 0-28 .1-41.2-.1-1 0-2.5-1.9-2.9-3.2-1.2-4.3-1.9-8.7-3-13.5-1.2.9-2.3 1.6-3.2 2.4-9.6 9.6-20.8 16-34.4 17.6-.6.1-1.2.6-1.8.9-5.2.1-10.6.1-15.9.1zm54.1-75.7c-4.4 1.6-8.2 3.2-12.1 4.3-4.2 1.1-8.5 1.5-12.7 2.6-6.4 1.7-13.1 2.9-19 5.7-8 3.8-11.2 13.1-8.9 22.3 2.1 8.2 8.4 12.9 17.8 13 9.7.1 18.4-2.8 25.8-9.1 4.9-4.1 8.5-9.3 9-15.6.6-7.5.1-15.2.1-23.2z" fill="#fff"/></svg>