<svg xmlns="http://www.w3.org/2000/svg" viewBox="0 0 512 512"><path d="M99.3 177.6c-.9-2.4-2-3.5-4.6-3.3-4.6.2-9.3.3-13.9 0-3.4-.2-4.9.9-6.1 4.2-15.5 43.5-31.2 87-46.9 130.4-.5 1.3-1.2 2.4-1.9 3.6v.8c5.9-.1 11.8-.3 17.7-.1 3 .1 4.2-1.1 5.1-3.7 2.9-8.8 6.1-17.4 9-26.2.8-2.5 2.1-3.3 4.7-3.3 16.3.1 32.7.1 49 0 2.9 0 4.1 1 4.9 3.6 3 8.9 6.1 17.7 9.4 26.5.4 1.2 1.8 2.9 2.7 3 6.5.3 13 .1 19.9.1-1.7-4.6-3.1-8.7-4.6-12.8-14.7-41-29.6-81.9-44.4-122.8zm-33.7 83.9c7.1-21.1 14.1-42 21.4-63.7 7.4 21.6 14.5 42.5 21.8 63.7H65.6zm422.6-26.4c-2-13.9-10-22.4-23.3-26.2-9.3-2.7-18.8-2.5-28.3-1-7.9 1.2-15.4 3.7-22.2 8.3 2.6 5 5 9.8 7.5 14.7 1.3-.5 2.3-.9 3.2-1.3 7.8-3.8 16.2-5.2 24.7-4.9 14.9.4 21.8 8.9 18.6 25.7-11.4-4-23.1-4.4-35-2.5-17.6 2.8-28.6 14.4-29.1 30.7-.6 18.9 9 31.7 26.6 35.8 1.9.4 3.7.9 5.6 1.3h6.9c4.6-1.5 9.4-2.6 13.7-4.6 4-1.9 7.5-4.8 11.7-7.5.1 3.1.3 6.2.4 9.8h19.6v-75.6c-.1-1-.5-1.8-.6-2.7zM461 291.7c-8.1 5.5-16.9 7.3-26.3 4.3-7.2-2.2-11.3-8-11.4-15.6-.1-7 3.5-12.3 10.7-14.7 11.2-3.6 22.3-2.1 33.1 2 1 .4 1.8 2 2 3.2.3 1.7.1 3.6.1 6.3 1.8 6.7-2.8 10.8-8.2 14.5zm-148.6-82.5c-10.2 0-10.2 0-10.2-10V173c0-1.2-.2-2.4-.3-4.1-5.5 2.9-10.4 5.7-15.4 8.1-2.7 1.3-3.7 2.9-3.7 5.9.2 7.4 0 14.9.1 22.4.1 3.1-1 4.1-4 3.9-3.5-.2-7.1-.1-11.1-.1 0 5.2.1 9.9 0 14.6-.1 2.6.7 3.7 3.4 3.6 3.7-.2 7.4-.1 11.4-.1.1 2.1.3 3.7.3 5.3.1 20.1-.2 40.1.3 60.1.3 13 7.8 21 18.4 22.2.5.1.9.4 1.4.6h6.9c4.4-1.2 8.9-2.4 13.2-3.8 1.1-.3 2.5-1.4 2.6-2.4.9-5.1 1.4-10.3 2.1-15.5-3.9 1.1-7.3 2.3-10.8 2.9-10 1.9-14.8-1.9-14.9-12-.1-18 0-36-.1-54 0-2.7.9-3.6 3.6-3.5 6.4.2 12.9.1 19.3 0 1.1 0 3.1-1.3 3.1-2 .3-5.2.1-10.4.1-16-5.5.1-10.6.1-15.7.1zM225 247.3c-1.2-2.6-1-4.3.7-6.5 6.6-8.4 12.9-17 19.3-25.5 1.4-1.8 2.7-3.6 4.6-6.1-6.9 0-13 .1-19.1-.1-2.4-.1-3.9.6-5.4 2.7-9.5 13.8-19.1 27.4-28.7 41.1-.7 1-1.4 1.9-2.1 2.8-.3-.1-.6-.2-1-.4v-86.6c-5.9 3.1-11 5.9-16.3 8.5-2.5 1.2-3.5 2.7-3.5 5.6.1 41.9.1 83.8.1 125.8v4.5c5.9 0 11.3-.1 16.7.1 2.6.1 3.3-.9 3.3-3.4-.1-8-.1-15.9 0-23.9 0-1.3-.1-2.8.5-3.7 5-6.9 10.2-13.8 15.7-21.1.9 1.9 1.6 3 2.2 4.3 6.6 14.9 13.2 29.8 19.9 44.7.7 1.6 1.2 3.2 3.7 3.1 6.2-.2 12.3-.1 19.2-.1-.7-1.7-1.2-2.9-1.7-4-9.4-20.6-18.7-41.2-28.1-61.8zm137.2-38.2c-3.9-.3-4.7 1.2-4.6 4.8.1 31.5.1 62.9.1 94.4 0 1.5.2 3 .3 4.6h19.2V209.2c-5.2 0-10.1.3-15-.1zm5.7-40c-7.2-.1-13 5.5-13.2 12.7-.1 7.3 5.5 13.1 12.7 13.2 7 .1 12.8-5.5 13-12.5.2-7.3-5.4-13.3-12.5-13.4z" fill="#019430"/></svg>