<svg id="Layer_1" xmlns="http://www.w3.org/2000/svg" viewBox="0 0 512 512"><style>.st0{stroke:#312782;stroke-width:.466;stroke-miterlimit:2.6131}.st0,.st1{fill-rule:evenodd;clip-rule:evenodd;fill:#312782}</style><path class="st0" d="M296.9 159.3l2.6-2.3h154.7l-3 2.3H296.9zm-10.2 8.3l3-2.3H444l-2.7 2.3H286.7zm-9.9 8.3l2.7-2.2h154.7l-2.7 2.2H276.8zm-9.8 8.4l2.7-2.3h154.6l-3 2.3H267zm2.7 8.7l-3.1-2.7h147.5l-3 2.7H269.7zm9.8 8.3l-3-2.6h127.8l-3 2.6H279.5zm9.8 8.3l-2.6-2.2h107.4l-2.7 2.2H289.3zm9.9 8.4l-2.7-2.3h87.7l-2.6 2.3h-82.4zM62.8 159.3l-3-2.3h155l3 2.3h-155zm9.8 8.3l-2.6-2.3h154.7l3 2.3H72.6zm9.9 8.3l-2.7-2.2h155.1l2.6 2.2h-155zm10.2 8.4l-3.1-2.3h155.1l2.6 2.3H92.7zm10.2 8.7l-3-2.7h155l2.7 2.7H102.9zm9.8 8.3l-2.6-2.6h154.6l2.7 2.6H112.7zm9.8 8.3l-2.6-2.2h154.7l3 2.2H122.5zm10.3 8.4l-3.1-2.3h155.1l2.6 2.3H132.8z"/><path class="st1" d="M237.5 287.3h-35.2v-59.1h20.1v45.4h21.9v13.7h-6.8zm42.4 0v-58.7h41.6v11.7h-21.2v11.4h20v12.1h-20v23.5h-20.4zM250 228.6h19.7v58.7H250v-58.7zm-147.9 58.7v-22.4H78.3v22.4H57.9v-59.1h20v21.6h23.8v-21.2h20.5v58.7h-20.1z"/><path class="st0" d="M129 299.8l3-2.3h83.2l2.6 2.3H129zm-9.9 8.7l2.7-2.7H225l3.1 2.7h-109zm-9.8 8.3l2.7-2.6h122.9l3 2.6H109.3zm-10.2 8.3l3-2.2h142.6l3 2.2H99.1zm-10.2 8.4l3-2.3h154.7l-2.7 2.3h-155zm-9.8 8.3l2.6-2.3h155.1l-2.7 2.3h-155zm-9.9 8.3l2.7-2.2h155l-3 2.2H69.2zM59 358.8l3-2.6h154.7l-2.6 2.6H59zm171.3-59l-2.6-2.3h154.7l2.6 2.3H230.3zm9.9 8.7l-2.7-2.7h154.7l2.6 2.7H240.2zm10.2 8.3l-3.1-2.6H402l3 2.6H250.4zm9.8 8.3l-2.6-2.2h154.2l3.1 2.2H260.2zm10.2 8.4l-3-2.3h154.7l3 2.3H270.4zm9.8 8.3l-2.6-2.3h154.7l2.6 2.3H280.2zm10.3 8.3l-3.1-2.2h154.7l2.6 2.2H290.5zm9.8 8.7l-2.7-2.6h154.3l2.7 2.6H300.3z"/><path class="st1" d="M177 287.7l-3.8-9.8H152l-4.2 9.8h-21.6l26.1-59.5h20.4l25.7 59.5H177zm-20-21.6h11.3l-6.1-14.4-5.2 14.4zm271.1 21.6l-11.7-15.5-12.5 15.1-37.1.4-3.8-9.8h-21.2l-4.2 9.8H316l25.7-59.5h20.8l23.4 54.2 19.3-24.6-23.2-29.6h24.6l12.1 14.4 11.7-14.4h20.8l-21.9 29.2 23.8 30.3h-25zm-80.9-20.9h11.3l-6.1-14.4-5.2 14.4z"/></svg>