<svg version="1.2" baseProfile="tiny" xmlns="http://www.w3.org/2000/svg" viewBox="0 0 510.2 510.2"><path fill="#202B53" d="M161.6 347.8h-17.3v-.8c1.1 0 3.1-.6 3.8-1.5 1.1-1.1 1.4-2.1 1.4-5.8v-24c0-1.7-.6-3.2-1.5-4.1-1.1-.9-2.4-.9-3.7-1.1v-.9h16.1c8.6 0 13 1.4 17 5.4 3.2 3.2 5.4 8.1 5.4 13-.1 12.3-8.2 19.8-21.2 19.8zm-.5-35.5c-1.7 0-3.4.2-5.1.5v30.3c0 2.1 2.8 2 5.1 2 9.5 0 13.9-6.9 13.9-16.4 0-9.6-5.2-16.4-13.9-16.4zm40.8 3.5v24.8c.2 2.1-.5 6.4 4.3 6.4v.8h-15v-.8c4.7 0 4-4.3 4.3-6.4v-24.8c0-4.6-2.6-5.5-4.4-5.5v-.8h15.5v.8c-2.1 0-4.7.9-4.7 5.5zm39.5 32l-10.9-18.1h-3.7V340c0 2.8-.2 6.9 4.3 7v.8h-14.8v-.8c4.6-.2 4.1-4.3 4.1-6.9v-24.3c0-4.6-2.6-5.7-4.6-5.7v-.6l16.8-.2c8.9-.2 12.9 3.4 12.9 9.6 0 6.3-4.3 9.2-8.1 9.8l9.5 15c1.2 2 2.9 2.9 4.7 3.1v.9l-10.2.1zm-10.6-35.9c-1.2 0-2.8.2-4 .3v15c1.2.3 2.1.3 3.5.3 5.7 0 8.1-3.8 8.1-7.8.1-5.4-2.7-7.8-7.6-7.8zm56.5 35.9h-30.6v-.9c3.7 0 5.5-2.3 5.5-5.5v-24.3c0-2.9 0-6.7-5.1-6.7v-.8h29.4c0 1.7.2 6.6.5 9.5h-.9c-.9-5.5-5.5-6.7-11-6.7-4.1 0-6.4.3-6.4.3v13.8h8.6c2.4 0 5.5-1.4 5.8-5h.9c-.3 2.6-.3 9.9 0 12.5h-.9c-.3-3.7-3.1-4.7-5.7-4.7h-8.7v12.1c0 3.1.3 3.7 4.6 3.7h4.3c6.1-.2 9-1.4 11.3-6.4l.9.5c-1 2-1.9 5.6-2.5 8.6zm25.7.3c-11 0-17.8-8-17.8-18.8 0-10.1 6.4-20 18.7-20 3.1 0 5.8.8 8 1.5.6.2 1.2.6 1.8.6.6 0 1.2-.8 1.7-1.8l.8.2c.2 4.3.6 8.3 1.2 12.4-.2.3-.6.2-.9.3-1.2-5.4-5.4-10.6-11.6-10.6-8.4 0-11.9 7.8-11.9 16.5 0 9 3.7 17 12.2 17 7.2 0 11-3.7 11.9-10.7l1.2.3c-.9 8.7-7 13.1-15.3 13.1zm50-27.2c-1.2-6.6-5-8.6-9.6-8.6h-1.8v26.9c0 4.3-.2 7.3 4.1 8v.6h-15.2v-.8c5.1-.3 4.6-4 4.6-7.7v-27.1h-2c-6 0-8.4 2.9-9.6 8.6l-1.1-.2c.2-.9.9-11.2.9-11.2h29.8s.8 10.1.9 11l-1 .5z"/><g fill="#EC682C"><path d="M284.8 294.4l2.8.1m31.5-122.4c-7.4-1.9-13.7 1.7-19.9 3.6 3.4 1.7 4.3 5.3 6.2 8.2l2.1 2.8c1 1.7 2.9 2.6 4.3 3.6 5.3 4.3 13 1.2 19.2 1.7 18.2 9.1 30 28.6 30.5 48.5.5 15.4-4.8 31-19.2 38.9-4.1 1.9-10.1 2.4-13.9.2 4.3-20.6 1.2-42.7-12.2-58.5-4.8-5.5-11.5-11.5-19.2-8.4-2.6 1.4-4.3 4.3-4.1 7.4-1.4 1.2-3.4 1.9-5.3 2.6-7.2 2.4-15.6.5-21.1-4.6l-.2-5c-1.7-1-3.1-2.9-3.6-4.8 1-1 2.2.7 3.1.7-.7-2.4-1-5-2.2-7.2l-2.9-1c-1.4-1-2.9-2.6-2.9-4.3 1.2.7 3.1.7 3.8 1.4-1-3.8-1.7-7.9-2.9-11.8-1-5.3-7.4-6.5-9.8-11.3-.5-.5-1.4-.2-1.9-1-.5-.5-.5-1.4-.5-2.2.7 0 1.2.5 1.9.7-1.9-4.8-3.4-10.8-8.6-13.9-1.9 1-4.3.7-6.7 1l-.2-.2c1-1.2 2.4-1.7 3.6-2.4l-1.7-1c-2.9-2.4-4.6 1.7-7.4 1v-1.7c.2-.5.7-1.2 1.4-1.2-1.9-.7-4.1-.7-6 0l-1.4 2.2c-.2 1.9-1.9 3.4-3.4 4.8 0-2.4.7-4.8 1.4-7l-4.3 1.9c-2.6-1.2-5-2.9-8.9-2.6.7.5 1 1.4 1.4 2.2 0 1.4.2 3.4-.2 4.8-1.7-1.7-3.1-3.6-4.1-5.8-2.2.2-4.1 1.2-6 1.9 1.4 0 2.9 1.4 3.4 2.6h-1.9c-1.7-.5-3.8-.5-5.3-1.4-3.8 1.9-7.4 6.2-8.6 9.8.5.2 1.4.2 1.9.7l-3.6 2.9c-.5 1.7-.5 3.4-.5 5.3l-2.6 4.1c-2.4 7-2.9 15.1-2.6 22.3-4.3 1.2-1.2 5.3-2.2 7.9.7-1.4 2.2-2.4 3.4-3.1.7 1.4-.5 2.9 0 4.6-1 .5-1.4 1.4-2.4 1.9-1.2 2.4.2 4.8.2 7.4.7-1.4 2.2-2.6 3.6-3.1.5 1.4-.5 2.9-1 4.3-.2 1.2-1.9 1.4-1.9 2.6 1.4 7.9 3.8 15.6 6.5 23l-5 11.5c-1.2 3.8-1.9 8.2-3.8 11.8l-1.9-1c-3.6-1.4-8.4-.7-11 2.2-1.4-.2-3.8-.2-5.3.5-1.9 1-3.8 2.6-4.3 4.8 1 2.6-2.6 3.6-2.9 6.2-1 3.8.5 7.4 2.4 10.3h57.7l.3.3h17l-3.7-.3c-.8-3.7-2.1-7.6-1.6-11.2l1.6-2.6 4.2 3.1-.5 11h7.6l.3-.3h45.1c3.1-.2 43.2-.1 45.3-2.3 4.1.7 8.2.5 12-.2 11.5-1.7 21.1-11.8 26.4-21.8 10.4-23.7 3.2-52.5-13.3-71.2-4.8-6.2-12-8.4-17.3-14.6-3.5-3.3-5.1-8.4-9.4-10.5l-4.5-1.7zM242.8 236c1.2-1 2.9-.7 4.3-1.2l2.4 3.1 2.6 2.6c-3.8 1.5-6.9-1.8-9.3-4.5zm10.3 23.1l1 2.4c-3.1 1.2-4.1-4.6-7-1.7-2.4-.7-5-1.7-7.2.2-.5.2-1.2 1-1.9.5 0-1.4 1.4-2.4 2.2-3.6 3.1 1.2 5-4.6 7.7-.7 1.8.7 4.2.7 5.2 2.9zm-16.3-24.7l.2.5c-1.4.2-3.1.7-4.6 0-2.2-1.7-1.7-5-1-7.4l1-2.2c1.7 2.6-.4 7.6 4.4 9.1zm20.4-14.4c-.7.5-1.2-.2-1.9-.2-1.4-.2-3.4.7-4.1-1.2l-.5-1.4c1-.2 2.2-1 3.4-.5 1.1.9 2.1 2.3 3.1 3.3zm-7-16.1c.7.2.7 2.4 2.4 1.9 1 1.4 1.7 2.9 2.2 4.6-.5.5-1.4.2-1.9 0-1-.7-1.7-1.4-2.6-2.6l-.1-3.9zm-2.6 18.5c1 1 2.2 1.7 2.9 2.9-1.9 0-4.6.7-5.8-1.2.9-.8 1.7-1.7 2.9-1.7zm-1.7-26.4c-1 0-1.7.7-2.4.7.2-2.4.5-5.3 1.2-7.7 1.2 1.9 2.4 4.6 1.2 7zm-54.7-31.9c2.6-.2 4.3-3.4 7.2-2.4 2.2.7 3.8 1 5.3 1.4-.2 1.7 1.4 1.9 2.4 2.4 1.2 1.4 1.4 4.3 3.8 4.3 2.2 0 4.8.5 6.7 1.7 2.6-1.7 6.2-2.4 9.4-1.7.5-3.4 2.9-5.8 6-7.2 2.6-.7 4.8 1.2 7.2 1.4 2.4 1.7 3.1 4.6 4.3 7 0 3.6-1.4 7.2-4.8 8.9l-1.4.5c.7 2.9.2 6-1 8.9.7.2 1.7 0 2.2-.7.2 1.2-.5 2.4-.2 3.8-.7 2.4-3.6 4.1-4.1 6.7-1 1.2-2.4 2.6-3.8 2.6-.2.5 0 1 .5 1.2 5.5 0 10.1 1.7 14.6 4.1v2.4c-4.3-2.6-9.4-3.8-14.4-4.6-.2.7-.2 1.9-.5 2.6 4.3 1.9 8.6 4.3 12.2 7.7.2.7.2 2.2 0 2.9-4.1-3.4-8.2-7-13.2-8.6-1.2 1-2.2 4.6-4.1 1.9-2.4-1.7-5-2.6-7.9-3.1-1-1-1-2.4-1-3.8 1.7-.5 2.6-2.4 3.1-3.8 1 0 2.6 1 3.1-.7.5-1.4-.7-2.4-1.7-2.9-3.8-.7-8.6-1.7-12.2.7-.2 1-.5 2.4 1 2.6.7 0 1.4 0 1.9-.5.2 1.4 1 3.8 2.9 4.3-.2 1.4 0 3.8-1.9 4.1-3.4.2-6.2 1.7-9.4 3.4-1.4-.5-2.2-1.7-3.4-2.6-4.3 1.9-8.4 4.6-12.2 7.7-.5-1.2-.2-2.2 0-3.1 3.4-3.4 7.4-4.6 11.3-6.5v-2.9c-2.2-.7-4.3 0-6.5.5l-.2-.2c-2.2 1.4-5 1.9-7.2 3.6-.5-1.2 0-3.1 1.7-3.6 3.8-1.9 7.9-3.1 12.7-2.9.7-2.9-2.4-4.1-3.6-6.2-.7-1.7-1.7-3.4-1.9-5.3h1c-.5-3.4-.7-7.2 0-10.8-3.6-1.4-5.8-5.3-7-8.6.2-2.6 1.9-4.5 3.1-6.6zm.2 57.5c1.7.5 3.8 1.4 3.6 3.4 1.4 2.2 3.1 3.8 3.6 6.5-2.9-.7-5.3-3.4-6.7-5.8-.2-1.2-.5-2.9-.5-4.1zm7 18.8c.2.2.7 0 1.2.2-.2 1.9-1 3.8-1.4 5.8-1.4 1.7-4.3 1.2-6.2 1 2.8-1.5 4.7-4.2 6.4-7zm-8.9-10.1c-1.2 1.9-3.4 2.6-4.1 4.6h-.2c-.2-1.9-1.4-4.3 1.2-5.5 1.2-.1 2.1.4 3.1.9zm-3.1-53l.5-.2v3.8l-2.4 1.4c-.3-1.9.4-3.8 1.9-5zm-2.9 12.4l1.2-2.2c1 0 1.9-.5 2.9-.7-2.4 1.4-.7 4.6-1.7 6.5l-1 4.8c-.4-2.8-2.8-5.5-1.4-8.4zm-23.8 94.1c-1 0-1.7-1-2.6-1-1.7 2.6.2 5.8-.7 8.4-1-.2-1.9-.7-2.4-1.7-.2-2.6-.5-5.5 0-7.9l3.4-3.6c2.1 1.2 2.6 3.6 2.3 5.8zm8.7-.2c-.5-1.4-1.4-2.9-3.1-3.4-1.9 2.4-1.4 6-1.2 9.1-.7.7-1.7 1.4-2.6 1.9-1.9-6-.2-12.5 3.4-17.3 1.2 0 2.4-.2 3.6-.2-1 .7-.7 2.2-1.2 3.1.7 1 1.9.2 2.4 1.4.1 2 .4 4.4-1.3 5.4zm10.1 6.2c-.5-2.6.7-4.8 1.2-7.2-1.4.2-3.6-2.6-4.6 0-.7 3.1-4.1 5.3-4.6 8.6l-.2-.5c-.2-4.8.5-9.1 2.6-13 1.9-2.4 5-4.1 7.9-2.6-.2.7-1 1.2-1.4 1.9 1.4.7 3.1 2.2 3.6 3.8.3 3.7-2.4 6.4-4.5 9zm14.4-7.9c-1.9-3.1-1.7-7.9-6-9.4-2.4-.7-4.8-2.9-7.4-2.2-.2-1.4 1-2.6 1.9-3.4 1.4-.7 2.4 1.2 4.1.7.5 2.2 4.3 1.2 3.8 3.8-.2.7-.7 1.2-.5 1.9 1.2.7 2.9 0 4.1 1.2 1.9 2.3.7 5 0 7.4zm13.6-52.3l3.4 1.2 1 5c-2.2-1.4-3.9-3.6-4.4-6.2zm1.5 23.2c1.4-2.4 4.1-4.3 4.8-7 1.2-1 3.1-.5 4.3-.7-.7 3.1-3.4 6.2-7 7l-2.1.7zm7.4-19.4c1.4-.7 2.6-1.9 3.6-3.1 0 2.6 0 6-2.6 7.4-.5-1.4-.8-2.9-1-4.3zm1.4 23.5c.5 1 .7 1.9 1 2.9-1.2.7-2.9 1-4.3.5l-2.4-2.9c1.7-.2 4.1.2 5.7-.5zm-1.6 37.5c-.5-3.4-4.2-5.7-3.1-9.6 1.3-1 3.4-1 3.9-3.1-.3-.8-1.6-1.8-2.6-1.3 0 .3-.3 0-.5 0-.5-3.7 3.4-2.9 5.2-3.9 0 2.6-.8 5.2-.8 7.6.5 3.4 1 7.3 2.9 10.4h-5v-.1zm5.5-76.6c-.2 1.4-1 3.1-1 4.6-1.2.5-2.4.7-3.6.7-.2-1.7-1-3.1-1-4.8l-.2-.2c-.7.5-.7 1.4-.7 2.2l-1.4 2.6c-1.2-.5-2.6 0-3.4-1.4-.2-1.2.5-2.6-.2-3.8l-2.2 1.9c-1.4-1.7-1.9-4.1-1.7-6.5 6-2.6 15.1-2.9 20.6.7-.5 2.6-1.2 5.3-3.4 7-.4-1.3-1.1-2.3-1.8-3zm1.9 25.2c-.2-.5-.7-1-.5-1.7l5.8 1.2c1.2 1.4 3.1 3.1 4.6 4.8-1.2.7-2.6 1.4-4.3 1-2.7-1-3-4.3-5.6-5.3zm4.1 11.5l1.9 4.3c-.7.5-1.7 0-2.4-.5-1.4-.7-2.6-1.9-2.4-3.6 1-.2 1.9.1 2.9-.2zm9.1 31.3l-2.9 8.6h-3.7l1.6-10.7c.8-.8 1-2.1 2.1-2.3 1 0 1.8.5 2.6.8 1.1.8.6 2.6.3 3.6zm21.8-4.6c-1-1.9-1.7-4.8-4.3-5.5-.7-1-.7-2.4-1.9-3.4-1.2 0-2.6-.7-3.6-.2.7 1.4 2.6 2.2 1.9 3.8 1.2 1 2.9 1.4 3.4 2.9v3.4l-2.4 1.4c-.2-2.4.2-5.8-2.2-7.2-3.1.2-2.9-3.6-5.3-4.6-1.9 1.2-4.8.5-6.7 1.4.5-1.2.5-2.9 1.9-3.1 1.9-1.4 5-.5 7.2-1.9 3.1 1 6 2.6 9.1 3.4 2.6 1 .7 5 3.8 4.8l.5.5c-.4 1.4-.6 2.8-1.4 4.3zm5.3-4.8c-.2-1.4-3.4-2.6-1.7-4.6 0-3.4-1.7-6.2-2.2-9.4 5 1.9 3.6 7.4 4.3 11.8.1.7.1 1.4-.4 2.2zm-3.1-48.5l2.6-1.4 3.4 2.4c-1.9.7-4.8.4-6-1zm25.7 6.2c2.2 1.2 1.9 3.6 1.9 5.8-3.1-2.4-5.5-6-7.9-8.6 2.4-.3 3.6 2.3 6 2.8zm-6 4.8c.2 2.2 3.1 1.4 3.6 3.8.5 1.4 1.7 2.4 1.7 3.8-.7.7-2.2.5-1.9 1.9 1 .7 2.4 1.2 2.9 2.4 0 2.6-.2 4.8-.7 7.4-.7 0-.7-.7-1-1-.7-6.5-3.8-11.8-6.2-17.5l-3.1-2.6c1.8-.1 4.2-.1 4.7 1.8zm.2 27.4l-.7.7c0-1.9 1-4.3-.7-5.5-.5 0-1.2 0-1.2-.5 0-2.6.7-4.8-1.2-6.7-.2-2.2 2.4-2.4 3.4-3.6 1 1 .5 2.9.7 4.3.5 1.7 1.2 3.8.2 5.5.5.7 1.2.7 1.9.5 0 1.7-1.4 3.6-2.4 5.3zm-11.7-31c1.4 1 2.6 2.4 2.6 3.8-.2.7-.7 2.2-1.4 1.9-2-1.4-1.5-3.8-1.2-5.7zm3.8 27.9c-.2-1.9-1-3.8-2.2-5.3.5-.7 1-1.4.2-2.2-.8-.8-1.9-.7-1.9-1.9-.5-1.9 1.4-2.9 1.9-4.3 1 .2 1 1.4 1.2 2.2 1.2 1.9-1.4 4.6 1.9 5.3.3 2.1-.6 4-1.1 6.2zm18.7-9.2c-1-2.4-2.4-4.6-3.6-7 1.2-1.2 3.4-.5 3.8 1.2.8 2-.2 4.2-.2 5.8zm18-4.5c-2.2-.5-4.6-.2-6.2.7-1.2-.5-1.4-1.9-1.9-3.1 2.4-.7 5.3-1.9 7.9-1 1.2.2 2.2.7 2.4 1.9 1.9 1.2 2.9 3.1 2.6 5l-3.6-1.9c.2-.9-.5-1.6-1.2-1.6zm-.2-17.3l.2.2c1.4-.2 2.4-1.9 4.1-1 1.7 1 3.4 2.9 3.6 4.8-3.4-1.7-7-2.4-10.6-3.1-1.9.2-3.4 1.9-5.5 2.2-.7.7-1.4 1.2-2.4 1.7-1-1-.7-2.6-.7-4.1 1.4 0 2.6-1.2 3.8-1.7 2.9 1.5 6.7-3.8 7.5 1zm-12-13.4c.7-1.2 1.9-2.4 3.4-2.4.7-.2 1.7-.2 1.9.5-.2.7.7 1.2 1.4 1.4 2.6-1 3.6 1.4 4.3 3.1v.2c-3.4-.7-8.2-2.4-11.3-.2-.5-.5 0-1.9.3-2.6zm12.9 50.8c-1-.5-1.9-1.2-2.9-1.9 0-.5.2-1.4-.2-1.9-1.7-1.9-4.6-.2-6.7-.7-.7-1.2.5-1.9 1-2.9 1.4-.5 2.6-1.4 4.3-.7 1.4.2 2.4 1.7 3.8 1.7 2.2 1.6 1.4 4.5.7 6.4zm7.9 8.9l-.5.5c-.7-2.2-2.4-3.8-3.6-5.8l1.4-2.9c1.2.7 1.9 1.9 2.6 2.9 0 1-.7 1.4-.5 2.4 1.6.8 1.4 2 .6 2.9zm2.4-7.4c-.7-.7-2.4-2.2-2.2-3.6.5-1.2 1.7-5 2.9-1.9.3 1.6.3 3.8-.7 5.5z"/><path d="M197.7 175.3c2.2-2.2 4.6-3.4 7.2-4.6-.5-3.8-5-4.3-7.9-5.8-2.9.7-3.6 3.6-4.3 6-1 3.7 3.3 3 5 4.4zm38.6 2.7c.7-1.7 2.6-.7 3.6-1.7 0-1.9.5-4.3 0-6.2l-.7-1.4c-2.2-1.4-4.8-4.1-7.4-1.9-1.7.7-2.2 2.4-2.6 3.8 2.8 1.6 5.9 4.3 7.1 7.4zm-13.5.7c1.2-.5 2.6 0 3.6-.4 0-.2-.2-.7-.5-1-1.2-.3-1.6-1.7-2.6-2.4l-2.6-.3c-.5.2-1 0-.7.7 2.1 0 1.6 2.4 2.8 3.4zm-9.6-3.6c-2.9.2-5.8 1-7.2 3.6h4.6l2.6-3.6zm-4.5 7v.5h-9.4l-.5.2.7.7c1.9.5 2.2 2.6 3.8 3.6 1.2 0 2.9.2 3.8-.7.5 1.9.7 4.3 0 6.2-1.2 1.9-3.1 1.7-4.6 3.4-.5 1-.7 2.4-.2 3.4 1.2-.2 2.4-1.2 3.6-1.7.2-1.7 1.7-2.4 2.9-3.1.2-3.6 1.2-7 1.4-10.6.2-1-.8-1.5-1.5-1.9zm12.5 2.1l.7 9.6 2.4 1.9c.5 2.4 3.6 2.2 5 4.1.5-1 1.4-1.7 1.7-2.9-1.9-1.2-5-1-5.3-3.8-3.6-.7-1.4-4.8-2.6-7.2 1-.7 1 .7 1.7 1 1.4.2 3.1.7 4.6-.5.2-2.4 3.1-1.9 3.8-3.8-4.1.4-8.9-2-12 1.6zm-17.8 19.5c-.2.5-.5 1.4 0 1.9 1.4-.2 2.6-1 3.8-1.7-1.4-.5-2.4.2-3.8-.2zm20.6.9c1.2.7 2.9 1.4 3.8 1.7l.2-1.9h-3.8l-.2.2z"/></g><path fill="#202B53" d="M368.3 313c0-2 1.5-3.5 3.4-3.5s3.4 1.5 3.4 3.5-1.5 3.6-3.4 3.6-3.4-1.5-3.4-3.6zm-.8 0c0 2.4 1.9 4.2 4.2 4.2 2.3 0 4.2-1.8 4.2-4.2s-1.9-4.2-4.2-4.2c-2.3.1-4.2 1.9-4.2 4.2zm2.6 2.5h.8v-2.1h.8l1.3 2.1h.8l-1.4-2.2c.7-.1 1.3-.4 1.3-1.3s-.5-1.4-1.7-1.4h-1.9v4.9zm.8-4.3h1c.5 0 1.1.1 1.1.7 0 .8-.6.8-1.3.8h-.8v-1.5z"/></svg>