<svg version="1.1" id="Layer_1" xmlns="http://www.w3.org/2000/svg" x="0" y="0" viewBox="0 0 512 512" xml:space="preserve"><style>.st0{fill:#08b53d}</style><path class="st0" d="M437.8 254c-9-36.5-30.7-61.2-67.5-71.3-4.2-1.2-8.7-1.4-13.1-2-1.4-.2-2.7-.3-4.1-.4-.7-5.3-1.1-10.5-2.2-15.6-6.5-28.9-24-49.1-50.2-62.2-10.4-5.2-21.5-8.2-33.2-9-.8-.1-1.5-.4-2.2-.5h-10.4c-4.7.7-9.5 1.1-14.1 2.3-37.3 9.4-62.2 31.7-71.6 69.7-1.2 4.8-1.4 9.9-2.1 15.3-2.8.3-5.8.4-8.8.9-26.8 3.7-47.1 17.6-62.1 39.7-9.1 13.5-14.3 28.4-15.6 44.7-.1.8-.4 1.5-.5 2.2v10.4c.2 1.8.5 3.6.7 5.4 2.8 22.8 12.1 42.4 29 57.9 26.3 24.3 57.1 31.3 91.6 22.1 1.6-.4 2.5-1.1 2.8-2.9 1.1-9.1 1-18.2-1.2-27.2-1.3-5.3-3.3-10.5-5-15.9-1.1.5-1.5.6-1.9.8-9.4 4.5-19.2 5.7-29.5 4.1-36.9-5.7-54.7-50.2-31.7-79.8 13.7-17.6 32.2-22.2 53.3-18.6 10.9 1.9 21.1 6.2 31.3 10.4 1 .4 1.9.8 3.1 1.3-2.9-7.7-5.7-14.9-8.3-22.3-3.7-10.6-5.3-21.6-3.8-32.8 3.8-29.4 33.5-49.1 62.2-41.5 22.1 5.8 41.5 27.5 36.8 58.9-1.3 8.9-4.2 17.3-7.4 25.7-1.5 3.9-3.1 7.8-4.7 11.8 7.6-2.8 14.9-5.7 22.4-8.3 11.8-4.1 23.9-5.8 36.1-3.1 26.5 5.8 43 30.1 38.9 57.1-4.1 27.3-31.8 46.7-58.8 41-4.5-1-8.9-2.6-13.5-4-.1.2-.4.7-.6 1.1-5.8 13.2-7.6 27-5.8 41.3.2 1.9 1.4 2.5 3 3 14.6 4.2 29.4 4.9 44.3 2.2 36.8-6.8 67.4-36.8 74.5-73.5.9-4.7 1.5-9.4 2.2-14.1v-10.4c-.8-4.7-1.2-9.4-2.3-13.9z"/><path class="st0" d="M296.6 351c-.3-32.1 13.6-57.8 39.3-77.8-16.5 0-32.3 0-48.1-.1-2.1 0-3.3.7-4.4 2.4-14.2 20.9-21.8 43.9-22.8 69.1-.1 1.6 0 3.2 0 4.8h-.8c-.3-4.2-.5-8.4-.9-12.5-2.1-22.4-9.6-42.9-22.4-61.5-1.1-1.6-2.3-2.2-4.3-2.2-15.1.1-30.3 0-45.4 0-.7 0-1.5.1-2.7.1 16.8 12.7 28.5 28.5 34.8 48.2 6.3 19.7 6.1 39.5-.4 59.1-6.6 19.6-18.4 35.3-35.2 47.3h153.4c-25.9-19.1-39.8-44.8-40.1-76.9z"/></svg>