<svg id="Layer_1" xmlns="http://www.w3.org/2000/svg" viewBox="0 0 512 512"><style>.st0{fill:#033c5a}</style><path class="st0" d="M150 183.6c-9.3-40.1.7-74.4 32.4-101 38.9-32.5 95.7-29.5 131.9 6.2 14.5 14.3 28.9 28.7 43.4 42.9 2.7 2.7 5.8 4.9 8.6 7.4 16 14.1 33.5 14.4 52 5.7 16.5-7.8 29.4-20.1 42.3-32.5 10-9.6 21.6-15.9 35.3-18.5 3.4-.6 16.6-.5 17.1 3.2 0 8-1 20.4-1 29 0 31.4-.2 60.6 0 92 0 4.3-9.3 4.4-13.9 3.7-15-2.4-27.6-9-38.4-19.7-10.9-10.9-21.9-21.7-35.2-29.8-22-13.5-41.1-12.2-60.8 4.4-16.3 13.8-30.2 30.1-45 45.3-28.7 29.4-62.8 39.1-102.6 28.8.3-12-1.9-23.8-3.5-35.6 9.2 4.4 18.7 7.2 29 7.5 35.4 1.1 64.9-23.7 69.5-58.5 4.4-33-18.2-65.4-51.1-73-33.9-7.9-68.3 10.8-79.5 43.3-6.1 17.8-4.2 35.2 3.6 52.1-11.3-1.4-22.6-2.7-34.1-2.9z"/><path d="M150 183.6c11.5.3 22.8 1.5 34.2 3 5 1.2 10.1 1.8 15.2 1.7 8.4-.1 11.8-3.4 11.8-11.7 0-7.4-.5-14.8-.3-22.2.7-18.1 15.9-32.4 34-32.1 18.3.3 32.7 14.9 32.7 33.2 0 18.5-14.5 33.5-32.9 33.7-6.3.1-12.5-.4-18.8-.5-9.1-.2-13.5 3.5-14.5 12.3-.5 4.8.5 9.4 1.3 14.1 1.6 11.8 3.8 23.6 3.5 35.6-1.9 19.9-9.3 37.1-24.5 50.5-19.2 17-48.8 21.1-71.5 9.8-25-12.4-39.4-37-37.3-63.8 2.6-33.7 27.8-59.5 61.4-62.8 2-.2 3.8-.5 5.7-.8z" fill="#fcc503"/><path class="st0" d="M350.5 383c11.6-7 23-7.7 34.2-.8 13.2 8 18.2 28.2 11.3 44.4-6 14-20.5 21.1-35.7 17.2-2.2-.6-4.2-1.8-6.3-2.5-1.7-.6-4.1-5-5.2.9-.3 1.4-3.8.5-5.9.5-13.2.1-13.2 0-13.2-13.1V360c0-8 .2-8.1 7.9-8.1 13 0 13 0 13 12.9-.1 5.9-.1 11.8-.1 18.2zm-1.8 27.7c.1 10 6.4 16.9 15.4 16.7 8.5-.2 14.5-7.4 14.4-17.1-.1-9.8-6.1-16.6-14.8-16.7-8.9 0-15 7-15 17.1zm-164.3-30.9c-6.7 6.2-13.2 12.5-20.1 18.5-3.5 3-3.2 5.4-.8 8.9 6.5 9.6 12.6 19.5 18.8 29.3 1.2 1.9 2.3 3.8 3.7 6.3h-21.1c-2.9 0-4.4-1.7-5.8-3.9-3.3-5.1-6.4-10.3-9.9-15.3-1.1-1.6-1.5-5.4-4.1-4.2-2.6 1.2-5.5 3.4-5.2 7.5.2 4-.1 8 .1 12 .1 2.8-.5 4.2-3.7 4-4.2-.2-8.4-.2-12.6 0-3.4.1-4.9-1.2-4.9-4.6v-80.5c0-4.2 2.1-5.8 6.5-5.9 14.6 0 14.6-.2 14.6 14.3v28.5c0 1.2-.6 2.7 1.2 4 4.8-5.2 9.8-10.3 14.4-15.8 3.1-3.6 6.5-5.4 11.3-5.1 5.3.3 10.6.1 15.9.1.6.6 1.1 1.3 1.7 1.9z"/><path d="M406.9 206.3c18.4.1 33.5 15.2 33.4 33.3-.2 18.5-15.4 33-34.4 32.9-18.2-.1-32.9-14.9-32.9-33-.1-18.7 14.9-33.3 33.9-33.2z" fill="#39b14a"/><path class="st0" d="M300.3 437.2c-8.2 7.4-17.1 9.3-27 6.5-9.8-2.8-15.4-9.9-15.3-19.4 0-9 5.2-15.3 15.1-18.2 7.4-2.1 15.1-2.1 22.6-2.1 3.8 0 4-1.7 3.3-4.6-1.1-4.5-4.3-6.5-8.6-7.1-7-1-13.7.2-19.9 3.4-3 1.6-4.4 1.3-5.7-2-4.1-10.1-4-10.7 6.5-13.7 9.4-2.7 19-3.5 28.8-1.6 13 2.7 20.8 11.1 21.4 24.4.5 12.1.1 24.3.3 36.5 0 3-1.2 3.5-3.8 3.4-3.8-.1-7.6-.3-11.4 0-3.8.5-6.2-.6-6.3-5.5zm.3-16.9c-1.3-.9 2.4-4.9-1.9-5-4.9-.2-9.9-.3-14.5 1.6-5.2 2.2-6.4 8.4-2.3 12 3.8 3.4 8.3 3.3 12.8 1.6 4.2-1.6 7-4.3 5.9-10.2zm-90.7-34.2c6.2-7.4 13.9-10 23-8.8 9.9 1.3 15.9 6.5 18.2 16.1 2 8.3 1 16.7 1.2 25 .1 6.8-.1 13.7.1 20.5.1 2.8-.5 4.1-3.7 3.9-4-.3-8-.3-12 0-4.1.3-5.3-1.5-5.2-5.3.2-10.3.2-20.5-.1-30.8-.2-8.1-3.6-11.9-9.9-12-6.4-.2-10.6 3.5-11.7 10.8-1.5 10.6-.7 21.3-.5 31.9.1 4.6-1.3 5.6-5.7 5.5-15.3-.2-15.3 0-15.3-15.3 0-14.3.1-28.5-.1-42.8 0-4.9 1.5-7.7 7-7 1.7.2 3.4 0 5.1 0 8.3 0 8.3 0 9.6 8.3z"/><path d="M92.5 153.7c0-9.3 7.3-16.6 16.6-16.7 9.7-.1 17.1 7.2 17.2 16.8.1 9.3-7.8 17-17.2 16.8-9.3-.2-16.6-7.7-16.6-16.9z" fill="#ff00c3"/></svg>