<svg xmlns="http://www.w3.org/2000/svg" viewBox="0 0 512 512"><path d="M35.9 335.6V187.4h65.4c-6.4 42.1-12.7 84.1-19.1 126.3h67.3V187.4H214c-3 19.8-6 39.4-9 59.2h50c3.1-19.7 6.1-39.4 9.2-59.6h4.5c32.4.1 64.8.2 97.1.1 3.1 0 4.5.9 5.6 3.8 10 27 20.2 54 30.4 81 .3.7.6 1.3 1.1 2.5 4.3-10.1 8.4-19.7 12.6-29.3 7.9-18.3 15.9-36.5 23.7-54.8 1.1-2.5 2.3-3.3 5-3.2 10.7.1 21.4.1 32.7.1-.7 1.7-1.1 2.9-1.7 4-21.4 46.9-42.8 93.9-64.2 140.9-1.2 2.6-2.5 3.7-5.5 3.6-13-.2-25.9-.2-38.9 0-2.9 0-4.3-.7-5.3-3.6-14.5-39.8-29.1-79.6-43.7-119.4-.4-1-.8-2-2-3.1-7.1 41.9-14.2 83.9-21.3 125.9h-52.7c3.4-22.4 6.7-44.6 10-66.9h-50.2c-1.2 7.9-2.4 15.8-3.6 23.6-2 13.7-4 27.3-6.1 41-.2 1-1.6 1.9-2.7 2.5-.7.4-1.7.1-2.6.1H40.7c-1.3-.2-2.8-.2-4.8-.2z"/></svg>