<svg xmlns="http://www.w3.org/2000/svg" viewBox="0 0 84 44"><defs><style>.cls-2{fill:#fff}</style><linearGradient id="linear-gradient" x1=".5" y1="1" x2=".5" gradientUnits="objectBoundingBox"><stop offset="0" stop-color="#262626"/><stop offset="1"/></linearGradient><radialGradient id="radial-gradient" cx=".945" cy="-.266" fx=".749" fy="-.316" r="16.702" gradientUnits="userSpaceOnUse"><stop offset="0" stop-color="red"/><stop offset=".495" stop-color="#e83e49"/><stop offset="1" stop-color="#f0f"/></radialGradient></defs><g id="blik_logo"><g id="Group_6548" data-name="Group 6548"><path id="Path_9813" data-name="Path 9813" d="M77.267 44.333H6.994A7 7 0 0 1 0 37.339V6.994A7 7 0 0 1 6.994 0h70.273a7 7 0 0 1 6.994 6.994v30.345a7 7 0 0 1-6.994 6.994z" fill="url(#linear-gradient)"/><path id="Rectangle_3943" data-name="Rectangle 3943" class="cls-2" transform="translate(34.696 6.636)" d="M0 0h5.728v32.025H0z"/><path id="Rectangle_3944" data-name="Rectangle 3944" class="cls-2" transform="translate(45.297 17.43)" d="M0 0h5.728v21.203H0z"/><path id="Path_9814" data-name="Path 9814" class="cls-2" d="M223.735 56.1l-8.591-11.21 7.9-10H216.3l-7.572 9.693V24.1H203v32h5.728V45.22L216.3 56.1z" transform="translate(-147.101 -17.464)"/><path id="Path_9815" data-name="Path 9815" class="cls-2" d="M44.622 34.674a10.711 10.711 0 0 0-5.122 1.294V24.1h-5.7v21.423a10.849 10.849 0 1 0 10.822-10.849zm0 15.971a5.122 5.122 0 1 1 5.122-5.122 5.112 5.112 0 0 1-5.122 5.122z" transform="translate(-24.493 -17.464)"/><circle id="Ellipse_15886" data-name="Ellipse 15886" cx="5.094" cy="5.094" r="5.094" transform="translate(20.625 5.039)" fill="url(#radial-gradient)"/></g><path id="Rectangle_3949" data-name="Rectangle 3949" transform="translate(1285 3224)" fill="none" d="M0 0h200v115H0z"/></g></svg>