<svg version="1.1" id="Layer_1" xmlns="http://www.w3.org/2000/svg" x="0" y="0" viewBox="0 0 512 512" xml:space="preserve"><style>.st0{fill:#fff}</style><path class="st0" d="M120 87.9h277.7V435H120V87.9z"/><path d="M337 291.6c3.6 0 6.7-.7 9.7-2.6 4.9-3.1 7-9.5 7-18.4 0-12.5-4.2-20.6-12.5-20.6-5.9 0-7.4 1.8-7.4 5.8v33.7c0 1.8.7 2.1 3.2 2.1zm4 4.6c-6.5 0-7 .3-7.1 1.6v38.5c0 6.7 1.8 10.7 8.2 10.7 5.7 0 10-3 12.5-9.1 2-4.3 2.9-10 2.9-17.3 0-6.3-1.2-11.5-3.2-15.6-2.8-5.5-7.4-8.8-13.3-8.8zM120 87.9v277.7h118c6.8 0 8.6-1.8 8.6-12.2V244.3c0-8.3-.8-10.1-3.6-11-4.5-1.4-7-.9-7-3.9 0-1.4 1.1-2.5 3-2.5 2.6 0 8.3.9 14.5.9 4.9 0 9.4-.9 13.2-.9 2.3 0 3 .9 3 2.8 0 3.2-1.5 2.1-6.6 3.7-2.8.9-4.1 3.2-4.1 7.4V284c0 6.7.2 7.4.6 7.4.4 0 1.7-2.1 3.6-5.1 3.6-5.5 17-25 24.1-37.7 2.8-5.1 4.7-9 4.7-10.6 0-3-1.5-4.4-5.3-5.3-3.2-.7-4.7-1.1-4.7-3.2 0-1.4 1.1-2.5 3.6-2.5 3.2 0 8.9.9 13.4.9 5.3 0 10.2-.9 12.4-.9 3 0 4 .9 4 2.5 0 2.8-1.7 2.1-5.5 3-3.4.9-8.1 5.5-14.7 14.5-6.4 8.7-12.6 17.7-18.1 27.3-2.6 4.6-2.8 5.5-2.8 6.4 0 .9.4 1.8 2.4 6.7 3 6.9 9.2 21.6 23.2 55.6 2.1 5.2 3.8 9.2 5.2 12.3 4.2 9.5 8.2 10.5 11.9 10.5h80.6V87.9H120zm102.1 263.8c-2.2 0-5-.7-11-.7-5 0-9.1.7-11.3.7-1.9 0-3.1-.7-3.1-2.1v-.2c0-1.8 1.4-2.3 4.7-3 3.6-.5 3.9-2.3 3.9-9.9 0-17.3-1.2-51-1.7-68.1-.1-2.5-.3-3.3-.6-3.3-.5 0-.6.8-1 2.1-1.3 4.4-4.2 18.4-14.4 62-4.2 18.1-3.7 21.7-6.3 21.7-1.3 0-1.8-1.3-3.2-9.2-3.6-19.4-14-64.7-16.2-74.7-.3-1.3-.5-2-1.2-2-.6 0-.6 1.3-.9 3.6-.9 14-1.3 40.3-1.3 54.5 0 11-.6 22.2 3.2 23.2 2.3.7 6 .7 6 3 0 1.3-.6 2.3-2.4 2.3-2.3 0-3.9-.7-9-.7-4.6 0-6.7.7-8.2.7-1.2 0-2.1-.2-2.1-2.3 0-2.3 2.1-2.1 4.2-2.8 3.1-1.2 3.6-4.9 4-12.8.6-16.3 1.9-56 1.9-69.6 0-9.1 0-10.9-3.9-11.7-2.3-.5-4.5-.8-4.5-2.6 0-2.3 1.8-2.5 3.2-2.5 2.8 0 6.3.5 9.1.5 2.1 0 5.3-.5 7.1-.5 1.5 0 1.9.2 2.6 2.6 4.5 20.1 8.9 40.3 13.4 60.4 1 4.9 1.4 8.2 2.4 8.2.9 0 1.3-1.5 2.3-6.3 4.5-20.1 9-40.2 13.6-60.1.6-3.6 1.4-4.9 2.7-4.9 1.8 0 5 .5 7.3.5 2.6 0 6.4-.5 8.9-.5 1.2 0 2.3.7 2.3 2.3 0 1.8-1.5 2.5-5.3 3-1.7.2-2.6 2.5-2.6 9.2 0 15 1.8 57.1 2.2 76.9.1 4.9 1.2 7.2 3 7.7 3.6 1.2 5 1.3 5 3.1.1 1.9-1 2.3-2.8 2.3zm142.2-7.9c-4.1 4.9-10 7.9-17.9 7.9-5.4 0-10.7-.7-15.9-.7-4.9 0-10.4.7-12.8.7-2 0-3-.7-3-2.5s2.4-2.1 3.9-2.8c2.5-.8 3.2-2.3 3.2-6.1v-80c0-5.1-1.6-6.9-5.5-7.1-1.1 0-1.8 0-2.2-.5-.4-.2-.5-.5-.5-1.2 0-1.6 2.4-2.6 5.4-3.5 6.2-2 12.6-2.8 19.1-2.8 10 0 16.3 2.1 20.9 5.8 5.7 4.4 7.8 11.4 7.8 18.8 0 12.2-7.1 19.4-15.9 22.7v.5c2 .5 4.1 1.2 5.9 2 8 3.8 14.1 12 14.1 26.5-.2 8.9-2.3 16.7-6.6 22.3zm-76.2 1.8c-6.2-14.7-12.2-29.4-18.5-44.3-1.7-4.1-3.2-7.4-4.1-7.4-1.5 0-6.4 6.7-6.4 10.3v49.2c0 10.8 3 12.1 7.4 12.1H288c4.5 0 6.2-4.8 3.9-10.9-.9-2-2.1-4.8-3.8-9z" fill="#c00a26"/><path fill="#1d1d1b" d="M120 372.5h277.7V435H120v-62.5z"/><path class="st0" d="M154.8 388.6c1.8-.4 5.1-.7 8.3-.7 4.2 0 6.8.6 8.9 2 1.9 1.2 3.2 3.2 3.2 5.9 0 2.9-1.8 5.5-5.2 6.7v.1c3.3.8 6.3 3.4 6.3 7.7 0 2.8-1.2 5-3 6.4-2.2 1.9-5.9 2.9-11.6 2.9-3.1 0-5.5-.2-7-.4v-30.6h.1zm5.6 12.4h2.9c4 0 6.2-1.9 6.2-4.5 0-3-2.2-4.3-5.8-4.3-1.7 0-2.6.1-3.2.2v8.6h-.1zm0 14.3c.7.1 1.7.1 3 .1 3.7 0 6.9-1.3 6.9-5.2 0-3.6-3.2-5.1-7.1-5.1h-2.8v10.2zm60.3-4.8l-2.7 8.8h-5.9l10-31.2h7.3l10.1 31.2h-6.1l-2.8-8.8h-9.9zm8.9-4.3l-2.5-7.7c-.6-1.9-1.1-4-1.6-5.8h-.1c-.5 1.8-.9 4-1.5 5.8l-2.4 7.7h8.1zm47.6 13.2v-31.2h6.5l8.1 13.4c2 3.5 3.9 7.1 5.3 10.5h.1c-.4-4.1-.5-8.1-.5-12.9v-10.9h5.3v31.2h-5.9l-8.1-13.7c-2-3.4-4-7.2-5.6-10.7h-.2c.2 4 .3 8.1.3 13.3v11.2h-5.3v-.2zm65.4-31.2h5.6v14.3h.1c.7-1.2 1.5-2.3 2.3-3.4l8.2-11h7l-10.7 13.3 11.4 17.9h-6.7L351 405l-2.8 3.3v11h-5.6v-31.1z"/></svg>