<svg xmlns="http://www.w3.org/2000/svg" viewBox="0 0 512 512"><path d="M318.9 359.6h59.2V164H324v121.8l-15.7-15.4v-97.1c-.3-57.1 6.5-84.1 6.5-84.1-18.4 0-27.9 17.4-30 22.5-10.3 1.1-18.8 7.1-24.4 18.6-3.2 6.5-4.8 12.9-5.4 16-21.7 5-23.6 43.7-22.2 50.6L199.1 164H140v195.6h54.2V241.4l26.2 24.8c2.4 7.1 4.7 10 4.7 10l-10.3-8.8c-1.9 19.2 3.5 29 8.5 36.3L210.8 293c-1 19 8.2 30.7 13.9 35.8l-16.5-8.1c-1.1 11.4 10.3 28.1 16.9 31.3l-14-2.1c3 15.7 14 21.4 14 21.4s-23.8-.5-34.8-.5c-30.5 0-50.5 2.9-50.5 2.9s13.5 13.4 30.8 14l-15.4 9.5c11.2 3.6 21.8 2.4 21.8 2.4l-8.9 10.6s27.9-10.7 39.7-9.9c9.4.6 53.2 17.7 82.6 17.7 19.7 0 34-7.6 45.5-13.6 7-3.7 13.1-6.7 19-7.6 10.7-1.6 15.5 2.2 15.5 2.2 1.1-4.5 4.4-15.8-12.9-18.6-.7-3.1-3.7-7.1-8.1-7.8-9.3-1.4-48.4-4.4-49.5-4.5-3.4-.2-14.6-2.4-4.3-17.2.8-1.1 6-7.7 6-7.7l17.3 16.4zm-1.4 14.6c12.8 1 22 1.8 31.1 3 3.5.4 4.8 4.4 5.3 6.3-4.4-1.1-11.3-1.4-11.3-1.4l-.4 4.2s5.9-1.7 12.4-1.8c0 0 13.3-.1 12.7 8.9-3.6-2.5-11.1-1.5-13.2-1.2-6.7 1.1-13 4.2-20.4 8.1-6.7 3.6-14 7.4-22.5 10 3.7-3.6 13.5-14.4 13.5-14.4l-13-4.5 10.7-9.3-16.4-8.9c4.1.3 7.9.7 11.5 1zm-18.9-35.1c-6 7-13.9 16.9-12.2 24.2 1.3 6 9.7 9.7 9.7 9.7l18.2 9.9-11.8 10.3 14.2 4.5s-13 13.3-14.5 14.7c-3.7.6-7.7 1-11.9 1-30.1 0-72-17.8-82.4-17.9-12.5-.2-28.2 7.1-28.2 7.1l8.2-8.9s-10.7 2.2-21.1 1.3l14.7-10c-12.9-.4-24.2-4.3-29.5-8 0 0 23.7-1.9 55.9-1.5 13 .1 35.1 1.4 35.1 1.4-10.9-4.6-21.1-10.7-25.5-21.5l20.8 3.1c-8.7-5.3-21.4-18.7-23.7-29.1l23.2 8.1c-4.1-4.5-18.5-17.9-21-33.5l18.3 11.5c-4.8-4.8-17.8-30.6-15.6-38.1l17.1 11.5c-8.2-10.1-17.8-37-11.2-47.4 5.2 20.2 16.8 27.6 16.8 27.6-7.6-11-24-50-8.3-67.2 4.1 38.9 20.6 52 20.6 52-13.7-21.8-29.3-88.8-.2-102.3-5.7 43 8 66.4 8 66.4-8.7-39.6-8.4-95.8 21.1-100.9-14.5 42.3-4.2 75-4.2 75C277 93.3 308.9 95 308.9 95s-5.2 28.1-5.2 78.2v144.7c0 10-.9 16-5.1 21.2z" fill="#0c57a5"/></svg>