<svg xmlns="http://www.w3.org/2000/svg" viewBox="0 0 512 512"><path d="M315.8 221c.2 1.2.7 2.4.7 3.7-.1 26.3-.2 52.5-.4 78.8 0 .8-.2 1.6-.2 2.6h-12.1c-.2-2.4-.3-4.5-.6-7.8-5.1 6.9-12.2 8-18.9 9.8h-1.7c-2.3-.4-4.7-.8-7-1.3-14-3.5-22.7-12.4-25.9-26.4-2.9-13.1 2.8-26.9 14.4-34.4 12-7.8 24.5-8.2 36.9-.5.4.2.7.4 1.1.6.1 0 .3 0 1-.1v-24.8c4.1-.2 8.4-.2 12.7-.2zm-13.6 52.6c0-11-8.6-19.8-19.6-20-10.7-.2-19.8 8.9-19.8 19.8 0 10.6 8.9 19.6 19.5 19.6 11.4 0 19.9-8.3 19.9-19.4zM355 308c-3.3-1.1-6.7-2-9.9-3.5-14.3-6.6-22-22.4-18.6-37.8C330 251 343.1 240.2 359 240c16.1-.2 29.5 10.2 33.4 26.2.3 1.2.5 2.4.8 3.9-16.9 4.7-33.6 9.3-50.9 14 4.2 6.6 9.7 10.2 17 10.5 8.5.3 14.5-3.9 19.1-11.3 4 1.2 8.1 2.5 12.6 3.8-4.9 11-13.1 17.2-24.3 19.9-1.1.3-2.1.6-3.2.9-2.8.1-5.6.1-8.5.1zm21.5-45.7c-4.3-8.4-13-12-21.8-9.5-8.9 2.6-15.5 11.1-14.5 19.4 12-3.3 24-6.5 36.3-9.9zM127 306.6c-4 0-7.9.3-11.6-.1-1.4-.1-2.9-1.6-3.9-2.8-12.5-14.5-25-29.1-37.5-43.6-1.5-1.7-2.9-3.4-5.5-4.9V306h-15v-77.4c4.5 0 9-.3 13.5.2 1.6.2 3.2 2.1 4.4 3.5 12.7 14.9 25.4 29.9 38.1 44.8.8 1 1.7 1.9 3.2 3.5v-51.8H127v77.8zm77.3-32.7c0 18.4-14.9 33.5-33.2 33.5-19.4.1-34.5-14.8-34.5-34.1 0-18.7 15.2-33.6 34.1-33.6 18.6.1 33.6 15.4 33.6 34.2zm-53.2-.5c0 11 8.8 20 19.6 19.9 10.7-.1 19.6-9.1 19.6-19.6 0-10.8-8.9-19.5-20-19.5-10.7-.1-19.2 8.5-19.2 19.2zm62.5 32.6v-64h13.7c.2 2 .3 4 .6 7 4.8-6.6 10.9-9.2 18.5-9.1v12.9c-3 1-6.2 1.6-8.9 3-7.1 3.7-9.5 10.2-9.6 17.7-.2 9.2 0 18.4 0 27.7v4.8h-14.3zm253.1.4H454v-8.8c-3.2 2.5-5.7 5.1-8.7 6.7-15.3 8.2-35.8 0-43.1-17-5.6-12.9-2.7-27.3 7.4-37.7 9.1-9.3 24.3-12.2 36.7-7.1 12.5 5.2 20.4 17.1 20.4 31.2v32.7zM432.5 293c11.3.4 20.2-7.7 20.6-18.8.4-11-8.3-20.2-19.5-20.6-10.5-.4-19.5 8.4-19.9 19.2-.4 10.8 8.1 19.8 18.8 20.2z" fill="#0002a0"/></svg>