<svg id="Layer_1" xmlns="http://www.w3.org/2000/svg" viewBox="0 0 512 512"><style>.st3{fill:#dededf}.st4{fill:#bdbdbe}</style><circle cx="258.5" cy="258.5" r="170.5" fill="#3fb713"/><path fill="#f1f3f7" d="M409 188.3l-150.5-77.4L108 188.3z"/><path fill="#fcfcfd" d="M172.7 172.7l85.8-44.1 85.8 44.1z"/><path class="st3" d="M128.2 188.3h260.6v15.2H128.2zm0 183.3h260.6v15.2H128.2z"/><path class="st4" d="M114.8 386.1h287.4v15.2H114.8zM135 203.8v9.1c0 6.1 5 11.1 11.1 11.1h38.6c6.1 0 11.1-5 11.1-11.1v-9.1H135zm60.8 167.8v-9.1c0-6.1-5-11.1-11.1-11.1h-38.6c-6.1 0-11.1 5-11.1 11.1v9.1h60.8z"/><path class="st3" d="M145.7 224h39.7v127.6h-39.7z"/><path class="st4" d="M228.5 203.8v9.1c0 6.1 5 11.1 11.1 11.1h38.8c6.1 0 11.1-5 11.1-11.1v-9.1h-61zm60.9 167.8v-9.1c0-6.1-5-11.1-11.1-11.1h-38.8c-6.1 0-11.1 5-11.1 11.1v9.1h61z"/><path class="st3" d="M239 224h39.7v127.6H239z"/><path class="st4" d="M321.8 203.8v9.1c0 6.1 5 11.1 11.1 11.1h38.8c6.1 0 11.1-5 11.1-11.1v-9.1h-61zm60.9 167.8v-9.1c0-6.1-5-11.1-11.1-11.1H333c-6.1 0-11.1 5-11.1 11.1v9.1h60.8z"/><path class="st3" d="M332.5 224h39.7v127.6h-39.7z"/></svg>