<svg xmlns="http://www.w3.org/2000/svg" viewBox="0 0 512 512"><path d="M304.4 276.8c.5.7 1.3 1.3 2.2 1.3 1 0 1.8-.5 2.3-1.2l42-72.7c1.7-3.1 1.8-6.8-.1-10.1L310 123.6c-1.9-3.3-5.6-5.6-9.8-5.6h-3.7c3.4 0 6 2.7 6 6 0 1-.3 1.9-.7 2.7l-37 63.4c-3.1 5.9-3.1 13.2.3 19.3l39.3 67.4zm-67.2-38.2c.4-.8.5-1.7 0-2.6-.5-.8-1.3-1.3-2.2-1.4h-84.1c-3.3.1-6.6 1.8-8.5 4.9l-40.8 70.7c-1.9 3.3-2 7.7 0 11.4l1.9 3c-1.7-2.7-.7-6.4 2.2-8.2.8-.5 1.8-.6 2.7-.6h73.4c6.6-.3 13.1-3.7 16.6-9.8l38.8-67.4zm.7 77c-.9 0-1.8.6-2.3 1.5-.5.8-.5 1.8-.1 2.6l42 72.7c1.8 3 5.1 5.1 8.9 5.1l81.4-.1c3.9 0 7.7-2.2 9.8-5.9l1.9-3c-1.7 2.7-5.4 3.7-8.3 1.9-.8-.5-1.5-1.2-2.1-1.7L332.7 325c-3.5-5.5-10-9.4-17-9.4h-77.8z" fill="#f16560"/><path d="M265 190.2l37-63.4c.4-.8.7-1.7.7-2.7 0-3.3-2.6-6-6-6h-78c-3.7 0-7.1 2-8.7 4.9l-42.1 72.7c-.4.8-.4 1.8 0 2.6.5.8 1.2 1.3 2.1 1.4l78.7-.1c6.9 0 13.1 3.9 16.3 9.4l.3.5c-3.5-6.1-3.4-13.5-.3-19.3zm-83.2 125.6h-73.4c-.9 0-1.9.1-2.7.6-2.9 1.7-3.9 5.5-2.3 8.2l39.2 67.6c1.8 3.3 5.2 5.3 8.4 5.3h84c.9 0 1.8-.6 2.3-1.4.5-.8.5-1.8.1-2.6L198 325.3c-3.4-5.8-3.1-13 0-18.8l.3-.6c-3.4 6.3-9.9 9.6-16.5 9.9zm150.9 9.2l36.5 63.9c.5.5 1.2 1.2 2.1 1.7 2.9 1.8 6.6.8 8.3-1.9l38.9-67.6c1.9-3.3 1.8-7.3.1-10.2l-41.9-72.7c-.5-.7-1.3-1.2-2.3-1.2-1 0-1.8.4-2.3 1.1l-39.4 68.1c-3.4 6.1-9.9 9.3-16.3 9.4h-.7c7.1 0 13.5 3.9 17 9.4z" fill="#e21e2e"/></svg>