<svg id="Layer_1" xmlns="http://www.w3.org/2000/svg" viewBox="0 0 512 512"><style>.st0{fill:#1fca7c}</style><path class="st0" d="M376.3 211.4c1-9.1 5-16.4 13.4-20.6 16.2-8.2 33.8 1.1 36.9 19.9 1.1 6.6 5.2 4.7 8.7 4.6 5.1-.1 2.6-4.1 2.3-6.3-2.8-20.2-22-33-43.8-29.5-18.5 3-31.8 22-29.1 41.1 1.6 11.1 7.1 20.6 10.7 30.9 3.5 9.9 4.5 19.8-.2 29.6-4.1 8.4-16.3 15.5-23.7 13.8-13.3-3-21.4-11.2-23-23.4-1.9-14.3 3.4-24.8 15.6-31.2 1.9-.4 3.8-.8 5.8-1.3 4-.9 2-4.1 2.4-6.3.4-2.5-.5-3.9-3.3-2.8-.4.1-.8.1-1.2.2-5.5.1-10.3 2.1-14.6 5.4-.7.5-1.4 1.1-2.2 1.6-2.1 1-3.9 2.5-4.9 4.7-.4.4-.7.9-1.1 1.3l-.9 1.2c-.3.2-.4.5-.4.8-9 11.6-9 30.6-.1 42.4.1 1 .5 1.8 1.5 2.2.4.4.7.8 1.1 1.3 1.1 2.2 2.7 3.7 4.9 4.7.6.5 1.2.9 1.9 1.4.6.4 1.1.7 1.7 1.1 3.1 2.7 6.9 3.7 10.9 4.4 21.6 3.7 38.6-6.9 43.4-27.4 2.9-12.5-.5-24-5.8-35.2-4.7-9-8.1-18.3-6.9-28.6z"/><path class="st0" d="M474.1 263.1c-.8-15.2-8.7-26.5-23.2-31.8-14.6-5.4-27.4-2.3-38.3 10.1 0-1.8-.2-3.5 0-5.3.6-4.1-.8-5.7-5.1-5.3-3.6.3-6.1-.2-6.1 5.1.3 34.7.2 69.4 0 104.1 0 4.5 1.1 5.8 5.6 5.8s5.6-1.2 5.6-5.7c-.2-25.3-.2-50.6-.1-76 .1-13.5 7.4-23 19.1-25.4 10.6-2.1 21 2 26.7 10.6 6.2 9.4 5.9 24.9-.7 34.6-5.7 8.3-16.1 12.2-26.3 10.2-2-.4-5.2-3.5-6.2 1.1-.8 3.8 0 7.2 4.8 7.9 8.7 1.2 17.1.8 25-3.5 14.7-7.9 20-21 19.2-36.5zm-241.3-14.2c.2-.4.1-.7-.1-1-1.3-9-6.4-14.9-14.9-17.5-14.2-4.2-26.2-.9-34.9 12.3-5-9.2-12.8-13.2-22.2-13.9-9.4-.7-17.3 2.8-23.3 10.3-1.5-2.8.6-5.7-1.6-7.8-2-.1-4-.2-5.9-.4-3.1-.4-4.1.8-4.1 4 .2 20.7.2 41.4.3 62.1v2.3c0 .4.1.8.1 1.2 9 3.2 10.7 2.1 10.7-6.4 0-12.4-.1-24.7 0-37.1.1-11.3 8.3-18.7 20.3-18.8 11-.1 16.4 5.7 16.8 17.8.1 1.8 0 3.6 0 5.4v35.9c0 1.6-.9 4.2 1.8 4.2 3 .1 6.2 1.3 9-1 .1-15.4.1-30.9.2-46.3 1.2-2.9 1.8-6 3.9-8.5 5.7-6.9 13.2-8.4 21.4-7.1 8.9 1.3 11.1 8.4 12.5 15.9v46.1c8.1 3.4 10.8 1.9 10.8-5.9 0-1.8.1-3.6 0-5.3-.4-13.6 1.1-27.1-.8-40.5zm71.7 4.6c-.1-10-4.3-17.7-13.9-21.7-10.2-4.3-20.6-4.1-30.7.5-4.9 2.2-8.5 5.9-10.6 10.9-.4 1-1.8 3.3.2 3.4 3.5.2 8 2.2 10.5-1.4 5.8-8.2 14-7.5 22.1-6.1 7.1 1.2 10.8 6.3 11.1 13.5.2 6.3-1.5 8.2-7.9 8.5-7.5.3-15.1-.7-22.6.8-10.1 2.1-16.5 8.6-17.3 17.9-.9 9.8 4.4 18.6 14 21.9 12.2 4.2 23.5 2.7 33.1-7.4.5 1.3.8 1.7.7 2-1.1 6.4 3.2 5.5 7.2 5.7 5.2.3 4-3.1 4-5.9.2-14.3.3-28.4.1-42.6zm-34.3 41.1c-3.8 0-9.7-1.2-12.5-8.1-3.5-8.6 1.5-16 11.4-17 7.3-.7 14.7 1 22-1.2 2.2-.7 2.1 1 2.3 2.4 2.1 13.8-6.5 23.8-23.2 23.9zM77.8 228.7c-20.7 0-36.5 16.4-36.5 37.8 0 21.1 15.6 37.1 36.3 37.1 19.9 0 36.2-14.1 36.5-37.2 0-21.5-15.6-37.7-36.3-37.7zm25.1 40c-1.4 15.5-10.7 25.7-26.1 26.5-6 .3-12-3.5-16.5-8.1-10.1-10.5-10.2-30.8-.2-41.5 4.7-5 10.3-7.3 17.6-7.4 15.4-.1 26.7 13.7 25.2 30.5z"/></svg>