<svg id="Layer_1" xmlns="http://www.w3.org/2000/svg" viewBox="0 0 512 512"><style>.st1{fill:#d2232a}</style><path d="M483.6 285.4c.1 0 .3-.1.4-.1v8.7c-.1 0-.3-.1-.4-.1v-8.5z" fill="#168ed0"/><path class="st1" d="M289.8 72C254.6 174.2 220 275.1 184.9 377.1c39.4 23.2 80.4 27.1 122 9.9 49.5-20.5 79.5-58.6 84-112.1 5.7-67.4-26.7-113.9-88.1-142.2 6.5-18.9 12.9-38 19.8-56.9.7-1.9 4.5-3.6 6.9-3.7 27.3-.2 54.7-.5 82 .1 17.9.4 30.1 15 30.2 35.1.1 45.2 0 90.5 0 135.7v156c0 24.5-13 37.7-37.3 37.7-96.9.1-193.8.1-290.7 0-24.3 0-36.8-12.4-36.8-36.8-.1-97.6-.1-195.2 0-292.7 0-22.8 12.3-35.2 34.8-35.3 56.7-.1 113.5 0 170.2 0 2 .1 4 .1 7.9.1zm-50.3 55.7c-44.6-1.7-97.8 43.2-113.7 93.9-17.2 54.8 7.2 113.8 35.1 134.1 26.2-75.8 52.3-151.5 78.6-228z"/><path class="st1" d="M277.3 206.6c30.5 10.6 45.8 44.9 34.4 75.3-10.8 28.8-44.3 45.1-72.2 34.4 12.5-36.5 25.1-73.1 37.8-109.7z"/></svg>