<svg id="Layer_1" xmlns="http://www.w3.org/2000/svg" viewBox="0 0 512 512"><style>.st0{fill:#016f51}</style><path class="st0" d="M257.9 134.5c0 8.4-.1 16.8 0 25.2 0 2-.6 2.6-2.6 2.7-41.5 1.4-76.4 27.1-90 66.3-18.9 54.5 15.5 115 72 126.7 47.3 9.8 93.1-14.6 111.3-59.4 4.4-10.9 6.6-22.2 6.9-33.9 0-2 .6-2.6 2.6-2.6 16.7.1 33.4.1 50.2 0 2.5 0 2.9.9 2.8 3.1-1 37.1-13.4 69.9-37.7 97.9-23.7 27.3-53.5 44.7-89.1 50.3-55.8 8.8-103.4-7.9-141.4-49.8-22.3-24.6-34.4-54.1-37.6-87.1-7.2-75.1 42.5-144.6 116.1-162.7 11-2.7 22.1-4.2 33.5-4.3 2.6 0 3.1.8 3 3.2v24.4z"/><path d="M258.9 191.9c37.6.3 68.7 31.3 67.4 70.3-1.1 36.4-31.1 66.4-69.3 65.7-37.3-.7-68.2-31.6-66.6-70.8 1.4-36.3 31.1-65.3 68.5-65.2z" fill="#7abf43"/><path class="st0" d="M344.2 134.8c21.5-.1 39.1 17.3 39.3 38.9.2 21.3-17.5 39.2-39 39.3-21.3.1-39.1-17.4-39.2-38.6-.1-21.8 17.2-39.4 38.9-39.6z"/></svg>