<svg xmlns="http://www.w3.org/2000/svg" viewBox="0 0 512 512"><path d="M297 343.8c-7.2 7.3-15 7.4-23.1 4.4-8.9-3.3-13-10.8-14.1-19.6-.7-5.7-.7-11.8.2-17.5 2.8-17.2 18.8-26.5 35.3-18.2.1-1.5.2-2.9.2-4.2 0-6.4.1-12.7 0-19.1-.1-2.8.9-3.9 3.6-3.9 3.6.1 7.3.1 10.9.1 2.2 0 3.1 1.1 3.1 3.3-.1 25.3 0 50.6 0 76 0 2.4-1.1 3.4-3.4 3.4-2 0-4 0-6 .1-3.3.3-6.2.1-6.7-4.8zm-1.6-25.2h.2c0-2.4-.2-4.7 0-7.1.6-5-2.5-6.6-6.2-7.4-5-1.2-8.8 1-10.7 5.8-.6 1.6-1.1 3.4-1.3 5.1-.7 5.4-.8 10.8 1.5 15.9 1.8 3.9 5.8 5.8 10.3 5.1 4.4-.7 5.8-2.2 6.2-7.5.2-3.3 0-6.6 0-9.9zM48.7 308.4c0-11.6 3.1-22.1 11.3-30.7 12.4-12.9 31.4-12.2 44.8-5.3 1 .5 1.9 2.6 1.6 3.6-1 3.4-2.4 6.6-3.9 9.8-1 2.2-2.8 1.2-4.5.7-4.5-1.1-9.1-2.9-13.6-2.6-8.5.6-14.6 6.7-15.9 15.9-.9 5.8-1 12 0 17.8 2.1 12.4 12.9 18.5 24.9 14.9 1.7-.5 3.4-1.2 4.9-2 2.5-1.4 4-.6 5.1 1.7.7 1.4 1.3 2.8 1.8 4.2 3 7.2 2.6 7.9-4.5 10.5-16 5.9-31.8 2.7-42-8.6-6.5-7.2-9.9-17.4-10-29.9zm183.4 35.7c-10.9 11.2-32.2 6.2-36.3-12.3-2-8.9-1.8-17.7 1.5-26.4 5.3-13.9 22.4-21 35.2-10.8.2-3.4 2.5-3.7 5.1-3.8 10.5-.3 10.5-.3 10.5 10.1 0 14.4-.1 28.8.1 43.1.1 3.7-1.3 4.9-4.7 4.6-1.6-.1-3.3-.1-4.9 0-3.2.3-6.1 0-6.5-4.5zm-1.8-25.3h.2c0-2.6-.2-5.2 0-7.8.3-3.3-1.4-5-4-6.3-4.9-2.3-10.6-.5-12.1 4.8-1.4 5-1.6 10.4-1.6 15.6 0 2.5 1.2 5.3 2.5 7.5 2.1 3.7 5.9 3.9 9.7 3.3 3.5-.6 5.1-3.2 5.3-6.6.2-3.4 0-6.9 0-10.5zm202.3 6.7c.2 5.9 3.7 9.9 9.2 10.6 6.1.8 12-.4 17.6-2.9 2.3-1 3.5-.5 4.4 1.7 3.7 9.6 3.8 9.1-5.4 12.5-7.6 2.8-15.6 3.3-23.7 1.6-12.4-2.7-19.8-12.3-20.3-26.6-.1-4.1.2-8.3 1.1-12.2 2.4-9.8 8.2-17 18.4-19.4 9.9-2.3 19.4-1.5 26.8 6.5 6.7 7.2 7.8 16.3 7.3 25.8-.1 2.2-1.8 2.4-3.6 2.3h-27.9c-1.4 0-2.7.1-3.9.1zm17.6-11c-.1-4.5-1-8.3-4.9-10.5-2.9-1.6-6-1.3-8.7.7-3.2 2.4-4.4 5.7-4.5 9.8h18.1zm-108.5 10.8c.3 6.2 3.8 10.1 9.3 10.8 5.9.8 11.5-.3 16.9-2.7 2.8-1.2 4.3-.7 5.3 2.2 2.9 8.5 4.2 8.1-5.4 11.7-8 3-16.3 3.7-24.6 1.6-11.8-3-19-12-19.8-24.9-.4-6.8.2-13.4 3.3-19.6 5.5-11.4 17.1-16.7 30.6-14.1 10.9 2.1 18.6 11.3 19.6 23.4.2 2.8.1 5.6.2 8.4.1 2.7-1.3 3.3-3.7 3.3-9.2-.1-18.4 0-27.6 0-1.4-.1-2.6-.1-4.1-.1zm17.7-10.8c0-4.2-.8-7.7-4.2-10.1-2.8-2-6.1-1.9-8.9 0-3.5 2.2-4.8 5.7-4.9 10.1h18zM97.8 199.6h41.7c4.6 0 5.3.5 5.6 5.2.2 4.2.2 8.5 0 12.7-.3 5.3-.6 5.5-5.9 5.5h-70c-4.6 0-9.2-.1-13.8 0-3.4.1-4.7-1.4-4.7-4.6.1-4.7.1-9.4 0-14.1-.1-3.4 1.4-4.8 4.9-4.8 14.2.2 28.2.1 42.2.1zm.1-42.6c14 0 28 .1 42.1-.1 3.4 0 5.1 1.1 5.1 4.5v14.5c0 3.3-1.5 4.4-4.8 4.4-15.1-.1-30.2-.1-45.2-.1-13.1 0-26.2-.1-39.2.1-3.5 0-5-1.2-4.9-4.7.1-4.6-.1-9.2 0-13.8.1-4.3.7-4.9 5-4.9 13.9.1 27.9.1 41.9.1zm73.4 133.8h9.7c.8 0 1.9-.3 2.4.2 3.1 2.5 1.2 6.1 1.5 9.2.2 2.1-1.2 2.8-3.1 2.8h-9.9c-.2.8-.5 1.4-.5 1.9 0 8.5-.1 17 .1 25.4.1 5.2 1.8 6.4 6.9 5.9 6.6-.7 6.6-.7 8.1 5.9 1 4.3.7 5-3.6 6.3-5.7 1.7-11.5 2.2-17.4.8-6-1.4-10.1-5.9-10.4-12.6-.5-9.6-.5-19.3-.7-28.9v-4.2c-1-.2-1.7-.3-2.4-.4-2-.4-5.5-.5-5.7-1.2-.7-3.1-.4-6.5-.1-9.8.1-.5 2.3-1.1 3.6-1.1 5.5-.2 5.5-.1 6.6-5.5.5-2.7 1.1-5.3 1.6-7.9.5-2.4 1.7-3.6 4.3-3.6 10.8 0 8.9-.7 9.1 8.6 0 2.5-.1 5.2-.1 8.2zm215.6 16.5c0-12.4.1-24.7-.1-37.1-.1-3.5 1.2-4.6 4.4-4.6 3.2.1 6.3.2 9.5.1 2.9 0 3.7 1.4 3.7 4.2-.1 18.6-.1 37.2-.1 55.8 0 6.4-.1 12.7 0 19.1.1 2.6-1 3.7-3.5 3.7-3.3 0-6.6-.1-9.9.1-3.2.2-4.3-1-4.2-4.3.3-12.2.2-24.6.2-37zM118 319.8c0-8.4.1-16.7-.1-25.1-.1-2.6.9-3.8 3.3-3.8 3.5-.1 7.1-.1 10.6 0 2.5.1 3.7 1.2 3.7 4-.1 16.6-.1 33.2 0 49.8 0 2.7-.9 3.9-3.7 3.9-3.4-.1-6.8-.1-10.2 0-2.7.1-3.7-.9-3.7-3.7.2-8.3.1-16.7.1-25.1zm8.6-36.7c-5.3.1-9.7-4-9.8-9.1-.1-5 4.3-9.3 9.5-9.4 5.3-.1 9.7 4 9.8 9.1.2 5.1-4.2 9.4-9.5 9.4z" fill="#e91c24"/></svg>