<svg xmlns="http://www.w3.org/2000/svg" viewBox="0 0 512 512"><path fill-rule="evenodd" clip-rule="evenodd" fill="#003671" d="M87.3 87h341.3v342H87.3V87z"/><path d="M130 310.5c-16.1 18-36.3 28.5-39.5 30.1l-3.2 1.6V337l.8-.5c104.4-74.8 8.4-134.1 8.1-134.3l-2.1-1.4 1.5-2 8.9-11.8 1.5-2 1.9 1.7c16.9 15 27.9 29.2 34.5 42.4 8.6 17.2 9.7 32.7 6.6 46.4-3.1 13.8-10.5 25.5-19 35zM215.7 87h13.8l.3 2c12.8 83.5 25.9 107.8 29.2 112.8 12.3-2 102.7-16.1 167-9.1l2.7.2v11.5l-2.8.1c-135.6 5.4-177.6 32.3-177.7 32.4l-2.2 1.3-1.1-2.3c-11.3-23.1-18.4-48.1-22.7-73.1-4.3-25-5.9-50-6.3-73.4l-.2-2.4zm212.9 188.1v6.1l-1.8.5c-28.9 7.4-93.2 19.9-157.9 6.1-64.9-13.9-130.2-54.3-160.4-152.9l-.6-1.8 1.6-.9 17.5-9.6 3-1.6.5 3.4c.1.6 23.5 200.3 295.3 151.4l2.8-.7zm0 98.8v8.1l-3.2-3-21.9-20.1-57.1-48.2-3.2-2.7h21.9l.5.5 62 64.5.4.5.6.4zm0 9.1v5.7h-2.2c-5.5-.1-11.3-.3-17.3-.5-4.6-.2-9.3-.4-14.1-.6l18.1 18.8.3.3-2.7 2.8-.1-.1-.1.1-25.5-22.4c-9.7-.5-19.8-1.1-30.2-1.8-2.3-.2-4.5-.3-6.6-.5-.7-.1-1.5-.1-2.2-.2l19.9 20.7-2.7 2.8-26.4-24.2c-35.2-3.8-66.9-9.2-93.5-13.7-16.8-2.8-31.5-5.3-44-6.9h-.2c-66.4-9.2-89.5 22.9-89.5 23l-2.1 2.8-1.3-3.2-8.6-22-.4-1.1.8-.9c.1-.1 23.7-25.8 79.6-19 14.2 1.7 36.6 6.1 63.8 11.4 23.5 4.6 50.5 9.8 79.1 14.7L309 358.4l-.1-.1-57.1-48.2-4-3.4H271l.6.6 61.1 63.5c7.8 1.3 15.8 2.5 24 3.8 5.6.8 11.2 1.6 16.7 2.4l-78.6-69.1h23.5l68 70.8c9.7 1.2 19.3 2.3 28.6 3.2.7.1 2.6.2 5.7.5 2 .2 4 .3 5.7.5h.3l2 .1z" fill-rule="evenodd" clip-rule="evenodd" fill="#fbba06"/></svg>