<svg xmlns="http://www.w3.org/2000/svg" viewBox="0 0 512 512"><linearGradient id="a" gradientUnits="userSpaceOnUse" x1="102.63" y1="415.463" x2="421.086" y2="97.007"><stop offset="0" stop-color="#a80000"/><stop offset=".247" stop-color="#aa0301"/><stop offset=".424" stop-color="#b10c02"/><stop offset=".579" stop-color="#bc1c05"/><stop offset=".722" stop-color="#cd3209"/><stop offset=".857" stop-color="#e24f0e"/><stop offset=".983" stop-color="#fb7214"/><stop offset="1" stop-color="#ff7715"/></linearGradient><path d="M486.9 256.7C486.3 386 382.1 482.8 260.4 481 131.8 479.1 33.2 376.2 37.3 248.1c4-126 109.2-221.8 232.9-217.3 122.1 4.4 217 106.1 216.7 225.9zM238.3 280c-1-.1-2-.2-3-.4 0-6.8-.2-13.6 0-20.4.4-12.7-4.8-22.6-14.8-30-4.8-3.5-9.8-6.7-14.8-9.9-5.3-3.4-5.6-7.9-2.8-12.9 1.3-2.3 2.9-4.3 4.5-6.4 11-13.8 13.4-29.7 10.7-46.5-1.6-10-6.6-18.5-17.1-21.8-10.1-3.2-19.3-.4-25.8 7.4-5.2 6.2-9.6 13.6-12.5 21.2-4.4 11.5-4.7 23.7-2 35.8 2.3 10.2.1 18.3-9.7 23.4-1.5.8-2.7 2-4.1 2.8-20.4 11.8-33 28.8-35.2 52.9-.2 2.8-.9 5.6-1.3 8.4-2.5 19.2-3.2 38.4 3.6 57 6.9 18.9 23.5 28.1 43.5 25 17.5-2.8 32.3-11 45.4-22.3 8.6-7.3 16.4-15.5 24.8-23.5 1.5 6.1 2.6 11.9 4.2 17.6 7.6 27.4 18.5 53 39.6 73 14.9 14.1 32.3 22.9 53.3 20.9 24.5-2.3 39.8-17.3 50-38.5 16.2-33.5 26.6-68.4 27.9-105.9.9-25.3-3.1-48.7-20.6-68.3-4.3-4.8-8.2-9.8-12.8-14.4-10.6-10.7-11.3-21.7-4.7-35.5 6-12.4 10.3-26.1 12.6-39.7 3.8-22.2-12.9-35.4-34.4-28.7-2.9.9-5.8 2.2-8.4 3.7-25.9 14.9-34.7 47-31.6 69.3 1.2 8.6 4.3 17 6.8 25.4 2.6 8.9.3 14.3-8.3 17.4-4.4 1.6-9.2 2.3-13.8 3.3-15.8 3.3-26.9 11.9-33.1 27.2-4.7 11.6-10.7 22.4-16.1 33.4z" fill="url(#a)"/><path d="M238.3 280c5.4-11 11.4-21.8 16-33.2 6.2-15.3 17.3-23.9 33.1-27.2 4.6-1 9.4-1.7 13.8-3.3 8.7-3.1 10.9-8.5 8.3-17.4-2.5-8.4-5.6-16.8-6.8-25.4-3.1-22.3 5.6-54.4 31.6-69.3 2.7-1.5 5.5-2.8 8.4-3.7 21.5-6.8 38.2 6.5 34.4 28.7-2.3 13.6-6.6 27.3-12.6 39.7-6.6 13.7-5.9 24.8 4.7 35.5 4.5 4.5 8.5 9.6 12.8 14.4 17.4 19.6 21.5 42.9 20.6 68.3-1.3 37.5-11.7 72.4-27.9 105.9-10.3 21.1-25.6 36.1-50 38.5-21.1 2-38.4-6.7-53.3-20.9-21-20-32-45.6-39.6-73-1.6-5.7-2.8-11.5-4.2-17.6-8.4 8-16.2 16.2-24.8 23.5-13.2 11.2-28 19.5-45.4 22.3-20 3.1-36.6-6-43.5-25-6.8-18.6-6.1-37.7-3.6-57 .4-2.8 1.1-5.6 1.3-8.4 2.1-24 14.7-41 35.2-52.9 1.4-.8 2.7-2 4.1-2.8 9.8-5.1 12.1-13.2 9.7-23.4-2.7-12.1-2.4-24.3 2-35.8 2.9-7.6 7.3-15 12.5-21.2 6.5-7.7 15.7-10.5 25.8-7.4 10.5 3.3 15.5 11.8 17.1 21.8 2.7 16.8.4 32.7-10.7 46.5-1.6 2-3.3 4.1-4.5 6.4-2.8 5-2.5 9.5 2.8 12.9 5 3.2 10 6.3 14.8 9.9 10 7.4 15.2 17.3 14.8 30-.2 6.8 0 13.6 0 20.4 1.1 0 2.1.1 3.1.2zM323 418.5c3.5-1.2 10.5-2.7 16.8-5.7 11.7-5.6 18.3-16.2 23.7-27.5 15.4-32 25-65.5 26-101.2.6-21.9-3.8-42-19.4-58.5-3.9-4.1-7.3-8.8-11.2-12.9-14.2-14.7-16-30.6-7-48.9 5-10.1 8.1-21.2 11.3-32.1 1.8-6.2 2-13.4-4.1-17.5-6.3-4.2-12.8-1.1-18.7 2.4-1 .6-2 1.3-3 2-17.5 12.6-25.9 38.7-19.8 61.4 1.5 5.5 3.7 10.8 5.2 16.3 4.3 15-2.9 28.3-17.8 33-4.5 1.4-9.2 2.3-13.8 3.2-12.2 2.3-20.1 9-25.1 20.6C260 267 253 280.6 245 293.4c-4.8 7.7-6.2 14.6-4.3 23.3 6.2 29.1 15.2 57 35.6 79.6 11.5 12.7 25.3 21.4 46.7 22.2zM121.3 304.1c1.1 9.4 1.4 17.1 2.9 24.5 4 19.8 16.2 27.5 35.9 23 3.4-.8 6.8-2 10.1-3.4 19.5-8.4 34.1-22.8 47.6-38.7 5-5.9 7.2-11.6 5.9-19.4-1.2-7-2.2-14.3-1.4-21.3 2.1-17.4-5.5-28.6-20.5-36-1.3-.6-2.4-1.5-3.6-2.3-11-7.5-13.7-19.6-6.8-31 2.2-3.6 5-6.9 7.3-10.5 7.3-11.4 9.4-23.8 4.9-36.7-3.1-8.8-11.3-11.2-17.9-4.6-4.2 4.2-7.7 9.7-9.9 15.3-4.1 10.1-4.6 20.7-2.1 31.5 3.5 15.7-1.2 28-15.4 36.4-4.9 2.9-9.3 6.6-14 9.8-9.5 6.5-15.5 15.3-17.4 26.6-2 12.7-3.9 25.6-5.6 36.8z" fill="#fff"/><linearGradient id="b" gradientUnits="userSpaceOnUse" x1="242.624" y1="362.838" x2="425.3" y2="180.162"><stop offset="0" stop-color="#a80000"/><stop offset=".434" stop-color="#a90200"/><stop offset=".591" stop-color="#ae0902"/><stop offset=".702" stop-color="#b71404"/><stop offset=".792" stop-color="#c32507"/><stop offset=".87" stop-color="#d33b0a"/><stop offset=".937" stop-color="#e7560f"/><stop offset=".997" stop-color="#fe7515"/><stop offset="1" stop-color="#ff7715"/></linearGradient><path d="M323 418.5c-21.4-.8-35.2-9.5-46.7-22.2-20.4-22.6-29.4-50.5-35.6-79.6-1.8-8.7-.5-15.6 4.3-23.3 8-12.8 15-26.4 21.1-40.3 5.1-11.6 13-18.3 25.1-20.6 4.7-.9 9.3-1.8 13.8-3.2 15-4.7 22.1-18 17.8-33-1.6-5.5-3.7-10.8-5.2-16.3-6.1-22.7 2.3-48.8 19.8-61.4 1-.7 1.9-1.4 3-2 5.9-3.4 12.4-6.6 18.7-2.4 6.1 4.1 5.9 11.3 4.1 17.5-3.2 10.9-6.3 22-11.3 32.1-9 18.3-7.2 34.2 7 48.9 4 4.1 7.3 8.7 11.2 12.9 15.5 16.5 20 36.6 19.4 58.5-1 35.7-10.6 69.2-26 101.2-5.4 11.3-12 21.9-23.7 27.5-6.3 3-13.3 4.6-16.8 5.7z" fill="url(#b)"/><linearGradient id="c" gradientUnits="userSpaceOnUse" x1="108.697" y1="322.245" x2="242.289" y2="188.652"><stop offset="0" stop-color="#a80000"/><stop offset=".425" stop-color="#a80300"/><stop offset=".73" stop-color="#a90c00"/><stop offset=".998" stop-color="#aa1c00"/><stop offset="1" stop-color="#aa1c00"/></linearGradient><path d="M121.3 304.1c1.7-11.2 3.5-24.1 5.6-36.9 1.9-11.4 7.9-20.1 17.4-26.6 4.7-3.2 9.1-6.9 14-9.8 14.2-8.4 18.9-20.7 15.4-36.4-2.4-10.8-2-21.4 2.1-31.5 2.2-5.6 5.7-11.1 9.9-15.3 6.6-6.5 14.8-4.2 17.9 4.6 4.6 12.9 2.4 25.2-4.9 36.7-2.3 3.6-5.1 6.9-7.3 10.5-6.9 11.4-4.2 23.6 6.8 31 1.2.8 2.4 1.6 3.6 2.3 14.9 7.4 22.6 18.6 20.5 36-.8 6.9.2 14.3 1.4 21.3 1.3 7.7-.9 13.5-5.9 19.4-13.5 15.9-28.1 30.3-47.6 38.7-3.2 1.4-6.6 2.7-10.1 3.4-19.7 4.5-31.9-3.2-35.9-23-1.4-7.3-1.8-15-2.9-24.4z" fill="url(#c)"/></svg>