<svg id="Layer_1" xmlns="http://www.w3.org/2000/svg" viewBox="0 0 512 512"><style>.st0{fill:#181712}</style><path class="st0" d="M433.1 264c-.2 14.2-3 27.7-10.8 39.7-19.6 30.1-63.9 29.6-81.9-1.4-13-22.5-13.9-46.4-3.1-70.1 8.8-19.4 24.3-30.3 46.1-29.7 21.9.6 35.9 13.2 44.4 32.5 3.9 9.2 5.5 19 5.3 29zm-15.8 3.2c0-13.4-1.4-24.5-6.5-34.8-5.9-12-14.9-19.9-28.9-20.1-14.1-.1-23.6 7.6-28.9 19.8-9.9 22.7-9.2 45.7 2.6 67.4 12 22 39.6 22 52.9.8 6.6-10.7 8.7-22.7 8.8-33.1z"/><path class="st0" d="M261.6 266.3c0 18.3-.1 35.3.1 52.2 0 3.9-.5 5.5-5 5.4-9.7-.4-9.7-.1-9.7-9.7 0-34.9 0-69.9-.1-104.8 0-3.5.8-4.6 4.4-4.6 10.3.2 10.3 0 10.3 10.6v45c5.6-6.5 10.3-12.1 15.1-17.6 7.8-9.1 15.4-18.3 23.3-27.1 6.8-7.5 14.7-12.8 25.7-10.6.3 1.7-1.1 2.4-1.9 3.3-12.8 14.5-25.6 28.9-38.5 43.3-3.4 3.8-7.3 6.8-12.1 8.8-1.2.5-3.1.5-3.3 2.6-.1 2.2 1.7 2.2 3 2.7 4.5 1.8 8.4 4.4 11.6 7.9 14.9 16.4 29.7 32.9 44.8 49.6-4.6 2.2-8.8 1.2-12.9 0-6-1.7-10.6-5.5-14.7-10.2-11.8-13.8-23.6-27.5-35.4-41.3-1.2-1.6-2.6-3.1-4.7-5.5zm-103.8 5.9v-44.3c.1-16.3 6.5-23.2 22.8-24.6 6.9-.6 13.8-.3 20.5 1.2 16.9 3.8 26.9 14.3 28.4 29.7 1.8 18.6-6.6 34.1-22.1 40.8-9.3 4-19.2 5-29.1 3.5-5.1-.8-5.6 1-5.5 5.3.3 11.7 0 23.5.2 35.2.1 3.5-.5 5-4.6 4.9-10.5-.3-10.5 0-10.5-10.4-.1-13.8-.1-27.5-.1-41.3zm15.1-27.2c-.1 0-.1 0 0 0-.1 6.9-.1 13.7-.1 20.6 0 1.8-.2 3.4 2.5 3.9 22.6 3.8 39.3-6.5 39-31.1-.2-17.9-11.9-28.2-29.7-26.4-7.8.8-11.4 4.4-11.7 12.4-.2 6.9 0 13.7 0 20.6z"/><linearGradient id="SVGID_1_" gradientUnits="userSpaceOnUse" x1="105.624" y1="323.819" x2="105.624" y2="238.184"><stop offset="0"/><stop offset="1" stop-color="#003aae"/></linearGradient><path d="M120.8 281c0 12.8-.1 25.5.1 38.3.1 3.4-.6 4.7-4.3 4.5-7.4-.3-14.8-.3-22.2 0-3.5.1-4-1.2-4-4.3.2-18.3 0-36.6.4-54.9.4-16.3 11.7-24.7 27.2-26.4 3.1-.3 2.6 1.6 2.6 3.5V281h.2z" fill="url(#SVGID_1_)"/><path d="M126.6 212.4c.1 11.4-9 20.5-20.4 20.5-11.1-.1-20.1-9.2-20-20.3 0-11.2 9-20.1 20.2-20.2 11.2 0 20.2 8.8 20.2 20z" fill="#dd1721"/></svg>