<svg xmlns="http://www.w3.org/2000/svg" viewBox="0 0 512 512"><path d="M82.1 252.4v24.8c1.2.3 2.4.6 3.7.9 2 .4 4 .6 5.9 1 .3 0 .6.5.6.7.1 1.8.1 3.6 0 5.4 0 .2-.3.6-.6.6-.5.2-1.1.3-1.7.3H62.3c-1.3 0-2.6-.1-3.8-.3-.2 0-.6-.4-.6-.7-.1-1.8-.1-3.5 0-5.3 0-.3.3-.7.5-.7 1.6-.4 3.1-.7 4.7-1 .9-.2 1.9-.3 2.8-.6.4-.1.8-.8.8-1.2 0-1.7-.1-3.4-.1-5.2v-52.2c0-1.1.2-2.2.2-3.3 0-.9-.3-1.4-1.3-1.5-1.8-.3-3.6-.8-5.4-1.2-.8-.2-1.8-.3-2.1-.8-.4-.6-.1-1.6-.1-2.4 0-.9.1-1.9 0-2.8-.1-1 .5-1.1 1.3-1.1h24.4c2.3 0 4.6-.1 6.9 0 3.3.2 6.6.5 9.9 1.1 4.1.8 7.8 2.3 11.1 4.7 2 1.5 3.7 3.4 5 5.7 1.2 2 2.1 4.1 2.5 6.4.3 1.7.8 3.5.7 5.2 0 2.3-.4 4.6-.7 6.9-.2 2.1-.9 4-1.9 5.9-2.1 4.1-5.3 6.9-9.4 8.8-2.8 1.2-5.6 2.2-8.6 2.3-4.1.2-8.3.3-12.4.4-1.4 0-2.9-.5-4.6-.8zm-.1-7.3c.9 0 1.6 0 2.4.1 3.9.6 7.7.6 11.6-.5 5.8-1.6 7.8-6.1 8.2-10.4.3-3 .4-6.1-.3-9.2-.6-2.6-1.6-4.9-3.5-6.8-2.4-2.5-5.4-3.6-8.8-3.7H83c-.3 0-.6.1-1 .1v30.4zm123.5-11c.9-.6 1.6-1 2.2-1.5 2.9-2.2 6.1-3.7 9.5-4.6 3.4-.9 7-.9 10.4-.4 4.6.6 8.7 2.7 11.8 6.4 2 2.4 3.3 5.2 4.2 8.2.8 2.7 1.3 5.3 1.4 8.1.1 2.8.4 5.7.2 8.5-.3 3.8-.9 7.6-2.3 11.2-2.7 6.8-7.1 12.2-14.1 14.9-2.1.8-4.2 1.3-6.4 1.8-4.5 1-9 .4-13.5.4-.9 0-1.8-.3-2.6-.5v12c0 .4-.2.8-.1 1.1.1.4.3 1 .6 1.1 1.4.4 2.9.6 4.4.9 1.2.2 2.4.4 3.7.6v5.7c-.4 0-.8.1-1.2.1h-27.6c-1 0-1.4-.3-1.3-1.3.1-1.2 0-2.3 0-3.5 0-.7.3-1 1-1.1 2-.4 4-.8 6-1.3.3-.1.5-.5.7-.8.1-.3 0-.7 0-1v-59.2c0-1.4-.2-1.7-1.7-1.9-1.7-.3-3.4-.6-5-1-.6-.1-1-.4-1-1.2v-4.6c0-.3.4-.8.7-.9 2.2-.4 4.4-.6 6.6-.9 3.4-.5 6.8-.9 10.2-1.4.6-.1 1.3-.4 1.8-.3.9.3 1.5.9 1.4 2.1-.1 1.2 0 2.6 0 4.3zm25.4 23.4h.2c-.2-2.2-.5-4.4-.6-6.6-.2-2.4-.9-4.7-1.9-6.8-1.6-3.4-4.3-5.4-7.8-6.1-2.2-.5-4.4-.6-6.7-.2-2.4.4-4.8 1-7.1 1.8-1 .3-1 1-.9 1.8 0 .7.2 1.4.2 2.1v28.8c0 .6-.1 1.2-.1 1.8 0 1.1-.5 2.4.9 3.2 2.4 1.5 5.1 2.1 7.9 2.2 2 0 4.1-.4 6.1-.8 3-.6 5.1-2.6 6.7-5.1 2.2-3.5 2.7-7.6 3.2-11.6.1-1.5-.1-3-.1-4.5zm65.3 22.6c-.6.3-1.1.4-1.4.7-2.3 2.2-4.9 3.8-7.8 4.8-2.1.7-4.3 1.2-6.6 1.5-2.1.2-4.2.2-6.3 0-5.1-.5-10.2-2.7-12.4-9-.8-2.3-.9-4.6-.9-6.9v-31c0-2.7 0-2.7-2.6-3.2-1.5-.3-3.1-.6-4.6-1-.2-.1-.6-.4-.6-.6-.1-1.6-.2-3.1-.1-4.7 0-.9.4-1.4 1.5-1.4 2.5-.1 4.9-.3 7.4-.5 3.1-.3 6.1-.6 9.2-.9.9-.1 1.6-.6 2.6 0 .6.4.9.7.9 1.5v14.5c0 8.7-.1 17.4.1 26 0 2.6 1 5.1 3.6 6.2 1.4.6 3 1 4.5 1.1 4.2.3 8.2-.7 12.1-2.2.8-.3 1.1-.8 1.1-1.8v-33.3c0-2.5 0-2.5-2.4-3-1.4-.3-2.8-.6-4.2-1-.2-.1-.6-.3-.6-.5-.1-1.7-.1-3.3-.1-5 0-.9.7-1.1 1.4-1.1 2.4-.2 4.8-.3 7.2-.5l9-.9c.8-.1 1.6-.1 2.4 0 .8.1.9.7.9 1.4v47.6c0 1.1.3 1.6 1.5 1.8 1.9.3 3.8.9 5.7 1.4.2 0 .4.4.4.7 0 1.5.1 3.1 0 4.6 0 .3-.6.8-.9.8h-17.7c-1.1 0-2.2-1.3-2.2-2.4-.1-1.1-.1-2.2-.1-3.7zm-144.8-52.8c2.3.2 4.7.2 7 .7 5.7 1.3 10.7 3.8 14.5 8.4 2.3 2.8 4.1 5.8 5 9.3.6 2.3 1 4.7 1.4 7.1.2 1.3.3 2.7.4 4 .1 3.2-.5 6.3-1.2 9.4-1.1 4.5-3.1 8.4-6 11.8-2.8 3.4-6.3 5.8-10.5 7.4-4.1 1.7-8.4 2.4-12.8 2.1-8-.6-15.1-3.3-20.2-9.8-2-2.6-3.6-5.4-4.4-8.6-.6-2.3-1.1-4.6-1.4-7-.3-2.4-.6-5-.3-7.4.3-3.6 1.1-7.1 2.5-10.5 1.8-4.5 4.6-8.1 8.3-11.1 2.5-2 5.3-3.5 8.4-4.5 3-.8 6.1-1.3 9.3-1.3zm13.5 30.6c.2-4.6-.1-9.1-1.8-13.4-1-2.6-2.3-4.9-4.6-6.6-3.3-2.4-7-2.7-10.9-1.9-3.4.7-5.6 2.8-7.3 5.7-2.1 3.7-2.7 7.8-3 11.9-.2 2.9.2 5.8.3 8.6.1 3.4.9 6.6 2.3 9.7 1.1 2.2 2.5 4.1 4.6 5.5 2.6 1.7 5.5 2.1 8.6 1.8 3.5-.3 6.1-1.9 8.1-4.7 2.4-3.4 3.2-7.3 3.6-11.3.2-1.8.1-3.6.1-5.3zM365 238.3v-6.2c0-1.3 1.2-1.2 1.8-1.4 2.7-.9 5.4-1.6 8.1-2.3 1.4-.3 2.9-.5 4.3-.6 3.5-.2 7-.4 10.5-.4 2.5 0 4.8.7 7.1 1.6 3.4 1.4 5.8 3.7 7.2 7 .5 1.3.9 2.7 1.1 4 1 6.8.3 13.6.4 20.4.1 5.3.1 10.6 0 16 0 2 1.5 3.5 3.3 3.5 1 0 2 0 3 .1.5 0 1 .2 1 .9v4.3c0 .3-.4.8-.7.9-3.6.8-7.3 1.1-11.1 1-3.3-.1-6.5-1.9-7.6-5.3-.3-.8-.8-1-1.4-.3-1.9 1.9-4.1 3.5-6.7 4.4-1.4.5-3 .9-4.5 1.2-1.7.3-3.4.5-5 .4-4.5-.3-8.7-1.6-11.9-4.9-1.8-1.9-3.2-4-3.6-6.7-.3-2.4-.7-4.9-.3-7.3.6-4.1 2.9-7.1 6.5-9.1 2.8-1.5 5.8-2.7 9-3.2 2.9-.5 5.7-1.2 8.6-1.8 2.3-.5 4.5-.9 6.7-1.4.3-.1.7-.6.7-.9 0-2.7.2-5.4-.1-8-.3-2.7-1.6-5-5.1-6-3.7-1-7.4-.9-11.2-.7-1.5.1-2.9.2-4.4.4-1.6.1-3.2.3-4.8.5 0-.1-.4-.1-.9-.1zm26.8 29.9s-.1 0 0 0c0-2.2-.1-4.4 0-6.6 0-1-.3-1.3-1.2-1.2-1.8.2-3.5.3-5.3.5-2.2.3-4.4.5-6.5.9-2.3.5-4.6 3-4.7 5.2-.1 1.9-.3 3.9 0 5.8.3 2.1 1.3 3.9 3.4 4.9 2.4 1.1 4.7 1.5 7.4 1 2.2-.5 4.2-1.2 6.1-2.4.7-.4.9-1 .9-1.8-.2-2-.1-4.2-.1-6.3zm-38.6 12v5.3c0 .2-.6.6-.9.7-1.2.1-2.5 0-3.7 0h-22.9c-1.2 0-1.5-.4-1.4-1.5.1-1.2 0-2.5 0-3.7 0-.6.2-.9.8-1.1 2.1-.4 4.2-.9 6.3-1.4.2-.1.4-.4.5-.6.1-.3 0-.6 0-.9v-61.5c0-1.1-.1-1.6-1.4-1.8-2.2-.3-4.4-.9-6.8-1.5v-5.9c0-.2.6-.6.9-.6 3-.4 6-.7 9-1 3.3-.4 6.6-.9 9.9-1.2 1.8-.2 2.3.4 2.3 2.1v70.9c0 1.2-.1 2.1 1.6 2.2 1.9.3 3.7 1 5.8 1.5zm75.2-41.9c-2.6-.6-5.1-1.2-7.7-1.9v-5.6c0-1.1 1.1-.9 1.7-1 1.6-.3 3.3-.3 4.9-.6 2.7-.4 5.4-.8 8.2-1.2 1.3-.2 2.7-.4 4-.5 1.5-.1 2 .4 2 1.8v5.7c0 .3.2.7.4 1 .3-.2.8-.3 1-.6 2.4-3.4 5.7-5.8 9.5-7.3 2.2-.9 4.6-.7 6.9-.5.3 0 .7.5.7.8v11.2h-6.9c-3.7 0-7.1 1.1-10.3 2.8-.3.2-.5.8-.5 1.2v33.6c0 .9.1 1.4 1.2 1.5 1.9.2 3.7.8 5.5 1.2.5.1 1.1.1 1.9.2v5.6c0 .2-.5.4-.7.5-.3.1-.7 0-1 0H422c-.9 0-1.4-.2-1.3-1.3.1-1.4 0-2.7 0-4.1 0-.6.2-.8.8-.9 2.1-.4 4.2-.9 6.3-1.4.2-.1.4-.4.5-.6.1-.2 0-.5 0-.8V240c.1-.5.1-1 .1-1.7z" fill="#e30050"/></svg>