<svg xmlns="http://www.w3.org/2000/svg" viewBox="0 0 512 512"><path d="M103.7 214.1c-10.3 3.7-13.8 13.6-13.8 13.6-1.4 3.7-5.1 6.4-9.2 6.4H61.2c-5.4 0-9.8-4.4-9.8-9.8s3.7-9.7 9.8-9.7l15.6.2-22.5-22.5c-3.8-3.8-3.8-10 0-13.8 3.8-3.8 10-3.8 13.8 0l22.2 22.2v-15.3c0-5.4 4.3-9.8 9.8-9.8 5.4 0 9.7 4.4 9.7 9.8v19.5c0 4.2-2.5 8-6.1 9.2m-3.6 82.5c-5.4 0-9.7-3.5-9.5-9.6l.2-15.6-22.5 22.5c-3.8 3.8-10.1 3.8-13.8 0-3.8-3.8-3.8-10.1 0-13.8l22.1-22.2H61.4c-5.5 0-9.8-4.4-9.8-9.8s4.3-9.8 9.8-9.8h19.5c4.1 0 7.8 2.5 9.2 6.1 3.5 10.4 13.5 13.9 13.5 13.9 3.8 1.4 6.4 4.9 6.4 9.2V287c-.1 5.3-4.4 9.6-9.9 9.6zm62.7-39l-15.6-.2 22.5 22.5c3.8 3.8 3.8 10 0 13.8-3.8 3.8-10 3.8-13.8 0l-22.2-22.2v15.3c0 5.8-4.4 9.8-9.8 9.8s-9.8-4.4-9.8-9.8v-19.5c0-4.1 2.6-8 6.3-9.2 10.3-3.5 13.8-13.6 13.8-13.6 1.4-3.7 5-6.4 9.2-6.4h19.5c5.4 0 9.8 4.4 9.8 9.8-.1 5.4-4.1 9.7-9.9 9.7zm.1-23.6h-19.5c-4.1 0-8-2.5-9.2-6.1-3.5-10.3-13.6-13.9-13.6-13.9-3.7-1.4-6.4-4.9-6.4-9.2v-19.5c0-5.4 4.4-9.6 9.8-9.6s9.7 4 9.7 9.6l-.1 15.6 22.5-22.5c3.8-3.8 10-3.8 13.8 0 3.8 3.8 3.8 10.1 0 13.9l-22.2 22.1H163c5.4 0 9.8 4.4 9.8 9.8-.1 5.4-4.5 9.8-9.9 9.8zm100.8 62.2c-7.2-14.6-20.2-37.5-27.9-49.5h-6.1v49.5h-23V176.6h37.8c25 0 39.8 11.9 39.8 35.8 0 16.4-11.8 26.5-24.2 30.6 8 10.9 23.3 37.5 30.9 53.2h-27.3M241.5 195h-11.8v34.2h9.2c12.4 0 21.4-5.4 21.4-17 .1-10.3-6.5-17.2-18.8-17.2zm97.8 101.2h-38.6V176.6h40.6c23.3 0 38.6 11.3 38.6 31.2 0 14.1-9.3 22.1-18.2 25.6 12.3 3.2 22.2 11.6 22.2 27.4-.1 20.9-16.1 35.4-44.6 35.4zM338 194.8h-14.2v31.1H337c10 0 18.5-5.4 18.5-16.1 0-10.1-6.1-15-17.5-15zm-.1 48.9h-14.1V278h14.9c11.6 0 20.7-4.6 20.7-17.3-.1-11.6-8.5-17-21.5-17zm82.2 53.6c-10.4 0-23.6-1.7-30.2-3.7l5.2-21.5c4.7 2.1 15.3 5.5 25 5.5 11.6 0 20.4-5.1 20.4-15.3 0-8.7-5.4-13.3-20.4-19.1-15.3-6-28-13.3-28-35.1 0-21.3 16.8-33.1 42.4-33.1 10.9 0 21.9 2.1 28.5 4.3l-5.1 20.8c-4.4-2.5-13-5.5-23.4-5.5-12.4 0-17.9 4.8-17.9 12.9 0 8.3 6.1 11.3 19.5 17.2 18.4 7.8 29.9 15.6 29.9 36.2 0 22.6-18.1 36.4-45.9 36.4zM68.6 321.2h-6.9l-4.2 21.9h-3.3l4.2-21.9h-7l.5-2.8h17.2l-.5 2.8m14.1 21.9h-3.2l2.2-11.6c.5-2.9 0-4.1-1.6-4.1-3.4 0-7.1 7.1-7.9 11.6l-.8 4.1h-3.2l5.1-26.7h3.2l-1.6 8.5c-.3 1.4-.7 3.2-2 7.2h.1c1.7-3.8 4.6-7.5 8.4-7.5 3.4 0 4.5 2.4 3.8 6.2l-2.5 12.3m9.5-8c-.1.5-.2 1.5-.2 2.1 0 2.8 1 3.5 3.9 3.5 1.7 0 3.5-.4 5.1-1l.1 2.6c-1.8.7-4 1.1-6.3 1.1-4.2 0-6.1-1.8-6.1-5.9 0-7.1 4-12.9 9.9-12.9 3.9 0 5.3 2 5.3 4.1.1 3.9-3.9 6.1-11.7 6.4m6.1-8c-2.9 0-4.8 2.5-5.7 5.6 5.6-.2 8.1-1.4 8.1-3.5.1-1.4-.9-2.1-2.4-2.1zm25.2 4.7c.5.9.9 1.7 1.5 2.6l4.8 8.7h-4L120 332h-.5l-2.1 11.1h-3.3l4.7-24.7c1.7-.1 3.4-.1 5.9-.1 5 0 7.3 2 7.3 5.4 0 4.7-4 7.5-8.5 8.1m.7-10.8c-1.1 0-1.9 0-2.6.1l-1.6 8.4c.4 0 1.1.1 2 .1 3.7 0 6.6-1.9 6.6-5.3-.1-2.3-1.3-3.3-4.4-3.3zm15.5 22.4c-4.6 0-6.7-2.3-6.7-6.5 0-7.2 4.6-12.4 10.5-12.4 4.8 0 6.8 2.7 6.8 6.5 0 7.6-5.2 12.4-10.6 12.4m3.3-16c-4 0-6.7 4.5-6.7 9 0 2.7 1.1 4.2 3.8 4.2 3.5 0 6.7-3.8 6.7-9.1.1-2.7-1.1-4.1-3.8-4.1zm13.1 21.7c-2.2 2.2-4.4 3.3-6.5 3.3-.9 0-1.8-.1-2.6-.3l.5-3c.7.3 1.5.4 2.3.4 1.3 0 2.8-.8 4-2.1 1.4-1.5 2.1-3.2 2.1-5.8 0-4.8-1-10.8-2.7-16.7h3.7c1.2 4.7 2 10.4 2 14.3 0 .7-.1 1.5-.2 2.3 2.9-5.1 5.4-10.3 8.2-17.2l3 .9c-4.8 11.1-9.3 19.4-13.8 23.9m27.8-6h-3.3c.3-1.6 1-4 2.1-7.4h-.1c-1.3 2.8-4.1 7.8-8.5 7.8-2.6 0-4.1-1.7-4.1-5.5 0-6.7 3.5-13.3 11.4-13.3 2.1 0 4 .2 5.7.5-1.8 10.1-2.4 13.5-3.2 17.9m-2.9-15.9c-5.4 0-7.5 5.6-7.5 10.1 0 2.4.7 3.3 1.9 3.3 3.4 0 7.2-7.3 8-11.6l.3-1.5c-.8-.1-1.7-.3-2.7-.3zm12.1 15.9h-3.2l5.1-26.7h3.2l-5.1 26.7m27.4-13.1c2.3.6 3.7 2.5 3.7 4.6 0 4.6-3.8 8.6-10.7 8.6-1.5 0-3.9-.1-6.2-.1l4.7-24.7c1.8 0 4.1-.1 6.9-.1 4.7 0 6.8 1.8 6.8 4.8-.1 3.7-2.5 6-5.2 6.9m-5.1 1.6h-2.8l-1.6 8.6c.6.1 1.6.2 3 .2 4.4 0 6.7-2.6 6.7-5.5 0-2.2-1.7-3.3-5.3-3.3zm2.5-10.6c-1.2 0-2.2 0-3.3.1l-1.5 8h2.1c4 0 6.9-1.9 6.9-5.3 0-1.6-.9-2.8-4.2-2.8zm23.4 22.1H238c.3-1.6 1-4 2.1-7.4h-.1c-1.3 2.8-4.1 7.8-8.5 7.8-2.6 0-4.1-1.7-4.1-5.5 0-6.7 3.5-13.3 11.4-13.3 2.1 0 4 .2 5.7.5-1.7 10.1-2.4 13.5-3.2 17.9m-2.8-15.9c-5.4 0-7.5 5.6-7.5 10.1 0 2.4.7 3.3 1.9 3.3 3.4 0 7.2-7.3 8-11.6l.3-1.5c-.9-.1-1.7-.3-2.7-.3zm23.4 15.9h-3.2l2.2-11.6c.6-2.9 0-4.1-1.6-4.1-3.4 0-7.1 7.1-7.9 11.6l-.8 4.1h-3.2l1.8-9.5c.2-.8 1.5-7.9 1.6-8.7h3.2c-.2 1.2-.7 3.3-2 7.2h.1c1.7-3.8 4.6-7.5 8.4-7.5 3.4 0 4.5 2.4 3.8 6.2l-2.4 12.3m14.4-10l5.5 10h-4l-4.8-9.6-1.8 9.6h-3.3l5.1-26.7h3.2l-3.1 16.3 8.6-8.7 2.3 1.9-7.7 7.2m22.9 10.3c-4.6 0-6.7-2.3-6.7-6.5 0-7.2 4.6-12.4 10.5-12.4 4.8 0 6.7 2.7 6.7 6.5.1 7.6-5.1 12.4-10.5 12.4m3.3-16c-4 0-6.7 4.5-6.7 9 0 2.7 1.1 4.2 3.8 4.2 3.5 0 6.6-3.8 6.6-9.1.2-2.7-1.1-4.1-3.7-4.1zm25.1-8.2c-.8-.2-1.8-.4-2.6-.4-2.6 0-4.1 1.4-4.7 4.8l-.2 1.2h4.9l-.5 2.6h-4.9l-3.1 16.5c-1.1 6-3.9 8.4-8.3 8.4-1.1 0-2.2-.1-3.1-.3l.8-2.8c.8.3 1.8.4 2.6.4 2.6 0 4.1-1.3 4.9-5.6l3.2-16.6h-3.7l.5-2.6h3.6l.3-1.3c.9-5 3.5-7.5 8.2-7.5 1 0 2 .1 3 .3l-.9 2.9m20 2.2c-1.2-.4-2.5-.6-3.4-.6-3.7 0-5.3 2.1-5.3 4 0 4.5 7.5 4.6 7.5 10.5 0 4.6-4 8.1-9.8 8.1-1.3 0-2.9-.1-4.1-.5l.6-3.2c1 .4 2.5.8 3.7.8 3.8 0 6-1.9 6-4.6 0-4.3-7.5-4.3-7.5-10.2 0-4 3.2-7.6 9.1-7.6 1.2 0 2.3.1 3.7.4l-.5 2.9m15.7 6.6c-1-.4-2-.7-3.3-.7-4.6 0-6.8 5.2-6.8 9.3 0 1.9.6 3.8 3.8 3.8 1.4 0 2.9-.3 4-.8v2.8c-1.3.5-3.1 1-4.9 1-4.7 0-6.3-2.6-6.3-6 0-6.9 3.9-12.8 10.4-12.8 1.5 0 2.7.2 3.8.5l-.7 2.9m8.1 15.4c-4.6 0-6.7-2.3-6.7-6.5 0-7.2 4.6-12.4 10.5-12.4 4.8 0 6.8 2.7 6.8 6.5 0 7.6-5.1 12.4-10.6 12.4m3.4-16c-4 0-6.7 4.5-6.7 9 0 2.7 1.1 4.2 3.8 4.2 3.5 0 6.7-3.8 6.7-9.1 0-2.7-1.2-4.1-3.8-4.1zm21.5.1h-4.9l-1.8 9.5c-.5 2.8-.1 3.6 1.6 3.6 1 0 1.8-.1 2.5-.3l-.2 2.7c-1.1.2-2.3.4-3.4.4-3.7 0-4.7-1.8-3.9-5.9l1.9-10h-3.7l.5-2.6h3.7l1.1-5.9 3.4-.8-1.3 6.6h4.9l-.4 2.7m4.7 15.6h-3.2l5.1-26.7h3.2l-5.1 26.7m19.8 0h-3.3c.3-1.6 1-4 2.1-7.4h-.1c-1.3 2.8-4.1 7.8-8.5 7.8-2.6 0-4.1-1.7-4.1-5.5 0-6.7 3.5-13.3 11.4-13.3 2.1 0 4 .2 5.7.5-1.8 10.1-2.4 13.5-3.2 17.9m-2.9-15.9c-5.4 0-7.5 5.6-7.5 10.1 0 2.4.7 3.3 1.9 3.3 3.4 0 7.2-7.3 8-11.6l.3-1.5c-.8-.1-1.7-.3-2.7-.3zm23.4 15.9h-3.2l2.2-11.6c.6-2.9 0-4.1-1.6-4.1-3.4 0-7.1 7.1-7.9 11.6l-.8 4.1h-3.2l1.8-9.5c.1-.8 1.5-7.9 1.6-8.7h3.2c-.2 1.2-.7 3.3-2 7.2h.1c1.7-3.8 4.6-7.5 8.4-7.5 3.4 0 4.5 2.4 3.8 6.2l-2.4 12.3m20.9-6.6c-.1.6-1.1 5.9-1.2 6.6h-3.2c.3-1.6 1-4 2.1-7.4h-.1c-1.3 2.8-4.1 7.8-8.5 7.8-2.6 0-4.1-1.7-4.1-5.5 0-6.7 3.5-13.3 11.4-13.3.9 0 1.7.1 2.6.2l1.6-8.4h3.3l-3.9 20m-4.1-9.3c-5.4 0-7.5 5.6-7.5 10.1 0 2.4.7 3.3 1.9 3.3 3.4 0 7.2-7.3 8-11.6l.3-1.5c-.9-.1-1.7-.3-2.7-.3z" fill="#003671"/></svg>