<svg xmlns="http://www.w3.org/2000/svg" viewBox="0 0 512 512"><path fill="#262342" d="M1-1h510v511H1z"/><path d="M136.3 340.6c.5-.3 1-.8 1.6-1 11.1-2.8 22.3-5.6 33.3-8.4 3.2 7.2 5.6 14.5 9.4 21.1 10.4 18.2 31.8 27.8 52 23.8 21.6-4.2 37.2-20 40.5-41 2.5-15.8-2.2-29.2-15.9-37.4-13.3-8-27.7-14.1-41.5-21.1-10.9-5.5-22.1-10.3-32.5-16.6-23.6-14.3-37.2-34.8-34.9-63.3 2.3-28.8 16.8-50.1 42.4-63.4 33.4-17.3 95.1-9.7 111.5 50.4.4 1.3.5 2.6.8 4.9-11.9 3-23.8 6-35.9 9.1-1.5-4.3-2.6-7.9-4-11.4-7.2-17.5-26-26.4-46.7-22.1-17.9 3.7-30.6 19.6-30.5 38 .1 10.2 4.9 18.1 13.2 23 11 6.5 22.7 12 34.2 17.7 11.9 5.9 24.3 11 35.9 17.4 65 35.3 46.9 111.9 3.2 140.1-52.5 33.8-123.9 5.4-136.1-59.8zM380 125.5c.1 16.2-12.8 29.2-29 29.4-16 .1-29.3-12.9-29.4-29-.1-16.1 12.9-29.2 29.1-29.4 16-.2 29.2 12.8 29.3 29z" fill="#fff"/></svg>