<svg version="1.1" id="Layer_1" xmlns="http://www.w3.org/2000/svg" x="0" y="0" viewBox="0 0 512 512" xml:space="preserve"><style>.st0{fill:#48b154}</style><path class="st0" d="M86.7 236c1 .6 1.7.9 2.4 1.3 33.6 19 67.2 37.9 100.8 57 2.1 1.2 3.6 1.3 5.8 0 72.7-41.5 145.4-82.9 218.2-124.4 2.8-1.6 2.9-1.6 4.1 1.5 4.8 12.4 10.2 24.5 13.2 37.5 7.8 34.2 5.5 67.7-7.2 100.4-18.3 47.3-51.4 80-98.3 99-80.3 32.5-166.7-1.1-208.8-63.1-16.7-24.2-26.3-51-29.4-80.2-1-9.5-.9-19-.8-29z"/><path class="st0" d="M89.9 214.6c1.4-5.5 2.8-11 4.2-16.6.5-1.8 1.4-.5 2-.2 6 3.4 12.1 6.8 18.1 10.3 25.5 14.5 51 29.1 76.5 43.7 1.7 1 2.8.9 4.4 0 66-37.8 132-75.5 198-113.2 1.7-1 2.6-1 3.7.7 2.6 3.8 5.4 7.5 8.3 11.1 1.2 1.5 1.1 2.1-.6 3-26.5 15.1-53 30.2-79.5 45.4-43.2 24.7-86.4 49.3-129.5 74.1-1.9 1.1-3.3 1.2-5.3 0l-98.4-56.1c-.9-.5-2.4-.6-1.9-2.2z"/><path class="st0" d="M381.6 123.3c-.3.7-1.1.9-1.7 1.2-15.7 9-31.4 17.9-47 26.9-45.8 26.2-91.7 52.3-137.5 78.5-1.9 1.1-3.2 1-5.1-.1-28.8-16.6-57.6-33.2-86.4-49.7-2.1-1.2-2.6-2-1.3-4.3 2.2-3.8 4.1-7.7 5.9-11.7 1-2.2 1.7-2.5 3.9-1.3 26 14.9 52.2 29.7 78.2 44.6 1.8 1 3 .9 4.7-.1 56.5-32.2 113.1-64.4 169.6-96.6 1.6-.9 2.6-1 4 .4 3.8 3.7 7.8 7.1 11.7 10.7.3.5.9.8 1 1.5z"/><path class="st0" d="M348.7 98c-.5 1-1.5 1.2-2.2 1.6-50.5 28.9-101.1 57.8-151.6 86.7-1.5.8-2.5.9-4 0-22.9-13.1-45.9-26.1-68.9-39.1-1.5-.8-1.9-1.3-.6-2.8 3.2-3.6 6.3-7.4 9.3-11.2 1.3-1.6 2.2-1.8 4-.8 18.6 10.7 37.2 21.3 55.8 32 1.7 1 3 .9 4.6-.1 43.8-25.1 87.6-50.1 131.4-75.2 1.7-1 3-1.1 4.7-.2 5.8 3.3 11.7 6.2 17.5 9.1z"/></svg>