<svg version="1.1" id="Layer_1" xmlns="http://www.w3.org/2000/svg" x="0" y="0" viewBox="0 0 512 512" xml:space="preserve"><style>.st0{fill:#e82128}</style><path class="st0" d="M301.8 174.9V186c-7.8.2-15.4.4-23.1.7-8.4.3-16.3 2.2-23.1 7.3-8.6 6.3-13.1 15-15.4 25.2-1.4 6.2-2.7 12.4-4.4 18.4-3.3 11.8-11.7 18.6-23 21.9-3.6 1.1-7.5 1.4-11.4 2.1v-86.8c33.3.1 66.7.1 100.4.1z"/><path class="st0" d="M201.3 275.2c0-.6-.1-1-.1-1.5v-9.6c.6-.1 1-.2 1.4-.2l21.9-.6c10.2-.3 19.4-3.2 26.9-10.4 6-5.8 9.5-13 11.4-21 1.5-6.2 2.7-12.5 4.4-18.6 3.6-13.3 13-20.5 25.9-23.6 2.8-.7 5.7-.8 8.7-1.2v86.6c-33.5.1-66.9.1-100.5.1z"/><path d="M204.7 318.6c3.7 7.2 7.3 14.1 11 21.3-3.3.4-6.4.7-9.5 1-1.7.2-3.5.2-5.1.5-1.1.2-1.6-.1-2-1.1-2.1-5.4-4.4-10.7-6.4-16.1-.7-1.9-1.7-2.7-3.6-2.3-.4.1-.8.1-1.3.1v18.5h-15V291c.4 0 .7-.1 1-.1 8.1.1 16.2 0 24.2.2 4 .1 7.8 1.2 11 3.9 4.1 3.5 5.2 9.6 3 15.6-1.3 3.6-3.8 6.2-7.3 8zm-16.9-6.1c1.8 0 3.4.1 5 0 2.7-.2 4.8-2.5 5.2-5.5.4-2.8-.9-5.6-3.3-6.2-2.2-.6-4.5-.5-6.9-.8v12.5zm136.9 1.3c3.7.6 6.8 1.9 9.5 4.4 5 4.7 3.6 13.2-1 17.3-3.8 3.4-8.5 4.8-13.3 5-7.8.3-15.6.1-23.4.1-.2 0-.4-.1-.7-.1V291c.4-.1.7-.1 1.1-.1 8 0 15.9 0 23.9.2 3.8.1 7.4 1.1 10.3 3.8 4.7 4.3 4.3 11.7-.8 15.6-1.8 1.2-3.7 2.1-5.6 3.3zm-14.2 18.6c2.8.6 6.2.1 8.1-1 2.5-1.4 3.8-4.3 3.3-7.2-.5-3.1-1.9-4.8-4.7-5.3-1.9-.3-3.9-.3-5.8-.2-.3 0-.9.7-.9 1.1-.1 1.8 0 3.7 0 5.5v7.1zm0-33.5V310c0 .3.5.8.8.8 2-.2 4.1-.3 6-.9 2.4-.8 3.5-3.4 3.2-6-.2-2.4-1.6-4.2-3.9-4.5-1.9-.5-3.9-.4-6.1-.5zm-45.9 41.7H255c-.4 0-.9-.4-1.1-.8-7.3-8.9-15-17.7-21.2-27.5 0-.1-.2-.1-.5-.3v28.5h-11.7v-49.6c2 0 4.1.2 6.1 0 3.3-.4 5.5.8 7.5 3.5 6.2 8.1 13 15.8 18.3 24.6 0 .1.2.1.5.2v-28.1h11.7v49.5zM428.5 319v-28h11.6v49.6c-3.2 0-6.4.1-9.6-.1-.7 0-1.3-1.1-1.9-1.7-7.1-8.7-14.5-17.2-20.8-27.2v28.9h-11.7v-49.6c2.4 0 4.8.2 7.1 0 2.6-.3 4.3.6 5.8 2.8 5.2 6.9 10.6 13.6 15.8 20.5 1.2 1.6 2.2 3.3 3.3 5 .2-.1.3-.2.4-.2zm-323.9 19.7c-5 .9-9.7 1.7-14.3 2.5-1.1.2-1.5-.4-1.9-1.1-4.2-7.3-8.5-14.5-12.7-21.8-.3-.5-.6-.9-1.1-1.8v23.9h-15v-49.5h14.9v19.9c.1 0 .2.1.3.1.3-.4.5-.7.8-1.1 3.6-6.1 7.2-12.3 10.8-18.5.4-.7.8-1.3 1.8-1.1 3.9.8 7.8 1.6 11.9 2.4-2.2 3.5-4.3 6.8-6.5 10.1-1.8 2.8-3.6 5.7-5.5 8.4-.7 1.1-.7 1.7 0 2.8 5.2 7.6 10.3 15.2 15.4 22.9.3.6.6 1.2 1.1 1.9zm344.3 1.8V291c.5-.1 1-.1 1.5-.1h11.9c1.3 0 1.6.4 1.6 1.6-.1 5.5 0 11 0 16.5v1.8c.1.1.2.1.3.2.3-.5.6-.9.9-1.4 3.5-6.1 7.1-12.1 10.6-18.2.4-.7.8-1.2 1.8-1 3.9.8 7.8 1.6 11.9 2.4-3 4.6-5.9 9.1-8.7 13.6-1.1 1.6-2.1 3.3-3.2 4.9-.7 1-.7 1.7 0 2.6 5.2 7.6 10.3 15.2 15.4 22.8.4.5.7 1.1 1.2 1.9-2.9.5-5.6 1-8.3 1.5-1.9.3-3.7.6-5.6 1-1.2.3-1.9-.1-2.5-1.2-4.1-7.1-8.2-14.2-12.3-21.2-.3-.6-.7-1.1-1.4-1.7v23.4c-5.2.1-10.1.1-15.1.1zm-58 .1h-15c-.4 0-1-.6-1.1-1.1-1.1-3.1-2.2-6.3-3.1-9.5-.3-.9-.7-1.2-1.6-1.2-4.3.1-8.7.1-13 0-1 0-1.4.4-1.7 1.2-1.2 3.2-2.5 6.3-3.8 9.4-.2.5-.8 1.1-1.3 1.1-3.5.1-7 .1-10.7.1.1-.5.2-.9.3-1.2 6.4-15.7 12.7-31.3 19.1-47 .5-1.2 1.1-1.6 2.5-1.6 3.2.1 6.4 0 9.5.1.6 0 1.4.5 1.6 1 6.1 16 12.2 32.1 18.3 48.2v.5zm-32.4-19.7h10.4c-1.6-5.9-3.2-11.6-4.9-17.7-1.9 6.1-3.7 11.8-5.5 17.7zM133.4 291h29.9v9.1h-14.9v10h14.5v9.3h-14.6v12.1h17.9v9.1h-32.9c.1-16.6.1-33 .1-49.6zM18.2 337c1.6-2.8 3-5.5 4.4-8 1.8.9 3.4 2.1 5.1 2.5 1.9.5 4.1.7 6 .2 3.6-.8 4.9-4.4 2.9-7.5-1-1.6-2.4-2.9-3.8-4.2-2.7-2.5-5.7-4.7-8.3-7.3-6.7-6.7-5.1-16.3 3.4-20.5 7.7-3.8 15.3-2.7 23 .9-1.3 2.7-2.5 5.2-3.6 7.4-2.8-.4-5.4-1-8-1.2-1.6-.2-3.1.4-3.8 2.1-.7 1.6.2 2.9 1.3 3.8 3.2 3 6.5 5.7 9.7 8.7 3.1 3 5.4 6.6 5.8 11.1.6 6.5-3.5 12.3-9 14.5-8 3.1-15.9 2.5-23.5-1.5-.5-.1-.9-.5-1.6-1zm86.7 17.4v-7.8c0-.4.2-.9.5-1.1 3.6-1.5 3.9-4.8 4.1-8 .2-5.2.2-10.3.2-15.5v-29.4c0-.5.1-1 .1-1.6h14.7c0 .4.1.8.1 1.1 0 14.4.1 28.8-.1 43.3-.1 9.5-6 16.6-15 18.4-1.5.3-3 .4-4.6.6z"/></svg>