<svg xmlns="http://www.w3.org/2000/svg" viewBox="0 0 512 512"><path d="M98 307.9c-4.1-9.4-5.6-19.4-6.8-29.4-3.4-28.4-.2-56.1 10.8-82.5 21.1-50.5 58.4-83.2 110.6-99 .9-.3 2-.1 3-.1 9.3-.5 18.6-.9 27.9-1 26.6-.4 51.2 6.3 74 19.9 19.5 11.6 34.5 27.6 44.2 48.1 9 18.7 12.6 38.4 10.5 59.4-1.6 15.8-5.7 30.6-12.4 44.8-9.1 19.2-22.2 35.4-38.1 49.4-6.7 5.9-13.5 11.7-21.7 15.6-.1-1.8-.2-3.7-.2-5.5v-163c0-6.7-1.8-8.5-8.6-8.6-11.5 0-23 .1-34.5-.1-4.1 0-7.8.9-11.5 2.8-15.8 8.2-31.6 16.3-47.5 24.4-3.2 1.6-4.7 4-4.7 7.5 0 8.7-.1 17.3 0 26 .1 5.1 2.3 7.2 7.4 7.2 8.8.1 17.7.2 26.5-.1 3.4-.1 4.1 1 4.1 4.2-.1 43.3-.1 86.7-.1 130-4.7 1.7-9.8 1.6-14.7 1.8-21.4.8-42.3-2-62.3-9.9-19.3-7.6-36.1-18.7-49.6-34.6-1.7-2-2.6-5.5-6.2-5.7l-.1-.3c.7-.5.5-.9 0-1.3z" fill="#af0000"/><path d="M98.4 309.7c3.5.2 4.4 3.6 6.2 5.7 13.5 15.9 30.3 27 49.6 34.6 20 7.9 40.9 10.7 62.3 9.9 4.8-.2 9.9-.1 14.7-1.8 13.9-.8 27.1-4.9 39.9-9.9 10.2-4 20.3-8.3 29-15.1 8.2-3.9 15.1-9.7 21.7-15.6 15.8-14 29-30.2 38.1-49.4 6.7-14.2 10.8-29 12.4-44.8 2.1-21-1.5-40.7-10.5-59.4-9.8-20.4-24.8-36.4-44.2-48.1-22.8-13.6-47.4-20.3-74-19.9-9.3.1-18.6.5-27.9 1 15.1-4.8 30.7-5.9 46.3-5.4 41.7 1.4 78.6 15.8 108.6 44.8 47.9 46.3 64.5 103 46.5 167-17.9 63.8-61.6 103.4-126.2 118.1-80.7 18.4-165.7-30.4-191.8-108.9-.2-.9-.4-1.9-.7-2.8zm-.4-1.8c.5.4.7.8.3 1.4-.1-.4-.2-.9-.3-1.4z" fill="#e40101"/><path d="M300.1 333c-8.8 6.8-18.8 11.1-29 15.1-12.9 5-26 9.1-39.9 9.9 0-43.3 0-86.7.1-130 0-3.2-.7-4.3-4.1-4.2-8.8.2-17.7.1-26.5.1-5.1 0-7.4-2.1-7.4-7.2-.1-8.7 0-17.3 0-26 0-3.5 1.5-5.9 4.7-7.5 15.9-8 31.7-16.2 47.5-24.4 3.6-1.9 7.3-2.9 11.5-2.8 11.5.1 23 0 34.5.1 6.7 0 8.6 1.8 8.6 8.6v163c-.2 1.7-.1 3.5 0 5.3z" fill="#fefdfd"/></svg>