<svg xmlns="http://www.w3.org/2000/svg" viewBox="0 0 470.7 434"><defs><style>.a{fill:none}.e{fill:#fff}.f{fill:#0b3087}.j{fill:#e53527}</style><clipPath id="a" transform="translate(-38.9 -139.5)"><path class="a" d="M251.3 271l109.2 31.4-67.1-54.8-42.1 23.4z"/></clipPath><linearGradient id="b" y1="512" x2="1" y2="512" gradientTransform="matrix(0 45.29 45.29 0 -22848.33 282.45)" gradientUnits="userSpaceOnUse"><stop offset="0" stop-color="#e53527"/><stop offset="1" stop-color="#c32f23"/></linearGradient><clipPath id="c" transform="translate(-38.9 -139.5)"><path class="a" d="M142 239.7l67.1 54.7 42.2-23.4L142 239.7z"/></clipPath><linearGradient id="d" y1="512" x2="1" y2="512" gradientTransform="matrix(0 113.67 113.67 0 -58004.03 211.87)" gradientUnits="userSpaceOnUse"><stop offset="0" stop-color="#dedbec"/><stop offset="1" stop-color="#908abd"/></linearGradient><clipPath id="e" transform="translate(-38.9 -139.5)"><path class="a" d="M282.6 161.8l10.8 85.8 39.6-55.5a113 113 0 0 0-50.4-30.3z"/></clipPath><linearGradient id="f" y1="512" x2="1" y2="512" gradientTransform="matrix(0 -59.78 -59.78 0 30908.26 227.13)" gradientUnits="userSpaceOnUse"><stop offset="0" stop-color="#7974b0"/><stop offset="1" stop-color="#c8c4e0"/></linearGradient><clipPath id="g" transform="translate(-38.9 -139.5)"><path class="a" d="M293.4 247.6l68.2-4.1a113.9 113.9 0 0 0-28.6-51.4z"/></clipPath><linearGradient id="h" y1="512" x2="1" y2="512" gradientTransform="matrix(0 62.04 62.04 0 -31416.83 218.41)" gradientUnits="userSpaceOnUse"><stop offset="0" stop-color="#e53527"/><stop offset=".53" stop-color="#c73023"/><stop offset="1" stop-color="#a82a1f"/></linearGradient><clipPath id="i" transform="translate(-38.9 -139.5)"><path class="a" d="M293.4 247.6l67.1 54.8a114.5 114.5 0 0 0 1.1-58.9z"/></clipPath><linearGradient id="j" y1="512" x2="1" y2="512" gradientTransform="matrix(0 77.56 77.56 0 -39347.61 257.49)" gradientUnits="userSpaceOnUse"><stop offset="0" stop-color="#f5f3f9"/><stop offset="1" stop-color="#bdb8d9"/></linearGradient><clipPath id="k" transform="translate(-38.9 -139.5)"><path class="a" d="M142 239.7l85.9-10.8-55.6-39.6a113 113 0 0 0-30.3 50.4"/></clipPath><linearGradient id="l" y1="512" x2="1" y2="512" gradientTransform="matrix(0 75.16 75.16 0 -38188.62 208.63)" gradientUnits="userSpaceOnUse"><stop offset="0" stop-color="#fff19a"/><stop offset=".39" stop-color="#ffe774"/><stop offset="1" stop-color="#ffd733"/></linearGradient><clipPath id="m" transform="translate(-38.9 -139.5)"><path class="a" d="M172.3 189.3l55.6 39.6-4.1-68.2a113.8 113.8 0 0 0-51.5 28.6"/></clipPath><linearGradient id="n" y1="512" x2="1" y2="512" gradientTransform="matrix(0 69 69 0 -35014.74 177.79)" gradientUnits="userSpaceOnUse"><stop offset="0" stop-color="#f4a687"/><stop offset=".35" stop-color="#ef7d65"/><stop offset="1" stop-color="#e53527"/></linearGradient><clipPath id="o" transform="translate(-38.9 -139.5)"><path class="a" d="M250.6 157.3a114.4 114.4 0 0 0-26.8 3.4l4.1 68.2 54.7-67.1a113.6 113.6 0 0 0-30.8-4.5h-1.2z"/></clipPath><linearGradient id="p" y1="512" x2="1" y2="512" gradientTransform="matrix(0 56.85 56.85 0 -28777.19 163.58)" gradientUnits="userSpaceOnUse"><stop offset="0" stop-color="#4066aa"/><stop offset=".43" stop-color="#23529a"/><stop offset="1" stop-color="#003a87"/></linearGradient><clipPath id="q" transform="translate(-38.9 -139.5)"><path class="a" d="M141 298.5a113.6 113.6 0 0 0 28.5 51.5l39.6-55.6z"/></clipPath><linearGradient id="r" y1="512" x2="1" y2="512" gradientTransform="matrix(0 56.97 56.97 0 -28983.25 301.92)" gradientUnits="userSpaceOnUse"><stop offset="0" stop-color="#fff"/><stop offset="1" stop-color="#dcdaeb"/></linearGradient><clipPath id="s" transform="translate(-38.9 -139.5)"><path class="a" d="M274.6 313.2l55.6 39.6a113 113 0 0 0 30.3-50.4z"/></clipPath><linearGradient id="t" y1="512" x2="1" y2="512" gradientTransform="matrix(0 79.58 79.58 0 -40293.14 312.51)" gradientUnits="userSpaceOnUse"><stop offset="0" stop-color="#d3d0e6"/><stop offset="1" stop-color="#7974b0"/></linearGradient><clipPath id="u" transform="translate(-38.9 -139.5)"><path class="a" d="M274.6 313.2l4.2 68.1a113.8 113.8 0 0 0 51.4-28.5z"/></clipPath><linearGradient id="v" y1="512" x2="1" y2="512" gradientTransform="matrix(0 70.1 70.1 0 -35559.37 324.16)" gradientUnits="userSpaceOnUse"><stop offset="0" stop-color="#e53527"/><stop offset=".71" stop-color="#c12f22"/><stop offset="1" stop-color="#b12c20"/></linearGradient><clipPath id="w" transform="translate(-38.9 -139.5)"><path class="a" d="M219.9 380.3a113.4 113.4 0 0 0 58.9 1l-4.2-68.1z"/></clipPath><linearGradient id="x" y1="512" x2="1" y2="512" gradientTransform="matrix(0 54.3 54.3 0 -27552.43 341.21)" gradientUnits="userSpaceOnUse"><stop offset="0" stop-color="#f5b3ad"/><stop offset=".97" stop-color="#ee8795"/><stop offset="1" stop-color="#ee8694"/></linearGradient></defs><g clip-path="url(#a)"><path transform="rotate(-74 195.807 256.47)" fill="url(#b)" d="M239.7 232.5h135.9v135.87H239.7z"/></g><path fill="#f5b2ac" d="M212.3 131.5l42.2-23.4-10.8-85.9-31.4 109.3z"/><path class="e" d="M235.7 173.7l-54.7 67 3.5-6.6 49.4-60.6 1.8.2z"/><path class="e" d="M212.3 131.5l23.4 42.2-1.8-.2-21.1-38.1-.5-3.9z"/><path class="f" d="M212.3 131.5l23.4 42.2 85.9-10.9-109.3-31.3z"/><g clip-path="url(#c)"><path transform="rotate(-74 86.642 225.183)" fill="url(#d)" d="M157.2 209.1h82.6v120.1h-82.6z"/></g><path fill="#fd0" d="M212.3 131.5l-42.1 23.4 10.8 85.8 31.3-109.2z"/><path class="j" d="M212.3 131.5L189 89.3l54.7-67.1-31.4 109.3z"/><path fill="#f4f3f9" d="M212.3 131.5L189 89.3l-85.9 10.9 109.2 31.3z"/><g clip-path="url(#e)"><path transform="rotate(-75 196.862 159.133)" fill="url(#f)" d="M259.2 168.1h96v70.95h-96z"/></g><g clip-path="url(#g)"><path transform="rotate(-30 31.305 295.188)" fill="url(#h)" d="M218.1 199.2h186.1v186.13H218.1z"/></g><g clip-path="url(#i)"><path transform="rotate(-20 -129.545 411.343)" fill="url(#j)" d="M169.3 254.3H402v232.69H169.3z"/></g><g clip-path="url(#k)"><path transform="rotate(-74 114.23 259.808)" fill="url(#l)" d="M113.3 191h225.5v225.49H113.3z"/></g><g clip-path="url(#m)"><path transform="rotate(-70 121.144 230.193)" fill="url(#n)" d="M136.7 168.7h207v206.99h-207z"/></g><g clip-path="url(#o)"><path transform="rotate(-74 175.644 201.225)" fill="url(#p)" d="M202.2 159.9h170.5v170.54H202.2z"/></g><path class="f" d="M130.6 210.5a113 113 0 0 0 50.4 30.3l-10.8-85.9-39.6 55.6"/><g clip-path="url(#q)"><path transform="rotate(-5 -1485.758 760.09)" fill="url(#r)" d="M46 298.6h170.9v170.9H46z"/></g><path class="j" d="M170.2 154.9l-68.1 4.1a113 113 0 0 1 1-58.8l67.1 54.7"/><g clip-path="url(#s)"><path transform="rotate(-74 250.306 382.115)" fill="url(#t)" d="M242.7 306.6h238.7v238.75H242.7z"/></g><g clip-path="url(#u)"><path transform="rotate(-30 -3.953 432.74)" fill="url(#v)" d="M170.8 324.7h210.3V535H170.8z"/></g><g clip-path="url(#w)"><path transform="rotate(-45 61.6 326.884)" fill="url(#x)" d="M203 303.1h93.1v93.08H203z"/></g></svg>