<svg id="Layer_1" xmlns="http://www.w3.org/2000/svg" viewBox="0 0 512 512"><style>.st1{fill-rule:evenodd;clip-rule:evenodd;fill:#fff}</style><path fill-rule="evenodd" clip-rule="evenodd" fill="#000875" d="M-1 1h512v511H-1z"/><path class="st1" d="M243.9 300.5v-21.7s1.8-25.3-23.5-26.2c-25.3-.9-31.3-11.4-30.4-23.2 0 0-28.3 9-28.3 27.1 0 18 27.7 14.1 33.4 13.2 0 0 39.1-9.6 39.1 14.1 0 0 1.5 9-10.2 11.1 0 0-7.5.6-3.9 5.4h23.8v.2zm25.2 0h28.3c3.6-4.8-3.9-5.4-3.9-5.4-11.7-2.1-12.1-11.1-12.1-11.1 0-23.8 42.2-13.5 42.2-13.5 5.7.9 34.8 4.2 34.8-13.9 0 0-.3-13.5-21.4-12.3 0 0 13.2-25-19.9-25.9 0 0 15.9-22.6-15-25.6 0 0 4.5-32.8-32.8-32.8s-37.9 32.2-37.9 32.2 0 17.1 12.3 23.2c0 0 7.6 2.8 5.3-6.5 0 0-4.7-9.9-4.7-14.2 0 0 .5-14 15.6-14 0 0 11.3 1.6 10.2 16 0 0-1.1 8.6-5.2 15.1 0 0-2.9 7.7-.9 9.5 0 0 3.6 3.2 5.6-2.3 0 0 6.1-10.4 13.5-3.8 7.4 6.5-1.6 13.5-1.6 13.5l-6.5 7s-3.4 3.6-1.1 6.8c2.3 3.2 5.4 0 5.4 0s10.6-9.3 15.1-2.9c0 0 2.9 7-5.9 11.3 0 0-19.6 12-19.6 31.1v18.5h.2z"/><path class="st1" d="M259.4 300.5v-40s3.2-20.1-25.3-29.3c-28.4-9.3-12.4-31.1-9.7-34.1 0 0-30 9.1-30 28.3 0 18 32 18.2 32 18.2s21.7 3.4 21.7 20.1v36.8h11.3zM77.9 312.1h12.7c10.5 0 21.2.4 23.1 11.3 2 10.8-6.8 16.2-18.2 16.2H89l-.8 15.7H75.5l2.4-43.2zm11.5 18.1h3.4c5.1 0 9.3-1.2 8.4-5-.8-3.1-4.1-3.7-7.5-3.7H90l-.6 8.7zm38.6-18.1h16l13.5 43.2h-12.8l-2.5-9.2h-18.5l-4.4 9.2h-13.8l22.5-43.2zm7.5 8.9h-.1l-7.9 16.9h12.3l-4.3-16.9zm132.5-8.9h16l13.5 43.2h-12.8l-2.5-9.2h-18.5l-4.4 9.2h-13.8l22.5-43.2zm7.5 8.9h-.1l-7.9 16.9h12.3l-4.3-16.9zm-100.6 17.7l-.7 16.6h-12.8l2.2-43.2h15.2c9.1.1 21.6-.1 22 11 .3 7.7-3 10.7-8.7 12.5l8.3 19.7h-15l-5.9-16.6h-4.6zm.2-7.8h4.3c5.5 0 9.6-1.2 8.9-5.3-.6-3.1-2.8-4.4-6.7-4.5h-6.1l-.4 9.8zm35.1-18.8h21.2c4.9 0 11.7 1.7 13 9.9.9 5.8-2.3 9.7-8.4 11.4 5.6.7 8.2 3.2 9 8 1.4 9.2-4.4 13.6-16.3 13.6l-21.7.2 3.2-43.1zm11.3 17h4c4.5 0 6.9-1.9 6.5-4.9-.5-3.5-3.2-4-7.2-4H222l-.5 8.9zm-1.3 18h3.4c6.4 0 10.5-1.6 9.8-5.8-.6-3.8-3.7-4.3-9.4-4.3h-3.1l-.7 10.1zm83.9-35h14.3l13.3 29.3h.1l1.3-29.3h12l-2.2 43.1H327L315.1 328h-.1l-1.2 27.2h-12l2.3-43.1zm135.9 0h14.3l13.3 29.3h.1l1.3-29.3h12l-2.3 43.1h-15.8L451 328h-.1l-1.2 27.2h-12.1l2.4-43.1zm-84.9 0H368l-.9 17.6h.1l14-17.6h16.5L378.8 333l14 22.2h-14.7l-11.2-19.6h-.1l-1 19.6h-12.9l2.2-43.1zm45.2 0h30.3l-.4 9h-17.7l-.5 7.7h16.6l-.5 9.4h-16.6l-.5 8h18.5l-.3 9h-31.3l2.4-43.1zM69.1 322.2l1.7-9.8s-5.9-1.9-14.3-1.9c-8.5 0-16.7 3.1-16.7 11.6s5.9 11.9 9 14.7c3.1 2.8 12.2 9.9-1.6 8.3 0 0-4.5-.8-8.8-3.1L37 353s4.3 1.5 12.2 2.2c7.6.7 17.9-.2 19.5-10 1.6-9.8-9-15.7-9-15.7s-14.2-9.2.7-8.5c.1 0 5.1.3 8.7 1.2 0 0-3.6-.9 0 0z"/></svg>