<svg xmlns="http://www.w3.org/2000/svg" viewBox="0 0 512 512"><path fill="#ffcb06" d="M0 0h512v512H0z"/><path d="M329.5 127c3.2-4.3 6.1-8.5 9.4-12.4 1-1.2 2.9-2.1 4.6-2.5 2.5-.6 3.2.9 3.2 3.3-.1 11.1 0 22.3 0 33.4V186c0 1.5 1 3.9-1.9 4.2-2.6.3-4.8.4-6-3-6.2-16.5-14.5-31.8-26.5-45-11.7-13-25.7-22.6-43.3-24.8-22.2-2.8-43 1-58 19.4-21.7 26.6-13.6 64.8 17.7 81.6 13.4 7.2 28.3 11.6 42.6 17.2 15.8 6.2 32.3 11 47.4 18.5 30.9 15.3 46.3 45 42.9 79.3-3.5 35.2-24.2 56.6-55.8 68.9-21.6 8.4-44.3 9.7-67.2 8.1-18.8-1.3-36.9-5.3-53.8-13.8-.2-.1-.5-.2-.7-.3-7.7-3.9-7.7-3.9-13 3.2-1 1.3-2.1 2.6-2.9 4-1.7 3.3-4.3 4.1-8.7 2.8v-10.2c-.3-22.8-.7-45.5-.9-68.3 0-1.7-1.4-4.4 2-4.8 3-.4 4.5.6 5.6 3.6 8.6 22.8 20.6 43.7 40.2 58.8 25 19.1 63.1 22.5 89.7 4.6 18.5-12.5 25.3-30.8 23.9-52.5-1.2-19.9-12.8-33-30-40.7-15.8-7.1-32.3-12.6-48.6-18.6-14-5.2-28.6-9-41.3-17.2-21.8-14-36.5-33.2-39-59.4-3.6-38 13.1-70 50.4-85.5 19.9-8.3 40.8-10 62.1-8.2 16.9 1.5 33 5.6 47.8 14.1 2.4 1.4 4.9 3 8.1 5z"/></svg>