<svg xmlns="http://www.w3.org/2000/svg" viewBox="0 0 512 512"><path fill="#ed0100" d="M1-1h509v511H1z"/><path d="M197.3 240.6c.2 11.7 2.8 22.6 8.7 32.5 10.2 17.3 20.4 34.7 30.4 52.2 6.6 11.6 12.9 23.5 19.5 35.4 4.6-6.8 7.2-15.1 8.1-24.1 1.3-12.8-1.6-24.8-8.1-35.9-11-18.8-22-37.7-32.9-56.6-11-19-11.7-38.5-2-58.2.7-1.4 1.7-2.7 2.4-3.9 16.7 35.3 38.4 67.5 57 101.4 3.3 6.1 6.1 12.5 9.3 19.1 6.5-10.2 9.1-21.4 8.7-33.4-.4-14.7-7.8-26.6-14.9-38.6-9.4-15.9-18.9-31.8-27.7-48-9.9-18.1-9.7-36.6-.7-55.1.8-1.6 1.8-3 2.7-4.6 12.1 28.4 29.5 53.3 44.1 79.7 6.2 11.1 12.8 21.8 14 34.9.1 1.3 2.3 3 3.9 3.5 16.7 5 32.7 11.4 46.8 21.8 11.2 8.2 20.6 17.9 24.8 31.7 4.3 14.2 1.1 27-7.4 38.7-11.3 15.5-27.1 24.8-44.4 31.9-32.1 13.1-65.6 16.7-99.9 14.6-24.5-1.5-48.1-6.5-70.6-16.5-12.4-5.5-23.9-12.5-33.4-22.3-21-21.8-20.9-47.6.5-68.9 16.3-16.2 36.7-24.8 58.5-30.9.5-.3 1.3-.3 2.6-.4z" fill="#fff"/></svg>