<svg xmlns="http://www.w3.org/2000/svg" viewBox="0 0 512 512"><path d="M97.1 256.2c-.1-1.4-.2-2.8-.2-4.2 0-51.1 0-102.2-.1-153.4 0-3.6.7-4.7 4.6-4.7 105.5.1 211 .1 316.5.1 2.8 0 4.6-.1 4.6 3.8-.2 52-.1 103.9-.1 155.9 0 .8-.1 1.7-.2 2.5-22.7.1-45.4.1-68.1.2H165c-22.7 0-45.3-.1-67.9-.2z" fill="#c9242b"/><path d="M97.1 256.2c22.6.1 45.2.1 67.8.2 0 4 .3 7.9-.1 11.9-.4 3.7 1 4.3 4.4 4.3 46.7-.1 93.5-.1 140.2-.1 13.7 0 27.4-.1 41.1.1 2.6 0 3.8-.5 3.6-3.4-.3-4.2-.1-8.5-.1-12.7 22.7-.1 45.4-.1 68.1-.2.1 1.4.3 2.8.3 4.2 0 51.4 0 102.8.1 154.2 0 3.7-1.1 4.3-4.5 4.3-105.6-.1-211.3-.1-316.9 0-3.5 0-4.4-.8-4.4-4.3.1-51.4.1-102.8.1-154.2.1-1.5.3-2.9.3-4.3z" fill="#080b0a"/><path d="M354 256.4c0 4.2-.2 8.5.1 12.7.2 2.9-.9 3.4-3.6 3.4-13.7-.1-27.4-.1-41.1-.1-46.7 0-93.5 0-140.2.1-3.4 0-4.8-.6-4.4-4.3.4-3.9.1-7.9.1-11.9 63.1.1 126.1.1 189.1.1z" fill="#fefefd"/></svg>