<svg id="Layer_1" xmlns="http://www.w3.org/2000/svg" viewBox="0 0 512 512"><style>.st0{fill:#fd6a27}</style><path class="st0" d="M410.4 251.3C405 338.8 342.6 400.5 258.6 399c-95-1.7-148.9-74.4-148.1-149 1-96.3 75.1-152.2 151.9-150 91.8 2.6 146 71.7 148 151.3zm-133.7-62.8c0-16.3-.7-31.2.2-46 .8-12.8-6-14.5-16.1-14.2-9.7.2-18.8-.7-17.9 14 1 15 .2 30.2.2 47.4-36.4-16.7-65.8-9.5-88.9 17.8-18.8 22.3-19.8 49.2-6.2 73.7 20.9 37.9 54.8 44.5 95.2 29.5 0 16.9.7 31.8-.2 46.7-.8 13.7 7.8 13.2 17 13.2s17.7.4 16.9-13.3c-.9-15.1-.2-30.3-.2-46 47.3 11.4 74 4 92.5-24.6 14.8-22.8 14.3-55.8-1.3-77.1-19.2-26.4-48.7-33.8-91.2-21.1z"/><path class="st0" d="M208.1 215.9c19.5-.1 34.9 14.6 35.1 33.6.2 18.3-15.9 33.7-35 33.5-19.1-.1-33.4-14-33.7-32.8-.4-19.7 13.8-34.2 33.6-34.3zM310.9 283c-18.3-.2-33.9-15.3-34.1-33-.2-18.7 15.4-34 34.7-34.1 19.9-.1 34.3 14.3 34.1 33.9-.2 19.6-14.7 33.4-34.7 33.2z"/></svg>