<svg xmlns="http://www.w3.org/2000/svg" viewBox="0 0 512 512"><path fill="#15569c" d="M1 0h511v512H1z"/><path d="M94 146c1.3.1 2.6.1 3.9.1 41 0 82.1 0 123.1-.1 3.4 0 4.8.8 5.8 4.3 10.6 40 21.3 80 32.1 119.9.4 1.4.9 2.8 2.1 4.3 2.2-8.5 4.4-17.1 6.6-25.6 8.4-33 16.9-65.9 25.2-98.9.8-3 2-3.9 5-3.9 40.8.1 81.6.1 122.4.1h3.8c-.7 3.8-1.2 7.4-2.1 10.9-1.3 5-3.1 10-4.4 15-.8 2.8-2.1 3.8-5.2 3.8-24.7-.1-49.5 0-74.2-.2-3.2 0-4.7.9-5.3 4.1-.5 2.9-1.6 5.6-2.6 9h79.9c-.9 1.8-1.4 3.2-2.1 4.3-4.7 7.4-9.6 14.7-14.3 22.1-1.5 2.4-3.4 3.2-6.2 3.1-20.7-.1-41.4 0-62.1-.1-3.5 0-5.2 1-5.9 4.4-.5 2.6-1.5 5.2-2.4 8.4h62.1c.2.3.3.7.5 1-6.8 6.2-13.9 12.2-20.5 18.5-8.4 8-17.8 11.8-29.6 10.3-6-.8-12.1 0-18.2-.2-2.8-.1-3.9.9-4.7 3.5-11 35.8-22.1 71.6-32.9 107.5-1.1 3.7-2.6 5.1-6.5 4.8-5.6-.4-11.2-.2-16.8 0-2.6.1-3.6-.8-4.4-3.3-11.1-35.8-22.4-71.6-33.4-107.4-1.2-4-2.9-5.3-7.1-5.2-9.9.4-19.7.2-29.6.1-1.5 0-3.1-.4-4.3-1.1-11.9-7.8-22.4-17.2-32.3-27.4-.1-.1-.1-.4-.3-1.1h62.5c-1.3-4.3-2.3-8.1-3.8-11.6-.4-.8-2.7-1.1-4.1-1.1-20.5-.1-40.9-.2-61.4 0-3.9 0-6.4-1-8.5-4.3-5.1-8.1-10.5-16.1-15.7-24.1.2-.3.5-.7.7-1h79.6c-1.4-4.5-2.4-8.3-3.9-12-.3-.8-2.4-1.1-3.6-1.1-24.9-.1-49.7-.1-74.6 0-3.1 0-4.8-.7-5.5-3.9-1.9-7.7-4-15.4-6.1-23-.2-.8-.6-1.5-.9-2.3.2-.1.2-.4.2-.6z" fill="#fff"/></svg>