<?xml version="1.0" encoding="utf-8"?>
<!-- Generator: Adobe Illustrator 22.1.0, SVG Export Plug-In . SVG Version: 6.00 Build 0)  -->
<svg version="1.1" id="Layer_1" xmlns="http://www.w3.org/2000/svg" xmlns:xlink="http://www.w3.org/1999/xlink" x="0px" y="0px"
	 viewBox="0 0 512 512" style="enable-background:new 0 0 512 512;" xml:space="preserve">
<style type="text/css">
	.st0{fill:#F9C333;}
	.st1{fill:#760314;}
</style>
<rect class="st0" width="512" height="512"/>
<g>
	<path class="st1" d="M511.4,26.6c-5.9,6.8-13.1,11.7-21.4,15.2c-4.6,1.9-9.4,3.6-14.3,4.4c-4.4,0.7-8.9,1-13.4,1.5
		c-1.1,0.1-2.2,0.2-3.2,0.6c-3.3,1.4-6.4,3-9.7,4.3c-5.4,2.1-10.9,4.2-16.3,6.1c-3.1,1.1-6.2,2.2-9.5,3c-6.8,1.6-13.6,3-20.4,4.4
		c-1.9,0.4-3.9,0.5-5.9,0.9c-5.2,1-10.4,0.2-15.5-0.7c-5.4-1-10.9-2.3-16.5-1.5c-4.1,0.6-8.1,1.4-12.1,2.5
		c-5.2,1.4-10.3,2.9-15.7,3.2c-5.3,0.2-9.8-1.9-13.8-5.2c-1.2-1-2.3-2-3.6-3.2c-0.2,1.8,0.2,3.2,0.9,4.5c2,3.6,5.2,5.9,8.8,7.8
		c0.8,0.4,1.6,0.9,2.3,1.5c-6.3,0.4-11.5-2.3-16.8-5.2c1.3,3.6,3.9,6.2,7.2,7.9c3.2,1.7,6.6,3,10.2,4.6c-4.2,0.6-8.2,0.1-12.1-1.2
		c-4-1.3-7.2-3.7-10.2-7c-0.6,1.6,0.4,2.7,0.9,3.7c2.4,4.7,6.4,7.7,11.4,9.5c5.5,2,10.9,1.7,16.3-0.2c4.1-1.5,7.5-4.1,10.3-7.3
		c3.1-3.5,6.9-5.8,11.2-7.2c4.1-1.4,8.4-2.2,12.6-3.1c0.7-0.2,1.4,0,2.1,0c0,0.2,0.1,0.4,0.1,0.5c-1.1,0.5-2.3,0.9-3.4,1.5
		c-3.1,1.8-6.2,3.5-9.2,5.5c-5.6,3.8-9.9,8.9-13.1,14.7c-1.7,3.1-3,6.5-4.4,9.8c-2.9,7.1-7.5,12.9-13.1,18
		c-6.7,6.1-14.3,10.8-22.4,14.8c-1.8,0.9-3.6,1.8-5.5,3.2c3.8,0.7,7.6,1.4,11.4,2.1c0,0.2,0,0.4,0,0.6c-0.5,0.1-1.1,0.3-1.6,0.4
		c-5.6,0.6-11.2,1.1-16.8,1.6c-1.1,0.1-1.6,0.3-1.5,1.6c0.1,1.3-0.3,2.6-0.5,4.2c4.8,0.7,9.7,1.3,14.7,2c0,0.1,0,0.3,0,0.4
		c-0.5,0.2-1,0.4-1.5,0.5c-4.3,0.4-8.6,0.8-12.9,1.2c-4.8,0.4-9.4,1.7-13.5,4.2c-0.1,0.1-0.2,0.2-0.4,0.6c7.1,1,13.9,1.9,20.8,2.8
		c0,0.1,0,0.3,0.1,0.4c-0.6,0.1-1.2,0.4-1.8,0.4c-3.2,0.2-6.4,0.3-9.5,0.6c-4.6,0.3-9.2,0.7-13.7,1.1c-1.5,0.1-1.8,0.7-1.3,2.1
		c0,0,0.1,0.1,0.1,0.1c0.3,4.1,3.5,4.3,6.5,4.7c4.2,0.5,8.4,1.1,12.5,1.7c0.3,0,0.7,0.2,1,0.6c-0.4,0.1-0.8,0.2-1.2,0.2
		c-5.7,0.3-11.5,0.6-17.2,0.9c-1.1,0.1-1.7,0.4-2,1.6c-0.3,1.1-0.7,2.3-1.1,3.4c-0.4,1.1-0.1,1.6,1,1.8c2.9,0.5,5.8,0.9,8.7,1.3
		c3.3,0.5,6.6,1.1,9.9,1.7c0,0.1,0,0.3,0,0.4c-0.6,0.1-1.1,0.3-1.7,0.3c-5.9,0.3-11.8,0.5-17.8,0.7c-1.3,0-2.2,0.3-2.3,1.8
		c0,0,0,0.1,0,0.1c-1,3.1-1,3.1,2.2,3.8c4.9,0.9,9.8,1.7,14.7,2.6c0.5,0.1,1,0.2,1.4,0.3c0,0.1,0,0.3,0,0.4
		c-0.5,0.1-0.9,0.3-1.4,0.3c-4.8,0.2-9.7,0.4-14.5,0.5c-1.6,0.1-3.1,0.2-4.7,0.2c-1.9,0-3.2,0.9-4.3,2.3c-0.3,0.4-0.6,0.7-0.9,1.1
		c-1.2,1.2-1.2,1.4,0.6,1.9c3.2,0.7,6.5,1.4,9.7,2c1.8,0.4,3.6,0.7,5.4,1.4c-0.6,0.2-1.1,0.4-1.7,0.4c-4.3,0.4-8.6,0.8-12.9,1.2
		c-1.6,0.2-3.2,0.3-4.8,0.5c-1.6,0.2-1.6,1.5-1.9,2.7c-0.3,1.2,0.7,1.3,1.4,1.5c3.5,1,7,1.9,10.6,2.8c1.5,0.4,3,0.8,4.6,1.1
		c0,0.1,0,0.3,0,0.4c-0.5,0.1-1.1,0.3-1.6,0.4c-4.6,0.3-9.2,0.6-13.8,1c-0.7,0.1-1.7-0.4-1.9,0.9c-0.2,1.5,0.3,2.8,1.5,3.2
		c2.1,0.7,4.3,1.3,6.4,1.9c3.1,0.9,6.2,1.8,9.4,3c-0.4,0.1-0.8,0.3-1.2,0.3c-4.1,0.2-8.2,0.3-12.4,0.5c-1.5,0.1-1.6,0.5-1.1,1.9
		c1,2.9,3.5,3.4,6,4.1c4.1,1.1,8.2,2.2,12.3,3.3c0,0.2,0,0.4,0,0.6c-4,0-8.1,0-12.1,0c-0.1,0.2-0.1,0.3-0.2,0.5
		c0.2,0.4,0.4,0.9,0.7,1.3c0.8,0.9,1.6,1.9,2.6,2.7c0.8,0.6,1.8,1.1,2.7,1.4c3.1,0.9,6.2,1.6,9.4,2.3c0.3,0.1,0.5,0.2,0.8,0.3
		c0,0.2,0,0.3,0,0.5c-2.8,0-5.5,0-8.3,0c-0.1,0.2-0.1,0.3-0.2,0.5c5.3,5.9,7.4,12.6,5.5,20.4c-0.3,1.2-0.8,2.3-1.2,3.5
		c-0.2,0-0.4-0.1-0.6-0.1c0-0.5-0.1-1-0.1-1.5c-0.2-6.5-2.5-12.2-6.6-17c-2.9-3.4-6.3-6.4-9.4-9.6c-2.8-2.8-4.6-6.3-6.1-10
		c-2-4.9-2.6-10-2.8-15.2c-0.1-1,0.1-2.1,0.1-3.1c-0.1-0.1-0.2-0.2-0.4-0.2c-0.4,0.4-1,0.8-1.2,1.3c-1.3,3.1-2.9,6.1-3.8,9.3
		c-1,3.7-1.5,7.6-0.6,11.5c0.2,0.8,0.2,1.6,0.3,2.4c-0.2,0-0.4,0.1-0.5,0.1c-0.8-2.1-1.7-4.1-2.3-6.3c-0.7-2.9-1.4-5.9-1.6-8.9
		c-0.2-2.7,0.4-5.4,0.5-8.1c0-0.6-0.3-1.2-0.4-1.8c-0.6,0.3-1.3,0.5-1.7,1c-3.1,3.5-4.9,7.5-5.1,12.2c-0.3,6.2,0.9,12,3.4,17.7
		c0,0.1,0,0.2,0,0.5c-0.5-0.1-0.9-0.1-1.3-0.3c-1.6-0.6-3.1-1.4-4.7-2c-2.8-1-6,1.1-6.6,4.2c-1,4.6-0.4,9,0.6,13.5
		c0.1,0.4,0.1,0.8-0.2,1.4c-0.4-0.4-0.9-0.7-1.2-1.2c-3.7-4-7.4-7.9-12.3-10.4c-0.3-0.2-0.6-0.4-0.9-0.4c-0.4,0-1-0.1-1.3,0.2
		c-0.2,0.1-0.1,0.8,0,1.2c1.5,5.2,3.1,10.4,4.4,15.7c0.6,2.6,0.8,5.3,1,8c0.4,4.8,1.5,9.5,3,14.2c-4.7-5-8.1-10.8-10.4-17.4
		c-0.1,0-0.3,0-0.4-0.1c-0.3,0.7-0.6,1.4-0.8,2.1c-0.9,3.6-3.1,6.4-5.9,8.8c-2.9,2.4-4.8,5.6-6.6,8.8c-0.7,1.3-1.4,2.5-2.2,4
		c-0.2-0.5-0.5-0.8-0.4-1c0.8-6.1,2.6-11.8,6.5-16.7c3.8-4.8,4.9-10.3,4.4-16.3c0-0.2-0.2-0.5-0.4-1c-0.4,1-0.7,1.8-1.1,2.5
		c-1.4,2.1-2.7,4.3-4.5,6.1c-3.8,3.9-7,8.3-9.6,13.2c-1.8,3.4-3.4,6.9-5.1,10.3c-0.2,0.4-0.5,0.6-1.1,0.8c0-0.6-0.1-1.3,0-1.9
		c1.2-5.8,3.3-11.2,5.9-16.5c2.3-4.6,4.6-9.2,6.5-14.1c2.7-7.2,3.2-14.7,2.6-22.3c-0.1-0.9-0.5-1.3-1.4-1.3
		c-4.5-0.2-9.1-0.3-13.6-0.5c-0.3,0-0.5,0.1-1,0.2c0.8,1,1.5,1.8,2.3,2.7c4,4.7,5.3,10.2,3.9,16.1c-0.7,2.9-2,5.7-3.5,8.4
		c-3.1,5.8-5.7,11.8-7.7,18c-2,6.1-3.8,12.2-5.4,18.4c-0.5,1.9-0.5,4.1-0.3,6.1c0.2,2.1,1.9,3.2,3.8,3.8c3.1,1.1,6.2,0.4,9.2-0.6
		c3.2-1,5.6-3.1,8.1-5.3c2.4-2.2,5.4-3.8,8.2-5.5c1.6-1,3.4-1.6,5.1-2.4c0.4-0.2,0.9-0.2,1.3-0.2c0.1,0.1,0.1,0.2,0.2,0.3
		c-0.4,0.4-0.8,0.7-1.2,1.1c-5.3,4.8-9.9,10.1-12.5,16.8c-3,7.9-2.8,15.7,2.3,22.7c4.2,5.8,10.1,8.4,17.5,6.9
		c5.2-1.1,8.8-4.3,10.2-9.6c0.7-2.7,0.9-5.6,1.4-8.3c0-0.2,0.1-0.4,0.3-0.9c1.5,1.3,2.4,2.9,3,4.5c2.1,5.6,0.7,10.8-1.9,15.8
		c-0.6,1.1-1.3,2.1-1.9,3.2c0.1,0.1,0.2,0.2,0.3,0.3c0.4-0.2,0.9-0.4,1.2-0.7c4.8-4.2,7.5-9.4,7.5-15.9c0-5.6-1.5-10.7-3.7-15.8
		c-0.8-1.7-1.7-3.3-2.6-5c-0.2-0.4-0.2-0.9-0.4-1.7c3.4,1.5,5.9,3.7,7.8,6.4c1.9,2.7,3.4,5.6,5.1,8.6c0.1-0.6,0.2-1.1,0.2-1.6
		c-0.1-4.1-1.2-8-2.8-11.7c-2.7-6.4-6.3-12.2-10.9-17.4c-0.1-0.1-0.1-0.2-0.3-0.7c0.6,0.1,1,0.1,1.4,0.3c3.2,1.6,6.6,2.6,10.1,3.1
		c3.4,0.5,6.8,0.9,10.3,1.3c0.5,0.1,1.1-0.3,1.6-0.5c-0.3-0.4-0.6-0.9-1-1.1c-2.8-1.6-5-3.9-6.9-6.4c-2.8-3.8-5-8-6.5-12.5
		c-0.7-2.1-1.6-4.2-2.4-6.3c-0.1-0.3-0.1-0.7,0.1-1.2c0.4,0.6,0.9,1.1,1.2,1.7c3,5.2,7,9.4,11.5,13.2c4,3.4,8.5,6,13.3,8
		c0.6,0.2,1.1,1.3,1.1,2c-0.1,12.9-0.5,25.8-0.3,38.7c0.2,11.7,1.1,23.4,1.8,35.1c0.4,6.8,1,13.5,1.5,20.3
		c0.5,5.8,1.1,11.5,1.6,17.3c0.1,0.6,0,1.1-0.3,1.8c-0.9-1.2-1.7-2.4-2.6-3.5c-2.2-2.9-5.3-4.8-8.6-6.1c-3.4-1.3-6.9-2.2-10.4-3.4
		c-3.2-1.1-6.2-2.4-8.4-5.2c-1.7-2.2-1.9-4.7-1.5-7.3c0.1-0.4-0.1-0.9-0.1-1.3c-0.4,0.1-1,0-1.3,0.2c-4.4,2.4-7,11.5-3.5,15.5
		c1.6,1.9,3.6,3.2,5.9,4c5,1.7,10,3.2,15,4.9c4.7,1.6,8.7,4.4,12.1,8c2.7,2.8,4.7,6,6.5,9.5c0.2,0.4,0.3,0.8,0.4,1.3
		c-0.1,0.1-0.2,0.1-0.3,0.2c-1.1-1.3-2.1-2.6-3.2-3.8c-4-4.2-8.7-7.2-14.2-8.8c-3.3-1-6.8-1.6-10.2-2.5c-4.6-1.2-9-3-12-7.1
		c-0.3-0.4-0.7-0.8-1.1-1.2c-0.1,0.1-0.3,0.1-0.4,0.2c0.3,1,0.5,1.9,0.9,2.9c2,4.8,5.4,8.4,10.2,10.3c3.3,1.3,6.8,2.3,10.3,3.2
		c3.3,0.8,6.2,2.3,8.7,4.3c3.1,2.4,6.2,5,8.9,7.9c3.1,3.3,5.3,7.2,6.5,11.7c1.1,4.4,2.5,8.8,3.7,13.3c1.2,4.7,2.4,9.5,3.4,14.2
		c1.2,5.4,2.2,10.9,3.1,16.3c0.5,3,0.7,6,1.1,9c0.7,5.2,1.4,10.4,2,15.6c0.2,1.6,0.3,3.2,0.5,4.8c-7.3,0-14.6,0-21.9,0
		c0.6-10.9,0.9-21.8-3.3-32.2c-0.5-1.3-0.8-1.4-1.7-0.5c-2,2-4,4.1-5.9,6.2c-0.3,0.4-0.5,1.1-0.4,1.5c0.7,3.1,1.6,6.1,2.3,9.2
		c1.2,5.2,1.7,10.5,1.6,15.8c-1.9,0-3.8,0-5.7,0c0-0.3,0-0.6,0-0.8c-0.5-3.5-1-6.9-1.6-10.4c-0.5-2.4-1.2-4.9-1.8-7.3
		c-0.2-0.7-0.7-1.2-1.5-0.5c-1.5,1.4-3.1,2.8-4.5,4.3c-0.4,0.4-0.6,1.2-0.4,1.8c0.7,2.5,1.5,5,2.2,7.5c0.4,1.8,0.6,3.6,0.9,5.4
		c-2.8,0-5.7,0-8.5,0c-0.6-1.9-1.2-3.8-1.9-5.6c-0.3-0.8-0.9-1.1-1.6-0.3c-1.3,1.3-2.6,2.6-4.1,3.7c-0.8,0.6-1,1.3-0.6,2.2
		c-4.6,0-9.1,0-13.7,0c0.2-2.4,0.4-4.7,0.7-7.1c0.8-8.9,0.7-17.7-0.1-26.6c0-0.5-0.4-0.9-0.6-1.3c-0.4,0.2-0.9,0.3-1.1,0.6
		c-1.2,1.2-2.2,2.6-3.5,3.7c-1,0.9-1.3,2-1.2,3.3c0.3,9.1,0.4,18.2-0.7,27.3c-1.1,0-2.3,0-3.4,0c0-3.1,0.1-6.2-0.1-9.2
		c-0.2-4.2-0.7-8.4-1-12.6c0-0.4-0.4-0.7-0.6-1c-0.3,0.2-0.7,0.3-0.9,0.6c-0.8,0.8-1.5,1.7-2.4,2.4c-2.5,2-3.3,4.6-3.1,7.8
		c0.3,4-0.1,8-0.2,12.1c-1.3,0-2.7,0-4,0c-0.3-3.6-0.2-7.2-0.9-11.1c-2.2,2.4-4.2,4.4-6,6.5c-0.3,0.4-0.3,1.1-0.4,1.7
		c-0.1,0.9-0.1,1.9-0.1,2.8c-8.5,0-17.1,0-25.6,0c1.1-1.3,2.2-2.6,3.2-3.9c-3.4,0.3-6.8,0.8-10.1,0.8c-3.4,0-6.8-0.2-10-1.8
		c0.5-0.3,1.1-0.4,1.6-0.4c1.2,0,2.4,0.1,3.5-0.1c0.6-0.1,1.4-0.5,1.5-1c1.6-4.2,2.2-8.6,2.2-13.1c0-0.3-0.2-0.8-0.4-0.8
		c-0.3,0-0.7,0.1-1,0.3c-2.5,2.4-4.9,4.9-7.4,7.3c-1.2,1.1-2.3,2.3-3.5,3.4c-0.1-0.1-0.3-0.2-0.4-0.4c3.4-5.6,7.4-10.8,11.4-16
		c4-5.3,8.1-10.4,12.2-15.5c-0.1-0.1-0.2-0.2-0.3-0.4c-0.4,0-0.7,0-1.1,0c-4.4,0.2-8.5,1.5-12.4,3.2c-1.7,0.7-3.8,1.1-4.8,3.1
		c-2.9,6-5.4,12.2-5.9,19c0,0.5-0.2,0.9-0.3,1.3c-0.2,0-0.4-0.1-0.6-0.1c-1.2-5.1-0.2-10.2,1.1-15.1c1.3-4.9,3.3-9.6,5-14.5
		c-0.6,0.2-1.2,0.3-1.8,0.5c-2.9,1-5.7,2.2-8.7,3c-3.2,0.9-6.4,1.5-9.7,2.1c-3.9,0.7-7.8,0.9-11.7-0.4c-3.3-1.1-6.1-2.9-7.2-6.3
		c-1.1-3.2-0.5-6.3,0.9-9.2c0.4-0.8,0.4-2,1.9-2.2c-0.1,0.6-0.2,1-0.2,1.5c-0.2,1.7-0.4,3.4-0.5,5.1c0,0.4,0.3,0.9,0.5,1.4
		c0.4-0.3,0.9-0.4,1.2-0.8c4.6-4.9,9.1-9.8,13.8-14.6c3.3-3.4,6.7-6.5,10.1-9.8c0.3-0.3,0.6-0.8,1.1-1.4c-0.8-0.1-1.3-0.2-1.8-0.2
		c-4.2,0-8,1.3-11.8,2.8c-1.1,0.4-2.3,1-3.1,1.9c-2,2.2-3.7,4.7-5.5,7c-0.6,0.8-1.2,1.5-1.8,2.3c-0.2-0.1-0.4-0.2-0.5-0.4
		c1.9-5.8,5-11,8.4-16.2c-2,0.6-3.8,1.4-5.7,2c-2.1,0.7-4.3,1.4-6.5,2c-0.3,0.1-0.8-0.2-1.2-0.2c0.1-0.4,0.2-0.8,0.4-1.1
		c1.4-1.7,2.9-3.2,4.2-5c3.6-4.7,6.2-9.9,8.2-15.5c1.6-4.7,2.8-9.4,3.1-14.4c0-0.4-0.2-0.8-0.2-1.2c-0.4,0.1-0.8,0.2-1.1,0.4
		c-1.5,1-3,2.1-4.4,3.1c-1.4,1-2.4,2-2.6,4.1c-0.7,6-2.8,11.7-5.6,17c-2.5,4.7-5.5,9.1-9.3,12.8c-0.7,0.7-1.7,1.4-2.6,1.5
		c-4.3,0.2-8.6-0.3-12.6-2.3c-3.4-1.7-5.3-4.4-5.4-8.2c-0.2-3.6,1.4-6.7,2.8-9.9c0.2-0.3,0.3-0.7,0.5-1c0.2,0.1,0.4,0.2,0.6,0.4
		c0.2,2.9-1.6,6,0.2,8.7c6-5.4,11.8-10.8,17.8-16c3.7-3.2,7.7-6.2,11.5-9.3c0.5-0.4,1-1,1.7-1.8c-1.6,0.1-2.7,0.1-3.8,0.2
		c-4.3,0.4-8.5,1.4-12.6,2.7c-3,0.9-5.8,2-7.9,4.5c-0.6,0.7-1.3,1.2-2,1.8c-0.1-0.1-0.2-0.3-0.4-0.4c8.2-11.8,18.6-21.6,29.8-30.7
		c-1.9,0.3-3.5,0.8-5.3,1.1c-6.1,1.1-12.1,2.1-18.2,3c-6.3,0.9-12.7,0.3-19-0.4c-0.7-0.1-1.3-0.5-2-0.9
		c10.7-7.6,26.2-24.9,25.6-28.7c-2.1,0.9-4.2,1.6-6.1,2.6c-0.8,0.4-1.6,1.1-2.2,1.8c-2.3,3-4.3,6.2-6.7,9.1
		c-4.5,5.5-10.2,9.4-16.2,13c-1.3,0.8-2.4,0.6-3.7-0.1c-3.9-2.4-5.6-5.4-4.6-9.6c0.5-2,1.7-3.8,2.7-5.7c0.3-0.6,0.9-1,1.4-1.6
		c0.1,0.1,0.3,0.2,0.4,0.3c-0.1,0.7-0.3,1.4-0.5,2.5c9.8-6.2,19.9-11,30.1-15.7c-4-1.2-8-0.2-12,0.2c-4.2,0.4-7.2,3.2-10.7,5.1
		c5.9-6.4,13-11.1,20.2-15.7c0-0.1,0-0.2-0.1-0.4c-1.6,0-3.2,0-5.2,0c0.4-0.6,0.6-0.9,0.8-1.2c1.6-2,3.2-4,4.7-6
		c2.3-3.3,3.9-6.9,5.1-10.7c0.1-0.3,0-0.9-0.2-1.1c-0.1-0.2-0.8-0.1-1,0c-0.5,0.4-1.1,0.9-1.4,1.5c-3.9,6-8.5,11.3-14.3,15.5
		c-2.4,1.7-4.9,3.1-8.1,2.8c-3.4-0.3-6.8-0.1-10.2-0.1c-0.6,0-1.1-0.2-1.7-0.4c0.2-0.6,0.3-1.3,0.6-1.8c1.8-3.7,3.7-7.3,5.5-11
		c0.3-0.7,0.2-1.6,0.4-2.5c-0.2-0.1-0.4-0.2-0.6-0.3c-1.1,1.2-2.4,2.4-3.4,3.6c-2.7,3.3-5.6,6.4-9.3,8.7c-2,1.2-4,2.5-6.6,2
		c-3.1-0.7-6.3-0.9-9.3-1.8c-2.2-0.6-4.4-1.8-6.4-2.9c-1.7-1-2.1-2.6-1.1-4.3c0.6-1.1,1.6-2,2.4-2.9c0.5-0.5,1.2-0.9,2.2-1.6
		c-0.9-0.1-1.3-0.2-1.8-0.2c-2.2-0.1-4.4-0.2-6.5-0.4c-4.3-0.4-8.6-1.1-12.4-3.4c-4.1-2.6-5.1-5-4-9.6c1.2-4.7,4.8-8,8.6-10.8
		c0.2-0.2,0.6-0.1,1.2-0.2c-0.4,0.5-0.5,0.6-0.6,0.8c-2.2,2.8-4.6,5.6-5.6,9.1c-0.9,3.1-0.1,5.6,2.9,6.5c3.3,1,6.8,1.4,10.3,1.9
		c0.4,0.1,0.9-0.2,1.3-0.4c4.6-2.9,9-6.1,12.8-10c0.8-0.8,1.5-1.7,2.3-2.6c-0.1-0.2-0.2-0.3-0.3-0.5c-9,2.5-17.9,4.9-26.9,7.4
		c-0.1-0.2-0.1-0.4-0.2-0.6c1.2-0.6,2.4-1.3,3.6-1.7c6.7-2.5,13.3-5.1,20.1-7.5c4.2-1.5,8.6-2.7,12.9-4c0.4-0.1,0.6-0.5,0.9-0.7
		c-0.3-0.2-0.7-0.6-1-0.6c-6.3-0.2-12.6-0.3-18.9-0.4c-0.6,0-1.2,0-1.8,0c0-0.2-0.1-0.4-0.1-0.6c4.9-2.1,10.1-3.4,15.3-5.4
		c-0.6-0.2-0.8-0.4-1.1-0.4c-4.9-0.5-9.9-0.9-14.8-1.5c-8-1-16.1-2.1-24.1-3.1c0-1.4,0-2.8,0-4.3c5.8-3.8,10.9-8.3,14.7-14.2
		c-1.1,0-2,0.2-3,0.3c-2.2,0.3-4.4,0.6-6.6,0.9c-0.4,0.1-0.7,0.4-1.1,0.6c-1.4,1.1-2.7,2.2-4.1,3.2c0-5.6,0-11.2,0-16.8
		c1.5-0.1,2.9,0.1,4.3-0.9c6.1-4.6,11-10.1,14.8-16.6c0.5-0.8,0.8-1.6,1.4-2.8c-2.6,0.4-4.7,0.7-6.8,0.9c-1.9,0.2-3,1.4-4.1,2.9
		c-1.9,2.6-4,5.1-6.2,7.6c-1,1.2-2.3,2.2-3.5,3.3c0-1.4,0-2.8,0-4.3c1.9-2.4,3.6-4.8,5-8c-2,0.4-3.5,0.6-5,0.9c0-3.7,0-7.4,0-11.1
		c3.3-2.3,5.4-5.4,6.9-9.1c-2.4-0.4-3.5,0.1-4.6,1.9c-0.7,1.1-1.5,2.2-2.2,3.3c0-3,0-6.1,0-9.1c3.3-0.4,6.7-0.7,10-1.1
		c0.6-0.1,1.3-0.5,1.8-0.9c7.7-7.2,14.6-15.3,20.1-24.3c1.5-2.4,2.8-4.8,4.2-7.2c0.2-0.3,0.2-0.8,0.2-1.2c0-0.1-0.6-0.3-0.8-0.3
		c-2.9,0.4-5.8,0.8-8.7,1.3c-0.6,0.1-1.3,0.7-1.7,1.3c-0.8,1.1-1.4,2.4-2.2,3.5c-3.7,5-7.2,10.2-11.3,14.9
		c-3.5,4.1-7.7,7.5-11.6,11.3c0-2,0-4,0-6c0.3-0.2,0.7-0.4,1-0.8c5.7-6.4,10.7-13.2,14.7-20.8c0.2-0.4,0.2-1,0.2-1.5
		c-0.5,0-1-0.1-1.5,0c-2.5,0.5-5,1.1-7.5,1.4c-1.6,0.1-2.4,0.9-3.2,2.1c-1.2,1.9-2.5,3.8-3.7,5.6c0-3.4,0-6.8,0-10.3
		c3.7-0.7,7.4-1.5,11.1-2.2c4.1-0.7,8.2-1.4,12.3-2c7.3-1,14.5-2,21.8-3c0.6-0.1,1.2-0.3,1.8-0.4c0-0.2-0.1-0.4-0.1-0.6
		c-15.7-0.6-31.4,0.4-47,1.9c0-0.6,0-1.1,0-1.7c2.1-0.4,4.3-0.7,6.4-1.1c1.1-0.2,2.3-0.4,3.2-1c5.2-3.5,8.6-8.5,11.3-13.9
		c2-4.1,3.5-8.3,5.3-12.5c0.4-1.1,0.1-1.5-1.1-1.4c-2,0.2-3.9,0.6-5.9,0.7c-1.2,0.1-1.9,0.7-2.3,1.8c-2,5.7-4.7,11.1-8.2,16.1
		c-2.6,3.5-5.3,6.9-8.7,9.7c0-2.7,0-5.3,0-8c1.2-2,2.7-4,3.7-6.2c1.4-3.2,2.5-6.5,3.6-9.8c0.2-0.5,0.1-1.1,0.2-1.7
		c-0.6,0-1.2-0.2-1.8-0.1c-1.9,0.3-3.8,0.6-5.7,0.9c0-1.7,0-3.4,0-5.1c3.4-0.7,6.8-1.4,10.1-2.1c0-0.1,0.1-0.3,0.1-0.4
		c-0.8-0.5-1.6-1-2.5-1.4c-2.6-1-5.2-2-7.7-3c0-1.9,0-3.8,0-5.7c3,0.6,6,1,8.9,1.9c4.1,1.3,8,3,12.1,4.6c1.3,0.5,2.7,1.6,4,1.5
		c3.4-0.1,6.9-0.7,10.3-1.2c0.3,0,0.6-0.3,1-0.5c-6.2-3.2-12.5-5.1-19-5.9c-5.7-0.7-11.5-0.7-17.3-1c0-3.4,0-6.8,0-10.3
		c2.1-2.5,4.5-4.8,6.3-7.4c2.5-3.6,4.7-7.5,7-11.3c0.3-0.5,0.6-1.1-0.4-1.2c-1.5-0.2-3.8,1.1-4.5,2.5c-2.2,4.7-5.2,8.9-8.4,12.9
		c0-9.7,0-19.4,0-29c1.5-0.6,3-1.2,4.3-2c4.7-2.7,9.5-5.3,14-8.4c4.1-2.8,8-6,11.7-9.4c3.5-3.2,6.7-6.8,10.1-10.2
		c0.3-0.3,0.3-0.7,0.4-1.1c-0.4-0.1-0.8-0.3-1.1-0.3c-3.9,0.3-7.8,0.6-11.7,1c-0.9,0.1-1.9,0.5-2.4,1.1C18.6,63,10.8,70.3,2.4,77
		c-0.6,0.5-1.3,0.8-1.9,1.1c0-2,0-4,0-6C0.7,72.1,0.9,72,1,71.9C7.6,67,13.6,61.5,18.7,55.1c0.2-0.3,0.3-0.6,0.5-1.1
		c-0.5,0-0.8-0.1-1.1-0.1c-4.3,0.5-8.5,1-12.8,1.5c-0.6,0.1-1.3,0.5-1.8,1c-1.1,1-2,2.1-3,3.2c0-6.6,0-13.1,0-19.7
		c1.8,0.2,3.5,0.6,5.3-0.1c6.1-2.3,11.9-5,17.5-8.4c4.3-2.6,8.5-5.5,12.1-9.2c0.4-0.4,0.7-0.9,1.2-1.6c-3.8-0.4-7.1-0.9-10.5-1.2
		c-0.4,0-1,0.3-1.4,0.6c-1.4,1-2.8,2-4.2,3c-6.3,4.3-13,8-20,10.9c0-2.3,0-4.6,0-6.8c4.6-2.3,9-5,12.9-8.7c-0.3-0.2-0.5-0.4-0.6-0.4
		c-4.1-0.3-8.2-0.6-12.3-0.9c0-5.2,0-10.4,0-15.7c4,0,8,0,12,0C9.2,2.6,6,3.7,2.6,4.9c0.5,0.2,0.9,0.5,1.3,0.6
		c4.2,0.9,8.3,1.8,12.5,2.7c0.5,0.1,1-0.1,1.5-0.3c4.3-2.1,8.5-4.2,12.8-6.4c3.1,0,6.3,0,9.4,0c-0.2,0.2-0.4,0.5-0.6,0.6
		c-4.7,2.1-9.4,4.2-14,6.4c-0.6,0.3-1.2,0.6-1.7,0.9c0,0.1,0.1,0.2,0.1,0.4c1.2,0.2,2.3,0.3,3.5,0.5c3.2,0.6,6.5,1.3,9.7,2
		c0.4,0.1,0.8,0.1,1.1-0.1c6-2.9,11.8-6.4,17.1-10.6c3.1,0,6.3,0,9.4,0c-0.3,0.3-0.5,0.6-0.8,0.8c-5,3.6-10.2,6.9-15.9,9.4
		c-1.2,0.5-2.4,1.1-3.7,1.8c0.3,0.2,0.3,0.4,0.5,0.4c3.5,0.8,7,1.5,10.5,2.3c0.4,0.1,0.8-0.1,1.2-0.2c2.2-0.9,4.3-1.9,6.5-2.8
		c6.6-2.8,12.6-6.7,17.9-11.6c11,0,22,0,33,0c0.8,0.6,1.5,1.5,2.5,1.9c2.4,1.1,4.8,2,7.7,3.1c-0.3-0.9-0.4-1.4-0.6-1.9
		c-0.5-1.1-1.1-2.1-1.6-3.1c2.4,0,4.7,0,7.1,0c1.1,2,2.3,3.9,3.4,5.9c0.6,1.1,0.8,2.6,1.7,3.2c2,1.3,4.3,2.2,6.5,3.3
		c0,0,0.2-0.1,0.4-0.2c-0.4-1.2-0.7-2.5-1.3-3.6c-1.3-2.9-2.8-5.7-4.1-8.5c11.6,0,23.2,0,34.7,0c6.6,4.5,12.9,9.4,18.8,14.8
		c0.7,0.7,1.2,0.6,1.6-0.4c1.3-3.3,1.3-6.7,0.2-10c-0.5-1.5-1.4-3-2.2-4.4c8.1,0,16.1,0,24.2,0c-2.6,2.9-5.4,5.7-7.8,8.8
		c-4.1,5.4-7.3,11.2-9.2,17.8c-1.3,4.6-2.1,9.1-1.8,13.9c0.1,1.1-0.5,1.5-1.4,1.7c-5,1.2-9.7,3.2-13.7,6.6c-2.3,2-4.2,4.4-5.5,7.2
		c-1.7,3.7-2.2,7.7-1.9,11.8c0.1,1.1-0.3,1.9-1,2.7c-7.5,8.5-14.3,17.4-18.9,27.8c-2,4.5-3.4,9.2-3,14.3c0.2,3.2,1.3,5.9,3.7,8.1
		c0.9,0.8,0.8,1.5,0.1,2.3c-6,6.8-11.1,14.2-14.5,22.7c-2.3,5.9-3.8,11.9-4.1,18.2c-0.4,9.7,1.6,18.9,5.3,27.8
		c3.6,8.9,8.9,16.6,16.1,23c5.9,5.3,12.5,9.2,20.1,11.7c0.9,0.3,1.8,0.5,2.7,0.8c0.1-0.1,0.1-0.3,0.2-0.4c-0.3-0.3-0.6-0.7-0.9-1
		c-3.8-3.4-7-7.5-9.7-11.8c-3.2-5.2-5.8-10.6-7.4-16.5c-1.1-3.9-2.2-7.8-2.9-11.8c-0.9-5.9-1.4-11.8-0.4-17.8
		c0.8-5.1,2.2-9.9,4.8-14.3c2.2-3.8,4.7-7.4,7.4-10.9c4.9-6.3,11-11.2,18.1-14.9c4-2.1,8.1-3.9,11.9-6.3c4.4-2.8,6.6-7,4.3-12.1
		c-1.8-4-5.2-5.3-9-3c-0.4,0.3-0.9,0.5-1.5,0.7c0-0.4-0.1-0.6,0-0.7c0.1-0.2,0.2-0.4,0.4-0.6c2.1-2.6,4.7-4.6,7.5-6.2
		c0.8-0.5,1.4-0.1,1.8,0.7c1.5,2.4,3,4.8,4.7,7.1c5.9,7.8,13.1,13.8,22.8,16.2c3.7,0.9,7.5,1.5,11.4,0.7c1.1-0.2,2.3-0.3,3.4-0.6
		c0.7-0.2,1-0.7,0.3-1.3c-2.7-2.5-5.4-4.9-8-7.5c-0.9-0.8-1.5-1.9-2.2-2.8c0.1-0.1,0.2-0.2,0.3-0.3c1.2,0.5,2.3,1.1,3.5,1.6
		c1.2,0.5,2.4,0.8,3.7,1.1c3,0.7,3,0.6,3.6,0.1c-9.5-6.3-15-15.8-20.6-25.4c-0.7,7.5,3.3,13.5,6.5,19.7
		c-6.8-4.2-11.1-10.4-14.5-17.5c-0.3,0.7-0.4,1.3-0.4,1.9c0,4,1.5,7.5,3.5,10.8c0.3,0.5,0.5,1.1,0.8,1.6c-0.1,0.1-0.2,0.1-0.3,0.2
		c-0.2-0.1-0.5-0.2-0.7-0.4c-1.8-1.8-3.8-3.5-5.3-5.5c-4.6-6.2-5-11.5-0.5-18c2.7-3.9,6.3-6.6,10.2-9.2c3.7-2.5,6.5-5.7,8.8-9.5
		c0.4-0.7,0.8-1.3,1.3-2c0.2,0.4,0.3,0.5,0.3,0.5c0,0.4,0,0.8-0.1,1.1c-0.3,3.6,0,7.1,0.9,10.6c1.3,5.3,4.2,9.8,7.6,14
		c4.3,5.3,9.3,9.8,14.7,14c4.2,3.3,8.8,5.9,13.8,7.8c7,2.6,14.2,3.7,21.7,3.3c2.9-0.2,5.9-0.5,8.7-1c2.9-0.5,5.7-1.4,8.5-2.1
		c1.1-0.3,2.2-0.8,3.3-1.2c-0.1-0.2-0.1-0.4-0.2-0.6c-1.1,0.2-2.2,0.5-3.4,0.6c-7.4,0.9-14.8,1.4-22.2-0.3
		c-6.8-1.6-12.4-4.7-16.5-10.6c-2.5-3.6-3.5-7.6-4.3-11.7c0-0.2,0.2-0.5,0.4-1.1c2.5,3.7,5.8,6,9.5,7.8c-5.7-9.3-5.6-19.3-4-29.6
		c-5.2,3.5-6.4,9.1-7.3,15.1c-0.6-0.7-1-1-1.1-1.4c-1.3-4.1-1.2-8.1,0.3-12.1c2.3-6.1,6.7-10.6,11.3-14.9c3.3-3.1,6.6-6.3,9.5-9.8
		c3.8-4.6,6.9-9.6,9.1-15.2c1.4-3.6,2.7-7.4,4-11c0.3-0.7,0.6-1.3,0.9-2c0.2,0.1,0.3,0.2,0.5,0.2c-0.7,14.7-6.8,27.2-15.9,38.6
		c7.4-3.4,11.6-9.9,16.2-16.1c0.2,0.4,0.3,0.7,0.2,0.9c-0.5,1.6-1,3.2-1.7,4.7c-2.6,5.9-6.7,10.5-11.9,14.4
		c-4.3,3.2-8.5,6.6-9.3,12.5c-0.4,2.5-0.9,5.1-0.9,7.6c0.1,5.7,1.8,11.1,4.8,16c0.5,0.8,1.1,1.5,1.6,2.2c-0.9-7.5,0.9-14.4,2.8-21.4
		c0.9,3.8,1.5,7.6,4.2,10.6c0.1-0.6,0.2-1.1,0-1.5c-0.8-2.9-0.5-5.9,0.3-8.7c1.8-5.7,5.3-10.3,9.8-14.2c2-1.8,4.1-3.5,5.5-5.9
		c2.9-4.7,5-9.8,6.6-15c2.1-6.8,4.3-13.5,6.1-20.4c1.4-5.2,2.4-10.5,3.6-15.8c0.5,0,0.9,0,1.4,0c-0.1,1-0.1,2.1-0.2,3.1
		c-0.7,4.7-1.4,9.4-2.3,14c-0.8,4.2-1.7,8.4-2.8,12.5c-1.3,4.7-2.9,9.3-4.6,13.9c-1.8,4.9-3.9,9.5-6.8,13.8c-2,3-3.2,6.4-3.7,10.1
		c-0.1,1.1,0.3,1.5,1.3,1.1c1.3-0.6,2.6-1.2,3.8-1.9c5.4-3.6,8.2-9.1,10.4-14.9c1.9-5.1,3.2-10.5,3.9-16c0.1-0.4,0.3-0.8,0.5-1.5
		c0.3,0.7,0.5,0.9,0.6,1.2c1.2,3.2,2.5,6.2,4.5,9c3.4,4.7,8,8,13.6,9.5c6.5,1.8,13.2,1.5,19.7,0.1c0.2,0,0.4-0.2,0.8-0.5
		c-1.2-0.4-2.3-0.7-3.3-1.1c-6.7-2.8-11.5-7.9-15.8-13.5c-0.2-0.3-0.1-0.7-0.2-1.3c0.5,0.2,0.7,0.2,0.8,0.3c2.5,1.7,4.8,3.7,7.5,5
		c3.1,1.5,6.4,2.7,9.7,3.6c4.7,1.2,9.5,1.2,14.2,0c2.7-0.7,5.3-1.7,7.9-2.7c0.3-0.1,0.4-0.5,0.7-0.8c-0.3-0.2-0.5-0.5-0.8-0.5
		c-5.5-1.2-10.2-4.1-14.7-7.2c-3.4-2.4-6.4-5.1-9.7-7.7c-0.4-0.3-1.4-0.5-1.8-0.3c-1.8,1.1-3.1,2.8-2.7,5.1c0.3,1.5,0.9,2.9,1.4,4.4
		c0.1,0.4,0.3,0.8,0.5,1.4c-0.5-0.1-0.8-0.1-0.9-0.2c-6-2.9-10.8-7.2-14.3-12.9c-1.8-2.9-3.1-6.1-4.5-9.2c-2.3-5.1-3.3-10.6-4-16.1
		c1.1,0,2.3,0,3.4,0c2,2.3,3.8,4.8,6.1,6.8c3.8,3.4,8.4,5.4,13.3,6.7c5.4,1.5,11,2.2,16.6,2.1c1.6,0,1.9,0.2,2.1,1.7
		c0.6,4.3,2.2,8.1,4.8,11.5c4.3,5.7,10.2,9.1,17.1,10.8c4.2,1.1,8.6,1.3,12.8,0.3c3.5-0.8,6.9-2.2,10.3-3.4c5.6-2.1,11.3-2.2,17-0.3
		c4.6,1.5,9.1,3.1,14,3.6c3.4,0.3,6.8,0,10.1-1.2c1.9-0.7,2.2-2,0.8-3.4c-2.1-2.1-4.9-3.1-7.6-3.9c-6.9-1.9-12.8-5.5-17.9-10.5
		c-0.2-0.2-0.3-0.5-0.5-0.7c3.7,1.7,7.2,3.4,10.9,4.9c6,2.6,12.3,4.4,18.8,5.3c7.2,0.9,14.5,0.6,21.5-1.6c5.7-1.8,11.1-4.5,15.6-8.6
		c3-2.8,5.7-5.9,8.5-8.9C511.4,17.3,511.4,21.9,511.4,26.6z M150.7,234.6c-0.1,0.1-0.2,0.2-0.3,0.2c-0.3-0.3-0.7-0.6-1-0.9
		c-1.8-2.7-4.2-4.7-6.9-6.4c-2.6-1.7-5.5-3.2-8.7-2.8c-2.2,0.3-4.4,0.9-6.4,1.9c-2.1,1-3.7,2.8-4.6,5.2c-0.9,2.4-1.3,4.9-1.4,7.5
		c-0.2,7.9,0.9,15.6,3.1,23.1c0.2,0.7,0.3,1.5,0.4,2.3c-0.2,0.1-0.4,0.1-0.5,0.2c-4.6-6.6-8.2-13.7-7.9-22.5c-1.8,2-1.3,4.1-1.7,6
		c-0.8,4.4-0.3,8.8,0.6,13c0.8,3.7,2.2,7.5,3.9,10.9c1.4,2.9,3.3,5.7,5.6,7.9c4.7,4.5,10.5,6.8,17,7.4c0.3,0,0.6,0.2,1.1,0.3
		c-0.9,0.8-2,1.4-2.5,2.2c-2.9,5.3-6.7,10-10.8,14.4c-0.4,0.4-0.6,0.8-1.1,1.4c0.5,0.1,0.7,0.1,0.8,0.1c2.2-0.5,4.3-0.9,6.5-1.5
		c1.1-0.3,2.4-0.6,3-1.3c3.6-4.3,6.1-9.2,7.3-14.7c0.1-0.4,0.5-0.8,0.8-1c1.2-0.6,2.5-1,3.6-1.6c10.6-5.6,14.1-14.2,12.4-25.4
		c-0.8-5.2-2.7-10-5.2-14.7c-0.4-0.8-0.7-1.6-1.2-2.6c0.5,0.1,0.7,0.1,0.9,0.2c1.6,0.7,3.3,1.4,4.9,2.2c0.5,0.3,1.1,0.8,1.3,1.4
		c2.1,4.2,3.7,8.6,4.3,13.3c0.9,8.4-1.1,16-6.6,22.5c-0.3,0.3-0.4,0.8-0.8,1.4c0.5-0.1,0.6-0.1,0.7-0.2c8-4.1,12.1-10.9,13.1-19.5
		c0.8-6.7,0-13.4-1.8-20c-0.2-0.7,0-1.7,0.4-2.3c1.4-2.4,3-4.7,4.6-7c0.6-0.9,0.3-1.3-0.6-1.5c-1-0.2-1.9-0.4-2.9-0.7
		c-5.7-1.8-11.4-3.9-16.3-7.6c-3.5-2.6-6.6-5.6-9.9-8.4c-0.3-0.3-0.7-0.5-1-0.8c-0.1,0.4-0.4,0.8-0.3,1.1c0.4,5.1,1.1,10.1,3.1,14.9
		C150,232.8,150.4,233.7,150.7,234.6z M221.2,142.7c-2.5,2.4-5.7,3.3-9,4c-2.5,0.6-4.9,1.5-6.2,3.9c-0.9,1.8-1.7,3.7-2.1,5.6
		c-0.8,3.2-0.7,6.6,0.7,9.6c2,4.4,5.7,6.8,10.3,7.4c7.2,1,13.7-0.9,19.6-5.2c3.7-2.7,6.7-6,9.1-9.9c2.8-4.6,5.4-9.3,8.1-14
		c2.3-4.1,4.9-7.9,9.2-10.2c0.4-0.2,0.6-0.6,1.1-1.1c-0.9,0-1.5,0-2.2,0c-3.2,0.1-6.3,0.7-9,2.5c-3,2-5.3,4.7-7.5,7.5
		c-4.3,5.7-9.6,10.1-16.5,12.1c-0.6,0.2-1.2,0.2-1.8,0.4c1.3-2.1,2.7-3.9,3.7-6c1-2,1.5-4.2,1.7-6.6c-2.2,1.9-4.2,3.8-6.5,5.4
		c-2.2,1.6-4.8,2.7-7.7,2.7C219.1,149.1,221.1,146.5,221.2,142.7z M189.7,310.7c-0.2-0.1-0.3-0.2-0.5-0.3c-1,1.2-2.2,2.2-3,3.5
		c-1.4,2-2.8,4-3.7,6.2c-1.4,3.4-2.1,7.1-1.6,10.8c0,0.3-0.1,0.7-0.3,0.9c-0.2,0.1-0.6,0-0.9-0.2c-1.8-1.5-3.8-2.8-5.2-4.6
		c-3.7-4.6-5.1-10-5-15.9c0-0.6-0.1-1.2-0.2-1.8c-0.2,0-0.3,0-0.5,0c-0.3,0.6-0.5,1.2-0.8,1.7c-2.6,5.6-4.5,11.3-4.7,17.5
		c-0.2,6.3,1.6,11.8,6.4,16.1c4.6,4.1,10.3,5.8,16.2,7c0.3,0.1,0.6-0.1,1.1-0.2c-4.3-4.2-6.9-8.8-5.8-15c2.2,2.7,4.6,4.9,7.9,6
		c3.2,1.1,6.4,1.4,9.7,0.8c-0.3-0.5-0.6-0.7-1-0.9c-3.4-2.2-6.1-5.1-8-8.7c-3.4-6.6-3.2-13.4-1.1-20.3
		C189.1,312.5,189.4,311.6,189.7,310.7z M220.1,190.8c-0.1,0-0.3,0.1-0.4,0.1c0.3,0.7,0.6,1.5,1,2.2c2,3.5,4.8,5.6,9,5.7
		c4.1,0.1,7.6-1.6,10.9-3.9c3.9-2.8,7.1-6.5,9.5-10.7c2.9-5,5.5-10.1,8.1-15.2c3.6-7,9.5-11,16.8-13.3c3.5-1.1,7.1-2.2,10.2-4.2
		c3.3-2.2,5.8-5,5.7-9.4c0-1.2-0.4-1.6-1.6-1.4c-4.1,0.5-7.9,1.7-11.7,3.2c-5.8,2.3-10.9,5.9-15.3,10.3c-3.9,3.8-6.2,8.7-9,13.2
		c-3.9,6.4-7.4,13.1-12.1,19c-2.4,3-4.9,5.8-8.8,6.9c-2.5,0.7-5,0.9-7.5-0.2C223.1,192.4,221.6,191.6,220.1,190.8z M62.8,52.3
		c-0.8-0.1-1.3-0.2-1.8-0.1c-3.8,0.3-7.7,0.5-11.5,0.9c-0.8,0.1-1.6,0.5-2.2,1c-2.6,2.7-4.9,5.7-7.7,8.2
		c-5.3,4.9-10.7,9.9-16.4,14.4c-5.4,4.2-11.3,7.7-17,11.5c-0.8,0.5-1.6,1-2.3,1.5C17.3,89.8,53.7,66.6,62.8,52.3z M34.9,210.4
		c0.5,0.2,0.6,0.3,0.6,0.3c2.5-0.2,5.1-0.8,7.6-0.6c4.7,0.4,8.2-1.6,11.7-4.5c9.4-7.8,17.1-17,22.8-27.9c0.7-1.3,0.5-1.7-1-1.7
		c-2.3-0.1-4.7,0-7-0.1c-1,0-1.7,0.3-2.3,1.1c-1.7,2.4-3.5,4.8-5.3,7.2c-6.8,8.8-14.4,16.9-23.5,23.3
		C37.4,208.5,36.2,209.4,34.9,210.4z M58.9,176.8c-0.9-0.1-1.4-0.2-1.8-0.2c-3.1,0.2-6.2,0.4-9.3,0.8c-0.6,0.1-1.2,0.6-1.6,1.2
		c-0.9,1.2-1.6,2.6-2.5,3.8c-4.6,6.5-9.3,12.9-15,18.5c-3.2,3.1-6.5,6-9.8,9c-0.6,0.5-1.2,1-2.1,1.7c0.8,0.2,1.1,0.3,1.4,0.3
		c2.3-0.1,4.7-0.1,6.9-0.5c2-0.3,4.1-0.2,5.9-1.6c5.4-4.3,10.5-8.9,14.8-14.3c3.2-4,6.1-8.2,9.1-12.3
		C56.2,181.3,57.4,179.1,58.9,176.8z M60.8,287.5c0,0.1,0.1,0.2,0.1,0.4c0.3,0,0.6,0.1,0.9,0.1c3.3-0.2,6.6-0.4,9.9-0.7
		c1-0.1,2.2-0.2,3-0.8c3.3-2.5,6.5-5.1,9.5-7.8c6.3-5.7,11.6-12.2,16-19.4c1-1.7,2-3.4,3-5.1c0.2-0.3,0.2-0.8,0.1-1.2
		c0-0.1-0.5-0.2-0.7-0.2c-2.6,0.4-5.1,0.8-7.7,1.3c-0.6,0.1-1.1,0.6-1.5,1.1c-1.2,1.7-2.2,3.6-3.4,5.3
		c-7.3,10.3-16.7,18.6-27.1,25.6C62.3,286.4,61.5,287,60.8,287.5z M27.2,87.3c0.1,0.2,0.2,0.4,0.3,0.7c1.9-0.5,3.9-0.8,5.7-1.6
		c5.5-2.2,11.1-4.3,16.4-7c4.9-2.5,9.4-5.6,14-8.6c6.9-4.5,12.7-10.2,18.2-16.2c0.3-0.4,0.5-0.9,1-1.6c-0.9,0-1.5,0-2,0
		c-2.6,0.2-5.2,0.6-7.8,0.6c-2,0-3.4,0.6-4.9,2.2c-6.4,7.4-13.7,13.9-21.7,19.6c-4.8,3.4-10,6.5-15,9.6
		C30.1,85.9,28.6,86.6,27.2,87.3z M27.1,285.8c0.1,0.1,0.1,0.3,0.2,0.4c3.8,0.5,7.6,1,11.4,1.4c0.6,0.1,1.3-0.3,1.8-0.6
		c10.3-6.8,19.1-15.3,26.4-25.3c0.7-1,1.3-2.1,2.1-3.4c-0.7-0.1-1-0.2-1.3-0.1c-2.9,0.5-5.9,0.9-8.8,1.5c-0.5,0.1-1.1,0.5-1.5,1
		c-4.5,6.1-10.1,11.2-16.1,15.7c-3.4,2.6-7.1,4.8-10.7,7.2C29.4,284.3,28.3,285,27.1,285.8z M42.7,288c0.7,0.1,1.1,0.2,1.5,0.2
		c3.6,0,7.2,0,10.8,0c0.5,0,1-0.2,1.4-0.5c2.4-1.8,4.9-3.6,7.2-5.5c8.8-7.1,16.2-15.4,21.8-25.3c0.2-0.3,0.3-0.9,0.2-1
		c-0.2-0.2-0.7-0.4-1.1-0.3c-1.9,0.2-3.9,0.4-5.8,0.9c-0.8,0.2-1.7,0.8-2.2,1.4c-1.1,1.3-1.9,2.7-2.9,4
		c-5.5,6.9-11.9,12.9-19.1,18.1C50.8,282.7,46.9,285.2,42.7,288z M139.3,334.7c-0.5,0-0.7,0-0.9,0.1c-2,0.8-4,1.4-5.9,2.4
		c-1.3,0.6-3,0.8-3.6,2.5c-1.9,5.3-4.6,10.2-7.6,14.9c-4.7,7.4-10.2,14.2-17,19.9c-0.2,0.1-0.2,0.5-0.4,1c1.1-0.1,1.9-0.1,2.7-0.3
		c1.7-0.4,3.3-1,4.9-1.2c2-0.2,3.1-1.5,4.3-2.7c1.5-1.5,2.9-3.1,4.2-4.8c2.9-3.7,5.9-7.4,8.6-11.3c3.8-5.5,6.9-11.4,9.6-17.5
		C138.7,336.8,138.9,335.8,139.3,334.7z M55.4,209.1c0.7,0.1,1,0.2,1.4,0.2c5.1,0.2,9.7-1.4,14.1-3.7c5.4-2.9,10.1-6.7,14.2-11.2
		c2.5-2.8,4.6-5.9,6.8-8.9c0.7-0.9,1-2-0.3-2.8c-1.6-1-3.1-2-4.6-3c-0.9-0.7-1.5-0.3-2,0.4c-2.8,3.7-5.5,7.5-8.4,11
		c-4.5,5.5-9.7,10.2-15.6,14.2C59.2,206.5,57.4,207.7,55.4,209.1z M119.3,371.2c0.5-0.1,1-0.1,1.5-0.3c2-0.7,3.9-1.6,5.8-2.1
		c2.8-0.8,5-2.2,6.7-4.5c2.9-3.8,5.8-7.6,8.5-11.5c4.9-7.2,8.9-14.8,11.9-23c0.1-0.2,0-0.5,0-0.8c-0.3,0-0.6-0.1-0.9,0
		c-2.4,0.9-4.8,1.8-7.1,2.9c-0.6,0.3-1.3,0.9-1.6,1.5c-1.7,3.7-3.2,7.6-5.1,11.2c-3.9,7.6-8.8,14.6-14.6,20.9
		C122.8,367.3,121.1,369.2,119.3,371.2z M175.1,405.2c-2.1,1.8-3.9,3.5-5.8,5c-1.1,0.9-1.5,2-1.6,3.4c-0.3,5-0.5,9.9-1.2,14.9
		c-0.6,4.3-1.8,8.5-3,12.7c-0.8,2.8-1.9,5.5-3,8.3c-0.7,1.9-1.7,3.6-2.6,5.8c0.6-0.1,1.1-0.1,1.4-0.3c1.9-1.1,3.8-2.2,5.5-3.4
		c0.7-0.5,1.4-1.3,1.8-2.1c3.4-7,5.4-14.4,6.7-22c1.2-6.7,1.9-13.5,2-20.3C175.4,406.5,175.2,406,175.1,405.2z M124.5,341.1
		c-0.1-0.1-0.2-0.2-0.4-0.3c-0.4,0.1-0.9,0.1-1.3,0.3c-2.3,0.9-4.6,1.8-6.7,2.9c-0.8,0.4-1.5,1.2-2,2c-1,1.7-1.8,3.7-2.9,5.4
		c-3,4.4-6,8.7-9.1,13c-3.4,4.5-7.4,8.4-12,11.9c-0.3,0.3-0.6,0.7-1,1.2c0.7,0,1.1,0,1.4,0c1.8-0.2,3.6-0.4,5.4-0.5
		c2.4-0.1,4.4-0.8,5.9-2.8c0.2-0.3,0.6-0.6,0.9-0.9c8.2-8.5,15.2-17.8,20.2-28.4C123.4,343.5,123.9,342.3,124.5,341.1z M100.2,223.9
		c-1,0-1.4,0-1.9,0c-2.1,0.2-4.1,0.5-6.2,0.6c-1.1,0.1-1.8,0.5-2.5,1.4c-1.9,2.8-3.8,5.6-5.9,8.2c-4.8,5.9-9.7,11.6-16.1,16
		c-0.2,0.2-0.3,0.5-0.7,1.1c4.4-0.4,8.4-0.7,12.4-1.1c0.5-0.1,1.1-0.6,1.5-0.9c6.3-5.3,11.5-11.5,15.7-18.6
		C97.9,228.6,98.9,226.4,100.2,223.9z M169.8,448.3c0.5-0.2,0.9-0.3,1.2-0.5c1.7-1.1,3.4-2.2,5.1-3.3c0.5-0.3,0.9-0.8,1.2-1.4
		c0.7-1.5,1.3-3.1,2-4.7c2.2-5.1,3.5-10.5,4.6-15.9c1.7-8.3,2.1-16.7,2.5-25.2c0-0.5-0.1-1-0.2-1.4c-0.1-0.1-0.3-0.1-0.4-0.2
		c-1.9,1.8-3.8,3.5-5.7,5.3c-0.3,0.3-0.3,0.9-0.3,1.3c-0.5,5.5-0.8,11.1-1.5,16.6c-0.7,6.5-2.4,12.7-4.6,18.9
		C172.7,441.2,171.3,444.6,169.8,448.3z M275.6,135.8c-0.1-0.2-0.1-0.5-0.2-0.7c-3.1,0.9-6.3,1.6-9.3,2.8c-5.8,2.3-9.8,6.7-13,11.8
		c-3.7,5.9-7.3,12-11.4,17.6c-4.7,6.6-11.1,10.9-19.5,11.7c-0.4,0-0.7,0.2-1.3,0.4c2.9,1.5,7.9,1.5,11.5,0.3
		c7.2-2.3,12.1-7.1,16-13.3c4-6.4,8-12.7,12.3-18.9c2.6-3.8,6.1-7,10.2-9.3C272.5,137.4,274.1,136.6,275.6,135.8z M113.9,143.7
		c-0.4-0.2-0.6-0.4-0.9-0.4c-2.8-0.3-5.6-0.7-8.5-0.8c-0.6,0-1.2,0.6-1.8,1.1c-0.3,0.3-0.3,0.8-0.5,1.1c-3.2,5.8-6.9,11.2-12,15.5
		c-2.9,2.4-5.9,4.6-8.9,6.7c-1.5,1-3.1,1.8-4.7,2.7c0.5,0.4,0.9,0.5,1.4,0.6c1.6,0.1,3.2,0.3,4.8,0.3c1.2,0,2.4-0.2,3.4-0.6
		c5.1-2.1,9.4-5.4,13.2-9.2c4.2-4.3,8.1-8.9,12-13.5C112.4,146.2,113.1,144.9,113.9,143.7z M62.5,168.8c0,0.1,0.1,0.3,0.1,0.4
		c1.4,0.1,2.8,0.2,4.2,0.2c1.2,0,2.5,0.1,3.6-0.3c6.4-2.5,11.7-6.5,16-11.9c3.5-4.3,6.2-9,8.1-14.2c0.3-0.7,0.5-1.4-0.7-1.5
		c-2.5-0.2-4.9-0.3-7.4-0.5c-0.9-0.1-1.3,0.4-1.6,1.2c-1.8,3.8-3.5,7.8-5.7,11.4c-3.5,5.7-8.2,10.2-13.9,13.8
		C64.3,167.9,63.4,168.3,62.5,168.8z M79.1,286.5c0.5,0,1,0.1,1.4,0.1c3-0.3,6-0.5,9.1-0.9c1.3-0.2,2.8-0.4,3.9-1.1
		c1.8-1,3.4-2.4,5-3.7c5.1-4.3,9.2-9.4,11.9-15.5c0.3-0.6,0.3-1.3,0.3-1.9c-0.1-1.4-0.4-2.7-0.6-4.1c-0.2-1.3-0.4-2.6-0.6-3.8
		c-0.2-0.1-0.3-0.1-0.5-0.2C101.5,268.1,91,277.8,79.1,286.5z M84.1,249.6c0.5,0.2,0.7,0.3,0.9,0.3c3.5-0.2,6.9-0.4,10.4-0.7
		c0.4,0,0.8-0.4,1.2-0.7c4.5-3.7,8.5-7.9,11.7-12.7c2.6-3.8,4.9-7.9,7.3-11.8c0.2-0.4,0.3-0.9,0.2-1.3c-0.1-0.2-0.7-0.2-1.1-0.2
		c-2,0.2-4,0.5-6.1,0.6c-1.4,0.1-2.1,0.6-2.8,1.8c-3,5.5-6.7,10.5-10.9,15.2C91.7,243.5,88.3,246.7,84.1,249.6z M181,441.1
		c0.5-0.1,0.7-0.1,0.8-0.2c2.2-1.4,4.4-2.8,6.5-4.4c0.7-0.5,1.2-1.4,1.5-2.2c0.7-1.7,1.4-3.4,1.9-5.2c1.1-4.4,2.3-8.8,3-13.2
		c0.6-3.8,1-7.6,1-11.5c0.1-5.1-0.1-10.2-0.3-15.4c0-0.2-0.7-0.8-1-0.7c-2.3,0.8-3.6,3.5-3.6,5.9c-0.1,5.4-0.2,10.8-0.8,16.2
		c-0.5,4.4-1.6,8.8-2.7,13.2c-0.8,3.2-1.9,6.4-3,9.6C183.3,435.9,182.2,438.4,181,441.1z M62.5,17.5c0.2,0.2,0.3,0.4,0.4,0.4
		c3,0.8,6,1.7,9,2.4c0.6,0.1,1.3,0.1,1.8-0.1c4.5-1.6,9.1-3.1,13.6-4.9c4.8-1.9,9.3-4.5,13.3-7.8c0.3-0.2,0.6-0.7,0.6-1
		c0-0.3-0.5-0.6-0.9-0.7c-2.8-0.9-5.7-1.8-8.5-2.8c-1.1-0.4-1.9-0.3-2.7,0.4c-1.9,1.4-3.7,2.8-5.6,4.1c-4.3,2.9-8.8,5.3-13.6,7.3
		C67.5,15.8,65.1,16.6,62.5,17.5z M48.4,168.2c0,0.2,0,0.4,0.1,0.5c2.6,0.1,5.2,0.9,7.8-0.3c1.1-0.5,2.1-1,3.2-1.6
		c9.5-5.7,15.3-14.3,18.9-24.6c0.4-1,0.1-1.5-1.1-1.5c-2.3,0-4.7-0.1-7-0.1c-0.6,0-1.3,0.5-1.6,1c-0.7,1.5-1.1,3.1-1.7,4.6
		c-3.1,7.4-7.6,13.7-13.9,18.7C51.6,166.3,50,167.2,48.4,168.2z M16.4,42.1c0,0.1,0,0.3,0,0.4c0.4,0.1,0.8,0.3,1.3,0.3
		c1.8,0.3,3.6,0.3,5.3,0.8c2.6,0.7,4.9,0.4,7.3-0.7c7.1-3,13.5-7.1,19.2-12.3c2.2-2,4.2-4.3,6.6-6.7c-0.8-0.2-1.1-0.3-1.5-0.4
		c-2-0.3-4-0.7-6-0.9c-0.6-0.1-1.6,0.1-2,0.5C39.3,30.6,30.4,35.7,21.1,40C19.6,40.8,18,41.4,16.4,42.1z M208.6,116.7
		c-0.2,0.6-0.3,1-0.4,1.4c-0.5,2.4-1.4,4.5-3,6.3c-3.9,4.5-9,6.9-14.3,9c-5.8,2.3-10.8,5.7-15.1,10.1c-4.4,4.5-7.5,9.8-10.2,15.4
		c-0.2,0.3,0,0.8,0,1.1c1.4-1.4,2.4-2.9,3.6-4.2c4.5-5.1,9.2-9.9,15-13.6c3.1-2,6.5-3.7,9.8-5.3c2.6-1.3,5.5-2.1,8.1-3.4
		c3.1-1.5,5.9-3.4,7.8-6.4C211.9,123.9,211.5,119.3,208.6,116.7z M168.5,366.2c-0.5,0.2-0.7,0.3-1,0.4c-1.7,1.1-3.3,2.3-5.1,3.4
		c-0.9,0.5-1.2,1.2-1.3,2.2c-0.1,5.7-0.9,11.2-2.3,16.7c-1.2,4.7-2.7,9.3-4.8,13.6c-1,2.2-2.2,4.2-3.3,6.4c1.7-0.6,3.2-1.4,4.6-2.3
		c1.3-0.8,2.7-1.7,3.6-2.8c1.3-1.7,2.2-3.7,3.1-5.6c2.7-5.7,4.4-11.8,5.3-18.1c0.6-4.1,0.8-8.2,1.1-12.3
		C168.7,367.3,168.6,366.8,168.5,366.2z M137,416.8c0.6-0.1,1-0.1,1.3-0.3c1.5-0.8,3-1.6,4.4-2.5c1.6-1,3.5-1.6,4.4-3.4
		c0.7-1.4,1.5-2.8,2.1-4.2c3.3-7,5.6-14.4,6.6-22.1c0.4-2.9,0.5-5.9,0.7-8.8c0-0.3-0.2-0.7-0.3-1c-0.3,0.1-0.7,0.2-1,0.4
		c-1.6,1.1-3.3,2.1-4.8,3.3c-0.5,0.4-1,1.1-1,1.7c-0.4,2.4-0.4,4.9-0.9,7.3c-0.8,3.9-1.6,7.9-2.9,11.7c-1.4,4-3.3,7.9-5.2,11.8
		C139.6,412.7,138.3,414.6,137,416.8z M120,13.8c-0.3-0.3-0.3-0.5-0.5-0.5c-2.9-1.2-5.8-2.4-8.7-3.4c-0.6-0.2-1.5,0-2.1,0.3
		c-1.9,1-3.6,2.2-5.5,3.2c-6.9,3.8-14.1,6.6-21.8,8.1c-0.6,0.1-1.1,0.5-1.6,0.7c0.3,0.5,0.6,0.6,0.8,0.6c1.8,0.5,3.6,1.1,5.4,1.5
		c2.2,0.5,4.3,1.7,6.6,1c1.9-0.6,3.8-1,5.7-1.5c5.7-1.5,11.2-3.7,16.4-6.6C116.6,16.2,118.3,14.9,120,13.8z M163.5,415.9
		c-0.1-0.1-0.3-0.2-0.4-0.2c-2.2,1.9-4.3,3.9-6.5,5.9c-0.3,0.2-0.3,0.8-0.3,1.2c-0.2,2.9-0.4,5.8-0.6,8.6c-0.9,9.7-3.3,19.1-7.3,28
		c-0.1,0.3-0.1,0.7-0.2,1.2c3.7-0.9,6.6-3.4,8.1-6.8c2.4-5.7,4.3-11.5,5.1-17.7c0.9-6.2,1.5-12.5,2.2-18.7
		C163.7,416.8,163.6,416.3,163.5,415.9z M144.4,382.9c-0.1,0-0.3-0.1-0.4-0.1c-0.3,0.2-0.7,0.4-1,0.6c-1.9,1.4-3.8,2.8-5.8,4.1
		c-1.1,0.7-1.4,1.6-1.6,2.8c-0.6,4.3-1.1,8.8-2.1,13c-1.6,6.4-4.1,12.5-7.6,18.1c-0.2,0.3-0.3,0.7-0.4,1.2c0.4,0,0.6,0.1,0.8,0
		c3.2-1.5,6.2-2.9,8-6.4c2.7-5.1,5.4-10.1,7-15.6c1.1-4,2-8.2,2.9-12.3C144.3,386.5,144.2,384.7,144.4,382.9z M52.6,252
		c3.6-0.2,6.7-0.3,9.9-0.5c0.4,0,0.9-0.4,1.2-0.7c2.3-2.1,4.6-4.2,6.9-6.4c5.2-5.1,9-11.1,12.5-17.5c0.5-1,0.2-1.4-0.9-1.3
		c-2,0.2-3.9,0.5-5.9,0.8c-1.4,0.2-2.4,0.8-3.1,2.2c-0.5,1.1-1.3,2.1-1.9,3.1c-3.9,5.8-8.4,11.1-13.6,15.8
		C56.1,248.9,54.5,250.3,52.6,252z M18.4,170.1c0.9,0,1.7,0.1,2.5,0c1.6-0.2,3.3-0.2,4.7-0.8c2.9-1.3,5.2-3.5,7.3-5.9
		c3.2-3.6,5.6-7.6,7.8-11.8c1.5-2.9,2.8-5.9,4.1-8.9c0.5-1.1,0.1-1.6-1.1-1.5c-2,0.2-4.1,0.4-6.1,0.4c-1.3,0-1.9,0.5-2.3,1.6
		c-0.5,1.5-1,2.9-1.6,4.4c-2.2,5.8-5.5,11.1-9.4,15.9C22.4,165.8,20.4,167.9,18.4,170.1z M34.4,169.3c2.6-0.3,5.3,0.1,7.6-1.3
		c4.9-3,8.9-7,12.3-11.6c3.2-4.4,5.6-9.2,7.6-14.2c0.3-0.8,0.2-1.4-0.9-1.4c-2.3,0-4.7,0-7,0.1c-0.6,0-1.3,0.6-1.6,1.1
		c-0.7,1.4-1.2,3-1.8,4.5c-2,5.2-4.8,10-8.3,14.3C39.9,163.7,37.2,166.3,34.4,169.3z M234.9,455.3c-1.4,1.4-2.7,2.6-3.8,3.9
		c-0.5,0.5-0.8,1.3-0.8,2c-0.2,5.4-0.3,10.8-0.5,16.2c-0.3,7.2-0.8,14.4-2.5,21.4c-0.1,0.5,0,1,0,1.4c2.2-1.6,4-3.4,5.9-5.1
		c0.9-0.8,1.3-1.8,1.4-3c0.3-4.3,0.7-8.5,1.1-12.7c0.9-7.7,0.3-15.4-0.3-23.1C235.4,456.1,235.2,455.9,234.9,455.3z M129.8,146.1
		c-0.6-0.3-0.8-0.5-1.1-0.5c-2.2-0.4-4.4-0.7-6.6-1.2c-1.2-0.3-1.8,0.1-2.3,1c-0.6,1.1-1.2,2.2-2,3.3c-4.6,6.6-10.2,12-16.9,16.5
		c-2.7,1.8-5.7,3.4-8.5,5.1c-0.3,0.2-0.4,0.5-0.6,0.8c0.3,0.2,0.6,0.5,0.9,0.5c0.8,0.1,1.6,0.2,2.4,0.1c5.5-1.3,10.4-3.7,15-6.8
		c5.4-3.6,10.2-8,14.6-12.8C126.4,150.1,128,148.2,129.8,146.1z M77.1,314c0.7,0.1,1.1,0.2,1.5,0.1c2.4-0.3,4.9-0.5,7.3-0.9
		c1.6-0.3,3.4-0.2,4.7-1.7c2.9-3.3,6.1-6.4,8.7-9.9c2.7-3.6,4.7-7.6,7.1-11.4c0.7-1.1,0.2-1.4-0.8-1.3c-2.1,0.2-4.2,0.3-6.2,0.6
		c-0.6,0.1-1.3,0.6-1.6,1.2c-3.6,6.2-8.2,11.6-13.3,16.6C82.2,309.5,79.7,311.6,77.1,314z M224.7,466.5c-0.2-0.1-0.3-0.1-0.5-0.2
		c-1.3,1.4-2.6,2.8-4,4.2c-0.8,0.8-1.1,1.7-1,2.8c0,3.8,0.1,7.6,0,11.4c0,8-0.7,15.9-1.9,23.8c0,0.3,0.1,0.7,0.2,1
		c0.3-0.1,0.7-0.2,0.9-0.4c1.6-1.5,3.1-3,4.7-4.6c0.4-0.4,0.7-0.9,0.8-1.4c0.3-1.7,0.6-3.4,0.7-5.1c0.7-9.8,1.7-19.6,0.3-29.4
		C224.8,467.9,224.8,467.2,224.7,466.5z M67.4,228c-0.9,0-1.6-0.1-2.2,0c-1.8,0.2-3.6,0.6-5.3,0.7c-1.3,0.1-2,0.6-2.5,1.6
		c-4.1,7.6-9.5,14.2-16.1,19.8c-1,0.8-1.9,1.7-2.9,2.6c0.5,0.3,0.8,0.4,1.2,0.3c2.5-0.2,5-0.5,7.5-0.6c1.5,0,2.6-0.5,3.5-1.5
		c2.2-2.3,4.5-4.5,6.6-6.8C61.3,239.4,64.7,234.1,67.4,228z M61.5,315.6c0,0.1,0.1,0.2,0.1,0.4c0.4,0,0.9,0,1.3,0
		c2.7-0.3,5.4-0.5,8-1c1.1-0.2,2.4-0.6,3.1-1.4c3.2-3.4,6.4-6.8,9.2-10.5c2.7-3.7,4.9-7.7,7.4-11.6c0.2-0.3,0.2-0.8,0.3-1.2
		c-0.4-0.1-0.8-0.3-1.2-0.2c-1.4,0.1-2.8,0.3-4.2,0.6c-1.1,0.3-2.4,0.6-3.1,1.3c-1,1-1.6,2.5-2.4,3.7c-4,6-8.7,11.4-14.2,16
		C64.3,313,62.9,314.3,61.5,315.6z M237.8,490.1c0.1,0.1,0.3,0.1,0.4,0.2c0.8-0.7,1.7-1.3,2.4-2.1c1-1.3,2.8-2,3.1-4
		c0.5-3.1,1.4-6.1,1.8-9.2c1.3-8.2,1.3-16.4,0.3-24.6c-0.2-1.7-0.6-3.4-1-5.5c-1.1,1.2-1.9,2.2-2.8,3c-1.1,1-1.5,2.2-1.4,3.7
		c0.1,1.2,0.2,2.5,0.1,3.7c-0.2,5.4-0.2,10.9-0.7,16.3c-0.5,5.6-1.4,11.2-2.2,16.9C237.8,488.9,237.8,489.5,237.8,490.1z
		 M188.9,489.6c0.1,0.1,0.3,0.1,0.4,0.2c1.9-1.3,3.8-2.6,5.6-4c0.3-0.2,0.5-0.7,0.6-1.1c1.5-6.3,2.3-12.8,2.3-19.3
		c-0.1-5.4-0.5-10.7-0.8-16c-0.1-1.1-0.4-2.2-0.7-3.2c-0.2-0.1-0.3-0.2-0.5-0.3c-1.2,1.3-2.4,2.7-3.7,4c-0.8,0.8-1.1,1.6-0.8,2.7
		c0.3,1.5,0.6,3.1,0.7,4.6c0.9,10.5-0.1,20.8-2.9,31C188.9,488.8,188.9,489.2,188.9,489.6z M198.9,482.7c0.1,0.1,0.3,0.2,0.4,0.2
		c2-1.8,4-3.6,5.9-5.4c0.2-0.2,0.2-0.5,0.3-0.8c0.7-5.3,1.7-10.6,2-15.9c0.5-7.4-0.6-14.7-2.2-22c-0.2-1-0.7-1.1-1.4-0.5
		c-1,1-2.1,2-3,3.1c-0.3,0.4-0.4,1.1-0.3,1.7c0.3,2.5,0.9,4.9,1.1,7.4c0.5,7.1,0.4,14.2-0.8,21.3c-0.6,3.4-1.4,6.7-2.1,10
		C198.8,482.1,198.9,482.4,198.9,482.7z M163.7,401.3c0.5-0.1,0.7-0.1,0.8-0.2c2.9-1.9,5.9-3.8,8.8-5.8c0.4-0.3,0.8-0.7,1-1.2
		c1.1-3.8,2.5-7.6,3.2-11.4c0.9-5.3,1.2-10.7,1.8-16.1c0.3-2.3-0.3-3.7-2.7-4.5c-1.9-0.6-2.8-0.2-3,1.9c-0.3,3.9-0.5,7.8-1,11.7
		c-0.7,6.5-2.8,12.6-5.5,18.6C166.1,396.6,164.9,398.8,163.7,401.3z M109.4,346.7c-0.7,0.1-0.9,0.1-1.2,0.2
		c-2.1,0.8-4.3,1.6-6.4,2.4c-1.5,0.6-2.8,1.3-3.6,3.1c-1.3,2.9-2.9,5.6-4.6,8.3c-4.1,6.2-9.1,11.5-15.2,15.8
		c-0.3,0.2-0.6,0.5-0.9,0.8c0,0.2,0.1,0.3,0.1,0.5c2,0,3.9-0.1,5.9,0c1.3,0.1,2.2-0.4,3-1.2c2.4-2.4,4.9-4.8,7.2-7.2
		c5.7-5.9,10.4-12.5,14.3-19.7C108.5,348.7,108.8,347.9,109.4,346.7z M210.3,471.6c0.1,0.1,0.3,0.1,0.4,0.2c0.9-1,1.9-1.9,2.7-2.9
		c0.9-1.1,2.2-2.2,2.4-3.4c0.7-5.2,1.3-10.3,1.5-15.5c0.3-6.4-0.4-12.8-1.5-19.1c-0.2-0.9-0.5-1.8-0.8-2.7c-0.2,0-0.4-0.1-0.5-0.1
		c-1.6,1.7-3.2,3.3-4.7,5c-0.2,0.3-0.3,0.8-0.3,1.2c0.5,3.5,1.2,7.1,1.7,10.6c1.2,8.6,0.7,17.2-0.9,25.8
		C210.2,470.9,210.2,471.3,210.3,471.6z M93.7,311.8c0.8,0.1,1.2,0.2,1.6,0.1c3.8-0.6,7.6-1.1,11.4-1.7c0.3,0,0.6-0.3,0.8-0.5
		c1-1.2,2.1-2.4,3-3.6c4.2-5.2,7.7-10.8,10.6-16.7c0.3-0.6,0.4-1.2,0.6-1.8c-0.7-0.1-1.3-0.3-2-0.2c-1.4,0.1-2.8,0.2-4.2,0.6
		c-0.6,0.1-1.3,0.6-1.7,1.2c-2.7,3.6-5.1,7.4-7.9,10.9c-2,2.5-4.5,4.8-6.8,7C97.4,308.5,95.7,310,93.7,311.8z M7.5,254.8
		c1,0,1.8,0,2.7,0c3.1-0.2,6.1-0.4,9.2-0.6c0.5,0,1-0.3,1.4-0.6c2.2-2.2,4.4-4.3,6.5-6.6c3.6-4,6.3-8.6,8.7-13.4
		c0.1-0.3,0.1-0.7,0-0.9c-0.1-0.2-0.6-0.2-0.9-0.2c-2.2,0.3-4.3,0.6-6.4,1.1c-0.8,0.2-1.8,0.7-2.2,1.4c-3,4.4-6.2,8.8-10.2,12.4
		C13.5,249.8,10.5,252.2,7.5,254.8z M23.6,253.8c0.7,0.1,1.1,0.2,1.4,0.2c3-0.2,6-0.5,9-0.7c0.5,0,1-0.3,1.4-0.6
		c2.4-2.5,4.8-4.9,7-7.5c3.5-4.1,6.3-8.8,8.7-13.6c0.2-0.3,0.2-0.8,0.2-1.2c-0.4,0-0.8-0.1-1.2-0.1c-1.8,0.2-3.6,0.7-5.3,0.8
		c-1.7,0.1-2.6,1-3.4,2.3c-3.2,5.4-7,10.4-11.5,14.8C28,250,25.9,251.8,23.6,253.8z M15.2,283.8c0.3,0.2,0.4,0.3,0.5,0.4
		c2.4,0.5,4.8,1,7.2,1.4c0.3,0.1,0.6-0.1,0.9-0.3c2.3-1.6,4.7-3.1,7-4.8c6.3-4.7,11.9-10.1,16.9-16.1c0.7-0.9,1.4-1.8,2-2.8
		c-0.1-0.2-0.2-0.3-0.2-0.5c-1.3,0.2-2.5,0.6-3.8,0.6c-3.4,0.1-5.8,1.6-8.1,4.3c-4.7,5.6-10.5,10.1-16.7,14
		C19.2,281.2,17.3,282.4,15.2,283.8z M57.7,298.9c-0.8,0-1.1-0.1-1.5,0c-2.2,0.6-4.4,1.2-6.6,1.8c-1.5,0.4-3.1,0.8-4.2,2.1
		c-0.5,0.6-1.1,1.2-1.7,1.7c-4.6,4.2-9.7,7.7-15.2,10.6c-1.6,0.9-3.2,1.7-5.2,2.8c0.8,0.2,1.1,0.3,1.4,0.3c4.6,0,9.2,0,13.8-0.1
		c0.5,0,1.1-0.2,1.4-0.4c1.3-1,2.7-1.9,3.9-3c4-3.6,7.8-7.4,10.9-11.8C55.7,301.7,56.6,300.4,57.7,298.9z M179.5,496.4
		c2-1.4,3.9-2.6,5.7-3.9c0.2-0.2,0.4-0.5,0.5-0.8c1.4-5,2.2-10.1,2.4-15.3c0.2-6.3,0.3-12.5-0.7-18.7c-0.1-0.7-0.3-1.3-0.5-2
		c-0.6,0.4-1.2,0.6-1.7,1.1c-2.2,2.1-4.2,3.9-3.5,7.7c1.4,7.7,0.5,15.4-0.7,23.1C180.6,490.4,180,493.2,179.5,496.4z M186.3,176.5
		c-5.9,9.5-8.1,19.7-5.4,30.6c2.1,8.3,6.7,15,13.3,20.4C185.7,211.5,183.2,194.5,186.3,176.5z M98.4,27.8c0,0.2,0,0.3,0,0.5
		c0.8,0.3,1.6,0.5,2.4,0.8c2.5,0.9,4.9,1.9,7.7,1.2c1.5-0.4,3-0.5,4.5-0.7c7.2-1,14.2-3,21-5.9c1.1-0.5,2.2-1.2,3.3-1.7
		c0-0.1,0-0.3,0.1-0.4c-0.2-0.1-0.4-0.2-0.6-0.3c-2.6-1.3-5.2-2.7-7.9-3.8c-0.6-0.3-1.5-0.1-2.1,0.2c-1,0.4-1.9,1.2-2.9,1.7
		c-7,3.8-14.3,6.6-22.2,7.8C100.4,27.2,99.4,27.5,98.4,27.8z M112.6,428.4c0.1,0.1,0.1,0.2,0.2,0.2c2-0.8,4-1.6,5.9-2.6
		c0.7-0.3,1.3-0.9,1.7-1.6c1.1-1.8,2.2-3.6,3.1-5.5c1.3-2.7,2.5-5.5,3.5-8.3c1-2.8,1.7-5.7,2.3-8.6c0.6-2.9,0.8-5.8,1.1-8.7
		c0-0.3-0.2-0.6-0.3-0.8c0-0.1-0.4,0-0.6,0.2c-1.9,1.3-3.9,2.6-5.6,4c-0.7,0.6-1.2,1.6-1.4,2.5c-0.5,2.4-0.6,4.8-1,7.2
		c-1,6.3-3.3,12.1-6.4,17.6C114.3,425.4,113.4,426.9,112.6,428.4z M152.2,425.8c-0.3,0.1-0.5,0-0.6,0.1c-2,1.6-3.9,3.3-5.8,5
		c-0.4,0.4-0.7,1.2-0.7,1.8c-0.3,5-0.4,9.9-1,14.9c-0.3,3.2-1.2,6.3-2,9.4c-0.7,2.6-1.7,5.1-2.7,8c1-0.4,1.8-0.6,2.5-1
		c1.5-0.7,3.2-1.1,3.7-3c1.4-4.6,3.3-9.2,4.2-13.9c1.2-6,1.7-12.2,2.4-18.3C152.3,427.8,152.2,426.8,152.2,425.8z M231.2,450
		c0.4-0.1,0.6,0,0.7-0.1c2.4-2.2,4.8-4.4,7-6.8c0.6-0.6,1.1-1.7,1.1-2.6c0.5-5.6,0-11.3-0.7-16.9c-0.1-0.4-0.3-1-0.7-1.1
		c-2-1-4.1-2-6.1-3c-0.9-0.4-1.3,0-1.1,0.9c0.2,1.2,0.4,2.3,0.5,3.5c0.2,8,0.6,16-0.8,24C231.1,448.6,231.2,449.3,231.2,450z
		 M74,294.4c-0.1-0.1-0.2-0.2-0.3-0.3c-2,0.6-4,1.3-6.1,1.7c-1.5,0.3-2.4,1.3-3.2,2.5c-0.6,0.9-1.3,1.8-2,2.6
		c-4.9,5.6-10.5,10.4-16.5,14.7c-0.7,0.5-1.5,1-2.3,1.5c0,0.1,0.1,0.2,0.1,0.4c0.4,0.1,0.8,0.2,1.2,0.2c3.2-0.2,6.3-0.6,9.5-0.7
		c2.2-0.1,3.5-1.2,4.7-2.7c3.6-4.3,7.3-8.6,10.7-13.1C71.4,299.1,72.6,296.7,74,294.4z M147,306.8c0.6,0.1,1.1,0.2,1.5,0.1
		c1.8-0.2,3.7-0.7,5.5-0.6c2.8,0.1,4.8-1.2,6.5-3.1c4.6-4.8,6.7-10.9,8.2-17.2c0.1-0.3-0.1-0.7-0.1-1.1c-1.5,1.1-2.8,2.4-4.3,3
		c-2.4,1.1-5.1,1.7-7.6,2.7c-0.5,0.2-1.1,0.7-1.2,1.1c-1,3.5-2.5,6.7-4.6,9.7C149.7,303.2,148.5,304.9,147,306.8z M112.4,32.8
		c0,0.1,0,0.2,0,0.3c1.5,0.6,3,1.2,4.6,1.7c1.9,0.6,3.8,1.5,5.7,1.5c6.2-0.2,12.5-0.7,18.6-2.2c3.5-0.9,7-2.1,10.4-3.3
		c0.3-0.1,0.5-0.5,0.6-0.7c0-0.2-0.3-0.6-0.5-0.7c-1.7-1.1-3.5-2.1-5.3-3.1c-0.9-0.5-1.8-0.6-2.8-0.2c-4.6,1.5-9.2,2.9-13.8,4.2
		c-5.2,1.5-10.6,2-16,2.2C113.3,32.6,112.8,32.8,112.4,32.8z M140.9,435.6c-0.3,0-0.5,0-0.6,0.1c-1.9,1.6-3.8,3.2-5.7,5
		c-0.4,0.4-0.5,1.1-0.5,1.7c-0.2,3.8-0.2,7.6-0.7,11.3c-0.4,2.9-1.2,5.7-2.1,8.5c-0.6,1.8-1.6,3.5-2.4,5.3c-0.1,0.3-0.1,0.7-0.1,1
		c0,0.1,0.4,0.2,0.6,0.1c1.7-0.5,3.4-0.9,4.9-1.6c0.9-0.4,1.8-1.2,2.1-2.1c1.3-3.8,2.6-7.6,3.4-11.5c1.1-5.3,1.3-10.7,1.2-16.1
		C141.1,436.7,141,436.2,140.9,435.6z M90.1,66.2c-0.1-0.2-0.2-0.3-0.3-0.5c-0.3,0-0.6,0.1-0.9,0.1c-2.7,0.2-5.4,0.5-8.1,0.5
		c-1.1,0-1.8,0-2.6,0.8c-5.8,5.9-12.5,10.7-19.8,14.6c-1.6,0.8-3.1,1.7-4.7,2.5c0,0.2,0,0.3,0,0.5c2.1,0.2,4.1,0.4,6.2,0.7
		c0,0,0.1,0,0.1,0c3.7-1.8,7.7-3.2,11.2-5.3c5-3.1,9.7-6.6,14.4-10C87.2,68.8,88.6,67.5,90.1,66.2z M3.7,281.5
		c0.3,0.2,0.6,0.4,0.9,0.5c1.6,0.4,3.2,0.9,4.8,1.1c1.1,0.1,2.5,0.2,3.4-0.3c7.5-4.7,14-10.6,19.6-17.5c0.3-0.3,0.4-0.8,0.7-1.4
		c-0.9,0.1-1.4,0-2,0.1c-2.4,0.4-4.8,0.7-7.1,1.2c-0.8,0.2-1.5,0.7-2.1,1.2c-3.2,2.9-6.2,6-9.5,8.7C9.7,277.4,6.7,279.3,3.7,281.5z
		 M135.3,289.2c-0.6-0.2-1-0.3-1.3-0.3c-1.5-0.3-3.1-0.5-4.6-1c-1.2-0.5-1.6,0-2.1,0.8c-1.1,1.8-2.1,3.5-3.2,5.3
		c-3.3,5.2-7.3,9.9-11.7,14.2c-0.2,0.2-0.5,0.5-0.7,0.8c0.1,0.1,0.1,0.3,0.2,0.4c0.9-0.2,1.7-0.4,2.6-0.6c2.9-0.5,5.8-1,8.6-1.6
		c0.8-0.2,1.8-0.8,2.3-1.5c2-2.8,3.9-5.6,5.7-8.5C132.5,294.6,133.8,292,135.3,289.2z M38.7,45.3c0.3,0.1,0.4,0.3,0.6,0.3
		c2.5,0.3,5.1,0.5,7.6,0.8c0.3,0,0.7,0,1-0.1c1.3-0.5,2.6-1,3.8-1.6c6.8-3.7,12.6-8.7,17.6-14.6c0.8-0.9,1.5-1.8,2.4-2.8
		c-1-0.3-1.7-0.5-2.4-0.7c-2.2-0.6-4.5-1.3-6.1,1.2c-0.2,0.3-0.4,0.5-0.7,0.7c-5.1,5.2-10.9,9.7-17.2,13.3
		C43.3,43.1,41.1,44.1,38.7,45.3z M177.4,464.6c-1.5,1.4-2.7,2.5-3.8,3.8c-0.4,0.5-0.6,1.3-0.6,2c0.1,1.9,0.4,3.8,0.5,5.6
		c0.2,5.3-0.2,10.5-1.4,15.7c-0.6,2.6-1.3,5.1-1.9,7.7c-0.1,0.3-0.1,0.9,0.1,1c0.2,0.2,0.7,0.1,1,0c1.6-0.7,3.2-1.5,4.7-2.4
		c0.4-0.2,0.7-0.8,0.8-1.2c0.3-1.5,0.6-3.1,0.8-4.6c1.1-7.3,1.2-14.7,0.7-22.1C178.1,468.4,177.7,466.7,177.4,464.6z M129,39.2
		c0,0.2-0.1,0.3-0.1,0.5c0.8,0.3,1.6,0.6,2.3,0.9c4,2,8.3,2.6,12.7,2.7c3.6,0.1,7.3,0.1,10.9-0.1c3.5-0.1,6.8-1.1,10-2.6
		c1-0.5,1.1-1,0.3-1.8c-1.1-0.9-2.1-1.8-3.2-2.6c-1-0.7-2-1.5-3.5-1c-2.5,0.8-5,1.6-7.5,2.1c-6.5,1.3-13.1,2.1-19.8,1.8
		C130.3,39.1,129.6,39.2,129,39.2z M105.2,99.7c0,0.1,0,0.3,0,0.4c1.2,0.3,2.4,0.6,3.7,0.9c2.4,0.6,4.5-0.6,6.7-1.4
		c5.6-2,10.8-4.9,15.5-8.5c3.3-2.5,6.5-5.1,8.7-8.7c0.3-0.5,0.5-1,0.9-1.8c-0.6,0.2-0.9,0.2-1.2,0.4c-3.1,2.2-6.3,3.7-10.2,4
		c-0.5,0-1.1,0.4-1.5,0.7c-5.2,4.7-11,8.3-17.2,11.4C108.9,98,107,98.8,105.2,99.7z M157.8,329.8c-2.4,6.4-5.3,12.5-8.7,18.3
		c-3.5,5.9-7.6,11.2-12.5,16.4c0.8,0,1.2,0.1,1.5,0c2.2-0.9,4.5-1.7,6.7-2.7c0.9-0.4,1.9-1.1,2.5-1.9c4.3-5.4,7.6-11.5,10.8-17.6
		c0.7-1.3,0.8-2.6,0.6-4c-0.3-2.3-0.5-4.6-0.7-6.9C158,330.9,157.9,330.4,157.8,329.8z M179.4,390.9c0.6-0.3,1-0.4,1.2-0.6
		c2.2-1.6,4.3-3.2,6.6-4.7c1.6-1,2.1-2.5,2.5-4.1c0.1-0.5,0.1-0.9,0.2-1.4c1.2-4.3,1.5-8.7,1.6-13.2c0-1-0.4-1.5-1.5-1.4
		c-1,0-2.1,0-3.1-0.2c-2.3-0.3-2.2-0.4-2.3,1.9c-0.4,5.6-1.2,11.1-2.9,16.4C181.1,386,180.3,388.2,179.4,390.9z M126.7,80.5
		c-0.1-0.1-0.2-0.2-0.2-0.3c-0.2,0.1-0.4,0.1-0.6,0.2c-2.3,0.6-4.6,1.7-6.8,1.7c-3.1,0-5.6,0.7-7.7,3c-0.1,0.1-0.2,0.2-0.3,0.3
		c-5.2,4.5-11,8-17.5,10.4c-0.8,0.3-1.6,0.5-2.4,0.7c0,0.1,0,0.2,0,0.4c2.1,0.6,4.2,1.9,6.5,1c3.2-1.2,6.6-2.2,9.6-3.8
		c3.9-2,7.6-4.4,11.2-6.9C121.3,85.1,124,82.7,126.7,80.5z M103.9,70.4c-0.1-0.1-0.1-0.2-0.2-0.3c-0.3,0-0.7-0.1-1,0
		c-3.1,0.2-6.1,0.4-9.2,0.7c-0.5,0-1.1,0.3-1.5,0.6c-1.9,1.7-3.8,3.5-5.7,5.1c-4,3.3-8.4,6.2-13.2,8.3c-1.4,0.6-2.9,1.3-4.4,1.9
		c1.6,1.3,4.4,1.9,6.1,1.1c3.7-1.6,7.4-3.2,10.8-5.2c5.4-3.2,10.5-6.8,15.7-10.2C102.2,71.8,103,71.1,103.9,70.4z M118.7,102.3
		c0.7,0.2,1.2,0.4,1.7,0.4c3.7,0.4,7.4-0.2,10.9-1.3c7.4-2.3,13.5-6.6,19.1-11.7c1.3-1.2,2.4-2.6,3.9-4.1c-0.7,0-0.9,0-1.1,0
		c-2.6,0.7-5.1,1.6-7.7,1.9c-1.8,0.2-3,0.7-4.2,2c-4.4,4.5-9.9,7.2-15.5,9.8C123.6,100.5,121.3,101.3,118.7,102.3z M168.6,473.8
		c-0.2-0.1-0.4-0.1-0.6-0.2c-0.8,0.9-1.6,1.8-2.5,2.6c-1.5,1.4-2.4,2.8-2,5.2c0.8,6.2,0,12.3-1.7,18.3c-0.3,1.2-0.8,2.4-1.2,3.6
		c-0.1,0.3,0,0.7,0.1,1c0.3-0.1,0.6-0.1,0.9-0.2c0.9-0.3,1.7-0.8,2.6-1c1.7-0.4,2.5-1.4,2.9-3.2c1.8-7.5,2.3-15,1.9-22.7
		C169,476.2,168.8,475,168.6,473.8z M114.1,76.4c-3.3,0.2-6.2,0.4-9.1,0.5c-1.1,0-1.9,0.1-2.7,0.9c-1.1,1.1-2.3,2.2-3.6,3.2
		c-5,3.6-10.2,6.9-16.1,8.8c-0.9,0.3-1.7,0.6-2.5,0.9c0,0.2,0,0.4-0.1,0.6c1.6,0.5,3.4,1.6,4.8,1.3c3.5-0.9,6.9-2.3,10.2-3.8
		c5.7-2.6,11.1-5.8,16.1-9.8C112.1,78.2,113.1,77.3,114.1,76.4z M79.1,358.7c-0.6,0.2-1,0.2-1.4,0.4c-3.3,1.3-6.6,2.6-9.9,4
		c-2.9,1.2-5.8,2.3-8.7,3.5c-1,0.4-1.3,1.2-0.9,2.2c0.9,2.8,2.6,4.7,5.4,5.9c1.1,0.5,1.8,0.3,2.6-0.4c4.9-4.3,9.3-9.1,12.8-14.6
		C79,359.4,79,359.2,79.1,358.7z M269.7,169.6c-0.5,0.5-0.9,0.8-1.1,1.2c-2.2,5.3-5,10.2-8.7,14.5c-3.6,4.2-6.2,9-8.3,14.1
		c-0.3,0.7-0.3,1.4-0.5,2.1c0.1,0.1,0.2,0.1,0.3,0.2c1-1.1,1.9-2.2,2.9-3.2c3-2.9,6-5.6,9-8.5c2.1-2,3.8-4.2,4.8-6.9
		C269.7,178.7,269.7,174.3,269.7,169.6z M105.5,410.2c-0.5,0-0.8,0-1,0.1c-1.8,1.3-3.6,2.6-5.4,3.9c-0.3,0.2-0.5,0.7-0.6,1.1
		c-0.8,5.5-3.1,10.3-6.3,14.7c-1.1,1.5-2.2,2.9-3.3,4.3c0,0.1,0.1,0.3,0.1,0.4c1.7-0.2,3.4-0.3,5.1-0.6c0.9-0.2,2.2-0.3,2.7-1
		c1.4-1.9,2.6-4,3.5-6.1c1.4-3.4,2.7-6.9,3.8-10.5C104.8,414.5,105.1,412.4,105.5,410.2z M89.8,336.1c0.4,0.1,0.7,0.2,0.9,0.2
		c1.5-0.3,3.1-0.5,4.6-0.8c0.8-0.2,1.6-0.6,2.2-1.1c2.9-2.7,5.1-6,6.7-9.6c0.9-2,1.8-4,2.5-6c0.5-1.4,0.2-1.6-1.2-1.4
		c-1.9,0.3-3.7,0.6-5.6,1.1c-0.5,0.1-1.2,0.7-1.3,1.2c-1.5,4.9-3.8,9.5-6.8,13.7C91.2,334.1,90.5,335.1,89.8,336.1z M19.1,124.9
		c0,0.1,0,0.2,0,0.3c0.3,0.1,0.5,0.2,0.8,0.2c5.5,0.2,10.8,1.2,16.1,2.5c4.3,1.1,8.4,2.8,12,5.6c0.7,0.6,1.8,0.9,2.7,0.9
		c2.2,0.1,4.4-0.1,6.5-0.2c0.3,0,0.6-0.2,1.4-0.4c-1.2-1-2-1.9-2.9-2.6c-5.3-4.1-11.5-5.8-18-6.4c-5.6-0.6-11.4-0.2-17-0.2
		C20.2,124.6,19.6,124.8,19.1,124.9z M130.1,444.5c-1.7,1.4-3.2,2.7-4.7,4.1c-0.5,0.5-0.9,1.4-0.9,2.2c-0.2,6.4-1.1,12.5-4.6,18.1
		c-0.4,0.6-0.2,1.1,0.5,1c1.5-0.1,3-0.2,4.5-0.5c0.5-0.1,1-0.7,1.3-1.2c0.7-1.3,1.2-2.7,1.7-4.2c1.9-6,2.7-12.2,2.5-18.5
		C130.4,445.3,130.2,445.1,130.1,444.5z M120.8,453.4c-0.2,0-0.4-0.1-0.6-0.1c-0.2,0.1-0.4,0.2-0.6,0.4c-4.2,3.6-8.4,7.2-12.6,10.8
		c-0.9,0.7-0.8,1.4-0.1,2.1c2.4,2.7,5.7,3.3,9,3.4c0.5,0,1.2-0.6,1.4-1.1c1.1-2.8,2.2-5.6,2.9-8.6
		C120.8,458.1,120.6,455.7,120.8,453.4z M125,179.4c-0.1-0.1-0.2-0.3-0.4-0.4c-1.3,0.6-2.7,1.2-4,1.8c-1.6,0.8-3.1,1.8-4.2,3.4
		c-4.8,7-10.9,12.8-17.9,17.6c-1.9,1.3-3.9,2.5-5.9,3.8c0.1,0.1,0.1,0.2,0.2,0.3c4.8-0.6,8.9-3,12.7-5.7
		C113.4,194.7,119.9,187.7,125,179.4z M209.2,418.2c0.2,0.1,0.4,0.1,0.6,0.2c1.9-2.1,3.6-4.2,5.7-6.1c1.4-1.3,2-2.8,2.2-4.6
		c0.1-1.2,0.3-2.4,0.3-3.5c0.3-6.9,0.1-13.7-2.1-20.4c-0.1-0.4-0.6-0.8-0.9-1.1c0,6.2-0.5,12.2-1.3,18.2
		C212.9,406.8,211.3,412.6,209.2,418.2z M288.4,100c0,0.2,0,0.5-0.1,0.7c1.4,0.5,2.7,1.1,4.1,1.5c3.8,1,7.7,2.3,11.6,2.8
		c10.3,1.2,19.7-1.3,27.8-8c0.4-0.4,0.8-0.8,1.2-1.3c-0.1-0.1-0.1-0.2-0.2-0.3C318.6,102.2,303.7,103.3,288.4,100z M109.2,183.5
		c-2,0.6-3.8,1.1-5.6,1.7c-1.4,0.4-2.8,0.9-3.8,2.2c-2.6,3.2-5.3,6.4-8.2,9.3c-3.4,3.3-7.2,6.3-11.5,8.5c-1.2,0.6-2.4,1.3-3.8,2
		C81.6,209.3,106.9,191,109.2,183.5z M161.4,11.3c-0.2,0.6-0.3,0.7-0.2,0.8c0.3,0.6,0.6,1.1,0.9,1.8c1.9,4.5,3.5,9,4.2,13.8
		c0.1,0.8,0.6,1.8,1.2,2.3c1.7,1.4,3.5,2.7,5.3,4c0.8,0.6,1.5,0.5,1.5-0.6c0-1.8,0.2-3.8-0.4-5.5c-1.7-5.1-4.3-9.8-8.4-13.4
		C164.4,13.3,162.9,12.4,161.4,11.3z M105.8,333c0.1,0.1,0.2,0.3,0.2,0.4c1.8-0.4,3.6-0.8,5.4-1.2c0.3-0.1,0.6-0.4,0.9-0.7
		c4.2-4.6,6.4-10.2,8.2-16c0.3-1-0.1-1.4-1.1-1.1c-1.7,0.4-3.3,0.7-5,1.2c-0.5,0.2-1.1,0.8-1.3,1.3c-1.6,5.3-3.9,10.3-6.9,14.9
		C106.1,332.1,105.9,332.6,105.8,333z M176,180.9c-4.7,5.5-5.6,11.9-4.9,18.7c0.5,4.8,6.2,16.2,8.5,16.8
		C175.6,204.8,173.9,193.1,176,180.9z M158.8,483.3c-1.6,1.5-3,2.8-4.3,4.2c-0.3,0.3-0.3,0.9-0.3,1.3c0.7,4.9-0.1,9.6-1.7,14.2
		c-0.4,1.2-0.9,2.4-1.3,3.7c0.1,0.1,0.1,0.3,0.2,0.4c2-0.6,4.1-1.1,6.1-1.8c0.3-0.1,0.5-0.8,0.6-1.2c1.4-5.8,2-11.8,1.4-17.8
		C159.3,485.4,159,484.4,158.8,483.3z M193.5,185.4c-3.1,7.7-4.3,15.5-1.5,23.5c1.4,4.2,3.8,7.8,7.3,10.7
		C195.3,208.5,194.1,197,193.5,185.4z M84.1,30.5c-1.2-0.4-2.2-0.7-3.1-1.1c-1.4-0.6-2.3-0.1-3.3,1c-1.7,1.9-3.5,3.8-5.5,5.6
		c-3.4,3-6.9,5.8-10.3,8.6c-0.5,0.4-1.1,0.8-1.7,1.2c0.1,0.1,0.1,0.2,0.2,0.3c1.3-0.1,2.7,0,4-0.2c1.5-0.3,3-0.6,4.2-1.3
		C74.5,40.8,79.4,36,84.1,30.5z M27.8,115.1c0.1,0.2,0.3,0.4,0.4,0.6c2,0,3.9,0.4,5.6-1.3c5.9-5.7,10.6-12.2,14.2-19.5
		c1.3-2.7,2.3-2.9-1.8-2.9c-1,0-1.6,0.3-2,1.2c-2.5,6.2-6.3,11.6-10.8,16.5C31.6,111.6,29.6,113.3,27.8,115.1z M45.1,121.7
		c0,0.1-0.1,0.3-0.1,0.4c0.7,0.2,1.5,0.6,2.2,0.7c2.4,0.6,4.9,1,7.3,1.7c4.3,1.3,8.3,3.3,11,7.1c1.4,1.9,3,2.5,5.2,2.4
		c1.6,0,3.2,0,5.2,0c-2.4-4.2-5.8-6.9-9.7-8.6c-4.7-2.1-9.6-3.3-14.8-3.5C49.2,121.9,47.1,121.8,45.1,121.7z M94.4,418
		c-0.6,0.2-0.8,0.2-0.9,0.3c-4.7,3.4-9.3,6.8-14,10.2c-0.9,0.6-0.7,1.4-0.2,2.1c1.3,1.7,2.9,2.9,5.1,3.4c0.9,0.2,1.6,0.3,2.1-0.6
		c1.9-3.1,3.9-6.1,5.7-9.3C93.1,422.4,93.6,420.3,94.4,418z M11.4,117.8c0.1,0.1,0.1,0.3,0.2,0.4c1.2-0.1,2.4,0.1,3.5-0.8
		c6.4-5.5,11.5-12.1,15.7-19.3c0.7-1.2,1.2-2.4,1.9-4c-2,0.3-3.6,0.5-5.1,0.9c-0.5,0.1-0.9,0.9-1.3,1.4c-0.2,0.3-0.3,0.8-0.4,1.2
		c-2.5,5.6-5.9,10.6-10,15.2C14.3,114.4,12.9,116.1,11.4,117.8z M98.4,284c0.1,0.1,0.2,0.2,0.3,0.3c1-0.1,2-0.1,3-0.3
		c5.2-0.8,10.4-1.6,15.6-2.5c0.4-0.1,1-0.3,1-0.5c0.1-0.4-0.2-0.9-0.4-1.2c-1-1.6-2.1-3-3-4.6c-0.7-1.2-1.2-2.5-2-4.1
		C108.7,276.5,103.8,280.5,98.4,284z M130.1,73.6c2.4,0.8,4.7,1.1,7.1,0.2c5-1.7,10-3.6,14.5-6.3c2.5-1.5,4.8-3.3,7.3-4.9
		c-2.2-2.3-4.2-3.2-6.4-1.3c-4.8,4.2-10.2,7.5-16.2,9.9C134.4,72,132.2,72.8,130.1,73.6z M168.2,181.1c-4.2,4.7-6,10.2-5.2,16.3
		c0.6,5.3,3,9.8,6.7,13.7C167.7,201.1,166.5,191.2,168.2,181.1z M136,311.8c0.1-1-0.5-1.2-1.2-1c-2.4,0.6-4.9,1.2-7.3,1.9
		c-0.5,0.1-1,0.8-1.1,1.3c-0.8,4.1-2.6,7.8-4.8,11.3c-0.2,0.3-0.1,0.7-0.2,1c0.4,0,0.7,0.1,1.1,0c3.4-1.4,6.5-3.2,9.1-5.9
		C133.9,317.9,135.3,315,136,311.8z M144,3.4c0.3,0.7,0.5,1.1,0.6,1.4c0.7,1.2,1.5,2.3,1.9,3.6c1.2,3.2,2.2,6.5,3.4,9.8
		c0.2,0.6,0.7,1.2,1.2,1.6c1.5,1,3.2,1.9,4.8,2.8c0.3,0.2,0.7,0.2,1.1,0.4c0-0.4,0.1-0.8,0.1-1.2c-0.8-4.2-2.2-8.1-4.2-11.8
		c-0.7-1.4-1.6-2.8-2.8-3.7C148.4,5,146.3,4.4,144,3.4z M126,388.3c0-0.2-0.1-0.4-0.1-0.7c-1.6,0-3.2-0.3-4.8-0.1
		c-3.8,0.5-7.5,1.2-11.2,2c-2,0.4-4.1,1-5.9,2c-1.9,1-3.4,2.7-5.1,4c-0.2,0.1-0.2,0.4-0.4,0.8c0.4,0,0.6,0,0.7-0.1
		c6.1-2.6,12.4-3.6,19-3.3c0.9,0,1.9-0.3,2.6-0.7c1.3-0.7,2.4-1.7,3.6-2.6C125,389.3,125.5,388.8,126,388.3z M44.3,114.5
		c1.4,0.7,3.3,0.5,4.6-0.7c6.1-5.6,10.8-12.2,14.6-19.5c0.7-1.3,0.5-1.6-0.9-2c-0.6-0.2-1.2-0.3-1.8-0.2c-0.4,0.1-1,0.4-1.1,0.8
		c-2.2,5.6-5.5,10.5-9.4,15.1C48.4,110.2,46.3,112.4,44.3,114.5z M111.4,65.3c0,0.2,0,0.3-0.1,0.5c1.1,0.5,1.8,2.1,3.3,1.5
		c8.6-3.3,16.3-7.9,23.2-14.1c0.9-0.8,0.8-1.5-0.3-1.8c-0.7-0.2-1.6,0-2.2,0.3c-2.8,1.9-5.4,4.1-8.4,5.9c-3.9,2.3-7.9,4.2-11.9,6.2
		C113.9,64.5,112.6,64.8,111.4,65.3z M105,59.8c1.3,0.9,1.5,2.5,3.1,2c0.8-0.2,1.5-0.5,2.2-0.9c3.7-2.1,7.6-4.1,11.2-6.4
		c2.6-1.6,4.9-3.7,7.3-5.6c0.3-0.2,0.4-1.2,0.2-1.3c-1.6-1.1-2.3-1.1-4,0.1c-0.3,0.2-0.6,0.4-0.9,0.7c-4.8,3.8-10.1,7-15.6,9.7
		C107.4,58.5,106.4,59.1,105,59.8z M77,45.5c1.9,0.3,3.8,1.2,5.7-0.2c2.5-1.8,5.3-3.4,7.7-5.3c2-1.6,3.8-3.4,6.1-5.5
		c-2-0.7-3.6-1.2-5.2-1.7c-0.3-0.1-0.8,0.3-1.1,0.5C86.1,37.7,82,41.9,77,45.5z M118.9,70.4c2.1,1.8,4.1,0.9,5.8,0.3
		c3.6-1.4,7.1-3,10.6-4.7c4.4-2.3,8.3-5.3,11.8-8.7c0.2-0.2,0.3-0.6,0.2-0.8c-0.4-0.7-1.8-1-2.5-0.5c-1.9,1.4-3.8,2.9-5.8,4.3
		c-4.8,3.4-9.8,6.3-15.2,8.4C122.2,69.1,120.7,69.7,118.9,70.4z M119.6,43.9c0-0.2-0.1-0.3-0.1-0.5c-1-0.4-2-0.7-3-1.2
		c-0.9-0.5-1.6-0.2-2.2,0.4c-1.1,1-2.2,2.1-3.4,3c-3.5,2.4-7.1,4.7-10.6,7.1c-0.3,0.2-0.8,0.7-0.8,1c0.1,1,2.4,2,3.3,1.5
		c3-1.8,6.1-3.4,9-5.4C114.5,48,117,45.9,119.6,43.9z M89.6,47.8c1.3,0.6,2.3,0.9,3.2,1.4c0.9,0.6,1.6,0.5,2.5-0.1
		c4.2-2.4,8-5.4,11.5-8.7c1.6-1.5,1.5-1.6-0.4-2.2c-0.4-0.2-0.9-0.4-1.3-0.6c-0.9-0.4-1.6-0.1-2.4,0.5c-3.2,2.6-6.5,5.1-9.9,7.6
		C91.8,46.5,90.8,47,89.6,47.8z M116,382.1c0.1,0.2,0.1,0.4,0.2,0.5c1-0.3,1.9-0.6,2.9-0.8c5.6-1.2,11.2-2,16.9-1.5
		c0.6,0,1.2-0.2,1.7-0.5c1.1-0.6,2-1.4,3-2.1c0.2-0.2,0.5-0.5,0.5-0.6c-0.1-0.2-0.4-0.5-0.7-0.6c-1.1-0.1-2.3-0.4-3.4-0.3
		c-4.4,0.4-8.8,0.9-13.3,1.5C120.8,378.2,118.7,380.6,116,382.1z M59.3,115c0.1,0.1,0.1,0.3,0.2,0.4c1.2-0.2,2.7,0.1,3.4-0.5
		c5.2-4.3,9.3-9.5,12.8-15.3c0.2-0.3-0.1-1.1-0.4-1.4c-0.5-0.4-1.2-0.6-1.8-0.8c-0.3-0.1-0.8,0.2-1,0.5c-3.3,5.9-7.4,11.2-12.4,15.8
		C59.8,114.1,59.6,114.5,59.3,115z M152.1,359.1c0.9-0.3,1.4-0.6,2-0.8c3.7-1.4,7.4-2.8,11.1-4.2c0.8-0.3,0.9-0.9,0.4-1.5
		c-1.6-2.2-3.2-4.4-4.8-6.7C158,350.1,155.1,354.4,152.1,359.1z M148.1,469.1c0.1,0.1,0.2,0.2,0.3,0.3c0.4-0.2,0.7-0.4,1.1-0.6
		c4.9-3.1,10.4-4.4,16.1-4.4c2.2,0,3.4-1.1,4.4-2.7c0.1-0.2-0.2-1-0.3-1c-1.3-0.2-2.8-0.6-4.1-0.5c-4.9,0.7-9.6,2.2-13.9,4.6
		C150,465.7,148.9,467.4,148.1,469.1z M123,433.3c0.4,0.1,0.5,0.1,0.5,0.1c4.8-1.9,9.7-2.7,14.8-2.6c0.3,0,0.8-0.1,1-0.4
		c1.2-1.1,2.5-2.2,3.6-3.4c0.7-0.7,0.4-1.3-0.5-1.3c-1.3-0.1-2.6-0.2-3.8,0.1c-3.1,0.7-6.1,1.4-9.2,2.3
		C126.8,429.1,125,431.2,123,433.3z M194.6,379.4c0.2,0.1,0.3,0.2,0.5,0.3c2.2-1.7,4.4-3.5,6.6-5.3c0.3-0.2,0.2-0.9,0.3-1.3
		c0.2-2.3,0.3-4.5,0.5-6.8c0.1-1-0.1-1.5-1.2-1.3c-0.9,0.1-1.9,0.3-2.8,0.4c-1,0-1.4,0.5-1.4,1.5c-0.2,3.9-1.1,7.6-2.3,11.3
		C194.6,378.6,194.6,379,194.6,379.4z M115.1,110.3c-0.4-0.2-0.7-0.4-1-0.5c-0.6-0.1-1.2,0-1.8-0.1c-1.1-0.2-1.8,0.1-2.4,1.1
		c-1.1,1.6-2.2,3.2-3.5,4.6c-2.1,2.3-4.4,4.5-6.5,6.7c-0.3,0.3-0.6,1.1-0.5,1.4c0.5,0.8,2.5,0.9,3.3,0.3c4.4-3.8,8.4-8,11.9-12.7
		C114.7,110.9,114.8,110.7,115.1,110.3z M157.9,366.1c-0.1-0.2-0.1-0.4-0.2-0.5c-8.2,0.6-16.4,1.4-23.9,5.3c0.6,0.2,1.2,0.2,1.8,0.1
		c0.5-0.1,1-0.3,1.5-0.3c4.3-0.1,8.5-0.1,12.8-0.1c0.4,0,0.9,0.1,1.2-0.1C153.4,369,155.7,367.6,157.9,366.1z M87.9,103.8
		c-2.2-1.8-2.8-1.7-4.2,0.3c-2.3,3-4.7,5.9-7.1,8.8c-0.8,1-1.8,1.8-2.7,2.7c-0.5,0.5-0.8,1.2,0,1.3c1.4,0.1,2.8,0.6,4.2-0.7
		C81.9,112.5,85,108.3,87.9,103.8z M70.6,123.1c0,0.1-0.1,0.3-0.1,0.4c0.8,0.4,1.5,0.8,2.3,1.3c3.9,2.2,7.7,4.5,9.5,8.9
		c0.1,0.3,0.7,0.7,1,0.8c1.5,0.2,3,0.3,4.5,0.4c0.3,0,0.7-0.1,0.8-0.3c0.1-0.2,0.1-0.7-0.1-0.9c-1.4-1.7-2.7-3.5-4.3-4.9
		c-3.5-2.9-7.7-4.6-12.2-5.6C71.6,123.1,71.1,123.1,70.6,123.1z M88.5,119.9c0.2-0.1,0.7-0.3,1-0.5c3.8-3.2,6.9-7,9.8-11
		c0.2-0.3,0.1-1.2-0.2-1.4c-1.3-1-2.8-0.6-3.8,0.6c-2.7,3.3-5.5,6.5-8.2,9.7c-0.4,0.5-0.7,1-1.1,1.5c0.6,0.3,1.2,0.6,1.8,0.9
		C88,119.8,88.2,119.9,88.5,119.9z M4.8,228.5c4.8,1.4,13.1-6.6,13.7-12c-0.8,0-1.7,0-2.5,0c-1.2-0.1-1.9,0.4-2.5,1.5
		c-0.9,1.7-1.8,3.4-3,4.8C8.8,224.7,6.7,226.5,4.8,228.5z M16.1,227.9c1.6,0,3.2-0.1,4.6-1c4-2.5,6.6-6.2,8.7-10.3
		c0.2-0.3-0.1-1.3-0.4-1.3c-1.7-0.5-3.7,0.7-4.5,2.3c-0.6,1.3-1.2,2.6-2.1,3.7C20.5,223.5,18.3,225.6,16.1,227.9z M27.3,226.7
		c0.1,0.2,0.1,0.4,0.2,0.5c0.9-0.2,2.1-0.1,2.8-0.6c2.1-1.4,4.3-2.9,6-4.8c1.6-1.7,2.6-4,3.8-6.1c0.2-0.3,0.1-1.1-0.1-1.4
		c-0.7-0.6-3.7,0.4-4.1,1.2c-1.6,3.6-3.8,6.8-6.6,9.5C28.6,225.7,28,226.2,27.3,226.7z M100.3,249c3.2-0.2,5.9-0.4,8.6-0.7
		c0.4,0,0.9-0.8,1-1.3c0.4-2.1,0.7-4.2,1-6.3c0.1-0.4-0.1-0.8-0.1-1.3C107.2,242.6,103.9,245.6,100.3,249z M38.2,226.3
		c0.8-0.1,1.1-0.2,1.4-0.3c2.5-0.7,4.5-2.2,6.1-4.2c1.4-1.9,2.6-4,3.8-6.1c0.2-0.4,0.1-1.6-0.2-1.8c-0.9-0.5-2.5,0.3-3,1.3
		c-1.7,3.7-3.7,7.1-6.9,9.7C39.1,225.2,38.8,225.6,38.2,226.3z M100.9,135.7c-1.6-4.3-9.4-9.2-12-8.2c0.2,0.2,0.5,0.4,0.6,0.6
		c1.6,1.8,3.4,3.4,4.8,5.3C95.7,135.3,98.5,136.5,100.9,135.7z M49.1,224.6c0.5-0.1,1,0,1.4-0.2c4.2-2.2,6.9-5.7,8.2-10.2
		c0.1-0.3-0.1-0.8-0.3-0.9c-0.8-0.5-2.7,0.3-3.1,1.2c-0.6,1.5-1.2,3.1-2.1,4.5C52,220.9,50.5,222.6,49.1,224.6z M57.8,222.7
		c0.1,0.1,0.1,0.3,0.2,0.4c0.5-0.1,1-0.1,1.4-0.3c3.6-1.8,5.5-5,6.8-8.5c0.2-0.4,0.3-1.2,0.1-1.4c-0.3-0.3-1.1-0.3-1.4-0.1
		c-0.6,0.3-1.1,0.8-1.4,1.3c-1.2,2.1-2.3,4.3-3.6,6.4C59.3,221.3,58.5,221.9,57.8,222.7z"/>
	<path class="st1" d="M511.4,408.8c-6.3-0.5-12.7-1-19-1.5c-6.3-0.5-12.6-1-18.9-1.3c-7-0.4-14-0.3-21-0.9
		c-5.9-0.5-11.8-1.5-17.6-2.4c-2.4-0.4-4.7-1-7.1-1.5c-0.3-0.1-0.5-0.3-0.8-0.8c0.4-0.1,0.9-0.3,1.3-0.3c7.1,0.1,14.1,0.4,21.2,0.3
		c2.7,0,5.3-0.8,8-1.2c0.4-0.1,0.7-0.3,1.5-0.6c-9.9-3-19.5-5.6-28.6-9.6c0-0.2,0.1-0.4,0.1-0.6c0.9,0.1,1.8,0.1,2.7,0.2
		c2.8,0.4,5.5,1,8.3,1.4c5.2,0.8,10.4,1.5,15.6,2.2c3.3,0.4,6.6,0.7,9.9,1c3.7,0.3,7.5,0.6,11.2,0.5c6-0.1,12-0.9,17.9-2.2
		c1-0.2,1.9-0.6,2.9-1c0-0.1,0-0.3,0-0.4c-0.5-0.1-1-0.2-1.5-0.2c-7.5-0.1-15.1,0.2-22.6-0.3c-7.7-0.5-15.3-1.8-22.8-3.9
		c-1.6-0.4-3.1-1.1-4.6-1.7c0-0.2,0-0.3,0.1-0.5c0.8,0,1.6,0,2.4,0.1c2.7,0.4,5.4,1,8.1,1.3c9.8,1.2,19.7,2.1,29.7,1.8
		c5.2-0.2,10.3-0.6,15.5-1.1c1.4-0.1,2.7-1.1,3.9-1.9c0.4-0.3,0.5-1,0.8-1.5c-0.5-0.2-1.1-0.5-1.6-0.5c-4,0-8.1,0.3-12.1,0.2
		c-4.8-0.2-9.6-0.7-14.5-1.1c-1-0.1-2-0.6-3.1-0.9c0-0.1,0-0.3,0-0.4c0.6-0.1,1.2-0.2,1.9-0.2c4.6-0.1,9.3,0.1,13.9-0.2
		c5.2-0.3,10.3-0.8,15.4-1.5c0.9-0.1,2-1.4,2.5-2.4c0.6-1.2-0.1-2.1-1.6-2c-5.8,0.2-11.6,0.5-17.3,0.7c-0.9,0-1.9,0-2.8,0
		c0-0.2,0-0.4-0.1-0.6c0.3-0.1,0.6-0.4,0.9-0.4c4.7-0.9,9.3-1.7,14-2.6c1.5-0.3,3-0.7,4.5-1.2c0.3-0.1,0.6-0.4,0.6-0.6
		c0-0.2-0.3-0.6-0.5-0.7c-4-1.4-7.9-2.9-12.3-1.9c-5.4,1.2-10.8,2.3-16.3,3.3c-3.8,0.7-7.5-0.1-11-1.6c-4-1.7-7.8-3.7-12.1-4.3
		c-5-0.6-9.9-0.9-14.8,0.3c-8.2,2.1-16.4,3.5-24.9,2.4c-5-0.6-9.9-1.5-14.9-2.3c-0.3,0-0.8-0.3-0.8-0.5c0-0.3,0.2-0.7,0.4-1
		c2.2-2.1,4.3-4.1,6.6-6.1c0.5-0.4,1.3-0.6,1.9-0.6c3.9,0.3,7.7,0.8,11.6,0.9c5.4,0.1,10.2-1.8,14.8-4.5c3.9-2.3,7.7-4.8,12.2-5.8
		c5.4-1.2,10.9-1.2,16.1,0.9c2.7,1.1,5.2,2.7,7.8,4c4.3,2.2,8.7,2.1,13.1,0.4c1.2-0.5,2.3-1.5,3.4-2.2c1.7-1,3.5-2,5.3-3
		c-0.9-1.6-1.3-1.7-3-1.4c-2.9,0.6-5.8,1.4-8.8,1.6c-4.5,0.3-8-1.7-10-5.8c-0.2-0.3-0.1-0.8-0.1-1.2c0.4,0.1,0.8,0.1,1.1,0.3
		c4.4,2.8,9.2,2.6,14,1.4c0.4-0.1,0.9-0.3,1.4-0.6c-1-1.9-2.4-2.7-4.3-3c-2.4-0.4-4.9-0.9-7.3-1.7c-1-0.4-1.9-1.5-2.7-2.4
		c-1.9-2.6-3.5-5.4-5.5-7.9c-3.5-4.1-8-5.8-13.5-4.7c-1.9,0.4-3.9,0.8-5.9,0.9c-4.5,0.3-8.3-1.3-11.8-4.1c-0.9-0.7-1.8-1.5-2.7-2.3
		c0.1-0.2,0.1-0.3,0.2-0.5c0.5,0.1,1.1,0.1,1.6,0.2c2.3,0.3,4.6,0.9,6.9,1c1.2,0.1,2.5-0.3,3.7-0.7c0.3-0.1,0.5-0.7,0.8-1
		c-0.3-0.2-0.7-0.5-1-0.5c-4.7,0.1-8.9-1.6-12.7-4.2c-0.3-0.2-0.4-0.7-0.5-1c0.3-0.1,0.7-0.2,1-0.2c2.7,0.4,5.4,0.9,8.1,1.3
		c0.9,0.1,1.5,0,1.8-1.2c0.2-0.8,1.2-1.8,2-2c1.9-0.5,3.9-0.9,5.9-0.7c7.7,0.7,14.9,3.2,21.4,7.4c3.4,2.2,7.2,3.4,11.3,4
		c3.8,0.5,7.7,0.7,11.5-0.1c1.9-0.4,3.7-1.2,5.5-1.8c0.5-0.2,0.9-0.5,1.1-1c-4.7-0.6-9.1-1.1-13.3-2.3c7.1-1.5,14.5-1.4,21.1-5
		c0,6.8,0,13.7,0,20.5c-2-0.4-2.6,1.4-3.6,2.5c-0.7,0.8-0.3,1.1,0.6,1.2c1,0.1,2,0.4,3,0.6c0,1.3,0,2.7,0,4
		c-0.8-0.1-1.7-0.1-2.5-0.2c-4.2-0.8-4.2-0.8-5.6,3.1c0,0.1-0.1,0.2-0.1,0.3c-0.3,1,0,1.6,1.2,1.7c2.3,0.2,4.7,0.6,7,0.9
		c0,1.6,0,3.2,0,4.8c-0.3,0-0.6,0-0.8,0c-1.5-0.4-3-0.9-4.5-1.2c-0.9-0.2-1.8-0.2-3-0.3c1.1,2.1,2.5,3.3,4.2,4.1
		c1.4,0.6,2.7,1.3,4.1,2C511.4,370.4,511.4,389.6,511.4,408.8z M498,321.1c-3.4,0.1-6.9,0.6-10.4,0.3c-3.4-0.3-6.7-1.3-10.2-2
		C484.4,326.9,493.7,325.4,498,321.1z"/>
	<path class="st1" d="M511.4,485.9c-3.2,0.4-6.4,0.8-9.6,1.1c-7.2,0.6-14.4,1.4-21.6,1.7c-9.3,0.4-18.6,0.6-27.9,0.4
		c-14.3-0.5-28.5,0.1-42.8-0.1c-11.4-0.1-22.9-0.4-34.3-0.9c-8.5-0.3-17.1-0.7-25.6-1.5c-7.7-0.7-15.3-1.8-22.9-3.1
		c-5.4-0.9-10.7-2.2-16-3.5c-3.3-0.7-6.5-1.6-9.8-2.5c-0.7-0.2-1.3-0.5-1.9-0.8c0-0.1,0-0.3,0.1-0.4c0.7,0,1.4-0.1,2.1,0
		c5.4,0.5,10.9,0.9,16.3,1.5c6.9,0.7,13.9,1.5,20.8,2.2c5.6,0.6,11.2,1.3,16.8,1.8c9.3,0.8,18.6,1.5,27.9,2.1
		c4,0.3,8.1,0.3,12.1,0.4c13.1,0.2,26.2,0.5,39.3,0.5c6.2,0,12.3-0.7,18.5-1c8.2-0.5,16.5-1,24.7-1.3c10.6-0.4,21.2-0.5,31.7-0.8
		c0.7,0,1.3,0.1,2,0.1C511.4,483.3,511.4,484.6,511.4,485.9z"/>
	<path class="st1" d="M511.4,470.3c-8.3,0.1-16.5,0-24.8,0.3c-12.7,0.5-25.4,1.6-38.1,1.8c-16.2,0.3-32.5,0.2-48.7,0
		c-10.4-0.2-20.9-0.7-31.3-1.4c-9.3-0.6-18.6-1.5-27.9-2.4c-3.8-0.4-7.6-1.4-11.4-2.1c-3.2-0.6-6.4-1.2-9.6-1.9
		c-3.6-0.8-7.2-1.8-10.7-2.7c-3.8-1-7.5-1.9-11.3-2.9c-1.1-0.3-2.1-0.7-3.2-1c0-0.1,0-0.3,0-0.4c0.7,0,1.5-0.1,2.2,0
		c2.6,0.3,5.3,0.7,7.9,1.1c3.6,0.5,7.1,0.9,10.7,1.3c6.4,0.7,12.8,1.5,19.2,2.2c5.1,0.5,10.3,0.9,15.4,1.3c7.1,0.5,14.2,1,21.3,1.5
		c8.1,0.5,16.2,1,24.3,1.6c7.2,0.6,14.4,1.3,21.5,2.2c8,1,16,0.9,24,0.7c13.4-0.3,26.8-0.7,40.3-1.3c2.8-0.1,5.5-0.8,8.3-1.1
		c6.9-0.8,13.7-1.5,20.6-2.3c0.4,0,0.8,0.1,1.3,0.1C511.4,466.7,511.4,468.5,511.4,470.3z"/>
	<path class="st1" d="M511.4,2.6c-4,7.4-10.1,12.5-17.5,16.2c-9.2,4.7-19.1,5.6-29.2,4.7c-7.5-0.7-14.2-3.7-20.2-8.3
		c-4.7-3.6-8.5-7.9-12-12.6c-0.2-0.3-0.4-0.8-0.5-1.1c1,0,2.1,0,3.1,0c5.5,5.7,12.1,9.9,19.3,13.2c0.2,0.1,0.5,0,1.2-0.1
		c-4.7-3.9-8.2-8.4-11.3-13.2c1.2,0,2.5,0,3.7,0c3.5,2.9,7.2,5.6,11.4,7.4c3.1,1.3,6.3,2.3,9.4,3.3c0.4,0.1,1-0.1,1.5-0.1
		c-1.8-1.2-3.6-2.1-5.3-3.2c-3.4-2-6.5-4.4-9-7.5c1.4,0,2.8,0,4.3,0c0.9,0.5,1.9,1.1,2.8,1.6c4.7,2.6,9.6,4.5,14.9,5.1
		c9.3,1,17.8-1.5,25.5-6.7c2.7,0,5.3,0,8,0C511.4,1.9,511.4,2.3,511.4,2.6z"/>
	<path class="st1" d="M511.4,478c-3.1,0.3-6.2,0.6-9.3,0.8c-8.8,0.5-17.5,1.2-26.3,1.5c-10.7,0.3-21.4,0.5-32.2,0.5
		c-7.3,0-14.6-0.7-21.9-0.9c-6.7-0.2-13.4-0.1-20.1-0.2c-8.8-0.1-17.7-0.3-26.5-0.6c-9.2-0.3-18.4-0.7-27.6-1.5
		c-7.2-0.6-14.4-1.9-21.5-3c-4.1-0.7-8.2-1.6-12.2-2.5c-5.3-1.2-10.6-2.5-15.9-3.8c-0.3-0.1-0.6-0.3-0.8-0.7c0.5-0.1,1-0.2,1.5-0.2
		c7.1,0.5,14.3,1,21.4,1.6c7.5,0.7,14.9,1.7,22.3,2.5c7.4,0.8,14.9,1.7,22.3,2.5c18.4,2,36.8,2.4,55.3,2.4c6.7,0,13.4,0.2,20.1,0.1
		c8.5-0.2,17.1-0.6,25.6-0.9c6.4-0.3,12.9-0.6,19.3-0.9c8.1-0.3,16.1-0.7,24.2-1c0.7,0,1.4,0,2.1,0
		C511.4,475.1,511.4,476.5,511.4,478z"/>
	<path class="st1" d="M511.4,505c-1.6,0.1-3.1,0.3-4.7,0.4c-15.7,1.2-31.5,2-47.2,1.5c-13.2-0.5-26.4-0.7-39.6-0.6
		c-8.6,0.1-17.2,0.1-25.8-0.2c-9.5-0.3-18.9-1-28.4-1.5c-6-0.3-11.9-0.6-17.9-1c-5.4-0.4-10.9-0.8-16.3-1.6
		c-4.1-0.6-8.1-1.9-12.1-2.9c-3.4-0.9-6.9-1.7-10.3-2.6c-1.2-0.3-2.3-0.7-3.5-1c0-0.1,0-0.2,0-0.4c0.5-0.1,1-0.3,1.5-0.3
		c6.6,0.5,13.1,1,19.7,1.5c3.1,0.3,6.1,0.6,9.2,0.9c2.6,0.3,5.2,0.7,7.9,1c7.9,0.8,15.8,1.9,23.7,2.4c21.6,1.5,43.3,1.8,65,1.8
		c9.2,0,18.4-0.4,27.6-0.6c16.6-0.4,33.3-0.8,49.9-1.2c0.4,0,0.8,0,1.1,0.1C511.4,502.2,511.4,503.6,511.4,505z"/>
	<path class="st1" d="M511.4,496.2c-2.5,0.2-5,0.4-7.5,0.5c-8.1,0.3-16.1,0.8-24.2,0.9c-6.7,0.1-13.4,0-20.1,0
		c-21.1-0.1-42.2-0.1-63.3-0.4c-9.7-0.1-19.3-0.9-29-1.4c-7.9-0.4-15.8-0.6-23.7-1.1c-5.2-0.4-10.4-1.2-15.6-2.1
		c-4.3-0.7-8.5-1.7-12.8-2.7c-3.8-0.9-7.6-1.9-11.4-2.9c-0.4-0.1-0.9-0.3-1.3-0.8c0.5-0.1,0.9-0.2,1.4-0.2
		c5.1,0.4,10.2,0.8,15.3,1.2c4,0.3,7.9,0.6,11.9,1.1c5.7,0.6,11.3,1.3,16.9,2c5.4,0.6,10.7,1.4,16.1,1.7c13.2,0.7,26.3,1.2,39.5,1.5
		c12.7,0.3,25.3,0.5,38,0.5c4.3,0,8.5-0.6,12.8-0.8c5.6-0.3,11.3-0.7,16.9-0.8c12.7-0.3,25.3-0.5,38-0.7c0.7,0,1.4,0,2.1,0
		C511.4,493.2,511.4,494.7,511.4,496.2z"/>
	<path class="st1" d="M511.4,461.2c-3.7-0.3-7.3-0.6-11-0.9c-1.7-0.1-3.4-0.2-5.1-0.1c-5,0.2-10,0.6-15.1,0.7
		c-20.8,0.3-41.6,0.6-62.5,0.9c-3.4,0-6.8,0-10.2-0.1c-6.9-0.3-13.8-0.7-20.8-0.9c-2.8-0.1-5.6,0.6-8.5,0.7c-4,0.2-8.1,0.4-12.1,0.3
		c-5.3-0.2-10.6-0.5-15.9-1c-5.8-0.6-11.6-1.3-17.4-2.1c-4.1-0.6-8.2-1.2-12.2-2c-4-0.8-8-1.8-12-2.9c-3.5-0.9-6.9-1.9-10.4-2.8
		c-2-0.6-4-1.1-6-1.7c-0.3-0.1-0.5-0.3-1-0.7c0.5-0.1,0.7-0.2,1-0.2c5.2,0.4,10.4,0.8,15.6,1.2c5.9,0.5,11.7,1.1,17.6,1.6
		c7.6,0.7,15.3,1.5,22.9,2.2c3.7,0.3,7.5,0.5,11.2,1.1c3.4,0.6,6.8,1.7,10.2,2.4c2.6,0.6,5.2,1.4,7.8,1.5c5.4,0.1,10.7-0.3,16.1-0.4
		c3.6,0,7.2,0.2,10.8,0.2c7.5,0.2,15,0.5,22.5,0.5c18.4,0.1,36.8,0.2,55.2,0.2c6.2,0,12.4-0.2,18.6-0.6c3-0.2,6-0.8,9-1.2
		c0.6-0.1,1.1-0.1,1.7-0.2C511.4,458.3,511.4,459.7,511.4,461.2z"/>
	<path class="st1" d="M352.2,513c-0.6-0.1-1.1-0.2-1.7-0.3c-5-0.3-10-0.4-14.9-0.9c-3-0.3-6-1.1-9-1.8c-3.5-0.9-6.9-1.9-10.4-2.9
		c-2.1-0.6-4.2-1.1-6.3-1.8c-0.5-0.1-0.9-0.5-1.4-0.8c0-0.1,0.1-0.3,0.1-0.4c0.5-0.1,1-0.2,1.4-0.1c3.9,0.3,7.7,0.5,11.6,0.9
		c5.2,0.5,10.5,0.8,15.7,1.7c7.2,1.2,14.4,2.5,21.6,3c6.8,0.4,13.6,0.7,20.5,1c14.5,0.5,28.9,1.1,43.4,1.4c11.9,0.2,23.8,0.2,35.7,0
		c6.4-0.1,12.9-0.9,19.3-1.3c4.9-0.3,9.9-0.3,14.8-0.4c5.6-0.1,11.2-0.2,16.8-0.3c0.7,0,1.3,0,2,0.1c0,1,0,2.1,0,3.1
		C458.4,513,405.3,513,352.2,513z"/>
	<path class="st1" d="M271.1,1.5c-3.4,2-6.7,4-10.1,5.9c-2.5,1.4-5.3,2.3-7.8,3.7c-3.3,1.8-6.5,3.8-9.7,5.8
		c-0.1,0.1-0.3,0.1-0.8,0.2c1.1-2.6,2.4-4.7,4-6.9c-0.6-0.1-0.9-0.3-1.3-0.3c-5.8,0-11.7-0.1-17.5,0.2c-3.9,0.2-7.3,1.9-10.7,4
		c-4,2.4-7.8,5.2-10.3,9.2c-1.8,2.8-3.3,5.9-4.9,8.8c-0.4,0.6-0.7,1.3-1,2c-0.1,0-0.3,0-0.4-0.1c0-0.5-0.2-1-0.1-1.4
		c1.8-7.9,4.6-15.3,11.1-20.7c2.9-2.4,6.1-4,9.8-5c6.6-1.9,13.3-2.3,20-3.2c3.8-0.5,7.7-1.2,11.5-1.9C258.9,1.5,265,1.5,271.1,1.5z"
		/>
	<path class="st1" d="M412.6,1.5c4.5,5.9,9.9,10.9,16.3,14.6c0.4,0.3,0.8,0.7,1.2,1.1c-0.5,0.3-1,0.7-1.5,0.7
		c-6,0.4-12,0.4-17.9-1.2c-9.4-2.5-17.5-7.3-24.5-14c-0.3-0.3-0.6-0.7-0.9-1.1c1.4,0,2.8,0,4.3,0c8.2,5.1,16.6,9.5,26.6,10.8
		c-1.9-2.1-3.7-3.9-5.1-5.8c-1.1-1.5-1.8-3.3-2.8-5C409.8,1.5,411.2,1.5,412.6,1.5z"/>
	<path class="st1" d="M511.4,452.1c-2.2,0.2-4.4,0.5-6.6,0.5c-13.9,0-27.9,0-41.8-0.2c-8.4-0.1-16.8-0.7-25.1-1.1
		c-1,0-1.9-0.3-2.9-0.4c0-0.1,0-0.3,0-0.4c1-0.1,1.9-0.3,2.9-0.3c11.5-0.3,22.9-0.6,34.4-1c12.4-0.4,24.8-0.9,37.2-1.3
		c0.7,0,1.3,0.1,2,0.2C511.4,449.4,511.4,450.7,511.4,452.1z"/>
	<path class="st1" d="M511.4,443.5c-9.8-0.1-19.6-0.2-29.4-0.4c-5.7-0.1-11.4-0.3-17.1-0.5c-0.7,0-1.4-0.2-2.1-0.3
		c0-0.2,0-0.4,0-0.6c0.8-0.2,1.6-0.4,2.4-0.5c4.5-0.3,9.1-0.7,13.6-0.9c10.5-0.5,20.9-0.8,31.4-1.2c0.4,0,0.9,0,1.3,0
		C511.4,440.7,511.4,442.1,511.4,443.5z"/>
	<path class="st1" d="M511.4,435.5c-10.5,0.2-21-0.2-31.4-1.3c0-0.2-0.1-0.4-0.1-0.7c0.7-0.2,1.3-0.4,2-0.5c5.3-0.7,10.7-1.5,16-2.1
		c4.5-0.5,9-0.7,13.4-1.1C511.4,431.7,511.4,433.6,511.4,435.5z"/>
	<path class="st1" d="M511.4,99.2c-0.6,0-1.1,0.1-1.7,0.1c-9.2-0.9-18.3-1.8-27.5-2.6c-3.7-0.3-7.4-0.4-11.1-0.6
		c-0.8,0-1.6-0.2-2.3-0.3c0-0.1,0-0.3,0-0.4c0.8-0.1,1.6-0.4,2.4-0.4c8.9-0.2,17.8-0.4,26.8-0.4c4.5,0,9,0.4,13.5,0.7
		C511.4,96.5,511.4,97.9,511.4,99.2z"/>
	<path class="st1" d="M511.4,110.9c-1.7-0.1-3.3-0.2-5-0.3c-9.1-0.8-18.3-1.7-27.4-2.5c-1.5-0.1-3-0.3-4.6-0.8
		c12.3-1.5,24.6-1.4,37-0.4C511.4,108.2,511.4,109.5,511.4,110.9z"/>
	<path class="st1" d="M511.4,417c-7.2,0-14.4-0.9-21.4-2.2c0-0.1-0.1-0.3-0.1-0.4c0.4-0.2,0.8-0.6,1.2-0.7
		c6.8-0.7,13.6-1.4,20.3-2.1C511.4,413.4,511.4,415.2,511.4,417z"/>
	<path class="st1" d="M511.4,426.1c-7.1-0.2-14.2-0.8-21.2-2.3c0-0.1-0.1-0.3-0.1-0.4c0.4-0.2,0.8-0.6,1.3-0.7
		c6.7-0.7,13.3-1.3,20-2C511.4,422.5,511.4,424.3,511.4,426.1z"/>
	<path class="st1" d="M511.4,86.9c-9.5-0.8-19.1-1.5-28.6-2.3c-1.3-0.1-2.5-0.3-3.8-0.5c0-0.2,0-0.4,0-0.6c0.5-0.1,1-0.3,1.6-0.3
		c9.8-0.1,19.5-0.2,29.3-0.3c0.5,0,1,0.1,1.5,0.2C511.4,84.5,511.4,85.7,511.4,86.9z"/>
	<path class="st1" d="M511.4,178.9c-2.4-0.2-4.7-0.4-7.1-0.6c-4.6-0.5-9.2-0.9-13.9-1.4c-0.7-0.1-1.4-0.2-2-0.6
		c7.6-0.8,15.3-1.4,23-1.1C511.4,176.5,511.4,177.7,511.4,178.9z"/>
	<path class="st1" d="M511.4,74.4c-8-0.6-15.9-1.2-23.9-1.9c0-0.2,0-0.3,0-0.5c0.3-0.1,0.6-0.2,0.9-0.2c7.1-0.3,14.2-0.5,21.3-0.8
		c0.6,0,1.1,0.1,1.7,0.2C511.4,72.3,511.4,73.4,511.4,74.4z"/>
	<path class="st1" d="M511.4,226.5c-3.1-0.7-6.1-1.5-9.2-2.1c-1.1-0.3-2.3-0.3-3.5-0.6c-0.3-0.1-0.5-0.5-0.8-0.7
		c0.2-0.2,0.5-0.5,0.7-0.5c4.2,0,8.5,0,12.7,0C511.4,223.8,511.4,225.2,511.4,226.5z"/>
	<path class="st1" d="M511.4,122.8c-6.4-1-12.7-2-19.1-3.1c0-0.1,0-0.2,0-0.3c0.2-0.1,0.4-0.3,0.7-0.3c6.1,0.3,12.3,0.6,18.4,0.9
		C511.4,120.9,511.4,121.9,511.4,122.8z"/>
	<path class="st1" d="M511.4,235.3c-1.8-0.4-3.6-0.8-5.4-1.2c-2.3-0.5-4.6-0.9-6.9-1.4c-0.4-0.1-0.8-0.5-1.2-0.7
		c0.4-0.2,0.9-0.6,1.3-0.6c4.1,0,8.2,0,12.2,0C511.4,232.7,511.4,234,511.4,235.3z"/>
	<path class="st1" d="M511.4,62.2c-3.3-0.2-6.5-0.4-9.8-0.6c-2.9-0.2-5.8-0.3-8.6-0.5c-0.5,0-1-0.1-1.4-0.4
		c6.6-1.3,13.2-1.2,19.8-1.1C511.4,60.5,511.4,61.3,511.4,62.2z"/>
	<path class="st1" d="M511.4,169.8c-5.4-0.6-10.8-1.2-16.2-1.7c0-0.1-0.1-0.3-0.1-0.4c0.7-0.2,1.5-0.6,2.2-0.6
		c4.7-0.3,9.4-0.4,14.1-0.7C511.4,167.5,511.4,168.7,511.4,169.8z"/>
	<path class="st1" d="M511.4,198.9c-3-0.5-6.1-1-9.1-1.4c-1.3-0.2-2.5-0.2-3.8-0.4c-0.5-0.1-1.1-0.2-1.6-0.3c0-0.2,0-0.3,0-0.5
		c0.8-0.2,1.6-0.6,2.5-0.6c4-0.2,8-0.4,12.1-0.5C511.4,196.4,511.4,197.6,511.4,198.9z"/>
	<path class="st1" d="M511.4,217.4c-1.4-0.3-2.8-0.6-4.1-0.9c-2.7-0.6-5.4-1.1-8-1.7c-0.2,0-0.4-0.2-0.6-0.3
		c0.7-1.2,9.6-1.8,12.8-0.9C511.4,214.9,511.4,216.1,511.4,217.4z"/>
	<path class="st1" d="M511.4,188.3c-4.2-0.5-8.5-1-12.7-1.5c-1.4-0.2-2.7-0.3-4.1-0.5c0-0.1,0-0.3,0-0.4c0.6-0.1,1.2-0.3,1.8-0.3
		c4.4-0.2,8.9-0.3,13.3-0.4c0.5,0,1.1,0.2,1.7,0.3C511.4,186.4,511.4,187.4,511.4,188.3z"/>
	<path class="st1" d="M511.4,244.1c-2.6-0.6-5.1-1.3-7.7-1.9c-1.2-0.3-2.5-0.5-3.8-0.7c-0.5-0.1-1-0.3-1.5-0.8
		c4.3-0.8,8.6-0.8,12.9-0.6C511.4,241.5,511.4,242.8,511.4,244.1z"/>
	<path class="st1" d="M511.4,253c-2.1-0.5-4.2-1-6.3-1.5c-1.6-0.4-3.2-0.6-4.9-1c-0.6-0.1-1.2-0.4-1.7-0.9c4.3-0.6,8.6-0.9,12.9-0.3
		C511.4,250.5,511.4,251.7,511.4,253z"/>
	<path class="st1" d="M511.4,261.5c-1.8-0.4-3.7-0.7-5.5-1.1c-2.1-0.4-4.1-0.9-6.2-1.4c-0.3-0.1-0.5-0.2-0.9-0.4
		c0.3-0.2,0.5-0.4,0.7-0.4c3.7-0.1,7.5-0.2,11.2-0.3c0.3,0,0.5,0.2,0.8,0.3C511.4,259.2,511.4,260.4,511.4,261.5z"/>
	<path class="st1" d="M511.4,208.3c-2.9-0.6-5.8-1.3-8.7-1.9c-1-0.2-2.1-0.4-3.2-0.9c3.9-1.3,7.9-1.1,11.8-0.9
		C511.4,205.8,511.4,207,511.4,208.3z"/>
	<path class="st1" d="M511.4,270.4c-3.9-0.9-7.8-1.8-11.7-2.8c0-0.2,0-0.4,0-0.5c3.8-0.6,7.7-0.5,11.6-0.4
		C511.4,267.9,511.4,269.1,511.4,270.4z"/>
	<path class="st1" d="M511.4,279.2c-3.6-0.9-7.2-1.8-10.9-2.7c0-0.2,0-0.3,0-0.5c3.6-0.6,7.2-0.8,10.8-0.5
		C511.4,276.7,511.4,277.9,511.4,279.2z"/>
	<path class="st1" d="M511.4,50.2c-4.6-0.2-9.2-0.4-13.7-0.7c-0.3,0-0.7-0.2-1-0.3c0-0.2,0-0.3,0-0.5c0.8-0.2,1.6-0.5,2.4-0.5
		c4.1-0.2,8.2-0.2,12.3-0.3C511.4,48.7,511.4,49.4,511.4,50.2z"/>
	<path class="st1" d="M511.4,287.7c-3.4-0.8-6.9-1.6-10.3-2.3c0-0.1,0-0.3,0-0.4c3.4-0.8,6.9-0.7,10.3-0.6
		C511.4,285.4,511.4,286.6,511.4,287.7z"/>
	<path class="st1" d="M511.4,296c-2.6-0.6-5.3-1.1-7.9-1.7c0-0.1,0-0.3,0-0.4c2.6-0.9,5.2-0.9,7.9-0.5
		C511.4,294.3,511.4,295.1,511.4,296z"/>
	<path class="st1" d="M511.4,304.5c-2.4-0.4-4.9-0.9-7.3-1.3c0-0.3,0-0.5,0.1-0.8c2.4-0.3,4.8-0.5,7.2-0.1
		C511.4,303,511.4,303.8,511.4,304.5z"/>
	<path class="st1" d="M511.4,159.8c-1.8-0.1-3.5-0.3-5.3-0.4c0-0.1,0-0.3,0-0.4c1.7-0.4,3.5-0.7,5.3-0.3
		C511.4,159.1,511.4,159.5,511.4,159.8z"/>
	<path class="st1" d="M471.1,201.7c-0.4,0.1-0.9,0.2-1.3,0.2c-4.9,0.1-9.9,0.1-14.8,0.2c-2.4,0-4.5,0.8-6,2.7
		c-0.3,0.3-0.5,0.9-0.4,1.2c0.1,0.3,0.7,0.6,1.1,0.6c3.7,0.4,7.4,0.7,11,1.1c0.8,0.1,1.6,0.5,2.4,0.7c0,0.2,0,0.3-0.1,0.5
		c-0.4,0.1-0.8,0.2-1.3,0.3c-5.9,0.6-11.9,1-17.8,1.7c-1.2,0.1-2.3,0.8-3.4,1.3c-0.4,0.2-0.7,0.7-1,1c0.4,0.2,0.9,0.5,1.3,0.5
		c2.9,0.3,5.9,0.5,8.8,0.8c1.1,0.1,2.3,0.4,3.4,0.9c-0.2,0.1-0.4,0.2-0.6,0.3c-2.9,0.3-5.9,0.5-8.8,0.9c-5.8,0.7-11.7,1.5-17.5,2.1
		c-4.7,0.5-9.5,0.6-14.2,0.9c-0.7,0-1.3-0.2-2-0.3c0-0.1,0-0.3,0-0.4c0.6-0.1,1.3-0.4,1.9-0.4c5.1-0.4,9.6-2.3,14.1-4.5
		c3.1-1.5,6.1-3.1,9.2-4.7c0.5-0.3,1-0.8,1.4-1.2c-0.6-0.5-1.2-1.3-1.8-1.4c-2.2-0.2-4.6-0.6-6.8-0.2c-4.2,0.7-8.4,1.9-12.6,2.9
		c-2.4,0.6-4.8,1.2-7.2,1.8c-5.4,1.3-10.8,0.9-16.2,0.1c-4.9-0.8-9.7-2.2-14.2-4.3c-2.7-1.3-5.2-3.1-7.9-4.4c-1.2-0.6-2.7-1-4.1-1.2
		c-2.1-0.3-4.1-0.3-6.2-0.5c-0.3,0-0.7-0.2-1.1-0.6c1-0.7,2.1-1.3,3.1-2c7.6-4.5,15.5-8.3,23.9-11.2c8.7-2.9,17.6-4.5,26.7-3.3
		c6.3,0.8,12.4,2.4,18.2,5.1c1.3,0.6,2.5,1.2,4,1.7c-0.2-0.4-0.4-0.9-0.7-1.3c-5.2-7.1-12.3-11.4-20.9-13.2
		c-3.8-0.8-7.8-1.3-11.7-1.4c-6.6-0.2-13,1.3-19.1,3.7c-5.5,2.1-10.6,4.8-15.4,8c-5.8,3.9-11.1,8.4-16.1,13.3
		c-0.6,0.5-1.5,0.9-2.4,0.9c-6.8,0.2-12.6-2.6-18.3-5.7c-0.1-0.1-0.2-0.2-0.5-0.7c6.4,0.2,12.2-1.3,18.3-3.7
		c-0.7-0.4-1.1-0.7-1.6-0.7c-3.3-0.5-6.6-0.9-9.9-1.3c-3-0.4-6-0.7-9-1.1c-0.4,0-0.7-0.3-1-0.8c0.3-0.1,0.6-0.3,1-0.4
		c7.8-1,15.7-1.1,23.6-0.2c1.4,0.2,2.7,0.3,4.1,0.2c0.7,0,1.3-0.4,1.9-0.8c1.4-0.9,2.7-1.8,3.9-3c-9.3-1-18.5-1.9-27.7-2.6
		c0-0.2,0-0.4,0-0.6c0.3-0.1,0.6-0.3,1-0.3c7.2-0.5,14.4-1.1,21.6-1.4c3.4-0.1,6.7,0.2,10.1,0.4c1.4,0.1,2.7,0,4-0.7
		c2.2-1.1,4.6-2,7.3-3.2c-0.8-0.2-1.3-0.4-1.9-0.4c-9.2-0.2-18.4-0.4-27.6-0.7c-0.8,0-1.6-0.1-2.4-0.2c0-0.1-0.1-0.3-0.1-0.4
		c0.9-0.2,1.8-0.6,2.7-0.7c15.4-1.9,30.8-2.5,46.3-1.8c7,0.3,13.9,0.8,20.9,1.2c2.1,0.1,4.1,0.5,6.2,0.5c1.5,0.1,2.1-1,1.4-2.4
		c-0.6-1.1-1.2-2.1-2.7-2.2c-3.7-0.2-7.5-0.8-11.2-0.8c-13.8-0.3-27.6-0.4-41.4-0.6c-1.3,0-2.6,0-3.9,0c0-0.2,0-0.3,0-0.5
		c1.2-0.3,2.3-0.7,3.5-0.8c5.4-0.7,10.7-1.5,16.1-1.8c7.2-0.5,14.5-0.5,21.7-0.9c4.1-0.2,8.2-1,12.3-1.4c5.2-0.5,10.4-0.2,15.4,1.1
		c4.7,1.3,9.5,2.7,14,4.5c4.2,1.7,8.2,4,12.2,6c2.1,1,4.3,2,6.4,3.1c0.5,0.3,1,0.6,1.5,0.9c0,0.2,0,0.3,0,0.5
		c-1.7,0.3-3.5,0.5-5.2,0.8c-0.7,0.1-1.5,0.2-2.2,0.5c-0.4,0.1-0.9,0.6-0.9,0.9c0,0.4,0.4,0.9,0.8,1c1.9,0.9,3.8,1.7,5.7,2.5
		c1.6,0.6,3.3,1.1,4.9,1.8c0.5,0.2,0.8,0.6,1.1,1.2c-0.6,0-1.1,0-1.7,0c-3.8-0.2-7.7-0.4-11.5-0.5c-2.2,0-3.4,1.3-3.2,3.1
		c0.1,1,0.6,1.6,1.7,1.8c6.4,0.9,12.8,1.7,19.2,2.6c0.9,0.1,1.7,0.5,2.6,0.8c0,0.2,0,0.3,0,0.5c-0.4,0.1-0.8,0.2-1.3,0.3
		c-7.2,0.2-14.3,0.5-21.5,0.7c-0.5,0-0.9,0.3-1.4,0.4c0.2,0.5,0.3,1,0.6,1.4c1.1,1.6,2.7,2.2,4.6,2.5c3.3,0.5,6.5,1.4,9.8,2.1
		c0.9,0.2,1.8,0.6,2.8,0.9C471.1,201.3,471.1,201.5,471.1,201.7z M386.2,201.6c0-0.2,0-0.3,0-0.5c0.5-0.1,1-0.3,1.4-0.3
		c1.4-0.3,2.7-0.8,3.5-2.2c0.6-1.1,0.4-1.7-0.8-1.6c-1.8,0.1-3.6,0.3-5.3,0.8c-2.1,0.7-4.1,1.7-6.1,2.7c-0.7,0.3-1.2,0.9-0.1,1.5
		c6.2,3.9,12.9,5.8,20.3,5.5c2.2-0.1,4.4-0.6,6.6-0.9c0-0.2,0-0.4,0-0.6C398.8,206.1,391.9,206.3,386.2,201.6z M412,201.2
		c0,0.9-0.4,2.3,1.2,2.5c1.7,0.3,3.4-0.3,4.8-1.4c0.8-0.6,0.9-1.6,0.1-2.2c-0.9-0.7-1.9-1.2-3-1.5C412.5,198,412.2,198.3,412,201.2z
		"/>
	<path class="st1" d="M250.6,242.7c0.8,1.1,1.5,2.1,2.3,3.2c3.5,5,7.9,9.3,12.6,13.3c2.8,2.4,5.5,5,7.3,8.3c2.5,4.5,3,9.3,2,14.3
		c-0.3,1.2-0.8,2.4-1.1,3.7c-0.2,0.9-0.7,1.2-1.6,1.3c-3.4,0.1-6.7-0.5-9.9-1.5c-5.8-1.8-10.5-5.3-14.8-9.5
		c-0.5-0.5-0.8-1.1-1.1-1.4c3.6,1.3,7.3,2.7,11,4c0.9,0.3,1.8,0.5,2.8,0.5c1.1,0,0.9-0.7,0.6-1.4c-1.4-3.1-3-6.1-5.4-8.6
		c-1.8-1.9-3.7-3.8-5.5-5.8c-3.2-3.6-4.9-7.9-6.1-12.5c-0.3-1-0.6-2-0.9-3c0.1-0.1,0.3-0.1,0.4-0.2c1.1,1.6,2.2,3.1,3.2,4.7
		c2.6,3.9,5.7,7.2,9.6,9.8c3.6,2.4,5.8,6.1,7.8,9.7c0.5,0.9,1,1.7,1.5,2.6c0.5,0.9,1.2,0.7,1.8,0.3c1.6-1.1,2.1-3.2,1.4-5.1
		c-1.1-2.9-3.3-5-5.3-7.1c-4.2-4.3-8-9-10.9-14.3c-0.8-1.6-1.5-3.3-2.2-4.9C250.3,242.9,250.4,242.8,250.6,242.7z"/>
	<path class="st1" d="M266.9,370.7c0.2,0,0.4-0.1,0.7-0.1c4.5,0.4,8.9,1,12.9,3.4c1.5,0.9,3.3,1.6,5.1,2c5.9,1.3,11.8,2.5,17.7,3.5
		c5.4,1,10.7,1.8,16.1,2.5c8.3,1.2,16.5,2.3,24.8,3.3c7.7,0.9,15.5,1.7,23.2,2.5c5.8,0.6,11.7,1,17.6,1.6c6,0.5,12,1.1,18,1.6
		c0.3,0,0.6,0.1,1,0.4c-0.4,0.1-0.8,0.2-1.3,0.2c-12.5,0.8-25,1.2-37.6,0.3c-5.9-0.4-11.8-0.6-17.7-1.2c-5.6-0.5-11.2-1.3-16.8-2
		c-4.3-0.6-8.5-1.2-12.8-2.1c-4.2-0.8-8.4-1.9-12.6-2.9c-3.5-0.9-7-1.7-10.4-2.7c-3.6-1.1-7.2-2.4-10.8-3.6
		c-1.2-0.4-2.4-0.9-3.7-1.1c-3.2-0.3-6.1-1.7-9-2.9c-1.5-0.7-3-1.5-4.6-2.2C266.9,370.9,266.9,370.8,266.9,370.7z"/>
	<path class="st1" d="M422.4,450.8c-1.6,0.1-3.2,0.3-4.8,0.3c-10.2,0.1-20.3,0.3-30.5,0.3c-5.6,0-11.2-0.2-16.8-0.6
		c-2.7-0.2-5.4-0.9-8.2-1.1c-2.2-0.2-4.4,0.1-6.6,0.1c-4.3,0-8.5,0.2-12.8-0.2c-6.1-0.5-12.3-1.2-18.3-2.2c-5.9-1-11.7-2.2-17.5-3.7
		c-5.6-1.5-11.1-3.4-16.7-5.1c-1-0.3-1.9-0.7-2.8-1.1c0-0.1,0-0.3,0-0.4c0.4-0.1,0.8-0.2,1.2-0.2c6.7,0.7,13.4,1.3,20.1,2.1
		c5.9,0.7,11.8,1.4,17.6,2.4c6.3,1,12.6,2.1,18.9,3.3c3.2,0.6,6.3,1.7,9.5,2.4c1.4,0.3,2.9,0.4,4.4,0.4c5.3,0.1,10.5,0,15.8,0.3
		c7.4,0.4,14.9,1,22.3,1.4c7.5,0.4,15.1,0.6,22.6,0.9c0.9,0,1.8,0.2,2.6,0.2C422.4,450.5,422.4,450.7,422.4,450.8z"/>
	<path class="st1" d="M404.9,379.9c-0.5,0-1,0.1-1.5,0.1c-13.9,0.5-27.9,0.7-41.8-0.1c-9-0.5-18-1.3-26.9-2.6
		c-8.9-1.2-17.8-2.9-26.6-4.8c-6.3-1.4-12.4-3.4-18.6-5.2c-3.3-1-6.5-2.3-9.8-3.3c-1.6-0.5-3.4-0.5-5-1.1c-2.6-1-5.1-2.3-7.6-3.5
		c-0.2-0.1-0.3-0.5-0.7-1c3.7,0.6,7.2,0.7,10.2,2.6c2.2,1.4,4.6,2.1,7,2.7c6.3,1.4,12.6,2.8,18.9,4c4.2,0.8,8.5,1.3,12.8,1.9
		c4.5,0.7,9,1.4,13.5,2c3.3,0.5,6.7,0.8,10,1.2c2.5,0.3,5,0.6,7.5,0.9c9.4,1,18.9,2.1,28.3,3c5.4,0.5,10.8,0.8,16.2,1.2
		c4,0.3,8,0.6,12.1,0.9c0.7,0.1,1.4,0.3,2.1,0.4C404.9,379.5,404.9,379.7,404.9,379.9z"/>
	<path class="st1" d="M398.8,441.2c-1.4,0.2-2.9,0.5-4.3,0.5c-9.2,0-18.3,0-27.5-0.2c-4.2-0.1-8.3-0.7-12.4-1.2
		c-3-0.4-6-1.3-9.1-1.6c-3.1-0.3-6.2-0.1-9.4-0.1c-6.1,0-12.2-0.8-18.2-2.1c-4.8-1.1-9.7-2.2-14.5-3.6c-4.3-1.3-8.6-3-12.8-4.5
		c-2.2-0.8-4.4-1.7-6.6-2.7c-0.6-0.2-1-0.6-1.5-1c0.1-0.2,0.1-0.3,0.2-0.5c0.4,0,0.8,0,1.2,0c3.8,0.5,7.5,0.9,11.3,1.5
		c5,0.7,9.9,1.4,14.9,2.2c3.5,0.6,7.1,1.1,10.6,2.1c4.7,1.3,9.3,2.9,13.8,4.7c3.3,1.3,6.8,1.8,10.3,2c3,0.2,6,0,9,0.2
		c5.7,0.4,11.3,0.9,17,1.3c5.7,0.5,11.3,1,17,1.5c3.1,0.3,6.1,0.4,9.2,0.7c0.6,0,1.3,0.2,1.9,0.3C398.8,440.8,398.8,441,398.8,441.2
		z"/>
	<path class="st1" d="M270.2,382c0.4,0,0.7-0.2,1.1-0.1c4.9,0.6,9.9,0.9,14.5,3.3c0.3,0.2,0.6,0.2,0.9,0.4c3.4,2.6,7.6,2.9,11.5,3.6
		c5.9,1.1,11.8,1.9,17.7,2.9c2.2,0.3,4.3,0.7,6.5,1c6,0.8,11.9,1.7,17.9,2.4c6.5,0.8,13.1,1.4,19.7,2c8,0.8,16,1.5,24.1,2.2
		c6.3,0.5,12.6,0.7,18.9,1.1c1.3,0.1,2.7,0.2,4,0.3c0,0.2,0,0.4,0,0.6c-0.9,0.2-1.8,0.4-2.8,0.4c-3.7,0.1-7.4,0.2-11.1,0.2
		c-9.3,0-18.6,0.1-27.9-0.3c-7.9-0.3-15.7-1.2-23.5-2.1c-6.1-0.7-12.1-1.6-18.1-2.8c-6.9-1.4-13.7-2.9-20.4-4.8
		c-6-1.8-11.9-3.3-18.1-3.8c-3.9-0.3-7.3-2.3-10.8-3.8c-1.4-0.6-2.7-1.4-4.1-2.1C270.1,382.3,270.2,382.1,270.2,382z"/>
	<path class="st1" d="M394.2,430.4c-1.8,0.2-3.7,0.5-5.5,0.5c-8.8,0.1-17.6,0.3-26.3,0c-7.2-0.3-14.3-1.3-21.5-2.2
		c-4.1-0.5-8-1.7-12.1-2.4c-2.4-0.4-4.8-0.2-7.2-0.3c-2.8-0.2-5.6-0.2-8.3-0.7c-8.4-1.5-16.5-3.9-24.4-7c-3.4-1.4-6.7-2.9-10-4.3
		c-0.3-0.1-0.5-0.4-1.1-0.9c0.7-0.1,1.1-0.3,1.4-0.2c5.3,0.9,10.5,1.8,15.8,2.8c4.4,0.9,8.8,1.7,13.2,2.8c3.6,1,7,2.5,10.6,3.5
		c2.9,0.8,5.8,1.6,8.8,1.9c5,0.5,10.1,0.5,15.2,1c5.8,0.5,11.5,1.3,17.2,1.9c5.1,0.5,10.2,1,15.3,1.4c6,0.5,12,1,18,1.4
		c0.3,0,0.6,0.1,0.9,0.2C394.2,430.1,394.2,430.3,394.2,430.4z"/>
	<path class="st1" d="M272,349.3c1.4,0.4,2.8,0.8,4.2,1.2c3.6,1,7.1,2,10.7,2.9c2.8,0.7,5.6,1.4,8.4,2c3.5,0.8,7.1,1.4,10.6,2.1
		c3.5,0.7,7.1,1.3,10.6,2c2.5,0.4,5.1,0.8,7.6,1.2c3.1,0.5,6.2,1,9.3,1.4c1.8,0.3,3.7,0.6,5.5,0.8c6.6,0.7,13.3,1.4,20,2
		c7.6,0.7,15.2,1.5,22.8,2c7.9,0.5,15.7,0.8,23.6,1.2c1.1,0.1,2.2,0.2,3.2,0.3c0,0.1,0,0.3,0,0.4c-1,0.1-2,0.4-3,0.4
		c-8.8,0.1-17.7,0.4-26.5,0.3c-7.7-0.1-15.5-0.4-23.2-0.9c-5.6-0.3-11.2-0.9-16.7-1.7c-8.2-1.2-16.3-2.5-24.4-4
		c-5.2-1-10.3-2.3-15.3-3.7c-6.5-1.8-12.9-3.9-19.2-6c-2.8-0.9-5.5-2.2-8.3-3.3C271.9,349.6,271.9,349.4,272,349.3z"/>
	<path class="st1" d="M393,410.8c-0.6,0.1-1.1,0.2-1.7,0.2c-7.4,0.2-14.9,0.6-22.3,0.5c-7.6-0.1-15.3-0.7-22.9-1.3
		c-5.1-0.4-10.3-1-15.4-1.9c-7.7-1.3-15.3-2.9-22.7-5.2c-3.7-1.2-7.6-2-11.6-1.9c-4.6,0.1-8.9-1.1-13-3c-2.8-1.3-5.8-2.4-8.6-3.6
		c-0.7-0.3-1.3-0.7-2-1c0-0.2,0-0.3,0-0.5c0.5-0.1,1-0.3,1.4-0.2c4.6,0.3,9.3,0.5,13.8,1.9c2,0.6,4,1.3,5.7,2.5
		c3.3,2.3,7,3,10.8,3.5c6.4,0.9,12.8,1.9,19.3,2.7c7.5,1,14.9,1.9,22.4,2.7c8,0.9,15.9,1.7,23.9,2.4c7,0.6,14.1,1.1,21.1,1.6
		c0.6,0,1.1,0.2,1.6,0.3C393,410.6,393,410.7,393,410.8z"/>
	<path class="st1" d="M392.9,420.5c-0.5,0.1-1,0.2-1.5,0.2c-10.5,0-21,0.4-31.5-0.1c-8.9-0.4-17.7-1.7-26.6-3
		c-6.5-1-13-2.6-19.5-3.9c-1.5-0.3-3.1-0.3-4.7-0.3c-7,0.3-13.7-1.2-20.1-3.9c-3.9-1.6-7.7-3.4-11.5-5.2c-0.5-0.2-0.9-0.6-1.3-1
		c0-0.2,0.1-0.3,0.1-0.5c1.3,0.1,2.7,0,4,0.2c5.5,1,11.1,1.8,16.6,3.2c3.4,0.9,6.6,2.7,9.9,4.1c1.3,0.5,2.7,1.1,4,1.3
		c2.3,0.4,4.7,0.6,7.1,0.8c7.8,0.8,15.5,1.7,23.3,2.5c7.5,0.8,15,1.7,22.5,2.4c5.4,0.5,10.9,0.9,16.3,1.4c2.7,0.2,5.5,0.2,8.2,0.4
		c1.5,0.1,3,0.4,4.4,0.6C392.9,420.1,392.9,420.3,392.9,420.5z"/>
	<path class="st1" d="M399.1,357.2c-1.3,0.3-2.6,0.7-4,0.8c-10.4,0.3-20.8,0.7-31.2,0.6c-9-0.2-17.9-1-26.8-1.7
		c-4.9-0.4-9.9-1.2-14.8-2c-4.9-0.8-9.8-1.8-14.6-2.9c-4.8-1.1-9.5-2.2-14.2-3.7c-6.1-1.9-12.1-4.3-18.2-6.4c-0.1,0-0.2-0.2-0.3-0.5
		c0.4,0.1,0.7,0.2,1.1,0.3c3.3,0.9,6.6,2,10,2.8c5.5,1.3,11.1,2.6,16.6,3.7c4.2,0.8,8.5,1.5,12.8,2c7.1,0.9,14.2,1.8,21.3,2.6
		c7,0.8,14.1,1.5,21.1,2.1c4.4,0.4,8.8,0.7,13.2,0.8c8.7,0.4,17.4,0.7,26.2,1c0.6,0,1.2,0.1,1.7,0.1
		C399.1,356.9,399.1,357.1,399.1,357.2z"/>
	<path class="st1" d="M273.8,332.7c42.3,10.8,85.4,15.1,129,15.1c0,0.1,0,0.2,0,0.4c-1.5,0.3-2.9,0.7-4.4,0.7
		c-9.6,0.3-19.2,0.9-28.7,0.7c-10.2-0.1-20.4-0.6-30.5-2c-5-0.7-10-1.1-14.9-1.9c-6.3-1.1-12.5-2.4-18.8-3.7
		c-3.8-0.8-7.7-1.7-11.5-2.7c-4-1.1-8-2.4-11.9-3.6c-2-0.6-4-1.3-6-2C275.2,333.4,274.5,333,273.8,332.7z"/>
	<path class="st1" d="M274.1,323.3c0.6,0,1.2,0,1.7,0.2c5.2,1.3,10.4,2.7,15.6,3.9c4.4,1.1,8.8,2,13.3,2.9c4.1,0.8,8.2,1.5,12.3,2.1
		c4.6,0.8,9.2,1.5,13.9,2.2c6.1,0.8,12.2,1.6,18.3,2.3c5.4,0.6,10.8,1,16.2,1.2c9.7,0.4,19.3,0.6,29,1c0.7,0,1.3,0.1,2,0.2
		c0,0.2,0,0.3,0,0.5c-0.5,0.1-0.9,0.3-1.4,0.3c-14.9,0.7-29.9,1-44.8-0.3c-8.8-0.7-17.6-1.9-26.4-3.1c-4.4-0.6-8.8-1.4-13.1-2.4
		c-4.9-1.1-9.8-2.4-14.7-3.7c-4.1-1.1-8.1-2.2-12.1-3.5c-3.3-1-6.6-2.2-9.9-3.3C274,323.6,274,323.5,274.1,323.3z"/>
	<path class="st1" d="M271.8,312.6c1.4,0.4,2.8,0.7,4.2,1.1c4.8,1.3,9.6,2.6,14.4,3.8c3.9,1,7.8,1.9,11.7,2.8c4.5,1,9.1,2,13.6,3
		c4.8,1,9.6,2.1,14.5,3c3.7,0.7,7.4,1.2,11.1,1.8c2.6,0.4,5.1,0.9,7.7,1.2c3.1,0.4,6.2,0.6,9.3,0.8c8.3,0.4,16.7,0.9,25,1.2
		c6.4,0.2,12.9,0.3,19.3,0.4c2.4,0,4.8-0.1,7.2-0.1c0.5,0,1,0.1,1.5,0.2c0,0.2,0.1,0.3,0.1,0.5c-0.5,0.2-1,0.4-1.5,0.4
		c-10.5,1.4-21.1,1.8-31.6,1c-7-0.5-14-1.1-21-1.9c-4.7-0.5-9.4-1.4-14.2-2.1c-6.5-0.9-13-1.7-19.4-2.8c-6.2-1.1-12.3-2.4-18.4-3.7
		c-4.7-1-9.4-2.1-14-3.4c-6.5-2-12.8-4.3-19.2-6.4c-0.2-0.1-0.3-0.2-0.4-0.3C271.7,312.9,271.7,312.8,271.8,312.6z"/>
	<path class="st1" d="M420.9,323.6c-1.3,0.4-2.6,0.8-4,1.1c-8.3,1.4-16.6,2.1-24.9,1.7c-6.2-0.3-12.5-0.9-18.7-1.4
		c-6.4-0.6-12.7-1.2-19.1-2c-4.8-0.6-9.6-1.3-14.4-2c-2.3-0.3-4.5-0.7-6.7-1c-5.3-0.9-10.6-1.6-15.8-2.7c-7.3-1.6-14.6-3.4-21.9-5.3
		c-4.8-1.3-9.6-2.8-14.4-4.3c-3-1-5.9-2.2-8.8-3.4c-0.4-0.1-0.6-0.5-0.8-1c1.1,0.3,2.2,0.5,3.2,0.8c5.3,1.5,10.5,3.1,15.8,4.6
		c3.8,1.1,7.6,2.1,11.5,3.1c5.1,1.2,10.1,2.3,15.2,3.4c3.5,0.8,7,1.6,10.6,2.3c3.3,0.7,6.7,1.2,10.1,1.8c4.2,0.7,8.4,1.5,12.6,2.1
		c2.9,0.5,5.9,0.9,8.9,1.2c14.6,1.7,29.4,1.6,44.1,1.4c5.3-0.1,10.5-0.5,15.8-0.7c0.6,0,1.2,0,1.8,0
		C420.9,323.3,420.9,323.4,420.9,323.6z"/>
	<path class="st1" d="M205.9,311.8c0,0.4,0,0.8,0,1.2c-0.1,2.1,1,3.3,3,3.5c1.3,0.1,2.6,0.1,3.8,0.5c2.5,1.1,3.5,3.8,2.8,6.5
		c-1.4,5.1-7,5.8-10.2,4.2c-4.5-2.2-5.5-6.8-3.3-11.2c0.9-1.8,2.2-3.3,3.3-5C205.5,311.6,205.7,311.7,205.9,311.8z"/>
	<path class="st1" d="M374.9,220.6c9.1,2.3,18.4,3.3,27.8,3.8c9.3,0.5,18.6-0.5,28-1.6c-1.4,1.9-12.9,4.8-19.4,5.1
		C398.6,228.5,386.4,225.9,374.9,220.6z"/>
	<path class="st1" d="M275.4,293.4c29.4,10,59.6,16.8,90.3,21.4c-15.6-0.8-30.9-3.5-46-7C304.5,304.3,289.7,299.8,275.4,293.4z"/>
	<path class="st1" d="M291.7,287.6c22.8,7.7,46.2,13,70.3,16.3C355.9,306.8,304,294.8,291.7,287.6z"/>
	<path class="st1" d="M434.2,316c-1.2,1.7-3,1.8-4.6,2c-7.8,1-15.7,1-23.6,0.4c-6.1-0.4-12.2-0.7-18.3-1.1c-2.2-0.1-4.3-0.5-6.5-0.7
		c0-0.2,0-0.4,0-0.6c1.3,0,2.5,0,3.8,0c9.7,0.2,19.4,0.4,29.2,0.4c6.2,0,12.4-0.3,18.6-0.5C433.3,315.9,433.8,316,434.2,316z"/>
	<path class="st1" d="M432.1,310.2c-0.8,0.2-1.5,0.6-2.3,0.7c-5,0.2-10,0.4-15.1,0.4c-5.2,0-10.4-0.3-15.6-0.5
		c-1.2,0-2.4-0.2-3.6-0.3c0-0.1,0-0.3-0.1-0.4c0.3-0.1,0.6-0.3,0.9-0.3c10.7-0.5,21.4-1.6,32.1-1c1.2,0.1,2.4,0.4,3.5,0.7
		C432.1,309.7,432.1,309.9,432.1,310.2z"/>
	<path class="st1" d="M359.7,294.2c-13-1-25.7-3.7-37.8-8.7c0-0.2,0.1-0.4,0.1-0.6c6.3,1.6,12.5,3.3,18.8,4.8
		c6.3,1.5,12.6,2.7,18.9,4C359.8,293.8,359.8,294,359.7,294.2z"/>
	<path class="st1" d="M406.9,302.8c1.2-0.2,2.4-0.5,3.6-0.6c4.3-0.3,8.7-0.6,13.1-0.7c2.2-0.1,4.4,0.2,6.6,0.5
		c0.4,0,0.7,0.5,1.1,0.8c-0.3,0.3-0.6,0.7-1,0.8c-1.5,0.3-3,0.6-4.5,0.6c-5.9-0.1-11.8-0.4-17.7-0.7c-0.4,0-0.8-0.2-1.2-0.2
		C406.9,303.1,406.9,303,406.9,302.8z"/>
	<path class="st1" d="M473.6,168.3c-0.5,0.1-1,0.2-1.6,0.2c-4,0.2-7.6-1-11.2-2.8c-1.8-0.9-3.8-1.5-5.6-2.4
		c-0.3-0.1-0.6-0.5-0.8-0.8c0.3-0.2,0.7-0.5,1-0.5c3.7-0.2,7.1,0.8,10.4,2.5c2,1,4.1,1.6,6.1,2.5c0.6,0.2,1.1,0.6,1.7,0.9
		C473.6,168.1,473.6,168.2,473.6,168.3z"/>
	<path class="st1" d="M414.6,296.4c0.6-0.2,1.2-0.6,1.8-0.7c4.9-0.1,9.7-0.2,14.6-0.3c0.2,0,0.4,0,0.6,0.1c0.3,0.2,0.6,0.5,0.9,0.7
		c-0.3,0.3-0.6,0.8-0.9,0.9c-1,0.3-2.1,0.6-3.2,0.6c-4.4-0.2-8.8-0.5-13.2-0.7c-0.2,0-0.3-0.1-0.5-0.2
		C414.6,296.6,414.6,296.5,414.6,296.4z"/>
	<path class="st1" d="M425.9,290.1c2.9-1.4,9.6-1.4,10.8,0C435,291.6,428.3,291.7,425.9,290.1z"/>
	<path class="st1" d="M250.4,76c-1.5-1.5-1.8-3.3-2.1-5.1c-0.5-3.9,0.7-7.3,3-10.4c3-4,6.9-7,10.8-10c3.1-2.3,6.2-4.5,9.2-6.9
		c3.6-3,6.2-6.8,8.3-10.9c2.7-5.3,5.2-10.6,7.7-15.9c1-2.2,1.7-4.6,2.5-6.9c0.1-0.3,0.3-0.5,0.8-0.8c0,0.6,0.2,1.2,0.1,1.7
		c-0.8,3.8-1.4,7.7-2.4,11.5c-1.5,5.7-4.2,10.8-7.2,15.8c-3.4,5.7-7.6,10.8-12,15.8c-2.1,2.3-4.1,4.7-5.3,7.6
		c-1.7,4.2-2.4,8.6-2.4,13.2c0,1.5,0,2.9,0,4.8c-2.8-1.5-4.3-3.7-5.1-6.2c-0.9-2.5-1.2-5.2-1.8-7.9c-1.6,0.9-2.5,2.6-3,4.5
		C251,71.9,250.8,73.8,250.4,76z"/>
	<path class="st1" d="M228.2,56.8c-3.6-9.6-3.9-19.2,0.4-28.9c-1.7-0.3-3,0.4-4,1.2c-1.5,1.2-2.9,2.6-4,4.2
		c-2.6,3.8-4.8,7.9-7.5,11.5c-3.3,4.4-6.5,9-11.1,12.3c-3.8,2.6-7.9,4-12.5,3.2c-2.9-0.5-5.6-1.8-7.9-3.7c-0.3-0.3-0.6-0.7-0.9-1
		c0.1-0.1,0.2-0.2,0.2-0.4c1,0.4,1.9,1,3,1.3c1.5,0.5,3.1,1,4.6,1.1c4.1,0.1,7.8-1.4,11-4c4.4-3.5,7.6-7.9,10.5-12.6
		c2.3-3.7,4.2-7.7,6.6-11.2c2.8-4,6.8-6.6,11.6-7.7c3-0.7,6.1-0.9,9.1-1.3c0.3,0,1,0.1,1,0.4c0.1,0.3-0.1,0.8-0.3,1.1
		c-2.6,3.4-5,6.9-6.5,11c-0.9,2.4-1.5,5-2.2,7.5c-1.2,4.9-1,9.8-0.7,14.7c0,0.4-0.1,0.9-0.1,1.3C228.6,56.8,228.4,56.8,228.2,56.8z"
		/>
	<path class="st1" d="M206,72.8c-3.4,7.2-7.7,14.1-5.9,22.6c-0.1,0-0.3,0.1-0.4,0.1c-0.6-0.9-1.3-1.8-1.7-2.8
		c-0.9-2.4-1.6-4.8-2.5-7.2c-0.1-0.3-0.8-0.7-1-0.7c-6.1,2.1-10.6,5.9-12.9,12.2c-2.7,7.3-5.8,14.3-10.6,20.4
		c-3.6,4.6-8,8.3-12.9,11.5c-0.2,0.1-0.4,0.2-0.8,0c1-1.1,2-2.3,3-3.4c4.8-5.3,8.9-10.9,11.7-17.5c1.7-3.9,3.1-7.9,4.7-11.8
		c1.4-3.5,3.1-6.7,5.4-9.6c0.2-0.2,0.3-0.5,0.7-1.1c-3.5,0.2-5.8,2.2-8.3,4c2.3-4.8,1.7-9.5-0.2-14.3
		C185.7,84.1,196.1,82.3,206,72.8z"/>
	<path class="st1" d="M239,53.4c0.2-0.8,0.3-1.6,0.6-2.3c2.9-6.9,7.5-12.2,14.4-15.3c4.6-2.1,8-5.6,10.6-9.8
		c0.8-1.4,1.6-2.8,2.4-4.2c-0.1-0.1-0.2-0.2-0.3-0.3c-1.6,0.9-3.1,1.8-4.8,2.6c-1.7,0.8-3.4,1.6-5.2,1.9c-6.4,1.1-11.2,4.7-15,9.7
		c-0.4,0.5-0.7,1-1.5,1.4c0-0.4-0.2-0.9-0.1-1.2c1.7-4.2,3.9-8.1,7.6-10.9c3-2.3,6.5-3.5,10.1-4.4c3.4-0.9,6.5-2.5,9.1-4.9
		c2.2-2,4.2-4.2,6.3-6.3c0.2-0.2,0.3-0.3,0.9-0.7c0,1,0.1,1.6,0,2.3c-0.7,4.3-1.5,8.6-3.2,12.6c-2.7,6.7-6.9,12.3-13.1,16.1
		c-2.3,1.4-4.8,2.3-7,3.7c-4.2,2.5-7.7,5.8-10.6,9.7c-0.2,0.3-0.6,0.5-0.9,0.8C239.2,53.6,239.1,53.5,239,53.4z"/>
	<path class="st1" d="M153.3,149.9c-0.1,0.6-0.1,1.3-0.3,1.9c-0.5,2-1.2,3.9-1.6,5.9c-0.8,3.7-1.7,7.4-2,11.2
		c-0.6,6.1-0.8,12.3,0.2,18.4c0.5,3.1,1.1,6.1,1.8,9.2c0.9,4.2,2.5,8.1,4.5,11.9c0.4,0.9,0.8,1.7,1.2,2.6c-0.1,0.1-0.2,0.2-0.3,0.2
		c-1.1-1.5-2.4-2.8-3.4-4.4c-2.2-3.4-4.5-6.8-6.2-10.5c-3.6-7.8-5.2-16.1-3.9-24.8c1.2-8,4.3-15,9.2-21.4c0.1-0.2,0.3-0.3,0.5-0.4
		C153,149.8,153.1,149.8,153.3,149.9z"/>
	<path class="st1" d="M417.9,30.5c-0.6,0.1-1.1,0.3-1.7,0.2c-4.6-0.7-9.2-1-13.7-2.2c-8.4-2.1-15.7-6.2-21-13.4
		c-2.2-3-3.9-6.3-5.1-9.7c-0.2-0.5-0.2-1-0.2-1.5c0.1-0.1,0.2-0.1,0.4-0.2c0.6,1,1.2,1.9,1.8,2.9c3.1,5.4,7.6,9.5,12.8,12.9
		c3.8,2.5,7.9,4.5,12.1,6.1c3.1,1.2,6.4,2,9.6,2.9c1.4,0.4,2.8,0.6,4.2,0.9c0.3,0.1,0.6,0.3,1,0.4C417.9,30.1,417.9,30.3,417.9,30.5
		z"/>
	<path class="st1" d="M149.2,263.2c-0.5-1.8-1-3.6-1.6-5.3c-0.6-1.6-1.3-3.3-2.2-4.7c-1.9-2.7-4.7-2.2-6.2,0.8
		c-1,2.1-0.3,3.9,0.5,5.7c2,4.7,5.2,8.4,8.7,12c0.3,0.3,0.5,0.8,0.7,1.3c-0.5,0.1-1,0.3-1.4,0.2c-5-0.9-8.6-3.8-11.5-7.7
		c-3.3-4.4-5.4-9.3-6.7-14.6c-0.7-3.1-0.9-6.3-0.6-9.5c0.3-3.6,2.1-5.9,5.2-6.7c3.7-1.1,6.9-0.1,9.1,2.6c2.2,2.9,3.7,6.2,4.4,9.7
		c0.9,4.7,1.5,9.4,2.2,14.2c0.1,0.6,0,1.3,0,2C149.5,263.2,149.4,263.2,149.2,263.2z"/>
</g>
</svg>
