<?xml version="1.0" encoding="utf-8"?>
<!-- Generator: Adobe Illustrator 22.1.0, SVG Export Plug-In . SVG Version: 6.00 Build 0)  -->
<svg version="1.1" id="Layer_1" xmlns="http://www.w3.org/2000/svg" xmlns:xlink="http://www.w3.org/1999/xlink" x="0px" y="0px"
	 viewBox="0 0 512 512" style="enable-background:new 0 0 512 512;" xml:space="preserve">
<style type="text/css">
	.st0{fill:#F9C333;}
	.st1{fill:#760314;}
</style>
<rect class="st0" width="512" height="512"/>
<g>
	<path class="st1" d="M498,221.8c0.3,0.2,0.5,0.6,0.8,0.7c1.2,0.3,2.4,0.3,3.5,0.6c3.1,0.6,6.1,1.4,9.2,2.1c0-1.3,0-2.7-0.1-3.9
		c-4.2,0-8.5,0-12.7,0C498.5,221.3,498.2,221.6,498,221.8z"/>
	<path class="st1" d="M499.2,231.5c2.3,0.5,4.6,0.9,6.9,1.4c1.8,0.4,3.6,0.8,5.4,1.2c0-1.3,0-2.6,0-3.9c-4,0-8.1,0-12.2,0
		c-0.4,0-0.9,0.4-1.3,0.6C498.4,231,498.8,231.3,499.2,231.5z"/>
	<path class="st1" d="M511.5,165.1c-4.7,0.3-9.4,0.4-14.1,0.7c-0.7,0-1.5,0.4-2.2,0.6c0,0.1,0.1,0.3,0.1,0.4
		c5.4,0.5,10.8,1.1,16.2,1.7C511.5,167.4,511.5,166.2,511.5,165.1z"/>
	<path class="st1" d="M497,195c0,0.2,0,0.3,0,0.5c0.5,0.1,1.1,0.2,1.6,0.3c1.3,0.2,2.5,0.2,3.8,0.4c3,0.4,6.1,0.9,9.1,1.4
		c0-1.3,0-2.5,0.1-3.7c-4.1,0.1-8.1,0.3-12.1,0.5C498.6,194.4,497.8,194.8,497,195z"/>
	<path class="st1" d="M499.4,213.5c2.6,0.6,5.3,1.1,8,1.7c1.3,0.3,2.7,0.6,4.1,0.9c0-1.3,0-2.5,0.1-3.8c-3.2-0.9-12.1-0.3-12.8,0.9
		C499,213.3,499.2,213.5,499.4,213.5z"/>
	<path class="st1" d="M494.7,184.6c0,0.1,0,0.3,0,0.4c1.4,0.2,2.7,0.3,4.1,0.5c4.2,0.5,8.5,1,12.7,1.5c0-0.9,0-1.9,0-2.8
		c-0.6-0.1-1.2-0.3-1.7-0.3c-4.4,0.1-8.9,0.2-13.3,0.4C495.9,184.3,495.3,184.5,494.7,184.6z"/>
	<path class="st1" d="M511.5,242.8c0-1.3,0-2.6-0.1-4c-4.3-0.2-8.6-0.2-12.9,0.6c0.5,0.5,1,0.7,1.5,0.8c1.3,0.2,2.6,0.4,3.8,0.7
		C506.4,241.5,508.9,242.2,511.5,242.8z"/>
	<path class="st1" d="M505.2,250.2c2.1,0.5,4.2,1,6.3,1.5c0-1.3,0-2.5,0-3.7c-4.3-0.6-8.6-0.3-12.9,0.3c0.5,0.5,1.1,0.8,1.7,0.9
		C502,249.6,503.6,249.8,505.2,250.2z"/>
	<path class="st1" d="M510.8,256.7c-3.7,0.1-7.5,0.2-11.2,0.3c-0.2,0-0.4,0.2-0.7,0.4c0.4,0.2,0.6,0.3,0.9,0.4
		c2.1,0.5,4.1,1,6.2,1.4c1.8,0.4,3.7,0.7,5.5,1.1c0-1.1,0-2.3,0.1-3.3C511.3,256.9,511.1,256.7,510.8,256.7z"/>
	<path class="st1" d="M511.4,203.3c-3.9-0.2-7.9-0.4-11.8,0.9c1.1,0.5,2.2,0.7,3.2,0.9c2.9,0.6,5.8,1.3,8.7,1.9
		C511.5,205.8,511.5,204.5,511.4,203.3z"/>
	<path class="st1" d="M511.4,265.5c-3.9-0.1-7.8-0.2-11.6,0.4c0,0.1,0,0.3,0,0.5c3.9,1,7.8,1.9,11.7,2.8
		C511.5,267.8,511.5,266.6,511.4,265.5z"/>
	<path class="st1" d="M511.4,274.2c-3.6-0.3-7.2-0.1-10.8,0.5c0,0.2,0,0.3,0,0.5c3.7,0.9,7.3,1.8,10.9,2.7
		C511.5,276.6,511.5,275.5,511.4,274.2z"/>
	<path class="st1" d="M511.5,46.6c-4.1,0.1-8.2,0.1-12.3,0.3c-0.8,0-1.6,0.3-2.4,0.5c0,0.2,0,0.3,0,0.5c0.3,0.1,0.7,0.3,1,0.3
		c4.5,0.3,9.1,0.5,13.7,0.7C511.5,48.1,511.5,47.5,511.5,46.6z"/>
	<path class="st1" d="M511.5,283.2c-3.4-0.1-6.9-0.2-10.3,0.6c0,0.1,0,0.3,0,0.4c3.4,0.7,6.9,1.5,10.3,2.3
		C511.5,285.3,511.5,284.1,511.5,283.2z"/>
	<path class="st1" d="M511.5,292.1c-2.7-0.4-5.3-0.4-7.9,0.5c0,0.1,0,0.3,0,0.4c2.6,0.6,5.3,1.1,7.9,1.7
		C511.5,293.8,511.5,293,511.5,292.1z"/>
	<path class="st1" d="M511.5,301c-2.4-0.4-4.8-0.2-7.2,0.1c-0.1,0.3-0.1,0.5-0.1,0.8c2.4,0.4,4.9,0.9,7.3,1.3
		C511.5,302.5,511.5,301.8,511.5,301z"/>
	<path class="st1" d="M511.5,157.5c-1.8-0.4-3.6-0.1-5.3,0.3c0,0.1,0,0.3,0,0.4c1.8,0.1,3.5,0.3,5.3,0.4
		C511.5,158.2,511.5,157.8,511.5,157.5z"/>
	<path class="st1" d="M283.3,491.4c-0.4-3-0.6-6-1.1-9c-0.9-5.4-1.9-10.9-3.1-16.3c-1-4.7-2.2-9.5-3.4-14.2
		c-1.2-4.5-2.6-8.9-3.7-13.3c-1.2-4.5-3.4-8.4-6.5-11.7c-2.7-2.9-5.8-5.5-8.9-7.9c-2.5-2-5.4-3.5-8.7-4.3c-3.5-0.9-7-1.9-10.3-3.2
		c-4.8-1.9-8.2-5.5-10.2-10.3c-0.4-1-0.6-1.9-0.9-2.9c0.1-0.1,0.3-0.1,0.4-0.2c0.4,0.4,0.8,0.8,1.1,1.2c3,4.1,7.4,5.9,12,7.1
		c3.4,0.9,6.9,1.5,10.2,2.5c5.5,1.6,10.2,4.6,14.2,8.8c1.1,1.2,2.1,2.5,3.2,3.8c0.1-0.1,0.2-0.1,0.3-0.2c-0.1-0.5-0.2-0.9-0.4-1.3
		c-1.8-3.5-3.8-6.7-6.5-9.5c-3.4-3.6-7.4-6.4-12.1-8c-5-1.7-10-3.2-15-4.9c-2.3-0.8-4.3-2.1-5.9-4c-3.5-4-0.9-13.1,3.5-15.5
		c0.3-0.2,0.9-0.1,1.3-0.2c0,0.4,0.2,0.9,0.1,1.3c-0.4,2.6-0.2,5.1,1.5,7.3c2.2,2.8,5.2,4.1,8.4,5.2c3.5,1.2,7,2.1,10.4,3.4
		c3.3,1.3,6.4,3.2,8.6,6.1c0.9,1.1,1.7,2.3,2.6,3.5c0.3-0.7,0.4-1.2,0.3-1.8c-0.5-5.8-1.1-11.5-1.6-17.3c-0.5-6.8-1.1-13.5-1.5-20.3
		c-0.7-11.7-1.6-23.4-1.8-35.1c-0.2-12.9,0.2-25.8,0.3-38.7c0-0.7-0.5-1.8-1.1-2c-4.8-2-9.3-4.6-13.3-8c-4.5-3.8-8.5-8-11.5-13.2
		c-0.3-0.6-0.8-1.1-1.2-1.7c-0.2,0.5-0.2,0.9-0.1,1.2c0.8,2.1,1.7,4.2,2.4,6.3c1.5,4.5,3.7,8.7,6.5,12.5c1.9,2.5,4.1,4.8,6.9,6.4
		c0.4,0.2,0.7,0.7,1,1.1c-0.5,0.2-1.1,0.6-1.6,0.5c-3.5-0.4-6.9-0.8-10.3-1.3c-3.5-0.5-6.9-1.5-10.1-3.1c-0.4-0.2-0.8-0.2-1.4-0.3
		c0.2,0.5,0.2,0.6,0.3,0.7c4.6,5.2,8.2,11,10.9,17.4c1.6,3.7,2.7,7.6,2.8,11.7c0,0.5-0.1,1-0.2,1.6c-1.7-3-3.2-5.9-5.1-8.6
		c-1.9-2.7-4.4-4.9-7.8-6.4c0.2,0.8,0.2,1.3,0.4,1.7c0.9,1.7,1.8,3.3,2.6,5c2.2,5.1,3.7,10.2,3.7,15.8c0,6.5-2.7,11.7-7.5,15.9
		c-0.3,0.3-0.8,0.5-1.2,0.7c-0.1-0.1-0.2-0.2-0.3-0.3c0.6-1.1,1.3-2.1,1.9-3.2c2.6-5,4-10.2,1.9-15.8c-0.6-1.6-1.5-3.2-3-4.5
		c-0.2,0.5-0.3,0.7-0.3,0.9c-0.5,2.7-0.7,5.6-1.4,8.3c-1.4,5.3-5,8.5-10.2,9.6c-7.4,1.5-13.3-1.1-17.5-6.9c-5.1-7-5.3-14.8-2.3-22.7
		c2.6-6.7,7.2-12,12.5-16.8c0.4-0.4,0.8-0.7,1.2-1.1c-0.1-0.1-0.1-0.2-0.2-0.3c-0.4,0-0.9,0-1.3,0.2c-1.7,0.8-3.5,1.4-5.1,2.4
		c-2.8,1.7-5.8,3.3-8.2,5.5c-2.5,2.2-4.9,4.3-8.1,5.3c-3,1-6.1,1.7-9.2,0.6c-1.9-0.6-3.6-1.7-3.8-3.8c-0.2-2-0.2-4.2,0.3-6.1
		c1.6-6.2,3.4-12.3,5.4-18.4c2-6.2,4.6-12.2,7.7-18c1.5-2.7,2.8-5.5,3.5-8.4c1.4-5.9,0.1-11.4-3.9-16.1c-0.8-0.9-1.5-1.7-2.3-2.7
		c0.5-0.1,0.7-0.2,1-0.2c4.5,0.2,9.1,0.3,13.6,0.5c0.9,0,1.3,0.4,1.4,1.3c0.6,7.6,0.1,15.1-2.6,22.3c-1.9,4.9-4.2,9.5-6.5,14.1
		c-2.6,5.3-4.7,10.7-5.9,16.5c-0.1,0.6,0,1.3,0,1.9c0.6-0.2,0.9-0.4,1.1-0.8c1.7-3.4,3.3-6.9,5.1-10.3c2.6-4.9,5.8-9.3,9.6-13.2
		c1.8-1.8,3.1-4,4.5-6.1c0.4-0.7,0.7-1.5,1.1-2.5c0.2,0.5,0.4,0.8,0.4,1c0.5,6-0.6,11.5-4.4,16.3c-3.9,4.9-5.7,10.6-6.5,16.7
		c-0.1,0.2,0.2,0.5,0.4,1c0.8-1.5,1.5-2.7,2.2-4c1.8-3.2,3.7-6.4,6.6-8.8c2.8-2.4,5-5.2,5.9-8.8c0.2-0.7,0.5-1.4,0.8-2.1
		c0.1,0.1,0.3,0.1,0.4,0.1c2.3,6.6,5.7,12.4,10.4,17.4c-1.5-4.7-2.6-9.4-3-14.2c-0.2-2.7-0.4-5.4-1-8c-1.3-5.3-2.9-10.5-4.4-15.7
		c-0.1-0.4-0.2-1.1,0-1.2c0.3-0.3,0.9-0.2,1.3-0.2c0.3,0,0.6,0.2,0.9,0.4c4.9,2.5,8.6,6.4,12.3,10.4c0.3,0.5,0.8,0.8,1.2,1.2
		c0.3-0.6,0.3-1,0.2-1.4c-1-4.5-1.6-8.9-0.6-13.5c0.6-3.1,3.8-5.2,6.6-4.2c1.6,0.6,3.1,1.4,4.7,2c0.4,0.2,0.8,0.2,1.3,0.3
		c0-0.3,0-0.4,0-0.5c-2.5-5.7-3.7-11.5-3.4-17.7c0.2-4.7,2-8.7,5.1-12.2c0.4-0.5,1.1-0.7,1.7-1c0.1,0.6,0.4,1.2,0.4,1.8
		c-0.1,2.7-0.7,5.4-0.5,8.1c0.2,3,0.9,6,1.6,8.9c0.6,2.2,1.5,4.2,2.3,6.3c0.1,0,0.3-0.1,0.5-0.1c-0.1-0.8-0.1-1.6-0.3-2.4
		c-0.9-3.9-0.4-7.8,0.6-11.5c0.9-3.2,2.5-6.2,3.8-9.3c0.2-0.5,0.8-0.9,1.2-1.3c0.2,0,0.3,0.1,0.4,0.2c0,1-0.2,2.1-0.1,3.1
		c0.2,5.2,0.8,10.3,2.8,15.2c1.5,3.7,3.3,7.2,6.1,10c3.1,3.2,6.5,6.2,9.4,9.6c4.1,4.8,6.4,10.5,6.6,17c0,0.5,0.1,1,0.1,1.5
		c0.2,0,0.4,0.1,0.6,0.1c0.4-1.2,0.9-2.3,1.2-3.5c1.9-7.8-0.2-14.5-5.5-20.4c0.1-0.2,0.1-0.3,0.2-0.5c2.8,0,5.5,0,8.3,0
		c0-0.2,0-0.3,0-0.5c-0.3-0.1-0.5-0.2-0.8-0.3c-3.2-0.7-6.3-1.4-9.4-2.3c-0.9-0.3-1.9-0.8-2.7-1.4c-1-0.8-1.8-1.8-2.6-2.7
		c-0.3-0.4-0.5-0.9-0.7-1.3c0.1-0.2,0.1-0.3,0.2-0.5c4,0,8.1,0,12.1,0c0-0.2,0-0.4,0-0.6c-4.1-1.1-8.2-2.2-12.3-3.3
		c-2.5-0.7-5-1.2-6-4.1c-0.5-1.4-0.4-1.8,1.1-1.9c4.2-0.2,8.3-0.3,12.4-0.5c0.4,0,0.8-0.2,1.2-0.3c-3.2-1.2-6.3-2.1-9.4-3
		c-2.1-0.6-4.3-1.2-6.4-1.9c-1.2-0.4-1.7-1.7-1.5-3.2c0.2-1.3,1.2-0.8,1.9-0.9c4.6-0.4,9.2-0.7,13.8-1c0.5-0.1,1.1-0.3,1.6-0.4
		c0-0.1,0-0.3,0-0.4c-1.6-0.3-3.1-0.7-4.6-1.1c-3.6-0.9-7.1-1.8-10.6-2.8c-0.7-0.2-1.7-0.3-1.4-1.5c0.3-1.2,0.3-2.5,1.9-2.7
		c1.6-0.2,3.2-0.3,4.8-0.5c4.3-0.4,8.6-0.8,12.9-1.2c0.6,0,1.1-0.2,1.7-0.4c-1.8-0.7-3.6-1-5.4-1.4c-3.2-0.6-6.5-1.3-9.7-2
		c-1.8-0.5-1.8-0.7-0.6-1.9c0.3-0.4,0.6-0.7,0.9-1.1c1.1-1.4,2.4-2.3,4.3-2.3c1.6,0,3.1-0.1,4.7-0.2c4.8-0.1,9.7-0.3,14.5-0.5
		c0.5,0,0.9-0.2,1.4-0.3c0-0.1,0-0.3,0-0.4c-0.4-0.1-0.9-0.2-1.4-0.3c-4.9-0.9-9.8-1.7-14.7-2.6c-3.2-0.7-3.2-0.7-2.2-3.8v-0.1
		c0.1-1.5,1-1.8,2.3-1.8c6-0.2,11.9-0.4,17.8-0.7c0.6,0,1.1-0.2,1.7-0.3c0-0.1,0-0.3,0-0.4c-3.3-0.6-6.6-1.2-9.9-1.7
		c-2.9-0.4-5.8-0.8-8.7-1.3c-1.1-0.2-1.4-0.7-1-1.8c0.4-1.1,0.8-2.3,1.1-3.4c0.3-1.2,0.9-1.5,2-1.6c5.7-0.3,11.5-0.6,17.2-0.9
		c0.4,0,0.8-0.1,1.2-0.2c-0.3-0.4-0.7-0.6-1-0.6c-4.1-0.6-8.3-1.2-12.5-1.7c-3-0.4-6.2-0.6-6.5-4.7l-0.1-0.1c-0.5-1.4-0.2-2,1.3-2.1
		c4.5-0.4,9.1-0.8,13.7-1.1c3.1-0.3,6.3-0.4,9.5-0.6c0.6,0,1.2-0.3,1.8-0.4c-0.1-0.1-0.1-0.3-0.1-0.4c-6.9-0.9-13.7-1.8-20.8-2.8
		c0.2-0.4,0.3-0.5,0.4-0.6c4.1-2.5,8.7-3.8,13.5-4.2c4.3-0.4,8.6-0.8,12.9-1.2c0.5-0.1,1-0.3,1.5-0.5c0-0.1,0-0.3,0-0.4
		c-5-0.7-9.9-1.3-14.7-2c0.2-1.6,0.6-2.9,0.5-4.2c-0.1-1.3,0.4-1.5,1.5-1.6c5.6-0.5,11.2-1,16.8-1.6c0.5-0.1,1.1-0.3,1.6-0.4
		c0-0.2,0-0.4,0-0.6c-3.8-0.7-7.6-1.4-11.4-2.1c1.9-1.4,3.7-2.3,5.5-3.2c8.1-4,15.7-8.7,22.4-14.8c5.6-5.1,10.2-10.9,13.1-18
		c1.4-3.3,2.7-6.7,4.4-9.8c3.2-5.8,7.5-10.9,13.1-14.7c3-2,6.1-3.7,9.2-5.5c1.1-0.6,2.3-1,3.4-1.5c0-0.1-0.1-0.3-0.1-0.5
		c-0.7,0-1.4-0.2-2.1,0c-4.2,0.9-8.5,1.7-12.6,3.1c-4.3,1.4-8.1,3.7-11.2,7.2c-2.8,3.2-6.2,5.8-10.3,7.3c-5.4,1.9-10.8,2.2-16.3,0.2
		c-5-1.8-9-4.8-11.4-9.5c-0.5-1-1.5-2.1-0.9-3.7c3,3.3,6.2,5.7,10.2,7c3.9,1.3,7.9,1.8,12.1,1.2c-3.6-1.6-7-2.9-10.2-4.6
		c-3.3-1.7-5.9-4.3-7.2-7.9c5.3,2.9,10.5,5.6,16.8,5.2c-0.7-0.6-1.5-1.1-2.3-1.5c-3.6-1.9-6.8-4.2-8.8-7.8c-0.7-1.3-1.1-2.7-0.9-4.5
		c1.3,1.2,2.4,2.2,3.6,3.2c4,3.3,8.5,5.4,13.8,5.2c5.4-0.3,10.5-1.8,15.7-3.2c4-1.1,8-1.9,12.1-2.5c5.6-0.8,11.1,0.5,16.5,1.5
		c5.1,0.9,10.3,1.7,15.5,0.7c2-0.4,4-0.5,5.9-0.9c6.8-1.4,13.6-2.8,20.4-4.4c3.3-0.8,6.4-1.9,9.5-3c5.4-1.9,10.9-4,16.3-6.1
		c3.3-1.3,6.4-2.9,9.7-4.3c1-0.4,2.1-0.5,3.2-0.6c4.5-0.5,9-0.8,13.4-1.5c4.9-0.8,9.7-2.5,14.3-4.4c8.3-3.5,15.5-8.4,21.4-15.2
		c0-4.7,0-9.3-0.7-13.6c-2.8,3-5.5,6.1-8.5,8.9c-4.5,4.1-9.9,6.8-15.6,8.6c-7,2.2-14.3,2.5-21.5,1.6c-6.5-0.9-12.8-2.7-18.8-5.3
		c-3.7-1.5-7.2-3.2-10.9-4.9c0.2,0.2,0.3,0.5,0.5,0.7c5.1,5,11,8.6,17.9,10.5c2.7,0.8,5.5,1.8,7.6,3.9c1.4,1.4,1.1,2.7-0.8,3.4
		c-3.3,1.2-6.7,1.5-10.1,1.2c-4.9-0.5-9.4-2.1-14-3.6c-5.7-1.9-11.4-1.8-17,0.3c-3.4,1.2-6.8,2.6-10.3,3.4c-4.2,1-8.6,0.8-12.8-0.3
		c-6.9-1.7-12.8-5.1-17.1-10.8c-2.6-3.4-4.2-7.2-4.8-11.5c-0.2-1.5-0.5-1.7-2.1-1.7c-5.6,0.1-11.2-0.6-16.6-2.1
		c-4.9-1.3-9.5-3.3-13.3-6.7c-2.3-2-4.1-4.5-6.1-6.8c-1.1,0-2.3,0-3.4,0c0.7,5.5,1.7,11,4,16.1c1.4,3.1,2.7,6.3,4.5,9.2
		c3.5,5.7,8.3,10,14.3,12.9c0.1,0.1,0.4,0.1,0.9,0.2c-0.2-0.6-0.4-1-0.5-1.4c-0.5-1.5-1.1-2.9-1.4-4.4c-0.4-2.3,0.9-4,2.7-5.1
		c0.4-0.2,1.4,0,1.8,0.3c3.3,2.6,6.3,5.3,9.7,7.7c4.5,3.1,9.2,6,14.7,7.2c0.3,0,0.5,0.3,0.8,0.5c-0.3,0.3-0.4,0.7-0.7,0.8
		c-2.6,1-5.2,2-7.9,2.7c-4.7,1.2-9.5,1.2-14.2,0c-3.3-0.9-6.6-2.1-9.7-3.6c-2.7-1.3-5-3.3-7.5-5c-0.1-0.1-0.3-0.1-0.8-0.3
		c0.1,0.6,0,1,0.2,1.3c4.3,5.6,9.1,10.7,15.8,13.5c1,0.4,2.1,0.7,3.3,1.1c-0.4,0.3-0.6,0.5-0.8,0.5c-6.5,1.4-13.2,1.7-19.7-0.1
		c-5.6-1.5-10.2-4.8-13.6-9.5c-2-2.8-3.3-5.8-4.5-9c-0.1-0.3-0.3-0.5-0.6-1.2c-0.2,0.7-0.4,1.1-0.5,1.5c-0.7,5.5-2,10.9-3.9,16
		c-2.2,5.8-5,11.3-10.4,14.9c-1.2,0.7-2.5,1.3-3.8,1.9c-1,0.4-1.4,0-1.3-1.1c0.5-3.7,1.7-7.1,3.7-10.1c2.9-4.3,5-8.9,6.8-13.8
		c1.7-4.6,3.3-9.2,4.6-13.9c1.1-4.1,2-8.3,2.8-12.5c0.9-4.6,1.6-9.3,2.3-14c0.1-1,0.1-2.1,0.2-3.1c-0.5,0-0.9,0-1.4,0
		c-1.2,5.3-2.2,10.6-3.6,15.8c-1.8,6.9-4,13.6-6.1,20.4c-1.6,5.2-3.7,10.3-6.6,15c-1.4,2.4-3.5,4.1-5.5,5.9c-4.5,3.9-8,8.5-9.8,14.2
		c-0.8,2.8-1.1,5.8-0.3,8.7c0.2,0.4,0.1,0.9,0,1.5c-2.7-3-3.3-6.8-4.2-10.6c-1.9,7-3.7,13.9-2.8,21.4c-0.5-0.7-1.1-1.4-1.6-2.2
		c-3-4.9-4.7-10.3-4.8-16c0-2.5,0.5-5.1,0.9-7.6c0.8-5.9,5-9.3,9.3-12.5c5.2-3.9,9.3-8.5,11.9-14.4c0.7-1.5,1.2-3.1,1.7-4.7
		c0.1-0.2,0-0.5-0.2-0.9c-4.6,6.2-8.8,12.7-16.2,16.1c9.1-11.4,15.2-23.9,15.9-38.6c-0.2,0-0.3-0.1-0.5-0.2c-0.3,0.7-0.6,1.3-0.9,2
		c-1.3,3.6-2.6,7.4-4,11c-2.2,5.6-5.3,10.6-9.1,15.2c-2.9,3.5-6.2,6.7-9.5,9.8c-4.6,4.3-9,8.8-11.3,14.9c-1.5,4-1.6,8-0.3,12.1
		c0.1,0.4,0.5,0.7,1.1,1.4c0.9-6,2.1-11.6,7.3-15.1c-1.6,10.3-1.7,20.3,4,29.6c-3.7-1.8-7-4.1-9.5-7.8c-0.2,0.6-0.4,0.9-0.4,1.1
		c0.8,4.1,1.8,8.1,4.3,11.7c4.1,5.9,9.7,9,16.5,10.6c7.4,1.7,14.8,1.2,22.2,0.3c1.2-0.1,2.3-0.4,3.4-0.6c0.1,0.2,0.1,0.4,0.2,0.6
		c-1.1,0.4-2.2,0.9-3.3,1.2c-2.8,0.7-5.6,1.6-8.5,2.1c-2.8,0.5-5.8,0.8-8.7,1c-7.5,0.4-14.7-0.7-21.7-3.3c-5-1.9-9.6-4.5-13.8-7.8
		c-5.4-4.2-10.4-8.7-14.7-14c-3.4-4.2-6.3-8.7-7.6-14c-0.9-3.5-1.2-7-0.9-10.6c0.1-0.3,0.1-0.7,0.1-1.1c0,0-0.1-0.1-0.3-0.5
		c-0.5,0.7-0.9,1.3-1.3,2c-2.3,3.8-5.1,7-8.8,9.5c-3.9,2.6-7.5,5.3-10.2,9.2c-4.5,6.5-4.1,11.8,0.5,18c1.5,2,3.5,3.7,5.3,5.5
		c0.2,0.2,0.5,0.3,0.7,0.4c0.1-0.1,0.2-0.1,0.3-0.2c-0.3-0.5-0.5-1.1-0.8-1.6c-2-3.3-3.5-6.8-3.5-10.8c0-0.6,0.1-1.2,0.4-1.9
		c3.4,7.1,7.7,13.3,14.5,17.5c-3.2-6.2-7.2-12.2-6.5-19.7c5.6,9.6,11.1,19.1,20.6,25.4c-0.6,0.5-0.6,0.6-3.6-0.1
		c-1.3-0.3-2.5-0.6-3.7-1.1c-1.2-0.5-2.3-1.1-3.5-1.6c-0.1,0.1-0.2,0.2-0.3,0.3c0.7,0.9,1.3,2,2.2,2.8c2.6,2.6,5.3,5,8,7.5
		c0.7,0.6,0.4,1.1-0.3,1.3c-1.1,0.3-2.3,0.4-3.4,0.6c-3.9,0.8-7.7,0.2-11.4-0.7c-9.7-2.4-16.9-8.4-22.8-16.2
		c-1.7-2.3-3.2-4.7-4.7-7.1c-0.4-0.8-1-1.2-1.8-0.7c-2.8,1.6-5.4,3.6-7.5,6.2c-0.2,0.2-0.3,0.4-0.4,0.6c-0.1,0.1,0,0.3,0,0.7
		c0.6-0.2,1.1-0.4,1.5-0.7c3.8-2.3,7.2-1,9,3c2.3,5.1,0.1,9.3-4.3,12.1c-3.8,2.4-7.9,4.2-11.9,6.3c-7.1,3.7-13.2,8.6-18.1,14.9
		c-2.7,3.5-5.2,7.1-7.4,10.9c-2.6,4.4-4,9.2-4.8,14.3c-1,6-0.5,11.9,0.4,17.8c0.7,4,1.8,7.9,2.9,11.8c1.6,5.9,4.2,11.3,7.4,16.5
		c2.7,4.3,5.9,8.4,9.7,11.8c0.3,0.3,0.6,0.7,0.9,1c-0.1,0.1-0.1,0.3-0.2,0.4c-0.9-0.3-1.8-0.5-2.7-0.8c-7.6-2.5-14.2-6.4-20.1-11.7
		c-7.2-6.4-12.5-14.1-16.1-23c-3.7-8.9-5.7-18.1-5.3-27.8c0.3-6.3,1.8-12.3,4.1-18.2c3.4-8.5,8.5-15.9,14.5-22.7
		c0.7-0.8,0.8-1.5-0.1-2.3c-2.4-2.2-3.5-4.9-3.7-8.1c-0.4-5.1,1-9.8,3-14.3c4.6-10.4,11.4-19.3,18.9-27.8c0.7-0.8,1.1-1.6,1-2.7
		c-0.3-4.1,0.2-8.1,1.9-11.8c1.3-2.8,3.2-5.2,5.5-7.2c4-3.4,8.7-5.4,13.7-6.6c0.9-0.2,1.5-0.6,1.4-1.7c-0.3-4.8,0.5-9.3,1.8-13.9
		c1.9-6.6,5.1-12.4,9.2-17.8c2.4-3.1,5.2-5.9,7.8-8.8c-8.1,0-16.1,0-24.2,0c0.8,1.4,1.7,2.9,2.2,4.4c1.1,3.3,1.1,6.7-0.2,10
		c-0.4,1-0.9,1.1-1.6,0.4C183.3,9.9,177,5,170.4,0.5c-11.5,0-23.1,0-34.7,0c1.3,2.8,2.8,5.6,4.1,8.5c0.6,1.1,0.9,2.4,1.3,3.6
		c-0.2,0.1-0.4,0.2-0.4,0.2c-2.2-1.1-4.5-2-6.5-3.3c-0.9-0.6-1.1-2.1-1.7-3.2c-1.1-2-2.3-3.9-3.4-5.9c-2.4,0-4.7,0-7.1,0
		c0.5,1,1.1,2,1.6,3.1c0.2,0.5,0.3,1,0.6,1.9c-2.9-1.1-5.3-2-7.7-3.1c-1-0.4-1.7-1.3-2.5-1.9c-11,0-22,0-33,0
		C75.7,5.3,69.7,9.2,63.1,12c-2.2,0.9-4.3,1.9-6.5,2.8c-0.4,0.1-0.8,0.3-1.2,0.2c-3.5-0.8-7-1.5-10.5-2.3c-0.2,0-0.2-0.2-0.5-0.4
		c1.3-0.7,2.5-1.3,3.7-1.8C53.8,8,59,4.8,64,1.1c0.3-0.2,0.5-0.5,0.8-0.8c-3.1,0-6.3,0-9.4,0C50.1,4.5,44.3,8,38.3,11
		c-0.3,0.2-0.7,0.2-1.1,0.1c-3.2-0.7-6.5-1.4-9.7-2c-1.2-0.2-2.3-0.3-3.5-0.5c0-0.2-0.1-0.3-0.1-0.4c0.5-0.3,1.1-0.6,1.7-0.9
		c4.6-2.2,9.3-4.3,14-6.4c0.2-0.1,0.4-0.4,0.6-0.6c-3.1,0-6.3,0-9.4,0C26.5,2.5,22.3,4.5,18,6.6C17.5,6.8,17,7,16.5,7
		C12.3,6,8.2,5.1,4,4.2C3.6,4.1,3.2,3.8,2.7,3.6c3.4-1.2,6.6-2.3,9.9-3.5c-4,0-8,0-12,0c0,5.3,0,10.5,0,15.7
		c4.1,0.3,8.2,0.6,12.3,0.9c0.1,0,0.3,0.2,0.6,0.4c-3.9,3.7-8.3,6.4-12.9,8.7c0,2.2,0,4.5,0,6.8c7-2.9,13.7-6.6,20-10.9
		c1.4-1,2.8-2,4.2-3c0.4-0.3,1-0.6,1.4-0.6c3.4,0.3,6.7,0.8,10.5,1.2c-0.5,0.7-0.8,1.2-1.2,1.6c-3.6,3.7-7.8,6.6-12.1,9.2
		c-5.6,3.4-11.4,6.1-17.5,8.4c-1.8,0.7-3.5,0.3-5.3,0.1c0,6.6,0,13.1,0,19.7c1-1.1,1.9-2.2,3-3.2c0.5-0.5,1.2-0.9,1.8-1
		c4.3-0.5,8.5-1,12.8-1.5c0.3,0,0.6,0.1,1.1,0.1c-0.2,0.5-0.3,0.8-0.5,1.1C13.7,60.2,7.7,65.8,1.1,70.6c-0.1,0.1-0.3,0.2-0.5,0.2
		c0,2,0,4,0,6c0.6-0.3,1.3-0.6,1.9-1.1c8.4-6.7,16.2-14,23.2-22.2c0.5-0.6,1.5-1,2.4-1.1c3.9-0.4,7.8-0.7,11.7-1
		c0.3,0,0.7,0.2,1.1,0.3c-0.1,0.4-0.1,0.8-0.4,1.1c-3.4,3.4-6.6,7-10.1,10.2c-3.7,3.4-7.6,6.6-11.7,9.4c-4.5,3.1-9.3,5.7-14,8.4
		c-1.3,0.8-2.8,1.4-4.3,2c0,9.6,0,19.3,0,29c3.2-4,6.2-8.2,8.4-12.9c0.7-1.4,3-2.7,4.5-2.5c1,0.1,0.7,0.7,0.4,1.2
		c-2.3,3.8-4.5,7.7-7,11.3c-1.8,2.6-4.2,4.9-6.3,7.4c0,3.5,0,6.9,0,10.3c5.8,0.3,11.6,0.3,17.3,1c6.5,0.8,12.8,2.7,19,5.9
		c-0.4,0.2-0.7,0.5-1,0.5c-3.4,0.5-6.9,1.1-10.3,1.2c-1.3,0.1-2.7-1-4-1.5c-4.1-1.6-8-3.3-12.1-4.6c-2.9-0.9-5.9-1.3-8.9-1.9
		c0,1.9,0,3.8,0,5.7c2.5,1,5.1,2,7.7,3c0.9,0.4,1.7,0.9,2.5,1.4c0,0.1-0.1,0.3-0.1,0.4c-3.3,0.7-6.7,1.4-10.1,2.1c0,1.7,0,3.4,0,5.1
		c1.9-0.3,3.8-0.6,5.7-0.9c0.6-0.1,1.2,0.1,1.8,0.1c-0.1,0.6,0,1.2-0.2,1.7c-1.1,3.3-2.2,6.6-3.6,9.8c-1,2.2-2.5,4.2-3.7,6.2
		c0,2.7,0,5.3,0,8c3.4-2.8,6.1-6.2,8.7-9.7c3.5-5,6.2-10.4,8.2-16.1c0.4-1.1,1.1-1.7,2.3-1.8c2-0.1,3.9-0.5,5.9-0.7
		c1.2-0.1,1.5,0.3,1.1,1.4c-1.8,4.2-3.3,8.4-5.3,12.5c-2.7,5.4-6.1,10.4-11.3,13.9c-0.9,0.6-2.1,0.8-3.2,1c-2.1,0.4-4.3,0.7-6.4,1.1
		c0,0.6,0,1.1,0,1.7c15.6-1.5,31.3-2.5,47-1.9c0,0.2,0.1,0.4,0.1,0.6c-0.6,0.1-1.2,0.3-1.8,0.4c-7.3,1-14.5,2-21.8,3
		c-4.1,0.6-8.2,1.3-12.3,2c-3.7,0.7-7.4,1.5-11.1,2.2c0,3.5,0,6.9,0,10.3c1.2-1.8,2.5-3.7,3.7-5.6c0.8-1.2,1.6-2,3.2-2.1
		c2.5-0.3,5-0.9,7.5-1.4c0.5-0.1,1,0,1.5,0c0,0.5,0,1.1-0.2,1.5c-4,7.6-9,14.4-14.7,20.8c-0.3,0.4-0.7,0.6-1,0.8c0,2,0,4,0,6
		c3.9-3.8,8.1-7.2,11.6-11.3c4.1-4.7,7.6-9.9,11.3-14.9c0.8-1.1,1.4-2.4,2.2-3.5c0.4-0.6,1.1-1.2,1.7-1.3c2.9-0.5,5.8-0.9,8.7-1.3
		c0.2,0,0.8,0.2,0.8,0.3c0,0.4,0,0.9-0.2,1.2c-1.4,2.4-2.7,4.8-4.2,7.2c-5.5,9-12.4,17.1-20.1,24.3c-0.5,0.4-1.2,0.8-1.8,0.9
		c-3.3,0.4-6.7,0.7-10,1.1c0,3,0,6.1,0,9.1c0.7-1.1,1.5-2.2,2.2-3.3c1.1-1.8,2.2-2.3,4.6-1.9c-1.5,3.7-3.6,6.8-6.9,9.1
		c0,3.7,0,7.4,0,11.1c1.5-0.3,3-0.5,5-0.9c-1.4,3.2-3.1,5.6-5,8c0,1.5,0,2.9,0,4.3c1.2-1.1,2.5-2.1,3.5-3.3c2.2-2.5,4.3-5,6.2-7.6
		c1.1-1.5,2.2-2.7,4.1-2.9c2.1-0.2,4.2-0.5,6.8-0.9c-0.6,1.2-0.9,2-1.4,2.8c-3.8,6.5-8.7,12-14.8,16.6c-1.4,1-2.8,0.8-4.3,0.9
		c0,5.6,0,11.2,0,16.8c1.4-1,2.7-2.1,4.1-3.2c0.4-0.2,0.7-0.5,1.1-0.6c2.2-0.3,4.4-0.6,6.6-0.9c1-0.1,1.9-0.3,3-0.3
		c-3.8,5.9-8.9,10.4-14.7,14.2c0,1.5,0,2.9,0,4.3c8,1,16.1,2.1,24.1,3.1c4.9,0.6,9.9,1,14.8,1.5c0.3,0,0.5,0.2,1.1,0.4
		c-5.2,2-10.4,3.3-15.3,5.4c0,0.2,0.1,0.4,0.1,0.6c0.6,0,1.2,0,1.8,0c6.3,0.1,12.6,0.2,18.9,0.4c0.3,0,0.7,0.4,1,0.6
		c-0.3,0.2-0.5,0.6-0.9,0.7c-4.3,1.3-8.7,2.5-12.9,4c-6.8,2.4-13.4,5-20.1,7.5c-1.2,0.4-2.4,1.1-3.6,1.7c0.1,0.2,0.1,0.4,0.2,0.6
		c9-2.5,17.9-4.9,26.9-7.4c0.1,0.2,0.2,0.3,0.3,0.5c-0.8,0.9-1.5,1.8-2.3,2.6c-3.8,3.9-8.2,7.1-12.8,10c-0.4,0.2-0.9,0.5-1.3,0.4
		c-3.5-0.5-7-0.9-10.3-1.9c-3-0.9-3.8-3.4-2.9-6.5c1-3.5,3.4-6.3,5.6-9.1c0.1-0.2,0.2-0.3,0.6-0.8c-0.6,0.1-1,0-1.2,0.2
		c-3.8,2.8-7.4,6.1-8.6,10.8c-1.1,4.6-0.1,7,4,9.6c3.8,2.3,8.1,3,12.4,3.4c2.1,0.2,4.3,0.3,6.5,0.4c0.5,0,0.9,0.1,1.8,0.2
		c-1,0.7-1.7,1.1-2.2,1.6c-0.8,0.9-1.8,1.8-2.4,2.9c-1,1.7-0.6,3.3,1.1,4.3c2,1.1,4.2,2.3,6.4,2.9c3,0.9,6.2,1.1,9.3,1.8
		c2.6,0.5,4.6-0.8,6.6-2c3.7-2.3,6.6-5.4,9.3-8.7c1-1.2,2.3-2.4,3.4-3.6c0.2,0.1,0.4,0.2,0.6,0.3c-0.2,0.9-0.1,1.8-0.4,2.5
		c-1.8,3.7-3.7,7.3-5.5,11c-0.3,0.5-0.4,1.2-0.6,1.8c0.6,0.2,1.1,0.4,1.7,0.4c3.4,0,6.8-0.2,10.2,0.1c3.2,0.3,5.7-1.1,8.1-2.8
		c5.8-4.2,10.4-9.5,14.3-15.5c0.3-0.6,0.9-1.1,1.4-1.5c0.2-0.1,0.9-0.2,1,0c0.2,0.2,0.3,0.8,0.2,1.1c-1.2,3.8-2.8,7.4-5.1,10.7
		c-1.5,2-3.1,4-4.7,6c-0.2,0.3-0.4,0.6-0.8,1.2c2,0,3.6,0,5.2,0c0.1,0.2,0.1,0.3,0.1,0.4c-7.2,4.6-14.3,9.3-20.2,15.7
		c3.5-1.9,6.5-4.7,10.7-5.1c4-0.4,8-1.4,12-0.2c-10.2,4.7-20.3,9.5-30.1,15.7c0.2-1.1,0.4-1.8,0.5-2.5c-0.1-0.1-0.3-0.2-0.4-0.3
		c-0.5,0.6-1.1,1-1.4,1.6c-1,1.9-2.2,3.7-2.7,5.7c-1,4.2,0.7,7.2,4.6,9.6c1.3,0.7,2.4,0.9,3.7,0.1c6-3.6,11.7-7.5,16.2-13
		c2.4-2.9,4.4-6.1,6.7-9.1c0.6-0.7,1.4-1.4,2.2-1.8c1.9-1,4-1.7,6.1-2.6c0.6,3.8-14.9,21.1-25.6,28.7c0.7,0.4,1.3,0.8,2,0.9
		c6.3,0.7,12.7,1.3,19,0.4c6.1-0.9,12.1-1.9,18.2-3c1.8-0.3,3.4-0.8,5.3-1.1c-11.2,9.1-21.6,18.9-29.8,30.7c0.2,0.1,0.3,0.3,0.4,0.4
		c0.7-0.6,1.4-1.1,2-1.8c2.1-2.5,4.9-3.6,7.9-4.5c4.1-1.3,8.3-2.3,12.6-2.7c1.1-0.1,2.2-0.1,3.8-0.2c-0.7,0.8-1.2,1.4-1.7,1.8
		c-3.8,3.1-7.8,6.1-11.5,9.3c-6,5.2-11.8,10.6-17.8,16c-1.8-2.7,0-5.8-0.2-8.7c-0.2-0.2-0.4-0.3-0.6-0.4c-0.2,0.3-0.3,0.7-0.5,1
		c-1.4,3.2-3,6.3-2.8,9.9c0.1,3.8,2,6.5,5.4,8.2c4,2,8.3,2.5,12.6,2.3c0.9-0.1,1.9-0.8,2.6-1.5c3.8-3.7,6.8-8.1,9.3-12.8
		c2.8-5.3,4.9-11,5.6-17c0.2-2.1,1.2-3.1,2.6-4.1c1.4-1,2.9-2.1,4.4-3.1c0.3-0.2,0.7-0.3,1.1-0.4c0,0.4,0.2,0.8,0.2,1.2
		c-0.3,5-1.5,9.7-3.1,14.4c-2,5.6-4.6,10.8-8.2,15.5c-1.3,1.8-2.8,3.3-4.2,5c-0.2,0.3-0.3,0.7-0.4,1.1c0.4,0,0.9,0.3,1.2,0.2
		c2.2-0.6,4.4-1.3,6.5-2c1.9-0.6,3.7-1.4,5.7-2c-3.4,5.2-6.5,10.4-8.4,16.2c0.1,0.2,0.3,0.3,0.5,0.4c0.6-0.8,1.2-1.5,1.8-2.3
		c1.8-2.3,3.5-4.8,5.5-7c0.8-0.9,2-1.5,3.1-1.9c3.8-1.5,7.6-2.8,11.8-2.8c0.5,0,1,0.1,1.8,0.2c-0.5,0.6-0.8,1.1-1.1,1.4
		c-3.4,3.3-6.8,6.4-10.1,9.8c-4.7,4.8-9.2,9.7-13.8,14.6c-0.3,0.4-0.8,0.5-1.2,0.8c-0.2-0.5-0.5-1-0.5-1.4c0.1-1.7,0.3-3.4,0.5-5.1
		c0-0.5,0.1-0.9,0.2-1.5c-1.5,0.2-1.5,1.4-1.9,2.2c-1.4,2.9-2,6-0.9,9.2c1.1,3.4,3.9,5.2,7.2,6.3c3.9,1.3,7.8,1.1,11.7,0.4
		c3.3-0.6,6.5-1.2,9.7-2.1c3-0.8,5.8-2,8.7-3c0.6-0.2,1.2-0.3,1.8-0.5c-1.7,4.9-3.7,9.6-5,14.5c-1.3,4.9-2.3,10-1.1,15.1
		c0.2,0,0.4,0.1,0.6,0.1c0.1-0.4,0.3-0.8,0.3-1.3c0.5-6.8,3-13,5.9-19c1-2,3.1-2.4,4.8-3.1c3.9-1.7,8-3,12.4-3.2c0.4,0,0.7,0,1.1,0
		c0.1,0.2,0.2,0.3,0.3,0.4c-4.1,5.1-8.2,10.2-12.2,15.5c-4,5.2-8,10.4-11.4,16c0.1,0.2,0.3,0.3,0.4,0.4c1.2-1.1,2.3-2.3,3.5-3.4
		c2.5-2.4,4.9-4.9,7.4-7.3c0.3-0.2,0.7-0.3,1-0.3c0.2,0,0.4,0.5,0.4,0.8c0,4.5-0.6,8.9-2.2,13.1c-0.1,0.5-0.9,0.9-1.5,1
		c-1.1,0.2-2.3,0.1-3.5,0.1c-0.5,0-1.1,0.1-1.6,0.4c3.2,1.6,6.6,1.8,10,1.8c3.3,0,6.7-0.5,10.1-0.8c-1,1.3-2.1,2.6-3.2,3.9
		c8.5,0,17.1,0,25.6,0c0-0.9,0-1.9,0.1-2.8c0.1-0.6,0.1-1.3,0.4-1.7c1.8-2.1,3.8-4.1,6-6.5c0.7,3.9,0.6,7.5,0.9,11.1
		c1.3,0,2.7,0,4,0c0.1-4.1,0.5-8.1,0.2-12.1c-0.2-3.2,0.6-5.8,3.1-7.8c0.9-0.7,1.6-1.6,2.4-2.4c0.2-0.3,0.6-0.4,0.9-0.6
		c0.2,0.3,0.6,0.6,0.6,1c0.3,4.2,0.8,8.4,1,12.6c0.2,3,0.1,6.1,0.1,9.2c1.1,0,2.3,0,3.4,0c1.1-9.1,1-18.2,0.7-27.3
		c-0.1-1.3,0.2-2.4,1.2-3.3c1.3-1.1,2.3-2.5,3.5-3.7c0.2-0.3,0.7-0.4,1.1-0.6c0.2,0.4,0.6,0.8,0.6,1.3c0.8,8.9,0.9,17.7,0.1,26.6
		c-0.3,2.4-0.5,4.7-0.7,7.1c4.6,0,9.1,0,13.7,0c-0.4-0.9-0.2-1.6,0.6-2.2c1.5-1.1,2.8-2.4,4.1-3.7c0.7-0.8,1.3-0.5,1.6,0.3
		c0.7,1.8,1.3,3.7,1.9,5.6c2.8,0,5.7,0,8.5,0c-0.3-1.8-0.5-3.6-0.9-5.4c-0.7-2.5-1.5-5-2.2-7.5c-0.2-0.6,0-1.4,0.4-1.8
		c1.4-1.5,3-2.9,4.5-4.3c0.8-0.7,1.3-0.2,1.5,0.5c0.6,2.4,1.3,4.9,1.8,7.3c0.6,3.5,1.1,6.9,1.6,10.4c0,0.2,0,0.5,0,0.8
		c1.9,0,3.8,0,5.7,0c0.1-5.3-0.4-10.6-1.6-15.8c-0.7-3.1-1.6-6.1-2.3-9.2c-0.1-0.4,0.1-1.1,0.4-1.5c1.9-2.1,3.9-4.2,5.9-6.2
		c0.9-0.9,1.2-0.8,1.7,0.5c4.2,10.4,3.9,21.3,3.3,32.2c7.3,0,14.6,0,21.9,0c-0.2-1.6-0.3-3.2-0.5-4.8
		C284.7,501.8,284,496.6,283.3,491.4z M304.1,103.8c-3.9-0.5-7.8-1.8-11.6-2.8c-1.4-0.4-2.7-1-4.1-1.5c0.1-0.2,0.1-0.5,0.1-0.7
		c15.3,3.3,30.2,2.2,44.4-4.6c0.1,0.1,0.1,0.2,0.2,0.3c-0.4,0.5-0.8,0.9-1.2,1.3C323.8,102.4,314.4,104.9,304.1,103.8z M181,205.8
		c-2.7-10.9-0.5-21.1,5.4-30.6c-3.1,18-0.6,35,7.9,51C187.7,220.8,183.1,214.1,181,205.8z M192.1,207.6c-2.8-8-1.6-15.8,1.5-23.5
		c0.6,11.6,1.8,23.1,5.8,34.2C195.9,215.4,193.5,211.8,192.1,207.6z M268.2,181.8c-1,2.7-2.7,4.9-4.8,6.9c-3,2.9-6,5.6-9,8.5
		c-1,1-1.9,2.1-2.9,3.2c-0.1-0.1-0.2-0.1-0.3-0.2c0.2-0.7,0.2-1.4,0.5-2.1c2.1-5.1,4.7-9.9,8.3-14.1c3.7-4.3,6.5-9.2,8.7-14.5
		c0.2-0.4,0.6-0.7,1.1-1.2C269.8,173,269.8,177.4,268.2,181.8z M289.4,139.5c1.2-0.2,1.6,0.2,1.6,1.4c0.1,4.4-2.4,7.2-5.7,9.4
		c-3.1,2-6.7,3.1-10.2,4.2c-7.3,2.3-13.2,6.3-16.8,13.3c-2.6,5.1-5.2,10.2-8.1,15.2c-2.4,4.2-5.6,7.9-9.5,10.7
		c-3.3,2.3-6.8,4-10.9,3.9c-4.2-0.1-7-2.2-9-5.7c-0.4-0.7-0.7-1.5-1-2.2c0.1,0,0.3-0.1,0.4-0.1c1.5,0.8,3,1.6,4.8,2.3
		c2.5,1.1,5,0.9,7.5,0.2c3.9-1.1,6.4-3.9,8.8-6.9c4.7-5.9,8.2-12.6,12.1-19c2.8-4.5,5.1-9.4,9-13.2c4.4-4.4,9.5-8,15.3-10.3
		C281.5,141.2,285.3,140,289.4,139.5z M275.5,133.8c0.1,0.2,0.1,0.5,0.2,0.7c-1.5,0.8-3.1,1.6-4.7,2.4c-4.1,2.3-7.6,5.5-10.2,9.3
		c-4.3,6.2-8.3,12.5-12.3,18.9c-3.9,6.2-8.8,11-16,13.3c-3.6,1.2-8.6,1.2-11.5-0.3c0.6-0.2,0.9-0.4,1.3-0.4
		c8.4-0.8,14.8-5.1,19.5-11.7c4.1-5.6,7.7-11.7,11.4-17.6c3.2-5.1,7.2-9.5,13-11.8C269.2,135.5,272.4,134.8,275.5,133.8z
		 M212.3,145.4c3.3-0.7,6.5-1.6,9-4c-0.1,3.8-2.1,6.4-5,8.1c2.9,0,5.5-1.1,7.7-2.7c2.3-1.6,4.3-3.5,6.5-5.4
		c-0.2,2.4-0.7,4.6-1.7,6.6c-1,2.1-2.4,3.9-3.7,6c0.6-0.2,1.2-0.2,1.8-0.4c6.9-2,12.2-6.4,16.5-12.1c2.2-2.8,4.5-5.5,7.5-7.5
		c2.7-1.8,5.8-2.4,9-2.5c0.7,0,1.3,0,2.2,0c-0.5,0.5-0.7,0.9-1.1,1.1c-4.3,2.3-6.9,6.1-9.2,10.2c-2.7,4.7-5.3,9.4-8.1,14
		c-2.4,3.9-5.4,7.2-9.1,9.9c-5.9,4.3-12.4,6.2-19.6,5.2c-4.6-0.6-8.3-3-10.3-7.4c-1.4-3-1.5-6.4-0.7-9.6c0.4-1.9,1.2-3.8,2.1-5.6
		C207.4,146.9,209.8,146,212.3,145.4z M165.7,157.6c2.7-5.6,5.8-10.9,10.2-15.4c4.3-4.4,9.3-7.8,15.1-10.1c5.3-2.1,10.4-4.5,14.3-9
		c1.6-1.8,2.5-3.9,3-6.3c0.1-0.4,0.2-0.8,0.4-1.4c2.9,2.6,3.3,7.2,1.3,10.4c-1.9,3-4.7,4.9-7.8,6.4c-2.6,1.3-5.5,2.1-8.1,3.4
		c-3.3,1.6-6.7,3.3-9.8,5.3c-5.8,3.7-10.5,8.5-15,13.6c-1.2,1.3-2.2,2.8-3.6,4.2C165.7,158.4,165.5,157.9,165.7,157.6z M163.1,196.1
		c-0.8-6.1,1-11.6,5.2-16.3c-1.7,10.1-0.5,20,1.5,30C166.1,206,163.7,201.5,163.1,196.1z M171.2,198.3c-0.7-6.8,0.2-13.2,4.9-18.7
		c-2.1,12.2-0.4,23.9,3.6,35.5C177.4,214.5,171.7,203.1,171.2,198.3z M79.1,358.5c-3.5,5.5-7.9,10.3-12.8,14.6
		c-0.8,0.7-1.5,0.9-2.6,0.4c-2.8-1.2-4.5-3.1-5.4-5.9c-0.4-1-0.1-1.8,0.9-2.2c2.9-1.2,5.8-2.3,8.7-3.5c3.3-1.4,6.6-2.7,9.9-4
		c0.4-0.2,0.8-0.2,1.4-0.4C79.1,358,79.1,358.1,79.1,358.5z M84.5,432.8c-2.2-0.5-3.8-1.7-5.1-3.4c-0.5-0.7-0.7-1.5,0.2-2.1
		c4.7-3.4,9.3-6.8,14-10.2c0.1-0.1,0.3-0.1,0.9-0.3c-0.8,2.3-1.3,4.4-2.2,6.1c-1.8,3.2-3.8,6.2-5.7,9.3
		C86.1,433,85.4,433,84.5,432.8z M104.2,415.2c-1.1,3.6-2.4,7.1-3.8,10.5c-0.9,2.1-2.1,4.2-3.5,6.1c-0.5,0.7-1.8,0.8-2.7,1
		c-1.7,0.3-3.4,0.4-5.1,0.6c0-0.1-0.1-0.3-0.1-0.4c1.1-1.4,2.2-2.8,3.3-4.3c3.2-4.4,5.5-9.2,6.3-14.7c0.1-0.4,0.3-0.9,0.6-1.1
		c1.8-1.3,3.6-2.6,5.4-3.9c0.2-0.1,0.5-0.1,1-0.1C105.2,411.1,104.9,413.2,104.2,415.2z M174.6,325.8c1.4,1.8,3.4,3.1,5.2,4.6
		c0.3,0.2,0.7,0.3,0.9,0.2c0.2-0.2,0.3-0.6,0.3-0.9c-0.5-3.7,0.2-7.4,1.6-10.8c0.9-2.2,2.3-4.2,3.7-6.2c0.8-1.3,2-2.3,3-3.5
		c0.2,0.1,0.3,0.2,0.5,0.3c-0.3,0.9-0.6,1.8-1,2.6c-2.1,6.9-2.3,13.7,1.1,20.3c1.9,3.6,4.6,6.5,8,8.7c0.4,0.2,0.7,0.4,1,0.9
		c-3.3,0.6-6.5,0.3-9.7-0.8c-3.3-1.1-5.7-3.3-7.9-6c-1.1,6.2,1.5,10.8,5.8,15c-0.5,0.1-0.8,0.3-1.1,0.2c-5.9-1.2-11.6-2.9-16.2-7
		c-4.8-4.3-6.6-9.8-6.4-16.1c0.2-6.2,2.1-11.9,4.7-17.5c0.3-0.5,0.5-1.1,0.8-1.7c0.2,0,0.3,0,0.5,0c0.1,0.6,0.2,1.2,0.2,1.8
		C169.5,315.8,170.9,321.1,174.6,325.8z M191.6,365.6c-0.1,4.5-0.4,8.9-1.6,13.2c-0.1,0.5-0.1,0.9-0.2,1.4c-0.4,1.6-0.9,3.1-2.5,4.1
		c-2.3,1.5-4.4,3.1-6.6,4.7c-0.2,0.2-0.6,0.3-1.2,0.6c0.9-2.7,1.7-4.9,2.3-7.3c1.7-5.3,2.5-10.8,2.9-16.4c0.1-2.3,0-2.2,2.3-1.9
		c1,0.2,2.1,0.2,3.1,0.2C191.2,364.1,191.6,364.6,191.6,365.6z M157.8,364.3c0.1,0.1,0.1,0.3,0.2,0.5c-2.2,1.5-4.5,2.9-6.8,4.4
		c-0.3,0.2-0.8,0.1-1.2,0.1c-4.3,0-8.5,0-12.8,0.1c-0.5,0-1,0.2-1.5,0.3c-0.6,0.1-1.2,0.1-1.8-0.1
		C141.4,365.8,149.6,365,157.8,364.3z M136.7,363.2c4.9-5.2,9-10.5,12.5-16.4c3.4-5.8,6.3-11.9,8.7-18.3c0.1,0.6,0.2,1.1,0.2,1.6
		c0.2,2.3,0.4,4.6,0.7,6.9c0.2,1.4,0.1,2.7-0.6,4c-3.2,6.1-6.5,12.2-10.8,17.6c-0.6,0.8-1.6,1.5-2.5,1.9c-2.2,1-4.5,1.8-6.7,2.7
		C137.9,363.3,137.5,363.2,136.7,363.2z M154.2,357c-0.6,0.2-1.1,0.5-2,0.8c3-4.7,5.9-9,8.7-13.2c1.6,2.3,3.2,4.5,4.8,6.7
		c0.5,0.6,0.4,1.2-0.4,1.5C161.6,354.2,157.9,355.7,154.2,357z M160.6,301.9c-1.7,1.9-3.7,3.2-6.5,3.1c-1.8-0.1-3.7,0.4-5.5,0.6
		c-0.4,0.1-0.9,0-1.5-0.1c1.5-1.9,2.7-3.6,3.9-5.4c2.1-3,3.6-6.2,4.6-9.7c0.1-0.4,0.7-0.9,1.2-1.1c2.5-1,5.2-1.6,7.6-2.7
		c1.5-0.6,2.8-1.9,4.3-3c0,0.4,0.2,0.8,0.1,1.1C167.3,291,165.2,297.1,160.6,301.9z M152.9,327.8c0.3-0.1,0.6,0,0.9,0
		c0,0.3,0.1,0.6,0,0.8c-3,8.2-7,15.8-11.9,23c-2.7,3.9-5.6,7.7-8.5,11.5c-1.7,2.3-3.9,3.7-6.7,4.5c-1.9,0.5-3.8,1.4-5.8,2.1
		c-0.5,0.2-1,0.2-1.5,0.3c1.8-2,3.5-3.9,5.1-5.7c5.8-6.3,10.7-13.3,14.6-20.9c1.9-3.6,3.4-7.5,5.1-11.2c0.3-0.6,1-1.2,1.6-1.5
		C148.1,329.5,150.5,328.7,152.9,327.8z M123.9,376.5c4.5-0.6,8.9-1.1,13.3-1.5c1.1-0.1,2.3,0.2,3.4,0.3c0.3,0.1,0.6,0.4,0.7,0.6
		c0,0.1-0.3,0.4-0.5,0.6c-1,0.7-1.9,1.5-3,2.1c-0.5,0.3-1.1,0.5-1.7,0.5c-5.7-0.5-11.3,0.3-16.9,1.5c-1,0.2-1.9,0.5-2.9,0.8
		c-0.1-0.1-0.1-0.3-0.2-0.5C118.8,379.3,120.9,377,123.9,376.5z M133.6,402c1-4.2,1.5-8.7,2.1-13c0.2-1.2,0.5-2.1,1.6-2.8
		c2-1.3,3.9-2.7,5.8-4.1c0.3-0.2,0.7-0.4,1-0.6c0.1,0,0.3,0.1,0.4,0.1c-0.2,1.8-0.1,3.6-0.2,5.4c-0.9,4.1-1.8,8.3-2.9,12.3
		c-1.6,5.5-4.3,10.5-7,15.6c-1.8,3.5-4.8,4.9-8,6.4c-0.2,0.1-0.4,0-0.8,0c0.1-0.5,0.2-0.9,0.4-1.2C129.5,414.5,132,408.4,133.6,402z
		 M140.5,409.4c1.9-3.9,3.8-7.8,5.2-11.8c1.3-3.8,2.1-7.8,2.9-11.7c0.5-2.4,0.5-4.9,0.9-7.3c0-0.6,0.5-1.3,1-1.7
		c1.5-1.2,3.2-2.2,4.8-3.3c0.3-0.2,0.7-0.3,1-0.4c0.1,0.3,0.3,0.7,0.3,1c-0.2,2.9-0.3,5.9-0.7,8.8c-1,7.7-3.3,15.1-6.6,22.1
		c-0.6,1.4-1.4,2.8-2.1,4.2c-0.9,1.8-2.8,2.4-4.4,3.4c-1.4,0.9-2.9,1.7-4.4,2.5c-0.3,0.2-0.7,0.2-1.3,0.3
		C138.4,413.3,139.7,411.5,140.5,409.4z M154.1,401.2c2.1-4.3,3.6-8.9,4.8-13.6c1.4-5.5,2.2-11,2.3-16.7c0.1-1,0.4-1.7,1.3-2.2
		c1.8-1.1,3.4-2.3,5.1-3.4c0.3-0.1,0.5-0.2,1-0.4c0.1,0.6,0.2,1.1-0.1,1.6c-0.3,4.1-0.5,8.2-1.1,12.3c-0.9,6.3-2.6,12.4-5.3,18.1
		c-0.9,1.9-1.8,3.9-3.1,5.6c-0.9,1.1-2.3,2-3.6,2.8c-1.4,0.9-2.9,1.7-4.6,2.3C151.9,405.5,153.1,403.5,154.1,401.2z M155.8,430.1
		c0.2-2.8,0.4-5.7,0.6-8.6c0-0.4,0-1,0.3-1.2c2.2-2,4.3-4,6.5-5.9c0.1,0,0.3,0.1,0.4,0.2c0.1,0.4,0.2,0.9,0.1,1.5
		c-0.7,6.2-1.3,12.5-2.2,18.7c-0.8,6.2-2.7,12-5.1,17.7c-1.5,3.4-4.4,5.9-8.1,6.8c0.1-0.5,0.1-0.9,0.2-1.2
		C152.5,449.2,154.9,439.8,155.8,430.1z M160.6,448.2c1.1-2.8,2.2-5.5,3-8.3c1.2-4.2,2.4-8.4,3-12.7c0.7-5,0.9-9.9,1.2-14.9
		c0.1-1.4,0.5-2.5,1.6-3.4c1.9-1.5,3.7-3.2,5.8-5c0.1,0.8,0.3,1.3,0.2,2c-0.1,6.8-0.8,13.6-2,20.3c-1.3,7.6-3.3,15-6.7,22
		c-0.4,0.8-1.1,1.6-1.8,2.1c-1.7,1.2-3.6,2.3-5.5,3.4c-0.3,0.2-0.8,0.2-1.4,0.3C158.9,451.8,159.9,450.1,160.6,448.2z M174.4,392.8
		c-0.2,0.5-0.6,0.9-1,1.2c-2.9,2-5.9,3.9-8.8,5.8c-0.1,0.1-0.3,0.1-0.8,0.2c1.2-2.5,2.4-4.7,3.4-7c2.7-6,4.8-12.1,5.5-18.6
		c0.5-3.9,0.7-7.8,1-11.7c0.2-2.1,1.1-2.5,3-1.9c2.4,0.8,3,2.2,2.7,4.5c-0.6,5.4-0.9,10.8-1.8,16.1
		C176.9,385.2,175.5,389,174.4,392.8z M142.6,226.2c2.7,1.7,5.1,3.7,6.9,6.4c0.3,0.3,0.7,0.6,1,0.9c0.1,0,0.2-0.1,0.3-0.2
		c-0.3-0.9-0.7-1.8-1-2.4c-2-4.8-2.7-9.8-3.1-14.9c-0.1-0.3,0.2-0.7,0.3-1.1c0.3,0.3,0.7,0.5,1,0.8c3.3,2.8,6.4,5.8,9.9,8.4
		c4.9,3.7,10.6,5.8,16.3,7.6c1,0.3,1.9,0.5,2.9,0.7c0.9,0.2,1.2,0.6,0.6,1.5c-1.6,2.3-3.2,4.6-4.6,7c-0.4,0.6-0.6,1.6-0.4,2.3
		c1.8,6.6,2.6,13.3,1.8,20c-1,8.6-5.1,15.4-13.1,19.5c-0.1,0.1-0.2,0.1-0.7,0.2c0.4-0.6,0.5-1.1,0.8-1.4c5.5-6.5,7.5-14.1,6.6-22.5
		c-0.6-4.7-2.2-9.1-4.3-13.3c-0.2-0.6-0.8-1.1-1.3-1.4c-1.6-0.8-3.3-1.5-4.9-2.2c-0.2-0.1-0.4-0.1-0.9-0.2c0.5,1,0.8,1.8,1.2,2.6
		c2.5,4.7,4.4,9.5,5.2,14.7c1.7,11.2-1.8,19.8-12.4,25.4c-1.1,0.6-2.4,1-3.6,1.6c-0.3,0.2-0.7,0.6-0.8,1c-1.2,5.5-3.7,10.4-7.3,14.7
		c-0.6,0.7-1.9,1-3,1.3c-2.2,0.6-4.3,1-6.5,1.5c-0.1,0-0.3,0-0.8-0.1c0.5-0.6,0.7-1,1.1-1.4c4.1-4.4,7.9-9.1,10.8-14.4
		c0.5-0.8,1.6-1.4,2.5-2.2c-0.5-0.1-0.8-0.3-1.1-0.3c-6.5-0.6-12.3-2.9-17-7.4c-2.3-2.2-4.2-5-5.6-7.9c-1.7-3.4-3.1-7.2-3.9-10.9
		c-0.9-4.2-1.4-8.6-0.6-13c0.4-1.9-0.1-4,1.7-6c-0.3,8.8,3.3,15.9,7.9,22.5c0.1-0.1,0.3-0.1,0.5-0.2c-0.1-0.8-0.2-1.6-0.4-2.3
		c-2.2-7.5-3.3-15.2-3.1-23.1c0.1-2.6,0.5-5.1,1.4-7.5c0.9-2.4,2.5-4.2,4.6-5.2c2-1,4.2-1.6,6.4-1.9
		C137.1,223,140,224.5,142.6,226.2z M53.3,217.8c0.9-1.4,1.5-3,2.1-4.5c0.4-0.9,2.3-1.7,3.1-1.2c0.2,0.1,0.4,0.6,0.3,0.9
		c-1.3,4.5-4,8-8.2,10.2c-0.4,0.2-0.9,0.1-1.4,0.2C50.6,221.3,52.1,219.6,53.3,217.8z M45.8,220.5c-1.6,2-3.6,3.5-6.1,4.2
		c-0.3,0.1-0.6,0.2-1.4,0.3c0.6-0.7,0.9-1.1,1.2-1.4c3.2-2.6,5.2-6,6.9-9.7c0.5-1,2.1-1.8,3-1.3c0.3,0.2,0.4,1.4,0.2,1.8
		C48.4,216.5,47.2,218.6,45.8,220.5z M60,219.2c1.3-2.1,2.4-4.3,3.6-6.4c0.3-0.5,0.8-1,1.4-1.3c0.3-0.2,1.1-0.2,1.4,0.1
		c0.2,0.2,0.1,1-0.1,1.4c-1.3,3.5-3.2,6.7-6.8,8.5c-0.4,0.2-0.9,0.2-1.4,0.3c-0.1-0.1-0.1-0.3-0.2-0.4C58.6,220.6,59.4,220,60,219.2
		z M56.9,208c-0.4,0-0.7-0.1-1.4-0.2c2-1.4,3.8-2.6,5.6-3.8c5.9-4,11.1-8.7,15.6-14.2c2.9-3.5,5.6-7.3,8.4-11c0.5-0.7,1.1-1.1,2-0.4
		c1.5,1,3,2,4.6,3c1.3,0.8,1,1.9,0.3,2.8c-2.2,3-4.3,6.1-6.8,8.9c-4.1,4.5-8.8,8.3-14.2,11.2C66.6,206.6,62,208.2,56.9,208z
		 M73.2,83.5c4.8-2.1,9.2-5,13.2-8.3c1.9-1.6,3.8-3.4,5.7-5.1c0.4-0.3,1-0.6,1.5-0.6c3.1-0.3,6.1-0.5,9.2-0.7c0.3-0.1,0.7,0,1,0
		c0.1,0.1,0.1,0.2,0.2,0.3c-0.9,0.7-1.7,1.4-2.6,2c-5.2,3.4-10.3,7-15.7,10.2c-3.4,2-7.1,3.6-10.8,5.2c-1.7,0.8-4.5,0.2-6.1-1.1
		C70.3,84.8,71.8,84.1,73.2,83.5z M60.1,84.1H60c-2.1-0.3-4.1-0.5-6.2-0.7c0-0.2,0-0.3,0-0.5c1.6-0.8,3.1-1.7,4.7-2.5
		c7.3-3.9,14-8.7,19.8-14.6c0.8-0.8,1.5-0.8,2.6-0.8c2.7,0,5.4-0.3,8.1-0.5c0.3,0,0.6-0.1,0.9-0.1c0.1,0.2,0.2,0.3,0.3,0.5
		c-1.5,1.3-2.9,2.6-4.5,3.9c-4.7,3.4-9.4,6.9-14.4,10C67.8,80.9,63.8,82.3,60.1,84.1z M87.2,116c2.7-3.2,5.5-6.4,8.2-9.7
		c1-1.2,2.5-1.6,3.8-0.6c0.3,0.2,0.4,1.1,0.2,1.4c-2.9,4-6,7.8-9.8,11c-0.3,0.2-0.8,0.4-1,0.5c-0.3,0-0.5-0.1-0.7-0.2
		c-0.6-0.3-1.2-0.6-1.8-0.9C86.5,117,86.8,116.5,87.2,116z M78.2,115c-1.4,1.3-2.8,0.8-4.2,0.7c-0.8-0.1-0.5-0.8,0-1.3
		c0.9-0.9,1.9-1.7,2.7-2.7c2.4-2.9,4.8-5.8,7.1-8.8c1.4-2,2-2.1,4.2-0.3C85.1,107,82,111.2,78.2,115z M101,134.4
		c-2.4,0.8-5.2-0.4-6.6-2.3c-1.4-1.9-3.2-3.5-4.8-5.3c-0.1-0.2-0.4-0.4-0.6-0.6C91.6,125.2,99.4,130.1,101,134.4z M99.5,122.2
		c-0.1-0.3,0.2-1.1,0.5-1.4c2.1-2.2,4.4-4.4,6.5-6.7c1.3-1.4,2.4-3,3.5-4.6c0.6-1,1.3-1.3,2.4-1.1c0.6,0.1,1.2,0,1.8,0.1
		c0.3,0.1,0.6,0.3,1,0.5c-0.3,0.4-0.4,0.6-0.5,0.8c-3.5,4.7-7.5,8.9-11.9,12.7C102,123.1,100,123,99.5,122.2z M97.8,96.6
		c-2.3,0.9-4.4-0.4-6.5-1c0-0.2,0-0.3,0-0.4c0.8-0.2,1.6-0.4,2.4-0.7c6.5-2.4,12.3-5.9,17.5-10.4c0.1-0.1,0.2-0.2,0.3-0.3
		c2.1-2.3,4.6-3,7.7-3c2.2,0,4.5-1.1,6.8-1.7c0.2-0.1,0.4-0.1,0.6-0.2c0,0.1,0.1,0.2,0.2,0.3c-2.7,2.2-5.4,4.6-8.2,6.7
		c-3.6,2.5-7.3,4.9-11.2,6.9C104.4,94.4,101,95.4,97.8,96.6z M111.2,77.8c-5,4-10.4,7.2-16.1,9.8c-3.3,1.5-6.7,2.9-10.2,3.8
		c-1.4,0.3-3.2-0.8-4.8-1.3c0.1-0.2,0.1-0.4,0.1-0.6c0.8-0.3,1.6-0.6,2.5-0.9c5.9-1.9,11.1-5.2,16.1-8.8c1.3-1,2.5-2.1,3.6-3.2
		c0.8-0.8,1.6-0.9,2.7-0.9c2.9-0.1,5.8-0.3,9.1-0.5C113.2,76,112.2,76.9,111.2,77.8z M72.6,96.6c0.2-0.3,0.7-0.6,1-0.5
		c0.6,0.2,1.3,0.4,1.8,0.8c0.3,0.3,0.6,1.1,0.4,1.4c-3.5,5.8-7.6,11-12.8,15.3c-0.7,0.6-2.2,0.3-3.4,0.5c-0.1-0.1-0.1-0.3-0.2-0.4
		c0.3-0.5,0.5-0.9,0.8-1.3C65.2,107.8,69.3,102.5,72.6,96.6z M70.7,121.8c0.5,0,1,0,1.4,0.1c4.5,1,8.7,2.7,12.2,5.6
		c1.6,1.4,2.9,3.2,4.3,4.9c0.2,0.2,0.2,0.7,0.1,0.9c-0.1,0.2-0.5,0.3-0.8,0.3c-1.5-0.1-3-0.2-4.5-0.4c-0.3-0.1-0.9-0.5-1-0.8
		c-1.8-4.4-5.6-6.7-9.5-8.9c-0.8-0.5-1.5-0.9-2.3-1.3C70.6,122.1,70.7,121.9,70.7,121.8z M84.9,140.9c0.3-0.8,0.7-1.3,1.6-1.2
		c2.5,0.2,4.9,0.3,7.4,0.5c1.2,0.1,1,0.8,0.7,1.5c-1.9,5.2-4.6,9.9-8.1,14.2c-4.3,5.4-9.6,9.4-16,11.9c-1.1,0.4-2.4,0.3-3.6,0.3
		c-1.4,0-2.8-0.1-4.2-0.2c0-0.1-0.1-0.3-0.1-0.4c0.9-0.5,1.8-0.9,2.7-1.4c5.7-3.6,10.4-8.1,13.9-13.8
		C81.4,148.8,83.1,144.8,84.9,140.9z M81.4,165.6c3-2.1,6-4.3,8.9-6.7c5.1-4.3,8.8-9.7,12-15.5c0.2-0.3,0.2-0.8,0.5-1.1
		c0.6-0.5,1.2-1.1,1.8-1.1c2.9,0.1,5.7,0.5,8.5,0.8c0.3,0,0.5,0.2,0.9,0.4c-0.8,1.2-1.5,2.5-2.5,3.5c-3.9,4.6-7.8,9.2-12,13.5
		c-3.8,3.8-8.1,7.1-13.2,9.2c-1,0.4-2.2,0.6-3.4,0.6c-1.6,0-3.2-0.2-4.8-0.3c-0.5-0.1-0.9-0.2-1.4-0.6
		C78.3,167.5,79.9,166.6,81.4,165.6z M80.2,203.9c4.3-2.2,8.1-5.2,11.5-8.5c2.9-2.9,5.6-6.1,8.2-9.3c1-1.3,2.4-1.8,3.8-2.2
		c1.8-0.6,3.6-1.1,5.6-1.7c-2.3,7.5-27.6,25.8-32.9,23.7C77.8,205.2,79,204.5,80.2,203.9z M98.6,200.5c7-4.8,13.1-10.6,17.9-17.6
		c1.1-1.6,2.6-2.6,4.2-3.4c1.3-0.6,2.7-1.2,4-1.8c0.2,0.1,0.3,0.3,0.4,0.4c-5.1,8.3-11.6,15.3-19.5,20.8c-3.8,2.7-7.9,5.1-12.7,5.7
		c-0.1-0.1-0.1-0.2-0.2-0.3C94.7,203,96.7,201.8,98.6,200.5z M124.8,150.8c-4.4,4.8-9.2,9.2-14.6,12.8c-4.6,3.1-9.5,5.5-15,6.8
		c-0.8,0.1-1.6,0-2.4-0.1c-0.3,0-0.6-0.3-0.9-0.5c0.2-0.3,0.3-0.6,0.6-0.8c2.8-1.7,5.8-3.3,8.5-5.1c6.7-4.5,12.3-9.9,16.9-16.5
		c0.8-1.1,1.4-2.2,2-3.3c0.5-0.9,1.1-1.3,2.3-1c2.2,0.5,4.4,0.8,6.6,1.2c0.3,0,0.5,0.2,1.1,0.5C128.1,146.9,126.5,148.8,124.8,150.8
		z M115.7,98.3c-2.2,0.8-4.3,2-6.7,1.4c-1.3-0.3-2.5-0.6-3.7-0.9c0-0.1,0-0.3,0-0.4c1.8-0.9,3.7-1.7,5.4-2.6
		c6.2-3.1,12-6.7,17.2-11.4c0.4-0.3,1-0.7,1.5-0.7c3.9-0.3,7.1-1.8,10.2-4c0.3-0.2,0.6-0.2,1.2-0.4c-0.4,0.8-0.6,1.3-0.9,1.8
		c-2.2,3.6-5.4,6.2-8.7,8.7C126.5,93.4,121.3,96.3,115.7,98.3z M124.8,69.5c-1.7,0.6-3.7,1.5-5.8-0.3c1.8-0.7,3.3-1.3,4.9-1.7
		c5.4-2.1,10.4-5,15.2-8.4c2-1.4,3.9-2.9,5.8-4.3c0.7-0.5,2.1-0.2,2.5,0.5c0.1,0.2,0,0.6-0.2,0.8c-3.5,3.4-7.4,6.4-11.8,8.7
		C131.9,66.5,128.4,68,124.8,69.5z M137.9,52c-6.9,6.2-14.6,10.8-23.2,14.1c-1.5,0.6-2.2-1-3.3-1.5c0.1-0.2,0.1-0.3,0.1-0.5
		c1.2-0.5,2.5-0.8,3.6-1.5c4-2,8-3.9,11.9-6.2c3-1.8,5.6-4,8.4-5.9c0.6-0.3,1.5-0.5,2.2-0.3C138.7,50.5,138.8,51.1,137.9,52z
		 M128.9,47.6c-2.4,1.9-4.7,4-7.3,5.6c-3.6,2.3-7.5,4.3-11.2,6.4c-0.7,0.4-1.4,0.7-2.2,0.9c-1.6,0.5-1.8-1.1-3.1-2
		c1.4-0.7,2.4-1.3,3.5-1.7c5.5-2.7,10.8-5.9,15.6-9.7c0.3-0.3,0.6-0.5,0.9-0.7c1.7-1.2,2.4-1.2,4-0.1
		C129.3,46.4,129.2,47.4,128.9,47.6z M111.9,48.5c-2.9,2-6,3.6-9,5.4c-0.9,0.5-3.2-0.5-3.3-1.5c0-0.3,0.5-0.8,0.8-1
		c3.5-2.4,7.1-4.7,10.6-7.1c1.2-0.9,2.3-2,3.4-3c0.6-0.6,1.3-0.9,2.2-0.4c1,0.5,2,0.8,3,1.2c0,0.2,0.1,0.3,0.1,0.5
		C117.1,44.6,114.6,46.8,111.9,48.5z M106.9,39.1c-3.5,3.3-7.3,6.3-11.5,8.7c-0.9,0.6-1.6,0.7-2.5,0.1c-0.9-0.5-1.9-0.8-3.2-1.4
		c1.2-0.8,2.2-1.3,3.2-2.1c3.4-2.5,6.7-5,9.9-7.6c0.8-0.6,1.5-0.9,2.4-0.5c0.4,0.2,0.9,0.4,1.3,0.6
		C108.4,37.5,108.5,37.6,106.9,39.1z M90.5,38.8c-2.4,1.9-5.2,3.5-7.7,5.3c-1.9,1.4-3.8,0.5-5.7,0.2c5-3.6,9.1-7.8,13.2-12.2
		c0.3-0.2,0.8-0.6,1.1-0.5c1.6,0.5,3.2,1,5.2,1.7C94.3,35.3,92.5,37.1,90.5,38.8z M68.7,43.3c-1.2,0.7-2.7,1-4.2,1.3
		c-1.3,0.2-2.7,0.1-4,0.2c-0.1-0.1-0.1-0.2-0.2-0.3c0.6-0.4,1.2-0.8,1.7-1.2c3.4-2.8,6.9-5.6,10.3-8.6c2-1.8,3.8-3.7,5.5-5.6
		c1-1.1,1.9-1.6,3.3-1c0.9,0.4,1.9,0.7,3.1,1.1C79.5,34.8,74.6,39.5,68.7,43.3z M68.2,54.5c1.5-1.6,2.9-2.2,4.9-2.2
		c2.6,0,5.2-0.4,7.8-0.6c0.5,0,1.1,0,2,0c-0.5,0.7-0.7,1.2-1,1.6c-5.5,6-11.3,11.7-18.2,16.2c-4.6,3-9.1,6.1-14,8.6
		c-5.3,2.7-10.9,4.8-16.4,7c-1.8,0.8-3.8,1.1-5.7,1.6c-0.1-0.3-0.2-0.5-0.3-0.7c1.4-0.7,2.9-1.4,4.2-2.3c5-3.1,10.2-6.2,15-9.6
		C54.5,68.5,61.8,62,68.2,54.5z M33.5,108.4c4.5-4.9,8.3-10.3,10.8-16.5c0.4-0.9,1-1.2,2-1.2c4.1,0,3.1,0.2,1.8,2.9
		c-3.6,7.3-8.3,13.8-14.2,19.5c-1.7,1.7-3.6,1.3-5.6,1.3c-0.1-0.2-0.3-0.4-0.4-0.6C29.7,112,31.7,110.3,33.5,108.4z M50.4,106.8
		c3.9-4.6,7.2-9.5,9.4-15.1c0.1-0.4,0.7-0.7,1.1-0.8c0.6-0.1,1.2,0,1.8,0.2c1.4,0.4,1.6,0.7,0.9,2c-3.8,7.3-8.5,13.9-14.6,19.5
		c-1.3,1.2-3.2,1.4-4.6,0.7C46.4,111.1,48.5,108.9,50.4,106.8z M45.2,120.4c2,0.1,4.1,0.2,6.3,0.2c5.2,0.2,10.1,1.4,14.8,3.5
		c3.9,1.7,7.3,4.4,9.7,8.6c-2,0-3.6,0-5.2,0c-2.2,0.1-3.8-0.5-5.2-2.4c-2.7-3.8-6.7-5.8-11-7.1c-2.4-0.7-4.9-1.1-7.3-1.7
		c-0.7-0.1-1.5-0.5-2.2-0.7C45.1,120.8,45.2,120.5,45.2,120.4z M67.1,144.9c0.6-1.5,1-3.1,1.7-4.6c0.3-0.5,1-1,1.6-1
		c2.3,0,4.7,0.1,7,0.1c1.2,0,1.5,0.5,1.1,1.5c-3.6,10.3-9.4,18.9-18.9,24.6c-1.1,0.6-2.1,1.1-3.2,1.6c-2.6,1.2-5.2,0.4-7.8,0.3
		c-0.1-0.1-0.1-0.3-0.1-0.5c1.6-1,3.2-1.9,4.7-3.3C59.5,158.6,64,152.3,67.1,144.9z M62.1,182.9c1.8-2.4,3.6-4.8,5.3-7.2
		c0.6-0.8,1.3-1.1,2.3-1.1c2.3,0.1,4.7,0,7,0.1c1.5,0,1.7,0.4,1,1.7c-5.7,10.9-13.4,20.1-22.8,27.9c-3.5,2.9-7,4.9-11.7,4.5
		c-2.5-0.2-5.1,0.4-7.6,0.6c0,0-0.1-0.1-0.6-0.3c1.3-1,2.5-1.9,3.6-2.9C47.7,199.8,55.3,191.8,62.1,182.9z M36,214.2
		c0.4-0.8,3.4-1.8,4.1-1.2c0.2,0.3,0.3,1.1,0.1,1.4c-1.2,2.1-2.2,4.4-3.8,6.1c-1.7,1.9-3.9,3.4-6,4.8c-0.7,0.5-1.9,0.4-2.8,0.6
		c-0.1-0.1-0.1-0.3-0.2-0.5c0.7-0.5,1.3-1,2-1.7C32.2,221,34.4,217.8,36,214.2z M41.5,232.1c0.8-1.3,1.7-2.2,3.4-2.3
		c1.7-0.1,3.5-0.6,5.3-0.8c0.4,0,0.8,0.1,1.2,0.1c0,0.4,0,0.9-0.2,1.2c-2.4,4.8-5.2,9.5-8.7,13.6c-2.2,2.6-4.6,5-7,7.5
		c-0.4,0.3-0.9,0.6-1.4,0.6c-3,0.2-6,0.5-9,0.7c-0.3,0-0.7-0.1-1.4-0.2c2.3-2,4.4-3.8,6.3-5.6C34.5,242.5,38.3,237.5,41.5,232.1z
		 M41.4,248.8c6.6-5.6,12-12.2,16.1-19.8c0.5-1,1.2-1.5,2.5-1.6c1.7-0.1,3.5-0.5,5.3-0.7c0.6-0.1,1.3,0,2.2,0
		c-2.7,6.1-6.1,11.4-10.2,16.1c-2.1,2.3-4.4,4.5-6.6,6.8c-0.9,1-2,1.5-3.5,1.5c-2.5,0.1-5,0.4-7.5,0.6c-0.4,0.1-0.7,0-1.2-0.3
		C39.5,250.5,40.4,249.6,41.4,248.8z M57.8,246.2c5.2-4.7,9.7-10,13.6-15.8c0.6-1,1.4-2,1.9-3.1c0.7-1.4,1.7-2,3.1-2.2
		c2-0.3,3.9-0.6,5.9-0.8c1.1-0.1,1.4,0.3,0.9,1.3c-3.5,6.4-7.3,12.4-12.5,17.5c-2.3,2.2-4.6,4.3-6.9,6.4c-0.3,0.3-0.8,0.7-1.2,0.7
		c-3.2,0.2-6.3,0.3-9.9,0.5C54.6,249,56.2,247.6,57.8,246.2z M67.7,248.8c6.4-4.4,11.3-10.1,16.1-16c2.1-2.6,4-5.4,5.9-8.2
		c0.7-0.9,1.4-1.3,2.5-1.4c2.1-0.1,4.1-0.4,6.2-0.6c0.5,0,0.9,0,1.9,0c-1.3,2.5-2.3,4.7-3.7,6.7c-4.2,7.1-9.4,13.3-15.7,18.6
		c-0.4,0.3-1,0.8-1.5,0.9c-4,0.4-8,0.7-12.4,1.1C67.4,249.3,67.5,249,67.7,248.8z M95,238.8c4.2-4.7,7.9-9.7,10.9-15.2
		c0.7-1.2,1.4-1.7,2.8-1.8c2.1-0.1,4.1-0.4,6.1-0.6c0.4,0,1,0,1.1,0.2c0.1,0.4,0,0.9-0.2,1.3c-2.4,3.9-4.7,8-7.3,11.8
		c-3.2,4.8-7.2,9-11.7,12.7c-0.4,0.3-0.8,0.7-1.2,0.7c-3.5,0.3-6.9,0.5-10.4,0.7c-0.2,0-0.4-0.1-0.9-0.3
		C88.4,245.4,91.8,242.2,95,238.8z M111,239.4c-0.3,2.1-0.6,4.2-1,6.3c-0.1,0.5-0.6,1.3-1,1.3c-2.7,0.3-5.4,0.5-8.6,0.7
		c3.6-3.4,6.9-6.4,10.5-9.6C110.9,238.6,111.1,239,111,239.4z M93.5,254c0.4-0.5,0.9-1,1.5-1.1c2.6-0.5,5.1-0.9,7.7-1.3
		c0.2,0,0.7,0.1,0.7,0.2c0.1,0.4,0.1,0.9-0.1,1.2c-1,1.7-2,3.4-3,5.1c-4.4,7.2-9.7,13.7-16,19.4c-3,2.7-6.2,5.3-9.5,7.8
		c-0.8,0.6-2,0.7-3,0.8c-3.3,0.3-6.6,0.5-9.9,0.7c-0.3,0-0.6-0.1-0.9-0.1c0-0.2-0.1-0.3-0.1-0.4c0.7-0.5,1.5-1.1,2.1-1.4
		c10.4-7,19.8-15.3,27.1-25.6C91.3,257.5,92.3,255.7,93.5,254z M109.1,254.1c0.2,0.1,0.3,0.1,0.5,0.2c0.2,1.2,0.4,2.5,0.6,3.8
		c0.2,1.4,0.5,2.7,0.6,4.1c0,0.6,0,1.3-0.3,1.9c-2.7,6.1-6.8,11.2-11.9,15.5c-1.6,1.3-3.2,2.7-5,3.7c-1.1,0.7-2.6,0.9-3.9,1.1
		c-3.1,0.4-6.1,0.6-9.1,0.9c-0.4,0-0.9-0.1-1.4-0.1C91.1,276.5,101.6,266.8,109.1,254.1z M113,269.8c0.8,1.6,1.3,2.9,2,4.1
		c0.9,1.6,2,3,3,4.6c0.2,0.3,0.5,0.8,0.4,1.2c0,0.2-0.6,0.4-1,0.5c-5.2,0.9-10.4,1.7-15.6,2.5c-1,0.2-2,0.2-3,0.3
		c-0.1-0.1-0.2-0.2-0.3-0.3C103.9,279.2,108.8,275.2,113,269.8z M115.6,286.7c1.4-0.4,2.8-0.5,4.2-0.6c0.7-0.1,1.3,0.1,2,0.2
		c-0.2,0.6-0.3,1.2-0.6,1.8c-2.9,5.9-6.4,11.5-10.6,16.7c-0.9,1.2-2,2.4-3,3.6c-0.2,0.2-0.5,0.5-0.8,0.5c-3.8,0.6-7.6,1.1-11.4,1.7
		c-0.4,0.1-0.8,0-1.6-0.1c2-1.8,3.7-3.3,5.4-4.7c2.3-2.2,4.8-4.5,6.8-7c2.8-3.5,5.2-7.3,7.9-10.9C114.3,287.3,115,286.8,115.6,286.7
		z M113.2,315.6c0.2-0.5,0.8-1.1,1.3-1.3c1.7-0.5,3.3-0.8,5-1.2c1-0.3,1.4,0.1,1.1,1.1c-1.8,5.8-4,11.4-8.2,16
		c-0.3,0.3-0.6,0.6-0.9,0.7c-1.8,0.4-3.6,0.8-5.4,1.2c0-0.1-0.1-0.3-0.2-0.4c0.1-0.4,0.3-0.9,0.4-1.2
		C109.3,325.9,111.6,320.9,113.2,315.6z M114.6,307.5c-0.9,0.2-1.7,0.4-2.6,0.6c-0.1-0.1-0.1-0.3-0.2-0.4c0.2-0.3,0.5-0.6,0.7-0.8
		c4.4-4.3,8.4-9,11.7-14.2c1.1-1.8,2.1-3.5,3.2-5.3c0.5-0.8,0.9-1.3,2.1-0.8c1.5,0.5,3.1,0.7,4.6,1c0.3,0,0.7,0.1,1.3,0.3
		c-1.5,2.8-2.8,5.4-4.2,8c-1.8,2.9-3.7,5.7-5.7,8.5c-0.5,0.7-1.5,1.3-2.3,1.5C120.4,306.5,117.5,307,114.6,307.5z M121.7,324
		c2.2-3.5,4-7.2,4.8-11.3c0.1-0.5,0.6-1.2,1.1-1.3c2.4-0.7,4.9-1.3,7.3-1.9c0.7-0.2,1.3,0,1.2,1c-0.7,3.2-2.1,6.1-4.4,8.6
		c-2.6,2.7-5.7,4.5-9.1,5.9c-0.4,0.1-0.7,0-1.1,0C121.6,324.7,121.5,324.3,121.7,324z M150.5,88.5c-5.6,5.1-11.7,9.4-19.1,11.7
		c-3.5,1.1-7.2,1.7-10.9,1.3c-0.5,0-1-0.2-1.7-0.4c2.6-1,4.9-1.8,7.1-3c5.6-2.6,11.1-5.3,15.5-9.8c1.2-1.3,2.4-1.8,4.2-2
		c2.6-0.3,5.1-1.2,7.7-1.9c0.2,0,0.4,0,1.1,0C152.9,85.8,151.8,87.2,150.5,88.5z M151.8,66.2c-4.5,2.7-9.5,4.6-14.5,6.3
		c-2.4,0.9-4.7,0.6-7.1-0.2c2.1-0.8,4.3-1.6,6.3-2.4c6-2.4,11.4-5.7,16.2-9.9c2.2-1.9,4.2-1,6.4,1.3
		C156.6,62.9,154.3,64.8,151.8,66.2z M161.5,10c1.5,1.1,3,2,4.1,3.2c4.1,3.6,6.7,8.3,8.4,13.4c0.6,1.7,0.4,3.7,0.4,5.5
		c0,1.1-0.7,1.2-1.5,0.6c-1.8-1.3-3.6-2.6-5.3-4c-0.6-0.5-1.1-1.5-1.2-2.3c-0.7-4.8-2.3-9.3-4.2-13.8c-0.3-0.7-0.6-1.2-0.9-1.8
		C161.2,10.8,161.3,10.6,161.5,10z M162,35c1.1,0.8,2.1,1.7,3.2,2.6c0.8,0.8,0.7,1.3-0.3,1.8c-3.2,1.5-6.5,2.5-10,2.6
		c-3.6,0.2-7.3,0.2-10.9,0.1c-4.4-0.1-8.7-0.7-12.7-2.7c-0.7-0.3-1.5-0.6-2.3-0.9c0-0.2,0.1-0.3,0.1-0.5c0.6,0,1.3-0.1,2.1-0.1
		c6.7,0.3,13.3-0.5,19.8-1.8c2.5-0.5,5-1.3,7.5-2.1C160,33.5,161,34.2,162,35z M150.2,5c1.2,0.9,2.1,2.3,2.8,3.7
		c2,3.7,3.4,7.6,4.2,11.8c0,0.4-0.1,0.8-0.1,1.2c-0.4-0.2-0.8-0.2-1.1-0.4c-1.6-0.9-3.3-1.8-4.8-2.8c-0.5-0.4-1-1-1.2-1.6
		c-1.2-3.3-2.2-6.6-3.4-9.8c-0.4-1.3-1.2-2.4-1.9-3.6c-0.1-0.3-0.3-0.7-0.6-1.4C146.4,3.1,148.5,3.8,150.2,5z M143.8,24.8
		c1-0.4,1.9-0.3,2.8,0.2c1.8,1,3.6,2,5.3,3.1c0.2,0.1,0.5,0.5,0.5,0.7c-0.1,0.2-0.3,0.6-0.6,0.7c-3.4,1.2-6.9,2.4-10.4,3.3
		c-6.1,1.5-12.4,2-18.6,2.2c-1.9,0-3.8-0.9-5.7-1.5c-1.6-0.5-3.1-1.1-4.6-1.7c0-0.1,0-0.2,0-0.3c0.4,0,0.9-0.2,1.5-0.3
		c5.4-0.2,10.8-0.7,16-2.2C134.6,27.8,139.2,26.3,143.8,24.8z M126.9,16.5c0.6-0.3,1.5-0.5,2.1-0.2c2.7,1.1,5.3,2.5,7.9,3.8
		c0.2,0.1,0.4,0.2,0.6,0.3c-0.1,0.1-0.1,0.3-0.1,0.4c-1.1,0.5-2.2,1.2-3.3,1.7c-6.8,2.9-13.8,4.9-21,5.9c-1.5,0.2-3,0.3-4.5,0.7
		c-2.8,0.7-5.2-0.3-7.7-1.2c-0.8-0.3-1.6-0.5-2.4-0.8c0-0.2,0-0.3,0-0.5c1-0.3,2-0.6,3.3-0.6c7.9-1.2,15.2-4,22.2-7.8
		C125,17.6,125.9,16.8,126.9,16.5z M108.8,9c0.6-0.3,1.5-0.5,2.1-0.3c2.9,1,5.8,2.2,8.7,3.4c0.2,0,0.2,0.2,0.5,0.5
		c-1.7,1.1-3.4,2.4-5.3,3.4c-5.2,2.9-10.7,5.1-16.4,6.6c-1.9,0.5-3.8,0.9-5.7,1.5c-2.3,0.7-4.4-0.5-6.6-1c-1.8-0.4-3.6-1-5.4-1.5
		c-0.2,0-0.5-0.1-0.8-0.6c0.5-0.2,1-0.6,1.6-0.7c7.7-1.5,14.9-4.3,21.8-8.1C105.2,11.1,106.9,10,108.8,9z M70,13.5
		c4.8-2,9.3-4.4,13.6-7.3c1.9-1.3,3.7-2.7,5.6-4.1c0.8-0.7,1.6-0.8,2.7-0.4c2.8,1,5.7,1.9,8.5,2.8c0.4,0.1,0.9,0.4,0.9,0.7
		s-0.3,0.8-0.6,1c-4,3.3-8.5,5.9-13.3,7.8c-4.5,1.8-9.1,3.3-13.6,4.9c-0.5,0.2-1.2,0.2-1.8,0.1c-3-0.7-6-1.6-9-2.4
		c-0.1,0-0.2-0.2-0.4-0.4C65.2,15.3,67.6,14.5,70,13.5z M23.1,42.3c-1.7-0.5-3.5-0.5-5.3-0.8c-0.5,0-0.9-0.2-1.3-0.3
		c0-0.1,0-0.3,0-0.4c1.6-0.7,3.2-1.3,4.7-2.1c9.3-4.3,18.2-9.4,25.5-16.9c0.4-0.4,1.4-0.6,2-0.5c2,0.2,4,0.6,6,0.9
		c0.4,0.1,0.7,0.2,1.5,0.4c-2.4,2.4-4.4,4.7-6.6,6.7c-5.7,5.2-12.1,9.3-19.2,12.3C28,42.8,25.7,43,23.1,42.3z M39.4,44.3
		c-0.2,0-0.3-0.2-0.6-0.3c2.4-1.2,4.6-2.2,6.6-3.5c6.3-3.6,12.1-8.1,17.2-13.3c0.3-0.2,0.5-0.4,0.7-0.7c1.6-2.5,3.9-1.8,6.1-1.2
		c0.7,0.2,1.4,0.4,2.4,0.7c-0.9,1-1.6,1.9-2.4,2.8c-5,5.9-10.8,10.9-17.6,14.6C50.6,44,49.3,44.5,48,45c-0.3,0.1-0.7,0.1-1,0.1
		C44.5,44.8,41.9,44.6,39.4,44.3z M4,88.5c0.7-0.5,1.5-1,2.3-1.5c5.7-3.8,11.6-7.3,17-11.5C29,71,34.4,66,39.7,61
		c2.8-2.5,5.1-5.5,7.7-8.2c0.6-0.5,1.4-0.9,2.2-1c3.8-0.4,7.7-0.6,11.5-0.9c0.5-0.1,1,0,1.8,0.1C53.8,65.3,17.4,88.5,4,88.5z
		 M15.2,116.1c-1.1,0.9-2.3,0.7-3.5,0.8c-0.1-0.1-0.1-0.3-0.2-0.4c1.5-1.7,2.9-3.4,4.5-5c4.1-4.6,7.5-9.6,10-15.2
		c0.1-0.4,0.2-0.9,0.4-1.2c0.4-0.5,0.8-1.3,1.3-1.4c1.5-0.4,3.1-0.6,5.1-0.9c-0.7,1.6-1.2,2.8-1.9,4C26.7,104,21.6,110.6,15.2,116.1
		z M36.1,126.6c-5.3-1.3-10.6-2.3-16.1-2.5c-0.3,0-0.5-0.1-0.8-0.2c0-0.1,0-0.2,0-0.3c0.5-0.1,1.1-0.3,1.6-0.3
		c5.6,0,11.4-0.4,17,0.2c6.5,0.6,12.7,2.3,18,6.4c0.9,0.7,1.7,1.6,2.9,2.6c-0.8,0.2-1.1,0.4-1.4,0.4c-2.1,0.1-4.3,0.3-6.5,0.2
		c-0.9,0-2-0.3-2.7-0.9C44.5,129.4,40.4,127.8,36.1,126.6z M25.7,168c-1.4,0.6-3.1,0.6-4.7,0.8c-0.8,0.1-1.6,0-2.5,0
		c2-2.2,4-4.3,5.9-6.6c3.9-4.8,7.2-10.1,9.4-15.9c0.6-1.5,1.1-2.9,1.6-4.4c0.4-1.1,1-1.6,2.3-1.6c2,0,4.1-0.2,6.1-0.4
		c1.2-0.1,1.6,0.4,1.1,1.5c-1.3,3-2.6,6-4.1,8.9c-2.2,4.2-4.6,8.2-7.8,11.8C30.9,164.5,28.6,166.8,25.7,168z M42.1,166.8
		c-2.3,1.4-5,1-7.6,1.3c2.8-3,5.5-5.6,7.9-8.5c3.5-4.3,6.3-9.1,8.3-14.3c0.6-1.5,1.1-3.1,1.8-4.5c0.3-0.5,1-1.1,1.6-1.1
		c2.3-0.1,4.7-0.1,7-0.1c1.1,0,1.2,0.6,0.9,1.4c-2,5-4.4,9.8-7.6,14.2C51,159.8,47,163.8,42.1,166.8z M19,208.6c3.3-3,6.6-5.9,9.8-9
		c5.7-5.6,10.4-12,15-18.5c0.9-1.2,1.6-2.6,2.5-3.8c0.4-0.6,1-1.1,1.6-1.2c3.1-0.4,6.2-0.6,9.3-0.8c0.4,0,0.9,0.1,1.8,0.2
		c-1.5,2.3-2.7,4.5-4,6.4c-3,4.1-5.9,8.3-9.1,12.3c-4.3,5.4-9.4,10-14.8,14.3c-1.8,1.4-3.9,1.3-5.9,1.6c-2.2,0.4-4.6,0.4-6.9,0.5
		c-0.3,0-0.6-0.1-1.4-0.3C17.8,209.6,18.4,209.1,19,208.6z M4.9,227.2c1.9-2,4-3.8,5.7-5.7c1.2-1.4,2.1-3.1,3-4.8
		c0.6-1.1,1.3-1.6,2.5-1.5c0.8,0,1.7,0,2.5,0C18,220.6,9.7,228.6,4.9,227.2z M20.8,225.6c-1.4,0.9-3,1-4.6,1
		c2.2-2.3,4.4-4.4,6.3-6.6c0.9-1.1,1.5-2.4,2.1-3.7c0.8-1.6,2.8-2.8,4.5-2.3c0.3,0,0.6,1,0.4,1.3C27.4,219.4,24.8,223.1,20.8,225.6z
		 M10.3,253.5c-0.9,0-1.7,0-2.7,0c3-2.6,6-5,8.8-7.4c4-3.6,7.2-8,10.2-12.4c0.4-0.7,1.4-1.2,2.2-1.4c2.1-0.5,4.2-0.8,6.4-1.1
		c0.3,0,0.8,0,0.9,0.2c0.1,0.2,0.1,0.6,0,0.9c-2.4,4.8-5.1,9.4-8.7,13.4c-2.1,2.3-4.3,4.4-6.5,6.6c-0.4,0.3-0.9,0.6-1.4,0.6
		C16.4,253.1,13.4,253.3,10.3,253.5z M9.5,281.8c-1.6-0.2-3.2-0.7-4.8-1.1c-0.3-0.1-0.6-0.3-0.9-0.5c3-2.2,6-4.1,8.7-6.4
		c3.3-2.7,6.3-5.8,9.5-8.7c0.6-0.5,1.3-1,2.1-1.2c2.3-0.5,4.7-0.8,7.1-1.2c0.6-0.1,1.1,0,2-0.1c-0.3,0.6-0.4,1.1-0.7,1.4
		c-5.6,6.9-12.1,12.8-19.6,17.5C12,282,10.6,282,9.5,281.8z M23.9,284c-0.3,0.2-0.6,0.4-0.9,0.3c-2.4-0.4-4.8-0.9-7.2-1.4
		c-0.1-0.1-0.2-0.2-0.5-0.4c2.1-1.4,4-2.6,5.7-3.8c6.2-3.9,12-8.4,16.7-14c2.3-2.7,4.7-4.2,8.1-4.3c1.3,0,2.5-0.4,3.8-0.6
		c0,0.2,0.1,0.3,0.2,0.5c-0.6,1-1.3,1.9-2,2.8c-5,6-10.6,11.4-16.9,16.1C28.6,280.9,26.2,282.4,23.9,284z M40.6,285.7
		c-0.5,0.3-1.2,0.7-1.8,0.6c-3.8-0.4-7.6-0.9-11.4-1.4c-0.1-0.1-0.1-0.3-0.2-0.4c1.2-0.8,2.3-1.5,3.5-2.2c3.6-2.4,7.3-4.6,10.7-7.2
		c6-4.5,11.6-9.6,16.1-15.7c0.4-0.5,1-0.9,1.5-1c2.9-0.6,5.9-1,8.8-1.5c0.3-0.1,0.6,0,1.3,0.1c-0.8,1.3-1.4,2.4-2.1,3.4
		C59.7,270.4,50.9,278.9,40.6,285.7z M44.3,287c-0.4,0-0.8-0.1-1.5-0.2c4.2-2.8,8.1-5.3,11.8-8c7.2-5.2,13.6-11.2,19.1-18.1
		c1-1.3,1.8-2.7,2.9-4c0.5-0.6,1.4-1.2,2.2-1.4c1.9-0.5,3.9-0.7,5.8-0.9c0.4-0.1,0.9,0.1,1.1,0.3c0.1,0.1,0,0.7-0.2,1
		c-5.6,9.9-13,18.2-21.8,25.3c-2.3,1.9-4.8,3.7-7.2,5.5c-0.4,0.3-0.9,0.5-1.4,0.5C51.5,287,47.9,287,44.3,287z M40,316.4
		c-0.3,0.2-0.9,0.4-1.4,0.4c-4.6,0.1-9.2,0.1-13.8,0.1c-0.3,0-0.6-0.1-1.4-0.3c2-1.1,3.6-1.9,5.2-2.8c5.5-2.9,10.6-6.4,15.2-10.6
		c0.6-0.5,1.2-1.1,1.7-1.7c1.1-1.3,2.7-1.7,4.2-2.1c2.2-0.6,4.4-1.2,6.6-1.8c0.4-0.1,0.7,0,1.5,0c-1.1,1.5-2,2.8-3,4
		c-3.1,4.4-6.9,8.2-10.9,11.8C42.7,314.5,41.3,315.4,40,316.4z M59.2,313c-1.2,1.5-2.5,2.6-4.7,2.7c-3.2,0.1-6.3,0.5-9.5,0.7
		c-0.4,0-0.8-0.1-1.2-0.2c0-0.2-0.1-0.3-0.1-0.4c0.8-0.5,1.6-1,2.3-1.5c6-4.3,11.6-9.1,16.5-14.7c0.7-0.8,1.4-1.7,2-2.6
		c0.8-1.2,1.7-2.2,3.2-2.5c2.1-0.4,4.1-1.1,6.1-1.7c0.1,0.1,0.2,0.2,0.3,0.3c-1.4,2.3-2.6,4.7-4.2,6.8
		C66.5,304.5,62.8,308.8,59.2,313z M74.1,312.3c-0.7,0.8-2,1.2-3.1,1.4c-2.6,0.5-5.3,0.7-8,1c-0.4,0-0.9,0-1.3,0
		c0-0.2-0.1-0.3-0.1-0.4c1.4-1.3,2.8-2.6,4.3-3.9c5.5-4.6,10.2-10,14.2-16c0.8-1.2,1.4-2.7,2.4-3.7c0.7-0.7,2-1,3.1-1.3
		c1.4-0.3,2.8-0.5,4.2-0.6c0.4-0.1,0.8,0.1,1.2,0.2c-0.1,0.4-0.1,0.9-0.3,1.2c-2.5,3.9-4.7,7.9-7.4,11.6
		C80.5,305.5,77.3,309,74.1,312.3z M90.7,310.2c-1.3,1.5-3.1,1.4-4.7,1.7c-2.4,0.4-4.9,0.6-7.3,0.9c-0.4,0.1-0.8,0-1.5-0.1
		c2.6-2.4,5.1-4.5,7.4-6.7c5.1-5,9.7-10.4,13.3-16.6c0.3-0.6,1-1.1,1.6-1.2c2-0.3,4.1-0.4,6.2-0.6c1-0.1,1.5,0.2,0.8,1.3
		c-2.4,3.8-4.4,7.8-7.1,11.4C96.8,303.8,93.6,307,90.7,310.2z M90.8,335c-0.2,0-0.5-0.1-0.9-0.2c0.7-1,1.4-2,2-2.7
		c3-4.2,5.3-8.8,6.8-13.7c0.1-0.5,0.8-1.1,1.3-1.2c1.9-0.5,3.7-0.8,5.6-1.1c1.4-0.2,1.7,0,1.2,1.4c-0.7,2-1.6,4-2.5,6
		c-1.6,3.6-3.8,6.9-6.7,9.6c-0.6,0.5-1.4,0.9-2.2,1.1C93.9,334.5,92.3,334.8,90.8,335z M86.6,375.3c-0.8,0.8-1.7,1.3-3,1.2
		c-2-0.1-3.9,0-5.9,0c0-0.2-0.1-0.3-0.1-0.5c0.3-0.3,0.6-0.6,0.9-0.8c6.1-4.3,11.1-9.6,15.2-15.8c1.7-2.7,3.3-5.4,4.6-8.3
		c0.8-1.8,2.1-2.5,3.6-3.1c2.1-0.8,4.3-1.6,6.4-2.4c0.3-0.1,0.5-0.1,1.2-0.2c-0.6,1.2-0.9,2-1.4,3c-3.9,7.2-8.6,13.8-14.3,19.7
		C91.5,370.5,89,372.9,86.6,375.3z M101.9,373c-1.5,2-3.5,2.7-5.9,2.8c-1.8,0.1-3.6,0.3-5.4,0.5c-0.3,0-0.7,0-1.4,0
		c0.4-0.5,0.7-0.9,1-1.2c4.6-3.5,8.6-7.4,12-11.9c3.1-4.3,6.1-8.6,9.1-13c1.1-1.7,1.9-3.7,2.9-5.4c0.5-0.8,1.2-1.6,2-2
		c2.1-1.1,4.4-2,6.7-2.9c0.4-0.2,0.9-0.2,1.3-0.3c0.2,0.1,0.3,0.2,0.4,0.3c-0.6,1.2-1.1,2.4-1.6,3.8c-5,10.6-12,19.9-20.2,28.4
		C102.5,372.3,102.1,372.7,101.9,373z M111.6,372.8c-1.6,0.2-3.2,0.8-4.9,1.2c-0.8,0.2-1.6,0.2-2.7,0.3c0.2-0.5,0.2-0.9,0.4-1
		c6.8-5.7,12.3-12.5,17-19.9c3-4.7,5.7-9.6,7.6-14.9c0.6-1.7,2.3-1.9,3.6-2.5c1.9-1,3.9-1.6,5.9-2.4c0.2-0.1,0.4-0.1,0.9-0.1
		c-0.4,1.1-0.6,2.1-1.1,3c-2.7,6.1-5.8,12-9.6,17.5c-2.7,3.9-5.7,7.6-8.6,11.3c-1.3,1.7-2.7,3.3-4.2,4.8
		C114.7,371.2,113.6,372.5,111.6,372.8z M99.3,394.9c-0.1,0.1-0.3,0.1-0.7,0.1c0.2-0.4,0.2-0.7,0.4-0.8c1.7-1.3,3.2-3,5.1-4
		c1.8-1,3.9-1.6,5.9-2c3.7-0.8,7.4-1.5,11.2-2c1.6-0.2,3.2,0.1,4.8,0.1c0,0.3,0.1,0.5,0.1,0.7c-0.5,0.5-1,1-1.6,1.3
		c-1.2,0.9-2.3,1.9-3.6,2.6c-0.7,0.4-1.7,0.7-2.6,0.7C111.7,391.3,105.4,392.3,99.3,394.9z M118.8,424.8c-1.9,1-3.9,1.8-5.9,2.6
		c-0.1,0-0.1-0.1-0.2-0.2c0.8-1.5,1.7-3,2.5-4.4c3.1-5.5,5.4-11.3,6.4-17.6c0.4-2.4,0.5-4.8,1-7.2c0.2-0.9,0.7-1.9,1.4-2.5
		c1.7-1.4,3.7-2.7,5.6-4c0.2-0.2,0.6-0.3,0.6-0.2c0.1,0.2,0.3,0.5,0.3,0.8c-0.3,2.9-0.5,5.8-1.1,8.7c-0.6,2.9-1.3,5.8-2.3,8.6
		s-2.2,5.6-3.5,8.3c-0.9,1.9-2,3.7-3.1,5.5C120.1,423.8,119.5,424.5,118.8,424.8z M123.6,432.1c0,0-0.1,0-0.5-0.1
		c2-2.1,3.8-4.2,6.4-5.2c3.1-0.9,6.1-1.6,9.2-2.3c1.2-0.3,2.5-0.2,3.8-0.1c0.9,0,1.2,0.6,0.5,1.3c-1.1,1.2-2.4,2.3-3.6,3.4
		c-0.2,0.3-0.7,0.4-1,0.4C133.3,429.4,128.4,430.2,123.6,432.1z M116,468.7c-3.3-0.1-6.6-0.7-9-3.4c-0.7-0.7-0.8-1.4,0.1-2.1
		c4.2-3.6,8.4-7.2,12.6-10.8c0.2-0.2,0.4-0.3,0.6-0.4c0.2,0,0.4,0.1,0.6,0.1c-0.2,2.3,0,4.7-0.6,6.9c-0.7,3-1.8,5.8-2.9,8.6
		C117.2,468.1,116.5,468.7,116,468.7z M126.3,467c-0.3,0.5-0.8,1.1-1.3,1.2c-1.5,0.3-3,0.4-4.5,0.5c-0.7,0.1-0.9-0.4-0.5-1
		c3.5-5.6,4.4-11.7,4.6-18.1c0-0.8,0.4-1.7,0.9-2.2c1.5-1.4,3-2.7,4.7-4.1c0.1,0.6,0.3,0.8,0.3,1c0.2,6.3-0.6,12.5-2.5,18.5
		C127.5,464.2,127,465.7,126.3,467z M134.4,465.8c-1.5,0.7-3.2,1.1-4.9,1.6c-0.2,0.1-0.6,0-0.6-0.1c0-0.3,0-0.7,0.1-1
		c0.8-1.8,1.8-3.5,2.4-5.3c0.9-2.8,1.7-5.6,2.1-8.5c0.5-3.7,0.5-7.5,0.7-11.3c0-0.6,0.1-1.3,0.5-1.7c1.9-1.8,3.8-3.4,5.7-5
		c0.1-0.1,0.3-0.1,0.6-0.1c0.1,0.6,0.2,1.1,0.1,1.7c0.1,5.4-0.1,10.8-1.2,16.1c-0.8,3.9-2.1,7.7-3.4,11.5
		C136.2,464.5,135.3,465.3,134.4,465.8z M145.7,459.7c-0.5,1.9-2.2,2.3-3.7,3c-0.7,0.4-1.5,0.6-2.5,1c1-2.9,2-5.4,2.7-8
		c0.8-3.1,1.7-6.2,2-9.4c0.6-5,0.7-9.9,1-14.9c0-0.6,0.3-1.4,0.7-1.8c1.9-1.7,3.8-3.4,5.8-5c0.1-0.1,0.3,0,0.6-0.1c0,1,0.1,2,0,3
		c-0.7,6.1-1.2,12.3-2.4,18.3C149,450.5,147.1,455.1,145.7,459.7z M158.2,502.8c-0.1,0.4-0.3,1.1-0.6,1.2c-2,0.7-4.1,1.2-6.1,1.8
		c-0.1-0.1-0.1-0.3-0.2-0.4c0.4-1.3,0.9-2.5,1.3-3.7c1.6-4.6,2.4-9.3,1.7-14.2c0-0.4,0-1,0.3-1.3c1.3-1.4,2.7-2.7,4.3-4.2
		c0.2,1.1,0.5,2.1,0.7,3C160.2,491,159.6,497,158.2,502.8z M167.2,498.6c-0.4,1.8-1.2,2.8-2.9,3.2c-0.9,0.2-1.7,0.7-2.6,1
		c-0.3,0.1-0.6,0.1-0.9,0.2c-0.1-0.3-0.2-0.7-0.1-1c0.4-1.2,0.9-2.4,1.2-3.6c1.7-6,2.5-12.1,1.7-18.3c-0.4-2.4,0.5-3.8,2-5.2
		c0.9-0.8,1.7-1.7,2.5-2.6c0.2,0.1,0.4,0.1,0.6,0.2c0.2,1.2,0.4,2.4,0.4,3.4C169.5,483.6,169,491.1,167.2,498.6z M170.1,460.4
		c-1,1.6-2.2,2.7-4.4,2.7c-5.7,0-11.2,1.3-16.1,4.4c-0.4,0.2-0.7,0.4-1.1,0.6c-0.1-0.1-0.2-0.2-0.3-0.3c0.8-1.7,1.9-3.4,3.6-4.3
		c4.3-2.4,9-3.9,13.9-4.6c1.3-0.1,2.8,0.3,4.1,0.5C169.9,459.4,170.2,460.2,170.1,460.4z M177.7,491c-0.2,1.5-0.5,3.1-0.8,4.6
		c-0.1,0.4-0.4,1-0.8,1.2c-1.5,0.9-3.1,1.7-4.7,2.4c-0.3,0.1-0.8,0.2-1,0c-0.2-0.1-0.2-0.7-0.1-1c0.6-2.6,1.3-5.1,1.9-7.7
		c1.2-5.2,1.6-10.4,1.4-15.7c-0.1-1.8-0.4-3.7-0.5-5.6c0-0.7,0.2-1.5,0.6-2c1.1-1.3,2.3-2.4,3.8-3.8c0.3,2.1,0.7,3.8,0.9,5.5
		C178.9,476.2,178.8,483.7,177.7,491z M177.4,441.8c-0.3,0.6-0.7,1.1-1.2,1.4c-1.7,1.1-3.4,2.2-5.1,3.3c-0.3,0.2-0.7,0.3-1.2,0.5
		c1.5-3.7,2.9-7.1,3.9-10.5c2.2-6.2,3.9-12.4,4.6-18.9c0.7-5.5,1-11.1,1.5-16.6c0-0.4,0-1,0.3-1.3c1.9-1.8,3.8-3.5,5.7-5.3
		c0.1,0.1,0.3,0.1,0.4,0.2c0.1,0.4,0.2,0.9,0.2,1.4c-0.4,8.5-0.8,16.9-2.5,25.2c-1.1,5.4-2.4,10.8-4.6,15.9
		C178.7,438.8,178.1,440.3,177.4,441.8z M188.2,475.2c-0.2,5.2-1,10.3-2.4,15.3c-0.1,0.3-0.3,0.6-0.5,0.8c-1.8,1.3-3.7,2.5-5.7,3.9
		c0.5-3.2,1.1-6,1.5-8.8c1.2-7.7,2.1-15.4,0.7-23.1c-0.7-3.8,1.3-5.6,3.5-7.7c0.5-0.5,1.1-0.7,1.7-1.1c0.2,0.7,0.4,1.3,0.5,2
		C188.5,462.7,188.4,468.9,188.2,475.2z M188.4,435.2c-2.1,1.6-4.3,3-6.5,4.4c-0.1,0.1-0.3,0.1-0.8,0.2c1.2-2.7,2.3-5.2,3.3-7.9
		c1.1-3.2,2.2-6.4,3-9.6c1.1-4.4,2.2-8.8,2.7-13.2c0.6-5.4,0.7-10.8,0.8-16.2c0-2.4,1.3-5.1,3.6-5.9c0.3-0.1,1,0.5,1,0.7
		c0.2,5.2,0.4,10.3,0.3,15.4c0,3.9-0.4,7.7-1,11.5c-0.7,4.4-1.9,8.8-3,13.2c-0.5,1.8-1.2,3.5-1.9,5.2
		C189.6,433.8,189.1,434.8,188.4,435.2z M195.6,483.5c-0.1,0.4-0.3,0.9-0.6,1.1c-1.8,1.4-3.7,2.7-5.6,4c-0.1-0.1-0.3-0.1-0.4-0.2
		c0-0.4,0-0.8,0.2-1.4c2.8-10.2,3.8-20.5,2.9-31c-0.1-1.5-0.4-3.1-0.7-4.6c-0.3-1.1,0-1.9,0.8-2.7c1.3-1.3,2.5-2.7,3.7-4
		c0.2,0.1,0.3,0.2,0.5,0.3c0.3,1,0.6,2.1,0.7,3.2c0.3,5.3,0.7,10.6,0.8,16C197.9,470.7,197.1,477.2,195.6,483.5z M195.2,378.4
		c-0.2-0.1-0.3-0.2-0.5-0.3c0-0.4,0-0.8,0.2-1.2c1.2-3.7,2.1-7.4,2.3-11.3c0-1,0.4-1.5,1.4-1.5c0.9-0.1,1.9-0.3,2.8-0.4
		c1.1-0.2,1.3,0.3,1.2,1.3c-0.2,2.3-0.3,4.5-0.5,6.8c-0.1,0.4,0,1.1-0.3,1.3C199.6,374.9,197.4,376.7,195.2,378.4z M207.6,459.6
		c-0.3,5.3-1.3,10.6-2,15.9c-0.1,0.3-0.1,0.6-0.3,0.8c-1.9,1.8-3.9,3.6-5.9,5.4c-0.1,0-0.3-0.1-0.4-0.2c0-0.3-0.1-0.6-0.1-0.9
		c0.7-3.3,1.5-6.6,2.1-10c1.2-7.1,1.3-14.2,0.8-21.3c-0.2-2.5-0.8-4.9-1.1-7.4c-0.1-0.6,0-1.3,0.3-1.7c0.9-1.1,2-2.1,3-3.1
		c0.7-0.6,1.2-0.5,1.4,0.5C207,444.9,208.1,452.2,207.6,459.6z M213.8,399.7c0.8-6,1.3-12,1.3-18.2c0.3,0.3,0.8,0.7,0.9,1.1
		c2.2,6.7,2.4,13.5,2.1,20.4c0,1.1-0.2,2.3-0.3,3.5c-0.2,1.8-0.8,3.3-2.2,4.6c-2.1,1.9-3.8,4-5.7,6.1c-0.2-0.1-0.4-0.1-0.6-0.2
		C211.4,411.3,213,405.5,213.8,399.7z M213.5,467.7c-0.8,1-1.8,1.9-2.7,2.9c-0.1-0.1-0.3-0.1-0.4-0.2c-0.1-0.3-0.1-0.7,0-0.9
		c1.6-8.6,2.1-17.2,0.9-25.8c-0.5-3.5-1.2-7.1-1.7-10.6c0-0.4,0.1-0.9,0.3-1.2c1.5-1.7,3.1-3.3,4.7-5c0.1,0,0.3,0.1,0.5,0.1
		c0.3,0.9,0.6,1.8,0.8,2.7c1.1,6.3,1.8,12.7,1.5,19.1c-0.2,5.2-0.8,10.3-1.5,15.5C215.7,465.5,214.4,466.5,213.5,467.7z
		 M224.7,496.7c-0.1,1.7-0.4,3.4-0.7,5.1c-0.1,0.5-0.4,1-0.8,1.4c-1.6,1.6-3.1,3.1-4.7,4.6c-0.2,0.2-0.6,0.3-0.9,0.4
		c-0.1-0.3-0.2-0.7-0.2-1c1.2-7.9,1.9-15.8,1.9-23.8c0.1-3.8,0-7.6,0-11.4c-0.1-1.1,0.2-2,1-2.8c1.4-1.4,2.7-2.8,4-4.2
		c0.2,0.1,0.3,0.1,0.5,0.2c0.1,0.7,0.1,1.4,0.2,2.1C226.4,477.1,225.4,486.9,224.7,496.7z M235.8,478.1c-0.4,4.2-0.8,8.4-1.1,12.7
		c-0.1,1.2-0.5,2.2-1.4,3c-1.9,1.7-3.7,3.5-5.9,5.1c0-0.4-0.1-0.9,0-1.4c1.7-7,2.2-14.2,2.5-21.4c0.2-5.4,0.3-10.8,0.5-16.2
		c0-0.7,0.3-1.5,0.8-2c1.1-1.3,2.4-2.5,3.8-3.9c0.3,0.6,0.5,0.8,0.5,1C236.1,462.7,236.7,470.4,235.8,478.1z M232,448.6
		c-0.1,0.1-0.3,0-0.7,0.1c0-0.7-0.1-1.4-0.1-2.1c1.4-8,1-16,0.8-24c-0.1-1.2-0.3-2.3-0.5-3.5c-0.2-0.9,0.2-1.3,1.1-0.9
		c2,1,4.1,2,6.1,3c0.4,0.1,0.6,0.7,0.7,1.1c0.7,5.6,1.2,11.3,0.7,16.9c0,0.9-0.5,2-1.1,2.6C236.8,444.2,234.4,446.4,232,448.6z
		 M245.6,473.8c-0.4,3.1-1.3,6.1-1.8,9.2c-0.3,2-2.1,2.7-3.1,4c-0.7,0.8-1.6,1.4-2.4,2.1c-0.1-0.1-0.3-0.1-0.4-0.2
		c0-0.6,0-1.2,0-1.6c0.8-5.7,1.7-11.3,2.2-16.9c0.5-5.4,0.5-10.9,0.7-16.3c0.1-1.2,0-2.5-0.1-3.7c-0.1-1.5,0.3-2.7,1.4-3.7
		c0.9-0.8,1.7-1.8,2.8-3c0.4,2.1,0.8,3.8,1,5.5C246.9,457.3,246.9,465.5,245.6,473.8z"/>
	<path class="st1" d="M507.5,347.7c-1.7-0.8-3.1-2-4.2-4.1c1.2,0.1,2.1,0.1,3,0.3c1.5,0.3,3,0.8,4.5,1.2c0.2,0,0.5,0,0.8,0
		c0-1.6,0-3.2,0-4.8c-2.3-0.3-4.7-0.7-7-0.9c-1.2-0.1-1.5-0.7-1.2-1.7c0-0.1,0.1-0.2,0.1-0.3c1.4-3.9,1.4-3.9,5.6-3.1
		c0.8,0.1,1.7,0.1,2.5,0.2c0-1.3,0-2.7,0-4c-1-0.2-2-0.5-3-0.6c-0.9-0.1-1.3-0.4-0.6-1.2c1-1.1,1.6-2.9,3.6-2.5c0-6.8,0-13.7,0-20.5
		c-6.6,3.6-14,3.5-21.1,5c4.2,1.2,8.6,1.7,13.3,2.3c-0.2,0.5-0.6,0.8-1.1,1c-1.8,0.6-3.6,1.4-5.5,1.8c-3.8,0.8-7.7,0.6-11.5,0.1
		c-4.1-0.6-7.9-1.8-11.3-4c-6.5-4.2-13.7-6.7-21.4-7.4c-2-0.2-4,0.2-5.9,0.7c-0.8,0.2-1.8,1.2-2,2c-0.3,1.2-0.9,1.3-1.8,1.2
		c-2.7-0.4-5.4-0.9-8.1-1.3c-0.3,0-0.7,0.1-1,0.2c0.1,0.3,0.2,0.8,0.5,1c3.8,2.6,8,4.3,12.7,4.2c0.3,0,0.7,0.3,1,0.5
		c-0.3,0.3-0.5,0.9-0.8,1c-1.2,0.4-2.5,0.8-3.7,0.7c-2.3-0.1-4.6-0.7-6.9-1c-0.5-0.1-1.1-0.1-1.6-0.2c-0.1,0.2-0.1,0.3-0.2,0.5
		c0.9,0.8,1.8,1.6,2.7,2.3c3.5,2.8,7.3,4.4,11.8,4.1c2-0.1,4-0.5,5.9-0.9c5.5-1.1,10,0.6,13.5,4.7c2,2.5,3.6,5.3,5.5,7.9
		c0.8,0.9,1.7,2,2.7,2.4c2.4,0.8,4.9,1.3,7.3,1.7c1.9,0.3,3.3,1.1,4.3,3c-0.5,0.3-1,0.5-1.4,0.6c-4.8,1.2-9.6,1.4-14-1.4
		c-0.3-0.2-0.7-0.2-1.1-0.3c0,0.4-0.1,0.9,0.1,1.2c2,4.1,5.5,6.1,10,5.8c3-0.2,5.9-1,8.8-1.6c1.7-0.3,2.1-0.2,3,1.4
		c-1.8,1-3.6,2-5.3,3c-1.1,0.7-2.2,1.7-3.4,2.2c-4.4,1.7-8.8,1.8-13.1-0.4c-2.6-1.3-5.1-2.9-7.8-4c-5.2-2.1-10.7-2.1-16.1-0.9
		c-4.5,1-8.3,3.5-12.2,5.8c-4.6,2.7-9.4,4.6-14.8,4.5c-3.9-0.1-7.7-0.6-11.6-0.9c-0.6,0-1.4,0.2-1.9,0.6c-2.3,2-4.4,4-6.6,6.1
		c-0.2,0.3-0.4,0.7-0.4,1c0,0.2,0.5,0.5,0.8,0.5c5,0.8,9.9,1.7,14.9,2.3c8.5,1.1,16.7-0.3,24.9-2.4c4.9-1.2,9.8-0.9,14.8-0.3
		c4.3,0.6,8.1,2.6,12.1,4.3c3.5,1.5,7.2,2.3,11,1.6c5.5-1,10.9-2.1,16.3-3.3c4.4-1,8.3,0.5,12.3,1.9c0.2,0.1,0.5,0.5,0.5,0.7
		s-0.3,0.5-0.6,0.6c-1.5,0.5-3,0.9-4.5,1.2c-4.7,0.9-9.3,1.7-14,2.6c-0.3,0-0.6,0.3-0.9,0.4c0.1,0.2,0.1,0.4,0.1,0.6
		c0.9,0,1.9,0,2.8,0c5.7-0.2,11.5-0.5,17.3-0.7c1.5-0.1,2.2,0.8,1.6,2c-0.5,1-1.6,2.3-2.5,2.4c-5.1,0.7-10.2,1.2-15.4,1.5
		c-4.6,0.3-9.3,0.1-13.9,0.2c-0.7,0-1.3,0.1-1.9,0.2c0,0.1,0,0.3,0,0.4c1.1,0.3,2.1,0.8,3.1,0.9c4.9,0.4,9.7,0.9,14.5,1.1
		c4,0.1,8.1-0.2,12.1-0.2c0.5,0,1.1,0.3,1.6,0.5c-0.3,0.5-0.4,1.2-0.8,1.5c-1.2,0.8-2.5,1.8-3.9,1.9c-5.2,0.5-10.3,0.9-15.5,1.1
		c-10,0.3-19.9-0.6-29.7-1.8c-2.7-0.3-5.4-0.9-8.1-1.3c-0.8-0.1-1.6-0.1-2.4-0.1c-0.1,0.2-0.1,0.3-0.1,0.5c1.5,0.6,3,1.3,4.6,1.7
		c7.5,2.1,15.1,3.4,22.8,3.9c7.5,0.5,15.1,0.2,22.6,0.3c0.5,0,1,0.1,1.5,0.2c0,0.1,0,0.3,0,0.4c-1,0.4-1.9,0.8-2.9,1
		c-5.9,1.3-11.9,2.1-17.9,2.2c-3.7,0.1-7.5-0.2-11.2-0.5c-3.3-0.3-6.6-0.6-9.9-1c-5.2-0.7-10.4-1.4-15.6-2.2c-2.8-0.4-5.5-1-8.3-1.4
		c-0.9-0.1-1.8-0.1-2.7-0.2c0,0.2-0.1,0.4-0.1,0.6c9.1,4,18.7,6.6,28.6,9.6c-0.8,0.3-1.1,0.5-1.5,0.6c-2.7,0.4-5.3,1.2-8,1.2
		c-7.1,0.1-14.1-0.2-21.2-0.3c-0.4,0-0.9,0.2-1.3,0.3c0.3,0.5,0.5,0.7,0.8,0.8c2.4,0.5,4.7,1.1,7.1,1.5c5.8,0.9,11.7,1.9,17.6,2.4
		c7,0.6,14,0.5,21,0.9c6.3,0.3,12.6,0.8,18.9,1.3s12.7,1,19,1.5c0-19.2,0-38.4,0.1-57.8C510.2,349,508.9,348.3,507.5,347.7z
		 M477.5,318.1c3.5,0.7,6.8,1.7,10.2,2c3.5,0.3,7-0.2,10.4-0.3C493.8,324.1,484.5,325.6,477.5,318.1z"/>
	<path class="st1" d="M326.8,482.2c7.6,1.3,15.2,2.4,22.9,3.1c8.5,0.8,17.1,1.2,25.6,1.5c11.4,0.5,22.9,0.8,34.3,0.9
		c14.3,0.2,28.5-0.4,42.8,0.1c9.3,0.2,18.6,0,27.9-0.4c7.2-0.3,14.4-1.1,21.6-1.7c3.2-0.3,6.4-0.7,9.6-1.1c0-1.3,0-2.6-0.1-4.1
		c-0.7,0-1.3-0.1-2-0.1c-10.5,0.3-21.1,0.4-31.7,0.8c-8.2,0.3-16.5,0.8-24.7,1.3c-6.2,0.3-12.3,1-18.5,1c-13.1,0-26.2-0.3-39.3-0.5
		c-4-0.1-8.1-0.1-12.1-0.4c-9.3-0.6-18.6-1.3-27.9-2.1c-5.6-0.5-11.2-1.2-16.8-1.8c-6.9-0.7-13.9-1.5-20.8-2.2
		c-5.4-0.6-10.9-1-16.3-1.5c-0.7-0.1-1.4,0-2.1,0c-0.1,0.1-0.1,0.3-0.1,0.4c0.6,0.3,1.2,0.6,1.9,0.8c3.3,0.9,6.5,1.8,9.8,2.5
		C316.1,480,321.4,481.3,326.8,482.2z"/>
	<path class="st1" d="M309,460.6c3.5,0.9,7.1,1.9,10.7,2.7c3.2,0.7,6.4,1.3,9.6,1.9c3.8,0.7,7.6,1.7,11.4,2.1
		c9.3,0.9,18.6,1.8,27.9,2.4c10.4,0.7,20.9,1.2,31.3,1.4c16.2,0.2,32.5,0.3,48.7,0c12.7-0.2,25.4-1.3,38.1-1.8
		c8.3-0.3,16.5-0.2,24.8-0.3c0-1.8,0-3.6,0-5.4c-0.5,0-0.9-0.1-1.3-0.1c-6.9,0.8-13.7,1.5-20.6,2.3c-2.8,0.3-5.5,1-8.3,1.1
		c-13.5,0.6-26.9,1-40.3,1.3c-8,0.2-16,0.3-24-0.7c-7.1-0.9-14.3-1.6-21.5-2.2c-8.1-0.6-16.2-1.1-24.3-1.6c-7.1-0.5-14.2-1-21.3-1.5
		c-5.1-0.4-10.3-0.8-15.4-1.3c-6.4-0.7-12.8-1.5-19.2-2.2c-3.6-0.4-7.1-0.8-10.7-1.3c-2.6-0.4-5.3-0.8-7.9-1.1c-0.7-0.1-1.5,0-2.2,0
		c0,0.1,0,0.3,0,0.4c1.1,0.3,2.1,0.7,3.2,1C301.5,458.7,305.2,459.6,309,460.6z"/>
	<path class="st1" d="M444.6,14c6,4.6,12.7,7.6,20.2,8.3c10.1,0.9,20,0,29.2-4.7c7.4-3.7,13.5-8.8,17.5-16.2c0-0.3,0-0.7,0.1-1.3
		c-2.7,0-5.3,0-8,0c-7.7,5.2-16.2,7.7-25.5,6.7c-5.3-0.6-10.2-2.5-14.9-5.1c-0.9-0.5-1.9-1.1-2.8-1.6c-1.5,0-2.9,0-4.3,0
		c2.5,3.1,5.6,5.5,9,7.5c1.7,1.1,3.5,2,5.3,3.2c-0.5,0-1.1,0.2-1.5,0.1c-3.1-1-6.3-2-9.4-3.3c-4.2-1.8-7.9-4.5-11.4-7.4
		c-1.2,0-2.5,0-3.7,0c3.1,4.8,6.6,9.3,11.3,13.2c-0.7,0.1-1,0.2-1.2,0.1c-7.2-3.3-13.8-7.5-19.3-13.2c-1,0-2.1,0-3.1,0
		c0.1,0.3,0.3,0.8,0.5,1.1C436.1,6,439.9,10.3,444.6,14z"/>
	<path class="st1" d="M326.1,473.3c7.1,1.1,14.3,2.4,21.5,3c9.2,0.8,18.4,1.2,27.6,1.5c8.8,0.3,17.7,0.5,26.5,0.6
		c6.7,0.1,13.4,0,20.1,0.2c7.3,0.2,14.6,0.9,21.9,0.9c10.8,0,21.5-0.2,32.2-0.5c8.8-0.3,17.5-1,26.3-1.5c3.1-0.2,6.2-0.5,9.3-0.8
		c0-1.5,0-2.9-0.2-4.3c-0.7,0-1.4,0-2.1,0c-8.1,0.3-16.1,0.7-24.2,1c-6.4,0.3-12.9,0.6-19.3,0.9c-8.5,0.3-17.1,0.7-25.6,0.9
		c-6.7,0.1-13.4-0.1-20.1-0.1c-18.5,0-36.9-0.4-55.3-2.4c-7.4-0.8-14.9-1.7-22.3-2.5c-7.4-0.8-14.8-1.8-22.3-2.5
		c-7.1-0.6-14.3-1.1-21.4-1.6c-0.5,0-1,0.1-1.5,0.2c0.2,0.4,0.5,0.6,0.8,0.7c5.3,1.3,10.6,2.6,15.9,3.8
		C317.9,471.7,322,472.6,326.1,473.3z"/>
	<path class="st1" d="M319.5,497.8c4,1,8,2.3,12.1,2.9c5.4,0.8,10.9,1.2,16.3,1.6c6,0.4,11.9,0.7,17.9,1c9.5,0.5,18.9,1.2,28.4,1.5
		c8.6,0.3,17.2,0.3,25.8,0.2c13.2-0.1,26.4,0.1,39.6,0.6c15.7,0.5,31.5-0.3,47.2-1.5c1.6-0.1,3.1-0.3,4.7-0.4c0-1.4,0-2.8-0.2-4.3
		c-0.3-0.1-0.7-0.1-1.1-0.1c-16.6,0.4-33.3,0.8-49.9,1.2c-9.2,0.2-18.4,0.6-27.6,0.6c-21.7,0-43.4-0.3-65-1.8
		c-7.9-0.5-15.8-1.6-23.7-2.4c-2.7-0.3-5.3-0.7-7.9-1c-3.1-0.3-6.1-0.6-9.2-0.9c-6.6-0.5-13.1-1-19.7-1.5c-0.5,0-1,0.2-1.5,0.3
		c0,0.2,0,0.3,0,0.4c1.2,0.3,2.3,0.7,3.5,1C312.6,496.1,316.1,496.9,319.5,497.8z"/>
	<path class="st1" d="M328.1,491.3c5.2,0.9,10.4,1.7,15.6,2.1c7.9,0.5,15.8,0.7,23.7,1.1c9.7,0.5,19.3,1.3,29,1.4
		c21.1,0.3,42.2,0.3,63.3,0.4c6.7,0,13.4,0.1,20.1,0c8.1-0.1,16.1-0.6,24.2-0.9c2.5-0.1,5-0.3,7.5-0.5c0-1.5,0-3,0-4.5
		c-0.7,0-1.4,0-2.1,0c-12.7,0.2-25.3,0.4-38,0.7c-5.6,0.1-11.3,0.5-16.9,0.8c-4.3,0.2-8.5,0.8-12.8,0.8c-12.7,0-25.3-0.2-38-0.5
		c-13.2-0.3-26.3-0.8-39.5-1.5c-5.4-0.3-10.7-1.1-16.1-1.7c-5.6-0.7-11.2-1.4-16.9-2c-4-0.5-7.9-0.8-11.9-1.1
		c-5.1-0.4-10.2-0.8-15.3-1.2c-0.5,0-0.9,0.1-1.4,0.2c0.4,0.5,0.9,0.7,1.3,0.8c3.8,1,7.6,2,11.4,2.9
		C319.6,489.6,323.8,490.6,328.1,491.3z"/>
	<path class="st1" d="M500.8,457.1c-6.2,0.4-12.4,0.6-18.6,0.6c-18.4,0-36.8-0.1-55.2-0.2c-7.5,0-15-0.3-22.5-0.5
		c-3.6,0-7.2-0.2-10.8-0.2c-5.4,0.1-10.7,0.5-16.1,0.4c-2.6-0.1-5.2-0.9-7.8-1.5c-3.4-0.7-6.8-1.8-10.2-2.4
		c-3.7-0.6-7.5-0.8-11.2-1.1c-7.6-0.7-15.3-1.5-22.9-2.2c-5.9-0.5-11.7-1.1-17.6-1.6c-5.2-0.4-10.4-0.8-15.6-1.2
		c-0.3,0-0.5,0.1-1,0.2c0.5,0.4,0.7,0.6,1,0.7c2,0.6,4,1.1,6,1.7c3.5,0.9,6.9,1.9,10.4,2.8c4,1.1,8,2.1,12,2.9s8.1,1.4,12.2,2
		c5.8,0.8,11.6,1.5,17.4,2.1c5.3,0.5,10.6,0.8,15.9,1c4,0.1,8.1-0.1,12.1-0.3c2.9-0.1,5.7-0.8,8.5-0.7c7,0.2,13.9,0.6,20.8,0.9
		c3.4,0.1,6.8,0.1,10.2,0.1c20.9-0.3,41.7-0.6,62.5-0.9c5.1-0.1,10.1-0.5,15.1-0.7c1.7-0.1,3.4,0,5.1,0.1c3.7,0.3,7.3,0.6,11,0.9
		c0-1.5,0-2.9,0-4.3c-0.6,0.1-1.1,0.1-1.7,0.2C506.8,456.3,503.8,456.9,500.8,457.1z"/>
	<path class="st1" d="M492.7,509.1c-4.9,0.1-9.9,0.1-14.8,0.4c-6.4,0.4-12.9,1.2-19.3,1.3c-11.9,0.2-23.8,0.2-35.7,0
		c-14.5-0.3-28.9-0.9-43.4-1.4c-6.9-0.3-13.7-0.6-20.5-1c-7.2-0.5-14.4-1.8-21.6-3c-5.2-0.9-10.5-1.2-15.7-1.7
		c-3.9-0.4-7.7-0.6-11.6-0.9c-0.4-0.1-0.9,0-1.4,0.1c0,0.1-0.1,0.3-0.1,0.4c0.5,0.3,0.9,0.7,1.4,0.8c2.1,0.7,4.2,1.2,6.3,1.8
		c3.5,1,6.9,2,10.4,2.9c3,0.7,6,1.5,9,1.8c4.9,0.5,9.9,0.6,14.9,0.9c0.6,0.1,1.1,0.2,1.7,0.3c53.1,0,106.2,0,159.2,0.2
		c0-1,0-2.1,0-3.1c-0.7-0.1-1.3-0.1-2-0.1C503.9,508.9,498.3,509,492.7,509.1z"/>
	<path class="st1" d="M200.6,31.3c-0.1,0.4,0.1,0.9,0.1,1.4c0.1,0.1,0.3,0.1,0.4,0.1c0.3-0.7,0.6-1.4,1-2c1.6-2.9,3.1-6,4.9-8.8
		c2.5-4,6.3-6.8,10.3-9.2c3.4-2.1,6.8-3.8,10.7-4c5.8-0.3,11.7-0.2,17.5-0.2c0.4,0,0.7,0.2,1.3,0.3c-1.6,2.2-2.9,4.3-4,6.9
		c0.5-0.1,0.7-0.1,0.8-0.2c3.2-2,6.4-4,9.7-5.8c2.5-1.4,5.3-2.3,7.8-3.7c3.4-1.9,6.7-3.9,10.1-5.9c-6.1,0-12.2,0-18.2,0.3
		c-3.8,0.7-7.7,1.4-11.5,1.9c-6.7,0.9-13.4,1.3-20,3.2c-3.7,1-6.9,2.6-9.8,5C205.2,16,202.4,23.5,200.6,31.3z"/>
	<path class="st1" d="M410.8,15.5c5.9,1.6,11.9,1.6,17.9,1.2c0.5,0,1-0.4,1.5-0.7c-0.4-0.4-0.8-0.8-1.2-1.1
		c-6.4-3.7-11.8-8.7-16.3-14.6c-1.4,0-2.8,0-4.3,0.1c1,1.7,1.7,3.5,2.8,5c1.4,1.9,3.2,3.7,5.1,5.8c-10-1.3-18.4-5.7-26.6-10.8
		c-1.5,0-2.9,0-4.3,0c0.3,0.4,0.6,0.8,0.9,1.1C393.3,8.1,401.4,13,410.8,15.5z"/>
	<path class="st1" d="M472.4,448c-11.5,0.4-22.9,0.7-34.4,1c-1,0-1.9,0.2-2.9,0.3c0,0.1,0,0.3,0,0.4c1,0.1,1.9,0.4,2.9,0.4
		c8.3,0.4,16.7,1,25.1,1.1c13.9,0.2,27.9,0.2,41.8,0.2c2.2,0,4.4-0.3,6.6-0.5c0-1.4,0-2.7,0.1-4c-0.7-0.1-1.3-0.2-2-0.2
		C497.2,447,484.8,447.5,472.4,448z"/>
	<path class="st1" d="M465.3,440c-0.8,0.1-1.6,0.3-2.4,0.5c0,0.2,0,0.4,0,0.6c0.7,0.1,1.4,0.3,2.1,0.3c5.7,0.2,11.4,0.4,17.1,0.5
		c9.8,0.2,19.6,0.3,29.4,0.4c0-1.4,0-2.8,0.1-4.4c-0.4,0-0.9,0-1.3,0c-10.5,0.4-20.9,0.7-31.4,1.2
		C474.4,439.2,469.8,439.7,465.3,440z"/>
	<path class="st1" d="M480,432.2c0,0.3,0.1,0.5,0.1,0.7c10.4,1.1,20.9,1.5,31.4,1.3c0-1.9,0-3.8-0.1-5.7c-4.4,0.4-8.9,0.6-13.4,1.1
		c-5.3,0.6-10.7,1.4-16,2.1C481.3,431.8,480.7,432,480,432.2z"/>
	<path class="st1" d="M468.9,94.1c0,0.1,0,0.3,0,0.4c0.7,0.1,1.5,0.3,2.3,0.3c3.7,0.2,7.4,0.3,11.1,0.6c9.2,0.8,18.3,1.7,27.5,2.6
		c0.6,0,1.1-0.1,1.7-0.1c0-1.3,0-2.7,0.1-3.9c-4.5-0.3-9-0.7-13.5-0.7c-9,0-17.9,0.2-26.8,0.4C470.5,93.8,469.7,94,468.9,94.1z"/>
	<path class="st1" d="M511.5,105.6c-12.4-1-24.7-1.1-37,0.4c1.6,0.5,3.1,0.7,4.6,0.8c9.1,0.8,18.3,1.7,27.4,2.5
		c1.7,0.1,3.3,0.2,5,0.3C511.5,108.2,511.5,106.9,511.5,105.6z"/>
	<path class="st1" d="M511.5,410.3c-6.7,0.7-13.5,1.4-20.3,2.1c-0.4,0.1-0.8,0.5-1.2,0.7c0,0.1,0.1,0.3,0.1,0.4
		c7,1.3,14.2,2.2,21.4,2.2C511.5,414,511.5,412.1,511.5,410.3z"/>
	<path class="st1" d="M490.3,422.5c7,1.5,14.1,2.1,21.2,2.3c0-1.8,0-3.6,0-5.4c-6.7,0.7-13.3,1.3-20,2c-0.5,0.1-0.9,0.5-1.3,0.7
		C490.2,422.2,490.3,422.5,490.3,422.5z"/>
	<path class="st1" d="M479.1,82.2c0,0.2,0,0.4,0,0.6c1.3,0.2,2.5,0.4,3.8,0.5c9.5,0.8,19.1,1.5,28.6,2.3c0-1.2,0-2.4,0-3.8
		c-0.5-0.1-1-0.2-1.5-0.2c-9.8,0.1-19.5,0.2-29.3,0.3C480.1,81.9,479.6,82.1,479.1,82.2z"/>
	<path class="st1" d="M511.5,173.9c-7.7-0.3-15.4,0.3-23,1.1c0.6,0.4,1.3,0.5,2,0.6c4.7,0.5,9.3,0.9,13.9,1.4
		c2.4,0.2,4.7,0.4,7.1,0.6C511.5,176.4,511.5,175.2,511.5,173.9z"/>
	<path class="st1" d="M487.6,70.8c0,0.2,0,0.3,0,0.5c8,0.7,15.9,1.3,23.9,1.9c0-1,0-2.1,0-3.2c-0.6-0.1-1.1-0.2-1.7-0.2
		c-7.1,0.3-14.2,0.5-21.3,0.8C488.2,70.5,487.9,70.6,487.6,70.8z"/>
	<path class="st1" d="M511.5,118.8c-6.1-0.3-12.3-0.6-18.4-0.9c-0.3,0-0.5,0.2-0.7,0.3c0,0.1,0,0.2,0,0.3c6.4,1.1,12.7,2.1,19.1,3.1
		C511.5,120.6,511.5,119.6,511.5,118.8z"/>
	<path class="st1" d="M493.1,59.8c2.8,0.2,5.7,0.3,8.6,0.5c3.3,0.2,6.5,0.4,9.8,0.6c0-0.9,0-1.7,0-2.6c-6.6-0.1-13.2-0.2-19.8,1.1
		C492.1,59.8,492.6,59.8,493.1,59.8z"/>
	<path class="st1" d="M354.8,185c-1.4,0.1-2.7,0-4.1-0.2c-7.9-0.9-15.8-0.8-23.6,0.2c-0.4,0.1-0.7,0.3-1,0.4c0.3,0.5,0.6,0.8,1,0.8
		c3,0.4,6,0.7,9,1.1c3.3,0.4,6.6,0.8,9.9,1.3c0.5,0,0.9,0.3,1.6,0.7c-6.1,2.4-11.9,3.9-18.3,3.7c0.3,0.5,0.4,0.6,0.5,0.7
		c5.7,3.1,11.5,5.9,18.3,5.7c0.9,0,1.8-0.4,2.4-0.9c5-4.9,10.3-9.4,16.1-13.3c4.8-3.2,9.9-5.9,15.4-8c6.1-2.4,12.5-3.9,19.1-3.7
		c3.9,0.1,7.9,0.6,11.7,1.4c8.6,1.8,15.7,6.1,20.9,13.2c0.3,0.4,0.5,0.9,0.7,1.3c-1.5-0.5-2.7-1.1-4-1.7c-5.8-2.7-11.9-4.3-18.2-5.1
		c-9.1-1.2-18,0.4-26.7,3.3c-8.4,2.9-16.3,6.7-23.9,11.2c-1,0.7-2.1,1.3-3.1,2c0.4,0.4,0.8,0.6,1.1,0.6c2.1,0.2,4.1,0.2,6.2,0.5
		c1.4,0.2,2.9,0.6,4.1,1.2c2.7,1.3,5.2,3.1,7.9,4.4c4.5,2.1,9.3,3.5,14.2,4.3c5.4,0.8,10.8,1.2,16.2-0.1c2.4-0.6,4.8-1.2,7.2-1.8
		c4.2-1,8.4-2.2,12.6-2.9c2.2-0.4,4.6,0,6.8,0.2c0.6,0.1,1.2,0.9,1.8,1.4c-0.4,0.4-0.9,0.9-1.4,1.2c-3.1,1.6-6.1,3.2-9.2,4.7
		c-4.5,2.2-9,4.1-14.1,4.5c-0.6,0-1.3,0.3-1.9,0.4c0,0.1,0,0.3,0,0.4c0.7,0.1,1.3,0.3,2,0.3c4.7-0.3,9.5-0.4,14.2-0.9
		c5.8-0.6,11.7-1.4,17.5-2.1c2.9-0.4,5.9-0.6,8.8-0.9c0.2-0.1,0.4-0.2,0.6-0.3c-1.1-0.5-2.3-0.8-3.4-0.9c-2.9-0.3-5.9-0.5-8.8-0.8
		c-0.4,0-0.9-0.3-1.3-0.5c0.3-0.3,0.6-0.8,1-1c1.1-0.5,2.2-1.2,3.4-1.3c5.9-0.7,11.9-1.1,17.8-1.7c0.5-0.1,0.9-0.2,1.3-0.3
		c0.1-0.2,0.1-0.3,0.1-0.5c-0.8-0.2-1.6-0.6-2.4-0.7c-3.6-0.4-7.3-0.7-11-1.1c-0.4,0-1-0.3-1.1-0.6c-0.1-0.3,0.1-0.9,0.4-1.2
		c1.5-1.9,3.6-2.7,6-2.7c4.9-0.1,9.9-0.1,14.8-0.2c0.4,0,0.9-0.1,1.3-0.2c0-0.1,0-0.1,0-0.2c-1-0.3-1.9-0.7-2.8-0.9
		c-3.3-0.7-6.5-1.6-9.8-2.1c-1.9-0.3-3.5-0.9-4.6-2.5c-0.3-0.4-0.4-0.9-0.6-1.4c0.5-0.1,0.9-0.4,1.4-0.4c7.2-0.2,14.3-0.5,21.5-0.7
		c0.5-0.1,0.9-0.2,1.3-0.3c0-0.2,0-0.3,0-0.5c-0.9-0.3-1.7-0.7-2.6-0.8c-6.4-0.9-12.8-1.7-19.2-2.6c-1.1-0.2-1.6-0.8-1.7-1.8
		c-0.2-1.8,1-3.1,3.2-3.1c3.8,0.1,7.7,0.3,11.5,0.5c0.6,0,1.1,0,1.7,0c-0.3-0.6-0.6-1-1.1-1.2c-1.6-0.7-3.3-1.2-4.9-1.8
		c-1.9-0.8-3.8-1.6-5.7-2.5c-0.4-0.1-0.8-0.6-0.8-1c0-0.3,0.5-0.8,0.9-0.9c0.7-0.3,1.5-0.4,2.2-0.5c1.7-0.3,3.5-0.5,5.2-0.8
		c0-0.2,0-0.3,0-0.5c-0.5-0.3-1-0.6-1.5-0.9c-2.1-1.1-4.3-2.1-6.4-3.1c-4-2-8-4.3-12.2-6c-4.5-1.8-9.3-3.2-14-4.5
		c-5-1.3-10.2-1.6-15.4-1.1c-4.1,0.4-8.2,1.2-12.3,1.4c-7.2,0.4-14.5,0.4-21.7,0.9c-5.4,0.3-10.7,1.1-16.1,1.8
		c-1.2,0.1-2.3,0.5-3.5,0.8c0,0.2,0,0.3,0,0.5c1.3,0,2.6,0,3.9,0c13.8,0.2,27.6,0.3,41.4,0.6c3.7,0,7.5,0.6,11.2,0.8
		c1.5,0.1,2.1,1.1,2.7,2.2c0.7,1.4,0.1,2.5-1.4,2.4c-2.1,0-4.1-0.4-6.2-0.5c-7-0.4-13.9-0.9-20.9-1.2c-15.5-0.7-30.9-0.1-46.3,1.8
		c-0.9,0.1-1.8,0.5-2.7,0.7c0,0.1,0.1,0.3,0.1,0.4c0.8,0.1,1.6,0.2,2.4,0.2c9.2,0.3,18.4,0.5,27.6,0.7c0.6,0,1.1,0.2,1.9,0.4
		c-2.7,1.2-5.1,2.1-7.3,3.2c-1.3,0.7-2.6,0.8-4,0.7c-3.4-0.2-6.7-0.5-10.1-0.4c-7.2,0.3-14.4,0.9-21.6,1.4c-0.4,0-0.7,0.2-1,0.3
		c0,0.2,0,0.4,0,0.6c9.2,0.7,18.4,1.6,27.7,2.6c-1.2,1.2-2.5,2.1-3.9,3C356.1,184.5,355.5,185,354.8,185z M405.8,205.3
		c-2.2,0.3-4.4,0.8-6.6,0.9c-7.4,0.3-14.1-1.6-20.3-5.5c-1.1-0.6-0.6-1.2,0.1-1.5c2-1,4-2,6.1-2.7c1.7-0.5,3.5-0.7,5.3-0.8
		c1.2-0.1,1.4,0.5,0.8,1.6c-0.8,1.4-2.1,1.9-3.5,2.2c-0.4,0-0.9,0.2-1.4,0.3c0,0.2,0,0.3,0,0.5c5.7,4.7,12.6,4.5,19.5,4.4
		C405.8,205,405.8,205.1,405.8,205.3z M418.1,201c-1.4,1.1-3.1,1.7-4.8,1.4c-1.6-0.2-1.2-1.6-1.2-2.5c0.2-2.9,0.5-3.2,3.1-2.6
		c1.1,0.3,2.1,0.8,3,1.5C419,199.4,418.9,200.4,418.1,201z"/>
	<path class="st1" d="M260.2,277.6c-1,0-1.9-0.2-2.8-0.5c-3.7-1.3-7.4-2.7-11-4c0.3,0.3,0.6,0.9,1.1,1.4c4.3,4.2,9,7.7,14.8,9.5
		c3.2,1,6.5,1.6,9.9,1.5c0.9-0.1,1.4-0.4,1.6-1.3c0.3-1.3,0.8-2.5,1.1-3.7c1-5,0.5-9.8-2-14.3c-1.8-3.3-4.5-5.9-7.3-8.3
		c-4.7-4-9.1-8.3-12.6-13.3c-0.8-1.1-1.5-2.1-2.3-3.2c-0.2,0.1-0.3,0.2-0.5,0.4c0.7,1.6,1.4,3.3,2.2,4.9c2.9,5.3,6.7,10,10.9,14.3
		c2,2.1,4.2,4.2,5.3,7.1c0.7,1.9,0.2,4-1.4,5.1c-0.6,0.4-1.3,0.6-1.8-0.3c-0.5-0.9-1-1.7-1.5-2.6c-2-3.6-4.2-7.3-7.8-9.7
		c-3.9-2.6-7-5.9-9.6-9.8c-1-1.6-2.1-3.1-3.2-4.7c-0.1,0.1-0.3,0.1-0.4,0.2c0.3,1,0.6,2,0.9,3c1.2,4.6,2.9,8.9,6.1,12.5
		c1.8,2,3.7,3.9,5.5,5.8c2.4,2.5,4,5.5,5.4,8.6C261.1,276.9,261.3,277.6,260.2,277.6z"/>
	<path class="st1" d="M280.4,375c1.3,0.2,2.5,0.7,3.7,1.1c3.6,1.2,7.2,2.5,10.8,3.6c3.4,1,6.9,1.8,10.4,2.7c4.2,1,8.4,2.1,12.6,2.9
		c4.3,0.9,8.5,1.5,12.8,2.1c5.6,0.7,11.2,1.5,16.8,2c5.9,0.6,11.8,0.8,17.7,1.2c12.6,0.9,25.1,0.5,37.6-0.3c0.5,0,0.9-0.1,1.3-0.2
		c-0.4-0.3-0.7-0.4-1-0.4c-6-0.5-12-1.1-18-1.6c-5.9-0.6-11.8-1-17.6-1.6c-7.7-0.8-15.5-1.6-23.2-2.5c-8.3-1-16.5-2.1-24.8-3.3
		c-5.4-0.7-10.7-1.5-16.1-2.5c-5.9-1-11.8-2.2-17.7-3.5c-1.8-0.4-3.6-1.1-5.1-2c-4-2.4-8.4-3-12.9-3.4c-0.3,0-0.5,0.1-0.7,0.1
		c0,0.1,0,0.2-0.2,0.5c1.6,0.7,3.1,1.5,4.6,2.2C274.3,373.3,277.2,374.7,280.4,375z"/>
	<path class="st1" d="M324.5,446.1c6,1,12.2,1.7,18.3,2.2c4.3,0.4,8.5,0.2,12.8,0.2c2.2,0,4.4-0.3,6.6-0.1c2.8,0.2,5.5,0.9,8.2,1.1
		c5.6,0.4,11.2,0.6,16.8,0.6c10.2,0,20.3-0.2,30.5-0.3c1.6,0,3.2-0.2,4.8-0.3c0-0.1,0-0.3,0-0.5c-0.8,0-1.7-0.2-2.6-0.2
		c-7.5-0.3-15.1-0.5-22.6-0.9c-7.4-0.4-14.9-1-22.3-1.4c-5.3-0.3-10.5-0.2-15.8-0.3c-1.5,0-3-0.1-4.4-0.4c-3.2-0.7-6.3-1.8-9.5-2.4
		c-6.3-1.2-12.6-2.3-18.9-3.3c-5.8-1-11.7-1.7-17.6-2.4c-6.7-0.8-13.4-1.4-20.1-2.1c-0.4,0-0.8,0.1-1.2,0.2c0,0.1,0,0.3,0,0.4
		c0.9,0.4,1.8,0.8,2.8,1.1c5.6,1.7,11.1,3.6,16.7,5.1C312.8,443.9,318.6,445.1,324.5,446.1z"/>
	<path class="st1" d="M267.2,358.1c2.5,1.2,5,2.5,7.6,3.5c1.6,0.6,3.4,0.6,5,1.1c3.3,1,6.5,2.3,9.8,3.3c6.2,1.8,12.3,3.8,18.6,5.2
		c8.8,1.9,17.7,3.6,26.6,4.8c8.9,1.3,17.9,2.1,26.9,2.6c13.9,0.8,27.9,0.6,41.8,0.1c0.5,0,1-0.1,1.5-0.1c0-0.2,0-0.4,0.1-0.7
		c-0.7-0.1-1.4-0.3-2.1-0.4c-4.1-0.3-8.1-0.6-12.1-0.9c-5.4-0.4-10.8-0.7-16.2-1.2c-9.4-0.9-18.9-2-28.3-3c-2.5-0.3-5-0.6-7.5-0.9
		c-3.3-0.4-6.7-0.7-10-1.2c-4.5-0.6-9-1.3-13.5-2c-4.3-0.6-8.6-1.1-12.8-1.9c-6.3-1.2-12.6-2.6-18.9-4c-2.4-0.6-4.8-1.3-7-2.7
		c-3-1.9-6.5-2-10.2-2.6C266.9,357.6,267,358,267.2,358.1z"/>
	<path class="st1" d="M290.7,427.1c4.2,1.5,8.5,3.2,12.8,4.5c4.8,1.4,9.7,2.5,14.5,3.6c6,1.3,12.1,2.1,18.2,2.1
		c3.2,0,6.3-0.2,9.4,0.1c3.1,0.3,6.1,1.2,9.1,1.6c4.1,0.5,8.2,1.1,12.4,1.2c9.2,0.2,18.3,0.2,27.5,0.2c1.4,0,2.9-0.3,4.3-0.5
		c0-0.2,0-0.4,0.1-0.5c-0.6-0.1-1.3-0.3-1.9-0.3c-3.1-0.3-6.1-0.4-9.2-0.7c-5.7-0.5-11.3-1-17-1.5c-5.7-0.4-11.3-0.9-17-1.3
		c-3-0.2-6,0-9-0.2c-3.5-0.2-7-0.7-10.3-2c-4.5-1.8-9.1-3.4-13.8-4.7c-3.5-1-7.1-1.5-10.6-2.1c-5-0.8-9.9-1.5-14.9-2.2
		c-3.8-0.6-7.5-1-11.3-1.5c-0.4,0-0.8,0-1.2,0c-0.1,0.2-0.1,0.3-0.2,0.5c0.5,0.4,0.9,0.8,1.5,1C286.3,425.4,288.5,426.3,290.7,427.1
		z"/>
	<path class="st1" d="M407.1,400.4c0-0.2,0-0.4,0-0.6c-1.3-0.1-2.7-0.2-4-0.3c-6.3-0.4-12.6-0.6-18.9-1.1
		c-8.1-0.7-16.1-1.4-24.1-2.2c-6.6-0.6-13.2-1.2-19.7-2c-6-0.7-11.9-1.6-17.9-2.4c-2.2-0.3-4.3-0.7-6.5-1c-5.9-1-11.8-1.8-17.7-2.9
		c-3.9-0.7-8.1-1-11.5-3.6c-0.3-0.2-0.6-0.2-0.9-0.4c-4.6-2.4-9.6-2.7-14.5-3.3c-0.4-0.1-0.7,0.1-1.1,0.1c0,0.1-0.1,0.3,0,0.6
		c1.4,0.7,2.7,1.5,4.1,2.1c3.5,1.5,6.9,3.5,10.8,3.8c6.2,0.5,12.1,2,18.1,3.8c6.7,1.9,13.5,3.4,20.4,4.8c6,1.2,12,2.1,18.1,2.8
		c7.8,0.9,15.6,1.8,23.5,2.1c9.3,0.4,18.6,0.3,27.9,0.3c3.7,0,7.4-0.1,11.1-0.2C405.3,400.8,406.2,400.6,407.1,400.4z"/>
	<path class="st1" d="M289,417c7.9,3.1,16,5.5,24.4,7c2.7,0.5,5.5,0.5,8.3,0.7c2.4,0.1,4.8-0.1,7.2,0.3c4.1,0.7,8,1.9,12.1,2.4
		c7.2,0.9,14.3,1.9,21.5,2.2c8.7,0.3,17.5,0.1,26.3,0c1.8,0,3.7-0.3,5.5-0.5c0-0.1,0-0.3,0-0.6c-0.3-0.1-0.6-0.2-0.9-0.2
		c-6-0.4-12-0.9-18-1.4c-5.1-0.4-10.2-0.9-15.3-1.4c-5.7-0.6-11.4-1.4-17.2-1.9c-5.1-0.5-10.2-0.5-15.2-1c-3-0.3-5.9-1.1-8.8-1.9
		c-3.6-1-7-2.5-10.6-3.5c-4.4-1.1-8.8-1.9-13.2-2.8c-5.3-1-10.5-1.9-15.8-2.8c-0.3-0.1-0.7,0.1-1.4,0.2c0.6,0.5,0.8,0.8,1.1,0.9
		C282.3,414.1,285.6,415.6,289,417z"/>
	<path class="st1" d="M408.6,367.1c-1-0.1-2.1-0.2-3.2-0.3c-7.9-0.4-15.7-0.7-23.6-1.2c-7.6-0.5-15.2-1.3-22.8-2
		c-6.7-0.6-13.4-1.3-20-2c-1.8-0.2-3.7-0.5-5.5-0.8c-3.1-0.4-6.2-0.9-9.3-1.4c-2.5-0.4-5.1-0.8-7.6-1.2c-3.5-0.7-7.1-1.3-10.6-2
		s-7.1-1.3-10.6-2.1c-2.8-0.6-5.6-1.3-8.4-2c-3.6-0.9-7.1-1.9-10.7-2.9c-1.4-0.4-2.8-0.8-4.2-1.2c-0.1,0.1-0.1,0.3-0.1,0.6
		c2.8,1.1,5.5,2.4,8.3,3.3c6.3,2.1,12.7,4.2,19.2,6c5,1.4,10.1,2.7,15.3,3.7c8.1,1.5,16.2,2.8,24.4,4c5.5,0.8,11.1,1.4,16.7,1.7
		c7.7,0.5,15.5,0.8,23.2,0.9c8.8,0.1,17.7-0.2,26.5-0.3c1,0,2-0.3,3-0.4C408.6,367.4,408.6,367.2,408.6,367.1z"/>
	<path class="st1" d="M296.5,400c4-0.1,7.9,0.7,11.6,1.9c7.4,2.3,15,3.9,22.7,5.2c5.1,0.9,10.3,1.5,15.4,1.9
		c7.6,0.6,15.3,1.2,22.9,1.3c7.4,0.1,14.9-0.3,22.3-0.5c0.6,0,1.1-0.1,1.7-0.2c0-0.1,0-0.2-0.2-0.3c-0.5-0.1-1-0.3-1.6-0.3
		c-7-0.5-14.1-1-21.1-1.6c-8-0.7-15.9-1.5-23.9-2.4c-7.5-0.8-14.9-1.7-22.4-2.7c-6.5-0.8-12.9-1.8-19.3-2.7
		c-3.8-0.5-7.5-1.2-10.8-3.5c-1.7-1.2-3.7-1.9-5.7-2.5c-4.5-1.4-9.2-1.6-13.8-1.9c-0.4-0.1-0.9,0.1-1.4,0.2c0,0.2,0,0.3,0,0.5
		c0.7,0.3,1.3,0.7,2,1c2.8,1.2,5.8,2.3,8.6,3.6C287.6,398.8,291.9,400,296.5,400z"/>
	<path class="st1" d="M289.1,408.2c6.4,2.7,13.1,4.2,20.1,3.9c1.6,0,3.2,0,4.7,0.3c6.5,1.3,13,2.9,19.5,3.9c8.9,1.3,17.7,2.6,26.6,3
		c10.5,0.5,21,0.1,31.5,0.1c0.5,0,1-0.1,1.5-0.2c0-0.2,0-0.4-0.3-0.8c-1.4-0.2-2.9-0.5-4.4-0.6c-2.7-0.2-5.5-0.2-8.2-0.4
		c-5.4-0.5-10.9-0.9-16.3-1.4c-7.5-0.7-15-1.6-22.5-2.4c-7.8-0.8-15.5-1.7-23.3-2.5c-2.4-0.2-4.8-0.4-7.1-0.8
		c-1.3-0.2-2.7-0.8-4-1.3c-3.3-1.4-6.5-3.2-9.9-4.1c-5.5-1.4-11.1-2.2-16.6-3.2c-1.3-0.2-2.7-0.1-4-0.2c0,0.2-0.1,0.3-0.1,0.5
		c0.4,0.4,0.8,0.8,1.3,1C281.4,404.9,285.2,406.7,289.1,408.2z"/>
	<path class="st1" d="M371.2,354.4c-4.4-0.1-8.8-0.4-13.2-0.8c-7-0.6-14.1-1.3-21.1-2.1c-7.1-0.8-14.2-1.7-21.3-2.6
		c-4.3-0.5-8.6-1.2-12.8-2c-5.5-1.1-11.1-2.4-16.6-3.7c-3.4-0.8-6.7-1.9-10-2.8c-0.4-0.1-0.7-0.2-1.1-0.3c0.1,0.3,0.2,0.5,0.3,0.5
		c6.1,2.1,12.1,4.5,18.2,6.4c4.7,1.5,9.4,2.6,14.2,3.7c4.8,1.1,9.7,2.1,14.6,2.9c4.9,0.8,9.9,1.6,14.8,2c8.9,0.7,17.8,1.5,26.8,1.7
		c10.4,0.1,20.8-0.3,31.2-0.6c1.4-0.1,2.7-0.5,4-0.8c0-0.1,0-0.3-0.1-0.4c-0.5,0-1.1-0.1-1.7-0.1
		C388.6,355.1,379.9,354.8,371.2,354.4z"/>
	<path class="st1" d="M402.9,346.5c-43.6,0-86.7-4.3-129-15.1c0.7,0.3,1.4,0.7,2.3,1c2,0.7,4,1.4,6,2c3.9,1.2,7.9,2.5,11.9,3.6
		c3.8,1,7.7,1.9,11.5,2.7c6.3,1.3,12.5,2.6,18.8,3.7c4.9,0.8,9.9,1.2,14.9,1.9c10.1,1.4,20.3,1.9,30.5,2c9.5,0.2,19.1-0.4,28.7-0.7
		c1.5,0,2.9-0.4,4.4-0.7C402.9,346.8,402.9,346.7,402.9,346.5z"/>
	<path class="st1" d="M310.8,333c4.3,1,8.7,1.8,13.1,2.4c8.8,1.2,17.6,2.4,26.4,3.1c14.9,1.3,29.9,1,44.8,0.3c0.5,0,0.9-0.2,1.4-0.3
		c0-0.2,0-0.3,0-0.5c-0.7-0.1-1.3-0.2-2-0.2c-9.7-0.4-19.3-0.6-29-1c-5.4-0.2-10.8-0.6-16.2-1.2c-6.1-0.7-12.2-1.5-18.3-2.3
		c-4.7-0.7-9.3-1.4-13.9-2.2c-4.1-0.6-8.2-1.3-12.3-2.1c-4.5-0.9-8.9-1.8-13.3-2.9c-5.2-1.2-10.4-2.6-15.6-3.9
		c-0.5-0.2-1.1-0.2-1.7-0.2c-0.1,0.2-0.1,0.3-0.1,0.5c3.3,1.1,6.6,2.3,9.9,3.3c4,1.3,8,2.4,12.1,3.5C301,330.7,305.9,332,310.8,333z
		"/>
	<path class="st1" d="M411.5,331c0-0.2-0.1-0.3-0.1-0.5c-0.5-0.1-1-0.2-1.5-0.2c-2.4,0-4.8,0.1-7.2,0.1c-6.4-0.1-12.9-0.2-19.3-0.4
		c-8.3-0.3-16.7-0.8-25-1.2c-3.1-0.2-6.2-0.4-9.3-0.8c-2.6-0.3-5.1-0.8-7.7-1.2c-3.7-0.6-7.4-1.1-11.1-1.8c-4.9-0.9-9.7-2-14.5-3
		c-4.5-1-9.1-2-13.6-3c-3.9-0.9-7.8-1.8-11.7-2.8c-4.8-1.2-9.6-2.5-14.4-3.8c-1.4-0.4-2.8-0.7-4.2-1.1c-0.1,0.2-0.1,0.3-0.1,0.5
		c0.1,0.1,0.2,0.2,0.4,0.3c6.4,2.1,12.7,4.4,19.2,6.4c4.6,1.3,9.3,2.4,14,3.4c6.1,1.3,12.2,2.6,18.4,3.7c6.4,1.1,12.9,1.9,19.4,2.8
		c4.8,0.7,9.5,1.6,14.2,2.1c7,0.8,14,1.4,21,1.9c10.5,0.8,21.1,0.4,31.6-1C410.5,331.4,411,331.2,411.5,331z"/>
	<path class="st1" d="M271.5,302.1c0.2,0.5,0.4,0.9,0.8,1c2.9,1.2,5.8,2.4,8.8,3.4c4.8,1.5,9.6,3,14.4,4.3
		c7.3,1.9,14.6,3.7,21.9,5.3c5.2,1.1,10.5,1.8,15.8,2.7c2.2,0.3,4.4,0.7,6.7,1c4.8,0.7,9.6,1.4,14.4,2c6.4,0.8,12.7,1.4,19.1,2
		c6.2,0.5,12.5,1.1,18.7,1.4c8.3,0.4,16.6-0.3,24.9-1.7c1.4-0.3,2.7-0.7,4-1.1c0-0.2,0-0.3,0.1-0.3c-0.6,0-1.2,0-1.8,0
		c-5.3,0.2-10.5,0.6-15.8,0.7c-14.7,0.2-29.5,0.3-44.1-1.4c-3-0.3-6-0.7-8.9-1.2c-4.2-0.6-8.4-1.4-12.6-2.1
		c-3.4-0.6-6.8-1.1-10.1-1.8c-3.6-0.7-7.1-1.5-10.6-2.3c-5.1-1.1-10.1-2.2-15.2-3.4c-3.9-1-7.7-2-11.5-3.1
		c-5.3-1.5-10.5-3.1-15.8-4.6C273.7,302.6,272.6,302.4,271.5,302.1z"/>
	<path class="st1" d="M205.4,310.2c-1.1,1.7-2.4,3.2-3.3,5c-2.2,4.4-1.2,9,3.3,11.2c3.2,1.6,8.8,0.9,10.2-4.2
		c0.7-2.7-0.3-5.4-2.8-6.5c-1.2-0.4-2.5-0.4-3.8-0.5c-2-0.2-3.1-1.4-3-3.5c0-0.4,0-0.8,0-1.2C205.8,310.5,205.6,310.3,205.4,310.2z"
		/>
	<path class="st1" d="M430.8,221.5c-9.4,1.1-18.7,2.1-28,1.6c-9.4-0.5-18.7-1.5-27.8-3.8c11.5,5.3,23.7,7.9,36.4,7.3
		C417.9,226.3,429.4,223.4,430.8,221.5z"/>
	<path class="st1" d="M319.8,306.5c15.1,3.5,30.4,6.2,46,7c-30.7-4.6-60.9-11.4-90.3-21.4C289.8,298.5,304.6,303,319.8,306.5z"/>
	<path class="st1" d="M362.1,302.6c-24.1-3.3-47.5-8.6-70.3-16.3C304.1,293.5,356,305.5,362.1,302.6z"/>
	<path class="st1" d="M406.1,317.1c7.9,0.6,15.8,0.6,23.6-0.4c1.6-0.2,3.4-0.3,4.6-2c-0.4,0-0.9-0.1-1.4-0.1
		c-6.2,0.2-12.4,0.5-18.6,0.5c-9.8,0-19.5-0.2-29.2-0.4c-1.3,0-2.5,0-3.8,0c0,0.2,0,0.4,0,0.6c2.2,0.2,4.3,0.6,6.5,0.7
		C393.9,316.4,400,316.8,406.1,317.1z"/>
	<path class="st1" d="M395.5,308.9c0.1,0.1,0.1,0.3,0.1,0.4c1.2,0.1,2.4,0.3,3.6,0.3c5.2,0.2,10.4,0.5,15.6,0.5
		c5.1,0,10.1-0.2,15.1-0.4c0.8-0.1,1.5-0.5,2.3-0.7c0-0.3,0-0.5-0.2-0.7c-1.1-0.3-2.3-0.6-3.5-0.7c-10.7-0.6-21.4,0.5-32.1,1
		C396.1,308.6,395.8,308.8,395.5,308.9z"/>
	<path class="st1" d="M322,284.2c12.1,5,24.8,7.7,37.8,8.7c0.1-0.2,0.1-0.4,0-0.5c-6.3-1.3-12.6-2.5-18.9-4s-12.5-3.2-18.8-4.8
		C322.1,283.8,322,284,322,284.2z"/>
	<path class="st1" d="M430.4,302.3c0.4-0.1,0.7-0.5,1-0.8c-0.4-0.3-0.7-0.8-1.1-0.8c-2.2-0.3-4.4-0.6-6.6-0.5
		c-4.4,0.1-8.8,0.4-13.1,0.7c-1.2,0.1-2.4,0.4-3.6,0.6c0,0.2,0,0.3,0,0.5c0.4,0,0.8,0.2,1.2,0.2c5.9,0.3,11.8,0.6,17.7,0.7
		C427.4,302.9,428.9,302.6,430.4,302.3z"/>
	<path class="st1" d="M455.5,160.8c-0.3,0-0.7,0.3-1,0.5c0.2,0.3,0.5,0.7,0.8,0.8c1.8,0.9,3.8,1.5,5.6,2.4c3.6,1.8,7.2,3,11.2,2.8
		c0.6,0,1.1-0.1,1.6-0.2c0-0.1,0-0.2,0-0.4c-0.6-0.3-1.1-0.7-1.7-0.9c-2-0.9-4.1-1.5-6.1-2.5C462.6,161.5,459.2,160.5,455.5,160.8z"
		/>
	<path class="st1" d="M431.7,294.2c-0.2-0.1-0.4-0.1-0.6-0.1c-4.9,0.1-9.7,0.2-14.6,0.3c-0.6,0.1-1.2,0.5-1.8,0.7
		c0,0.1,0,0.2,0.1,0.4c0.2,0.1,0.3,0.2,0.5,0.2c4.4,0.2,8.8,0.5,13.2,0.7c1.1,0,2.2-0.3,3.2-0.6c0.3-0.1,0.6-0.6,0.9-0.9
		C432.3,294.8,432,294.5,431.7,294.2z"/>
	<path class="st1" d="M426,288.8c2.4,1.6,9.1,1.5,10.8,0C435.6,287.5,428.9,287.5,426,288.8z"/>
	<path class="st1" d="M271.4,42.3c-3,2.4-6.1,4.6-9.2,6.9c-3.9,3-7.8,6-10.8,10c-2.3,3.1-3.5,6.5-3,10.4c0.3,1.8,0.6,3.6,2.1,5.1
		c0.4-2.2,0.6-4.1,1.1-6.1c0.5-1.9,1.4-3.6,3-4.5c0.6,2.7,0.9,5.4,1.8,7.9c0.8,2.5,2.3,4.7,5.1,6.2c0-1.9,0-3.3,0-4.8
		c0-4.6,0.7-9,2.4-13.2c1.2-2.9,3.2-5.3,5.3-7.6c4.4-5,8.6-10.1,12-15.8c3-5,5.7-10.1,7.2-15.8c1-3.8,1.6-7.7,2.4-11.5
		c0.1-0.5-0.1-1.1-0.1-1.7c-0.5,0.3-0.7,0.5-0.8,0.8c-0.8,2.3-1.5,4.7-2.5,6.9c-2.5,5.3-5,10.6-7.7,15.9
		C277.6,35.5,275,39.3,271.4,42.3z"/>
	<path class="st1" d="M231.6,32c1.5-4.1,3.9-7.6,6.5-11c0.2-0.3,0.4-0.8,0.3-1.1c0-0.3-0.7-0.4-1-0.4c-3,0.4-6.1,0.6-9.1,1.3
		c-4.8,1.1-8.8,3.7-11.6,7.7c-2.4,3.5-4.3,7.5-6.6,11.2c-2.9,4.7-6.1,9.1-10.5,12.6c-3.2,2.6-6.9,4.1-11,4c-1.5-0.1-3.1-0.6-4.6-1.1
		c-1.1-0.3-2-0.9-3-1.3c0,0.2-0.1,0.3-0.2,0.4c0.3,0.3,0.6,0.7,0.9,1c2.3,1.9,5,3.2,7.9,3.7c4.6,0.8,8.7-0.6,12.5-3.2
		c4.6-3.3,7.8-7.9,11.1-12.3c2.7-3.6,4.9-7.7,7.5-11.5c1.1-1.6,2.5-3,4-4.2c1-0.8,2.3-1.5,4-1.2c-4.3,9.7-4,19.3-0.4,28.9
		c0.1,0,0.3,0,0.3,0c0-0.4,0.1-0.9,0.1-1.3c-0.3-4.9-0.5-9.8,0.7-14.7C230.1,37,230.7,34.4,231.6,32z"/>
	<path class="st1" d="M174.4,73.9c1.9,4.8,2.5,9.5,0.2,14.3c2.5-1.8,4.8-3.8,8.3-4c-0.4,0.6-0.5,0.9-0.7,1.1c-2.3,2.9-4,6.1-5.4,9.6
		c-1.6,3.9-3,7.9-4.7,11.8c-2.8,6.6-6.9,12.2-11.7,17.5c-1,1.1-2,2.3-3,3.4c0.4,0.2,0.6,0.1,0.8,0c4.9-3.2,9.3-6.9,12.9-11.5
		c4.8-6.1,7.9-13.1,10.6-20.4c2.3-6.3,6.8-10.1,12.9-12.2c0.2,0,0.9,0.4,1,0.7c0.9,2.4,1.6,4.8,2.5,7.2c0.4,1,1.1,1.9,1.7,2.8
		c0.1,0,0.3-0.1,0.4-0.1c-1.8-8.5,2.5-15.4,5.9-22.6C196.2,81,185.8,82.8,174.4,73.9z"/>
	<path class="st1" d="M267,14.5c-2.6,2.4-5.7,4-9.1,4.9c-3.6,0.9-7.1,2.1-10.1,4.4c-3.7,2.8-5.9,6.7-7.6,10.9
		c-0.1,0.3,0.1,0.8,0.1,1.2c0.8-0.4,1.1-0.9,1.5-1.4c3.8-5,8.6-8.6,15-9.7c1.8-0.3,3.5-1.1,5.2-1.9c1.7-0.8,3.2-1.7,4.8-2.6
		c0.1,0.1,0.2,0.2,0.3,0.3c-0.8,1.4-1.6,2.8-2.4,4.2c-2.6,4.2-6,7.7-10.6,9.8c-6.9,3.1-11.5,8.4-14.4,15.3c-0.3,0.7-0.4,1.5-0.6,2.3
		c0.1,0.1,0.2,0.2,0.3,0.5c0.3-0.3,0.7-0.5,0.9-0.8c2.9-3.9,6.4-7.2,10.6-9.7c2.2-1.4,4.7-2.3,7-3.7c6.2-3.8,10.4-9.4,13.1-16.1
		c1.7-4,2.5-8.3,3.2-12.6c0.1-0.7,0-1.3,0-2.3c-0.6,0.4-0.7,0.5-0.9,0.7C271.2,10.2,269.2,12.5,267,14.5z"/>
	<path class="st1" d="M151.5,156.4c0.4-2,1.1-3.9,1.6-5.9c0.2-0.6,0.2-1.3,0.3-1.9c-0.2-0.1-0.3-0.1-0.3-0.2
		c-0.2,0.1-0.4,0.2-0.5,0.4c-4.9,6.4-8,13.4-9.2,21.4c-1.3,8.7,0.3,17,3.9,24.8c1.7,3.7,4,7.1,6.2,10.5c1,1.6,2.3,2.9,3.4,4.4
		c0.1,0,0.2-0.1,0.3-0.2c-0.4-0.9-0.8-1.7-1.2-2.6c-2-3.8-3.6-7.7-4.5-11.9c-0.7-3.1-1.3-6.1-1.8-9.2c-1-6.1-0.8-12.3-0.2-18.4
		C149.8,163.8,150.7,160.1,151.5,156.4z"/>
	<path class="st1" d="M381.6,13.8c5.3,7.2,12.6,11.3,21,13.4c4.5,1.2,9.1,1.5,13.7,2.2c0.6,0.1,1.1-0.1,1.7-0.2c0-0.2,0-0.4,0.2-0.7
		c-0.4-0.1-0.7-0.3-1-0.4c-1.4-0.3-2.8-0.5-4.2-0.9c-3.2-0.9-6.5-1.7-9.6-2.9c-4.2-1.6-8.3-3.6-12.1-6.1c-5.2-3.4-9.7-7.5-12.8-12.9
		c-0.6-1-1.2-1.9-1.8-2.9c-0.2,0.1-0.3,0.1-0.4,0.2c0,0.5,0,1,0.2,1.5C377.7,7.5,379.4,10.8,381.6,13.8z"/>
	<path class="st1" d="M129,240.2c-0.3,3.2-0.1,6.4,0.6,9.5c1.3,5.3,3.4,10.2,6.7,14.6c2.9,3.9,6.5,6.8,11.5,7.7
		c0.4,0.1,0.9-0.1,1.4-0.2c-0.2-0.5-0.4-1-0.7-1.3c-3.5-3.6-6.7-7.3-8.7-12c-0.8-1.8-1.5-3.6-0.5-5.7c1.5-3,4.3-3.5,6.2-0.8
		c0.9,1.4,1.6,3.1,2.2,4.7c0.6,1.7,1.1,3.5,1.6,5.3c0.2,0,0.3,0,0.6,0c0-0.7,0.1-1.4,0-2c-0.7-4.8-1.3-9.5-2.2-14.2
		c-0.7-3.5-2.2-6.8-4.4-9.7c-2.2-2.7-5.4-3.7-9.1-2.6C131.1,234.2,129.3,236.5,129,240.2z"/>
</g>
</svg>
