<?xml version="1.0" encoding="utf-8"?>
<!-- Generator: Adobe Illustrator 22.1.0, SVG Export Plug-In . SVG Version: 6.00 Build 0)  -->
<svg version="1.1" id="Layer_1" xmlns="http://www.w3.org/2000/svg" xmlns:xlink="http://www.w3.org/1999/xlink" x="0px" y="0px"
	 viewBox="0 0 512 512" style="enable-background:new 0 0 512 512;" xml:space="preserve">
<style type="text/css">
	.st0{fill:#BE257F;}
	.st1{fill:#FCF9FC;}
</style>
<rect class="st0" width="512" height="512"/>
<path class="st1" d="M382.8,192.4c-5,12.9-10.1,25.8-15.1,38.7c-11.7,30.2-23.5,60.3-35.2,90.5c-15.6,40.3-31.4,80.5-46.7,120.9
	c-2.8,7.3-5,6.7-10.2,2.3c-15.6-13-25-29.9-32.7-48.2c-27.2-65-54.3-130-81.6-195c-1.5-3.5-3.6-6.8-5.3-10.1c-3.5,0.5-2.6,3-2.8,4.7
	c-4.5,33.2-9,66.4-13.3,99.6c-6.1,47.6-13.5,95.1-17.2,143c-0.3,4.1-2,5.3-5.8,5.3c-9.4-0.1-18.8-0.3-28.1,0.1
	c-5.3,0.2-6-1.8-5.1-6.5c11-60.1,18.4-120.8,26-181.4c3.4-27.5,7.9-54.8,10.6-82.4c1.6-16,2.9-31.5-0.1-47.1
	c-6.1-32.2-23.5-54.3-57-61.2c-0.8-0.2-1.6-0.5-2.4-0.8c-0.2-0.1-0.3-0.4-0.5-0.6c39.3-5.3,66.8,5.4,97.4,38.9
	c24.3,26.6,36.3,60,50,92.4c22.3,52.5,44.5,105.2,66.8,157.7c1,2.4,0.5,6.8,3.9,6.6c3.3-0.1,4.1-4.3,5.2-7.1
	c11.3-28.8,22.6-57.7,33.8-86.5c12.8-33,25.7-66,38.5-99c2.8-7.2,5.7-14.4,6-22.1c0.3-5.3,2.9-6.4,7.7-6.3c16.5,0.3,33,0.3,49.5,0
	c4.9-0.1,7,1.1,7.4,6.4c4.1,52.7,12.9,104.9,19.7,157.3c5.9,45.4,12.2,90.7,18.6,136c0.6,4.2-0.1,5.7-4.4,5.6
	c-13.6-0.2-27.3-0.2-40.9,0c-4.3,0.1-5.1-1.9-5.3-5.7c-1.5-26.1-4-52.2-8.3-78c-2.5-15.2-4.5-30.7-5.9-45.8
	c-2.9-32.5-7.7-64.8-10.6-97.3C388.6,209.1,386.4,201.1,382.8,192.4z"/>
</svg>
