<?xml version="1.0" encoding="utf-8"?>
<!-- Generator: Adobe Illustrator 22.1.0, SVG Export Plug-In . SVG Version: 6.00 Build 0)  -->
<svg version="1.1" id="Layer_1" xmlns="http://www.w3.org/2000/svg" xmlns:xlink="http://www.w3.org/1999/xlink" x="0px" y="0px"
	 viewBox="0 0 512 512" style="enable-background:new 0 0 512 512;" xml:space="preserve">
<style type="text/css">
	.st0{fill:url(#SVGID_1_);}
	.st1{fill:#FFFFFF;}
	.st2{fill:url(#SVGID_2_);}
	.st3{fill:url(#SVGID_3_);}
</style>
<linearGradient id="SVGID_1_" gradientUnits="userSpaceOnUse" x1="102.6299" y1="415.4626" x2="421.0859" y2="97.0067">
	<stop  offset="0" style="stop-color:#A80000"/>
	<stop  offset="0.2467" style="stop-color:#AA0301"/>
	<stop  offset="0.4239" style="stop-color:#B10C02"/>
	<stop  offset="0.5793" style="stop-color:#BC1C05"/>
	<stop  offset="0.7222" style="stop-color:#CD3209"/>
	<stop  offset="0.8565" style="stop-color:#E24F0E"/>
	<stop  offset="0.9827" style="stop-color:#FB7214"/>
	<stop  offset="1" style="stop-color:#FF7715"/>
</linearGradient>
<path class="st0" d="M486.9,256.7C486.3,386,382.1,482.8,260.4,481C131.8,479.1,33.2,376.2,37.3,248.1
	c4-126,109.2-221.8,232.9-217.3C392.3,35.2,487.2,136.9,486.9,256.7z M238.3,280c-1-0.1-2-0.2-3-0.4c0-6.8-0.2-13.6,0-20.4
	c0.4-12.7-4.8-22.6-14.8-30c-4.8-3.5-9.8-6.7-14.8-9.9c-5.3-3.4-5.6-7.9-2.8-12.9c1.3-2.3,2.9-4.3,4.5-6.4
	c11-13.8,13.4-29.7,10.7-46.5c-1.6-10-6.6-18.5-17.1-21.8c-10.1-3.2-19.3-0.4-25.8,7.4c-5.2,6.2-9.6,13.6-12.5,21.2
	c-4.4,11.5-4.7,23.7-2,35.8c2.3,10.2,0.1,18.3-9.7,23.4c-1.5,0.8-2.7,2-4.1,2.8c-20.4,11.8-33,28.8-35.2,52.9
	c-0.2,2.8-0.9,5.6-1.3,8.4c-2.5,19.2-3.2,38.4,3.6,57c6.9,18.9,23.5,28.1,43.5,25c17.5-2.8,32.3-11,45.4-22.3
	c8.6-7.3,16.4-15.5,24.8-23.5c1.5,6.1,2.6,11.9,4.2,17.6c7.6,27.4,18.5,53,39.6,73c14.9,14.1,32.3,22.9,53.3,20.9
	c24.5-2.3,39.8-17.3,50-38.5c16.2-33.5,26.6-68.4,27.9-105.9c0.9-25.3-3.1-48.7-20.6-68.3c-4.3-4.8-8.2-9.8-12.8-14.4
	c-10.6-10.7-11.3-21.7-4.7-35.5c6-12.4,10.3-26.1,12.6-39.7c3.8-22.2-12.9-35.4-34.4-28.7c-2.9,0.9-5.8,2.2-8.4,3.7
	c-25.9,14.9-34.7,47-31.6,69.3c1.2,8.6,4.3,17,6.8,25.4c2.6,8.9,0.3,14.3-8.3,17.4c-4.4,1.6-9.2,2.3-13.8,3.3
	c-15.8,3.3-26.9,11.9-33.1,27.2C249.7,258.2,243.7,269,238.3,280z"/>
<path class="st1" d="M238.3,280c5.4-11,11.4-21.8,16-33.2c6.2-15.3,17.3-23.9,33.1-27.2c4.6-1,9.4-1.7,13.8-3.3
	c8.7-3.1,10.9-8.5,8.3-17.4c-2.5-8.4-5.6-16.8-6.8-25.4c-3.1-22.3,5.6-54.4,31.6-69.3c2.7-1.5,5.5-2.8,8.4-3.7
	c21.5-6.8,38.2,6.5,34.4,28.7c-2.3,13.6-6.6,27.3-12.6,39.7c-6.6,13.7-5.9,24.8,4.7,35.5c4.5,4.5,8.5,9.6,12.8,14.4
	c17.4,19.6,21.5,42.9,20.6,68.3c-1.3,37.5-11.7,72.4-27.9,105.9c-10.3,21.1-25.6,36.1-50,38.5c-21.1,2-38.4-6.7-53.3-20.9
	c-21-20-32-45.6-39.6-73c-1.6-5.7-2.8-11.5-4.2-17.6c-8.4,8-16.2,16.2-24.8,23.5c-13.2,11.2-28,19.5-45.4,22.3
	c-20,3.1-36.6-6-43.5-25c-6.8-18.6-6.1-37.7-3.6-57c0.4-2.8,1.1-5.6,1.3-8.4c2.1-24,14.7-41,35.2-52.9c1.4-0.8,2.7-2,4.1-2.8
	c9.8-5.1,12.1-13.2,9.7-23.4c-2.7-12.1-2.4-24.3,2-35.8c2.9-7.6,7.3-15,12.5-21.2c6.5-7.7,15.7-10.5,25.8-7.4
	c10.5,3.3,15.5,11.8,17.1,21.8c2.7,16.8,0.4,32.7-10.7,46.5c-1.6,2-3.3,4.1-4.5,6.4c-2.8,5-2.5,9.5,2.8,12.9c5,3.2,10,6.3,14.8,9.9
	c10,7.4,15.2,17.3,14.8,30c-0.2,6.8,0,13.6,0,20.4C236.3,279.8,237.3,279.9,238.3,280z M323,418.5c3.5-1.2,10.5-2.7,16.8-5.7
	c11.7-5.6,18.3-16.2,23.7-27.5c15.4-32,25-65.5,26-101.2c0.6-21.9-3.8-42-19.4-58.5c-3.9-4.1-7.3-8.8-11.2-12.9
	c-14.2-14.7-16-30.6-7-48.9c5-10.1,8.1-21.2,11.3-32.1c1.8-6.2,2-13.4-4.1-17.5c-6.3-4.2-12.8-1.1-18.7,2.4c-1,0.6-2,1.3-3,2
	c-17.5,12.6-25.9,38.7-19.8,61.4c1.5,5.5,3.7,10.8,5.2,16.3c4.3,15-2.9,28.3-17.8,33c-4.5,1.4-9.2,2.3-13.8,3.2
	c-12.2,2.3-20.1,9-25.1,20.6C260,267,253,280.6,245,293.4c-4.8,7.7-6.2,14.6-4.3,23.3c6.2,29.1,15.2,57,35.6,79.6
	C287.8,409,301.6,417.7,323,418.5z M121.3,304.1c1.1,9.4,1.4,17.1,2.9,24.5c4,19.8,16.2,27.5,35.9,23c3.4-0.8,6.8-2,10.1-3.4
	c19.5-8.4,34.1-22.8,47.6-38.7c5-5.9,7.2-11.6,5.9-19.4c-1.2-7-2.2-14.3-1.4-21.3c2.1-17.4-5.5-28.6-20.5-36
	c-1.3-0.6-2.4-1.5-3.6-2.3c-11-7.5-13.7-19.6-6.8-31c2.2-3.6,5-6.9,7.3-10.5c7.3-11.4,9.4-23.8,4.9-36.7
	c-3.1-8.8-11.3-11.2-17.9-4.6c-4.2,4.2-7.7,9.7-9.9,15.3c-4.1,10.1-4.6,20.7-2.1,31.5c3.5,15.7-1.2,28-15.4,36.4
	c-4.9,2.9-9.3,6.6-14,9.8c-9.5,6.5-15.5,15.3-17.4,26.6C124.9,280,123,292.9,121.3,304.1z"/>
<linearGradient id="SVGID_2_" gradientUnits="userSpaceOnUse" x1="242.6236" y1="362.8377" x2="425.2997" y2="180.1616">
	<stop  offset="0" style="stop-color:#A80000"/>
	<stop  offset="0.4343" style="stop-color:#A90200"/>
	<stop  offset="0.5907" style="stop-color:#AE0902"/>
	<stop  offset="0.7023" style="stop-color:#B71404"/>
	<stop  offset="0.7924" style="stop-color:#C32507"/>
	<stop  offset="0.8696" style="stop-color:#D33B0A"/>
	<stop  offset="0.9367" style="stop-color:#E7560F"/>
	<stop  offset="0.9972" style="stop-color:#FE7515"/>
	<stop  offset="1" style="stop-color:#FF7715"/>
</linearGradient>
<path class="st2" d="M323,418.5c-21.4-0.8-35.2-9.5-46.7-22.2c-20.4-22.6-29.4-50.5-35.6-79.6c-1.8-8.7-0.5-15.6,4.3-23.3
	c8-12.8,15-26.4,21.1-40.3c5.1-11.6,13-18.3,25.1-20.6c4.7-0.9,9.3-1.8,13.8-3.2c15-4.7,22.1-18,17.8-33c-1.6-5.5-3.7-10.8-5.2-16.3
	c-6.1-22.7,2.3-48.8,19.8-61.4c1-0.7,1.9-1.4,3-2c5.9-3.4,12.4-6.6,18.7-2.4c6.1,4.1,5.9,11.3,4.1,17.5c-3.2,10.9-6.3,22-11.3,32.1
	c-9,18.3-7.2,34.2,7,48.9c4,4.1,7.3,8.7,11.2,12.9c15.5,16.5,20,36.6,19.4,58.5c-1,35.7-10.6,69.2-26,101.2
	c-5.4,11.3-12,21.9-23.7,27.5C333.5,415.8,326.5,417.4,323,418.5z"/>
<linearGradient id="SVGID_3_" gradientUnits="userSpaceOnUse" x1="108.6966" y1="322.2449" x2="242.2892" y2="188.6524">
	<stop  offset="0" style="stop-color:#A80000"/>
	<stop  offset="0.4254" style="stop-color:#A80300"/>
	<stop  offset="0.7304" style="stop-color:#A90C00"/>
	<stop  offset="0.9975" style="stop-color:#AA1C00"/>
	<stop  offset="1" style="stop-color:#AA1C00"/>
</linearGradient>
<path class="st3" d="M121.3,304.1c1.7-11.2,3.5-24.1,5.6-36.9c1.9-11.4,7.9-20.1,17.4-26.6c4.7-3.2,9.1-6.9,14-9.8
	c14.2-8.4,18.9-20.7,15.4-36.4c-2.4-10.8-2-21.4,2.1-31.5c2.2-5.6,5.7-11.1,9.9-15.3c6.6-6.5,14.8-4.2,17.9,4.6
	c4.6,12.9,2.4,25.2-4.9,36.7c-2.3,3.6-5.1,6.9-7.3,10.5c-6.9,11.4-4.2,23.6,6.8,31c1.2,0.8,2.4,1.6,3.6,2.3
	c14.9,7.4,22.6,18.6,20.5,36c-0.8,6.9,0.2,14.3,1.4,21.3c1.3,7.7-0.9,13.5-5.9,19.4c-13.5,15.9-28.1,30.3-47.6,38.7
	c-3.2,1.4-6.6,2.7-10.1,3.4c-19.7,4.5-31.9-3.2-35.9-23C122.8,321.2,122.4,313.5,121.3,304.1z"/>
</svg>
