<?xml version="1.0" encoding="utf-8"?>
<!-- Generator: Adobe Illustrator 22.1.0, SVG Export Plug-In . SVG Version: 6.00 Build 0)  -->
<svg version="1.1" id="Layer_1" xmlns="http://www.w3.org/2000/svg" xmlns:xlink="http://www.w3.org/1999/xlink" x="0px" y="0px"
	 viewBox="0 0 512 512" style="enable-background:new 0 0 512 512;" xml:space="preserve">
<style type="text/css">
	.st0{fill:#24A770;}
	.st1{fill:#FFFFFF;}
</style>
<rect class="st0" width="512" height="512"/>
<path class="st0" d="M489.6,21.7c0,158.8,0,317.7,0,476.7c-155.2,0-310.4,0-465.6,0c0.1-2.3,0.3-4.6,0.3-6.9
	c0-154.8,0-309.5,0-464.3c0-5.2,0-5.2,5.2-5.2c151.7,0,303.3,0,455,0C486.2,22,487.9,21.8,489.6,21.7z M255.4,144.4
	c0.3,0.4,0.5,0.8,0.8,1.2c8.2-1.3,16.4-2.7,24.6-3.9c5-0.8,9.9-1.5,14.9-2.1c5.6-0.6,11.2-1.1,16.7-1.6c9.4-0.9,18.8-1.7,28.3-2.6
	c3.3-0.3,6.6-0.8,9.9-1c2.9-0.2,5.8,0,9.3,0c-0.8,1.3-1.3,2.3-2,3.2c-9.6,13.8-20,26.8-31.6,39c-0.8,0.9-1,2.3-1.5,3.5
	c1.2-0.2,2.6-0.1,3.7-0.7c4.7-2.6,9.2-5.6,14-8.1c12-6.3,24.1-12.3,36.1-18.5c6.4-3.3,12.6-6.9,19.2-10.5c0.6,1.1,1.2,2.1,1.6,3.1
	c3.4,7.5,6,15.2,7,23.5c1,8.7,2.9,17.3,3.8,26c0.9,10,1.1,20.1,1.6,30.2c0.1,1.2,0.5,2.4,0.7,3.7c0.4,0.1,0.7,0.1,1.1,0.2
	c0.8-1.3,1.9-2.5,2.3-3.9c1.6-5.1,3.3-10.2,4.5-15.4c2.8-12.3,5.5-24.7,8-37.1c0.9-4.7,0.7-9.6,1.7-14.3c2-9.8,3.2-19.8,2.3-29.7
	c-0.5-6,1.1-9.9,6.3-13.1c6.9-4.3,11.5-10.7,15-18c1.1-2.2,0.5-3.3-1.9-3.4c-0.8,0-1.6-0.1-2.4,0c-10.1,1.5-20.4,0.7-30.3,3.7
	c-2.2,0.7-5,0.6-7.1-0.3c-7.6-3.3-15-7.4-22.6-10.7c-7-3-14.2-5.7-21.6-7.8c-9.4-2.8-18.9-5-28.4-7.3c-8.3-2-16.6-3.8-25-5.4
	c-6.1-1.1-12.2-1.8-18.3-2.5c-1.2-0.1-2.5,0.4-3.8,0.6c0,0.4-0.1,0.9-0.1,1.3c24.6,12.9,49.7,25.1,71.7,42.4
	c-2.8,1.1-5.3,1.8-7.8,2.3c-7.4,1.6-14.8,2.8-22.1,4.7c-10.8,2.9-21.6,5.7-32.1,9.5c-14.4,5.1-28.5,11-42.7,16.8
	C257.7,142,256.6,143.4,255.4,144.4z M207.5,185.8c0.6-1.9,0.9-3.7,1.7-5.3c3.2-6.1,6.6-12.1,9.8-18.1c0.3-0.6,0.5-1.7,0.2-2.2
	c-0.3-0.4-1.4-0.5-2.1-0.4c-2,0.3-4.1,0.6-6,1.3c-12.7,4.8-24.6,11-35.8,18.6c-2,1.4-4.8,2.2-7.3,2.3c-15.9,0.2-31.9-0.7-47.6,2.8
	c-2.4,0.5-4.9,0.8-7.4,1.4c-5.1,1.1-10.3,2.2-15.3,3.5c-1,0.3-1.7,1.6-2.5,2.5c1,0.6,2,1.5,3,1.6c6.1,0.8,12.3,1.3,18.3,2.3
	c7.8,1.3,15.3,3.6,22.2,7.6c3.5,2,3.4,2.5,0.8,5.6c-7.3,8.8-15.2,17.3-21.5,26.8c-8.8,13.1-16.5,27-24.5,40.6
	c-0.5,0.9-0.2,2.3-0.3,3.4c1.1-0.4,2.4-0.6,3.2-1.3c12.1-10.6,23.9-21.4,36.2-31.7c7.2-6,15-11.3,22.5-16.9c2.2-1.7,3.8-1.8,4.6,1.5
	c1.1,4.1,2.6,8,3.9,12c3.7,11,7.4,22.1,11.2,33.1c0.3,0.8,1.4,1.2,2.1,1.8c0.6-0.8,1.6-1.6,1.9-2.5c0.4-1.3,0-2.8,0.3-4.1
	c1.7-7.4,3.2-14.9,5.3-22.2c3-10.7,6.4-21.4,9.8-32c0.3-1.1,1.7-2.3,2.8-2.5c3.8-0.8,7.6-1.3,11.5-1.6c7.9-0.6,15.7-1.4,23.6-1.3
	c15.5,0.1,31.1,0.7,46.3,4.1c2.8,0.6,5.8,0.3,8.8,0.5C286,209.5,237.5,190.7,207.5,185.8z M172.7,410.9c0.1-0.5,0.3-1.1,0.4-1.6
	c-1.4-0.8-2.8-1.8-4.3-2.5c-5.6-2.8-11.6-5-16.9-8.3c-6.7-4.3-13-9.3-19.3-14.3c-1-0.8-1.7-3.2-1.2-4.4c3.3-9.2,7.8-17.8,13.3-25.9
	c0.7-1,0.6-2.5,0.9-3.8c-1.4-0.2-2.8-0.7-4.1-0.6c-4.5,0.6-9,1.4-13.5,2.1c-4.5,0.8-9,1.4-13.4,2.4c-4.4,1-6.1,0.5-7.9-3.6
	c-2.6-5.7-5.5-11.4-7.4-17.3c-3.2-10.6-5.7-21.5-8.7-32.3c-0.3-1.1-1.6-1.8-2.4-2.8c-0.5,1-1.5,2-1.6,3c-0.5,15-1,30-1.4,45
	c-0.1,3.1,0.3,6.2,0.9,9.2c0.7,3.3-0.1,5-3.5,6.1c-7.1,2.2-14,4.8-21,7.4c-0.9,0.4-2,1.3-2.3,2.2c-0.2,0.5,0.8,1.9,1.5,2.3
	c10.4,5.8,20.9,11.5,31.2,17.4c2.4,1.4,5.2,3.1,6.3,5.4c4.8,10.1,11,19.3,18.1,27.8c2.5,3,5.3,5.8,8,8.5c0.5,0.5,1.6,0.7,2.4,0.7
	c0.3,0,0.8-1.2,0.7-1.7c-0.5-3.5-1.5-6.9-1.8-10.4c-0.5-5.6-0.7-11.2-1-17.7C141.3,408.3,156.9,410.3,172.7,410.9z M225.5,424.2
	c-0.1,0.1-0.2,0.4-0.4,0.6c-7.2,5.5-14.4,10.9-21.5,16.4c-0.7,0.6-1.1,1.7-1.6,2.6c0.9,0.2,1.9,0.7,2.7,0.5c1.8-0.3,3.5-1.1,5.3-1.5
	c12.6-2.9,24.6-7.7,36.3-13.2c3.3-1.6,6.2-3.9,10.5-3.7c5.3,0.2,10.7-0.7,16.1-1.2c2-0.2,2.8-1.2,2-3.3c-0.7-1.9-1.3-3.9-1.7-5.9
	c-0.6-3.4-0.8-6.2,2.6-9c10.2-8.7,19.9-18,29.7-27.1c0.9-0.8,1.5-1.9,2.2-2.8c-0.2-0.3-0.4-0.6-0.6-0.9c-1.2,0.4-2.4,0.6-3.4,1.2
	c-7.3,4.5-14.5,9.1-21.9,13.5c-3.5,2.1-7.4,3.7-11.2,5.6c-0.7-5.3-1.2-9.8-1.8-14.3c-0.2-1.2-0.7-2.3-1.1-3.4
	c-1.1,0.7-2.5,1.1-3.2,2.1c-4.7,5.8-9,11.8-13.9,17.5c-3.1,3.5-5.4,8.2-10.5,9.5c-1.9,0.5-3.9,0.4-5.7,1c-9.6,3.1-19.6,2.9-29.5,3.9
	c-1.2,0.1-2.3,1-3.4,1.5c0.9,0.9,1.7,2.1,2.8,2.5C211.2,419,218.4,421.6,225.5,424.2z"/>
<path class="st1" d="M255.4,144.4c1.2-1,2.2-2.5,3.6-3c14.2-5.7,28.3-11.6,42.7-16.8c10.5-3.7,21.3-6.6,32.1-9.5
	c7.3-1.9,14.7-3.2,22.1-4.7c2.5-0.5,5.1-1.2,7.8-2.3c-22-17.3-47.1-29.5-71.7-42.4c0-0.4,0.1-0.9,0.1-1.3c1.3-0.2,2.6-0.7,3.8-0.6
	c6.1,0.7,12.3,1.4,18.3,2.5c8.4,1.6,16.7,3.4,25,5.4c9.5,2.3,19.1,4.5,28.4,7.3c7.3,2.2,14.5,4.8,21.6,7.8c7.7,3.3,15,7.4,22.6,10.7
	c2,0.9,4.9,1,7.1,0.3c9.9-3,20.2-2.3,30.3-3.7c0.8-0.1,1.6-0.1,2.4,0c2.4,0.1,3,1.2,1.9,3.4c-3.5,7.3-8.1,13.8-15,18
	c-5.2,3.2-6.8,7-6.3,13.1c0.9,9.9-0.3,19.9-2.3,29.7c-1,4.7-0.8,9.6-1.7,14.3c-2.5,12.4-5.2,24.8-8,37.1c-1.2,5.2-2.8,10.3-4.5,15.4
	c-0.4,1.4-1.5,2.6-2.3,3.9c-0.4-0.1-0.7-0.1-1.1-0.2c-0.3-1.2-0.7-2.4-0.7-3.7c-0.5-10.1-0.7-20.2-1.6-30.2
	c-0.8-8.7-2.8-17.3-3.8-26c-0.9-8.3-3.6-16-7-23.5c-0.5-1-1-2-1.6-3.1c-6.6,3.6-12.8,7.2-19.2,10.5c-12,6.2-24.1,12.2-36.1,18.5
	c-4.8,2.5-9.3,5.5-14,8.1c-1,0.6-2.4,0.5-3.7,0.7c0.5-1.2,0.6-2.6,1.5-3.5c11.6-12.1,22-25.2,31.6-39c0.6-0.9,1.1-1.9,2-3.2
	c-3.5,0-6.4-0.1-9.3,0c-3.3,0.2-6.6,0.7-9.9,1c-9.4,0.9-18.8,1.7-28.3,2.6c-5.6,0.5-11.2,1-16.7,1.6c-5,0.6-9.9,1.3-14.9,2.1
	c-8.2,1.3-16.4,2.6-24.6,3.9C256,145.2,255.7,144.8,255.4,144.4z"/>
<path class="st1" d="M207.5,185.8c30,4.8,78.5,23.7,79.9,31.2c-3-0.1-6,0.2-8.8-0.5c-15.3-3.4-30.8-4.1-46.3-4.1
	c-7.9,0-15.8,0.8-23.6,1.3c-3.8,0.3-7.7,0.8-11.5,1.6c-1.1,0.2-2.4,1.5-2.8,2.5c-3.4,10.6-6.8,21.3-9.8,32
	c-2.1,7.3-3.6,14.8-5.3,22.2c-0.3,1.3,0,2.8-0.3,4.1c-0.3,0.9-1.2,1.7-1.9,2.5c-0.7-0.6-1.8-1-2.1-1.8c-3.8-11-7.5-22-11.2-33.1
	c-1.3-4-2.8-7.9-3.9-12c-0.9-3.3-2.4-3.2-4.6-1.5c-7.5,5.6-15.4,10.9-22.5,16.9c-12.3,10.3-24.1,21.2-36.2,31.7
	c-0.8,0.7-2.1,0.9-3.2,1.3c0.1-1.1-0.2-2.5,0.3-3.4c8-13.6,15.7-27.5,24.5-40.6c6.4-9.5,14.2-17.9,21.5-26.8
	c2.6-3.1,2.7-3.6-0.8-5.6c-6.9-4-14.4-6.3-22.2-7.6c-6.1-1-12.2-1.4-18.3-2.3c-1.1-0.1-2-1.1-3-1.6c0.8-0.9,1.5-2.2,2.5-2.5
	c5.1-1.3,10.2-2.4,15.3-3.5c2.5-0.5,5-0.8,7.4-1.4c15.7-3.5,31.7-2.5,47.6-2.8c2.5,0,5.2-0.9,7.3-2.3c11.2-7.7,23.1-13.9,35.8-18.6
	c1.9-0.7,4-1,6-1.3c0.7-0.1,1.8,0,2.1,0.4c0.3,0.5,0.1,1.6-0.2,2.2c-3.2,6-6.6,12-9.8,18.1C208.4,182.1,208.1,183.9,207.5,185.8z"/>
<path class="st1" d="M172.7,410.9c-15.8-0.6-31.4-2.5-47.7-7.5c0.3,6.5,0.5,12.1,1,17.7c0.3,3.5,1.2,6.9,1.8,10.4
	c0.1,0.6-0.4,1.7-0.7,1.7c-0.8,0-1.9-0.1-2.4-0.7c-2.8-2.7-5.5-5.5-8-8.5c-7.1-8.6-13.3-17.7-18.1-27.8c-1.1-2.3-3.9-4-6.3-5.4
	c-10.3-5.9-20.8-11.5-31.2-17.4c-0.7-0.4-1.7-1.7-1.5-2.3c0.3-0.9,1.3-1.9,2.3-2.2c6.9-2.6,13.9-5.2,21-7.4c3.4-1.1,4.2-2.8,3.5-6.1
	c-0.6-3-1-6.1-0.9-9.2c0.3-15,0.8-30,1.4-45c0-1,1-2,1.6-3c0.8,0.9,2.1,1.7,2.4,2.8c2.9,10.7,5.4,21.6,8.7,32.3
	c1.8,6,4.8,11.6,7.4,17.3c1.8,4.1,3.5,4.6,7.9,3.6c4.4-1,9-1.7,13.4-2.4c4.5-0.8,9-1.6,13.5-2.1c1.3-0.2,2.7,0.3,4.1,0.6
	c-0.3,1.3-0.2,2.8-0.9,3.8c-5.4,8.1-10,16.7-13.3,25.9c-0.4,1.2,0.2,3.6,1.2,4.4c6.3,5,12.5,10,19.3,14.3c5.3,3.3,11.3,5.6,16.9,8.3
	c1.5,0.7,2.8,1.7,4.3,2.5C173,409.8,172.9,410.3,172.7,410.9z"/>
<path class="st1" d="M225.5,424.2c-7.2-2.6-14.3-5.1-21.4-7.8c-1.1-0.4-1.9-1.7-2.8-2.5c1.1-0.5,2.2-1.4,3.4-1.5
	c9.9-1,19.9-0.8,29.5-3.9c1.8-0.6,3.8-0.5,5.7-1c5.1-1.4,7.4-6,10.5-9.5c4.9-5.6,9.2-11.7,13.9-17.5c0.8-1,2.1-1.4,3.2-2.1
	c0.4,1.1,0.9,2.3,1.1,3.4c0.6,4.5,1.2,9,1.8,14.3c3.8-1.9,7.7-3.5,11.2-5.6c7.4-4.4,14.6-9,21.9-13.5c1-0.6,2.3-0.8,3.4-1.2
	c0.2,0.3,0.4,0.6,0.6,0.9c-0.7,0.9-1.4,2-2.2,2.8c-9.8,9.1-19.5,18.4-29.7,27.1c-3.4,2.9-3.2,5.7-2.6,9c0.4,2,1,4,1.7,5.9
	c0.8,2.1,0,3.1-2,3.3c-5.4,0.5-10.7,1.4-16.1,1.2c-4.2-0.2-7.2,2.1-10.5,3.7c-11.7,5.5-23.7,10.3-36.3,13.2
	c-1.8,0.4-3.5,1.2-5.3,1.5c-0.8,0.2-1.8-0.3-2.7-0.5c0.5-0.9,0.8-2,1.6-2.6c7.1-5.5,14.4-11,21.5-16.4
	C225.3,424.5,225.5,424.2,225.5,424.2z"/>
</svg>
