<?xml version="1.0" encoding="utf-8"?>
<!-- Generator: Adobe Illustrator 22.1.0, SVG Export Plug-In . SVG Version: 6.00 Build 0)  -->
<svg version="1.1" id="Layer_1" xmlns="http://www.w3.org/2000/svg" xmlns:xlink="http://www.w3.org/1999/xlink" x="0px" y="0px"
	 viewBox="0 0 512 512" style="enable-background:new 0 0 512 512;" xml:space="preserve">
<style type="text/css">
	.st0{fill:#24A770;}
</style>
<path class="st0" d="M0,0v512h512V0H0z M172.7,410.9c-15.8-0.6-31.4-2.5-47.7-7.5c0.3,6.5,0.5,12.1,1,17.7c0.3,3.5,1.2,6.9,1.8,10.4
	c0.1,0.6-0.4,1.7-0.7,1.7c-0.8,0-1.9-0.1-2.4-0.7c-2.8-2.7-5.5-5.5-8-8.5c-7.1-8.6-13.3-17.7-18.1-27.8c-1.1-2.3-3.9-4-6.3-5.4
	c-10.3-5.9-20.8-11.5-31.2-17.4c-0.7-0.4-1.7-1.7-1.5-2.3c0.3-0.9,1.3-1.9,2.3-2.2c6.9-2.6,13.9-5.2,21-7.4c3.4-1.1,4.2-2.8,3.5-6.1
	c-0.6-3-1-6.1-0.9-9.2c0.3-15,0.8-30,1.4-45c0-1,1-2,1.6-3c0.8,0.9,2.1,1.7,2.4,2.8c2.9,10.7,5.4,21.6,8.7,32.3
	c1.8,6,4.8,11.6,7.4,17.3c1.8,4.1,3.5,4.6,7.9,3.6c4.4-1,9-1.7,13.4-2.4c4.5-0.8,9-1.6,13.5-2.1c1.3-0.2,2.7,0.3,4.1,0.6
	c-0.3,1.3-0.2,2.8-0.9,3.8c-5.4,8.1-10,16.7-13.3,25.9c-0.4,1.2,0.2,3.6,1.2,4.4c6.3,5,12.5,10,19.3,14.3c5.3,3.3,11.3,5.6,16.9,8.3
	c1.5,0.7,2.8,1.7,4.3,2.5C173,409.8,172.9,410.3,172.7,410.9z M194.4,217.8c-3.4,10.6-6.8,21.3-9.8,32c-2.1,7.3-3.6,14.8-5.3,22.2
	c-0.3,1.3,0,2.8-0.3,4.1c-0.3,0.9-1.2,1.7-1.9,2.5c-0.7-0.6-1.8-1-2.1-1.8c-3.8-11-7.5-22-11.2-33.1c-1.3-4-2.8-7.9-3.9-12
	c-0.9-3.3-2.4-3.2-4.6-1.5c-7.5,5.6-15.4,10.9-22.5,16.9c-12.3,10.3-24.1,21.2-36.2,31.7c-0.8,0.7-2.1,0.9-3.2,1.3
	c0.1-1.1-0.2-2.5,0.3-3.4c8-13.6,15.7-27.5,24.5-40.6c6.4-9.5,14.2-17.9,21.5-26.8c2.6-3.1,2.7-3.6-0.8-5.6
	c-6.9-4-14.4-6.3-22.2-7.6c-6.1-1-12.2-1.4-18.3-2.3c-1.1-0.1-2-1.1-3-1.6c0.8-0.9,1.5-2.2,2.5-2.5c5.1-1.3,10.2-2.4,15.3-3.5
	c2.5-0.5,5-0.8,7.4-1.4c15.7-3.5,31.7-2.5,47.6-2.8c2.5,0,5.2-0.9,7.3-2.3c11.2-7.7,23.1-13.9,35.8-18.6c1.9-0.7,4-1,6-1.3
	c0.7-0.1,1.8,0,2.1,0.4c0.3,0.5,0.1,1.6-0.2,2.2c-3.2,6-6.6,12-9.8,18.1c-1,1.6-1.3,3.4-1.9,5.3c30,4.8,78.5,23.7,79.9,31.2
	c-3-0.1-6,0.2-8.8-0.5c-15.3-3.4-30.8-4.1-46.3-4.1c-7.9,0-15.8,0.8-23.6,1.3c-3.8,0.3-7.7,0.8-11.5,1.6
	C196.1,215.5,194.8,216.8,194.4,217.8z M305.3,379.5c-9.8,9.1-19.5,18.4-29.7,27.1c-3.4,2.9-3.2,5.7-2.6,9c0.4,2,1,4,1.7,5.9
	c0.8,2.1,0,3.1-2,3.3c-5.4,0.5-10.7,1.4-16.1,1.2c-4.2-0.2-7.2,2.1-10.5,3.7c-11.7,5.5-23.7,10.3-36.3,13.2
	c-1.8,0.4-3.5,1.2-5.3,1.5c-0.8,0.2-1.8-0.3-2.7-0.5c0.5-0.9,0.8-2,1.6-2.6c7.1-5.5,14.4-11,21.5-16.4c0.4-0.4,0.6-0.7,0.6-0.7
	c-7.2-2.6-14.3-5.1-21.4-7.8c-1.1-0.4-1.9-1.7-2.8-2.5c1.1-0.5,2.2-1.4,3.4-1.5c9.9-1,19.9-0.8,29.5-3.9c1.8-0.6,3.8-0.5,5.7-1
	c5.1-1.4,7.4-6,10.5-9.5c4.9-5.6,9.2-11.7,13.9-17.5c0.8-1,2.1-1.4,3.2-2.1c0.4,1.1,0.9,2.3,1.1,3.4c0.6,4.5,1.2,9,1.8,14.3
	c3.8-1.9,7.7-3.5,11.2-5.6c7.4-4.4,14.6-9,21.9-13.5c1-0.6,2.3-0.8,3.4-1.2c0.2,0.3,0.4,0.6,0.6,0.9
	C306.8,377.6,306.1,378.7,305.3,379.5z M453.5,97.5c-3.5,7.3-8.1,13.8-15,18c-5.2,3.2-6.8,7-6.3,13.1c0.9,9.9-0.3,19.9-2.3,29.7
	c-1,4.7-0.8,9.6-1.7,14.3c-2.5,12.4-5.2,24.8-8,37.1c-1.2,5.2-2.8,10.3-4.5,15.4c-0.4,1.4-1.5,2.6-2.3,3.9c-0.4-0.1-0.7-0.1-1.1-0.2
	c-0.3-1.2-0.7-2.4-0.7-3.7c-0.5-10.1-0.7-20.2-1.6-30.2c-0.8-8.7-2.8-17.3-3.8-26c-0.9-8.3-3.6-16-7-23.5c-0.5-1-1-2-1.6-3.1
	c-6.6,3.6-12.8,7.2-19.2,10.5c-12,6.2-24.1,12.2-36.1,18.5c-4.8,2.5-9.3,5.5-14,8.1c-1,0.6-2.4,0.5-3.7,0.7c0.5-1.2,0.6-2.6,1.5-3.5
	c11.6-12.1,22-25.2,31.6-39c0.6-0.9,1.1-1.9,2-3.2c-3.5,0-6.4-0.1-9.3,0c-3.3,0.2-6.6,0.7-9.9,1c-9.4,0.9-18.8,1.7-28.3,2.6
	c-5.6,0.5-11.2,1-16.7,1.6c-5,0.6-9.9,1.3-14.9,2.1c-8.2,1.3-16.4,2.6-24.6,3.9c0-0.4-0.3-0.8-0.6-1.2c1.2-1,2.2-2.5,3.6-3
	c14.2-5.7,28.3-11.6,42.7-16.8c10.5-3.7,21.3-6.6,32.1-9.5c7.3-1.9,14.7-3.2,22.1-4.7c2.5-0.5,5.1-1.2,7.8-2.3
	c-22-17.3-47.1-29.5-71.7-42.4c0-0.4,0.1-0.9,0.1-1.3c1.3-0.2,2.6-0.7,3.8-0.6c6.1,0.7,12.3,1.4,18.3,2.5c8.4,1.6,16.7,3.4,25,5.4
	c9.5,2.3,19.1,4.5,28.4,7.3c7.3,2.2,14.5,4.8,21.6,7.8c7.7,3.3,15,7.4,22.6,10.7c2,0.9,4.9,1,7.1,0.3c9.9-3,20.2-2.3,30.3-3.7
	c0.8-0.1,1.6-0.1,2.4,0C454,94.2,454.6,95.3,453.5,97.5z"/>
</svg>
