<?xml version="1.0" encoding="utf-8"?>
<!-- Generator: Adobe Illustrator 22.1.0, SVG Export Plug-In . SVG Version: 6.00 Build 0)  -->
<svg version="1.1" id="Layer_1" xmlns="http://www.w3.org/2000/svg" xmlns:xlink="http://www.w3.org/1999/xlink" x="0px" y="0px"
	 viewBox="0 0 512 512" style="enable-background:new 0 0 512 512;" xml:space="preserve">
<style type="text/css">
	.st0{fill:#0D6B50;}
	.st1{fill:#159596;}
	.st2{fill:#EA222E;}
</style>
<path class="st0" d="M323.6,234.9c-6.2-15.7-12.6-31.4-18.9-47c-1.1-2.7-2.1-5.5-3.2-8.3c-0.4-0.9-1.1-1.6-2.1-3.1
	c-1.8,4-3.4,7.3-4.8,10.6c-8,18.7-15.9,37.4-24,56.1c-2.1,4.9-4.3,10.1-7.7,14.2c-2.3,2.8-6.6,4.4-10.2,5.8
	c-6,2.4-12.2,4.6-18.5,6.1c-10.9,2.7-21.9,4.8-32.9,7c-0.5,0.1-1.1-0.1-2.2-0.3c1.5-3.2,2.8-6.2,4.3-9.1
	c9.5-18.4,19.1-36.7,28.6-55.1c11.8-22.9,23.5-45.9,35.3-68.8c0.4-0.7,1.1-1.4,1.3-2.1c2-8.1,7.6-9.1,15-8.8
	c14.1,0.6,28.2,0.2,42.3,0.1c2.8,0,4.3,0.6,5.6,3.5c9.4,20.9,19.2,41.7,28.8,62.5c2.5,5.5,5.1,10.9,7.5,16.5
	c1,2.4,16.8,37,17.7,38.9c9,19.4,17.9,38.9,26.8,58.3c3.9,8.5,7.9,16.9,11.9,25.4c0.5,1.1,0.8,2.4,1.4,4.1c-1.9,0.1-3.4,0.3-4.9,0.3
	c-14.8,0-29.6-0.3-44.4,0c-9.1,0.1-11.8-2.5-14.9-10.3c-5.6-14-11.1-28.1-16.6-42.2c-1.3-3.2-2.6-6.3-3.7-9.6
	C340.2,276.7,326.1,241.2,323.6,234.9z"/>
<path class="st1" d="M234.8,168.1c-6.6,0-12.1-0.4-17.4,0.1c-4.8,0.4-9.6,1.3-14.2,2.7c-8.6,2.7-17.4,5.3-25.6,9.1
	c-11,5.1-21.8,10.8-32.2,17.1c-16.2,9.8-30.9,21.5-43.7,35.4c-10.2,11.1-18.9,23.2-22.7,38c-2.5,9.7-0.9,17.6,8.1,25.5
	c6.9,6,15.4,7.9,23.9,8.6c10.3,0.8,20.9,0.9,31.2,0c11.2-1,22.3-3.3,33.4-5.2c7.9-1.4,15.7-2.9,23.6-4.6c5.3-1.1,10.6-2.5,15.7-4.1
	c12.7-4.1,25.4-8.2,37.8-12.9c9.3-3.5,18.2-7.9,27.2-12.1c12.5-5.9,24.9-12,37.3-18c1.3-0.6,2.4-1.5,3.7-2.2
	c6.1-3.3,50.4-27.2,52.5-28.4c15-8.6,30-17.1,45-25.6c13.5-7.7,26.9-15.4,40.4-23c0.9-0.5,1.9-0.8,3.3-1.4c0.1,1.5,0.3,2.6,0.3,3.8
	c0,11.4,0,22.8,0.1,34.1c0,2.5-0.7,3.9-3.1,5.2c-23.9,13.3-47.6,26.8-71.4,40.1c-2.2,1.2-48.1,26.8-50.7,28.3
	c-10.9,6.1-21.7,12.5-33,18c-13.1,6.4-26.5,12.4-40.1,17.9c-11.8,4.7-23.9,8.9-36.1,12.5c-10.6,3.1-21.6,4.9-32.2,7.8
	c-12.6,3.4-25.7,3.5-38.5,5.2c-4.3,0.5-8.8,0.1-13.1-0.3c-6.5-0.6-13-0.9-19.3-2.3c-8.3-2-16.7-4.4-24.6-7.6
	c-12-5-21.1-13.9-28.3-24.5c-6.9-10.1-11.8-21.3-13.5-33.5c-1.1-7.6-1.9-15.3-1.3-22.9c0.8-10.2,5-19.5,10.4-28.3
	c10.9-17.7,25.5-31.7,42.2-43.6c10.3-7.4,20.6-14.8,31.6-20.9c11.1-6.2,23-10.9,34.6-16.1c11.3-5.1,23.5-7,35.7-7.9
	c6.4-0.4,11.2,0.8,13.3,6.9C228.3,148.3,231.4,157.9,234.8,168.1z"/>
<path class="st0" d="M247.3,401.2c-60.3,0-120.6,0-181,0c-5.3,0-5.3,0-5.3-5.2c0-8.2,0-16.4,0-24.5c0-5.2,0-5.2,5.4-5.2
	c41.4,0,82.7,0,124.1,0c79.4,0,158.8,0,238.2,0c4.8,0,4.8,0,4.8,4.9c0,8.5-0.2,17.1,0.1,25.6c0.1,3.8-1.2,4.5-4.6,4.5
	C368.4,401.2,307.8,401.2,247.3,401.2z"/>
<path class="st2" d="M356.9,159.6c5.3,2.7,9.4,0.8,13.4-1.4c12.6-6.9,25.2-14,37.8-21c15.8-8.7,31.6-17.5,47.5-26.2
	c6.7-3.7,6.8-3.5,6.8,4.3c0,8.5,0,17.1,0,25.6c0,2.2-0.6,3.6-2.7,4.8c-22.3,12.2-44.4,24.6-66.6,37c-2.6,1.4-5.1,2.9-7.7,4.4
	c-6,3.3-10.3,2.8-15.1-2C363.3,178.2,359.3,169.7,356.9,159.6z"/>
</svg>
