<?xml version="1.0" encoding="utf-8"?>
<!-- Generator: Adobe Illustrator 22.1.0, SVG Export Plug-In . SVG Version: 6.00 Build 0)  -->
<svg version="1.1" id="Layer_1" xmlns="http://www.w3.org/2000/svg" xmlns:xlink="http://www.w3.org/1999/xlink" x="0px" y="0px"
	 viewBox="0 0 512 512" style="enable-background:new 0 0 512 512;" xml:space="preserve">
<style type="text/css">
	.st0{fill:#154D74;}
	.st1{fill:#FFFFFF;}
</style>
<path class="st0" d="M511.8,66.9v378.4c-0.5,0.8-0.8,1.7-1.1,2.6c-3.9,32-32.9,64.5-78.9,64.2c-117.3-0.7-234.7-0.2-352-0.3
	c-7.6,0.2-15.1-0.6-22.5-2.2c-35-8.6-57.1-37.8-57.1-75.2C0,315.4,0,196.7,0.1,77.9c0-2.4,0-4.8,0.2-7.1C2.4,43.1,15.7,22.3,40,9.2
	C48.1,4.8,57.7,3,66.6,0H445c1.5,0.6,3.1,1.1,4.6,1.5c20.3,3.7,37.2,13.6,48.1,31C504.1,42.9,507.2,55.3,511.8,66.9z M82.7,82.9
	v346.4h346.1V82.9H82.7z"/>
<path class="st1" d="M82.7,82.9h346.1v346.4H82.7V82.9z M132.6,379h246.4V132.7H132.6L132.6,379L132.6,379z"/>
<path class="st0" d="M132.6,379V132.7h246.4V379L132.6,379L132.6,379z M354.3,165.3c-20.2,0-38.2,0.2-56.1-0.1
	c-5.4-0.1-8.6,1.8-11.7,6c-41,56.2-82.1,112.3-123.3,168.4c-1.4,1.9-2.7,4-4.8,7.3c19.6,0,37.6-0.2,55.5,0.1
	c5.4,0.1,8.6-1.6,11.7-5.9c33.5-45.9,67-91.8,100.7-137.5C335.2,191.4,344.1,179.2,354.3,165.3L354.3,165.3z"/>
<path class="st1" d="M354.3,165.3c-10.2,13.9-19,26.1-28,38.3c-33.6,45.8-67.2,91.6-100.7,137.5c-3.2,4.3-6.4,6-11.7,5.9
	c-17.9-0.3-35.9-0.1-55.5-0.1c2.1-3.2,3.4-5.4,4.8-7.3c41.1-56.1,82.2-112.3,123.3-168.4c3.1-4.3,6.3-6.1,11.7-6
	C316.1,165.5,334,165.3,354.3,165.3z"/>
</svg>
