<?xml version="1.0" encoding="utf-8"?>
<!-- Generator: Adobe Illustrator 22.1.0, SVG Export Plug-In . SVG Version: 6.00 Build 0)  -->
<svg version="1.1" id="Layer_1" xmlns="http://www.w3.org/2000/svg" xmlns:xlink="http://www.w3.org/1999/xlink" x="0px" y="0px"
	 viewBox="0 0 512 512" style="enable-background:new 0 0 512 512;" xml:space="preserve">
<style type="text/css">
	.st0{fill:#128585;}
	.st1{fill:#FFFFFF;}
</style>
<path class="st0" d="M202.9,512c-67.5,0-134.9,0-202.4,0c0-170.8,0-341.7,0-512.5c98.6,0,197.2,0,295.7,0
	c0.1,15.1,0.4,30.1,0.4,45.2c0.1,82.3,0.2,164.6,0.2,246.9c0,1.2-0.1,2.5-0.2,3.7c-0.5,0.3-1,0.7-1.5,1c-0.5-1-1-2.2-1.7-3.1
	c-2.8-3.7-5.6-7.4-8.5-11c-14.4-18.2-28.8-36.3-43.2-54.4c-10.1-12.7-20.1-25.5-30.3-38.1c-1.1-1.3-3.9-2.3-5.5-1.9
	c-1.4,0.4-2.7,2.8-3.1,4.6c-0.5,2.3-0.1,4.8-0.1,7.1C202.8,303.6,202.9,407.8,202.9,512z M70.6,258.4
	C70.7,258.4,70.7,258.4,70.6,258.4c0.1,21.3,0.1,42.6,0.1,63.9c0,4.5,1.3,6.1,5.2,6.1c15,0,29.9,0.3,44.8-0.1
	c12.1-0.3,23.1-4.8,32.6-12.3c14.8-11.7,21.5-27.9,23.5-45.9c2.1-18.4-0.4-36.5-9.7-53c-9.5-16.6-24.3-26.2-43-28
	c-15.4-1.5-31.1-0.6-46.6-0.7c-5.8,0-6.9,1.1-6.9,6.9C70.6,216.3,70.6,237.4,70.6,258.4z"/>
<path class="st0" d="M311.3-0.5c66.8,0,133.5,0,200.3,0c0,170.8,0,341.7,0,512.5c-98.1,0-196.2,0-294.3,0c0-96.9,0-193.9,0-290.8
	c0.3-0.1,0.6-0.2,0.9-0.2c3.4,4.2,6.9,8.4,10.2,12.7c9.9,12.4,19.7,24.8,29.6,37.3c11.9,15,23.8,29.9,35.6,44.8
	c3.1,3.9,6.2,7.9,9.6,11.6c1,1.1,3.4,2,4.5,1.5c1.3-0.6,2.1-2.7,2.9-4.2c0.3-0.7,0.1-1.6,0.1-2.5c0.1-102.9,0.1-205.8,0.2-308.6
	C311,8.8,311.2,4.2,311.3-0.5z M423.4,252.4c11.1-10.4,11.3-24,9-37.9c-2.2-13.4-16.9-24.9-32.3-25.5c-16.8-0.6-33.7-0.5-50.6-0.6
	c-6.4-0.1-7.5,1.1-7.5,7.5c0,41.7,0.1,83.5,0.1,125.2c0,0.8,0,1.7,0,2.5c0.2,2.9,1.7,4.7,4.8,4.7c18.7,0,37.3,0.5,56-0.3
	c14-0.6,26.2-6.2,34.4-18.4c5.3-7.9,6-16.8,5.8-26.1c-0.2-6.5-2-12.4-5.9-17.3C433.2,261.4,428.3,257.2,423.4,252.4z"/>
<path class="st1" d="M311.3-0.5c-0.1,4.7-0.3,9.3-0.4,14c-0.1,102.9-0.2,205.8-0.2,308.6c0,0.8,0.3,1.8-0.1,2.5
	c-0.8,1.6-1.6,3.6-2.9,4.2c-1.1,0.5-3.5-0.4-4.5-1.5c-3.4-3.7-6.4-7.7-9.6-11.6c-11.9-14.9-23.8-29.9-35.6-44.8
	c-9.9-12.4-19.7-24.9-29.6-37.3c-3.4-4.2-6.8-8.4-10.2-12.7c-0.3,0.1-0.6,0.2-0.9,0.2c0,96.9,0,193.9,0,290.8c-4.8,0-9.6,0-14.4,0
	c-0.1-104.2-0.1-208.4-0.2-312.5c0-2.4-0.4-4.9,0.1-7.1c0.4-1.7,1.7-4.2,3.1-4.6c1.6-0.4,4.4,0.5,5.5,1.9
	c10.3,12.6,20.3,25.4,30.3,38.1c14.4,18.1,28.8,36.3,43.2,54.4c2.9,3.6,5.7,7.3,8.5,11c0.7,0.9,1.1,2.1,1.7,3.1c0.5-0.3,1-0.7,1.5-1
	c0.1-1.2,0.2-2.5,0.2-3.7c-0.1-82.3-0.1-164.6-0.2-246.9c0-15.1-0.3-30.1-0.4-45.2C301.3-0.5,306.3-0.5,311.3-0.5z"/>
<path class="st1" d="M70.6,258.4c0-21.1,0-42.1,0-63.2c0-5.8,1.1-7,6.9-6.9c15.5,0.1,31.2-0.8,46.6,0.7c18.7,1.8,33.5,11.4,43,28
	c9.4,16.5,11.8,34.6,9.7,53c-2.1,18-8.7,34.2-23.5,45.9c-9.5,7.5-20.4,12-32.6,12.3c-14.9,0.4-29.9,0.2-44.8,0.1
	c-3.9,0-5.2-1.6-5.2-6.1C70.7,301,70.7,279.7,70.6,258.4C70.7,258.4,70.7,258.4,70.6,258.4z M85.3,257.9
	C85.3,257.9,85.3,257.9,85.3,257.9c-0.1,17.5-0.1,34.9-0.1,52.4c0,2.3,0,4.2,3.3,4.2c9.2-0.2,18.4,0,27.6-0.2
	c12.1-0.2,23-4,31.7-12.7c9.7-9.7,13.8-22,14.6-35.2c0.4-7.4-0.3-15-1.3-22.4c-1.3-10.7-5.6-20.2-13.1-28.1
	c-8.5-9-19.7-12.4-31.6-13.2c-9-0.7-18.2-0.1-27.3-0.4c-3.3-0.1-4,1.1-3.9,4.1C85.4,223.5,85.3,240.7,85.3,257.9z"/>
<path class="st1" d="M423.4,252.4c4.8,4.8,9.8,9,13.7,13.9c3.9,4.9,5.7,10.8,5.9,17.3c0.2,9.2-0.5,18.2-5.8,26.1
	c-8.2,12.2-20.4,17.7-34.4,18.4c-18.6,0.8-37.3,0.3-56,0.3c-3.1,0-4.5-1.8-4.8-4.7c-0.1-0.8,0-1.7,0-2.5c0-41.7-0.1-83.5-0.1-125.2
	c0-6.4,1.1-7.6,7.5-7.5c16.9,0.1,33.7,0,50.6,0.6c15.4,0.6,30.1,12.1,32.3,25.5C434.8,228.3,434.5,242,423.4,252.4z M356.7,288.3
	C356.6,288.3,356.6,288.3,356.7,288.3c0,7.4,0.1,14.8-0.1,22.2c-0.1,3,0.9,3.9,3.9,3.9c10.4-0.1,20.8,0.2,31.2-0.2
	c6.3-0.2,12.6-0.8,18.8-2.2c18.2-4,22.4-24,16-36c-5.2-9.7-14.2-13.3-24.4-13.7c-14.1-0.5-28.2-0.1-42.3-0.2c-2.3,0-3.1,0.7-3.1,3.1
	C356.7,273,356.7,280.7,356.7,288.3z M356.9,247.4c0.7,0.1,1.1,0.3,1.6,0.3c13.9,0,27.7,0.1,41.6-0.2c3-0.1,6.2-1,8.9-2.3
	c8.4-4.4,12.3-15.2,9.7-25.5c-1.3-5.4-3.8-10-8.9-12.8c-6-3.1-12.5-4.1-19-4.4c-9-0.4-17.9-0.2-26.9-0.3c-2.2,0-4.5,0-6.9,0
	C356.9,217.5,356.9,232.2,356.9,247.4z"/>
<path class="st0" d="M85.3,257.9c0-17.2,0.1-34.4-0.1-51.7c0-3,0.6-4.2,3.9-4.1c9.1,0.3,18.2-0.3,27.3,0.4
	c11.9,0.9,23.1,4.2,31.6,13.2c7.5,7.9,11.7,17.4,13.1,28.1c0.9,7.4,1.7,15,1.3,22.4c-0.8,13.3-4.9,25.6-14.6,35.2
	c-8.7,8.7-19.5,12.5-31.7,12.7c-9.2,0.2-18.4,0-27.6,0.2c-3.3,0.1-3.3-1.8-3.3-4.2C85.2,292.8,85.2,275.4,85.3,257.9
	C85.3,257.9,85.3,257.9,85.3,257.9z"/>
<path class="st0" d="M356.7,288.3c0-7.7,0.1-15.3,0-23c0-2.3,0.7-3.1,3.1-3.1c14.1,0.1,28.2-0.3,42.3,0.2c10.2,0.4,19.2,4,24.4,13.7
	c6.4,12,2.2,31.9-16,36c-6.1,1.4-12.5,2-18.8,2.2c-10.4,0.4-20.8,0-31.2,0.2c-3,0-4-0.9-3.9-3.9
	C356.7,303.2,356.6,295.7,356.7,288.3C356.6,288.3,356.6,288.3,356.7,288.3z"/>
<path class="st0" d="M356.9,247.4c0-15.1,0-29.9,0-45.2c2.4,0,4.7,0,6.9,0c9,0.1,17.9-0.1,26.9,0.3c6.5,0.3,13.1,1.3,19,4.4
	c5.2,2.7,7.6,7.3,8.9,12.8c2.5,10.3-1.3,21.2-9.7,25.5c-2.7,1.4-5.9,2.3-8.9,2.3c-13.9,0.3-27.7,0.1-41.6,0.2
	C358,247.7,357.6,247.5,356.9,247.4z"/>
</svg>
