<?xml version="1.0" encoding="utf-8"?>
<!-- Generator: Adobe Illustrator 22.1.0, SVG Export Plug-In . SVG Version: 6.00 Build 0)  -->
<svg version="1.1" id="Layer_1" xmlns="http://www.w3.org/2000/svg" xmlns:xlink="http://www.w3.org/1999/xlink" x="0px" y="0px"
	 viewBox="0 0 512 512" style="enable-background:new 0 0 512 512;" xml:space="preserve">
<style type="text/css">
	.st0{fill:#28741B;}
	.st1{fill:#E44820;}
	.st2{fill:#FFFFFF;}
</style>
<path class="st0" d="M392.1,427.1c0-16,0-31.9,0-47.9c0-1.7,0.5-2.2,2.1-2.1c3.5,0.1,6.9,0.1,10.4,0c1.7-0.1,2.2,0.5,2.2,2.2
	c-0.1,17.1,0,34.3,0,51.4c0,0.9,0,1.9,0,2.8c0,0.4-0.1,0.9,0.4,1.1s0.8-0.3,1.1-0.6c2.4-2.4,4.7-4.9,7.1-7.3
	c5.6-5.8,11.2-11.5,16.7-17.3c0.7-0.8,1.6-1.1,2.6-1.1c5.2,0,10.4,0,15.6,0c0.5,0,1.2-0.2,1.5,0.4c0.3,0.7-0.5,0.9-0.9,1.2
	c-10,10-20.1,19.9-30.2,29.8c-1.7,1.6-1.7,1.6,0,3.3c10.9,10.7,21.9,21.5,32.8,32.2c0.3,0.3,0.9,0.6,0.7,1.2
	c-0.2,0.6-0.8,0.4-1.3,0.4c-5.8,0-11.5,0-17.3,0c-0.9,0-1.5-0.3-2.1-1c-8.3-8.6-16.6-17.1-24.9-25.7c-0.4-0.4-0.8-1.3-1.6-0.9
	c-0.6,0.3-0.4,1.1-0.4,1.7c0,7.9,0,15.7,0,23.6c0,1.8-0.5,2.4-2.3,2.3c-3.6-0.1-7.2-0.1-10.8,0c-1.3,0-1.7-0.5-1.7-1.8
	C392.1,459.2,392.1,443.1,392.1,427.1L392.1,427.1z"/>
<path class="st0" d="M243.9,427.1c0-15.8,0-31.7,0-47.5c0-2.4,0-2.4,2.5-2.4c3.3,0,6.7,0.1,10,0c1.7-0.1,2.2,0.6,2.2,2.3
	c0,17.7,0,35.4,0,53.1c0,0.3,0,0.6,0,0.9c0,0.5-0.2,1.1,0.4,1.3c0.6,0.2,0.9-0.4,1.2-0.7c4.7-4.9,9.4-9.8,14.2-14.6
	c3-3.2,6.1-6.3,9.1-9.5c0.9-1,2-1.5,3.4-1.5c5.1,0.1,10.1,0,15.2,0c0.5,0,1.2-0.2,1.5,0.5c0.2,0.6-0.5,0.8-0.8,1.1
	c-8.9,8.8-17.7,17.5-26.6,26.3c-1.3,1.3-2.6,2.7-4,3.9c-1.2,1-1,1.7,0,2.7c9.4,9.1,18.7,18.3,28.1,27.5c1.7,1.7,3.4,3.4,5.2,5.1
	c0.3,0.3,0.8,0.5,0.6,1c-0.1,0.5-0.6,0.5-1.1,0.5c-5.9,0-11.8,0-17.6,0c-0.9,0-1.5-0.4-2.1-1.1c-8.3-8.6-16.7-17.2-25-25.8
	c-0.4-0.4-0.7-1.1-1.3-0.8c-0.7,0.3-0.4,1.1-0.4,1.7c0,7.9,0,15.7,0,23.6c0,2.3-0.1,2.4-2.4,2.4c-3.5,0-6.9-0.1-10.4,0
	c-1.6,0-2-0.5-2-2C243.9,459,243.9,443,243.9,427.1z"/>
<path class="st0" d="M117.7,432.9c-0.9-7.1-3.5-13.6-8.9-18.6c-4.7-4.5-10.5-6.4-16.9-7.1c-16.3-1.9-31.8,8.8-35.7,24.7
	c-1.9,7.9-1.9,15.9,0.2,23.8c2.5,9.5,8.1,16.5,17.3,20.4c5.7,2.4,11.8,2.8,18,2.4c7.2-0.5,14-2,20.2-6c0.7-0.5,1.5-0.9,1.5-1.8
	c0-4,0-8.1,0-12.2c-0.1-0.8-0.4-1-1.1-0.5c-0.4,0.3-0.9,0.7-1.3,1c-6.5,4.9-13.8,7.5-22.1,7.2c-11.1-0.4-17.3-7.1-18.7-16.9
	c-0.3-1.7,0.2-2.2,1.9-2.2c7.3,0,14.6,0,21.9,0c7.4,0,14.9,0,22.2,0.2c1.5,0,2.1-0.4,2.1-2C118.2,441.2,118.3,437,117.7,432.9z
	 M101.4,434.7c-4.9,0-9.8,0-14.7,0c-4.7,0-9.4-0.1-14.1,0c-1.7,0-2.2-0.3-1.7-2.1c3.9-12.9,16.7-16.5,25.5-11.3
	c4.5,2.7,6.1,7.2,6.6,12.2C103.2,434.8,102.2,434.7,101.4,434.7z"/>
<path class="st0" d="M345.4,406.9c6.6,0.1,13.8,1.6,20.1,6.2c6.5,4.7,10.3,11.3,11.9,19c1.6,7.9,1.6,15.9-1,23.6
	c-3.2,9.7-9.5,16.6-19,20.1c-11.3,4.2-22.8,4-33.5-1.8c-8.1-4.3-13.1-11.3-15.3-20.2c-2.1-8.7-1.7-17.3,1.3-25.7
	c3.3-8.9,9.5-15,18.3-18.5C333.3,407.5,338.8,406.8,345.4,406.9z M343.1,419.1c-6.4-0.1-11.9,2-16,7.1c-3,3.7-4.3,8.1-4.7,12.8
	c-0.5,5.4-0.3,10.7,2,15.6c3.7,8.1,11.2,12.2,20.5,11.5c8.1-0.6,13.9-4.3,16.7-12.1c1.8-4.9,2.1-10,1.6-15.2
	c-0.4-3.8-1.2-7.6-3.1-10.9C356.3,421.4,350.3,419.1,343.1,419.1z"/>
<path class="st0" d="M181.7,466.1c0-2,0-4,0-5.9c0-0.5-0.2-1.2,0.4-1.5c0.5-0.2,0.9,0.3,1.3,0.6c6.9,5.3,14.6,7.6,23.3,6.8
	c1.4-0.1,2.8-0.4,4.2-0.8c2.6-0.9,4.5-2.4,4.9-5.3s-0.8-5.2-3.1-6.9c-3.4-2.4-7.3-3.5-11.1-5c-4.8-1.9-9.6-3.6-13.6-7.1
	c-8.5-7.4-8.2-19.9,0.4-27.3c4.2-3.6,9.2-5.4,14.6-6.3c7.8-1.2,15.4-0.6,22.8,2.1c1.3,0.5,1.8,1.2,1.8,2.6c-0.1,3.6,0,7.3,0,10.9
	c0,0.5,0.2,1.2-0.4,1.5c-0.6,0.4-1.1-0.1-1.5-0.4c-5.5-3.7-11.7-5.2-18.3-5c-3.3,0.1-6.4,0.7-8.8,3.2c-2.7,2.7-2.5,6.7,0.3,9.2
	c2.7,2.5,6.1,3.4,9.4,4.7c5.3,2.1,10.7,4.1,15.5,7.5c9.2,6.6,9.2,20.6,0.8,27.7c-3.9,3.3-8.4,5.2-13.3,6.1
	c-9.4,1.7-18.7,1.2-27.6-2.8c-1.4-0.6-2-1.4-1.9-2.9C181.8,470,181.7,468.1,181.7,466.1L181.7,466.1z"/>
<path class="st0" d="M149.6,444.9c-6.1,0-12.1,0-18.2,0c-1.5,0-1.9-0.5-1.9-1.9c0.1-2.6,0.1-5.2,0-7.8c-0.1-1.7,0.5-2.1,2.1-2.1
	c10.6,0.1,21.1,0,31.7,0c1.7,0,3.3,0,5,0c1.1,0,1.5,0.4,1.5,1.5c-0.1,2.7-0.1,5.4,0,8.2c0.1,1.6-0.4,2.1-2.1,2.1
	C161.7,444.8,155.6,444.9,149.6,444.9L149.6,444.9z"/>
<rect class="st1" width="512" height="352"/>
<path d="M347.2,152.9c-2,0-3-0.8-3.1-2.9c-0.3-4.5-0.1-9-0.1-13.5c0-0.9,0.1-1.9-0.9-2.5c-4.2,0-8.3,0.1-12.5,0.1
	c-1.1,0-1.8-0.5-1.8-1.7c-1-2.6-0.6-5.2-0.7-7.9c0-3.5,0-3.5-3.5-3.4c-4.9,0-9.7,0.1-14.7,0c-6.3-0.2-5.9-0.1-5.8-5.7
	c0-2.6,0-5,0-7.6c0-2.2-0.4-2.5-2.7-2.6c-10.2,0-20.4,0-30.6,0c-0.9,0-1.7,0-2.7,0c-3.7-0.1-3.9-0.4-4.1-4.1
	c-0.1-3.2-0.4-3.5-3.5-3.5c-6.6,0-13.2,0-19.8,0c-3.2,0-4.1-0.9-4.1-4.1c0-15.6,0-31.1,0-46.7c0-2.9-0.1-2.9-3-3.2
	c-2.4-0.3-4.7,0-7-0.2c-1.3-0.2-2.2-0.7-2.5-2.2c-0.5-2.7-0.1-5.4-0.2-8.2c0-0.9,0-1.9,0-2.9c0-1.7-0.7-2.6-2.7-2.6
	c-5.6,0.1-11.3,0.1-16.9,0c-3.3-0.1-6.6-0.4-9.8-0.3c-3.6,0.1-4.3,0.8-4.3,4.3c0,2.6,0.1,5.1,0,7.6c-0.2,3.6-1.6,4.1-4,4
	c-1.7-0.1-3.6,0-5.3,0c-1.3,0-1.9,0.7-2,1.9c0,0.7,0,1.5,0,2.3c0,34.8,0,69.7,0.1,104.5c0,3.8-1.9,5.4-5.8,4.8
	c-0.9-0.1-1.8-0.4-2.8-0.7c-1.4-0.5-2.3-1.4-2.3-3.2c0.1-1.8,0-3.7,0-5.5c0-1.9-0.6-2.7-2.7-2.7c-5.4,0-10.9,0-16.4,0
	c-2.6,0-5.2-0.2-7.8-0.4c-1.5-0.1-2.6,0.5-2.6,2.3c0,1.2-0.2,2.4-0.3,3.6c-0.1,1.4-0.7,2-2.2,2c-0.9,0-1.7,0-2.7,0
	c-2.5,0-3.2,0.6-3.2,3.2c0,10.2,0,20.5,0,30.8c0,3.2,0.5,3.6,3.7,3.6c1.3,0,2.7,0.1,4,0c3.3-0.3,4.1,1.6,4.4,4.2c0.2,1.3,0,2.7,0,4
	c0,2.9,1.2,4,4,4.1c1.7,0,3.4,0,5.1,0.3c1.9,0.4,2.8,1.3,2.7,3.4c-0.1,5.3,0,10.7,0,16c0,3,0.9,3.8,3.9,3.8c1.4,0,2.9,0,4.4,0
	c0.7,0,1.4-0.1,1.5,0.9c1.5,0.4,1.3,1.7,1.3,2.8c0,5.3,0,10.6,0,15.9c0,1,0,2.2,0.4,3.2c4,0.4,10,1.5,14,2.3
	c0.5-0.8-1.2-3.4-1.2-4.4c0-0.6-0.3-1.4,0.5-1.7c0.2-4.9,0.2-9.7,0-14.7c0.2-0.6,0.3-1.2-0.5-1.5c-1.9-0.9-3.9-0.4-5.9-0.6
	c-1.7-0.2-3.8,0.3-5.1-1.5c0,0-0.4-0.3-0.2-0.5c-0.1-5.5-0.2-11.2-0.2-16.7c0-1.9,0.1-3.8,0.2-5.7c0-1.7-0.6-2.6-2.5-2.5
	c-1.7,0.1-3.6,0-5.3,0c-1.5,0-2.5-0.8-2.8-2.3c-0.6-2.4-0.3-4.7-0.3-7c-0.1-2.9-0.5-3.3-3.4-3.3c-2.3,0-4.4,0-6.7-0.1
	c-2.5-0.1-3.2-0.7-3.2-3.2c0-7.4,0-14.9,0-22.2c0-4,1.2-5.1,5.2-5.2c5.7,0,11.4,0,17.1,0c3.2,0,4.3,0.9,4.9,4.1c0.6,3,0.4,6,0.2,9.1
	c-0.2,2.2,0.3,2.8,2.5,2.8c1.7,0,3.6,0,5.3,0s2.9,0.8,3.2,2.6c0.2,1,0.3,2.2,0.3,3.2c0,8.9,0,17.7,0,26.6c0,3.4,0.3,3.7,3.7,3.7
	c0.7,0,1.5,0,2.3,0c2.7,0,3.6-0.8,3.5-3.5c-0.4-6,0.2-12.2,0.1-18.2c-0.1-8.8,0-17.7,0-26.5c0-12.4,0-24.9,0-37.3s0-24.8,0-37.3
	s0-25,0-37.5c0-3.5,0.7-4.3,4.3-4.3c7.7-0.1,15.5,0,23.2,0c2.2,0,3.1,0.9,3.3,3.2c0.1,1.4,0,2.9,0,4.4c0,35.8,0,71.6,0,107.4
	c0,2.6,0,2.6,2.7,2.7c1.5,0,3,0.5,4.5,0.2c1.7-0.3,2.4-1.1,2.4-3c-0.1-14.3,0-28.8,0-43.1c0-3.9,0.6-4.6,4.6-4.7
	c4.5-0.1,9.1-0.1,13.7-0.1c2.9,0,5.7,0,8.5,0c0.6-0.1,0.6-0.1,1.6,0.3c1.7,0.5,1.9,1.8,1.9,3.5c0,14.7,0,29.4,0,44.1
	c0,0.9,0.1,1.7,0.2,2.7c2,0,4.2-0.1,6.2,0c1.8,0.1,2.5-0.6,2.5-2.5c-0.1-12.3,0-24.6,0-36.8c0-1.3,0-2.6,1.7-2.9
	c0.1,0,0.2,0.1,0.4,0.1c7.6,0,15.2,0,22.7,0c2.4,0.1,3,0.7,3.3,2.8c0.5,3.3,0.5,6.6,0,9.8c-0.1,0.5-0.1,1.1-0.1,1.7
	c0,12,0,24.1,0,36.1c0,2.9,0.2,3.1,3.2,3.1c2,0,4.2,0,6.2,0c1,0,2-0.2,2.9-0.7c0.3-0.8-0.1-12-0.1-13.1c0-6.6,0-13.1,0-19.8
	c0-3.9,0.6-4.8,4.4-5.1c3.5-0.2,7.1-0.1,10.7-0.1c0.6,0,1.2,0.2,1.5,0.8c0.5,0.5,1,0.9,1.4,1.4c1.2,0.3,1.2,1.2,1.2,2.3
	c0,4.2,0,8.3,0,12.5c0,1.1,0.2,2.2,1.1,2.9c1.2,0.3,2.5,0.2,3.6,0.2l1.4,0.6c1.1,0.1,1.5,1,1.7,1.9c0.2,1.5,0.4,3.2,0.4,4.7
	c0,24.5,0,49,0,73.5c0,3.5-1,4.9-3.7,5.5c-1,0.1-1.9,0.2-3,0.3c-0.9,0.3-5.2,0.6-5.9,1c-0.1,0.9-0.2,1.8-0.2,2.9
	c-0.1,9.8-0.1,19.6-0.2,29.4c-0.1,0.8-0.5,1.2-1.3,1.2c-4.1,0-8.1,0.1-12.2,0.1c-2.6,0-2.9,0.5-2.7,3.1c0.4,7,0.2,13.9-0.1,20.9
	c-0.1,1-0.6,1.6-1.5,2c-1,0.5-2.2,0.6-3.4,0.6c-31.1,0-62.2,0-93.3,0c-3.6,0-4.2-0.6-4.2-4.2c0-6.6,0-13.2,0-19.8c0-2.7-0.3-3-3-3
	c-3.1,0-6.3-0.1-9.3,0c-1.7,0.1-2.7-0.8-3.2-2.4c-0.3-0.9-0.5-1.9-0.4-3c0-5.2,0-10.3,0-15.6c0-2.6-0.3-2.8-2.9-2.8
	c-1.5,0-3.1-0.1-4.6,0c-1.6,0.1-3-0.4-4-1.6c-0.4,0.1-1-1.4-1.5-1.3c-0.3,7.7-0.1,17.2,0,24.8c0,2.8,0.7,3.2,3.6,3.2
	c2.6,0,5,0,7.6,0c3.6,0.1,4.7,1.2,4.7,4.8c0,10,0,20,0,30c0,3.5,0.1,3.6,3.7,3.6c37.4,0,74.8,0,112.2,0.1c4.9,0,9.8,0.3,14.8,0.3
	c2.4,0,3-0.6,2.9-3c-0.4-8.8-0.3-17.6-0.3-26.4c0-5.8,0.2-6,5.8-6c2.6,0,5.2,0,7.8,0c2.4,0,3.1-0.6,3-3.1
	c-0.4-9.9-0.3-19.9-0.3-29.8c0-1.1,0-2.2,0-3.3c0.3-3.3,0.6-3.5,3.9-3.9c2.2-0.2,2.9-1,2.9-3.4c0-26.6,0-53.3,0-79.8
	C351.2,154,350.5,153,347.2,152.9z"/>
<path class="st2" d="M179.5,250.2c0.5-0.8-0.7-3.4-0.7-4.4c0-0.6-0.8-1.4,0-1.7c0.2-4.9,0.2-9.7,0-14.7c0.2-0.6,0.3-1.2-0.5-1.5
	c-1.9-0.9-3.9-0.4-5.9-0.6c-1.7-0.2-3.8,0.3-5.1-1.5c0,0-0.4-0.3-0.2-0.5c-0.1-5.5-0.2-11.2-0.2-16.7c0-1.9,0.1-3.8,0.2-5.7
	c0-1.7-0.6-2.6-2.5-2.5c-1.7,0.1-3.6,0-5.3,0c-1.5,0-2.5-0.8-2.8-2.3c-0.6-2.4-0.3-4.7-0.3-7c-0.1-2.9-0.5-3.3-3.4-3.3
	c-2.3,0-4.4,0-6.7-0.1c-2.5-0.1-3.2-0.7-3.2-3.2c0-7.4,0-14.9,0-22.2c0-4,1.2-5.1,5.2-5.2c5.7,0,11.4,0,17.1,0
	c3.2,0,4.3,0.9,4.9,4.1c0.6,3,0.4,6,0.2,9.1c-0.2,2.2,0.3,2.8,2.5,2.8c1.7,0,3.6,0,5.3,0c1.7,0,2.9,0.8,3.2,2.6
	c0.2,1,0.3,2.2,0.3,3.2c0,8.9,0,17.7,0,26.6c0,3.4,0.3,3.7,3.7,3.7c0.7,0,1.5,0,2.3,0c2.7,0,3.6-0.8,3.5-3.5
	c-0.4-6,0.2-12.2,0.1-18.2c-0.1-8.8,0-17.7,0-26.5c0-12.4,0-24.9,0-37.3s0-24.8,0-37.3s0-25,0-37.5c0-3.5,0.7-4.3,4.3-4.3
	c7.7-0.1,15.5,0,23.2,0c2.2,0,3.1,0.9,3.3,3.2c0.1,1.4,0,2.9,0,4.4c0,35.8,0,71.6,0,107.3c0,2.6,0,2.6,2.7,2.7c1.5,0,3,0.5,4.5,0.2
	c1.7-0.3,2.4-1.1,2.4-3c-0.1-14.3,0-28.8,0-43.1c0-3.9,0.6-4.6,4.6-4.7c4.5-0.1,9.1-0.1,13.7-0.1c2.9,0,5.7,0,8.5,0
	c0.6-0.1,0.6-0.1,1.6,0.3c1.7,0.5,1.9,1.8,1.9,3.5c0,14.7,0,29.4,0,44.1c0,0.9,0.1,1.7,0.2,2.7c2,0,4.2-0.1,6.2,0
	c1.8,0.1,2.5-0.6,2.5-2.5c-0.1-12.3,0-24.6,0-36.8c0-1.3,0-2.6,1.7-2.9c0.1,0,0.2,0.1,0.4,0.1c7.6,0,15.2,0,22.7,0
	c2.4,0.1,3,0.7,3.3,2.8c0.5,3.3,0.5,6.6,0,9.8c-0.1,0.5-0.1,1.1-0.1,1.7c0,12,0,24.1,0,36.1c0,2.9,0.2,3.1,3.2,3.1c2,0,4.2,0,6.2,0
	c1,0,2-0.2,2.9-0.7c0.3-0.8-0.1-12-0.1-13.1c0-6.6,0-13.1,0-19.8c0-3.9,0.6-4.8,4.4-5.1c3.5-0.2,7.1-0.1,10.7-0.1
	c0.6,0,1.2,0.2,1.5,0.8c0.5,0.5,1,0.9,1.4,1.4c1.2,0.3,1.2,1.2,1.2,2.3c0,4.2,0,8.3,0,12.5c0,1.1,0.2,2.2,1.1,2.9
	c1.2,0.3,2.5,0.2,3.6,0.2l1.4,0.6c1.1,0.1,1.5,1,1.7,1.9c0.2,1.5,0.4,3.2,0.4,4.7c0,24.5,0,49,0,73.5c0,3.5-1,4.9-3.7,5.5
	c-1,0.1-1.9,0.2-3,0.3c-0.9,0.3-5.2,0.6-5.9,1c-0.1,0.9-0.2,1.8-0.2,2.9c-0.1,9.8-0.1,19.6-0.2,29.4c-0.1,0.8-0.5,1.2-1.3,1.2
	c-4.1,0-8.1,0.1-12.2,0.1c-2.6,0-2.9,0.5-2.7,3.1c0.4,7,0.2,13.9-0.1,20.9c-0.1,1-0.6,1.6-1.5,2c-1,0.5-2.2,0.6-3.4,0.6
	c-31.1,0-62.2,0-93.3,0c-3.6,0-4.2-0.6-4.2-4.2c0-6.6,0-13.2,0-19.8c0-2.7-0.3-3-3-3c-3.1,0-6.3-0.1-9.3,0c-1.7,0.1-2.7-0.8-3.2-2.4
	c-0.3-0.9-0.5-1.9-0.4-3c0-5.2,0-10.3,0-15.6c0-2.6-0.3-2.8-2.9-2.8c-1.5,0-3.1-0.1-4.6,0c-1.6,0.1-3-0.4-4-1.6"/>
</svg>
