<?xml version="1.0" encoding="utf-8"?>
<!-- Generator: Adobe Illustrator 22.1.0, SVG Export Plug-In . SVG Version: 6.00 Build 0)  -->
<svg version="1.1" id="Layer_1" xmlns="http://www.w3.org/2000/svg" xmlns:xlink="http://www.w3.org/1999/xlink" x="0px" y="0px"
	 viewBox="0 0 512 512" style="enable-background:new 0 0 512 512;" xml:space="preserve">
<style type="text/css">
	.st0{fill:#E82134;}
	.st1{fill:#FFFFFF;}
</style>
<path class="st0" d="M454.5,254.7c-0.3,106.5-85.1,192.1-192.4,192.3c-106.6,0.2-194.8-85.7-192.6-197.1
	C71.6,147.6,153.8,62,262.2,62C369.3,62.1,454.4,147.6,454.5,254.7z M160.2,325c1.5-2.6,2.5-4.4,3.6-6c10.5-15.7,21.1-31.3,31.6-47
	c16-23.8,31.9-47.6,47.8-71.4c12.4-18.4,24.8-36.9,37.3-55.2c1.8-2.6,1.1-3.8-1.3-5c-6.5-3.4-13.4-5.3-20.7-5.4
	c-19.1-0.2-34.3,8.3-45.4,22.9c-12.8,16.8-24.2,34.7-36.1,52.3c-18,26.6-35.8,53.3-54,79.8c-10.5,15.2-13.9,31.3-8.4,48.9
	c6.4,20.4,26.6,35.1,48.2,35.1c68.1,0.1,136.2,0,204.2,0c1.6,0,3.1-0.3,5.4-0.6c-1.4-2.1-2.3-3.7-3.4-5c-11-13.1-22.1-26.1-33-39.2
	c-2.5-3.1-5.3-4.3-9.2-4.2c-53.7,0.1-107.3,0.1-161,0.1C164.4,325,162.8,325,160.2,325z M308.8,248.1c1.4,1.9,2.1,3.1,3,4.2
	c4.7,5.5,9.3,10.9,14,16.3c12.6,14.6,25.2,29.1,37.8,43.7c10.4,12,20.8,24.1,31.2,36.1c2.9,3.4,3.6,3.3,5.9-0.3
	c5.7-8.9,9.4-18.3,10.4-29c1.6-16.3-2.9-30.5-13.3-42.9c-13.6-16.2-27.7-32.1-41.5-48.2c-17.1-19.8-34.2-39.7-51.3-59.6
	c-1.8-2.1-2.9-2.4-4.6,0.3c-8,12.7-16.3,25.2-24.5,37.8c-15.8,24.5-31.6,48.9-47.4,73.4c-2.3,3.5-4.4,7.1-6.8,11
	c1.2,0.4,1.8,0.7,2.4,0.7c18,0,36,0.1,54-0.1c1.3,0,3-1.1,3.7-2.2c4.1-6.1,7.9-12.3,11.9-18.5C298.6,263.9,303.3,256.7,308.8,248.1z
	"/>
<path class="st1" d="M160.2,325c2.6,0,4.2,0,5.8,0c53.7,0,107.3,0,161-0.1c4,0,6.7,1.2,9.2,4.2c10.9,13.2,22,26.2,33,39.2
	c1.1,1.3,2,2.9,3.4,5c-2.3,0.3-3.9,0.6-5.4,0.6c-68.1,0-136.2,0.1-204.2,0c-21.6,0-41.8-14.8-48.2-35.1c-5.5-17.7-2.1-33.8,8.4-48.9
	c18.2-26.4,36-53.2,54-79.8c11.9-17.5,23.3-35.5,36.1-52.3c11.1-14.6,26.4-23.1,45.4-22.9c7.3,0.1,14.2,2,20.7,5.4
	c2.4,1.3,3.1,2.4,1.3,5c-12.5,18.3-25,36.8-37.3,55.2c-16,23.8-31.9,47.6-47.8,71.4c-10.5,15.7-21.1,31.3-31.6,47
	C162.7,320.6,161.7,322.4,160.2,325z"/>
<path class="st1" d="M308.8,248.1c-5.5,8.6-10.2,15.7-14.8,22.9c-4,6.2-7.8,12.4-11.9,18.5c-0.7,1.1-2.4,2.2-3.7,2.2
	c-18,0.1-36,0.1-54,0.1c-0.6,0-1.2-0.3-2.4-0.7c2.4-3.9,4.5-7.5,6.8-11c15.8-24.5,31.6-49,47.4-73.4c8.1-12.6,16.4-25.1,24.5-37.8
	c1.7-2.7,2.8-2.3,4.6-0.3c17.1,19.9,34.2,39.7,51.3,59.6c13.8,16.1,27.9,31.9,41.5,48.2c10.3,12.3,14.8,26.6,13.3,42.9
	c-1,10.7-4.8,20.1-10.4,29c-2.3,3.6-3,3.6-5.9,0.3c-10.4-12-20.8-24.1-31.2-36.1c-12.6-14.6-25.2-29.1-37.8-43.7
	c-4.7-5.4-9.4-10.9-14-16.3C310.9,251.3,310.2,250.1,308.8,248.1z"/>
</svg>
