<?xml version="1.0" encoding="utf-8"?>
<!-- Generator: Adobe Illustrator 22.1.0, SVG Export Plug-In . SVG Version: 6.00 Build 0)  -->
<svg version="1.1" id="Layer_1" xmlns="http://www.w3.org/2000/svg" xmlns:xlink="http://www.w3.org/1999/xlink" x="0px" y="0px"
	 viewBox="0 0 512 512" style="enable-background:new 0 0 512 512;" xml:space="preserve">
<style type="text/css">
	.st0{fill:#E44820;}
	.st1{fill:#FCFCFB;}
	.st2{fill:#F29D34;}
	.st3{fill:#717170;}
	.st4{fill:#28741B;}
</style>
<path class="st0" d="M0.5,359c0-118.9,0-237.9,0-356.8c0-1.6,0.4-1.8,1.8-1.8c169.3,0,338.6,0,507.9,0c1.4,0,1.8,0.2,1.8,1.8
	c-0.1,118.9,0,237.9,0,356.8c-1.5,0-3-0.1-4.4-0.1c-168.1,0-336.3,0-504.4,0C2.2,359,1.3,359,0.5,359z M183.5,142.6
	c-1.2-0.1-2.3-0.3-3.5-0.3c-5.7,0-11.3,0-17,0c-3,0-3.9,0.9-4.1,3.9c-0.2,3.8-0.6,4.3-4.5,4.3c-1.9,0-3,0.8-3.2,2.7
	c-0.8,0.3-1.6,0.2-2.4,0.3c-2.8,0.2-3.5,1.1-3.7,3.8c-0.1,3-1,3.9-4.1,4c-2.9,0.1-3.7,1-3.7,3.8c0,9.9,0,19.8,0,29.6
	c0,0.8,0,1.6,0.2,2.4c0.4,2.2,1.4,3,3.7,3.1c1.5,0.1,3.1,0,4.6,0c2.2,0,3,0.8,3,3c0,1.5,0,3.1,0,4.6c0.1,2.6,1,3.4,3.5,3.5
	c1.5,0,3.1-0.1,4.6,0c1.4,0.1,3,0.4,2.9,2.4c-0.1,4.1,0.2,8.3-0.2,12.4c-0.2,2.1-0.3,4.3,0.2,6.5c0.2,0.7,0.5,1.2,1.2,1.5
	c3.3,0.9,6.7,0.7,10,0.4c1.5,0.4,1.3,1.7,1.3,2.7c0,5.2,0,10.3,0,15.5c0,1,0,2.1,0.4,3.1c-0.7,1.5-0.3,2.2,1.5,2.3
	c1.9,0.1,3.8,0,5.7,0c2.4,0,3,0.7,3,3.1c0,6.1,0.1,12.2,0,18.4c0,3.4,1.3,5,4.9,4.9c2.5,0,5.1-0.1,7.6,0c2.5,0,3.1,0.7,3.1,3.1
	c0,10.3,0,20.6,0,31c0,3.4,1.1,4.5,4.5,4.6c0.6,0,1.1,0,1.7,0c23.8,0,47.6-0.1,71.4,0c17.6,0.1,35.2-0.3,52.8,0.2
	c1.3,0,2.2-0.6,2.5-2c0.5-2.6,0.1-5.2,0.3-7.8c0-0.8-0.2-1.6,0.7-2.2c0.4,1,1.1,1,2,0.8c1.2-0.3,2.5-0.3,3.7-0.1
	c1.3,0.3,2.6,0.3,3.9,0.2c2-0.1,3.6-1.8,3.6-3.7c0-6.2,0-12.5,0-18.7c-0.1-1,0.2-1.7,1.3-2.1c1.3-0.5,1.9-1.6,1.8-3.1
	c-0.1-2,0-4,0-6.1c0-0.8,0-1.5,1.1-1.5c2.7,0,5.4,0,8.2,0c4.1,0,4.8-0.7,4.7-4.7c-0.1-6.2,0-12.4-0.1-18.5c-0.1-4.4,0-8.9,0.1-13.3
	c0.1-2.4,0.2-2.6,2.6-2.8c2.2-0.2,2.7-0.6,2.6-2.9c-0.2-6,0.7-11.9,0.1-17.9c-0.3-3.5,0-7.1,0.2-10.7c0.3-7.2,0.2-14.3,0-21.5
	c0-2.1-0.4-4.3-0.2-6.5c0.6-8,0.2-15.9,0.2-23.9c0-2.5-0.7-3-3.2-3c-1.9,0-3.2-0.8-3.4-2.7c-0.4-4.1-1.1-8.2-0.5-12.3
	c0.4-2.7-0.7-4.3-3.3-4.8c-0.9-0.2-1.7-0.2-2.6,0c-2.5,0.5-5,0.2-7.5-0.4c-1-0.2-1.8-0.7-2-1.7c-0.2-1.4-0.5-3-0.3-4.4
	c0.3-3.5-0.8-4.8-4.3-4.8c-4.9,0-9.8,0-14.7,0c-2.8,0-4.4-1.9-4.2-4.7c0.2-2,0.3-4,0.3-6c0-3.6-0.8-4.4-4.5-4.4
	c-10.4,0-20.8,0-31.2,0c-2.9,0-4-1.3-3.6-4c0.4-2.7-0.5-3.8-3.3-3.8c-6.4,0-12.7,0-19.1,0c-4.4,0-4.8-0.3-5.2-5.2c0-0.2,0-0.4,0-0.6
	c0-14.5,0-28.9,0-43.4c0-0.6,0-1.3-0.1-1.8c-0.3-1.4-0.9-2.6-2.6-2.7c-1.6-0.1-3.3-0.1-4.9,0c-2.4,0.3-3.9-0.9-3.9-3.4
	c0-2.3-0.1-4.7,0-7c0.2-2.8-0.8-4.5-4.3-4.5c-8.7,0-17.3-0.7-25.9-0.5c-2.6,0.1-3.9,1.4-3.9,4.1c0,1.8,0.2,3.6-0.4,5.3
	c-3.4,0.5-6.9,0.2-10.3,0.4c-3.2,0.2-4,0.8-4,4.1c0,2.8,0,5.7,0,8.5c0,2.5-0.6,3.1-3,3.1c-1.4,0-2.9,0.1-4.3,0
	c-1.9-0.3-3,0.9-3.9,2.2c-0.6,0.9-0.4,1.9-0.4,2.9c0,26.8,0,53.7,0,80.5C183.8,140.3,184,141.5,183.5,142.6z"/>
<path class="st1" d="M0.5,359c0.9,0,1.7-0.1,2.6-0.1c168.1,0,336.3,0,504.4,0c1.5,0,3,0,4.4,0.1c0,49.9,0,99.8,0,149.7
	c0,1.3-0.2,1.7-1.7,1.7c-169.4,0-338.8,0-508.2,0c-1.5,0-1.7-0.4-1.7-1.7C0.5,458.9,0.5,408.9,0.5,359z M392.1,427.1
	C392.1,427.1,392.1,427.1,392.1,427.1c0,16,0,32-0.1,48.1c0,1.3,0.4,1.8,1.7,1.8c3.6,0,7.2-0.1,10.8,0c1.8,0.1,2.3-0.6,2.3-2.3
	c-0.1-7.9,0-15.7,0-23.6c0-0.6-0.3-1.4,0.4-1.7c0.8-0.4,1.2,0.5,1.6,0.9c8.3,8.5,16.6,17.1,24.9,25.7c0.6,0.6,1.2,1,2.1,1
	c5.8,0,11.5,0,17.3,0c0.5,0,1.1,0.1,1.3-0.4c0.2-0.6-0.4-0.8-0.7-1.2c-10.9-10.7-21.9-21.5-32.8-32.2c-1.7-1.7-1.7-1.7,0-3.3
	C430.9,429.9,441,420,451,410c0.3-0.3,1.2-0.5,0.9-1.2c-0.3-0.6-1-0.4-1.5-0.4c-5.2,0-10.4,0-15.6,0c-1.1,0-1.9,0.3-2.6,1.1
	c-5.6,5.8-11.1,11.6-16.7,17.3c-2.4,2.4-4.7,4.9-7.1,7.3c-0.3,0.3-0.6,0.8-1.1,0.6c-0.5-0.2-0.4-0.7-0.4-1.1c0-0.9,0-1.9,0-2.8
	c0-17.1,0-34.3,0-51.4c0-1.7-0.5-2.3-2.2-2.2c-3.5,0.1-6.9,0.1-10.4,0c-1.6,0-2.1,0.5-2.1,2.1C392.2,395.2,392.1,411.2,392.1,427.1z
	 M243.9,427.1c0,16,0,31.9,0,47.9c0,1.5,0.4,2.1,2,2c3.5-0.1,6.9,0,10.4,0c2.3,0,2.4-0.1,2.4-2.4c0-7.9,0-15.7,0-23.6
	c0-0.6-0.3-1.4,0.4-1.7c0.6-0.3,0.9,0.4,1.3,0.8c8.4,8.6,16.7,17.2,25,25.8c0.6,0.6,1.2,1.1,2.1,1.1c5.9,0,11.8,0,17.6,0
	c0.4,0,0.9,0.1,1.1-0.5c0.1-0.5-0.3-0.7-0.6-1c-1.7-1.7-3.5-3.4-5.2-5.1c-9.4-9.2-18.7-18.4-28.1-27.5c-1-1-1.2-1.7,0-2.7
	c1.4-1.2,2.6-2.6,4-3.9c8.9-8.8,17.8-17.5,26.6-26.3c0.3-0.3,1-0.5,0.8-1.1c-0.3-0.6-0.9-0.5-1.5-0.5c-5.1,0-10.1,0.1-15.2,0
	c-1.4,0-2.5,0.5-3.4,1.5c-3,3.2-6.1,6.3-9.1,9.5c-4.7,4.9-9.4,9.8-14.2,14.6c-0.3,0.3-0.6,0.9-1.2,0.7c-0.6-0.2-0.4-0.8-0.4-1.3
	c0-0.3,0-0.6,0-0.9c0-17.7,0-35.4,0-53.1c0-1.7-0.5-2.3-2.2-2.3c-3.3,0.1-6.7,0-10,0c-2.5,0-2.5,0-2.5,2.4
	C243.9,395.4,243.9,411.2,243.9,427.1z M94,447.1C94,447.1,94,447.1,94,447.1c7.4,0,14.8,0,22.3,0c1.5,0,2.1-0.4,2.1-2
	c-0.1-4.1,0-8.3-0.6-12.4c-1-7.2-3.5-13.6-8.9-18.6c-4.8-4.5-10.6-6.3-16.9-7.1c-16.3-1.9-31.8,8.8-35.7,24.7
	c-1.9,8-1.9,16,0.2,23.8c2.5,9.5,8.1,16.5,17.3,20.4c5.8,2.4,11.9,2.8,18,2.4c7.2-0.4,14-2,20.2-6c0.7-0.4,1.5-0.8,1.5-1.8
	c0-4.1,0-8.2,0-12.2c0-0.8-0.4-1-1.1-0.5c-0.4,0.3-0.9,0.7-1.3,1c-6.5,5-13.8,7.5-22.1,7.2c-11.1-0.4-17.3-7.1-18.7-16.9
	c-0.2-1.7,0.3-2.2,1.9-2.2C79.4,447.1,86.7,447.1,94,447.1z M345.4,406.9c-6.6,0-12,0.6-17.2,2.7c-8.8,3.5-15,9.6-18.3,18.5
	c-3.1,8.4-3.4,17-1.3,25.7c2.1,9,7.2,15.9,15.3,20.2c10.8,5.8,22.2,6,33.5,1.8c9.5-3.5,15.8-10.5,19-20.1c2.6-7.8,2.6-15.7,1-23.6
	c-1.6-7.7-5.4-14.3-11.9-19C359.1,408.4,351.9,406.9,345.4,406.9z M181.7,466.1C181.7,466.1,181.7,466.1,181.7,466.1
	c0,1.9,0.1,3.8,0,5.8c-0.1,1.6,0.5,2.3,1.9,2.9c8.9,4,18.2,4.5,27.6,2.8c4.9-0.9,9.4-2.8,13.3-6.1c8.5-7.2,8.5-21.1-0.8-27.7
	c-4.7-3.4-10.1-5.4-15.5-7.5c-3.3-1.3-6.7-2.2-9.4-4.7c-2.7-2.6-2.9-6.6-0.3-9.2c2.4-2.4,5.6-3.1,8.8-3.2c6.6-0.2,12.7,1.3,18.3,5
	c0.4,0.3,0.9,0.8,1.5,0.4c0.6-0.4,0.4-1,0.4-1.5c0-3.6-0.1-7.3,0-10.9c0-1.4-0.5-2.1-1.8-2.6c-7.4-2.7-15.1-3.3-22.8-2.1
	c-5.4,0.9-10.4,2.7-14.6,6.3c-8.7,7.4-8.9,19.9-0.4,27.3c3.9,3.4,8.8,5.2,13.6,7.1c3.8,1.5,7.8,2.6,11.1,5c2.3,1.7,3.6,3.9,3.1,6.9
	c-0.4,2.8-2.3,4.4-4.9,5.3c-1.4,0.5-2.7,0.7-4.2,0.8c-8.7,0.8-16.4-1.5-23.3-6.8c-0.4-0.3-0.8-0.8-1.3-0.6c-0.7,0.3-0.4,1-0.4,1.5
	C181.6,462.2,181.7,464.2,181.7,466.1z M149.6,444.9C149.6,444.9,149.6,444.9,149.6,444.9c6.1,0,12.1-0.1,18.2,0
	c1.7,0,2.1-0.5,2.1-2.1c-0.1-2.7-0.1-5.4,0-8.2c0-1.1-0.4-1.5-1.5-1.5c-1.7,0.1-3.3,0-5,0c-10.6,0-21.1,0-31.7,0
	c-1.6,0-2.2,0.5-2.1,2.1c0.1,2.6,0.1,5.2,0,7.8c0,1.4,0.4,2,1.9,1.9C137.5,444.8,143.5,444.9,149.6,444.9z"/>
<path class="st2" d="M209.8,37.3c0.6-1.7,0.4-3.6,0.4-5.3c0-2.7,1.4-4,3.9-4.1c8.7-0.2,17.3,0.4,25.9,0.5c3.6,0,4.5,1.7,4.3,4.5
	c-0.2,2.3-0.1,4.7,0,7c0,2.4,1.5,3.6,3.9,3.4c1.6-0.2,3.3-0.1,4.9,0c1.6,0.1,2.3,1.3,2.6,2.7c0.1,0.6,0.1,1.2,0.1,1.8
	c0,14.5,0,28.9,0,43.4c0,0.2,0,0.4,0,0.6c0.4,4.9,0.7,5.2,5.2,5.2c6.4,0,12.7,0,19.1,0c2.8,0,3.7,1.1,3.3,3.8c-0.4,2.7,0.7,4,3.6,4
	c10.4,0,20.8,0,31.2,0c3.7,0,4.5,0.8,4.5,4.4c0,2-0.1,4-0.3,6c-0.3,2.9,1.3,4.7,4.2,4.7c4.9,0,9.8,0,14.7,0c3.5,0,4.6,1.3,4.3,4.8
	c-0.1,1.5,0.1,3,0.3,4.4c0.2,1,1.1,1.5,2,1.7c2.5,0.6,5,0.9,7.5,0.4c0.9-0.2,1.7-0.2,2.6,0c2.5,0.5,3.7,2.2,3.3,4.8
	c-0.6,4.1,0.1,8.2,0.5,12.3c0.2,1.9,1.5,2.7,3.4,2.7c2.5,0,3.2,0.5,3.2,3c0,8,0.4,15.9-0.2,23.9c-0.2,2.2,0.2,4.3,0.2,6.5
	c0.2,7.2,0.3,14.4,0,21.5c-0.1,3.6-0.5,7.2-0.2,10.7c0.6,6-0.3,12-0.1,17.9c0.1,2.3-0.3,2.7-2.6,2.9c-2.4,0.2-2.6,0.4-2.6,2.8
	c-0.1,4.4-0.2,8.9-0.1,13.3c0.1,6.2,0,12.4,0.1,18.5c0.1,4-0.7,4.7-4.7,4.7c-2.7,0-5.4,0-8.2,0c-0.9-4.9-0.4-9.9-0.4-14.8
	c0-3.8-0.3-7.5,0.3-11.3c0.2-1.5,0.9-2.1,2.4-2.2c2.6-0.2,3.2-1,3.2-3.5c0-26.8,0-53.5,0-80.3c0-0.2,0-0.5,0-0.7
	c0-1.5-0.6-2.3-2.1-2.5c-1.2-0.2-2.4-0.3-3.7-0.3c-1.2-0.1-1.8-0.5-1.8-2c0.1-4.6,0.2-9.1,0.1-13.7c-0.1-3-1.3-4-4.3-4
	c-3,0-5.9,0.2-8.9-0.1c-1.8-0.2-2.5-1-2.4-2.8c0.1-1.8,0-3.6,0-5.4c0.1-1.9-0.9-2.7-2.6-3c-0.7-0.1-1.4-0.1-2-0.1
	c-5.6,0-11.1-0.1-16.7,0c-1.7,0-2.4-0.6-2.4-2.4c0.1-3.2,0-6.3,0-9.5c0-3.1-0.6-3.7-3.7-3.7c-10.6,0-21.3,0-31.9,0
	c-2.6,0-2.8-0.3-2.9-2.8c-0.2-3.6-0.5-4.8-4.8-4.7c-6,0.1-12,0-18,0c-4.2,0-4.2,0-4.2-4c0-14,0-28.1,0-42.1c0-1.3,0-2.6,0-3.9
	c-0.1-2.3-1.6-3.7-3.8-3.7c-1.6,0-3.2,0-4.8,0c-2.1,0-3.2-1.1-3.2-3.2c0-2.5,0-4.9,0-7.4c-0.1-2.9-1.8-4.6-4.7-4.6
	c-3.9,0-7.8,0-11.7,0C213.2,38,211.4,37.9,209.8,37.3z"/>
<path class="st3" d="M209.8,37.3c1.7,0.5,3.4,0.7,5.1,0.7c3.9,0,7.8,0,11.7,0c2.9,0,4.6,1.7,4.7,4.6c0.1,2.5,0,4.9,0,7.4
	c0,2.1,1.1,3.2,3.2,3.2c1.6,0,3.2,0,4.8,0c2.2,0,3.7,1.4,3.8,3.7c0.1,1.3,0,2.6,0,3.9c0,14,0,28.1,0,42.1c0,4,0,4,4.2,4
	c6,0,12,0.1,18,0c4.3-0.1,4.6,1.1,4.8,4.7c0.1,2.5,0.3,2.8,2.9,2.8c10.6,0,21.3,0,31.9,0c3.1,0,3.7,0.6,3.7,3.7c0,3.2,0.1,6.3,0,9.5
	c-0.1,1.8,0.7,2.4,2.4,2.4c5.6,0,11.1,0,16.7,0c0.7,0,1.4,0,2,0.1c1.7,0.2,2.7,1.1,2.6,3c-0.1,1.8,0.1,3.6,0,5.4
	c-0.1,1.8,0.6,2.6,2.4,2.8c3,0.3,5.9,0.1,8.9,0.1c3,0,4.2,1,4.3,4c0.1,4.6,0,9.1-0.1,13.7c0,1.4,0.6,1.9,1.8,2
	c1.2,0.1,2.5,0.1,3.7,0.3c1.5,0.2,2.2,1.1,2.1,2.5c0,0.2,0,0.5,0,0.7c0,26.8,0,53.5,0,80.3c0,2.6-0.6,3.3-3.2,3.5
	c-1.5,0.1-2.1,0.7-2.4,2.2c-0.6,3.8-0.3,7.5-0.3,11.3c0,4.9-0.4,9.9,0.4,14.8c-1.1,0-1.1,0.8-1.1,1.5c0,2-0.1,4,0,6.1
	c0,1.5-0.6,2.6-1.8,3.1c-1.1,0.4-1.3,1.1-1.3,2.1c-3.7,0.1-7.4-0.5-11.2,0c-1.4,0.2-2,0.5-2,2c0.1,6.5,0.1,13.1,0.1,19.6
	c-0.9,0.5-0.6,1.4-0.7,2.2c-0.1,2.6,0.2,5.2-0.3,7.8c-0.3,1.4-1.1,2-2.5,2c-17.6-0.5-35.2-0.2-52.8-0.2c-23.8-0.1-47.6,0-71.4,0
	c-0.6,0-1.1,0-1.7,0c-3.5-0.1-4.5-1.1-4.5-4.6c0-10.3,0-20.6,0-31c0-2.4-0.6-3-3.1-3.1c-2.5,0-5.1,0-7.6,0c-3.6,0.1-4.9-1.5-4.9-4.9
	c0.1-6.1,0-12.2,0-18.4c0-2.4-0.6-3.1-3-3.1c-1.9,0-3.8,0.1-5.7,0c-1.8-0.1-2.2-0.8-1.5-2.3c3.9,0.4,7.9-0.2,11.8,0.5
	c0.3,0.5,0.5,0.9,0.8,1.4c-0.3,7.5-0.2,15.1-0.1,22.6c0,2.7,0.7,3.1,3.5,3.1c2.5,0,4.9,0,7.4,0c3.5,0.1,4.6,1.2,4.6,4.7
	c0,9.8,0,19.5,0,29.3c0,3.4,0.1,3.5,3.6,3.5c36.5,0,73,0,109.5,0.1c4.8,0,9.6,0.3,14.4,0.3c2.3,0,2.9-0.6,2.8-2.9
	c-0.4-8.6-0.3-17.2-0.3-25.8c0-5.7,0.2-5.9,5.7-5.9c2.5,0,5.1,0,7.6,0c2.3,0,3-0.6,2.9-3c-0.4-9.7-0.3-19.4-0.3-29.1
	c0-1.1,0-2.1,0-3.2c0.3-3.2,0.6-3.4,3.8-3.8c2.1-0.2,2.8-1,2.8-3.3c0-26,0-52,0-77.9c0-3.1-0.7-4-3.8-4.1c-2,0-2.9-0.8-3-2.8
	c-0.3-4.4-0.1-8.8-0.1-13.2c0-0.9,0.1-1.9-0.9-2.4c-0.5-1-1.4-0.5-2.1-0.6c-3.9-0.3-8,0.8-11.8-1c-1-2.5-0.6-5.1-0.7-7.7
	c0-3.4,0-3.4-3.4-3.3c-4.8,0-9.5,0.1-14.3,0c-6.1-0.2-5.8-0.1-5.7-5.6c0-2.5,0-4.9,0-7.4c0-2.1-0.4-2.4-2.6-2.5c-10,0-19.9,0-29.9,0
	c-0.9,0-1.7,0-2.6,0c-3.6-0.1-3.8-0.4-4-4c-0.1-3.1-0.4-3.4-3.4-3.4c-6.4,0-12.9,0-19.3,0c-3.1,0-4-0.9-4-4c0-15.2,0-30.4,0-45.6
	c0-2.8-0.1-2.8-2.9-3.1c-2.3-0.3-4.6,0-6.8-0.2c-1.3-0.2-2.1-0.7-2.4-2.1c-0.5-2.6-0.1-5.3-0.2-8c0-0.9,0-1.9,0-2.8
	c0-1.7-0.7-2.5-2.6-2.5c-5.5,0.1-11,0.1-16.5,0c-3.2-0.1-6.4-0.4-9.6-0.3c-3.5,0.1-4.2,0.8-4.2,4.2c0,2.5,0.1,5,0,7.4
	c-0.2,3.5-1.6,4-3.9,3.9c-1.7-0.1-3.5,0-5.2,0c-1.3,0-1.9,0.7-2,1.9c0,0.7,0,1.5,0,2.2c0,34,0,68,0.1,102c0,3.7-1.9,5.3-5.7,4.7
	c-0.9-0.1-1.8-0.4-2.7-0.7c-1.4-0.5-2.2-1.4-2.2-3.1c0.1-1.8,0-3.6,0-5.4c0-1.9-0.6-2.6-2.6-2.6c-5.3,0-10.6,0-16,0
	c-2.5,0-5.1-0.2-7.6-0.4c-1.5-0.1-2.5,0.5-2.5,2.2c0,1.2-0.2,2.3-0.3,3.5c-0.1,1.4-0.7,2-2.1,2c-0.9,0-1.7,0-2.6,0
	c-2.4,0-3.1,0.6-3.1,3.1c0,10,0,20,0,30.1c0,3.1,0.5,3.5,3.6,3.5c1.3,0,2.6,0.1,3.9,0c3.2-0.3,4,1.6,4.3,4.1c0.2,1.3,0,2.6,0,3.9
	c0,2.8,1.2,3.9,3.9,4c1.7,0,3.3,0,5,0.3c1.9,0.4,2.7,1.3,2.6,3.3c-0.1,5.2,0,10.4,0,15.6c0,2.9,0.9,3.7,3.8,3.7c1.4,0,2.8,0,4.3,0
	c0.7,0,1.4-0.1,1.5,0.9c-3.4,0.3-6.7,0.6-10-0.4c-0.8-0.2-1-0.7-1.2-1.5c-0.5-2.1-0.4-4.3-0.2-6.5c0.4-4.1,0.1-8.3,0.2-12.4
	c0.1-2-1.5-2.2-2.9-2.4c-1.5-0.1-3.1,0-4.6,0c-2.5,0-3.4-0.9-3.5-3.5c-0.1-1.5,0-3.1,0-4.6c0-2.2-0.8-3-3-3c-1.5,0-3.1,0-4.6,0
	c-2.3-0.1-3.2-0.9-3.7-3.1c-0.2-0.8-0.2-1.6-0.2-2.4c0-9.9,0-19.8,0-29.6c0-2.9,0.9-3.8,3.7-3.8c3-0.1,3.9-1,4.1-4
	c0.1-2.7,0.9-3.5,3.7-3.8c0.8-0.1,1.6,0,2.4-0.3c1.1,0.4,2.3,0.2,3.5,0.2c5.7,0,11.5,0,17.2,0c3.4,0,4.6,1.3,4.5,4.6c0,1,0,2,0,3
	c0,2.9,1.5,4.2,4.4,3.7c2.8-0.5,3.2-0.9,3.2-3.7c0-4.9,0-9.8,0-14.6c0-1.2-0.1-2.5-0.6-3.6c0.4-1.1,0.3-2.3,0.3-3.5
	c0-26.8,0-53.7,0-80.5c0-1-0.2-2,0.4-2.9c0.9-1.4,1.9-2.5,3.9-2.2c1.4,0.2,2.8,0.1,4.3,0c2.4,0,3-0.6,3-3.1c0-2.8,0-5.7,0-8.5
	c0-3.3,0.8-4,4-4.1C202.9,37.5,206.4,37.9,209.8,37.3z"/>
<path class="st2" d="M183.5,142.6c0.4,1.2,0.6,2.4,0.6,3.6c0,4.9,0,9.8,0,14.6c0,2.8-0.4,3.2-3.2,3.7c-2.9,0.5-4.4-0.7-4.4-3.7
	c0-1,0-2,0-3c0-3.3-1.2-4.6-4.5-4.6c-5.7,0-11.5,0-17.2,0c-1.2,0-2.3,0.2-3.5-0.2c0.2-1.9,1.3-2.7,3.2-2.7c3.9,0,4.3-0.4,4.5-4.3
	c0.2-3,1-3.9,4.1-3.9c5.7,0,11.3,0,17,0C181.2,142.3,182.4,142.5,183.5,142.6z"/>
<path class="st2" d="M332.5,311.3c0-6.5,0-13.1-0.1-19.6c0-1.5,0.6-1.8,2-2c3.7-0.5,7.5,0.1,11.2,0c0,6.2,0,12.5,0,18.7
	c0,1.9-1.7,3.6-3.6,3.7c-1.3,0.1-2.6,0-3.9-0.2c-1.2-0.2-2.5-0.2-3.7,0.1C333.7,312.3,332.9,312.4,332.5,311.3z"/>
<path class="st4" d="M392.1,427.1c0-16,0-31.9,0-47.9c0-1.7,0.5-2.2,2.1-2.1c3.5,0.1,6.9,0.1,10.4,0c1.7-0.1,2.2,0.5,2.2,2.2
	c-0.1,17.1,0,34.3,0,51.4c0,0.9,0,1.9,0,2.8c0,0.4-0.1,0.9,0.4,1.1c0.5,0.2,0.8-0.3,1.1-0.6c2.4-2.4,4.7-4.9,7.1-7.3
	c5.6-5.8,11.2-11.5,16.7-17.3c0.7-0.8,1.6-1.1,2.6-1.1c5.2,0,10.4,0,15.6,0c0.5,0,1.2-0.2,1.5,0.4c0.3,0.7-0.5,0.9-0.9,1.2
	c-10,10-20.1,19.9-30.2,29.8c-1.7,1.6-1.7,1.6,0,3.3c10.9,10.7,21.9,21.5,32.8,32.2c0.3,0.3,0.9,0.6,0.7,1.2
	c-0.2,0.6-0.8,0.4-1.3,0.4c-5.8,0-11.5,0-17.3,0c-0.9,0-1.5-0.3-2.1-1c-8.3-8.6-16.6-17.1-24.9-25.7c-0.4-0.4-0.8-1.3-1.6-0.9
	c-0.6,0.3-0.4,1.1-0.4,1.7c0,7.9,0,15.7,0,23.6c0,1.8-0.5,2.4-2.3,2.3c-3.6-0.1-7.2-0.1-10.8,0c-1.3,0-1.7-0.5-1.7-1.8
	C392.1,459.2,392.1,443.1,392.1,427.1C392.1,427.1,392.1,427.1,392.1,427.1z"/>
<path class="st4" d="M243.9,427.1c0-15.8,0-31.7,0-47.5c0-2.4,0-2.4,2.5-2.4c3.3,0,6.7,0.1,10,0c1.7-0.1,2.2,0.6,2.2,2.3
	c0,17.7,0,35.4,0,53.1c0,0.3,0,0.6,0,0.9c0,0.5-0.2,1.1,0.4,1.3c0.6,0.2,0.9-0.4,1.2-0.7c4.7-4.9,9.4-9.8,14.2-14.6
	c3-3.2,6.1-6.3,9.1-9.5c0.9-1,2-1.5,3.4-1.5c5.1,0.1,10.1,0,15.2,0c0.5,0,1.2-0.2,1.5,0.5c0.2,0.6-0.5,0.8-0.8,1.1
	c-8.9,8.8-17.7,17.5-26.6,26.3c-1.3,1.3-2.6,2.7-4,3.9c-1.2,1-1,1.7,0,2.7c9.4,9.1,18.7,18.3,28.1,27.5c1.7,1.7,3.4,3.4,5.2,5.1
	c0.3,0.3,0.8,0.5,0.6,1c-0.1,0.5-0.6,0.5-1.1,0.5c-5.9,0-11.8,0-17.6,0c-0.9,0-1.5-0.4-2.1-1.1c-8.3-8.6-16.7-17.2-25-25.8
	c-0.4-0.4-0.7-1.1-1.3-0.8c-0.7,0.3-0.4,1.1-0.4,1.7c0,7.9,0,15.7,0,23.6c0,2.3-0.1,2.4-2.4,2.4c-3.5,0-6.9-0.1-10.4,0
	c-1.6,0-2-0.5-2-2C243.9,459,243.9,443,243.9,427.1z"/>
<path class="st4" d="M94,447.1c-7.3,0-14.6,0-21.9,0c-1.7,0-2.2,0.5-1.9,2.2c1.4,9.8,7.6,16.5,18.7,16.9c8.3,0.3,15.6-2.3,22.1-7.2
	c0.4-0.3,0.9-0.7,1.3-1c0.7-0.5,1-0.3,1.1,0.5c0,4.1,0,8.2,0,12.2c0,0.9-0.8,1.3-1.5,1.8c-6.2,4-13,5.5-20.2,6
	c-6.2,0.4-12.3,0-18-2.4c-9.2-3.9-14.8-10.9-17.3-20.4c-2.1-7.9-2.1-15.9-0.2-23.8c3.9-15.9,19.4-26.6,35.7-24.7
	c6.4,0.7,12.2,2.6,16.9,7.1c5.4,5,8,11.5,8.9,18.6c0.6,4.1,0.5,8.3,0.6,12.4c0,1.6-0.6,2-2.1,2C108.9,447.1,101.4,447.1,94,447.1
	C94,447.1,94,447.1,94,447.1z M86.7,434.7C86.7,434.7,86.7,434.7,86.7,434.7c4.9,0,9.8,0,14.7,0c0.8,0,1.8,0.1,1.6-1.2
	c-0.5-5-2.1-9.5-6.6-12.2c-8.8-5.2-21.6-1.6-25.5,11.3c-0.5,1.8,0,2.1,1.7,2.1C77.3,434.6,82,434.7,86.7,434.7z"/>
<path class="st4" d="M345.4,406.9c6.6,0.1,13.8,1.6,20.1,6.2c6.5,4.7,10.3,11.3,11.9,19c1.6,7.9,1.6,15.9-1,23.6
	c-3.2,9.7-9.5,16.6-19,20.1c-11.3,4.2-22.8,4-33.5-1.8c-8.1-4.3-13.1-11.3-15.3-20.2c-2.1-8.7-1.7-17.3,1.3-25.7
	c3.3-8.9,9.5-15,18.3-18.5C333.3,407.5,338.8,406.8,345.4,406.9z M343.1,419.1c-6.4-0.1-11.9,2-16,7.1c-3,3.7-4.3,8.1-4.7,12.8
	c-0.5,5.4-0.3,10.7,2,15.6c3.7,8.1,11.2,12.2,20.5,11.5c8.1-0.6,13.9-4.3,16.7-12.1c1.8-4.9,2.1-10,1.6-15.2
	c-0.4-3.8-1.2-7.6-3.1-10.9C356.3,421.4,350.3,419.1,343.1,419.1z"/>
<path class="st4" d="M181.7,466.1c0-2,0-4,0-5.9c0-0.5-0.2-1.2,0.4-1.5c0.5-0.2,0.9,0.3,1.3,0.6c6.9,5.3,14.6,7.6,23.3,6.8
	c1.4-0.1,2.8-0.4,4.2-0.8c2.6-0.9,4.5-2.4,4.9-5.3c0.4-2.9-0.8-5.2-3.1-6.9c-3.4-2.4-7.3-3.5-11.1-5c-4.8-1.9-9.6-3.6-13.6-7.1
	c-8.5-7.4-8.2-19.9,0.4-27.3c4.2-3.6,9.2-5.4,14.6-6.3c7.8-1.2,15.4-0.6,22.8,2.1c1.3,0.5,1.8,1.2,1.8,2.6c-0.1,3.6,0,7.3,0,10.9
	c0,0.5,0.2,1.2-0.4,1.5c-0.6,0.4-1.1-0.1-1.5-0.4c-5.5-3.7-11.7-5.2-18.3-5c-3.3,0.1-6.4,0.7-8.8,3.2c-2.7,2.7-2.5,6.7,0.3,9.2
	c2.7,2.5,6.1,3.4,9.4,4.7c5.3,2.1,10.7,4.1,15.5,7.5c9.2,6.6,9.2,20.6,0.8,27.7c-3.9,3.3-8.4,5.2-13.3,6.1
	c-9.4,1.7-18.7,1.2-27.6-2.8c-1.4-0.6-2-1.4-1.9-2.9C181.8,470,181.7,468.1,181.7,466.1C181.7,466.1,181.7,466.1,181.7,466.1z"/>
<path class="st4" d="M149.6,444.9c-6.1,0-12.1,0-18.2,0c-1.5,0-1.9-0.5-1.9-1.9c0.1-2.6,0.1-5.2,0-7.8c-0.1-1.7,0.5-2.1,2.1-2.1
	c10.6,0.1,21.1,0,31.7,0c1.7,0,3.3,0,5,0c1.1,0,1.5,0.4,1.5,1.5c-0.1,2.7-0.1,5.4,0,8.2c0.1,1.6-0.4,2.1-2.1,2.1
	C161.7,444.8,155.6,444.9,149.6,444.9C149.6,444.9,149.6,444.9,149.6,444.9z"/>
<path class="st3" d="M331.6,142.5c3.8,1.8,7.9,0.7,11.8,1c0.7,0.1,1.6-0.4,2.1,0.6c-4.1,0-8.1,0.1-12.2,0.1
	C332.3,144.1,331.6,143.6,331.6,142.5z"/>
<path d="M185.5,257.6c-0.3-0.5-0.5-0.9-0.8-1.4c0.5-0.8,0.7-1.6,0.7-2.6c0-0.6-0.3-1.4,0.5-1.7"/>
<path class="st4" d="M331.9,248.3c-0.7,0.4-1.5,0.8-2.2,1.2"/>
<path d="M335.5,248.5c-0.9,0.3-1.9,0.5-2.7-0.2"/>
<path d="M349.6,162.4c-2,0-2.9-0.8-3-2.8c-0.3-4.4-0.1-8.8-0.1-13.2c0-0.9,0.1-1.9-0.9-2.4c-4.1,0-8.1,0.1-12.2,0.1
	c-1.1,0-1.8-0.5-1.8-1.7c-1-2.5-0.6-5.1-0.7-7.7c0-3.4,0-3.4-3.4-3.3c-4.8,0-9.5,0.1-14.3,0c-6.1-0.2-5.8-0.1-5.7-5.6
	c0-2.5,0-4.9,0-7.4c0-2.1-0.4-2.4-2.6-2.5c-10,0-19.9,0-29.9,0c-0.9,0-1.7,0-2.6,0c-3.6-0.1-3.8-0.4-4-4c-0.1-3.1-0.4-3.4-3.4-3.4
	c-6.4,0-12.9,0-19.3,0c-3.1,0-4-0.9-4-4c0-15.2,0-30.4,0-45.6c0-2.8-0.1-2.8-2.9-3.1c-2.3-0.3-4.6,0-6.8-0.2
	c-1.3-0.2-2.1-0.7-2.4-2.1c-0.5-2.6-0.1-5.3-0.2-8c0-0.9,0-1.9,0-2.8c0-1.7-0.7-2.5-2.6-2.5c-5.5,0.1-11,0.1-16.5,0
	c-3.2-0.1-6.4-0.4-9.6-0.3c-3.5,0.1-4.2,0.8-4.2,4.2c0,2.5,0.1,5,0,7.4c-0.2,3.5-1.6,4-3.9,3.9c-1.7-0.1-3.5,0-5.2,0
	c-1.3,0-1.9,0.7-2,1.9c0,0.7,0,1.5,0,2.2c0,34,0,68,0.1,102c0,3.7-1.9,5.3-5.7,4.7c-0.9-0.1-1.8-0.4-2.7-0.7
	c-1.4-0.5-2.2-1.4-2.2-3.1c0.1-1.8,0-3.6,0-5.4c0-1.9-0.6-2.6-2.6-2.6c-5.3,0-10.6,0-16,0c-2.5,0-5.1-0.2-7.6-0.4
	c-1.5-0.1-2.5,0.5-2.5,2.2c0,1.2-0.2,2.3-0.3,3.5c-0.1,1.4-0.7,2-2.1,2c-0.9,0-1.7,0-2.6,0c-2.4,0-3.1,0.6-3.1,3.1c0,10,0,20,0,30.1
	c0,3.1,0.5,3.5,3.6,3.5c1.3,0,2.6,0.1,3.9,0c3.2-0.3,4,1.6,4.3,4.1c0.2,1.3,0,2.6,0,3.9c0,2.8,1.2,3.9,3.9,4c1.7,0,3.3,0,5,0.3
	c1.9,0.4,2.7,1.3,2.6,3.3c-0.1,5.2,0,10.4,0,15.6c0,2.9,0.9,3.7,3.8,3.7c1.4,0,2.8,0,4.3,0c0.7,0,1.4-0.1,1.5,0.9
	c1.5,0.4,1.3,1.7,1.3,2.7c0,5.2,0,10.3,0,15.5c0,1,0,2.1,0.4,3.1c3.9,0.4,7.9-0.2,11.8,0.5c0.5-0.8,0.7-1.6,0.7-2.6
	c0-0.6-0.3-1.4,0.5-1.7c0.2-4.8,0.2-9.5,0-14.3c0,0,0,0,0,0c0.2-0.6,0.3-1.2-0.5-1.5c-1.9-0.9-3.8-0.4-5.8-0.6
	c-1.7-0.2-3.7,0.3-5-1.5c0,0-0.4-0.3-0.2-0.5c-0.1-5.4-0.2-10.9-0.2-16.3c0-1.9,0.1-3.7,0.2-5.6c0-1.7-0.6-2.5-2.4-2.4
	c-1.7,0.1-3.5,0-5.2,0c-1.5,0-2.4-0.8-2.7-2.2c-0.6-2.3-0.3-4.6-0.3-6.8c-0.1-2.8-0.5-3.2-3.3-3.2c-2.2,0-4.3,0-6.5-0.1
	c-2.4-0.1-3.1-0.7-3.1-3.1c0-7.2,0-14.5,0-21.7c0-3.9,1.2-5,5.1-5.1c5.6,0,11.1,0,16.7,0c3.1,0,4.2,0.9,4.8,4
	c0.6,2.9,0.4,5.9,0.2,8.9c-0.2,2.1,0.3,2.7,2.4,2.7c1.7,0,3.5,0,5.2,0c1.7,0,2.8,0.8,3.1,2.5c0.2,1,0.3,2.1,0.3,3.1
	c0,8.7,0,17.3,0,26c0,3.3,0.3,3.6,3.6,3.6c0.7,0,1.5,0,2.2,0c2.6,0,3.5-0.8,3.4-3.4c-0.4-5.9,0.2-11.9,0.1-17.8
	c-0.1-8.6,0-17.3,0-25.9c0-12.1,0-24.3,0-36.4c0-12.1,0-24.2,0-36.4c0-12.2,0-24.4,0-36.6c0-3.4,0.7-4.2,4.2-4.2
	c7.5-0.1,15.1,0,22.6,0c2.1,0,3,0.9,3.2,3.1c0.1,1.4,0,2.8,0,4.3c0,34.9,0,69.9,0,104.8c0,2.5,0,2.5,2.6,2.6c1.5,0,2.9,0.5,4.4,0.2
	c1.7-0.3,2.3-1.1,2.3-2.9c-0.1-14,0-28.1,0-42.1c0-3.8,0.6-4.5,4.5-4.6c4.4-0.1,8.9-0.1,13.4-0.1c2.8,0,5.6,0,8.3,0
	c0.6-0.1,0.6-0.1,1.6,0.3c1.7,0.5,1.9,1.8,1.9,3.4c0,14.3,0,28.7,0,43c0,0.9,0.1,1.7,0.2,2.6c2,0,4.1-0.1,6.1,0
	c1.8,0.1,2.4-0.6,2.4-2.4c-0.1-12,0-24,0-35.9c0-1.3,0-2.5,1.7-2.8c0.1,0,0.2,0.1,0.4,0.1c7.4,0,14.8,0,22.2,0
	c2.3,0.1,2.9,0.7,3.2,2.7c0.5,3.2,0.5,6.4,0,9.6c-0.1,0.5-0.1,1.1-0.1,1.7c0,11.7,0,23.5,0,35.2c0,2.8,0.2,3,3.1,3c2,0,4.1,0,6.1,0
	c1,0,2-0.2,2.8-0.7c0.3-0.8-0.1-11.7-0.1-12.8c0-6.4,0-12.8,0-19.3c0-3.8,0.6-4.7,4.3-5c3.4-0.2,6.9-0.1,10.4-0.1
	c0.6,0,1.2,0.2,1.5,0.8c0.5,0.5,1,0.9,1.4,1.4c1.2,0.3,1.2,1.2,1.2,2.2c0,4.1,0,8.1,0,12.2c0,1.1,0.2,2.1,1.1,2.8
	c1.2,0.3,2.4,0.2,3.5,0.2l1.4,0.6c1.1,0.1,1.5,1,1.7,1.9c0.2,1.5,0.4,3.1,0.4,4.6c0,23.9,0,47.8,0,71.7c0,3.4-1,4.8-3.6,5.4
	c-1,0.1-1.9,0.2-2.9,0.3c-0.9,0.3-1.9,0.5-2.7-0.2c-0.3,0-0.6,0-0.9,0c-0.7,0.4-1.5,0.8-2.2,1.2c-0.1,0.9-0.2,1.8-0.2,2.8
	c-0.1,9.6-0.1,19.1-0.2,28.7c-0.1,0.8-0.5,1.2-1.3,1.2c-4,0-7.9,0.1-11.9,0.1c-2.5,0-2.8,0.5-2.6,3c0.4,6.8,0.2,13.6-0.1,20.4
	c-0.1,1-0.6,1.6-1.5,2c-1,0.5-2.1,0.6-3.3,0.6c-30.4,0-60.7,0-91.1,0c-3.5,0-4.1-0.6-4.1-4.1c0-6.4,0-12.9,0-19.3
	c0-2.6-0.3-2.9-2.9-2.9c-3,0-6.1-0.1-9.1,0c-1.7,0.1-2.6-0.8-3.1-2.3c-0.3-0.9-0.5-1.9-0.4-2.9c0-5.1,0-10.1,0-15.2
	c0-2.5-0.3-2.7-2.8-2.7c-1.5,0-3-0.1-4.5,0c-1.6,0.1-2.9-0.4-3.9-1.6c-0.4,0.1-0.8,0.3-1.3,0.4c-0.3,7.5-0.2,15.1-0.1,22.6
	c0,2.7,0.7,3.1,3.5,3.1c2.5,0,4.9,0,7.4,0c3.5,0.1,4.6,1.2,4.6,4.7c0,9.8,0,19.5,0,29.3c0,3.4,0.1,3.5,3.6,3.5
	c36.5,0,73,0,109.5,0.1c4.8,0,9.6,0.3,14.4,0.3c2.3,0,2.9-0.6,2.8-2.9c-0.4-8.6-0.3-17.2-0.3-25.8c0-5.7,0.2-5.9,5.7-5.9
	c2.5,0,5.1,0,7.6,0c2.3,0,3-0.6,2.9-3c-0.4-9.7-0.3-19.4-0.3-29.1c0-1.1,0-2.1,0-3.2c0.3-3.2,0.6-3.4,3.8-3.8c2.1-0.2,2.8-1,2.8-3.3
	c0-26,0-52,0-77.9C353.5,163.4,352.8,162.5,349.6,162.4z M185.4,236.2c0,0.4-0.2,0.9,0.3,1.2C185.2,237.1,185.4,236.7,185.4,236.2z"
	/>
<path class="st1" d="M86.7,434.7c-4.7,0-9.4-0.1-14.1,0c-1.6,0-2.2-0.3-1.7-2.1c3.9-12.9,16.6-16.5,25.5-11.3
	c4.5,2.7,6.1,7.2,6.6,12.2c0.1,1.2-0.8,1.2-1.6,1.2C96.5,434.7,91.6,434.7,86.7,434.7C86.7,434.7,86.7,434.7,86.7,434.7z"/>
<path class="st1" d="M343.1,419.1c7.2,0,13.2,2.3,17,8.8c2,3.4,2.8,7.1,3.1,10.9c0.5,5.2,0.2,10.3-1.6,15.2
	c-2.8,7.8-8.6,11.5-16.7,12.1c-9.3,0.7-16.8-3.3-20.5-11.5c-2.3-5-2.5-10.3-2-15.6c0.4-4.7,1.7-9.1,4.7-12.8
	C331.2,421.1,336.7,419,343.1,419.1z"/>
</svg>
