<?xml version="1.0" encoding="utf-8"?>
<!-- Generator: Adobe Illustrator 22.1.0, SVG Export Plug-In . SVG Version: 6.00 Build 0)  -->
<svg version="1.1" id="Layer_1" xmlns="http://www.w3.org/2000/svg" xmlns:xlink="http://www.w3.org/1999/xlink" x="0px" y="0px"
	 viewBox="0 0 512 512" style="enable-background:new 0 0 512 512;" xml:space="preserve">
<style type="text/css">
	.st0{fill:#2F435E;}
	.st1{fill:#2C4460;}
	.st2{fill:#164971;}
	.st3{fill:#20466B;}
	.st4{fill:#546484;}
	.st5{fill:#234467;}
	.st6{fill:#3A547B;}
	.st7{fill:#3B557B;}
	.st8{fill:#475C7E;}
	.st9{fill:#2B4E76;}
	.st10{fill:#224C74;}
	.st11{fill:#FEFEFE;}
	.st12{fill:#244467;}
	.st13{fill:#2B4462;}
	.st14{fill:#244468;}
	.st15{fill:#1E4B73;}
	.st16{fill:#1A4972;}
	.st17{fill:#7D839A;}
	.st18{fill:#6F7892;}
	.st19{fill:#66718D;}
	.st20{fill:#878B9F;}
	.st21{fill:#9899AB;}
	.st22{fill:#184870;}
	.st23{fill:#73B8C8;}
	.st24{fill:#AED1DA;}
	.st25{fill:#9DCAD5;}
	.st26{fill:#62B2C4;}
	.st27{fill:#D1E3EA;}
	.st28{fill:#85BFCE;}
	.st29{fill:#3DA9BD;}
	.st30{fill:#3FAABD;}
	.st31{fill:#ADD1DA;}
	.st32{fill:#5CB1C2;}
	.st33{fill:#A0CBD6;}
	.st34{fill:#75B9C8;}
	.st35{fill:#BBD8E0;}
	.st36{fill:#C7DDE4;}
	.st37{fill:#87C0CE;}
	.st38{fill:#07A1B6;}
	.st39{fill:#20466C;}
	.st40{fill:#93C5D2;}
	.st41{fill:#08A1B6;}
	.st42{fill:#8FC3D1;}
	.st43{fill:#23486D;}
	.st44{fill:#6B748F;}
	.st45{fill:#2D5076;}
	.st46{fill:#4D6082;}
	.st47{fill:#C7C5CF;}
	.st48{fill:#A5A6B5;}
	.st49{fill:#B6B5C2;}
	.st50{fill:#BAB9C5;}
	.st51{fill:#7E839A;}
	.st52{fill:#C6C4CE;}
	.st53{fill:#B0B0BD;}
	.st54{fill:#7C8299;}
	.st55{fill:#465C7F;}
	.st56{fill:#626E8B;}
	.st57{fill:#E1ECF0;}
	.st58{fill:#DFEBEF;}
	.st59{fill:#9295A8;}
	.st60{fill:#9698AA;}
	.st61{fill:#81869C;}
	.st62{fill:#AAAAB9;}
	.st63{fill:#F4F8FA;}
	.st64{fill:#EDF4F7;}
	.st65{fill:#FBFCFC;}
</style>
<path class="st0" d="M65.1,254.4C64,149.7,149.2,60.6,256.4,61.7c111.6,1.1,195.9,89,193.3,198.1c-2.5,105.8-90.9,189.8-197,187.2
	C147.7,444.3,62.6,357,65.1,254.4z M258.5,126.8c-65.4-2.5-125.9,53.9-128.5,120c-2.9,73.6,51.1,132.3,124.3,135.2
	c68.8,2.7,128.5-53.5,130.6-124.2C386.9,185.5,329.1,126.7,258.5,126.8z M429.2,205.8c-0.5-6.3-0.5-10.2-1.1-13.9
	c-7.8-46-61.5-99.6-107.9-107.5c-3.5-0.6-7.3-0.1-11.1-0.1c23.6,17.4,48.6,31.8,68.1,51.5C396.8,155.6,410.9,180.7,429.2,205.8z
	 M217.4,388.9c-42-19.2-73.2-49.4-92.9-91.4C119.8,331.7,175.2,392.2,217.4,388.9z"/>
<path class="st0" d="M428.9,340.8c-36.6,71.8-114.4,114.3-192.2,104.9C155.7,436,90.6,379.4,71.1,301.3c-2.7-10.6-5.4-21.5-4.5-32.7
	c0.8-9.7,1.6-19.5,0-29.2c1.4-35,13.8-66.3,33.4-94.7c16.2-23.5,36.3-43,61.7-56.5c5.8,5.6,3.6,10.9-0.3,16.4
	c-13.3,19.3-26.7,38.5-38.2,58.9c-15.6,27.7-24.5,57.7-24.5,89.3c0,32,9.1,62,27.3,89.1c26.8,39.8,64.2,63,111.2,69.9
	c38,5.6,74.3-2.3,108.2-20.4c25-13.3,48.3-29.2,70.3-47.1C419.5,341.3,423.5,338,428.9,340.8z"/>
<path class="st1" d="M428.9,340.8c-14.7,4.4-24.4,16.4-36.6,24.6c-29.6,19.9-59.4,39.4-95.1,46.3c-53.3,10.3-101.8,0.8-143.7-35.5
	c-32.8-28.4-51.3-63.9-55.9-107c-5-47,10.1-88.2,35.3-126.6c9.2-14,18.4-28.2,28.4-41.7c3.6-4.9-0.3-8.6,0.5-12.8
	c4.2-3.2,8.8-5.7,13.9-7.1c7.3,10,17.4,14.8,29.2,17.7c14.8,3.6,29.1,7.4,44.8,5.7c37.3-4,71.3,5.9,101.5,28.4
	c17.5,13,30.2,30.1,41.8,48.2c0.6,0.9,1,1.8,1.3,2.8c4.9,14.1,10.6,27.8,12.7,42.8c3.2,22.4,1.2,44-6.4,65.2
	c-1.7,4.6-3.5,9.1-4.7,13.8c-1.9,7.7-1,14.9,5,20.8c6,5.8,12.9,4.7,20.1,2.9c4-1,8-5.8,12.1-0.3C433.2,333.5,431,337.2,428.9,340.8z
	"/>
<path class="st2" d="M445.2,291.1c0.3,3.8-0.3,7.4-2.3,10.7c-5.7,10.7-12.7,19.5-26.3,20.1c-7,0.3-10.9-2.8-12.2-9.7
	c-1-5-0.4-9.7,1-14.4c17.5-56.1,3.4-105.8-34.2-148.2c-28.4-32-66.1-48.4-109.5-50.1c-15.5-0.6-31.2,2.5-46.3-3.9
	c-4.2-1.8-8.4-3.4-12.5-5.4c-10.7-5.3-11.2-10.9-1.9-18.8c7.6-4.3,16.2-5,24.6-6.1c2.8-1.1,5.9-1.3,8.4-0.4c3.9,1.3,1.5,3-0.4,4.3
	c-1.5,0.7-3.1,0.9-4.7,1.1c-6.3,1-10.3,4.7-10.1,11c0.3,6.7,6.7,6.8,11,6.7c14.9-0.4,29.6,2.3,44.4,2.3c5.6-0.2,10.8,1.9,16.3,2.4
	c1,0.2,1.9,0.4,2.8,0.7c16.7,5.2,33,11.5,48,20.7c21.9,13.4,39.5,31.2,53.9,52.3c7.8,12.9,14.7,26.3,19.6,40.7
	c0.4,0.9,0.7,1.9,0.9,2.8c1.8,10.1,5.9,19.6,6.2,30c0,4.7,0,9.4,0,14c-0.6,12.2,1,24.4-1.8,36.5c-0.4,1.9-0.2,3.9,0.1,5.8
	c0.9,7.3,4,8.7,10.3,4.6c3.8-2.5,6.8-5.8,8.1-10.4c1.4-2.4,1.9-6.6,5.2-5.9C447.5,285.3,445.4,288.8,445.2,291.1z"/>
<path class="st3" d="M201.1,71.5c-7.8,13.2-5.3,12.6,6.1,17.9c11.1,5.2,22.3,8.3,34.6,7.6c27.5-1.6,54.3,2.1,79.5,13.7
	c37.6,17.3,65.2,44.6,81.4,83.1c8.6,20.5,12.8,41.9,12.9,64.1c0.1,14.3-3.3,28.2-8,41.6c-2.5,7.1-1.9,13.7,2.5,19.1
	c3.1,3.7,18.2-0.2,22.1-5.7c3-4.4,7.5-7.1,10.7-11c-0.3,4.4-1.4,8.5-3.4,12.4c-5.7,6.7-12,12.4-21,14.4
	c-10.7,2.3-19.6-3.6-20.9-14.6c-0.8-6.5,0.1-13,2.2-19.2c12.2-35.6,11.1-70.6-4.9-104.8c-1.1-2.4-1.2-5.1-2.7-7.2l0,0
	c-21.5-39.5-54.5-64.3-97.6-75.6c-16.7-4.4-34.2-2.7-51.4-2.3c-17.8,0.5-33.8-5.7-49.5-12.5c-9.3-4-10.4-10.4-4.7-17.1
	C192.7,72.9,196.6,71.4,201.1,71.5z"/>
<path class="st4" d="M361,93.4c27,16.1,48,37.9,62.4,66c3.8,13.2,10.8,25.4,13,39.3c1.6,9.7,1.6,19.3,1.3,28.9
	c-0.1,3.6-0.9,7.5-5.1,8.4c-4.5,1-6-2.9-7.6-6c-2.8-5.1-3.4-11.2-6.9-15.9c-2.3-3.6-3.4-7.6-4.3-11.6c-0.3-2-0.1-4,1.1-5.7
	c4.7-2.2,5.3,2.2,6.9,4.6c2.3,3.5,3.8,7.5,6.6,12.7c1.1-10.9-0.4-19.7-4.9-27.9c-1.3-1.9-2-4.1-2.4-6.4c-1.5-8.5-5.1-16.1-10.3-22.9
	c-1.5-1.7-3.1-3.4-4.3-5.3c-17.4-28.2-42-47.8-72.5-60.2c-3.6-1.5-7.4-2.5-10.8-4.3c-8.5-4-17.7-3.5-27.9-4.7c2.6,3.9,7.7,4,7.7,8.5
	c-1.4,1.8-3.3,2-5.4,1.9c-1-0.1-2-0.4-3-0.7c-4.4-1.3-8.5-3.2-12.4-5.5c-2.7-1.6-6.1-3.2-4.9-7.3c1-3.2,4.1-4,7.1-4.1
	c9.3-0.5,18.9-1.7,28,0.5c12.8,3.1,25.9,5.6,37.1,13.3C352.8,91.2,356.7,93,361,93.4z"/>
<path class="st5" d="M189,75.3c-3.6,7.3-1.4,12.2,7.5,15.8c18.6,7.6,37.7,13.4,58.2,11.6c31.9-2.8,60.8,6.6,87.3,23
	c20.7,12.9,37.2,30.9,49.6,52.2c0.7,1.3,0.5,3.1,0.7,4.7c-11.3-13.2-19.7-28.8-33.3-40.2c-25.2-21.1-53.1-35.6-86.8-35.8
	c-11.9-0.1-24.3,1.7-35.7,0.9c-19.3-1.3-39.1-5.2-55.8-16.7c-3.3-2.3-5.5-5.5-5-9.9C179.6,78.1,184.2,76.3,189,75.3z"/>
<path class="st5" d="M392.3,182.8c11.9,16.9,15.4,36.6,17.4,56.5c2,20.2-1.7,39.9-8.1,59c-1.8,5.5-1.7,10.9-1.4,16.3
	c0.5,8.7,8.8,14.2,17.2,11.8c7.5-2.2,14.8-5,19.4-11.9c0.9-1.4,1.8-1.7,2.8,0c-2.1,4.9-4.2,9.9-6.3,14.8c-6.5-3.4-10.1,3.9-16,4.3
	c-19.3,1.3-30.7-12.7-23.2-30.9c8.1-19.6,12.7-39.7,11.9-60.9c-0.6-16.2-3.8-32-10.6-46.8C393.5,190.9,391.8,187.2,392.3,182.8z"/>
<path class="st6" d="M415.7,202.3c0.8,3.4,1.3,7,3.9,9.8c4.3,11.4,7,23.4,13.7,36.7c3.4-12.2,6.9-22.2,6.5-33.1
	c-0.1-3.5-2.6-7.8,3-9.4c4.1,13.4,6.5,26.9,5.9,41c-1.9,8.5-0.2,18.1-8.8,24.6c-7,5.2-12,4.4-14.5-3.9c-1.9-6.2-3.1-12.7-3.3-19.1
	c-0.5-14.1-4.2-27.4-8.3-40.7v0c-1.4-1.8-1-3.7-0.6-5.7C413.9,201.7,414.8,201.6,415.7,202.3z"/>
<path class="st7" d="M277.1,63.9c8.1-0.4,15.8,1.3,23.4,3.8c-0.5,5.1-5,4.2-8,5c-6.5,1.8-13.4,2.1-19.9,3.7c-1.6,0.4-3.3,1-3.5,2.8
	c-0.2,2,1.6,2.8,3.1,3.2c8.3,2.5,16,6.5,24.5,8.6l0,0c2.6,2.9,10.2-1.5,9.4,6.4c-4.8,1.1-8.8-1.8-13.3-2.5c-13-4-26.6-3.9-39.8-6.5
	c-6.1-1.2-13.8-0.5-14.5-9.5c-0.5-6.2,8.6-14.1,16.7-15.1C262.4,63,269.8,64.8,277.1,63.9z"/>
<path class="st8" d="M296.7,91.1c-9.2,0-17.3-4.8-26.2-6c-3.4-0.5-6.6-2.5-6-6.2c0.5-3.4,3.7-4.8,7.2-5.3c9.7-1.4,19.7-1.9,28.9-5.8
	c22.2,3.7,41.9,13.2,60.4,25.7c-4.5,2.5-8.1-0.7-11.5-2.4c-20-9.7-40.7-15.5-63.2-13.6c-2.8,0.2-6.9-0.9-7.6,2.5
	c-0.8,3.5,3.7,3.8,6,5.2C288.6,87.2,292.7,89.1,296.7,91.1z"/>
<path class="st8" d="M442.8,206.2c-2.4,2.1-1.7,4.6-1.1,7.2c3.1,12.3-3.7,23.1-5.3,34.7c-0.3,1.8-2.1,3.7-4.1,3.6
	c-2.3-0.1-2.5-2.5-3.2-4.3c-4.1-11.6-7.6-23.2-9.6-35.4c5.1,4.7,4.5,12,7.8,17.5c1.2,2,1.5,5.7,5,4.8c2.5-0.6,2.7-3.3,2.8-5.7
	c0.9-18.6-1.1-36.8-8.9-54c-2.2-4.9-4.7-9.7-3-15.3C433.3,173.6,439.1,189.5,442.8,206.2z"/>
<path class="st9" d="M277.1,63.9c-3.3,3.1-7.4,1.4-11.1,1.7c-3.2,0.3-6.6-0.5-9.7,0.2c-7.2,1.6-14.6,5.1-15.6,12.5
	c-1.2,9,8,6.5,12.9,7.6c13.1,2.8,26.7,3.4,39.1,9c-5.9-0.7-11.7-1.3-17.6-2c-13.9-2.4-28-2.8-42.1-3.7c-5.1-0.3-11.3,0.1-12.1-6.9
	c-0.8-6.9,2.6-11.8,9.5-13.8c0.6-0.2,1.1-0.6,1.7-1c0.8-0.4,3.3-0.6,1.1-1.7c-2.1-1-5.1-0.4-7.7-0.5
	C242.7,61.7,259.9,60.7,277.1,63.9z"/>
<path class="st9" d="M413.7,208.1c7.9,14.4,8.4,30.7,11.7,46.3c0.5,2.2,0.5,4.5,1.2,6.6c1.4,4.6-0.1,12.8,6.4,12
	c4.7-0.6,9.7-6.3,12-12.2c1.7-4.5,0.8-9.6,3.7-13.7c0.9,10.7,1.1,21.4-1.4,32c-1.7,0.8-0.2-3.9-2.4-1.5c-4.6,4.8-8.9,12.4-16.1,10
	c-7.9-2.6-7-11.5-7.1-18.6c-0.2-9.9-0.1-19.9-2-29.7C417.6,228.9,415.7,218.5,413.7,208.1z"/>
<path class="st10" d="M419.6,239.4c3,7.2,3,14.9,3.9,22.5c0.2,1.6-0.1,3.3,0,4.9c0.5,7.3-0.7,18.1,6.6,19.1
	c4.7,0.7,14.7-5.8,16.4-15.2c0.2,2.8,0.5,5.7,0.8,8.5c-0.2,4.1,0.1,8.2-2.1,11.9c-0.2-1.6-0.3-3.1-0.6-6.3c-1.6,3.2-2.6,5.2-3.5,7.2
	c-1.1,2-3.1,3.3-4.7,4.8c-3.4,3.1-6.8,6.7-11.8,3.8c-4.5-2.6-4.8-7.6-4.6-12.1c0.7-11.2,1.6-22.5-0.3-33.7
	C419.6,249.8,419.6,244.6,419.6,239.4z"/>
<path class="st11" d="M144.5,196.6c7.5-11.9,15.4-23.4,25.2-33.6c3.3-7.7,10.1-11.8,16.5-16.1c76.1-50.8,180.7-6.8,197.7,83.1
	c7.2,37.9-1.9,72.1-24.3,103c-1.7,2.3-3.2,5-6.7,5.1c-5.8,5.4-11.6,10.7-17.4,16.1c-6,9.6-16.6,12.6-25.5,18
	c-11.2,4.8-22.7,8.3-34.8,10.2c-5.1,0.5-10.2-0.3-15.2,1.1c-1.5,0.3-3.1,0.3-4.6,0c-5.5-1.5-11.1-0.5-16.7-1.3
	c-25.5-4.4-48.5-14.5-67.7-31.9c-22.1-20.1-35.2-45.4-40.8-74.6c-0.3-6.9-2.7-13.7-2.2-20.7c-0.1-13.7,0.4-27.3,5.9-40.2
	C137.7,208.8,138.5,201.1,144.5,196.6z"/>
<path class="st0" d="M352.9,338c25.4-32.2,36.6-68.3,28-109.1c-20.3-95.8-133.4-133.3-207.5-69.1c-1.2,1.1-2.5,2.1-3.7,3.1
	c0.3-11.4,8-19.2,13.8-27.7c4-5.8,9.3-11.2,15.1-15c6.6-4.3,13.1-7,22.9-4.9c12.8,2.7,26.9-0.3,40.4-1.5
	c25.3-2.2,48.7,3.6,70.5,16.1c10.9,6.3,20.5,14.3,29.5,23.3c29.5,29.4,40.3,65.5,35.4,105.6c-1.7,13.7-2.8,28.9-11.9,41.4
	c-4.3,5.8-4.2,13.5-4.9,20.5c-0.8,8.1-18.3,20.6-26.6,18.8C353.6,339.5,353.3,338.6,352.9,338z"/>
<path class="st12" d="M136.9,214.8c-6,12.8-5.1,26.6-6.2,40.1c-5.2-0.9-3.8-5.2-4.4-8.4c0.6-4.9-1.2-9.3-2.9-13.7
	c-0.3-0.9-0.4-1.7-0.6-2.6c-0.5-2.4,0.2-5.7-2.5-6.6c-2.1-0.8-2.5,2.2-3.5,3.7c-4.2,8.8-4.8,18.2-5.3,27.7c-0.1,0.9-0.3,1.9-0.5,2.8
	c-1.4,5.7-1.3,11.4,0.3,17c1,5.3,0.6,10.8,2.5,16c1.1,5.6,2.4,11.2,4.8,16.4c2,9.1,6.5,17,11.3,24.8c3.9,7.4,8.1,14.6,15.1,19.7
	c0.6,0.7,1.1,1.4,1.5,2.2c2.5,5.9,7.3,9.6,12.4,13.1c1.1,0.8,2.2,1.6,3.2,2.5c12.6,10.5,26.1,19.6,42.3,23.8
	c21.1,7.1,42.6,9.6,64.6,5.2c2.6,0,5.2,0.2,7.7-0.8c2.1-0.8,4.5-0.8,7-4c-13.7-7.4-29.5-5.6-43.4-10.8c5.5-3,11.1-2.4,16.7-1.4
	c0.6,0,1.3,0,1.9,0c5.4-2,11.2,0.5,16.6-1.6c11.9-2.4,23.5-6,34.9-10.1c2.9-0.4,5.8-0.6,8.7,0.2c8.9,2.3,11.6,9.7,6.2,17.1
	c-5.4,7.4-13.4,11.9-21.6,14.3c-19.8,5.8-39.6,11.2-60.9,7c-7.7-1.5-15.9-1.8-23.7-3.3c-2.1-0.1-4.5,0.3-5.9-2
	c-3.8-1.6-8.1-1.7-11.7-3.9c-15.1-3.1-26.5-13.1-38.1-21.9c-30.2-22.9-49-53.6-56.3-90.9c-5.6-28.5-4.2-56.3,10.5-82.3
	C128.7,198.2,136.2,202.2,136.9,214.8z"/>
<path class="st13" d="M218.6,405.2c9.2,1,18.5,2.7,27.7,2.9c25.8,0.7,50.8-2.4,72.3-18.3c3.6-2.7,8.7-5.8,6.9-11.7
	c-1.5-5.1-6.5-5.5-11-6.4c-1.5-0.3-3-1.2-4.5-1.8c8.5-5.3,17-10.6,25.5-15.8c1.9,4.6,5.9,4.2,9.8,4.3c4.7,0.1,9.6,0.9,11.2,5.8
	c1.7,5.2-1.6,9.5-5.4,12.6c-9.7,7.9-19.8,15.2-31.4,20.5c-21.5,9.8-43.8,15.3-67.4,13.6C241.1,410.1,229.4,410,218.6,405.2z"/>
<path class="st14" d="M136.9,214.8c-2.7-10.7-10.2-12.6-19.8-10.6c0.5-5.2,3.8-8.7,7.3-12.2c7.7-7.5,8.8-7.6,14.6,1.4
	c1.5,2.4,4.3,1,5.5,3.1C142,202.7,139.5,208.7,136.9,214.8z"/>
<path class="st13" d="M201.1,399.4c4.3,0.2,8.3,1,11.7,3.9C208.4,403.4,204.1,403.2,201.1,399.4z"/>
<path class="st9" d="M292.8,95c4.6,0.6,9.1,1.3,13.7,1.9c8.3-1.7,14.8,3.3,21.5,6.6c8.9,4.4,17.5,9.6,25.7,15.3
	c14.9,10.3,27,23.4,38.2,37.5c2,2.5,4.2,4.9,3.8,8.5c-0.2,1-0.7,1.8-1.4,2.4c-6.1-7.1-12-14.2-18.2-21.2
	c-20.8-23.4-46.6-38.7-76.4-47.8C297.3,97.5,294.4,97.4,292.8,95z"/>
<path class="st15" d="M232.3,67.7c-1.3,1.3-2.5,2.9-4.1,3.9c-4.4,2.8-5.6,7.3-5.1,11.7c0.5,4.7,5.3,3.7,8.7,4.1
	c12.1,1.3,24.2,2.5,36.2,3.7c2.5,0.2,5.2-0.5,7.1,2c-14.5,0.5-28.7-2.9-43.3-2.1c-6.8,0.3-15.3,0.2-16.7-9
	C214,73.8,221.2,68.4,232.3,67.7z"/>
<path class="st16" d="M419.6,255c4.1,6.6,1,13.8,1.9,20.7c0.2,1.3,0,2.6,0,3.9c0,22.1,0.8,22.6,19.5,12.5
	c-1.7,7.9-8.7,10.8-14.4,14.7c-3.1,2.1-5.3-0.2-7-2.9c-2.5-4.2-2.8-8.9-1.8-13.2C420.7,278.8,419.1,266.8,419.6,255z"/>
<path class="st9" d="M394.2,167.2c0-0.7,0-1.3,0-2c6.7-0.4,6.6,6.1,9.4,9.5c3,9.3,11.6,16.6,10.1,27.6c0,2,0,3.9,0,5.9
	C407.2,194.5,400.7,180.8,394.2,167.2z"/>
<path class="st17" d="M324,85.2c32.6,10.3,58.7,29.7,79.4,56.8c2.2,2.9,4.2,5.8,4.6,9.5c-0.7,0.6-1.5,0.7-2.4,0.5
	c-3.4-2-4.9-5.8-7.6-8.5c-0.6-0.6-1-1.3-1.5-2c-1.5-2.6-3.5-4.6-6-6.1c-10.1-8.6-19-18.6-30.2-26c-3.1-5.1-8.6-6.9-13.6-9.3
	c-5.3-3.1-10.9-5.1-17.5-6.3c5.3,3,9.7,6.4,14.5,9.1c3.4,2,6.7,4.1,10,6.3c3.1,2.3,5.7,5.4,9.1,7.3c0.8,0.5,1.5,1,2.1,1.6
	c9.2,9,18.3,18,27.2,27.2c0.6,0.7,1.1,1.4,1.6,2.2c1.1,2,2,4.1,1.7,6.5c-0.3,0.9-0.9,1.5-1.8,1.9c-8.1-4-12.2-12.2-18.3-18.2
	c-7.6-7.5-15.5-14.6-24.5-20.3c-4.7-3.9-10.5-6.3-15.2-10.2c-7.6-5.7-16.8-8.3-24.4-13.9c-2.5-1.8-6.4-3.2-4.9-7.3
	c1.5-3.9,5.5-3.1,8.5-2.4C317.7,84.4,321.1,83.3,324,85.2z"/>
<path class="st18" d="M425.4,184.8c6.5,10.6,6.5,22.1,5.3,35.8c-7.9-8-8.9-17.6-15-24.2c-5.2-5.4-9-11.7-11.2-18.9
	c0.1-1,0.4-1.9,0.9-2.7c0.8-0.6,1.7-0.9,2.7-0.9c4.2,1.2,5.6,4.8,7.5,8.2c1.8,4.9,4,9.5,8.1,14.8
	C424.1,192.1,422.1,187.9,425.4,184.8z"/>
<path class="st19" d="M324,85.2c-5.4,0-10.8,0-18.1,0c9.6,11.2,23.4,12.4,31.8,21.4c-1.1,0.8-2.3,1.5-3.5,0.8
	c-10.2-6.1-22.2-8.8-31.6-16.4c-4.2-2.7-8.3-5.3-13.7-8.8C302,78.9,313.1,80.5,324,85.2z"/>
<path class="st8" d="M302.5,91.1c11.7,5.2,23.4,10.4,35.1,15.6c4.1,3.8,10.4,4.7,13.7,9.7c1.1,1.1,3.1,1.8,1.9,4
	c-15.4-8.2-30-18-46.8-23.5c-2.2-3.7-7.2-2.8-9.8-5.8C298.6,91.1,300.6,91.1,302.5,91.1z"/>
<path class="st20" d="M425.4,184.8c0.2,3.5-0.1,7,1.3,10.5c0.8,1.9,1.8,4.8-1,5.8c-2.8,1-3.4-2.1-4.7-3.8c-3.2-4.5-6.2-9-7.2-14.5
	c3.4,0.3,6.7,0.4,7.4-4.1c0.8-0.5,1.6-0.4,2.3,0.3C423.6,181.1,423.2,183.3,425.4,184.8z"/>
<path class="st8" d="M405.9,176.9c0.4,7.9,8.8,11.9,9.8,19.5c0,2,0,3.9,0,5.9c-0.6,0-1.3,0-1.9,0c-3.9-9.1-7.8-18.2-11.7-27.3
	C404.2,173.9,404.9,175.7,405.9,176.9z"/>
<path class="st18" d="M423.4,178.9c-0.6,0-1.3,0-1.9,0c-5.7-3.1-5.1-10.4-9.6-14.3c-1.2-1.6-1.9-3.3-1.9-5.3
	c0.1-1.5,0.6-2.9,1.8-3.8C418.8,161.7,421.1,170.3,423.4,178.9z"/>
<path class="st21" d="M411.8,155.4c0,1.3,0,2.6,0,3.9c-0.7,0.6-1.5,1-2.4,0.9c-2.5-0.7-3.6-2.6-4.4-4.9c-0.3-1.4-0.1-2.7,1-3.8
	c0.7,0,1.4-0.1,2.1-0.1C409.2,152.8,410.5,154.1,411.8,155.4z"/>
<path class="st22" d="M269.3,401.3c-23.3,4.6-46,1.2-68.3-5.9c-0.5-1.9,0.7-2.8,2.2-3.5c2-0.6,4-0.5,6,0c14.2,5.2,28.8,5.6,43.7,3.8
	c-11.5-2.6-22.6-6.5-33.8-9.7c-2.8-0.8-5.5-1.7-8.2-2.7c-30.7-13.3-55.1-33.8-72.2-62.8c-2.1-3.6-4.1-7.4-5.5-11.4
	c-0.8-3.3-1.5-6.8-3.2-9.8c-0.4-0.8-0.7-1.6-1-2.4c-0.8-2.9-2.1-5.7-3.4-8.4c-0.4-0.8-0.7-1.7-0.9-2.5c-2.5-9.6-5.7-19-8-28.9
	c-3.1,6.8-3.5,13.7-2.1,20.8c0.9,4.7,2,9.5-0.9,14c-0.8,0.6-1.7,0.6-2.5,0c-2-5.7-2.2-11.6-2-17.6c-1.5-5.9-1.5-11.7,0-17.6
	c0-0.7,0-1.3,0-2c1.6-4.5,1.3-9.4,2.4-14.1c0.7-3.2,1.6-5.9,5-6.1c4-0.3,5.8,2.7,6.4,6c1.8,9.2,3.5,18.5,5.6,27.6
	c0.7,2.8-0.4,6.9,3.9,8.1c8.1,36.8,27,66.1,59.4,86.1c14.2,8.8,30,13.5,46.1,17.3c-0.6,4.1,1.9,4.6,5.1,4.9
	c9.3,0.8,18.5,2.1,27.5,4.6c3.4,0.9,8,0.2,8.3,4.7c0.3,4.8-3.9,6-8,6.3C270.4,400.5,269.8,400.8,269.3,401.3z"/>
<path class="st23" d="M261.8,198.5c1.4-3.6,4.1-6.1,7.2-8.2c4.3-0.4,2.6,2.5,2.2,4.4c-3.3,15.9,2.1,29.3,13.7,39.3
	c12.5,10.7,27.4,14.4,43.5,7.1c3.8-1.7,3.8-1.6,7.3,0.3c-0.6,3.4-2.6,5.9-5.3,7.9c-12.5,9.3-25.7,6.9-38.5,1.2
	C269.9,240.7,259.1,221.5,261.8,198.5z"/>
<path class="st24" d="M339.5,212.1c1.5,5.9,3.8,11.8,0.3,17.8c-4.8-4.4-6.7,1.6-9.3,3.1c-12.3,6.9-27.6,6.5-38.3-1.8
	c-12.7-9.9-17.6-24.4-13.3-38.6c1.5-4.9,4.6-8.4,7.8-12c2.9-2.7,6.5-1.5,9.9-1.7c1.1,3.6-2,5.1-3.6,7.3c-8.6,11.6-7.4,27.4,2.8,35.8
	c11.1,9.2,27.1,7.4,37.1-4C334.9,216,335.1,211.6,339.5,212.1z"/>
<path class="st25" d="M286.7,180.6c1.4,1,1.1,2.2,0.1,3.2c-11.4,11.9-7.5,32,2.8,41.8c12.2,11.5,27.2,13.3,41.5,3.7
	c2.6-1.8,5.1-3.8,8.1-6c0.2,2.3,0.4,4.4,0.7,6.5c-0.2,2.7,0.3,5.5-2.1,7.6c-1.6-0.6-3.2-0.7-4.9,0.1c-22.7,9.2-43.9,3.4-54.8-14.9
	c-7.4-12.5-6.9-25.3-1.2-38.3C279.6,181.8,283,180.7,286.7,180.6z"/>
<path class="st26" d="M249.9,317.5c-1.5,2.4-3.4,4.4-6.2,5.3c-25.4,11.3-70.5-18.8-63.8-52.1c0.7-3.5,2.5-6.4,5.2-8.7
	c2.7,2,2.5,5,2.8,7.9c3,30,23.6,47,53.7,44.5C244.9,314.2,248.9,312.1,249.9,317.5z"/>
<path class="st27" d="M310.3,180.8c10.5,2.2,17.4,9.4,23.4,17.6c2.8,11.7-4.4,23.5-15.5,25.6c-14,2.7-25.6-5.2-27.7-18.8
	C288.6,192.3,296.6,182.5,310.3,180.8z"/>
<path class="st28" d="M259.7,301.9c-0.4,3.1-1.5,5.8-3.8,7.9c-30.7,16.5-69.5-5.8-68.4-44.1c0.1-2.3,0-4.5,0-6.8
	c1.6-3,4-5.2,7.3-6.2c5.2,0.9,3.2,4.8,2.6,7.3c-4.5,18.7,4.1,32.3,18.8,41c13.6,8.1,28.6,6.9,41.7-3.6
	C260.8,298,261,299.7,259.7,301.9z"/>
<path class="st29" d="M180,270.8c3.2,6.6,1.3,14.2,5.1,21.1c11.8,21.9,32.4,33.2,57.1,30c0.5-0.1,1.1,0.6,1.6,0.9
	c-4.1,3-8.2,5.8-13.5,6.1c-24.3-0.3-41.7-10.9-51.3-33.7c-0.4-1-0.7,1.1-1.5,1C173.9,287.3,176.4,279,180,270.8z"/>
<path class="st27" d="M234.2,247.2c9.1,3.5,16.8,8.7,21.5,17.5c1.1,16.1-7.3,26.3-21.4,25.9c-14.4-0.4-23.6-11.3-22-26.2
	C213.4,253.9,221.6,247.4,234.2,247.2z"/>
<path class="st30" d="M319.9,258.6c-3,2-5.8,4.2-9.7,4.1c-21.1,1.9-36.6-7.4-48.4-24.2c-2.4-3.5-4.3-7.2-4.8-11.5
	c0-0.1-0.4-0.2-0.6-0.3c0.1,0.6-0.3,1.1-1,1.4c-3.1-8.3,0.7-15.8,2.5-23.6c3.3-0.1,3.2,2.5,3.5,4.6c4.1,27.3,22.9,44.3,50.9,46
	C315.2,255.2,319.2,253.5,319.9,258.6z"/>
<path class="st31" d="M206.6,246.9c3.7-2.9,8-1.5,12.1-1.8c1,3.3-2,4.4-3.5,6.3c-8.3,10.7-8.2,26.6,0.3,34.7
	c9.8,9.4,25.6,10,36.3,1.5c2.4-1.9,4.5-5,8.4-3.4c-0.3,11.6-13.7,20.7-27.2,19.3C205.2,300.9,188.3,272.6,206.6,246.9z"/>
<path class="st32" d="M319.9,258.6c-5.8-3.9-12.5-1.1-18.8-2.9c-25.4-6.9-39-22-41.7-47.9c-0.1-1.2-1-2.3-1.5-3.4
	c0.1-2.7,2.5-4,3.9-5.9c3.8,5.2,0.9,11.3,2.3,17c5.5,22.3,37.3,46,62.5,34.4c1.1-0.5,2.5-0.4,3.8-0.6
	C327.7,253.2,324.5,256.6,319.9,258.6z"/>
<path class="st33" d="M206.6,246.9c2.8,3.2-0.5,5.3-1.6,7.7c-6.6,15.1-4.3,28.2,7.8,38.4c10.4,8.7,25.5,12,39.3,2.8
	c4.1-2.7,8-5.7,7.4-11.5c-0.4-1.8,0.2-2.4,2-2c-0.7,6.5,2,13.4-1.9,19.6c-0.2-1.6-0.4-3.1-2-4c-16,16-51.4,9.6-60.3-18.2
	c-3.5-10.9-1.7-20.9,3.6-30.7C202.3,247,204.5,247.1,206.6,246.9z"/>
<path class="st34" d="M187.4,258.9c4.2,4.9,2.4,11.3,2.9,16.6c2,25.8,35.6,46.4,59.4,34.5c1.6-0.8,4.1-2.6,6.2-0.2
	c-1.4,3-2.8,6-5.9,7.7c-1.3-1.9-3.1-2-5.1-1.5c-28.8,7.5-60.8-15.9-59.4-49.1c0.1-1.6-0.1-3.2-0.2-4.9
	C186,261,186.7,260,187.4,258.9z"/>
<path class="st35" d="M261.6,282.3c-0.7,0.7-1.3,1.3-2,2c-9.5,10.6-21.1,15-34.8,10.6c-8.6-2.8-16.2-8.2-17.6-17.9
	c-1.8-12.3-0.4-24.1,11.5-31.8c2.6,0,5.1,0.1,7.7,0.1c0.7,3.9-3.2,3.6-4.9,4.8c-9.2,6.4-9.9,15.6-8.3,25.2c1.3,7.6,10,14,18.7,14.8
	c11,1.1,17-2.4,22.7-12.8c1.1-2,1.2-5.4,5.1-4.7C261.4,275.5,261.9,278.8,261.6,282.3z"/>
<path class="st36" d="M259.5,272.6c-4.1,2.8-3.4,8.1-6.6,11.6c-6,6.5-17.1,10.2-25.6,7.1c-8.1-2.9-15.4-7.4-16.5-17.2
	c-1.2-11,0.7-20.7,11.4-26.6c1.4-0.8,2.8-1.5,4.1-2.2c2.9-0.4,5.4,0.5,7.8,1.9c-4.3,3.1-10,2.3-14.2,6.9c-6.8,7.4-6.9,15-3.3,23
	c3.9,8.5,13.5,13,22.5,10.7c8.6-2.1,14-7.7,14.6-17c0.1-2.2-0.3-4.6,1.9-6.1C258.1,266.8,259.3,269.4,259.5,272.6z"/>
<path class="st36" d="M310.3,180.8c-5.5,3.6-12.5,4.9-15.5,12c-3.9,9.1-2,17.2,4.2,24.2c5.9,6.6,14.8,6.7,21.6,3.7
	c7.5-3.3,13.5-9.9,12.5-19.8c-0.1-0.8,0.4-1.7,0.6-2.6c2.5,2,3.6,4.7,3.9,7.8c-1.7,12.5-9.7,20.7-20.7,21.5
	c-15.6,1.1-26.1-4.9-29.2-17.6c-2.5-9.9-0.9-24.5,14.8-31C305.3,178.6,307.9,179.5,310.3,180.8z"/>
<path class="st37" d="M335.7,233.5c1.6,0.9,1.9,2.4,2,4c-0.7,1.3-1.3,2.6-2,3.9c-10.7,3.2-20.7,7.2-33,4.7
	c-22.8-4.6-41.6-32.7-33.1-55.1c0-0.1-0.4-0.4-0.7-0.7c0.7-0.6,1.3-1.3,2-1.9c6.4,1.3,3.1,5.5,2.6,8.8c-2.4,15.2,6.1,31.6,20.3,39.8
	C303.9,242.7,326.3,244.2,335.7,233.5z"/>
<path class="st35" d="M302.5,179c-7.3,6.4-14.3,12.8-13.7,24c0.6,11.4,7.7,21.2,17.3,22.7c14.7,2.3,25.8-3.9,29.7-16.2
	c0.4-1.2,1.2-2.2,1.8-3.2c0.6,2,1.2,3.9,1.9,5.9c-5.5,11.9-14.7,19.1-27.9,18.6c-11.7-0.4-21.2-6.2-25.2-18
	c-4.6-13.4-0.3-24.6,10.2-33.8C298.6,179,300.5,179,302.5,179z"/>
<path class="st38" d="M255.5,228c0.3-1.9,0.5-3.8,0.9-6.8c6.6,19.8,19.1,32.3,38.1,38.7c5.2,1.8,11.1-1.1,15.8,2.7
	C285,270.9,259.3,254.7,255.5,228z"/>
<path class="st39" d="M132.6,276.5c-0.9,1.3-1.6,3.5-2.6,3.7c-2.2,0.3-1.6-2.3-1.9-3.5c-2.5-11.3-4.9-22.6-7-34
	c-0.5-2.6-0.2-5.8-3.3-6.3c-4.1-0.6-3.7,3.2-4.8,5.8c-1.7,4.1-0.4,9.1-3.7,12.7c-0.3-10.2,0.8-20.1,5.8-29.3
	c5.1-3.4,7.5,0.2,9.8,3.9c0,0.7,0,1.3,0,2c-0.5,5.1,1.8,9.3,3.9,13.7c0.5,3.3-1.3,7,1.9,9.7C131.4,262.1,132,269.3,132.6,276.5z"/>
<path class="st40" d="M200.9,249c0.5,8-5.3,14.7-3.7,23.1c5.1,26.9,31.3,40.2,56,27.9c1.5-0.7,2.9-1.4,4.4-2.2
	c0,4.5-3.5,6.1-6.8,7.2c-24.4,8.1-45.5,0.1-55.8-26.3c-3.6-9.1,1.8-17.5-0.3-26.2C196.3,250.6,198.3,249.2,200.9,249z"/>
<path class="st41" d="M177.4,296.3c0.2-1.9,0.4-3.8,0.7-6.5c9.4,22.8,25.8,35.3,49.7,37.7c0.8,0.1,1.6,1,2.4,1.5
	C206.3,335.8,182.6,321.2,177.4,296.3z"/>
<path class="st42" d="M335.7,233.5c-1.9,6.6-8.1,6.9-13.1,8.4c-26.7,8.1-55.7-18.3-50.2-45.6c0.6-3,1.6-5.7-1.4-7.9
	c1.4-2.1,3.3-3.5,5.9-3.9c2.5,2.4,0.6,5.1,0,7.2c-4.5,15.3-1,28.8,10.7,38.8c12.9,11,28.2,11.8,43.8,5.2
	C332.8,235,334.2,234.2,335.7,233.5z"/>
<path class="st43" d="M269.3,401.3c1.4-0.8,2.7-1.6,4.1-2.2c2.1-1,4.5-2.2,4.3-4.7c-0.3-2.8-3.2-2.5-5.3-2.9
	c-12.9-2.3-25.7-4.8-39.7-7.4c2.6-2,4-3.1,5.4-4.2c6.2,0.2,12.5-0.1,18.6,1.7c-4.8,0-9.6,0-14.3,0c11.8,0.1,22.7,4.6,34.1,6.1
	c2.5,0.3,5,1.2,7.5,1.9c2,0.5,3.8,1.3,4.1,3.5c0.4,2.7-1.7,4.6-3.7,5.2C279.5,399.8,274.7,401.7,269.3,401.3z"/>
<path class="st43" d="M275.2,380c-5.2,3.6-11.1,1.1-16.6,1.6C264,379.7,269.6,380.2,275.2,380z"/>
<path class="st44" d="M134.7,307.6c14.7,31.3,37.8,54.3,68.7,69.6c2.6,1.3,5,2.9,7.4,4.4c0.5,0.5,0.6,1.1,0.5,1.6
	c-0.1,0.5-0.3,0.8-0.4,0.8c-2.3,1-4.5,0.3-6.8-0.1c-5.8-1.4-9.6-6.9-15.5-8.1c-14.6-8.1-27.9-17.6-37.6-31.5c-1.2-3.2-3-6-5.9-7.9
	c-2.3-2-4-4.5-5.7-7c-1.1-1.9-2-3.9-2.8-5.9c-1.8-5-5.7-8.8-7.7-13.6c-0.9-2.3-1.7-4.8-3.5-7.8c1.7,5.5,2.3,10.4,4.9,14.6
	c2.9,5.8,5.2,12,9.7,17c7.2,9.3,13.9,19,22.8,26.8c2.3,2.5,4.7,4.8,7.7,6.3c1.9,1.1,3.6,2.3,5,3.9c2.9,3.3,6.5,5.5,10.6,7.1
	c0.8,0.4,1.6,0.9,2.3,1.5c1.2,1.5,2.3,3.1,0.8,5c-5.1,2.8-8.3-1.4-12.1-3.4c-4.8-2.5-8.9-6.1-13.3-9.3c-2.3-2.7-4.6-5.4-8.1-6.5
	c-3.8-3.5-7.7-7-11-11.1c0-0.5,0-1.1-0.2-1.6c-5.4-4.7-10.4-9.7-13.2-16.5c-0.8-3.9-2.9-7-5.6-9.7c-1.4-1.2-1.8-2.9-2.3-4.5
	c-0.4-3.6-2.2-6.8-3.6-10.1c-0.3-0.9-0.5-1.9-0.6-2.9c-4.3-9.9-4.3-20.5-5.3-31c-0.3-3.6,0.1-6.8,4.1-7.4c3.8-0.5,4,3.4,5.1,5.9
	c1.6,3.8,2.2,8,4,11.8l0,0c1.6,3.1,2.3,6.7,3.9,9.8l0,0C132.5,301,132.9,304.6,134.7,307.6z"/>
<path class="st14" d="M164,370.1c8.6,4.3,14.8,13.1,25.4,13.6c0.8-0.5,1.6-0.6,2.5-0.3c3.2,4,9.8,4.1,11.2,10
	c-0.7,0.7-1.4,1.3-2.1,2c-15.2-5.9-29.7-13.1-41-25.4C161.4,368.8,162.7,369,164,370.1z"/>
<path class="st14" d="M132.7,335c1.2,7.7,9.8,10.4,11.8,17.5c-9.4-3.1-12.6-11.3-15.6-19.5c0.4-0.2,0.8-0.3,1.1-0.5
	C131.3,332.9,132,334,132.7,335z"/>
<path class="st14" d="M125,321.3c0.6,1.3,1.2,2.6,1.9,3.9c1.1,2.5,4.3,4.4,2,7.8c0,0,0,0,0,0c-6.6-7.2-11.2-15.4-11.7-25.4
	c0.4-0.1,0.8-0.2,1.3-0.3c2,0.7,1.3,3.2,2.7,4.2l0,0C122.6,314.7,123.1,318.3,125,321.3z"/>
<path class="st14" d="M144.6,354.1c5.5,1.4,8.4,5.9,11.6,9.9c0.9,1.3,3,1.9,1.8,4.1C151.3,365.7,146.4,361.4,144.6,354.1z"/>
<path class="st14" d="M125,229.6c-3.1-1.8-5.7-4.7-9.8-3.9c1.9-2.1,1.6-7.6,5.6-6.1C124.4,221,125.1,225.6,125,229.6z"/>
<path class="st14" d="M128.8,245.2c-5.6-3.3-6.5-8-3.9-13.7C127.2,235.8,129.6,240.1,128.8,245.2z"/>
<path class="st14" d="M111.3,292c0.7,0,1.3,0,2,0c4.3,4.5,6,9.5,3.9,15.6c0,0,0,0,0,0C112.4,303.5,113.3,297.2,111.3,292z"/>
<path class="st14" d="M109.3,256.9c0,5.9,0,11.7,0,17.6C106.2,268.6,106.2,262.8,109.3,256.9z"/>
<path class="st45" d="M158.1,368.1c-0.6-1.4-1.2-2.7-1.8-4.1c3.7,0.6,6,2.9,7.7,6.1c-1.3,0-2.6,0-3.9,0
	C159.4,369.4,158.8,368.8,158.1,368.1z"/>
<path class="st46" d="M405.9,176.9c-1.3-0.6-2.6-1.3-3.8-1.9c-3.6-2.5-3.3-8-7.8-9.8c-8.9-16.7-22.9-28.8-36.9-40.9
	c-1.4-1.2-2.7-2.6-4.1-3.9c-0.6-1.3-1.3-2.7-1.9-4c14.2,7.4,24.6,19.2,34.9,31c2.5,2.9,4.7,6.1,8,8.2c4.3,2.6,6.7,6.8,9.2,10.9
	c1,2.7,4,4.9,2.7,8.4C405.9,175.6,405.9,176.3,405.9,176.9z"/>
<path class="st47" d="M406,155.4c1.3,1.3,2.5,2.7,3.8,4c1.5,1.6,1.7,3.7,0.4,5.1c-1.6,1.9-3.5,0.5-5.1-0.5c-1.9-1.2-3.4-2.8-4.9-4.5
	c-0.6-0.7-1.1-1.4-1.6-2.1c-2-3.3-3.6-6.9-6.4-9.7l0.1,0c-8.8-10.7-18.6-20.5-29.3-29.3l0,0c-2.6-2.4-6.2-3.9-6.8-8
	c0.3-1.5,1.2-2.5,2.6-2.9c1,0,1.8,0.2,2.6,0.8c12.7,5.6,20.7,17,31,25.6c1.8,2.7,4,5.2,6,7.7l-0.1-0.1
	C401.3,146,404.2,150.4,406,155.4z"/>
<path class="st48" d="M343.5,104.7c-7.2-2.6-13.1-7-19.7-13.6c9.7,0.9,17.4,2.2,23.7,7.7C345.2,100.2,343.5,101.9,343.5,104.7z"/>
<path class="st49" d="M343.5,104.7c-5-6.2-0.6-6.1,4-5.9c5.3,2.2,11.9,2.6,13.8,9.6c-0.7,0.1-1.5,0.1-2.2,0.2
	c-1.7-0.8-3.4-1.4-4.9,0.5c-0.2,0.7-0.5,1.2-1,1.7C349.1,110,346.4,107.3,343.5,104.7z"/>
<path class="st50" d="M362.9,118.5c12.3,7.3,22,17,29.3,29.3C381.9,138.5,372.1,128.8,362.9,118.5z"/>
<path class="st51" d="M402,167.2c-2.7-3.8-6.9-6.5-7.8-11.5c0-0.8,0.1-1.5,0.1-2.3c3.6-0.9,4.1,2.4,5.7,4.1l0,0
	c1.4,3.3,6.4,4.9,4.5,9.7C403.7,167.8,402.8,167.8,402,167.2z"/>
<path class="st52" d="M406,155.4c-3.2-4.2-6.5-8.4-7.7-13.8c4.1,2.1,5.9,6,7.6,9.9C405.9,152.9,405.9,154.2,406,155.4z"/>
<path class="st50" d="M353.2,110.8c0-0.7,0.1-1.4,0.1-2.2c2.2-1.1,3,0.6,3.9,2c1.9,2.6,3.9,5.3,5.8,7.9
	C358.2,117.8,355.7,114.2,353.2,110.8z"/>
<path class="st53" d="M400,157.5c-1.9-1.4-3.8-2.7-5.7-4.1c-0.7-1.9-1.4-3.7-2.1-5.6C396,150,399.6,152.4,400,157.5z"/>
<path class="st52" d="M398.3,141.7c-3.3-1.5-5.8-3.7-6-7.7C395.5,135.7,397.8,138,398.3,141.7z"/>
<path class="st21" d="M413.7,163.4c4.8,4.1,5.2,10.3,7.9,15.5c0,2.7,0,5.4,0,9.3c-3.3-2.3-5.6-3.9-7.8-5.4c-1.9-2.6-3.8-5.3-5.7-7.9
	c-1.2-1-1.3-2.2-0.7-3.6C415.3,173.4,410.7,165.3,413.7,163.4z"/>
<path class="st54" d="M407.9,171c0,1.3,0.1,2.6,0.1,3.8c-0.7,0-1.3,0-2,0.1c-1.2-2.6-4.1-4.4-4-7.8c0.7,0,1.4,0,2.1,0
	C406.3,167.5,408.6,167.8,407.9,171z"/>
<path class="st53" d="M407.9,171c-1.3-1.3-2.6-2.6-3.9-3.9c-1.4-3.2-2.7-6.5-4.1-9.7c2.1,1.8,4.2,3.7,6.5,5.2
	c5.5,3.6,2.4-1.9,3.3-3.2c0.7,0,1.3-0.1,2-0.1c0.6,1.3,1.3,2.7,1.9,4c-0.6,4.5,3.1,8,3.5,12.5C412.2,176.7,411.2,171.9,407.9,171z"
	/>
<path class="st45" d="M117.2,307.6c0.1-5.5-1.2-10.8-3.9-15.6c0.4-12.2-4.5-24.3-0.1-36.6c0.6-1.8,0.2-4.4,2.4-4.8
	c3.2-0.6,3.3,2.5,3.7,4.5c2.6,11,5,22,7.5,33c-3.7-2.8-3.6-7.4-5.4-11.1c-0.9-1.9-0.7-5.4-3.5-5c-3.3,0.4-2.7,3.9-2.7,6.4
	c-0.2,7.5,1.7,14.7,3.7,21.8c1,3.7,2.6,7.3,2.2,11.3C119.8,310.2,118.5,308.9,117.2,307.6z"/>
<path class="st55" d="M218.6,383.8c13.2,3.5,26.5,7,39.7,10.5c-0.1,1.1-0.3,2.3-0.4,3.4c-16.5,3.2-33,3.3-49.1-4.1
	c6.9-5.4,14.1,1.4,21.1-0.9C227,388.9,219,391,218.6,383.8z"/>
<path class="st56" d="M218.6,383.8c4.9,5.3,13.4,4.2,18.3,10.6c-9.8,3.6-18.9-1.4-28.2-0.8c-1.9,0-3.8-0.1-5.7-0.1
	c-3.9-3.3-10.3-3.5-12.1-9.5c2.7-1.9,5.4-0.4,8.1,0.2c5.9,2.9,12.2,4.1,18.6,5.3c1.1,0.5,0.5-1.6,0.4-0.3c0,0.3-0.3,0.2-1-0.1
	c-2.8-1-5.4-2.2-6.3-5.4c0-0.7,0-1.4,0.1-2.1C213.5,382.3,216,383,218.6,383.8z"/>
<path class="st45" d="M134.7,307.6c-3.1-2.5-4-5.9-4-9.7C134,300.4,134.8,303.8,134.7,307.6z"/>
<path class="st45" d="M130.7,298c-3-2.6-4-6-3.9-9.8C130,290.7,131,294.1,130.7,298z"/>
<path class="st57" d="M313.6,186.7c8.4,0.2,14.3,7.5,14.2,17.5c-0.1,7-7.3,13.7-14.7,13.6c-8.6-0.1-14.9-7.4-14.5-16.8
	C298.9,193.1,305.8,186.5,313.6,186.7z"/>
<path class="st58" d="M233.8,253c9.3-0.1,15.9,6.2,16,15.4c0,6.9-8.8,15.8-15.7,15.7c-6.9-0.1-15.6-9-15.5-15.9
	C218.8,259.5,225.1,253.1,233.8,253z"/>
<path class="st53" d="M140.8,329c1.9,2,3.7,4.1,5.6,6.1c1.9,2.6,4,5.1,6,7.7c10,13.1,23.1,22.7,36.9,31.3c1.8,1.4,5.1,2.4,3.7,5.4
	c-1.1,2.4-3.6,1.6-5.6,0.3c-0.6-0.1-1.2-0.2-1.8-0.2c-3.5-3.2-8-4.9-11.8-7.7c-1.4-1.2-2.7-2.3-4.1-3.5c-2.4-2.3-4.9-4.5-7.9-6.1
	c-10.2-7.1-16.4-17.5-23.4-27.2c-0.8-1.3-1.2-2.7-1-4.3C138.1,329.4,139,328.3,140.8,329z"/>
<path class="st59" d="M187.4,379.8c7.7,0.4,3.2-3.2,1.9-5.7c6.7-0.4,9.5,7.1,15.6,7.8c1.4,0.8,2.9,2.1,1.7,3.6
	c-2.2,2.6-5,1.4-7.5,0.3c-2.7-0.6-5.3-1.2-8-1.8c-0.6,0-1.1-0.1-1.7-0.3C188.7,382.4,188.1,381.1,187.4,379.8z"/>
<path class="st60" d="M138.6,331.1c0,1.3-0.1,2.7-0.1,4c-5.3-4.8-7.5-11.2-9.6-17.7c-1.2-2.2-2.5-4.8-2.5-7.1
	c0.2-4.8,2.5-3.1,4.5-0.8c2.4,4.7,6.9,8.1,7.7,13.7C135.3,325.9,138.7,328.5,138.6,331.1z"/>
<path class="st17" d="M199.1,385.8c1.8-1.5,7.9,3.5,5.8-3.9c2,0.6,3.9,1.2,5.9,1.9c3.5,1.9,7.1,3.7,10.6,5.6
	C213,391.8,205.6,390.7,199.1,385.8z"/>
<path class="st61" d="M130.8,309.6c-1.4-0.2-3.8-2.2-3.1,1.6c0.4,2.1,0.7,4.1,1.1,6.2c-5.1-5.6-4.6-12.7-6.6-21.2
	C128.5,300.2,129.5,305,130.8,309.6z"/>
<path class="st62" d="M138.6,331.1c-2.9-2.9-4.3-6.4-5.8-11.3c2.7,1.6,4.2,2.6,5.8,3.5c0.8,1.9,1.5,3.8,2.3,5.7
	C140.1,329.7,139.3,330.4,138.6,331.1z"/>
<path class="st59" d="M173.8,372c4.6,1.6,9.9,2,11.8,7.7C180.5,378.9,176.7,376.1,173.8,372z"/>
<path class="st45" d="M128.9,333c-0.7-2.6-1.3-5.2-2-7.8c3.9,2.1,5.2,5.7,5.8,9.7C131.4,334.3,130.1,333.7,128.9,333z"/>
<path class="st45" d="M125,321.3c-3.2-2.5-4.1-5.9-3.9-9.8C124.1,314.1,125.1,317.5,125,321.3z"/>
<path class="st62" d="M152.4,342.8c-3.1-1.7-5.7-3.8-6-7.7C149.6,336.7,151.9,339,152.4,342.8z"/>
<path class="st62" d="M161.9,362.4c4.2,0.1,6.4,2.5,7.9,6.1C166.1,367.7,163.8,365.3,161.9,362.4z"/>
<path class="st52" d="M357.1,110.6c-1.3-0.7-2.6-1.3-3.9-2c-0.8-0.8-2.4-1.7-2.4-2.5c0-1.9,1.8-1.4,2.8-1c1.9,1,3.6,2.3,5.4,3.5
	C358.4,109.3,357.8,109.9,357.1,110.6z"/>
<path class="st63" d="M311.5,194.5c6,0,10,2,10.3,7.4c0.3,5.4-3.3,8.1-8.6,8.1c-5.3,0-8.3-3-8.6-8.3
	C304.2,196.2,307.3,194.2,311.5,194.5z"/>
<path class="st64" d="M224.4,269.7c0.1-7.5,3.1-10.8,9.5-10.8c6.8-0.1,10,3.2,10.1,10c0,6.9-4.5,9.3-10,9.2
	C228.5,278,224,275.3,224.4,269.7z"/>
<path class="st65" d="M239.5,268.2c-0.3,2.8-2,4.1-4.6,4c-2.6-0.1-4.2-1.8-4.3-4.4c-0.1-2.6,1.4-4.4,4-4.6
	C238.1,262.9,238.6,265.9,239.5,268.2z"/>
</svg>
