<?xml version="1.0" encoding="utf-8"?>
<!-- Generator: Adobe Illustrator 22.1.0, SVG Export Plug-In . SVG Version: 6.00 Build 0)  -->
<svg version="1.1" id="Layer_1" xmlns="http://www.w3.org/2000/svg" xmlns:xlink="http://www.w3.org/1999/xlink" x="0px" y="0px"
	 viewBox="0 0 512 512" style="enable-background:new 0 0 512 512;" xml:space="preserve">
<style type="text/css">
	.st0{fill:#FC6822;}
	.st1{fill:#FFFFFF;}
</style>
<rect class="st0" width="512" height="512"/>
<path class="st1" d="M438.8,509.5c-1-0.3-2.1-1.3-2.3-2c-1.4-5.9-3.2-11.9-3.6-17.9c-0.6-8.8-0.1-17.6-0.2-26.4
	c0-4.9-0.5-5.5-4.9-3.7c-5.3,2.1-10.5,4.7-15.5,7.5c-3.4,1.9-5.1,5.1-4.7,9.3c0.9,8.6,1.3,17.3,2.3,25.9c0.3,2.7,2.1,5.2,3,7.3h-0.4
	c0,0.1,0.1,0.2,0.1,0.2c13,0,22.3,0,26.1-0.1C438.9,509.6,438.8,509.6,438.8,509.5z"/>
<path class="st1" d="M318.6,489.8c1.5,4.1,3.3,8.1,5.3,11.9c1.5,2.7,3.6,5.1,5.5,7.8H329c0.1,0.1,0.2,0.3,0.3,0.4
	c8.3,0,16.5,0,24.4,0c0,0,0-0.1,0-0.1c-1.3-0.2-2-1.1-2.2-2.7c-0.8-6.9-1.6-13.7-2.4-20.6c-0.6-5.6-3.5-9.1-9-10.5
	c-3.5-0.9-7.1-1.4-10.4-2.7c-3.4-1.3-6.5-1.4-10,0c-3.3,1.4-4.7,3.1-3.9,6.5C316.7,483.1,317.4,486.5,318.6,489.8z"/>
<path class="st1" d="M191,509.4h-0.2c2-2.3,3.6-4.4,5.3-6.4c5.5-6,11-11.9,16.5-17.8c1.4-1.5,2.5-2.8,0.9-5.1
	c-2.3-3.3-4.3-6.9-6-10.5c-1.2-2.5-2.8-3.3-5.2-2.7c-2.9,0.7-5.8,1.5-8.7,2.4c-8.7,3-17.4,6.1-26.2,9.2c-2.5,0.9-2.8,2.3-1.6,4.5
	c2.1,4,4.2,8,6.1,12.1c2,4.6,3.7,9.3,5.9,14.9c3.1,0,7.5,0,12.9,0C190.9,509.8,190.9,509.6,191,509.4z"/>
<path class="st1" d="M388.6,506c9.6-11.3,7.1-23.9,4.2-36.6c-0.5-2-1.7-2.9-3.9-2.3c-4.9,1.3-10,2.2-14.8,3.8c-4,1.3-8.8,3-9,8
	c-0.2,6.1,0.6,12.3,1.1,18.5c0.3,3.2,0.9,6.4,1.3,9.6c0.2,1.6-0.4,2.4-1.5,2.7c0,0.1,0,0.1,0,0.2c7.4,0,14.5,0,21.1,0
	c0-0.1,0.1-0.2,0.1-0.3H387c-0.1-0.4-0.2-0.7-0.1-0.9C387.5,507.7,387.9,506.8,388.6,506z"/>
<path class="st1" d="M487,247.8c2.7-1.5,4.9-3.1,7.3-4c1.5-0.6,3.4-0.7,4.9-0.2c0.5,0.2,0.6,2.7,0.4,4c-1.5,9.8-5.3,18.3-11.8,26.1
	c-3.7,4.4-5.3,10.6-7.8,16c-4.4,9.3-9.7,17.9-18.8,23.5c-1,0.6-2.2,2.5-1.9,3.4c0.3,1,2.1,2.2,3.3,2.2c16.5,0.4,32.1,4.8,47.6,10.3
	c1,0.4,2.5,1.5,2.5,2.4c0.2,4.7,0.1,9.4,0.1,14.5c-6.2-1.8-11.8-3.6-17.5-5c-8.4-2-16.9-3.7-25.4-5.5c-0.8-0.2-1.6-0.2-2.4-0.4
	c-5.3-1.3-5.3-1.3-5.2,4.3c0.2,10.9-1.7,7.7,8.1,12.4c13.4,6.5,26.7,13.2,40,19.9c1,0.5,2.2,1.7,2.2,2.6c0.2,4.7,0.1,9.4,0.1,14.9
	c-3.3-1.8-6-3.3-8.7-4.6c-15.7-7.4-31.4-14.6-47.1-22c-3.1-1.4-4.8-0.7-6.6,2c-2,3.1-4.4,6-6.9,8.7c-2.9,3.1-4.7,3.1-8.3,0.8
	c-6.9-4.5-13.6-9.2-20.7-13.3c-3.7-2.2-8-3.4-12.2-4.7c-4.7-1.5-9.7-2.3-14.4-3.9c-1.5-0.5-2.8-2.5-3.4-4.1
	c-1.1-3.1-1.4-6.5-2.3-9.7c-1.6-5.4-0.9-7.6,3.9-10.5c6.3-3.7,10.7-8.7,11-16.5c0.1-3,1.9-3.7,4.5-2.9c1,0.3,2,0.7,2.9,1.1
	c5.8,2.1,11.2-2.6,10.1-8.6c-0.3-1.8-0.4-3.8-1.2-5.4c-0.9-1.7-2.4-3.7-4-4.3c-13.7-5.1-27.9-7.3-42.6-5.9c-8,0.8-15.8,2.4-23.1,5.7
	c-1.9,0.8-4.2,3.2-4.4,5.1c-0.4,3.8,0,7.8,0.9,11.5c0.6,2.8,3.9,3.7,7.3,2.5c2.1-0.7,4-1.8,6-2.8c2.8-1.4,4.2-0.8,3.8,2.2
	c-1.1,8.7,3.7,14.2,10.1,18.7c4.3,3,5.4,6.6,3.6,11.6c-0.9,2.7-1.6,5.5-2.1,8.3c-0.6,3.5-2.6,5.7-6.1,6.7
	c-12.1,3.5-24.1,7.1-36.1,10.9c-3,1-5.7,3-8.5,4.7c-6.7,4.1-11.9,3.4-16.1-2.3c-4.8-6.5-9.9-8.2-17.3-4.8
	c-16,7.3-31.9,14.7-47.6,22.4c-6.8,3.3-13.3,7.4-19.9,11.3c-2.8,1.7-4.8,1.1-5.6-1.8c-1-3.7-1.7-7.6-2.2-11.5
	c-0.1-0.8,1-2.1,1.8-2.6c14.2-7.9,28.4-15.9,42.8-23.5c8.8-4.6,18-8.4,27-12.6c2.1-1,2.9-2.3,2.4-4.7c-1.7-7.7-2.1-8.6-10-7.5
	c-10.2,1.4-20.2,3.6-30.3,5.8c-13.2,2.9-25.3,8.6-37.5,14.1c-4.7,2.1-5.6,1.6-6.1-3.5c-0.2-2-0.5-3.9-0.8-5.8
	c-0.7-4.2-0.1-5.9,3.8-7.4c13.5-5.5,26.8-11.4,40.6-16c7.9-2.6,16.6-2.8,24.9-4c4.3-0.6,8.7-0.9,13.2-1.4c0.8-4.3-1.1-7.7-3.4-10.6
	c-6.7-8.4-13.5-16.7-20.7-24.7c-6.3-7-9.3-15.3-11.6-24.1c-1.3-4.9,2-7,6.8-5c1.9,0.8,3.9,1.6,6.6,2.7c-1.1-5.6-2.5-10.1-2.9-14.7
	c-1.1-10.2-3.6-20.3-2.5-30.7c0.5-4,1-8,1.9-12c0.8-3.6-0.7-5.8-3.8-7.2c-2.5-1.2-5-2.5-7.7-3.2c-4.6-1.3-8.1-3.9-10.4-8
	c-2.8-5-5.7-10.1-8.4-15.1c-4.8-8.9-4.2-18.1-1.3-27.3c1.7-5.5,4-10.8,6.1-16.2c1.8-4.7,4.8-8.4,9.2-11c3.1-1.9,6-3.8,9.1-5.8
	c3.9-2.5,8-3.7,12.8-3.8c18.4-0.3,34.1,6.7,48.4,17.3c6.1,4.4,9.6,10.9,12,17.9c0.9,2.6,2.2,3.7,5,3.5c16.1-1.2,31.1,2.9,45.7,9.4
	c1.2,0.5,3.3,0.3,4.4-0.5c10.7-6.9,22.4-10.8,35.1-11.8c4.3-0.3,8.5-0.8,12.7-1.5c0.9-0.1,1.9-1.8,2.1-2.8c1.4-9.9,5-18.8,12.8-25.4
	c3.7-3.2,7.7-5.8,12.8-6.5c5-0.7,10-2,15-2.6c15.3-1.7,26.8,4.9,36,16.6c2.6,3.3,5.3,6.5,7.5,9.9c1.2,1.8,2.1,4.2,2.1,6.3
	c0.2,17.3,0,34.5,0.2,51.8c0,3.5-1.3,6.1-3.9,8c-3.4,2.5-7.2,4.6-10.7,7c-0.8,0.6-1.7,1.6-1.9,2.5c-2.1,10.2-4,20.4-5.9,30.6
	C489.3,234.3,488.2,240.8,487,247.8z M459.8,290.6c-4.2-2.5-8.1-4.6-11.7-7.1c-6.1-4.1-13.7-6.4-17.4-13.7c-2-4-5.3-6.8-9.7-8.4
	c-1.3-0.5-2.8-2.6-2.9-4.1c-0.8-9-1.2-18-1.7-27c-0.1-1.1,0.5-2.2,1.1-4.4c4.7,8.3,11.6,8.7,18.7,8.3c7.6-0.4,14.3-2.5,17.1-10.9
	c0.5-1.6,2.5-3,4.2-3.8c4.9-2.3,8.5-6,12.5-10.7c-2.3-0.4-3.9-0.8-5.5-0.9c-5-0.2-9.9-0.3-14.9-0.3c-11.7-0.2-23.4-0.5-35.1-0.4
	c-7.9,0.1-13.4,6.7-12.4,14.3c1.9,15.3,3.9,30.7,5.6,46.1c0.3,2.6,1,4.4,3.4,5.4c6.8,3,10.7,8.4,13.4,15.1c0.8,2,2.9,3.8,4.8,4.9
	c6.6,4,13.4,7.7,20,11.7c1.9,1.1,3,1,3.9-0.9C455.3,299.5,457.4,295.3,459.8,290.6z M308.4,206.9c0,0.2,0,0.5,0,0.7
	c-8.4,0-16.9,0-25.3,0c-1.1,0-2.1,0.6-3.2,1c0.5,1.1,0.7,2.5,1.4,3.3c6.6,6.8,13.1,13.7,20.2,20c2.5,2.2,6.3,3.5,9.7,4
	c4.1,0.5,8.3-0.1,12.4-0.8c2.5-0.4,3.2,0.1,3.7,2.5c1.9,8.3-0.2,16.6-0.6,24.8c-0.2,5.6-4,8.9-9.6,11c-4.5,1.7-9,4.5-12.6,7.7
	c-5.6,5.1-8,11.8-5.7,19.5c1.1,3.5,3.4,4.4,6.7,2.6c3.5-1.8,6.7-4.1,10.3-5.8c3.2-1.6,5.2-4,5.8-7.3c0.7-3.9,2.8-6.5,6.3-8.2
	c2-1,4.1-1.8,5.7-3.2c1.6-1.3,3.6-3.1,3.8-4.9c1.1-7.9,1.5-15.9,2.4-23.8c1.1-9.3,2.2-18.6,3.9-27.8c1.9-10.5-4.3-15.7-12.8-15.4
	C323.4,207.1,315.9,206.9,308.4,206.9z M244.2,144.2c0.3,1.3,0.5,3.8,1.3,6c3.6,9.8,10.7,16.9,18.4,23.4c0.8,0.7,3.2,0.5,4.3-0.2
	c1.6-1,2.7-2.8,4-4.3c2.5-2.7,4.7-5.8,7.6-8.1c6.5-5.2,13.4-9.9,19.9-15.1c1.1-0.9,2-3.2,1.7-4.6c-1.3-6.4-4.3-11.9-10.7-14.9
	c-3.1-1.5-6-3.6-9.3-4.5c-3.6-1.1-7.6-2.1-11.1-1.5c-5,0.9-10.1,2.9-14.6,5.3C249.2,129.4,244.2,134.7,244.2,144.2z M498.8,143.8
	c-0.2,0-0.3,0-0.5-0.1c0-2,0.2-4,0-5.9c-0.8-7.5-3.3-14-10.8-17.2c-6-2.6-12.4-4-18.9-3.1c-5.5,0.7-10.5,3.1-13.7,7.9
	c-2,3-3.9,6-5.4,9.3c-1.1,2.4-1.4,5.1-1.9,7.6c-0.4,2.5,0.6,4.1,3.3,4.7c1.9,0.4,3.7,1.4,5.4,2.2c9.7,4.4,17.4,11.3,24.4,19.1
	c2.3,2.6,4.8,2.9,7.4,1.5c4.2-2.2,7.7-5.2,8.5-10.3C497.4,154.3,498,149,498.8,143.8z M407.8,185.1c0.1,0.3,0.2,0.7,0.2,1
	c4.1,0,8.3-0.2,12.4,0.1c5.8,0.4,10.6-1.8,15.2-5c3.8-2.7,4-5.4,0-7.8c-3.5-2.1-7.4-3.9-11.4-4.9c-7.9-2.1-16-3.6-24-5.3
	c-2.8-0.6-5.7-1-8.8-1.5c1.1,5,1.9,6.3,6.5,8.3c6.4,2.8,10.6,6.9,9.8,14.5C407.6,184.7,407.7,184.9,407.8,185.1z M351.1,164.5
	c-1.9,0.6-5.4,1.4-8.7,2.7c-9,3.4-16.4,8.9-22.2,16.6c-2,2.7-1.4,3.5,1.9,3.7c5.3,0.4,10.6,0.6,15.9,1.4c2.8,0.4,4.7-0.4,6.3-2.4
	c1.9-2.3,3.9-4.6,5.7-7c2.2-3.1,4.5-6.2,6.2-9.6C357.8,166.1,356.4,164.2,351.1,164.5z M428.2,325.8c-0.1,0.2-0.1,0.5-0.2,0.7
	c-1.6,0.1-3.2,0.1-4.8,0.3c-2.6,0.3-2.8,2.3-2.9,4.4c-0.1,2.1,1.1,2.5,2.9,3c3.6,0.9,7.1,2.1,10.5,3.3c2.4,0.9,4.6,2.3,7,3
	c0.9,0.3,2.9-0.3,3.2-1c0.8-2,1.3-4.2,1.4-6.4c0-1.1-0.9-2.9-1.8-3.2C438.4,328.5,433.3,327.2,428.2,325.8z M325.7,331.2
	c-0.1-0.4-0.2-0.9-0.3-1.3c-7.1-0.7-14.2-1.1-21.2,0.7c-3.8,1-1.1,4-0.5,5.7c0.6,1.8,0.3,5.1,3.9,4.7c0.1,0,0.2,0,0.3-0.1
	C313.8,337.7,319.7,334.4,325.7,331.2z"/>
<path class="st1" d="M388.2,68.6c6.9,0.6,13.3-3.7,15.6-10.6c2.6-8.1,4.9-16.4,7-24.6c0.8-3,2-4,5.1-3.4c3.6,0.7,7.3,1,11,1.3
	c3.4,0.3,4.1,1.2,3.7,4.7c-0.4,3.8-0.9,7.6-1.1,11.4c-0.2,4.8,2.5,6.5,6.6,3.9c4.8-3,9.2-6.6,13.7-10c1.3-1,2.7-1.9,3.6-3.2
	c3.7-5.1,8.2-4.2,12.8-1.8c14.3,7.8,28.6,15.6,42.9,23.4c2.7,1.5,4.2,3.5,3.6,6.7c-0.1,0.6,0.1,1.2,0,1.7c-0.5,2.9,1.5,6.4-1.6,8.8
	c-4.2,3.3-8.8,6-14.3,4.9c-4.7-0.9-9.9-1.8-13.9-4.2c-8.9-5.4-18.6-8-28.6-10c-5.7-1.2-11.1-0.4-15.7,3.4c-2.9,2.3-5.7,4.8-8.4,7.2
	c-3.5,3.2-7,6.4-10.5,9.6c-5.6,5-12.6,6.5-19.6,8.1c-8.8,2-17.5,4.1-25.6,8.3c-4.6,2.4-6.3,1.4-7-3.6c-0.9-6.7-1.6-13.5-2.2-20.3
	c-0.2-2.2-0.9-3.2-3.1-3.7c-4.7-1.1-9.4-2.4-14-3.8c-1.9-0.5-2.5,0-3.2,1.8c-3.2,7.3-6.7,14.4-10.1,21.6c-1.1,2.4-2.7,2.6-5.1,1.6
	c-19.8-8.3-37.3-20.3-55.1-31.9c-6-3.9-5.6-3.9-11.4,0c-11.9,7.9-24,15.7-36.3,23c-4.3,2.6-7.2,5.9-9.8,9.9
	c-2.6,3.9-5.5,7.7-8.2,11.6c-1.8,2.5-3.8,3.3-6.8,1.9c-4.8-2.2-9.8-4.1-14.7-6c-3.5-1.4-3.8-2-1.9-5.3c9.4-17,21-32.3,35.6-45.3
	c4.2-3.7,8.6-6.4,13.8-8.3c9.3-3.4,18.4-7.4,27.7-10.8c3.6-1.3,7.7-1.6,11.5-2.4c2.8-0.6,4.8,0.3,6.8,2.4c10.4,10.8,23,19,35.1,27.6
	c2,1.4,2.6,0.1,3.2-1.5c2.3-6.5,4.5-13.1,6.8-19.6c1.9-5.2,2-5.1,7.1-2.8c5.9,2.7,11.9,5,17.9,7.4c4.5,1.8,8.4-0.8,11.7-3
	c8.6-5.7,18.3-8.1,28.1-10.3c3.7-0.8,5.1,0.6,4,4.3c-1,3.2-2.1,6.5-3.8,9.3C386.6,54.4,388.9,61.5,388.2,68.6z"/>
<path class="st1" d="M402.9,411c-1.3,6.3-2.4,11.5-3.5,16.8c-0.4,2.2-1.7,3.3-3.9,3.7c-11,2.4-15.7,2.2-26.1-10.4
	c-1.2,2.8-2.4,5.7-3.7,8.4c-1.9,3.8-5.2,5.4-9.4,5.4c-1.4,0-2.8,0-4.2-0.1c-7.7-0.8-9.7-2.7-10.8-10.5c-0.4-3.3-1.1-6.6-1.3-10
	c-0.2-3.2,0-6.4,0-10.7c-2,1.2-3.4,1.8-4.5,2.8c-2.4,2.2-4.6,4.6-6.7,7c-2,2.3-3.8,1.8-6,0.3c-3.8-2.5-5.7-6.3-7.2-10.3
	c-1.6-4.1-2.7-8.3-4.1-12.5c-1-2.9-0.3-4.8,2.6-6.6c13.8-8.6,28.8-13,45.1-14.4c15.6-1.4,31-0.5,46.3,2.1c8.8,1.5,17.3,4.2,24.9,9.1
	c1.2,0.8,2.5,2.6,2.5,4c0.4,13.7-2.4,26.6-10.6,38c-2.3,3.1-3,3-5.8,0.1C412,419.2,407.5,415.3,402.9,411z"/>
<path class="st1" d="M161,226.4c-0.3-1-0.8-2.1-0.9-3.1c-1.2-9.9-2.3-19.7-3.6-29.6c-0.3-2.4,0.6-3.8,2.6-5.1
	c5.4-3.7,10.8-7.5,16.1-11.4c0.9-0.7,1.6-2.5,1.5-3.7c-0.6-4.9-2-9.8-2.3-14.7c-0.6-8-1.8-16.3-0.6-24.2
	c1.7-10.7,7.6-18.2,19.2-17.3c1.3,0.1,2.5,0.1,3.8,0.1c5.3,0.3,5.9,1.4,4.9,6.8c-1.5,8.5-2.8,17.1-3.6,25.7
	c-0.8,8.6,4,15.7,7.1,23.2c0.8,2,1.8,4,2.4,6.1c1.8,6.5,0.4,11-5.9,13.6c-6.3,2.6-10.7,7.4-15.8,11.5c-6.7,5.5-13.2,11.2-19.7,17
	c-1.6,1.5-2.8,3.5-4.2,5.3C161.7,226.5,161.4,226.5,161,226.4z"/>
<path class="st1" d="M141.3,306.6c-1-4.3,0.8-6.9,4.5-9.3c7.7-4.8,14.7-11,22.7-15.1c8.2-4.3,17.3-6.9,26-10.2
	c3.3-1.2,6.8-2.1,10.3-3c2.6-0.7,4.2,0.3,3.7,3.2c-1.2,6.4-2.6,12.9-4.1,19.3c-0.2,1-1.5,2-2.6,2.5c-9.4,5.3-18.6,10.9-26,18.8
	c-7.3,7.7-14.2,15.8-21.2,23.8c-2,2.3-3.8,4.6-5.8,6.9c-0.6,0.6-1.5,0.9-2.2,1.4c-0.4-0.9-1.1-1.7-1.3-2.6c-0.4-2.4-0.4-4.8-0.7-7.2
	C143.5,325.6,142.4,316.1,141.3,306.6z"/>
<path class="st1" d="M176.1,341.2c-0.8,5.3-1.5,10.7-2.5,16c-1.8,9.7-0.2,19,2.3,28.4c1.3,5,2.1,10.2,3,15.3
	c0.1,0.7-0.1,1.6-0.4,2.3c-3.7,9.1-8.8,17.3-15.5,24.4c-0.9,1-2.5,1.4-3.8,2.1c-0.5-1.2-1.2-2.3-1.6-3.5c-1.6-4.6-3.4-9.1-4.5-13.7
	c-1.5-6.5-2.9-13.1-3.4-19.7c-1-11.9-1.3-23.8-2-35.6c-0.2-3.1,1-4.8,3.8-6.2c7.1-3.6,14-7.6,21-11.4c0.9-0.5,2.2-0.8,3.2-0.6
	c0.5,0.1,0.8,1.4,1.2,2.2C176.6,341.2,176.4,341.2,176.1,341.2z"/>
<path class="st1" d="M156.1,247.9c0.5-4,1-8,1.4-12c0.4-4.7,3.7-7.1,7.5-8.7c9.3-4.1,18.9-7.5,29.2-8.3c4.4-0.4,8.7-1.2,13.1-1.3
	c5.1-0.1,7,2.9,5.7,7.8c-1,3.9-1.6,7.9-2.7,11.8c-0.3,1.2-1.2,2.5-2.2,3.3c-6.6,4.9-13.3,9.6-19.9,14.4c-5.7,4.2-11.4,8.3-17,12.6
	c-2.6,2-4.9,4.2-7.2,6.4c-2.4,2.2-3.7,1.9-4.4-1.3c-1.1-4.8-2.3-9.7-2.9-14.6c-0.4-3.3-0.1-6.7-0.1-10
	C156.4,247.9,156.3,247.9,156.1,247.9z"/>
<path class="st1" d="M474,470.3c0.6,8.2,3.6,18.9,9.1,28.8c2.6,4.6,1.2,7.4-4.2,7.4c-4.1,0-8.8,0.2-12.1-1.7
	c-3.8-2.1-6.7-6.2-9.2-9.9c-6.4-9.7-9.4-20.5-9.3-32.1c0.1-3.4,0.9-6.8,1.4-10.3c0.3-2.1,1.7-2.7,3.5-2c4.2,1.6,8.4,3.2,12.6,4.8
	c0.4,0.2,0.8,0.5,1.2,0.6C474.3,459.2,474.3,459.2,474,470.3z"/>
<path class="st1" d="M250.6,437.5c-0.9,8.8,2.5,16.8,4.8,25c1,3.6,2.3,7,3.3,10.6c0.3,0.9-0.1,2-0.2,2.9c-0.9-0.2-2-0.2-2.8-0.6
	c-6.9-3.7-13.9-7.2-20.7-11.3c-2.2-1.3-4.5-3.7-5-6c-1.8-7.6-3.2-15.4-3.8-23.2c-0.3-3.7,0.7-7.9,2.2-11.4c3.4-8.2,5.9-8.5,13.8-4.4
	C249.8,423.1,251.5,429.6,250.6,437.5z"/>
<path class="st1" d="M186.6,416.3c0.8,0.5,1.6,0.9,2.2,1.5c5,4.5,8.5,10,10.7,16.3c0.4,1.1-0.5,3-1.4,4
	c-7.2,7.4-14.6,14.5-21.7,21.9c-2.2,2.3-3.4,5.4-5.3,7.9c-0.7,0.9-2.3,1.1-3.4,1.7c-0.4-1.1-1-2.3-1.1-3.4c-0.7-6.1-1.1-12.2-2-18.2
	c-0.4-2.5-2-4.9-3.1-7.3c-1.4-2.9-1.4-5.7,1.7-7.2c8-3.9,13.6-10.9,20.9-15.7C184.8,417.3,185.6,416.9,186.6,416.3z"/>
<path class="st1" d="M292.4,491.9c-1.6-2.5-2.9-4.2-3.7-6.1c-1.8-4.4-2.9-9-5-13.2c-2.9-5.9-6.4-11.4-9.5-17.1c-0.7-1.3-1.2-3-1-4.4
	c0.7-4.6,2-9.2,2.7-13.9c0.7-4.3,2.3-5.4,6.3-3.8c9.5,3.6,14.5,11,17.1,20.3c0.4,1.4,0.8,2.9,1.3,4.3c2.9,7.5,0.5,14.6-2.2,21.5
	C296.9,483.3,294.8,487,292.4,491.9z"/>
<path class="st1" d="M512.8,464.2c0,1,0,1.1,0,1.3c0,7.1-0.4,7.3-7.5,5.4c-8.7-2.2-14.6-7.1-16.8-16c-1.2-4.8-2.8-9.5-4.2-14.2
	c-0.7-2.4,0.3-3.6,2.7-3.4c1.1,0.1,2.3,0.2,3.4,0.5c3.1,0.7,6.2,1.6,9.3,2.2c2.6,0.5,4.3,1.6,5.3,4.3c1.3,3.5,3,7,5,10.2
	C512,457.7,513.6,461.1,512.8,464.2z"/>
</svg>
