<?xml version="1.0" encoding="utf-8"?>
<!-- Generator: Adobe Illustrator 22.1.0, SVG Export Plug-In . SVG Version: 6.00 Build 0)  -->
<svg version="1.1" id="Layer_1" xmlns="http://www.w3.org/2000/svg" xmlns:xlink="http://www.w3.org/1999/xlink" x="0px" y="0px"
	 viewBox="0 0 512 512" style="enable-background:new 0 0 512 512;" xml:space="preserve">
<style type="text/css">
	.st0{fill:#059FE0;}
</style>
<path class="st0" d="M365.3,447c-50.1,0.3-89.2-37.9-89.3-87.2c-0.2-49.2,39.2-88.6,88.5-88.5c48.5,0,87.6,38.5,88.3,86.7
	C453.5,407.4,414.9,446.7,365.3,447z"/>
<path class="st0" d="M153.5,447c-50-0.4-86.8-38.5-86.2-89.5c0.5-48.7,39.1-86.6,87.9-86.3c49.5,0.3,88.1,39.5,87.8,88.9
	C242.7,409.5,203.6,447.4,153.5,447z"/>
<path class="st0" d="M365.3,237.7c-50.1,0.3-89.2-37.9-89.3-87.2c-0.2-49.2,39.2-88.6,88.5-88.5c48.5,0,87.6,38.5,88.3,86.7
	C453.5,198.2,414.9,237.5,365.3,237.7z"/>
<path class="st0" d="M153.5,237.7c-50-0.4-86.8-38.5-86.2-89.5c0.5-48.7,39.1-86.6,87.9-86.3c49.5,0.3,88.1,39.5,87.8,88.9
	C242.7,200.2,203.6,238.2,153.5,237.7z"/>
</svg>
