<?xml version="1.0" encoding="utf-8"?>
<!-- Generator: Adobe Illustrator 22.1.0, SVG Export Plug-In . SVG Version: 6.00 Build 0)  -->
<svg version="1.1" id="Layer_1" xmlns="http://www.w3.org/2000/svg" xmlns:xlink="http://www.w3.org/1999/xlink" x="0px" y="0px"
	 viewBox="0 0 512 512" style="enable-background:new 0 0 512 512;" xml:space="preserve">
<style type="text/css">
	.st0{fill:#AA8049;}
</style>
<path class="st0" d="M446.8,291.1c-2.4,3.8-4.8,7.6-7.5,11.9c4.7,0,9.9,0,13.9,0c3.9,5.1,7.3,9.5,10.9,14.3c-3.7,0.3-6,0.5-8.3,0.7
	c0.6,1.8,1.2,3.5,1.5,4.4c-1.8,0.2-4.4,0.6-6.7,0.9c-2.4-1.8-5.8-4.2-9.4-6.8c-1.4,3-2.2,4.7-3,6.3c-1.1-1.4-2.3-2.8-3.4-4.3
	c-0.4-0.5-0.2-1.5-0.6-2c-1.3-1.3-2.8-2.3-4.2-3.5c0.1,1.8-0.1,3.6,0.3,5.3c0.2,1,1.2,1.8,1,4.4c-1.5-0.7-4.3-1.2-4.3-2
	c-0.7-9.5-5.8-6-10.6-3.9c1.3,2.4,2.5,4.7,4.1,7.9c-2.4-0.2-3.8,0.1-4.1-0.4c-4.8-6.6-10.3-6.4-16.8-2.5c-1.9,1.1-5.4,1.2-7.2,0.2
	c-7.7-4.6-15.8-0.7-23.6-1.5c-9.9-1.1-19.9-2.3-29.9-2.4c-22.5-0.1-43.3,5.8-58.7,23.1c-10.8,12.1-6.2,35.7,8,46.3
	c13.5,10.1,29.5,12.6,45.6,13.7c17.5,1.2,35,1.6,52.4,2.7c3.9,0.3,7.8,2.2,11.5,4c-92,5.3-183.8,5.2-276.1-0.7
	c4.9-1.5,9.7-4,14.7-4.4c16.5-1.3,33.2-1,49.6-3.1c13-1.7,26.5-4.3,38.4-9.6c19.8-8.7,22.9-25.3,18-44.1c-1.4-5.5-7.5-10.6-12.7-14
	c-23.2-14.8-48.6-17.8-75.4-12.1c-8.9,1.9-17.7,6.6-27.3,2.4c-0.8-0.4-3.1,1.5-4,2.9c-1.2,1.9-1.6,4.2-2.5,6.8
	c-6.5-1.1-12.5-2.2-18.5-2.9c-1.7-0.2-3.5,1.1-5.3,1.3c-2.1,0.2-4.3,0.1-5.7,0.1c-5.7,0.8-10.8,1.6-15.5,2.3c0-3.7,0-6.1,0-8.5
	c-2.8,0.1-5.7-0.1-8.5,0.5c-1.9,0.3-3.5,1.6-5.3,2.5c-1.2-2.4-3.1-4.8-3.2-7.2c0-1.9,1.9-4.2,3.6-5.7c4.9-4.3,10.1-8.2,15.2-12.3
	c1.4,0.6,3,1.4,6,2.8c-0.5-3.4-0.2-6.3-1.4-7.3c-2.9-2.5-6.5-4.4-10-5.9c-0.8-0.3-2.9,2.3-5.1,4.2c-7.4-2.4-7-2.3-5.5-11.5
	c1.2-7.1,3.1-13,13-13.4c-0.5-0.9-1-1.7-1.5-2.6c-3.6-1.7-7.2-3.5-10.8-5.3c0.3-4.9,0.6-9.9,1-15.8c3.8,0.9,7.2,1.8,11.1,2.7
	c-0.6-4.1-1.5-7.7-1.5-11.3c0.1-7.4,4.6-10.4,11.6-8.1c2.6,0.9,5.4,1.9,8.1,1.8c1.4-0.1,3.7-2.4,3.8-3.8c0.1-1.4-2.1-4.3-3.2-4.3
	c-7.6,0.5-5-4.7-4.1-7.8c0.8-2.8,3.5-5,4.7-7.7c0.9-2.2,1.8-6.2,0.8-7c-5.1-4.1-3.1-8.8-0.7-12.2c1.2-1.7,6-0.8,9.1-1.2
	c0.4,0,0.8-0.3,1.7-0.7c-0.8-1.8-1.6-3.6-1.8-4.1c3.3-5.6,6.1-10.3,9.3-15.6c3.7,2.2,7.9,4.6,13.7,7.9c-0.4-4.9-0.7-7.7-1-10.9
	c5.6-0.7,11.4-6.6,15.2,2c1.3-0.3,2.1-0.4,2.1-0.5c-0.8-11.7,11.9-18.3,11.4-30.4c-0.1-3.7,5.4-7.6,7.5-10.3c6,0,10.4,0,14.8,0
	c-0.6-0.4-1.2-0.9-1.8-1.3c1.8-5.2,2.4-11.3,5.6-15.3c5.5-6.7,16-2.8,18.9,5.9c0.9,2.6,3.1,4.9,5.2,6.7c2,1.8,4.7,2.9,7.9,4.8
	c2.8-2,1.8-5.1-0.5-8.6c-1.6-2.5-6.5-5.1-1.5-8.5c4.8-3.2,5.6,2.1,7.8,4.3c0.9,0.9,2,1.8,4.2,3.7c1.4-4.5,2.3-8.2,3.8-11.7
	c0.9-2.1,2.2-4.6,4-5.3c1.5-0.6,4,1,7,2c0.7-0.9,1.9-2.6,3.4-4.7c3.6,2.6,10.9,2.1,6.8,10.2c-0.2,0.4,2.6,3,3,2.8
	c2.8-1.6,5.5-3.5,7.9-5.7c0.6-0.5-0.3-2.5-0.5-4.5c7.6-1.6,15-3.2,22.3-4.7c4.7-1,7.6-0.7,5.3,5.5c-1.7,4.4,1.7,5.2,5.1,4.9
	c2.7-0.2,5.4-0.9,6.6-1.2c5,4.7,8.9,8.4,13.5,12.7c0.4-0.3,1.8-1,2.9-2.1c7-6.9,13.6-5.3,16.5,3.9c1.9,6,10.9,9.1,16.2,5.5
	c3.3-2.2,15.7,1.4,17.9,5.2c0.5,0.8,0.6,1.9,1.2,2.5c1.8,2,3.7,3.8,5.7,5.6c0.2,0.1,2.1-1.2,2-1.4c-0.7-2.5-1.7-4.9-2.6-7.2
	c4.9-1.5,7.1,2.3,10.7,20.6c5.6-2.4,9.9-0.4,10.2,5.4c0.2,4.1-2.4,8.3-3.7,12.3c1.3,4.4,10-3.6,9.1,5.7c-2.5-0.2-4.4-0.4-7.6-0.7
	c0.7,2.9,1.2,5.1,2,8.2c4.4-3.1,12.4,0,9.4-11.3c9.1,3.6,16.5,6.5,24.5,9.7c0.9,3.4,2.1,8.1,3.7,14.4c-2.3,0.7-5.7,1.9-10.1,3.3
	c1.4,8.5,12.7,5.9,16.6,14.2c-2.1-1.5-2.6-2.2-3.3-2.4c-2.1-0.4-4.2-0.7-6.3-0.6c-0.4,0-1.3,2.6-1,2.8c1.5,1.3,3.2,2.4,5.1,3.1
	c2.1,0.8,4.4,1,6,1.3c-1,3.6-1.9,6.7-2.9,10.1c0.1,0-0.5,0-1.2,0c-2.9-0.1-5.8-0.2-8.7-0.2c2,3.1,3.5,6.7,6.2,9
	c1.6,1.4,4.9,1.1,7.4,1.2c9.1,0.4,12.1,6.8,9.8,14.7c-0.4,1.4-1.8,3.2-3.1,3.7c-4.8,1.9-6.6,7.3-2.9,10.8c1,0.9,3.8,0.5,5.4-0.2
	c2.4-1.1,4.4-3,7.3-5.1c-0.4,3-0.6,5.1-0.9,7.5c7.1,2.3,9.1,8,8.4,14.6c-0.8,7.1-7,8.4-12.6,9.9c2.4-3.1,4.8-6.2,7-9.4
	c0.4-0.5,0.2-2.1-0.2-2.4c-0.8-0.4-2-0.5-2.9-0.3c-2.9,0.8-5.8,1.8-8.8,2.7C440.9,290.2,440.9,290.2,446.8,291.1z M200.3,299.7
	c1.9-0.3,3.9-0.5,5.6-0.7c-4.4-7.9-18.2-4.2-15.3-18.2c-2.3,1.7-3.5,2.6-4.7,3.5c-1-2-1.9-3.8-3-6c-4.8,4.1-2.9,7.1,0.3,9.6
	c4.8,3.7,9.8,7.1,14.8,10.6c-3.1-0.2-5.7,1-3.6,4.2c2.6,3.9,6.2,7.2,9.6,10.4c0.6,0.6,3,0.5,3.6-0.2c0.7-0.7,0.9-2.9,0.3-3.7
	C205.6,306,202.9,302.9,200.3,299.7z M372.7,310.8c-1.1,1.5-2.2,3-4.2,5.8c5.1,0.5,8.9,1.8,12.3,1c2.3-0.6,5.4-3.9,5.5-6.2
	c0.1-1.9-3.1-4.5-5.4-6c-0.6-0.4-3,1.8-4.6,2.8c-1.3,0.9-2.6,1.9-3.9,2.8c0.7-2.1-2.7-15.7-4.2-16.5c-0.6-0.3-1.3-0.6-1.9-0.7
	c-5.4-0.9-7.6,1.6-6.6,6.9c-3.2-0.4-5.8-0.7-6.8-0.8c-1.6,4-2.7,6.7-3.9,9.7c4.5,7,11.4,8.6,18.3,3.9
	C368.9,312.3,370.9,311.6,372.7,310.8z M287.9,292.7c1.6-2.4,3.1-4.9,5.5-8.7c-5.5,0.6-9,0.8-12.4,1.5c-0.6,0.1-1.3,3.4-1.1,3.5
	c2.7,1.3,5.5,2.4,8.2,3.5c-0.9,1.3-1.5,3.3-2.7,3.7c-8.4,3-14.1,12-12.8,20.9c0.8,5.9,4.3,8.3,9.7,6.6c7.7-2.4,16-14.3,15.5-22.2
	C297.5,293.8,294.3,291,287.9,292.7z M306.7,299.6c1.2,0.9,2.4,1.7,3.6,2.6c-3.2,1.9-6.8,3.5-9.3,6c-1.5,1.4-1.3,4.6-1.8,7
	c2.1,0.3,4.4,1.1,6.4,0.6c3.8-0.9,7.6-2.4,11.1-4.1c6.9-3.3,14.8-15.4,12.8-23.8c-2.2,0.5-4.3,1.1-6.5,1.6c0.2-0.6,0.4-1.1,0.6-1.7
	c-4.3-2-8.6-4-14.7-6.9c1.4,5.2,2.1,8.1,2.7,10.2c-2.6,0.9-5.2,1.8-7.8,2.6C304.7,295.8,305.7,297.7,306.7,299.6z M174,294.1
	c-2.4-2.1-4.6-4.5-7.2-6.3c-1.2-0.8-3.2-0.2-4.9-0.3c0.7,1.4,1.2,2.8,2.1,4.1c1,1.4,2.9,2.5,3.3,4.1c2.4,9.9,7,13.4,17.3,12.8
	c6.4-0.4,8.5-4.2,4.4-9.2c-3.1-3.7-7.4-6.3-11.5-9.6C176.1,291.5,174.9,292.9,174,294.1z M188.7,160.6c-4-1.4-7.2-3.7-10-3.2
	c-4.2,0.8-8.2,3.2-11.8,5.6c-0.9,0.6-0.8,4.7,0.3,5.7c2.6,2.5,6,4.2,9.2,6.1c0.5,0.3,1.3,0,2.4-0.1c-0.3-1.7-0.6-3.2-1.1-5.6
	C185.9,172.4,184.6,164.3,188.7,160.6z M172.8,309.1c-4.2-2.3-8.3-4.8-12.7-6.8c-3-1.3-7.6-3.7-8.5,1.5c-0.5,3,1.7,7.7,4.2,9.6
	C161.7,317.7,167.1,313.2,172.8,309.1z M157.2,197.8c-1.4-2.2-2.6-4-2.9-4.5c-5.9,1.7-10.8,2.9-15.6,4.5c-1.5,0.5-3,2-3.8,3.4
	c-1.2,2.2-1.7,4.6-2.9,8c2.6,0,5.7,0.9,6.9-0.2c1.4-1.4,1.2-4.5,1.7-6.8c4.7,5.3,10.5,7.1,12.1,3.3c-0.6-1.3-1.3-3-1.9-4.5
	C152.8,199.9,154.6,199,157.2,197.8z M175.7,228.7c0.5,0.6,1,1.1,1.6,1.7c-2.1,1.2-4.2,2.4-6.7,3.8c0,6.4,2.4,8.4,10.5,7.9
	c1.2-2.9,2.3-5.7,3.3-8.2c-1.7-3.3-2.6-7.2-5.1-9.3c-3.5-2.8-8.2-4.5-13,1.6C169.9,227.2,172.8,227.9,175.7,228.7z M440.7,297.3
	c0.7-0.8,1.3-1.6,2-2.5c-11-4.3-0.8-13.1-5.9-20.3c-2.8,3.8-5.1,6.8-7.7,10.2c-0.7,0.1-3.1,0-4,1.1c-0.8,1-0.6,4.6,0.2,5
	C430.2,293.2,435.5,295.2,440.7,297.3z M145.3,305.8c1.3-1.1,4-3.4,6.4-5.9c1-1.1,1.3-2.9,2-4.4c-1.7-0.1-3.9-0.9-4.9-0.1
	c-2.8,2-5.1,4.6-7.4,7.1c-3.6,3.9-6,7.9,0.7,11.6c-0.4,1-1,2.8-1.7,4.6c0.5,0.6,0.9,1.1,1.4,1.7c2.6-1.3,7.1-2.3,7.4-4
	C149.5,313.7,147.1,310.5,145.3,305.8z M314.4,173.1c0.2,1.1,0.5,2.1,0.7,3.2c3.7-3,8,5.2,12.2-2c0.4-0.6,8.2,3.2,12.5,5
	c0.9-1.1,1.8-2.3,2.6-3.4c-1.9-0.8-3.8-1.6-5.7-2.4c-4.8-2.2-9.6-4.5-14.4-6.5c-1.6-0.7-3.5-0.6-5.3-0.8c0.7,1.9,1.5,3.8,2,5.2
	C318.1,171.7,316.2,172.4,314.4,173.1z M154.6,269.3c-3.6,2.5-7,4.9-10.4,7.3c0.3,0.5,0.5,0.9,0.8,1.4c-2.7,0-5.4,0-8.1,0
	c-0.1,0.7-0.3,1.4-0.4,2.1c6.3,2,12.5,3.9,18.2,5.7C154.6,280.1,154.6,275,154.6,269.3z M242.9,315.9c-3-2.8-6.2-6.5-6.7-6.2
	c-3.2,2.2-5.9,5.3-8.8,8.1c2.9,1.8,5.6,4.7,8.6,5C237.9,323,240,319,242.9,315.9z M214.9,306.4c0,3.2-0.9,6.1,0.2,7.3
	c1.6,1.8,5.5,4.2,6.8,3.4c4.8-2.8,8.8-6.8,13.7-10.9c-2.4-1.1-4.2-1.9-6.2-2.8c-0.8,2.1-1.5,4-2,5.4
	C222.9,308.1,218.9,307.2,214.9,306.4z M200.6,144.8c-1.5,1.4-3.6,2.5-3.7,3.7c-0.1,1.2,2,3.7,2.9,3.6c2.4-0.3,5.3-1.1,6.7-2.7
	c1-1.2,0.8-5.1-0.3-6.1c-3.6-3.1-7.8-5.4-11.9-8C192.6,139.8,192.6,139.8,200.6,144.8z M344.4,299.4c-3.8-2.5-7.1-5.2-7.4-4.9
	c-3.1,3-5.8,6.6-8.3,10.1c-0.1,0.2,2.8,3.2,3.2,3C335.6,305.4,339.2,302.9,344.4,299.4z M247.8,298c-0.6-4.8-0.7-9.4-1.8-13.7
	c-0.4-1.3-3.6-2.3-5.6-2.6c-0.8-0.1-2.9,2.6-2.7,3C240.2,289.3,239,296.6,247.8,298z M181,112.7c0.2,2.8,0.4,5.3,0.6,7.8
	c2.6-1.2,5.4-2.2,7.8-3.8c1.7-1.1,2.9-3.1,4.3-4.7c-0.3-0.5-0.6-0.9-0.8-1.4C189.3,111.3,185.7,111.9,181,112.7z M378.6,151
	c-4.4-3.9-7.6-6.8-11.7-10.4C364.4,150.5,368.4,153.7,378.6,151z M87.2,271.4c-1.6-3.6-3-6.5-4.4-9.7c-0.7,0.1-1.8,0.1-2.9,0.4
	c-1.7,0.5-3.4,1.1-5.1,1.7c1.2,1.2,2.6,2.2,3.6,3.5c1,1.4,1.6,3.2,2.5,5.2C82.8,272.1,84.8,271.7,87.2,271.4z M129.8,307.6
	c-0.3,0.5-1.6,2.3-2.9,4.1c0.3,0.7,0.6,1.4,1,2.2c2.5-0.8,5.7-0.9,7.2-2.5c3.2-3.6,0.5-6.8-2.5-9.3c-0.8-0.7-2.4-0.3-3.6-0.4
	C129.1,303.1,129.3,304.5,129.8,307.6z M120.6,312.8c0.6-2.5,1.1-4.7,1.4-6.1c-1.7-2.2-3.5-4.4-5.2-6.6
	C112.2,305,113.9,310.7,120.6,312.8z M108.9,209c-0.4-0.6-0.8-1.3-1.2-1.9c-1.2,2-3.9,5.2-3.5,5.7c2.4,2.6,5.5,4.5,8.3,6.7
	c0.2-1.7,1.1-3.7,0.5-5.1C112.3,212.4,110.4,210.8,108.9,209z M362.9,253.6c2.3-4.1,4-6.1,4.6-8.5c0.2-0.8-3.1-3.5-3.9-3.2
	c-1.8,0.8-3.9,2.7-4.3,4.5C358.9,247.8,360.9,249.8,362.9,253.6z M108.8,225.5c0.4-0.7,0.7-1.5,1.1-2.2c-2.4-2.7-4.9-5.4-7.3-8
	c-1.7,1.8-3.5,3.5-5.9,6C101.7,223,105.2,224.3,108.8,225.5z M261.6,116.8c-1.1,5,1.6,8,5.2,10.2c0.9,0.5,3.6-0.6,4.3-1.7
	c0.5-0.9-0.4-3.4-1.5-4.2C267.5,119.4,264.9,118.4,261.6,116.8z M121,212c0.5-0.4,1.1-0.8,1.6-1.2c-2-2.6-3.6-5.9-6.3-7.4
	c-1.6-0.9-4.8,0.9-8.4,1.8C113.5,208.1,117.3,210.1,121,212z M206.5,300.2c1.5,4.3,2.8,8.3,4.6,13.4
	C214.7,301.5,214.7,301.5,206.5,300.2z M376.5,190.1c-3.2-2.2-4.9-4.2-6.6-4.2c-1.4,0-2.8,2.4-4.1,3.7c1.5,1.1,2.8,3,4.4,3.2
	C371.6,193.1,373.3,191.6,376.5,190.1z M381.3,180.9c-0.4,0.5-0.9,1-1.3,1.5c1.5,2.1,3.3,6.1,4.4,5.9c3.2-0.6,6.2-2.9,10.5-5.2
	C389.5,182.3,385.4,181.6,381.3,180.9z M98.5,317.7c-1.7,3.1-2.7,4.6-3.4,6.2c-0.3,0.6,0,1.9,0.5,2.3c0.5,0.5,2.4,0.4,2.4,0.3
	c1.1-5.7,4.7,0.7,7.8-2.8C103.6,322,101.3,320.1,98.5,317.7z M384.5,225.4c0.5-0.3,1-0.6,1.5-0.9c0-2.7,0-5.3,0-8.1
	c-3,0.1-5.7,0.3-8.4,0.4C380,219.7,382.2,222.5,384.5,225.4z M160.9,147.3c3.2,7.9,5.4,8.6,11,4.1
	C167.8,149.9,164.4,148.6,160.9,147.3z M368.7,241.1c1.6-2.8,2.8-5,4.5-7.9c-4.9,0.8-8.8,1.4-14.4,2.3
	C363.2,238,365.9,239.5,368.7,241.1z"/>
</svg>
