<?xml version="1.0" encoding="utf-8"?>
<!-- Generator: Adobe Illustrator 22.1.0, SVG Export Plug-In . SVG Version: 6.00 Build 0)  -->
<svg version="1.1" id="Layer_1" xmlns="http://www.w3.org/2000/svg" xmlns:xlink="http://www.w3.org/1999/xlink" x="0px" y="0px"
	 viewBox="0 0 512 512" style="enable-background:new 0 0 512 512;" xml:space="preserve">
<style type="text/css">
	.st0{fill:#FF7901;}
	.st1{fill:#FFFFFF;}
</style>
<g>
	<path class="st0" d="M0,512C0,341.3,0,170.7,0,0c170.7,0,341.3,0,512,0c-0.1,1.1-0.2,2.3-0.2,3.4c0,168,0,336,0,504.1
		c0,0.6-0.1,1.3,0,1.9c0.2,1.9-0.5,2.7-2.4,2.4c-0.6-0.1-1.3,0-1.9,0c-168,0-336,0-504.1,0C2.3,511.8,1.1,511.9,0,512z M359,459.7
		c-0.2,4.3-0.2,8.4-0.7,12.4c-0.7,5.7-4.1,9.3-9.5,10c-3.3,0.4-6.8,0.2-10.2-0.2c-3.3-0.3-5.9-1.9-7-5.4c-0.1-0.4-1.2-0.8-1.8-0.7
		c-4.8,0.7-9.7,1.5-14.5,2.2c-2.9,0.4-3.1,0.6-2,3.3c2.7,7,8.2,10.9,15.1,13.1c8.4,2.8,16.9,2.6,25.5,1.1c5.7-1,11-2.9,15.4-6.8
		c6.1-5.3,8.1-12.5,8.1-20.2c0.2-23.1,0.1-46.3,0.1-69.4c0-1.5-0.5-2-2-2c-4.1,0.1-8.1,0.1-12.2,0c-1.5,0-2,0.6-2.3,1.9
		c-0.3,1.8-0.7,3.5-1,5c-2.1-1.7-4-3.7-6.3-5c-5.7-3.2-11.9-3.8-18.2-2.9c-8.3,1.2-14.5,5.9-18.9,13c-5.7,9.2-6.8,19.3-5.9,29.8
		c0.5,5.9,1.9,11.5,5,16.6c5.8,9.7,14.6,13.8,25.6,13.6c7.2-0.1,13.2-2.8,17-9.2C358.4,459.9,358.6,459.9,359,459.7z M27.5,433
		c0.2,2.5,0.3,5.1,0.6,7.6c1.5,10.2,5.8,18.9,14.8,24.6c8.2,5.3,17.2,6.5,26.6,5c14.1-2.2,23.2-10.3,27.2-24
		c2-6.7,2.2-13.6,1.2-20.5c-1.8-12.8-7.9-22.6-20.2-27.7c-6.4-2.7-13.1-3.4-20.1-2.4c-9.1,1.2-16.9,5-22.6,12.4
		C29.4,415.3,27.6,423.9,27.5,433z M159.1,409.4c4.6,2.6,8.6,4.9,12.7,7.1c0.4,0.2,1.3-0.3,1.7-0.7c5-5.4,11.1-7.3,18.3-6.8
		c6.5,0.4,9.2,3.4,9,9.8c-0.1,1.3-0.6,1.7-1.7,1.9c-3,0.4-6.1,0.8-9.1,1.3c-8,1.5-15.8,3.4-22.9,7.7c-6.2,3.7-10.2,9-11,16.3
		c-0.8,8,2.3,17.5,11.4,21.4c6.6,2.8,13.4,2.4,20.1,0.6c4.5-1.2,8.7-3.2,13.2-4.9c0.3,0.9,0.8,2.2,1.1,3.5c0.3,1.5,1.1,1.9,2.5,1.8
		c3.1-0.1,6.3,0,9.4,0c1.8,0,3.6,0,5.5,0c0.1-0.9,0.1-1.3,0.1-1.8c0-17.2,0-34.3,0-51.5c0-0.7-0.1-1.4-0.2-2.1
		c-1.6-8.5-7.2-13.3-15-15.8c-5.9-1.9-12-2.2-18.1-1.8c-7,0.5-13.6,2.4-19.3,6.7C164.1,404.3,161.9,406.8,159.1,409.4z M453.7,454
		c-4.3-2.4-8.3-4.5-12.3-6.9c-1.4-0.8-2.1-0.6-2.9,0.7c-4.2,6-10.1,8.3-17.2,7.6c-5.6-0.6-9.9-3.2-12-8.6c-1-2.5-1.3-5.3-1.9-8
		c-0.7-3.4,0.1-3,2.8-3c13.9,0,27.8,0,41.6,0c2.9,0,3.1-0.1,3-3c-0.2-4.2-0.4-8.6-1.3-12.7c-2.4-11.2-8.6-19.4-19.9-23
		c-4.9-1.6-10-2-15.2-1.6c-12.6,0.9-22.1,6.7-26.8,18.5c-5.1,12.8-4.9,25.9,0.5,38.6c2.9,6.7,7.9,11.7,14.7,14.5
		c11.8,4.7,23.5,4,34.9-1.5C446.9,463.2,450.8,459.3,453.7,454z M251.2,405c-0.5-2.3-1-4.4-1.3-6.6c-0.2-1.1-0.7-1.6-1.9-1.4
		c-4.1,0.6-8.3,1.2-12.4,1.7c-1.4,0.2-2,0.8-2,2.3c0.1,21.9,0.1,43.9,0,65.8c0,1.6,0.5,2.1,2.1,2.1c4.7-0.1,9.4,0,14.1,0
		c3,0,3,0,3-2.9c0-15.4,0-30.9,0-46.3c0-0.9,0.1-2,0.7-2.5c5-4.2,10.4-7.5,17.2-7.3c4.1,0.2,6.6,2,7.4,6c0.5,2.5,0.6,5.1,0.6,7.6
		c0.1,14.2,0.1,28.5,0,42.7c0,2,0.5,2.8,2.6,2.7c4.6-0.1,9.3,0,13.9,0c2.8,0,2.9,0,2.9-2.8c0-15.1,0-30.2,0-45.3
		c0-2.6-0.2-5.3-0.4-7.9c-0.9-8.5-6.3-14.6-14.6-16.6c-8.4-2-16.4-0.6-23.8,3.7C256.5,401.6,254,403.3,251.2,405z M129.2,404.6
		c0-2.1-0.1-3.6,0-5c0.2-2-0.5-2.8-2.6-2.7c-4.3,0.1-8.7,0-13,0c-2.8,0-2.8,0-2.8,2.9c0,10.8,0,21.6,0,32.5c0,11.3,0,22.5,0,33.8
		c0,1.9,0.6,2.6,2.6,2.5c4.8-0.1,9.7-0.2,14.5,0c2.2,0.1,2.7-0.7,2.7-2.8c-0.1-14.1,0-28.2-0.1-42.3c0-3,1.2-5,3.6-6.5
		c1.2-0.8,2.6-1.6,4.1-1.8c3.7-0.6,7.4-1.1,11.2-1.4c1.5-0.1,2.1-0.7,2.1-2.2c-0.1-4.6-0.1-9.3,0-13.9c0-1.7-0.8-2.4-2.3-2.2
		c-2.5,0.3-5.1,0.6-7.5,1.3C136.9,398.1,133,400.9,129.2,404.6z M470.3,375.8c0.1,0,0.2,0,0.3,0c2.2,5.5,4.3,11,6.5,16.4
		c0.4,1,0.7,2,2.1,2c1.4,0,1.8-0.8,2.2-1.9c1-2.5,2-5,3-7.5c1.2-3,2.4-6.1,3.6-9.1c0.3,5.6,0.3,11.1,0.3,16.5c0,1.5,0.4,2,1.9,2
		c1.3,0,1.9-0.4,1.9-1.8c-0.1-6.8-0.1-13.7,0-20.5c0-1.4-0.5-1.9-1.9-1.8c-0.7,0-1.4,0.1-2.1,0c-1.7-0.2-2.6,0.5-3.1,2.1
		c-1.1,3.2-2.4,6.4-3.6,9.6c-0.7,1.7-1.4,3.5-2.3,5.8c-2-4.9-3.6-9.3-5.4-13.6c-1.8-4.4-0.7-3.7-5.6-3.8c-1.7-0.1-2.4,0.5-2.4,2.3
		c0.1,6.5,0.1,13.1,0,19.6c0,1.9,0.8,2.2,2.4,2.3c1.7,0,2.2-0.6,2.2-2.2C470.2,386.6,470.3,381.2,470.3,375.8z M461.7,373.7
		c-0.3-1.6,1.2-3.6-1.7-3.6c-5.2,0-10.4,0-15.6,0c-1.5,0-1.8,0.8-1.8,2c0,1.4,0.7,1.7,1.9,1.7c1.1-0.1,2.3,0.1,3.4,0
		c1.8-0.2,2.2,0.6,2.2,2.2c-0.1,5.3,0,10.7,0,16c0,1.8,0.7,2.3,2.4,2.3c1.8,0,2.1-0.7,2.1-2.3c-0.1-4.6,0-9.3,0-13.9
		c0-4.3,0-4.3,4.2-4.3C459.7,373.7,460.6,373.7,461.7,373.7z"/>
	<path class="st1" d="M359,459.7c-0.5,0.2-0.6,0.2-0.7,0.3c-3.8,6.4-9.8,9.1-17,9.2c-10.9,0.2-19.8-3.9-25.6-13.6
		c-3-5.1-4.5-10.7-5-16.6c-0.9-10.5,0.3-20.6,5.9-29.8c4.4-7.1,10.6-11.8,18.9-13c6.3-0.9,12.6-0.4,18.2,2.9c2.3,1.3,4.2,3.3,6.3,5
		c0.3-1.4,0.6-3.2,1-5c0.2-1.3,0.8-1.9,2.3-1.9c4.1,0.1,8.1,0.1,12.2,0c1.5,0,2,0.5,2,2c0,23.1,0.1,46.3-0.1,69.4
		c-0.1,7.6-2,14.8-8.1,20.2c-4.4,3.9-9.7,5.7-15.4,6.8c-8.6,1.6-17.1,1.7-25.5-1.1c-6.8-2.3-12.3-6.2-15.1-13.1
		c-1.1-2.7-0.9-2.9,2-3.3c4.8-0.7,9.7-1.5,14.5-2.2c0.6-0.1,1.7,0.3,1.8,0.7c1.1,3.4,3.7,5,7,5.4c3.4,0.3,6.8,0.6,10.2,0.2
		c5.4-0.7,8.8-4.4,9.5-10C358.8,468.1,358.8,464,359,459.7z M329,430.4c0.8,4.7,1.3,9.3,2.4,13.8c1,3.9,3.5,6.9,7.5,8.1
		c7,2,14.7,0,17.8-8.5c1.8-5,2.1-10.3,2-15.6c-0.1-4-0.9-7.9-2.9-11.5c-2.8-5-7.1-7.6-12.8-7.4c-5.9,0.2-9.9,3.6-11.6,9.1
		C330.2,422.3,329.8,426.4,329,430.4z"/>
	<path class="st1" d="M27.5,433c0.1-9.1,2-17.7,7.7-25.1c5.7-7.4,13.4-11.2,22.6-12.4c6.9-0.9,13.7-0.2,20.1,2.4
		c12.3,5.1,18.4,14.9,20.2,27.7c1,6.9,0.7,13.8-1.2,20.5c-4,13.7-13.1,21.8-27.2,24c-9.4,1.5-18.5,0.3-26.6-5
		c-8.9-5.8-13.3-14.4-14.8-24.6C27.7,438.1,27.7,435.6,27.5,433z M79.8,433.2c-0.6-3.6-0.9-7-1.8-10.3c-1.3-4.9-4-9-9.1-10.5
		c-9.2-2.7-17.8,0-20.8,10.5c-1.9,6.7-1.9,13.5,0,20.2c2,7,7,10.9,13.7,11.1c8.6,0.2,13.6-2.9,16-10.5
		C78.8,440.3,79.1,436.6,79.8,433.2z"/>
	<path class="st1" d="M159.1,409.4c2.7-2.6,5-5.2,7.7-7.2c5.6-4.3,12.2-6.2,19.3-6.7c6.1-0.4,12.2-0.1,18.1,1.8
		c7.8,2.5,13.5,7.2,15,15.8c0.1,0.7,0.2,1.4,0.2,2.1c0,17.2,0,34.3,0,51.5c0,0.5-0.1,1-0.1,1.8c-1.9,0-3.7,0-5.5,0
		c-3.1,0-6.3-0.1-9.4,0c-1.4,0-2.2-0.3-2.5-1.8c-0.3-1.3-0.8-2.5-1.1-3.5c-4.5,1.7-8.7,3.7-13.2,4.9c-6.7,1.8-13.5,2.2-20.1-0.6
		c-9.2-3.9-12.2-13.4-11.4-21.4c0.8-7.4,4.8-12.6,11-16.3c7.1-4.3,14.9-6.2,22.9-7.7c3-0.6,6-0.9,9.1-1.3c1.2-0.2,1.7-0.6,1.7-1.9
		c0.3-6.4-2.5-9.4-9-9.8c-7.2-0.5-13.3,1.5-18.3,6.8c-0.4,0.4-1.4,0.9-1.7,0.7C167.7,414.4,163.7,412.1,159.1,409.4z M199.9,432.8
		c-0.8-0.1-1.3-0.2-1.7-0.1c-5.3,1.4-10.7,2.6-15.9,4.4c-2.2,0.8-4.3,2.6-5.7,4.5c-2.5,3.3-2.4,7.2-0.4,10.8
		c1.8,3.2,4.9,4.2,8.4,3.8c3.9-0.4,7.5-2,10.9-4c3.2-1.9,5-4.1,4.5-8.2C199.6,440.4,199.9,436.6,199.9,432.8z"/>
	<path class="st1" d="M453.7,454c-2.9,5.3-6.8,9.2-11.9,11.7c-11.4,5.5-23.1,6.2-34.9,1.5c-6.8-2.7-11.8-7.7-14.7-14.5
		c-5.4-12.7-5.6-25.8-0.5-38.6c4.7-11.9,14.2-17.6,26.8-18.5c5.2-0.4,10.2,0,15.2,1.6c11.3,3.6,17.5,11.8,19.9,23
		c0.9,4.1,1.1,8.4,1.3,12.7c0.2,2.9-0.1,3-3,3c-13.9,0-27.8,0-41.6,0c-2.7,0-3.5-0.4-2.8,3c0.6,2.7,0.9,5.5,1.9,8
		c2.1,5.4,6.4,8,12,8.6c7.2,0.7,13-1.6,17.2-7.6c0.9-1.2,1.6-1.4,2.9-0.7C445.4,449.5,449.4,451.7,453.7,454z M421.7,423.2
		c4.1,0,8.1,0,12.2,0c1.3,0,2.1-0.3,1.9-1.8c-0.6-5.1-2.9-10.7-9.5-12.2c-9.4-2.1-16.3,1.7-18.3,11.6c-0.3,1.7,0.1,2.5,2,2.5
		C413.9,423.1,417.8,423.2,421.7,423.2z"/>
	<path class="st1" d="M251.2,405c2.8-1.7,5.3-3.3,7.9-4.8c7.5-4.2,15.4-5.7,23.8-3.7c8.3,2,13.7,8,14.6,16.6
		c0.3,2.6,0.4,5.2,0.4,7.9c0,15.1,0,30.2,0,45.3c0,2.8,0,2.8-2.9,2.8c-4.6,0-9.3-0.1-13.9,0c-2.1,0.1-2.7-0.7-2.6-2.7
		c0.1-14.2,0.1-28.5,0-42.7c0-2.5-0.1-5.1-0.6-7.6c-0.8-4-3.3-5.8-7.4-6c-6.9-0.3-12.3,3-17.2,7.3c-0.5,0.5-0.7,1.7-0.7,2.5
		c0,15.4,0,30.9,0,46.3c0,2.9,0,2.9-3,2.9c-4.7,0-9.4,0-14.1,0c-1.6,0-2.1-0.6-2.1-2.1c0-21.9,0-43.9,0-65.8c0-1.6,0.5-2.2,2-2.3
		c4.2-0.5,8.3-1.1,12.4-1.7c1.2-0.2,1.7,0.2,1.9,1.4C250.2,400.5,250.7,402.6,251.2,405z"/>
	<path class="st1" d="M129.2,404.6c3.8-3.8,7.7-6.5,12.3-7.9c2.4-0.7,5-1,7.5-1.3c1.5-0.2,2.3,0.5,2.3,2.2c-0.1,4.6-0.1,9.3,0,13.9
		c0,1.5-0.6,2.1-2.1,2.2c-3.7,0.3-7.5,0.8-11.2,1.4c-1.4,0.2-2.8,1-4.1,1.8c-2.3,1.5-3.6,3.5-3.6,6.5c0.1,14.1,0,28.2,0.1,42.3
		c0,2.1-0.5,2.9-2.7,2.8c-4.8-0.2-9.7-0.1-14.5,0c-2,0.1-2.6-0.6-2.6-2.5c0.1-11.2,0-22.5,0-33.8c0-10.8,0-21.6,0-32.5
		c0-2.8,0-2.9,2.8-2.9c4.3,0,8.7,0.1,13,0c2.1-0.1,2.8,0.7,2.6,2.7C129.1,401.1,129.2,402.6,129.2,404.6z"/>
	<path class="st1" d="M470.3,375.8c0,5.4-0.1,10.8,0,16.2c0,1.7-0.4,2.3-2.2,2.2c-1.7,0-2.5-0.4-2.4-2.3c0.1-6.5,0.1-13.1,0-19.6
		c0-1.8,0.6-2.4,2.4-2.3c4.8,0.1,3.8-0.6,5.6,3.8c1.8,4.3,3.4,8.7,5.4,13.6c0.9-2.3,1.6-4,2.3-5.8c1.2-3.2,2.5-6.3,3.6-9.6
		c0.6-1.6,1.4-2.3,3.1-2.1c0.7,0.1,1.4,0.1,2.1,0c1.3-0.1,1.9,0.4,1.9,1.8c-0.1,6.8-0.1,13.7,0,20.5c0,1.4-0.5,1.8-1.9,1.8
		c-1.5,0-2-0.5-1.9-2c0.1-5.5,0-11-0.3-16.5c-1.2,3-2.4,6.1-3.6,9.1c-1,2.5-2,5-3,7.5c-0.4,1.1-0.8,1.9-2.2,1.9c-1.4,0-1.7-1-2.1-2
		c-2.2-5.5-4.3-11-6.5-16.4C470.5,375.8,470.4,375.8,470.3,375.8z"/>
	<path class="st1" d="M461.7,373.7c-1.1,0-2,0-2.9,0c-4.2,0-4.2,0-4.2,4.3c0,4.6-0.1,9.3,0,13.9c0,1.6-0.3,2.3-2.1,2.3
		c-1.7,0-2.4-0.5-2.4-2.3c0.1-5.3,0-10.7,0-16c0-1.6-0.4-2.4-2.2-2.2c-1.1,0.1-2.3,0-3.4,0c-1.2,0.1-1.9-0.3-1.9-1.7
		c0-1.3,0.3-2,1.8-2c5.2,0,10.4,0,15.6,0C462.9,370.1,461.4,372.1,461.7,373.7z"/>
	<path class="st0" d="M329,430.4c0.8-4,1.2-8.2,2.4-12c1.7-5.5,5.7-8.9,11.6-9.1c5.7-0.2,10,2.4,12.8,7.4c2,3.6,2.8,7.5,2.9,11.5
		c0.1,5.3-0.2,10.5-2,15.6c-3.1,8.5-10.7,10.5-17.8,8.5c-4-1.1-6.5-4.2-7.5-8.1C330.3,439.7,329.8,435.1,329,430.4z"/>
	<path class="st0" d="M79.8,433.2c-0.6,3.4-1,7-2,10.4c-2.4,7.6-7.4,10.7-16,10.5C55.1,454,50,450.1,48,443.1
		c-1.9-6.7-2-13.5,0-20.2c3-10.4,11.7-13.2,20.8-10.5c5.1,1.5,7.8,5.6,9.1,10.5C78.9,426.2,79.2,429.6,79.8,433.2z"/>
	<path class="st0" d="M199.9,432.8c0,3.8-0.3,7.6,0.1,11.3c0.5,4-1.3,6.3-4.5,8.2c-3.4,2-7,3.5-10.9,4c-3.5,0.4-6.6-0.6-8.4-3.8
		c-2.1-3.6-2.1-7.5,0.4-10.8c1.4-1.9,3.5-3.8,5.7-4.5c5.2-1.8,10.6-3,15.9-4.4C198.6,432.6,199.2,432.7,199.9,432.8z"/>
	<path class="st0" d="M421.7,423.2c-3.9,0-7.8-0.1-11.7,0c-1.9,0-2.3-0.7-2-2.5c1.9-9.9,8.9-13.7,18.3-11.6c6.7,1.5,9,7.1,9.5,12.2
		c0.2,1.5-0.6,1.8-1.9,1.8C429.8,423.2,425.8,423.2,421.7,423.2z"/>
</g>
</svg>
