<?xml version="1.0" encoding="utf-8"?>
<!-- Generator: Adobe Illustrator 22.1.0, SVG Export Plug-In . SVG Version: 6.00 Build 0)  -->
<svg version="1.1" id="Layer_1" xmlns="http://www.w3.org/2000/svg" xmlns:xlink="http://www.w3.org/1999/xlink" x="0px" y="0px"
	 viewBox="0 0 512 512" style="enable-background:new 0 0 512 512;" xml:space="preserve">
<style type="text/css">
	.st0{fill:#FF7901;}
</style>
<g>
	<path class="st0" d="M511.8,507.5c0-168.1,0-336.1,0-504.1c0-1.1,0.1-2.3,0.2-3.4C341.3,0,170.7,0,0,0c0,170.7,0,341.3,0,512
		c1.1-0.1,2.3-0.2,3.4-0.2c168.1,0,336.1,0,504.1,0c0.6,0,1.3-0.1,1.9,0c1.9,0.3,2.6-0.5,2.4-2.4
		C511.7,508.8,511.8,508.1,511.8,507.5z M96.7,446.2c-4,13.7-13.1,21.8-27.2,24c-9.4,1.5-18.4,0.3-26.6-5
		c-9-5.7-13.3-14.4-14.8-24.6c-0.3-2.5-0.4-5.1-0.6-7.6c0.1-9.1,1.9-17.7,7.5-25c5.7-7.4,13.5-11.2,22.6-12.4c7-1,13.7-0.3,20.1,2.4
		c12.3,5.1,18.4,14.9,20.2,27.7C98.9,432.6,98.7,439.5,96.7,446.2z M151.5,411.6c0,1.5-0.6,2.1-2.1,2.2c-3.8,0.3-7.5,0.8-11.2,1.4
		c-1.5,0.2-2.9,1-4.1,1.8c-2.4,1.5-3.6,3.5-3.6,6.5c0.1,14.1,0,28.2,0.1,42.3c0,2.1-0.5,2.9-2.7,2.8c-4.8-0.2-9.7-0.1-14.5,0
		c-2,0.1-2.6-0.6-2.6-2.5c0-11.3,0-22.5,0-33.8c0-10.9,0-21.7,0-32.5c0-2.9,0-2.9,2.8-2.9c4.3,0,8.7,0.1,13,0
		c2.1-0.1,2.8,0.7,2.6,2.7c-0.1,1.4,0,2.9,0,5c3.8-3.7,7.7-6.5,12.5-7.8c2.4-0.7,5-1,7.5-1.3c1.5-0.2,2.3,0.5,2.3,2.2
		C151.4,402.3,151.4,407,151.5,411.6z M219.4,466.6c0,0.5,0,0.9-0.1,1.8c-1.9,0-3.7,0-5.5,0c-3.1,0-6.3-0.1-9.4,0
		c-1.4,0.1-2.2-0.3-2.5-1.8c-0.3-1.3-0.8-2.6-1.1-3.5c-4.5,1.7-8.7,3.7-13.2,4.9c-6.7,1.8-13.5,2.2-20.1-0.6
		c-9.1-3.9-12.2-13.4-11.4-21.4c0.8-7.3,4.8-12.6,11-16.3c7.1-4.3,14.9-6.2,22.9-7.7c3-0.5,6.1-0.9,9.1-1.3c1.1-0.2,1.6-0.6,1.7-1.9
		c0.2-6.4-2.5-9.4-9-9.8c-7.2-0.5-13.3,1.4-18.3,6.8c-0.4,0.4-1.3,0.9-1.7,0.7c-4.1-2.2-8.1-4.5-12.7-7.1c2.8-2.6,5-5.1,7.7-7.3
		c5.7-4.3,12.3-6.2,19.3-6.7c6.1-0.4,12.2-0.1,18.1,1.8c7.8,2.5,13.4,7.3,15,15.8c0.1,0.7,0.2,1.4,0.2,2.1
		C219.4,432.3,219.4,449.4,219.4,466.6z M298.1,466.1c0,2.8-0.1,2.8-2.9,2.8c-4.6,0-9.3-0.1-13.9,0c-2.1,0.1-2.6-0.7-2.6-2.7
		c0.1-14.2,0.1-28.5,0-42.7c0-2.5-0.1-5.1-0.6-7.6c-0.8-4-3.3-5.8-7.4-6c-6.8-0.2-12.2,3.1-17.2,7.3c-0.6,0.5-0.7,1.6-0.7,2.5
		c0,15.4,0,30.9,0,46.3c0,2.9,0,2.9-3,2.9c-4.7,0-9.4-0.1-14.1,0c-1.6,0-2.1-0.5-2.1-2.1c0.1-21.9,0.1-43.9,0-65.8
		c0-1.5,0.6-2.1,2-2.3c4.1-0.5,8.3-1.1,12.4-1.7c1.2-0.2,1.7,0.3,1.9,1.4c0.3,2.2,0.8,4.3,1.3,6.6c2.8-1.7,5.3-3.4,8.1-5
		c7.4-4.3,15.4-5.7,23.8-3.7c8.3,2,13.7,8.1,14.6,16.6c0.2,2.6,0.4,5.3,0.4,7.9C298.1,435.9,298.1,451,298.1,466.1z M377.4,468.5
		c0,7.7-2,14.9-8.1,20.2c-4.4,3.9-9.7,5.8-15.4,6.8c-8.6,1.5-17.1,1.7-25.5-1.1c-6.9-2.2-12.4-6.1-15.1-13.1c-1.1-2.7-0.9-2.9,2-3.3
		c4.8-0.7,9.7-1.5,14.5-2.2c0.6-0.1,1.7,0.3,1.8,0.7c1.1,3.5,3.7,5.1,7,5.4c3.4,0.4,6.9,0.6,10.2,0.2c5.4-0.7,8.8-4.3,9.5-10
		c0.5-4,0.5-8.1,0.7-12.4c-0.4,0.2-0.6,0.2-0.7,0.2c-3.8,6.4-9.8,9.1-17,9.2c-11,0.2-19.8-3.9-25.6-13.6c-3.1-5.1-4.5-10.7-5-16.6
		c-0.9-10.5,0.2-20.6,5.9-29.8c4.4-7.1,10.6-11.8,18.9-13c6.3-0.9,12.5-0.3,18.2,2.9c2.3,1.3,4.2,3.3,6.3,5c0.3-1.5,0.7-3.2,1-5
		c0.3-1.3,0.8-1.9,2.3-1.9c4.1,0.1,8.1,0.1,12.2,0c1.5,0,2,0.5,2,2C377.5,422.2,377.6,445.4,377.4,468.5z M451.8,435.8
		c-13.8,0-27.7,0-41.6,0c-2.7,0-3.5-0.4-2.8,3c0.6,2.7,0.9,5.5,1.9,8c2.1,5.4,6.4,8,12,8.6c7.1,0.7,13-1.6,17.2-7.6
		c0.8-1.3,1.5-1.5,2.9-0.7c4,2.4,8,4.5,12.3,6.9c-2.9,5.3-6.8,9.2-12,11.6c-11.4,5.5-23.1,6.2-34.9,1.5c-6.8-2.8-11.8-7.8-14.7-14.5
		c-5.4-12.7-5.6-25.8-0.5-38.6c4.7-11.8,14.2-17.6,26.8-18.5c5.2-0.4,10.3,0,15.2,1.6c11.3,3.6,17.5,11.8,19.9,23
		c0.9,4.1,1.1,8.5,1.3,12.7C454.9,435.7,454.7,435.8,451.8,435.8z M461.7,373.7c-1.1,0-2,0-2.9,0.1c-4.2,0-4.2,0-4.2,4.3
		c0,4.6-0.1,9.3,0,13.9c0,1.6-0.3,2.3-2.1,2.3c-1.7,0-2.4-0.5-2.4-2.3c0-5.3-0.1-10.7,0-16c0-1.6-0.4-2.4-2.2-2.2
		c-1.1,0.1-2.3-0.1-3.4,0c-1.2,0-1.9-0.3-1.9-1.7c0-1.2,0.3-2,1.8-2c5.2,0,10.4,0,15.6,0C462.9,370.1,461.4,372.1,461.7,373.7z
		 M492.1,392.4c0,1.4-0.6,1.8-1.9,1.8c-1.5,0-1.9-0.5-1.9-2c0-5.4,0-10.9-0.3-16.5c-1.2,3-2.4,6.1-3.6,9.1c-1,2.5-2,5-3,7.5
		c-0.4,1.1-0.8,1.9-2.2,1.9c-1.4,0-1.7-1-2.1-2c-2.2-5.4-4.3-10.9-6.5-16.4c-0.1,0-0.2,0-0.3,0c0,5.4-0.1,10.8,0,16.4
		c0,1.6-0.5,2.2-2.2,2.2c-1.6-0.1-2.4-0.4-2.4-2.3c0.1-6.5,0.1-13.1,0-19.6c0-1.8,0.7-2.4,2.4-2.3c4.9,0.1,3.8-0.6,5.6,3.8
		c1.8,4.3,3.4,8.7,5.4,13.6c0.9-2.3,1.6-4.1,2.3-5.8c1.2-3.2,2.5-6.4,3.6-9.6c0.5-1.6,1.4-2.3,3.1-2.1c0.7,0.1,1.4,0,2.1,0
		c1.4-0.1,1.9,0.4,1.9,1.8C492,378.7,492,385.6,492.1,392.4z"/>
	<path class="st0" d="M355.8,416.7c-2.8-5-7.1-7.6-12.8-7.4c-5.9,0.2-9.9,3.6-11.6,9.1c-1.2,3.8-1.6,8-2.4,12
		c0.8,4.7,1.3,9.3,2.4,13.8c1,3.9,3.5,7,7.5,8.1c7.1,2,14.7,0,17.8-8.5c1.8-5.1,2.1-10.3,2-15.6
		C358.6,424.2,357.8,420.3,355.8,416.7z"/>
	<path class="st0" d="M68.8,412.4c-9.1-2.7-17.8,0.1-20.8,10.5c-2,6.7-1.9,13.5,0,20.2c2,7,7.1,10.9,13.8,11
		c8.6,0.2,13.6-2.9,16-10.5c1-3.4,1.4-7,2-10.4c-0.6-3.6-0.9-7-1.9-10.3C76.6,418,73.9,413.9,68.8,412.4z"/>
	<path class="st0" d="M199.9,432.8c-0.7-0.1-1.3-0.2-1.7,0c-5.3,1.4-10.7,2.6-15.9,4.4c-2.2,0.7-4.3,2.6-5.7,4.5
		c-2.5,3.3-2.5,7.2-0.4,10.8c1.8,3.2,4.9,4.2,8.4,3.8c3.9-0.5,7.5-2,10.9-4c3.2-1.9,5-4.2,4.5-8.2
		C199.6,440.4,199.9,436.6,199.9,432.8z"/>
	<path class="st0" d="M426.3,409.1c-9.4-2.1-16.4,1.7-18.3,11.6c-0.3,1.8,0.1,2.5,2,2.5c3.9-0.1,7.8,0,11.7,0c4.1,0,8.1,0,12.2-0.1
		c1.3,0,2.1-0.3,1.9-1.8C435.3,416.2,433,410.6,426.3,409.1z"/>
</g>
</svg>
