<?xml version="1.0" encoding="utf-8"?>
<!-- Generator: Adobe Illustrator 22.1.0, SVG Export Plug-In . SVG Version: 6.00 Build 0)  -->
<svg version="1.1" id="Layer_1" xmlns="http://www.w3.org/2000/svg" xmlns:xlink="http://www.w3.org/1999/xlink" x="0px" y="0px"
	 viewBox="0 0 512 512" style="enable-background:new 0 0 512 512;" xml:space="preserve">
<style type="text/css">
	.st0{fill:#D30505;}
</style>
<path class="st0" d="M409,303.2c1.9-11.7,4.4-22.5,5.2-33.5c3-40.9-17.4-69.8-58-80.1c-15.2-3.8-31.3-4.3-47-5.6
	c-4.7-0.4-8.1-1.4-11.4-4.7c-16-15.7-34-28.2-55.5-35.1c-31.4-10.2-61.5-5.5-90.2,9.2c-13.5,6.9-26.1,15.5-39.2,23.4
	c0.3-0.7,0.5-1.7,1-2.6c7.2-12.2,9.6-25.1,7.2-39.1c-0.3-1.8,0.4-4.9,1.8-5.8c31.3-21.3,64.9-32.3,102.9-21.9
	c24.6,6.7,44.9,20.9,62.2,39.2c7,7.4,13.2,15.6,19.4,23.7c2.2,2.9,4.2,3.8,7.8,3.3c22-2.8,43.7-2,64.8,5.5
	c46.8,16.6,72.5,65.9,59.6,113.8c-0.6,2.1,0,5.7,1.4,6.8c19.8,14.7,25.5,34.9,22.4,58.1c-1.5,11.2-5,22.2-8.8,33.3
	C454.2,353.7,443.6,322.1,409,303.2z"/>
<path class="st0" d="M204.5,389.2c-0.8-16.1-0.5-32.2-2.8-48c-4.6-32.1-27.7-47.9-59.8-42.3c-16.8,2.9-31.7,10.1-45.7,19.4
	c-1.9,1.3-3.8,2.5-6.5,4.3c-1.3-5.5-2.5-10.4-3.7-15.4c-9.5-40.8-18.9-81.7-28.6-122.5c-1.1-4.6,0-7,3.5-9.9
	c5.4-4.5,10.8-9.4,14.7-15.1c8.3-11.9,7.8-23-0.8-34.8c-5-6.9-10.4-13.6-13.1-17c5.9,1.1,16.4,4.7,25.3,11.8
	c12.4,9.9,16.6,25.3,10.9,42.6c-2.6,7.8-6.9,15.1-10.2,22.8c-0.8,1.9-1.8,4.5-1.2,6.3c9.6,28.2,19.5,56.3,29.4,84.5
	c0.2,0.6,0.7,1,1.2,1.7c7.8-2.2,15.5-4.6,23.4-6.4c18.5-4.2,36.4-3.4,53.3,6.5c16.2,9.5,25.1,23.6,26.7,42.1
	C222.8,344.8,214.5,367.4,204.5,389.2z"/>
<path class="st0" d="M305.7,307.3c13.6-13.5,28.9-20.9,47.6-20.4c34.3,0.9,58.1,27.3,55.2,61.5c-1.2,14.8-6.1,28.4-13.5,43.2
	c0.6-7.6,1.5-13.3,1.4-19c-0.1-6-0.8-12.1-1.8-18c-2-11.4-6.9-21.5-14.9-29.8c-15.4-15.9-36-18.3-57.1-5.6c-9,5.4-17,12.5-25.4,18.8
	c-2.7-3-5.4-7-9-9.5c-4.5-3.2-9.6-6.2-14.8-7.4c-9.7-2.3-11.3-0.4-11.8,9.5c-1.1,20.5-6.4,39.9-16.1,58c-0.7,1.4-1.8,2.6-3.2,4.8
	c3.6-29.6,5.8-57.8-14.3-82.5c10.6-11.3,22.6-19.2,38.3-20.3C282,289.4,294.4,296.8,305.7,307.3z"/>
</svg>
