<?xml version="1.0" encoding="utf-8"?>
<!-- Generator: Adobe Illustrator 22.1.0, SVG Export Plug-In . SVG Version: 6.00 Build 0)  -->
<svg version="1.1" id="Layer_1" xmlns="http://www.w3.org/2000/svg" xmlns:xlink="http://www.w3.org/1999/xlink" x="0px" y="0px"
	 viewBox="0 0 512 512" style="enable-background:new 0 0 512 512;" xml:space="preserve">
<style type="text/css">
	.st0{fill:#8DAD32;}
	.st1{fill:#378ECD;}
	.st2{fill:#8EAD33;}
	.st3{fill:#8DAD33;}
</style>
<path class="st0" d="M329.6,185.7c-0.1,4.1-2.7,7-7.1,7.5c-6.7,0.8-13.5,1.1-20.2,2.4c-17.6,3.4-30.5,17.9-32.4,35.8
	c-0.5,5.1-1,10.1-1.6,15.2c-0.5,4.9-3.4,8-7.6,8c-4.3,0.1-7.3-2.7-7.9-7.7c-0.8-6.2-1.1-12.4-2.1-18.5c-3.1-18.1-18.3-32-36.6-33.5
	c-5.1-0.4-10.1-1-15.2-1.6c-4.5-0.5-7.5-3.6-7.5-7.7c0-4.1,2.8-7.1,7.5-7.7c6.3-0.8,12.7-1,18.9-2.2c19-3.6,32.1-18.6,33.7-37.9
	c0.4-4.8,0.8-9.6,1.5-14.3c0.6-4.3,3.7-7,7.7-7c4,0,7.2,3,7.7,7.5c0.8,6.9,0.9,13.8,2.4,20.6c4,17.6,18.8,30.3,36.8,31.8
	c5.1,0.4,10.1,0.9,15.2,1.6C327.1,178.5,329.6,181.6,329.6,185.7z"/>
<path class="st1" d="M132.1,348.1c-3,3.5-5.7,6.4-8,9.6c-2.1,3-0.9,6.6-1,9.9c-0.2,6.9-0.2,7.1-7.2,7.1
	c-12.5-0.1-11.6,1.6-11.6-11.5c0-22.6,0-45.2,0-67.8c0-5.4,0.7-6.1,6.1-6.1c2.4,0,4.8,0.1,7.2,0c4.1-0.3,5.5,1.6,5.4,5.6
	c-0.1,11.9,0,23.7,0,35.6c0,1.4,0,2.7,0,4.1c0.3,0.1,0.6,0.3,0.9,0.4c3-3.6,5.9-7.3,9-10.9c4-4.6,6.7-10.9,11.9-13.5
	c5.3-2.7,11.9-0.6,18-0.8c4.4-0.1,8.8,0.1,13.1-0.1c3.3-0.1,5.2,1.2,6.4,4.3c4.6,11.1,9.3,22.1,14,33.1c0.3,0.6,0.6,1.2,1.3,2.6
	c3.7-10.2,7.1-19.8,10.7-29.3c4.9-13,1.3-10.4,15.1-10.6c5.9-0.1,6.4,0.6,4.3,6c-8.1,21.1-16.1,42.2-24.3,63.2
	c-4.9,12.6-10.6,16.2-24.1,16.2c-3.7,0-7.3,0-11,0c-2.9,0-3.9-1.3-2.9-4c0.1-0.3,0.2-0.5,0.3-0.8c5.1-13.3,1.8-11.1,15.6-11.4
	c1.1,0,2.3,0,3.4-0.2c3.7-0.6,5-2.7,3.5-6c-8-18.1-16.1-36.1-24.2-54.1c-1.5-3.3-3.7-3.5-6.2-0.6c-3.2,3.8-6.1,7.8-9.4,11.4
	c-2.1,2.3-2.3,4.4-1,7.2c5,10.9,9.9,21.9,14.8,32.8c2,4.4,1.5,5.2-3.3,5.3c-3.7,0-7.4-0.1-11,0c-3.2,0.2-4.9-1.2-6-4.1
	C138.7,363.2,135.5,356,132.1,348.1z"/>
<path class="st2" d="M442.1,318.4c6.3-8.6,14.3-10.4,23.2-9.9c10.4,0.6,16.8,6.1,18.5,16.4c0.4,2.5,0.7,5,0.7,7.6
	c0.1,12.6,0,25.1,0.1,37.7c0,3.2-1.1,4.8-4.5,4.6c-3-0.1-5.9-0.2-8.9,0c-3.8,0.2-5.4-1.3-5.3-5.2c0.2-8.5,0-16.9,0-25.4
	c0-1.8,0-3.7,0-5.5c-0.3-11.5-8.9-16.2-18.9-10.3c-4,2.4-5,6.3-5,10.6c-0.1,10,0,20.1-0.1,30.1c0,5-0.7,5.6-5.6,5.6
	c-2.7,0-5.4-0.1-8.1,0c-3.7,0.2-4.9-1.5-4.9-5.1c0.1-25.1,0.1-50.3,0-75.4c0-3.7,1.6-5.1,5.1-5c2.8,0.1,5.7,0.1,8.5,0
	c3.6-0.1,5.1,1.4,5.1,5C442,301.8,442.1,309.5,442.1,318.4z"/>
<path class="st2" d="M332.2,364.5c-6.7,10-16.1,12-26.4,11.2c-9.5-0.8-15.8-6.8-17.5-16.2c-1.7-9.9,2.3-18,11.1-22
	c8.9-4.1,18.2-3.5,27.5-2.2c4.8,0.7,5.5-0.1,3.8-4.7c-1.6-4.2-4.5-6.7-9.2-6.9c-7.5-0.3-15,0.5-22.2,2.7c-3.3,1-5.2,0.1-6.2-3
	c-0.2-0.7-0.5-1.3-0.8-2c-3-7.9-2.7-8.7,5.5-10.6c11.6-2.7,23.4-4.1,35.3-1.5c10.2,2.3,16,8.7,16.7,19.2c1.1,14.4,0.3,28.8,0.5,43.2
	c0,2.2-1,3.6-3.5,3.9C338.5,376.6,334.2,373.6,332.2,364.5z M315.9,360.5c2.4,0.1,4.8-0.4,7.1-1.1c5.1-1.6,8-5,8.4-9.5
	c0.1-1.2,0.2-2.4-1.3-2.6c-6.7-0.7-13.5-1.8-20.1,0.9c-2.4,1-3.7,2.9-3.7,5.7c0.1,2.7,1.4,4.5,3.7,5.7
	C312,360.4,313.9,360.4,315.9,360.5z"/>
<path class="st2" d="M387.1,375.7c-9.8,0.2-19.1-1.4-27.7-6.4c-4.8-2.8-4.9-4.3-1.1-8.4c6-6.4,6-6.3,14.2-2.9
	c6.9,2.9,14.1,3.7,21.6,2.5c2.7-0.4,4.5-1.7,4.7-4.5c0.2-3-1.8-4.3-4.3-4.9c-7-1.5-14.2-2.6-21.1-4.3c-9.4-2.3-13.5-7-14.4-15.5
	c-0.9-9.4,2.4-16.5,10.8-20c14.3-6,28.7-4.6,42.7,1.6c2.5,1.1,3.1,3.1,1.4,5.5c-0.2,0.3-0.5,0.7-0.7,1.1c-5.4,8.1-5.4,8.1-14.7,5.5
	c-5.3-1.5-10.6-1.5-16-1c-2.5,0.2-4.8,1.1-5,4.2c-0.2,3.3,2.1,4.4,4.8,4.9c6.5,1.2,13.1,2.2,19.6,3.6c10,2.1,14.8,7.2,15.5,15.9
	c0.8,9.7-3.7,16.9-12.9,20.6C398.9,375.4,393,375.7,387.1,375.7z"/>
<path class="st1" d="M70,375.9c-11.8,0.1-21.2-1.5-29.8-6.4c-4.8-2.8-5-4.3-1.1-8.4c6.2-6.5,6.1-6.4,14.2-3c6.9,3,14.1,3.7,21.6,2.6
	c2.7-0.4,4.6-1.5,4.8-4.4c0.2-3.2-1.9-4.5-4.6-5.1c-7-1.5-14.2-2.6-21.1-4.3C42.4,343.9,37,334,40.4,322.7
	c2.2-7.3,7.8-11.4,14.8-13.2c12.4-3.1,24.7-2.4,36.5,2.6c4.7,2,5,3.4,2.2,7.6c-0.2,0.2-0.3,0.5-0.5,0.7c-5.1,7.3-5.1,7.3-13.5,4.8
	c-5.4-1.6-10.9-1.7-16.4-1.2c-2.7,0.3-5.2,1.2-5.3,4.4c-0.1,3.2,2.3,4.3,5,4.8c7.2,1.4,14.5,2.3,21.6,4.2c7.2,1.9,12.1,6,13.1,13.7
	c1.2,8.5-1,15.7-8.8,20.4C82.7,375.4,75.3,375.7,70,375.9z"/>
<path class="st3" d="M260.1,375.7c-15.8,0-26-6.9-31.2-21.2c-5.1-13.9-0.9-31.3,9.8-39.9c9.5-7.7,20.6-7.7,31.8-5.7
	c4.2,0.7,8.2,2,12,4c2.7,1.4,3.3,3.3,1.4,5.8c-2,2.7-3.5,6.1-6.1,8c-3.2,2.5-6.3-1.2-9.4-1.9c-9.6-2.3-15.8-0.8-19.7,5.2
	c-4.3,6.8-3.9,18.9,0.9,24.9c2.9,3.6,6.6,5.1,11.2,4.9c4.1-0.2,8.1-0.9,11.9-2.6c0.6-0.3,1.3-0.6,1.9-0.8c2.6-0.8,8.4,5,10.1,9.9
	c1.1,3.3-1.5,4.1-3.7,5.1C274.4,374.6,267.4,375.7,260.1,375.7z"/>
</svg>
