<?xml version="1.0" encoding="utf-8"?>
<!-- Generator: Adobe Illustrator 22.1.0, SVG Export Plug-In . SVG Version: 6.00 Build 0)  -->
<svg version="1.1" id="Layer_1" xmlns="http://www.w3.org/2000/svg" xmlns:xlink="http://www.w3.org/1999/xlink" x="0px" y="0px"
	 viewBox="0 0 512 512" style="enable-background:new 0 0 512 512;" xml:space="preserve">
<style type="text/css">
	.st0{fill:#E00875;}
	.st1{fill:#FFFFFF;}
</style>
<rect class="st0" width="512" height="512"/>
<path class="st1" d="M420.3,60c1.3,47,2.7,93.2,4,139.8c-7.3,1.2-14.2,2.4-21.7,3.7c-0.4-2.3-0.8-4.4-1-6.5
	c-2.2-18.7-6-36.9-13.3-54.4c-8.9-21.3-22.7-38.4-43.2-49.6c-12-6.6-25-10.4-38.6-12.1c-4.1-0.5-8.2-0.8-12.3-1.2
	c-0.9-0.1-1.7,0.1-2.9,0.1c-0.1,1.5-0.2,2.7-0.2,4c0,96.8,0,193.6,0.1,290.4c0,10.1,1,20.1,3.5,29.9c3,12.1,10.4,19.9,22.3,23.5
	c6.7,2,13.5,3.4,20.5,3.6c6.8,0.2,13.7,0.5,21,0.7c0.3,7.5,0.1,14.8,0.1,22c-3,0.9-192.1,1.2-197,0.4c-0.8-2.8-1-17-0.2-22.3
	c2.6-0.1,5.2-0.2,7.9-0.4c8.2-0.6,16.6-0.6,24.7-1.9c19.1-2.9,29.9-14.1,32.3-33.2c1-7.8,1.6-15.7,1.6-23.6
	c0.1-96.3,0.1-192.6,0.1-288.9c0-1.4,0-2.8,0-4.5c-3.5,0.2-6.6,0.3-9.6,0.6c-19.3,1.8-37.4,7.2-53.4,18.7
	c-15.6,11.2-26.3,26.1-33.6,43.7c-6.4,15.4-10.1,31.4-12.4,47.9c-0.6,4.2-1.1,8.4-1.7,13c-7.5-1.3-14.5-2.4-21.9-3.7
	c1.3-46.6,2.7-92.8,4-139.3c1.2-0.2,2.2-0.4,3.2-0.5c1-0.1,2.1,0,3.1,0c102.9,0,205.8,0,308.7,0C416,60,417.9,60,420.3,60z"/>
<path class="st1" d="M96.2,241.6c27.3,0,54.4,0,81.4,0c1,3.4,1,76.7,0,80.4c-27,0-54,0-81.1,0C95.6,319.3,95.2,247.6,96.2,241.6z"/>
<path class="st1" d="M343,241.6c27.3,0,54.4,0,81.4,0c0.8,3,1.1,74.1,0.4,79.9c-0.1,0.1-0.2,0.2-0.3,0.3c-0.1,0.1-0.2,0.2-0.3,0.2
	c-0.5,0.1-1,0.3-1.5,0.3c-25.8,0-51.7,0-77.5,0c-0.6,0-1.3-0.1-1.7-0.2c-0.2-0.2-0.4-0.3-0.4-0.4c-0.1-0.1-0.2-0.2-0.2-0.3
	c-0.1-0.6-0.2-1.3-0.2-1.9c0-25.5,0-50.9,0.1-76.4C342.6,242.7,342.8,242.4,343,241.6z"/>
</svg>
