<svg width="256" height="256" xmlns="http://www.w3.org/2000/svg"><path d="M204.647 177.288c-2.873 6.603-6.273 12.682-10.213 18.27-5.37 7.618-9.767 12.891-13.155 15.819-5.253 4.807-10.881 7.268-16.908 7.408-4.326 0-9.544-1.225-15.618-3.709-6.093-2.474-11.693-3.699-16.813-3.699-5.37 0-11.13 1.225-17.29 3.699-6.17 2.484-11.14 3.779-14.94 3.908-5.78.245-11.54-2.287-17.29-7.607-3.67-3.185-8.26-8.644-13.76-16.379-5.9-8.26-10.75-17.838-14.55-28.758-4.07-11.794-6.11-23.216-6.11-34.273 0-12.666 2.75-23.59 8.26-32.745 4.33-7.353 10.09-13.154 17.3-17.412 7.21-4.258 15-6.428 23.39-6.567 4.59 0 10.61 1.413 18.09 4.19 7.46 2.785 12.249 4.198 14.349 4.198 1.57 0 6.891-1.652 15.911-4.945 8.53-3.054 15.73-4.319 21.627-3.82 15.981 1.282 27.988 7.55 35.973 18.844-14.293 8.616-21.363 20.685-21.223 36.168.129 12.059 4.526 22.094 13.168 30.063 3.916 3.698 8.289 6.556 13.155 8.586a140.997 140.997 0 01-3.353 8.761zM167.994 33.781c0 9.452-3.47 18.278-10.388 26.446-8.348 9.712-18.446 15.323-29.396 14.438a29.183 29.183 0 01-.221-3.582c0-9.074 3.971-18.785 11.021-26.725 3.52-4.02 7.996-7.363 13.425-10.03 5.417-2.627 10.541-4.08 15.36-4.328a34.09 34.09 0 01.199 3.781z"/></svg>