<svg width="256" height="256" xmlns="http://www.w3.org/2000/svg"><path d="M212 129.597a103.646 103.646 0 00-1.484-17.613h-81.301v33.36h46.565a40.196 40.196 0 01-5.929 14.931 39.99 39.99 0 01-11.289 11.391v21.654h27.791C202.625 178.246 212 155.955 212 129.597z" fill="#4285F4"/><path d="M129.202 214.231c23.265 0 42.854-7.675 57.138-20.908l-27.791-21.655c-7.735 5.269-17.697 8.277-29.347 8.277-22.486 0-41.572-15.23-48.397-35.754h-28.63v22.316a86.464 86.464 0 0031.78 34.833 85.913 85.913 0 0045.247 12.891z" fill="#34A853"/><path d="M80.809 144.213a52.13 52.13 0 010-33.155V88.742h-28.63A86.949 86.949 0 0043 127.636a86.95 86.95 0 009.18 38.893l28.629-22.316z" fill="#FBBC04"/><path d="M129.202 75.292a46.685 46.685 0 0133.071 12.992l24.606-24.722c-15.603-14.724-36.273-22.807-57.677-22.556a85.908 85.908 0 00-45.247 12.89 86.467 86.467 0 00-31.78 34.833l28.63 22.316c6.825-20.523 25.911-35.753 48.397-35.753z" fill="#EA4335"/></svg>