<svg xmlns="http://www.w3.org/2000/svg" viewBox="698 552 752 400"><path d="M1250 552H898c-110 0-200 90-200 200s90 200 200 200h352c110 0 200-90 200-200s-90-200-200-200Z" fill="#FFF"/><path d="M1250 568.2c24.7 0 48.7 4.9 71.3 14.5 21.9 9.3 41.5 22.6 58.5 39.5 16.9 16.9 30.2 36.6 39.5 58.5 9.6 22.6 14.5 46.6 14.5 71.3 0 24.7-4.9 48.7-14.5 71.3-9.3 21.9-22.6 41.5-39.5 58.5-16.9 16.9-36.6 30.2-58.5 39.5-22.6 9.6-46.6 14.5-71.3 14.5H898c-24.7 0-48.7-4.9-71.3-14.5-21.9-9.3-41.5-22.6-58.5-39.5-16.9-16.9-30.2-36.6-39.5-58.5-9.6-22.6-14.5-46.6-14.5-71.3 0-24.7 4.9-48.7 14.5-71.3 9.3-21.9 22.6-41.5 39.5-58.5 16.9-16.9 36.6-30.2 58.5-39.5 22.6-9.6 46.6-14.5 71.3-14.5h352Zm0-16.2H898c-110 0-200 90-200 200s90 200 200 200h352c110 0 200-90 200-200s-90-200-200-200Z" fill="#3C4043"/><path d="M1056.6 766.2v60.5h-19.2V677.3h50.9c12.9 0 23.9 4.3 32.9 12.9 9.2 8.6 13.8 19.1 13.8 31.5 0 12.7-4.6 23.2-13.8 31.7-8.9 8.5-19.9 12.7-32.9 12.7h-31.7v.1Zm0-70.5v52.1h32.1c7.6 0 14-2.6 19-7.7 5.1-5.1 7.7-11.3 7.7-18.3 0-6.9-2.6-13-7.7-18.1-5-5.3-11.3-7.9-19-7.9h-32.1v-.1Zm128.6 25.4c14.2 0 25.4 3.8 33.6 11.4 8.2 7.6 12.3 18 12.3 31.2v63h-18.3v-14.2h-.8c-7.9 11.7-18.5 17.5-31.7 17.5-11.3 0-20.7-3.3-28.3-10-7.6-6.7-11.4-15-11.4-25 0-10.6 4-19 12-25.2 8-6.3 18.7-9.4 32-9.4 11.4 0 20.8 2.1 28.1 6.3v-4.4c0-6.7-2.6-12.3-7.9-17-5.3-4.7-11.5-7-18.6-7-10.7 0-19.2 4.5-25.4 13.6l-16.9-10.6c9.3-13.5 23.1-20.2 41.3-20.2Zm-24.8 74.2c0 5 2.1 9.2 6.4 12.5 4.2 3.3 9.2 5 14.9 5 8.1 0 15.3-3 21.6-9 6.3-6 9.5-13 9.5-21.1-6-4.7-14.3-7.1-25-7.1-7.8 0-14.3 1.9-19.5 5.6-5.3 3.9-7.9 8.6-7.9 14.1Zm175.1-70.9-64 147.2h-19.8l23.8-51.5-42.2-95.7h20.9l30.4 73.4h.4l29.6-73.4h20.9Z" fill="#3C4043"/><path d="M980.23 754c0-6.26-.56-12.25-1.6-18.01h-80.48v33l46.35.01c-1.88 10.98-7.93 20.34-17.2 26.58v21.41h27.59c16.11-14.91 25.34-36.95 25.34-62.99Z" fill="#4285F4"/><path d="M927.31 795.58c-7.68 5.18-17.57 8.21-29.14 8.21-22.35 0-41.31-15.06-48.1-35.36h-28.46v22.08c14.1 27.98 43.08 47.18 76.56 47.18 23.14 0 42.58-7.61 56.73-20.71l-27.59-21.4Z" fill="#34A853"/><path d="M847.39 752.05c0-5.7.95-11.21 2.68-16.39v-22.08h-28.46c-5.83 11.57-9.11 24.63-9.11 38.47s3.29 26.9 9.11 38.47l28.46-22.08a51.657 51.657 0 0 1-2.68-16.39Z" fill="#FABB05"/><path d="M898.17 700.3c12.63 0 23.94 4.35 32.87 12.85l24.45-24.43c-14.85-13.83-34.21-22.32-57.32-22.32-33.47 0-62.46 19.2-76.56 47.18l28.46 22.08c6.79-20.3 25.75-35.36 48.1-35.36Z" fill="#E94235"/></svg>