<?xml version="1.0" encoding="utf-8"?>
<!-- Generator: Adobe Illustrator 22.1.0, SVG Export Plug-In . SVG Version: 6.00 Build 0)  -->
<svg version="1.1" id="Layer_1" xmlns="http://www.w3.org/2000/svg" xmlns:xlink="http://www.w3.org/1999/xlink" x="0px" y="0px"
	 viewBox="0 0 512 512" style="enable-background:new 0 0 512 512;" xml:space="preserve">
<style type="text/css">
	.st0{fill:#00633A;}
</style>
<path class="st0" d="M282.5,430.6c10.2-18.9,19.9-37,30.2-56c-2.7-0.2-4.4-0.5-6.1-0.5c-48.2,0-96.3,0-144.5-0.1
	c-3.6,0-5.7,1.1-7.4,4.4c-8.5,16.2-17.2,32.4-26,48.4c-0.9,1.7-3.3,3.6-5,3.7c-25.8,0.2-51.7,0.1-77.5,0.1c-0.5,0-1-0.2-2.1-0.4
	c1-2.2,1.8-4.3,2.8-6.2c34.6-64.4,69.2-128.8,104-193.2c1.9-3.4,1.6-5.8-0.5-9c-10.8-17-21.2-34.2-32.2-52.1c2-0.2,3.4-0.4,4.7-0.4
	c59.8,0,119.7,0,179.5-0.1c4.2,0,6.5,1.3,8.7,4.9c38.3,62.3,76.7,124.6,115.1,186.8c13.2,21.4,26.5,42.8,39.7,64.2
	c1,1.6,1.9,3.3,3.2,5.5C406.7,430.6,345.2,430.6,282.5,430.6z M267,311c0.4-0.5,0.7-1,1.1-1.4c-13.1-21.2-26.3-42.4-40.2-64.7
	c-12.5,22.7-24.2,44-36.5,66.1C217.6,311,242.3,311,267,311z"/>
<path class="st0" d="M293.3,146.1c-2.4,0-4,0-5.6,0c-38.6,0-77.3-0.1-115.9,0.1c-3.9,0-6.2-1-8.3-4.6c-9.8-16.5-19.9-32.7-29.9-49.1
	c-0.7-1.1-1.3-2.3-2.2-4c1.6-0.2,2.8-0.5,4-0.5c39.1,0,78.3-0.1,117.4,0.1c1.9,0,4.7,1.2,5.7,2.7c11.4,17.4,22.5,35,33.6,52.6
	C292.4,143.9,292.6,144.5,293.3,146.1z"/>
</svg>
