<svg xmlns="http://www.w3.org/2000/svg" viewBox="0 0 512 512"><path fill="#00633a" d="M282.5 430.6c10.2-18.9 19.9-37 30.2-56-2.7-.2-4.4-.5-6.1-.5-48.2 0-96.3 0-144.5-.1-3.6 0-5.7 1.1-7.4 4.4-8.5 16.2-17.2 32.4-26 48.4-.9 1.7-3.3 3.6-5 3.7-25.8.2-51.7.1-77.5.1-.5 0-1-.2-2.1-.4 1-2.2 1.8-4.3 2.8-6.2 34.6-64.4 69.2-128.8 104-193.2 1.9-3.4 1.6-5.8-.5-9-10.8-17-21.2-34.2-32.2-52.1 2-.2 3.4-.4 4.7-.4 59.8 0 119.7 0 179.5-.1 4.2 0 6.5 1.3 8.7 4.9 38.3 62.3 76.7 124.6 115.1 186.8 13.2 21.4 26.5 42.8 39.7 64.2 1 1.6 1.9 3.3 3.2 5.5zM267 311c.4-.5.7-1 1.1-1.4-13.1-21.2-26.3-42.4-40.2-64.7-12.5 22.7-24.2 44-36.5 66.1zm26.3-164.9h-5.6c-38.6 0-77.3-.1-115.9.1-3.9 0-6.2-1-8.3-4.6-9.8-16.5-19.9-32.7-29.9-49.1-.7-1.1-1.3-2.3-2.2-4 1.6-.2 2.8-.5 4-.5 39.1 0 78.3-.1 117.4.1 1.9 0 4.7 1.2 5.7 2.7 11.4 17.4 22.5 35 33.6 52.6.3.5.5 1.1 1.2 2.7"/></svg>