<svg xmlns="http://www.w3.org/2000/svg" viewBox="0 0 512 512"><path fill="#00a371" d="M327.7 158c-.1.9-.2 1.8-.2 2.8V236c-23-13-45.6-25.8-68.6-38.8 4.8-2.7 9.2-5.2 13.6-7.7 17.7-10 35.5-20.1 53.2-30.2.6-.3 1-.9 1.6-1.3zm-69.6 77.9c-22.8-12.9-45.4-25.7-68.3-38.7 22.9-13 45.4-25.7 68.3-38.7z"/><path d="M53 250.9h12.5v21.5c.2.1.3.1.5.2.4-.6.9-1.2 1.2-1.8 3.9-6.1 7.8-12.2 11.6-18.3.8-1.3 1.6-1.7 3.1-1.6 3.8.1 7.7 0 11.9 0-1.2 2-2.2 3.6-3.2 5.2-3.8 6.1-7.6 12.3-11.5 18.4-.8 1.3-.9 2.2 0 3.6 4.5 6.7 8.8 13.4 13.2 20.1.4.6.8 1.3 1.4 2.3-5.1 0-9.8.1-14.5-.1-.5 0-1.2-.9-1.6-1.5-3.5-5.6-7-11.3-10.5-17-.3-.6-.7-1.1-1.6-1.5v20.4H52.9c.1-16.7.1-33.3.1-49.9m411 49.8h-9.8c-.1-1.1-.1-1.9-.1-2.6v-18c0-3.7-2.4-6.5-5.6-7.2-3.1-.6-6.5 1.1-7.6 4.2-.5 1.4-.7 2.9-.7 4.4-.1 5.5 0 11 0 16.5v2.4h-10.3v-36h10.2c.1.8.2 1.6.3 2.6.6-.4 1-.7 1.4-1 8.1-6.4 19.2-2.8 22 7.2.1.3.3.6.4 1-.2 8.8-.2 17.6-.2 26.5m-295.4 36.6c-2.9-.8-5.4-2.2-6.6-5.2-1.3-3.1-.9-6.1 1.3-8.6s5-3.5 8.3-2.6c.5.1 1.1.3 1.9.4v-5.8h4.9v20.7c-2.6.3-5.1.7-7.6 1-.7.1-1.4.1-2.2.1m1.4-12.4c-2.1 0-4 2-3.9 4 .1 2.1 2 3.9 4.1 3.8s3.8-1.8 3.8-3.9-1.9-3.9-4-3.9m149.1 12.4c-2.5-.3-5-.6-7.6-1v-20.7h4.8v5.5c1.8-.2 3.5-.6 5-.4 4.1.5 7 3.8 7.3 7.8.2 3.7-2.3 7.2-6.1 8.4-.4.1-.8.3-1.2.4zm.6-12.4c-2.1 0-3.9 1.9-3.8 4.1.1 2.1 1.7 3.8 3.9 3.8 2.1 0 4-1.9 4-3.9-.1-2.2-2-4-4.1-4m16.6 12.4-1.5-.6c-4.2-1.6-6.4-6-5.1-10.3 1.4-4.3 5.6-6.5 10-5.6 2.1.4 4.4.1 6.8.1v15.4c-2.5.3-5.1.7-7.6 1zm1.7-12.4c-2.1 0-3.9 1.9-3.9 4s1.7 3.8 3.8 3.8c2.2 0 4-1.7 4-3.9 0-2.1-1.8-3.9-3.9-3.9m-69.2 12.4c-3.4-1-6.1-2.7-7-6.4-1.5-5.9 3.8-11.4 9.8-10.1 2.2.5 4.6.3 7 .4v15.2c-2.6.3-5.1.7-7.7 1-.6-.1-1.4-.1-2.1-.1m1.3-4.6c2.2 0 4-1.7 4-3.9 0-2-1.7-3.9-3.7-4-2.1-.1-4.1 1.7-4.1 3.8-.1 2.2 1.7 4.1 3.8 4.1m-83.8 4.6c-5.1-2.5-6.9-5.2-6.4-9.6.4-3.5 3.5-6.7 7-7.1 4.3-.5 7.8 1.6 9.1 5.6-3.2 1.9-6.4 3.8-9.8 5.7 2.5 1.3 3.9 1 7.5-1.3 1.3 3.8.7 4.8-3.9 6.7zm3.7-11.8c-3.2-1.1-5.4.3-5.3 3.1 1.6-1 3.3-1.9 5.3-3.1m103.3 11.8c-1.5-1-3.3-1.8-4.5-3-2.3-2.4-2.6-5.5-1.4-8.6 1.2-3 3.6-4.8 6.8-5.1q5.1-.45 8.1 3.9c.8 1.1.6 1.8-.6 2.5-2.9 1.6-5.6 3.2-8.8 5.1 3.4 1.4 5.6 0 7.9-1.6.7 5.4.7 4.7-3.9 6.9-1.3-.1-2.4-.1-3.6-.1m3.5-11.7c-2.8-1.3-5.1.1-5.3 3.1 1.8-1.1 3.5-2.1 5.3-3.1m-60.7 11.7c-3.5-1.1-6.3-3-6.9-6.9-.8-4.7 2-8.6 6.7-9.6 4.1-.9 8.3 1.9 9.4 6.1 1.1 4.3-1.3 8.6-5.6 9.9-.5.1-.9.3-1.4.5zm1.2-12.4c-2.1 0-3.9 1.9-3.9 4s1.7 3.8 3.8 3.8c2.2.1 4-1.7 4.1-3.8 0-2.1-1.9-4-4-4m-55.2-60.2V251h11.7v49.5c-3.6 0-7.2.5-10.7-.2-1.7-.4-3 0-4.4.4-8 2.2-15 .3-20.4-6-5.3-6.3-6.2-13.5-2.6-20.9 3.6-7.5 10-11.1 18.2-10.8 2.8.1 5.4 1.1 8.2 1.7m-8.1 8.5c-5 0-9.2 4.2-9.1 9.1.1 5 4.3 9 9.3 9 4.9-.1 9-4.2 9-9.1s-4.2-9-9.2-9m58.4-22.2h11.5v14.3c6-2.8 11.8-3.1 17.5-.4 3.7 1.7 6.5 4.4 8.5 7.9 4.1 7.1 3.2 16.1-2.3 22.4-4.6 5.3-13.3 8.9-23 4.5-.6.3-1.1.9-1.6.9-3.5.1-7 0-10.6 0zm19.8 40.3c5 0 9.1-4.1 9.1-9.1s-4-9-9-9c-5.1 0-9.2 4-9.3 9 0 4.9 4.2 9.1 9.2 9.1m62.6-27.2v36.4c-3.7 0-7.4.4-10.9-.2-1.5-.3-2.5-.2-3.7.3-10.5 3.6-22.3-2.8-24.9-13.5-2.7-11.2 4.4-22 15.6-23.7 2.1-.3 4.4-.6 6.3.1 3.7 1.2 7.4.7 11.1.7 2.1-.1 4.1-.1 6.5-.1m-19.7 9.1c-5.1 0-9.1 3.9-9.1 8.9 0 5.1 3.9 9.2 9 9.3 5.1 0 9.2-4.1 9.1-9.1 0-5.1-4-9.1-9-9.1m73.1 6.2c2.5-3.7 5.2-7.3 7.4-11.2 1.8-3.2 3.9-4.5 7.5-4 2.4.3 4.8.1 7.6.1-2.4 3.7-4.6 7.2-6.7 10.6-1.4 2.2-3.8 4.5-3.9 6.7-.1 2.3 2.2 4.6 3.5 6.9 2.3 4 4.6 7.9 7.2 12.2-4.2 0-8.1 0-12-.1-.4 0-1-.8-1.3-1.3-2.7-4-5.3-8-8-12-.4-.6-.9-1.3-1.7-1.8v15h-9.6c-.4 0-.8-.6-1-1-.2-.3 0-.7 0-1.1v-45.1c0-.6.1-1.1.1-1.8h10.3v27.7c.2 0 .4.1.6.2m35.7 10c4.6 3.4 10.7 2 18.7-4.3 0 2.7-.3 5.1.1 7.4.5 3.4-1.2 5.1-3.8 6.6-7.2 4.2-16.6 3.4-22.8-2.1-6.6-5.8-8.5-14.9-5-22.9 3.4-7.6 11.4-12.2 19.9-11.3 7.1.8 12.2 4.5 15.6 10.7.9 1.6.8 2.5-1 3.5-7.4 4-14.4 8.2-21.7 12.4m-3.9-7.3c4.5-2.6 8.7-5 13.2-7.6-3.4-1.8-6.4-1.6-9.1.2-2.5 1.6-4.1 3.9-4.1 7.4m-246.5-6.2c-7.8 4.5-15.5 9-23.3 13.5 4.3 3.3 9.6 2.1 18.6-4.1v10.6c0 .4-.6 1-1 1.3-6.1 5.4-15.5 6.2-22.6 2-7.3-4.3-11.1-12.8-9.3-20.9 1.9-8.4 8.6-14.5 16.9-15.4 9.4-1 18 4.3 20.7 13m-27.3 6.3c4.5-2.6 8.7-5 13.3-7.7-3.3-1.7-6-1.6-8.7 0-2.9 1.5-4.4 4-4.6 7.7m192.6-17.9h10.5c.1.9.1 1.6.2 2.6.4-.2.6-.3.8-.5 4.5-3.9 9.6-4.8 15-2.4 5.5 2.4 8 7 8 12.9.1 7.3 0 14.6 0 21.9 0 .6-.7 1.7-1.2 1.7-2.8.2-5.7.1-8.9.1v-20.3c0-4.4-2.9-7.5-6.8-7.5-4 0-6.9 3-7 7.4-.1 6.7 0 13.3 0 20.2h-10.6zM224.3 251v13.1h5.2v8.7h-5c-.1 1.1-.2 1.9-.2 2.7v23c0 1.6-.5 2.1-2.1 2.1-2.8-.1-5.6 0-8.5 0v-49.5c3.6-.1 7-.1 10.6-.1M95.2 264.3h10.2c.1.8.2 1.6.3 2.7 3-2.4 6.1-4.5 10.2-4.1V273c-1.7 0-3.4-.3-4.9.1-3.4.7-5.4 3.7-5.4 8-.1 5.6 0 11.2 0 16.8v2.5H95.3c-.1-12.1-.1-24-.1-36.1M209 300.4h-10.1v-36H209zm170 36c-5.8 2.3-6.8-2.9-9.5-6.1v6.1h-4.6v-20.7h4.6V327c.1 0 .3.1.4.1.7-1 1.5-1.9 2-2.9 1.4-3.2 3.9-3.5 7.2-2.8-1.3 2-2.4 3.9-3.7 5.7-.7 1-.8 1.8-.1 2.9 1.3 2.1 2.5 4.3 3.7 6.4m-127.1-20.6V327c.1 0 .3.1.4.1.7-1.1 1.5-2.2 2.2-3.3 2-3.1 2.9-3.4 6.9-2.4-1.1 1.7-2.1 3.5-3.2 5.1-1 1.4-1.2 2.5-.1 4 1.3 1.9 2.3 3.9 3.8 6.4-2.3-.6-4.5 1-6-1.2-1.2-1.6-2.3-3.4-3.9-4.9v5.6h-4.5v-20.6zm-50.1 20.8h-4.3v-15.5c1.6.1 3.1.2 4.6.3 0 .1-.1.2-.1.4 1.4-.4 2.8-1.1 4.2-1.2 3.1-.2 5.7 2.1 5.9 5.2.2 2.6 0 5.2.1 7.7v2.9h-4.3v-7.8c0-2.5-1-3.9-2.9-3.9-2 0-3.1 1.4-3.1 4-.2 2.6-.1 5.1-.1 7.9m157.1-.1v-8.1c0-2.2-1.1-3.5-2.9-3.6-1.9-.1-3 1.2-3.1 3.6v5.6c0 2.8 0 2.8-2.9 2.7-.5 0-1-.1-1.6-.2V321c1.6.2 3 .5 4.5.7.5 0 1-.2 1.5-.4 4.3-2.1 8.5.5 8.6 5.2v9.2c0 .2-.1.4-.2.8zM223 315.4h4.3v20.9c-.1.1-.3.2-.4.2-3.9.5-4 .4-4-3.4v-15.2c.1-.7.1-1.5.1-2.5m-24.2-55.9V251H209v8.5zm82.1 77v-20.9h4.1v20.9zm-125.1-10.3v4h-10.4v-4z"/></svg>