<?xml version="1.0" encoding="utf-8"?>
<!-- Generator: Adobe Illustrator 22.1.0, SVG Export Plug-In . SVG Version: 6.00 Build 0)  -->
<svg version="1.1" id="Layer_1" xmlns="http://www.w3.org/2000/svg" xmlns:xlink="http://www.w3.org/1999/xlink" x="0px" y="0px"
	 viewBox="0 0 512 512" style="enable-background:new 0 0 512 512;" xml:space="preserve">
<style type="text/css">
	.st0{fill:#00A371;}
</style>
<path class="st0" d="M327.7,158c-0.1,0.9-0.2,1.8-0.2,2.8c0,24.1,0,48.3,0,72.4c0,0.8,0,1.6,0,2.8c-23-13-45.6-25.8-68.6-38.8
	c4.8-2.7,9.2-5.2,13.6-7.7c17.7-10,35.5-20.1,53.2-30.2c0.6-0.3,1-0.9,1.6-1.3C327.4,158,327.6,158,327.7,158z"/>
<path d="M53,250.9c4.1,0,8.1,0,12.5,0c0,7.3,0,14.4,0,21.5c0.2,0.1,0.3,0.1,0.5,0.2c0.4-0.6,0.9-1.2,1.2-1.8
	c3.9-6.1,7.8-12.2,11.6-18.3c0.8-1.3,1.6-1.7,3.1-1.6c3.8,0.1,7.7,0,11.9,0c-1.2,2-2.2,3.6-3.2,5.2c-3.8,6.1-7.6,12.3-11.5,18.4
	c-0.8,1.3-0.9,2.2,0,3.6c4.5,6.7,8.8,13.4,13.2,20.1c0.4,0.6,0.8,1.3,1.4,2.3c-5.1,0-9.8,0.1-14.5-0.1c-0.5,0-1.2-0.9-1.6-1.5
	c-3.5-5.6-7-11.3-10.5-17c-0.3-0.6-0.7-1.1-1.6-1.5c0,6.6,0,13.2,0,20.4c-4.3,0-8.5,0-12.6,0C53,284.1,53,267.5,53,250.9z"/>
<path d="M464,300.7c-3.2,0-6.4,0-9.8,0c-0.1-1.1-0.1-1.9-0.1-2.6c0-6,0-12,0-18c0-3.7-2.4-6.5-5.6-7.2c-3.1-0.6-6.5,1.1-7.6,4.2
	c-0.5,1.4-0.7,2.9-0.7,4.4c-0.1,5.5,0,11,0,16.5c0,0.8,0,1.5,0,2.4c-3.6,0-6.9,0-10.3,0c0-12.1,0-24,0-36c3.5,0,6.8,0,10.2,0
	c0.1,0.8,0.2,1.6,0.3,2.6c0.6-0.4,1-0.7,1.4-1c8.1-6.4,19.2-2.8,22,7.2c0.1,0.3,0.3,0.6,0.4,1C464,283,464,291.8,464,300.7z"/>
<path d="M168.6,337.3c-2.9-0.8-5.4-2.2-6.6-5.2c-1.3-3.1-0.9-6.1,1.3-8.6c2.2-2.5,5-3.5,8.3-2.6c0.5,0.1,1.1,0.3,1.9,0.4
	c0-1.9,0-3.8,0-5.8c1.7,0,3.3,0,4.9,0c0,7,0,13.9,0,20.7c-2.6,0.3-5.1,0.7-7.6,1C170.1,337.3,169.4,337.3,168.6,337.3z M170,324.9
	c-2.1,0-4,2-3.9,4c0.1,2.1,2,3.9,4.1,3.8c2.1-0.1,3.8-1.8,3.8-3.9C174,326.7,172.1,324.9,170,324.9z"/>
<path d="M319.1,337.3c-2.5-0.3-5-0.6-7.6-1c0-6.7,0-13.6,0-20.7c1.5,0,3,0,4.8,0c0,1.8,0,3.6,0,5.5c1.8-0.2,3.5-0.6,5-0.4
	c4.1,0.5,7,3.8,7.3,7.8c0.2,3.7-2.3,7.2-6.1,8.4c-0.4,0.1-0.8,0.3-1.2,0.4C320.6,337.3,319.8,337.3,319.1,337.3z M319.7,324.9
	c-2.1,0-3.9,1.9-3.8,4.1c0.1,2.1,1.7,3.8,3.9,3.8c2.1,0,4-1.9,4-3.9C323.7,326.7,321.8,324.9,319.7,324.9z"/>
<path d="M336.3,337.3c-0.5-0.2-1-0.4-1.5-0.6c-4.2-1.6-6.4-6-5.1-10.3c1.4-4.3,5.6-6.5,10-5.6c2.1,0.4,4.4,0.1,6.8,0.1
	c0,5.4,0,10.4,0,15.4c-2.5,0.3-5.1,0.7-7.6,1C338,337.3,337.2,337.3,336.3,337.3z M338,324.9c-2.1,0-3.9,1.9-3.9,4
	c0,2.1,1.7,3.8,3.8,3.8c2.2,0,4-1.7,4-3.9C341.9,326.7,340.1,324.9,338,324.9z"/>
<path d="M268.8,337.3c-3.4-1-6.1-2.7-7-6.4c-1.5-5.9,3.8-11.4,9.8-10.1c2.2,0.5,4.6,0.3,7,0.4c0,5.1,0,10.2,0,15.2
	c-2.6,0.3-5.1,0.7-7.7,1C270.3,337.3,269.5,337.3,268.8,337.3z M270.1,332.7c2.2,0,4-1.7,4-3.9c0-2-1.7-3.9-3.7-4
	c-2.1-0.1-4.1,1.7-4.1,3.8C266.2,330.8,268,332.7,270.1,332.7z"/>
<path d="M186.3,337.3c-5.1-2.5-6.9-5.2-6.4-9.6c0.4-3.5,3.5-6.7,7-7.1c4.3-0.5,7.8,1.6,9.1,5.6c-3.2,1.9-6.4,3.8-9.8,5.7
	c2.5,1.3,3.9,1,7.5-1.3c1.3,3.8,0.7,4.8-3.9,6.7C188.6,337.3,187.4,337.3,186.3,337.3z M190,325.5c-3.2-1.1-5.4,0.3-5.3,3.1
	C186.3,327.6,188,326.7,190,325.5z"/>
<path d="M293.3,337.3c-1.5-1-3.3-1.8-4.5-3c-2.3-2.4-2.6-5.5-1.4-8.6c1.2-3,3.6-4.8,6.8-5.1c3.4-0.3,6.1,1,8.1,3.9
	c0.8,1.1,0.6,1.8-0.6,2.5c-2.9,1.6-5.6,3.2-8.8,5.1c3.4,1.4,5.6,0,7.9-1.6c0.7,5.4,0.7,4.7-3.9,6.9
	C295.6,337.3,294.5,337.3,293.3,337.3z M296.8,325.6c-2.8-1.3-5.1,0.1-5.3,3.1C293.3,327.6,295,326.6,296.8,325.6z"/>
<path d="M236.1,337.3c-3.5-1.1-6.3-3-6.9-6.9c-0.8-4.7,2-8.6,6.7-9.6c4.1-0.9,8.3,1.9,9.4,6.1c1.1,4.3-1.3,8.6-5.6,9.9
	c-0.5,0.1-0.9,0.3-1.4,0.5C237.6,337.3,236.9,337.3,236.1,337.3z M237.3,324.9c-2.1,0-3.9,1.9-3.9,4c0,2.1,1.7,3.8,3.8,3.8
	c2.2,0.1,4-1.7,4.1-3.8C241.3,326.8,239.4,324.9,237.3,324.9z"/>
<path class="st0" d="M258.1,235.9c-22.8-12.9-45.4-25.7-68.3-38.7c22.9-13,45.4-25.7,68.3-38.7C258.1,184.4,258.1,210,258.1,235.9z"
	/>
<path d="M182.1,264.7c0-4.4,0-9,0-13.7c4,0,7.7,0,11.7,0c0,16.4,0,32.8,0,49.5c-3.6,0-7.2,0.5-10.7-0.2c-1.7-0.4-3,0-4.4,0.4
	c-8,2.2-15,0.3-20.4-6c-5.3-6.3-6.2-13.5-2.6-20.9c3.6-7.5,10-11.1,18.2-10.8C176.7,263.1,179.3,264.1,182.1,264.7z M174,273.2
	c-5,0-9.2,4.2-9.1,9.1c0.1,5,4.3,9,9.3,9c4.9-0.1,9-4.2,9-9.1C183.2,277.3,179,273.2,174,273.2z"/>
<path d="M232.4,251c3.9,0,7.5,0,11.5,0c0,4.6,0,9.3,0,14.3c6-2.8,11.8-3.1,17.5-0.4c3.7,1.7,6.5,4.4,8.5,7.9
	c4.1,7.1,3.2,16.1-2.3,22.4c-4.6,5.3-13.3,8.9-23,4.5c-0.6,0.3-1.1,0.9-1.6,0.9c-3.5,0.1-7,0-10.6,0
	C232.4,283.9,232.4,267.5,232.4,251z M252.2,291.3c5,0,9.1-4.1,9.1-9.1c0-5-4-9-9-9c-5.1,0-9.2,4-9.3,9
	C243,287.1,247.2,291.3,252.2,291.3z"/>
<path d="M314.8,264.1c0,12.2,0,24.1,0,36.4c-3.7,0-7.4,0.4-10.9-0.2c-1.5-0.3-2.5-0.2-3.7,0.3c-10.5,3.6-22.3-2.8-24.9-13.5
	c-2.7-11.2,4.4-22,15.6-23.7c2.1-0.3,4.4-0.6,6.3,0.1c3.7,1.2,7.4,0.7,11.1,0.7C310.4,264.1,312.4,264.1,314.8,264.1z M295.1,273.2
	c-5.1,0-9.1,3.9-9.1,8.9c0,5.1,3.9,9.2,9,9.3c5.1,0,9.2-4.1,9.1-9.1C304.1,277.2,300.1,273.2,295.1,273.2z"/>
<path d="M368.2,279.4c2.5-3.7,5.2-7.3,7.4-11.2c1.8-3.2,3.9-4.5,7.5-4c2.4,0.3,4.8,0.1,7.6,0.1c-2.4,3.7-4.6,7.2-6.7,10.6
	c-1.4,2.2-3.8,4.5-3.9,6.7c-0.1,2.3,2.2,4.6,3.5,6.9c2.3,4,4.6,7.9,7.2,12.2c-4.2,0-8.1,0-12-0.1c-0.4,0-1-0.8-1.3-1.3
	c-2.7-4-5.3-8-8-12c-0.4-0.6-0.9-1.3-1.7-1.8c0,4.9,0,9.8,0,15c-3.4,0-6.5,0-9.6,0c-0.4,0-0.8-0.6-1-1c-0.2-0.3,0-0.7,0-1.1
	c0-15,0-30.1,0-45.1c0-0.6,0.1-1.1,0.1-1.8c3.4,0,6.7,0,10.3,0c0,9.2,0,18.5,0,27.7C367.8,279.2,368,279.3,368.2,279.4z"/>
<path d="M403.9,289.4c4.6,3.4,10.7,2,18.7-4.3c0,2.7-0.3,5.1,0.1,7.4c0.5,3.4-1.2,5.1-3.8,6.6c-7.2,4.2-16.6,3.4-22.8-2.1
	c-6.6-5.8-8.5-14.9-5-22.9c3.4-7.6,11.4-12.2,19.9-11.3c7.1,0.8,12.2,4.5,15.6,10.7c0.9,1.6,0.8,2.5-1,3.5
	C418.2,281,411.2,285.2,403.9,289.4z M400,282.1c4.5-2.6,8.7-5,13.2-7.6c-3.4-1.8-6.4-1.6-9.1,0.2C401.6,276.3,400,278.6,400,282.1z
	"/>
<path d="M153.5,275.9c-7.8,4.5-15.5,9-23.3,13.5c4.3,3.3,9.6,2.1,18.6-4.1c0,3.7,0,7.1,0,10.6c0,0.4-0.6,1-1,1.3
	c-6.1,5.4-15.5,6.2-22.6,2c-7.3-4.3-11.1-12.8-9.3-20.9c1.9-8.4,8.6-14.5,16.9-15.4C142.2,261.9,150.8,267.2,153.5,275.9z
	 M126.2,282.2c4.5-2.6,8.7-5,13.3-7.7c-3.3-1.7-6-1.6-8.7,0C127.9,276,126.4,278.5,126.2,282.2z"/>
<path d="M318.8,264.3c3.6,0,7,0,10.5,0c0.1,0.9,0.1,1.6,0.2,2.6c0.4-0.2,0.6-0.3,0.8-0.5c4.5-3.9,9.6-4.8,15-2.4c5.5,2.4,8,7,8,12.9
	c0.1,7.3,0,14.6,0,21.9c0,0.6-0.7,1.7-1.2,1.7c-2.8,0.2-5.7,0.1-8.9,0.1c0-1.7,0-3.3,0-4.8c0-5.2,0-10.3,0-15.5
	c0-4.4-2.9-7.5-6.8-7.5c-4,0-6.9,3-7,7.4c-0.1,6.7,0,13.3,0,20.2c-3.6,0-7,0-10.6,0C318.8,288.4,318.8,276.4,318.8,264.3z"/>
<path d="M224.3,251c0,4.3,0,8.6,0,13.1c1.8,0,3.4,0,5.2,0c0,2.9,0,5.7,0,8.7c-1.6,0-3.2,0-5,0c-0.1,1.1-0.2,1.9-0.2,2.7
	c0,7.7,0,15.3,0,23c0,1.6-0.5,2.1-2.1,2.1c-2.8-0.1-5.6,0-8.5,0c0-16.6,0-33,0-49.5C217.3,251,220.7,251,224.3,251z"/>
<path d="M95.2,264.3c3.6,0,6.8,0,10.2,0c0.1,0.8,0.2,1.6,0.3,2.7c3-2.4,6.1-4.5,10.2-4.1c0,3.5,0,6.9,0,10.1c-1.7,0-3.4-0.3-4.9,0.1
	c-3.4,0.7-5.4,3.7-5.4,8c-0.1,5.6,0,11.2,0,16.8c0,0.8,0,1.6,0,2.5c-3.5,0-6.9,0-10.3,0C95.2,288.3,95.2,276.4,95.2,264.3z"/>
<path d="M209,300.4c-3.4,0-6.7,0-10.1,0c0-12,0-23.9,0-36c3.3,0,6.7,0,10.1,0C209,276.3,209,288.3,209,300.4z"/>
<path d="M379,336.4c-5.8,2.3-6.8-2.9-9.5-6.1c0,2.3,0,4.1,0,6.1c-1.6,0-3.1,0-4.6,0c0-6.9,0-13.7,0-20.7c1.4,0,2.9,0,4.6,0
	c0,3.8,0,7.6,0,11.3c0.1,0,0.3,0.1,0.4,0.1c0.7-1,1.5-1.9,2-2.9c1.4-3.2,3.9-3.5,7.2-2.8c-1.3,2-2.4,3.9-3.7,5.7
	c-0.7,1-0.8,1.8-0.1,2.9C376.6,332.1,377.8,334.3,379,336.4z"/>
<path d="M251.9,315.8c0,3.8,0,7.5,0,11.2c0.1,0,0.3,0.1,0.4,0.1c0.7-1.1,1.5-2.2,2.2-3.3c2-3.1,2.9-3.4,6.9-2.4
	c-1.1,1.7-2.1,3.5-3.2,5.1c-1,1.4-1.2,2.5-0.1,4c1.3,1.9,2.3,3.9,3.8,6.4c-2.3-0.6-4.5,1-6-1.2c-1.2-1.6-2.3-3.4-3.9-4.9
	c0,1.8,0,3.6,0,5.6c-1.6,0-3,0-4.5,0c0-6.8,0-13.6,0-20.6C248.8,315.8,250.2,315.8,251.9,315.8z"/>
<path d="M201.8,336.6c-1.6,0-2.9,0-4.3,0c0-5.1,0-10.1,0-15.5c1.6,0.1,3.1,0.2,4.6,0.3c0,0.1-0.1,0.2-0.1,0.4
	c1.4-0.4,2.8-1.1,4.2-1.2c3.1-0.2,5.7,2.1,5.9,5.2c0.2,2.6,0,5.2,0.1,7.7c0,0.9,0,1.9,0,2.9c-1.4,0-2.8,0-4.3,0c0-2.6,0-5.2,0-7.8
	c0-2.5-1-3.9-2.9-3.9c-2,0-3.1,1.4-3.1,4C201.7,331.3,201.8,333.8,201.8,336.6z"/>
<path d="M358.9,336.5c0-2.8,0-5.5,0-8.1c0-2.2-1.1-3.5-2.9-3.6c-1.9-0.1-3,1.2-3.1,3.6c0,1.9,0,3.7,0,5.6c0,2.8,0,2.8-2.9,2.7
	c-0.5,0-1-0.1-1.6-0.2c0-5.1,0-10.1,0-15.5c1.6,0.2,3,0.5,4.5,0.7c0.5,0,1-0.2,1.5-0.4c4.3-2.1,8.5,0.5,8.6,5.2c0,3.1,0,6.2,0,9.2
	c0,0.2-0.1,0.4-0.2,0.8C361.7,336.5,360.4,336.5,358.9,336.5z"/>
<path d="M223,315.4c1.7,0,2.9,0,4.3,0c0,7,0,14,0,20.9c-0.1,0.1-0.3,0.2-0.4,0.2c-3.9,0.5-4,0.4-4-3.4c0-5.1,0-10.1,0-15.2
	C223,317.2,223,316.4,223,315.4z"/>
<path d="M198.8,259.5c0-2.9,0-5.6,0-8.5c3.4,0,6.8,0,10.2,0c0,2.8,0,5.5,0,8.5C205.6,259.5,202.3,259.5,198.8,259.5z"/>
<path d="M280.9,336.5c0-7,0-13.9,0-20.9c1.3,0,2.7,0,4.1,0c0,6.9,0,13.8,0,20.9C283.7,336.5,282.4,336.5,280.9,336.5z"/>
<path d="M155.8,326.2c0,1.4,0,2.6,0,4c-3.4,0-6.8,0-10.4,0c0-1.3,0-2.6,0-4C148.8,326.2,152.3,326.2,155.8,326.2z"/>
</svg>
