<svg xmlns="http://www.w3.org/2000/svg" viewBox="0 0 512 512"><path fill="#2a9c8b" d="M257.3 424.3c-7.6-5.5-13.6-12.7-20.2-19.2-33.3-33.1-66.4-66.4-99.7-99.5-1.9-1.9-2.7-3.9-2.7-6.6q.15-98.25 0-196.5c0-3.7 1.3-4.4 4.6-4.4 78.8.1 157.7.1 236.5 0 2.7 0 4.3.3 4.3 3.7-.1 66-.1 132-.1 198 0 .8-.2 1.6-.3 2.5-1.4-1.4-2.8-2.7-4.2-4.1L262.1 184.8c-1.1-1.1-2-3.2-3.9-2.4-2 .8-.9 3-.9 4.5-.1 71.7-.1 143.3-.1 215 0 7.4.1 14.9.1 22.4"/><path fill="#f1cf13" d="M257.3 424.3c-.1-7.5-.2-15-.2-22.5 0-71.7 0-143.3.1-215 0-1.5-1.1-3.6.9-4.5 1.9-.8 2.8 1.3 3.9 2.4l113.4 113.4c1.4 1.4 2.8 2.8 4.2 4.1-3 5.5-8.2 9.1-12.4 13.4-20.2 20.4-40.8 40.5-61.1 60.9-13.8 13.8-27.4 27.7-41.1 41.6-2.3 2.3-4.6 4.8-7.7 6.2"/></svg>