<?xml version="1.0" encoding="utf-8"?>
<!-- Generator: Adobe Illustrator 22.1.0, SVG Export Plug-In . SVG Version: 6.00 Build 0)  -->
<svg version="1.1" id="Layer_1" xmlns="http://www.w3.org/2000/svg" xmlns:xlink="http://www.w3.org/1999/xlink" x="0px" y="0px"
	 viewBox="0 0 512 512" style="enable-background:new 0 0 512 512;" xml:space="preserve">
<style type="text/css">
	.st0{fill:#2A9C8B;}
	.st1{fill:#F1CF13;}
</style>
<path class="st0" d="M257.3,424.3c-7.6-5.5-13.6-12.7-20.2-19.2c-33.3-33.1-66.4-66.4-99.7-99.5c-1.9-1.9-2.7-3.9-2.7-6.6
	c0.1-65.5,0.1-131,0-196.5c0-3.7,1.3-4.4,4.6-4.4c78.8,0.1,157.7,0.1,236.5,0c2.7,0,4.3,0.3,4.3,3.7c-0.1,66-0.1,132-0.1,198
	c0,0.8-0.2,1.6-0.3,2.5c-1.4-1.4-2.8-2.7-4.2-4.1c-37.8-37.8-75.6-75.6-113.4-113.4c-1.1-1.1-2-3.2-3.9-2.4c-2,0.8-0.9,3-0.9,4.5
	c-0.1,71.7-0.1,143.3-0.1,215C257.2,409.3,257.3,416.8,257.3,424.3z"/>
<path class="st1" d="M257.3,424.3c-0.1-7.5-0.2-15-0.2-22.5c0-71.7,0-143.3,0.1-215c0-1.5-1.1-3.6,0.9-4.5c1.9-0.8,2.8,1.3,3.9,2.4
	c37.8,37.8,75.6,75.6,113.4,113.4c1.4,1.4,2.8,2.8,4.2,4.1c-3,5.5-8.2,9.1-12.4,13.4c-20.2,20.4-40.8,40.5-61.1,60.9
	c-13.8,13.8-27.4,27.7-41.1,41.6C262.7,420.4,260.4,422.9,257.3,424.3z"/>
</svg>
