<?xml version="1.0" encoding="utf-8"?>
<!-- Generator: Adobe Illustrator 22.1.0, SVG Export Plug-In . SVG Version: 6.00 Build 0)  -->
<svg version="1.1" id="Layer_1" xmlns="http://www.w3.org/2000/svg" xmlns:xlink="http://www.w3.org/1999/xlink" x="0px" y="0px"
	 viewBox="0 0 512 512" style="enable-background:new 0 0 512 512;" xml:space="preserve">
<style type="text/css">
	.st0{fill:#FCC412;}
</style>
<g>
	<path class="st0" d="M346.2,278.3c-17.3,6.9-35.2,11.2-53.9,12.2c-24,0-48,0-72,0c-9.2-0.2-16.9-1.8-23-3.1
		c-13.3-2.9-20.5-5.6-33.2-10c-7.8-2.7-10.6,0.3-10.5,7.7c0.1,11.3,7.5,16.8,16.8,19.7c19.6,6,39.6,10.6,60.3,11
		c36.4,0.6,72.8,1.9,108.1-9.7c8-2.6,14.6-6.4,18.6-13.9c2.2-4.1,3.1-9.3,0.1-12.6C355.1,276.9,350.1,276.7,346.2,278.3z"/>
	<path class="st0" d="M164.2,254.7c22.9,12,47.9,13.8,72.8,15.3c36.1,2.2,71.8,0.1,106.2-12.5c8.2-3,14.7-7.8,15.3-16.9
		c3.4-50.7-28.4-83.1-75.8-87.7c-28.9-2.9-33.5-3.2-50.6-0.5c-10.7,2.7-22,4.1-32.1,8.3c-30.1,12.4-49.1,45.1-46.4,77.7
		C154.3,245.8,157.2,251,164.2,254.7z"/>
	<path class="st0" d="M392.2,266.3c-12.7-0.4-13,7.2-12.5,16.5c0.9,18-5.8,31.4-23.8,37.8c-7.4,2.7-14.7,5.4-22.7,8.1
		c-19.8,4.8-39.3,8-59,9.1c-12.5,0-21.4,0.9-33.9,0.9c-10.7,0.4-13-0.9-25.4-1.7c-3.9,0.1-14.3-1.3-18.6-2.5c-1.4-0.5-6-1-8.9-2.1
		c-8.5-2.1-9.1-2.6-17.4-5.2c-31.8-10.2-39.4-25.6-37-46.4c1.1-9.5-2-14.3-12.1-14.3c-11.1,0-17.1,4.7-18,14.9
		c-1.2,14,4.9,25.1,14,34.8c24,25.6,56,33.4,88.9,39.1l26.3,3.4c2.4,0.1,4.9,0.3,7.3,0.4c11.4,0,22.7,0,34.1,0
		c17.4,0.2,34.4-2.3,51-7.4c19.5-4.1,38.1-11.1,54.9-21.6c16.6-10.3,29.6-24.2,30.4-45.4C410.2,272.2,404.1,266.8,392.2,266.3z"/>
	<path class="st0" d="M1.4,1.2v510.1h510.1V1.2H1.4z M428.3,292.5c-3.4,22.7-15.7,40.7-35.1,53.3c-41.6,27.2-88.5,33.5-139.6,34.7
		c-28.8-2.3-61-1.1-91-12.7c-20.8-8.1-42.1-16.6-57.8-33.4c-15.8-17-23.3-37.5-20.6-61c1.9-16.2,14.3-26.1,33.3-24
		c13.3,1.5,15.6-2.6,15.9-15.1c1.2-55.9,41.8-97.7,97.8-101.3c20.2-1.3,40.6-2.5,60.6,1.1c54.1,9.9,85.8,47.5,88,103.2
		c0.3,7.2,0.5,12.4,10.3,12.2C421.7,249,433,261.2,428.3,292.5z"/>
</g>
</svg>
