<svg id="ideal_logo" xmlns="http://www.w3.org/2000/svg" viewBox="0 0 320.24 320.24"><defs><style>.cls-1{fill:#00a0e9;}</style></defs><title>alipay_logo_sq</title><g id="alipay"><path class="cls-1" d="M89.55,123.37H45.14a10.41,10.41,0,0,0-10.42,10.42v44.33a10.43,10.43,0,0,0,10.42,10.51H89.47A10.43,10.43,0,0,0,100,178.21v-.68s-16.87-7-25.43-11.19c-5.76,6.95-13.13,11.27-20.76,11.27-13,0-17.38-11.35-11.27-18.81a13.16,13.16,0,0,1,7.12-4.07c5.5-1.36,14.32.85,22.54,3.56a47.05,47.05,0,0,0,3.64-9H50.4v-2.54H63.53V142.1H47.77v-2.54H63.62V133a1.08,1.08,0,0,1,1.1-1.1h6.44v7.71H86.84v2.54H71.16v4.66H84a50.72,50.72,0,0,1-5.42,13.73c3.89,1.44,7.37,2.71,10,3.65,9.32,3.13,11.44,3.3,11.44,3.3V133.79A10.42,10.42,0,0,0,89.55,123.37Z"/><path class="cls-1" d="M44.72,160.49c-5.09,4.24-2,12,8.22,12,5.93,0,11.87-3.65,16.53-9.5-6.61-3.13-12.29-5.33-18.31-4.74A12.21,12.21,0,0,0,44.72,160.49Z"/><path d="M127.27,147.1l7.46,16.1H119.47Zm11.19,24.58h9l-16.78-36.44H128.2a1.72,1.72,0,0,0-1.1.33,2.44,2.44,0,0,0-.76.85l-17,35.26h6l3.05-5.93h17.29l2.8,5.93Zm20.84,0h-8.47V136.76a1.49,1.49,0,0,1,.51-1.1,1.57,1.57,0,0,1,1.18-.42h6.87v36.44ZM166.09,147a1.49,1.49,0,0,1,.5-1.11,1.63,1.63,0,0,1,1.19-.42h6.87v27.12h-8.48V147Zm23.73,18.13a4.67,4.67,0,0,0,.33,1.87,5,5,0,0,0,1,1.52,5.14,5.14,0,0,0,1.61,1,5.54,5.54,0,0,0,2,.34,3.39,3.39,0,0,0,2-.68,6.32,6.32,0,0,0,1.61-1.95,13.18,13.18,0,0,0,1.1-3.05,18.45,18.45,0,0,0,.42-3.81,25,25,0,0,0-.34-4.66,14.57,14.57,0,0,0-1-3.39,5,5,0,0,0-1.53-2,3.41,3.41,0,0,0-2-.68,4.82,4.82,0,0,0-1.53.26,4.3,4.3,0,0,0-1.35.76,15.56,15.56,0,0,0-1.27,1.1,8,8,0,0,0-1.1,1.36v12Zm-8.48-18.47a1.6,1.6,0,0,1,.42-1.1,1.5,1.5,0,0,1,1.11-.51h6.61v2.12a13,13,0,0,1,3.22-1.95,10.74,10.74,0,0,1,4.24-.77,10.45,10.45,0,0,1,4.66,1,11.79,11.79,0,0,1,3.64,2.71,12.1,12.1,0,0,1,2.29,4.07,15.34,15.34,0,0,1,.85,4.92,19.84,19.84,0,0,1-.94,6.1,13.62,13.62,0,0,1-2.79,4.83,12.55,12.55,0,0,1-4.32,3.22,14.09,14.09,0,0,1-5.77,1.19,25.55,25.55,0,0,1-2.79-.09,7.38,7.38,0,0,1-2.29-.59V182.7h-8.14Zm37.29,16.61a5.93,5.93,0,0,1,5.51-5.93A6.07,6.07,0,0,1,228,158v9.58a5.21,5.21,0,0,1-3.81,1.61,5.81,5.81,0,0,1-5.51-5.93m11.53-17.88c-3.9-1.11-8.9-1.36-15.68.42.25.68.51,1.86.76,2.54C226,146.51,228,148,228,152.61v1.44c-1.95-.17-4.32-.42-6.19-.51-7.37-.08-10,5.68-10,9.41,0,6.44,6.1,12.46,16.19,8v1h8.39V152.36c0-3.82-3.31-6.11-6.27-7m8.81-.85h8.65l8.56,16.69,7-15.67a1.51,1.51,0,0,1,.68-.77,2.26,2.26,0,0,1,1-.25h4.66L256,174.73c-3.31,8.22-11.19,7-12.63,7v-4.57c1.1,0,4.75.08,6.36-1.78a7,7,0,0,0,.93-1.7c.25-.51.42-.93.68-1.35l.93-2.21Z"/><path class="cls-1" d="M174.56,137.35a4.26,4.26,0,1,1-4.24-3.81,4,4,0,0,1,4.24,3.81"/><path d="M277.11,137.78v.68h1.61v4.4h.93v-4.4h1.61v-.68Zm9.32,0-1.69,3.13-1.7-3.13h-.84v5.08H283v-3.39l1.36,2.46h.68l1.35-2.46v3.39h.85v-5.08Z"/></g></svg>