<?xml version="1.0" encoding="utf-8"?>
<!-- Generator: Adobe Illustrator 22.1.0, SVG Export Plug-In . SVG Version: 6.00 Build 0)  -->
<svg version="1.1" id="Layer_1" xmlns="http://www.w3.org/2000/svg" xmlns:xlink="http://www.w3.org/1999/xlink" x="0px" y="0px"
	 viewBox="0 0 512 512" style="enable-background:new 0 0 512 512;" xml:space="preserve">
<style type="text/css">
	.st0{fill:#00B9EE;}
	.st1{fill:#FAFEFE;}
</style>
<rect class="st0" width="512" height="512"/>
<path class="st1" d="M275.4,231c0.7-0.5,1.3-1.1,1.9-1.8c5.4-6.9,11.5-13,18.8-17.8c4.3-2.8,8.9-5,14.2-4.8
	c6.3,0.2,10.3,5.8,8.6,11.9c-1.9,6.6-4.2,13-6.3,19.5c-2.2,6.8-4.4,13.5-6.6,20.3c-0.3,1-0.6,2-0.6,3c0,1.8,0.7,2.5,2.5,2.7
	c1.6,0.1,3-0.3,4.4-1c1.2-0.6,2.3-1.2,3.4-1.9c0.7-0.4,1.2-0.4,1.6,0.4c0.2,0.4,0.5,0.7,0.8,1c0.5,0.7,0.4,1.3-0.2,1.9
	c-4.3,4.2-8.8,8-14.8,9.3c-2.6,0.6-5.3,0.8-8-0.2c-1.8-0.7-3.3-1.8-4.3-3.5c-1.8-3.2-2.6-6.5-2-10.2c1.4-8.5,4.7-16.3,7.2-24.5
	c1.5-4.9,3.5-9.7,4.9-14.7c0.3-1,0.4-2,0.4-3c0-1.5-0.6-2-2.1-1.6c-1.3,0.4-2.6,1-3.7,1.8c-4.6,3.1-8.5,6.8-12.1,10.9
	c-3.9,4.3-7.5,8.9-10.6,13.9c-2.5,4-4.1,8.5-5.4,13c-1.4,5.2-3.1,10.3-4.6,15.5c-0.3,1.2-1,1.6-2.2,1.6c-4.6,0-9.2,0-13.8,0
	c-1.7,0-1.8-0.2-1.3-1.9c3.1-9.7,6.3-19.4,9.3-29.1c2.2-7.2,4.6-14.4,7-21.6c0.3-0.9,0.4-1.7,0.4-2.6c0-1.3-0.6-1.8-2-1.5
	c-2.4,0.6-4.4,1.9-6.3,3.4c-6.8,5.4-12.3,11.9-17.5,18.8c-5.1,6.7-7.5,14.5-9.7,22.5c-1,3.6-2.1,7.1-3.1,10.7
	c-0.3,1-0.9,1.3-1.8,1.3c-1.7,0-3.5,0-5.2,0c-3.1,0-6.1-0.1-9.2,0c-1.4,0-1.6-0.6-1.3-1.8c0.7-2.2,1.3-4.5,2-6.7
	c1.5-5.1,3-10.2,4.6-15.2c2.8-9,5.8-18,8.6-27c0.3-0.9,0.6-1.8,0.8-2.7c0.4-1.8-0.6-3-2.5-2.9c-1.3,0-2.4,0.4-3.6,0.9
	c-1.4,0.7-2.7,1.4-4.1,2.1c-1.3,0.7-1.4,0.8-2.3-0.4c-1.4-1.7-1.5-1.8,0.2-3.3c3.6-3.5,7.6-6.6,12.5-8.2c3.1-1,6.3-1.2,9.5-0.4
	c3.7,1,5.6,4.1,6.2,8.4c0.3,2.7-0.3,5.2-0.9,7.8c-0.7,2.9-1.6,5.7-2.6,8.6c-0.1,0.4-0.2,0.8-0.1,1.3c1-0.2,1.3-1,1.7-1.6
	c3.6-5,7.6-9.6,12.2-13.6c4.5-4,9.2-7.6,14.8-9.9c3.2-1.3,6.5-2.1,10-1.1c4.8,1.4,7.2,5.8,5.9,10.6c-0.9,3.5-2.1,6.8-3.5,10.1
	c-0.3,0.7-0.7,1.5-0.8,2.3c-1,1.6-1.6,3.3-1.9,4.9C273.8,233.7,275.1,232.6,275.4,231z"/>
<path class="st1" d="M111.5,348.4c4.6,1,9.2,1.6,13.6,3.2c4.1,1.5,7.8,3.5,10.8,6.7c3.7,4.1,5,8.9,4.3,14.3
	c-1,8.4-6.1,13.6-13.3,17.1c-4.5,2.2-9.3,3.4-14.2,4.1c-4.1,0.6-8.3,0.7-12.4,0.7c-13.9,0-27.7,0-41.6,0c-0.5,0-1,0-1.5,0
	c-1,0.1-1.5-0.4-1.4-1.4c0-0.2,0-0.4,0-0.7c0-2.5,0-2.5,2.5-3.1c3.1-0.7,6.2-1.5,9.4-2.2c1-0.2,1.3-0.7,1.3-1.6c0-1,0-2,0-3.1
	c0-21.2,0-42.4,0-63.6c0-1.2,0.3-2.5-0.3-3.4c-0.6-1.1-2.1-0.7-3.2-1.1c-2.6-0.9-5.2-1.2-7.8-1.9c-1.8-0.4-1.8-0.4-1.9-2.3
	c0-0.4,0-0.9,0-1.3c0.1-1.5,0.2-1.6,1.7-1.7c0.1,0,0.3,0,0.4,0c14.9,0,29.7,0,44.6,0.1c6.2,0,12.3,1,18.2,3c3.7,1.3,7.2,3.2,9.9,6.2
	c5.3,5.9,6.4,15.3-0.4,22.3c-4.1,4.2-9.2,6.9-14.7,8.6C114.2,347.7,112.9,348.2,111.5,348.4z M88.6,369.9
	C88.6,369.9,88.6,369.9,88.6,369.9c0,5.4,0,10.8,0,16.2c0,1.8,0.1,2.1,1.6,2.3c5.5,1,11.1,1.7,16.7,0.6c5.6-1.1,9.4-4.4,11.1-9.7
	c1.8-5.7,1.8-11.5-0.1-17.2c-1.1-3.2-3.2-5.6-6.1-7.4c-2.5-1.5-5.3-2.3-8.2-2.8c-4.6-0.8-9.2-0.4-13.7-0.4c-0.7,0-1.1,0.3-1.1,1.1
	c0,0.7-0.1,1.5-0.1,2.2C88.6,359.9,88.6,364.9,88.6,369.9z M88.6,329.6C88.6,329.6,88.6,329.6,88.6,329.6c0,5,0,10,0.1,15.1
	c0,1.7,0.2,1.9,1.7,1.9c4.4,0,8.7,0.4,13-0.8c4.9-1.4,8.6-4.1,10.2-9.2c1.4-4.2,1.6-8.5,0.7-12.9c-1.3-6.6-5.2-9.4-10.7-10.6
	c-4.1-0.9-8.4-1-12.6-0.5c-2.2,0.3-2.4,0.5-2.4,2.7C88.6,320.1,88.6,324.8,88.6,329.6z"/>
<path class="st1" d="M447.4,340.1c0,13.9,0,27.8,0,41.8c0,0.7,0,1.3,0,2c0,1.2,0.6,1.8,1.8,2c2.5,0.5,5,1.1,7.5,1.4
	c2.1,0.3,2.3,0.6,2.2,2.7c0,0.4,0,0.9,0,1.3c0,0.9-0.4,1.3-1.3,1.4c-1.9,0.2-3.8,0.5-5.6,0.7c-5.7,0.7-11.4,1.5-17.1,2.2
	c-0.7,0.1-1.5,0.1-2.2,0.2c-1,0.1-1.5-0.4-1.6-1.3c-0.2-1.6-0.5-3.2-0.9-4.7c-0.5-2-0.7-2.1-2.3-0.8c-1.4,1.1-2.8,2.2-4.3,3.1
	c-4.9,2.9-10.2,4.1-15.9,3.9c-7.7-0.3-14.8-2.1-20.9-7c-3.3-2.6-5.7-5.8-7.4-9.5c-2.5-5.7-3.3-11.7-2.7-17.9
	c0.5-5.1,1.7-9.9,4.1-14.4c3-5.5,7.2-9.8,12.7-12.9c5.2-3,10.9-4.8,16.9-5.3c1.8-0.1,3.6-0.7,5.4-0.5c3.8,0.3,7.5,0.8,11.1,2.1
	c0.5,0.2,0.9,0.4,1.4,0.5c0.6,0.2,1-0.1,1-0.7c0-0.4,0-0.9,0-1.3c0-6.9,0-13.7,0-20.6c0-2.2,0-2.2-2.2-2.9c-2.4-0.7-4.7-1.4-7.1-2.2
	c-1.4-0.4-1.7-0.8-1.6-2.6c0.1-1.4,0.2-1.5,1.9-1.8c7.6-1.1,15.2-2.3,22.9-3.4c1-0.1,2-0.2,3.1-0.2c0.8-0.1,1,0.3,1,1
	c-0.1,0.9,0,1.7,0,2.6C447.4,312.5,447.4,326.3,447.4,340.1z M429.4,359.5c0-6.8,0-13.6,0-20.3c0-1.6-0.6-2.5-2-3.2
	c-3-1.6-6.2-2.3-9.6-2.3c-6.7,0-11.9,2.9-15.8,8.2c-3.7,5-5.1,10.9-5.7,16.9c-0.4,4.6-0.4,9.3,0.5,13.9c0.6,3.5,1.6,6.8,3.5,9.8
	c3.8,6.2,10.2,8.1,16.8,6.8c4.1-0.8,7.4-3.2,10.5-5.9c1.4-1.2,1.9-2.5,1.9-4.3C429.3,372.5,429.4,366,429.4,359.5z"/>
<path class="st1" d="M313.8,339.4c1.6-1.5,2.9-3.2,4.7-4.5c4.3-3.1,8.8-5.6,14.2-6.2c1.9-0.2,3.7-0.8,5.6-0.5c4.6,0.5,9.2,1,13.2,4
	c2.6,2,4.4,4.4,5.6,7.3c1.5,3.7,2,7.6,2,11.5c0,11.1,0,22.2-0.1,33.2c0,0.4,0,0.7,0,1.1c0,1,0.2,1.6,1.3,1.8
	c2.9,0.7,5.7,1.6,8.6,2.3c1,0.2,1.3,0.6,1.4,1.6c0.3,3.3,0.2,3.4-3.1,3.4c-10.6,0-21.3,0-31.9,0c-2.7,0-2.7,0-2.6-2.6
	c0-2,0-2,1.8-2.7c1.8-0.7,3.5-1.3,5.3-1.9c0.7-0.2,1.1-0.6,1.1-1.4c0-0.4,0-0.7,0-1.1c0-11.9,0-23.8,0-35.6c0-3.1-0.4-6.1-1.8-8.9
	c-1.2-2.6-3.4-4-6.2-4.3c-2.5-0.3-4.9-0.1-7.3,0.7c-4.8,1.7-8.6,4.7-11.7,8.8c-0.6,0.7-0.7,1.6-0.7,2.5c0,12,0,24.1,0,36.1
	c0,0.4,0.1,0.9,0,1.3c-0.1,1.1,0.3,1.6,1.5,1.9c2.8,0.6,5.6,1.5,8.4,2.2c1,0.3,1.4,0.7,1.4,1.8c0,3.7,0.1,3.2-3.1,3.2
	c-11.7,0-23.5,0-35.2,0c-1.9,0-2,0-2-1.9c0-0.4,0-0.7,0-1.1c-0.1-1.2,0.3-1.8,1.6-2.1c2.6-0.6,5.2-1.5,7.8-2.2
	c1-0.2,1.3-0.8,1.3-1.7c0-1.2,0-2.3,0-3.5c0-13.6,0-27.1,0-40.7c0-2.2,0-2.2-2.1-2.8c-2.3-0.7-4.6-1.4-6.9-2.1
	c-1.5-0.5-2.3-2.5-1.6-3.8c0.3-0.5,0.9-0.5,1.3-0.6c1.9-0.3,3.7-0.6,5.6-0.8c6.1-0.8,12.1-1.6,18.2-2.4c0.1,0,0.3,0,0.4-0.1
	c3.2-0.6,3.2-0.6,3.3,2.7c0,2.6,0,5.2,0,7.8C313.5,339.3,313.7,339.4,313.8,339.4z"/>
<path class="st1" d="M140.6,225.1c0,12.5,0,24.9,0,37.4c0,2.5,0,2.5,2.4,3c2.7,0.7,5.4,1.3,8,2c1.6,0.4,1.7,0.7,1.3,2.3
	c-0.1,0.3-0.2,0.7-0.3,1c-0.6,1.8-0.6,1.9-2.6,1.9c-12.1,0-24.2,0-36.3,0c-1.6,0-1.6-0.2-1.4-1.8c0.4-2.2,1.5-3.5,3.7-4.1
	c1.5-0.4,2.9-1,4.3-1.5c1.1-0.3,1.5-1,1.5-2.1c0-6.1,0-12.2,0-18.4c0-1.6-0.2-1.8-2-1.8c-6.6,0-13.3,0-19.9,0c-2.7,0-5.4,0-8.1,0
	c-1.3,0-2.2,0.4-3,1.4c-2.8,4.1-5.7,8.1-8.6,12.1c-1.6,2.3-3.2,4.5-4.8,6.8c-0.9,1.3-0.7,1.5,0.7,1.9c2.7,0.7,5.5,1.3,8.2,2
	c1.9,0.5,2,0.6,1.4,2.5c-0.9,3.1-0.5,2.8-3.7,2.8c-8.2,0-16.5,0-24.7,0c-0.4,0-0.9,0-1.3,0c-0.6-0.1-0.9-0.4-0.7-1.1
	c0-0.1,0.1-0.1,0.1-0.2c1.4-4.2,0.2-3,4.5-4.7c1.1-0.5,2.3-0.9,3.5-1.3c1-0.3,1.8-1,2.4-1.8c4.9-6.5,9.8-13,14.7-19.5
	c5.3-7,10.6-14,15.9-21.1c4.6-6,9.1-12.1,13.7-18.1c4-5.2,7.9-10.4,11.9-15.6c0.1-0.1,0.2-0.2,0.3-0.3c1-1.3,1.7-3,3-3.7
	c1.4-0.8,3.3-0.2,4.9-0.3c2.9,0,5.8,0,8.7,0c2.1,0,2.2,0,2.2,2.2c0,6.6,0,13.3,0,19.9C140.6,213.1,140.6,219.1,140.6,225.1z
	 M94.7,236c0.9,0.1,1.8,0.2,2.6,0.2c7,0,14,0,21-0.1c0.5,0,1,0,1.5,0c0.9,0,1.3-0.5,1.3-1.4c0-0.4,0-0.7,0-1.1c0-10.7,0-21.4,0-32.2
	c0-0.4,0-0.7,0-1.1c0-0.3,0-0.8-0.5-0.8c-0.3,0-0.5,0.2-0.7,0.5c-0.1,0.2-0.2,0.4-0.4,0.5c-7.5,10.4-14.9,20.8-22.4,31.3
	C96.4,233.1,95.2,234.2,94.7,236z"/>
<path class="st1" d="M251,387.1c-1.5,1.4-2.8,2.8-4.5,4c-4.5,3.1-9.5,5-14.9,5c-4.7,0-9.3-0.9-13.3-3.5c-6.4-4.2-8.4-11.1-5.5-17.9
	c1.2-2.8,3.4-4.9,5.9-6.5c4-2.6,8.4-4.1,12.9-5c5.4-1.1,10.8-1.7,16.3-1.7c2.2,0,2.3-0.1,2.3-2.2c0-4.3,0.2-8.6-0.2-12.9
	c-0.5-5.6-3.4-10.7-9.8-12.2c-2.8-0.7-5.6-0.6-8.4,0c-1.7,0.4-2,0.7-1.6,2.3c0.6,2.2,0.4,4.3,0.5,6.5c0.1,3.3-0.7,6.5-2,9.5
	c-0.4,0.9-0.9,1.6-1.9,1.5c-2.3-0.1-4.5-0.4-6.6-1.4c-5.5-2.7-6.8-11-1.7-15.5c3.1-2.8,6.7-4.6,10.6-6c4.4-1.6,9-2.4,13.7-2.7
	c5.9-0.4,11.8,0.3,17.1,3.2c4.8,2.6,7.1,6.9,8.1,12.1c1,5.1,0.7,10.2,0.5,15.3c-0.3,7.2-0.4,14.4-0.4,21.6c0,1.2,0.2,2.3,0.4,3.5
	c0.7,2.9,2.5,4.2,5.4,3.6c1.6-0.3,3.1-0.7,4.6-1.2c1-0.4,1.2-0.1,1.6,0.7c0.9,2.2,1,2.2-1,3.5c-3.6,2.3-7.4,4-11.7,4.5
	c-2.6,0.3-5.1,0.6-7.8,0c-3.9-0.8-6.6-2.8-8-6.6C251.7,388.1,251.7,387.5,251,387.1z M250.4,374C250.4,374,250.4,374,250.4,374
	c0-2.4,0-4.8,0-7.2c0-1-0.4-1.4-1.4-1.4c-3.3,0.1-6.6,0.1-9.7,1.1c-4,1.2-7,3.5-8.1,7.7c-0.5,1.9-0.5,3.8-0.2,5.6
	c0.7,4,2.2,6.7,6.5,8.1c2.1,0.7,4.1,0.2,6-0.4c2.6-0.8,4.6-2.4,6.2-4.5c0.6-0.7,0.8-1.5,0.8-2.4C250.4,378.4,250.4,376.2,250.4,374z
	"/>
<path class="st1" d="M206,173.3c-4.2,12.6-8.3,25-12.4,37.5c-3.5,10.6-6.8,21.2-10.3,31.7c-1.8,5.4-3.6,10.8-5.4,16.1
	c0,0.1-0.1,0.3-0.1,0.4c-0.5,1.4-0.9,2.9,0.3,4.1c1.2,1.1,2.8,0.9,4.2,0.5c2-0.5,3.8-1.6,5.5-2.6c0.7-0.4,1.1-0.3,1.7,0.3
	c1.5,1.7,1.6,2.3,0,3.8c-3.2,3-6.5,5.8-10.6,7.5c-2.9,1.2-5.9,1.8-9,1.5c-4.3-0.4-6.9-3-8.1-6.9c-1-3.3-0.8-6.8-0.2-10.2
	c0.8-4.7,2.7-9,4.1-13.5c2.4-7.5,4.9-15.1,7.3-22.6c1.8-5.7,3.8-11.3,5.5-17c1.3-4.4,2.8-8.7,4.2-13.1c0.7-2.2,1.4-4.4,2.1-6.6
	c0.4-1.4,0.3-1.5-1-1.7c-1.7-0.3-3.3-0.3-5-0.3c-1.1,0-2.2,0-3.3,0c-2.1,0-3-1.4-2.3-3.4c0.2-0.7,0.8-0.8,1.4-0.9
	c2.4-0.4,4.7-0.8,7.1-1.1c4.1-0.5,8.2-1.3,12.3-1.9c3.3-0.5,6.6-0.8,9.8-1.7C204.4,172.9,205.2,172.9,206,173.3z"/>
<path class="st1" d="M177.1,337.9c2.1-2.3,4.1-4.3,6.5-5.9c3.7-2.4,7.8-4,12.3-3.8c2.6,0.1,5.1,0.7,7.4,2.2
	c5.5,3.8,7.2,15.1-1.4,19.9c-1.5,0.8-3.1,1.3-4.7,1.7c-1.1,0.2-1.7-0.1-2.4-0.9c-2.3-2.7-3.3-5.9-3.6-9.4c-0.2-1.7,0-3.5,0-5.2
	c0-1.4-0.2-1.6-1.5-1.2c-4.7,1.5-8.6,4.1-11.6,8c-0.7,0.9-1,2-1,3.3c0,12.8,0,25.7,0,38.5c0,1.8,0,1.8,1.8,2.2
	c3.7,0.8,7.4,1.6,11.1,2.3c1.8,0.4,1.9,0.4,1.9,2.3c0,2.7,0,2.7-2.7,2.7c-13,0-26.1,0-39.1,0c-2.7,0-2.7,0-2.6-2.6c0-2,0-2,1.9-2.5
	c2.7-0.7,5.3-1.5,8-2.1c1.2-0.3,1.5-0.9,1.5-2c0-0.9-0.1-1.7-0.1-2.6c0-13.8,0-27.5,0-41.3c0-2.2,0-2.2-2.2-2.8
	c-2.5-0.7-5-1.5-7.5-2.3c-1.5-0.4-1-1.7-1.2-2.7c-0.1-1,0.4-1.5,1.3-1.6c3.4-0.5,6.8-0.9,10.2-1.4c3.6-0.5,7.2-1.1,10.8-1.6
	c1.7-0.2,3.5-0.2,5.2-0.7c1-0.3,1.4,0.1,1.4,1.3c0.1,2,0,3.9,0,5.9C176.7,336.2,176.6,336.9,177.1,337.9z"/>
</svg>
