<?xml version="1.0" encoding="utf-8"?>
<!-- Generator: Adobe Illustrator 22.1.0, SVG Export Plug-In . SVG Version: 6.00 Build 0)  -->
<svg version="1.1" id="Layer_1" xmlns="http://www.w3.org/2000/svg" xmlns:xlink="http://www.w3.org/1999/xlink" x="0px" y="0px"
	 viewBox="0 0 512 512" style="enable-background:new 0 0 512 512;" xml:space="preserve">
<style type="text/css">
	.st0{fill-rule:evenodd;clip-rule:evenodd;fill:#008D5A;}
	.st1{fill-rule:evenodd;clip-rule:evenodd;fill:#008D5A;stroke:#008D5A;stroke-width:1.6803;stroke-miterlimit:2.6131;}
</style>
<path class="st0" d="M176.2,320.3l-18.4-26.1h-0.2v26.1h-8.1v-56.2h17.3c7.8,0,11.9,1.9,14.9,4.7c3.5,3.4,5.1,8.6,5.1,13.3
	c0,14.9-12.4,17.2-16,17.2l15.6,21H176.2L176.2,320.3L176.2,320.3z M157.6,293.1h5.6c3.3,0,15.4-0.2,15.4-11
	c0-4.7-3.2-10.5-12.4-10.5h-8.6V293.1L157.6,293.1z"/>
<path class="st0" d="M231.8,278.2c-2.3-2.6-7-7.7-15.2-7.7c-11.6,0-20.7,10-20.7,21.8c0,12.4,10.2,21.5,20.7,21.5
	c1.6,0,13.9-0.2,19.2-14h-26v-7.5h35.3c-0.3,18.8-15.2,29-28.8,29c-16.3,0-28.6-13.3-28.6-29c0-16.2,12.4-29.3,28.5-29.3
	c9.5,0,19.6,5.1,25,15.2H231.8L231.8,278.2z"/>
<polygon class="st0" points="248,320.3 248,264.1 278.1,264.1 278.1,271.6 256.1,271.6 256.1,288.2 278.1,288.2 278.1,295.7 
	256.1,295.7 256.1,312.8 278.1,312.8 278.1,320.3 248,320.3 "/>
<polygon class="st0" points="319.3,320.3 291.7,276.9 291.6,276.9 291.6,320.3 283.4,320.3 283.4,264.1 292.3,264.1 319.5,306.9 
	319.6,306.9 319.6,264.1 327.8,264.1 327.8,320.3 319.3,320.3 "/>
<polygon class="st0" points="340.2,320.3 340.2,271.6 329.4,271.6 329.4,264.1 359,264.1 359,271.6 348.3,271.6 348.3,320.3 
	340.2,320.3 "/>
<path class="st0" d="M370.7,264h-8.8v56.8h8.8v-17.1l37.1,0l22.1,17.1h12.6L370.7,264z M370.7,295.7v-20.8l26.7,20.7L370.7,295.7z"
	/>
<path class="st0" d="M136.9,264l-71.8,56.8h12.6l22.1-17.1l37.1,0v17.1h8.8V264H136.9z M136.9,295.7l-26.7-0.1l26.7-20.7V295.7z"/>
<polygon class="st0" points="217.1,189.7 217.1,176.8 238.3,157.7 256.2,157.7 217.1,189.7 "/>
<polygon class="st0" points="262.7,230.9 239,230.9 230.9,224.5 296.6,168.9 305.4,176.3 305.4,194.7 262.7,230.9 "/>
<polygon class="st0" points="305.4,198.4 305.4,214 284.6,230.9 267.5,230.9 305.4,198.4 "/>
<polygon class="st0" points="265.9,128.6 265.9,150.2 262.7,152.7 262.7,131.3 265.9,128.6 "/>
<polygon class="st0" points="268.1,152.4 311.2,152.4 331.8,134.9 289.8,134.9 268.1,152.4 "/>
<polygon class="st0" points="217.1,195.4 260.9,157.7 283.3,157.7 293.6,166.4 228.1,222.3 217.1,213.8 217.1,194.7 217.1,195.4 "/>
<polygon class="st1" points="442.5,380.2 65.2,380.2 442.5,380.2 "/>
<polygon class="st1" points="442.5,332.2 65.2,332.2 442.5,332.2 "/>
<path class="st0" d="M82.6,365.9h-2.2V363h-0.1c-0.7,1.4-2.4,3.3-5.9,3.3c-3.6,0-5.5-1.8-6.3-2.8c-1.3-1.6-1.6-4-1.6-5.9v-10.2h2.3
	v10.2c0,2.3,0.5,3.9,1.3,4.9c1.3,1.5,3,1.8,4.3,1.8c1.3,0,2.7-0.3,3.9-1.5c1.1-1.1,1.9-2.3,1.9-5.5v-9.8h2.3V365.9L82.6,365.9z"/>
<polygon class="st0" points="83.6,347.4 86,347.4 91.8,362.9 91.9,362.9 96,349.6 98.1,349.6 102.3,362.9 102.4,362.9 108.2,347.4 
	110.6,347.4 103.6,365.9 101,365.9 97.1,353.6 97,353.6 93.2,365.9 90.5,365.9 83.6,347.4 "/>
<path class="st0" d="M137.6,365.9h-2.3v-3.2h-0.1c-2,3-5.2,3.7-7.1,3.7c-5.8,0-9.9-4.4-9.9-9.7c0-4.9,3.9-9.7,9.9-9.7
	c2,0,5.2,0.6,7.1,3.7h0.1v-3.2h2.3V365.9L137.6,365.9L137.6,365.9z M128.1,364.2c4,0,7.3-3.2,7.3-7.5c0-4.1-3.1-7.6-7.3-7.6
	c-4,0-7.5,2.9-7.5,7.6C120.6,360.8,123.6,364.2,128.1,364.2L128.1,364.2z"/>
<path class="st0" d="M140.8,347.4h2.3v3.2h0.1c2.1-3,5.2-3.7,7.1-3.7c6,0,9.9,4.7,9.9,9.7c0,5.3-4.1,9.7-9.9,9.7
	c-1.9,0-5.1-0.7-7.1-3.7h-0.1v9.7h-2.3V347.4L140.8,347.4L140.8,347.4z M150.3,349c-4.2,0-7.3,3.5-7.3,7.6c0,4.3,3.4,7.5,7.3,7.5
	c4.5,0,7.5-3.4,7.5-7.5C157.9,352,154.4,349,150.3,349L150.3,349z"/>
<path class="st0" d="M161.9,347.4h2.3v3.2h0.1c2.1-3,5.2-3.7,7.1-3.7c6,0,9.9,4.7,9.9,9.7c0,5.3-4.1,9.7-9.9,9.7
	c-1.9,0-5.1-0.7-7.1-3.7h-0.1v9.7h-2.3V347.4L161.9,347.4L161.9,347.4z M171.5,349c-4.2,0-7.3,3.5-7.3,7.6c0,4.3,3.4,7.5,7.3,7.5
	c4.5,0,7.5-3.4,7.5-7.5C179,352,175.5,349,171.5,349L171.5,349z"/>
<path class="st0" d="M184.6,357.5c0.2,3.6,3.5,6.7,7.1,6.7c3.4-0.1,5.7-2.1,6.6-4.4h2.5c-1.3,3.7-4.8,6.5-9,6.5
	c-5.1,0-9.6-4.2-9.6-9.7c0-5.2,4.2-9.6,9.5-9.7c4,0,6.9,2.4,8.2,4.7c1.2,2,1.5,4.1,1.4,5.8H184.6L184.6,357.5L184.6,357.5z
	 M198.9,355.4c-0.7-4.4-4.3-6.3-7.2-6.3c-2.9,0-6.5,2-7.1,6.3H198.9L198.9,355.4z"/>
<polygon class="st0" points="203.1,340.9 205.5,340.9 205.5,365.9 203.1,365.9 203.1,340.9 "/>
<polygon class="st0" points="210.3,349.5 206.4,349.5 206.4,347.4 210.3,347.4 210.3,340.9 212.6,340.9 212.6,347.4 217,347.4 
	217,349.5 212.6,349.5 212.6,365.9 210.3,365.9 210.3,349.5 "/>
<path class="st0" d="M220.2,364.6c0,2.2,0,4.5-2,6.3c-1.6,1.4-3,1.5-4.1,1.5V370c3.1-0.1,3.7-2.3,3.7-5.4v-17.2h2.3V364.6
	L220.2,364.6L220.2,364.6z M217.8,340.9h2.3v4.3h-2.3V340.9L217.8,340.9z"/>
<path class="st0" d="M224.3,357.5c0.2,3.6,3.5,6.7,7.1,6.7c3.4-0.1,5.7-2.1,6.6-4.4h2.5c-1.3,3.7-4.8,6.5-9,6.5
	c-5.1,0-9.6-4.2-9.6-9.7c0-5.2,4.2-9.6,9.5-9.7c4,0,6.9,2.4,8.2,4.7c1.2,2,1.5,4.1,1.4,5.8H224.3L224.3,357.5L224.3,357.5z
	 M238.6,355.4c-0.7-4.4-4.3-6.3-7.2-6.3c-2.9,0-6.5,2-7.1,6.3H238.6L238.6,355.4z"/>
<polygon class="st0" points="248.5,347.4 251,347.4 257.5,362.9 264,347.4 266.5,347.4 258.8,365.9 256.2,365.9 248.5,347.4 "/>
<path class="st0" d="M275,346.9c5.4,0,9.6,4.6,9.6,9.7c0,5-4.1,9.7-9.6,9.7c-5.4,0-9.6-4.6-9.6-9.6
	C265.5,350.9,270.2,346.9,275,346.9L275,346.9L275,346.9z M275.1,364.2c3.6,0,7.2-2.8,7.2-7.7c0-4.9-4.1-7.5-7.2-7.5
	c-3.4,0-7.2,2.8-7.2,7.7C267.8,361,271.3,364.2,275.1,364.2L275.1,364.2z"/>
<path class="st0" d="M295.3,346.9c5.4,0,9.6,4.6,9.6,9.7c0,5-4.1,9.7-9.6,9.7c-5.4,0-9.6-4.6-9.6-9.6
	C285.7,350.9,290.4,346.9,295.3,346.9L295.3,346.9L295.3,346.9z M295.3,364.2c3.6,0,7.2-2.8,7.2-7.7c0-4.9-4.1-7.5-7.2-7.5
	c-3.4,0-7.2,2.8-7.2,7.7C288.1,361,291.5,364.2,295.3,364.2L295.3,364.2z"/>
<path class="st0" d="M306.7,347.4h2.4v2.7h0.1c1.1-2.6,3.2-3,5.2-3.1v2.5c-1.6,0.1-3.1,0.7-4,1.8c-0.8,1-1.3,2.3-1.3,3.8v10.8h-2.4
	V347.4L306.7,347.4z"/>
<path class="st0" d="M341.2,365.9h-2.3v-3.2h-0.1c-1.9,2.9-5.2,3.7-7.1,3.7c-5.8,0-9.9-4.4-9.9-9.7c0-4.9,3.9-9.7,9.9-9.7
	c2,0,5.2,0.7,7.1,3.6h0.1v-9.7h2.3V365.9L341.2,365.9L341.2,365.9z M331.6,364.2c4,0,7.3-3.2,7.3-7.5c0-4.1-3.1-7.6-7.3-7.6
	c-4,0-7.5,2.9-7.5,7.6C324.1,360.8,327.1,364.2,331.6,364.2L331.6,364.2z"/>
<path class="st0" d="M345.3,357.5c0.2,3.6,3.5,6.7,7.1,6.7c3.4-0.1,5.7-2.1,6.6-4.4h2.5c-1.3,3.7-4.8,6.5-9,6.5
	c-5.1,0-9.6-4.2-9.6-9.7c0-5.2,4.2-9.6,9.5-9.7c4,0,6.9,2.4,8.2,4.7c1.2,2,1.5,4.1,1.4,5.8H345.3L345.3,357.5L345.3,357.5z
	 M359.7,355.4c-0.7-4.4-4.3-6.3-7.2-6.3c-2.9,0-6.5,2-7.1,6.3H359.7L359.7,355.4z"/>
<path class="st0" d="M390,365.9h-2.3v-3.2h-0.1c-1.9,2.9-5.2,3.7-7.1,3.7c-5.8,0-9.9-4.4-9.9-9.7c0-4.9,3.9-9.7,9.9-9.7
	c2,0,5.2,0.7,7.1,3.6h0.1v-9.7h2.3V365.9L390,365.9L390,365.9z M380.4,364.2c4,0,7.3-3.2,7.3-7.5c0-4.1-3.1-7.6-7.3-7.6
	c-4,0-7.5,2.9-7.5,7.6C372.9,360.8,375.9,364.2,380.4,364.2L380.4,364.2z"/>
<path class="st0" d="M401.5,346.9c5.4,0,9.6,4.6,9.6,9.7c0,5-4.1,9.7-9.6,9.7c-5.4,0-9.6-4.6-9.6-9.6
	C391.9,350.9,396.6,346.9,401.5,346.9L401.5,346.9L401.5,346.9z M401.5,364.2c3.6,0,7.2-2.8,7.2-7.7c0-4.9-4.1-7.5-7.2-7.5
	c-3.4,0-7.2,2.8-7.2,7.7C394.2,361,397.7,364.2,401.5,364.2L401.5,364.2z"/>
<path class="st0" d="M412.9,347.4h2.3v2.7h0.1c1.1-2.6,3.2-3,5.2-3.1v2.5c-1.6,0.1-3.1,0.7-4,1.8c-0.8,1-1.3,2.3-1.3,3.8v10.8h-2.3
	V347.4L412.9,347.4z"/>
<path class="st0" d="M422.9,360.4c0.1,3.5,2.4,3.8,3.3,3.8c2.2,0,3.4-1.3,3.4-3.3c0-2.5-2.3-3.1-3.7-3.7c-1.9-0.6-4.9-1.7-4.9-5.1
	c0-2.6,1.8-5.1,5.2-5.1c2.7,0,5,2.1,5,5H429c-0.2-2.3-1.7-2.9-2.8-2.9c-1.9,0-2.8,1.5-2.8,2.8c0,2,1.9,2.6,3.3,3.1
	c2.1,0.7,5.2,1.9,5.2,5.7c0,3.2-1.9,5.7-5.8,5.7c-2.5,0-5.7-1.8-5.6-5.9H422.9L422.9,360.4z"/>
<polygon class="st0" points="435.3,349.5 431.5,349.5 431.5,347.4 435.3,347.4 435.3,340.9 437.7,340.9 437.7,347.4 442.1,347.4 
	442.1,349.5 437.7,349.5 437.7,365.9 435.3,365.9 435.3,349.5 "/>
</svg>
