<svg xmlns="http://www.w3.org/2000/svg" viewBox="0 0 512 512"><path fill="#008d5a" fill-rule="evenodd" d="m176.2 320.3-18.4-26.1h-.2v26.1h-8.1v-56.2h17.3c7.8 0 11.9 1.9 14.9 4.7 3.5 3.4 5.1 8.6 5.1 13.3 0 14.9-12.4 17.2-16 17.2l15.6 21zm-18.6-27.2h5.6c3.3 0 15.4-.2 15.4-11 0-4.7-3.2-10.5-12.4-10.5h-8.6zm74.2-14.9c-2.3-2.6-7-7.7-15.2-7.7-11.6 0-20.7 10-20.7 21.8 0 12.4 10.2 21.5 20.7 21.5 1.6 0 13.9-.2 19.2-14h-26v-7.5h35.3c-.3 18.8-15.2 29-28.8 29-16.3 0-28.6-13.3-28.6-29 0-16.2 12.4-29.3 28.5-29.3 9.5 0 19.6 5.1 25 15.2zm16.2 42.1v-56.2h30.1v7.5h-22v16.6h22v7.5h-22v17.1h22v7.5zm71.3 0-27.6-43.4h-.1v43.4h-8.2v-56.2h8.9l27.2 42.8h.1v-42.8h8.2v56.2zm20.9 0v-48.7h-10.8v-7.5H359v7.5h-10.7v48.7zm30.5-56.3h-8.8v56.8h8.8v-17.1h37.1l22.1 17.1h12.6zm0 31.7v-20.8l26.7 20.7zM136.9 264l-71.8 56.8h12.6l22.1-17.1h37.1v17.1h8.8V264zm0 31.7-26.7-.1 26.7-20.7zm80.2-106v-12.9l21.2-19.1h17.9zm45.6 41.2H239l-8.1-6.4 65.7-55.6 8.8 7.4v18.4zm42.7-32.5V214l-20.8 16.9h-17.1zm-39.5-69.8v21.6l-3.2 2.5v-21.4zm2.2 23.8h43.1l20.6-17.5h-42zm-51 43 43.8-37.7h22.4l10.3 8.7-65.5 55.9-11-8.5v-19.1z" clip-rule="evenodd"/><path fill="#008d5a" fill-rule="evenodd" stroke="#008d5a" stroke-miterlimit="2.613" stroke-width="1.68" d="M442.5 380.2H65.2zm0-48H65.2z" clip-rule="evenodd"/><path fill="#008d5a" fill-rule="evenodd" d="M82.6 365.9h-2.2V363h-.1c-.7 1.4-2.4 3.3-5.9 3.3-3.6 0-5.5-1.8-6.3-2.8-1.3-1.6-1.6-4-1.6-5.9v-10.2h2.3v10.2c0 2.3.5 3.9 1.3 4.9 1.3 1.5 3 1.8 4.3 1.8s2.7-.3 3.9-1.5c1.1-1.1 1.9-2.3 1.9-5.5v-9.8h2.3v18.4zm1-18.5H86l5.8 15.5h.1l4.1-13.3h2.1l4.2 13.3h.1l5.8-15.5h2.4l-7 18.5H101l-3.9-12.3H97l-3.8 12.3h-2.7zm54 18.5h-2.3v-3.2h-.1c-2 3-5.2 3.7-7.1 3.7-5.8 0-9.9-4.4-9.9-9.7 0-4.9 3.9-9.7 9.9-9.7 2 0 5.2.6 7.1 3.7h.1v-3.2h2.3zm-9.5-1.7c4 0 7.3-3.2 7.3-7.5 0-4.1-3.1-7.6-7.3-7.6-4 0-7.5 2.9-7.5 7.6 0 4.1 3 7.5 7.5 7.5m12.7-16.8h2.3v3.2h.1c2.1-3 5.2-3.7 7.1-3.7 6 0 9.9 4.7 9.9 9.7 0 5.3-4.1 9.7-9.9 9.7-1.9 0-5.1-.7-7.1-3.7h-.1v9.7h-2.3zm9.5 1.6c-4.2 0-7.3 3.5-7.3 7.6 0 4.3 3.4 7.5 7.3 7.5 4.5 0 7.5-3.4 7.5-7.5.1-4.6-3.4-7.6-7.5-7.6m11.6-1.6h2.3v3.2h.1c2.1-3 5.2-3.7 7.1-3.7 6 0 9.9 4.7 9.9 9.7 0 5.3-4.1 9.7-9.9 9.7-1.9 0-5.1-.7-7.1-3.7h-.1v9.7h-2.3zm9.6 1.6c-4.2 0-7.3 3.5-7.3 7.6 0 4.3 3.4 7.5 7.3 7.5 4.5 0 7.5-3.4 7.5-7.5 0-4.6-3.5-7.6-7.5-7.6m13.1 8.5c.2 3.6 3.5 6.7 7.1 6.7 3.4-.1 5.7-2.1 6.6-4.4h2.5c-1.3 3.7-4.8 6.5-9 6.5-5.1 0-9.6-4.2-9.6-9.7 0-5.2 4.2-9.6 9.5-9.7 4 0 6.9 2.4 8.2 4.7 1.2 2 1.5 4.1 1.4 5.8h-16.7zm14.3-2.1c-.7-4.4-4.3-6.3-7.2-6.3s-6.5 2-7.1 6.3zm4.2-14.5h2.4v25h-2.4zm7.2 8.6h-3.9v-2.1h3.9v-6.5h2.3v6.5h4.4v2.1h-4.4v16.4h-2.3zm9.9 15.1c0 2.2 0 4.5-2 6.3-1.6 1.4-3 1.5-4.1 1.5V370c3.1-.1 3.7-2.3 3.7-5.4v-17.2h2.3v17.2zm-2.4-23.7h2.3v4.3h-2.3zm6.5 16.6c.2 3.6 3.5 6.7 7.1 6.7 3.4-.1 5.7-2.1 6.6-4.4h2.5c-1.3 3.7-4.8 6.5-9 6.5-5.1 0-9.6-4.2-9.6-9.7 0-5.2 4.2-9.6 9.5-9.7 4 0 6.9 2.4 8.2 4.7 1.2 2 1.5 4.1 1.4 5.8h-16.7zm14.3-2.1c-.7-4.4-4.3-6.3-7.2-6.3s-6.5 2-7.1 6.3zm9.9-8h2.5l6.5 15.5 6.5-15.5h2.5l-7.7 18.5h-2.6zm26.5-.5c5.4 0 9.6 4.6 9.6 9.7 0 5-4.1 9.7-9.6 9.7-5.4 0-9.6-4.6-9.6-9.6.1-5.8 4.8-9.8 9.6-9.8m.1 17.3c3.6 0 7.2-2.8 7.2-7.7s-4.1-7.5-7.2-7.5c-3.4 0-7.2 2.8-7.2 7.7-.1 4.3 3.4 7.5 7.2 7.5m20.2-17.3c5.4 0 9.6 4.6 9.6 9.7 0 5-4.1 9.7-9.6 9.7-5.4 0-9.6-4.6-9.6-9.6 0-5.8 4.7-9.8 9.6-9.8m0 17.3c3.6 0 7.2-2.8 7.2-7.7s-4.1-7.5-7.2-7.5c-3.4 0-7.2 2.8-7.2 7.7 0 4.3 3.4 7.5 7.2 7.5m11.4-16.8h2.4v2.7h.1c1.1-2.6 3.2-3 5.2-3.1v2.5c-1.6.1-3.1.7-4 1.8-.8 1-1.3 2.3-1.3 3.8v10.8h-2.4zm34.5 18.5h-2.3v-3.2h-.1c-1.9 2.9-5.2 3.7-7.1 3.7-5.8 0-9.9-4.4-9.9-9.7 0-4.9 3.9-9.7 9.9-9.7 2 0 5.2.7 7.1 3.6h.1v-9.7h2.3zm-9.6-1.7c4 0 7.3-3.2 7.3-7.5 0-4.1-3.1-7.6-7.3-7.6-4 0-7.5 2.9-7.5 7.6 0 4.1 3 7.5 7.5 7.5m13.7-6.7c.2 3.6 3.5 6.7 7.1 6.7 3.4-.1 5.7-2.1 6.6-4.4h2.5c-1.3 3.7-4.8 6.5-9 6.5-5.1 0-9.6-4.2-9.6-9.7 0-5.2 4.2-9.6 9.5-9.7 4 0 6.9 2.4 8.2 4.7 1.2 2 1.5 4.1 1.4 5.8h-16.7zm14.4-2.1c-.7-4.4-4.3-6.3-7.2-6.3s-6.5 2-7.1 6.3zm30.3 10.5h-2.3v-3.2h-.1c-1.9 2.9-5.2 3.7-7.1 3.7-5.8 0-9.9-4.4-9.9-9.7 0-4.9 3.9-9.7 9.9-9.7 2 0 5.2.7 7.1 3.6h.1v-9.7h2.3zm-9.6-1.7c4 0 7.3-3.2 7.3-7.5 0-4.1-3.1-7.6-7.3-7.6-4 0-7.5 2.9-7.5 7.6 0 4.1 3 7.5 7.5 7.5m21.1-17.3c5.4 0 9.6 4.6 9.6 9.7 0 5-4.1 9.7-9.6 9.7-5.4 0-9.6-4.6-9.6-9.6 0-5.8 4.7-9.8 9.6-9.8m0 17.3c3.6 0 7.2-2.8 7.2-7.7s-4.1-7.5-7.2-7.5c-3.4 0-7.2 2.8-7.2 7.7-.1 4.3 3.4 7.5 7.2 7.5m11.4-16.8h2.3v2.7h.1c1.1-2.6 3.2-3 5.2-3.1v2.5c-1.6.1-3.1.7-4 1.8-.8 1-1.3 2.3-1.3 3.8v10.8h-2.3zm10 13c.1 3.5 2.4 3.8 3.3 3.8 2.2 0 3.4-1.3 3.4-3.3 0-2.5-2.3-3.1-3.7-3.7-1.9-.6-4.9-1.7-4.9-5.1 0-2.6 1.8-5.1 5.2-5.1 2.7 0 5 2.1 5 5H429c-.2-2.3-1.7-2.9-2.8-2.9-1.9 0-2.8 1.5-2.8 2.8 0 2 1.9 2.6 3.3 3.1 2.1.7 5.2 1.9 5.2 5.7 0 3.2-1.9 5.7-5.8 5.7-2.5 0-5.7-1.8-5.6-5.9h2.4zm12.4-10.9h-3.8v-2.1h3.8v-6.5h2.4v6.5h4.4v2.1h-4.4v16.4h-2.4z" clip-rule="evenodd"/></svg>