<?xml version="1.0" encoding="utf-8"?>
<!-- Generator: Adobe Illustrator 22.1.0, SVG Export Plug-In . SVG Version: 6.00 Build 0)  -->
<svg version="1.1" id="Layer_1" xmlns="http://www.w3.org/2000/svg" xmlns:xlink="http://www.w3.org/1999/xlink" x="0px" y="0px"
	 viewBox="0 0 512 512" style="enable-background:new 0 0 512 512;" xml:space="preserve">
<style type="text/css">
	.st0{fill:#EE533B;}
</style>
<path class="st0" d="M106.2,213.7c0-11.4-0.9-22.9,0.2-34.2c4.5-49.5,49.7-89.2,99.5-88c53.5,1.3,92.6,35.4,100.2,88.3
	c2.9,20.5-1.4,40.2-11.6,58.1c-10.4,18.1-22.5,35.3-32.1,53.8c-17.1,33.2-9.7,76.7,16.5,103.7c5.8,5.9,12,11.6,18.6,16.4
	c6.4,4.7,13.6,8.2,21.7,13c-4.7,1.2-8.4,2.6-12.1,3.1c-64.4,7.9-120.3-33.2-131-97.2c-4.2-24.9-0.2-49.2,11.6-71.9
	c5.3-10.2,8.7-20.8,6.6-32.5c-3.3-18-17.5-32.7-34.7-36.2c-18.4-3.8-36.3,3.5-47,19.2c-1,1.5-2,3.1-3.1,4.6
	C108.4,213.9,107.3,213.8,106.2,213.7z"/>
<path class="st0" d="M393.4,146.6c7.4,11.9,8.1,25.3,5.6,38.7c-1.3,6.9-0.6,11.6,4.1,17.2c13.9,16.6,13.3,52.4-0.3,69.6
	c-0.4,0.6-1.3,0.8-2.7,1.6c-1.9-4-3.7-7.7-5.5-11.5c-8.6-18-21.8-32.2-37.2-44.6c-20.5-16.5-29.9-46.3-22.3-71
	c2.7,4.4,4.9,8.3,7.5,12.1c7.4,10.6,18.2,16.5,29.8,20.8c1.8,0.7,6.3-1.6,7.4-3.7C384.8,166.4,388.9,156.6,393.4,146.6z"/>
<path class="st0" d="M339.7,417.4c-15.8-19.7-16.5-50.7-2.3-73.2c14-22.1,42.6-35.2,66.1-29.7c-1.6,1.4-2.9,2.5-4.2,3.5
	c-16.5,12.4-21.9,31.9-13.5,50.7c2.1,4.6,1.5,7.6-1.3,11.4C372.7,396.1,358,408.4,339.7,417.4z"/>
<path class="st0" d="M354.3,239.2c-3.6,2.4-7,6.2-10.9,6.8c-5.7,0.8-8.5-3.9-8.5-9.3c0-5.5,4.1-9,8.7-8.3c3.9,0.6,7.1,4.7,10.7,7.3
	C354.3,236.9,354.3,238.1,354.3,239.2z"/>
</svg>
