<?xml version="1.0" encoding="utf-8"?>
<!-- Generator: Adobe Illustrator 22.1.0, SVG Export Plug-In . SVG Version: 6.00 Build 0)  -->
<svg version="1.1" id="Layer_1" xmlns="http://www.w3.org/2000/svg" xmlns:xlink="http://www.w3.org/1999/xlink" x="0px" y="0px"
	 viewBox="0 0 512 512" style="enable-background:new 0 0 512 512;" xml:space="preserve">
<style type="text/css">
	.st0{fill-rule:evenodd;clip-rule:evenodd;fill:#004993;}
	.st1{fill-rule:evenodd;clip-rule:evenodd;fill:#E3003A;}
	.st2{fill-rule:evenodd;clip-rule:evenodd;fill:#FFFFFF;}
</style>
<polygon class="st0" points="108.2,110 108.2,414.9 412,414.9 412,110 108.2,110 "/>
<polygon class="st1" points="279.2,261 297.3,261 411.5,110.5 394.5,110.5 279.2,261 "/>
<path class="st2" d="M332.9,383c0,0,0.3-4.4-2.2-12.7c-2.5-8.3-10.9-35.1-10.9-35.1H274l-7.1,10.1c0,0,7,21.1,8.4,25.1
	c1.4,3.9,3.6,8.5,6.3,12.6c-8.7,0-28.1,0-28.1,0s-0.3-6.1-3.7-14.5c0,0-5.2,5.8-6.8,8.2c-1.6,2.4-3.2,6.3-3.2,6.3H218
	c0,0-1.4-10.2-3.8-15.1c-4.2,4.7-8.2,10.4-9.9,15.1h-21.7c0,0,6.6-6.3,14.2-15.8c7.6-9.5,10.8-13.6,10.8-13.6l-5.1-18.4h-45.2
	c0,0-26,33.7-28.7,37.2c-2.7,3.5-6.6,8.8-6.8,10.6c-3.8,0-13.2,0-13.2,0l0-8.7c0,0,26.9-32.5,64.6-83.8c5.1-7,8.7-9.9,12.6-20.5
	h23.6c0,0-0.2,6,3,16.6c3.2,10.6,13.1,43.4,13.1,43.4l7.6-9.6c0,0-9.4-29.7-11.2-35.6c-1.8-5.9-4.1-12.5-5.9-14.8h27.7
	c0,0-0.5,3.3,0.9,8c1.3,4.7,6.6,23.8,6.6,23.8s16.2-20.2,18.5-23.3c2.3-3.1,3.2-4.6,3.5-8.5h22.9c0,0-2.5,2-5.5,5.3
	c-3,3.3-32.7,40.5-32.7,40.5l3.4,12.3c0,0,29.4-38.3,34.6-45.2c5.2-6.9,7.1-11.2,7.7-12.9h22.6c0,0,0.2,5.2,1.2,8.8
	c5.3,18.6,19.3,65,27.2,88.1c4.2,12.1,5.8,14.4,7.2,16.1C358.4,383,332.9,383,332.9,383L332.9,383z"/>
<path class="st0" d="M284.5,321.7c0,0,7.4-8.8,11.8-14.4c4.4-5.6,9.9-13.2,11-15.8c0.2,5.6,0.4,7.5,1.8,12.2c1.4,4.7,5.7,18,5.7,18
	H284.5L284.5,321.7z"/>
<path class="st0" d="M167.9,321.7c0,0,7.2-8.3,12.4-15c5.3-6.7,9.2-12,10.6-15.2c-0.6,6.3,0.5,8.8,1.8,13.4
	c1.3,4.6,5.3,16.8,5.3,16.8H167.9L167.9,321.7z"/>
<path class="st0" d="M238.6,336.2c0,0,3.1,10.4,5.4,14.7c0,0-6,7.7-8.3,11.1c0,0-3.3-10.5-4.7-15.4L238.6,336.2L238.6,336.2z"/>
</svg>
