<svg xmlns="http://www.w3.org/2000/svg" viewBox="0 0 512 512"><path fill="#00533d" d="M3 3h506v506H3z"/><path fill="#ffec00" fill-rule="evenodd" d="M192.6 276.9H231l4.9-16.7h-17.4l1.8-6h15.3l4.7-15.9H225l1.7-4.8h16.8l4.6-17.1h-37.8zm98.5 0h38.4l4.9-16.7H317l1.8-6h15.3l4.7-15.9h-15.3l1.7-4.8H342l4.6-17.1h-37.8zM151.2 218c-3.8-2.2-4.5-2.3-9-2.8-18.5-2-35.7 8.8-40.8 26.2-5 17.1 2.3 33 18 35.1 3.6.5 11.2.8 14.9-.4l7.1-22.3c-4.2 3-8.5 4.6-13.1 4-6-.8-9.7-6.6-7.8-13.2 1.3-4.4 7.8-9 13.8-8.2 4.5.6 6.8-.5 10.2 3zm184.2 58.9h17.9l9.8-33.4c-.3 2.6-4.1 33.4-4.1 33.4h12.4l15.9-28.6-7.8 28.6h19.9l16.9-61h-22.9s-17.3 24.2-18.1 26.8l.7-25.8h-23.2zm-99.3 0h24.1c15.4 0 29.4-11.5 34.7-29.4 6.1-20.2-4.6-31.2-22.2-31.2h-19.4zm29.9-41.6h1.2c7 0 10.2 3.6 7.8 12.1-2.3 8-7.6 10.1-14 10.1h-1.2zm-125.5 41.1 17.2-.1 5.8-17.2 4 18 20.5-.2-5.7-19.3c-.6-1.8-1.5-2.8-2.3-3.7l.1-.5c11.1-1.5 16.3-6.1 18.9-15.3 4.3-15.3-5.6-21.7-17.7-22l-23.8.2zm32.6-45.8h1.5c3.4.1 6.1.7 4.8 5.4-1.3 4.5-4.6 5-7.9 5h-1.4z" clip-rule="evenodd"/></svg>