<?xml version="1.0" encoding="utf-8"?>
<!-- Generator: Adobe Illustrator 22.1.0, SVG Export Plug-In . SVG Version: 6.00 Build 0)  -->
<svg version="1.1" id="Layer_1" xmlns="http://www.w3.org/2000/svg" xmlns:xlink="http://www.w3.org/1999/xlink" x="0px" y="0px"
	 viewBox="0 0 512 512" style="enable-background:new 0 0 512 512;" xml:space="preserve">
<style type="text/css">
	.st0{fill:#00533D;}
	.st1{fill-rule:evenodd;clip-rule:evenodd;fill:#FFEC00;}
</style>
<g>
	<rect x="3" y="3" class="st0" width="506" height="506"/>
	<path class="st0" d="M256,256"/>
</g>
<path class="st1" d="M192.6,276.9H231l4.9-16.7h-17.4l1.8-6h15.3l4.7-15.9H225l1.7-4.8h16.8l4.6-17.1h-37.8L192.6,276.9z
	 M291.1,276.9h38.4l4.9-16.7H317l1.8-6h15.3l4.7-15.9h-15.3l1.7-4.8H342l4.6-17.1h-37.8L291.1,276.9z M151.2,218
	c-3.8-2.2-4.5-2.3-9-2.8c-18.5-2-35.7,8.8-40.8,26.2c-5,17.1,2.3,33,18,35.1c3.6,0.5,11.2,0.8,14.9-0.4l7.1-22.3
	c-4.2,3-8.5,4.6-13.1,4c-6-0.8-9.7-6.6-7.8-13.2c1.3-4.4,7.8-9,13.8-8.2c4.5,0.6,6.8-0.5,10.2,3L151.2,218z M335.4,276.9h17.9
	l9.8-33.4c-0.3,2.6-4.1,33.4-4.1,33.4h12.4l15.9-28.6l-7.8,28.6h19.9l16.9-61h-22.9c0,0-17.3,24.2-18.1,26.8l0.7-25.8h-23.2
	L335.4,276.9z M236.1,276.9h24.1c15.4,0,29.4-11.5,34.7-29.4c6.1-20.2-4.6-31.2-22.2-31.2h-19.4L236.1,276.9z M266,235.3h1.2
	c7,0,10.2,3.6,7.8,12.1c-2.3,8-7.6,10.1-14,10.1h-1.2L266,235.3z M140.5,276.4l17.2-0.1l5.8-17.2l4,18l20.5-0.2l-5.7-19.3
	c-0.6-1.8-1.5-2.8-2.3-3.7l0.1-0.5c11.1-1.5,16.3-6.1,18.9-15.3c4.3-15.3-5.6-21.7-17.7-22l-23.8,0.2L140.5,276.4z M173.1,230.6
	l1.5,0c3.4,0.1,6.1,0.7,4.8,5.4c-1.3,4.5-4.6,5-7.9,5l-1.4,0L173.1,230.6z"/>
</svg>
