<svg xmlns="http://www.w3.org/2000/svg" viewBox="0 0 320.24 320.24"><path fill="#004e91" d="M240.7 125.86h-64l-6.55 7.36L149.08 157l-6.55 7.37H79.38l6.38-7.45 3-3.52 6.41-7.4h-29a9.84 9.84 0 0 0-9.66 9.9v20.94a9.78 9.78 0 0 0 9.66 9.9h111.38c5.31 0 12.59-3.36 16.11-7.36l16.85-19.15Z"/><path fill="#fd0" d="M253.54 103.52a9.84 9.84 0 0 1 9.66 9.9v20.94a9.78 9.78 0 0 1-9.66 9.9h-29l6.46-7.36 3.2-3.68 6.46-7.36h-64l-34.13 38.44H79l45.57-51.53 1.71-2c3.6-4 10.88-7.36 16.2-7.36h111.06Z"/><path fill="#004e91" d="M263.2 230.57v-3c0-.41-.25-.66-.82-.66h-2c-.57 0-1-.08-1.06-.32a3.6 3.6 0 0 1-.16-1.56v-11.48h3.19a.72.72 0 0 0 .57-.25.74.74 0 0 0 .25-.57v-3.19a.86.86 0 0 0-.82-.82h-3.19v-4.17a.66.66 0 0 0-.17-.49 1.1 1.1 0 0 0-.49-.16h-.08l-4.74.82a4 4 0 0 0-.58.24.7.7 0 0 0-.24.49v3.19h-3.16a.86.86 0 0 0-.82.82v2.62a.49.49 0 0 0 .25.49 1.4 1.4 0 0 0 .57.33l3.19.49v11.45a13 13 0 0 0 .41 3.44 5.4 5.4 0 0 0 1.22 2 4.36 4.36 0 0 0 2 1 14.4 14.4 0 0 0 2.86.25 9.6 9.6 0 0 0 1.56-.08c.41-.09 1-.17 1.55-.25a.61.61 0 0 0 .66-.65m-17-.41v-3.52a.49.49 0 0 0-.24-.49 1.2 1.2 0 0 0-.5-.17h-.08a18 18 0 0 1-2.12.17 25 25 0 0 1-2.7.08 3.18 3.18 0 0 1-2.29-1 3.1 3.1 0 0 1-.66-1.39 8.5 8.5 0 0 1-.24-2.21v-3.27a8.4 8.4 0 0 1 .24-2.21 4.2 4.2 0 0 1 .66-1.39 3 3 0 0 1 1.06-.74 3.4 3.4 0 0 1 1.23-.24 25 25 0 0 1 2.7.08c.65.08 1.39.08 2.12.16h.08a.74.74 0 0 0 .5-.16.5.5 0 0 0 .24-.49v-3.52a.78.78 0 0 0-.16-.57 2.2 2.2 0 0 0-.66-.33c-.57-.16-1.22-.25-2.12-.41a18.3 18.3 0 0 0-3.11-.16 9 9 0 0 0-6.71 2.53c-1.64 1.72-2.54 4.17-2.54 7.45v3.27c0 3.19.82 5.73 2.54 7.44a8.9 8.9 0 0 0 6.71 2.54c1.14 0 2.21-.08 3.11-.16s1.63-.25 2.12-.41a1.36 1.36 0 0 0 .66-.33c.16-.08.16-.33.16-.57M220.58 226a9.3 9.3 0 0 1-1.56.58 6.3 6.3 0 0 1-1.72.24 4 4 0 0 1-1.88-.32c-.41-.25-.57-.74-.57-1.64v-.33a5 5 0 0 1 .16-1.23 2.06 2.06 0 0 1 .58-.89 3.2 3.2 0 0 1 1.06-.58 9 9 0 0 1 1.72-.16h2.21Zm6.21-9.57a9.6 9.6 0 0 0-.65-3.68 6.9 6.9 0 0 0-1.8-2.45 6.6 6.6 0 0 0-2.86-1.39 14 14 0 0 0-3.85-.49 30 30 0 0 0-3.84.24 18.4 18.4 0 0 0-2.95.57c-.49.17-.74.41-.74.9v3.19a1.24 1.24 0 0 0 .17.58 1.2 1.2 0 0 0 .49.16h.16c.33 0 .74-.08 1.15-.08s1-.08 1.55-.08 1.23-.08 1.88-.08h1.89a3.84 3.84 0 0 1 2.12.49 2.53 2.53 0 0 1 .82 2.21v1.39h-2.13c-3.35 0-5.89.49-7.36 1.55a5.72 5.72 0 0 0-2.29 5.07v.33a7.2 7.2 0 0 0 .57 3.19 6 6 0 0 0 1.56 2.13 6.6 6.6 0 0 0 2.12 1.14 8.5 8.5 0 0 0 2.54.33 8.3 8.3 0 0 0 3-.49 12.5 12.5 0 0 0 2.45-1.31v.65a.74.74 0 0 0 .25.58.73.73 0 0 0 .57.24h4.42a.75.75 0 0 0 .57-.24.77.77 0 0 0 .24-.58v-14.09Zm-21 14.16v-3c0-.41-.25-.66-.82-.66h-1.88c-.57 0-1-.08-1.06-.32a3.36 3.36 0 0 1-.17-1.56v-11.5H205a.74.74 0 0 0 .58-.25.73.73 0 0 0 .24-.57v-3.19a.75.75 0 0 0-.24-.57.78.78 0 0 0-.58-.25h-3.19v-4.17a.7.7 0 0 0-.16-.49 1.2 1.2 0 0 0-.49-.16h-.08l-4.75.82a4 4 0 0 0-.57.24.73.73 0 0 0-.25.49v3.19h-3.19a.72.72 0 0 0-.57.25.74.74 0 0 0-.25.57v2.62a.51.51 0 0 0 .25.49 1.45 1.45 0 0 0 .57.33l3.19.49v11.45a13.4 13.4 0 0 0 .41 3.44 5.5 5.5 0 0 0 1.23 2 4 4 0 0 0 2 1 14.5 14.5 0 0 0 2.87.25 9.6 9.6 0 0 0 1.55-.08c.41-.09 1-.17 1.56-.25a.59.59 0 0 0 .57-.65m-17.18-.09V217.4a16.2 16.2 0 0 0-.33-3.52 7.9 7.9 0 0 0-.99-2.88 4.8 4.8 0 0 0-2.13-1.88 7.25 7.25 0 0 0-3.52-.73 10.6 10.6 0 0 0-3.35.49 11.6 11.6 0 0 0-3.11 1.63v-1a.75.75 0 0 0-.24-.57.78.78 0 0 0-.58-.25h-4.41a.78.78 0 0 0-.58.25.75.75 0 0 0-.24.57v20.94a.82.82 0 0 0 .82.82h4.74a.73.73 0 0 0 .57-.24.74.74 0 0 0 .25-.58V215c.65-.32 1.31-.65 2-.9a4.8 4.8 0 0 1 1.8-.32 7.4 7.4 0 0 1 1.47.16 1.7 1.7 0 0 1 .9.57 2.36 2.36 0 0 1 .41 1.15 10 10 0 0 1 .09 1.72v13.08a.77.77 0 0 0 .24.58.75.75 0 0 0 .57.24h4.75a.75.75 0 0 0 .57-.24.65.65 0 0 0 .41-.58m-29.78-9.08c0 3.19-1.14 4.83-3.51 4.83a3 3 0 0 1-2.62-1.23 6.24 6.24 0 0 1-.9-3.6v-2.78a6.1 6.1 0 0 1 .9-3.6 3 3 0 0 1 2.62-1.22c2.29 0 3.51 1.63 3.51 4.82Zm6.38-2.78a13.6 13.6 0 0 0-.65-4.25 8.9 8.9 0 0 0-1.88-3.19 8.24 8.24 0 0 0-3.11-2.05 12.77 12.77 0 0 0-8.51 0 8.24 8.24 0 0 0-3.11 2.05 8.9 8.9 0 0 0-1.88 3.19 13.6 13.6 0 0 0-.65 4.25v2.78a13.7 13.7 0 0 0 .65 4.26 9 9 0 0 0 1.88 3.19 8.2 8.2 0 0 0 3.11 2 12.6 12.6 0 0 0 8.51 0 8.2 8.2 0 0 0 3.11-2 9 9 0 0 0 1.88-3.19 13.7 13.7 0 0 0 .65-4.26Zm-21.92 11.54v-3.52a.48.48 0 0 0-.25-.49 1.16 1.16 0 0 0-.57-.17h-.08a18 18 0 0 1-2.13.17c-.65 0-1.55.08-2.7.08a2.8 2.8 0 0 1-1.22-.25 3 3 0 0 1-1.07-.73 3.2 3.2 0 0 1-.65-1.39 8 8 0 0 1-.25-2.21v-3.27a8 8 0 0 1 .25-2.21 4.4 4.4 0 0 1 .65-1.39 3.1 3.1 0 0 1 1.07-.74 3.3 3.3 0 0 1 1.22-.24 25 25 0 0 1 2.7.08c.66.08 1.39.08 2.13.16h.08a1.16 1.16 0 0 0 .57-.16.49.49 0 0 0 .25-.49v-3.52a.78.78 0 0 0-.16-.57 2.2 2.2 0 0 0-.66-.33c-.57-.16-1.23-.25-2.13-.41a18 18 0 0 0-3.1-.16 9 9 0 0 0-6.71 2.53c-1.64 1.72-2.54 4.17-2.54 7.45v3.27c0 3.19.82 5.73 2.54 7.44a8.86 8.86 0 0 0 6.71 2.54c1.14 0 2.2-.08 3.1-.16s1.56-.25 2.13-.41a1.36 1.36 0 0 0 .66-.33c.16-.08.16-.33.16-.57m-19.31.32V217.4a17 17 0 0 0-.32-3.52 8.1 8.1 0 0 0-1.07-2.87 4.8 4.8 0 0 0-2.12-1.88 7.3 7.3 0 0 0-3.52-.73 10.7 10.7 0 0 0-3.36.49 11.4 11.4 0 0 0-3.1 1.63v-1a.86.86 0 0 0-.82-.82h-4.42a.74.74 0 0 0-.57.25.72.72 0 0 0-.25.57v20.94a.74.74 0 0 0 .25.58.73.73 0 0 0 .57.24H110a.82.82 0 0 0 .81-.82V215c.66-.32 1.31-.65 2-.9a4.7 4.7 0 0 1 1.8-.32 7.5 7.5 0 0 1 1.39.22 1.75 1.75 0 0 1 .9.57 2.46 2.46 0 0 1 .41 1.15 11 11 0 0 1 .08 1.72v13.08a.82.82 0 0 0 .82.82H123a.73.73 0 0 0 .57-.24.84.84 0 0 0 .41-.58M93.53 226a9 9 0 0 1-1.55.58 6.4 6.4 0 0 1-1.72.24 4 4 0 0 1-1.88-.32c-.41-.25-.57-.74-.57-1.64v-.33a5 5 0 0 1 .16-1.23 2.1 2.1 0 0 1 .57-.89 3.4 3.4 0 0 1 1.07-.58 9 9 0 0 1 1.71-.16h2.21Zm6.3-9.57a9.6 9.6 0 0 0-.65-3.68 6.9 6.9 0 0 0-1.8-2.45 6.6 6.6 0 0 0-2.87-1.39 14 14 0 0 0-3.84-.49 30 30 0 0 0-3.85.24 18.5 18.5 0 0 0-2.94.57c-.49.17-.74.41-.74.9v3.19a.6.6 0 0 0 .66.74h.2c.33 0 .74-.08 1.15-.08s1-.08 1.63-.08 1.23-.08 1.88-.08h1.89a3.84 3.84 0 0 1 2.12.49 2.53 2.53 0 0 1 .82 2.21v1.39h-2.17c-3.35 0-5.89.49-7.36 1.55a5.91 5.91 0 0 0-2.29 5.07v.33a7.2 7.2 0 0 0 .57 3.19 6 6 0 0 0 1.56 2.13 6.6 6.6 0 0 0 2.12 1.14 8.5 8.5 0 0 0 2.54.33 8.3 8.3 0 0 0 3-.49 12.2 12.2 0 0 0 2.45-1.31v.65a.74.74 0 0 0 .25.58.73.73 0 0 0 .57.24h4.42a.75.75 0 0 0 .57-.24.77.77 0 0 0 .24-.58v-14.09Zm-28.14 6.22a3.13 3.13 0 0 1-1.15 2.54 7.3 7.3 0 0 1-4.17.9H63.1v-7.39h4.42c1.55 0 2.7.33 3.27 1.07a3.94 3.94 0 0 1 .9 2.45Zm-.16-11.7a6.5 6.5 0 0 1-.17 1.23 2 2 0 0 1-.65 1 4.5 4.5 0 0 1-1.23.66 6.5 6.5 0 0 1-2 .24H63.1v-6.79h3a8.8 8.8 0 0 1 4.25.74 2.58 2.58 0 0 1 1.23 2.37v.57Zm6.7 11.29a6.1 6.1 0 0 0-1-3.52 6.2 6.2 0 0 0-2.53-2.29 5.54 5.54 0 0 0 2.45-2.29 7.2 7.2 0 0 0 .9-3.43V210a8.3 8.3 0 0 0-.9-3.93 6.8 6.8 0 0 0-2.53-2.53 12.1 12.1 0 0 0-3.93-1.39 31.4 31.4 0 0 0-5.07-.41h-2c-.65 0-1.31.08-2 .08a12.6 12.6 0 0 0-1.8.16c-.57.09-1 .09-1.31.17a2.17 2.17 0 0 0-2.13 2.62v23.83a2.86 2.86 0 0 0 .5 1.88 3.3 3.3 0 0 0 1.63.74 7.4 7.4 0 0 0 1.39.16c.57.09 1.15.09 1.8.17s1.31.08 2 .08h2a29 29 0 0 0 4.83-.41 11.3 11.3 0 0 0 3.92-1.39 7.7 7.7 0 0 0 2.7-2.7 8.7 8.7 0 0 0 1-4.34Z"/></svg>