<svg id="ideal_logo" xmlns="http://www.w3.org/2000/svg" viewBox="0 0 320.24 320.24"><defs><style>.cls-1{fill:#004e91;}.cls-2{fill:#fd0;}</style></defs><title>bancontact_logo_sq</title><g id="bancontact"><path class="cls-1" d="M240.7,125.86h-64l-6.55,7.36L149.08,157h0l-6.55,7.37H79.38l6.38-7.45,3-3.52L95.17,146h-29a9.84,9.84,0,0,0-9.66,9.9h0v20.94a9.78,9.78,0,0,0,9.66,9.9H177.55c5.31,0,12.59-3.36,16.11-7.36l16.85-19.15Z"/><path class="cls-2" d="M253.54,103.52a9.84,9.84,0,0,1,9.66,9.9v20.94a9.78,9.78,0,0,1-9.66,9.9h-29L231,136.9h0l3.2-3.68,6.46-7.36h-64L142.53,164.3H79l45.57-51.53,1.71-2c3.6-4,10.88-7.36,16.2-7.36H253.54Z"/><path class="cls-1" d="M263.2,230.57v-3c0-.41-.25-.66-.82-.66h-2c-.57,0-1-.08-1.06-.32a3.56,3.56,0,0,1-.16-1.56V213.55h3.19a.72.72,0,0,0,.57-.25.74.74,0,0,0,.25-.57v-3.19a.86.86,0,0,0-.82-.82h-3.19v-4.17a.66.66,0,0,0-.17-.49,1.13,1.13,0,0,0-.49-.16h-.08l-4.74.82a4.27,4.27,0,0,0-.58.24.71.71,0,0,0-.24.49v3.19H249.7a.86.86,0,0,0-.82.82v2.62a.49.49,0,0,0,.25.49,1.39,1.39,0,0,0,.57.33l3.19.49v11.45a13,13,0,0,0,.41,3.44,5.39,5.39,0,0,0,1.22,2,4.36,4.36,0,0,0,2,1,14.43,14.43,0,0,0,2.86.25,9.62,9.62,0,0,0,1.56-.08c.41-.09,1-.17,1.55-.25a.61.61,0,0,0,.66-.65m-17-.41v-3.52a.49.49,0,0,0-.24-.49,1.24,1.24,0,0,0-.5-.17h-.08a18.1,18.1,0,0,1-2.12.17,25.39,25.39,0,0,1-2.7.08,3.18,3.18,0,0,1-2.29-1,3.11,3.11,0,0,1-.66-1.39,8.46,8.46,0,0,1-.24-2.21v-3.27a8.4,8.4,0,0,1,.24-2.21,4.19,4.19,0,0,1,.66-1.39,3,3,0,0,1,1.06-.74,3.36,3.36,0,0,1,1.23-.24,25.39,25.39,0,0,1,2.7.08c.65.08,1.39.08,2.12.16h.08a.74.74,0,0,0,.5-.16.5.5,0,0,0,.24-.49v-3.52a.78.78,0,0,0-.16-.57,2.23,2.23,0,0,0-.66-.33c-.57-.16-1.22-.25-2.12-.41a18.27,18.27,0,0,0-3.11-.16,9,9,0,0,0-6.71,2.53c-1.64,1.72-2.54,4.17-2.54,7.45v3.27c0,3.19.82,5.73,2.54,7.44a8.89,8.89,0,0,0,6.71,2.54c1.14,0,2.21-.08,3.11-.16s1.63-.25,2.12-.41a1.36,1.36,0,0,0,.66-.33c.16-.08.16-.33.16-.57M220.58,226a9.31,9.31,0,0,1-1.56.58,6.32,6.32,0,0,1-1.72.24,4,4,0,0,1-1.88-.32c-.41-.25-.57-.74-.57-1.64v-.33a5.11,5.11,0,0,1,.16-1.23,2.06,2.06,0,0,1,.58-.89,3.22,3.22,0,0,1,1.06-.58,8.87,8.87,0,0,1,1.72-.16h2.21Zm6.21-9.57a9.55,9.55,0,0,0-.65-3.68,6.88,6.88,0,0,0-1.8-2.45,6.6,6.6,0,0,0-2.86-1.39,14.09,14.09,0,0,0-3.85-.49,29.87,29.87,0,0,0-3.84.24,18.39,18.39,0,0,0-2.95.57c-.49.17-.74.41-.74.9v3.19a1.24,1.24,0,0,0,.17.58,1.18,1.18,0,0,0,.49.16h.16c.33,0,.74-.08,1.15-.08s1-.08,1.55-.08,1.23-.08,1.88-.08h1.89a3.84,3.84,0,0,1,2.12.49,2.53,2.53,0,0,1,.82,2.21v1.39H218.2c-3.35,0-5.89.49-7.36,1.55a5.72,5.72,0,0,0-2.29,5.07v.33a7.18,7.18,0,0,0,.57,3.19,6,6,0,0,0,1.56,2.13,6.58,6.58,0,0,0,2.12,1.14,8.52,8.52,0,0,0,2.54.33,8.33,8.33,0,0,0,3-.49,12.46,12.46,0,0,0,2.45-1.31v.65a.74.74,0,0,0,.25.58.73.73,0,0,0,.57.24h4.42a.75.75,0,0,0,.57-.24.77.77,0,0,0,.24-.58V216.41Zm-21,14.16v-3c0-.41-.25-.66-.82-.66h-1.88c-.57,0-1-.08-1.06-.32a3.36,3.36,0,0,1-.17-1.56V213.55H205a.74.74,0,0,0,.58-.25.73.73,0,0,0,.24-.57v-3.19a.75.75,0,0,0-.24-.57.78.78,0,0,0-.58-.25h-3.19v-4.17a.71.71,0,0,0-.16-.49,1.18,1.18,0,0,0-.49-.16h-.08l-4.75.82a4.08,4.08,0,0,0-.57.24.73.73,0,0,0-.25.49v3.19h-3.19a.72.72,0,0,0-.57.25.74.74,0,0,0-.25.57v2.62a.51.51,0,0,0,.25.49,1.45,1.45,0,0,0,.57.33l3.19.49v11.45a13.43,13.43,0,0,0,.41,3.44,5.53,5.53,0,0,0,1.23,2,4,4,0,0,0,2,1,14.46,14.46,0,0,0,2.87.25,9.56,9.56,0,0,0,1.55-.08c.41-.09,1-.17,1.56-.25a.59.59,0,0,0,.57-.65m-17.18-.09V217.4a16.24,16.24,0,0,0-.33-3.52A7.94,7.94,0,0,0,187.2,211a4.82,4.82,0,0,0-2.13-1.88,7.25,7.25,0,0,0-3.52-.73,10.63,10.63,0,0,0-3.35.49,11.57,11.57,0,0,0-3.11,1.63v-1a.75.75,0,0,0-.24-.57.78.78,0,0,0-.58-.25h-4.41a.78.78,0,0,0-.58.25.75.75,0,0,0-.24.57v20.94a.82.82,0,0,0,.82.82h4.74a.73.73,0,0,0,.57-.24.74.74,0,0,0,.25-.58V215c.65-.32,1.31-.65,2-.9a4.79,4.79,0,0,1,1.8-.32,7.41,7.41,0,0,1,1.47.16,1.71,1.71,0,0,1,.9.57,2.36,2.36,0,0,1,.41,1.15,10,10,0,0,1,.09,1.72v13.08a.77.77,0,0,0,.24.58.75.75,0,0,0,.57.24h4.75a.75.75,0,0,0,.57-.24.65.65,0,0,0,.41-.58m-29.78-9.08c0,3.19-1.14,4.83-3.51,4.83a3,3,0,0,1-2.62-1.23,6.24,6.24,0,0,1-.9-3.6v-2.78a6.09,6.09,0,0,1,.9-3.6,3,3,0,0,1,2.62-1.22c2.29,0,3.51,1.63,3.51,4.82Zm6.38-2.78a13.64,13.64,0,0,0-.65-4.25,8.87,8.87,0,0,0-1.88-3.19,8.24,8.24,0,0,0-3.11-2.05,12.77,12.77,0,0,0-8.51,0,8.24,8.24,0,0,0-3.11,2.05,8.87,8.87,0,0,0-1.88,3.19,13.64,13.64,0,0,0-.65,4.25v2.78a13.66,13.66,0,0,0,.65,4.26,9,9,0,0,0,1.88,3.19,8.22,8.22,0,0,0,3.11,2,12.6,12.6,0,0,0,8.51,0,8.22,8.22,0,0,0,3.11-2,9,9,0,0,0,1.88-3.19,13.66,13.66,0,0,0,.65-4.26Zm-21.92,11.54v-3.52a.48.48,0,0,0-.25-.49,1.16,1.16,0,0,0-.57-.17h-.08a18.26,18.26,0,0,1-2.13.17c-.65,0-1.55.08-2.7.08a2.83,2.83,0,0,1-1.22-.25,3,3,0,0,1-1.07-.73,3.21,3.21,0,0,1-.65-1.39,8,8,0,0,1-.25-2.21v-3.27a8,8,0,0,1,.25-2.21,4.4,4.4,0,0,1,.65-1.39,3.08,3.08,0,0,1,1.07-.74,3.31,3.31,0,0,1,1.22-.24,25.19,25.19,0,0,1,2.7.08c.66.08,1.39.08,2.13.16h.08a1.16,1.16,0,0,0,.57-.16.49.49,0,0,0,.25-.49v-3.52a.78.78,0,0,0-.16-.57,2.23,2.23,0,0,0-.66-.33c-.57-.16-1.23-.25-2.13-.41a18.15,18.15,0,0,0-3.1-.16,9,9,0,0,0-6.71,2.53c-1.64,1.72-2.54,4.17-2.54,7.45v3.27c0,3.19.82,5.73,2.54,7.44a8.86,8.86,0,0,0,6.71,2.54c1.14,0,2.2-.08,3.1-.16s1.56-.25,2.13-.41a1.36,1.36,0,0,0,.66-.33c.16-.08.16-.33.16-.57m-19.31.32V217.4a16.89,16.89,0,0,0-.32-3.52,8.14,8.14,0,0,0-1.07-2.87,4.79,4.79,0,0,0-2.12-1.88,7.28,7.28,0,0,0-3.52-.73,10.69,10.69,0,0,0-3.36.49,11.38,11.38,0,0,0-3.1,1.63v-1a.86.86,0,0,0-.82-.82h-4.42a.74.74,0,0,0-.57.25.72.72,0,0,0-.25.57v20.94a.74.74,0,0,0,.25.58.73.73,0,0,0,.57.24H110a.82.82,0,0,0,.81-.82V215c.66-.32,1.31-.65,2-.9a4.72,4.72,0,0,1,1.8-.32A7.5,7.5,0,0,1,116,214a1.75,1.75,0,0,1,.9.57,2.46,2.46,0,0,1,.41,1.15,11.21,11.21,0,0,1,.08,1.72v13.08a.82.82,0,0,0,.82.82H123a.73.73,0,0,0,.57-.24.84.84,0,0,0,.41-.58M93.53,226a8.88,8.88,0,0,1-1.55.58,6.37,6.37,0,0,1-1.72.24,4,4,0,0,1-1.88-.32c-.41-.25-.57-.74-.57-1.64v-.33a5.11,5.11,0,0,1,.16-1.23,2.13,2.13,0,0,1,.57-.89,3.38,3.38,0,0,1,1.07-.58,8.75,8.75,0,0,1,1.71-.16h2.21Zm6.3-9.57a9.55,9.55,0,0,0-.65-3.68,6.88,6.88,0,0,0-1.8-2.45,6.59,6.59,0,0,0-2.87-1.39,14,14,0,0,0-3.84-.49,30.15,30.15,0,0,0-3.85.24,18.46,18.46,0,0,0-2.94.57c-.49.17-.74.41-.74.9v3.19a.6.6,0,0,0,.66.74H84c.33,0,.74-.08,1.15-.08s1-.08,1.63-.08,1.23-.08,1.88-.08h1.89a3.84,3.84,0,0,1,2.12.49,2.53,2.53,0,0,1,.82,2.21v1.39H91.32c-3.35,0-5.89.49-7.36,1.55a5.91,5.91,0,0,0-2.29,5.07v.33a7.18,7.18,0,0,0,.57,3.19,6,6,0,0,0,1.56,2.13,6.58,6.58,0,0,0,2.12,1.14,8.52,8.52,0,0,0,2.54.33,8.33,8.33,0,0,0,3-.49,12.18,12.18,0,0,0,2.45-1.31v.65a.74.74,0,0,0,.25.58.73.73,0,0,0,.57.24h4.42a.75.75,0,0,0,.57-.24.77.77,0,0,0,.24-.58V216.41Zm-28.14,6.22a3.13,3.13,0,0,1-1.15,2.54,7.3,7.3,0,0,1-4.17.9H63.1V218.7h4.42c1.55,0,2.7.33,3.27,1.07a3.94,3.94,0,0,1,.9,2.45Zm-.16-11.7a6.5,6.5,0,0,1-.17,1.23,2,2,0,0,1-.65,1,4.46,4.46,0,0,1-1.23.66,6.48,6.48,0,0,1-2,.24H63.1v-6.79h3a8.77,8.77,0,0,1,4.25.74,2.58,2.58,0,0,1,1.23,2.37v.57Zm6.7,11.29a6.12,6.12,0,0,0-1-3.52,6.2,6.2,0,0,0-2.53-2.29,5.54,5.54,0,0,0,2.45-2.29,7.19,7.19,0,0,0,.9-3.43V210a8.27,8.27,0,0,0-.9-3.93,6.82,6.82,0,0,0-2.53-2.53,12.1,12.1,0,0,0-3.93-1.39,31.35,31.35,0,0,0-5.07-.41h-2c-.65,0-1.31.08-2,.08a12.55,12.55,0,0,0-1.8.16c-.57.09-1,.09-1.31.17a2.17,2.17,0,0,0-2.13,2.62V228.6a2.86,2.86,0,0,0,.5,1.88,3.3,3.3,0,0,0,1.63.74,7.37,7.37,0,0,0,1.39.16c.57.09,1.15.09,1.8.17s1.31.08,2,.08h2a29.09,29.09,0,0,0,4.83-.41,11.29,11.29,0,0,0,3.92-1.39,7.67,7.67,0,0,0,2.7-2.7,8.68,8.68,0,0,0,1-4.34Z"/></g></svg>