<svg xmlns="http://www.w3.org/2000/svg" viewBox="0 0 512 512"><path d="M472 250.3v9.5h15V272h-15v57.9h-21.3v-76.4c0-16.4 8.7-29.4 30.1-29.4 8.7 0 15.3 1.8 18.5 3.4V241c-3.9-2.9-9.8-4.8-15.6-4.8-7.5.1-11.7 6.1-11.7 14.1zm-110.8 38.6c0-32 18.5-44.2 39-44.2 21.9-.3 38.8 12.2 38.8 44.2.3 31.7-18.7 43.6-38.8 43.6-20 0-39-11.6-39-43.6zm22.4 0c0 21.4 4.5 31.2 16.6 31.2 11.9 0 16.9-9.8 16.6-31.2-.3-22-5-32.3-16.6-32-12.1 0-16.6 9.2-16.6 32zm-260.8 43.6c-15.8 0-26.6-8.2-26.6-24.1s10.8-23.8 26.1-27.5l25.1-6.1v-5.3c0-10.6-6.1-13.8-12.7-13.8-7.9 0-15.3 5-15.3 14.5H99.9c0-11.1 7.4-25.9 34.6-25.9 15.8 0 34 2.4 34 26.7v41.5c0 7.9.9 14 1.8 17.5h-20c-.3-1.3-1.1-4-1.6-5.8-2.5 2.1-11.5 8.4-25.9 8.3zm7.7-14c7.4 0 14.2-3.7 16.9-6.1v-25.9l-10.8 2.6c-9.2 2.6-18.7 7.7-18.7 17.2.2 8.2 4.6 12.2 12.6 12.2zm-79.8 11.6H12.9V226.7h42.5c14.5 0 27.4 6.6 27.4 23 0 15.6-11.3 21.4-22.2 23.8 10.8.5 27.7 7.9 27.7 26.7-.2 20.2-17.4 29.9-37.6 29.9zm-14.8-61.3h5.8c11.1 0 17.9-4.8 17.9-16.1s-8.2-14.5-17.9-14.5h-5.8v30.6zm27.7 29.9c-.3-12.7-8.4-18.2-20.3-18.2h-7.6v38.1h7.6c14.2-.1 20.5-7.2 20.3-19.9zm168.5-21.4v52.9h21.1v-53.9c0-13.5-2.4-31.5-26.1-31.5-11.1 0-20.8 6.4-24 8.5v-6.1H182v83.3h21.1v-64c3.4-2.6 9.5-7.1 16.1-7.1 10.2-.4 12.9 5.7 12.9 17.9zm34.3-50.8v103.4h21.4V226.2h-21.4v.3zm43.2 52.9 26.9-32.5h-18.2l-30.6 36.5 23.7 46.8h26.1l-27.9-50.8zM181.7 402.6v3.7h-55.1c0 18 3.7 29.1 16.6 29.1 10.3 0 14.2-7.4 15.6-18.2H181c-4.5 23-20.8 30.4-37.7 30.4-21.4 0-39-11.1-39-45 0-29.1 17.4-42.8 39-42.8 20.5-.1 38.5 13.7 38.4 42.8zm-22.7-7.4c-.5-10.3-3.7-23.3-16.1-23.3s-15.3 13.2-16.4 23.3H159zM298.6 428c0 7.9.9 14 1.8 17.5h-20c-.3-1.3-1.1-4-1.6-5.8-2.6 1.8-11.6 8.2-26.1 8.2-16.1 0-26.6-8.2-26.6-24.1 0-15.9 10.6-23.8 26.1-27.5l25.1-6.1V385c0-10.6-6.1-13.8-12.7-13.8-7.9 0-15.3 5-15.3 14.5h-19.5c0-11.1 7.4-25.9 34.6-25.9 15.8 0 34 2.4 34 26.7V428h.2zm-21.1-26.4-10.8 2.6c-9.2 2.6-18.7 7.7-18.7 17.2 0 8.2 4.5 12.2 12.4 12.2 7.4 0 14.2-3.7 16.9-6.1v-25.9h.2zm-84.2 43.6h21.3V341.8h-21.4v103.4h.1zm164.6-85.4c-11.1 0-20.8 6.4-24 8.5v-6.1h-21.1v83.3h21.1v-64c3.4-2.6 9.5-7.1 16.1-7.1 10.3 0 12.9 6.1 12.9 18.2v52.9H384v-53.9c0-13.6-2.4-31.8-26.1-31.8zm92.8-18h21.4v103.4h-21.4v-6.4c-.9.9-9.8 8.7-22.4 8.7-16.1 0-33-9.8-33-44.2 0-36.2 21.4-43.4 34.3-43.4 9.8 0 16.9 3.7 21.1 7.7v-25.8zm0 39.9c-2.1-3.4-8.2-9-15.6-9-8.7 0-17.1 5.6-17.1 30.4 0 25.9 7.9 31.2 17.4 31.2 7.1 0 14-6.4 15.6-9v-43.6h-.3zM12.8 445.2h22.9V341.8H12.8v103.4zm59.9-72.5v-10.8H51.4v83.3h21.4v-47.6c0-20.4 17.7-22 28-21.4V360c-16.4-1.8-26.2 8.2-28.1 12.7zM256.8 98.3h-1.6c0-16.9-68.3-18.5-68.3-34.2h-1.6v16.4c0 19.6 68.6 17.7 69.9 36.5h1.6c1.3-18.8 69.9-16.9 69.9-36.5V64.1h-1.6c0 15.6-68.3 17.5-68.3 34.2zm68.3 2.9c0 15.6-68.3 17.5-68.3 34.2h-1.6c0-16.9-68.3-18.5-68.3-34.2h-1.6v16.4c0 19.6 68.6 17.7 69.9 36.5h1.6c1.3-18.8 69.9-16.9 69.9-36.5v-16.4h-1.6zm0 37.3c0 15.6-68.3 17.5-68.3 34.2h-1.6c0-16.9-68.3-18.5-68.3-34.2h-1.6v16.4c0 19.6 68.6 17.7 69.9 36.5h1.6c1.3-18.8 69.9-16.9 69.9-36.5v-16.4h-1.6z" fill="#00f"/></svg>