<svg viewBox="0 0 200 200" xmlns="http://www.w3.org/2000/svg"><path d="M166.583 98.41v2.929h4.625v3.762h-4.625v17.852h-6.568V99.397c0-5.057 2.683-9.065 9.281-9.065 2.682 0 4.717.555 5.704 1.048v4.163c-1.202-.895-3.022-1.48-4.81-1.48-2.312.03-3.607 1.88-3.607 4.347Zm-34.163 11.901c0-9.866 5.704-13.628 12.025-13.628 6.752-.092 11.963 3.762 11.963 13.628.093 9.774-5.766 13.443-11.963 13.443-6.166 0-12.025-3.576-12.025-13.443Zm6.907 0c0 6.599 1.387 9.62 5.118 9.62 3.669 0 5.211-3.021 5.118-9.62-.092-6.783-1.541-9.958-5.118-9.866-3.731 0-5.118 2.837-5.118 9.866Zm-80.411 13.443c-4.872 0-8.202-2.528-8.202-7.43 0-4.903 3.33-7.338 8.048-8.479l7.739-1.881v-1.634c0-3.268-1.881-4.255-3.916-4.255-2.436 0-4.718 1.542-4.718 4.471h-6.012c0-3.423 2.282-7.986 10.668-7.986 4.872 0 10.483.74 10.483 8.232v12.796c0 2.436.278 4.316.555 5.396h-6.166c-.093-.401-.34-1.234-.494-1.789-.77.648-3.545 2.59-7.985 2.559Zm2.374-4.316c2.281 0 4.378-1.141 5.21-1.881v-7.986l-3.33.802c-2.836.802-5.765 2.374-5.765 5.303.062 2.529 1.418 3.762 3.885 3.762Zm-24.605 3.576H25.031v-31.88h13.104c4.47 0 8.448 2.035 8.448 7.091 0 4.81-3.484 6.598-6.845 7.338 3.33.154 8.54 2.436 8.54 8.232-.061 6.229-5.364 9.219-11.593 9.219Zm-4.563-18.9h1.789c3.422 0 5.519-1.48 5.519-4.964 0-3.484-2.529-4.47-5.52-4.47h-1.788v9.434Zm8.54 9.219c-.092-3.916-2.589-5.612-6.258-5.612H32.06v11.748h2.343c4.378-.031 6.32-2.22 6.259-6.136Zm51.954-6.598v16.31h6.505v-16.618c0-4.163-.74-9.713-8.047-9.713-3.422 0-6.413 1.974-7.4 2.621v-1.88h-6.506v25.683h6.506v-19.733c1.048-.802 2.93-2.189 4.964-2.189 3.145-.124 3.978 1.757 3.978 5.519Zm10.575-15.663v31.881h6.598V90.979h-6.598v.093Zm13.32 16.31 8.294-10.02h-5.612l-9.435 11.254 7.308 14.429h8.047l-8.602-15.663Zm-39.435 37.986v1.141H60.087c0 5.55 1.141 8.972 5.118 8.972 3.176 0 4.379-2.282 4.81-5.612h6.845c-1.387 7.092-6.413 9.374-11.624 9.374-6.598 0-12.024-3.423-12.024-13.875 0-8.972 5.365-13.196 12.024-13.196 6.321-.031 11.87 4.224 11.84 13.196Zm-6.999-2.282c-.154-3.175-1.14-7.184-4.964-7.184-3.823 0-4.717 4.07-5.056 7.184h10.02Zm43.042 10.113c0 2.436.278 4.317.555 5.396h-6.166c-.093-.401-.339-1.233-.494-1.788-.801.555-3.576 2.528-8.047 2.528-4.964 0-8.201-2.528-8.201-7.431 0-4.902 3.268-7.338 8.047-8.479l7.739-1.88v-1.604c0-3.268-1.881-4.254-3.916-4.254-2.436 0-4.717 1.541-4.717 4.47h-6.013c0-3.422 2.282-7.985 10.669-7.985 4.871 0 10.483.74 10.483 8.232v12.795h.061Zm-6.505-8.139-3.33.801c-2.837.802-5.766 2.374-5.766 5.303 0 2.529 1.387 3.762 3.823 3.762 2.282 0 4.378-1.141 5.211-1.881v-7.985h.062Zm-25.961 13.443h6.567v-31.881h-6.598v31.881h.03Zm50.75-26.331c-3.423 0-6.413 1.973-7.4 2.62v-1.88h-6.506v25.683h6.506v-19.733c1.048-.801 2.929-2.189 4.964-2.189 3.176 0 3.977 1.881 3.977 5.612v16.31h6.506v-16.619c0-4.193-.74-9.804-8.047-9.804Zm28.612-5.55h6.599v31.881h-6.599v-1.974c-.277.278-3.021 2.683-6.906 2.683-4.964 0-10.175-3.022-10.175-13.628 0-11.162 6.598-13.382 10.576-13.382 3.021 0 5.21 1.141 6.505 2.375v-7.955Zm0 12.302c-.647-1.048-2.528-2.775-4.809-2.775-2.683 0-5.273 1.727-5.273 9.373 0 7.986 2.436 9.62 5.365 9.62 2.189 0 4.317-1.973 4.81-2.775v-13.443h-.093ZM25 158.503h7.06v-31.881H25v31.881Zm18.469-22.354v-3.33H36.9v25.684H43.5v-14.677c0-6.29 5.458-6.783 8.634-6.598v-4.995c-5.057-.555-8.079 2.529-8.664 3.916Zm56.762-84.604h-.493c0-5.211-21.059-5.704-21.059-10.545h-.493v5.056c0 6.044 21.151 5.458 21.552 11.254h.493c.401-5.796 21.552-5.21 21.552-11.254V41h-.493c0 4.81-21.059 5.396-21.059 10.545Zm21.059.894c0 4.81-21.059 5.395-21.059 10.545h-.493c0-5.211-21.059-5.705-21.059-10.545h-.493v5.056c0 6.044 21.151 5.458 21.552 11.254h.493c.401-5.796 21.552-5.21 21.552-11.254V52.44h-.493Zm0 11.5c0 4.81-21.059 5.396-21.059 10.545h-.493c0-5.21-21.059-5.704-21.059-10.545h-.493v5.057c0 6.043 21.151 5.457 21.552 11.254h.493c.401-5.797 21.552-5.21 21.552-11.254v-5.057h-.493Z" fill="#00F"/></svg>