<svg xmlns="http://www.w3.org/2000/svg" viewBox="0 0 256 256"><path fill="url(#paint0_linear)" d="M0 0h256v256H0z"/><path fill="#fff" d="M128.005 96.289c3.13-17.793 80.292-20.259 80.292-38.445a.86.86 0 0 1 .858-.844c.487 0 .844.389.844.843V77.11c0 22.886-77.599 19.96-81.28 41.927-.147.491-.243.874-.714.874-.47 0-.567-.383-.697-.874C123.611 97.069 46 99.995 46 77.109V57.844a.86.86 0 0 1 1.719 0c0 18.186 77.156 20.652 80.286 38.445m0 39.133c3.13-17.815 80.292-20.253 80.292-38.443 0-.474.388-.854.858-.854.487 0 .844.38.844.854v19.241c0 22.936-77.599 19.982-81.28 41.925-.147.504-.243.873-.714.873-.47 0-.567-.369-.697-.873C123.611 136.202 46 139.156 46 116.22V96.98c0-.475.385-.855.86-.855.471 0 .859.38.859.854 0 18.19 77.156 20.628 80.286 38.443m0 40.104c3.13-17.815 80.292-20.242 80.292-38.451 0-.455.388-.841.858-.841.487 0 .844.386.844.841v19.249c0 22.908-77.599 19.959-81.28 41.941-.147.493-.243.868-.714.868-.47 0-.567-.375-.697-.868C123.611 176.283 46 179.232 46 156.324v-19.249c0-.455.385-.841.86-.841.471 0 .859.386.859.841 0 18.209 77.156 20.636 80.286 38.451"/><defs><linearGradient id="paint0_linear" x1="128" x2="128" y1="0" y2="256" gradientUnits="userSpaceOnUse"><stop stop-color="#1D4A6E"/><stop offset="1" stop-color="#337998"/></linearGradient></defs></svg>