<svg xmlns="http://www.w3.org/2000/svg" viewBox="0 0 512 512"><path fill="#01afe8" d="M348.9 305c-3.7 5.8-1.9 10.4-.8 14.8 2.5 10.5 7.5 19.9 12.4 29.4 1.2 2.3 3.5 4.9.5 7.3-2.6 2.1-5.2.2-7.5-1.2-9.2-5.8-15.9-14.1-22.4-22.6-7.8-10.3-14.2-21.4-20.4-33.5-3.5 4.4-2.1 8.4-1.1 12.2 5.3 20.6 15.7 38.6 29 54.8 5 6 3.8 8.8-1.7 13.3-22 17.9-46.3 31.4-72.8 41.2-3.7 1.4-7 1.4-10.7 0-27.4-10.3-52.6-24.3-75.1-43.1-4.2-3.5-3.7-5.8-.7-9.6 13.9-17.4 25.2-36.2 30.5-58.1.9-3.6 2-7.2-1.2-11-3.8 6.7-7.2 13.2-11.1 19.4-7.7 12.5-16.2 24.4-27.7 33.8-1.9 1.6-4 3-6.2 4.1-1.7.9-3.7 2-5.6.3-2.2-1.9-1.2-4-.2-6.1 3.2-6.7 6.9-13.2 9.5-20.1 3-7.6 6.7-15.4 3.6-25.2-5.7 7.9-10.4 15.4-16 22-12.7 15-10.1 13.1-18.4-1-24.9-42.3-31.5-87.7-21.3-135.5 2.6-12.2 7.7-23.7 15.5-33.5 11.7-14.7 27-20.5 45.5-16.5 6.7 1.4 12.5 4.8 16.3 10.8 4.4 6.9 3.9 15.3-2.4 20.2-5.5 4.3-2.7 6.1 1.1 8.3 9.8 5.8 28.4 3.9 36.2-4.5 9.8-10.4 12-23.3 8.2-36.7-2.6-9.4-16.3-15-26.9-10.8-7.7 3-6.1-1.8-5.6-5.4.7-5.3 4.1-9.8 8.9-11.2 16-4.7 31.7-12.3 49.2-8.5 13.6 2.9 20.3 9.6 22.2 23.4 1.4 10.3 1.6 20.8 3.2 31.1 3.5 22.4 22 30.7 41.5 23.2 4.4-1.7 8.7-3.8 2-9.4-8.1-6.9-5.7-19.2 4.1-26.1 13.6-9.6 36-7.3 49.6 5.4 13.6 12.8 20.1 29.4 23.2 47.3 8.2 48.2-.3 93.2-26.5 134.8-3.3 5.3-5.4 5.7-9.6 1-7.3-8.5-14.2-17.5-20.3-28.5"/></svg>