<svg xmlns="http://www.w3.org/2000/svg" viewBox="0 0 512 512"><path d="m312 320.8 25-17.9h-12.4l-30.6 22v-22h-8.7v41.9h8.7v-11.1l11.2-8 20.9 19.1h12.1zm-57.4-1.3L242 319c-8.2-.4-9.8-1.8-9.8-4.1 0-4.4 7.7-5.3 14.2-5.3 10.5 0 15.7 2.1 19.8 4.3l.9.5 3.7-6.8-.8-.6c-4.3-2.4-10.5-4.8-23.5-4.8-14.5 0-22.9 4.8-22.9 13.2 0 9.2 9.2 10.9 17.2 11.4l12.6.6c9.1.4 10.7 1.8 10.7 4.6 0 4-5.6 6.3-15.6 6.3-11 0-17.7-2.9-21.3-5.2l-.9-.6-4.5 6.5.9.6c6.3 4.1 14.5 6 25.7 6 15.5 0 24.4-5.2 24.4-14.1.2-9.7-8.7-11.5-18.2-12M192 323h-19v-12.6h19c10.5 0 12.4 2.1 12.4 6.1s-2.1 6.5-12.4 6.5m.8-20.1h-28.5v41.9h8.7v-14.3h19.8c17 0 20.6-7.7 20.6-14.2-.1-9-6.8-13.4-20.6-13.4m67-28.2h-20.6l10.2-15.1zm-10.4-29-29.7 44.2h9.3l5.2-7.7H265l5.3 7.7h9.6zm142.2 29H371l10.2-15.1zm-10.4-29-29.7 44.2h9.3l5.2-7.7h30.7l5.3 7.7h9.7zm56.9 20v7.5h19.8v6.5c-3.7 2.4-8.9 3.6-15.8 3.6-13 0-19.3-4.7-19.3-14.4 0-9.5 6.5-14.4 19.3-14.4 9.6 0 13.8 2 17.3 4.9l.8.7 4.8-6.1-.8-.7c-5.3-4.3-12.1-6.2-22.1-6.2-17.5 0-28.4 8.3-28.4 21.8s10.6 21.6 28.4 21.6c10.2 0 18.1-2.3 23.4-6.9l.4-.3v-17.7h-27.8M346.5 248l-13.4 28-17.5-30.2L299 276l-13.9-28h-9.4l22.3 44.5 17.6-31.3 18.3 31.3 21.7-44.5zM173 255.6h19.1c9 0 11.3.9 11.3 4.5 0 3.8-2.5 4.9-11.3 4.9H173zm18.8 26.8H173v-10.1h18.8c12.1 0 14.2 1.2 14.2 5 0 4.1-2.7 5.1-14.2 5.1m15.8-14.6c3-1.7 4.4-4.3 4.4-8.1 0-10.3-9.4-11.7-19.5-11.7h-28.3v41.9h28.3c11.2 0 22.2-1 22.2-12.3 0-4.8-2.5-8.1-7.1-9.8"/><path fill="#900" d="M90.9 130.7v234L150.2 248zm-6.4 234.1V222.9l-35.9 70.8z"/></svg>