<?xml version="1.0" encoding="utf-8"?>
<!-- Generator: Adobe Illustrator 22.1.0, SVG Export Plug-In . SVG Version: 6.00 Build 0)  -->
<svg version="1.1" id="Layer_1" xmlns="http://www.w3.org/2000/svg" xmlns:xlink="http://www.w3.org/1999/xlink" x="0px" y="0px"
	 viewBox="0 0 512 512" style="enable-background:new 0 0 512 512;" xml:space="preserve">
<style type="text/css">
	.st0{fill:#990000;}
</style>
<path id="path67195" d="M312,320.8l25-17.9h-12.4l-30.6,22v-22h-8.7v41.9h8.7v-11.1l11.2-8l20.9,19.1h12.1L312,320.8 M254.6,319.5
	L242,319c-8.2-0.4-9.8-1.8-9.8-4.1c0-4.4,7.7-5.3,14.2-5.3c10.5,0,15.7,2.1,19.8,4.3l0.9,0.5l3.7-6.8L270,307
	c-4.3-2.4-10.5-4.8-23.5-4.8c-14.5,0-22.9,4.8-22.9,13.2c0,9.2,9.2,10.9,17.2,11.4l12.6,0.6c9.1,0.4,10.7,1.8,10.7,4.6
	c0,4-5.6,6.3-15.6,6.3c-11,0-17.7-2.9-21.3-5.2l-0.9-0.6l-4.5,6.5l0.9,0.6c6.3,4.1,14.5,6,25.7,6c15.5,0,24.4-5.2,24.4-14.1
	C273,321.8,264.1,320,254.6,319.5 M192,323H173v-12.6H192c10.5,0,12.4,2.1,12.4,6.1C204.4,320.5,202.3,323,192,323z M192.8,302.9
	h-28.5v41.9h8.7v-14.3h19.8c17,0,20.6-7.7,20.6-14.2C213.3,307.3,206.6,302.9,192.8,302.9 M259.8,274.7h-20.6l10.2-15.1L259.8,274.7
	z M249.4,245.7l-29.7,44.2h9.3l5.2-7.7H265l5.3,7.7h9.6L249.4,245.7 M391.6,274.7H371l10.2-15.1L391.6,274.7z M381.2,245.7
	l-29.7,44.2h9.3l5.2-7.7h30.7l5.3,7.7h9.7L381.2,245.7 M438.1,265.7v7.5h19.8v6.5c-3.7,2.4-8.9,3.6-15.8,3.6
	c-13,0-19.3-4.7-19.3-14.4c0-9.5,6.5-14.4,19.3-14.4c9.6,0,13.8,2,17.3,4.9l0.8,0.7l4.8-6.1l-0.8-0.7c-5.3-4.3-12.1-6.2-22.1-6.2
	c-17.5,0-28.4,8.3-28.4,21.8c0,13.5,10.6,21.6,28.4,21.6c10.2,0,18.1-2.3,23.4-6.9l0.4-0.3v-17.7H438.1 M346.5,248l-13.4,28
	l-17.5-30.2L299,276l-13.9-28h-9.4l22.3,44.5l17.6-31.3l18.3,31.3l21.7-44.5H346.5 M173,255.6h19.1c9,0,11.3,0.9,11.3,4.5
	c0,3.8-2.5,4.9-11.3,4.9H173V255.6z M191.8,282.4H173v-10.1h18.8c12.1,0,14.2,1.2,14.2,5C206,281.4,203.3,282.4,191.8,282.4
	L191.8,282.4z M207.6,267.8c3-1.7,4.4-4.3,4.4-8.1c0-10.3-9.4-11.7-19.5-11.7h-28.3v41.9h28.3c11.2,0,22.2-1,22.2-12.3
	C214.7,272.8,212.2,269.5,207.6,267.8"/>
<path id="path67203" class="st0" d="M90.9,130.7v234L150.2,248L90.9,130.7 M84.5,364.8V222.9l-35.9,70.8L84.5,364.8"/>
</svg>
