<svg viewBox="0 0 200 200" xmlns="http://www.w3.org/2000/svg"><g clip-path="url(#a)"><path d="M40 59.5v15.82l13.882-2.879L40 59.5Z" fill="#A21D5C"/><path d="M53.882 72.441 40 75.324V97.44L49.088 116l4.794-43.559Z" fill="url(#b)"/><path d="m69.823 88.912-15.941-16.47L49.088 116l16.691-21.74c2.38-3.145 4.044-5.348 4.044-5.348Z" fill="url(#c)"/><path d="M51.176 35.059 40.053 47.617l-.053.06v11.817L53.882 72.44l-2.706-37.382Z" fill="url(#d)"/><path d="M40 59.494v.006l13.882 12.941L40 59.494Z" fill="#A21D5C"/><path d="M40 59.494v.006l13.882 12.941L40 59.494Z" fill="url(#e)"/><path d="M68.45 25.059 68.441 25h-6.147l-.064.059h6.22Z" fill="url(#f)"/><path d="M71.942 46.962 68.45 25.059h-6.212l-11.061 10 20.765 12.07v-.167Z" fill="url(#g)"/><path d="M71.942 47.13 51.177 35.058l2.706 37.382L71.97 47.147l-.03-.018Z" fill="url(#h)"/><path d="m69.897 88.912-4.118 5.347c-5.956 7.865-16.415 21.635-16.688 21.741l29.559-1.382-8.753-25.706Z" fill="url(#i)"/><path d="M65.78 94.259 49.09 116c.271-.118 10.73-13.877 16.69-21.741Z" fill="url(#j)"/><path d="M65.78 94.259 49.09 116c.271-.118 10.73-13.877 16.69-21.741Z" fill="url(#k)"/><path d="m84.206 91.647-10.02-18.868-.01-.014-4.293 16.147 8.764 25.706.006-.027 5.553-22.944Z" fill="url(#l)"/><path d="m98.442 88.088.617-32.762-.003-.003-.026.02-24.853 17.421.011.01 24.254 15.314Z" fill="url(#m)"/><path d="M99.03 55.332 81.206 60l-7.03 12.764 24.854-17.42v-.012Z" fill="url(#n)"/><path d="m81.206 60 17.823-4.668.03-.008-8.941-15.089-18.147 6.912L81.206 60Z" fill="url(#o)"/><path d="m98.406 88.097-14.2 3.55-5.553 22.944.003.012 19.76-26.477-.01-.03Z" fill="url(#p)"/><path d="m98.427 88.108-.012.018-19.759 26.477v.002l.01.006 16.393-5.729 3.377-20.762-.01-.012Z" fill="url(#q)"/><path d="m98.441 88.088 14.73 24.959.006.011 14.206-13.764-28.939-11.206h-.003Z" fill="url(#r)"/><path d="m99.059 55.353.026-.01-.015-.002-.011.012Z" fill="url(#s)"/><path d="m98.441 88.088 21.206-27.353-.223-.059-20.312-5.338-.026.006-.027.009.012-.012.012-.012-.024-.006v.003l-.618 32.762Z" fill="url(#t)"/><path d="m98.441 88.088 30.883-15.264-9.677-12.089-21.206 27.353Z" fill="url(#u)"/><path d="m66.97 118.117 8.971 19.9.06.13 2.646-23.53-11.676 3.5Z" fill="url(#v)"/><path d="m75.942 138.017-8.971-19.9-7.059 8.03 16.03 11.955v-.085Z" fill="url(#w)"/><path d="M78.647 114.617 76 138.147l15.47-5.236-12.823-18.294Z" fill="url(#x)"/><path d="M40 117.971v12L49.088 116 40 117.971Z" fill="url(#y)"/><path d="m49.088 116 10.823 10.147 7.06-8.029L49.087 116Z" fill="url(#z)"/><path d="M78.647 114.617 49.087 116l17.883 2.117 11.677-3.5Z" fill="url(#A)"/><path d="M40 97.441v20.53L49.088 116 40 97.441Z" fill="url(#B)"/><path d="M59.912 126.147 49.088 116 40 129.971v5.264l14.206 8.559 5.706-17.647Z" fill="url(#C)"/><path d="M75.941 138.147v-.044l-16.03-11.956-5.705 17.648 21.735-5.633v-.015Z" fill="url(#D)"/><path d="m75.941 138.162-21.735 5.633.041.011 49.809 15.333.032.008-28.088-21-.059.015Z" fill="#E4332A"/><path d="M40 135.25v20.35l14.206-11.806L40 135.25Z" fill="#D50B52"/><path d="m76 138.147 33.676.853-18.205-6.088L76 138.147Z" fill="url(#E)"/><path d="m109.677 139 3.5-25.941-21.706 19.853L109.677 139Z" fill="url(#F)"/><path d="m109.677 139 30.353 3.588-26.853-29.529-3.5 25.941Z" fill="url(#G)"/><path d="m133.265 119.823 12.5-4.588-.018-.029-6.364-11.971-.056-.018-.003.018-11.941-3.941-14.206 13.765 20.088 6.764Z" fill="url(#H)"/><path d="M145.759 115.203h-.003v.032h.003v-.032Z" fill="url(#I)"/><path d="M137.477 94.508a50.79 50.79 0 0 0-1.259-.638c.417.215.838.427 1.259.638Z" fill="url(#J)"/><path d="m139.015 91.176-9.676-18.353-1.942 26.47 10.403-4.558.068-.03-.376-.197c-.421-.211-.842-.423-1.271-.626l-.159-.076a63.323 63.323 0 0 0 2.953-2.63Z" fill="url(#K)"/><path d="M140.03 95.941c-.688-.432-1.435-.78-2.127-1.206h-.117l-10.403 4.56 11.944 3.923.703-7.277Z" fill="url(#L)"/><path d="m139.327 103.217-11.944-3.923 11.941 3.941.003-.018Z" fill="url(#M)"/><path d="m139.327 103.217-11.944-3.923 11.941 3.941.003-.018Z" fill="url(#N)"/><path d="m145.805 115.206 8.389-5.794c-3.261-5.383-7.967-9.851-14.118-13.406l-.706 7.235 6.368 11.971.067-.006Z" fill="url(#O)"/><path d="m145.75 115.206-6.367-11.971 6.365 11.971h.002Z" fill="url(#P)"/><path d="m145.75 115.206-6.367-11.971 6.365 11.971h.002Z" fill="url(#Q)"/><path d="m148.97 72.882-19.647-.059 9.736 18.412a34.407 34.407 0 0 0 9.911-18.353Z" fill="url(#R)"/><path d="m130.821 46.48-.035.008-11.091 14.189-.048.058 9.677 12.089v-.01l1.497-26.334Z" fill="url(#S)"/><path d="m130.785 46.488-31.674 8.85 20.312 5.338h.271l11.091-14.188Z" fill="url(#T)"/><path d="m99.1 55.312-.041.011.023.006.018-.017Z" fill="url(#U)"/><path d="m130.823 46.44 1.585-14.234c-.361-.221-.723-.445-1.085-.639l-14.529 6.206L99.1 55.32l31.723-8.88Z" fill="url(#V)"/><path d="m130.856 46.456-.033-.015.033.015Z" fill="url(#W)"/><path d="m99.07 55.34.015.004.027-.006-.03-.009-.012.012Z" fill="url(#X)"/><path d="m99.07 55.34.015.004.027-.006-.03-.009-.012.012Z" fill="url(#Y)"/><path d="m130.82 46.48.003-.039-.038.047.035-.008Z" fill="url(#Z)"/><path d="m130.82 46.48.003-.039-.038.047.035-.008Z" fill="url(#aa)"/><path d="M130.823 46.441 99.1 55.312l-.018.018.03.009 31.673-8.85.038-.048Z" fill="url(#ab)"/><path d="M130.823 46.441 99.1 55.312l-.018.018.03.009 31.673-8.85.038-.048Z" fill="url(#ac)"/><path d="m113.8 37.706-13.477-.265-1.264 17.883 17.735-17.56-2.994-.058Z" fill="url(#ad)"/><path d="M91.383 25.059H89.65l.468 15.176 8.941 15.088 1.265-17.882-8.87-12.382h-.073Z" fill="url(#ae)"/><path d="M91.383 25.059V25h-1.736l.003.059h1.733Z" fill="url(#af)"/><path d="M91.412 25h-.03v.059h.03V25Z" fill="url(#ag)"/><path d="M89.65 25.059 89.647 25h-1.882l-.041.059h1.926Z" fill="url(#ah)"/><path d="m71.97 47.147 18.148-6.912-.468-15.176h-1.926l-.018.023-15.735 22.065Z" fill="url(#ai)"/><path d="m71.97 47.147 15.736-22.065v-.023H68.45l3.491 21.902.03.186Z" fill="url(#aj)"/><path d="M87.706 25.059V25H68.441l.01.059h19.255Z" fill="url(#ak)"/><path d="m74.177 72.765-20.294-.324 16 16.471 4.294-16.147Z" fill="url(#al)"/><path d="m95.06 108.883-16.395 5.729-.018.006 12.824 18.294 3.588-24.029Z" fill="url(#am)"/><path d="m95.059 108.882 18.094 4.171.017-.006-14.73-24.96-.005.033-3.376 20.762Z" fill="url(#an)"/><path d="M71.971 47.148 53.883 72.442 81.206 60l-9.235-12.852Z" fill="url(#ao)"/><path d="M81.206 60 53.883 72.441l20.294.324L81.207 60Z" fill="url(#ap)"/><path d="M109.676 139 76 138.147l28.088 21 .009-.029L109.676 139Z" fill="url(#aq)"/><path d="m54.247 143.806-.006.032 10.936 13.456 38.879 1.853v-.009l-49.809-15.332Z" fill="url(#ar)"/><path d="m54.241 143.838-.035-.044L40 155.647v6.823l25.177-5.176-10.936-13.456Z" fill="url(#as)"/><path d="M49.618 25H40v.059h9.627l-.01-.059Z" fill="url(#at)"/><path d="m51.176 35.059-1.55-10H40v22.558h.053L51.176 35.06Z" fill="url(#au)"/><path d="M62.23 25.059H49.642l1.535 10 11.053-10Z" fill="#2D98D5"/><path d="M62.239 25.059h-.01l-11.052 10 11.062-10Z" fill="#2D98D5"/><path d="m145.765 115.235-12.5 4.589 6.764 22.764 5.736-27.35v-.003Z" fill="url(#av)"/><path d="M145.779 115.294h.018l-.018-.018v.018Z" fill="url(#aw)"/><path d="M145.812 115.294h-.018l-5.759 27.303h.021l19.764-11.421c0-1.073-.058-2.097-.085-3.064-4.25-3.883-13.541-12.477-13.923-12.818Z" fill="url(#ax)"/><path d="m154.236 109.471-8.315 5.735-.024.018 10.118-.9.662-.059v.033h.038a35.86 35.86 0 0 0-2.491-4.915l-.041.026.053.062Z" fill="#BD1823"/><path d="M156.688 114.297v-.032l-.662.058h.342l.32-.026Zm-10.923.938.132-.011.024-.018h-.112l-.044.029Zm.155-.029 8.315-5.735-.041-.065-8.388 5.8h.114Z" fill="#BD1823"/><path d="m145.897 115.223-.083.056 13.892 12.75c-.322-5.006-1.324-9.574-3.006-13.706h-.333l-10.47.9Z" fill="url(#ay)"/><path d="m145.765 115.235.05.045.082-.056-.132.011Z" fill="url(#az)"/><path d="M156.374 114.323h-.359l-10.118.9 10.477-.9Z" fill="#BD1823"/><path d="M156.374 114.323h-.359l-10.118.9 10.477-.9Z" fill="url(#aA)"/><path d="m145.897 115.224-.132.011.132-.011Z" fill="#BD1823"/><path d="m145.897 115.224-.132.011.132-.011Z" fill="url(#aB)"/><path d="m113.177 113.059 26.853 29.529-6.765-22.765-20.088-6.764Z" fill="url(#aC)"/><path d="m95.059 108.883-3.588 24.029 21.706-19.853-.024-.006-18.094-4.17Z" fill="url(#aD)"/><path d="M104.097 159.118h.056l.061-.03 35.815-16.5L109.676 139l-5.579 20.118Z" fill="url(#aE)"/><path d="m104.056 159.147-38.88-1.853L73.295 175h17.648l13.147-15.853h-.033Z" fill="url(#aF)"/><path d="M90.941 175h21.53l-8.383-15.853L90.941 175Z" fill="url(#aG)"/><path d="M40 162.47V175h8.294l16.883-17.706L40 162.47Z" fill="url(#aH)"/><path d="m122.306 169.559 11.014-12.115-28.235 1.644-1.009.059L112.544 175h3.97c.234-.037.47-.061.706-.07l.227-.024 4.859-5.347Z" fill="url(#aI)"/><path d="m104.088 159.147 1.009-.059-1.009.059Z" fill="url(#aJ)"/><path d="m117.206 174.93.235-.018h-.014l-.221.018Z" fill="url(#aK)"/><path d="m105.097 159.088 28.227-1.647-.003.003.032-.003 6.677-14.853-35.815 16.5h.882Z" fill="url(#aL)"/><path d="m105.097 159.088 28.223-1.644.003-.003-28.226 1.647Z" fill="url(#aM)"/><path d="m105.097 159.088 28.223-1.644.003-.003-28.226 1.647Z" fill="url(#aN)"/><path d="m122.306 169.559-4.859 5.344c8.6-.87 16.037-3.118 22.309-6.744l-6.403-10.718-11.047 12.118Z" fill="#E84E1B"/><path d="M117.433 174.906h.014l4.859-5.344-4.873 5.344Z" fill="#E84E1B"/><path d="M133.38 157.383h.679l19.059-1.588h.03a61.442 61.442 0 0 0 1.588-2.568v-.053l-4.594-3.309-10.083-7.218-6.679 14.736Z" fill="url(#aO)"/><path d="M139.771 168.15h-.015v.017a38.706 38.706 0 0 0 6.441-4.588c.185-.159.365-.323.547-.485-.17.153-.341.294-.518.456a42.303 42.303 0 0 1-6.455 4.6Z" fill="url(#aP)"/><path d="m133.353 157.442.705-.059-.705.059Z" fill="url(#aQ)"/><path d="m134.058 157.382-.705.059 6.417 10.709a42.248 42.248 0 0 0 6.471-4.591c.176-.15.347-.294.517-.456.124-.112.25-.218.371-.33l.259-.241c.294-.273.588-.553.867-.832a36.904 36.904 0 0 0 4.865-5.903l-19.062 1.585Z" fill="url(#aR)"/><path d="M148.25 161.7Z" fill="url(#aS)"/><path d="m133.353 157.441 6.402 10.718h.015l-6.417-10.718Z" fill="#E84E1B"/><path d="m133.353 157.441 6.402 10.718h.015l-6.417-10.718Z" fill="url(#aT)"/><path d="m153.117 155.794-19.058 1.588 19.055-1.585.003-.003Z" fill="url(#aU)"/><path d="m153.117 155.794-19.058 1.588 19.055-1.585.003-.003Z" fill="url(#aV)"/><path d="m159.897 131.136-.085.047v.2c-5.294 3.235-19.189 10.862-19.774 11.194h-.02l10.111 7.276 4.594 3.292.03.02c3.427-6.139 5.141-13.322 5.141-21.55.018-.144.003-.309.003-.479Zm-5.138 22.053-.03-.021v.018l.03.003Z" fill="#E20616"/><path d="M159.823 131.383v-.2l-19.77 11.394c.582-.333 14.485-7.959 19.77-11.194Zm-5.087 21.772-4.594-3.291 4.594 3.309v-.018Z" fill="#E20616"/><path d="m140.323 51-10.997 21.818h19.647c.469-2.365.725-4.767.765-7.177l-.029-.047v.106L140.323 51Z" fill="url(#aW)"/><path d="m140.323 51-9.467-4.544-.003.015-.033.009-1.497 26.335.003.003L140.323 51Z" fill="url(#aX)"/><path d="m130.853 46.47.003-.014-.033-.015-.003.039.033-.01Z" fill="url(#aY)"/><path d="m130.853 46.47.003-.014-.033-.015-.003.039.033-.01Z" fill="url(#aZ)"/><path d="M129.326 72.818 140.323 51l-10.997 21.818Z" fill="url(#ba)"/><path d="M129.326 72.818 140.323 51l-10.997 21.818Z" fill="url(#bb)"/><path d="m132.47 32.236-1.615 14.235 9.468 4.47.162-9.323.041-2.824a32.005 32.005 0 0 0-3.382-3.235 34.488 34.488 0 0 0-4.689-3.353h-.035l.05.03Z" fill="url(#bc)"/><path d="m132.47 32.236-.047-.03-1.585 14.235h.032l1.6-14.206Z" fill="url(#bd)"/><path d="m132.47 32.236-.047-.03-1.585 14.235h.032l1.6-14.206Z" fill="url(#be)"/><path d="m140.353 50.941.023.036 6.409-2.691a33.217 33.217 0 0 0-6.247-9.577l-.053 2.909-.132 9.323Zm-.03.059.03-.059-.03-.011V51Z" fill="#FFEC0B"/><path d="m140.323 51 .053-.02-.023-.039-.03.06Zm.03-.06.135-9.323-.165 9.312.03.012Z" fill="#FFEC0B"/><path d="M149.706 65.589v-.97c0-6.03-1.009-11.442-3.029-16.236l-6.3 2.597.015.02 9.314 14.589Z" fill="url(#bf)"/><path d="m140.391 51-.015-.02-.053.02h.068Z" fill="url(#bg)"/><path d="m140.323 51 9.383 14.706v-.118L140.391 51h-.068Z" fill="url(#bh)"/><path d="m140.323 51 9.383 14.706v-.118L140.391 51h-.068Z" fill="url(#bi)"/><path d="m100.323 37.441 13.477.265h2.991l-.674-11.47a40.63 40.63 0 0 0-.964-.174 65.742 65.742 0 0 0-3.824-.527l-11.006 11.906Z" fill="url(#bj)"/><path d="M115.153 26.062a58.794 58.794 0 0 0-3.824-.533c1.302.15 2.577.327 3.824.533Z" fill="url(#bk)"/><path d="M131.295 31.512v-.027l-.042-.023a47.282 47.282 0 0 0-3.311-1.653l-.112-.053a42.347 42.347 0 0 0-1.559-.656l-.512-.2a53.64 53.64 0 0 0-.882-.332 54.506 54.506 0 0 0-8.75-2.336l.673 11.471 14.495-6.191Z" fill="url(#bl)"/><path d="m131.294 31.485-.041-.023.041.023Z" fill="url(#bm)"/><path d="M116.117 26.177v.056a54.488 54.488 0 0 1 8.75 2.335 55.29 55.29 0 0 0-8.75-2.391Z" fill="url(#bn)"/><path d="m111.318 25.535-.588-.062c-.34-.035-.681-.067-1.024-.097a62.418 62.418 0 0 0-2.573-.182l-.512-.03a77.642 77.642 0 0 0-2.059-.073h-.224a96.592 96.592 0 0 0-2.27-.027H91.462l8.871 12.383 10.985-11.912Z" fill="url(#bo)"/><path d="m111.324 25.53-.603-.056.588.061.015-.006Z" fill="url(#bp)"/><path d="m91.453 25.059-.04-.059v.059h.04Z" fill="url(#bq)"/><path d="m91.453 25.059-.04-.059v.059h.04Z" fill="url(#br)"/><path d="m98.444 88.088 28.939 11.206 1.941-26.47-30.883 15.264h.003Z" fill="url(#bs)"/><path d="m74.186 72.78 10.02 18.867 14.2-3.55.035-.009L74.19 72.773l-.003.006Z" fill="url(#bt)"/><path d="M48.294 175h25l-8.118-17.706L48.294 175Z" fill="url(#bu)"/></g><defs><linearGradient id="b" x1="46.701" y1="72.516" x2="43.065" y2="102.536" gradientUnits="userSpaceOnUse"><stop stop-color="#ED7501"/><stop offset="1" stop-color="#E53023"/></linearGradient><linearGradient id="c" x1="49.389" y1="93.498" x2="70.148" y2="93.498" gradientUnits="userSpaceOnUse"><stop stop-color="#0C87A7"/><stop offset=".97" stop-color="#56AE36"/><stop offset="1" stop-color="#38B084"/></linearGradient><linearGradient id="d" x1="41.26" y1="63.979" x2="65.96" y2="41.947" gradientUnits="userSpaceOnUse"><stop stop-color="#07553F"/><stop offset="1" stop-color="#52AE3D"/></linearGradient><linearGradient id="e" x1="44.842" y1="67.994" x2="69.542" y2="45.963" gradientUnits="userSpaceOnUse"><stop stop-color="#07553F"/><stop offset="1" stop-color="#52AE3D"/></linearGradient><linearGradient id="f" x1="51.48" y1="24.264" x2="72.242" y2="24.264" gradientUnits="userSpaceOnUse"><stop stop-color="#FFEB02"/><stop offset="1" stop-color="#EE7802"/></linearGradient><linearGradient id="g" x1="51.48" y1="35.327" x2="72.242" y2="35.327" gradientUnits="userSpaceOnUse"><stop stop-color="#FFEB02"/><stop offset="1" stop-color="#EE7802"/></linearGradient><linearGradient id="h" x1="61.335" y1="40.942" x2="51.645" y2="69.028" gradientUnits="userSpaceOnUse"><stop stop-color="#7597CE"/><stop offset="1" stop-color="#81C5AB"/></linearGradient><linearGradient id="i" x1="49.044" y1="102.531" x2="78.598" y2="102.531" gradientUnits="userSpaceOnUse"><stop stop-color="#8BCDCF"/><stop offset="1" stop-color="#44509D"/></linearGradient><linearGradient id="j" x1="49.389" y1="104.406" x2="70.148" y2="104.406" gradientUnits="userSpaceOnUse"><stop stop-color="#0C87A7"/><stop offset=".97" stop-color="#56AE36"/><stop offset="1" stop-color="#38B084"/></linearGradient><linearGradient id="k" x1="49.044" y1="105.2" x2="78.598" y2="105.2" gradientUnits="userSpaceOnUse"><stop stop-color="#8BCDCF"/><stop offset="1" stop-color="#44509D"/></linearGradient><linearGradient id="l" x1="70.056" y1="93.174" x2="84.386" y2="93.174" gradientUnits="userSpaceOnUse"><stop stop-color="#E61F82"/><stop offset="1" stop-color="#712A85"/></linearGradient><linearGradient id="m" x1="85.919" y1="85.658" x2="92.207" y2="52.091" gradientUnits="userSpaceOnUse"><stop stop-color="#81C5AB"/><stop offset="1" stop-color="#7597CE"/></linearGradient><linearGradient id="n" x1="74.337" y1="63.695" x2="99.175" y2="63.695" gradientUnits="userSpaceOnUse"><stop stop-color="#FFEB06"/><stop offset="1" stop-color="#A5C617"/></linearGradient><linearGradient id="o" x1="89.754" y1="40.309" x2="85.401" y2="55.086" gradientUnits="userSpaceOnUse"><stop stop-color="#FFEB06"/><stop offset="1" stop-color="#F7B032"/></linearGradient><linearGradient id="p" x1="90.613" y1="104.112" x2="85.616" y2="87.007" gradientUnits="userSpaceOnUse"><stop stop-color="#D73E8E"/><stop offset="1" stop-color="#E31D1C"/></linearGradient><linearGradient id="q" x1="99.346" y1="95.458" x2="85.948" y2="109.985" gradientUnits="userSpaceOnUse"><stop stop-color="#ED7501"/><stop offset="1" stop-color="#E53023"/></linearGradient><linearGradient id="r" x1="101.946" y1="104.479" x2="117.691" y2="91.171" gradientUnits="userSpaceOnUse"><stop stop-color="#FFEB06"/><stop offset="1" stop-color="#A5C617"/></linearGradient><linearGradient id="s" x1="98.246" y1="55.713" x2="119.524" y2="55.713" gradientUnits="userSpaceOnUse"><stop stop-color="#3FB49A"/><stop offset="1" stop-color="#86C8B3"/></linearGradient><linearGradient id="t" x1="98.247" y1="72.073" x2="119.525" y2="72.073" gradientUnits="userSpaceOnUse"><stop stop-color="#3FB49A"/><stop offset="1" stop-color="#86C8B3"/></linearGradient><linearGradient id="u" x1="98.527" y1="74.259" x2="129.392" y2="74.259" gradientUnits="userSpaceOnUse"><stop stop-color="#0C87A7"/><stop offset="1" stop-color="#56AE36"/></linearGradient><linearGradient id="v" x1="74.756" y1="110.049" x2="71.37" y2="130.63" gradientUnits="userSpaceOnUse"><stop stop-color="#342782"/><stop offset="1" stop-color="#4998D3"/></linearGradient><linearGradient id="w" x1="59.621" y1="129.006" x2="75.67" y2="129.006" gradientUnits="userSpaceOnUse"><stop stop-color="#0C87A7"/><stop offset="1" stop-color="#2B58A4"/></linearGradient><linearGradient id="x" x1="86.582" y1="116.111" x2="82.713" y2="137.658" gradientUnits="userSpaceOnUse"><stop stop-color="#0C87A7"/><stop offset="1" stop-color="#56AE36"/></linearGradient><linearGradient id="y" x1="27.148" y1="122.351" x2="49.376" y2="122.351" gradientUnits="userSpaceOnUse"><stop stop-color="#D73E8E"/><stop offset="1" stop-color="#E31D1C"/></linearGradient><linearGradient id="z" x1="49.201" y1="120.886" x2="67.077" y2="120.886" gradientUnits="userSpaceOnUse"><stop stop-color="#E61F82"/><stop offset="1" stop-color="#712A85"/></linearGradient><linearGradient id="A" x1="49.044" y1="116.469" x2="78.598" y2="116.469" gradientUnits="userSpaceOnUse"><stop stop-color="#7597CE"/><stop offset="1" stop-color="#81C5AB"/></linearGradient><linearGradient id="B" x1="27.148" y1="107.093" x2="49.376" y2="107.093" gradientUnits="userSpaceOnUse"><stop stop-color="#FFEB06"/><stop offset="1" stop-color="#F7B032"/></linearGradient><linearGradient id="C" x1="37.621" y1="129.57" x2="60.064" y2="129.57" gradientUnits="userSpaceOnUse"><stop stop-color="#B73F8F"/><stop offset="1" stop-color="#B4110E"/></linearGradient><linearGradient id="D" x1="54.58" y1="134.061" x2="76.307" y2="134.061" gradientUnits="userSpaceOnUse"><stop stop-color="#7597CE"/><stop offset="1" stop-color="#81C5AB"/></linearGradient><linearGradient id="E" x1="75.602" y1="136.858" x2="109.239" y2="136.858" gradientUnits="userSpaceOnUse"><stop stop-color="#ED7501"/><stop offset="1" stop-color="#E53023"/></linearGradient><linearGradient id="F" x1="91.757" y1="125.3" x2="113.52" y2="125.3" gradientUnits="userSpaceOnUse"><stop stop-color="#8DCCBD"/><stop offset="1" stop-color="#51AE44"/></linearGradient><linearGradient id="G" x1="110.104" y1="126.923" x2="140.464" y2="126.923" gradientUnits="userSpaceOnUse"><stop stop-color="#B73F8F"/><stop offset="1" stop-color="#B4110E"/></linearGradient><linearGradient id="H" x1="112.904" y1="110.162" x2="145.486" y2="110.162" gradientUnits="userSpaceOnUse"><stop stop-color="#3F2682"/><stop offset="1" stop-color="#713289"/></linearGradient><linearGradient id="I" x1="112.972" y1="115.833" x2="145.486" y2="115.833" gradientUnits="userSpaceOnUse"><stop stop-color="#3F2682"/><stop offset="1" stop-color="#713289"/></linearGradient><linearGradient id="J" x1="127.374" y1="94.215" x2="140.307" y2="94.215" gradientUnits="userSpaceOnUse"><stop stop-color="#D73E8E"/><stop offset="1" stop-color="#E31D1C"/></linearGradient><linearGradient id="K" x1="127.375" y1="86.082" x2="140.307" y2="86.082" gradientUnits="userSpaceOnUse"><stop stop-color="#D73E8E"/><stop offset="1" stop-color="#E31D1C"/></linearGradient><linearGradient id="L" x1="127.375" y1="98.991" x2="140.307" y2="98.991" gradientUnits="userSpaceOnUse"><stop stop-color="#E61F82"/><stop offset="1" stop-color="#712A85"/></linearGradient><linearGradient id="M" x1="112.905" y1="101.87" x2="145.486" y2="101.87" gradientUnits="userSpaceOnUse"><stop stop-color="#3F2682"/><stop offset="1" stop-color="#713289"/></linearGradient><linearGradient id="N" x1="127.375" y1="101.284" x2="140.307" y2="101.284" gradientUnits="userSpaceOnUse"><stop stop-color="#E61F82"/><stop offset="1" stop-color="#712A85"/></linearGradient><linearGradient id="O" x1="139.146" y1="106.182" x2="161.034" y2="106.182" gradientUnits="userSpaceOnUse"><stop stop-color="#E61F82"/><stop offset="1" stop-color="#712A85"/></linearGradient><linearGradient id="P" x1="112.905" y1="109.841" x2="145.486" y2="109.841" gradientUnits="userSpaceOnUse"><stop stop-color="#3F2682"/><stop offset="1" stop-color="#713289"/></linearGradient><linearGradient id="Q" x1="139.147" y1="109.818" x2="161.035" y2="109.818" gradientUnits="userSpaceOnUse"><stop stop-color="#E61F82"/><stop offset="1" stop-color="#712A85"/></linearGradient><linearGradient id="R" x1="129.674" y1="81.247" x2="154.679" y2="81.247" gradientUnits="userSpaceOnUse"><stop stop-color="#7597CE"/><stop offset="1" stop-color="#81C5AB"/></linearGradient><linearGradient id="S" x1="125.137" y1="50.568" x2="126.749" y2="75.591" gradientUnits="userSpaceOnUse"><stop stop-color="#7AB829"/><stop offset="1" stop-color="#EEAB04"/></linearGradient><linearGradient id="T" x1="98.898" y1="53.942" x2="130.674" y2="53.942" gradientUnits="userSpaceOnUse"><stop stop-color="#E41147"/><stop offset="1" stop-color="#EC6C07"/></linearGradient><linearGradient id="U" x1="98.899" y1="55.663" x2="130.674" y2="55.663" gradientUnits="userSpaceOnUse"><stop stop-color="#E41147"/><stop offset="1" stop-color="#EC6C07"/></linearGradient><linearGradient id="V" x1="121.896" y1="28.806" x2="116.092" y2="46.395" gradientUnits="userSpaceOnUse"><stop stop-color="#B73F8F"/><stop offset="1" stop-color="#B4110E"/></linearGradient><linearGradient id="W" x1="134.893" y1="33.096" x2="129.092" y2="50.684" gradientUnits="userSpaceOnUse"><stop stop-color="#B73F8F"/><stop offset="1" stop-color="#B4110E"/></linearGradient><linearGradient id="X" x1="98.246" y1="55.713" x2="119.525" y2="55.713" gradientUnits="userSpaceOnUse"><stop stop-color="#3FB49A"/><stop offset="1" stop-color="#86C8B3"/></linearGradient><linearGradient id="Y" x1="108.928" y1="24.53" x2="103.125" y2="42.118" gradientUnits="userSpaceOnUse"><stop stop-color="#B73F8F"/><stop offset="1" stop-color="#B4110E"/></linearGradient><linearGradient id="Z" x1="131.176" y1="50.179" x2="132.789" y2="75.201" gradientUnits="userSpaceOnUse"><stop stop-color="#7AB829"/><stop offset="1" stop-color="#EEAB04"/></linearGradient><linearGradient id="aa" x1="134.863" y1="33.085" x2="129.059" y2="50.673" gradientUnits="userSpaceOnUse"><stop stop-color="#B73F8F"/><stop offset="1" stop-color="#B4110E"/></linearGradient><linearGradient id="ab" x1="98.898" y1="51.229" x2="130.726" y2="51.229" gradientUnits="userSpaceOnUse"><stop stop-color="#E41147"/><stop offset="1" stop-color="#EC6C07"/></linearGradient><linearGradient id="ac" x1="121.896" y1="28.806" x2="116.092" y2="46.395" gradientUnits="userSpaceOnUse"><stop stop-color="#B73F8F"/><stop offset="1" stop-color="#B4110E"/></linearGradient><linearGradient id="ad" x1="108.478" y1="36.916" x2="105.737" y2="52.894" gradientUnits="userSpaceOnUse"><stop stop-color="#8DCCBD"/><stop offset="1" stop-color="#51AE44"/></linearGradient><linearGradient id="ae" x1="89.471" y1="40.653" x2="100.218" y2="40.653" gradientUnits="userSpaceOnUse"><stop stop-color="#FFEB06"/><stop offset="1" stop-color="#A5C617"/></linearGradient><linearGradient id="af" x1="89.471" y1="25.494" x2="100.218" y2="25.494" gradientUnits="userSpaceOnUse"><stop stop-color="#FFEB06"/><stop offset="1" stop-color="#A5C617"/></linearGradient><linearGradient id="ag" x1="89.471" y1="25.494" x2="100.219" y2="25.494" gradientUnits="userSpaceOnUse"><stop stop-color="#FFEB06"/><stop offset="1" stop-color="#A5C617"/></linearGradient><linearGradient id="ah" x1="71.998" y1="24.926" x2="90.197" y2="24.926" gradientUnits="userSpaceOnUse"><stop stop-color="#E41240"/><stop offset="1" stop-color="#AF408F"/></linearGradient><linearGradient id="ai" x1="71.998" y1="36.012" x2="90.197" y2="36.012" gradientUnits="userSpaceOnUse"><stop stop-color="#E41240"/><stop offset="1" stop-color="#AF408F"/></linearGradient><linearGradient id="aj" x1="67.822" y1="35.828" x2="89.71" y2="35.828" gradientUnits="userSpaceOnUse"><stop stop-color="#E5067E"/><stop offset="1" stop-color="#EEAB04"/></linearGradient><linearGradient id="ak" x1="67.822" y1="24.759" x2="89.71" y2="24.759" gradientUnits="userSpaceOnUse"><stop stop-color="#E5067E"/><stop offset="1" stop-color="#EEAB04"/></linearGradient><linearGradient id="al" x1="53.959" y1="80.469" x2="74.255" y2="80.469" gradientUnits="userSpaceOnUse"><stop stop-color="#FFEB02"/><stop offset="1" stop-color="#EE7802"/></linearGradient><linearGradient id="am" x1="78.593" y1="121.015" x2="95.027" y2="121.015" gradientUnits="userSpaceOnUse"><stop stop-color="#7AB829"/><stop offset="1" stop-color="#EEAB04"/></linearGradient><linearGradient id="an" x1="99.171" y1="89.245" x2="106.121" y2="114.751" gradientUnits="userSpaceOnUse"><stop stop-color="#FFEB06"/><stop offset="1" stop-color="#F7B032"/></linearGradient><linearGradient id="ao" x1="68.89" y1="65.995" x2="62.603" y2="57.755" gradientUnits="userSpaceOnUse"><stop stop-color="#3F2682"/><stop offset="1" stop-color="#713289"/></linearGradient><linearGradient id="ap" x1="54.041" y1="66.076" x2="81.348" y2="66.076" gradientUnits="userSpaceOnUse"><stop stop-color="#7AB829"/><stop offset="1" stop-color="#EEAB04"/></linearGradient><linearGradient id="aq" x1="93.011" y1="135.885" x2="90.114" y2="153.284" gradientUnits="userSpaceOnUse"><stop stop-color="#E41147"/><stop offset="1" stop-color="#EC6C07"/></linearGradient><linearGradient id="ar" x1="77.546" y1="164.31" x2="80.214" y2="148.332" gradientUnits="userSpaceOnUse"><stop stop-color="#3F2682"/><stop offset="1" stop-color="#713289"/></linearGradient><linearGradient id="as" x1="29.316" y1="152.484" x2="65.456" y2="152.484" gradientUnits="userSpaceOnUse"><stop stop-color="#7597CE"/><stop offset="1" stop-color="#81C5AB"/></linearGradient><linearGradient id="at" x1="34.478" y1="24.336" x2="51.405" y2="24.336" gradientUnits="userSpaceOnUse"><stop stop-color="#E61F82"/><stop offset="1" stop-color="#712A85"/></linearGradient><linearGradient id="au" x1="34.478" y1="35.648" x2="51.405" y2="35.648" gradientUnits="userSpaceOnUse"><stop stop-color="#E61F82"/><stop offset="1" stop-color="#712A85"/></linearGradient><linearGradient id="av" x1="133.108" y1="129.387" x2="145.59" y2="129.387" gradientUnits="userSpaceOnUse"><stop stop-color="#ED7501"/><stop offset="1" stop-color="#E53023"/></linearGradient><linearGradient id="aw" x1="145.385" y1="120.115" x2="142.484" y2="140.695" gradientUnits="userSpaceOnUse"><stop stop-color="#7AB829"/><stop offset="1" stop-color="#EEAB04"/></linearGradient><linearGradient id="ax" x1="152.448" y1="121.111" x2="149.547" y2="141.692" gradientUnits="userSpaceOnUse"><stop stop-color="#7AB829"/><stop offset="1" stop-color="#EEAB04"/></linearGradient><linearGradient id="ay" x1="146.142" y1="120.197" x2="162.227" y2="120.197" gradientUnits="userSpaceOnUse"><stop stop-color="#ED7501"/><stop offset="1" stop-color="#E53023"/></linearGradient><linearGradient id="az" x1="146.142" y1="114.281" x2="162.226" y2="114.281" gradientUnits="userSpaceOnUse"><stop stop-color="#ED7501"/><stop offset="1" stop-color="#E53023"/></linearGradient><linearGradient id="aA" x1="146.143" y1="113.779" x2="162.227" y2="113.779" gradientUnits="userSpaceOnUse"><stop stop-color="#ED7501"/><stop offset="1" stop-color="#E53023"/></linearGradient><linearGradient id="aB" x1="146.142" y1="114.255" x2="162.226" y2="114.255" gradientUnits="userSpaceOnUse"><stop stop-color="#ED7501"/><stop offset="1" stop-color="#E53023"/></linearGradient><linearGradient id="aC" x1="113.551" y1="126.976" x2="140.445" y2="126.976" gradientUnits="userSpaceOnUse"><stop stop-color="#E61F82"/><stop offset="1" stop-color="#712A85"/></linearGradient><linearGradient id="aD" x1="91.757" y1="120.172" x2="113.52" y2="120.172" gradientUnits="userSpaceOnUse"><stop stop-color="#7597CE"/><stop offset="1" stop-color="#81C5AB"/></linearGradient><linearGradient id="aE" x1="104.431" y1="148.294" x2="140.457" y2="148.294" gradientUnits="userSpaceOnUse"><stop stop-color="#FFEB02"/><stop offset="1" stop-color="#EE7802"/></linearGradient><linearGradient id="aF" x1="65.233" y1="166.058" x2="104.156" y2="166.058" gradientUnits="userSpaceOnUse"><stop stop-color="#E4322B"/><stop offset="1" stop-color="#622683"/></linearGradient><linearGradient id="aG" x1="80.025" y1="166.187" x2="114.681" y2="166.187" gradientUnits="userSpaceOnUse"><stop stop-color="#342782"/><stop offset="1" stop-color="#4998D3"/></linearGradient><linearGradient id="aH" x1="53.78" y1="155.111" x2="53.619" y2="182.248" gradientUnits="userSpaceOnUse"><stop stop-color="#8DBE26"/><stop offset="1" stop-color="#5CB030"/></linearGradient><linearGradient id="aI" x1="104.291" y1="165.777" x2="133.558" y2="165.777" gradientUnits="userSpaceOnUse"><stop stop-color="#7AB829"/><stop offset="1" stop-color="#EEAB04"/></linearGradient><linearGradient id="aJ" x1="104.29" y1="158.664" x2="133.558" y2="158.664" gradientUnits="userSpaceOnUse"><stop stop-color="#7AB829"/><stop offset="1" stop-color="#EEAB04"/></linearGradient><linearGradient id="aK" x1="104.291" y1="174.476" x2="133.559" y2="174.476" gradientUnits="userSpaceOnUse"><stop stop-color="#7AB829"/><stop offset="1" stop-color="#EEAB04"/></linearGradient><linearGradient id="aL" x1="104.432" y1="150.064" x2="140.458" y2="150.064" gradientUnits="userSpaceOnUse"><stop stop-color="#FFEA22"/><stop offset=".09" stop-color="#FED70F"/><stop offset=".18" stop-color="#FDCC04"/><stop offset=".28" stop-color="#FDC800"/><stop offset=".67" stop-color="#F08F33"/><stop offset=".89" stop-color="#E86131"/><stop offset="1" stop-color="#E2312D"/></linearGradient><linearGradient id="aM" x1="104.29" y1="157.848" x2="133.558" y2="157.848" gradientUnits="userSpaceOnUse"><stop stop-color="#7AB829"/><stop offset="1" stop-color="#EEAB04"/></linearGradient><linearGradient id="aN" x1="104.431" y1="157.506" x2="140.457" y2="157.506" gradientUnits="userSpaceOnUse"><stop stop-color="#FFEA22"/><stop offset=".09" stop-color="#FED70F"/><stop offset=".18" stop-color="#FDCC04"/><stop offset=".28" stop-color="#FDC800"/><stop offset=".67" stop-color="#F08F33"/><stop offset=".89" stop-color="#E86131"/><stop offset="1" stop-color="#E2312D"/></linearGradient><linearGradient id="aO" x1="133.077" y1="150.594" x2="157.527" y2="150.594" gradientUnits="userSpaceOnUse"><stop stop-color="#D73E8E"/><stop offset="1" stop-color="#E31D1C"/></linearGradient><linearGradient id="aP" x1="133.077" y1="166.195" x2="157.526" y2="166.195" gradientUnits="userSpaceOnUse"><stop stop-color="#0C87A7"/><stop offset=".97" stop-color="#56AE36"/><stop offset="1" stop-color="#38B084"/></linearGradient><linearGradient id="aQ" x1="133.076" y1="157.966" x2="157.526" y2="157.966" gradientUnits="userSpaceOnUse"><stop stop-color="#0C87A7"/><stop offset=".97" stop-color="#56AE36"/><stop offset="1" stop-color="#38B084"/></linearGradient><linearGradient id="aR" x1="133.076" y1="162.542" x2="157.526" y2="162.542" gradientUnits="userSpaceOnUse"><stop stop-color="#0C87A7"/><stop offset=".97" stop-color="#56AE36"/><stop offset="1" stop-color="#38B084"/></linearGradient><linearGradient id="aS" x1="133.077" y1="162.703" x2="157.527" y2="162.703" gradientUnits="userSpaceOnUse"><stop stop-color="#0C87A7"/><stop offset=".97" stop-color="#56AE36"/><stop offset="1" stop-color="#38B084"/></linearGradient><linearGradient id="aT" x1="133.076" y1="163.385" x2="157.526" y2="163.385" gradientUnits="userSpaceOnUse"><stop stop-color="#0C87A7"/><stop offset=".97" stop-color="#56AE36"/><stop offset="1" stop-color="#38B084"/></linearGradient><linearGradient id="aU" x1="133.077" y1="157.178" x2="157.526" y2="157.178" gradientUnits="userSpaceOnUse"><stop stop-color="#D73E8E"/><stop offset="1" stop-color="#E31D1C"/></linearGradient><linearGradient id="aV" x1="133.077" y1="157.162" x2="157.526" y2="157.162" gradientUnits="userSpaceOnUse"><stop stop-color="#0C87A7"/><stop offset=".97" stop-color="#56AE36"/><stop offset="1" stop-color="#38B084"/></linearGradient><linearGradient id="aW" x1="129.674" y1="61.113" x2="154.679" y2="61.113" gradientUnits="userSpaceOnUse"><stop stop-color="#FFEB06"/><stop offset="1" stop-color="#F7B032"/></linearGradient><linearGradient id="aX" x1="136.048" y1="47.701" x2="129.511" y2="67.315" gradientUnits="userSpaceOnUse"><stop stop-color="#D73E8E"/><stop offset="1" stop-color="#E31D1C"/></linearGradient><linearGradient id="aY" x1="134.893" y1="33.095" x2="129.089" y2="50.684" gradientUnits="userSpaceOnUse"><stop stop-color="#B73F8F"/><stop offset="1" stop-color="#B4110E"/></linearGradient><linearGradient id="aZ" x1="131.089" y1="46.048" x2="124.551" y2="65.661" gradientUnits="userSpaceOnUse"><stop stop-color="#D73E8E"/><stop offset="1" stop-color="#E31D1C"/></linearGradient><linearGradient id="ba" x1="129.674" y1="61.113" x2="154.679" y2="61.113" gradientUnits="userSpaceOnUse"><stop stop-color="#FFEB06"/><stop offset="1" stop-color="#F7B032"/></linearGradient><linearGradient id="bb" x1="139.333" y1="48.796" x2="132.796" y2="68.409" gradientUnits="userSpaceOnUse"><stop stop-color="#D73E8E"/><stop offset="1" stop-color="#E31D1C"/></linearGradient><linearGradient id="bc" x1="130.975" y1="40.932" x2="140.81" y2="40.932" gradientUnits="userSpaceOnUse"><stop stop-color="#FFEB06"/><stop offset="1" stop-color="#A5C617"/></linearGradient><linearGradient id="bd" x1="133.477" y1="32.627" x2="127.674" y2="50.217" gradientUnits="userSpaceOnUse"><stop stop-color="#B73F8F"/><stop offset="1" stop-color="#B4110E"/></linearGradient><linearGradient id="be" x1="130.975" y1="38.7" x2="140.81" y2="38.7" gradientUnits="userSpaceOnUse"><stop stop-color="#FFEB06"/><stop offset="1" stop-color="#A5C617"/></linearGradient><linearGradient id="bf" x1="140.655" y1="56.043" x2="154.626" y2="56.043" gradientUnits="userSpaceOnUse"><stop stop-color="#8BCDCF"/><stop offset="1" stop-color="#44509D"/></linearGradient><linearGradient id="bg" x1="140.654" y1="50.032" x2="154.624" y2="50.032" gradientUnits="userSpaceOnUse"><stop stop-color="#8BCDCF"/><stop offset="1" stop-color="#44509D"/></linearGradient><linearGradient id="bh" x1="129.674" y1="57.541" x2="154.679" y2="57.541" gradientUnits="userSpaceOnUse"><stop stop-color="#FFEB06"/><stop offset="1" stop-color="#F7B032"/></linearGradient><linearGradient id="bi" x1="140.654" y1="57.396" x2="154.626" y2="57.396" gradientUnits="userSpaceOnUse"><stop stop-color="#8BCDCF"/><stop offset="1" stop-color="#44509D"/></linearGradient><linearGradient id="bj" x1="100.148" y1="32.13" x2="116.609" y2="32.13" gradientUnits="userSpaceOnUse"><stop stop-color="#342782"/><stop offset="1" stop-color="#4998D3"/></linearGradient><linearGradient id="bk" x1="100.148" y1="26.292" x2="116.609" y2="26.292" gradientUnits="userSpaceOnUse"><stop stop-color="#342782"/><stop offset="1" stop-color="#4998D3"/></linearGradient><linearGradient id="bl" x1="115.635" y1="32.457" x2="132.418" y2="32.457" gradientUnits="userSpaceOnUse"><stop stop-color="#E61F82"/><stop offset="1" stop-color="#712A85"/></linearGradient><linearGradient id="bm" x1="115.633" y1="31.961" x2="132.418" y2="31.961" gradientUnits="userSpaceOnUse"><stop stop-color="#E61F82"/><stop offset="1" stop-color="#712A85"/></linearGradient><linearGradient id="bn" x1="115.634" y1="27.855" x2="132.417" y2="27.855" gradientUnits="userSpaceOnUse"><stop stop-color="#E61F82"/><stop offset="1" stop-color="#712A85"/></linearGradient><linearGradient id="bo" x1="89.238" y1="32.005" x2="115.479" y2="32.005" gradientUnits="userSpaceOnUse"><stop stop-color="#EE7802"/><stop offset="1" stop-color="#FFEB02"/></linearGradient><linearGradient id="bp" x1="89.238" y1="26.275" x2="115.479" y2="26.275" gradientUnits="userSpaceOnUse"><stop stop-color="#EE7802"/><stop offset="1" stop-color="#FFEB02"/></linearGradient><linearGradient id="bq" x1="89.471" y1="25.494" x2="100.218" y2="25.494" gradientUnits="userSpaceOnUse"><stop stop-color="#FFEB06"/><stop offset="1" stop-color="#A5C617"/></linearGradient><linearGradient id="br" x1="89.238" y1="25.801" x2="115.479" y2="25.801" gradientUnits="userSpaceOnUse"><stop stop-color="#EE7802"/><stop offset="1" stop-color="#FFEB02"/></linearGradient><linearGradient id="bs" x1="114.715" y1="79.284" x2="114.965" y2="96.963" gradientUnits="userSpaceOnUse"><stop stop-color="#8DBE26"/><stop offset="1" stop-color="#5CB030"/></linearGradient><linearGradient id="bt" x1="95.835" y1="88.153" x2="76.795" y2="79.914" gradientUnits="userSpaceOnUse"><stop stop-color="#3F2682"/><stop offset="1" stop-color="#713289"/></linearGradient><linearGradient id="bu" x1="61.083" y1="154.27" x2="60.85" y2="192.297" gradientUnits="userSpaceOnUse"><stop stop-color="#E41147"/><stop offset="1" stop-color="#EC6C07"/></linearGradient><clipPath id="a"><path fill="#fff" transform="translate(40 25)" d="M0 0h119.912v150H0z"/></clipPath></defs></svg>