<svg fill="none" xmlns="http://www.w3.org/2000/svg" viewBox="0 0 256 256"><path d="M0 0h256v256H0V0z" fill="#CB462B"/><g clip-path="url(#clip0)" fill="#fff"><path d="M221.4 156.7c-7.3-10-13-20.7-17.5-32.2a14.5 14.5 0 00-8.7-8.3c-5-2-10.4-3.4-15.2-6.2a7.2 7.2 0 00-6.7-.7c-4.4 2.1-9 3-14 2.4-1.8-.2-4.4-.2-4.6-2.5-.2-2 2-3.5 4-3.9 8.4-1.5 11.5-8 15-14.8 2.3-4.4 2.2-9.9 4.8-13.6 4.7-7.2 7.2-15.3 11.2-22.7 1-1.8.7-4.3 4-5.7-1.1 4.5-2.6 8.4-1 13.3 1-7.4 4-13.6 5.5-20.1.8-3.5-.6-5-4.2-4.5-3.5.4-7 .8-10.5.9a52.5 52.5 0 00-38.8 15c-3.6 3.6-6.6 7-7 12.5-.2 6.6-1.2 13.2-2 19.8 0 1.3.6 3.5-1.3 3.7-1.6.2-1.7-2-2.3-3.3-1.3-2.8-2.4-5.8-4-8.5-1.9-3.8-4.6-7.2-9-7.7-17.6-2.3-35.2-4.5-52.5-7.6-2.3-.4-3.4.5-3.3 3 .3 8.3 1 16.6.6 24.7-.8 6.9.7 12.4 6.2 17 1.4 1 2.6 2.5 3.6 4 4 6.8 9.6 11.1 17.2 13.2 7.3 2 14.3 5 22 5 1.1 0 2.5.2 3 1.5.3 1-.6 1.4-1.3 1.6-5 1.4-8 5.4-11 9-6.4 8.3-14.2 16.1-12.8 28l2.5 17.7c1.1 6.8 4.1 13.2 4.1 20.2 0 1.7 1 2.9 3 3.2 1.3.2 2.7.6 4 1.4 4.4 3 7.7 1.2 10.4-2.4 2-2.7 4.4-4.8 7-6.7 9.3-6.8 17-15.3 24.8-23.7 3.7-4 5.7-8.6 4.2-14.3-.6-2.4-1.1-3.7-3.6-2.3-1-1.6 2.2-2.5.3-3.9-2-1.4-3 .5-3.7 1.6-2.6 4.5-7 5.5-12.4 7.7l3.8-4c3.6-3.2 6.9-6.7 8.3-11.6.2-1 .1-2.3 1.6-2.3 1.2 0 2 .8 2.5 1.8l1.5 3.1c.3-2.4.3-4.8 1.2-7 .3-.9.8-2 1.8-2.2 1.3-.1 1.8 1 2 2 1 2.4 2.7 4.3 4.7 5.8 5.4 4.2 9.3 9.8 15.5 13.4 5.2 3.2 10.3 5.8 16.2 4.8 9.5-1.5 18.7-4.4 28.2-6.3 6.2-1.3 6.7-3 2.7-8.3zM147 90c.8 0 1.4.5 1.5 1.6-.4.3-.8.9-1.3 1-1 .2-1.3-.6-1.4-1.4 0-.6.4-1.2 1.2-1.2zm-8.9 1.4c1.6.2 2 1.8 2.6 2.9-.2 1.5-.5 2.8-2 2.6-1.7-.2-2.3-1.6-2.5-3.1-.3-1.5.5-2.6 2-2.4zm-10 3.5c1.2 0 1.5 1 1.6 1.9.1.7-.3 1.2-1 1.2-1-.1-1.5-.6-1.6-1.4-.1-.9.1-1.7 1-1.7zm-8.1 31c-1-.4-2.7.1-2.6-1.5 0-1.6 1.8-2 3.2-2.4 1.3-.3 2 .6 2 1.8.2 1.8-1.2 1.9-2.6 2zm12.8 16.7c-1 0-1.2-.9-1-1.6.3-.9.4-2 1.4-2 1 0 1.1 1 1.2 1.8 0 1-.5 1.8-1.6 1.8zm6 5.7c-2.1.3-1.6-1.8-2.1-2.8.2-2 .4-3.8 2.6-3.9 1.5 0 2.4 1.1 2.3 2.6 0 2-.6 4-2.7 4.1zM145 127c.8 2.8.7 5.3-2.1 6.7-3 1.6-5.3 1.2-7.3-2.1-1.6-2.9-5-2.8-8-3-1.5-.3-2.8-.2-2.8-2.4 0-2.3 1.4-1.7 2.8-1.8 2.8-.1 3.6-2 1.8-3.9-2.8-3-5-6.7-9.2-8.2-.9-.4-1.8-1.1-2.4-2-1.8-2.6-4-4.2-7.4-3.7-1.4.3-3.6-.2-3.2-2.3.4-1.8 2.2-1.8 3.6-1.3 3.8 1 7.3 3.1 11.5 3 1.9 0 1.2 2.3 1.6 3.6.8 4.5 3.3 7 8.7 7.1a70.3 70.3 0 00-10.9-14.7c-.9-.8-1.8-1.6-1.7-3 0-.7.8-1 1.5-.8 1.4.1 1.7 1.2 2.4 2.2 4 6.1 8.6 12 12 18.5 1.4 2.6 4.3 2 6.5.2.9-.7 1.7-1.5 2.8-.8 1 .7.1 1.7 0 2.5a11 11 0 00-.2 6.2zm2.5-21.4c-1 1.4-3 3.2-4.4 3-1.8-.2-.7-2.8-1-4v-2c.3-2.1-.1-4.6 2.4-5.7 1.3-.5 2 .8 2.7 1.7 1.6 2.3 2 4.9.3 7zm21.7 51.8c-.8.8-1.4 0-2-.5a47 47 0 01-13.8-16.7c-1.6-3.7 2.3-3 3.8-4 2.4.9 4.9 1.3 6.7 2.6 1.7 1.2 3.3 3 .3 5.1-2 1.4-.8 3.6.2 5.2 1.4 2.2 3 4.1 4.6 6.2.4.6 1 1.5.2 2.1zm14 9.4c.3.7-1 .4-1.4.2-1-.5-1.8-1.1-1-2.5l2.6-5.5c1.6 3-1.2 5.3-.2 7.8z"/><path d="M183.6 95.6c2 1.2 2.6-1.5 3.7-2.6.7-.7 1.3-1.5 1.4-2.3.7-7.8 3.7-15.4 2.6-23.5-2.4 2.5-.4 5.3-.8 7.8-.7 6-4.3 11-5.9 16.7-.4 1.3-2.9 2.7-1 3.9z"/></g><defs><clipPath id="clip0"><path fill="#fff" transform="translate(63 37)" d="M0 0h161v176H0z"/></clipPath></defs></svg>