<?xml version="1.0" encoding="utf-8"?>
<!-- Generator: Adobe Illustrator 22.1.0, SVG Export Plug-In . SVG Version: 6.00 Build 0)  -->
<svg version="1.1" id="Layer_1" xmlns="http://www.w3.org/2000/svg" xmlns:xlink="http://www.w3.org/1999/xlink" x="0px" y="0px"
	 viewBox="0 0 512 512" style="enable-background:new 0 0 512 512;" xml:space="preserve">
<style type="text/css">
	.st0{fill:#19559B;}
</style>
<path class="st0" d="M93.9,200.4c0.6,0.1,1.2,0.1,1.8,0.2c3.3,0.1,6.5,0.6,9.6,1.5c4.2,1.2,8.1,3.1,11.3,6.1c4,3.7,6.4,8.3,7.2,13.7
	c0.7,5,0,9.7-1.7,14.4c-1.1,3.1-2.7,6.1-4.6,8.9c-2.1,3.2-4.3,6.3-6.4,9.5c-0.2,0.2-0.3,0.5-0.5,0.8c0.3,0.2,0.6,0.3,0.9,0.5
	c5.4,2.9,10.3,6.4,14.6,10.8c5.5,5.6,9.5,12,11.7,19.5c1.3,4.3,1.9,8.8,1.6,13.3c-0.7,13-6.3,23.4-16.6,31.4
	c-5.5,4.2-11.6,6.8-18.3,8.4c-3.5,0.8-7.1,1.3-10.7,1.4c-1.5,0-3.1,0.1-4.6,0.1c-18.6,0-37.2,0-55.8,0c-0.4,0-0.7,0-1.1,0.1
	c0-46.7,0-93.5,0-140.3C52.9,200.4,73.4,200.4,93.9,200.4z M65.5,218.7c0,0.1-0.1,0.2-0.1,0.3c0,34.1,0,68.2,0,102.2
	c0,0.2,0,0.3,0,0.5c0,0,0,0,0,0.1c0,0,0,0,0.1,0.1c0.1,0,0.2,0,0.3,0c4.2,0,8.4,0,12.6-0.1c3-0.1,5.9-0.7,8.7-1.6
	c6.7-2.3,11.7-6.5,14.7-13c1.7-3.7,2.5-7.6,2.9-11.6c0.2-2.3,0.2-4.7,0-7c-0.2-3.1-0.7-6.2-1.6-9.2c-1.6-5.2-4.4-9.5-8.8-12.8
	c-2.7-2-5.8-3.4-9.1-4.3c-0.2,0-0.4-0.1-0.6-0.2c0.2-0.3,0.3-0.5,0.5-0.7c3.7-5.6,7.5-11.2,11.2-16.8c0.8-1.2,1.5-2.5,2.1-3.8
	c1.9-4.2,1.9-8.5-0.1-12.6c-3.1-6.2-8.2-9.4-15.1-9.5c-5.6-0.1-11.2,0-16.8,0C66,218.6,65.7,218.7,65.5,218.7z"/>
<path class="st0" d="M212.4,200.4c0.6,0.1,1.1,0.1,1.7,0.2c2.7,0.1,5.5,0.4,8.1,1.1c4.5,1.1,8.6,2.9,12.1,5.8
	c4.4,3.7,7.1,8.4,8,14.2c0.8,5.2,0,10.3-1.8,15.2c-1.2,3.1-2.7,5.9-4.5,8.6c-2.1,3.1-4.1,6.1-6.2,9.2c-0.2,0.2-0.3,0.5-0.5,0.8
	c0.3,0.2,0.6,0.4,0.9,0.5c5.5,2.9,10.5,6.5,14.9,11c5.6,5.7,9.6,12.4,11.7,20.1c1.2,4.4,1.7,8.8,1.3,13.3c-1,13-6.9,23.4-17.4,31.1
	c-5.3,3.9-11.2,6.3-17.5,7.7c-3.5,0.8-7.1,1.3-10.7,1.4c-1.5,0-3,0.1-4.5,0.1c-18.6,0-37.1,0-55.7,0c-0.3,0-0.7,0-1.1,0
	c0-0.2-0.1-0.4-0.1-0.6c0-0.2,0-0.4,0-0.6c0-45.9,0-91.9,0-137.8c0-0.4,0-0.8,0.1-1.2C171.6,200.4,192,200.4,212.4,200.4z
	 M183.9,218.7c0,34.3,0,68.4,0,102.6c0,0.2,0.1,0.3,0.1,0.5c0.2,0,0.3,0.1,0.5,0.1c4.2,0,8.4,0,12.5-0.1c2.8-0.1,5.5-0.6,8.2-1.5
	c7.2-2.3,12.4-6.8,15.4-13.7c1.8-4,2.5-8.3,2.7-12.6c0.1-2.1,0-4.2-0.1-6.2c-0.2-3.1-0.8-6.2-1.8-9.2c-1.7-5.1-4.7-9.3-9.1-12.4
	c-2.7-1.9-5.6-3.1-8.7-3.9c-0.2,0-0.3-0.1-0.5-0.2c0.2-0.3,0.3-0.5,0.5-0.7c3.7-5.5,7.4-11,11.1-16.5c0.8-1.2,1.5-2.4,2.1-3.7
	c2.2-4.7,2.1-9.4-0.5-13.9c-3.2-5.6-8.1-8.4-14.5-8.5c-5.7-0.1-11.3,0-17,0C184.6,218.6,184.3,218.7,183.9,218.7z"/>
<path class="st0" d="M371.2,200.4c-0.1,0.5-0.2,1-0.4,1.5c-9.5,31.1-19,62.2-28.5,93.4c-4.5,14.8-9,29.6-13.5,44.4
	c-0.1,0.3-0.2,0.5-0.3,0.8c-11.2,0-22.3,0-33.6,0c-15.2-46.6-30.5-93.2-45.7-139.9c0.4,0,0.8-0.1,1.1-0.1c6.3,0,12.5,0,18.8,0
	c0.3,0,0.7-0.1,1-0.1c1.4,0,2.7,0,4.1,0c0.3,0,0.6,0.1,0.9,0.1c0.9,0.1,1.8,0.1,2.6,0.2c3,0.3,5.5,1.7,7.3,4.2
	c0.9,1.2,1.6,2.5,2.2,3.9c1.5,3.3,2.6,6.7,3.7,10.2c5.7,18.9,11.4,37.7,17,56.6c3.1,10.2,6.1,20.3,9.2,30.5c0.1,0.2,0.2,0.5,0.3,0.7
	c0.2-0.3,0.4-0.6,0.4-1c4.6-15.4,9.1-30.7,13.7-46.1c5.2-17.4,10.4-34.9,15.6-52.3c0.7-2.3,1.4-4.7,2.1-7
	C356.6,200.4,363.9,200.4,371.2,200.4z"/>
<path class="st0" d="M355.1,340.4c14.3-46.7,28.5-93.2,42.8-139.9c0.3,0,0.5-0.1,0.7-0.1c9.4,0,18.8,0,28.2,0c1.7,0,3.4,0.2,5,0.7
	c2.2,0.6,3.9,1.9,5.3,3.7c1.2,1.7,2.2,3.5,2.9,5.4c1.3,3.5,2.5,7,3.7,10.4c11.7,34.6,23.4,69.1,35,103.7c1.7,5,3.4,10.1,5.1,15.2
	c0.1,0.2,0.2,0.5,0.3,0.8c-12.6,0-25.1,0-37.7,0c-0.1-0.3-0.2-0.6-0.3-0.8c-2.9-9.5-5.8-18.9-8.7-28.4c-0.3-1-0.1-1-1.3-1
	c-16.4,0-32.7,0-49.1,0c-0.1,0-0.2,0-0.3,0c-0.7,0-0.7,0-1,0.7c-1.4,4.5-2.7,9-4.1,13.5c-1.5,5.1-3.1,10.1-4.6,15.2
	c-0.1,0.3-0.2,0.5-0.3,0.8C369.5,340.4,362.4,340.4,355.1,340.4z M411.3,226c0,0-0.1,0-0.1,0.1c0,0.1-0.1,0.2-0.1,0.3
	c-6.3,21-12.6,42-18.8,63c0,0.1,0,0.2,0,0.3c0,0,0,0,0,0.1c0,0,0,0,0.1,0.1c1.1,0.1,37.9,0.1,38.4-0.1
	C430.5,288.8,411.6,226.5,411.3,226z"/>
</svg>
