<?xml version="1.0" encoding="utf-8"?>
<!-- Generator: Adobe Illustrator 22.1.0, SVG Export Plug-In . SVG Version: 6.00 Build 0)  -->
<svg version="1.1" id="Layer_1" xmlns="http://www.w3.org/2000/svg" xmlns:xlink="http://www.w3.org/1999/xlink" x="0px" y="0px"
	 viewBox="0 0 512 512" style="enable-background:new 0 0 512 512;" xml:space="preserve">
<style type="text/css">
	.st0{fill:none;stroke:#060A02;stroke-width:16;stroke-miterlimit:10;}
	.st1{fill:#005B80;}
</style>
<path class="st0" d="M152.3,149.5c-3.4,2.6-12.1,9.7-17.7,16.9c-5.7,7.3-7.5,10.3-12.1,19.1s-12.5,23.9-14.9,45.1
	c-2.3,21.1-1,33.9,1.1,45.9c2.1,12.1,6.7,27.3,12.4,40c5.7,12.9,21,31.7,24.9,35.5c3.9,3.7,21.6,21.7,36.9,30.1
	c15.3,8.3,20,9.5,41.5,13.1c21.4,3.6,33.6,3.2,40.4,3.3c6.8,0.1,19.3-0.5,27-1.1c7.7-0.7,13.2,0,28.4-5.3
	c15.2-5.3,17.1-7.8,26.6-12.2c9.4-4.4,19-11.7,25.1-17.9c6.3-6.2,10.8-12.1,17.3-22.4c6.6-10.3,11.7-22.7,15.9-35.5
	c4.2-12.8,7.4-29.5,8.5-39.7c1.1-10,0.3-18.8-0.5-30.1c-0.7-11.3-7.8-33.6-11.2-40.4c-3.4-6.8-6.3-13.8-15.5-25
	c-9.4-11.2-16.2-16.9-29.7-25.5c-13.5-8.5-32.7-14.3-46.6-17.5c-13.9-3.1-34.6-5.2-39.1-5.2c-4.4,0-15.9,0.1-27.6,0.8
	c-11.6,0.7-33.7,4.9-40.3,6.1c-6.6,1.1-17.2,4.7-19.3,5.6c-2.1,0.9-9.6,4.4-9.6,4.4C172.1,138.6,157.9,145.3,152.3,149.5z"/>
<g>
	<path class="st1" d="M331.7,212.8c0-4.8-3.9-8.7-8.7-8.7s-8.7,3.9-8.7,8.7c0,4.8,3.9,8.7,8.7,8.7
		C327.9,221.5,331.8,217.6,331.7,212.8z"/>
	<circle class="st1" cx="226.2" cy="212.8" r="8.7"/>
	<path class="st1" d="M311.5,263.4c-0.1-4.3-3.8-6.3-6.4-6.8c-2.6-0.5-3,1.4-3,1.4v12c0,0.6,0,0.9,2.1,0.8
		C308.9,270.7,311.5,267.7,311.5,263.4z"/>
	<path class="st1" d="M412.6,234.3c-0.1-2.1-0.7-4.5-1.7-8.5s-2.5-13.7-4.5-17.6c-1.9-4-4.6-10.3-6.4-13.9
		c-1.8-3.5-2.4-7.1-9.1-18.1c-6.7-11-14.3-17.2-21.3-23.5s-22.8-14.2-33.4-18.5c-10.7-4.3-20.9-6-28.3-7.9
		c-7.4-1.9-29.1-4.9-40.6-4.8c-11.4,0.1-15.9,0.8-36.5,3c-20.6,2.2-29.4,5.1-45.6,9.7c-16.3,4.6-23.8,11.8-27.4,13.4
		c-3.6,1.6-13.4,11.4-13.4,11.4c-0.9,1.1-8.4,9-12.3,14.2c-4,5.3-12.5,21.8-13.9,25.5c-1.4,3.7-12.9,27.1-10.4,58.6
		s9.7,43.2,12.1,48.8c2.4,5.6,7.1,16.6,19.1,31.4c12,14.8,23.4,23.7,27.6,27.1c11.7,9.4,24.6,16.1,38.6,21.6
		c11,4.3,25.3,7.5,35.8,7.5c2.9,0,17.7,0.3,18.9,0.4c1.2,0,5.7-0.7,8.2-1.1c2.5-0.4,10.5,0,14.2-0.3s3,1,19.7-2.3
		s31.7-10.8,39.6-15.3c7.9-4.6,21.5-14.4,33.2-26.2c11.7-11.8,17.7-22.1,22.9-32.2c5.3-10,8.8-23.7,11.7-33c2.9-9.3,4-23,4.1-26.4
		C413.7,253.9,412.7,236.4,412.6,234.3z M378.1,224.5c1.2,1.4,3.8,5,1.5,21c-2.3,16-6.2,20.5-6.2,20.5c-1.6-1.4-5.1-9-3.1-23.7
		C372.3,227.6,378.1,224.5,378.1,224.5z M350.7,231.2c3.7,0.1,8.1,5.5,13.7,17.8c5.6,12.3,4.7,22.5,4.7,22.5
		c-5.2-1.1-8.6-7.4-14.6-19.3C348.5,240.2,350.7,231.2,350.7,231.2z M349.7,203.8c0-2.5,2.1-4.6,4.6-4.6s4.6,2,4.6,4.6
		c0,2.6-2.1,4.6-4.6,4.6C351.7,208.4,349.7,206.3,349.7,203.8z M368.9,285c2-2.9,4.7-8.6,4.8-9.6s2.4-0.6,2.5-0.1
		c0.1,0.5-1.9,8.7-3.5,12.2c-1.6,3.6-3.8,8.4-5.5,9.4c-1.7,1.1-2.4,0-3.1-2C364,294.6,367,287.8,368.9,285z M371.4,223.5
		c0.2,4.6-2.8,3.3-2.8,3.3c-2.4-0.7-2.1-1.2-2.3-5.1c-0.3-3.8-3.5-15.4-4.5-17.8c-1-2.4,0.8-1.8,0.8-1.8
		C366.9,206,371.2,218.9,371.4,223.5z M357.8,151.6c0.5,0,5.4,2.6,7.3,23.3c1.9,20.7-1.4,21.9-2.3,21.9c-0.9,0-5.7-6.9-6.8-19
		C353.8,154,357.4,151.6,357.8,151.6z M328.7,153.8c1.5-1,9.1,6,10.6,7.2c1.4,1.3,3.6,3.2,4.6,4.7s2.3,2,7.8,11.1
		c5.4,9.1,4.1,11.9,4.1,11.9c-3.7,1-11.2-5.3-18-13.5C330.8,167.1,327.2,154.7,328.7,153.8z M337.9,181.8
		c12,5.8,15.8,12.2,15.8,12.2c-4,2.1-13.2-1.3-21.3-4.8c-8.1-3.6-14.6-10.1-15.1-10.8c-0.5-0.7,0.3-1.2,0.3-1.2
		C323.5,175.7,329.2,177.6,337.9,181.8z M302.1,289.2c-1.7,0-5,0-5,0s-2,0.1-2-1.4v-37.2c0,0,0.1-1.5,2.3-1.5s8,0,8,0
		s14.9-0.1,14.9,14.6c0,14.7-11.9,15.1-15.4,15.3c0,0-1.2-0.2-1.2,1.1s0,7.5,0,7.5S303.8,289.2,302.1,289.2z M305.6,212.9
		c0-9.7,7.9-17.6,17.6-17.6s17.6,7.9,17.6,17.6s-7.9,17.6-17.6,17.6S305.6,222.6,305.6,212.9z M274.4,142.6c0.3-0.8,3-1.8,7.2-2.1
		c4.2-0.3,6.8,0,19,3.2c17.3,4.5,17.1,8.6,17.3,8.9c-1.4,1.8-15.7,1.1-25.3-1.1C283.3,149.3,273.7,144.7,274.4,142.6z M267.3,197.8
		c0,0,0.3-3,2.7-0.8s18.3,18,18.3,18s0.9,1,0.9-1.3c-0.1-2.3,0-16,0-16s-0.2-1.4,1.3-1.4c1.4,0,5.5,0,5.5,0s1,0.1,1,1.2v34.6
		c0,0-0.1,1.3-1.7,0c-1.6-1.3-18.8-15.4-18.8-15.4s-1.1-0.8-1.1,0.9c-0.1,1.6,0,14.5,0,14.5s0.3,1.5-1.1,1.5c-1.4,0-5.3,0-5.3,0
		s-1.7,0.2-1.7-2V197.8z M250.3,194.7c0-0.9,0.7-1.7,1.7-1.7h5c0.9,0,1.7,0.7,1.7,1.7v36c0,0.9-0.8,1.7-1.7,1.7h-5
		c-0.9,0-1.7-0.8-1.7-1.7V194.7z M228.5,286.2c-1.6,0-5.6,0-5.6,0s-1.7,0.2-1.8-1.8v-23c0,0,0-0.5-0.8-1.3
		c-0.8-0.8-12.7-12.9-12.7-12.9s-1.1-1.1,0.2-2.5c1.3-1.4,4-3.9,4-3.9s1-0.7,2.4,0.8c1.4,1.4,10.6,10.9,10.6,10.9s0.9,0.6,1.7-0.2
		c0.8-0.8,11.3-11,11.3-11s1-0.8,1.8,0.1c0.8,0.8,3.8,3.8,3.8,3.8s1.1,0.9,0.1,2.3c-1.1,1.4-13.1,14.3-13.1,14.3s-0.5,0.7-0.5,1.5
		s0,20.7,0,20.7S230.1,286.2,228.5,286.2z M151.9,291.1c1.4,7.8,6.9,15.9,6.9,17.9s-2.5,3.2-3.9,2.3c-2.6-1.7-6.7-16.9-5.5-20.1
		C150.6,288.2,151.9,291.1,151.9,291.1z M151.8,266.2c0.7-14,7.4-23.6,7.9-23.4s4.9,8.5,1.5,23.1c-3.4,14.6-8.8,19-8.8,19
		C151.1,285.4,151,280.1,151.8,266.2z M158.7,290.4c0-2.4,2-4.4,4.4-4.4c2.4,0,4.4,2,4.4,4.4c0,2.4-2,4.4-4.4,4.4
		C160.7,294.8,158.7,292.8,158.7,290.4z M162.3,310.1c2.4,0.7,8.3,4,13.6,15c5.3,11,5.8,20.9,5.8,20.9c-8.1-3.9-10.1-9.2-15.1-18.6
		C161.8,318.2,162.3,310.1,162.3,310.1z M181.5,214.4c1.1-1.2,13.9-16.4,13.9-16.4s0.7-0.8,1.9,0.2c1.2,1.1,4.4,3.6,4.4,3.6
		s0.6,0.5-0.1,1.6c-0.8,1.1-11,12.4-11,12.4s-1.1,1.2,0,2.2c1.2,1,15.5,12.2,15.5,12.2s0.6,1,0.1,1.8s-3.2,3.8-3.2,3.8
		s-0.6,0.9-2.1-0.4c-1.6-1.4-19.7-14.5-19.7-14.5s-0.8-0.5-0.8,0.9c0,1.4,0,16.8,0,16.8s0.1,1.5-1,1.5c-1.1,0-6,0-6,0
		s-1.2-0.1-1.2-1.3v-39.1c0,0,0.2-1.1,1.2-1.1c0.9,0,5.8-0.1,5.8-0.1s1.1-0.1,1.1,1.7s0,14.7,0,14.7S180.4,215.6,181.5,214.4z
		 M181.4,329.2c-2.5-14.3,2.5-22.5,2.5-22.5s4.7,2.7,6.3,18.6c1.5,15.9-3.4,22.6-3.4,22.6S183.8,343.6,181.4,329.2z M184.7,277.1
		c0,0-0.8-0.5-0.8,0.9c0,1.4,0,14.3,0,14.3s0.1,1.5-1,1.5c-1.1,0-6,0-6,0s-1.2-0.2-1.2-1.4v-36.5c0,0,0.2-1.1,1.2-1.1
		c0.9,0,5.8-0.1,5.8-0.1s1.1-0.1,1.1,1.7c0,1.8,0,14.7,0,14.7s0.1,0.7,1.2-0.5c1.1-1.2,13.9-16.4,13.9-16.4s0.7-0.8,1.9,0.2
		c1.2,1.1,4.4,3.6,4.4,3.6s0.6,0.5-0.1,1.6c-0.8,1.1-11,12.4-11,12.4s-1.1,1.2,0,2.2c1.2,1,15.5,12.2,15.5,12.2s0.6,1,0.1,1.8
		s-3.2,3.8-3.2,3.8s-0.6,0.9-2.1-0.4C202.8,290.2,184.7,277.1,184.7,277.1z M243.9,212.9c0,9.7-7.9,17.6-17.6,17.6
		s-17.6-7.9-17.6-17.6s7.9-17.6,17.6-17.6C236.1,195.3,243.9,203.2,243.9,212.9z M185.4,150.5c6.2-3.2,13-6.7,18.8-7.5
		s12.6-0.7,12.6,1c-0.1,1.6-6.2,5.4-7.8,6.7c-1.6,1.3-12.5,6.9-19.1,8.1c-6.8,1.1-12.5,1-12.6,0.5
		C177.3,159.3,179.2,153.7,185.4,150.5z M179.1,179.5c0.3,2.1-4.4,12.3-11.3,19.9c-6.9,7.6-13.5,10.3-13.6,10.1
		c-0.7-2.4,3.6-12.6,9-19.4C168.6,183.3,178.8,177.4,179.1,179.5z M150.2,184.2c2.5-8.1,10.3-19.8,12-18.6
		c1.7,1.2-0.5,15.8-2.7,22.5c-2.2,6.7-8.3,17.3-9.6,16.2C146.1,201.2,147.8,192.3,150.2,184.2z M146.9,227.8
		c0.8-5.1,3-11.7,3.5-12.2s1.6,1.8,1.9,3c0.3,1.2-1.3,9.5-1.3,12.6c0,3.1,0.2,6.3-0.8,7.2c0,0-1.4,0.5-3.3-0.1
		C145.1,237.7,146.2,232.9,146.9,227.8z M147.7,281.4c-0.5,0.5-3.5-4.9-7.2-15.9s-0.9-29-0.2-29.2s5.5,5,7.8,18
		C150.4,267.3,147.7,281.4,147.7,281.4z M138.6,174.8c2.8,2.3,5.3,11.5,6.6,19.1s-0.1,20.7-0.1,20.7c-1.6-0.4-7.2-7.6-9.2-20.4
		C133.9,181.3,138.6,174.8,138.6,174.8z M134.4,214.6c2.4,0,4.3,2,4.3,4.3c0,2.4-1.9,4.3-4.3,4.3c-2.4,0-4.3-1.9-4.3-4.3
		C130.1,216.5,132,214.6,134.4,214.6z M144.3,288.7c-1.4,0.6-9.4-6.1-14.8-16.1c-5.4-9.9-5.9-22.6-5.9-22.6
		c7.4,3.3,11.8,11.8,14.3,17.1S145.2,288.3,144.3,288.7z M157.8,341.5c-7.4-4.8-12.5-16.1-12.5-16.1c8.8-0.2,18.4,7.5,21.8,10.3
		c3.4,2.8,13.1,16,13.1,16C174.6,351.4,165.2,346.4,157.8,341.5z M185.4,366.1c-2.3,0-4.2-1.9-4.2-4.2s1.9-4.2,4.2-4.2
		c2.3,0,4.2,1.9,4.2,4.2C189.6,364.2,187.7,366.1,185.4,366.1z M223.2,372.4c-0.7,0.8-4.4,0.6-4.4,0.6c-2.4-0.1-6.4-3-9.4-4.6
		c-4.6-2.3-14.5-8.3-18-11.9c-1.2-1.3-1.4-2.3-1.4-3c0-0.7,1-1.9,2-1.3c1,0.5,3.7,3.4,8.3,6.3c4.6,2.9,16.6,8,18.7,9.4
		C221.1,369.3,223.9,371.7,223.2,372.4z M228.6,383.3c-1.3,0.3-4.3-2.5-4.3-2.5c0.3-1.2-0.7-3.2-0.5-3.6c0.2-0.5,4.1-7.6,4.1-7.6
		s5.2-7.3,7.7-3.5c2.6,3.8,0.2,7.2-0.9,9.8C233.5,378.5,229.9,383,228.6,383.3z M248,369.7c-0.5,1.8-1.6,4.5-2.8,8
		c-1.2,3.6-4.2,7.2-6.3,5.9c-2.1-1.3-2.8-3.6-2.7-5.9c0.1-2.4,4.5-8.3,5.5-9.6s3-2.7,4.1-2C246.9,366.7,248.5,367.9,248,369.7z
		 M255.1,384.1c-2,3.5-4.8,1.3-5.9,0.1c-0.8-0.8-1.1-1.1,0.1-3.9c1.1-2.8,0.9-7.6,4-12.5c3.1-5,6.2-0.2,6.2-0.2
		C260,378.2,257.1,380.6,255.1,384.1z M258.9,332.5c-5.3,5.7-14.4,7.7-21.5,2.9c-3.3-2.2-4.2-6-4.2-6s-0.7-0.6-1,0.1s-3.6,7.1-9,8
		c-5.5,0.9-9.7,0.2-12.8-3.8c-3.1-4-4.5-7.7-4.5-13.6c0-5.8,0.1-13.1,0.1-13.1s-0.1-1.6,1.6-1.6s5.2,0,5.2,0s1.5,0.1,1.5,1.5
		c0,1.3,0,13.2,0,13.2s0.2,8.4,7.7,8.4c6.1-0.1,8.7-7.8,8.8-9.8c0-1,0-5.5,0-5.5s0.6-1.2,1.4-1.2s4.1,0,4.1,0s1.2,0.3,1.2,1.5
		s0,5.1,0,5.7c0,0.6,0.8,9.2,9.2,9.2c5.8,0.1,9.9-9.2,10-12.1c0-1.9,0-8.6,0-8.6s0.1-1.3,1.3-1.3c1.2,0,4.8,0,4.8,0s1.4,0.4,1.4,1.4
		s0,8,0,8S264.1,326.9,258.9,332.5z M270.6,372.7c0.1,2.6-3.2,9.2-4.4,10.7c0,0-1,2.3-4.6,0.1c-3.6-2.4,0.2-10.4,1.8-13.1
		c1.6-2.7,0.4-4.8,4.2-3.4S270.5,370.1,270.6,372.7z M272,283.8c0.2-1.6,3.4-20.7,3.4-20.7s0.1-1.8-1.6-1.7c-1.7,0.1-15.5,0-15.5,0
		s-1.7-0.2-1.7,2.1c0,2.3,0,20.7,0,20.7s-0.1,1.6-1.6,1.6c-1.6,0-5.3,0-5.3,0s-1.5-0.2-1.5-1.3V255c0,0,0.4-1.4,2-1.4
		c1.6,0,33,0,33,0s1.1,0.4,1,2.2c-0.2,1.7-4.1,28.3-4.1,28.3s-0.2,1.3-1.3,1.4c-1.1,0.2-5.4,0-5.4,0S271.8,285.4,272,283.8z
		 M283.2,367.5c-0.2,1.8,0,2.9-0.4,8.1c-0.3,5.2-2.7,6.3-5.2,5.4c-3.1-1.2-3.7-6.4-2.4-12.2c1.5-6.2,4.6-6,5.9-5.6
		C282.5,363.6,283.4,365.7,283.2,367.5z M284.9,326.8c0,0-1.1-0.8-1.1,0.9c0,1.6,0,14.5,0,14.5s0.3,1.5-1.1,1.5c-1.4,0-5.3,0-5.3,0
		s-1.7,0.1-1.7-2.1v-33.7c0,0,0.3-3,2.7-0.8s18.3,18,18.3,18s0.9,1,0.9-1.3c-0.1-2.3,0-16,0-16s-0.2-1.4,1.3-1.4c1.4,0,5.5,0,5.5,0
		s1,0,1,1.2v34.6c0,0-0.1,1.3-1.7,0C302.1,340.9,284.9,326.8,284.9,326.8z M332.3,354.1c-0.1,4.9-5.5,6.5-18.7,13.4
		c-13.2,6.9-24.6,8.9-24.7,7.8c-0.4-5.5,3.6-5.5,5.9-6c2.3-0.5,10.7-1.3,24.5-9.4S332.3,354.1,332.3,354.1z M337.1,287.8
		c0,0.9-0.8,1.7-1.7,1.7h-5c-0.9,0-1.7-0.8-1.7-1.7v-35.9c0-0.9,0.7-1.7,1.7-1.7h5c0.9,0,1.7,0.7,1.7,1.7V287.8z M339.8,310.8
		c2.1-9.1,5.7-11.5,5.7-11.5c2,3.4,3.5,11.2,2.7,21.3c-0.8,10.1-6.3,19.8-6.3,19.8C337.9,337.8,338.5,316.3,339.8,310.8z
		 M343.9,358.7c-2.4,0-4.4-2-4.4-4.4c0-2.4,2-4.4,4.4-4.4c2.4,0,4.4,2,4.4,4.4C348.3,356.7,346.3,358.7,343.9,358.7z M347.7,336.9
		c0,0,1.4-13.9,10.1-26.4c4.2-6,10.6-9.1,10.9-9c0,0,1.2,8.8-3.8,16.9c-5.1,8.3-12,16.7-16.4,19.2L347.7,336.9z M373,332.7
		c-12.1,10.2-22.7,12.6-23.4,10c0,0,4.6-8.8,12.6-14.9c8-6.1,14.5-10.4,21.2-10C383.4,317.8,385.1,322.5,373,332.7z M384.5,286.6
		c-2.5,0-4.5-2-4.5-4.5s2-4.5,4.5-4.5c2.4,0,4.5,2,4.5,4.5S387,286.6,384.5,286.6z M389.6,258.2c-1.1,3.2-5,8.1-6.9,11
		c-1.9,2.9-4.6,4.8-4.6,4.8c-2-2.9,0.1-18.9,5.5-28.9c5.4-10.1,10.8-11.6,10.8-11.6C395.8,243.3,390.7,255,389.6,258.2z"/>
</g>
</svg>
