<svg xmlns="http://www.w3.org/2000/svg" width="320.2" height="320.2"><path d="M294.2 135.6h-13.9l-8 34-1.1 4.7c-.8.2-1.6.4-2.3.6-1.4.3-2.9.4-4.4.4-1.8 0-3.2-.3-4.2-.8s-1.8-1.2-2.2-2.2c-.4-.9-.6-2-.5-3.3.1-1.3.4-2.7.7-4.1l4.2-17.7 2.8-11.7h-14.2l-6.4 27.1c-.8 3.2-1.2 6.4-1.3 9.3-.1 3 .4 5.5 1.3 7.8 1 2.3 2.8 4 5.2 5.4 2.4 1.3 5.9 2 10.2 2 3 0 5.7-.3 8-.8.1 0 .2-.1.3-.1-.6 2.8-1.9 5.1-3.9 6.8-2 1.8-5 2.7-9 2.7-1.7 0-3.2-.1-4.7-.3l-2.8 11.5c1.8.2 3.9.4 6.1.4 4.2 0 7.9-.5 11.1-1.4 3.2-1 5.9-2.4 8.2-4.4 2.3-2 4.2-4.4 5.7-7.3 1.6-3 2.8-6.4 3.7-10.5l9.6-40.4 1.8-7.7zm-58.3 29.1c-.8 3.5-1.1 7.1-.8 10.7.4 3.6 1.8 9 3.1 11.8h-13.4c-1.6-2.8-1.6-4.1-1.9-4.9-1.8 1.4-3.7 2.6-5.8 3.5-2.1.9-4.4 1.4-7.1 1.4-3.1 0-5.8-.6-8-1.6-2.2-1.1-4-2.5-5.4-4.4-1.4-1.8-2.4-4-3-6.4-.6-2.5-.9-5.1-.9-7.9 0-4.3.8-8.3 2.3-12.1 1.6-3.8 3.7-7.1 6.4-10 2.7-2.8 9.2-9.1 20-9.1h21.5l-7 29zm-9.8-17.3c-6.5 0-7.7 0-10.4 1.3-1.9 1-3.5 2.5-4.8 4.2s-2.5 3.7-3.2 5.9c-.8 2.3-1.2 4.6-1.2 7 0 3 .5 5.4 1.5 7.1s2.8 2.6 5.5 2.6c1.4 0 2.8-.3 3.9-.8 1.1-.6 2.4-1.5 3.7-2.8.1-1.6.4-3.2.6-4.9.3-1.7.6-3.3.9-4.7l3.5-14.9m-37.3 8.6c0 4.6-.8 8.8-2.3 12.6-1.5 3.8-3.6 7.1-6.3 9.8-2.7 2.8-5.9 4.9-9.6 6.4-3.7 1.6-7.8 2.3-12.1 2.3-2.1 0-4.2-.2-6.4-.6l-4.2 17H134l16.2-67.9h18.6c3.5 0 6.6.6 9 1.6 2.5 1.1 4.6 2.5 6.3 4.4 1.6 1.8 2.8 4 3.6 6.5.8 2.5 1.1 5.1 1.1 7.9zm-34.1 19.3c1.1.3 2.4.4 4 .4 2.5 0 4.7-.4 6.7-1.3s3.7-2.2 5.2-3.8c1.4-1.6 2.5-3.6 3.3-5.9.8-2.3 1.2-4.8 1.2-7.6 0-2.7-.6-5-1.8-6.8-1.2-1.9-3.2-2.9-6.2-2.9h-5.5l-6.9 27.9zm-29.2 0c-1.8 0-3.2-.3-4.2-.8s-1.8-1.2-2.2-2.2c-.4-.9-.6-2-.5-3.3.1-1.3.4-2.7.7-4.1l4.2-17.7h15.8l2.9-11.7h-15.9l3.7-14.8-14.8 2.3-9.4 39.7c-.8 3.2-1.2 6.4-1.3 9.3-.1 3 .4 5.5 1.3 7.8 1 2.3 2.8 4 5.2 5.4s5.9 2 10.2 2c3 0 5.7-.3 8-.8.2-.1.6-.1.8-.2l2.9-12.1c-1 .4-2 .6-2.9.7-1.4.4-2.9.5-4.5.5zm-35.4-39.7-12.3 51.5h13.9l12.2-51.5H90.1zm15.4-5.9 2.1-9H93.7l-2.1 9h13.9zm-46.1 6c3 0 5.6.6 7.8 1.6 2.2 1.1 4 2.5 5.4 4.3 1.4 1.8 2.5 4 3.2 6.4.7 2.4 1.1 5 1.1 7.8 0 4.3-.8 8.3-2.4 12.2-1.6 3.8-3.7 7.2-6.5 10s-6 5.1-9.7 6.7c-3.7 1.6-7.8 2.5-12.1 2.5-.6 0-1.6 0-3-.1-1.4 0-3-.1-4.8-.4-1.8-.3-3.7-.6-5.7-1.1-2-.5-3.9-1.2-5.7-2l16-67.9 14.5-2.3-5.7 24.1c1.3-.6 2.4-1 3.7-1.3 1.1-.3 2.4-.5 3.9-.5zm-12.2 40c2.2 0 4.2-.5 6.1-1.6 1.9-1.1 3.6-2.5 5-4.2 1.4-1.8 2.5-3.8 3.3-6 .8-2.3 1.2-4.6 1.2-7 0-3-.5-5.3-1.5-7-1-1.7-3-2.5-5.7-2.5-.8 0-1.8.1-3.2.4-1.4.3-2.6 1-3.7 2l-6.1 25.6c1.8.3 2.4.4 2.9.4.4-.1 1-.1 1.7-.1z" fill="#002855"/></svg>