<?xml version="1.0" encoding="utf-8"?>
<!-- Generator: Adobe Illustrator 22.1.0, SVG Export Plug-In . SVG Version: 6.00 Build 0)  -->
<svg version="1.1" id="Layer_1" xmlns="http://www.w3.org/2000/svg" xmlns:xlink="http://www.w3.org/1999/xlink" x="0px" y="0px"
	 viewBox="0 0 512 512" style="enable-background:new 0 0 512 512;" xml:space="preserve">
<style type="text/css">
	.st0{fill:#FF0000;}
</style>
<path class="st0" d="M120.6,397.8c19.9-14.4,39.6-28.2,58.8-42.6c79.1-59.6,153.3-125,225.4-192.8c5.8-5.4,9.6-12.9,14.5-19.7
	c5.7,2.8,9.5,14.3,3.4,21.7c-7.1,8.6-4.5,15.3-1,24c28.7,71,12,146.9-44.8,198.2c-37.4,33.8-82.2,48.1-132.8,43.7
	c-31.5-2.7-60-13.3-85.6-31.5c-4.4-3.1-7.9-3.4-11.8,0.2c-1.1,1.1-2.6,1.8-3.8,2.7C131.8,409.5,127.2,408.5,120.6,397.8z"/>
<path class="st0" d="M370,121.5c-4.3,0-7.3-0.1-10.4,0c-35.2,1.7-70.4,3.4-105.6,5.3c-4.2,0.2-8.6,1.2-12.3,3
	c-2.8,1.5-5.9,4.7-6.5,7.6c-0.4,2.4,2,6.5,4.3,8.1c6.9,4.9,14.4,9,21.6,13.5c8.1,5.1,8.7,7.1,2.9,14.7c-17.8,23.7-36.3,47-53.7,71.1
	c-27.3,37.9-53.7,76.3-80.6,114.4c-5.4,7.7-5.9,7.7-11.5-0.1C91.1,320.9,79.5,278.5,86.8,232C98,160.3,138.6,112.1,207.1,89.2
	c56.4-18.9,109.2-8.2,157.4,26c1.3,0.9,2.5,1.9,3.6,2.9C368.7,118.6,368.9,119.3,370,121.5z"/>
</svg>
