<svg xmlns="http://www.w3.org/2000/svg" xmlns:xlink="http://www.w3.org/1999/xlink" viewBox="0 0 349 348">
    <defs>
        <style>
            .cls-1{isolation:isolate;}.cls-2{fill:#fcfdfc;}.cls-3{opacity:0.5;}.cls-10,.cls-3,.cls-6{mix-blend-mode:multiply;}.cls-4{fill:#e20613;}.cls-5{fill:url(#radial-gradient);}.cls-7{fill:url(#radial-gradient-2);}.cls-8{fill:#4a4a49;}.cls-9{fill:url(#linear-gradient);}.cls-10{opacity:0.4;}.cls-11{fill:#fff;}
        </style>
        <radialGradient id="radial-gradient" cx="148.74" cy="183.88" r="99.22"
                        gradientTransform="translate(522.09 -23.57) rotate(84.16) scale(1.14)"
                        gradientUnits="userSpaceOnUse">
            <stop offset="0.03" stop-color="#fff"/>
            <stop offset="0.03" stop-color="#fffefe"/>
            <stop offset="0.19" stop-color="#f7bdc1"/>
            <stop offset="0.35" stop-color="#f1858c"/>
            <stop offset="0.5" stop-color="#ec5860"/>
            <stop offset="0.64" stop-color="#e7343f"/>
            <stop offset="0.78" stop-color="#e41b27"/>
            <stop offset="0.9" stop-color="#e30b18"/>
            <stop offset="1" stop-color="#e20613"/>
        </radialGradient>
        <radialGradient id="radial-gradient-2" cx="123.58" cy="174.74" r="285.32"
                        gradientTransform="translate(16.26 -34.07) scale(1.12)" gradientUnits="userSpaceOnUse">
            <stop offset="0.65" stop-color="#fdfdfd"/>
            <stop offset="0.72" stop-color="#f4f4f4"/>
            <stop offset="0.84" stop-color="#dadada"/>
            <stop offset="1" stop-color="#b2b2b2"/>
            <stop offset="1" stop-color="#b1b1b1"/>
        </radialGradient>
        <linearGradient id="linear-gradient" x1="109.04" y1="372.82" x2="432.02" y2="186.34"
                        gradientUnits="userSpaceOnUse">
            <stop offset="0.04" stop-color="#454443"/>
            <stop offset="0.08" stop-color="#929191"/>
            <stop offset="0.15" stop-color="#454443"/>
            <stop offset="0.91" stop-color="#454443"/>
            <stop offset="0.97" stop-color="#929191"/>
            <stop offset="0.98" stop-color="#727171"/>
            <stop offset="0.99" stop-color="#555554"/>
            <stop offset="1" stop-color="#4a4a49"/>
        </linearGradient>
    </defs>
    <title>UniCredit Bank</title>
    <g class="cls-1">
        <g id="Layer_1" data-name="Layer 1">
            <path class="cls-2"
                  d="M216.41,271.82c-3.16.28-5.38-.21-5.32-4.28,0-3.89,2.31-4.06,5.13-3.91,3.07.16,6.94-.19,7,4.07S219.42,271.64,216.41,271.82Z"
                  transform="translate(-86.12 -88.12)"/>
            <path class="cls-2"
                  d="M216,259c-1.92-.15-4.75.77-4.81-3.17-.06-3.6,2.25-3.74,4.83-3.66s6.24-.27,6.22,3.51C222.21,259,219,259.05,216,259Z"
                  transform="translate(-86.12 -88.12)"/>
            <path class="cls-4" d="M425,259.32A166.84,166.84,0,1,1,258.16,92.48,166.84,166.84,0,0,1,425,259.32Z"
                  transform="translate(-86.12 -88.12)"/>
            <circle class="cls-5" cx="258.16" cy="259.32" r="166.84"
                    transform="translate(-112.23 401.61) rotate(-84.16)"/>
            <g class="cls-6">
                <path class="cls-7" d="M425,259.32A166.84,166.84,0,1,1,258.16,92.48,166.84,166.84,0,0,1,425,259.32Z"
                      transform="translate(-86.12 -88.12)"/>
            </g>
            <path class="cls-8"
                  d="M244,171c3.48,2.65,20.93,12.87,26.16,16.15a15.94,15.94,0,0,1,1.78,1.26c.41-.57.71-1,.87-1.29,1.84-3.06,2.57-5.52-2.65-8.79S247.5,164.87,244,162.21c-.21-.16-5.54-4.41-5.72-4.62C240.48,163.57,241.92,169.41,244,171Z"
                  transform="translate(-86.12 -88.12)"/>
            <path class="cls-9"
                  d="M408.62,149.29c1.41,3.4,2.66,9.88,2.11,12-2,7.72-13.89,19.41-32.69,36.37,0,0-31.07,28.82-53.75,48.64s-95.23,80.93-109.33,92S146.18,390,142.63,392.65c-2.7,2-14.75,3.77-20,3.63,1.71,2.44,4.76,5.14,7.91,8.19,5.57,5.4,15.33-2.41,18.88-5.08S207.6,356.05,221.7,345s86.65-72.15,109.34-92,53.74-48.64,53.74-48.64c18.8-17,29.07-26.19,31.07-33.91C416.77,167,418,155.8,408.62,149.29Z"
                  transform="translate(-86.12 -88.12)"/>
            <path class="cls-11"
                  d="M248.59,216s19.27-24.93,21.11-28,2.57-5.51-2.65-8.78-22.69-13.49-26.16-16.15-2.86-12.46,7.36-14.51,98.9-9.4,133.44-5.72,29.84,13.49,30,21.46S397.84,183.7,379,200.66c0,0-31.07,28.82-53.75,48.64s-95.23,80.93-109.33,92S147.18,393,143.63,395.65s-13.47,10.64-18.87,5.08,0-11.78,2.74-15.57S240.42,225.8,248.59,216Z"
                  transform="translate(-86.12 -88.12)"/>
        </g>
    </g>
</svg>