<svg xmlns="http://www.w3.org/2000/svg" viewBox="0 0 512 512"><path fill="#ff671d" fill-rule="evenodd" d="M488 296.8h-12.4v-11.9H488zm-430.1.6c17.5 0 26.1-5.2 26.1-23.9 0-17-6.4-24.5-23.7-24.5-7.6 0-12.8.6-16.6 3.8V230H31.4v44.7c0 17.1 7.5 22.7 26.5 22.7m70.6-30.4v-2.2c0-5.4-3.5-6.5-12.9-6.5-8.8 0-16.7 1.9-20.7 3.3v-8.7c7.1-2.7 15.1-3.8 21.2-3.8 13.4 0 24.8 2.1 24.8 17.3v14.3c0 16.8-13.7 16.8-24.8 16.8-16.8 0-25-4.7-25-14.2 0-12.9 8.2-15.3 37.4-16.3m96 10.8v19h-12.2v-66.9h12.3v37.3h2.3c3.6 0 4.9-.6 7.4-3.2l14.4-14.1h14.1L241 272.3l23.5 24.5h-15.7l-15-16c-2.6-2.7-3.5-2.9-7.2-2.9h-2.1zm-61.5 19v-29.5c0-7.2 2.5-9.1 12.9-9.1 10.7 0 13.1 1.9 13.1 9.1v29.5h12.3v-29.9c0-13.3-9.7-17.7-23.1-17.7h-4.1c-13.5 0-23.2 4.4-23.2 17.7v29.9zm141.8 0v-29.5c0-7.2 2.5-9.1 12.9-9.1 10.7 0 13.1 1.9 13.1 9.1v29.5H343v-29.9c0-13.3-9.7-17.7-23.1-17.7h-4.1c-13.5 0-23.2 4.4-23.2 17.7v29.9zm81.2-37.5h-20.5v22.8c0 4.3 3.1 6 8.1 6 5.7 0 9.7-.6 12.6-1.3v8.5c-4.9 1.3-10 2.1-14.1 2.1-13.6 0-18.7-5.6-18.7-14.2v-48h12.1v15.1H386zM57.7 288.5c-12.6 0-14.6-2.2-14.6-16.4 0-12.1 4-13.7 14-13.7 10.2 0 14.1 1.7 14.1 13.7.1 14.1-2.1 16.4-13.5 16.4M453.5 265c0-12.7 9.3-16.3 17.6-16.3 3.9 0 13.6.5 15.8 1v8.9h-12.7c-6.8 0-8.5.6-8.5 7.1v31.1h-12.3V265zm-184.4-15h12.4v46.9h-12.4zm-152.3 38.5c9.1 0 11.7-1.4 11.7-5.9v-7.3l-11.1.5c-11.2.6-13.8 2.2-13.8 5.9 0 5.5 1.7 6.8 13.2 6.8m152.3-58.6h12.4v11.9h-12.4zm137 49.6c.8 5.7 3.6 9.2 13.2 9.2 8.2 0 16.7-1.3 23.1-3.6v8.3c-4.8 2.6-15.2 4.2-22.8 4.2-19.9 0-26.5-4.9-26.5-24.8 0-17.4 5.6-23.9 26.2-23.9 17 0 24.6 5.7 24.8 15.3 0 12.1-8.2 15-38 15.3m6.5-9.2c16.1-.7 18.6-2 18.6-5.7 0-4.4-2.9-6.5-12.1-6.5-11.7 0-13.2 2.2-13.2 12.6z" clip-rule="evenodd"/></svg>