<?xml version="1.0" encoding="utf-8"?>
<!-- Generator: Adobe Illustrator 22.1.0, SVG Export Plug-In . SVG Version: 6.00 Build 0)  -->
<svg version="1.1" id="Layer_1" xmlns="http://www.w3.org/2000/svg" xmlns:xlink="http://www.w3.org/1999/xlink" x="0px" y="0px"
	 viewBox="0 0 512 512" style="enable-background:new 0 0 512 512;" xml:space="preserve">
<style type="text/css">
	.st0{fill-rule:evenodd;clip-rule:evenodd;fill:#FF671D;}
</style>
<path class="st0" d="M488,296.8h-12.4v-11.9H488V296.8 M57.9,297.4c17.5,0,26.1-5.2,26.1-23.9c0-17-6.4-24.5-23.7-24.5
	c-7.6,0-12.8,0.6-16.6,3.8v-22.8H31.4v44.7C31.4,291.8,38.9,297.4,57.9,297.4z M128.5,267v-2.2c0-5.4-3.5-6.5-12.9-6.5
	c-8.8,0-16.7,1.9-20.7,3.3v-8.7c7.1-2.7,15.1-3.8,21.2-3.8c13.4,0,24.8,2.1,24.8,17.3v14.3c0,16.8-13.7,16.8-24.8,16.8
	c-16.8,0-25-4.7-25-14.2C91.1,270.4,99.3,268,128.5,267z M224.5,277.8v19h-12.2v-66.9h12.3v37.3h2.3c3.6,0,4.9-0.6,7.4-3.2
	l14.4-14.1h14.1L241,272.3l23.5,24.5h-15.7l-15-16c-2.6-2.7-3.5-2.9-7.2-2.9H224.5z M163,296.8v-29.5c0-7.2,2.5-9.1,12.9-9.1
	c10.7,0,13.1,1.9,13.1,9.1v29.5h12.3v-29.9c0-13.3-9.7-17.7-23.1-17.7h-4.1c-13.5,0-23.2,4.4-23.2,17.7v29.9H163z M304.8,296.8
	v-29.5c0-7.2,2.5-9.1,12.9-9.1c10.7,0,13.1,1.9,13.1,9.1v29.5H343v-29.9c0-13.3-9.7-17.7-23.1-17.7h-4.1c-13.5,0-23.2,4.4-23.2,17.7
	v29.9H304.8z M386,259.3h-20.5v22.8c0,4.3,3.1,6,8.1,6c5.7,0,9.7-0.6,12.6-1.3v8.5c-4.9,1.3-10,2.1-14.1,2.1
	c-13.6,0-18.7-5.6-18.7-14.2v-48h12.1v15.1H386V259.3z M57.7,288.5c-12.6,0-14.6-2.2-14.6-16.4c0-12.1,4-13.7,14-13.7
	c10.2,0,14.1,1.7,14.1,13.7C71.3,286.2,69.1,288.5,57.7,288.5z M453.5,265c0-12.7,9.3-16.3,17.6-16.3c3.9,0,13.6,0.5,15.8,1v8.9
	h-12.7c-6.8,0-8.5,0.6-8.5,7.1v31.1h-12.3V265z M269.1,250h12.4v46.9h-12.4V250z M116.8,288.5c9.1,0,11.7-1.4,11.7-5.9v-7.3
	l-11.1,0.5c-11.2,0.6-13.8,2.2-13.8,5.9C103.6,287.2,105.3,288.5,116.8,288.5z M269.1,229.9h12.4v11.9h-12.4V229.9z M406.1,279.5
	c0.8,5.7,3.6,9.2,13.2,9.2c8.2,0,16.7-1.3,23.1-3.6v8.3c-4.8,2.6-15.2,4.2-22.8,4.2c-19.9,0-26.5-4.9-26.5-24.8
	c0-17.4,5.6-23.9,26.2-23.9c17,0,24.6,5.7,24.8,15.3C444.1,276.3,435.9,279.2,406.1,279.5z M412.6,270.3c16.1-0.7,18.6-2,18.6-5.7
	c0-4.4-2.9-6.5-12.1-6.5c-11.7,0-13.2,2.2-13.2,12.6L412.6,270.3z"/>
</svg>
