<svg fill="none" xmlns="http://www.w3.org/2000/svg" viewBox="0 0 256 256"><path d="M0 0h256v256H0V0z" fill="#fff"/><path d="M144.1 77.7a16.7 16.7 0 10-33.4 0 16.7 16.7 0 0033.4 0zM144.1 177.3a16.7 16.7 0 10-33.4 0 16.7 16.7 0 0033.4 0zM63.5 127.7a16.7 16.7 0 10-33.4 0 16.7 16.7 0 0033.4 0zM226 127.7a16.7 16.7 0 10-33.4 0 16.7 16.7 0 0033.4 0z" fill="#1E357A"/><path d="M203.1 98V66.5l-75.3 45.5-.4.2-75.7-45.7v31.3l49.7 29.8-49.7 29.7v31.4l75.7-45.7 75.7 45.7v-31.4l-49.8-29.7 49.8-29.8z" fill="#1E357A"/></svg>