<svg xmlns="http://www.w3.org/2000/svg" viewBox="0 0 320.24 320.24"><path d="M161.09 75.25c23.58 0 47.16.15 70.73-.06a29.14 29.14 0 0 1 27.42 19.24 30.4 30.4 0 0 1 1.9 10.63v108.08A29.54 29.54 0 0 1 236.73 242a27.5 27.5 0 0 1-4.62.35H89.99c-15.49 0-27.25-12.08-28.86-26.45a38 38 0 0 1-.23-4.23v-106c0-10.21 3.89-18.65 12-24.92a26.56 26.56 0 0 1 16.63-5.59q35.8.13 71.56.09M161 239.39h71.14a23.4 23.4 0 0 0 11-2.45c9.92-5.19 15-13.57 15-24.64.13-35.67.06-71.35 0-107a31.4 31.4 0 0 0-.51-5.39c-2.19-12.42-12.94-21.72-25.13-21.72H89.43a24.3 24.3 0 0 0-5.5.65c-11.62 2.75-20.01 13.47-20.03 26.08q-.12 53.83 0 107.69a26.69 26.69 0 0 0 27 26.87c23.37-.32 46.73-.09 70.1-.09M97 192h-9.56V89.17H97Zm115.53-31.33h-9.59V89.15h9.59Zm-55.83-.01h-9.56v-71.5h9.56Zm-49.3-71.51h6.71v71.49h-6.71Zm16.41 0h6.71v71.49h-6.71Zm49.1 71.52h-6.69V89.15h6.69Zm47.96-71.52h6.72v71.49h-6.72Zm10.86 0h2.93v102.78h-2.93ZM102.45 214.72c.66.25 1.16.41 1.65.62 2.12.93 3.65 2.38 3.75 4.84a5.69 5.69 0 0 1-3.2 5.53 9.7 9.7 0 0 1-4 1.24c-5.06.14-10.13.05-15.3.05v-23.08s.11-.14.17-.14c4.9.07 9.8 0 14.68.3a8.43 8.43 0 0 1 4.47 2c2.64 2.21 2.26 5.69-.58 7.65-.46.33-.97.59-1.64.99m-13.19 1.93v7.69c3.55 0 7 .06 10.48 0a5.2 5.2 0 0 0 2.45-.9 3.45 3.45 0 0 0 .22-5.72 4.6 4.6 0 0 0-2.4-1c-3.55-.13-7.11-.07-10.75-.07m0-3.05h6.88a18.7 18.7 0 0 0 3.67-.36 3.23 3.23 0 0 0-.09-6.4c-3.45-.33-6.92-.37-10.46-.53Zm19.36-16.82v-23.21a1.7 1.7 0 0 1 .46-.15c4.46 0 8.92 0 13.36.17a10.2 10.2 0 0 1 4.38 1.28c3.94 2.21 3.85 6.73-.06 9l-1 .56c.64.23 1.11.39 1.56.59 2.22 1 3.83 2.43 3.87 5a5.74 5.74 0 0 1-3.55 5.58 11.3 11.3 0 0 1-4.3 1.14c-4.88.12-9.73.04-14.72.04m3.95-2.58h6.65a29 29 0 0 0 4.35-.3c2.21-.39 3.49-1.83 3.53-3.68a3.57 3.57 0 0 0-3.41-3.73c-3.66-.4-7.36-.43-11.12-.62Zm0-17.82v6.72h9.74a4.4 4.4 0 0 0 1.75-.53 3.08 3.08 0 0 0 .76-5.09 4.2 4.2 0 0 0-2.35-1c-3.22-.17-6.47-.1-9.87-.1ZM139 160.66h-3V89.17h3Zm56.13 0h-2.94v-71.5h2.94Zm-12.13 0h-2.93V89.08H183Zm.42 54.74L180 215a5 5 0 0 1 2.8-3.8 16.3 16.3 0 0 1 12.73-.39 3.86 3.86 0 0 1 2.52 3.85c.05 2.29 0 4.59.07 6.88.09 1.86.39 3.71.6 5.58-2.79.48-3.13.34-4.19-1.93a13.2 13.2 0 0 1-9.14 2.31 10.4 10.4 0 0 1-3.76-1.07c-3.07-1.67-3.23-5.54-.2-7.27a18.6 18.6 0 0 1 5.37-1.62c1.94-.4 3.94-.49 5.9-.79s2.25-1.74 1.11-3.24c-1.27-1.68-8.33-2.16-9.67.5-.2.47-.44.89-.72 1.39m10.85 3.46c-2.82.43-5.64.83-8.45 1.33-1.69.3-2.61 1.3-2.6 2.52a2.67 2.67 0 0 0 2.78 2.49 15 15 0 0 0 5-.46c2.8-.83 3.82-2.95 3.27-5.88m-78.98-3.5-2.9-.34a5.07 5.07 0 0 1 2.89-3.83 16.53 16.53 0 0 1 12.51-.4 4 4 0 0 1 2.67 4c0 2.25 0 4.51.07 6.76.09 1.86.36 3.71.56 5.59-2.84.46-3.07.37-4.15-1.93a13.9 13.9 0 0 1-10.76 2.08 7.8 7.8 0 0 1-2-.71 4.17 4.17 0 0 1-2.5-3.76 3.88 3.88 0 0 1 2.61-3.95 57 57 0 0 1 7.31-1.6c1.42-.28 2.87-.45 4.31-.65.7-.1.94-.46.9-1.17a2.77 2.77 0 0 0-1.89-2.75 9.24 9.24 0 0 0-6.61 0c-1.02.41-1.78 1.53-3.02 2.66m11.41 3.49c-2.84.44-5.58.82-8.31 1.3-1.89.33-2.84 1.3-2.79 2.63s1.11 2.32 3 2.46a13.4 13.4 0 0 0 4.29-.29c3.11-.81 4.24-2.81 3.81-6.1m60.81-29.7h-16.25a17 17 0 0 0 1.12 3c2.22 3.66 8.5 3.77 10.84.19a1.49 1.49 0 0 1 1.71-.81c.81.14 1.63.19 2.56.3a7.35 7.35 0 0 1-4.69 4.66 14 14 0 0 1-9.85-.08 7.62 7.62 0 0 1-5.28-7.22c-.2-3.65 1-6.66 4.37-8.38a12.14 12.14 0 0 1 11.1-.14 7.76 7.76 0 0 1 4.37 8.48m-3.8-2.41c-.33-3.21-2.8-5.08-6.29-4.88s-5.66 2.18-5.63 4.88ZM145 179.3a14.76 14.76 0 0 1 7 2.23c4.38 2.87 4.49 12-1.18 14.5a13.65 13.65 0 0 1-10.67.43c-3.56-1.32-5.35-4.17-5.33-8.15s1.75-6.56 5.29-7.87a37 37 0 0 1 4.89-1.14m-6.35 9.18c0 4.09 2.49 6.55 6.52 6.5s6.33-2.6 6.3-6.75a6 6 0 0 0-6.42-6.36c-4.05.01-6.44 2.48-6.42 6.61Zm97.26 39.19c-.87-.1-1.76-.14-2.62-.29-5.9-1.06-8.52-5.48-7.12-11.47a6.65 6.65 0 0 1 3.45-4.48 12.75 12.75 0 0 1 12.18-.26c3.3 1.63 4.47 4.51 4.31 8.1s-1.66 6-4.93 7.28a48 48 0 0 1-5.19 1.34Zm6.46-9c0-4-2.46-6.46-6.43-6.45s-6.36 2.43-6.37 6.5 2.36 6.58 6.41 6.57 6.39-2.48 6.39-6.65Zm-19.57-30.43c-.06 4.61-2 7.28-6.19 8.5a13 13 0 0 1-9.78-.72c-3.14-1.59-4.36-4.31-4.33-7.72s1.3-6 4.43-7.51a12.89 12.89 0 0 1 11.13-.15 7.51 7.51 0 0 1 4.74 7.6m-3.74.14c0-4-2.43-6.5-6.38-6.51s-6.4 2.43-6.43 6.46 2.38 6.64 6.38 6.65 6.42-2.49 6.43-6.6m-79.17 38.82h-3.53v-16.91h3.1l.11 2a1.6 1.6 0 0 0 .45-.19c3.35-2.85 7.07-2.83 10.93-1.38a3.91 3.91 0 0 1 2.73 3.47c.15 4.3.06 8.61.06 13h-3.45c0-.45-.07-.92-.07-1.39v-9.39c-.05-2.62-1.11-3.82-3.72-4-3.15-.29-6.65.68-6.59 5.57.01 3.02-.02 6.02-.02 9.22m33.89-6.2 3.52.36a6.8 6.8 0 0 1-2.9 4.51c-3.55 2.49-9.63 2.19-13.11-.43-4-3-4.09-12.28 1.88-14.63a13.5 13.5 0 0 1 9.2-.43 6.44 6.44 0 0 1 4.6 4.73l-3.37.45c-1.77-3.06-3.8-4-6.94-3.23a5.31 5.31 0 0 0-4.36 5 14.5 14.5 0 0 0-.06 2c.2 4.41 3.55 6.85 7.85 5.72a4.79 4.79 0 0 0 3.69-4.05m22.75-38.91v10.87a1.47 1.47 0 0 0 1.54 1.5h2.09l.57 2.37a10 10 0 0 1-6-.27 2.61 2.61 0 0 1-1.7-2.47c-.07-3.44-.11-6.88-.15-10.31v-1.63l-2.6-.13v-2.09h2.6a13 13 0 0 0 0-2.08 2.47 2.47 0 0 1 2.05-3.18 13 13 0 0 0 1.57-.67v5.82h3.65v2.26Zm-37.02 14.73v-23.33H163v23.33Zm44.43 13.43h3.12v2.07l.19.29c2.25-3.32 5.1-3.31 8.35-1.86l-1.2 2.54c-.63-.16-1.21-.33-1.81-.44a3.77 3.77 0 0 0-4.75 3 22.7 22.7 0 0 0-.34 4.2c-.06 2.34 0 4.67 0 7.09h-3.54Zm17.46 16.94H218v-16.93h3.41Zm-34.19-19.02c1-1.64 1.75-2.91 2.54-4.17a1 1 0 0 1 .62-.41h4.39a40 40 0 0 1-4.21 4.09c-.71.5-1.95.32-3.34.49m30.79-4.39h3.43v3.1H218Z"/></svg>