<svg id="ideal_logo" xmlns="http://www.w3.org/2000/svg" viewBox="0 0 320.24 320.24"><title>boleto_logo_sq</title><g id="boleto"><path d="M161.09,75.25c23.58,0,47.16.15,70.73-.06a29.14,29.14,0,0,1,27.42,19.24,30.36,30.36,0,0,1,1.9,10.63q0,54,0,108.08A29.54,29.54,0,0,1,236.73,242a27.49,27.49,0,0,1-4.62.35q-71.06,0-142.12,0c-15.49,0-27.25-12.08-28.86-26.45a37.47,37.47,0,0,1-.23-4.23q0-53,0-106c0-10.21,3.89-18.65,12-24.92a26.56,26.56,0,0,1,16.63-5.59Q125.33,75.29,161.09,75.25ZM161,239.39h71.14a23.38,23.38,0,0,0,11-2.45c9.92-5.19,15-13.57,15-24.64.13-35.67.06-71.35,0-107a31.43,31.43,0,0,0-.51-5.39c-2.19-12.42-12.94-21.72-25.13-21.72q-71.53,0-143.07,0a24.25,24.25,0,0,0-5.5.65C72.31,81.59,63.92,92.31,63.9,104.92q-.12,53.83,0,107.69a26.69,26.69,0,0,0,27,26.87C114.27,239.16,137.63,239.39,161,239.39Z"/><path d="M97,192H87.44V89.17H97Z"/><path d="M212.53,160.67h-9.59V89.15h9.59Z"/><path d="M156.7,160.66h-9.56V89.16h9.56Z"/><path d="M107.4,89.15h6.71v71.49H107.4Z"/><path d="M123.81,89.15h6.71v71.49h-6.71Z"/><path d="M172.91,160.67h-6.69V89.15h6.69Z"/><path d="M220.87,89.15h6.72v71.49h-6.72Z"/><path d="M231.73,89.15h2.93V191.93h-2.93Z"/><path d="M102.45,214.72c.66.25,1.16.41,1.65.62,2.12.93,3.65,2.38,3.75,4.84a5.69,5.69,0,0,1-3.2,5.53,9.67,9.67,0,0,1-4,1.24c-5.06.14-10.13.05-15.3.05V203.92s.11-.14.17-.14c4.9.07,9.8,0,14.68.3a8.43,8.43,0,0,1,4.47,2c2.64,2.21,2.26,5.69-.58,7.65C103.63,214.06,103.12,214.32,102.45,214.72Zm-13.19,1.93v7.69c3.55,0,7,.06,10.48,0a5.22,5.22,0,0,0,2.45-.9,3.45,3.45,0,0,0,.22-5.72,4.6,4.6,0,0,0-2.4-1C96.46,216.59,92.9,216.65,89.26,216.65Zm0-3.05c2.38,0,4.63,0,6.88,0a18.72,18.72,0,0,0,3.67-.36,3.23,3.23,0,0,0-.09-6.4c-3.45-.33-6.92-.37-10.46-.53Z"/><path d="M108.62,196.78V173.57a1.65,1.65,0,0,1,.46-.15c4.46,0,8.92,0,13.36.17a10.23,10.23,0,0,1,4.38,1.28c3.94,2.21,3.85,6.73-.06,9l-1,.56c.64.23,1.11.39,1.56.59,2.22,1,3.83,2.43,3.87,5a5.74,5.74,0,0,1-3.55,5.58,11.26,11.26,0,0,1-4.3,1.14C118.46,196.86,113.61,196.78,108.62,196.78Zm3.95-2.58c2.26,0,4.46,0,6.65,0a28.74,28.74,0,0,0,4.35-.3c2.21-.39,3.49-1.83,3.53-3.68a3.57,3.57,0,0,0-3.41-3.73c-3.66-.4-7.36-.43-11.12-.62Zm0-17.82v6.72c3.31,0,6.52,0,9.74,0a4.44,4.44,0,0,0,1.75-.53,3.08,3.08,0,0,0,.76-5.09,4.18,4.18,0,0,0-2.35-1C119.25,176.31,116,176.38,112.6,176.38Z"/><path d="M139,160.66H136V89.17H139Z"/><path d="M195.13,160.66h-2.94V89.16h2.94Z"/><path d="M183,160.66h-2.93V89.08H183Z"/><path d="M183.42,215.4,180,215a5,5,0,0,1,2.8-3.8,16.31,16.31,0,0,1,12.73-.39,3.86,3.86,0,0,1,2.52,3.85c.05,2.29,0,4.59.07,6.88.09,1.86.39,3.71.6,5.58-2.79.48-3.13.34-4.19-1.93a13.19,13.19,0,0,1-9.14,2.31,10.37,10.37,0,0,1-3.76-1.07c-3.07-1.67-3.23-5.54-.2-7.27a18.59,18.59,0,0,1,5.37-1.62c1.94-.4,3.94-.49,5.9-.79s2.25-1.74,1.11-3.24c-1.27-1.68-8.33-2.16-9.67.5C183.94,214.48,183.7,214.9,183.42,215.4Zm10.85,3.46c-2.82.43-5.64.83-8.45,1.33-1.69.3-2.61,1.3-2.6,2.52A2.67,2.67,0,0,0,186,225.2a15,15,0,0,0,5-.46C193.8,223.91,194.82,221.79,194.27,218.86Z"/><path d="M115.29,215.36l-2.9-.34a5.07,5.07,0,0,1,2.89-3.83,16.53,16.53,0,0,1,12.51-.4,4,4,0,0,1,2.67,4c0,2.25,0,4.51.07,6.76.09,1.86.36,3.71.56,5.59-2.84.46-3.07.37-4.15-1.93a13.9,13.9,0,0,1-10.76,2.08,7.81,7.81,0,0,1-2-.71,4.17,4.17,0,0,1-2.5-3.76,3.88,3.88,0,0,1,2.61-3.95,57.25,57.25,0,0,1,7.31-1.6c1.42-.28,2.87-.45,4.31-.65.7-.1.94-.46.9-1.17a2.77,2.77,0,0,0-1.89-2.75,9.24,9.24,0,0,0-6.61,0C117.29,213.11,116.53,214.23,115.29,215.36Zm11.41,3.49c-2.84.44-5.58.82-8.31,1.3-1.89.33-2.84,1.3-2.79,2.63s1.11,2.32,3,2.46a13.42,13.42,0,0,0,4.29-.29C126,224.14,127.13,222.14,126.7,218.85Z"/><path d="M187.51,189.15H171.26a17.18,17.18,0,0,0,1.12,3c2.22,3.66,8.5,3.77,10.84.19a1.49,1.49,0,0,1,1.71-.81c.81.14,1.63.19,2.56.3a7.35,7.35,0,0,1-4.69,4.66,14,14,0,0,1-9.85-.08,7.62,7.62,0,0,1-5.28-7.22c-.2-3.65,1-6.66,4.37-8.38a12.14,12.14,0,0,1,11.1-.14A7.76,7.76,0,0,1,187.51,189.15Zm-3.8-2.41c-.33-3.21-2.8-5.08-6.29-4.88s-5.66,2.18-5.63,4.88Z"/><path d="M145,179.3a14.76,14.76,0,0,1,7,2.23c4.38,2.87,4.49,12-1.18,14.5a13.65,13.65,0,0,1-10.67.43c-3.56-1.32-5.35-4.17-5.33-8.15s1.75-6.56,5.29-7.87A37.19,37.19,0,0,1,145,179.3Zm-6.35,9.18c0,4.09,2.49,6.55,6.52,6.5s6.33-2.6,6.3-6.75a6,6,0,0,0-6.42-6.36C141,181.88,138.61,184.35,138.63,188.48Z"/><path d="M235.91,227.67c-.87-.1-1.76-.14-2.62-.29-5.9-1.06-8.52-5.48-7.12-11.47a6.65,6.65,0,0,1,3.45-4.48,12.75,12.75,0,0,1,12.18-.26c3.3,1.63,4.47,4.51,4.31,8.1s-1.66,6-4.93,7.28a47.57,47.57,0,0,1-5.19,1.34Zm6.46-9c0-4-2.46-6.46-6.43-6.45s-6.36,2.43-6.37,6.5,2.36,6.58,6.41,6.57S242.37,222.81,242.37,218.64Z"/><path d="M222.8,188.24c-.06,4.61-2,7.28-6.19,8.5a13,13,0,0,1-9.78-.72c-3.14-1.59-4.36-4.31-4.33-7.72s1.3-6,4.43-7.51a12.89,12.89,0,0,1,11.13-.15A7.51,7.51,0,0,1,222.8,188.24Zm-3.74.14c0-4-2.43-6.5-6.38-6.51s-6.4,2.43-6.43,6.46,2.38,6.64,6.38,6.65S219.05,192.49,219.06,188.38Z"/><path d="M139.89,227.2h-3.53V210.29h3.1l.11,2a1.6,1.6,0,0,0,.45-.19c3.35-2.85,7.07-2.83,10.93-1.38a3.91,3.91,0,0,1,2.73,3.47c.15,4.3.06,8.61.06,13h-3.45c0-.45-.07-.92-.07-1.39,0-3.13,0-6.26,0-9.39-.05-2.62-1.11-3.82-3.72-4-3.15-.29-6.65.68-6.59,5.57C139.92,221,139.89,224,139.89,227.2Z"/><path d="M173.78,221l3.52.36a6.81,6.81,0,0,1-2.9,4.51c-3.55,2.49-9.63,2.19-13.11-.43-4-3-4.09-12.28,1.88-14.63a13.49,13.49,0,0,1,9.2-.43,6.44,6.44,0,0,1,4.6,4.73l-3.37.45c-1.77-3.06-3.8-4-6.94-3.23a5.31,5.31,0,0,0-4.36,5,14.51,14.51,0,0,0-.06,2c.2,4.41,3.55,6.85,7.85,5.72A4.79,4.79,0,0,0,173.78,221Z"/><path d="M196.53,182.09c0,3.74,0,7.3,0,10.87a1.47,1.47,0,0,0,1.54,1.5c.65,0,1.31,0,2.09,0l.57,2.37a10,10,0,0,1-6-.27,2.61,2.61,0,0,1-1.7-2.47c-.07-3.44-.11-6.88-.15-10.31,0-.52,0-1,0-1.63l-2.6-.13v-2.09h2.6a12.88,12.88,0,0,0,0-2.08,2.47,2.47,0,0,1,2.05-3.18,13.35,13.35,0,0,0,1.57-.67v5.82h3.65v2.26Z"/><path d="M159.51,196.82V173.49H163v23.33Z"/><path d="M203.94,210.25h3.12v2.07l.19.29c2.25-3.32,5.1-3.31,8.35-1.86l-1.2,2.54c-.63-.16-1.21-.33-1.81-.44a3.77,3.77,0,0,0-4.75,3,22.68,22.68,0,0,0-.34,4.2c-.06,2.34,0,4.67,0,7.09h-3.54Z"/><path d="M221.4,227.19H218V210.26h3.41Z"/><path d="M187.21,208.17c1-1.64,1.75-2.91,2.54-4.17a1,1,0,0,1,.62-.41c1.34,0,2.69,0,4.39,0a39.72,39.72,0,0,1-4.21,4.09C189.84,208.18,188.6,208,187.21,208.17Z"/><path d="M218,203.78h3.43v3.1H218Z"/></g></svg>