<?xml version="1.0" encoding="utf-8"?>
<!-- Generator: Adobe Illustrator 22.1.0, SVG Export Plug-In . SVG Version: 6.00 Build 0)  -->
<svg version="1.1" id="Layer_1" xmlns="http://www.w3.org/2000/svg" xmlns:xlink="http://www.w3.org/1999/xlink" x="0px" y="0px"
	 viewBox="0 0 512 512" style="enable-background:new 0 0 512 512;" xml:space="preserve">
<style type="text/css">
	.st0{fill:#3475BB;}
	.st1{fill:#FDFDFD;}
	.st2{fill:#F38F1E;}
</style>
<rect class="st0" width="512" height="509"/>
<path class="st1" d="M88.2,379.8c0.2-3.7,0.6-7.3,0.6-11c0-96.7,0.2-193.3-0.3-290c0-10,3-11.8,12.2-11.8
	c80.3,0.4,160.7,0.2,241,0.2c3.7,0,7.4-0.2,11.1-0.3c15.1,0.1,30.2,0.6,45.3,0.1c7-0.2,9.4,1.5,9.4,9c-0.3,48.7,0,97.4,0,146.1
	c0,51.5-0.3,102.9-0.1,154.4c0,7.1-1.6,9.3-9.1,9.3c-100.5-0.3-201-0.2-301.4-0.2C92.6,385.6,87.9,386.5,88.2,379.8z M365.5,154.1
	c0.1-12.3-0.2-24.7,0.5-36.9c0.4-6.9-1.7-8.8-8.7-8.8c-45.9,0.3-91.8,0.2-137.7,0.2c-9.2,0-18.4,0.4-27.6,0.6
	c-18.7-1.8-37.5-0.1-56.3-0.8c-5.8-0.2-5.5,3.3-5.5,7.2c-0.1,73.9-0.2,147.9-0.4,221.8c0,5.7,1.8,7.2,7.4,7.2
	c73.9-0.2,147.9-0.2,221.8-0.1c5,0,7-1.1,7-6.6C365.6,276.7,365.6,215.4,365.5,154.1z"/>
<path class="st2" d="M315.9,403.9c-20.4-0.4-40.4,2.9-60.3,6.6c-26.1,4.8-51.4,11.8-75,24.2c-5.2,0.6-9.7,3.3-13.9,6
	c-4.7,3.1-5.8-0.1-7.7-2.9c16-9.2,32.1-18.3,49.5-24.7c41-12.2,82.8-18.6,125.5-17.4c31.4,0.9,62.3,5.7,92.1,16.5
	c-11.5-3.6-23.5-0.7-35.2-3.7C366.3,402.2,341.1,402.1,315.9,403.9z"/>
<path class="st1" d="M240.7,122.3c2.4-1.1,3.4-4.2,6.9-4.5c0.3,3.5,0.5,7,0.8,10.4c-0.1,13.5-0.4,27.1-0.3,40.6c0.1,5.2-1,9.1-5,13
	c-13.3,12.8-26,26.3-39.2,39.2c-4.1,4-5,6.4-0.3,10.8c13.4,12.7,26.5,25.8,39.3,39.1c4.1,4.2,6.5,4.6,10.8,0.2
	c13-13.6,26.5-26.7,39.8-40c2.4-2.4,4.4-4.8,8.4-4.8c18.4,0.2,36.8,0.1,55.3,0.1c0.3,3.6-2.3,4.7-3.9,6.3
	c-33.1,33.2-66.3,66.2-99.2,99.5c-4.5,4.6-6.8,4.7-11.3,0c-33.3-33.7-66.8-67.2-100.5-100.5c-4.7-4.6-3.5-7,0.4-10.9
	c27.4-27.1,54.6-54.4,81.8-81.6C229.8,133.7,235.2,128,240.7,122.3z"/>
</svg>
