<?xml version="1.0" encoding="utf-8"?>
<!-- Generator: Adobe Illustrator 22.1.0, SVG Export Plug-In . SVG Version: 6.00 Build 0)  -->
<svg version="1.1" id="Layer_1" xmlns="http://www.w3.org/2000/svg" xmlns:xlink="http://www.w3.org/1999/xlink" x="0px" y="0px"
	 viewBox="0 0 512 512" style="enable-background:new 0 0 512 512;" xml:space="preserve">
<style type="text/css">
	.st0{fill:#D31226;}
	.st1{fill:url(#SVGID_1_);}
</style>
<path class="st0" d="M256.6,288.9c-50.3,0.9-92-41.3-92-91.7c0-50.2,41.7-91.7,91.8-91.8c50.3-0.1,92.1,41.7,92,91.9
	C348.3,247.5,306.8,289.7,256.6,288.9z"/>
<linearGradient id="SVGID_1_" gradientUnits="userSpaceOnUse" x1="122.9723" y1="391.7169" x2="389.5561" y2="391.7169">
	<stop  offset="0" style="stop-color:#000000"/>
	<stop  offset="1" style="stop-color:#0000D4"/>
</linearGradient>
<path class="st1" d="M256,412c-37.6,0-75.2,0.1-112.8-0.1c-3.4,0-7.1-0.7-10.2-2.2c-12.6-6-12.7-19-4.2-28
	c6.7-7.1,15-10.3,24.7-10.3c23.1,0.1,46.2,0.1,69.4,0.1c44.4,0.1,88.8,0.2,133.3,0.1c9.1,0,17.4,1.5,24.6,7.4
	c3.9,3.2,7.1,7.1,8.3,12.2c2.9,12.8-7.8,19.5-16.9,20.5c-1.4,0.1-2.7,0.1-4.1,0.1c-37.4,0-74.7,0-112.1,0
	C256,411.8,256,411.9,256,412z"/>
</svg>
