<svg xmlns="http://www.w3.org/2000/svg" viewBox="0 0 256 256"><path fill="#BDD5EF" d="M0 0h256v256H0z"/><path fill="#DD1E2F" d="M240.9 40c-15.9 35.2-53.3 71.3-83.3 80.5-30.1 9.2-41.5-12-25.3-47.4l10.4-3.2c-10.6 23.2-3.2 37.1 16.6 31 19.7-6 44.2-29.7 54.7-52.7zm-93.4 28.5c-5.4 11.8-1.6 18.9 8.4 15.8a53.9 53.9 0 0 0 27.9-26.9z"/><path fill="#0055A4" d="M163.6 132.4c-39.6 12.1-55.4-14.3-36.9-59.3H40a7 7 0 0 0-7 7.1v109a7 7 0 0 0 7 7.1h176a7 7 0 0 0 7-7.1V95.1c-19.4 17.8-40.5 31.4-59.4 37.3"/><path fill="#fff" d="M164.9 179.5c-5.7 0-8.6-1.9-8.6-5.2 0-4.4 5.4-5.3 11.1-5.5v-.8c0-1.7-1.4-2.3-3.6-2.3-1.8 0-4 .5-5.3 1l-1.2-2.7c1.6-.6 4.3-1.2 7-1.2 4.9 0 7.6 1.6 7.6 5.7v9.9c-1.3.5-4.1 1.1-7 1.1m2.6-8.2c-3.5.2-6.6.4-6.6 2.8 0 1.5 1.4 2.4 3.9 2.4 1 0 2.2-.2 2.7-.3zm19.2 7.8v-10.6c0-1.6-1.2-2.6-3.3-2.6-1.1 0-2.2.2-2.9.4v12.8h-4.8v-15.3c2-.7 4.4-1.2 7.6-1.2 5.6 0 8.2 2 8.2 5.4v11h-4.8zm20.1 0L200 171h-.1v8.1h-4.7v-22.7h4.7v13.7h.1l6.3-7.1h5.5l-6.8 7.5 7.3 8.6zm-136.1.2c-1 0-2.1-.2-2.7-.3v6.6h-4.8v-21.7c1.4-.6 4.1-1.2 6.9-1.2 6.1 0 9.4 3.1 9.4 8.3 0 4.9-3 8.3-8.8 8.3m-.5-13.5a6 6 0 0 0-2.2.3v9.7c.4.2 1.4.3 2.2.3 3 0 4.5-2.1 4.5-5.2 0-3.2-1.6-5.1-4.5-5.1m20.2 13.7c-5.5 0-8.5-3.6-8.5-8.4s3-8.4 8.5-8.4 8.5 3.6 8.5 8.4c0 4.7-3 8.4-8.5 8.4m0-13.7c-2.5 0-3.7 1.9-3.7 5.2 0 3.2 1.2 5.1 3.7 5.1s3.8-1.9 3.8-5.1-1.3-5.2-3.8-5.2m16.4 13.7c-2.4 0-4.7-.5-6.1-1.2l1.5-3.1c.9.5 3 1 4.4 1 1.7 0 2.8-.7 2.8-1.8 0-1.2-1.2-1.7-2.9-2.2-2.4-.7-5.4-1.7-5.4-4.9 0-2.8 2.5-4.7 6.9-4.7 2.4 0 4.4.5 5.8 1.2l-1.5 2.8a10 10 0 0 0-3.7-.9c-1.7 0-2.7.7-2.7 1.7 0 1.2 1.2 1.7 2.9 2.2 2.5.8 5.5 1.7 5.5 4.9.1 3-2.5 5-7.5 5m17.1-.2c-3.6 0-5.3-1.7-5.3-5.1V166h-2.4v-3h2.4v-3.6l4.7-1.2v4.7h3.5v3h-3.5v8c0 1.3 1 1.8 2.2 1.8l1.4-.2v3.4c-.7.2-1.8.4-3 .4M60.2 171c0 5.2-3.3 8.3-9.4 8.3-2.8 0-5.5-.5-6.9-1.2v-21.7h4.7v6.6c.6-.2 1.7-.4 2.7-.4 5.9.1 8.9 3.4 8.9 8.4m-4.7 0c0-3-1.5-5.2-4.5-5.2-.8 0-1.8.1-2.2.3v9.7a6 6 0 0 0 2.2.3c2.9 0 4.5-1.9 4.5-5.1m98.8 0c0 5.2-3.3 8.3-9.4 8.3-2.8 0-5.5-.5-6.9-1.2v-21.7h4.7v6.6c.6-.2 1.7-.4 2.7-.4 5.9.1 8.9 3.4 8.9 8.4m-4.7 0c0-3-1.5-5.2-4.5-5.2-.8 0-1.8.1-2.2.3v9.7a6 6 0 0 0 2.2.3c2.9 0 4.5-1.9 4.5-5.1"/></svg>