<svg xmlns="http://www.w3.org/2000/svg" viewBox="0 0 512 512"><path fill="#0050a0" d="M42.2 281.5H56c6.4 0 11.6-2.8 11.6-10.1s-5.3-10.1-11.6-10.1H42.2zm0-27.4h10.2c7.8.3 13.3-1.1 13.3-9 0-7.8-5.5-9.2-13.3-9H42.2zM34 288.6v-59.5h21.3c10.2 0 19.2 4 19.2 15.5 0 6.2-4.2 11.2-10.1 12.8v.2c7.7 1.1 11.9 8 11.9 15.4 0 6.9-4.5 12.1-10.8 14.4-3.1 1.2-6.7 1.3-10.2 1.2zm67.2-20.1c-4.8.2-11.1 2-11.1 8 0 5.1 3.5 7.7 8.2 7.7 9.2 0 11-8 10.8-15.7zm7.8-5.5c0-7.2-.4-11.4-8.7-11.4-4 0-7.7 2.3-7.8 6.6h-8.2c.4-9.1 7.5-12.3 15.6-12.3 8.5 0 16.9 2.6 16.9 14.1v19.8c0 1.8.1 5.3.3 8.7h-5.3c-.7 0-2.1.4-2.2-.6-.2-1.9-.3-3.7-.4-5.6h-.2c-2.6 5.2-7.2 7.4-12.9 7.4-7.2 0-14.4-3.7-14.4-11.8 0-11.6 10.3-15 20.1-15h7.2zm25.7-9.7h.2c2.6-5.2 8.4-7.3 12.5-7.3 2.9 0 15.7.7 15.7 14v28.6h-7.8v-26.1c0-6.8-2.9-10.6-9.5-10.6 0 0-4.3-.2-7.6 3-1.1 1.2-3.3 3-3.3 11.1v22.5H127v-41.4h7.6v6.2m62 7.2c-.4-5.2-2.9-8.8-8.5-8.8-7.5 0-10.4 6.5-10.4 16.2s2.9 16.2 10.4 16.2c5.2 0 8.4-3.4 8.8-9.3h7.8c-.6 9.3-7.6 15-16.7 15-13.3 0-18.6-9.4-18.6-21.6 0-12.1 6.1-22.3 19.2-22.3 8.8 0 15.4 5.5 15.8 14.5h-7.8m32.5 23.8c9.3 0 12.4-7.4 12.4-16.2s-3-16.2-12.4-16.2c-9.3 0-12.4 7.4-12.4 16.2 0 8.7 3.1 16.2 12.4 16.2m20.6-16.3c0 12.9-7 21.9-20.6 21.9s-20.6-9.1-20.6-21.9c0-12.9 7-21.9 20.6-21.9s20.6 9 20.6 21.9m31.9-12.1c6.5-.2 9.2-3.2 9.2-7.6s-2.7-7.3-9.2-7.6H273v15.2zm-25 32.8v-59.5H284c14.6 0 24.2 4.7 24.2 19.1s-9.6 19.1-24.2 19.1h-11v21.3zm76.6-7.8c6.6 0 8-7 8-12.9s-1.4-12.9-8-12.9-8 7-8 12.9 1.4 12.9 8 12.9m24.1-12.9c0 15.3-11.1 21.9-24.1 21.9-12.9 0-24.1-6.7-24.1-21.9 0-15.3 11.1-21.9 24.1-21.9s24.1 6.6 24.1 21.9m26.3-7.9c0-1.4-.2-2.6-1-3.5s-2.2-1.5-4.3-1.5c-2.3 0-3.7 1.3-3.7 3.7 0 3.1 6.3 2.9 16.2 5.9 5 1.6 8.3 4.6 8.3 11.4 0 11-10.3 13.8-19.8 13.8-10.1 0-20-2.1-19.9-14.7h14.8c-.3 1.2.2 2.6 1.1 3.7s2.2 1.9 3.7 1.9c3.1 0 5.3-1.1 5.3-3.8 0-7.3-24.5-3-24.5-18 0-10.2 10.9-13 19.1-13 9.8 0 18.9 2.6 19.5 14h-14.8m26.2-12.7v-6.3l15.7-5.9v12.2h9.1v9.9h-9.1v16.4c0 1.1-.7 6.4 3 6.4 2.1 0 4.2 0 6-.3v9.3c-3.5.7-6.1.8-8.4.8-10.6 0-17.1-1.5-16.3-14.2V257h-8.1v-9.9h8.1m49.3 33.7c6.8 0 7.3-6.3 7.3-11.9-3.3 0-6.4-.2-8.6.9-2.3 1.1-4.1 2.6-4.1 5.5 0 3 2.4 5.5 5.4 5.5m7.9 7.8c-.3-1.3-.3-2.6-.3-5.6h-.2c-1.9 3-5.4 6.8-13.2 6.8-9.8 0-14.9-5.3-14.8-13.8.2-10.1 9.4-14.2 22.9-14.2h4.9c0-3.6.8-8.9-5.4-8.6-3.8.1-5 3.9-4.9 6.3h-14.8c-.1-5.9 3-9.2 7.2-11.1 4.3-2 9.7-2.5 14.3-2.5 8.4 0 18.6 3.6 18.4 12.9v21.3c0 1.7.3 3.5.9 8.5z"/></svg>