<?xml version="1.0" encoding="utf-8"?>
<!-- Generator: Adobe Illustrator 22.1.0, SVG Export Plug-In . SVG Version: 6.00 Build 0)  -->
<svg version="1.1" id="Layer_1" xmlns="http://www.w3.org/2000/svg" xmlns:xlink="http://www.w3.org/1999/xlink" x="0px" y="0px"
	 viewBox="0 0 512 512" style="enable-background:new 0 0 512 512;" xml:space="preserve">
<style type="text/css">
	.st0{fill:#0050A0;}
</style>
<g>
	<g>
		<path class="st0" d="M42.2,281.5H56c6.4,0,11.6-2.8,11.6-10.1c0-7.3-5.3-10.1-11.6-10.1H42.2V281.5 M42.2,254.1h10.2
			c7.8,0.3,13.3-1.1,13.3-9c0-7.8-5.5-9.2-13.3-9H42.2V254.1z M34,288.6v-59.5h21.3c10.2,0,19.2,4,19.2,15.5
			c0,6.2-4.2,11.2-10.1,12.8v0.2c7.7,1.1,11.9,8,11.9,15.4c0,6.9-4.5,12.1-10.8,14.4c-3.1,1.2-6.7,1.3-10.2,1.2H34z"/>
		<path class="st0" d="M101.2,268.5c-4.8,0.2-11.1,2-11.1,8c0,5.1,3.5,7.7,8.2,7.7c9.2,0,11-8,10.8-15.7H101.2 M109,263
			c0-7.2-0.4-11.4-8.7-11.4c-4,0-7.7,2.3-7.8,6.6h-8.2c0.4-9.1,7.5-12.3,15.6-12.3c8.5,0,16.9,2.6,16.9,14.1v19.8
			c0,1.8,0.1,5.3,0.3,8.7h-5.3c-0.7,0-2.1,0.4-2.2-0.6c-0.2-1.9-0.3-3.7-0.4-5.6h-0.2c-2.6,5.2-7.2,7.4-12.9,7.4
			c-7.2,0-14.4-3.7-14.4-11.8c0-11.6,10.3-15,20.1-15H109z"/>
		<path class="st0" d="M134.7,253.3h0.2c2.6-5.2,8.4-7.3,12.5-7.3c2.9,0,15.7,0.7,15.7,14v28.6h-7.8v-26.1c0-6.8-2.9-10.6-9.5-10.6
			c0,0-4.3-0.2-7.6,3c-1.1,1.2-3.3,3-3.3,11.1v22.5H127v-41.4h7.6V253.3"/>
		<path class="st0" d="M196.6,260.5c-0.4-5.2-2.9-8.8-8.5-8.8c-7.5,0-10.4,6.5-10.4,16.2c0,9.7,2.9,16.2,10.4,16.2
			c5.2,0,8.4-3.4,8.8-9.3h7.8c-0.6,9.3-7.6,15-16.7,15c-13.3,0-18.6-9.4-18.6-21.6c0-12.1,6.1-22.3,19.2-22.3
			c8.8,0,15.4,5.5,15.8,14.5H196.6"/>
		<path class="st0" d="M229.1,284.2c9.3,0,12.4-7.4,12.4-16.2c0-8.8-3-16.2-12.4-16.2c-9.3,0-12.4,7.4-12.4,16.2
			C216.7,276.7,219.8,284.2,229.1,284.2 M249.7,267.9c0,12.9-7,21.9-20.6,21.9c-13.6,0-20.6-9.1-20.6-21.9c0-12.9,7-21.9,20.6-21.9
			C242.7,246,249.7,255,249.7,267.9z"/>
		<path class="st0" d="M281.6,255.8c6.5-0.2,9.2-3.2,9.2-7.6c0-4.4-2.7-7.3-9.2-7.6H273v15.2H281.6 M256.6,288.6v-59.5H284
			c14.6,0,24.2,4.7,24.2,19.1c0,14.4-9.6,19.1-24.2,19.1H273v21.3H256.6z"/>
		<path class="st0" d="M333.2,280.8c6.6,0,8-7,8-12.9c0-5.9-1.4-12.9-8-12.9c-6.6,0-8,7-8,12.9C325.2,273.8,326.6,280.8,333.2,280.8
			 M357.3,267.9c0,15.3-11.1,21.9-24.1,21.9c-12.9,0-24.1-6.7-24.1-21.9c0-15.3,11.1-21.9,24.1-21.9
			C346.2,246,357.3,252.6,357.3,267.9z"/>
		<path class="st0" d="M383.6,260c0-1.4-0.2-2.6-1-3.5c-0.8-0.9-2.2-1.5-4.3-1.5c-2.3,0-3.7,1.3-3.7,3.7c0,3.1,6.3,2.9,16.2,5.9
			c5,1.6,8.3,4.6,8.3,11.4c0,11-10.3,13.8-19.8,13.8c-10.1,0-20-2.1-19.9-14.7h14.8c-0.3,1.2,0.2,2.6,1.1,3.7
			c0.9,1.1,2.2,1.9,3.7,1.9c3.1,0,5.3-1.1,5.3-3.8c0-7.3-24.5-3-24.5-18c0-10.2,10.9-13,19.1-13c9.8,0,18.9,2.6,19.5,14H383.6"/>
		<path class="st0" d="M409.8,247.2v-6.3l15.7-5.9v12.2h9.1v9.9h-9.1v16.4c0,1.1-0.7,6.4,3,6.4c2.1,0,4.2,0,6-0.3v9.3
			c-3.5,0.7-6.1,0.8-8.4,0.8c-10.6,0-17.1-1.5-16.3-14.2v-18.5h-8.1v-9.9H409.8"/>
		<path class="st0" d="M459.1,280.8c6.8,0,7.3-6.3,7.3-11.9c-3.3,0-6.4-0.2-8.6,0.9c-2.3,1.1-4.1,2.6-4.1,5.5
			C453.7,278.3,456.1,280.8,459.1,280.8 M467,288.6c-0.3-1.3-0.3-2.6-0.3-5.6h-0.2c-1.9,3-5.4,6.8-13.2,6.8
			c-9.8,0-14.9-5.3-14.8-13.8c0.2-10.1,9.4-14.2,22.9-14.2h4.9c0-3.6,0.8-8.9-5.4-8.6c-3.8,0.1-5,3.9-4.9,6.3h-14.8
			c-0.1-5.9,3-9.2,7.2-11.1c4.3-2,9.7-2.5,14.3-2.5c8.4,0,18.6,3.6,18.4,12.9v21.3c0,1.7,0.3,3.5,0.9,8.5H467z"/>
	</g>
</g>
</svg>
