<?xml version="1.0" encoding="utf-8"?>
<!-- Generator: Adobe Illustrator 22.1.0, SVG Export Plug-In . SVG Version: 6.00 Build 0)  -->
<svg version="1.1" id="Layer_1" xmlns="http://www.w3.org/2000/svg" xmlns:xlink="http://www.w3.org/1999/xlink" x="0px" y="0px"
	 viewBox="0 0 512 512" style="enable-background:new 0 0 512 512;" xml:space="preserve">
<style type="text/css">
	.st0{fill:#0082CA;}
	.st1{fill:#1D1D1B;}
</style>
<g>
	<path class="st0" d="M174.6,215.5c-2.9-1.7-7-1.7-10.3-1.7h-14.9v20.9h14.1c3.7,0,8.4,0.3,11.5-1.9c2.9-1.9,4.6-5.5,4.6-9
		C179.5,220.5,177.5,217.1,174.6,215.5z"/>
	<path class="st0" d="M163.2,120.5c-48,0-86.9,38.9-86.9,86.9c0,48,38.9,86.9,86.9,86.9c48,0,86.9-38.9,86.9-86.9
		C250.1,159.4,211.2,120.5,163.2,120.5z M190.3,246.1c-6.3,4.7-14.8,4.7-22.3,4.7h-38.9v-86.9H168c6.8,0,13.9,0,19.9,3.8
		c7,4.4,10.6,10.8,10.6,19c0,9.9-6.6,16.5-15.7,18.8v0.2c10.8,2.1,18.1,10.4,18.1,21.7C201,235,196.4,241.7,190.3,246.1z"/>
	<path class="st0" d="M174,196.4c2.4-1.8,3.7-5,3.7-7.9c0-3.2-1.5-6.2-4.3-7.9c-2.9-1.6-8.2-1.3-11.7-1.3h-12.3v19h13.8
		C166.7,198.4,170.9,198.6,174,196.4z"/>
</g>
<path class="st1" d="M437.9,212.1c-13.4-38-44.7-51.4-83-51.4c-20.1,0-39,4.5-54.9,17.9c-15.6,13.1-23.6,31-23.6,51.4
	c0,47.9,38.3,59.4,77.3,67.4c13.4,2.9,38.3,6.4,38.3,24.6c0,18.2-19.5,23.6-34.2,23.6c-22.7,0-39.3-8-45.7-31l-47.3,10.9
	c9.9,42.8,47.3,60.7,88.5,60.7c22,0,46-4.2,63.6-17.9c16.9-13.1,27.1-33.5,27.1-54.9c0-21.7-10.9-39.9-28.7-51.7
	c-15.3-10.2-39.3-14.7-57.2-18.5c-12.5-2.2-31.6-6.1-31.6-22c0-16.9,16.6-20.4,30.3-20.4c19.5,0,31.3,7.3,37.7,25.9L437.9,212.1
	L437.9,212.1z"/>
</svg>
