<svg xmlns="http://www.w3.org/2000/svg" viewBox="0 0 512 512"><path fill="#0082ca" d="M174.6 215.5c-2.9-1.7-7-1.7-10.3-1.7h-14.9v20.9h14.1c3.7 0 8.4.3 11.5-1.9 2.9-1.9 4.6-5.5 4.6-9-.1-3.3-2.1-6.7-5-8.3m-11.4-95c-48 0-86.9 38.9-86.9 86.9s38.9 86.9 86.9 86.9 86.9-38.9 86.9-86.9-38.9-86.9-86.9-86.9m27.1 125.6c-6.3 4.7-14.8 4.7-22.3 4.7h-38.9v-86.9H168c6.8 0 13.9 0 19.9 3.8 7 4.4 10.6 10.8 10.6 19 0 9.9-6.6 16.5-15.7 18.8v.2c10.8 2.1 18.1 10.4 18.1 21.7.1 7.6-4.5 14.3-10.6 18.7M174 196.4c2.4-1.8 3.7-5 3.7-7.9 0-3.2-1.5-6.2-4.3-7.9-2.9-1.6-8.2-1.3-11.7-1.3h-12.3v19h13.8c3.5.1 7.7.3 10.8-1.9"/><path fill="#1d1d1b" d="M437.9 212.1c-13.4-38-44.7-51.4-83-51.4-20.1 0-39 4.5-54.9 17.9-15.6 13.1-23.6 31-23.6 51.4 0 47.9 38.3 59.4 77.3 67.4 13.4 2.9 38.3 6.4 38.3 24.6s-19.5 23.6-34.2 23.6c-22.7 0-39.3-8-45.7-31l-47.3 10.9c9.9 42.8 47.3 60.7 88.5 60.7 22 0 46-4.2 63.6-17.9 16.9-13.1 27.1-33.5 27.1-54.9 0-21.7-10.9-39.9-28.7-51.7-15.3-10.2-39.3-14.7-57.2-18.5-12.5-2.2-31.6-6.1-31.6-22 0-16.9 16.6-20.4 30.3-20.4 19.5 0 31.3 7.3 37.7 25.9z"/></svg>