<?xml version="1.0" encoding="utf-8"?>
<!-- Generator: Adobe Illustrator 22.1.0, SVG Export Plug-In . SVG Version: 6.00 Build 0)  -->
<svg version="1.1" id="Layer_1" xmlns="http://www.w3.org/2000/svg" xmlns:xlink="http://www.w3.org/1999/xlink" x="0px" y="0px"
	 viewBox="0 0 512 512" style="enable-background:new 0 0 512 512;" xml:space="preserve">
<style type="text/css">
	.st0{fill:#FCFDFC;}
	.st1{fill:#E33D35;}
	.st2{fill:#1A57B7;}
	.st3{fill:#F6CD4C;}
	.st4{fill:#F5DEA2;}
	.st5{fill:#302B26;}
</style>
<path class="st0" d="M216.4,271.8c-3.2,0.3-5.4-0.2-5.3-4.3c0.1-3.9,2.3-4.1,5.1-3.9c3.1,0.2,6.9-0.2,7,4.1
	C223.4,272.1,219.4,271.6,216.4,271.8z"/>
<path class="st0" d="M216,259c-1.9-0.2-4.8,0.8-4.8-3.2c-0.1-3.6,2.3-3.7,4.8-3.7c2.7,0.1,6.2-0.3,6.2,3.5
	C222.2,259,219,259,216,259z"/>
<g>
	<path class="st1" d="M411.4,131.2c-2.4,14.3-4.4,28.7-4.7,43.2c-0.5,29.9,4.5,59,12.7,87.6c0.8,2.9,0.8,5.3-0.3,8.1
		c-22.8,57-58.2,104.3-107.9,140.8c-0.8,0.6-1.7,1.1-2.6,1.7c-9.6-3.3-19-7.1-28.3-11.3c-9-4.1-18.2-7.7-26.6-13.1
		c1.7-1,3.4-2,5.1-2.9c6.2-2.9,12.2-6.3,17.9-10c46.1-29.9,79.1-70.9,101.7-120.6c0.9-2,0.9-3.9,0.3-6c-6.3-24.6-10.3-49.6-11-75
		c-0.5-18.8,1.2-37.5,4.5-56c1,0.2,2,0.4,3,0.7C387.7,121.8,399.5,126.6,411.4,131.2z"/>
	<path class="st2" d="M258.9,385.2c-1.7,1-3.4,2-5.1,2.9c-1.3-0.5-2.6-1-3.9-1.7c-18.7-10-36.6-21.4-53.2-34.7
		c-31.2-24.8-56.2-54.5-73.7-90.3c-0.9-1.9-1.5-3.7-1-5.9c3.8-15.3,6.5-30.8,8-46.5c1.8-18.4,1.2-36.7-1.5-55
		c-2.9-19.6-8.3-38.6-14.4-57.4c18.1-7.2,36.8-12.2,55.7-16.3c39.2-8.5,78.9-11.2,118.9-8.4c43.9,3,86.4,12.5,127.3,29
		c2.5,1,3,1.9,2.2,4.4c-2.9,8.4-4.7,17.2-6.8,25.8c-11.9-4.6-23.7-9.5-36-13c-1-0.3-2-0.4-3-0.7c-0.2-0.2-0.4-0.4-0.6-0.5
		c-30.8-9.2-62.2-14.4-94.2-15.8c-21.6-0.9-43.2-0.3-64.8,2.3c-21.7,2.6-43.1,6.8-64.1,12.9c-2,0.6-2.6,1.2-2.2,3.4
		c2.5,13.6,3.8,27.4,4.1,41.3c0.6,29.7-3.7,58.8-11,87.5c-0.5,2-0.5,3.7,0.3,5.6c17.1,38.2,41.1,71.5,72.7,99.1
		C226.7,365.9,242.3,376.3,258.9,385.2z"/>
	<path class="st3" d="M114.2,96.7c6.1,18.8,11.6,37.8,14.4,57.4c2.7,18.3,3.2,36.6,1.5,55c-1.5,15.7-4.2,31.2-8,46.5
		c-0.5,2.2,0,4,1,5.9c17.5,35.9,42.6,65.6,73.7,90.3c16.7,13.2,34.5,24.6,53.2,34.7c1.2,0.7,2.6,1.1,3.9,1.7
		c8.4,5.4,17.5,9.1,26.5,13.1c9.3,4.2,18.7,8,28.3,11.3c-14.7,10.7-30.6,19.3-47.3,26.3c-1.8,0.8-3.2,0.3-4.8-0.4
		c-22.7-9.4-43.3-22.1-62.2-37.6c-43-35.4-74.4-79.2-94.9-130.9c-1.1-2.7-1.1-5.1-0.3-7.8c5.9-20.3,10-40.9,11.9-61.9
		c2.8-32.1-1.1-63.5-10.5-94.2c-0.9-2.9-0.8-4.4,2.4-5.3C106.7,99.6,110.2,97.5,114.2,96.7z"/>
	<path class="st4" d="M258.9,385.2c-16.6-8.8-32.2-19.3-46.3-31.7c-31.6-27.6-55.5-60.9-72.7-99.1c-0.8-1.9-0.8-3.6-0.3-5.6
		c7.3-28.7,11.6-57.8,11-87.5c-0.3-13.9-1.6-27.6-4.1-41.3c-0.4-2.2,0.1-2.8,2.2-3.4c21-6.1,42.4-10.4,64.1-12.9
		c21.5-2.6,43.1-3.2,64.8-2.3c32.1,1.4,63.5,6.6,94.2,15.8c0.2,0.1,0.4,0.3,0.6,0.5c-3.4,18.5-5,37.2-4.5,56
		c0.7,25.4,4.7,50.4,11,75c0.5,2.1,0.6,4-0.3,6c-22.6,49.7-55.5,90.7-101.7,120.6C271.1,378.9,265.1,382.3,258.9,385.2z
		 M232.2,213.6c3.5-0.6,6.9-1.4,10.1-2.8c4.9-2.2,8.6-5.6,10.6-10.8c5-13-0.8-27.5-13.5-33.3c-6.2-2.9-12.9-3.8-19.7-3.8
		c-14.5,0-29,0-43.5,0c-7.6,0-7.5,0-7.6,7.4c0,2.2,0.2,3.4,3,3.6c4.3,0.4,6,2.6,6.3,7c0.1,1.8,0.1,3.6,0.1,5.4c0,23.4,0,46.9,0,70.3
		c0,7.2,1.6,8.8,8.9,8.8c12,0,24.1,0,36.1,0c4.1,0,8.3-0.2,12.4-0.9c14.8-2.2,22.4-10.7,22.5-25c0.1-13.9-7.6-22.4-22.2-24.8
		C234.6,214.6,233.1,215,232.2,213.6z M293.6,219.9c0,14.1,0.1,28.2-0.1,42.3c0,2.5,0.6,3.3,3.2,3.3c6.7-0.2,13.5-0.2,20.2,0
		c3.1,0.1,3.6-1,3.5-3.7c-0.1-24.7-0.1-49.5-0.1-74.2c0-3.4,0.1-6.7,0-10.1c-0.1-2,0.6-2.7,2.7-2.8c7.7-0.3,10.6,1.7,13.2,8.7
		c1,2.8,0.3,7,3.2,8.3c2.6,1.2,6.1,0.2,9.2,0.4c2.4,0.2,2.8-0.8,2.7-2.9c-0.5-6.7-0.9-13.4-1.4-20.1c-0.3-4-2.4-6.1-6.6-6.1
		c-24.2-0.1-48.4-0.1-72.7,0c-4.2,0-6.2,2-6.6,6.1c-0.5,6.3-0.7,12.7-1.4,19c-0.3,3.2,0.5,4.2,3.8,4.1c8.4-0.2,8.4,0,11.1-8.4
		c2.2-7,4.9-8.7,12.1-9c3.2-0.1,3.8,1.1,3.8,4C293.5,192.4,293.6,206.1,293.6,219.9z"/>
	<path class="st5" d="M232.2,213.6c0.9,1.4,2.4,1,3.6,1.2c14.6,2.4,22.3,10.9,22.2,24.8c-0.1,14.2-7.7,22.7-22.5,25
		c-4.1,0.6-8.2,0.9-12.4,0.9c-12,0-24.1,0-36.1,0c-7.3,0-8.9-1.6-8.9-8.8c0-23.4,0-46.9,0-70.3c0-1.8,0-3.6-0.1-5.4
		c-0.3-4.4-2-6.6-6.3-7c-2.8-0.2-3-1.4-3-3.6c0-7.4,0-7.4,7.6-7.4c14.5,0,29,0,43.5,0c6.8,0,13.4,0.9,19.7,3.8
		c12.6,5.8,18.4,20.3,13.5,33.3c-2,5.2-5.7,8.5-10.6,10.8C239.1,212.2,235.7,213,232.2,213.6z M205.2,237.1c0,4.9,0.1,9.8,0,14.7
		c0,1.8,0.2,2.9,2.5,2.7c3.2-0.2,6.5,0.1,9.7-0.2c6.7-0.4,10.4-3.5,11.7-9.8c1-4.8,1-9.8-0.1-14.6c-1.4-6.2-4.5-9.1-10.8-9.9
		c-3.3-0.4-6.7-0.2-10-0.4c-2.5-0.2-3,0.9-3,3.1C205.3,227.5,205.2,232.3,205.2,237.1z M205.2,191.1c0,2.7,0,5.4,0,8.1
		c0,10.4,0,10.4,10.7,8.8c5.6-0.9,7.8-2.9,9.1-8.5c0.8-3.6,0.7-7.2,0.5-10.8c-0.4-9.9-4.3-13.7-14.1-14.1c-1.3-0.1-2.6,0.1-3.9,0
		c-1.9-0.2-2.4,0.7-2.4,2.5C205.2,181.8,205.2,186.5,205.2,191.1z"/>
	<path class="st5" d="M293.6,219.9c0-13.7-0.1-27.5,0.1-41.2c0-2.9-0.6-4.1-3.8-4c-7.3,0.3-9.9,2.1-12.1,9
		c-2.7,8.3-2.7,8.2-11.1,8.4c-3.4,0.1-4.2-1-3.8-4.1c0.6-6.3,0.9-12.7,1.4-19c0.3-4.1,2.4-6.1,6.6-6.1c24.2-0.1,48.4-0.1,72.7,0
		c4.2,0,6.2,2,6.6,6.1c0.5,6.7,0.9,13.4,1.4,20.1c0.2,2.1-0.3,3.1-2.7,2.9c-3.1-0.2-6.6,0.8-9.2-0.4c-2.9-1.3-2.2-5.4-3.2-8.3
		c-2.5-7-5.5-9-13.2-8.7c-2,0.1-2.7,0.8-2.7,2.8c0.1,3.4,0,6.7,0,10.1c0,24.7,0,49.5,0.1,74.2c0,2.8-0.5,3.9-3.5,3.7
		c-6.7-0.3-13.5-0.2-20.2,0c-2.6,0.1-3.2-0.8-3.2-3.3C293.6,248.1,293.6,234,293.6,219.9z"/>
	<path class="st4" d="M205.2,237.1c0-4.8,0.1-9.6,0-14.3c-0.1-2.3,0.4-3.3,3-3.1c3.3,0.3,6.7,0,10,0.4c6.3,0.8,9.4,3.7,10.8,9.9
		c1.1,4.8,1,9.8,0.1,14.6c-1.3,6.3-5,9.3-11.7,9.8c-3.2,0.2-6.5,0-9.7,0.2c-2.2,0.1-2.5-0.9-2.5-2.7
		C205.2,246.9,205.2,242,205.2,237.1z"/>
	<path class="st4" d="M205.2,191.1c0-4.7,0.1-9.3,0-14c0-1.8,0.5-2.7,2.4-2.5c1.3,0.1,2.6,0,3.9,0c9.8,0.4,13.7,4.2,14.1,14.1
		c0.2,3.6,0.3,7.2-0.5,10.8c-1.3,5.6-3.5,7.6-9.1,8.5c-10.7,1.6-10.7,1.6-10.7-8.8C205.2,196.5,205.2,193.8,205.2,191.1z"/>
</g>
</svg>
