<?xml version="1.0" encoding="utf-8"?>
<!-- Generator: Adobe Illustrator 22.1.0, SVG Export Plug-In . SVG Version: 6.00 Build 0)  -->
<svg version="1.1" id="Layer_1" xmlns="http://www.w3.org/2000/svg" xmlns:xlink="http://www.w3.org/1999/xlink" x="0px" y="0px"
	 viewBox="0 0 512 512" style="enable-background:new 0 0 512 512;" xml:space="preserve">
<style type="text/css">
	.st0{fill-rule:evenodd;clip-rule:evenodd;fill:#312782;}
	.st1{fill-rule:evenodd;clip-rule:evenodd;fill:#FFFFFF;}
</style>
<polygon class="st0" points="74.9,71.4 441.8,71.4 441.8,437 74.9,437 74.9,71.4 "/>
<path class="st1" d="M257.3,120.2c117.4,0,137.2,81.3,137.2,135.8c0,50.2-19.1,132.9-135,132.9c-132.2,0-136.5-101.1-136.5-132.9
	C122.9,212.2,136.4,120.2,257.3,120.2L257.3,120.2z"/>
<path class="st0" d="M255.9,140.7c112.4-3.1,116.7,78.5,116.7,112.4c0,15.6,7.1,116.7-116,116.7c-109.6,0-111.7-86.3-111.7-114.5
	C144.9,227,141.4,143.9,255.9,140.7L255.9,140.7z"/>
<path class="st1" d="M167.5,203h36.1v-37.5c0,0,24-7.1,41.7-7.1c0,11.3,0,44.5,0,44.5h103.2c0,0,7.1,20.5,7.1,44.5c-17,0-75,0-75,0
	l62.9,67.2c0,0-12,18.4-33.2,29.7c-21.9-24-65.1-68.6-65.1-68.6v76.4c0,0-13.4,2.1-41.7-7.8c0-30.4,0-96.9,0-96.9h-42.4
	C161.1,247.5,161.8,221.3,167.5,203L167.5,203z"/>
</svg>
