<?xml version="1.0" encoding="utf-8"?>
<!-- Generator: Adobe Illustrator 22.1.0, SVG Export Plug-In . SVG Version: 6.00 Build 0)  -->
<svg version="1.1" id="Layer_1" xmlns="http://www.w3.org/2000/svg" xmlns:xlink="http://www.w3.org/1999/xlink" x="0px" y="0px"
	 viewBox="0 0 512 512" style="enable-background:new 0 0 512 512;" xml:space="preserve">
<style type="text/css">
	.st0{fill:#CE0E2D;}
</style>
<g>
	<g>
		<g>
			<path class="st0" d="M438.4,319.9c-1.2-35-19.3-64.4-52.2-77.2c23.3-17.9,32.7-40.1,32-61.8c-1.8-52.5-45.6-83.2-96.3-83.2
				c-20.7,0-44.8,7.3-63.4,20.2C240,105,215.8,97.6,195.2,97.6c-50.8,0-94.5,30.7-96.3,83.2c-0.8,21.8,8.7,43.9,32,61.8
				c-32.9,12.8-51,42.2-52.2,77.2c-1.9,55,43.6,95.1,103.3,95.1c30.4,0,57.1-10,76.6-24.9c19.5,15,46.2,24.9,76.6,24.9
				C394.8,415,440.4,374.9,438.4,319.9z M333.2,348.5c-22.6,0-32.9-10.7-41.4-21.9c-2.7-14.5-17.2-25.8-30.4-25.8c-1,0-2,0-2.9,0.1
				c-0.9-0.1-1.9-0.1-2.9-0.1c-13.2,0-27.7,11.4-30.4,25.8c-8.5,11.3-18.8,21.9-41.3,21.9c-20.1,0-34-16.6-33.3-36.3
				c0.9-26,22.1-32.9,44.2-33.3c14.1-0.4,29.8-9.8,30.6-32.4c0.7-18.8-8.1-25.2-35.2-31.6c-15.7-3.4-25.6-11.1-25-28.2
				c0.5-15.4,13.2-22.6,26.8-22.6c33,0,35.3,32.2,61.9,35.9c1.4,0.2,2.8,0.4,4.2,0.4c0.1,0,0.3,0,0.4,0c0.1,0,0.3,0,0.4,0
				c1.5,0,2.9-0.1,4.2-0.4c26.6-3.7,28.9-35.9,61.9-35.9c13.6,0,26.3,7.3,26.8,22.6c0.6,17.1-9.4,24.7-25,28.2
				c-27.1,6.4-35.8,12.8-35.2,31.6c0.8,22.6,16.5,32,30.6,32.4c22.2,0.4,43.3,7.2,44.3,33.3C367.2,331.8,353.3,348.5,333.2,348.5z"
				/>
		</g>
	</g>
	<path class="st0" d="M282.7,266.9c0,13.3-10.8,24.2-24.2,24.2l0,0c-13.3,0-24.2-10.8-24.2-24.2v-34.2c0-13.4,10.8-24.2,24.2-24.2
		l0,0c13.3,0,24.2,10.8,24.2,24.2V266.9z"/>
</g>
</svg>
