<?xml version="1.0" encoding="utf-8"?>
<!-- Generator: Adobe Illustrator 22.1.0, SVG Export Plug-In . SVG Version: 6.00 Build 0)  -->
<svg version="1.1" id="Layer_1" xmlns="http://www.w3.org/2000/svg" xmlns:xlink="http://www.w3.org/1999/xlink" x="0px" y="0px"
	 viewBox="0 0 512 512" style="enable-background:new 0 0 512 512;" xml:space="preserve">
<style type="text/css">
	.st0{fill:#02ADED;}
	.st1{fill:#043867;}
</style>
<path class="st0" d="M260.4,287.9c-66.1,0-132.2,0-198.3,0.1c-3.2,0-4.2-0.7-4.1-4c0.2-7.6,0.3-15.3,0-22.9c-0.2-3.9,1.4-5,5-5.5
	c18.6-2.6,37.1-5.5,55.6-8.1c23.3-3.3,46.7-6.1,70.1-8.6c2.1-0.2,3.8,0.7,5.5,1.8c19.1,12.9,40.1,18.5,63,16
	c20.4-2.3,38.7-9.8,53.6-24.3c2.1-2.1,4.4-3.2,7.4-3.4c27.9-1.4,55.9-2.6,83.8-2.9c18.6-0.2,37.3-0.4,55.9-0.8
	c3.7-0.1,5.1,0.8,5.1,4.9c-0.2,17.7-0.2,35.3,0,53c0,3.9-1.1,4.9-5,4.9C392,287.9,326.2,287.9,260.4,287.9
	C260.4,287.9,260.4,287.9,260.4,287.9z"/>
<path class="st0" d="M332.5,171.7c0,37.7-31.3,70.2-71.5,69.2c-37.5-0.9-67.7-33.9-66.8-71.8c0.9-37.5,32.2-68.4,70-68.1
	C302.2,101.3,332.9,133,332.5,171.7z"/>
<g>
	<path class="st1" d="M110.9,381.4c0-1.2,0.6-2.7-1.1-4.4c-1.1,1.3-1.9,2.6-3.1,3.7c-6.6,6-14.7,6.3-21,0.7
		c-5.9-5.2-7.7-12.1-6.6-19.6c1.1-7.3,4.8-13.1,12-15.6c6.9-2.4,12.7,0.4,17.5,5.5c0.6,0.6,1,1.8,2.4,1.4c0-9.7,0-19.4,0-29.2
		c0-1.8-0.4-2.9-2-3.7c-15.6-7.4-40.4-5.9-50.3,15.1c-7.2,15.3-6.9,31.5-4,47.7c2.9,15.6,11.1,27,27.6,30.5c0.3,0.1,4.3,1.1,4.6,1.3
		c5.1,0,5.2,0.6,11.5-0.5c3.1-1.2,6.2-2.4,9.3-3.5c2.6-0.9,3.5-2.5,3.4-5.4C110.8,397.5,111,389.4,110.9,381.4z"/>
	<path class="st1" d="M180.2,398.1c0-21.9,0-43.8,0-65.7c0-2.5,0-5,0-7.5c0-5.8,0-5.8-5.9-5.7c0,0,0,0,0,0c-1.1,0-2.2,0-3.3,0
		c-2.9,0-5.9,0-8.8,0c-5.1-1.2-7.7,1.1-8.7,6c-0.6,2.7-1.7,5.3-2.7,8c-2.7,7.6-5.5,15.2-8.3,22.9c-0.5-11.1-0.6-22-0.5-33
		c0-2.7-0.4-4.1-3.6-4c-5.5,0.3-11,0.1-16.5,0c-2.3-0.1-2.8,0.8-2.8,3c0,29.1,0,58.2-0.1,87.3c0,2.5,0.8,3.1,3.2,3.1
		c4.7-0.1,9.3-0.3,14,0c3.3,0.2,5-0.8,6.2-4c3.8-10.3,7.9-20.5,12-30.6c0.6-1.6,0.9-3.4,2.7-4.8c0.1,1.4,0.2,2.4,0.2,3.3
		c0,10.9,0.1,21.7,0,32.6c0,2.6,0.5,3.8,3.5,3.6c5.2-0.3,10.4-0.2,15.7,0c2.8,0.1,4.1-0.6,3.9-3.7
		C180,405.1,180.2,401.6,180.2,398.1z"/>
	<path class="st1" d="M237.7,358.8c-4.8-1.9-9.9-1.9-15-1.9c-10.1,0.1-9.9,0-9.9-10.1c0-2.9,0.9-3.5,3.6-3.5
		c10.2,0.1,20.3,0.1,30.5,0c1.3,0,3.4,0.8,3.3-1.9c-0.3-7.5,0.6-14.9-0.4-22.4c0,0,0,0,0,0c-3.6,0-7.3,0-10.9,0c-12,0-24,0-36,0
		c0,0,0,0,0,0c-3.5,0-7,0-10.6,0c-2.3,0-3.3,0.6-3.3,3.4c0.1,28.7,0.1,57.4,0,86c0,2.8,0.8,3.5,3.5,3.5c10.7-0.2,21.5-0.2,32.2,0
		c13.7,0.3,25.8-8.2,27.8-23.8C254.3,374.6,248.7,363,237.7,358.8z M218.1,390c-5.2,0-5.2,0-5.2-6.8c0.2-3.2-1.5-7.1,4.7-6.6
		c8,0.6,10.8,1.9,10.8,6.9C228.6,388.3,226,390,218.1,390z"/>
	<path class="st1" d="M386.1,319c-5.8,0.1-11.6,0.2-17.4,0c-3-0.1-3.9,0.7-3.8,3.7c0.2,6.9,0.1,13.8,0.1,20.7c0,9.6,0,9.5-9.6,9.3
		c-2.4-0.1-2.7-0.9-2.7-2.9c0.1-6.3,0.2-12.7,0-19.1c-0.1-3.9,0.8-7.8-0.6-11.7c-3.7,0-7.3,0-11,0c-3.2,0-6.4,0.1-9.6,0
		c-2.1-0.1-3,0.6-2.9,2.8c0.2,3.5,0,7,0,10.5c0,26.1,0,52.3,0,78.4c0.2,1,0.8,1.4,1.8,1.4c6.9,0,13.8,0,20.7,0.1
		c2.2,0,1.6-1.5,1.6-2.6c0-5.6,0-11.3,0-16.9c0-9.4,0-9.3,9.3-9.1c2.5,0.1,3.1,1,3,3.2c-0.1,7.5,0,15-0.1,22.4c0,2.1,0.4,3,2.7,3
		c6.3-0.2,12.7-0.2,19.1,0c2.1,0,2.6-0.7,2.6-2.7c0-29.2-0.1-58.4,0-87.6C389.4,319.4,388.3,319,386.1,319z"/>
	<path class="st1" d="M462.2,407.8c-5.8-12.5-11.4-25.2-17.3-37.7c-1-2.1-1.1-3.8-0.1-5.9c5.9-13.9,11.6-27.8,17.5-41.7
		c1.1-2.6,1.2-3.7-2.2-3.6c-7.5,0.2-15,0.2-22.5,0c-2.5-0.1-3.5,0.8-4.1,3c-2,6.6-4,13.2-6.2,19.8c-0.9,2.8-1.8,5.6-4.3,9
		c0-10.2-0.1-19.3,0.1-28.4c0-2.5-0.7-3.5-3.3-3.4c-5.9,0.2-11.9,0.2-17.8,0c-2.6-0.1-3.4,0.7-3.3,3.3c0.2,6.1,0.1,12.1,0.1,18.2
		c0,22.6,0.1,45.2-0.1,67.8c0,3.2,0.8,4.2,4,4c4.6-0.3,9.3-0.1,14-0.1c6.4,0,6.4,0,6.4-6.5c0-7.2,0-14.4,0-21.6c1.8,1.9,2.7,4,3.6,6
		c3.4,7.3,6.7,14.6,10.1,21.9l0,0c7.8,0.6,15.6,0.6,23.4,0C463.7,412.1,463.4,410.4,462.2,407.8z"/>
	<path class="st1" d="M313.6,352.8c-1.9-11.3-3.4-22.6-6.2-33.7c0,0,0,0,0,0c-3.9,0-7.8,0-11.7,0c-8.3,0-16.6,0-24.9,0
		c-1.8,0.5-1.5,2.2-1.7,3.5c-0.6,3-1,6.1-1.5,9.1c-4.2,26-8.4,52-12.8,78c-0.4,2.6,0.5,2.8,2.5,2.7c5.6-0.1,11.3-0.3,16.9,0.1
		c3.8,0.2,5.5-0.7,5.7-4.9c0.5-7.1,0.8-7.1,7.9-7.1c8.7,0,8.8,0,9.8,8.5c0.3,2.7,1.4,3.5,4,3.4c5.9-0.2,11.9-0.3,17.8,0
		c3.6,0.2,3.8-1.2,3.3-4.2C319.7,389.7,316.7,371.2,313.6,352.8z M291.4,374.7c-0.3,0-0.6,0-0.8,0c-6.6,0.1-6.4,0.2-5.8-6.5
		c0.8-8.3,2.6-16.4,4.4-24.6c1.4,9.6,2.8,19.1,4.3,28.7C293.7,374.1,293.3,375,291.4,374.7z"/>
</g>
</svg>
