<svg xmlns="http://www.w3.org/2000/svg" viewBox="0 0 512 512"><path fill="#02aded" d="M260.4 287.9c-66.1 0-132.2 0-198.3.1-3.2 0-4.2-.7-4.1-4 .2-7.6.3-15.3 0-22.9-.2-3.9 1.4-5 5-5.5 18.6-2.6 37.1-5.5 55.6-8.1 23.3-3.3 46.7-6.1 70.1-8.6 2.1-.2 3.8.7 5.5 1.8 19.1 12.9 40.1 18.5 63 16 20.4-2.3 38.7-9.8 53.6-24.3 2.1-2.1 4.4-3.2 7.4-3.4 27.9-1.4 55.9-2.6 83.8-2.9 18.6-.2 37.3-.4 55.9-.8 3.7-.1 5.1.8 5.1 4.9-.2 17.7-.2 35.3 0 53 0 3.9-1.1 4.9-5 4.9-66-.2-131.8-.2-197.6-.2m72.1-116.2c0 37.7-31.3 70.2-71.5 69.2-37.5-.9-67.7-33.9-66.8-71.8.9-37.5 32.2-68.4 70-68.1 38 .3 68.7 32 68.3 70.7"/><path fill="#043867" d="M110.9 381.4c0-1.2.6-2.7-1.1-4.4-1.1 1.3-1.9 2.6-3.1 3.7-6.6 6-14.7 6.3-21 .7-5.9-5.2-7.7-12.1-6.6-19.6 1.1-7.3 4.8-13.1 12-15.6 6.9-2.4 12.7.4 17.5 5.5.6.6 1 1.8 2.4 1.4v-29.2c0-1.8-.4-2.9-2-3.7-15.6-7.4-40.4-5.9-50.3 15.1-7.2 15.3-6.9 31.5-4 47.7 2.9 15.6 11.1 27 27.6 30.5.3.1 4.3 1.1 4.6 1.3 5.1 0 5.2.6 11.5-.5 3.1-1.2 6.2-2.4 9.3-3.5 2.6-.9 3.5-2.5 3.4-5.4-.3-7.9-.1-16-.2-24m69.3 16.7v-73.2c0-5.8 0-5.8-5.9-5.7h-12.1c-5.1-1.2-7.7 1.1-8.7 6-.6 2.7-1.7 5.3-2.7 8-2.7 7.6-5.5 15.2-8.3 22.9-.5-11.1-.6-22-.5-33 0-2.7-.4-4.1-3.6-4-5.5.3-11 .1-16.5 0-2.3-.1-2.8.8-2.8 3 0 29.1 0 58.2-.1 87.3 0 2.5.8 3.1 3.2 3.1 4.7-.1 9.3-.3 14 0 3.3.2 5-.8 6.2-4 3.8-10.3 7.9-20.5 12-30.6.6-1.6.9-3.4 2.7-4.8.1 1.4.2 2.4.2 3.3 0 10.9.1 21.7 0 32.6 0 2.6.5 3.8 3.5 3.6 5.2-.3 10.4-.2 15.7 0 2.8.1 4.1-.6 3.9-3.7-.4-3.8-.2-7.3-.2-10.8m57.5-39.3c-4.8-1.9-9.9-1.9-15-1.9-10.1.1-9.9 0-9.9-10.1 0-2.9.9-3.5 3.6-3.5 10.2.1 20.3.1 30.5 0 1.3 0 3.4.8 3.3-1.9-.3-7.5.6-14.9-.4-22.4h-57.5c-2.3 0-3.3.6-3.3 3.4.1 28.7.1 57.4 0 86 0 2.8.8 3.5 3.5 3.5 10.7-.2 21.5-.2 32.2 0 13.7.3 25.8-8.2 27.8-23.8 1.8-13.5-3.8-25.1-14.8-29.3M218.1 390c-5.2 0-5.2 0-5.2-6.8.2-3.2-1.5-7.1 4.7-6.6 8 .6 10.8 1.9 10.8 6.9.2 4.8-2.4 6.5-10.3 6.5m168-71c-5.8.1-11.6.2-17.4 0-3-.1-3.9.7-3.8 3.7.2 6.9.1 13.8.1 20.7 0 9.6 0 9.5-9.6 9.3-2.4-.1-2.7-.9-2.7-2.9.1-6.3.2-12.7 0-19.1-.1-3.9.8-7.8-.6-11.7h-11c-3.2 0-6.4.1-9.6 0-2.1-.1-3 .6-2.9 2.8.2 3.5 0 7 0 10.5v78.4c.2 1 .8 1.4 1.8 1.4 6.9 0 13.8 0 20.7.1 2.2 0 1.6-1.5 1.6-2.6v-16.9c0-9.4 0-9.3 9.3-9.1 2.5.1 3.1 1 3 3.2-.1 7.5 0 15-.1 22.4 0 2.1.4 3 2.7 3 6.3-.2 12.7-.2 19.1 0 2.1 0 2.6-.7 2.6-2.7 0-29.2-.1-58.4 0-87.6.1-2.5-1-2.9-3.2-2.9m76.1 88.8c-5.8-12.5-11.4-25.2-17.3-37.7-1-2.1-1.1-3.8-.1-5.9 5.9-13.9 11.6-27.8 17.5-41.7 1.1-2.6 1.2-3.7-2.2-3.6q-11.25.3-22.5 0c-2.5-.1-3.5.8-4.1 3-2 6.6-4 13.2-6.2 19.8-.9 2.8-1.8 5.6-4.3 9 0-10.2-.1-19.3.1-28.4 0-2.5-.7-3.5-3.3-3.4-5.9.2-11.9.2-17.8 0-2.6-.1-3.4.7-3.3 3.3.2 6.1.1 12.1.1 18.2 0 22.6.1 45.2-.1 67.8 0 3.2.8 4.2 4 4 4.6-.3 9.3-.1 14-.1 6.4 0 6.4 0 6.4-6.5V384c1.8 1.9 2.7 4 3.6 6 3.4 7.3 6.7 14.6 10.1 21.9q11.7.9 23.4 0c3.5.2 3.2-1.5 2-4.1m-148.6-55c-1.9-11.3-3.4-22.6-6.2-33.7h-36.6c-1.8.5-1.5 2.2-1.7 3.5-.6 3-1 6.1-1.5 9.1-4.2 26-8.4 52-12.8 78-.4 2.6.5 2.8 2.5 2.7 5.6-.1 11.3-.3 16.9.1 3.8.2 5.5-.7 5.7-4.9.5-7.1.8-7.1 7.9-7.1 8.7 0 8.8 0 9.8 8.5.3 2.7 1.4 3.5 4 3.4 5.9-.2 11.9-.3 17.8 0 3.6.2 3.8-1.2 3.3-4.2-3-18.5-6-37-9.1-55.4m-22.2 21.9h-.8c-6.6.1-6.4.2-5.8-6.5.8-8.3 2.6-16.4 4.4-24.6 1.4 9.6 2.8 19.1 4.3 28.7.2 1.8-.2 2.7-2.1 2.4"/></svg>