<?xml version="1.0" encoding="utf-8"?>
<!-- Generator: Adobe Illustrator 22.1.0, SVG Export Plug-In . SVG Version: 6.00 Build 0)  -->
<svg version="1.1" id="Layer_1" xmlns="http://www.w3.org/2000/svg" xmlns:xlink="http://www.w3.org/1999/xlink" x="0px" y="0px"
	 viewBox="0 0 512 512" style="enable-background:new 0 0 512 512;" xml:space="preserve">
<style type="text/css">
	.st0{fill:#004E92;}
</style>
<path class="st0" d="M258.7,435c-63.2-1.8-115-25.6-151-79c-17.5-25.9-26.5-54.9-28.8-86c-3.4-45.4,6.4-87.3,33.2-124.4
	c28.3-39,66.9-61.9,114.3-69.6c47.3-7.7,92.1-0.4,132.7,25.7c43.6,27.9,69,68.4,77.6,119.2c7.3,43,1.8,84.4-19.4,122.8
	c-27.3,49.5-69.8,78.3-125.3,88.2c-4,0.7-8,1.4-12,1.8C273.1,434.2,265.9,434.5,258.7,435z M109,254.1c0,4.9-0.2,9.7,0.1,14.6
	c0.3,4.8,1,9.7,1.9,14.4c8.3,45.4,31.2,80.9,71.8,103.8c32.6,18.4,67.9,22.9,104.4,16.7c42.2-7.2,75.8-28.4,98.7-65
	c23.1-36.8,28.5-77.2,19.9-119.2c-9.7-47.3-36.2-82.5-80.2-103.5c-30.5-14.5-62.8-17.5-95.8-11.8c-31.4,5.4-58.6,19.3-80.6,42.6
	C120.9,177,108.8,213.4,109,254.1z"/>
<path class="st0" d="M217.6,156.2c0-7.4,0-14.3,0-21.7c10.9,0,21.5-0.1,32.2,0c7.3,0.1,14.6,0.1,21.8,0.9
	c7.6,0.8,11.3,4.9,12.6,12.6c0.4,2.4,0.8,4.8,0.8,7.2c0,65,0,129.9,0,194.9c0,1.4,0,2.8,0,4.6c-17.5,0-34.5,0-52.1,0
	c0-2.2,0-4.1,0-6c0-58.3,0-116.6,0-175c0-1.5,0-2.9,0-4.4c-0.2-10.1-2.6-12.6-12.6-12.9C219.5,156.5,218.7,156.3,217.6,156.2z"/>
<path class="st0" d="M308.6,179.2c12.5,0,24.5-0.3,36.4,0.1c8.1,0.3,12.6,4.9,14.1,12.9c0.5,2.5,0.8,5.1,0.8,7.7
	c0,49.8,0,99.5,0,149.3c0,1.7,0,3.5,0,5.6c-17.3,0-34,0-51.3,0C308.6,296.4,308.6,238,308.6,179.2z"/>
<path class="st0" d="M209,179.6c0,58.4,0,116.6,0,175.2c-17,0-33.8,0-51,0c0-2,0-3.8,0-5.5c0-49.8,0-99.5,0-149.3
	c0-2.7,0.4-5.5,0.8-8.2c1.1-6.9,5.3-11.7,12.1-12C183.5,179.1,196.1,179.6,209,179.6z"/>
</svg>
