<svg xmlns="http://www.w3.org/2000/svg" viewBox="0 0 512 512"><path fill="#238647" d="M43.1 511.4H1.5c-.9 0-1-.2-1-1V1.9c0-.9.2-1 1-1h41.6z"/><path fill="#2f9a47" d="M85.7 511.4H44.1c-.9 0-1-.2-1-1V1.9c0-.9.2-1 1-1h41.6z"/><path fill="#62b54f" d="M128.3 511.4H86.7c-.9 0-1-.2-1-1V1.9c0-.9.2-1 1-1h41.6z"/><path fill="#7cc452" d="M170.9 511.4h-41.6c-.9 0-1-.2-1-1V1.9c0-.9.2-1 1-1h41.6z"/><path fill="#3db7ac" d="M213.5 511.4h-41.6c-.9 0-1-.2-1-1V1.9c0-.9.2-1 1-1h41.6z"/><path fill="#3394d6" d="M256.1 511.4h-41.6c-.9 0-1-.2-1-1V1.9c0-.9.2-1 1-1h41.6z"/><path fill="#2872bb" d="M298.7 511.4h-41.6c-.9 0-1-.2-1-1V1.9c0-.9.2-1 1-1h41.6z"/><path fill="#1d5c84" d="M341.3 511.4h-41.6c-.9 0-1-.2-1-1V1.9c0-.9.2-1 1-1h41.6z"/><path fill="#983233" d="M384.2 511.4h-41.6c-.9 0-1-.2-1-1V1.9c0-.9.2-1 1-1h41.6z"/><path fill="#e03030" d="M426.8 511.4h-41.6c-.9 0-1-.2-1-1V1.9c0-.9.2-1 1-1h41.6z"/><path fill="#f18725" d="M469.4 511.4h-41.6c-.9 0-1-.2-1-1V1.9c0-.9.2-1 1-1h41.6z"/><path fill="#f4c736" d="M512 511.4h-41.6c-.9 0-1-.2-1-1V1.9c0-.9.2-1 1-1H512z"/><path fill="#fefefe" d="M86.5 221.8c5.8-4.3 12.3-6.9 19.5-7.7 7.7-.9 15.2 0 22.4 3.1h.3c5.3 2.5 10.1 5.8 14.1 10.1 5.2 5.6 8.7 12.1 10.3 19.4 4.3 19.4-4.8 38.7-22.6 47.6-4 2-8.3 3.4-12.8 4-2.7.4-5.5.6-8.2.5-3.3-.2-6.5-.8-9.7-1.7-4.4-1.2-8.4-3.1-12.1-5.6-.5-.4-.9-1-1.6-1.1-.2-.2-.4-.5-.6-.6-.3-.2-.7-.5-.8.3-.2 1.9-.5 3.8-.7 5.7-.1.6-.2.8-.8.8H69.9c-.6 0-.9-.2-.8-.8V181.1c0-1.2.2-1.6 1.5-1.5 5.1.1 10.3 0 15.4 0v42.1c.2.4.3.2.5.1m-.8 24.4-.3.6a28.8 28.8 0 0 0-1.5 10.9c.2 2.9.7 5.7 1.8 8.4 1.6 4.3 4 8.1 7.5 11.1 6.1 5.3 13.1 7.6 21.2 6.3 5.5-.9 10.3-3.2 14.2-7.4 3.7-3.1 5.9-7.2 7.2-11.8 1.3-4.3 1.5-8.8.7-13.3-1.1-5.9-3.7-10.9-8-15.1-.8-1-1.8-1.7-2.8-2.4-6-4.4-12.7-5.9-20-4.7-6.3 1-11.4 4.3-15.5 9.1-1.9 2.6-3.5 5.3-4.5 8.3"/><path fill="#fdfefe" d="M213.6 298.6c-3.7.2-7.5.2-11.2-.5-15.4-2.7-28.2-15.6-30.7-31-.1-.9-.3-1.7-.5-2.6-.2-15.9 0-31.8-.1-47.6 0-.3 0-.7.1-1h15.6c1.2 0 1.4.3 1.4 1.4v42.6c0 6 1.5 11.5 5.4 16.1 5.1 6.2 11.5 8.9 19.5 7.6.2 0 .4-.1.6-.2 4.4-.8 8-3.1 10.9-6.4 4.1-4.6 6.1-10 6.1-16.1.1-14.5 0-29 0-43.5 0-1.2.3-1.6 1.5-1.6 4.8.1 9.5.1 14.3 0 1 0 1.3.3 1.3 1.3 0 14.4.1 28.8 0 43.3-.1 18.5-12.5 33.7-30.5 37.6-1.3.2-2.5.4-3.7.6m85.2-84.8c4.5-.3 8.9-.2 13.3.9 15.4 3.8 26.5 16.1 28.9 31.9 0 .2.1.4.2.6.5 16.1.1 32.3.2 48.4 0 .3.1.7-.2 1-5.1 0-10.2-.1-15.3 0-1.4 0-1.6-.4-1.6-1.7 0-14.6.1-29.2 0-43.7-.1-7.9-3.4-14.4-9.9-19-4.5-3.2-9.6-4.2-15-3.3-.2 0-.4.2-.6.2-2.6.4-4.9 1.5-7 3-7 5-10 12-10 20.4v42.4c0 1.9.2 1.7-1.7 1.7h-14c-.9 0-1.2-.1-1.2-1.2 0-14.6-.1-29.3.1-43.9.2-17.9 12.4-33 29.9-37 1.3-.2 2.6-.4 3.9-.7"/><path fill="#fefdfd" d="M426 290.5c-3.5 2.4-7.3 4.5-11.4 5.9-3.2 1.1-6.4 1.8-9.7 2.1-7.1.7-13.9-.4-20.5-3-.2-.1-.5-.2-.7-.3-4.5-2.2-8.7-4.8-12.3-8.3-6.4-6.2-10.5-13.6-12.4-22.2-.9-4-1.2-8-.8-12 .7-7.1 2.8-13.8 6.8-19.7 1.9-2.9 4-5.7 6.6-8 3.4-3 7.1-5.7 11.4-7.5.2-.1.4-.3.6-.4 15.1-5.8 29.3-4.3 42.6 5.1.2.2.4.3.6.5.5.5.7.4.7-.3.1-1.9.5-3.7.5-5.6 0-.6.3-1 1-1h13.3c.6 0 .9.2.8.8v114.5c0 1.9.2 1.6-1.6 1.6h-15.3c0-.1-.1-.2-.1-.3 0-.5.1-.9.1-1.4v-40.4c.2-.2 0-.2-.2-.1m.5-44.6v-.4c-3-7.1-7.9-12.3-15.1-15.2-4-1.6-8.2-2.1-12.6-1.6-5.9.7-10.7 3.1-14.9 7.2-1.1.7-1.9 1.8-2.7 2.9-5.3 7.3-7 15.4-5 24.2 1.2 5.2 3.7 9.6 7.6 13.3.1.1.1.2.2.3 5.6 5 12 7.7 19.7 7.1 5.9-.4 11-2.8 15.4-6.5 3.3-2.8 5.8-6.4 7.4-10.6q4.05-10.35 0-20.7"/></svg>