<?xml version="1.0" encoding="utf-8"?>
<!-- Generator: Adobe Illustrator 22.1.0, SVG Export Plug-In . SVG Version: 6.00 Build 0)  -->
<svg version="1.1" id="Layer_1" xmlns="http://www.w3.org/2000/svg" xmlns:xlink="http://www.w3.org/1999/xlink" x="0px" y="0px"
	 viewBox="0 0 512 512" style="enable-background:new 0 0 512 512;" xml:space="preserve">
<style type="text/css">
	.st0{fill:#238647;}
	.st1{fill:#2F9A47;}
	.st2{fill:#62B54F;}
	.st3{fill:#7CC452;}
	.st4{fill:#3DB7AC;}
	.st5{fill:#3394D6;}
	.st6{fill:#2872BB;}
	.st7{fill:#1D5C84;}
	.st8{fill:#983233;}
	.st9{fill:#E03030;}
	.st10{fill:#F18725;}
	.st11{fill:#F4C736;}
	.st12{fill:#FEFEFE;}
	.st13{fill:#FDFEFE;}
	.st14{fill:#FEFDFD;}
</style>
<g>
	<path class="st0" d="M43.1,511.4c-13.9,0-27.7,0-41.6,0c-0.9,0-1-0.2-1-1c0-169.5,0-339,0-508.5c0-0.9,0.2-1,1-1
		c13.9,0,27.7,0,41.6,0C43.1,171.1,43.1,341.2,43.1,511.4z"/>
	<path class="st1" d="M85.7,511.4c-13.9,0-27.7,0-41.6,0c-0.9,0-1-0.2-1-1c0-169.5,0-339,0-508.5c0-0.9,0.2-1,1-1
		c13.9,0,27.7,0,41.6,0C85.7,171.1,85.7,341.2,85.7,511.4z"/>
	<path class="st2" d="M128.3,511.4c-13.9,0-27.7,0-41.6,0c-0.9,0-1-0.2-1-1c0-169.5,0-339,0-508.5c0-0.9,0.2-1,1-1
		c13.9,0,27.7,0,41.6,0C128.3,171.1,128.3,341.2,128.3,511.4z"/>
	<path class="st3" d="M170.9,511.4c-13.9,0-27.7,0-41.6,0c-0.9,0-1-0.2-1-1c0-169.5,0-339,0-508.5c0-0.9,0.2-1,1-1
		c13.9,0,27.7,0,41.6,0C170.9,171.1,170.9,341.2,170.9,511.4z"/>
	<path class="st4" d="M213.5,511.4c-13.9,0-27.7,0-41.6,0c-0.9,0-1-0.2-1-1c0-169.5,0-339,0-508.5c0-0.9,0.2-1,1-1
		c13.9,0,27.7,0,41.6,0C213.5,171.1,213.5,341.2,213.5,511.4z"/>
	<path class="st5" d="M256.1,511.4c-13.9,0-27.7,0-41.6,0c-0.9,0-1-0.2-1-1c0-169.5,0-339,0-508.5c0-0.9,0.2-1,1-1
		c13.9,0,27.7,0,41.6,0C256.1,171.1,256.1,341.2,256.1,511.4z"/>
	<path class="st6" d="M298.7,511.4c-13.9,0-27.7,0-41.6,0c-0.9,0-1-0.2-1-1c0-169.5,0-339,0-508.5c0-0.9,0.2-1,1-1
		c13.9,0,27.7,0,41.6,0C298.7,171.1,298.7,341.2,298.7,511.4z"/>
	<path class="st7" d="M341.3,511.4c-13.9,0-27.7,0-41.6,0c-0.9,0-1-0.2-1-1c0-169.5,0-339,0-508.5c0-0.9,0.2-1,1-1
		c13.9,0,27.7,0,41.6,0C341.3,171.1,341.3,341.2,341.3,511.4z"/>
	<path class="st8" d="M384.2,511.4c-13.9,0-27.7,0-41.6,0c-0.9,0-1-0.2-1-1c0-169.5,0-339,0-508.5c0-0.9,0.2-1,1-1
		c13.9,0,27.7,0,41.6,0C384.2,171.1,384.2,341.2,384.2,511.4z"/>
	<path class="st9" d="M426.8,511.4c-13.9,0-27.7,0-41.6,0c-0.9,0-1-0.2-1-1c0-169.5,0-339,0-508.5c0-0.9,0.2-1,1-1
		c13.9,0,27.7,0,41.6,0C426.8,171.1,426.8,341.2,426.8,511.4z"/>
	<path class="st10" d="M469.4,511.4c-13.9,0-27.7,0-41.6,0c-0.9,0-1-0.2-1-1c0-169.5,0-339,0-508.5c0-0.9,0.2-1,1-1
		c13.9,0,27.7,0,41.6,0C469.4,171.1,469.4,341.2,469.4,511.4z"/>
	<path class="st11" d="M512,511.4c-13.9,0-27.7,0-41.6,0c-0.9,0-1-0.2-1-1c0-169.5,0-339,0-508.5c0-0.9,0.2-1,1-1
		c13.9,0,27.7,0,41.6,0C512,171.1,512,341.2,512,511.4z"/>
</g>
<g>
	<path class="st12" d="M86.5,221.8c5.8-4.3,12.3-6.9,19.5-7.7c7.7-0.9,15.2,0,22.4,3.1c0.1,0,0.2,0,0.3,0
		c5.3,2.5,10.1,5.8,14.1,10.1c5.2,5.6,8.7,12.1,10.3,19.4c4.3,19.4-4.8,38.7-22.6,47.6c-4,2-8.3,3.4-12.8,4
		c-2.7,0.4-5.5,0.6-8.2,0.5c-3.3-0.2-6.5-0.8-9.7-1.7c-4.4-1.2-8.4-3.1-12.1-5.6c-0.5-0.4-0.9-1-1.6-1.1c-0.2-0.2-0.4-0.5-0.6-0.6
		c-0.3-0.2-0.7-0.5-0.8,0.3c-0.2,1.9-0.5,3.8-0.7,5.7c-0.1,0.6-0.2,0.8-0.8,0.8c-4.4,0-8.8,0-13.3,0c-0.6,0-0.9-0.2-0.8-0.8
		c0-0.3,0-0.5,0-0.8c0-38,0-75.9,0-113.9c0-1.2,0.2-1.6,1.5-1.5c5.1,0.1,10.3,0,15.4,0c0,1.4,0,2.9,0,4.3c0,12.1,0,24.2,0,36.3
		c0,0.5,0,1,0,1.5C86.2,222.1,86.3,221.9,86.5,221.8z M85.7,246.2c-0.1,0.2-0.2,0.4-0.3,0.6c-1.2,3.5-1.7,7.2-1.5,10.9
		c0.2,2.9,0.7,5.7,1.8,8.4c1.6,4.3,4,8.1,7.5,11.1c6.1,5.3,13.1,7.6,21.2,6.3c5.5-0.9,10.3-3.2,14.2-7.4c3.7-3.1,5.9-7.2,7.2-11.8
		c1.3-4.3,1.5-8.8,0.7-13.3c-1.1-5.9-3.7-10.9-8-15.1c-0.8-1-1.8-1.7-2.8-2.4c-6-4.4-12.7-5.9-20-4.7c-6.3,1-11.4,4.3-15.5,9.1
		C88.3,240.5,86.7,243.2,85.7,246.2z"/>
	<path class="st13" d="M213.6,298.6c-3.7,0.2-7.5,0.2-11.2-0.5c-15.4-2.7-28.2-15.6-30.7-31c-0.1-0.9-0.3-1.7-0.5-2.6
		c-0.2-15.9,0-31.8-0.1-47.6c0-0.3,0-0.7,0.1-1c5.2,0,10.4,0,15.6,0c1.2,0,1.4,0.3,1.4,1.4c0,14.2,0,28.4,0,42.6
		c0,6,1.5,11.5,5.4,16.1c5.1,6.2,11.5,8.9,19.5,7.6c0.2,0,0.4-0.1,0.6-0.2c4.4-0.8,8-3.1,10.9-6.4c4.1-4.6,6.1-10,6.1-16.1
		c0.1-14.5,0-29,0-43.5c0-1.2,0.3-1.6,1.5-1.6c4.8,0.1,9.5,0.1,14.3,0c1,0,1.3,0.3,1.3,1.3c0,14.4,0.1,28.8,0,43.3
		c-0.1,18.5-12.5,33.7-30.5,37.6C216,298.2,214.8,298.4,213.6,298.6z"/>
	<path class="st13" d="M298.8,213.8c4.5-0.3,8.9-0.2,13.3,0.9c15.4,3.8,26.5,16.1,28.9,31.9c0,0.2,0.1,0.4,0.2,0.6
		c0.5,16.1,0.1,32.3,0.2,48.4c0,0.3,0.1,0.7-0.2,1c-5.1,0-10.2-0.1-15.3,0c-1.4,0-1.6-0.4-1.6-1.7c0-14.6,0.1-29.2,0-43.7
		c-0.1-7.9-3.4-14.4-9.9-19c-4.5-3.2-9.6-4.2-15-3.3c-0.2,0-0.4,0.2-0.6,0.2c-2.6,0.4-4.9,1.5-7,3c-7,5-10,12-10,20.4
		c0,14.1,0,28.2,0,42.4c0,1.9,0.2,1.7-1.7,1.7c-4.7,0-9.4,0-14,0c-0.9,0-1.2-0.1-1.2-1.2c0-14.6-0.1-29.3,0.1-43.9
		c0.2-17.9,12.4-33,29.9-37C296.2,214.3,297.5,214.1,298.8,213.8z"/>
	<path class="st14" d="M426,290.5c-3.5,2.4-7.3,4.5-11.4,5.9c-3.2,1.1-6.4,1.8-9.7,2.1c-7.1,0.7-13.9-0.4-20.5-3
		c-0.2-0.1-0.5-0.2-0.7-0.3c-4.5-2.2-8.7-4.8-12.3-8.3c-6.4-6.2-10.5-13.6-12.4-22.2c-0.9-4-1.2-8-0.8-12c0.7-7.1,2.8-13.8,6.8-19.7
		c1.9-2.9,4-5.7,6.6-8c3.4-3,7.1-5.7,11.4-7.5c0.2-0.1,0.4-0.3,0.6-0.4c15.1-5.8,29.3-4.3,42.6,5.1c0.2,0.2,0.4,0.3,0.6,0.5
		c0.5,0.5,0.7,0.4,0.7-0.3c0.1-1.9,0.5-3.7,0.5-5.6c0-0.6,0.3-1,1-1c4.4,0,8.8,0,13.3,0c0.6,0,0.9,0.2,0.8,0.8c0,0,0,0.1,0,0.1
		c0,12.4,0,24.8,0,37.2c0,1.1,0,2.2,0,3.3c0,24.6,0,49.2,0,73.9c0,1.9,0.2,1.6-1.6,1.6c-5.1,0-10.2,0-15.3,0c0-0.1-0.1-0.2-0.1-0.3
		c0-0.5,0.1-0.9,0.1-1.4c0-13.1,0-26.2,0-39.3c0-0.4,0-0.8,0-1.1C426.4,290.4,426.2,290.4,426,290.5z M426.5,245.9
		c0-0.1,0-0.3,0-0.4c-3-7.1-7.9-12.3-15.1-15.2c-4-1.6-8.2-2.1-12.6-1.6c-5.9,0.7-10.7,3.1-14.9,7.2c-1.1,0.7-1.9,1.8-2.7,2.9
		c-5.3,7.3-7,15.4-5,24.2c1.2,5.2,3.7,9.6,7.6,13.3c0.1,0.1,0.1,0.2,0.2,0.3c5.6,5,12,7.7,19.7,7.1c5.9-0.4,11-2.8,15.4-6.5
		c3.3-2.8,5.8-6.4,7.4-10.6C429.2,259.7,429.2,252.8,426.5,245.9z"/>
</g>
</svg>
