<svg xmlns="http://www.w3.org/2000/svg" viewBox="0 0 512 512"><path fill="#128dcf" d="M104.3 171.9c2.8.9 5.8.8 8.6 1.5 31.3 7 53.4 24.8 63 55.9 8.2 26.7 5.1 52.5-11.5 75.7-13.9 19.4-32.8 31.2-56.4 35.3-3.7.6-7.5.8-11.3.8H31.9V173.7c0-1.4.3-1.7 1.7-1.7 23.6 0 47.1-.1 70.7-.1M79 256.4v40.5c0 .9-.4 1.9 1.3 1.9 8.7-.3 17.4-.9 25.8-3.7 11.2-3.7 19.8-10.2 24.1-21.5 2.9-7.7 3.4-15.7 2.5-23.7-1.5-14-8.4-24.2-21.4-30-9.6-4.3-19.9-5.3-30.3-5.7-1.6-.1-2 .4-2 2zm404.6 37.5c-.6 10.8-4.1 20.5-11.1 28.8-8.7 10.3-20.1 15.7-33.3 17.7-4.2.6-8.4.7-12.6.7h-69.9c-1.5 0-2-.2-2-1.9V172h73.8c.2.4.6.3 1 .3 4.2.3 8.3 1.1 12.4 2.3 11.7 3.6 21.4 9.9 27.6 20.7s6.1 22.3 2.9 33.9c-2.4 8.6-7.1 15.3-15.9 18.4-.1 0-.2.3-.3.5.3.2.6.3.9.4 7.1 3.1 12.8 7.9 17.5 13.9 5.2 6.7 8.5 14.3 9 22.9zm-82-10.1v15.4c0 1 .1 1.6 1.4 1.6 6.1-.1 12.2 0 18.3-.1 4-.1 7.4-1.8 9.9-4.9 2.2-2.7 3.2-5.8 3.7-9.1 1.4-9.8-5.4-18.8-15.3-19.5-5.6-.4-11.2-.1-16.7-.2-1.2 0-1.2.7-1.2 1.6-.1 5.1-.1 10.1-.1 15.2m0-59V238c0 1 0 1.7 1.3 1.7 5-.1 9.9.3 14.9-.2 7.6-.7 12.6-6.1 13-13.8s-4.3-14-11.7-15.2c-5.5-.9-11-.2-16.5-.4-1.1 0-.9.8-.9 1.4-.1 4.4-.1 8.8-.1 13.3m-64.5-52.9c-16 25.2-32 50.4-48.1 75.5-1 1.5-.9 2.5 0 4 17.3 29.3 34.6 58.5 51.8 87.8.3.5.5 1 .9 1.7-.8 0-1.4.1-1.9.1h-50.1c-1.4 0-2.1-.4-2.8-1.6-13.2-23.1-26.5-46.2-39.8-69.3-.3-.6-.7-1.2-1.1-1.8-.7.7-.4 1.4-.4 2v68.6c0 1.9-.5 2.2-2.3 2.2-14.3-.1-28.5-.1-42.8 0-1.7 0-2.1-.4-2.1-2.1V171.9h47.1v63.2c.7-.3.9-.7 1.1-1 11.9-20.3 23.8-40.7 35.7-61 .2-.4.6-.7.5-1.2z"/><path fill="#168ed0" d="M483.6 285.4c.1 0 .3-.1.4-.1v8.7c-.1 0-.3-.1-.4-.1z"/></svg>