<?xml version="1.0" encoding="utf-8"?>
<!-- Generator: Adobe Illustrator 22.1.0, SVG Export Plug-In . SVG Version: 6.00 Build 0)  -->
<svg version="1.1" id="Layer_1" xmlns="http://www.w3.org/2000/svg" xmlns:xlink="http://www.w3.org/1999/xlink" x="0px" y="0px"
	 viewBox="0 0 512 512" style="enable-background:new 0 0 512 512;" xml:space="preserve">
<style type="text/css">
	.st0{fill:#128DCF;}
	.st1{fill:#168ED0;}
</style>
<path class="st0" d="M104.3,171.9c2.8,0.9,5.8,0.8,8.6,1.5c31.3,7,53.4,24.8,63,55.9c8.2,26.7,5.1,52.5-11.5,75.7
	c-13.9,19.4-32.8,31.2-56.4,35.3c-3.7,0.6-7.5,0.8-11.3,0.8c-20.8,0-41.7,0-62.5,0c-0.8,0-1.5,0-2.3,0c0-55.8,0-111.6,0-167.4
	c0-1.4,0.3-1.7,1.7-1.7C57.2,172,80.7,171.9,104.3,171.9z M79,256.4c0,13.5,0,27,0,40.5c0,0.9-0.4,1.9,1.3,1.9
	c8.7-0.3,17.4-0.9,25.8-3.7c11.2-3.7,19.8-10.2,24.1-21.5c2.9-7.7,3.4-15.7,2.5-23.7c-1.5-14-8.4-24.2-21.4-30
	c-9.6-4.3-19.9-5.3-30.3-5.7c-1.6-0.1-2,0.4-2,2C79,229.6,79,243,79,256.4z"/>
<path class="st0" d="M483.6,293.9c-0.6,10.8-4.1,20.5-11.1,28.8c-8.7,10.3-20.1,15.7-33.3,17.7c-4.2,0.6-8.4,0.7-12.6,0.7
	c-23.3,0-46.6,0-69.9,0c-1.5,0-2-0.2-2-1.9c0-55.4,0-110.8,0-166.1c0-0.4,0-0.8,0-1.1c24.6,0,49.2,0,73.8,0c0.2,0.4,0.6,0.3,1,0.3
	c4.2,0.3,8.3,1.1,12.4,2.3c11.7,3.6,21.4,9.9,27.6,20.7c6.2,10.8,6.1,22.3,2.9,33.9c-2.4,8.6-7.1,15.3-15.9,18.4
	c-0.1,0-0.2,0.3-0.3,0.5c0.3,0.2,0.6,0.3,0.9,0.4c7.1,3.1,12.8,7.9,17.5,13.9c5.2,6.7,8.5,14.3,9,22.9
	C483.6,288.3,483.6,291.1,483.6,293.9z M401.6,283.8c0,5.1,0,10.3,0,15.4c0,1,0.1,1.6,1.4,1.6c6.1-0.1,12.2,0,18.3-0.1
	c4-0.1,7.4-1.8,9.9-4.9c2.2-2.7,3.2-5.8,3.7-9.1c1.4-9.8-5.4-18.8-15.3-19.5c-5.6-0.4-11.2-0.1-16.7-0.2c-1.2,0-1.2,0.7-1.2,1.6
	C401.6,273.7,401.6,278.7,401.6,283.8z M401.6,224.8c0,4.4,0,8.8,0,13.2c0,1,0,1.7,1.3,1.7c5-0.1,9.9,0.3,14.9-0.2
	c7.6-0.7,12.6-6.1,13-13.8c0.4-7.7-4.3-14-11.7-15.2c-5.5-0.9-11-0.2-16.5-0.4c-1.1,0-0.9,0.8-0.9,1.4
	C401.6,215.9,401.6,220.3,401.6,224.8z"/>
<path class="st0" d="M337.1,171.9c-16,25.2-32,50.4-48.1,75.5c-1,1.5-0.9,2.5,0,4c17.3,29.3,34.6,58.5,51.8,87.8
	c0.3,0.5,0.5,1,0.9,1.7c-0.8,0-1.4,0.1-1.9,0.1c-16.7,0-33.4,0-50.1,0c-1.4,0-2.1-0.4-2.8-1.6c-13.2-23.1-26.5-46.2-39.8-69.3
	c-0.3-0.6-0.7-1.2-1.1-1.8c-0.7,0.7-0.4,1.4-0.4,2c0,22.9,0,45.7,0,68.6c0,1.9-0.5,2.2-2.3,2.2c-14.3-0.1-28.5-0.1-42.8,0
	c-1.7,0-2.1-0.4-2.1-2.1c0-54.9,0-109.9,0-164.8c0-0.8,0-1.5,0-2.3c15.7,0,31.4,0,47.1,0c0,21.1,0,42.1,0,63.2
	c0.7-0.3,0.9-0.7,1.1-1c11.9-20.3,23.8-40.7,35.7-61c0.2-0.4,0.6-0.7,0.5-1.2C300.9,171.9,319,171.9,337.1,171.9z"/>
<path class="st1" d="M483.6,285.4c0.1,0,0.3-0.1,0.4-0.1c0,2.9,0,5.8,0,8.7c-0.1,0-0.3-0.1-0.4-0.1
	C483.6,291.1,483.6,288.3,483.6,285.4z"/>
</svg>
