<?xml version="1.0" encoding="utf-8"?>
<!-- Generator: Adobe Illustrator 22.1.0, SVG Export Plug-In . SVG Version: 6.00 Build 0)  -->
<svg version="1.1" id="Layer_1" xmlns="http://www.w3.org/2000/svg" xmlns:xlink="http://www.w3.org/1999/xlink" x="0px" y="0px"
	 viewBox="0 0 512 512" style="enable-background:new 0 0 512 512;" xml:space="preserve">
<style type="text/css">
	.st0{fill-rule:evenodd;clip-rule:evenodd;fill:#422C1D;}
	.st1{fill:#BED700;}
</style>
<rect x="1" y="0" class="st0" width="510" height="511"/>
<path class="st1" d="M308.8,221.4c2.2,0.8,3.4,1.3,4.6,1.7c32,9.1,55.2,39.8,55.8,73.2c0.5,29-9.1,53.8-30.9,73
	c-15.2,13.5-34.4,18.6-54.1,21.4c-32.3,4.7-64.1,1.2-95.4-7.7c-2.1-0.6-4.7-0.6-6.8,0c-10.4,2.9-20.8,6.1-31.2,9.1
	c-1.9,0.6-3.8,1-6.1,1.6c-0.2-1.6-0.5-2.6-0.5-3.7c0-84.8,0-169.6-0.1-254.5c0-3.9,0.9-6.1,5-7c37.5-9.1,75.4-13.2,114-8.2
	c12.5,1.6,24.4,5,35.1,12.2c27.1,18.1,33.8,58.8,13.7,84.5C311.1,218.1,310.2,219.4,308.8,221.4z M250.1,239.5
	c2.4-2.7,4.3-4.7,6.1-6.9c7.8-9,14.7-18.6,18.6-30c6.9-20-0.9-35.5-21.1-41.8c-19.7-6.2-39.4-4.9-59.1,0.8c-3.9,1.1-5.1,3.2-5.1,7.2
	c0.1,56.7,0.1,113.3,0,170c0,3.6,1.3,5.4,4.6,6.6c20.8,7.7,42.4,10,64.4,8.2c16.4-1.3,31.7-6.2,45.2-15.7
	c26.5-18.6,27.9-54.1,3.3-75c-9.4-8-20.2-13.5-31.9-17.1C267.1,243.3,259,241.7,250.1,239.5z"/>
</svg>
