<?xml version="1.0" encoding="utf-8"?>
<!-- Generator: Adobe Illustrator 22.1.0, SVG Export Plug-In . SVG Version: 6.00 Build 0)  -->
<svg version="1.1" id="Layer_1" xmlns="http://www.w3.org/2000/svg" xmlns:xlink="http://www.w3.org/1999/xlink" x="0px" y="0px"
	 viewBox="0 0 512 512" style="enable-background:new 0 0 512 512;" xml:space="preserve">
<style type="text/css">
	.st0{fill:#0097D3;}
	.st1{fill:#E75426;}
	.st2{fill:#F9B814;}
</style>
<g>
	<g>
		<path class="st0" d="M79.7,220.9c1.1,1,2.2,2,3.3,3c1.1,1,2.4,1.7,3.9,1.7c1.8,0.1,3.6,0.6,5.3,1.3c2.4,1,4.8,1.9,7.4,1.7
			c0.4,0,0.7,0.2,1.1,0.4c2.2,1,4.5,1.7,6.8,2.2c3.7,0.8,7.5,1.2,11,2.9c2.9,1.3,5.7,1.8,8.8,1.6c1.4-0.1,2.7,0.1,4.1,0.8
			c1.2,0.7,2.6,1,3.9,1.2c3.8,0.7,7.8,0.7,11.6,1.6c11.3,2.3,22.7,3.8,34.3,4.3c1.8,0,3.6-0.1,5.3,0.2c5,1.2,10.2,1.1,15.3,0.7
			c3.1,0,6.1,0,9.8,0c1.8,0,2.3,0.6,1.8,2.4c-2.3,8.8-5.5,17.3-8.5,25.8c-1.9,5.4-4.3,10.6-3.7,16.6c0.1,0.8-0.2,1.3-0.8,1.8
			c-3.5,3.2-4.7,7.6-5,12.1c-0.2,3.6-0.5,7-2,10.4c-0.2,0.7-0.4,1.3-0.5,2c-0.6,4.7-1.8,9.2-3.2,13.6c-0.5,1.6-1.2,3.1-1.3,4.8
			c-0.4,3.8-1.1,7.6-2.5,11.2c-0.2,0.4-0.4,0.7-0.2,1.2c0.6,3.7-0.4,7.4-1.1,11c-0.6,3.1-1.9,6.3-0.5,9.6c0.1,0.2,0,0.4,0,0.6
			c-0.2,2.4-0.4,4.7-0.4,7c0,2-0.2,4.1-1,6c-0.1,0.4-0.4,0.6-0.1,1c1.2,1.9,1,3.9,1,6.1c0,1.4,0,2.9,0.6,4.2c0.8,2,3.6,2.9,5.6,1.8
			c4.3-2.4,7.5-6.1,11.2-9.2c2.6-2.4,5-4.9,7.3-7.6c3.9-4.8,7.2-9.9,10.2-15.3c3.8-6.7,8.6-12.8,12.3-19.6
			c8-14.7,15.8-29.5,23.2-44.6c1.7-3.2,3-6.7,3.1-10.4c0-0.4,0.1-0.7,0.2-1c1.9-3.1,2.5-6.7,3.3-10.2c0.7-3.2,1.7-6.5,3.9-9.1
			c0.8-1,1.3-1.9,1.2-3.1c0-0.4,0-0.6,0-1c0-0.7,0.2-1.2,1.1-0.6c1.1,0.7,2.3,1.4,3.5,2.2c5.4,3.5,10.4,7.5,15.7,11.2
			c3.7,2.5,7.8,4.4,10.8,8c0.5,0.6,1.3,1.1,2.2,1.2c0.7,0.1,1.3,0.5,1.9,1c4.8,3.7,9.6,7.6,14.6,11c4.9,3.3,9.7,6.8,14.2,10.5
			c5.3,4.3,10.4,8.7,16.1,12.3c1,0.7,2.2,1.3,3,2.2c2.6,2.5,4.7,5.7,8.4,7c6.8,5.7,14.2,10.6,21.5,15.5c5,3.3,9.7,7.2,14.6,10.4
			c7.2,4.7,14.7,8.6,22.3,12.3c5.4,2.6,11,4.9,16.8,6.7c0.7,0.2,1.3,0.2,1.9-0.2c1.8-1.4,2.5-4.7,1.4-6.7c-2.6-4.9-4.9-10-6.9-15.2
			c-2-5-3.8-10.2-6.2-14.9c-3.1-6.1-6.5-11.9-9.3-18.2c-1.4-3.1-3.6-5.9-5.3-8.8c-1.7-2.7-2.9-5.6-3.3-8.8c0-0.6-0.2-1-0.5-1.4
			c-3.7-5.5-7-11.1-10.5-16.7c-1.4-2.2-2.6-4.5-4.4-6.5c-2.3-2.3-3.8-4.9-4.9-7.8c-0.1-0.4-0.4-1-0.6-1.3
			c-6.3-8.8-12.7-17.6-20.1-25.6c-0.2-0.4-0.5-0.7-1-0.7c-1.8,0.2-2.6-1.1-3.6-2.3c-0.7-0.8-1.3-1.8-2.5-2c-0.8-0.1-1.3-0.6-1.9-1.2
			c-2.2-2-3.6-4.7-5-7.2c-1.4-2.4-2.7-4.8-5-6.6c-2.5-2-4.8-4.2-7.4-6c-1.3-0.8-2.5-2-3.2-3.5c-0.6-1.2-0.8-2.3,0.2-3.3
			c0.6-0.6,1.1-1.4,1.7-2.2c7.4-9.3,15.7-18.2,23.4-27.2c3.6-4.3,7.4-8.4,9.7-13.5c1.6-3.5,3.5-6.7,5.5-9.9
			c4.4-6.8,9.6-13.3,14-20.2c4.7-7.3,8.2-14.9,9.1-23.7c0.2-2.4-0.6-3.5-2.9-4.1c-3.1-0.8-6,0.1-9,0.5c-2.6,0.2-4.8,1.4-5.9,3.9
			c-0.2,0.4-0.7,0.6-1.1,0.8c-3.5,2.3-6.9,4.2-10.5,6.1c-6.6,3.5-13.5,6.5-19.7,10.5c-1.1,0.7-2.3,1.2-3.6,1.4
			c-0.7,0.2-1.4,0.5-2.2,0.8c-4.9,2.6-9.2,5.9-13.6,9.1c-1,0.6-1.9,1.2-3,1.6c-2.4,0.8-4.4,2.2-6.6,3.2c-0.4,0.1-0.6,0.2-0.7,0.6
			c-1.1,2.2-2.9,3.5-4.9,4.5c-1.9,1.1-4.1,1.9-5.7,3.3c-3,2.4-6.2,4.2-9.6,6c-6.1,3.2-12.5,5.9-18.5,9.3c-1.6,1-3.3,1.7-4.4,3.3
			c-1.8,2.7-8,2.2-9.7-0.2c-3.2-4.5-7.6-8-12.3-11c-5.5-3.5-11.1-6.9-16.6-10.5c-7.2-4.7-14.9-8.1-23.2-10.4
			c-6.2-1.7-12.3-3.5-18.5-5.1c-0.4,0-0.7-0.2-1-0.1c-2,1-4.1,0.5-6.1,0.5c-2.4,0-4.3,3-3.5,5.3c0.2,0.8,0.5,1.7,0.5,2.6
			c0,3.1,0.2,6.1,1.4,9.1c1.7,4.2,3.3,8.4,5.6,12.3c3,5.1,6.3,9.9,8.8,15.3c0.8,1.7,1.8,3.2,2.9,4.7c3.1,4.3,6.2,8.5,9.3,12.8
			c0.1,0.2,0.4,0.5,0.5,0.7c0.4,0.6,0.5,1.3,0.2,1.9c-0.2,0.5-1.1,0.1-1.6,0.1c-0.7,0-1.6-0.2-2.3-0.4c-4.2-1.1-8.2-2.2-12.5-2.3
			c-9.1-0.2-18-1.6-27.1-2.2c-2.2-0.2-4.4-0.4-6.7-0.2c-2.7,0.2-5.6,0.4-8.4,0.2c-4.1-0.1-8.2-0.6-12.4,0.1
			c-6.3,1.1-12.7,1.9-19.1,2.7c-11.7,1.4-22.7,5.1-33.3,10.2c-4.4,2.2-8.2,5.1-11.3,9.1C78.5,219.3,78.5,219.8,79.7,220.9z"/>
		<path class="st1" d="M173.5,345.1c-0.1,0,0-0.2,0-0.4c0.4-3.1-1-6-1.3-9.1c-0.5-4.5-2.2-9-3.9-13.3c-0.8-1.9-1.3-4.2-3.7-5.1
			c-0.2-0.1-0.5-0.4-0.6-0.6c-0.6-1-1.2-1.8-1.8-2.7c-0.7-1.1-1.6-2.3-2.9-2.3c-1.7,0-3.1-0.6-4.7-1.1c-1.1-0.4-2.2-0.7-3.3,0.1
			c-0.7,0.5-1.6,0.4-2.4,0.1c-1-0.2-1.9-0.6-2.9-0.8c-0.8-0.2-1.7-0.6-2.4,0c-1.3,1-2.6,1-4.1,1c-0.8-0.1-1.7-0.2-2.5,0.2
			c-2.4,1.2-4.8,2.5-7.2,3.7c-3.3,1.8-6.3,3.9-8,7.5c-0.1,0.2-0.2,0.4-0.4,0.5c-2.6,1.2-3.5,3.7-4.5,6.1c-0.6,1.6-1.6,3-3,3.8
			c-0.5,0.2-0.6,0.7-0.7,1.2c-0.6,2.6-1.2,5.4-1.8,8.1c-0.4,1.4-1,3-0.8,4.5c0.2,3.1,1,6.2,0.5,9.3c-0.1,0.5,0.1,1.1,0.1,1.6
			c0.2,2.6,1.3,5.3,0.7,7.9c-0.4,1.6,0.1,3,1.1,4.2c2.6,3.1,4.9,6.6,8.4,9c3.7,2.5,7.4,4.9,11.5,6.7c3.7,1.6,7.6,1.8,11.6,1.8
			c2.7,0.1,3.7-0.1,5.9-1.6c0.4-0.2,0.7-0.2,1.1-0.2c1.8,0.1,3.2-0.7,4.4-2c1.1-1.2,1.9-2.4,3-3.6c1.1-1.2,2.2-2.3,3.9-2.2
			c0.6,0.1,1.2-0.2,1.6-0.7c1.2-1.2,2.5-2.3,3.2-3.6c1.9-3.6,3.8-7.3,4.8-11.3c0.7-2.9,0.2-6,1.4-8.8c0.4-0.7,0.5-1.6,0.5-2.4
			C174.1,348.8,175.4,346.6,173.5,345.1z"/>
		<path class="st2" d="M175.5,281.5c1.3-1.9,2.5-3.8,3.9-5.6c1.7-2,2.2-4.2,1.4-6.7c-0.1-0.6-0.1-1.2-0.2-1.7
			c-0.4-1.3,0.1-3-0.8-4.1c-2.3-2.7-3-6.5-5.5-9.1c-1-1.1-1.7-2.2-3.1-2.5c-2.4-0.6-4.9-0.8-7.4-0.8c-3.2,0-6.6,0.8-9.8,1.3
			c-1.6,0.2-3.2,0.7-4.3,1.8c-1.3,1.4-2.9,2.3-4.5,3c-0.7,0.4-1.2,0.8-1.4,1.7c-0.7,2.2-1.7,4.3-2.3,6.5c-1.8,6-1,11.5,3.5,16.1
			c3.8,4.1,8.8,5.4,14.2,5.4c4.9,0,9.7-1.2,14-3.2C174.2,283,174.9,282.5,175.5,281.5z"/>
	</g>
</g>
</svg>
