<svg xmlns="http://www.w3.org/2000/svg" viewBox="0 0 512 512"><path fill="#d22f2f" d="M480.468 184.438c-32.9-36.3-244.5-3.6-334.5 16l-2.1.5c-.4.1-.7.5-.6.9s.5.7.9.6l2.1-.4c74.6-13.3 229.6-31.7 263 1.4 10.2 10.1 7.7 23.1-4.1 38.4 6.4 4.1 10.9 10.5 12.9 18.6 46.1-30.7 77.1-59.9 62.4-76m-136.9 110.8s-.1.1 0 0c-20.9 14.8-45.6 30.3-72.2 46.6l-1.1.6c-.4.3-.4.7-.2 1.1s.7.4 1.1.2l.9-.5c22.6-11.8 48.5-25.7 74.5-40.1.1-.1.3-.2.4-.2-1.4-2.3-2.6-4.8-3.4-7.7"/><path fill="#004879" d="M346.023 284.916c-.865-21.621 16.432-44.108 41.08-44.108 16.433 0 27.244 11.243 28.11 28.108.864 22.92-15.136 44.109-41.082 44.109-16.433 0-27.244-10.811-28.108-28.109m10.81.865c.433 12.973 8.65 23.352 19.028 23.352 20.324 0 28.973-25.082 28.54-41.947-.432-12.973-8.648-23.351-19.027-23.351-17.73 0-28.973 25.081-28.54 41.946M132.75 265.764c0 2.162-.432 3.892-.865 6.919l-3.46 20.324c-.432 1.73.433 3.46 2.163 4.325v.864H109.83v-5.189c-3.027 1.73-6.919 3.46-9.946 4.325-3.46.864-6.054 1.297-9.946 1.297-6.92 0-10.811-.865-13.406-3.027-2.594-2.595-3.891-3.892-3.891-7.352 0-1.73 1.297-4.324 2.594-6.054s3.46-3.027 5.622-3.892 4.757-1.73 8.216-2.162c3.892-.432 8.649-1.297 15.568-1.73 3.46-.432 5.621-1.297 6.919-1.73s2.162-1.297 2.162-2.161c.432-2.163-.433-3.46-3.027-3.892-7.352-1.298-21.622.864-28.973 2.594l3.892-10.81c9.513-1.298 18.594-2.163 28.108-2.163 14.27 0 19.027 4.325 19.027 9.514m-21.622 13.405c-.865.433-2.162.865-3.46.865q-1.945.649-7.783 1.297c-2.595.433-4.324.865-5.19 1.73s-1.729 1.73-1.729 2.595c0 1.297 0 2.162 1.297 2.594.865.865 2.595.865 5.19.865 1.73 0 3.459-.432 5.189-.865s3.027-1.297 4.324-2.162c.865-.865 1.297-1.73 1.73-2.594-.433 0 0-1.73.432-4.325m90.483-31.464c.433-3.46 6.055-6.054 11.677-6.054 6.054 0 10.378 2.595 9.513 6.054-.432 3.46-5.621 6.054-11.676 6.054-5.621 0-9.946-2.594-9.513-6.054m-8.216 50.595 7.351-41.081h19.892l-7.351 41.081zm119.625-32.458c0 2.162-.433 3.892-.866 6.919l-3.46 20.324c-.432 1.73.433 3.027 2.163 4.324v.865H290.1v-5.189c-3.027 1.73-6.919 3.46-9.946 4.324-3.46.865-6.054 1.298-9.946 1.298-6.919 0-10.378-.865-13.405-3.027-2.595-2.595-3.892-3.892-3.892-7.352 0-1.73.865-4.324 2.594-6.054 1.298-1.73 3.46-3.027 5.622-3.892s4.757-1.73 8.216-2.162c3.892-.432 9.081-1.297 15.568-1.73 3.46-.432 5.622-1.297 6.919-1.297 1.297-.432 2.162-1.297 2.162-2.162.432-2.162-.432-3.46-3.027-3.892-7.351-1.297-21.622.865-28.973 2.595l3.892-10.811c9.513-1.298 18.594-2.163 28.108-2.163 14.27-.432 19.027 3.892 19.027 9.082m-21.622 13.405c-.864.433-2.162.433-3.46.865q-1.945.649-7.783 1.297c-2.595.433-4.324.865-5.19 1.73s-1.729 1.73-1.729 2.595c0 1.297 0 2.162 1.297 2.594.865.865 2.595.865 5.19.865 1.73 0 3.46-.432 5.189-.865s3.027-1.297 4.324-2.162c.865-.865 1.298-1.73 1.73-2.595-.432 0 0-1.73.432-4.324m-222.314 4.117c-6.487 1.297-9.946 1.73-16.433 1.73-9.514 0-17.297-4.757-16.865-13.406.433-5.622 7.351-18.162 24.649-18.162 5.622 0 9.946.865 15.568 4.324l2.594-14.27c-7.784-3.027-12.973-3.46-19.892-3.46-22.919.433-44.973 10.811-47.568 31.568C8.542 293.31 34.488 298.5 46.164 298.5c6.918 0 13.837-.432 20.324-.865zm162.423-26.43 1.297-8.216 20.757-4.757-2.162 12.973h10.378l-1.73 8.216h-9.945l-6.054 32.865h-20.325l6.054-32.865h-7.351l1.73-8.216zm101.803 41.096h-20.324l10.378-57.08 19.892.432zm-202.88 14.146 9.946-54.487h17.73l-1.297 6.92c1.73-2.163 3.891-3.893 7.35-5.19s7.352-2.595 11.244-2.595c4.757 0 7.352.433 10.811 2.162s5.622 4.325 6.92 7.784 1.729 6.92.864 11.244c-1.297 6.919-4.324 12.108-9.946 16-5.19 3.892-10.378 4.756-16.865 4.756-2.595 0-4.324-.432-6.054-.864s-3.027-.865-3.892-1.73c-.865-.433-2.162-1.73-3.46-3.027l-3.459 18.594h-19.892zm36.325-45.406c-2.595 0-5.19.865-6.92 2.595-2.162 1.73-3.459 3.892-3.891 6.919-.433 3.46-.433 6.054 1.297 7.784 1.297 1.73 3.46 2.162 6.054 2.162 1.73 0 3.892-.433 5.19-.865 1.729-.865 3.026-1.73 3.891-3.46 1.298-1.73 1.73-3.459 2.162-5.189.433-3.027 0-5.621-1.297-7.351q-2.595-2.595-6.486-2.595m328.297 30.173 1.73.865c-3.892 8.216-12.108 14.703-21.622 14.703-7.784 0-14.27-5.19-14.703-15.136-.865-16.865 15.568-33.297 28.973-33.297 5.622 0 11.244 2.594 11.244 8.649.432 13.837-19.027 18.162-32 18.594-.433 1.298-.433 3.027-.433 5.19 0 5.621 3.892 10.81 10.81 10.81 6.487-.432 12.974-5.189 16.001-10.378m-1.73-25.081c0-3.46-1.73-5.622-5.189-5.622-8.216 0-16.865 16-18.595 22.487 13.838 0 24.217-7.784 23.784-16.865m-78.457-.548c1.297 0 3.46-.433 4.757-.433s3.027.433 3.027 1.73c0 .865-1.73 6.92-1.73 8.649l-3.027 13.838c-1.297 5.621-2.595 11.676-3.892 16h8.216l4.325-21.622c13.838-14.27 19.027-19.027 22.054-19.027 1.297 0 2.595.865 2.595 2.595 0 2.594-1.298 8.216-2.163 9.946l-4.756 16c-.865 3.46-1.73 6.919-1.73 9.08 0 3.46 2.162 5.19 5.19 5.19 6.053 0 9.945-6.054 13.837-12.108l-.865-2.162c-1.297 2.594-4.757 7.784-7.784 7.784-.865 0-1.73-.433-1.73-2.163s.865-4.756 1.298-6.486l5.19-18.595c1.296-5.189 2.161-8.216 2.161-10.378 0-3.46-2.162-5.19-5.189-5.19-5.19 0-12.108 3.892-27.243 20.757h-.433l1.73-8.216c.865-4.757 2.162-9.513 3.027-12.54-5.19 1.73-12.54 3.891-16.865 4.756z"/></svg>