<svg xmlns="http://www.w3.org/2000/svg" viewBox="0 0 512 512"><style>.st1{fill:#004879}</style><g id="layer1" transform="translate(-22.832 -363.862)"><path id="path4637" d="M503.3 548.3c-32.9-36.3-244.5-3.6-334.5 16l-2.1.5c-.4.1-.7.5-.6.9.1.4.5.7.9.6l2.1-.4c74.6-13.3 229.6-31.7 263 1.4 10.2 10.1 7.7 23.1-4.1 38.4 6.4 4.1 10.9 10.5 12.9 18.6 46.1-30.7 77.1-59.9 62.4-76M366.4 659.1s-.1.1 0 0c-20.9 14.8-45.6 30.3-72.2 46.6l-1.1.6c-.4.3-.4.7-.2 1.1.2.4.7.4 1.1.2l.9-.5c22.6-11.8 48.5-25.7 74.5-40.1.1-.1.3-.2.4-.2-1.4-2.3-2.6-4.8-3.4-7.7" style="fill:#d22f2f"/><g id="g5670" transform="translate(1 -1)"><g transform="matrix(4.32435 0 0 -4.32435 -63.655 3704.564)" id="g4639"><g transform="translate(97.486 745.015)"><path id="path4649" class="st1" d="M2.3-38.6c-.2 5 3.8 10.2 9.5 10.2 3.8 0 6.3-2.6 6.5-6.5.2-5.3-3.5-10.2-9.5-10.2-3.8 0-6.3 2.5-6.5 6.5m2.5-.2c.1-3 2-5.4 4.4-5.4 4.7 0 6.7 5.8 6.6 9.7-.1 3-2 5.4-4.4 5.4-4.1 0-6.7-5.8-6.6-9.7"/></g><g id="g4651" transform="translate(48.167 749.444)"><path id="path4653" class="st1" d="M2.3-38.6c0-.5-.1-.9-.2-1.6l-.8-4.7c-.1-.4.1-.8.5-1v-.2H-3v1.2c-.7-.4-1.6-.8-2.3-1-.8-.2-1.4-.3-2.3-.3-1.6 0-2.5.2-3.1.7-.6.6-.9.9-.9 1.7 0 .4.3 1 .6 1.4.3.4.8.7 1.3.9.5.2 1.1.4 1.9.5.9.1 2 .3 3.6.4.8.1 1.3.3 1.6.4.3.1.5.3.5.5.1.5-.1.8-.7.9-1.7.3-5-.2-6.7-.6l.9 2.5c2.2.3 4.3.5 6.5.5 3.3 0 4.4-1 4.4-2.2m-5-3.1c-.2-.1-.5-.2-.8-.2-.3-.1-.9-.2-1.8-.3-.6-.1-1-.2-1.2-.4-.2-.2-.4-.4-.4-.6 0-.3 0-.5.3-.6.2-.2.6-.2 1.2-.2.4 0 .8.1 1.2.2.4.1.7.3 1 .5.2.2.3.4.4.6-.1 0 0 .4.1 1"/></g><g id="g4655" transform="translate(64.091 753.62)"><path id="path4657" class="st1" d="M2.3-38.6c.1.8 1.4 1.4 2.7 1.4 1.4 0 2.4-.6 2.2-1.4-.1-.8-1.3-1.4-2.7-1.4-1.3 0-2.3.6-2.2 1.4M.4-50.3l1.7 9.5h4.6L5-50.3H.4z"/></g></g><g transform="matrix(4.32435 0 0 -4.32435 -63.655 3704.564)" id="g4659"><g id="g4667" transform="translate(89.854 749.426)"><path id="path4669" class="st1" d="M2.3-38.6c0-.5-.1-.9-.2-1.6l-.8-4.7c-.1-.4.1-.7.5-1v-.2H-3v1.2c-.7-.4-1.6-.8-2.3-1-.8-.2-1.4-.3-2.3-.3-1.6 0-2.4.2-3.1.7-.6.6-.9.9-.9 1.7 0 .4.2 1 .6 1.4.3.4.8.7 1.3.9.5.2 1.1.4 1.9.5.9.1 2.1.3 3.6.4.8.1 1.3.3 1.6.3.3.1.5.3.5.5.1.5-.1.8-.7.9-1.7.3-5-.2-6.7-.6l.9 2.5c2.2.3 4.3.5 6.5.5 3.3.1 4.4-.9 4.4-2.1m-5-3.1c-.2-.1-.5-.1-.8-.2-.3-.1-.9-.2-1.8-.3-.6-.1-1-.2-1.2-.4-.2-.2-.4-.4-.4-.6 0-.3 0-.5.3-.6.2-.2.6-.2 1.2-.2.4 0 .8.1 1.2.2.4.1.7.3 1 .5.2.2.3.4.4.6-.1 0 0 .4.1 1"/></g><g id="g4671" transform="translate(33.444 745.374)"><path id="path4673" class="st1" d="M2.3-38.6C.8-38.9 0-39-1.5-39c-2.2 0-4 1.1-3.9 3.1.1 1.3 1.7 4.2 5.7 4.2 1.3 0 2.3-.2 3.6-1l.6 3.3c-1.8.7-3 .8-4.6.8-5.3-.1-10.4-2.5-11-7.3-.6-5 5.4-6.2 8.1-6.2 1.6 0 3.2.1 4.7.2l.6 3.3z"/></g></g><g id="g4683" transform="matrix(4.32435 0 0 -4.32435 243.392 454.876)"><path id="path4685" class="st1" d="m2.3-38.6.3 1.9 4.8 1.1-.5-3h2.4l-.4-1.9H6.6l-1.4-7.6H.5l1.4 7.6H.2l.4 1.9h1.7z"/></g><g id="g4687" transform="matrix(4.32435 0 0 -4.32435 345.195 495.973)"><path id="path4689" class="st1" d="M2.3-38.6h-4.7L0-25.4l4.6-.1-2.3-13.1z"/></g><g id="g4691" transform="matrix(4.32435 0 0 -4.32435 142.315 510.118)"><path id="path4693" class="st1" d="M2.3-38.6 4.6-26h4.1l-.3-1.6c.4.5.9.9 1.7 1.2.8.3 1.7.6 2.6.6 1.1 0 1.7-.1 2.5-.5s1.3-1 1.6-1.8c.3-.8.4-1.6.2-2.6-.3-1.6-1-2.8-2.3-3.7-1.2-.9-2.4-1.1-3.9-1.1-.6 0-1 .1-1.4.2-.4.1-.7.2-.9.4-.2.1-.5.4-.8.7l-.8-4.3H2.3zm8.4 10.5c-.6 0-1.2-.2-1.6-.6-.5-.4-.8-.9-.9-1.6-.1-.8-.1-1.4.3-1.8.3-.4.8-.5 1.4-.5.4 0 .9.1 1.2.2.4.2.7.4.9.8.3.4.4.8.5 1.2.1.7 0 1.3-.3 1.7-.4.4-.9.6-1.5.6"/></g><g id="g4695" transform="matrix(4.32435 0 0 -4.32435 506.937 494.885)"><path id="path4697" class="st1" d="m2.3-38.6.4-.2c-.9-1.9-2.8-3.4-5-3.4-1.8 0-3.3 1.2-3.4 3.5C-5.9-34.8-2.1-31 1-31c1.3 0 2.6-.6 2.6-2 .1-3.2-4.4-4.2-7.4-4.3-.1-.3-.1-.7-.1-1.2 0-1.3.9-2.5 2.5-2.5 1.5.1 3 1.2 3.7 2.4m-.4 5.8c0 .8-.4 1.3-1.2 1.3-1.9 0-3.9-3.7-4.3-5.2 3.2 0 5.6 1.8 5.5 3.9"/></g><g id="g4699" transform="matrix(4.32435 0 0 -4.32435 426.75 469.256)"><path id="path4701" class="st1" d="M2.3-38.6c.3 0 .8.1 1.1.1.3 0 .7-.1.7-.4 0-.2-.4-1.6-.4-2L3-44.1c-.3-1.3-.6-2.7-.9-3.7H4l1 5c3.2 3.3 4.4 4.4 5.1 4.4.3 0 .6-.2.6-.6 0-.6-.3-1.9-.5-2.3L9.1-45c-.2-.8-.4-1.6-.4-2.1 0-.8.5-1.2 1.2-1.2 1.4 0 2.3 1.4 3.2 2.8l-.2.5c-.3-.6-1.1-1.8-1.8-1.8-.2 0-.4.1-.4.5s.2 1.1.3 1.5l1.2 4.3c.3 1.2.5 1.9.5 2.4 0 .8-.5 1.2-1.2 1.2-1.2 0-2.8-.9-6.3-4.8h-.1l.4 1.9c.2 1.1.5 2.2.7 2.9-1.2-.4-2.9-.9-3.9-1.1v-.6z"/></g></g></g></svg>