<?xml version="1.0" encoding="utf-8"?>
<!-- Generator: Adobe Illustrator 22.1.0, SVG Export Plug-In . SVG Version: 6.00 Build 0)  -->
<svg version="1.1" id="Layer_1" xmlns="http://www.w3.org/2000/svg" xmlns:xlink="http://www.w3.org/1999/xlink" x="0px" y="0px"
	 viewBox="0 0 512 512" style="enable-background:new 0 0 512 512;" xml:space="preserve">
<style type="text/css">
	.st0{fill:#161412;}
	.st1{fill:#FFFFFF;}
	.st2{fill:#00AFAA;}
</style>
<polygon class="st0" points="466.1,266.8 395.6,196.2 369,222.8 303.7,157.6 238.4,222.8 211.9,196.2 146.7,261.5 120.5,235.3 
	50,305.9 120.5,376.4 185.8,311.2 211.9,337.3 277.1,272.1 303.7,298.6 330.3,272 395.6,337.3 466.1,266.8 "/>
<path class="st1" d="M335.6,266.8c8.3,8.3,51.7,51.7,60,60c8.3-8.3,51.7-51.7,60-60c-8.3-8.3-51.7-51.7-60-60
	C387.3,215.1,343.9,258.5,335.6,266.8L335.6,266.8z"/>
<path class="st1" d="M151.9,266.8c8.3,8.3,51.7,51.7,60,60c8.3-8.3,51.7-51.7,60-60c-8.3-8.3-51.7-51.7-60-60
	C203.6,215.1,160.2,258.5,151.9,266.8L151.9,266.8z"/>
<path class="st2" d="M243.7,228.1c8.3,8.3,51.7,51.7,60,60c8.3-8.3,51.7-51.7,60-60c-8.3-8.3-51.7-51.7-60-60
	C295.4,176.4,252,219.8,243.7,228.1L243.7,228.1z"/>
<path class="st2" d="M60.5,305.9c8.3,8.3,51.7,51.7,60,60c8.3-8.3,51.7-51.7,60-60c-8.3-8.3-51.7-51.7-60-60
	C112.2,254.2,68.8,297.6,60.5,305.9L60.5,305.9z"/>
</svg>
