<svg viewBox="0 0 200 200" xmlns="http://www.w3.org/2000/svg"><path d="M132.48 119.35a30.66 30.66 0 0 1-23.52 11 30.73 30.73 0 0 1-21.729-8.994 30.723 30.723 0 0 1 9.97-50.11 30.718 30.718 0 0 1 11.759-2.336 30.625 30.625 0 0 1 22.55 9.87l15.4-14.24a51.514 51.514 0 0 0-38-16.61 51.7 51.7 0 1 0 0 103.4 51.552 51.552 0 0 0 39.68-18.49l-16.11-13.49Z" fill="url(#a)"/><path d="M149.27 65.58a52.844 52.844 0 0 0-37.81-18.57 53 53 0 0 0-55.45 50.43 53 53 0 0 0 50.43 55.44 52.925 52.925 0 0 0 43.62-19.5l16.63 14.33a74.783 74.783 0 0 1-61.29 27.09 74.933 74.933 0 0 1-71.31-78.4 74.94 74.94 0 0 1 78.4-71.31 74.66 74.66 0 0 1 53 25.71l-16.22 14.78Z" fill="url(#b)"/><linearGradient id="a" x1="149" y1="75" x2="113" y2="159" gradientUnits="userSpaceOnUse"><stop stop-color="#1943D9"/><stop offset=".626" stop-color="#0C3"/></linearGradient><linearGradient id="b" x1="187.5" y1="140.5" x2="160" y2="55" gradientUnits="userSpaceOnUse"><stop stop-color="#1C3ED5"/><stop offset="1" stop-color="#00D01A" stop-opacity=".708"/><stop offset="1" stop-color="#00D01A" stop-opacity="0"/></linearGradient></svg>