<svg xmlns="http://www.w3.org/2000/svg" viewBox="0 0 512 512"><path fill="#0e2e5a" d="M0 .1h513v512H0z"/><path fill="#fff" d="M359.552 236.977c-.896-16.572-5.375-32.695-13.884-47.475L270.874 60.068c-5.823-9.853-9.406-20.602-11.645-31.351l-3.135 5.374c-18.363 32.247-18.363 71.66 0 103.458l59.567 103.458c18.362 32.247 18.362 71.66 0 103.458l-3.136 5.375c-2.239-10.75-6.27-21.498-11.644-31.351l-89.574-155.411c-5.822-9.853-9.853-20.602-11.645-31.35l-3.135 5.374c-18.363 31.798-18.363 71.21 0 103.01l60.015 103.905c18.362 32.247 18.362 71.66 0 103.458l-3.135 5.375c-2.24-10.749-6.27-21.498-11.645-31.351l-74.794-129.434c-9.853-17.467-14.78-36.726-13.884-56.432-79.721 21.05-135.257 65.389-135.257 116.446 0 71.211 106.593 129.435 238.715 129.435 131.674 0 238.714-57.776 238.714-129.435-.895-49.713-55.983-94.053-135.704-115.102"/></svg>