<?xml version="1.0" encoding="utf-8"?>
<!-- Generator: Adobe Illustrator 22.1.0, SVG Export Plug-In . SVG Version: 6.00 Build 0)  -->
<svg version="1.1" id="Layer_1" xmlns="http://www.w3.org/2000/svg" xmlns:xlink="http://www.w3.org/1999/xlink" x="0px" y="0px"
	 viewBox="0 0 512 512" style="enable-background:new 0 0 512 512;" xml:space="preserve">
<style type="text/css">
	.st0{fill:#0056A5;}
	.st1{fill:#FFFFFF;}
</style>
<rect x="1" y="1" class="st0" width="513" height="510"/>
<path class="st1" d="M266.9,218.5c0-1.2,0-2.1,0-3c0-21,0-42,0-63.1c0-2.1,0.6-3.2,2.5-4.1c5.4-2.5,10.8-5.3,16.2-7.8
	c16.8-7.7,33,2.1,34.2,20.5c1.1,16.9-5.2,30.4-19.5,39.4c-10.2,6.4-21.1,11.7-31.8,17.4C268.1,218.2,267.7,218.2,266.9,218.5z"/>
<path class="st1" d="M200.4,164.5c9.9,8.3,21.5,11.9,31.8,17.7c11.8,6.6,16.8,16.3,14.9,29.7c-2.3,16.9-13.7,28.2-30.6,30.2
	c-8.8,1.1-16-5-16.1-13.9c-0.2-11.1-0.1-22.1-0.1-33.2c0-8.9,0-17.8,0-26.7C200.4,167.3,200.4,166.2,200.4,164.5z"/>
<path class="st1" d="M247.2,165.2c-2.3-1.1-4.2-1.8-6-2.8c-8.7-4.7-17.8-8.9-26-14.5c-15.2-10.4-16.7-29-4-42.4
	c4.9-5.2,10.3-9.6,16.8-12.5c3.9-1.8,8-2.7,12.3-1.8c3.6,0.7,6,3.1,6.6,6.7c0.2,1.4,0.4,2.8,0.4,4.2c0,20.1,0,40.2,0,60.3
	C247.4,163.1,247.3,163.9,247.2,165.2z"/>
<path class="st1" d="M267.1,129.4c-0.1-1.5-0.2-2.2-0.2-2.8c0-14.1,0-28.2,0-42.2c0-7.6,3.3-11.8,10.5-14.1
	c13.2-4.2,26.7,2.4,30.4,14.9c3.4,11.4-0.5,23-11.3,29.5C287.3,120.1,277.3,124.3,267.1,129.4z"/>
<path class="st1" d="M243.4,421.6c0-10,0-20,0-30.5c2.6,0,5-0.2,7.4,0.1c0.5,0.1,1.3,1.6,1.3,2.5c0.1,6.8,0.1,13.5,0.1,20.3
	c0,7.4,0,14.8,0,22.6c-2.8,0-5.4,0.2-8-0.1c-0.8-0.1-1.6-1.2-2.1-1.9c-6.3-9.2-12.6-18.5-18.8-27.7c-0.2-0.3-0.4-0.6-1-1.5
	c-0.1,1.5-0.2,2.3-0.2,3.2c0,8.4-0.1,16.7,0,25.1c0,2.3-0.7,3.2-3,3c-1.8-0.2-3.7,0-5.9,0c-0.1-1.2-0.2-2.1-0.2-3
	c0-13.1,0.1-26.3-0.1-39.4c0-2.5,0.7-3,3.1-3.2c4.5-0.5,7.1,1.3,9.5,5.1c5.5,8.7,11.5,17.1,17.3,25.7
	C243,421.6,243.2,421.6,243.4,421.6z"/>
<path class="st1" d="M114.9,436.6c0-15.2,0-30.1,0-45.2c0.6-0.1,1.1-0.3,1.6-0.3c5.5,0,11.1-0.1,16.6,0.1c8,0.4,13.7,7.1,11.7,14.2
	c-0.7,2.6-2.8,4.8-4.4,7.4c4,1.7,6.8,5,6.9,10.3c0.1,7.8-4.3,12.7-12.4,13.4c-1.8,0.2-3.6,0.2-5.3,0.2
	C124.7,436.6,120,436.6,114.9,436.6z M123.5,428.7c3.2,0,6.3,0.2,9.3,0c3.6-0.3,5.4-2.3,5.6-5.5c0.1-3.1-1.6-5.6-5-6
	c-3.2-0.4-6.5-0.1-9.8-0.1C123.5,420.9,123.5,424.7,123.5,428.7z M123.5,409.4c3.5-0.4,6.9-0.5,10.1-1.2c2.4-0.6,3-2.8,2.7-5.2
	c-0.2-2.2-1.5-3.5-3.5-3.8c-3-0.4-6.1-0.4-9.3-0.6C123.5,402.2,123.5,405.4,123.5,409.4z"/>
<path class="st1" d="M364.7,309.9c2.9,0,5.6,0,8.6,0c0,2.7,0,5.3,0,7.8c0.1,7.5,0,15,0.4,22.5c0.3,5.1,3.3,7.5,8.6,7.7
	c5.7,0.2,9-2,9.8-7.1c0.5-2.9,0.4-6,0.5-9c0.1-6.5,0.1-13,0-19.4c0-2.1,0.7-2.8,2.8-2.8c6.1-0.1,6.1-0.2,6.1,5.8
	c0,7.6,0,15.2,0,22.8c0.1,6.9-2.6,12.3-8.7,16c-1.3,0.8-2.7,1.8-3.6,3.1c-0.7,1-0.6,2.6-0.8,3.9c1.1,0,2.3,0,3.4,0
	c0.3,0,0.7-0.2,1-0.3c3,5.6,3,5.7-3.1,7.6c-1.5,0.4-3.2,0.4-4.7,0.1c-3.7-0.5-5.7-3.9-4.4-7.6c0.5-1.4,1.3-2.7,2-4.1
	c-2.4-0.6-4.9-0.8-7.2-1.7c-6.7-2.6-10.5-7.7-10.8-14.7c-0.4-9.7-0.1-19.3-0.1-29C364.5,311,364.6,310.6,364.7,309.9z"/>
<path class="st1" d="M239.4,326.2c0-4.7,0.1-9.4,0-14.1c0-1.8,0.5-2.6,2.4-2.5c8,0.1,6.5-1,6.6,6.4c0.1,6.7,0,13.3,0,20
	c0,2,0.2,4,0.6,5.9c1,3.9,3.6,5.7,8.2,6c4.7,0.3,8-1.3,9.3-4.9c0.7-1.8,0.9-3.8,1-5.8c0.1-8.3,0.1-16.5,0-24.8c0-2,0.6-2.9,2.7-2.8
	c7.8,0.1,6.4-0.7,6.5,6.4c0.1,7.2,0,14.5,0,21.7c0,18.4-17.4,21.9-27.7,17c-6.3-3-9.2-8.3-9.5-15.2
	C239.3,335.1,239.4,330.7,239.4,326.2C239.4,326.2,239.4,326.2,239.4,326.2z"/>
<path class="st1" d="M278.3,436.4c-3.1,0-5.8,0-8.9,0c-0.1-0.9-0.2-1.8-0.2-2.7c0-13.2,0-26.5-0.1-39.7c0-2.3,0.6-3.2,3-3
	c1.8,0.2,3.7,0,6,0c0,5.9,0,11.4,0,17c0.2,0.1,0.5,0.2,0.7,0.3c2-2.2,3.9-4.4,5.9-6.6c1.6-1.8,3.6-3.4,4.8-5.5
	c3.4-5.6,8.4-6,14.7-4.9c-5.5,6.2-10.8,12.1-16.3,18.3c6,8.7,12,17.5,18.4,26.8c-3.8,0-7,0.1-10.1-0.1c-0.7,0-1.5-1-2-1.8
	c-3.5-5.2-7-10.4-10.5-15.7c-0.5-0.8-1.1-1.5-1.7-2.3c-2.6,2-4.3,4.1-4,7.6C278.5,428.2,278.3,432.3,278.3,436.4z"/>
<path class="st1" d="M228.3,355.3c-3.1,0-5.7,0.1-8.3-0.1c-0.7-0.1-1.7-1-2-1.7c-1-2.5-1.9-5.1-2.7-7.7c-0.4-1.4-1.1-1.9-2.6-1.9
	c-4.1,0.1-8.3,0.1-12.4,0c-1.7-0.1-2.3,0.7-2.8,2.1c-0.8,2.5-1.6,5-2.5,7.4c-0.3,0.7-1.1,1.7-1.7,1.8c-2.6,0.2-5.2,0.1-8.2,0.1
	c1.1-3.2,2.1-6,3.1-8.8c4.3-11.4,8.7-22.8,12.9-34.2c0.8-2.2,2-2.8,4.1-2.7c5.9,0,5.9,0,8.1,5.5c4.7,12.4,9.4,24.9,14.1,37.3
	C227.7,353.2,227.9,354,228.3,355.3z M200.9,336.2c4,0,7.3,0,11,0c-1.8-5.5-3.6-10.6-5.5-16.2C204.6,325.5,202.8,330.6,200.9,336.2z
	"/>
<path class="st1" d="M200.4,436.6c-3.3,0-6.2,0.1-9-0.1c-0.5,0-1.2-1-1.5-1.7c-1-2.6-1.8-5.3-2.9-7.9c-0.3-0.7-1.4-1.5-2.1-1.5
	c-4.8-0.1-9.6-0.1-14.5-0.1c-1.1,3.2-2.2,6.4-3.5,9.5c-0.4,0.8-1.6,1.7-2.5,1.8c-2.3,0.3-4.6,0.1-7.5,0.1c1.9-4.9,3.6-9.4,5.3-14
	c3.7-9.8,7.5-19.6,11.1-29.5c0.6-1.6,1.4-2.1,3.1-2.2c7-0.1,6.9-0.2,9.4,6.4c4.4,11.8,8.9,23.5,13.3,35.3
	C199.4,433.8,199.8,434.9,200.4,436.6z M183.9,417.5c-1.8-5.4-3.5-10.4-5.2-15.5c-0.2,0-0.4,0.1-0.6,0.1c-1.7,5.1-3.4,10.1-5.1,15.4
	C176.8,417.5,180.1,417.5,183.9,417.5z"/>
<path class="st1" d="M314.8,436.6c2.2-5.8,4.2-11.1,6.2-16.5c3.4-8.9,6.8-17.9,10.1-26.8c0.6-1.7,1.5-2.3,3.3-2.3
	c6.8,0,6.7-0.1,9.1,6.3c4.4,11.7,8.9,23.5,13.3,35.2c0.5,1.2,0.9,2.4,1.4,4.1c-3.3,0-6.1,0.1-8.8-0.1c-0.6,0-1.4-1.1-1.7-1.8
	c-1-2.6-1.8-5.3-2.9-7.9c-0.3-0.7-1.2-1.5-1.9-1.5c-4.9-0.1-9.7-0.1-14.8-0.1c-1.1,3.3-2.2,6.5-3.4,9.6c-0.3,0.7-1,1.7-1.5,1.7
	C320.6,436.7,317.9,436.6,314.8,436.6z M341.7,417.5c-1.8-5.3-3.5-10.4-5.5-16.3c-2,5.9-3.7,11-5.5,16.3
	C334.5,417.5,337.9,417.5,341.7,417.5z"/>
<path class="st1" d="M145.4,315.1c-1.6,1.6-3,3.2-4.7,4.5c-0.5,0.4-1.9,0.1-2.5-0.3c-2.8-2.1-5.8-3-9.2-2.6
	c-2.6,0.3-4.5,1.6-4.8,4.3c-0.3,2.5,1.2,4.1,3.4,4.9c2.3,0.8,4.7,1.4,7,2c6.9,1.8,11.6,6.5,12,12.2c0.6,7.3-2.4,12.7-8.8,15
	c-3.1,1.1-6.6,1.5-9.9,1.3c-6.2-0.4-11.2-3.4-15.3-8.5c2-1.9,4-3.7,6-5.6c1.4,1.2,2.6,2.4,4,3.4c3.6,2.5,7.4,3.6,11.7,1.9
	c2.3-0.9,3.3-2.7,3.4-5.1c0.1-2.3-0.9-4.1-3.1-4.9c-2.8-1-5.7-1.8-8.6-2.6c-8.6-2.1-13.3-10.2-10-18.1c0.8-1.9,2.2-3.8,3.8-5.1
	C126,306.7,140.3,307.3,145.4,315.1z"/>
<path class="st1" d="M368.3,429c2-1.9,3.9-3.6,6.7-6.2c0.6,1.1,0.9,2.2,1.6,2.8c3.1,2.9,6.7,4.3,11,3.8c2.9-0.4,5.1-2.3,5.5-4.9
	c0.4-2.9-0.7-5-3.8-6.1c-2.6-1-5.4-1.6-8.1-2.3c-7.4-2-11.5-7.7-10.6-15c0.7-6.2,6.3-11.1,13.5-11.1c3.4,0,7,0.3,10.2,1.3
	c2.4,0.8,4.5,2.8,7.2,4.6c-2.4,2.3-4.3,4-5.4,5.1c-3.9-1.2-7.1-2.6-10.4-3.1c-3.3-0.5-5.8,1.6-6.2,4.1c-0.4,2.4,1.1,4.4,4.6,5.6
	c2.7,0.9,5.6,1.4,8.4,2.5c6.5,2.4,9.9,7.2,9.8,13.6c-0.1,6-3.8,10.9-10.1,13.2C384.1,439.9,373.4,436.5,368.3,429z"/>
<path class="st1" d="M324.5,355.2c-10.6,0-20.7,0-31,0c-0.1-1-0.3-1.9-0.3-2.8c0-13.2,0-26.3,0-39.5c0-2.5,0.8-3.4,3.4-3.4
	c7,0.2,5.6-0.5,5.7,5.7c0.1,9.5,0,19,0,28.5c0,1,0,2,0,3.5c2.2,0,4.1,0,6,0c4.5,0,9,0.1,13.5,0c2.1-0.1,2.9,0.8,2.7,2.8
	C324.4,351.7,324.5,353.4,324.5,355.2z"/>
<path class="st1" d="M347.7,355c-0.7,0.2-1,0.3-1.3,0.3c-7.9,0.5-7.9,0.5-7.9-7.3c0-11.7,0.1-23.5,0-35.2c0-2.5,0.7-3.3,3.2-3.2
	c7.2,0.2,6-0.7,6,5.9c0.1,11.7,0,23.5,0,35.2C347.7,352.1,347.7,353.5,347.7,355z"/>
<path class="st1" d="M163.6,355.3c-0.1-1.2-0.2-2.1-0.2-3c0-13.2,0-26.4,0-39.6c0-2.3,0.6-3.1,3-3.1c7.2,0.2,6.1-0.8,6.1,6.1
	c0.1,12.2-0.1,24.4,0.1,36.5c0,2.5-0.7,3.4-3.2,3.1C167.5,355.2,165.6,355.3,163.6,355.3z"/>
<path class="st1" d="M119.9,296.1c5.2-1.5,8.8,0,11,5.8c2.4-5.6,5.9-7.4,11.3-5.6c-2.4,3.4-4.6,6.8-7.1,10c-1.3,1.7-7.9,0.7-9.2-1.1
	c-1.9-2.7-3.8-5.4-5.7-8.1C120.1,296.8,120.1,296.5,119.9,296.1z"/>
</svg>
