<?xml version="1.0" encoding="utf-8"?>
<!-- Generator: Adobe Illustrator 22.1.0, SVG Export Plug-In . SVG Version: 6.00 Build 0)  -->
<svg version="1.1" id="Layer_1" xmlns="http://www.w3.org/2000/svg" xmlns:xlink="http://www.w3.org/1999/xlink" x="0px" y="0px"
	 viewBox="0 0 512 512" style="enable-background:new 0 0 512 512;" xml:space="preserve">
<style type="text/css">
	.st0{fill:#00529D;}
</style>
<path class="st0" d="M408.6,152.2c-6.5,7.9-12.7,15.3-19.5,23.4c41.4,13.3,67.8,40.1,75.9,82.6c5.4,28.2-0.6,54.6-17.3,78.2
	c-33.5,47.2-94.9,53.3-130.7,31.2c9.8-10.3,19.7-20.8,29.8-31.2c1.1-1.1,3.6-1.4,5.3-1c34.5,7.4,68.1-18.6,71.6-53.8
	c2.7-27.1-15.2-53.9-42.3-62.6c-26-8.3-56,3.7-69.1,27.4c-8.3,14.9-9.9,30.4-5.8,46.9c0.6,2.5,0.3,5.8-0.9,8
	c-5.9,11.5-15.5,19-27.2,24.2c-4.3,1.9-5.4-0.8-6.8-3.7c-12.6-26.7-13.6-54.1-4.3-82c4.1-12.3,11.7-22.2,20.6-31.3
	c28.4-29.4,56.7-59,85.1-88.5c0.6-0.6,1.3-1.1,2.6-2.2C386.4,129.1,397.2,140.3,408.6,152.2z"/>
<path class="st0" d="M206.1,304.1c8.3,13.1,18.7,22.4,32.6,27.3c-20.4,35.9-77.8,61.2-130.3,34.4c-57.3-29.1-70.9-98.1-41.4-146.2
	c32.7-53.4,97.7-59.1,132.3-38.2c-10,10.3-20.2,20.9-30.7,31.3c-1.2,1.2-3.9,1.7-5.8,1.5c-30.4-3.5-56.7,13.7-65.7,43
	c-8.3,27,5.1,57,31.4,70.4c24.9,12.6,56.3,5.1,73.3-17.5C203.1,308.4,204.3,306.6,206.1,304.1z"/>
<path class="st0" d="M304.6,182.8c-9.7,10.6-18.9,21-28.7,30.9c-1.6,1.7-5.6,1.7-8.4,1.4c-30.5-3.5-56.7,12.4-66.1,40.6
	c-4.2,12.5-3.9,25.1-0.1,37.9c0.9,3,0.3,7.5-1.4,10.2c-6.9,11.4-17.2,18.7-29.9,22.5c-18.9-26.5-23.1-79.5,8.9-117.9
	C209.6,171.9,263.8,160.4,304.6,182.8z"/>
<path class="st0" d="M213.3,367c10-10.5,19.9-21.1,30-31.4c1.1-1.2,3.4-2,5-1.8c26.8,3.4,46.8-7.4,62.2-29.5
	c7.8,12.6,17.5,22.8,31.6,27.8C320.4,371.4,259.5,391.9,213.3,367z"/>
</svg>
