<svg xmlns="http://www.w3.org/2000/svg" viewBox="0 0 512 512"><path fill="#053d19" d="M114.2 75.5h6.4c92.3 0 184.6 0 277-.1 5.3 0 7.1 1.2 7.1 6.8.2 22.5.9 45.1 1.4 67.6 1 44 .2 88.2 3.6 132 3.5 45.1-16.2 77-49.8 103-28.3 21.9-59.7 37.8-94 47.7-3.7 1.1-8.1 1.6-11.7.6-46.6-13.9-88.8-35.5-121.7-72.5-15.5-17.4-24.7-37.7-24.3-61.5.8-43.3 2-86.7 3.1-130l2.1-83.2c.1-3.2.5-6.5.8-10.4m131.3 26.4c.5 1.7.8 2.7 1.1 3.7 4.5 13.4 3.5 15.3-9.6 20.3-11.5 4.3-19.2 12.3-21.9 24.4-1.1 5.1-1.9 10.2-2.8 15.3-1.3 7-3.7 8.9-10.7 8-6.2-.8-12.3-2.1-18.5-2.5-17.5-1.3-23.8 6.5-17 22.6 4.8 11.4 11.9 21.8 18.1 32.6 2.3 4.1 5.3 7.8 7.5 11.9 3.3 6.1 1.6 8.7-5.3 8.7-2.9 0-5.9-.2-8.8.2-5.9.6-12.3 1.3-15.1 7.4-2.9 6.3.8 11.8 4.9 15.9 6.8 6.9 14.3 13 21.7 19.3 8.1 6.8 16.8 13 24.3 20.3 7.6 7.4 6.5 10-3.4 12.6-.2 0-.3.1-.5.2-6.8 1.9-8.6 6.1-4 11.4 3.4 4 7.9 7.2 12.2 10.4 6.2 4.7 13 8.6 19 13.6 5.9 4.9 6.3 10 2.7 16.7-1.4 2.6-3.1 5.1-4.2 7.8-2.9 6.7-1.3 10.7 5.4 13.9 2.3 1.1 4.7 1.9 7.2 3 .7-2.5 1.2-4.3 1.7-6.2 8-32.1 12.6-64.6 14.2-97.6 2.1-42.1-2.4-83.8-8.3-125.4-1.5-10.7-1.8-21.8-.6-32.5 1.2-10.2 8.9-13 17.6-7.4 5 3.2 9.7 7.4 13.6 12 4.9 5.8 9.5 8.2 17.4 5.4 11.7-4.1 19 2.6 18 14.9-.4 4.1-1.1 8.3-1.3 12.4-.4 8.9 2 10.5 10.9 8.9 5.7-1 11.6-1.6 17.4-1.4 4.6.2 7.5 3.6 7.1 8.6-.2 3.1-.4 6.5-1.8 9.1-3.8 7.2-7.9 14.2-12.5 20.9-6.5 9.2-13.9 17.8-20.3 27-5 7.2-3.2 10.5 5.5 11.5 4.8.6 9.7.6 14.4 1.7 7.9 1.8 10.3 7.2 6.9 14.6-1 2.2-2.2 4.5-3.8 6.1-4.7 4.8-9.6 9.5-14.7 13.9-8 6.9-16.6 13.2-24.1 20.5-6.2 6-5.4 8 2.1 12.2 6 3.3 6.8 7.7 1.7 12.5-3.3 3-7.2 5.4-10.9 8-5.4 3.8-11.1 7.1-16.1 11.4-8.7 7.4-11.6 17.5-11.3 28.5.2 6.6 3.8 8.8 9.8 6.2 28.8-12.3 55.7-27.3 77.9-49.9 14-14.3 22.7-30.6 21.3-51.6-1.3-20.9-1.4-41.9-1.9-62.9-.9-36.9-1.6-73.9-2.4-110.8-.1-6-.5-12-.8-18.1-43.2-.2-85.8-.2-129-.2"/><path fill="none" stroke="#eaeb8d" stroke-miterlimit="10" stroke-width="3" d="M114.2 75.8h6.4c92.3 0 184.6 0 277-.1 3 0 6.7.1 6.7.1s.2 3.8.4 6.7c.2 22.5.9 45.1 1.4 67.6 1 44 .2 88.2 3.6 132 3.5 45.1-16.2 77-49.8 103-28.3 21.9-59.7 37.8-94 47.7-3.7 1.1-8.1 1.6-11.7.6-46.6-13.9-88.8-35.5-121.7-72.5-15.5-17.4-24.7-37.7-24.3-61.5.8-43.3 2-86.7 3.1-130l2.1-83.2c.1-3.2.5-6.4.8-10.4z"/><path fill="#eaeb8d" d="M245.5 101.9h129.2c.3 6.1.7 12.1.8 18.1l2.4 110.8c.5 21 .6 42 1.9 62.9 1.3 21-7.3 37.3-21.3 51.6-22.1 22.6-49.1 37.7-77.9 49.9-6 2.5-9.6.3-9.8-6.2-.3-11 2.7-21.1 11.3-28.5 5-4.2 10.7-7.6 16.1-11.4 3.7-2.6 7.6-4.9 10.9-8 5.1-4.7 4.2-9.1-1.7-12.5-7.5-4.2-8.3-6.2-2.1-12.2 7.6-7.3 16.2-13.6 24.1-20.5 5.1-4.4 9.9-9.1 14.7-13.9 1.7-1.7 2.8-4 3.8-6.1 3.3-7.4 1-12.7-6.9-14.6-4.7-1.1-9.6-1.1-14.4-1.7-8.7-1-10.5-4.3-5.5-11.5 6.4-9.2 13.8-17.8 20.3-27 4.6-6.6 8.7-13.7 12.5-20.9 1.4-2.6 1.5-6 1.8-9.1.4-5-2.5-8.4-7.1-8.6-5.8-.3-11.7.4-17.4 1.4-8.9 1.6-11.3 0-10.9-8.9.2-4.1.9-8.3 1.3-12.4 1.1-12.3-6.3-19-18-14.9-8 2.8-12.5.4-17.4-5.4-3.9-4.6-8.5-8.7-13.6-12-8.7-5.6-16.4-2.8-17.6 7.4-1.2 10.7-1 21.8.6 32.5 5.9 41.6 10.4 83.3 8.3 125.4-1.6 33-6.3 65.5-14.2 97.6-.5 1.8-1 3.7-1.7 6.2-2.6-1-5-1.9-7.2-3-6.7-3.2-8.3-7.2-5.4-13.9 1.2-2.7 2.8-5.2 4.2-7.8 3.6-6.8 3.2-11.9-2.7-16.7-6-4.9-12.8-8.9-19-13.6-4.3-3.2-8.7-6.4-12.2-10.4-4.6-5.3-2.9-9.5 4-11.4.2 0 .3-.1.5-.2 9.9-2.6 11-5.2 3.4-12.6-7.5-7.3-16.3-13.5-24.3-20.3-7.4-6.3-14.9-12.4-21.7-19.3-4.1-4.1-7.8-9.6-4.9-15.9 2.8-6.1 9.2-6.8 15.1-7.4 2.9-.3 5.9-.2 8.8-.2 6.8 0 8.5-2.6 5.3-8.7-2.2-4.1-5.1-7.8-7.5-11.9-6.2-10.8-13.3-21.2-18.1-32.6-6.8-16.1-.5-23.8 17-22.6 6.2.4 12.3 1.7 18.5 2.5 7 .9 9.4-1 10.7-8 .9-5.1 1.6-10.3 2.8-15.3 2.7-12.2 10.5-20.1 21.9-24.4 13.1-5 14.1-6.8 9.6-20.3-.6-.8-.8-1.8-1.3-3.5"/></svg>