<?xml version="1.0" encoding="utf-8"?>
<!-- Generator: Adobe Illustrator 22.1.0, SVG Export Plug-In . SVG Version: 6.00 Build 0)  -->
<svg version="1.1" id="Layer_1" xmlns="http://www.w3.org/2000/svg" xmlns:xlink="http://www.w3.org/1999/xlink" x="0px" y="0px"
	 viewBox="0 0 512 512" style="enable-background:new 0 0 512 512;" xml:space="preserve">
<style type="text/css">
	.st0{fill:#053D19;}
	.st1{fill:none;stroke:#EAEB8D;stroke-width:3;stroke-miterlimit:10;}
	.st2{fill:#EAEB8D;}
</style>
<g>
	<path class="st0" d="M114.2,75.5c2.4,0,4.4,0,6.4,0c92.3,0,184.6,0,277-0.1c5.3,0,7.1,1.2,7.1,6.8c0.2,22.5,0.9,45.1,1.4,67.6
		c1,44,0.2,88.2,3.6,132c3.5,45.1-16.2,77-49.8,103c-28.3,21.9-59.7,37.8-94,47.7c-3.7,1.1-8.1,1.6-11.7,0.6
		c-46.6-13.9-88.8-35.5-121.7-72.5c-15.5-17.4-24.7-37.7-24.3-61.5c0.8-43.3,2-86.7,3.1-130c0.7-27.7,1.4-55.5,2.1-83.2
		C113.5,82.7,113.9,79.4,114.2,75.5z M245.5,101.9c0.5,1.7,0.8,2.7,1.1,3.7c4.5,13.4,3.5,15.3-9.6,20.3
		c-11.5,4.3-19.2,12.3-21.9,24.4c-1.1,5.1-1.9,10.2-2.8,15.3c-1.3,7-3.7,8.9-10.7,8c-6.2-0.8-12.3-2.1-18.5-2.5
		c-17.5-1.3-23.8,6.5-17,22.6c4.8,11.4,11.9,21.8,18.1,32.6c2.3,4.1,5.3,7.8,7.5,11.9c3.3,6.1,1.6,8.7-5.3,8.7
		c-2.9,0-5.9-0.2-8.8,0.2c-5.9,0.6-12.3,1.3-15.1,7.4c-2.9,6.3,0.8,11.8,4.9,15.9c6.8,6.9,14.3,13,21.7,19.3
		c8.1,6.8,16.8,13,24.3,20.3c7.6,7.4,6.5,10-3.4,12.6c-0.2,0-0.3,0.1-0.5,0.2c-6.8,1.9-8.6,6.1-4,11.4c3.4,4,7.9,7.2,12.2,10.4
		c6.2,4.7,13,8.6,19,13.6c5.9,4.9,6.3,10,2.7,16.7c-1.4,2.6-3.1,5.1-4.2,7.8c-2.9,6.7-1.3,10.7,5.4,13.9c2.3,1.1,4.7,1.9,7.2,3
		c0.7-2.5,1.2-4.3,1.7-6.2c8-32.1,12.6-64.6,14.2-97.6c2.1-42.1-2.4-83.8-8.3-125.4c-1.5-10.7-1.8-21.8-0.6-32.5
		c1.2-10.2,8.9-13,17.6-7.4c5,3.2,9.7,7.4,13.6,12c4.9,5.8,9.5,8.2,17.4,5.4c11.7-4.1,19,2.6,18,14.9c-0.4,4.1-1.1,8.3-1.3,12.4
		c-0.4,8.9,2,10.5,10.9,8.9c5.7-1,11.6-1.6,17.4-1.4c4.6,0.2,7.5,3.6,7.1,8.6c-0.2,3.1-0.4,6.5-1.8,9.1c-3.8,7.2-7.9,14.2-12.5,20.9
		c-6.5,9.2-13.9,17.8-20.3,27c-5,7.2-3.2,10.5,5.5,11.5c4.8,0.6,9.7,0.6,14.4,1.7c7.9,1.8,10.3,7.2,6.9,14.6c-1,2.2-2.2,4.5-3.8,6.1
		c-4.7,4.8-9.6,9.5-14.7,13.9c-8,6.9-16.6,13.2-24.1,20.5c-6.2,6-5.4,8,2.1,12.2c6,3.3,6.8,7.7,1.7,12.5c-3.3,3-7.2,5.4-10.9,8
		c-5.4,3.8-11.1,7.1-16.1,11.4c-8.7,7.4-11.6,17.5-11.3,28.5c0.2,6.6,3.8,8.8,9.8,6.2c28.8-12.3,55.7-27.3,77.9-49.9
		c14-14.3,22.7-30.6,21.3-51.6c-1.3-20.9-1.4-41.9-1.9-62.9c-0.9-36.9-1.6-73.9-2.4-110.8c-0.1-6-0.5-12-0.8-18.1
		C331.3,101.9,288.7,101.9,245.5,101.9z"/>
	<path class="st1" d="M114.2,75.8c2.4,0,4.4,0,6.4,0c92.3,0,184.6,0,277-0.1c3,0,6.7,0.1,6.7,0.1s0.2,3.8,0.4,6.7
		c0.2,22.5,0.9,45.1,1.4,67.6c1,44,0.2,88.2,3.6,132c3.5,45.1-16.2,77-49.8,103c-28.3,21.9-59.7,37.8-94,47.7
		c-3.7,1.1-8.1,1.6-11.7,0.6c-46.6-13.9-88.8-35.5-121.7-72.5c-15.5-17.4-24.7-37.7-24.3-61.5c0.8-43.3,2-86.7,3.1-130
		c0.7-27.7,1.4-55.5,2.1-83.2C113.5,83,113.9,79.8,114.2,75.8z"/>
	<path class="st2" d="M245.5,101.9c43.2,0,85.8,0,129.2,0c0.3,6.1,0.7,12.1,0.8,18.1c0.8,36.9,1.6,73.9,2.4,110.8
		c0.5,21,0.6,42,1.9,62.9c1.3,21-7.3,37.3-21.3,51.6c-22.1,22.6-49.1,37.7-77.9,49.9c-6,2.5-9.6,0.3-9.8-6.2
		c-0.3-11,2.7-21.1,11.3-28.5c5-4.2,10.7-7.6,16.1-11.4c3.7-2.6,7.6-4.9,10.9-8c5.1-4.7,4.2-9.1-1.7-12.5c-7.5-4.2-8.3-6.2-2.1-12.2
		c7.6-7.3,16.2-13.6,24.1-20.5c5.1-4.4,9.9-9.1,14.7-13.9c1.7-1.7,2.8-4,3.8-6.1c3.3-7.4,1-12.7-6.9-14.6c-4.7-1.1-9.6-1.1-14.4-1.7
		c-8.7-1-10.5-4.3-5.5-11.5c6.4-9.2,13.8-17.8,20.3-27c4.6-6.6,8.7-13.7,12.5-20.9c1.4-2.6,1.5-6,1.8-9.1c0.4-5-2.5-8.4-7.1-8.6
		c-5.8-0.3-11.7,0.4-17.4,1.4c-8.9,1.6-11.3,0-10.9-8.9c0.2-4.1,0.9-8.3,1.3-12.4c1.1-12.3-6.3-19-18-14.9c-8,2.8-12.5,0.4-17.4-5.4
		c-3.9-4.6-8.5-8.7-13.6-12c-8.7-5.6-16.4-2.8-17.6,7.4c-1.2,10.7-1,21.8,0.6,32.5c5.9,41.6,10.4,83.3,8.3,125.4
		c-1.6,33-6.3,65.5-14.2,97.6c-0.5,1.8-1,3.7-1.7,6.2c-2.6-1-5-1.9-7.2-3c-6.7-3.2-8.3-7.2-5.4-13.9c1.2-2.7,2.8-5.2,4.2-7.8
		c3.6-6.8,3.2-11.9-2.7-16.7c-6-4.9-12.8-8.9-19-13.6c-4.3-3.2-8.7-6.4-12.2-10.4c-4.6-5.3-2.9-9.5,4-11.4c0.2,0,0.3-0.1,0.5-0.2
		c9.9-2.6,11-5.2,3.4-12.6c-7.5-7.3-16.3-13.5-24.3-20.3c-7.4-6.3-14.9-12.4-21.7-19.3c-4.1-4.1-7.8-9.6-4.9-15.9
		c2.8-6.1,9.2-6.8,15.1-7.4c2.9-0.3,5.9-0.2,8.8-0.2c6.8,0,8.5-2.6,5.3-8.7c-2.2-4.1-5.1-7.8-7.5-11.9
		c-6.2-10.8-13.3-21.2-18.1-32.6c-6.8-16.1-0.5-23.8,17-22.6c6.2,0.4,12.3,1.7,18.5,2.5c7,0.9,9.4-1,10.7-8
		c0.9-5.1,1.6-10.3,2.8-15.3c2.7-12.2,10.5-20.1,21.9-24.4c13.1-5,14.1-6.8,9.6-20.3C246.2,104.6,246,103.6,245.5,101.9z"/>
</g>
</svg>
