<svg xmlns="http://www.w3.org/2000/svg" viewBox="0 0 512 512">
    <path fill="#1CADCE" d="M254.5,282.5c-61,0-122,0-183,0.1c-2.9,0-3.9-0.5-3.8-3.6c0.3-7.5,0.2-15,0-22.5c-0.1-2.3,0.8-3,2.8-3.3
	c18.8-3.4,37.6-6.5,56.4-9.3c20.5-3,41.1-5.5,61.6-7.8c1.6-0.2,2.7,0.2,4,1.1c15.8,11.4,33.6,17,53.1,16.4
	c21.6-0.8,40.3-8.7,55.9-23.7c2.2-2.2,4.4-3.1,7.5-3.2c27.2-1.1,54.3-2.2,81.5-2.7c16.1-0.3,32.2-0.3,48.3-0.5c2,0,2.6,0.4,2.6,2.5
	c-0.1,18-0.1,35.9,0,53.9c0,3-1.5,2.7-3.4,2.7C376.9,282.5,315.7,282.5,254.5,282.5z"/>
    <path fill="#1BACCE" d="M192.4,174.5c0-36,28.9-64.5,65.3-64.5c35.1,0,64.1,29.3,64.1,64.6c0,36.2-29.1,64.7-65.8,64.7
	C221.1,239.3,192.4,210,192.4,174.5z"/>
    <path fill="#182B58" d="M425.3,358.1c12.5,2.6,20.8,11.8,20.7,22.1c-0.2,15.3-8,23.7-23.4,25.6c-4.9,0.6-9.8,0.8-14.7,0.9
	c-17,0.1-34.1,0-51.1,0.1c-2.5,0-3-0.7-3-3.1c0.1-30,0.1-59.9,0-89.9c0-2.3,0.5-3.1,3-3.1c20.1,0.1,40.2,0.1,60.3,0.2
	c4.7,0,9.4,1.1,13.7,3c8.7,3.7,13.2,10.3,13.4,19.8c0.2,10.1-3.6,17.7-13,22.1c-0.9,0.4-1.9,0.8-2.9,1.1
	C427.5,357.3,426.7,357.6,425.3,358.1z M387.5,376.8c0,2.7,0,5.3,0,8c0,0.9-0.3,2,1.2,1.9c4.6-0.2,9.2,0.6,13.7-0.7
	c5.4-1.5,8-5,7.6-10.3c-0.3-4.6-3.5-7.6-8.9-8c-3.9-0.3-7.8-0.2-11.6-0.4c-1.7-0.1-2.1,0.6-2,2.2
	C387.5,371.9,387.5,374.4,387.5,376.8z M394.4,347.4c2.2-0.1,4.9,0,7.5-0.7c4.9-1.3,7.5-4.5,7.3-8.9c-0.2-4.6-3.2-7.6-8.3-8.4
	c-3.7-0.6-7.4-0.4-11.1-0.5c-1.9-0.1-2.6,0.5-2.5,2.4c0.1,3.2,0,6.4,0,9.5C387.5,347.4,387.5,347.4,394.4,347.4z"/>
    <path fill="#172B58" d="M241.6,359.6c0-10.4,1.5-19.4,5.9-27.8c5.6-10.5,14.5-16.9,25.7-20.1c13.5-3.8,27.2-3.8,40.7,0.3
	c17.8,5.4,29.1,19.7,30.8,38.2c0.8,8.8,0.6,17.4-1.8,25.9c-4.2,14.9-13.8,24.7-28.5,29.2c-14.4,4.3-29,4.4-43.3-0.3
	c-17-5.6-26-18.1-28.7-35.5C241.8,365.9,241.5,362.2,241.6,359.6z M279,358.5c0,6.3,0.3,12.5,2.8,18.4c2.1,4.9,5.5,8.1,11.2,8.2
	c5.6,0.1,9.6-2.5,11.9-7.6c1.6-3.6,2.2-7.4,2.5-11.3c0.6-8.2,0.6-16.4-2.1-24.3c-2.2-6.2-6.2-9.4-11.8-9.5c-5.7-0.1-9.7,3-12,9.2
	C279.4,347,279,352.7,279,358.5z"/>
    <path fill="#182C58" d="M152.5,378.8c6.2,2.3,12.2,4.2,18.5,5.1c7.4,1.1,14.9,1.8,22.3,0.3c3.1-0.6,6.4-1.4,7.1-5.3
	c0.4-2.5-1.8-4.7-6.4-6c-5.6-1.5-11.4-2.6-17-4.1c-6.3-1.6-12.4-3.8-17.3-8.3c-12.8-11.7-10.4-34.9,4.5-44
	c8.7-5.3,18.4-6.7,28.3-7.3c11.8-0.7,23.6,0.5,35.2,2.6c2,0.4,2.7,1.1,2.6,3.1c-0.2,6.5-0.1,12.9,0,19.4c0.1,2.5-0.6,2.6-2.8,1.9
	c-9.7-3.2-19.8-4.4-30-3.8c-2,0.1-3.9,0.4-5.7,1.1c-2.3,0.8-4.1,1.9-4.3,4.6c-0.2,2.7,1.7,4,3.8,5c4.5,1.9,9.3,2.5,14,3.5
	c4.7,1,9.4,2.1,13.9,3.9c9.7,3.9,15.8,10.8,16.9,21.5c1.1,11.7-2.1,21.8-12.5,28.5c-8.8,5.7-18.8,7.4-29.1,7.7
	c-13.1,0.4-26-0.9-38.8-3.7c-2.6-0.5-3.4-1.6-3.3-4.2C152.6,393.3,152.5,386.2,152.5,378.8z"/>
    <path fill="#182C58" d="M102.1,311.2c-5.6-1.7-10.7-3.4-15.3-6.3c-3.9-2.5-3.9-2.5-0.5-5.7c1.7-1.6,3.6-3.1,5.2-4.8
	c1.4-1.5,2.2-1.5,3.9,0c11.9,10.9,28.9,12.7,42.1,4.8c1.5-0.9,2.9-1.9,4.2-3.1c1.3-1.2,2-0.1,2.8,0.5c1.3,0.9,0.3,1.6-0.3,2.2
	c-3.7,3.8-8.1,6.6-12.8,8.9c-0.9,0.4-2,0.5-2.7,1.6c4.8,0.8,9.5,1.6,14.2,2.3c2,0.3,2.9,0.9,2.9,3.3c-0.2,7.5-0.1,15-0.1,22.7
	c-5.2-1.5-10-3.1-15.2-3.4c-5.5-0.4-10.9,0.2-15.9,2.4c-10.4,4.6-15,14.6-12.8,27.5c1.8,10.3,10,17.5,20.9,18.4
	c7.1,0.6,13.9-0.4,20.6-2.7c2.1-0.7,2.7-0.4,2.6,1.8c-0.1,7-0.1,14,0,20.9c0,1.3-0.2,2.1-1.6,2.5c-18.4,4.6-36.5,5.5-54-3.2
	c-15.8-7.8-23.8-21.1-25.4-38.4c-1-10.5,0.3-20.7,5.7-30c6.4-10.9,16.2-17.4,28-21.2C99.6,311.9,100.6,311.6,102.1,311.2z"/>
</svg>
