<?xml version="1.0" encoding="utf-8"?>
<!-- Generator: Adobe Illustrator 22.1.0, SVG Export Plug-In . SVG Version: 6.00 Build 0)  -->
<svg version="1.1" id="Layer_1" xmlns="http://www.w3.org/2000/svg" xmlns:xlink="http://www.w3.org/1999/xlink" x="0px" y="0px"
	 viewBox="0 0 512 512" style="enable-background:new 0 0 512 512;" xml:space="preserve">
<style type="text/css">
	.st0{fill:#2A72C6;}
</style>
<path class="st0" d="M368.6,182.8c-6.5,0-12.3,0-18.2,0c-9.3,0-18.5-0.1-27.8,0c-9.5,0.1-16.5-3.8-21.1-12.2
	c-2.3-4.3-4.9-8.5-7.3-12.7c-4-7-9.9-10.6-18.2-10.5c-13.2,0.2-26.4,0.3-39.5-0.1c-7.6-0.2-12.4,3.1-15.9,9.3
	c-3.2,5.6-6.4,11.1-9.6,16.7c-3.4,5.8-6.7,11.7-10.1,17.5c-4.1,7.1-3.8,14.1,0.3,21.1c11.2,19.4,22.3,38.9,33.7,58.2
	c5.3,9,5.3,17.5,0,26.5c-6.9,11.6-13.5,23.4-20.3,35c-0.6,1-1.2,2-2.2,3.6c-2.8-4.7-5.3-9-7.8-13.2c-20.4-35.3-40.8-70.7-61.2-106.1
	c-2.7-4.7-5-9.5-4.9-15.3c0.1-4.8,1.8-8.9,4.1-12.9c10.4-18.1,20.9-36.2,31.4-54.3c4.7-8.2,9.6-16.3,14.1-24.6
	c5.1-9.5,12.6-13.9,23.5-13.8c30.9,0.3,61.9,0.1,92.8,0.1c8.9,0,15.8,3.6,20.3,11.3c9.8,16.8,19.5,33.7,29.3,50.6
	c4.4,7.6,8.8,15.3,13.2,22.9C367.6,180.6,367.9,181.4,368.6,182.8z"/>
<path class="st0" d="M282,419.9c3.9-6.8,7.3-12.7,10.7-18.6c4.2-7.3,8.4-14.5,12.6-21.8c4.8-8.4,12-12.1,21.6-11.7
	c5.6,0.3,11.3,0,17-0.3c6.1-0.3,11-3.3,14.1-8.4c7.7-12.8,15-25.8,22.4-38.7c2.3-4,2.5-8.2,0.3-12.2c-5.4-9.8-11-19.5-16.5-29.3
	c-1.7-3-3.4-6.1-5.2-9c-4.1-6.7-10.1-10-17.9-10c-22.4,0-44.9-0.2-67.3,0.1c-10.6,0.2-18-3.9-23.1-13.3
	c-6.5-11.9-13.5-23.6-20.3-35.4c-0.5-0.8-0.9-1.7-1.5-3.1c1.4-0.1,2.4-0.2,3.4-0.2c46.2,0,92.3,0,138.5,0c8.6,0,14.9,3.9,19.2,11.3
	c7.3,12.7,14.7,25.4,22.1,38.2c7.9,13.7,15.8,27.3,23.7,41c0.2,0.3,0.3,0.6,0.5,0.8c6.5,9.6,6,18.9,0.1,28.9
	c-15.2,25.6-30.1,51.5-44.7,77.5c-5.5,9.8-13.3,14.2-24.4,14.1c-26.8-0.2-53.6-0.1-80.4-0.1C285.5,419.9,284.2,419.9,282,419.9z"/>
<path class="st0" d="M330.3,285.9c-3.7,6.4-7,12.2-10.3,18.1c-19.9,34.4-39.8,68.8-59.5,103.3c-4.9,8.6-12.1,12.7-21.9,12.7
	c-31,0-62.1,0-93.1,0c-9.5,0-16.7-3.7-21.5-12.1c-15.5-27.1-31.1-54.2-46.9-81.1c-5-8.5-5.2-16.6-0.2-25.2
	c14.2-24.3,28.2-48.8,42.3-73.2c0.3-0.5,0.6-0.9,1.1-1.6c0.5,0.6,1,1,1.3,1.5c7.1,12.3,14.2,24.7,21.4,37c5.2,8.8,5.3,17.4,0,26.2
	c-2.4,4-4.7,8.1-7,12.2c-3.8,6.4-4.4,12.9-0.7,19.5c7.1,12.5,14.4,24.9,21.5,37.3c2.7,4.6,6.7,7.2,12,7.2
	c14.4,0.2,28.7,0.3,43.1,0.2c8-0.1,13.7-4.2,17.6-11.1c5.8-10.3,11.8-20.6,17.8-30.8c5.5-9.5,11-19,16.5-28.5
	c4.5-7.9,11.2-11.7,20.4-11.6c14.2,0.2,28.3,0.1,42.5,0.1C327.6,285.7,328.5,285.8,330.3,285.9z"/>
</svg>
