<svg xmlns="http://www.w3.org/2000/svg" viewBox="0 0 512 512"><path fill="#2a72c6" d="M368.6 182.8h-18.2c-9.3 0-18.5-.1-27.8 0-9.5.1-16.5-3.8-21.1-12.2-2.3-4.3-4.9-8.5-7.3-12.7-4-7-9.9-10.6-18.2-10.5-13.2.2-26.4.3-39.5-.1-7.6-.2-12.4 3.1-15.9 9.3-3.2 5.6-6.4 11.1-9.6 16.7-3.4 5.8-6.7 11.7-10.1 17.5-4.1 7.1-3.8 14.1.3 21.1 11.2 19.4 22.3 38.9 33.7 58.2 5.3 9 5.3 17.5 0 26.5-6.9 11.6-13.5 23.4-20.3 35-.6 1-1.2 2-2.2 3.6-2.8-4.7-5.3-9-7.8-13.2-20.4-35.3-40.8-70.7-61.2-106.1-2.7-4.7-5-9.5-4.9-15.3.1-4.8 1.8-8.9 4.1-12.9 10.4-18.1 20.9-36.2 31.4-54.3 4.7-8.2 9.6-16.3 14.1-24.6 5.1-9.5 12.6-13.9 23.5-13.8 30.9.3 61.9.1 92.8.1 8.9 0 15.8 3.6 20.3 11.3 9.8 16.8 19.5 33.7 29.3 50.6 4.4 7.6 8.8 15.3 13.2 22.9.4.7.7 1.5 1.4 2.9M282 419.9c3.9-6.8 7.3-12.7 10.7-18.6 4.2-7.3 8.4-14.5 12.6-21.8 4.8-8.4 12-12.1 21.6-11.7 5.6.3 11.3 0 17-.3 6.1-.3 11-3.3 14.1-8.4 7.7-12.8 15-25.8 22.4-38.7 2.3-4 2.5-8.2.3-12.2-5.4-9.8-11-19.5-16.5-29.3-1.7-3-3.4-6.1-5.2-9-4.1-6.7-10.1-10-17.9-10-22.4 0-44.9-.2-67.3.1-10.6.2-18-3.9-23.1-13.3-6.5-11.9-13.5-23.6-20.3-35.4-.5-.8-.9-1.7-1.5-3.1 1.4-.1 2.4-.2 3.4-.2h138.5c8.6 0 14.9 3.9 19.2 11.3 7.3 12.7 14.7 25.4 22.1 38.2 7.9 13.7 15.8 27.3 23.7 41 .2.3.3.6.5.8 6.5 9.6 6 18.9.1 28.9-15.2 25.6-30.1 51.5-44.7 77.5-5.5 9.8-13.3 14.2-24.4 14.1-26.8-.2-53.6-.1-80.4-.1-1.4.2-2.7.2-4.9.2m48.3-134c-3.7 6.4-7 12.2-10.3 18.1-19.9 34.4-39.8 68.8-59.5 103.3-4.9 8.6-12.1 12.7-21.9 12.7h-93.1c-9.5 0-16.7-3.7-21.5-12.1-15.5-27.1-31.1-54.2-46.9-81.1-5-8.5-5.2-16.6-.2-25.2 14.2-24.3 28.2-48.8 42.3-73.2.3-.5.6-.9 1.1-1.6.5.6 1 1 1.3 1.5 7.1 12.3 14.2 24.7 21.4 37 5.2 8.8 5.3 17.4 0 26.2-2.4 4-4.7 8.1-7 12.2-3.8 6.4-4.4 12.9-.7 19.5 7.1 12.5 14.4 24.9 21.5 37.3 2.7 4.6 6.7 7.2 12 7.2 14.4.2 28.7.3 43.1.2 8-.1 13.7-4.2 17.6-11.1 5.8-10.3 11.8-20.6 17.8-30.8l16.5-28.5c4.5-7.9 11.2-11.7 20.4-11.6 14.2.2 28.3.1 42.5.1.9-.3 1.8-.2 3.6-.1"/></svg>