<svg xmlns="http://www.w3.org/2000/svg" viewBox="0 0 512 512"><path fill="#d10825" d="M328.1 38.8c23.4-5.3 47.8-7.6 72.1-7.6 24.4-.5 48.2 2.4 72.1 7.6 5.3 23.4 7.6 47.8 7.6 72.1s-2.4 48.2-7.6 72.1c-23.4 5.3-47.8 7.6-72.1 7.2-24.4 0-48.2-2.4-72.1-7.2-5.3-23.9-7.6-47.8-7.2-72.1-.4-24.4 2-48.7 7.2-72.1"/><linearGradient id="SVGID_1_" x1="405.285" x2="405.285" y1="1225.888" y2="1073.502" gradientTransform="translate(0 -1035.07)" gradientUnits="userSpaceOnUse"><stop offset="0" stop-color="#830b0e"/><stop offset=".85" stop-color="#d10825"/></linearGradient><path fill="url(#SVGID_1_)" d="M473.3 38.8c5.3 23.4 7.6 47.8 7.6 72.1.5 24.4-2.4 48.2-7.6 72.1-23.4 4.8-47.8 7.6-71.7 7.2-24.4 0-48.2-2.4-72.1-7.2z"/><path fill="#840a3b" d="M182.9 182.6c23.9-4.8 47.8-7.6 72.1-7.2 23.9-.5 48.2 1.9 71.7 7.2 5.3 23.4 7.6 47.8 7.6 71.7.5 24.4-2.4 48.2-7.6 72.1-23.4 4.8-47.8 7.6-71.7 7.2-23.9 0-48.2-2.4-71.7-7.6-10-47-10-96.2-.4-143.4"/><linearGradient id="SVGID_2_" x1="260.064" x2="260.064" y1="1370.87" y2="1218.436" gradientTransform="translate(0 -1035.07)" gradientUnits="userSpaceOnUse"><stop offset="0" stop-color="#550220"/><stop offset=".85" stop-color="#840a3b"/></linearGradient><path fill="url(#SVGID_2_)" d="M328.1 182.6c5.3 23.4 7.6 47.8 7.6 71.7.5 24.4-2.4 48.2-7.6 72.1-23.4 4.8-47.8 7.6-71.7 7.6-24.4 0-48.2-2.4-72.1-7.6z"/><path fill="#969696" d="M38.1 328.7c23.4-5.3 47.8-7.6 72.1-7.6s48.2 2.4 72.1 7.6c5.3 23.9 7.6 47.8 7.2 72.1 0 23.9-2.4 48.2-7.2 71.7-23.4 5.3-46.8 7.6-70.7 7.6s-48.2-2.4-71.7-7.6c-6.2-23.4-9.1-47.3-8.6-71.7-.8-24.3 1.6-48.2 6.8-72.1"/><linearGradient id="SVGID_3_" x1="114.609" x2="114.609" y1="1515.756" y2="1363.37" gradientTransform="translate(0 -1035.07)" gradientUnits="userSpaceOnUse"><stop offset="0" stop-color="#4e4e4e"/><stop offset=".85" stop-color="#969696"/></linearGradient><path fill="url(#SVGID_3_)" d="M182.9 328.7c5.3 23.9 7.6 47.8 7.2 72.1 0 23.9-2.4 48.2-7.2 71.7-23.4 5.3-47.8 7.6-72.1 7.6-23.9 0-48.2-2.4-71.7-7.6z"/><path fill="#d10825" d="M182.9 38.8c5.3 23.4 7.6 47.8 7.2 72.1 0 24.4-2.4 48.2-7.2 72.1-23.9 5.3-47.8 7.6-72.1 7.2-23.9 0-48.2-2.4-71.7-7.2-6.2-23.4-9.6-47.8-9.1-72.1-.5-24.4 2.4-48.2 7.6-72.1 23.9-5.3 48.7-7.6 73.1-7.6s48.8 2.3 72.2 7.6"/><linearGradient id="SVGID_4_" x1="106.432" x2="106.432" y1="1225.888" y2="1073.502" gradientTransform="translate(0 -1035.07)" gradientUnits="userSpaceOnUse"><stop offset="0" stop-color="#830b0e"/><stop offset=".85" stop-color="#d10825"/></linearGradient><path fill="url(#SVGID_4_)" d="M182.9 182.6c-23.9 5.3-47.8 7.6-72.1 7.2-23.9 0-48.2-2.4-71.7-7.2-6.2-23.4-9.6-47.8-9.1-72.1-.5-24.4 2.4-48.2 7.6-72.1z"/></svg>