<?xml version="1.0" encoding="utf-8"?>
<!-- Generator: Adobe Illustrator 22.1.0, SVG Export Plug-In . SVG Version: 6.00 Build 0)  -->
<svg version="1.1" id="Layer_1" xmlns="http://www.w3.org/2000/svg" xmlns:xlink="http://www.w3.org/1999/xlink" x="0px" y="0px"
	 viewBox="0 0 512 512" style="enable-background:new 0 0 512 512;" xml:space="preserve">
<style type="text/css">
	.st0{fill:#1885C8;}
	.st1{fill:#FFFFFF;}
	.st2{fill:#C00A1B;}
</style>
<rect class="st0" width="512" height="512"/>
<g>
	<path class="st1" d="M179.5,266.9c-2.7-2.4-5.2-4.8-7.9-6.9c-7.2-5.7-15.3-9.7-24.5-11.2c-7.1-1.1-14.1-0.7-21,1.2
		c-15.2,4.2-26.1,13.6-31.9,28.3c-6.5,16.5-5.9,32.9,2.6,48.6c7.1,13.1,18.5,20.8,33.1,23.6c15.9,3,29.9-1.3,42.3-11.3
		c2.5-2,4.8-4.2,7.3-6.5c6.1,7.4,12.2,14.8,18.6,22.5c-3.2,3.2-6.2,6.5-9.5,9.5c-6.9,6.3-14.9,11.1-23.8,14.2
		c-8.3,2.9-16.9,4-25.7,3.8c-15.3-0.3-29.9-3.7-43.2-11.4c-17.5-10.1-29.2-25-35-44.3c-2.9-9.5-3.9-19.3-3.8-29.2
		c0.2-11.2,2.1-22.2,6.4-32.6c7.8-18.6,21-31.9,39.3-40.3c9-4.1,18.4-6.4,28.2-7.4c10.2-1,20.3-0.6,30.2,2.2
		c11.3,3.1,21,9,29.4,17.1c2.6,2.5,5,5.1,7.5,7.8C191.8,252.1,185.7,259.5,179.5,266.9z"/>
	<path class="st1" d="M278.7,249.7c0-10,0-19.9,0-30c0.5,0,0.9,0,1.3,0c8.4,0,16.7,0,25.1,0c1,0,1.3-0.2,1.3-1.3
		c0-10.1,0-20.3,0-30.4c0-0.7,0.1-1.1,0.8-1.5c10.2-5.4,20.3-10.8,30.4-16.3c0.2-0.1,0.4-0.2,0.8-0.4c0,0.5,0,1,0,1.4
		c0,15.6,0,31.3,0,46.9c0,1.6-0.2,1.5,1.6,1.5c10.1,0,20.3,0,30.4,0c0.4,0,0.9,0,1.4,0c0,10,0,19.9,0,30c-0.4,0-0.9,0-1.3,0
		c-10.2,0-20.5,0-30.7,0c-1.4,0-1.4,0-1.4,1.4c0,27.7,0,55.4,0,83.1c0,3.4,0.2,6.8,1.4,10c1.8,5.2,5.6,7.8,10.9,8.4
		c6.9,0.8,13.4-0.9,19.6-3.8c2.9-1.3,5.6-3,8.4-4.5c0.3-0.2,0.6-0.3,1-0.6c-0.1,0.6-0.2,0.9-0.3,1.3c-2.4,9.5-4.9,19.1-7.3,28.6
		c-0.1,0.5-0.5,1-0.9,1.2c-6.8,4.1-14.2,6.3-22.1,6.9c-5.7,0.4-11.3,0.3-16.8-1.4c-9.8-3-16.8-9.3-21.3-18.4
		c-3.1-6.3-4.6-13.1-4.6-20.1c-0.1-29.4,0-58.7,0-88.1c0-1-0.1-2,0-3.1c0.1-0.9-0.3-1.1-1.2-1.1c-8.4,0-16.7,0-25.1,0
		C279.7,249.7,279.3,249.7,278.7,249.7z"/>
	<path class="st2" d="M195.2,193.2c25.3-38.2,74.3-69.8,131.5-70c56.8-0.2,106.4,31,132.3,69.9c-0.4,0-0.7,0.1-1,0.1
		c-11.9,0-23.7,0-35.6,0c-0.7,0-1.2-0.2-1.7-0.7c-8.6-8.8-18.2-16.4-28.8-22.6c-13.4-7.8-27.7-13.1-43-15.8
		c-9.1-1.6-18.3-2.2-27.6-1.7c-22.7,1.1-43.7,7.8-62.9,19.9c-9.1,5.8-17.4,12.5-24.9,20.3c-0.5,0.5-1,0.7-1.8,0.7
		c-11.8,0-23.6,0-35.4,0C196,193.2,195.7,193.2,195.2,193.2z"/>
	<path class="st1" d="M249.5,379.5c-10.9,0-21.7,0-32.6,0c0-53.3,0-106.6,0-159.9c10.9,0,21.7,0,32.6,0
		C249.5,272.9,249.5,326.2,249.5,379.5z"/>
	<path class="st1" d="M438,379.5c-10.9,0-21.7,0-32.6,0c0-53.3,0-106.6,0-159.9c10.9,0,21.7,0,32.6,0C438,272.9,438,326.2,438,379.5
		z"/>
</g>
</svg>
