<svg xmlns="http://www.w3.org/2000/svg" viewBox="0 0 512 512"><linearGradient id="a" gradientUnits="userSpaceOnUse" x1="256.711" y1="512.071" x2="256.711" y2=".071"><stop offset="0" style="stop-color:#9b1f23"/><stop offset=".156" style="stop-color:#b02021"/><stop offset=".45" style="stop-color:#e2241c"/><stop offset="1" style="stop-color:#e2241c"/></linearGradient><path style="fill:url(#a)" d="M0 .1h513.4v512H0z"/><path fill="#fff" d="m206.7 200.9 61-63.3.1-.1v-20.3l-79.9 83.7z"/><path fill="#fff" d="M160.6 253.3c25.9 0 48.6-13.2 62-33.2v33.2h45c14.7 0 26.4-11.6 26.4-26.3 0-7.5-3.2-14.4-8.2-19.2 5.1-4.9 8.2-11.7 8.2-19.2 0-14.7-11.9-26.6-26.6-26.6h-10.8l-14.8 14.8h25.6c6.5 0 11.8 5.3 11.8 11.8 0 6.5-5.3 11.8-11.8 11.8h-53.2c-8.5 21.2-29.3 36.2-53.6 36.2-31.9 0-57.7-25.8-57.7-57.8 0-31.9 25.8-57.8 57.7-57.8 25.7 0 47.5 16.8 55 40l12.7-13.3c-11.8-25.6-37.7-43.4-67.7-43.4-41.1 0-74.5 33.3-74.5 74.4 0 41.3 33.4 74.6 74.5 74.6m76.2-37.7 30.8-.4c6.5 0 11.8 5.3 11.8 11.8 0 6.5-5.3 11.8-11.8 11.8h-30.8v-23.2zm-94.5 85.3h7.2v48.3h-7.2zm37.5 12.7-10 22.9-10.2-22.9h-7.7l14.1 31.7-7 15.9h7.7l20.8-47.6zm36.9 32.1v3.4h7.1v-48.3h-7.1V317c-1.1-1-2.3-1.9-3.6-2.5-2.4-1.3-5.1-1.9-8-1.9-5 0-9.4 1.8-13 5.5-3.6 3.6-5.4 8-5.4 13.1 0 5.2 1.8 9.6 5.3 13.3 3.6 3.6 7.9 5.5 12.9 5.5 2.8 0 5.5-.6 7.8-1.8 1.6-.6 2.8-1.4 4-2.5m-11.2-2.5c-2 0-3.9-.5-5.7-1.5-1.7-1-3.2-2.5-4.2-4.4-1.1-1.9-1.6-3.9-1.6-5.9 0-2.1.5-4 1.6-5.9 1.1-1.8 2.5-3.3 4.2-4.3 1.8-1 3.7-1.5 5.8-1.5 3.3 0 5.9 1.1 8.1 3.4 2.2 2.3 3.3 5 3.3 8.4 0 2.2-.5 4.2-1.5 6-.9 1.7-2.3 3.1-4.2 4.1-1.8 1.1-3.8 1.6-5.8 1.6m41.6-30.5c-5.9 0-10.6 2.3-14.1 6.7-2.8 3.5-4.1 7.5-4.1 12 0 4.7 1.6 9.1 4.9 12.8 3.3 3.8 7.9 5.8 13.6 5.8 2.6 0 4.9-.4 7-1.2 2.1-.8 4-2 5.6-3.5 1.6-1.5 3.1-3.5 4.3-5.9l.7-1.3-6.1-3.2-.8 1.2c-1.2 2-2.3 3.4-3.2 4.3-1 .8-2.1 1.5-3.6 2-1.4.5-2.8.8-4.3.8-3 0-5.5-1-7.6-3.2-1.8-1.9-2.8-4.1-3.1-6.9h29.3v-1.5c0-4.8-1.4-8.8-3.9-12.1-3.7-4.5-8.6-6.8-14.6-6.8m-10 13.9c.7-1.8 1.6-3.2 2.7-4.2 2.1-1.8 4.4-2.7 7.3-2.7 1.7 0 3.4.4 4.9 1.1 1.5.7 2.8 1.7 3.7 2.8.6.8 1.2 1.8 1.6 2.9h-20.2zm41.9-7c1.7 0 3.6 1 5.6 2.8l1.1 1 4.8-4.9-1.1-1c-3.3-3.2-6.7-4.8-10.1-4.8-2.9 0-5.5 1-7.4 2.9-2 1.9-3 4.4-3 7.2 0 2.2.7 4.2 1.9 6 1.2 1.7 3.3 3.3 6.5 5 3.4 1.7 4.5 2.7 4.8 3.1.6.7.8 1.4.8 2.3 0 1-.4 1.9-1.3 2.7-.9.8-2 1.2-3.3 1.2-2 0-3.8-1-5.7-3.1l-1.1-1.3-4.6 5.2.8 1c1.2 1.6 2.9 2.9 4.8 3.8 1.9.9 3.9 1.4 6 1.4 3.2 0 5.9-1.1 8.1-3.2 2.2-2.1 3.3-4.8 3.3-7.9 0-2.2-.6-4.2-1.9-6-1.3-1.7-3.5-3.4-6.9-5.1-2.9-1.5-4.1-2.5-4.6-3.1-.6-.7-.8-1.4-.8-2.1 0-.8.3-1.4 1-2.1.5-.7 1.3-1 2.3-1m43.7-2.5c-1.1-1-2.3-1.9-3.6-2.5-2.3-1.3-5.1-1.9-8-1.9-5 0-9.4 1.8-13 5.5-3.6 3.6-5.4 8-5.4 13.1 0 5.2 1.8 9.6 5.3 13.3 3.6 3.6 7.9 5.5 12.9 5.5 2.8 0 5.4-.6 7.8-1.8 1.3-.7 2.6-1.5 3.8-2.5v3.5h7.1V301h-7.1v16.1zm-1.2 20.4c-1 1.7-2.3 3.1-4.2 4.1-1.9 1-3.8 1.5-5.8 1.5s-3.9-.5-5.7-1.5c-1.7-1-3.1-2.5-4.2-4.4-1-1.9-1.6-3.9-1.6-5.9 0-2.1.5-4 1.6-5.9 1.1-1.8 2.5-3.3 4.2-4.3 1.8-1 3.7-1.5 5.7-1.5 3.3 0 5.9 1.1 8.1 3.4 2.2 2.3 3.3 5 3.3 8.4.1 2.4-.4 4.4-1.4 6.1m43.3-20.4c-1.1-1-2.3-1.9-3.6-2.5-2.4-1.3-5.1-1.9-8-1.9-5 0-9.4 1.8-13 5.5-3.6 3.6-5.4 8-5.4 13.1 0 5.2 1.8 9.6 5.3 13.3 3.6 3.6 7.9 5.5 12.9 5.5 2.8 0 5.5-.6 7.8-1.8 1.3-.7 2.6-1.5 3.8-2.5v3.5h7.1v-35.6h-7.1v3.4zm-1.2 20.4c-1 1.7-2.3 3.1-4.2 4.1-1.9 1-3.7 1.5-5.8 1.5-2 0-3.9-.5-5.7-1.5-1.8-1-3.2-2.5-4.2-4.4-1-1.9-1.6-3.9-1.6-5.9 0-2.1.5-4 1.5-5.9 1-1.8 2.5-3.3 4.2-4.3 1.7-1 3.7-1.5 5.8-1.5 3.2 0 5.9 1.1 8.1 3.4 2.2 2.3 3.3 5 3.3 8.4.1 2.4-.4 4.4-1.4 6.1m14.2-36.6h7.2v48.3h-7.2zm40.6 35.2c-1.2 2-2.3 3.4-3.3 4.3-1 .8-2.1 1.5-3.6 2-1.4.5-2.8.8-4.3.8-3.1 0-5.6-1-7.6-3.2-1.8-1.9-2.8-4.1-3.1-6.9h29.3v-1.5c0-4.8-1.4-8.8-3.9-12.1-3.6-4.6-8.5-6.9-14.5-6.9-5.9 0-10.6 2.3-14.1 6.7-2.8 3.5-4.2 7.5-4.2 12 0 4.7 1.6 9.1 4.9 12.8 3.3 3.8 7.9 5.8 13.6 5.8 2.5 0 4.9-.4 7-1.2 2.1-.8 4-2 5.6-3.5 1.7-1.5 3.1-3.5 4.3-5.9l.7-1.3-6.1-3.2-.7 1.3zm-18.2-13.7c2.1-1.8 4.4-2.7 7.3-2.7 1.7 0 3.4.4 4.9 1.1 1.5.7 2.8 1.7 3.7 2.8.6.8 1.2 1.8 1.6 2.9h-20.3c.8-1.7 1.7-3.1 2.8-4.1m-262.8 18.5.9-1.2-5.8-4.4-.9 1.1c-3.9 4.5-8.6 6.7-14.4 6.7-5.3 0-9.5-1.6-13-5-3.4-3.4-5.1-7.4-5.1-12.4 0-3.3.8-6.3 2.3-8.9 1.5-2.6 3.7-4.7 6.4-6.3 2.8-1.6 5.8-2.4 9.1-2.4 3 0 5.7.6 8.2 1.8 2.5 1.2 4.6 2.9 6.4 5.3l.9 1.1 5.8-4.4-.8-1.2c-2.3-3.1-5.2-5.6-8.7-7.3-3.5-1.7-7.5-2.6-11.8-2.6-7.2 0-13.3 2.4-18.1 7.1-4.8 4.7-7.2 10.5-7.2 17.4 0 6.5 2 12.1 6 16.7 4.7 5.5 11.3 8.2 19.4 8.2 4.3 0 8.2-.8 11.7-2.4 3.4-1.5 6.4-3.9 8.7-6.9m-16.7 41.9c-.8-.7-1.9-1.4-3.2-2 1-.8 1.8-1.8 2.4-2.8 1.1-1.8 1.7-3.9 1.7-6.1 0-2.4-.6-4.6-1.9-6.6-1.2-2-3-3.4-5.1-4.4-2.1-1-4.9-1.4-8.7-1.4H95.8v47.2h13.6c4.7 0 8.6-1.4 11.4-4.1 2.9-2.7 4.4-6.2 4.4-10.1 0-2-.4-3.8-1.2-5.5-.7-1.6-1.9-3-3.3-4.2m-17.6-15.9h3.6c2.7 0 4.6.5 5.8 1.4 1.1.9 1.6 2 1.6 3.6 0 1.2-.3 2.3-1 3.2-.7 1-1.6 1.7-2.7 2.2-1.3.5-3.3.7-6.2.7h-1v-11.1zm13.4 29.3c-.7 1.1-1.7 1.9-2.9 2.4-1.3.5-3.5.8-6.5.8h-4v-14h1c3.6 0 6.1.1 7.5.5 2 .5 3.4 1.3 4.5 2.5 1 1.2 1.6 2.5 1.6 4.1-.1 1.5-.5 2.6-1.2 3.7m42.2-21.6c-1.1-1-2.3-1.8-3.6-2.5-2.4-1.3-5.1-1.9-7.9-1.9-5 0-9.4 1.8-13 5.4-3.6 3.6-5.4 8-5.4 13.1 0 5.2 1.8 9.6 5.3 13.3 3.6 3.6 7.9 5.5 12.9 5.5 2.8 0 5.5-.6 7.8-1.8 1.3-.6 2.6-1.5 3.8-2.5v3.5h7.1V371h-7.1v3.6zm-1.2 20.5c-1 1.8-2.4 3.1-4.2 4.2-1.8 1-3.8 1.6-5.8 1.6-2.1 0-3.9-.5-5.7-1.6-1.7-1-3.1-2.5-4.2-4.4-1.1-1.8-1.6-3.8-1.6-5.9 0-2.1.5-4 1.6-5.9 1.1-1.8 2.5-3.3 4.2-4.3 1.8-1.1 3.7-1.5 5.7-1.5 3.3 0 5.9 1.1 8.1 3.3 2.3 2.3 3.4 5.1 3.4 8.5 0 2.2-.5 4.2-1.5 6m40-22.8c-2.1-1.4-4.6-2.1-7.3-2.1-2.6 0-5.1.6-7.4 1.9-1.2.6-2.3 1.4-3.4 2.5v-3.5h-7.2v35.7h7.2v-13.5c0-4.2.2-7 .5-8.5.6-2.2 1.7-4 3.5-5.5 1.7-1.5 3.7-2.2 5.9-2.2 1.9 0 3.3.4 4.5 1.3 1.1.9 1.9 2.2 2.3 4.1.2.8.4 2.7.4 7.2v17.1h7.1v-18.3c0-4.7-.5-8.1-1.5-10.4-.8-2.4-2.4-4.3-4.6-5.8m43.3-1.2H230l-13 11.4v-24h-7.2v48.2h7.2v-12.8l14.3 12.8h10.4l-20.6-18.5z"/></svg>