<?xml version="1.0" encoding="utf-8"?>
<!-- Generator: Adobe Illustrator 22.1.0, SVG Export Plug-In . SVG Version: 6.00 Build 0)  -->
<svg version="1.1" id="Layer_1" xmlns="http://www.w3.org/2000/svg" xmlns:xlink="http://www.w3.org/1999/xlink" x="0px" y="0px"
	 viewBox="0 0 512 512" style="enable-background:new 0 0 512 512;" xml:space="preserve">
<style type="text/css">
	.st0{fill:#FF0D02;}
	.st1{fill:#FFFFFF;}
</style>
<rect x="1" y="-4" class="st0" width="509" height="519"/>
<g>
	<path class="st1" d="M241.4,157.3c1-0.8,2.2-1.5,3.1-2.4c4.6-4.5,9-9.1,13.6-13.5c0.9-0.9,2.4-1.5,3.7-1.5
		c6.2,0.1,12.6-0.4,18.6,0.9c24.7,5.6,33.8,35.4,16.7,54.1c-0.4,0.4-0.7,0.8-1.2,1.3c3.6,3.8,6.4,8,8.2,12.9
		c7.3,21.1-8,42.9-30.2,43.1c-18.1,0.1-36.2,0-54.3,0c-0.5,0-1.1-0.1-1.9-0.1c0-13.2,0-26.4,0-40.3c-0.9,1.2-1.5,1.9-1.9,2.6
		c-15.9,21.2-36.9,34-63.2,37.2c-48.7,6.1-93.3-27.4-101.6-75.7C42.2,126.2,76,78.7,125.9,70.2c40.1-6.8,80.2,13.7,97.9,50.1
		c0.8,1.6,0.8,2.5-0.5,3.9c-4.7,4.8-9.3,9.7-14.1,14.7c-0.4-0.8-0.7-1.4-1-2.1c-10.8-27.4-30.9-43.4-60.2-46.8
		c-37.2-4.2-72,23.4-76.9,60.3c-5.1,38,18.7,71.9,56.1,79.9c32,6.9,65.4-10.2,78.9-40.6c0.9-2,1.9-2.6,4-2.6
		c20.6,0.1,41.2,0.1,61.8,0c7.4,0,12.9-3.8,14.8-10.2c2.7-8.6-3.2-17.9-12.2-18.4c-9.9-0.5-19.9-0.2-29.8-0.2c-0.9,0-1.8,0-2.8,0
		C241.8,158,241.6,157.7,241.4,157.3z M235.3,234.2c0.6,0.1,1,0.1,1.4,0.1c12.1,0,24.3,0.1,36.4,0c8.1-0.1,14.3-6.4,14.3-14.3
		c0-8-6.3-14.5-14.4-14.5c-12.4,0-24.8,0.3-37.1,0.5c-0.1,0-0.3,0.1-0.5,0.2C235.3,215.4,235.3,224.7,235.3,234.2z"/>
	<path class="st1" d="M174.6,187.9c33.1-34.6,65.7-68.7,98.6-103.2c0.1,1.1,0.3,1.6,0.3,2.2c0,6.9,0.1,13.9-0.1,20.8
		c0,1.1-0.6,2.5-1.3,3.3c-24.2,25.2-48.5,50.4-72.8,75.6c-0.6,0.6-1.4,1.2-2.1,1.2C189.9,187.9,182.7,187.9,174.6,187.9z"/>
	<path class="st1" d="M61.6,440.9c0-19.1,0-38.3,0-57.7c0.8,0,1.5-0.1,2.3-0.1c5.2,0.1,10.4,0,15.6,0.4c6.2,0.5,10.8,3.6,13,9.5
		c2.2,5.8,1,11.2-3.3,15.8c-0.1,0.1-0.2,0.3-0.4,0.7c0.1,0,0.4,0.1,0.6,0.2c6.6,4,9.6,10.3,8.3,17.3c-1.4,7.1-7.2,13.1-14.7,13.8
		C75.9,441.4,68.9,440.9,61.6,440.9z M70.8,432.4c4-0.3,7.8-0.4,11.6-1.1c3.3-0.6,5.3-3,5.8-6.3c0.6-3.4-1-6.4-4.1-8.1
		c-4.2-2.3-8.8-1.7-13.3-1.7C70.8,421,70.8,426.5,70.8,432.4z M70.8,406.1c3.1-0.5,6-0.6,8.7-1.4c3-0.9,4.6-3.8,4.4-6.8
		c-0.1-2.6-1.6-4.6-4.4-5.1c-2.8-0.5-5.7-0.5-8.8-0.8C70.8,396.8,70.8,401.1,70.8,406.1z"/>
	<path class="st1" d="M210.5,330.3c0-6.6,0-12.8,0-19c0-0.1,0.1-0.1,0.3-0.3c2.6,0,5.3,0,8.3,0c0,19.7,0,39.4,0,59.2
		c-2.8,0-5.6,0-8.6,0c-0.1-1.1-0.1-2.2-0.2-3.8c-5.5,4.2-11.6,5.8-18.2,4.7c-6.7-1.2-11.7-4.9-15.2-10.7c-5.5-8.9-4.1-20.7,3.2-28.2
		C188,324,197.9,323.3,210.5,330.3z M196.6,362.9c8,0,14-6,14.1-14.1c0.1-8.2-5.9-14.5-13.9-14.5c-7.9-0.1-14.3,6.3-14.2,14.3
		C182.6,356.4,188.9,362.9,196.6,362.9z"/>
	<path class="st1" d="M340.8,330.1c0-6.4,0-12.6,0-19.1c3.1,0,5.9,0,8.8,0c0,19.7,0,39.3,0,59.2c-2.8,0-5.6,0-8.7,0
		c-0.1-1.1-0.2-2.2-0.3-3.4c-13.8,6.9-24.1,5.6-31.7-3.9c-6.7-8.5-6.6-21,0.2-29.1C317.2,324.2,327.2,323,340.8,330.1z M327.2,334.2
		c-7.8,0-14,6.2-14.1,14.2c0,8,6.3,14.5,14.1,14.5c8-0.1,14-6.1,14-14.2C341.2,340.4,335.2,334.3,327.2,334.2z"/>
	<path class="st1" d="M113.8,324.8c-2.3,1.7-4.6,3.5-7.1,5.4c-5.1-7.2-12.2-10.6-21-10c-5.7,0.4-10.7,2.8-14.6,7
		c-7.6,8.2-7,21.6,0.8,29.6c7,7.2,24.5,10,34.9-3.5c2.3,1.7,4.6,3.5,7.1,5.4c-3.2,4.7-7.4,8.1-12.4,10.3c-12.8,5.7-28.7,3-37.3-6.8
		c-8.6-9.7-10.4-21.1-5.5-32.9c4.8-11.6,14.2-17.6,26.7-18.3c11.2-0.7,20.6,3,27.5,12.2c0.2,0.3,0.5,0.6,0.7,1
		C113.7,324.2,113.7,324.4,113.8,324.8z"/>
	<path class="st1" d="M432.3,350.8c0.1,5.2,3.7,10.1,8.6,11.4c8.8,2.4,14.8-1.6,18.8-9.5c2.6,1.4,5,2.6,7.6,4
		c-3.3,7.7-8.7,12.8-16.9,14.5c-13.6,2.7-25.5-5.8-27.5-19.4c-1.9-13.4,7.9-25.6,21.3-26.4c13.5-0.7,24.2,9.9,23.9,23.6
		c0,1.7-0.9,1.9-2.2,1.9c-10.3,0-20.5,0-30.8,0C434.1,350.8,433.3,350.8,432.3,350.8z M457.4,342.3c-1.1-4.6-6.1-8-11.8-8.1
		c-5.8-0.1-10.7,3.1-12,8.1C441.5,342.3,449.4,342.3,457.4,342.3z"/>
	<path class="st1" d="M234.7,350.7c0.4,5.6,4,10.4,9.1,11.6c8.7,2.1,14.4-1.9,18.3-9.7c2.6,1.4,5.1,2.7,7.5,4
		c-4.7,12.1-17.2,17.8-29.6,13.7c-10.9-3.6-17.3-16.5-14-28.4c3.3-11.9,14.9-18.7,27.1-16c10.6,2.3,18.5,12.7,17.2,24.9
		C258.6,350.7,246.8,350.7,234.7,350.7z M236.1,342.2c8.1,0,16,0,23.9,0c-1.6-4.9-6.4-8.1-12.2-8
		C242.2,334.2,237.6,337.3,236.1,342.2z"/>
	<path class="st1" d="M138.9,401.2c0-1.4,0-2.5,0-3.8c2.9,0,5.7,0,8.8,0c0,0.7,0.1,1.5,0.1,2.2c0,13.1,0,26.2,0,39.3
		c0,1.8-0.4,2.6-2.3,2.4c-2.1-0.2-4.2,0-6.5,0c-0.1-1.4-0.2-2.5-0.3-4c-6.1,4.5-12.6,6.1-19.8,4.3c-5.2-1.3-9.3-4.3-12.4-8.5
		c-6.4-8.6-5.8-21,1.1-29.1C113.9,396.8,126.8,392.3,138.9,401.2z M125.1,433.8c8.1,0,14.2-6.1,14.2-14.2c0-8.2-6-14.5-14-14.5
		c-7.8-0.1-14.2,6.5-14.2,14.4C111.1,427.2,117.5,433.7,125.1,433.8z"/>
	<path class="st1" d="M392.6,330.4c0.1-1.4,0.2-2.5,0.3-3.7c2.8,0,5.6,0,8.6,0c0,14.5,0,29,0,43.6c-2.8,0-5.6,0-8.5,0
		c-0.1-1.1-0.2-2.2-0.3-3.7c-5.6,4.3-11.8,5.8-18.5,4.6c-6.8-1.3-11.8-5.2-15.2-11.1c-5.4-9.3-3.5-21.1,4.3-28.6
		C369.6,325.2,381.8,322.1,392.6,330.4z M393,348.8c0-8.4-5.8-14.5-13.8-14.5c-7.9-0.1-14.1,6.1-14.2,14
		c-0.1,8.1,6.1,14.6,13.9,14.6C386.9,362.9,392.9,356.9,393,348.8z"/>
	<path class="st1" d="M210.9,381.9c0,9.7,0,19.1,0,29.2c1.4-1.2,2.3-2,3.3-2.8c3.8-3.3,7.5-6.5,11.3-9.8c0.6-0.5,1.5-1.1,2.2-1.1
		c3.9-0.1,7.9-0.1,12.5-0.1c-8.4,7.3-16.2,14.2-24.2,21.1c8.4,7.5,16.6,15,24.8,22.4c-0.1,0.2-0.1,0.3-0.2,0.5
		c-3.9,0-7.8,0.1-11.7-0.1c-0.7,0-1.5-0.8-2.1-1.4c-5.1-4.6-10.2-9.1-15.9-14.2c0,1.6,0,2.6,0,3.6c0,3.4,0,6.8,0,10.2
		c0,1.4-0.4,2-1.9,2c-2.3-0.1-4.6,0-7,0c0-19.9,0-39.6,0-59.4C204.8,381.9,207.7,381.9,210.9,381.9z"/>
	<path class="st1" d="M164.6,441.2c-3.1,0-5.8,0-8.7,0c0-14.6,0-29.1,0-43.8c2.8,0,5.6,0,8.6,0c0.1,1.1,0.2,2.3,0.3,3.7
		c0.9-0.6,1.6-1.1,2.3-1.5c6.9-4.7,15.8-4.4,21.6,0.5c3.9,3.3,5.5,7.7,5.7,12.6c0.3,9.2,0.2,18.5,0.2,27.7c0,0.2-0.1,0.4-0.2,0.8
		c-2.7,0-5.4,0-8.4,0c-0.1-0.9-0.1-1.8-0.2-2.7c-0.1-8.2-0.1-16.4-0.3-24.6c-0.1-3.5-1-6.7-4.5-8.2c-3.6-1.5-7.1-1-10.3,1.2
		c-3.4,2.4-5.3,5.6-5.5,9.7c-0.2,7.2-0.3,14.4-0.4,21.5C164.6,439,164.6,440,164.6,441.2z"/>
	<path class="st1" d="M130.6,326.4c3.1,0,5.8-0.1,8.5,0.1c0.7,0,1.5,1,1.8,1.7c3.5,7.7,7,15.5,10.5,23.3c0.4,0.8,0.8,1.6,1.4,2.9
		c1.6-3.7,3.1-7,4.5-10.3c2.3-5.3,4.6-10.5,6.8-15.9c0.6-1.4,1.3-1.9,2.8-1.9c2.4,0.1,4.8,0,7.6,0c-0.4,1-0.6,1.6-0.8,2.2
		c-7.9,18.1-15.9,36.2-23.7,54.4c-0.7,1.6-1.6,2.3-3.3,2.1c-2.3-0.2-4.5,0-7.2,0c0.6-1.4,1-2.5,1.4-3.5c2.1-4.8,4.2-9.5,6.2-14.3
		c0.4-1,0.4-2.5,0-3.5c-5-11.4-10.1-22.8-15.1-34.2C131.5,328.7,131.1,327.8,130.6,326.4z"/>
	<path class="st1" d="M301.3,332.8c-2.2,1.9-4.2,3.7-6.4,5.6c-0.8-0.6-1.8-1.9-3.1-2.4c-1.9-0.8-4-1.7-5.9-1.6c-2.9,0.2-4,3.5-2,5.7
		c1,1.1,2.4,2,3.7,2.8c2.2,1.4,4.6,2.5,6.7,4c5.4,3.8,7.3,9.4,5.4,15.3c-1.9,5.7-7.4,9.4-13.7,9.3c-5.6-0.1-10.5-2.8-13.9-7.8
		c1.8-2,3.6-4.1,5.5-6.3c1.5,1.4,2.7,2.7,4.1,3.7c2.3,1.7,4.9,2.2,7.5,0.7c3-1.8,3.3-5.4,0.4-7.4c-2.6-1.8-5.4-3.2-8.1-4.8
		c-3.2-1.9-5.8-4.4-6.8-8.2c-1.2-4.7-0.3-9,3.2-12.4c3.7-3.6,8.2-4.5,13.2-3.1C295.2,327.1,298.2,329.6,301.3,332.8z"/>
	<path class="st1" d="M408.8,311c3,0,5.8,0,8.7,0c0,19.8,0,39.5,0,59.3c-2.9,0-5.7,0-8.7,0C408.8,350.6,408.8,330.9,408.8,311z"/>
	<path class="st1" d="M118.9,311c2.9,0,5.6,0,8.6,0c0,19.7,0,39.4,0,59.2c-2.8,0-5.6,0-8.6,0C118.9,350.6,118.9,330.9,118.9,311z"/>
</g>
</svg>
