<svg viewBox="0 0 200 200" xmlns="http://www.w3.org/2000/svg"><path d="m95.308 97.522-4.683 2.556 4.683 2.124 4.692-2.124-4.692-2.556Zm14.066 4.68h9.375v-4.68h-9.375v4.68ZM90.625 36.68v9.36l4.687-4.679-4.687-4.681Zm-18.751 70.202h56.249v-4.68h-56.25v4.68Zm4.686-4.68h9.375v-4.68H76.56v4.68Zm-6.617-38.358c1.165-1.615 2.769-2.69 4.687-3.237 1.502-.43 3.496-.462 3.496-.462 2.528 0 6.024.857 9.4 1.967 1.814.597 5.57 1.647 10.121 1.647h.032c4.541 0 8.304-.996 10.111-1.647 3.395-1.224 6.872-1.967 9.387-1.967 0 0 1.858-.031 3.512.434 1.912.53 3.506 1.65 4.688 3.265 1.165 1.62 1.93 3.943 1.94 6.712.013 3.203-.842 5.524-.842 5.53l-.276.737c-6.183-4.72-13.7-6.877-22.264-7.774-4.78-.462-9.26-.33-12.563 0-8.552.897-16.069 3.054-22.268 7.774l-.273-.737c0-.006-.841-2.327-.835-5.53 0-2.769.778-5.093 1.947-6.712Zm36.57 30.168-6.481-6.456 6.481-6.459v12.915Zm-8.85-8.817-6.478-6.447h12.969l-6.491 6.447ZM88.8 94.009V81.1l6.481 6.456L88.8 94.01ZM64.474 81.157l4.888 16.365c5.09-1.053 6.383-4.25 6.84-5.9-2.036-3.044-6.1-2.959-6.1-2.959.377-1.36 1.781-2.801 3.578-2.956 1.37-.127 1.887.297 1.887.297s-.308-1.375-.308-3.19c0-1.808 1.127-3.94 2.616-5.033 1.636 1.416 2.814 3.225 2.814 5.033 0 1.815-.492 3.19-.492 3.19s.62-.449 2.013-.297c1.439.152 2.823 1.138 3.443 2.956 0 0-4.103-.161-6.104 2.962 1.248 3.01 4.732 4.635 8.034 4.635 6.44 0 10.077-6.342 10.077-6.342s3.575 6.342 10.117 6.342c3.363 0 6.71-1.625 7.968-4.635-2.239-3.123-6.104-2.962-6.104-2.962.616-1.818 1.991-2.804 3.43-2.956 1.397-.152 2.023.297 2.023.297s-.308-1.375-.308-3.19c0-1.808 1.086-3.756 2.626-5.033 1.49 1.236 2.611 3.225 2.611 5.033 0 1.815-.296 3.19-.296 3.19s.203-.348 1.613-.297c1.655.05 3.405 1.404 3.843 2.956 0 0-4.154-.155-6.088 2.96.562 1.738 1.725 4.846 6.822 5.899l5.061-16.365a40.84 40.84 0 0 0 1.201-4.423c.454-2.178.705-4.53.616-5.988 0-3.677-1.324-7.31-3.166-9.842a13.65 13.65 0 0 0-7.469-5.172 17.91 17.91 0 0 0-4.868-.648c-3.659 0-6.758.613-11.357 2.374-.708.323-2.022.715-3.623 1.015a5.2 5.2 0 0 0 .619-2.482 5.266 5.266 0 0 0-5.271-5.27c-2.938 0-5.33 2.355-5.33 5.27 0 .889.233 1.717.623 2.457-1.518-.304-2.74-.674-3.426-.99-4.583-1.76-7.707-2.374-11.34-2.374a18.05 18.05 0 0 0-4.885.648c-2.981.828-5.627 2.62-7.465 5.172-1.842 2.533-3.319 6.165-3.319 9.842-.089 1.458.172 3.81.629 5.988.286 1.426.905 3.115 1.327 4.423ZM100 32h-9.375l4.695 4.68L100 32Zm-9.375 14.04H100l-4.683-4.68-4.692 4.68Zm14.064-9.36-4.688 4.681 4.688 4.679v-9.36Zm32.809 70.202h9.375l-4.684-4.68-4.691 4.68Zm31.164 30.046-.277.737c-6.183-4.724-13.696-6.874-22.264-7.778-4.78-.455-9.261-.326-12.563 0-8.553.904-16.066 3.054-22.265 7.778l-.273-.737c0-.006-.845-2.327-.836-5.53 0-2.769.775-5.09 1.944-6.712 1.169-1.615 2.769-2.69 4.691-3.237 1.502-.43 3.496-.465 3.496-.465 2.528 0 6.024.86 9.4 1.97 1.813.597 5.567 1.647 10.118 1.65h.035c4.538-.003 8.301-.999 10.108-1.65 3.398-1.227 6.872-1.97 9.387-1.97 0 0 1.858-.028 3.516.436 1.908.535 3.502 1.651 4.684 3.266 1.165 1.622 1.934 3.943 1.943 6.712.013 3.203-.844 5.524-.844 5.53Zm-19.963 17.926-6.478-6.456 6.478-6.459v12.915Zm-8.85-8.817-6.472-6.444h12.966l-6.494 6.444Zm-8.861 8.814v-12.909l6.482 6.456-6.482 6.453Zm43.993-23.26c0-3.68-1.324-7.313-3.166-9.845a13.618 13.618 0 0 0-7.466-5.169 17.924 17.924 0 0 0-4.871-.655c-3.659 0-6.758.617-11.357 2.378-.705.322-2.019.714-3.62 1.015.4-.746.616-1.578.616-2.482a5.266 5.266 0 0 0-5.272-5.271c-2.937 0-5.328 2.356-5.328 5.271 0 .888.235 1.72.622 2.456-1.518-.303-2.741-.673-3.423-.989-4.586-1.761-7.711-2.378-11.344-2.378a18.07 18.07 0 0 0-4.884.655 13.653 13.653 0 0 0-7.466 5.169c-1.842 2.532-3.316 6.165-3.316 9.845-.092 1.455.169 3.807.629 5.985.283 1.426.905 3.114 1.328 4.423l4.887 16.365c5.088-1.053 6.38-4.25 6.837-5.9-2.032-3.045-6.1-2.959-6.1-2.959.378-1.36 1.785-2.801 3.579-2.959 1.375-.124 1.889.303 1.889.303s-.311-1.378-.311-3.19 1.134-3.943 2.617-5.036c1.635 1.416 2.814 3.224 2.814 5.036 0 1.812-.49 3.19-.49 3.19s.617-.452 2.014-.303c1.438.154 2.82 1.141 3.442 2.959 0 0-4.103-.158-6.1 2.959 1.242 3.013 4.725 4.638 8.028 4.638 6.44 0 10.076-6.342 10.076-6.342s3.579 6.342 10.118 6.342c3.363 0 6.714-1.625 7.971-4.638-2.242-3.117-6.107-2.959-6.107-2.959.62-1.818 1.992-2.805 3.43-2.959 1.397-.149 2.026.303 2.026.303s-.311-1.378-.311-3.19 1.086-3.762 2.629-5.036c1.487 1.236 2.611 3.224 2.611 5.036 0 1.812-.299 3.19-.299 3.19s.204-.351 1.614-.303c1.654.053 3.404 1.406 3.842 2.959 0 0-4.154-.152-6.084 2.959.562 1.739 1.721 4.847 6.818 5.9l5.062-16.365a39.94 39.94 0 0 0 1.2-4.423c.454-2.178.708-4.53.616-5.985Zm-28.108-38.749h-9.375l4.694 4.68 4.681-4.68Z" fill="#020203"/><path d="m146.876 97.522-4.687 4.681 4.687 4.679v-9.36Zm-14.064 0v9.36l4.687-4.679-4.687-4.681Zm-18.751 70.201h56.25v-4.68h-56.25v4.68Zm28.12-9.36-4.683 2.555 4.683 2.125 4.692-2.125-4.692-2.555Zm-23.434 4.68h9.375v-4.68h-9.375v4.68Zm32.815 0h9.375v-4.68h-9.375v4.68Zm-79.688 0h9.375v-4.68h-9.375v4.68Zm-42.188 4.68h56.25v-4.68h-56.25v4.68Zm28.119-9.36-4.681 2.555 4.681 2.125 4.694-2.125-4.694-2.555Zm-23.432 4.68h9.375v-4.68h-9.375v4.68Zm18.751-56.161h9.375l-4.682-4.68-4.693 4.68Z" fill="#020203"/><path d="m88.972 136.928-.273.737c-6.186-4.724-13.7-6.874-22.267-7.778-4.78-.455-9.26-.326-12.563 0-8.552.904-16.066 3.054-22.261 7.778l-.277-.737c0-.006-.844-2.327-.835-5.53 0-2.769.778-5.09 1.944-6.712 1.168-1.615 2.769-2.69 4.69-3.237 1.502-.43 3.496-.465 3.496-.465 2.528 0 6.025.86 9.4 1.97 1.817.597 5.567 1.647 10.118 1.65h.038c4.538-.003 8.298-.999 10.105-1.65 3.398-1.227 6.872-1.97 9.387-1.97 0 0 1.861-.028 3.516.436 1.911.535 3.502 1.651 4.684 3.266 1.165 1.622 1.934 3.943 1.943 6.712.013 3.203-.844 5.524-.844 5.53Zm-19.958 17.926-6.482-6.456 6.482-6.459v12.915Zm-8.854-8.817-6.472-6.444h12.966l-6.494 6.444Zm-8.86 8.814v-12.909l6.481 6.456-6.481 6.453Zm40.826-33.105a13.608 13.608 0 0 0-7.466-5.169 17.911 17.911 0 0 0-4.871-.655c-3.659 0-6.758.617-11.356 2.378-.706.322-2.02.714-3.62 1.015a5.19 5.19 0 0 0 .615-2.482 5.266 5.266 0 0 0-5.271-5.271c-2.938 0-5.329 2.356-5.329 5.271 0 .888.235 1.72.622 2.456-1.518-.303-2.74-.673-3.423-.989-4.586-1.761-7.71-2.378-11.343-2.378-1.648 0-3.293.209-4.884.655a13.663 13.663 0 0 0-7.466 5.169c-1.842 2.532-3.316 6.165-3.316 9.845-.092 1.455.172 3.807.632 5.985.28 1.426.902 3.114 1.325 4.423l4.887 16.365c5.087-1.053 6.38-4.25 6.84-5.9-2.035-3.045-6.103-2.959-6.103-2.959.377-1.36 1.784-2.801 3.582-2.959 1.372-.124 1.886.303 1.886.303s-.308-1.378-.308-3.19 1.13-3.943 2.614-5.036c1.638 1.416 2.816 3.224 2.816 5.036 0 1.812-.492 3.19-.492 3.19s.616-.452 2.013-.303c1.442.154 2.824 1.141 3.443 2.959 0 0-4.103-.158-6.1 2.959 1.241 3.013 4.725 4.638 8.027 4.638 6.44 0 10.077-6.342 10.077-6.342s3.579 6.342 10.117 6.342c3.363 0 6.714-1.625 7.971-4.638-2.242-3.117-6.107-2.959-6.107-2.959.62-1.818 1.992-2.805 3.43-2.959 1.4-.149 2.026.303 2.026.303s-.311-1.378-.311-3.19 1.086-3.762 2.63-5.036c1.489 1.236 2.61 3.224 2.61 5.036 0 1.812-.299 3.19-.299 3.19s.203-.351 1.617-.303c1.654.053 3.404 1.406 3.839 2.959 0 0-4.154-.152-6.085 2.959.563 1.739 1.722 4.847 6.822 5.9l5.059-16.365a39.422 39.422 0 0 0 1.2-4.423c.457-2.178.711-4.53.616-5.985 0-3.68-1.324-7.313-3.166-9.845ZM48.438 97.522v9.36l4.687-4.676-4.688-4.684Zm14.064 0-4.688 4.684 4.688 4.676v-9.36Zm-.003-4.68h-9.375l4.696 4.68 4.679-4.68Z" fill="#020203"/></svg>