<svg xmlns="http://www.w3.org/2000/svg" viewBox="0 0 512 512"><path fill="#0d9ad2" d="M55.8 195.2h5.9v-61.7h17v-5h-40v5h17.1zm32-33c0-7.6 4.3-12.6 10.8-12.6 5.6 0 8.4 3.3 8.4 10.1v35.6h5.6v-37.2c0-9.3-5.1-13.1-12.6-13.1-5.8 0-10.6 3-12 8h-.2v-24.4h-5.6v66.8h5.6zm46.8 34.2c9.3 0 15-7 15.8-17.4h-5.6c-.9 8.6-4.5 12.8-10.4 12.8-5.5 0-10.5-4.4-10.5-18.5V171h26.9v-2c0-16.4-4.9-23.9-15.8-23.9-10.8 0-16.9 8.6-16.9 25.6.1 18.4 6.2 25.7 16.5 25.7m-.1-46.8c6.9 0 10.3 4.4 10.5 16.7h-20.9c.2-12.3 3.6-16.7 10.4-16.7M65 264.6c-.2 8.8-1.2 11.9-5.7 11.9-5 0-5.7-5.2-5.7-16.5 0-10.3.7-16.6 5.7-16.6 4 0 5.7 3.1 5.7 10.4h13.9c0-12-4.1-20.2-19.8-20.2-16.3 0-20.4 10.5-20.4 24.6 0 14.9 1.5 28.2 20.4 28.2 13.6 0 19.7-6.2 19.8-21.7H65zm37.9-31c-17.3 0-20.7 11.5-20.7 26.5s2.3 26.2 20.7 26.2c17.3 0 20.6-11.5 20.6-26.5s-2.3-26.2-20.6-26.2m.1 42.8c-4.4 0-5.7-4.3-5.7-16.6 0-12.1 1.3-16.5 5.7-16.5 4.6 0 5.6 4.2 5.6 16.6-.1 12.4-1 16.5-5.6 16.5m40.3-16.3c0 15 2.3 26.2 20.7 26.2 17.3 0 20.7-11.5 20.7-26.5s-2.3-26.2-20.7-26.2c-17.4 0-20.7 11.4-20.7 26.5m20.7-16.7c4.6 0 5.6 4.2 5.6 16.6 0 12.3-.9 16.5-5.6 16.5-4.4 0-5.7-4.3-5.7-16.6 0-12.2 1.3-16.5 5.7-16.5m49.1-9.8c-6.7 0-9.7 4-10.8 7.4h-.3v-6.1h-14.4v66.4h15v-21.8h.2c2.5 5.4 7 6.8 11.2 6.8 12.3 0 14.5-11.2 14.5-26.8 0-18.7-5.3-25.9-15.4-25.9m-5.3 41.7c-5.1 0-5.5-6.9-5.5-15.8 0-9.7.9-15.1 5.4-15.1 5.7 0 5.8 7.7 5.8 15.7 0 9.2-.2 15.2-5.7 15.2m63.8-12.9c0-17-1.3-28.8-19.9-28.8-16.3 0-20.4 10.5-20.4 24.6 0 14.9 1.5 28.2 20.4 28.2 12.4 0 19.2-6 19.5-18.4h-13.9c-.4 6.3-1.6 9.2-5.5 9.2-4.4 0-5.5-3.8-5.5-11.6v-3.1h25.3zm-19.5-19.6c4.2 0 5.1 3.8 5.1 10.8h-10.8c-.1-6.7.8-10.8 5.7-10.8m37.2-.9h-.2v-7h-14.5V285h15v-28.4c0-6.6 3.9-9.1 9.9-9.1 1.5 0 2.7.1 4.2.4v-14.1c-.9-.2-1.7-.2-2.4-.2-6.3 0-10.1 3.9-12 8.3m77.8-23.7h-15v16.7h-6.2v10.4h6.2V272c0 11.7 3 13.5 13.3 13.5 2.9 0 5.7-.2 8.6-.6v-10c-.7.1-1.5.2-2.1.2-3.5 0-4.8-1.1-4.8-4.6v-25.3h6.9v-10.4h-6.9zm11 16.7h15V285h-15zm0-16.8h15v11.5h-15zm45.7 16.8-6 36.9h-.2l-5.8-36.9h-15.6l12.4 50.1h17.7l12.5-50.1zm34.4 42.1c-4.4 0-5.5-3.8-5.5-11.6v-3.1H478c0-17-1.3-28.8-19.9-28.8-16.3 0-20.4 10.5-20.4 24.6 0 14.9 1.5 28.2 20.4 28.2 12.4 0 19.2-6 19.4-18.4h-13.9c-.3 6.2-1.5 9.1-5.4 9.1m.3-34.2c4.2 0 5.1 3.8 5.1 10.8h-10.8c-.1-6.7.8-10.8 5.7-10.8m-332.8 10.8h15v12.2h-15zm217.5-5.2c0-10.6-5.5-14.8-17.8-14.8-6.2 0-10.5.9-14 3.2-3.1 2.1-5 5.5-5.5 10.9h13.4c.5-2.8 1.9-4.4 5.2-4.4s4.7 2 4.7 5c0 3.8-.8 4.5-5.4 5.7-4.2 1.1-9.7 2-13.4 4.1-3.7 2-6.1 6.9-6.1 12.8 0 10.8 4.9 15.3 13.3 15.3 5 0 9.7-2.6 11.8-7h.2c.1 1.9.3 4 .8 5.7h14.4c-1.8-2.2-1.8-7-1.8-10.8v-25.7zm-14 20.6c0 5-2.9 6.9-6 6.9-2.8 0-4.4-2.4-4.4-6.4 0-2.8.7-4.4 2.3-5.6 1.4-1.1 3.4-1.2 8.2-3.7 0 2.1-.1 4.7-.1 8.8M56.4 338.7c-6.3 0-10.6 3.4-11.8 8.8h-.2v-25h-5.7v67.9h5.1V382h.2c1.5 5.8 6.4 9.5 12.4 9.5 11.1 0 16.2-8.9 16.2-26.4s-5.1-26.4-16.2-26.4m-.9 48c-5.8 0-11-2.9-11-21.7 0-18.6 5.2-21.6 11-21.6 5.7 0 11 2.9 11 21.6 0 18.8-5.3 21.7-11 21.7m54.8-4.8v-29.8c0-8-3.8-13.4-14.3-13.4-10.7 0-15.6 5.8-15.6 16.2h5.7c0-7.3 2.9-11.4 9.7-11.4 5.1 0 8.7 2.3 8.7 8.7 0 5.9-.9 6.8-4.8 8l-10.7 3c-7.1 2-10.2 7.3-10.2 14 0 8.7 4 14.3 12.8 14.3 5.6 0 10.8-1.9 13-8.6h.2v1.7c0 5.2 2.9 6.3 7.3 6.3.8 0 1.6-.2 2.7-.6v-4.2h-1.6c-1.9 0-2.9-1.3-2.9-4.2m-5.7-9.5c0 9-4.7 14.3-11.7 14.3-4.9 0-8-4-8-9.9 0-6 2.9-8.9 8.6-10.5l4.8-1.2c2.3-.6 5.5-1.6 6.1-3.3h.2zm35.7-33.7c-5.1 0-10.1 2.6-12.9 8.2h-.2v-7H122v50.5h5.7v-33.9c0-7.8 4.5-12.9 11.1-12.9 5.8 0 8.7 3.4 8.7 10.4v36.5h5.7v-38.1c0-9.7-5.2-13.7-12.9-13.7m55.9 1.1h-7.1l-19.6 25.1h-.1v-42.5h-5.8v67.9h5.8v-17.7l7.5-8.9 15 26.6h7l-18-31.7z"/></svg>