<?xml version="1.0" encoding="utf-8"?>
<!-- Generator: Adobe Illustrator 22.1.0, SVG Export Plug-In . SVG Version: 6.00 Build 0)  -->
<svg version="1.1" id="Layer_1" xmlns="http://www.w3.org/2000/svg" xmlns:xlink="http://www.w3.org/1999/xlink" x="0px" y="0px"
	 viewBox="0 0 512 512" style="enable-background:new 0 0 512 512;" xml:space="preserve">
<style type="text/css">
	.st0{fill:#0D9AD2;}
</style>
<g>
	<polygon class="st0" points="55.8,195.2 61.7,195.2 61.7,133.5 78.7,133.5 78.7,128.5 38.7,128.5 38.7,133.5 55.8,133.5 	"/>
	<path class="st0" d="M87.8,162.2c0-7.6,4.3-12.6,10.8-12.6c5.6,0,8.4,3.3,8.4,10.1v35.6h5.6v-37.2c0-9.3-5.1-13.1-12.6-13.1
		c-5.8,0-10.6,3-12,8h-0.2v-24.4h-5.6v66.8h5.6V162.2z"/>
	<path class="st0" d="M134.6,196.4c9.3,0,15-7,15.8-17.4h-5.6c-0.9,8.6-4.5,12.8-10.4,12.8c-5.5,0-10.5-4.4-10.5-18.5v-2.3h26.9v-2
		c0-16.4-4.9-23.9-15.8-23.9c-10.8,0-16.9,8.6-16.9,25.6C118.2,189.1,124.3,196.4,134.6,196.4z M134.5,149.6
		c6.9,0,10.3,4.4,10.5,16.7h-20.9C124.3,154,127.7,149.6,134.5,149.6z"/>
	<path class="st0" d="M65,264.6c-0.2,8.8-1.2,11.9-5.7,11.9c-5,0-5.7-5.2-5.7-16.5c0-10.3,0.7-16.6,5.7-16.6c4,0,5.7,3.1,5.7,10.4
		h13.9c0-12-4.1-20.2-19.8-20.2c-16.3,0-20.4,10.5-20.4,24.6c0,14.9,1.5,28.2,20.4,28.2c13.6,0,19.7-6.2,19.8-21.7H65z"/>
	<path class="st0" d="M102.9,233.6c-17.3,0-20.7,11.5-20.7,26.5c0,15,2.3,26.2,20.7,26.2c17.3,0,20.6-11.5,20.6-26.5
		C123.5,244.8,121.2,233.6,102.9,233.6z M103,276.4c-4.4,0-5.7-4.3-5.7-16.6c0-12.1,1.3-16.5,5.7-16.5c4.6,0,5.6,4.2,5.6,16.6
		C108.5,272.3,107.6,276.4,103,276.4z"/>
	<path class="st0" d="M143.3,260.1c0,15,2.3,26.2,20.7,26.2c17.3,0,20.7-11.5,20.7-26.5c0-15-2.3-26.2-20.7-26.2
		C146.6,233.6,143.3,245,143.3,260.1z M164,243.4c4.6,0,5.6,4.2,5.6,16.6c0,12.3-0.9,16.5-5.6,16.5c-4.4,0-5.7-4.3-5.7-16.6
		C158.3,247.7,159.6,243.4,164,243.4z"/>
	<path class="st0" d="M213.1,233.6c-6.7,0-9.7,4-10.8,7.4H202v-6.1h-14.4v66.4h15v-21.8h0.2c2.5,5.4,7,6.8,11.2,6.8
		c12.3,0,14.5-11.2,14.5-26.8C228.5,240.8,223.2,233.6,213.1,233.6z M207.8,275.3c-5.1,0-5.5-6.9-5.5-15.8c0-9.7,0.9-15.1,5.4-15.1
		c5.7,0,5.8,7.7,5.8,15.7C213.5,269.3,213.3,275.3,207.8,275.3z"/>
	<path class="st0" d="M271.6,262.4c0-17-1.3-28.8-19.9-28.8c-16.3,0-20.4,10.5-20.4,24.6c0,14.9,1.5,28.2,20.4,28.2
		c12.4,0,19.2-6,19.5-18.4h-13.9c-0.4,6.3-1.6,9.2-5.5,9.2c-4.4,0-5.5-3.8-5.5-11.6v-3.1H271.6z M252.1,242.8
		c4.2,0,5.1,3.8,5.1,10.8h-10.8C246.3,246.9,247.2,242.8,252.1,242.8z"/>
	<path class="st0" d="M289.3,241.9h-0.2v-7h-14.5V285h15v-28.4c0-6.6,3.9-9.1,9.9-9.1c1.5,0,2.7,0.1,4.2,0.4v-14.1
		c-0.9-0.2-1.7-0.2-2.4-0.2C295,233.6,291.2,237.5,289.3,241.9z"/>
	<path class="st0" d="M367.1,218.2h-15v16.7h-6.2v10.4h6.2V272c0,11.7,3,13.5,13.3,13.5c2.9,0,5.7-0.2,8.6-0.6v-10
		c-0.7,0.1-1.5,0.2-2.1,0.2c-3.5,0-4.8-1.1-4.8-4.6v-25.3h6.9v-10.4h-6.9V218.2z"/>
	<rect x="378.1" y="234.9" class="st0" width="15" height="50.1"/>
	<rect x="378.1" y="218.1" class="st0" width="15" height="11.5"/>
	<polygon class="st0" points="423.8,234.9 417.8,271.8 417.6,271.8 411.8,234.9 396.2,234.9 408.6,285 426.3,285 438.8,234.9 	"/>
	<path class="st0" d="M458.2,277c-4.4,0-5.5-3.8-5.5-11.6v-3.1H478c0-17-1.3-28.8-19.9-28.8c-16.3,0-20.4,10.5-20.4,24.6
		c0,14.9,1.5,28.2,20.4,28.2c12.4,0,19.2-6,19.4-18.4h-13.9C463.3,274.1,462.1,277,458.2,277z M458.5,242.8c4.2,0,5.1,3.8,5.1,10.8
		h-10.8C452.7,246.9,453.6,242.8,458.5,242.8z"/>
	<rect x="125.7" y="253.6" class="st0" width="15" height="12.2"/>
	<path class="st0" d="M343.2,248.4c0-10.6-5.5-14.8-17.8-14.8c-6.2,0-10.5,0.9-14,3.2c-3.1,2.1-5,5.5-5.5,10.9h13.4
		c0.5-2.8,1.9-4.4,5.2-4.4c3.3,0,4.7,2,4.7,5c0,3.8-0.8,4.5-5.4,5.7c-4.2,1.1-9.7,2-13.4,4.1c-3.7,2-6.1,6.9-6.1,12.8
		c0,10.8,4.9,15.3,13.3,15.3c5,0,9.7-2.6,11.8-7h0.2c0.1,1.9,0.3,4,0.8,5.7h14.4c-1.8-2.2-1.8-7-1.8-10.8V248.4z M329.2,269
		c0,5-2.9,6.9-6,6.9c-2.8,0-4.4-2.4-4.4-6.4c0-2.8,0.7-4.4,2.3-5.6c1.4-1.1,3.4-1.2,8.2-3.7C329.3,262.3,329.2,264.9,329.2,269z"/>
	<path class="st0" d="M56.4,338.7c-6.3,0-10.6,3.4-11.8,8.8h-0.2v-25h-5.7v67.9h5.1v-8.4h0.2c1.5,5.8,6.4,9.5,12.4,9.5
		c11.1,0,16.2-8.9,16.2-26.4C72.6,347.6,67.5,338.7,56.4,338.7z M55.5,386.7c-5.8,0-11-2.9-11-21.7c0-18.6,5.2-21.6,11-21.6
		c5.7,0,11,2.9,11,21.6C66.5,383.8,61.2,386.7,55.5,386.7z"/>
	<path class="st0" d="M110.3,381.9v-29.8c0-8-3.8-13.4-14.3-13.4c-10.7,0-15.6,5.8-15.6,16.2h5.7c0-7.3,2.9-11.4,9.7-11.4
		c5.1,0,8.7,2.3,8.7,8.7c0,5.9-0.9,6.8-4.8,8l-10.7,3c-7.1,2-10.2,7.3-10.2,14c0,8.7,4,14.3,12.8,14.3c5.6,0,10.8-1.9,13-8.6h0.2
		v1.7c0,5.2,2.9,6.3,7.3,6.3c0.8,0,1.6-0.2,2.7-0.6v-4.2h-1.6C111.3,386.1,110.3,384.8,110.3,381.9z M104.6,372.4
		c0,9-4.7,14.3-11.7,14.3c-4.9,0-8-4-8-9.9c0-6,2.9-8.9,8.6-10.5l4.8-1.2c2.3-0.6,5.5-1.6,6.1-3.3h0.2V372.4z"/>
	<path class="st0" d="M140.3,338.7c-5.1,0-10.1,2.6-12.9,8.2h-0.2v-7H122v50.5h5.7v-33.9c0-7.8,4.5-12.9,11.1-12.9
		c5.8,0,8.7,3.4,8.7,10.4v36.5h5.7v-38.1C153.2,342.7,148,338.7,140.3,338.7z"/>
	<polygon class="st0" points="196.2,339.8 189.1,339.8 169.5,364.9 169.4,364.9 169.4,322.4 163.6,322.4 163.6,390.3 169.4,390.3 
		169.4,372.6 176.9,363.7 191.9,390.3 198.9,390.3 180.9,358.6 	"/>
</g>
</svg>
