<svg xmlns="http://www.w3.org/2000/svg" viewBox="0 0 512 512"><path fill="#ed1c25" d="M239 258.6c-.9 18.2-10.8 32.7-26.6 37.9s-33 0-42.7-12.9c-17.4-23.3-5-57.8 23.1-63.2 4.9-.9 10.3-.3 15.4.6 4.2.7 5.9 4.2 4.8 7.8-1.3 4.1-4.5 3.7-7.8 2.8-14.4-3.8-28.9 6.1-31.9 21.6-3.4 17.8 8.5 33.6 25.9 34.2 18.7.6 32.1-16.7 27.4-35.3-.5-1.8-1.6-3.8-1.2-5.4.5-2.1 1.7-5.1 3.3-5.6 1.6-.6 5.4.9 6 2.3 1.9 4.9 2.9 10.1 4.3 15.2"/><path fill="#5c2e91" d="M54.5 295.6c-2.3.5-5 2.1-6.8 1.3-1.5-.6-2.6-3.9-2.6-6-.2-19.4-.1-38.7-.1-58.1v-4.9c-.7-.4-.9-.6-1.2-.6-3.5-.1-6.8-.7-6.4-5.1s4-4.2 7.2-4.1h2.6c5.6 0 6.7 1.2 6.8 6.9v14.3c0 13.3.1 26.6-.1 39.9 0 3 1 4.8 3.3 6.5 9.3 6.9 20.5 4 25-6.7 3.2-7.7 3-15.6-.1-23.2-3.2-8.1-9-11.2-17.6-9.3-3 .7-5.2.7-6-2.7-.9-3.5 1.2-4.9 4.2-5.7 12.8-3.4 24.9 2.5 28.4 15.2 1.9 6.9 2.5 14.7 1.6 21.7-2.3 16.4-18.1 30.2-38 19.4-.1.4-.1.8-.2 1.2m202.6 0c-2.3.6-5 2.1-6.7 1.4-1.5-.6-2.5-3.9-2.6-6-.2-19.2-.1-38.4-.1-57.6v-5.6c-3.7-.7-8.1-.2-7.6-5.5.6-5.3 4.8-4 8.1-4 8-.1 8.2.2 8.2 8.3 0 17.5.1 35-.1 52.4 0 3.1 1.1 5.1 3.5 6.9 9.6 6.9 20.8 3.8 25.1-7.2 3-7.6 2.8-15.3-.3-22.8-3.3-8.1-9-11.2-17.6-9.2-3.1.7-5.3.5-6-2.8-.8-3.4 1.2-4.9 4.3-5.7 12.7-3.3 24 2.4 28.3 14.8 3.6 10.3 3.7 20.7-1.1 30.7-6.5 13.5-19.9 18-33.4 11.6-.6-.3-1.3-.6-1.9-.9 0 .4 0 .8-.1 1.2m-111.4-34.1c0-6.3-2.2-10.7-7.3-13.4-10.7-5.7-23.7-.4-27.3 11.2-4.1 12.9 2 26.1 14 29.4 7.3 2 14.3 1.3 20.3-4 .4-.4.9-.8 1.3-1.1 2-1.7 4.2-2.2 6.1.1s1.5 4.5-.7 6.5c-9.1 8.1-19.5 10.3-31 6.6-11-3.5-17.6-11.5-19.5-22.7-.8-5-.8-10.5.3-15.4 4-17.8 23.4-26.7 39.8-18.6 11.1 5.5 14.4 15.9 12.9 26.4-.2 1.6-3.1 3.8-4.8 3.9-10.4.4-20.8.3-31.2.2-2.7 0-4.2-1.8-4.1-4.6.1-3 1.9-4.4 4.8-4.4h21.2c1.5-.1 3.1-.1 5.2-.1M349.9 288c1.4.2 2.1.4 2.8.4 3-.1 4.8 1.3 4.9 4.3.1 3.3-2 4.5-5 4.7-1.7.1-3.5 0-5.2.1-3.4.1-6-.9-6.5-4.5-5.3 1.8-10.3 4.1-15.6 5.2-11.9 2.6-22.1-5-21.9-15.8.1-6.3 2.8-11.7 8.7-13.9 6.6-2.5 13.8-3.7 20.8-5 1.1-.2 3.6 2 3.7 3.3s-1.5 3.7-2.9 4.2c-2.9 1-6.3.9-9.3 1.7-2.8.7-6 1.2-7.9 3s-3.5 5.3-3.2 7.7c.3 2.2 3.1 5.1 5.4 5.7 8 2 15-1.2 21.2-6.1.8-.6 1.2-2 1.2-3 0-7.8.1-15.6-.4-23.4-.5-6.8-3.7-9.8-10.4-10.4-3-.3-6.1.1-9 .7-3 .6-5 2.5-5.3 6-.3 3.2-2.4 4.6-5.5 4-3-.6-3.7-2.9-3.3-5.6.8-6.4 5.2-11.1 12.4-12.8 3.2-.7 6.6-1.1 9.9-1 13 0 20.1 7 20.4 20.1.2 8.5.1 17 .1 25.6-.1 1.3-.1 2.8-.1 4.8m84-29.9c3.7 0 6.9.3 9.9-.1 1.4-.2 3.1-1.5 4-2.8 4.1-5.4 7.9-11 11.8-16.6 1.8-2.6 4-4.6 7.1-2.3s1.8 5-.1 7.6c-4.4 6.1-8.8 12.2-13.3 18.2-1.5 2-1.7 3.6-.4 5.8 3.4 5.9 6.4 11.9 9.9 17.7.8 1.3 2.7 2.5 4.3 2.6 3 .3 4.7 1.5 4.8 4.4.1 3-1.7 4.3-4.6 4.6-6.2.7-8.3-.3-11.2-5.7l-9.9-18.3c-3.7-6.8-3.7-6.8-12.4-5.7v16.6c0 2.9.5 5.9-.2 8.6-.5 1.8-2.4 4-4.1 4.4-2.8.7-4.4-1.5-4.7-4.3-.1-1.1 0-2.3 0-3.5v-62c-1.6-.2-2.7-.2-3.8-.4-3.1-.6-5-4.7-2.9-7.1 3.4-3.8 8.2-1.8 12.3-1.5 1.3.1 3.2 3.5 3.3 5.5.3 9.5.2 19 .2 28.6zm-67.8-10c-3.8-.6-7.8-.4-7.3-5.4.1-1.1.6-2.3 1.4-3 3.1-2.8 12.6-.6 14.4 2.9 4.1-1.7 8.1-3.9 12.3-4.9 12.3-3 22.7 5.3 22.9 18 .2 9.4.1 18.8 0 28.2 0 2.8.1 4.6 3.8 4.7 1.4 0 3.7 2.5 3.7 4s-1.9 4-3.4 4.4c-2.9.7-6.1.6-9 0-1.4-.3-2.7-2.4-3.5-4-.6-1.2-.2-2.8-.2-4.3v-28.2c0-5.7-.6-11.1-6.9-13.6-5.2-2.1-13.5 0-17.4 4.7-1.2 1.4-1.8 3.6-1.8 5.4-.2 11.5-.1 23.1-.1 34.7 0 3.1-.5 5.7-4.2 5.8-3.9.2-4.8-2.6-4.8-5.8v-38.1c.1-1.7.1-3.4.1-5.5"/></svg>