<?xml version="1.0" encoding="utf-8"?>
<!-- Generator: Adobe Illustrator 22.1.0, SVG Export Plug-In . SVG Version: 6.00 Build 0)  -->
<svg version="1.1" id="Layer_1" xmlns="http://www.w3.org/2000/svg" xmlns:xlink="http://www.w3.org/1999/xlink" x="0px" y="0px"
	 viewBox="0 0 512 512" style="enable-background:new 0 0 512 512;" xml:space="preserve">
<style type="text/css">
	.st0{fill:#ED1C25;}
	.st1{fill:#5C2E91;}
</style>
<path class="st0" d="M239,258.6c-0.9,18.2-10.8,32.7-26.6,37.9c-15.8,5.2-33,0-42.7-12.9c-17.4-23.3-5-57.8,23.1-63.2
	c4.9-0.9,10.3-0.3,15.4,0.6c4.2,0.7,5.9,4.2,4.8,7.8c-1.3,4.1-4.5,3.7-7.8,2.8c-14.4-3.8-28.9,6.1-31.9,21.6
	c-3.4,17.8,8.5,33.6,25.9,34.2c18.7,0.6,32.1-16.7,27.4-35.3c-0.5-1.8-1.6-3.8-1.2-5.4c0.5-2.1,1.7-5.1,3.3-5.6
	c1.6-0.6,5.4,0.9,6,2.3C236.6,248.3,237.6,253.5,239,258.6z"/>
<path class="st1" d="M54.5,295.6c-2.3,0.5-5,2.1-6.8,1.3c-1.5-0.6-2.6-3.9-2.6-6c-0.2-19.4-0.1-38.7-0.1-58.1c0-1.7,0-3.4,0-4.9
	c-0.7-0.4-0.9-0.6-1.2-0.6c-3.5-0.1-6.8-0.7-6.4-5.1c0.4-4.4,4-4.2,7.2-4.1c0.9,0,1.7,0,2.6,0c5.6,0,6.7,1.2,6.8,6.9
	c0,4.8,0,9.5,0,14.3c0,13.3,0.1,26.6-0.1,39.9c0,3,1,4.8,3.3,6.5c9.3,6.9,20.5,4,25-6.7c3.2-7.7,3-15.6-0.1-23.2
	c-3.2-8.1-9-11.2-17.6-9.3c-3,0.7-5.2,0.7-6-2.7c-0.9-3.5,1.2-4.9,4.2-5.7c12.8-3.4,24.9,2.5,28.4,15.2c1.9,6.9,2.5,14.7,1.6,21.7
	c-2.3,16.4-18.1,30.2-38,19.4C54.6,294.8,54.6,295.2,54.5,295.6z"/>
<path class="st1" d="M257.1,295.6c-2.3,0.6-5,2.1-6.7,1.4c-1.5-0.6-2.5-3.9-2.6-6c-0.2-19.2-0.1-38.4-0.1-57.6c0-1.8,0-3.7,0-5.6
	c-3.7-0.7-8.1-0.2-7.6-5.5c0.6-5.3,4.8-4,8.1-4c8-0.1,8.2,0.2,8.2,8.3c0,17.5,0.1,35-0.1,52.4c0,3.1,1.1,5.1,3.5,6.9
	c9.6,6.9,20.8,3.8,25.1-7.2c3-7.6,2.8-15.3-0.3-22.8c-3.3-8.1-9-11.2-17.6-9.2c-3.1,0.7-5.3,0.5-6-2.8c-0.8-3.4,1.2-4.9,4.3-5.7
	c12.7-3.3,24,2.4,28.3,14.8c3.6,10.3,3.7,20.7-1.1,30.7c-6.5,13.5-19.9,18-33.4,11.6c-0.6-0.3-1.3-0.6-1.9-0.9
	C257.2,294.8,257.2,295.2,257.1,295.6z"/>
<path class="st1" d="M145.7,261.5c0-6.3-2.2-10.7-7.3-13.4c-10.7-5.7-23.7-0.4-27.3,11.2c-4.1,12.9,2,26.1,14,29.4
	c7.3,2,14.3,1.3,20.3-4c0.4-0.4,0.9-0.8,1.3-1.1c2-1.7,4.2-2.2,6.1,0.1c1.9,2.3,1.5,4.5-0.7,6.5c-9.1,8.1-19.5,10.3-31,6.6
	c-11-3.5-17.6-11.5-19.5-22.7c-0.8-5-0.8-10.5,0.3-15.4c4-17.8,23.4-26.7,39.8-18.6c11.1,5.5,14.4,15.9,12.9,26.4
	c-0.2,1.6-3.1,3.8-4.8,3.9c-10.4,0.4-20.8,0.3-31.2,0.2c-2.7,0-4.2-1.8-4.1-4.6c0.1-3,1.9-4.4,4.8-4.4c7.1,0,14.2,0,21.2,0
	C142,261.5,143.6,261.5,145.7,261.5z"/>
<path class="st1" d="M349.9,288c1.4,0.2,2.1,0.4,2.8,0.4c3-0.1,4.8,1.3,4.9,4.3c0.1,3.3-2,4.5-5,4.7c-1.7,0.1-3.5,0-5.2,0.1
	c-3.4,0.1-6-0.9-6.5-4.5c-5.3,1.8-10.3,4.1-15.6,5.2c-11.9,2.6-22.1-5-21.9-15.8c0.1-6.3,2.8-11.7,8.7-13.9c6.6-2.5,13.8-3.7,20.8-5
	c1.1-0.2,3.6,2,3.7,3.3c0.1,1.3-1.5,3.7-2.9,4.2c-2.9,1-6.3,0.9-9.3,1.7c-2.8,0.7-6,1.2-7.9,3c-1.9,1.8-3.5,5.3-3.2,7.7
	c0.3,2.2,3.1,5.1,5.4,5.7c8,2,15-1.2,21.2-6.1c0.8-0.6,1.2-2,1.2-3c0-7.8,0.1-15.6-0.4-23.4c-0.5-6.8-3.7-9.8-10.4-10.4
	c-3-0.3-6.1,0.1-9,0.7c-3,0.6-5,2.5-5.3,6c-0.3,3.2-2.4,4.6-5.5,4c-3-0.6-3.7-2.9-3.3-5.6c0.8-6.4,5.2-11.1,12.4-12.8
	c3.2-0.7,6.6-1.1,9.9-1c13,0,20.1,7,20.4,20.1c0.2,8.5,0.1,17,0.1,25.6C349.9,284.5,349.9,286,349.9,288z"/>
<path class="st1" d="M433.9,258.1c3.7,0,6.9,0.3,9.9-0.1c1.4-0.2,3.1-1.5,4-2.8c4.1-5.4,7.9-11,11.8-16.6c1.8-2.6,4-4.6,7.1-2.3
	c3.1,2.3,1.8,5-0.1,7.6c-4.4,6.1-8.8,12.2-13.3,18.2c-1.5,2-1.7,3.6-0.4,5.8c3.4,5.9,6.4,11.9,9.9,17.7c0.8,1.3,2.7,2.5,4.3,2.6
	c3,0.3,4.7,1.5,4.8,4.4c0.1,3-1.7,4.3-4.6,4.6c-6.2,0.7-8.3-0.3-11.2-5.7c-3.3-6.1-6.6-12.2-9.9-18.3c-3.7-6.8-3.7-6.8-12.4-5.7
	c0,5.5,0,11,0,16.6c0,2.9,0.5,5.9-0.2,8.6c-0.5,1.8-2.4,4-4.1,4.4c-2.8,0.7-4.4-1.5-4.7-4.3c-0.1-1.1,0-2.3,0-3.5
	c0-19.1,0-38.1,0-57.2c0-1.6,0-3.1,0-4.8c-1.6-0.2-2.7-0.2-3.8-0.4c-3.1-0.6-5-4.7-2.9-7.1c3.4-3.8,8.2-1.8,12.3-1.5
	c1.3,0.1,3.2,3.5,3.3,5.5c0.3,9.5,0.2,19,0.2,28.6C433.9,254.2,433.9,255.8,433.9,258.1z"/>
<path class="st1" d="M366.1,248.1c-3.8-0.6-7.8-0.4-7.3-5.4c0.1-1.1,0.6-2.3,1.4-3c3.1-2.8,12.6-0.6,14.4,2.9
	c4.1-1.7,8.1-3.9,12.3-4.9c12.3-3,22.7,5.3,22.9,18c0.2,9.4,0.1,18.8,0,28.2c0,2.8,0.1,4.6,3.8,4.7c1.4,0,3.7,2.5,3.7,4
	c0,1.5-1.9,4-3.4,4.4c-2.9,0.7-6.1,0.6-9,0c-1.4-0.3-2.7-2.4-3.5-4c-0.6-1.2-0.2-2.8-0.2-4.3c0-9.4,0-18.8,0-28.2
	c0-5.7-0.6-11.1-6.9-13.6c-5.2-2.1-13.5,0-17.4,4.7c-1.2,1.4-1.8,3.6-1.8,5.4c-0.2,11.5-0.1,23.1-0.1,34.7c0,3.1-0.5,5.7-4.2,5.8
	c-3.9,0.2-4.8-2.6-4.8-5.8c0-12.7,0-25.4,0-38.1C366.1,251.9,366.1,250.2,366.1,248.1z"/>
</svg>
