<?xml version="1.0" encoding="utf-8"?>
<!-- Generator: Adobe Illustrator 22.1.0, SVG Export Plug-In . SVG Version: 6.00 Build 0)  -->
<svg version="1.1" id="Layer_1" xmlns="http://www.w3.org/2000/svg" xmlns:xlink="http://www.w3.org/1999/xlink" x="0px" y="0px"
	 viewBox="0 0 512 512" style="enable-background:new 0 0 512 512;" xml:space="preserve">
<style type="text/css">
	.st0{fill-rule:evenodd;clip-rule:evenodd;fill:#004A6A;}
</style>
<g>
	<path class="st0" d="M320.9,302.7H481v-67.5H320.9V302.7L320.9,302.7z M479.2,236.9c0,1.8,0,62.2,0,64c-1.8,0-154.8,0-156.5,0
		c0-1.8,0-62.2,0-64C324.5,236.9,477.5,236.9,479.2,236.9L479.2,236.9z"/>
	<g>
		<path class="st0" d="M149.9,276.9c-0.7,0.4-1.4,1.8-1.4,3.5c0,1.4,0.4,2.5,1.1,2.8c1.1,0.7,2.8,0.7,6,0.7c2.8,0,4.6,0,6-0.4
			c2.1-0.7,2.1-2.5,2.1-4.6v-2.5h-7.8C152,276.5,151,276.5,149.9,276.9z"/>
		<path class="st0" d="M286.3,267.7c-2.8,0-4.9,0.4-6,1.1c-1.4,0.7-1.8,2.1-2.1,4.9h15.5c0-1.8,0-2.5-0.4-3.2
			C292.7,268.4,290.5,267.7,286.3,267.7z"/>
		<path class="st0" d="M34,235.2v67.5h279.9v-67.5H34z M135.8,273.3c0,6-2.1,13.8-16.3,13.8h-18V255h16.6c7.1,0,17.7,0.4,17.7,14.1
			V273.3z M168.6,274.4v12.7h-4.2l-0.4-1.8c-1.8,1.4-4.6,2.1-8.8,2.1c-8.5,0-11.7-1.8-11.7-7.1c0-2.1,0.4-3.2,1.1-4.6
			c1.8-2.5,5.3-2.5,8.1-2.5h11v-2.1c0-1.1,0-2.1-0.7-2.8c-1.1-0.7-3.9-0.7-7.4-0.7c-3.5,0-4.6,0.4-4.9,0.7c-0.7,0.7-0.7,2.1-0.7,2.8
			H145c0-1.1,0-1.8,0-2.5c0-1.1,0-1.8,0.7-2.1c2.1-2.1,8.1-2.1,10.2-2.1c2.8,0,8.5,0,11,1.8c1.1,0.7,1.4,1.8,1.8,2.8
			C168.6,270.5,168.6,271.9,168.6,274.4z M202.9,287.1H198v-12.4c0-4.2-0.4-5.3-1.1-6c-1.1-0.7-3.2-1.1-6-1.1
			c-2.5,0-5.3,0.4-7.8,1.1v18.4h-4.9v-22.6h4.6l0.4,1.8c0.7-0.7,1.4-1.1,2.5-1.4c1.8-0.4,3.5-0.7,6.4-0.7c3.2,0,5.7,0.7,7.4,1.4
			c1.8,0.7,2.8,2.1,3.2,3.9c0,1.1,0.4,2.1,0.4,4.6V287.1z M233.6,285.7c-2.1,1.1-5.7,1.8-10.6,1.8c-3.2-0.4-6-0.4-8.1-1.1
			c-2.1-0.4-3.2-1.4-3.5-3.5c0-1.1,0-1.8,0.4-3.2h4.6c0,1.4,0,1.8,0,1.8c0.4,1.1,0.4,1.8,1.4,2.1c1.4,0.4,3.2,0.7,5.7,0.7
			c3.2,0,5.3-0.4,6.7-1.1c1.1-0.4,1.4-1.4,1.4-2.8c0-1.8-0.4-2.5-2.1-2.8c-0.7,0-1.1,0-1.8,0c-0.4-0.4-1.4-0.4-3.2-0.4
			c-0.7,0-1.8,0-2.8,0c-4.6-0.4-9.9-0.4-9.9-6c0-5.3,3.2-7.1,11.7-7.1c2.1,0,4.9,0.4,6.4,0.4c2.1,0.4,3.5,0.7,4.6,1.4
			c1.1,0.4,1.4,1.4,1.4,3.2c0,0.7,0,1.1,0,1.8h-4.9v-1.1c-0.4-1.1-0.4-1.4-0.7-1.4c-0.7-0.7-2.8-1.1-5.7-1.1c-3.2,0-4.6,0.4-6,0.7
			c-1.4,0.4-1.8,1.4-1.8,2.8c0,1.1,0.4,2.1,0.7,2.5c1.4,0.7,8.1,0.7,10.2,0.7c2.5,0,3.9,0,5.3,0.7c2.5,0.7,3.5,2.5,3.5,5.7
			C236.5,282.9,235.8,284.6,233.6,285.7z M263.3,287.1l-11.7-10.6h-1.8v10.6h-4.6V255h4.6v18.4h1.8l9.9-8.8h5.7l-11.3,9.9l13.8,12.7
			H263.3z M298.3,276.9h-20.1v0.4c0,2.8,0.4,4.6,1.4,5.3c1.1,1.1,3.2,1.8,7.1,1.8c3.9,0,5.3-0.4,6-1.1c0.7-0.7,0.7-2.5,0.7-3.2h4.9
			c0,1.1,0,2.1,0,2.5c0,1.4-0.7,2.8-3.5,3.9c-2.8,0.7-5.3,1.1-8.8,1.1c-3.9,0-7.1-0.7-8.8-1.8c-2.8-1.4-3.9-4.6-3.9-9.5
			c0-3.2,0.4-5.7,1.4-7.4c1.4-2.8,5.3-4.2,11.7-4.2c4.6,0,8.1,0.7,9.9,2.8c1.8,1.4,2.1,3.5,2.1,7.1
			C298.3,275.4,298.3,275.8,298.3,276.9z"/>
		<path class="st0" d="M118.8,258.5h-12.4v24.7h12.7c8.1,0,11.7-3.2,11.7-9.9v-4.9C130.8,263.1,128.3,258.5,118.8,258.5z"/>
	</g>
	<path class="st0" d="M361.9,263.1c0,4.6-2.5,5.7-8.1,5.7h-12v-10.2h12.7C359.4,258.5,361.9,258.8,361.9,263.1L361.9,263.1z
		 M368.3,277.9c0-3.9-2.1-6.7-7.8-7.8l0,0c4.2-1.1,6.7-3.2,6.7-6.7c0-5.7-2.8-8.5-10.6-8.5h-20.1v32.2h20.8
		C364.4,287.1,368.3,283.9,368.3,277.9L368.3,277.9z M363.3,278.3c0,4.6-3.5,4.9-8.5,4.9h-13.1v-11h13.8
		C361.6,272.3,363.3,274.4,363.3,278.3L363.3,278.3z"/>
	<path class="st0" d="M394.8,279c0,2.1-0.4,3.9-2.5,4.6c-1.1,0.4-2.8,0.4-6,0.4c-2.8,0-4.6,0-5.7-0.7c-1.1-0.4-1.1-1.4-1.1-2.8
		c0-1.8,0.4-3.2,1.4-3.5c0.7-0.4,2.1-0.4,5.7-0.4h8.1V279L394.8,279z M399.4,287.1v-12.7c0-2.5,0-3.9,0-5.3
		c-0.4-1.1-0.7-2.1-1.8-2.8c-2.5-1.8-8.1-1.8-11-1.8c-2.1,0-7.8,0-9.9,2.1c-0.7,0.4-1.1,1.1-1.1,2.1c0,0.7,0,1.4,0,2.5h4.9
		c0-0.7,0-2.1,0.7-2.8c0.7-0.4,1.8-0.7,4.9-0.7c3.5,0,6.4,0,7.4,0.7c1.1,0.7,1.1,1.8,1.1,2.8v2.1h-11c-3.2,0-6.4,0-8.5,2.5
		c-0.7,1.4-1.1,2.5-1.1,4.6c0,5.3,3.2,7.1,11.7,7.1c4.6,0,7.4-0.7,9.2-2.1l0.4,1.8H399.4L399.4,287.1z"/>
	<path class="st0" d="M427.6,287.1v-12.4c0-4.2-0.4-5.3-1.4-6c-0.7-0.7-2.8-1.1-5.7-1.1c-2.8,0-5.3,0.4-7.8,1.1v18.4h-4.9v-22.6h4.2
		l0.4,1.8c1.1-0.7,1.8-1.1,2.8-1.4c1.8-0.4,3.5-0.7,6.4-0.7c3.2,0,5.3,0.7,7.4,1.4c1.8,0.7,2.5,2.1,3.2,3.9c0,1.1,0,2.1,0,4.6v13.1
		H427.6L427.6,287.1z"/>
	<polygon class="st0" points="459.1,287.1 447.4,276.5 445.7,276.5 445.7,287.1 440.7,287.1 440.7,255 445.7,255 445.7,273.3 
		447.4,273.3 457,264.5 462.6,264.5 451.3,274.4 465.5,287.1 459.1,287.1 	"/>
</g>
</svg>
