<svg xmlns="http://www.w3.org/2000/svg" viewBox="0 0 256 256"><path fill="#fff" d="M0 0h256v256H0z"/><path fill="#03426A" d="M0 0h256v140H0z"/><path fill="#fff" d="M51.364 101.199c0 7.327-3.939 10.946-12.757 10.946H24.73V84.713h13.429c10.654 0 13.205 5.183 13.205 10.857zm5.685-.223v-4.691c0-14.968-11.817-15.548-19.74-15.548H19v35.474h19.875c15.623 0 18.174-8.444 18.174-15.235m30.979 6.48c0 2.055-.18 3.932-2.552 4.78-1.387.537-3.357.715-6.67.715s-5.281-.312-6.445-1.072c-.806-.491-1.12-1.296-1.12-2.993 0-2.145.538-3.351 1.567-3.843 1.03-.491 2.328-.58 6.357-.58h8.863zm5.372 8.757v-13.94c0-2.636 0-4.467-.224-5.808-.269-1.385-.716-2.368-1.835-3.217-2.597-2.01-8.953-2.055-12.087-2.055-2.372 0-8.818.269-11.19 2.279-.807.67-.986 1.474-.986 2.457 0 .626.09 1.474.135 2.591h5.237c.09-.625.224-2.144.806-2.77.716-.67 1.925-.938 5.506-.938 4.118 0 6.983.134 8.192.805 1.119.625 1.074 1.965 1.074 2.993v2.412H75.942c-3.268 0-7.028.09-9.087 2.904-.94 1.207-1.343 2.77-1.343 4.781 0 5.897 3.626 7.863 12.936 7.863 4.835 0 8.013-.759 9.938-2.412l.493 2.055zm32.408-.002v-13.582c0-4.691-.224-5.674-1.343-6.523-1.074-.804-3.223-1.296-6.491-1.296-2.865 0-5.819.358-8.594 1.117v20.284h-5.327v-24.84h4.79l.358 1.786c1.074-.58 1.88-1.027 2.999-1.34 1.79-.536 4.029-.804 7.028-.804 3.402 0 6.043.536 8.057 1.43 1.97.848 3.044 2.457 3.447 4.333.269 1.296.403 2.413.403 5.227v14.208zm39.524-1.517c-2.462 1.25-6.491 1.786-11.728 1.786-3.626 0-6.625-.268-8.953-.893-2.507-.581-3.76-1.743-3.894-3.887-.09-1.117 0-2.1.134-3.44h5.148c.179 1.251.179 1.653.224 1.921.179 1.162.089 1.787 1.477 2.234 1.343.402 3.491.581 6.222.581 3.402 0 5.775-.358 7.341-1.073 1.119-.491 1.657-1.385 1.657-3.083 0-1.965-.403-2.769-2.462-3.082-.627-.134-1.254-.134-1.925-.179-.358-.045-1.522-.045-3.402-.089-.896 0-1.925-.09-3.134-.134-5.327-.268-10.967-.492-10.967-6.702 0-5.63 3.447-7.595 12.937-7.595 2.417 0 5.372.179 7.162.402 2.059.268 3.626.625 4.745 1.25 1.253.716 1.656 1.833 1.656 3.799 0 .536 0 1.072-.089 1.92h-5.193l-.224-1.116c-.268-1.34-.358-1.608-.805-1.921-.761-.581-3.044-.85-6.267-.85s-5.059.135-6.536.67c-1.388.492-2.014 1.386-2.014 3.173 0 1.206.447 2.1 1.029 2.502 1.388.849 8.729.759 11.236.804 2.686.045 4.432.268 5.954.804 2.73.939 3.805 2.726 3.805 6.344 0 2.905-.94 4.737-3.134 5.854m32.859 1.517-12.847-11.75h-1.881v11.75h-5.371V80.737h5.371v20.194h1.881l10.653-9.56h6.267l-12.399 10.945 15.443 13.895zm33.617-14.833h-17.145c.179-3.128.851-4.513 2.06-5.406 1.253-.894 3.536-1.34 6.893-1.34 4.656 0 6.849 1.027 7.655 3.171.313.894.537 1.743.537 3.575m4.924 7.059h-5.282c-.179.759-.269 2.68-.985 3.395-.806.805-2.417 1.162-6.715 1.162-4.252 0-6.58-.581-7.788-1.787-.896-.894-1.433-2.77-1.433-5.674v-.67h22.337c.045-1.207.135-1.519.135-2.502 0-4.11-.582-6.39-2.373-8.132-2.014-2.1-5.909-3.127-11.28-3.127-6.849 0-11.057 1.563-12.803 5.004-1.029 1.966-1.611 4.736-1.611 8.176 0 5.406 1.432 8.801 4.61 10.499 1.97 1.072 5.372 1.698 9.714 1.742 3.626 0 6.536-.178 9.714-1.117 3.089-.982 3.85-2.725 3.85-4.199 0-.358 0-1.564-.09-2.77"/><path fill="#03426A" d="M84.828 167.665c0 5.227-2.954 6.299-9.042 6.299H62.312v-11.259h14.145c5.417 0 8.371.492 8.371 4.96m7.028 16.53c0-4.378-2.507-7.595-8.505-8.533v-.089c4.655-1.207 7.162-3.619 7.162-7.417 0-6.255-3.044-9.427-11.683-9.427H56.582v35.474h23.143c7.789 0 12.131-3.529 12.131-10.008m-5.73.402c0 5.049-3.58 5.541-9.132 5.541H62.312v-12.153H77.71c6.58 0 8.415 2.1 8.415 6.612m34.782.851c0 2.055-.134 3.932-2.507 4.781-1.387.536-3.357.715-6.67.715s-5.282-.313-6.446-1.073c-.805-.491-1.119-1.295-1.119-2.993 0-2.145.537-3.351 1.612-3.842.985-.492 2.283-.581 6.356-.581h8.774zm5.417 8.757v-13.939c0-2.636-.001-4.468-.224-5.808-.269-1.385-.717-2.369-1.836-3.217-2.596-2.011-8.952-2.055-12.086-2.055-2.372 0-8.818.268-11.191 2.278-.806.67-.985 1.475-.985 2.457 0 .626.09 1.475.135 2.592h5.237c.134-.626.224-2.145.806-2.77.716-.671 1.925-.939 5.506-.939 4.118 0 6.983.134 8.192.805 1.119.625 1.029 1.965 1.029 2.993v2.412h-12.042c-3.267 0-7.027.09-9.087 2.905-.895 1.206-1.343 2.77-1.343 4.78 0 5.898 3.626 7.863 12.937 7.863 4.88 0 8.013-.759 9.938-2.412l.492 2.055zm31.066-.002v-13.582c0-4.691-.224-5.674-1.343-6.523-1.074-.804-3.223-1.295-6.491-1.295-2.864 0-5.819.357-8.594 1.117v20.283h-5.327v-24.841h4.79l.402 1.788c1.03-.581 1.836-1.028 3-1.341 1.745-.536 3.984-.804 6.983-.804 3.402 0 6.043.536 8.057 1.43 1.97.848 3.044 2.457 3.492 4.333.268 1.296.358 2.413.358 5.228v14.207zm34.736 0-12.847-11.75h-1.925v11.75h-5.327v-35.474h5.327v20.194h1.925l10.654-9.561h6.222l-12.4 10.946 15.444 13.895z"/></svg>