<?xml version="1.0" encoding="utf-8"?>
<!-- Generator: Adobe Illustrator 22.1.0, SVG Export Plug-In . SVG Version: 6.00 Build 0)  -->
<svg version="1.1" id="Layer_1" xmlns="http://www.w3.org/2000/svg" xmlns:xlink="http://www.w3.org/1999/xlink" x="0px" y="0px"
	 viewBox="0 0 512 512" style="enable-background:new 0 0 512 512;" xml:space="preserve">
<style type="text/css">
	.st0{fill:#4D6E5E;}
	.st1{fill:#7590AC;}
</style>
<path class="st0" d="M330.3,219.8c4.6-7.2,7.9-15.1,10-23.3c7.8-31.3-15.5-55.6-47.2-49.5c-36.6,7-63.8,38.9-64.5,76.2
	c-1.3,62.6,46.7,106.1,95.2,113.4c24.1,3.6,35.8-8.7,31.7-32.8c-2.9-16.9-9.6-32.3-18.1-47c-4.4-7.5-2-14.8,5.8-17.9
	c3-1.2,4.2,0.8,5.5,2.3c27.7,32,49.6,67,56.4,109.8c1.8,11.4,1.6,22.8,1.8,34.3c0.1,6.9-2.7,8.7-9.1,8.3
	c-43.3-2.3-83.3-13.6-119-39.3c-33.6-24.3-56.1-56.2-65.5-96.2c-8.7-36.7,1.5-68.7,29.4-94.6c2.4-1.6,4.9-3,5.3-6.3
	c23.2-16.5,47.6-30.6,75.4-38.4c18.8-5.3,38-8.2,57.5-9c6.7-0.3,9.1,1.8,8.4,8.6c-2.5,23.7-8.9,46.2-18.8,67.8
	c-11.2,24.5-27.2,45.7-46.5,63.7c-18,16.8-38.1,31.3-60.7,42.2c-8.6,4.1-10.1-2.4-12.7-6.8c-3.6-5.9,2.6-5.8,5.5-7.2
	c22.1-11,43.1-23.5,60.5-41.3c1.8-1.8,3.8-3.5,3.7-6.4C325.5,228.7,327.7,224.1,330.3,219.8z"/>
<path class="st1" d="M195.7,213.9c-8,11.9-14.5,22.3-21.9,32.1c-5.5,7.3-8.4,15.6-11.1,23.9c-4.3,13.2,0.3,20.7,13.7,24.1
	c10.4,2.7,20.8,2.1,31.2,0c6.7-1.4,15.7,7,14.9,13.6c-0.4,3-3.1,2.6-5,3.5c-13.9,6.7-29.1,8.2-44,10.9c-19.5,3.5-39.3,3.2-59,2.6
	c-6.5-0.2-7.9-3-6.1-8.3c7.1-21.1,16.6-40.5,32.4-57.1c14.5-15.2,29.3-29.8,46.2-42.3C189,215.6,191,214.6,195.7,213.9z"/>
<path class="st1" d="M330.3,219.8c-2.6,4.3-4.8,8.9-10,10.7c-9.2-9.5-18.3-19.1-27.5-28.6c-8.9-9.1-18.6-17.2-28.6-25.1
	c-2-1.5-6.2-2.6-3.6-6.4c2.5-3.7,5.6-1.7,8.2,0.2c18.2,13.3,36.3,26.8,52.5,42.5C324,215.7,326.3,219,330.3,219.8z"/>
<path class="st1" d="M248.1,157.3c-0.4,3.3-2.9,4.7-5.3,6.3c-1-5.9-6.3-7.7-10.4-10.4c-15.9-10.5-32-20.7-47.6-31.8
	C207.4,130.6,228.2,143.2,248.1,157.3z"/>
</svg>
