<svg xmlns="http://www.w3.org/2000/svg" viewBox="0 0 512 512"><path fill="#4d6e5e" d="M330.3 219.8c4.6-7.2 7.9-15.1 10-23.3 7.8-31.3-15.5-55.6-47.2-49.5-36.6 7-63.8 38.9-64.5 76.2-1.3 62.6 46.7 106.1 95.2 113.4 24.1 3.6 35.8-8.7 31.7-32.8-2.9-16.9-9.6-32.3-18.1-47-4.4-7.5-2-14.8 5.8-17.9 3-1.2 4.2.8 5.5 2.3 27.7 32 49.6 67 56.4 109.8 1.8 11.4 1.6 22.8 1.8 34.3.1 6.9-2.7 8.7-9.1 8.3-43.3-2.3-83.3-13.6-119-39.3-33.6-24.3-56.1-56.2-65.5-96.2-8.7-36.7 1.5-68.7 29.4-94.6 2.4-1.6 4.9-3 5.3-6.3 23.2-16.5 47.6-30.6 75.4-38.4 18.8-5.3 38-8.2 57.5-9 6.7-.3 9.1 1.8 8.4 8.6-2.5 23.7-8.9 46.2-18.8 67.8-11.2 24.5-27.2 45.7-46.5 63.7-18 16.8-38.1 31.3-60.7 42.2-8.6 4.1-10.1-2.4-12.7-6.8-3.6-5.9 2.6-5.8 5.5-7.2 22.1-11 43.1-23.5 60.5-41.3 1.8-1.8 3.8-3.5 3.7-6.4 5.2-1.7 7.4-6.3 10-10.6"/><path fill="#7590ac" d="M195.7 213.9c-8 11.9-14.5 22.3-21.9 32.1-5.5 7.3-8.4 15.6-11.1 23.9-4.3 13.2.3 20.7 13.7 24.1 10.4 2.7 20.8 2.1 31.2 0 6.7-1.4 15.7 7 14.9 13.6-.4 3-3.1 2.6-5 3.5-13.9 6.7-29.1 8.2-44 10.9-19.5 3.5-39.3 3.2-59 2.6-6.5-.2-7.9-3-6.1-8.3 7.1-21.1 16.6-40.5 32.4-57.1 14.5-15.2 29.3-29.8 46.2-42.3 2-1.3 4-2.3 8.7-3m134.6 5.9c-2.6 4.3-4.8 8.9-10 10.7-9.2-9.5-18.3-19.1-27.5-28.6-8.9-9.1-18.6-17.2-28.6-25.1-2-1.5-6.2-2.6-3.6-6.4 2.5-3.7 5.6-1.7 8.2.2 18.2 13.3 36.3 26.8 52.5 42.5 2.7 2.6 5 5.9 9 6.7m-82.2-62.5c-.4 3.3-2.9 4.7-5.3 6.3-1-5.9-6.3-7.7-10.4-10.4-15.9-10.5-32-20.7-47.6-31.8 22.6 9.2 43.4 21.8 63.3 35.9"/></svg>