<?xml version="1.0" encoding="utf-8"?>
<!-- Generator: Adobe Illustrator 22.1.0, SVG Export Plug-In . SVG Version: 6.00 Build 0)  -->
<svg version="1.1" id="Layer_1" xmlns="http://www.w3.org/2000/svg" xmlns:xlink="http://www.w3.org/1999/xlink" x="0px" y="0px"
	 viewBox="0 0 512 512" style="enable-background:new 0 0 512 512;" xml:space="preserve">
<style type="text/css">
	.st0{fill:#128585;}
</style>
<g>
	<path class="st0" d="M202.7,199.5c0-0.1,0-0.2,0-0.3c0-0.5,0-0.9,0-1.4c0-0.9-0.1-1.9-0.1-2.8c0-0.9,0.1-1.8,0.2-2.7
		c0.4-1.7,1.7-4.2,3.1-4.6c1.6-0.4,4.4,0.5,5.5,1.9c10.3,12.6,20.3,25.4,30.3,38.1c14.4,18.1,28.8,36.3,43.2,54.4
		c2.9,3.6,5.7,7.3,8.5,11c0.7,0.9,1.1,2.1,1.7,3.1c0.5-0.3,1-0.7,1.5-1c0.1-1.2,0.2-2.5,0.2-3.7c0-0.1,0-0.1,0-0.2
		c-0.1-82.1-0.1-164.2-0.2-246.4c0-0.1,0-0.2,0-0.3c0-15.1-0.3-30.1-0.4-45.2c-98.5,0-197.1,0-295.7,0c0,170.8,0,341.7,0,512.5
		c67.5,0,134.9,0,202.4,0c0,0,0-0.1,0-0.1c-0.1-104.1-0.1-208.2-0.2-312.1C202.7,199.7,202.7,199.6,202.7,199.5z M177.4,263.1
		c-0.1,2.3-0.3,4.6-0.6,7c-2,18-8.7,34.2-23.5,45.9c-9.5,7.5-20.5,12-32.6,12.3c-14.9,0.4-29.8,0.1-44.8,0.1c-3.9,0-5.2-1.6-5.2-6.1
		c0-21.3,0-42.6-0.1-63.9c0-21,0-42.1,0-63.1c0,0,0-0.1,0-0.1c0-5.8,1.1-7,6.9-6.9c15.5,0.1,31.2-0.8,46.6,0.7
		c18.7,1.8,33.5,11.4,43,28C175.3,231.4,178.2,247.1,177.4,263.1z"/>
	<path class="st0" d="M311.3-0.5c-0.1,2.4-0.1,4.8-0.2,7.2c-0.1,2-0.1,4-0.2,6c0,0.3,0,0.6,0,0.9c-0.1,102.8-0.1,205.6-0.2,308.5
		c0,0.7,0.3,1.7,0,2.4c0,0.1,0,0.2-0.1,0.2c-0.8,1.5-1.6,3.6-2.9,4.2c-1.1,0.5-3.5-0.4-4.5-1.5c-3.4-3.7-6.5-7.7-9.6-11.6
		C281.8,300.9,269.9,286,258,271c-9.9-12.5-19.7-24.9-29.6-37.3c-0.8-1-1.6-2.1-2.4-3.1c-1.2-1.5-2.4-2.9-3.6-4.4
		c-1.4-1.7-2.8-3.5-4.2-5.2c-0.3,0-0.6,0.1-0.9,0.2c0,96.9,0,193.8,0,290.7c0,0,0,0.1,0,0.1c98.1,0,196.2,0,294.3,0
		c0-170.8,0-341.7,0-512.5C444.8-0.5,378.1-0.5,311.3-0.5z M437.3,309.6c-2.1,3.1-4.4,5.7-6.9,8c-0.2,0.2-0.5,0.4-0.7,0.6
		c-0.4,0.3-0.8,0.7-1.2,1c-7.2,5.7-16,8.4-25.7,8.9c-18.6,0.8-37.3,0.3-56,0.3c-3.1,0-4.5-1.8-4.8-4.7c-0.1-0.8,0-1.7,0-2.5
		c0-41.7-0.1-83.5-0.1-125.2c0-3.3,0.3-5.2,1.4-6.2c1.1-1.1,2.9-1.4,6.2-1.4c16.9,0.1,33.8,0,50.6,0.6c15.4,0.6,30.1,12.1,32.3,25.5
		c0.6,3.5,1,6.9,1.1,10.3c0.4,9.6-1.6,18.8-8.9,26.3c-0.4,0.4-0.8,0.8-1.3,1.3c4.9,4.8,9.8,9,13.8,13.8c3.9,4.9,5.7,10.8,5.9,17.3
		C443.3,292.8,442.6,301.7,437.3,309.6z"/>
	<path class="st0" d="M88.5,314.3c9.2-0.2,18.4,0,27.6-0.2c12.2-0.2,23-4,31.7-12.7c9.7-9.6,13.8-21.9,14.6-35.2
		c0.4-6.6-0.2-13.3-1-19.9c-0.1-0.8-0.2-1.7-0.3-2.5c-1.4-10.7-5.6-20.2-13.1-28.1c-8.5-9-19.7-12.3-31.6-13.2
		c-9.1-0.7-18.2-0.1-27.3-0.4c-2.5-0.1-3.5,0.6-3.8,2.3c-0.1,0.5-0.1,1.1-0.1,1.8c0,0.1,0,0.1,0,0.2c0.1,8.6,0.1,17.2,0.1,25.8
		c0,8.6,0,17.2,0,25.8c-0.1,17.5-0.1,34.9-0.1,52.2c0,0,0,0,0,0C85.2,312.5,85.2,314.4,88.5,314.3z"/>
	<path class="st0" d="M402.1,262.4c-14.1-0.5-28.2-0.1-42.3-0.2c-2.4,0-3.1,0.8-3.1,3.1c0.1,7.7,0,15.3,0,23
		c-0.1,7.3,0,14.8-0.1,22.1c0,0,0,0.1,0,0.1c0,0,0,0,0,0.1c-0.1,3,0.9,3.9,3.9,3.9c10.4-0.2,20.8,0.2,31.2-0.2
		c6.3-0.2,12.7-0.8,18.8-2.2c13.1-2.9,18.9-14.1,18.8-24.5c-0.1-4.1-1-8.1-2.8-11.5C421.3,266.4,412.3,262.8,402.1,262.4z"/>
	<path class="st0" d="M358.5,247.7c13.9-0.1,27.6,0.1,41.5-0.2c0.1,0,0.2,0,0.2,0c2.4,0,5-0.7,7.3-1.7c0.5-0.2,0.9-0.4,1.3-0.6
		c8.4-4.3,12.2-15.2,9.7-25.5c-0.8-3.4-2-6.5-4.1-9c-0.4-0.5-0.8-0.9-1.3-1.4c0,0,0,0,0,0c-0.1-0.1-0.2-0.2-0.3-0.3
		c-0.9-0.8-1.9-1.5-3.1-2.1c-5.9-3.1-12.5-4.1-19-4.4c-9-0.4-17.9-0.2-26.9-0.3c-2.2,0-4.4,0-6.8,0c0,0-0.1,0-0.1,0
		c0,15.3,0,30.1,0,45.2C357.6,247.5,358,247.7,358.5,247.7C358.4,247.7,358.5,247.7,358.5,247.7z"/>
</g>
</svg>
