<?xml version="1.0" encoding="utf-8"?>
<!-- Generator: Adobe Illustrator 22.1.0, SVG Export Plug-In . SVG Version: 6.00 Build 0)  -->
<svg version="1.2" baseProfile="tiny" id="Layer_1" xmlns="http://www.w3.org/2000/svg" xmlns:xlink="http://www.w3.org/1999/xlink"
	 x="0px" y="0px" viewBox="0 0 512 512" xml:space="preserve">
<path fill="#E44820" d="M1,70v352h512V70H1z M339.4,305.5c0,3.5-1,4.9-3.7,5.5c-1,0.1-1.9,0.2-3,0.3c-0.9,0.3-5.2,0.6-5.9,1
	c-0.1,0.9-0.2,1.8-0.2,2.9c-0.1,9.8-0.1,19.6-0.2,29.4c-0.1,0.8-0.5,1.2-1.3,1.2c-4.1,0-8.1,0.1-12.2,0.1c-2.6,0-2.9,0.5-2.7,3.1
	c0.4,7,0.2,13.9-0.1,20.9c-0.1,1-0.6,1.6-1.5,2c-1,0.5-2.2,0.6-3.4,0.6c-31.1,0-62.2,0-93.3,0c-3.6,0-4.2-0.6-4.2-4.2
	c0-6.6,0-13.2,0-19.8c0-2.7-0.3-3-3-3c-3.1,0-6.3-0.1-9.3,0c-1.7,0.1-2.7-0.8-3.2-2.4c-0.3-0.9-0.5-1.9-0.4-3c0-5.2,0-10.3,0-15.6
	c0-2.6-0.3-2.8-2.9-2.8c-1.5,0-3.1-0.1-4.6,0c-1.6,0.1-3-0.4-4-1.6l0.2,0.1c0.5-0.8-0.7-3.4-0.7-4.4c0-0.6-0.8-1.4,0-1.7
	c0.2-4.9,0.2-9.7,0-14.7c0.2-0.6,0.3-1.2-0.5-1.5c-1.9-0.9-3.9-0.4-5.9-0.6c-1.7-0.2-3.8,0.3-5.1-1.5c0,0-0.4-0.3-0.2-0.5
	c-0.1-5.5-0.2-11.2-0.2-16.7c0-1.9,0.1-3.8,0.2-5.7c0-1.7-0.6-2.6-2.5-2.5c-1.7,0.1-3.6,0-5.3,0c-1.5,0-2.5-0.8-2.8-2.3
	c-0.6-2.4-0.3-4.7-0.3-7c-0.1-2.9-0.5-3.3-3.4-3.3c-2.3,0-4.4,0-6.7-0.1c-2.5-0.1-3.2-0.7-3.2-3.2c0-7.4,0-14.9,0-22.2
	c0-4,1.2-5.1,5.2-5.2c5.7,0,11.4,0,17.1,0c3.2,0,4.3,0.9,4.9,4.1c0.6,3,0.4,6,0.2,9.1c-0.2,2.2,0.3,2.8,2.5,2.8c1.7,0,3.6,0,5.3,0
	s2.9,0.8,3.2,2.6c0.2,1,0.3,2.2,0.3,3.2c0,8.9,0,17.7,0,26.6c0,3.4,0.3,3.7,3.7,3.7c0.7,0,1.5,0,2.3,0c2.7,0,3.6-0.8,3.5-3.5
	c-0.4-6,0.2-12.2,0.1-18.2c-0.1-8.8,0-17.7,0-26.5c0-12.4,0-24.9,0-37.3c0-12.4,0-24.8,0-37.3s0-25,0-37.5c0-3.5,0.7-4.3,4.3-4.3
	c7.7-0.1,15.5,0,23.2,0c2.2,0,3.1,0.9,3.3,3.2c0.1,1.4,0,2.9,0,4.4c0,35.8,0,71.6,0,107.3c0,2.6,0,2.6,2.7,2.7c1.5,0,3,0.5,4.5,0.2
	c1.7-0.3,2.4-1.1,2.4-3c-0.1-14.3,0-28.8,0-43.1c0-3.9,0.6-4.6,4.6-4.7c4.5-0.1,9.1-0.1,13.7-0.1c2.9,0,5.7,0,8.5,0
	c0.6-0.1,0.6-0.1,1.6,0.3c1.7,0.5,1.9,1.8,1.9,3.5c0,14.7,0,29.4,0,44.1c0,0.9,0.1,1.7,0.2,2.7c2,0,4.2-0.1,6.2,0
	c1.8,0.1,2.5-0.6,2.5-2.5c-0.1-12.3,0-24.6,0-36.8c0-1.3,0-2.6,1.7-2.9c0.1,0,0.2,0.1,0.4,0.1c7.6,0,15.2,0,22.7,0
	c2.4,0.1,3,0.7,3.3,2.8c0.5,3.3,0.5,6.6,0,9.8c-0.1,0.5-0.1,1.1-0.1,1.7c0,12,0,24.1,0,36.1c0,2.9,0.2,3.1,3.2,3.1c2,0,4.2,0,6.2,0
	c1,0,2-0.2,2.9-0.7c0.3-0.8-0.1-12-0.1-13.1c0-6.6,0-13.1,0-19.8c0-3.9,0.6-4.8,4.4-5.1c3.5-0.2,7.1-0.1,10.7-0.1
	c0.6,0,1.2,0.2,1.5,0.8c0.5,0.5,1,0.9,1.4,1.4c1.2,0.3,1.2,1.2,1.2,2.3c0,4.2,0,8.3,0,12.5c0,1.1,0.2,2.2,1.1,2.9
	c1.2,0.3,2.5,0.2,3.6,0.2l1.4,0.6c1.1,0.1,1.5,1,1.7,1.9c0.2,1.5,0.4,3.2,0.4,4.7C339.4,256.5,339.4,281,339.4,305.5z"/>
<path d="M348.2,222.9c-2,0-3-0.8-3.1-2.9c-0.3-4.5-0.1-9-0.1-13.5c0-0.9,0.1-1.9-0.9-2.5c-4.2,0-8.3,0.1-12.5,0.1
	c-1.1,0-1.8-0.5-1.8-1.7c-1-2.6-0.6-5.2-0.7-7.9c0-3.5,0-3.5-3.5-3.4c-4.9,0-9.7,0.1-14.7,0c-6.3-0.2-5.9-0.1-5.8-5.7
	c0-2.6,0-5,0-7.6c0-2.2-0.4-2.5-2.7-2.6c-10.2,0-20.4,0-30.6,0c-0.9,0-1.7,0-2.7,0c-3.7-0.1-3.9-0.4-4.1-4.1
	c-0.1-3.2-0.4-3.5-3.5-3.5c-6.6,0-13.2,0-19.8,0c-3.2,0-4.1-0.9-4.1-4.1c0-15.6,0-31.1,0-46.7c0-2.9-0.1-2.9-3-3.2
	c-2.4-0.3-4.7,0-7-0.2c-1.3-0.2-2.2-0.7-2.5-2.2c-0.5-2.7-0.1-5.4-0.2-8.2c0-0.9,0-1.9,0-2.9c0-1.7-0.7-2.6-2.7-2.6
	c-5.6,0.1-11.3,0.1-16.9,0c-3.3-0.1-6.6-0.4-9.8-0.3c-3.6,0.1-4.3,0.8-4.3,4.3c0,2.6,0.1,5.1,0,7.6c-0.2,3.6-1.6,4.1-4,4
	c-1.7-0.1-3.6,0-5.3,0c-1.3,0-1.9,0.7-2,1.9c0,0.7,0,1.5,0,2.3c0,34.8,0,69.7,0.1,104.5c0,3.8-1.9,5.4-5.8,4.8
	c-0.9-0.1-1.8-0.4-2.8-0.7c-1.4-0.5-2.3-1.4-2.3-3.2c0.1-1.8,0-3.7,0-5.5c0-1.9-0.6-2.7-2.7-2.7c-5.4,0-10.9,0-16.4,0
	c-2.6,0-5.2-0.2-7.8-0.4c-1.5-0.1-2.6,0.5-2.6,2.3c0,1.2-0.2,2.4-0.3,3.6c-0.1,1.4-0.7,2-2.2,2c-0.9,0-1.7,0-2.7,0
	c-2.5,0-3.2,0.6-3.2,3.2c0,10.2,0,20.5,0,30.8c0,3.2,0.5,3.6,3.7,3.6c1.3,0,2.7,0.1,4,0c3.3-0.3,4.1,1.6,4.4,4.2c0.2,1.3,0,2.7,0,4
	c0,2.9,1.2,4,4,4.1c1.7,0,3.4,0,5.1,0.3c1.9,0.4,2.8,1.3,2.7,3.4c-0.1,5.3,0,10.7,0,16c0,3,0.9,3.8,3.9,3.8c1.4,0,2.9,0,4.4,0
	c0.7,0,1.4-0.1,1.5,0.9c1.5,0.4,1.3,1.7,1.3,2.8c0,5.3,0,10.6,0,15.9c0,1,0,2.2,0.4,3.2c4,0.4,10,1.5,14,2.3
	c0.5-0.8-1.2-3.4-1.2-4.4c0-0.6-0.3-1.4,0.5-1.7c0.2-4.9,0.2-9.7,0-14.7c0.2-0.6,0.3-1.2-0.5-1.5c-1.9-0.9-3.9-0.4-5.9-0.6
	c-1.7-0.2-3.8,0.3-5.1-1.5c0,0-0.4-0.3-0.2-0.5c-0.1-5.5-0.2-11.2-0.2-16.7c0-1.9,0.1-3.8,0.2-5.7c0-1.7-0.6-2.6-2.5-2.5
	c-1.7,0.1-3.6,0-5.3,0c-1.5,0-2.5-0.8-2.8-2.3c-0.6-2.4-0.3-4.7-0.3-7c-0.1-2.9-0.5-3.3-3.4-3.3c-2.3,0-4.4,0-6.7-0.1
	c-2.5-0.1-3.2-0.7-3.2-3.2c0-7.4,0-14.9,0-22.2c0-4,1.2-5.1,5.2-5.2c5.7,0,11.4,0,17.1,0c3.2,0,4.3,0.9,4.9,4.1c0.6,3,0.4,6,0.2,9.1
	c-0.2,2.2,0.3,2.8,2.5,2.8c1.7,0,3.6,0,5.3,0s2.9,0.8,3.2,2.6c0.2,1,0.3,2.2,0.3,3.2c0,8.9,0,17.7,0,26.6c0,3.4,0.3,3.7,3.7,3.7
	c0.7,0,1.5,0,2.3,0c2.7,0,3.6-0.8,3.5-3.5c-0.4-6,0.2-12.2,0.1-18.2c-0.1-8.8,0-17.7,0-26.5c0-12.4,0-24.9,0-37.3s0-24.8,0-37.3
	s0-25,0-37.5c0-3.5,0.7-4.3,4.3-4.3c7.7-0.1,15.5,0,23.2,0c2.2,0,3.1,0.9,3.3,3.2c0.1,1.4,0,2.9,0,4.4c0,35.8,0,71.6,0,107.4
	c0,2.6,0,2.6,2.7,2.7c1.5,0,3,0.5,4.5,0.2c1.7-0.3,2.4-1.1,2.4-3c-0.1-14.3,0-28.8,0-43.1c0-3.9,0.6-4.6,4.6-4.7
	c4.5-0.1,9.1-0.1,13.7-0.1c2.9,0,5.7,0,8.5,0c0.6-0.1,0.6-0.1,1.6,0.3c1.7,0.5,1.9,1.8,1.9,3.5c0,14.7,0,29.4,0,44.1
	c0,0.9,0.1,1.7,0.2,2.7c2,0,4.2-0.1,6.2,0c1.8,0.1,2.5-0.6,2.5-2.5c-0.1-12.3,0-24.6,0-36.8c0-1.3,0-2.6,1.7-2.9
	c0.1,0,0.2,0.1,0.4,0.1c7.6,0,15.2,0,22.7,0c2.4,0.1,3,0.7,3.3,2.8c0.5,3.3,0.5,6.6,0,9.8c-0.1,0.5-0.1,1.1-0.1,1.7
	c0,12,0,24.1,0,36.1c0,2.9,0.2,3.1,3.2,3.1c2,0,4.2,0,6.2,0c1,0,2-0.2,2.9-0.7c0.3-0.8-0.1-12-0.1-13.1c0-6.6,0-13.1,0-19.8
	c0-3.9,0.6-4.8,4.4-5.1c3.5-0.2,7.1-0.1,10.7-0.1c0.6,0,1.2,0.2,1.5,0.8c0.5,0.5,1,0.9,1.4,1.4c1.2,0.3,1.2,1.2,1.2,2.3
	c0,4.2,0,8.3,0,12.5c0,1.1,0.2,2.2,1.1,2.9c1.2,0.3,2.5,0.2,3.6,0.2l1.4,0.6c1.1,0.1,1.5,1,1.7,1.9c0.2,1.5,0.4,3.2,0.4,4.7
	c0,24.5,0,49,0,73.5c0,3.5-1,4.9-3.7,5.5c-1,0.1-1.9,0.2-3,0.3c-0.9,0.3-5.2,0.6-5.9,1c-0.1,0.9-0.2,1.8-0.2,2.9
	c-0.1,9.8-0.1,19.6-0.2,29.4c-0.1,0.8-0.5,1.2-1.3,1.2c-4.1,0-8.1,0.1-12.2,0.1c-2.6,0-2.9,0.5-2.7,3.1c0.4,7,0.2,13.9-0.1,20.9
	c-0.1,1-0.6,1.6-1.5,2c-1,0.5-2.2,0.6-3.4,0.6c-31.1,0-62.2,0-93.3,0c-3.6,0-4.2-0.6-4.2-4.2c0-6.6,0-13.2,0-19.8c0-2.7-0.3-3-3-3
	c-3.1,0-6.3-0.1-9.3,0c-1.7,0.1-2.7-0.8-3.2-2.4c-0.3-0.9-0.5-1.9-0.4-3c0-5.2,0-10.3,0-15.6c0-2.6-0.3-2.8-2.9-2.8
	c-1.5,0-3.1-0.1-4.6,0c-1.6,0.1-3-0.4-4-1.6c-0.4,0.1-1-1.4-1.5-1.3c-0.3,7.7-0.1,17.2,0,24.8c0,2.8,0.7,3.2,3.6,3.2
	c2.6,0,5,0,7.6,0c3.6,0.1,4.7,1.2,4.7,4.8c0,10,0,20,0,30c0,3.5,0.1,3.6,3.7,3.6c37.4,0,74.8,0,112.2,0.1c4.9,0,9.8,0.3,14.8,0.3
	c2.4,0,3-0.6,2.9-3c-0.4-8.8-0.3-17.6-0.3-26.4c0-5.8,0.2-6,5.8-6c2.6,0,5.2,0,7.8,0c2.4,0,3.1-0.6,3-3.1
	c-0.4-9.9-0.3-19.9-0.3-29.8c0-1.1,0-2.2,0-3.3c0.3-3.3,0.6-3.5,3.9-3.9c2.2-0.2,2.9-1,2.9-3.4c0-26.6,0-53.3,0-79.8
	C352.2,224,351.5,223,348.2,222.9z"/>
</svg>
