<svg xmlns="http://www.w3.org/2000/svg" baseProfile="tiny" viewBox="0 0 512 512"><path fill="#E44820" d="M1 70v352h512V70zm338.4 235.5c0 3.5-1 4.9-3.7 5.5-1 .1-1.9.2-3 .3-.9.3-5.2.6-5.9 1-.1.9-.2 1.8-.2 2.9-.1 9.8-.1 19.6-.2 29.4-.1.8-.5 1.2-1.3 1.2-4.1 0-8.1.1-12.2.1-2.6 0-2.9.5-2.7 3.1.4 7 .2 13.9-.1 20.9-.1 1-.6 1.6-1.5 2-1 .5-2.2.6-3.4.6h-93.3c-3.6 0-4.2-.6-4.2-4.2v-19.8c0-2.7-.3-3-3-3-3.1 0-6.3-.1-9.3 0-1.7.1-2.7-.8-3.2-2.4-.3-.9-.5-1.9-.4-3v-15.6c0-2.6-.3-2.8-2.9-2.8-1.5 0-3.1-.1-4.6 0-1.6.1-3-.4-4-1.6l.2.1c.5-.8-.7-3.4-.7-4.4 0-.6-.8-1.4 0-1.7.2-4.9.2-9.7 0-14.7.2-.6.3-1.2-.5-1.5-1.9-.9-3.9-.4-5.9-.6-1.7-.2-3.8.3-5.1-1.5 0 0-.4-.3-.2-.5-.1-5.5-.2-11.2-.2-16.7 0-1.9.1-3.8.2-5.7 0-1.7-.6-2.6-2.5-2.5-1.7.1-3.6 0-5.3 0-1.5 0-2.5-.8-2.8-2.3-.6-2.4-.3-4.7-.3-7-.1-2.9-.5-3.3-3.4-3.3-2.3 0-4.4 0-6.7-.1-2.5-.1-3.2-.7-3.2-3.2v-22.2c0-4 1.2-5.1 5.2-5.2h17.1c3.2 0 4.3.9 4.9 4.1.6 3 .4 6 .2 9.1-.2 2.2.3 2.8 2.5 2.8h5.3c1.7 0 2.9.8 3.2 2.6.2 1 .3 2.2.3 3.2v26.6c0 3.4.3 3.7 3.7 3.7h2.3c2.7 0 3.6-.8 3.5-3.5-.4-6 .2-12.2.1-18.2-.1-8.8 0-17.7 0-26.5V118.9c0-3.5.7-4.3 4.3-4.3 7.7-.1 15.5 0 23.2 0 2.2 0 3.1.9 3.3 3.2.1 1.4 0 2.9 0 4.4v107.3c0 2.6 0 2.6 2.7 2.7 1.5 0 3 .5 4.5.2 1.7-.3 2.4-1.1 2.4-3-.1-14.3 0-28.8 0-43.1 0-3.9.6-4.6 4.6-4.7 4.5-.1 9.1-.1 13.7-.1h8.5c.6-.1.6-.1 1.6.3 1.7.5 1.9 1.8 1.9 3.5v44.1c0 .9.1 1.7.2 2.7 2 0 4.2-.1 6.2 0 1.8.1 2.5-.6 2.5-2.5-.1-12.3 0-24.6 0-36.8 0-1.3 0-2.6 1.7-2.9.1 0 .2.1.4.1h22.7c2.4.1 3 .7 3.3 2.8.5 3.3.5 6.6 0 9.8-.1.5-.1 1.1-.1 1.7v36.1c0 2.9.2 3.1 3.2 3.1h6.2c1 0 2-.2 2.9-.7.3-.8-.1-12-.1-13.1v-19.8c0-3.9.6-4.8 4.4-5.1 3.5-.2 7.1-.1 10.7-.1.6 0 1.2.2 1.5.8.5.5 1 .9 1.4 1.4 1.2.3 1.2 1.2 1.2 2.3v12.5c0 1.1.2 2.2 1.1 2.9 1.2.3 2.5.2 3.6.2l1.4.6c1.1.1 1.5 1 1.7 1.9.2 1.5.4 3.2.4 4.7z"/><path d="M348.2 222.9c-2 0-3-.8-3.1-2.9-.3-4.5-.1-9-.1-13.5 0-.9.1-1.9-.9-2.5-4.2 0-8.3.1-12.5.1-1.1 0-1.8-.5-1.8-1.7-1-2.6-.6-5.2-.7-7.9 0-3.5 0-3.5-3.5-3.4-4.9 0-9.7.1-14.7 0-6.3-.2-5.9-.1-5.8-5.7v-7.6c0-2.2-.4-2.5-2.7-2.6h-33.3c-3.7-.1-3.9-.4-4.1-4.1-.1-3.2-.4-3.5-3.5-3.5h-19.8c-3.2 0-4.1-.9-4.1-4.1v-46.7c0-2.9-.1-2.9-3-3.2-2.4-.3-4.7 0-7-.2-1.3-.2-2.2-.7-2.5-2.2-.5-2.7-.1-5.4-.2-8.2v-2.9c0-1.7-.7-2.6-2.7-2.6-5.6.1-11.3.1-16.9 0-3.3-.1-6.6-.4-9.8-.3-3.6.1-4.3.8-4.3 4.3 0 2.6.1 5.1 0 7.6-.2 3.6-1.6 4.1-4 4-1.7-.1-3.6 0-5.3 0-1.3 0-1.9.7-2 1.9v2.3c0 34.8 0 69.7.1 104.5 0 3.8-1.9 5.4-5.8 4.8-.9-.1-1.8-.4-2.8-.7-1.4-.5-2.3-1.4-2.3-3.2.1-1.8 0-3.7 0-5.5 0-1.9-.6-2.7-2.7-2.7H150c-2.6 0-5.2-.2-7.8-.4-1.5-.1-2.6.5-2.6 2.3 0 1.2-.2 2.4-.3 3.6-.1 1.4-.7 2-2.2 2h-2.7c-2.5 0-3.2.6-3.2 3.2V256c0 3.2.5 3.6 3.7 3.6 1.3 0 2.7.1 4 0 3.3-.3 4.1 1.6 4.4 4.2.2 1.3 0 2.7 0 4 0 2.9 1.2 4 4 4.1 1.7 0 3.4 0 5.1.3 1.9.4 2.8 1.3 2.7 3.4-.1 5.3 0 10.7 0 16 0 3 .9 3.8 3.9 3.8h4.4c.7 0 1.4-.1 1.5.9 1.5.4 1.3 1.7 1.3 2.8V315c0 1 0 2.2.4 3.2 4 .4 10 1.5 14 2.3.5-.8-1.2-3.4-1.2-4.4 0-.6-.3-1.4.5-1.7.2-4.9.2-9.7 0-14.7.2-.6.3-1.2-.5-1.5-1.9-.9-3.9-.4-5.9-.6-1.7-.2-3.8.3-5.1-1.5 0 0-.4-.3-.2-.5-.1-5.5-.2-11.2-.2-16.7 0-1.9.1-3.8.2-5.7 0-1.7-.6-2.6-2.5-2.5-1.7.1-3.6 0-5.3 0-1.5 0-2.5-.8-2.8-2.3-.6-2.4-.3-4.7-.3-7-.1-2.9-.5-3.3-3.4-3.3-2.3 0-4.4 0-6.7-.1-2.5-.1-3.2-.7-3.2-3.2v-22.2c0-4 1.2-5.1 5.2-5.2h17.1c3.2 0 4.3.9 4.9 4.1.6 3 .4 6 .2 9.1-.2 2.2.3 2.8 2.5 2.8h5.3c1.7 0 2.9.8 3.2 2.6.2 1 .3 2.2.3 3.2v26.6c0 3.4.3 3.7 3.7 3.7h2.3c2.7 0 3.6-.8 3.5-3.5-.4-6 .2-12.2.1-18.2-.1-8.8 0-17.7 0-26.5V119.2c0-3.5.7-4.3 4.3-4.3 7.7-.1 15.5 0 23.2 0 2.2 0 3.1.9 3.3 3.2.1 1.4 0 2.9 0 4.4v107.4c0 2.6 0 2.6 2.7 2.7 1.5 0 3 .5 4.5.2 1.7-.3 2.4-1.1 2.4-3-.1-14.3 0-28.8 0-43.1 0-3.9.6-4.6 4.6-4.7 4.5-.1 9.1-.1 13.7-.1h8.5c.6-.1.6-.1 1.6.3 1.7.5 1.9 1.8 1.9 3.5v44.1c0 .9.1 1.7.2 2.7 2 0 4.2-.1 6.2 0 1.8.1 2.5-.6 2.5-2.5-.1-12.3 0-24.6 0-36.8 0-1.3 0-2.6 1.7-2.9.1 0 .2.1.4.1h22.7c2.4.1 3 .7 3.3 2.8.5 3.3.5 6.6 0 9.8-.1.5-.1 1.1-.1 1.7v36.1c0 2.9.2 3.1 3.2 3.1h6.2c1 0 2-.2 2.9-.7.3-.8-.1-12-.1-13.1v-19.8c0-3.9.6-4.8 4.4-5.1 3.5-.2 7.1-.1 10.7-.1.6 0 1.2.2 1.5.8.5.5 1 .9 1.4 1.4 1.2.3 1.2 1.2 1.2 2.3v12.5c0 1.1.2 2.2 1.1 2.9 1.2.3 2.5.2 3.6.2l1.4.6c1.1.1 1.5 1 1.7 1.9.2 1.5.4 3.2.4 4.7v73.5c0 3.5-1 4.9-3.7 5.5-1 .1-1.9.2-3 .3-.9.3-5.2.6-5.9 1-.1.9-.2 1.8-.2 2.9-.1 9.8-.1 19.6-.2 29.4-.1.8-.5 1.2-1.3 1.2-4.1 0-8.1.1-12.2.1-2.6 0-2.9.5-2.7 3.1.4 7 .2 13.9-.1 20.9-.1 1-.6 1.6-1.5 2-1 .5-2.2.6-3.4.6H212c-3.6 0-4.2-.6-4.2-4.2v-19.8c0-2.7-.3-3-3-3-3.1 0-6.3-.1-9.3 0-1.7.1-2.7-.8-3.2-2.4-.3-.9-.5-1.9-.4-3v-15.6c0-2.6-.3-2.8-2.9-2.8-1.5 0-3.1-.1-4.6 0-1.6.1-3-.4-4-1.6-.4.1-1-1.4-1.5-1.3-.3 7.7-.1 17.2 0 24.8 0 2.8.7 3.2 3.6 3.2h7.6c3.6.1 4.7 1.2 4.7 4.8v30c0 3.5.1 3.6 3.7 3.6 37.4 0 74.8 0 112.2.1 4.9 0 9.8.3 14.8.3 2.4 0 3-.6 2.9-3-.4-8.8-.3-17.6-.3-26.4 0-5.8.2-6 5.8-6h7.8c2.4 0 3.1-.6 3-3.1-.4-9.9-.3-19.9-.3-29.8v-3.3c.3-3.3.6-3.5 3.9-3.9 2.2-.2 2.9-1 2.9-3.4v-79.8c1-3.3.3-4.3-3-4.4"/></svg>