<?xml version="1.0" encoding="utf-8"?>
<!-- Generator: Adobe Illustrator 22.1.0, SVG Export Plug-In . SVG Version: 6.00 Build 0)  -->
<svg version="1.1" id="Layer_1" xmlns="http://www.w3.org/2000/svg" xmlns:xlink="http://www.w3.org/1999/xlink" x="0px" y="0px"
	 viewBox="0 0 512 512" style="enable-background:new 0 0 512 512;" xml:space="preserve">
<style type="text/css">
	.st0{fill:#7EC346;}
	.st1{fill:#7DC243;}
	.st2{fill:#7FC346;}
	.st3{fill:#76C136;}
</style>
<path class="st0" d="M36.9,247.9c1.6-1.3,1.3-3.4,1.9-5.1c4-12.3,15.7-19.8,28.1-17.9c12.6,1.9,21.6,12.2,22,25c0.1,3-0.6,4.1-3.8,4
	c-11.9-0.2-23.9,0.1-35.8-0.2c-4.3-0.1-4.8,1.6-3.9,5c2.1,7.8,7,12.4,14.9,13.9c8.2,1.5,14.4-1.7,19.1-8.2c1.2-1.6,1.6-3.9,4.8-2
	c3.4,1.9,3.1,3.5,1.3,6.2c-6.5,9.2-15.5,12.7-26.3,11.1c-10.5-1.5-17.1-7.9-20.5-17.9c-0.5-1.6-0.2-3.5-1.9-4.6
	C36.9,254.2,36.9,251.1,36.9,247.9z M62.8,247c5.2,0,10.3-0.1,15.5,0c2.3,0,3.1-0.3,2.2-2.9c-2.4-7-9.3-12.3-16.7-12.4
	c-8-0.1-15.3,4.9-17.9,12c-1,2.7-0.2,3.3,2.4,3.2C53.1,246.9,58,247,62.8,247z"/>
<path class="st1" d="M248.3,209.4c3.5,0,7,0,10.4,0c0.3,0.3,0.6,0.5,0.8,0.8c0,6.6,0,13.2,0,20.7c6.9-6.5,14.6-7.9,22.8-6.1
	c6.6,1.4,11.7,5.1,15.6,10.7c8.3,11.9,6.6,29.4-3.8,38.9c-10,9.1-23.6,8.8-34.9-1c-1.2,1.7,0.7,4.9-1.2,5.4
	c-2.9,0.8-6.2,0.4-9.3,0.4c-1.9,0-1.6-1.6-1.6-2.8c0.1-22,0.1-44,0.2-66C247.6,209.9,247.9,209.6,248.3,209.4z M274.8,236.6
	c-8.7,0.1-15.9,7-15.9,15.3c0,9.1,7.1,16.2,16.1,16.4c8.5,0.1,15.3-6.8,15.5-15.7C290.6,243.6,283.8,236.6,274.8,236.6z"/>
<path class="st1" d="M353.1,226.1c3.1,0,6.2,0,9.4,0c0.3,0.4,0.6,0.7,0.9,1.1c0.1,16.2,0.1,32.3,0.2,48.5c0,2.6-0.7,3.8-3.4,3.4
	c-0.9-0.1-1.9-0.1-2.8,0c-4.3,0.5-6.8-0.6-4.8-7c-6.9,5.9-13.4,9.4-21.3,8.7c-7.9-0.8-14.4-4.3-18.9-10.9
	c-8.1-11.8-6.6-28.7,3.4-38.5c9.8-9.6,22.2-9.5,35.5,0.3c1.1-1.4,0.2-3,0.7-4.5C352.4,226.8,352.8,226.5,353.1,226.1z M351.3,252.2
	c-0.1-9.1-6.4-15.6-15.3-15.6c-9.2,0-16,6.9-15.9,16.2c0,8.5,7.2,15.6,15.8,15.5C344.9,268.3,351.4,261.5,351.3,252.2z"/>
<path class="st0" d="M477,278.8c-1.3,0.2-1.8,0.2-2.2,0.3c-10.5,1.9-18.3-1.3-23.3-11.3c-2.2-4.4-5.8-8.1-9.7-11.8
	c0,6.5-0.1,13,0.1,19.5c0.1,2.9-0.8,3.7-3.7,3.7c-9.3,0.1-9.3,0.2-9.3-8.9c0-20,0-39.9,0-59.9c0-0.3,0.1-0.6,0.2-1.4
	c3.2,1.1,6.2-0.5,9.4-0.7c2.7-0.2,3.5,0.7,3.5,3.4c-0.1,11.9-0.1,23.9-0.1,35.8c0,0.6,0.1,1.1,0.2,2.9c5.1-7.4,9.7-13.6,13.7-20.2
	c2.2-3.7,4.8-4.9,8.8-4.5c2.8,0.3,5.6,0.1,9.5,0.1c-2.2,3-4,5.5-5.8,7.9c-3.3,4.4-6.2,9.2-9.9,13.2c-3.6,3.9-2.8,6.5,0.4,10.1
	C465,263.8,470.6,271.1,477,278.8z"/>
<path class="st0" d="M372.8,252.4c0-7.7,0.1-15.4-0.1-23.1c-0.1-2.7,0.9-4,3.5-3.3c2.9,0.8,7-2.4,8.8,2.6c0.5,1.3,1.5-0.1,2.2-0.5
	c15.8-9.6,32.4-0.6,32.8,17.8c0.3,9.9,0,19.8,0.1,29.7c0,2.6-0.6,3.5-3.4,3.6c-9.6,0.2-9.6,0.3-9.6-9.1c0-7.4,0.1-14.8-0.2-22.2
	c-0.3-7.1-4.3-11.2-10.2-11.2c-6.2,0-10.4,4.2-10.7,11.3c-0.3,8.8-0.4,17.6-0.2,26.4c0.1,3.5-0.7,4.9-4.6,4.8
	c-8.4-0.3-8.4,0-8.4-8.4C372.8,264.7,372.8,258.5,372.8,252.4z"/>
<path class="st0" d="M139.8,226.1c1.5,0,3.1,0,4.6,0c0.3,0.4,0.7,0.7,1,1.1c0.1,16.3,0.1,32.7,0.2,49c0,2.7-1.3,3.1-3.4,3
	c-1.9-0.1-4,0.4-3.7-2.7c0.1-0.9-0.1-1.8-0.2-3.8c-6.6,5.3-13.4,8.3-21.4,7.4c-8.1-1-14.5-4.8-18.9-11.7C91,257,92.4,241,101.2,232
	c9.2-9.3,21.9-9.5,36.8-0.4c1.1-1.4,0.1-3,0.7-4.5C139.1,226.8,139.4,226.4,139.8,226.1z M138.7,251.5c-0.1-11.7-8-19.8-19.4-19.7
	c-10.3,0.1-18.3,9.2-18.3,20.5c0,11.8,8.5,21,19.1,20.9C131,273.1,138.8,264,138.7,251.5z"/>
<path class="st2" d="M216.7,270c5.9-13.9,11.6-27.2,17.3-40.5c0.6-1.4,0.6-3.4,2.6-3.6c1.8-0.2,4.2-0.6,5.5,0.2
	c1.7,1.2-0.3,3.1-0.8,4.5c-10,24.9-20.1,49.7-30.2,74.6c-0.6,1.5-0.7,3.7-3,3.7c-1.8,0-4.1,0.9-5.4-0.5c-1-1.1,0.5-2.9,1.1-4.3
	c2.6-7.1,5.1-14.2,7.9-21.2c1.2-3.1,0.9-5.6-0.5-8.5c-7-14.6-13.9-29.2-20.8-43.8c-0.7-1.4-1.3-2.8-1.9-4.3c6.7-1.6,7.1-1.5,9.8,4.3
	C204.2,243.6,210.3,256.5,216.7,270z"/>
<path class="st2" d="M171.4,280.1c-8.3,0-15.4-4.8-17.9-12.1c-0.6-1.7-1.4-3.5,1.3-4c2-0.4,4.1-2.6,5.9,1c3.6,7.4,8.7,9.7,14.6,7.4
	c4-1.6,6.2-4.6,6.4-9c0.2-4.3-2.2-6.6-5.9-8.1c-3.3-1.4-6.8-2.5-10-4.1c-8.1-4-10.9-11-7.5-18.2c3.4-7.2,12.6-10.3,20.1-6.8
	c2,0.9,4,2.1,5.3,3.9c1.1,1.5,4.1,3.1,1.4,5.3c-1.9,1.5-4.3,3.8-6.8-0.3c-2.3-3.7-7-4.2-10.5-2c-4.6,2.9-4.7,8.3,0.1,11
	c3.3,1.8,7,2.9,10.4,4.4c8.8,3.9,12.2,10.1,10.4,18.7C187.1,274.8,180,280.1,171.4,280.1z"/>
<path class="st3" d="M139.8,226.1c-0.4,0.4-0.7,0.7-1.1,1.1C138.7,226.4,139,226.1,139.8,226.1z"/>
<path class="st3" d="M145.4,227.2c-0.3-0.4-0.7-0.7-1-1.1C145.2,226.1,145.5,226.5,145.4,227.2z"/>
<path class="st3" d="M353.1,226.1c-0.4,0.4-0.7,0.7-1.1,1.1C352,226.4,352.4,226.1,353.1,226.1z"/>
<path class="st3" d="M363.4,227.1c-0.3-0.4-0.6-0.7-0.9-1.1C363.2,226,363.4,226.5,363.4,227.1z"/>
<path class="st3" d="M259.6,210.1c-0.3-0.3-0.6-0.5-0.8-0.8C259.3,209.3,259.6,209.5,259.6,210.1z"/>
<path class="st3" d="M248.3,209.4c-0.3,0.3-0.6,0.5-1,0.8C247.3,209.5,247.7,209.3,248.3,209.4z"/>
</svg>
