<?xml version="1.0" encoding="utf-8"?>
<!-- Generator: Adobe Illustrator 22.1.0, SVG Export Plug-In . SVG Version: 6.00 Build 0)  -->
<svg version="1.1" id="Layer_1" xmlns="http://www.w3.org/2000/svg" xmlns:xlink="http://www.w3.org/1999/xlink" x="0px" y="0px"
	 viewBox="0 0 512 512" style="enable-background:new 0 0 512 512;" xml:space="preserve">
<style type="text/css">
	.st0{fill:#F07D18;}
	.st1{fill:#368732;}
</style>
<path class="st0" d="M263.7,69.3c3.2,3.9,6.9,7.4,9.5,11.7c13.2,21.9,24.7,44.6,29.4,70c4.6,24.7-1.7,45.8-22.1,61.8
	c-8.3,6.5-15.8,13.9-18.9,24.4c-1.6,5.5-2.1,11.3-3.2,17.2c-14.2-18.2-18.9-40.2-2.6-56.6c3.8-3.9,7.6-7.8,11.9-11.1
	c17.1-13.2,20.7-30.4,15.1-50.4c-0.7-2.6-1.6-5.1-2.5-7.7c-0.1-0.3-0.6-0.5-1.3-1c-0.7,1-1.7,1.9-1.8,2.9
	c-1.3,14.9-11.2,24.6-21,34.4c-4.9,4.9-10.1,9.4-15.1,14.1c-13.9,12.8-16.8,28.2-10.3,45.6c0.5,1.4,1,2.7,1.6,4.3
	c-23.2-17-28.9-49.4-7.1-70.3c6.3-6,12.8-12,18.5-18.7c12.1-14.2,15.9-31.4,16.4-49.5c0.2-6.6,0-13.2,0-19.8
	C261.4,70.2,262.6,69.8,263.7,69.3z"/>
<path class="st1" d="M301.6,245c4.7,20.9-6.4,38.4-19.2,46.2c-15.9,9.8-36.6,9.4-51.5-1.3c-13.8-9.8-21-26.8-17.4-42.4
	c9.7,18.6,24.5,28.8,44.8,28.2C278.6,275.2,293,264.6,301.6,245z"/>
<path class="st1" d="M259.8,430c0.7-25.6,1.4-49.5,2-73.5c0.3-10.6,0.7-21.3,0.8-31.9c0-3.9,1.2-5.9,5.2-7.1
	c8.5-2.6,16.1-6.8,21.4-15.6C283.7,352.6,268.7,419.7,259.8,430z"/>
<path class="st1" d="M245.7,417c-12.5-38.1-16.2-77.8-22.8-117.5c5.5,5.6,10.4,10.5,15.1,15.6c0.9,0.9,1.3,2.6,1.4,3.9
	c2.2,31.5,4.3,63,6.4,94.5C245.8,414.7,245.7,415.8,245.7,417z"/>
</svg>
