<svg xmlns="http://www.w3.org/2000/svg" viewBox="0 0 512 512"><path fill="#f07d18" d="M263.7 69.3c3.2 3.9 6.9 7.4 9.5 11.7 13.2 21.9 24.7 44.6 29.4 70 4.6 24.7-1.7 45.8-22.1 61.8-8.3 6.5-15.8 13.9-18.9 24.4-1.6 5.5-2.1 11.3-3.2 17.2-14.2-18.2-18.9-40.2-2.6-56.6 3.8-3.9 7.6-7.8 11.9-11.1 17.1-13.2 20.7-30.4 15.1-50.4-.7-2.6-1.6-5.1-2.5-7.7-.1-.3-.6-.5-1.3-1-.7 1-1.7 1.9-1.8 2.9-1.3 14.9-11.2 24.6-21 34.4-4.9 4.9-10.1 9.4-15.1 14.1-13.9 12.8-16.8 28.2-10.3 45.6.5 1.4 1 2.7 1.6 4.3-23.2-17-28.9-49.4-7.1-70.3 6.3-6 12.8-12 18.5-18.7 12.1-14.2 15.9-31.4 16.4-49.5.2-6.6 0-13.2 0-19.8 1.2-.4 2.4-.8 3.5-1.3"/><path fill="#368732" d="M301.6 245c4.7 20.9-6.4 38.4-19.2 46.2-15.9 9.8-36.6 9.4-51.5-1.3-13.8-9.8-21-26.8-17.4-42.4 9.7 18.6 24.5 28.8 44.8 28.2 20.3-.5 34.7-11.1 43.3-30.7m-41.8 185c.7-25.6 1.4-49.5 2-73.5.3-10.6.7-21.3.8-31.9 0-3.9 1.2-5.9 5.2-7.1 8.5-2.6 16.1-6.8 21.4-15.6-5.5 50.7-20.5 117.8-29.4 128.1m-14.1-13c-12.5-38.1-16.2-77.8-22.8-117.5 5.5 5.6 10.4 10.5 15.1 15.6.9.9 1.3 2.6 1.4 3.9 2.2 31.5 4.3 63 6.4 94.5 0 1.2-.1 2.3-.1 3.5"/></svg>