<?xml version="1.0" encoding="utf-8"?>
<!-- Generator: Adobe Illustrator 22.1.0, SVG Export Plug-In . SVG Version: 6.00 Build 0)  -->
<svg version="1.1" id="Layer_1" xmlns="http://www.w3.org/2000/svg" xmlns:xlink="http://www.w3.org/1999/xlink" x="0px" y="0px"
	 viewBox="0 0 512 512" style="enable-background:new 0 0 512 512;" xml:space="preserve">
<style type="text/css">
	.st0{fill:#025DA8;}
	.st1{fill:#E2021D;}
</style>
<path class="st0" d="M304.7,414c-67.8,0-135.6,0-203.4,0c0-104.1,0-208.1-0.1-312.2c0-3.7,1-4.5,4.5-4.5c26.5,0.2,53,0.1,79.5,0.1
	c5.8,0,5.3-1.1,5.3,5.2c0,72.4,0,144.8-0.1,217.2c0,3.9,1.1,4.8,4.8,4.8c34.8-0.1,69.6,0,104.5-0.2c3.7,0,4.6,1,4.6,4.6
	c-0.2,27.4-0.1,54.9-0.1,82.3C304.3,412.2,304,413.2,304.7,414z"/>
<path class="st0" d="M417.9,97.4c0,104.4,0,208.7,0.1,313.1c0,3-0.7,3.7-3.6,3.6c-28.6-0.1-57.3-0.1-85.9-0.1
	c0-3.4-0.1-6.9-0.1-10.3c0-70.8,0-141.6,0.1-212.5c0-3.6-0.9-4.6-4.6-4.6c-34.9,0.1-69.9,0-104.9,0.2c-3.4,0-4.5-0.8-4.5-4.3
	c0.1-26.6,0.1-53.3,0.1-79.9c0-6.2-0.2-5.1,5-5.1C285.8,97.4,351.9,97.4,417.9,97.4z"/>
<path class="st1" d="M304.3,255.3c0,13.7-0.1,27.4,0.1,41.1c0,3.1-0.9,4-4,4c-27.3-0.1-54.6-0.1-81.9,0c-2.9,0-3.9-0.7-3.9-3.7
	c0.1-27.4,0.1-54.8,0-82.3c0-3,0.9-3.8,3.8-3.8c27.4,0.1,54.8,0.1,82.3,0c3.1,0,3.7,1,3.7,3.9C304.2,228.2,304.3,241.7,304.3,255.3z
	"/>
</svg>
