<svg id="ideal_logo" xmlns="http://www.w3.org/2000/svg" viewBox="0 0 320.24 320.24"><defs><style>.cls-1{fill:#71706f;}.cls-2{fill:#c80370;}</style></defs><title>eps_logo_sq</title><g id="eps"><path class="cls-1" d="M220.37,164.94H203.85a3.3,3.3,0,0,1-3.33-3.29,3.43,3.43,0,0,1,3.33-3.45H229V145.79H203.85a15.92,15.92,0,1,0,0,31.83h16.3a3.3,3.3,0,0,1,3.33,3.3,3.21,3.21,0,0,1-3.33,3.18h-35c-3,5.66-5.86,10.52-11.71,13h46.88a16.06,16.06,0,0,0,0-32.11Z"/><path class="cls-1" d="M157,146.06a25.53,25.53,0,0,0-25.41,25.57v53.2H144.3V197.32H157a25.63,25.63,0,0,0,0-51.26Zm0,38.31H144.3V171.59A12.76,12.76,0,1,1,157,184.37Z"/><path class="cls-2" d="M91.48,197.05a25.79,25.79,0,0,1-24.8-19.71,37.82,37.82,0,0,1-.78-6.12,40.36,40.36,0,0,1,.74-6.15,25.58,25.58,0,0,1,50.41,6.09v6.19H79.65c2.21,4.32,6.68,6.75,11.83,6.75H125.1l0-36.51a9.92,9.92,0,0,0-9.89-9.89H67.6a9.82,9.82,0,0,0-9.9,9.76v47.65a10,10,0,0,0,9.9,10h47.65a9.85,9.85,0,0,0,9.74-8.09Z"/><path class="cls-2" d="M91.42,157.76a13.75,13.75,0,0,0-11.81,7.18h23.63A13.76,13.76,0,0,0,91.42,157.76Z"/><path class="cls-2" d="M113,122.2a21.6,21.6,0,0,0-43.16-.57v6.47a1.5,1.5,0,0,0,1.39,1.51h8a1.55,1.55,0,0,0,1.45-1.51v-5.9h0a10.79,10.79,0,0,1,21.58,0v5.9a1.51,1.51,0,0,0,1.41,1.51h7.94A1.54,1.54,0,0,0,113,128.1v-5.9Z"/><path class="cls-1" d="M171.26,213.5l-1.15,6.5a5.3,5.3,0,0,1-5.65,4.79c-2.47,0-4.38-1.61-3.83-4.78l1.15-6.51h1.77L162.4,220c-.35,2,.56,3.18,2.28,3.18a3.56,3.56,0,0,0,3.66-3.17l1.14-6.51Zm-7-2a.78.78,0,0,0,.86.79,1.13,1.13,0,0,0,1.17-1.14.75.75,0,0,0-.82-.8A1.15,1.15,0,0,0,164.3,211.47Zm3.83,0a.8.8,0,0,0,.89.81,1.15,1.15,0,0,0,1.15-1.13.78.78,0,0,0-.81-.81A1.15,1.15,0,0,0,168.13,211.45Z"/><path class="cls-1" d="M175.53,213.5l-.79,4.49a4,4,0,0,1,3-1.41,3.08,3.08,0,0,1,3.35,3.31,4.62,4.62,0,0,1-4.83,4.88,2.63,2.63,0,0,1-2.49-1.38l-.3,1.17h-1.55l2-11.06Zm-1.24,7.58a1.92,1.92,0,0,0,2,2.16,3.16,3.16,0,0,0,3.14-3,1.88,1.88,0,0,0-2-2.1A3.2,3.2,0,0,0,174.29,221.08Z"/><path class="cls-1" d="M184.32,221.33c-.06,1.08.78,2,2.22,2a3.86,3.86,0,0,0,2.42-.86l.9,1a5.55,5.55,0,0,1-3.62,1.34,3.25,3.25,0,0,1-3.59-3.43,4.79,4.79,0,0,1,4.94-4.81c2.54,0,4,1.53,3.11,4.77Zm5-1.35c.13-1.35-.67-1.9-2-1.9a2.77,2.77,0,0,0-2.78,1.9Z"/><path class="cls-1" d="M195.09,216.74l-.08,1a2.94,2.94,0,0,1,2.54-1.21,2.49,2.49,0,0,1,1.81.67l-1,1.43a1.79,1.79,0,0,0-1.31-.47,2.47,2.47,0,0,0-2.51,2.13l-.75,4.23h-1.64l1.39-7.82Z"/><path class="cls-1" d="M207.28,216.74l.83,6.19,3-6.19h1.84l-4.12,7.82h-1.93l-.78-5.16L204.85,222l-1.37,2.59h-1.91l-1.39-7.82H202l.81,6.19,3-6.19Z"/><path class="cls-1" d="M215.05,221.33c-.07,1.08.78,2,2.21,2a3.91,3.91,0,0,0,2.43-.86l.89,1A5.53,5.53,0,0,1,217,224.8a3.25,3.25,0,0,1-3.59-3.43,4.79,4.79,0,0,1,4.95-4.81c2.53,0,4,1.53,3.11,4.77Zm5-1.35c.12-1.35-.67-1.9-2-1.9a2.76,2.76,0,0,0-2.77,1.9Z"/><path class="cls-1" d="M225.93,216.74l-1.39,7.82H222.9l1.38-7.82Zm-1.46-2.13a.81.81,0,0,0,.87.84,1.16,1.16,0,0,0,1.22-1.19.8.8,0,0,0-.83-.83A1.19,1.19,0,0,0,224.47,214.61Z"/><path class="cls-1" d="M233.21,218.68a2.37,2.37,0,0,0-1.94-.74c-1.09,0-1.85.37-1.85,1.05s.62.82,1.55.9c1.43.12,3.27.6,2.88,2.63-.27,1.47-1.74,2.33-3.78,2.33a3.78,3.78,0,0,1-3.33-1.45l1.07-1.17a3.23,3.23,0,0,0,2.55,1.17c.78,0,1.71-.29,1.85-1s-.48-1-1.63-1.09c-1.34-.13-2.8-.62-2.8-2.1,0-2,2.12-2.65,3.71-2.65a3.57,3.57,0,0,1,2.84,1.05Z"/><path class="cls-1" d="M238.4,216.74l-.75,4.21c-.24,1.34.37,2.27,1.74,2.27a2.78,2.78,0,0,0,2.61-2.38l.72-4.1h1.64L243,224.56h-1.49l.11-1.13a4,4,0,0,1-2.93,1.29c-1.93,0-3.08-1.38-2.66-3.76l.75-4.22Z"/><path class="cls-1" d="M251.57,224.56l.75-4.18c.24-1.36-.22-2.26-1.72-2.26a2.76,2.76,0,0,0-2.63,2.35l-.72,4.09h-1.64l1.39-7.82h1.5l-.11,1.14a4.13,4.13,0,0,1,2.87-1.26c1.91,0,3.15,1.33,2.72,3.74l-.75,4.2Z"/><path class="cls-1" d="M257.14,225.64c-.11,1.08.72,1.52,2.11,1.52a2.75,2.75,0,0,0,2.82-2.4l.24-1.34a3.79,3.79,0,0,1-3,1.4,3.15,3.15,0,0,1-3.41-3.37,4.7,4.7,0,0,1,4.89-4.88,2.5,2.5,0,0,1,2.44,1.42l.28-1.25h1.59l-1.37,8.06a4.45,4.45,0,0,1-4.75,3.9c-2.43,0-3.77-1.17-3.43-3.06Zm.46-4.51a2,2,0,0,0,2.14,2.15c3.4,0,4.31-5.21.91-5.21A3,3,0,0,0,257.6,221.13Z"/></g></svg>