<svg xmlns="http://www.w3.org/2000/svg" viewBox="0 0 512 512"><path fill="#e03135" d="M318.3 363.3c14.9 8.6 30.8 14 48.3 15.3-1.5 1.3-2.7 2.4-4 3.4-9.8 8.1-20.8 14.1-32.4 18.9-14 5.8-28.4 10.1-43.3 12.9-5.6 1.1-11.3 1.8-16.9 2.1-6.2.4-12.5.6-18.8.4q-25.95-1.05-50.1-10.5c-16.9-6.5-32.3-15.7-46.1-27.5-13.9-11.9-25.4-25.7-34.5-41.6-7.4-12.9-12.8-26.6-16.4-41-2-7.8-3.3-15.8-4-23.8-.7-7.5-.9-15.1-.4-22.6 1-16.8 4.4-33 10.5-48.7s14.4-30 25-43c11.3-13.9 24.6-25.5 39.8-34.9 8.8-5.4 18-9.9 27.7-13.5s19.6-6.2 29.8-7.9c10.5-1.7 21-2.4 31.6-2 13.6.5 26.9 2.7 39.9 6.7 10.3 3.1 20.2 7.2 29.6 12.3 13 7 24.8 15.7 35.4 26 9.8 9.5 18.2 20.2 25.3 31.9 7.3 12.2 12.9 25.2 16.7 38.9 1.9 6.8 3.1 13.7 3.9 20.7q1.2 10.5 1.2 21c-.1 13.6-1.7 26.9-5.7 39.9-4 13.1-10.3 25-19.3 35.4-8.7 10.1-18.9 18.3-31 23.9-7.3 3.4-15 5.7-23 6.8-6 .8-12.1 1-18.1.3h-.5c-.1 0-.1.1-.2.2m17.4-76.7c.1 2.6.1 5.5.4 8.3.4 3.2 2 5.7 5.2 6.8 1.5.5 3 .8 4.6.8 4.1.1 8.2 0 12.3.1 1.8 0 2.4-.5 2.8-2.3.4-2 .8-4.1 1.3-6.1.4-1.7-.2-2.4-1.9-2.4h-10.7c-.8 0-1.1-.2-1.2-1-.3-4.1-.1-8.2.7-12.3 1.3-6.8 2.8-13.5 4.3-20.3 2.1-9.8 4.2-19.6 6.2-29.5.9-4.1 1.7-8.2 2.5-12.4.2-1.1-.3-1.7-1.4-1.7h-8c-.9 0-1.3.5-1.6 1.2-.7 1.6-1.4 3.3-2.1 4.9-.1.3-.3.6-.5 1-.7-.8-1.3-1.5-1.9-2.1-2.7-3-5.7-5.6-9.7-6.6-5.8-1.5-11.6-1.2-17.3.6-6.4 2-11.2 6.2-15.3 11.3-5 6.2-8.7 13.2-11.5 20.7-4.4 11.7-7.1 23.6-6.4 36.2.3 4.6 1.2 9 3.4 13.1 2.2 4.2 5.4 7.4 9.9 9 5.7 2 11.3 1.5 16.8-.5 5.9-2.2 10.5-6.2 14.5-10.9 1.7-2 3.2-4.1 4.6-5.9m-184.8-15.3c0 6.1.7 12.1 3 17.8 2 4.9 5.1 9 9.7 11.8 3.9 2.4 8.2 3.6 12.7 4.1 6.9.6 13.6-.1 20.2-2.2 5.2-1.7 10-4.3 14.5-7.2 1-.6 1.9-1.3 2.8-2.1.8-.6.9-1.4.4-2.3-1.5-2.3-3.1-4.6-4.6-6.8-.6-.9-1.5-1-2.4-.6-1 .5-1.9 1.1-2.9 1.7-7.5 5-15.6 7.5-24.6 6.9-7.5-.5-12.8-5.2-14.2-12.6-.7-3.7-.6-7.4-.6-11.1 0-.7.3-.8 1-.8 5.5-.2 10.9-.4 16.4-.8 7.4-.5 14.5-2 21.3-4.9 5.8-2.4 10.6-6.1 13.9-11.5 3.8-6.2 4.9-13 3.6-20.2-1.5-8.4-6.2-14.2-14.5-16.8-4.5-1.4-9.1-1.5-13.7-1.1-7.3.8-13.8 3.5-19.6 8-6 4.6-10.3 10.7-13.8 17.3-5.8 10.4-8.5 21.6-8.6 33.4m108.6-41c0-.4.1-.6.1-.7.2-3.7.2-7.5-.6-11.1-.8-3.5-1.8-3.8-4.4-3.7-5.7.1-11.5 0-17.2 0-1.9 0-2.4.4-2.8 2.2-.5 2.1-.9 4.1-1.3 6.2-.3 1.8.1 2.3 1.9 2.3h10.5c.7 0 1 .2 1.1.9 0 1.1.2 2.2.2 3.2.1 4.9-.7 9.8-1.7 14.6-3.3 15.7-6.7 31.4-10.1 47.1-.7 3.2-1.4 6.3-2 9.5-.3 1.4.1 1.8 1.6 1.8h9.4c1.5 0 1.9-.3 2.2-1.8.6-3 1.3-6 1.9-9.1 2.6-12.2 5.2-24.5 7.9-36.7.9-4.3 2.2-8.6 4.3-12.5 2.6-4.9 6.2-9.2 10.3-12.9 4-3.6 8.5-5.5 13.9-3.3 1.2.5 1.6.2 2.1-1 1.4-3.1 2.7-6.3 4.1-9.4.7-1.6.4-2.3-1.2-3-.4-.2-.8-.3-1.2-.4-4.3-1.1-8.4-.3-12.3 1.5-6.1 2.9-10.9 7.4-14.7 13-.5 1.1-1.2 2.1-2 3.3m40.9 48.3c.2-8.2 1.4-15.2 3.3-22 1.5-5.7 3.5-11.2 6.2-16.5 2.2-4.3 4.6-8.5 8.4-11.7 5.7-4.8 12-5.3 18.7-2.4 3.2 1.4 5.8 3.6 8.2 6 .3.3.4 1 .3 1.4-1.7 7.9-3.5 15.9-5.2 23.8-1.3 6-3.1 11.9-6 17.4-3.8 7.2-8.9 13.1-16.4 16.6-3.2 1.5-6.7 2-10.2.9-4-1.3-6-4.4-6.8-8.3-.3-2.1-.4-4.2-.5-5.2m-133.8-22.2c.5-2 .8-3.7 1.3-5.5 1.2-4.3 2.7-8.4 4.8-12.3 3.1-5.6 7.1-10.3 13.1-13 4.8-2.1 9.9-2.8 15-1.1 4.3 1.4 7 5.3 7.3 9.9.6 7.8-2.9 13.1-9.7 16.6-4.4 2.2-9 3.4-13.8 4.1-5.5.9-11 1.2-16.5 1.2-.4.1-.8.1-1.5.1"/></svg>