<?xml version="1.0" encoding="utf-8"?>
<!-- Generator: Adobe Illustrator 22.1.0, SVG Export Plug-In . SVG Version: 6.00 Build 0)  -->
<svg version="1.1" id="Layer_1" xmlns="http://www.w3.org/2000/svg" xmlns:xlink="http://www.w3.org/1999/xlink" x="0px" y="0px"
	 viewBox="0 0 512 512" style="enable-background:new 0 0 512 512;" xml:space="preserve">
<style type="text/css">
	.st0{fill:#E03135;}
</style>
<path class="st0" d="M318.3,363.3c14.9,8.6,30.8,14,48.3,15.3c-1.5,1.3-2.7,2.4-4,3.4c-9.8,8.1-20.8,14.1-32.4,18.9
	c-14,5.8-28.4,10.1-43.3,12.9c-5.6,1.1-11.3,1.8-16.9,2.1c-6.2,0.4-12.5,0.6-18.8,0.4c-17.3-0.7-34-4.2-50.1-10.5
	c-16.9-6.5-32.3-15.7-46.1-27.5c-13.9-11.9-25.4-25.7-34.5-41.6c-7.4-12.9-12.8-26.6-16.4-41c-2-7.8-3.3-15.8-4-23.8
	c-0.7-7.5-0.9-15.1-0.4-22.6c1-16.8,4.4-33,10.5-48.7c6.1-15.7,14.4-30,25-43c11.3-13.9,24.6-25.5,39.8-34.9
	c8.8-5.4,18-9.9,27.7-13.5c9.7-3.6,19.6-6.2,29.8-7.9c10.5-1.7,21-2.4,31.6-2c13.6,0.5,26.9,2.7,39.9,6.7
	c10.3,3.1,20.2,7.2,29.6,12.3c13,7,24.8,15.7,35.4,26c9.8,9.5,18.2,20.2,25.3,31.9c7.3,12.2,12.9,25.2,16.7,38.9
	c1.9,6.8,3.1,13.7,3.9,20.7c0.8,7,1.2,14,1.2,21c-0.1,13.6-1.7,26.9-5.7,39.9c-4,13.1-10.3,25-19.3,35.4
	c-8.7,10.1-18.9,18.3-31,23.9c-7.3,3.4-15,5.7-23,6.8c-6,0.8-12.1,1-18.1,0.3c-0.2,0-0.3,0-0.5,0
	C318.4,363.1,318.4,363.2,318.3,363.3z M335.7,286.6c0.1,2.6,0.1,5.5,0.4,8.3c0.4,3.2,2,5.7,5.2,6.8c1.5,0.5,3,0.8,4.6,0.8
	c4.1,0.1,8.2,0,12.3,0.1c1.8,0,2.4-0.5,2.8-2.3c0.4-2,0.8-4.1,1.3-6.1c0.4-1.7-0.2-2.4-1.9-2.4c-3.6,0-7.1,0-10.7,0
	c-0.8,0-1.1-0.2-1.2-1c-0.3-4.1-0.1-8.2,0.7-12.3c1.3-6.8,2.8-13.5,4.3-20.3c2.1-9.8,4.2-19.6,6.2-29.5c0.9-4.1,1.7-8.2,2.5-12.4
	c0.2-1.1-0.3-1.7-1.4-1.7c-2.7,0-5.4,0-8,0c-0.9,0-1.3,0.5-1.6,1.2c-0.7,1.6-1.4,3.3-2.1,4.9c-0.1,0.3-0.3,0.6-0.5,1
	c-0.7-0.8-1.3-1.5-1.9-2.1c-2.7-3-5.7-5.6-9.7-6.6c-5.8-1.5-11.6-1.2-17.3,0.6c-6.4,2-11.2,6.2-15.3,11.3c-5,6.2-8.7,13.2-11.5,20.7
	c-4.4,11.7-7.1,23.6-6.4,36.2c0.3,4.6,1.2,9,3.4,13.1c2.2,4.2,5.4,7.4,9.9,9c5.7,2,11.3,1.5,16.8-0.5c5.9-2.2,10.5-6.2,14.5-10.9
	C332.8,290.5,334.3,288.4,335.7,286.6z M150.9,271.3c0,6.1,0.7,12.1,3,17.8c2,4.9,5.1,9,9.7,11.8c3.9,2.4,8.2,3.6,12.7,4.1
	c6.9,0.6,13.6-0.1,20.2-2.2c5.2-1.7,10-4.3,14.5-7.2c1-0.6,1.9-1.3,2.8-2.1c0.8-0.6,0.9-1.4,0.4-2.3c-1.5-2.3-3.1-4.6-4.6-6.8
	c-0.6-0.9-1.5-1-2.4-0.6c-1,0.5-1.9,1.1-2.9,1.7c-7.5,5-15.6,7.5-24.6,6.9c-7.5-0.5-12.8-5.2-14.2-12.6c-0.7-3.7-0.6-7.4-0.6-11.1
	c0-0.7,0.3-0.8,1-0.8c5.5-0.2,10.9-0.4,16.4-0.8c7.4-0.5,14.5-2,21.3-4.9c5.8-2.4,10.6-6.1,13.9-11.5c3.8-6.2,4.9-13,3.6-20.2
	c-1.5-8.4-6.2-14.2-14.5-16.8c-4.5-1.4-9.1-1.5-13.7-1.1c-7.3,0.8-13.8,3.5-19.6,8c-6,4.6-10.3,10.7-13.8,17.3
	C153.7,248.3,151,259.5,150.9,271.3z M259.5,230.3c0-0.4,0.1-0.6,0.1-0.7c0.2-3.7,0.2-7.5-0.6-11.1c-0.8-3.5-1.8-3.8-4.4-3.7
	c-5.7,0.1-11.5,0-17.2,0c-1.9,0-2.4,0.4-2.8,2.2c-0.5,2.1-0.9,4.1-1.3,6.2c-0.3,1.8,0.1,2.3,1.9,2.3c3.5,0,7,0,10.5,0
	c0.7,0,1,0.2,1.1,0.9c0,1.1,0.2,2.2,0.2,3.2c0.1,4.9-0.7,9.8-1.7,14.6c-3.3,15.7-6.7,31.4-10.1,47.1c-0.7,3.2-1.4,6.3-2,9.5
	c-0.3,1.4,0.1,1.8,1.6,1.8c3.1,0,6.3,0,9.4,0c1.5,0,1.9-0.3,2.2-1.8c0.6-3,1.3-6,1.9-9.1c2.6-12.2,5.2-24.5,7.9-36.7
	c0.9-4.3,2.2-8.6,4.3-12.5c2.6-4.9,6.2-9.2,10.3-12.9c4-3.6,8.5-5.5,13.9-3.3c1.2,0.5,1.6,0.2,2.1-1c1.4-3.1,2.7-6.3,4.1-9.4
	c0.7-1.6,0.4-2.3-1.2-3c-0.4-0.2-0.8-0.3-1.2-0.4c-4.3-1.1-8.4-0.3-12.3,1.5c-6.1,2.9-10.9,7.4-14.7,13
	C261,228.1,260.3,229.1,259.5,230.3z"/>
<path class="st0" d="M300.4,278.6c0.2-8.2,1.4-15.2,3.3-22c1.5-5.7,3.5-11.2,6.2-16.5c2.2-4.3,4.6-8.5,8.4-11.7
	c5.7-4.8,12-5.3,18.7-2.4c3.2,1.4,5.8,3.6,8.2,6c0.3,0.3,0.4,1,0.3,1.4c-1.7,7.9-3.5,15.9-5.2,23.8c-1.3,6-3.1,11.9-6,17.4
	c-3.8,7.2-8.9,13.1-16.4,16.6c-3.2,1.5-6.7,2-10.2,0.9c-4-1.3-6-4.4-6.8-8.3C300.6,281.7,300.5,279.6,300.4,278.6z"/>
<path class="st0" d="M166.6,256.4c0.5-2,0.8-3.7,1.3-5.5c1.2-4.3,2.7-8.4,4.8-12.3c3.1-5.6,7.1-10.3,13.1-13c4.8-2.1,9.9-2.8,15-1.1
	c4.3,1.4,7,5.3,7.3,9.9c0.6,7.8-2.9,13.1-9.7,16.6c-4.4,2.2-9,3.4-13.8,4.1c-5.5,0.9-11,1.2-16.5,1.2
	C167.7,256.4,167.3,256.4,166.6,256.4z"/>
</svg>
