<?xml version="1.0" encoding="utf-8"?>
<!-- Generator: Adobe Illustrator 22.1.0, SVG Export Plug-In . SVG Version: 6.00 Build 0)  -->
<svg version="1.1" id="Layer_1" xmlns="http://www.w3.org/2000/svg" xmlns:xlink="http://www.w3.org/1999/xlink" x="0px" y="0px"
	 viewBox="0 0 512 512" style="enable-background:new 0 0 512 512;" xml:space="preserve">
<style type="text/css">
	.st0{fill:#ED1C25;}
</style>
<path class="st0" d="M186.5,262.6c0,6.3,0,10.7,0,16.3c73.6,0,146.7,0,220.6,0c0.4,4,1,6.8,1,9.7c0.1,31.4,0.2,62.8,0,94.2
	c-0.2,25.1-19.6,44.9-44.8,45.1c-67.7,0.3-135.4,0.3-203,0c-22-0.1-39.5-14.5-43.5-36.4c-2.1-11.5-1.6-23.6-2.3-36.8
	c75.1,0,148.5,0,221.7,0c2.8-15.9,2.5-16.4-11.2-16.4c-65.1,0-130.1,0-195.2,0c-4.4,0-8.8,0-14.7,0c0-12.9,0-24.8,0-36.6
	c0-20.2,0-40.4,0-60.6c0.1-32.6,18.6-52.1,51.1-52.3c63.9-0.4,127.9-0.5,191.8,0c32.2,0.3,50.2,19.5,50.2,51.7c0,7,0,14,0,22.2
	C334,262.6,260.9,262.6,186.5,262.6z"/>
<path class="st0" d="M261.2,173.9c-24.5-0.2-43.2-19.7-43.1-44.8c0.1-24.8,19.4-44.3,43.8-44.3c24.8,0,44,20.1,43.6,45.6
	C305.1,155.5,286.2,174,261.2,173.9z"/>
</svg>
