<svg fill="none" xmlns="http://www.w3.org/2000/svg" viewBox="0 0 256 256"><path d="M0 0h256v256H0V0z" fill="#fff"/><path d="M28 85.6c0-9 0-13.4 1.7-16.9 1.6-3 4-5.4 7-7 3.5-1.7 8-1.7 16.9-1.7h148.8c9 0 13.4 0 16.9 1.7 3 1.6 5.4 4 7 7 1.7 3.5 1.7 8 1.7 16.9V105H28V85.6z" fill="#578CCC"/><path d="M28.5 149.5h199v19.9c0 4.5 0 7.8-.2 10.5-.2 2.6-.7 4.5-1.5 6.1-1.5 3-3.8 5.3-6.8 6.8-1.6.8-3.5 1.3-6.1 1.5-2.7.2-6 .2-10.5.2H53.6c-4.5 0-7.8 0-10.5-.2-2.6-.2-4.5-.7-6.1-1.5-3-1.5-5.3-3.8-6.8-6.8-.8-1.6-1.3-3.5-1.5-6.1-.2-2.7-.2-6-.2-10.5v-19.9z" fill="#F7F7F7" stroke="#DBDBDB"/><path fill="#000" d="M28 105h200v45H28z"/></svg>