<svg xmlns="http://www.w3.org/2000/svg" viewBox="0 0 320.24 320.24"><path fill="#4d4d4e" d="M225.57 130.62V135c0 .51-.14.65-.66.66h-1.09a.47.47 0 0 1-.52-.51v-17.41c0-.73.06-.79.78-.95a20.4 20.4 0 0 1 4.48-.53c3.12 0 5 1.53 5.52 4.61a16.6 16.6 0 0 1 0 5.63 4.87 4.87 0 0 1-5.14 4.31c-1.13.01-2.22-.12-3.37-.19m0-7.1v4.79c0 .24.05.38.32.4.92.07 1.85.19 2.77.2A2.66 2.66 0 0 0 231 128a4.3 4.3 0 0 0 .75-1.62 16.7 16.7 0 0 0 .12-5 5.9 5.9 0 0 0-.43-1.63 2.41 2.41 0 0 0-1.82-1.49 12 12 0 0 0-3.63.07c-.37 0-.42.19-.42.5zm-79.13-12.08c1.09 0 1.08-.14 1.4 1q2.13 7.83 4.28 15.65c.08.31.15.67.54.68s.45-.37.54-.67l4.44-16.1c.16-.55.21-.59.79-.59h1.09c.51 0 .66.21.52.7l-1.71 6-3 10.69a2.5 2.5 0 0 1-2.62 2 2.47 2.47 0 0 1-2.61-1.9l-3.54-12.42c-.4-1.44-.81-2.88-1.22-4.31-.15-.56 0-.76.57-.76Zm133.9 10.95.27-.3c1.57-1.77 3.15-3.53 4.71-5.3a.94.94 0 0 1 .79-.36h1.51a1.8 1.8 0 0 1 .49.18 1.4 1.4 0 0 1-.2.49c-1.73 1.89-3.48 3.77-5.22 5.65l-.36.39 1.7 2.06 3.86 4.65a1 1 0 0 1 .21.3.31.31 0 0 1-.29.47h-1.88a.88.88 0 0 1-.54-.34c-1.6-2-3.18-3.9-4.76-5.86a1.4 1.4 0 0 0-.38-.33v5.81c0 .63-.11.74-.75.74h-.91a.54.54 0 0 1-.61-.6V112c0-.68.14-.82.82-.82h.83c.47 0 .62.17.62.65v10.48Zm-80.76.03a2.4 2.4 0 0 1 .23-.33c1.56-1.76 3.13-3.51 4.68-5.28a1 1 0 0 1 .86-.38h1.47a2 2 0 0 1 .5.18 1.7 1.7 0 0 1-.21.49q-2.66 2.9-5.33 5.77l-.25.28c.39.46.77.93 1.15 1.39l4.43 5.34a.9.9 0 0 1 .2.28c.06.22.05.45-.27.45h-2a.9.9 0 0 1-.5-.35c-1.59-1.94-3.18-3.9-4.76-5.85a.9.9 0 0 0-.36-.31v5.8c0 .6-.13.73-.73.73h-1a.5.5 0 0 1-.52-.53v-18.04c0-.73.12-.85.86-.85h.72c.54 0 .7.15.7.7v10.43Zm67.83 1.69V130c0 .48-.16.63-.63.64h-1.1a.51.51 0 0 1-.54-.55v-18c0-.71.13-.84.83-.84h.64c.68 0 .8.12.8.79v10.44a5 5 0 0 0 .32-.33q2.37-2.64 4.72-5.29a1 1 0 0 1 .85-.39h1.47a2 2 0 0 1 .5.18c-.07.16-.09.37-.21.49-1.78 1.94-3.58 3.88-5.37 5.82l-.2.23 1.26 1.53c1.45 1.74 2.9 3.48 4.33 5.23a1.5 1.5 0 0 1 .17.58 2 2 0 0 1-.47.12h-1.44a1 1 0 0 1-.86-.42l-4.75-5.87-.24-.27Zm-80.71-1.74 2-2.18c1-1.14 2-2.27 3-3.42a.91.91 0 0 1 .75-.34h1.47a2.7 2.7 0 0 1 .55.16 2.1 2.1 0 0 1-.23.55c-1.74 1.89-3.49 3.77-5.23 5.65l-.32.35 1.7 2c1.31 1.58 2.62 3.15 3.92 4.74a.8.8 0 0 1 .14.54c0 .07-.29.14-.45.14h-1.47a.92.92 0 0 1-.81-.38c-1.59-2-3.19-3.95-4.79-5.93l-.29-.32v5.86c0 .62-.13.76-.74.76h-1a.51.51 0 0 1-.55-.54V112c0-.71.12-.83.83-.83h.91a.5.5 0 0 1 .53.52v10.6Zm-23.57 1.89a23 23 0 0 0 .42 2.56 2.61 2.61 0 0 0 2.62 2c1.59 0 3.19-.06 4.78-.18 1-.07 1-.1 1 .89 0 .72-.1.88-.78.95-1.51.15-3 .32-4.54.36a7 7 0 0 1-2.29-.39 4.64 4.64 0 0 1-3.24-3.91 18.6 18.6 0 0 1 0-5.82 5.12 5.12 0 0 1 5-4.41 7.2 7.2 0 0 1 3.08.41 4.91 4.91 0 0 1 3.11 4.2 21 21 0 0 1 .12 2.75c0 .51-.14.63-.66.63h-8.59Zm7-1.75a5 5 0 0 0-.68-3.08 2.47 2.47 0 0 0-1-.86 4.15 4.15 0 0 0-3.33 0 3.71 3.71 0 0 0-1.78 4ZM245 129.6c-.43.2-.81.4-1.21.58a6.12 6.12 0 0 1-4.29.44 3.29 3.29 0 0 1-2.57-2.75 7.2 7.2 0 0 1 0-2.7 3.15 3.15 0 0 1 1.92-2.36 9.3 9.3 0 0 1 3.38-.65h2.7a7.8 7.8 0 0 0-.19-2.56 1.87 1.87 0 0 0-1.94-1.33q-2 0-4 .12c-1.13.08-1.18.08-1.17-1 0-.5.11-.66.56-.73a22 22 0 0 1 4.66-.3 4.73 4.73 0 0 1 3 1.11 4.15 4.15 0 0 1 1.32 3.14v9.51c0 .41-.17.58-.57.59h-1c-.55 0-.67-.13-.69-.7.09-.17.09-.27.09-.41m0-5.75h-3.45a4.2 4.2 0 0 0-1 .2 1.81 1.81 0 0 0-1.37 1.66 7 7 0 0 0 0 1.39A1.81 1.81 0 0 0 241 129a6.9 6.9 0 0 0 3.71-.93.4.4 0 0 0 .18-.25c.03-1.36.03-2.67.03-3.97Zm-24.7-.34c-.08.94-.09 1.84-.23 2.72a5.14 5.14 0 0 1-5.25 4.57 7.8 7.8 0 0 1-2.31-.26 4.71 4.71 0 0 1-3.5-3.78 14.14 14.14 0 0 1 .07-6.69 5 5 0 0 1 4.93-3.81 6.9 6.9 0 0 1 2.89.41 5 5 0 0 1 3.14 4c.17.97.18 1.94.26 2.84m-2.29-.08c-.06-.71-.07-1.57-.21-2.4a3.17 3.17 0 0 0-1.49-2.35 3.35 3.35 0 0 0-5.06 2 12.9 12.9 0 0 0 0 5.8 2.75 2.75 0 0 0 2.41 2.24c2.21.32 3.79-.51 4.18-3 .16-.65.16-1.4.16-2.29Zm34.99-6.05c.54-.23 1.06-.48 1.6-.68a6.8 6.8 0 0 1 3.74-.33 3.59 3.59 0 0 1 2.93 2.85 9.2 9.2 0 0 1 .3 2.2v8.53c0 .53-.15.68-.67.68h-.9c-.49 0-.66-.17-.66-.66v-5.89c0-1.14 0-2.29-.06-3.43a3 3 0 0 0-.12-.71 2.1 2.1 0 0 0-2.16-1.7 7.2 7.2 0 0 0-3.83.92c-.1 0-.15.27-.15.41v10.48a.5.5 0 0 1-.56.56h-1.17a.49.49 0 0 1-.54-.54v-12.82c0-.71.11-.82.84-.82h.75c.52 0 .66.15.68.67-.02.09-.02.18-.02.28m-75.32.02a18 18 0 0 1 1.93-.86 8.4 8.4 0 0 1 1.74-.27c.33 0 .51.16.51.5v.83c0 .48-.12.62-.59.62a6.9 6.9 0 0 0-3.2.89.55.55 0 0 0-.33.55v10.15c0 .73-.09.82-.83.82H176a.5.5 0 0 1-.54-.51V117.3c0-.77.1-.87.87-.87h.67c.48 0 .63.15.64.63.03.12.04.24.04.34m115.71 6.15v6.38c0 .58-.13.7-.72.7h-1c-.39 0-.56-.19-.57-.59s0-1 0-1.58v-11.24c0-.64.15-.79.8-.79h.79c.53 0 .68.16.68.68Zm.06-10.95v.94c0 .42-.19.6-.59.61h-1.21a.49.49 0 0 1-.54-.53v-2a.5.5 0 0 1 .54-.55h1.28a.49.49 0 0 1 .53.55Z"/><path fill="#20417f" d="m155.38 198.22.39.18a3.8 3.8 0 0 1 2.17 2.43 5.86 5.86 0 0 1-.75 5.39 5.52 5.52 0 0 1-3.35 1.91 20.8 20.8 0 0 1-5.63.27c-.66 0-1.31-.11-2-.19s-.71-.27-.77-.79a3 3 0 0 1 0-.42v-16.89a2 2 0 0 1 0-.27c0-.71.28-1 1-1s1.14-.1 1.71-.12a19 19 0 0 1 6.56.5 4.3 4.3 0 0 1 3.1 2.7 5.06 5.06 0 0 1-.76 5.12 7.4 7.4 0 0 1-1.31 1 4 4 0 0 1-.36.18m-7.51 8.11 1.52.09a15 15 0 0 0 3.77-.2 3 3 0 0 0 2.62-2.47 8.5 8.5 0 0 0 .07-1.34 3 3 0 0 0-3-3.21c-1.61-.09-3.23 0-4.85-.07 0 0-.06 0-.11.05Zm0-9.14H152a9 9 0 0 0 1.18-.09 2.75 2.75 0 0 0 2.55-2.44 9 9 0 0 0 0-1.14 2.36 2.36 0 0 0-1.84-2.46 13.1 13.1 0 0 0-4.5-.42c-.51 0-1 0-1.53.07Zm86.29-1.38a4.92 4.92 0 0 1 .68 4.24 3.57 3.57 0 0 1-2.6 2.71 9.64 9.64 0 0 1-5.75 0 .68.68 0 0 0-.9.39.8.8 0 0 0 .25 1 2.7 2.7 0 0 0 .71.26c1.64.44 3.29.85 4.94 1.31a6.9 6.9 0 0 1 2.65 1.2 2.79 2.79 0 0 1 1.11 2.24 3.61 3.61 0 0 1-2.89 3.95 11.6 11.6 0 0 1-6.05 0 3.65 3.65 0 0 1-2.92-2.76 4.34 4.34 0 0 1 1.24-4.38l.23-.2c-1.71-1.16-1.82-2.72-.31-4.09a4.39 4.39 0 0 1-1.11-3.92 4.18 4.18 0 0 1 3.6-3.73 14 14 0 0 1 2.12-.21h5.54c.31 0 .68 0 .74.34a4.2 4.2 0 0 1 0 1.22c0 .08-.22.15-.35.19-.31.12-.61.17-.93.24m-5 5.64a18 18 0 0 0 1.81-.29 2 2 0 0 0 1.66-1.78 5.5 5.5 0 0 0 0-1.51 2.23 2.23 0 0 0-1.77-2 6.9 6.9 0 0 0-3.44 0 2.21 2.21 0 0 0-1.62 1.52 3.5 3.5 0 0 0-.06 2 2.23 2.23 0 0 0 1.68 1.7c.58.21 1.18.27 1.76.36Zm.13 10.35c.72-.1 1.42-.15 2.1-.3a1.85 1.85 0 0 0 1.53-1.92c.05-.93-.27-1.38-1.28-1.79l-.28-.11c-1.47-.39-2.94-.79-4.42-1.17a.5.5 0 0 0-.38.14 3.19 3.19 0 0 0-1.07 2.7 2 2 0 0 0 1.64 2.13c.73.17 1.47.22 2.18.32Zm-37.46-10.15v5.87c0 .61-.16.76-.77.76h-.92a.56.56 0 0 1-.61-.62 2 2 0 0 1 0-.27v-17.95c0-.75.12-.87.86-.87h.88c.38 0 .54.19.56.58V200l.39-.4c1.56-1.75 3.12-3.5 4.66-5.26a1.16 1.16 0 0 1 1-.45h1.34a2.3 2.3 0 0 1 .55.16 1.7 1.7 0 0 1-.23.56c-1.47 1.61-2.95 3.2-4.43 4.8l-1.18 1.29 1.14 1.39 4.49 5.42a1.4 1.4 0 0 1 .2.27.34.34 0 0 1-.32.52 15 15 0 0 1-1.79 0 1.1 1.1 0 0 1-.65-.39c-1.61-2-3.19-3.93-4.79-5.9-.09-.12-.19-.23-.29-.35Zm-22.74-1.99c-.05-.79 0-1.52-.15-2.23a2 2 0 0 0-2.16-1.75c-1.23 0-2.47.07-3.7.11l-1 .05a.41.41 0 0 1-.48-.46c0-1.28-.13-1.27 1-1.43a18.2 18.2 0 0 1 4.72-.2 4.12 4.12 0 0 1 3.92 4.25v9.63c0 .46-.19.64-.65.65h-.91c-.49 0-.67-.18-.68-.66v-.41c-.41.2-.78.4-1.16.57a6.22 6.22 0 0 1-4.56.43 3.21 3.21 0 0 1-2.46-2.78 10 10 0 0 1 0-2.39 3.24 3.24 0 0 1 2.36-2.86 10.8 10.8 0 0 1 3.34-.52c.87-.02 1.67 0 2.57 0m0 1.66h-1.75a23 23 0 0 0-2.61.26 1.74 1.74 0 0 0-1.51 1.64 8 8 0 0 0 0 1.75 1.64 1.64 0 0 0 1.39 1.52 6.35 6.35 0 0 0 4.32-.89.43.43 0 0 0 .14-.31v-1.53Zm8.15-6.52c.72-.28 1.41-.6 2.13-.83a6.3 6.3 0 0 1 3.55-.11 3.86 3.86 0 0 1 2.84 3.34 10 10 0 0 1 .17 1.79v8.56c0 .59-.15.73-.75.73h-.62c-.82 0-.93-.11-.93-.91v-8.06a11 11 0 0 0-.08-1.38 2.28 2.28 0 0 0-2.45-2.25 7.5 7.5 0 0 0-3.73 1c-.1.05-.15.27-.15.41v10.66a.53.53 0 0 1-.57.57h-1.07c-.47 0-.65-.19-.65-.65V194.6c0-.6.15-.74.75-.74h.84c.56 0 .7.14.71.7a2 2 0 0 0 .01.24m34.1.05.73-.36a7.23 7.23 0 0 1 4.26-.75 3.75 3.75 0 0 1 3.46 3.2 8.7 8.7 0 0 1 .23 2v8.68c0 .54-.16.7-.71.7h-.88c-.52 0-.7-.19-.7-.71v-8.26a11 11 0 0 0-.08-1.37 2.29 2.29 0 0 0-2.48-2.26 7.44 7.44 0 0 0-3.69 1c-.1 0-.16.26-.16.4v10.63c0 .42-.2.6-.61.61h-1.07c-.42 0-.62-.19-.62-.6v-13.3c0-.41.17-.58.58-.6s.69 0 1 0c.53 0 .67.15.69.68.03.09.04.18.05.31m-8.51 6.25v-6.5c0-.58.16-.74.75-.74h.84c.56 0 .71.15.71.71v13.1c0 .42-.2.6-.62.61h-1c-.51 0-.69-.18-.69-.68Zm2.35-11.1v1c0 .34-.19.58-.59.59h-1.22a.51.51 0 0 1-.56-.54v-2.06a.47.47 0 0 1 .5-.52h1.37a.48.48 0 0 1 .49.52v1Zm-46.39-11.1a6.76 6.76 0 0 1-1.55 3.53 6.32 6.32 0 0 1-4.54 2.13 8.4 8.4 0 0 1-3.68-.47 6.05 6.05 0 0 1-3.73-4.39 12.4 12.4 0 0 1-.39-2.71c0-1.93 0-3.87.09-5.8a7.4 7.4 0 0 1 1.21-3.65 6.17 6.17 0 0 1 5-2.76 8 8 0 0 1 3.85.55 6.05 6.05 0 0 1 3.52 4.31 20 20 0 0 1 .41 3 61 61 0 0 1-.19 6.26m-2.09-4c-.1-1.51-.12-2.78-.28-4a4.45 4.45 0 0 0-1.59-3.12A4.85 4.85 0 0 0 151 167a3.63 3.63 0 0 0-3 2.28 7.5 7.5 0 0 0-.6 2.35c-.1 1.68-.11 3.36-.08 5a12 12 0 0 0 .31 2.45 4 4 0 0 0 2.17 2.89 5.27 5.27 0 0 0 4.16.09 3.87 3.87 0 0 0 2.4-3.18c.2-1.36.23-2.78.34-3.96Zm49.59 3.02a7.3 7.3 0 0 0 .32 2.7 2.81 2.81 0 0 0 2.84 1.93c1.66 0 3.33-.15 5-.26.51 0 .67.06.67.55 0 1.23 0 1.23-1.2 1.43a20.4 20.4 0 0 1-4.61.29 5.16 5.16 0 0 1-4.57-2.64 5.7 5.7 0 0 1-.69-2.41 22.7 22.7 0 0 1 .09-5.21 5.17 5.17 0 0 1 5-4.48 6.5 6.5 0 0 1 3.86.78 5.19 5.19 0 0 1 2.45 4.15 24 24 0 0 1 .09 2.52c0 .52-.14.65-.66.65zm6.88-1.77c.2-1.62-.38-3.33-1.39-3.85a3.9 3.9 0 0 0-4.11.11c-1.31.87-1.38 2.3-1.39 3.74Zm-48.46-5.23c.72-.29 1.41-.61 2.13-.83a6.3 6.3 0 0 1 3.55-.1 3.63 3.63 0 0 1 2.7 2.87 10.5 10.5 0 0 1 .3 2.3v8.52c0 .56-.16.73-.72.73h-.84c-.57 0-.73-.17-.73-.72v-8.22a8 8 0 0 0-.12-1.56 2.2 2.2 0 0 0-2.34-2.1 7.3 7.3 0 0 0-3.8.95c-.1.05-.15.28-.15.42v10.16c0 1 0 1.07-1.08 1.07-1.22 0-1.22 0-1.22-1.22v-12.38c0-.71.12-.82.82-.83h.79c.57 0 .7.13.72.69-.03.09-.02.18-.01.25m27.43.01c.73-.29 1.41-.6 2.12-.83a6.36 6.36 0 0 1 3.54-.12 3.72 3.72 0 0 1 2.8 3.07 9 9 0 0 1 .24 2.08v8.55c0 .57-.16.73-.72.73h-.88c-.51 0-.69-.18-.69-.69v-8.33a8 8 0 0 0-.11-1.48 2.21 2.21 0 0 0-2.35-2.1 7.2 7.2 0 0 0-3.8 1c-.1 0-.15.27-.15.41v10.36a2.4 2.4 0 0 1 0 .38.52.52 0 0 1-.54.49h-1.22a.5.5 0 0 1-.53-.53V170.8c0-.7.12-.81.83-.82h.76c.56 0 .7.14.72.69Zm-12.59 3.62v9c0 .72-.09.81-.82.81h-.91a.51.51 0 0 1-.57-.53v-18.34c0-.75.1-.85.82-.85h.84c.49 0 .64.15.64.65v9.21Zm4.1 2.6v-6.35c0-.68.13-.81.83-.82h.77c.55 0 .7.15.7.71v13c0 .62-.15.76-.77.76h-.84c-.51 0-.69-.18-.69-.69Zm2.35-11.04v.95c0 .31-.19.6-.61.61s-.79 0-1.18 0-.57-.18-.58-.56v-2a.49.49 0 0 1 .51-.54h1.34a.49.49 0 0 1 .52.53v1Zm30.84-19.06c.6-.18 1.15-.37 1.71-.5a7.5 7.5 0 0 1 4.18 0 4 4 0 0 1 2.64 3.29 9 9 0 0 1 .18 1.78v8.52c0 .57-.14.71-.72.71H224c-.5 0-.69-.19-.69-.69v-8.91a5.1 5.1 0 0 0-.26-1.45 2.38 2.38 0 0 0-2.56-1.53 10.5 10.5 0 0 0-3.18.56.52.52 0 0 0-.41.57v10.66c0 .67-.12.79-.81.79h-.87a.55.55 0 0 1-.62-.61V142c0-.77.11-.88.88-.88h.77c.5 0 .65.15.65.66V147Zm-68.43 2.69h7.69c.71 0 .84.14.84.86 0 1.18 0 1.18-1.2 1.18h-7.37v8.29c0 .7-.11.81-.82.81h-1a.54.54 0 0 1-.6-.55 2 2 0 0 1 0-.27v-13.79a6 6 0 0 1 .5-2.72 4 4 0 0 1 3.14-2.15 26 26 0 0 1 5.15-.13c.58 0 1.17.08 1.75.1a.37.37 0 0 1 .41.43v1.11c0 .37-.15.47-.49.47h-5a8.3 8.3 0 0 0-1.41.12c-1.09.21-1.57.65-1.62 1.76-.02 1.47.03 2.95.03 4.48M169 147.4c.73-.29 1.41-.61 2.12-.83a6.25 6.25 0 0 1 3.61-.09 3.72 3.72 0 0 1 2.73 3.08 9.4 9.4 0 0 1 .23 2.05v8.55c0 .55-.17.72-.7.72h-.92c-.51 0-.68-.18-.68-.69v-8.26a8.6 8.6 0 0 0-.11-1.52 2.27 2.27 0 0 0-2.51-2.14 7.64 7.64 0 0 0-3.62.95c-.1.05-.16.27-.17.41v10.45c0 .64-.15.79-.79.79h-.95a.52.52 0 0 1-.57-.54v-13c0-.8.09-.89.91-.89h.69c.55 0 .69.14.71.7a2 2 0 0 0 .02.26m14.57.01c.67-.28 1.29-.57 1.94-.79a6.64 6.64 0 0 1 3.31-.25 3.78 3.78 0 0 1 3.23 3.31 12 12 0 0 1 .22 2.13v8.29c0 .64-.15.78-.79.78h-.81c-.53 0-.7-.17-.7-.71v-6.46c0-.94 0-1.88-.05-2.82a3.2 3.2 0 0 0-.11-.76 2.2 2.2 0 0 0-2.33-1.85 7.4 7.4 0 0 0-3.76 1c-.1 0-.15.27-.16.41v10.63c0 .42-.2.59-.62.6h-1c-.47 0-.64-.18-.65-.65v-13c0-.65.13-.78.78-.78h.81c.56 0 .69.13.71.7-.03.04-.02.12-.02.22m22.6 13.72c-1.17-.13-2.3-.22-3.42-.39-.85-.13-.89-.23-.89-1.07s.08-.85.88-.79c1.34.1 2.67.18 4 .23a3.7 3.7 0 0 0 1.24-.17 1.64 1.64 0 0 0 .7-2.75A10.2 10.2 0 0 0 207 155c-.8-.51-1.65-1-2.46-1.46a5.87 5.87 0 0 1-2.35-2.23 3.62 3.62 0 0 1 0-3.18 3.16 3.16 0 0 1 2.61-1.7 16.5 16.5 0 0 1 5.43.12c1 .14 1 .17 1 1.13 0 .73 0 .76-.75.74-1.45-.06-2.9-.12-4.35-.16a3 3 0 0 0-.8.1 1.37 1.37 0 0 0-.68 2.36 7.6 7.6 0 0 0 1.28 1c1 .61 2 1.16 2.94 1.78a9.5 9.5 0 0 1 1.48 1.13 3.82 3.82 0 0 1 .86 4.26 3.29 3.29 0 0 1-2.46 1.92 23 23 0 0 1-2.58.32m-10.03-7.43v-6.42c0-.67.15-.82.8-.82h.88c.46 0 .61.17.63.63V160c0 .78-.1.87-.89.87h-.8c-.41 0-.61-.19-.62-.61s0-1 0-1.45Zm-33.37-.04v6.45c0 .63-.14.77-.76.77h-.91c-.42 0-.61-.19-.62-.6s0-.66 0-1v-12c0-.7.13-.83.82-.83h.7c.6 0 .74.14.74.74q.04 3.24.03 6.47m.04-11.06v1c0 .36-.18.58-.59.58H161a.5.5 0 0 1-.56-.54v-2.06a.49.49 0 0 1 .5-.52h1.37a.47.47 0 0 1 .5.52v1.06Zm35.68 0v1a.48.48 0 0 1-.51.51h-1.33a.5.5 0 0 1-.53-.53v-2a.51.51 0 0 1 .54-.56H198a.46.46 0 0 1 .49.51Z"/><rect width="98.46" height="98.46" x="28.55" y="114.57" fill="#efefef" rx="20.4"/><path fill="#20417f" d="M48.62 114.57h28.3v98.46h-28.3zm-20.37 63.38v-28.3h98.46v28.3z"/></svg>