<?xml version="1.0" encoding="utf-8"?>
<!-- Generator: Adobe Illustrator 22.1.0, SVG Export Plug-In . SVG Version: 6.00 Build 0)  -->
<svg version="1.1" id="Layer_1" xmlns="http://www.w3.org/2000/svg" xmlns:xlink="http://www.w3.org/1999/xlink" x="0px" y="0px"
	 viewBox="0 0 512 512" style="enable-background:new 0 0 512 512;" xml:space="preserve">
<style type="text/css">
	.st0{fill:#004282;}
</style>
<path class="st0" d="M259.2,70.9c9.2,9.4,19.2,19.7,28.5,29.2c-44.7,44.7-89.8,89.8-134.9,134.9c-9.2-9.3-19.4-19.5-29-29.1
	C168.7,161.2,213.7,116.2,259.2,70.9z M153,211.6c37.4-37.5,74.4-74.4,111.8-111.9c-1.8-1.7-4.4-4.2-5.2-5
	C222,132.4,185,169.4,147.7,206.6C149.1,207.9,151.5,210.2,153,211.6z"/>
<path class="st0" d="M441,255.1c-9.2,9.2-19.1,19.1-28.2,28.2c-45.1-45-90.2-90.2-135.2-135.1c8.9-8.7,19.2-18.7,28.6-28
	C350.6,164.6,395.6,209.7,441,255.1z M300.4,148.1c37.7,37.7,74.7,74.6,112.1,112c1.6-1.7,4-4.3,5.5-5.8
	c-37.5-37.6-74.3-74.4-111.6-111.7C304.6,144.2,302.1,146.5,300.4,148.1z"/>
<path class="st0" d="M209.1,387.3c-43.8-43.9-88.8-88.9-133.4-133.6c9.5-9.2,20-19.3,29.8-28.9c43.9,43.9,88.9,88.9,133.5,133.4
	C229.5,367.5,219.1,377.6,209.1,387.3z M216.8,359.3c-37.9-37.8-74.9-74.7-111.5-111.4c-2.1,1.5-5.2,3.6-6.2,4.3
	c37.8,37.8,74.7,74.8,111.5,111.6C212.1,362.7,214.8,360.7,216.8,359.3z"/>
<path class="st0" d="M229.3,406.5c44-44,88.9-89,133.4-133.5c9.4,9.5,19.6,19.9,29.3,29.7c-44.1,44.1-89.1,89-133.8,133.7
	C248.9,426.8,238.8,416.3,229.3,406.5z M256.5,413c38-38,74.9-74.9,112.2-112.2c-1.3-1.2-3.7-3.5-5.1-4.8
	c-37.5,37.5-74.4,74.4-112.2,112.2C253,409.7,255.5,412,256.5,413z"/>
<path class="st0" d="M238,253.7c0-20.1,0.2-40.2-0.1-60.3c-0.1-6.3,2.1-8.3,8.1-8.1c8.8,0.4,17.6-0.3,26.4,0.4
	c2.2,0.2,5.8,3.8,5.8,5.8c0.3,41.5,0.3,82.9,0,124.4c0,2-3.7,5.6-5.9,5.8c-8.7,0.7-17.6,0-26.4,0.4c-6.1,0.3-8.2-1.9-8.1-8.1
	C238.2,293.9,238,273.8,238,253.7z"/>
</svg>
