<svg xmlns="http://www.w3.org/2000/svg" width="320.2" height="320.2"><path fill="#00408a" d="M97 140.9c0 4.8 0 33.9.3 38.6-4.5-1.5-46.9-16.3-56.1-19.3 9.1-3.2 51.3-17.8 55.8-19.3zM28.7 160l72.8 25.3-.3-50.2L28.7 160zm133-43.7 70.7-24.7v136.7l-71-24.7 56.8-19.3v-48.7z"/><path fill="#00408a" d="M230.7 94.6v130.7c-4.8-1.5-53.5-18.4-62.7-21.7 9.2-3.3 52.3-18.1 52.3-18.1v-51.4s-43.1-14.9-52.3-17.8c9.2-3.3 57.9-19.9 62.7-21.7zm-75.2 21.7s57.9 19.9 60.6 20.8v45.7c-2.7.9-60.9 21.1-60.9 21.1l79.3 27.3V89l-79 27.3z"/><path fill="#00408a" d="M83.9 179.3v51.9l75.2-26.1 75.1-25.8 57.4-18.8-57.4-18.4-75.1-26.1-75.5-26.2v52.3z"/><path d="m161.7 116.3 56.4 19.3V184l-56.7 19.6 71 24.7V91.6l-70.7 24.7zM34.9 160l64.5 22.3-.3-44.3-64.2 22zM192 144.2h.3c5.3-.9 6.5 9.8 6.5 13.1 0 5.3-.6 12.5-6.2 14.3 0 0-.3 0-.3.3-6.2 1.5-6.2-11.6-6.2-15.4 0-5.2 1.2-11.1 5.9-12.3zm.3 28.8c.6-.3.9-.3 1.2-.3 6.5-2.7 11.3-10.4 11.3-17.8v-1.2c0-2.1-.3-3.6-1.2-5.3-1.8-4.8-6.8-6.5-11.6-5.6-.6.3-1.2.3-1.8.6-5.6 2.4-9.5 8.3-10.4 14.6-.9 4.8-.3 11.3 3.9 14.3 3 1.3 6 1.3 8.6.7zm-28.5 10.1c1.5-.3 3.9-1.8 4.8-2.7 1.5-1.8 3.3-5.1 4.2-8.9-1.8-.6.6.3-1.5-.3-.3 1.5-1.2 3.3-1.8 4.2-.3.6-1.2 2.1-1.8 2.1l-.9.3c-.6-.3-.6-3.3-.3-4.2V149c-5.3 2.4-6.2 2.4-11.6 5.1.3 1.2.3 1.2 0 1.2 0 .3 0 .6.3.9l.9-.3c.9-.3 1.8-.3 2.1-.3 1.2-.3 1.2 1.5 1.2 3.3v17.8c0 2.1-.3 5.9 1.2 6.2-.1-.1 1.4.8 3.2.2zm.3-38.9c2.7 0 4.8-2.4 4.8-5.1 0-2.7-2.1-5.1-4.8-5.1s-4.8 2.4-4.8 5.1c-.2 2.7 1.8 5.1 4.8 5.1zm-51.4-6.8c2.4-.3 3.9-.3 4.8 0 .6.3 1.5 1.2 1.5 2.1 0 .6.3 2.1.3 3.6v43.1c0 1.2.9 7.1-6.2 11.3v2.7l22.3-7.4v-3.3c-3.6 0-5.6-1.5-5.6-3.6v-24.1c2.4-.6 3.9-.9 5.3-.9 1.2 0 2.4.6 3.3 1.2.6.3 1.2 1.5 1.5 2.1s.9 2.1.9 3.3l.9 3.6h1.8v-25.8h-2.4c-.3 1.8-.3 3.6-.3 4.2-.3 1.5-.9 3-1.2 3.9-.6 1.2-1.8 2.4-3 3-2.4 1.2-4.2 1.5-6.5 2.4v-21.7c0-2.4 0-3.9 2.4-5.3l.6-.3c3.9-2.4 7.7-.9 9.8.3 2.4.9 4.2 5.9 5.1 9.8l.3 1.5h1.8v-20.8L112.7 135v2.4z" fill="#fff"/></svg>