<svg xmlns="http://www.w3.org/2000/svg" viewBox="0 0 512 512"><path d="M52.3 225.7v-42.1h37v-17.4c0-20 6.2-36.3 18.7-49.1 12.4-12.8 31.3-19.1 56.5-19.1 6.1 0 21.7.6 32.6 1.7v46.1c-5.5-.7-13.7-1.3-21.5-1.3-9.1 0-15.5 2-19.1 5.9-3.9 4.1-5.4 9.8-5.4 19.8v13.5h42.6v42.1H151v182.6H89.3V225.7h-37zM398 98v113h-.8c-15.1-23.7-41.5-33.5-69.2-33.5-42.1 0-96.7 33.3-96.7 116.7 0 73.5 39.1 119.9 100 119.9 29.3 0 54.5-10 68.8-34.5h.9v28.7h58.7V97.9L398 98zm-51.5 269.9c-33.1 0-53.6-27.5-53.6-71.9 0-44.3 20.6-71.9 53.6-71.9 34.3 0 53.6 26 53.6 71.9s-19.4 71.9-53.6 71.9z"/></svg>