<?xml version="1.0" encoding="utf-8"?>
<!-- Generator: Adobe Illustrator 22.1.0, SVG Export Plug-In . SVG Version: 6.00 Build 0)  -->
<svg version="1.1" id="Layer_1" xmlns="http://www.w3.org/2000/svg" xmlns:xlink="http://www.w3.org/1999/xlink" x="0px" y="0px"
	 viewBox="0 0 512 512" style="enable-background:new 0 0 512 512;" xml:space="preserve">
<style type="text/css">
	.st0{fill:#F26521;}
</style>
<path class="st0" d="M258.8,380.6c0-6,0-11.3,0-16.6c0-4.4-0.1-8.9,0.1-13.3c0-1.2,0.6-2.7,1.5-3.5c21.9-21.8,43.8-43.6,65.7-65.3
	c1.1-1.1,2.3-1.5,3.8-1.5c27.4,0,54.9,0,82.3,0.1c2,0,3.4-0.6,4.8-2c19.3-19.2,38.6-38.4,57.9-57.6c0.5-0.5,1.1-1,1.9-1.8
	c0.1,1,0.2,1.6,0.2,2.2c0,9.1,0.1,18.2-0.1,27.3c0,1.3-0.7,2.9-1.6,3.8c-16.5,16.5-33,32.9-49.6,49.3c-0.8,0.8-2.4,1.4-3.6,1.4
	c-27.5,0.1-55,0.1-82.6,0c-1.9,0-3.3,0.6-4.6,1.9c-24.7,24.7-49.5,49.3-74.2,74C260.3,379.2,259.8,379.7,258.8,380.6z"/>
<path class="st0" d="M258.8,326.2c0-10.6,0-20.6,0.1-30.6c0-0.9,0.6-1.9,1.2-2.5c16.7-16.7,33.4-33.4,50.3-49.9
	c0.8-0.8,2.5-1.1,3.7-1.1c27-0.1,54-0.1,80.9,0c2.8,0,4.8-0.8,6.8-2.8c23.7-23.7,47.5-47.4,71.3-71.1c1.1-1.1,2-2.3,3-3.4
	c0.2,0.1,0.4,0.2,0.6,0.3c0.1,0.6,0.2,1.2,0.2,1.8c0,9.2,0.1,18.3-0.1,27.5c0,1.1-0.6,2.6-1.4,3.4c-21.8,21.8-43.7,43.6-65.7,65.3
	c-0.9,0.9-2.7,1.4-4,1.4c-27.1,0.1-54.3,0.1-81.4,0c-2.4,0-4.1,0.7-5.8,2.4c-19.2,19.2-38.6,38.4-57.9,57.6
	C260.2,325,259.7,325.4,258.8,326.2z"/>
<path d="M40.5,165.7c10.7,0,21.4,0,32.2,0c0,4.3,0,8.5,0,12.9c-5.7,0-11.3,0-17.1,0c0,2.7,0,5.3,0,8.1c5.1,0,10.2,0,15.5,0
	c0,4.2,0,8.2,0,12.5c-5.1,0-10.3,0-15.7,0c0,7,0,13.7,0,20.5c-5.1,0-9.9,0-15,0C40.5,201.8,40.5,183.8,40.5,165.7z"/>
<path d="M97.3,181c7.4,0.2,13.7,1.5,18.3,6.7c5.5,6.2,6.3,13.4,3.6,21c-2.6,7.4-8.4,11.2-15.9,12.1c-4.1,0.5-8.4,0.4-12.5-0.4
	c-10.1-2-15.7-9.6-15.3-20.3c0.3-9.8,6.7-17,16.7-18.6C94.1,181.2,96.1,181.1,97.3,181z M106.6,201.3c-0.3-1.8-0.4-3.3-0.9-4.7
	c-1.2-3.7-4.1-5.9-7.9-5.8c-3.7,0.1-6.5,2.1-7.6,5.8c-1,3.3-1,6.6,0.3,9.9c1.3,3.3,3.9,5,7.5,5c3.5,0,6.2-1.7,7.4-5
	C106,204.7,106.3,202.9,106.6,201.3z"/>
<path d="M170.3,204.1c0.2,6.9,5.3,10.6,11.2,8.5c1.1-0.4,2.4-1.1,2.9-2.1c0.9-2,2.4-2.1,4.2-2.1c3.2,0.1,6.4,0,9.9,0
	c-1.6,4.7-4.2,8.2-8.5,10.2c-7.6,3.6-15.4,3.8-23-0.1c-8.3-4.3-11.8-14.5-8.7-24.4c2.6-8.1,8.5-12.1,16.6-13
	c7.3-0.8,14.1,0.4,19.1,6.5c3.8,4.7,4.7,10.2,4.8,16.3C189.3,204.1,179.8,204.1,170.3,204.1z M170.6,196.5c5.1,0,10,0,15,0
	c-0.5-4.6-3.3-7.3-7.4-7.3C174.1,189.1,171.2,191.9,170.6,196.5z"/>
<path d="M375.2,216.6c-0.1,1-0.2,2-0.3,3.1c-2.8,0-5.5,0-8.4,0c0-18,0-36,0-54.2c2.5,0,4.8-0.1,7.2,0.1c0.5,0,1.3,1.1,1.3,1.8
	c0.1,5.3,0.1,10.7,0.1,16c0,0.8,0,1.7,0,2.5c0.3,0,0.5,0.1,0.6,0.1c9.4-8,22.6-4.9,27.3,6.6c3,7.4,2.5,14.8-2.3,21.3
	C394.5,222.1,384.7,223.1,375.2,216.6z M395.5,200.9c0-0.3,0-1.2-0.2-2c-0.9-4.5-3-8-7.7-9.3c-3.9-1.1-8.2,0.3-10.6,3.5
	c-2.9,4-3.2,8.5-1.8,13.1c1.3,4.2,4.8,6.8,9,7C390.9,213.5,395.5,208.8,395.5,200.9z"/>
<path d="M248.6,219.9c-5.1,0-9.8,0.1-14.5-0.1c-0.8,0-1.8-0.8-2.2-1.5c-2.2-3.4-4.3-6.8-6.7-10.6c-1.5,2.2-3.1,4.1-4,6.2
	c-2.3,5.1-5.9,6.9-11.3,6.1c-2.8-0.4-5.7-0.1-9.2-0.1c5.7-6.9,11-13.4,16.5-20c-4.5-5.7-9-11.4-13.8-17.4c5.7,0,10.8,0,16,0.1
	c0.5,0,1.2,0.8,1.6,1.4c1.7,2.7,3.3,5.4,5.1,8.5c1.9-3,3.6-5.7,5.2-8.4c0.7-1.1,1.4-1.6,2.7-1.5c4.5,0.1,9.1,0,14.2,0
	c-1.6,2-3,3.7-4.3,5.3c-2.9,3.6-5.7,7.2-8.7,10.7c-1.1,1.3-1,2.1,0,3.3c4,5.3,8,10.6,11.9,16C247.6,218.3,248,218.9,248.6,219.9z"/>
<path d="M295.5,207.2c0,3,0.1,5.8-0.1,8.5c0,0.7-0.7,1.6-1.3,1.9c-18.8,9.7-40.1-2.2-42-21.6c-1-9.9,1.7-18.6,9.2-25.5
	c4.8-4.3,10.4-6.5,16.9-6.5c5.2,0,10.4-0.1,15.2,2.6c1.5,0.8,2.1,1.7,2,3.4c-0.1,2.3,0,4.7,0,7.6c-6.1-5.4-12.8-7.1-20.3-5.3
	c-4.3,1-7.8,3.4-10.4,7.1c-5.9,8.1-5.2,20.7,1.6,27.8C273.5,214.8,283.4,214.9,295.5,207.2z"/>
<path d="M347.1,182.6c2.9,0,5.6,0,8.2,0c0.1,0.2,0.3,0.4,0.3,0.6c0,7.9,0.3,15.9-0.1,23.8c-0.3,7.5-4.6,12-12,13.6
	c-4,0.9-7.9,0.6-11.6-1.2c-4.8-2.2-7.9-5.9-8.1-11.3c-0.3-8.2-0.1-16.5-0.2-24.7c0-0.2,0.1-0.4,0.2-0.8c2.7,0,5.4,0,8.4,0
	c0,0.9,0,1.7,0,2.5c0,6.9-0.1,13.7,0,20.6c0.1,5,3.1,7.8,8.1,7.4c3.3-0.2,5.8-2.2,6.3-5.6c0.4-2.4,0.3-4.9,0.4-7.3
	C347.2,194.4,347.1,188.6,347.1,182.6z"/>
<path d="M154.4,181.4c0,4.6,0,8.3,0,12.2c-0.5-0.1-0.9-0.2-1.3-0.2c-7.3-1-12,3-12.2,10.4c-0.1,4.4,0,8.9,0,13.3c0,0.8,0,1.7,0,2.7
	c-4.6,0-9,0-13.5,0c0-12.4,0-24.7,0-37.2c4.3,0,8.5,0,12.9,0c0,1.3,0,2.6,0,3.8c2.3-1.4,4.3-3.1,6.6-3.9
	C149.2,181.6,151.8,181.7,154.4,181.4z"/>
<path d="M313,219.8c-2.8,0-5.4,0-8.3,0c0-18,0-35.9,0-54.1c2.7,0,5.4,0,8.3,0C313,183.7,313,201.6,313,219.8z"/>
</svg>
