<svg fill="none" xmlns="http://www.w3.org/2000/svg" viewBox="0 0 256 256"><path d="M0 0h256v256H0V0z" fill="#fff"/><path d="M28 85.6c0-9 0-13.4 1.7-16.9 1.6-3 4-5.4 7-7 3.5-1.7 8-1.7 16.9-1.7h148.8c9 0 13.4 0 16.9 1.7 3 1.6 5.4 4 7 7 1.7 3.5 1.7 8 1.7 16.9V105H28V85.6z" fill="#000"/><path fill="#C5291C" d="M28 105h200v45H28z"/><path d="M28 150h200v19.4c0 9 0 13.4-1.7 16.9a16 16 0 01-7 7c-3.5 1.7-8 1.7-16.9 1.7H53.6c-9 0-13.4 0-16.9-1.7a16 16 0 01-7-7c-1.7-3.5-1.7-8-1.7-16.9V150z" fill="#EFC744"/></svg>