<?xml version="1.0" encoding="utf-8"?>
<!-- Generator: Adobe Illustrator 22.1.0, SVG Export Plug-In . SVG Version: 6.00 Build 0)  -->
<svg version="1.1" id="Layer_1" xmlns="http://www.w3.org/2000/svg" xmlns:xlink="http://www.w3.org/1999/xlink" x="0px" y="0px"
	 viewBox="0 0 512 512" style="enable-background:new 0 0 512 512;" xml:space="preserve">
<style type="text/css">
	.st0{fill:#34C924;}
	.st1{fill:#FFFFFF;}
</style>
<path class="st0" d="M-0.4,512c0-45.3,0-90.7,0-136c1,0,1.9-0.1,2.9-0.1c62.7,0,125.5,0,188.2-0.1c3.5,0,4.5,1.1,4.5,4.5
	c-0.1,18.4-0.1,36.7,0,55.1c0,1.2,0.7,2.3,1.1,3.5c1.1-0.4,2.2-0.7,3.1-1.3c7.1-5.1,14-10.3,21.1-15.4
	c25.5-18.6,51.1-37.1,76.6-55.7c29.1-21.2,58.2-42.4,87.2-63.6c11.6-8.4,23.2-16.8,34.7-25.2c4.1-3,4.1-4.8,0.2-7.6
	c-8.5-6.3-17.1-12.5-25.6-18.8c-19.1-14-38.2-28.1-57.3-42.1c-14.5-10.7-28.9-21.3-43.5-32c-13.2-9.6-26.4-19.2-39.5-28.8
	c-17.9-13.1-35.7-26.2-53.5-39.3c-1.1-0.8-2.5-1.1-3.8-1.7c-0.4,1.4-1.1,2.9-1.1,4.3c-0.1,18.1,0,36.3,0,54.4c0,5.9,0,5.9-5.7,5.9
	c-61.4,0-122.8,0-184.2,0c-1.8,0-3.6,0.1-5.4,0.1c0-57.5,0-115,0-172.5c170.8,0,341.6,0,512.5,0c-0.1,1.8-0.3,3.5-0.3,5.3
	c0,167.2,0.1,334.4,0.1,501.7c0,1.6,0,3.3,0,5.3c-1.9,0-3.4,0-4.9,0c-167.5,0-334.9,0-502.4,0C2.9,511.8,1.3,511.9-0.4,512z"/>
<path class="st1" d="M-0.4,172c1.8,0,3.6-0.1,5.4-0.1c61.4,0,122.8,0,184.2,0c5.7,0,5.7,0,5.7-5.9c0-18.1,0-36.3,0-54.4
	c0-1.4,0.7-2.9,1.1-4.3c1.3,0.5,2.7,0.9,3.8,1.7c17.9,13.1,35.7,26.2,53.5,39.3c13.2,9.6,26.4,19.2,39.5,28.8
	c14.5,10.6,29,21.3,43.5,32c19.1,14,38.2,28.1,57.3,42.1c8.5,6.3,17.1,12.5,25.6,18.8c3.9,2.9,3.9,4.6-0.2,7.6
	c-11.5,8.4-23.1,16.8-34.7,25.2c-29.1,21.2-58.1,42.4-87.2,63.6c-25.5,18.6-51.1,37.1-76.6,55.7c-7,5.1-14,10.3-21.1,15.4
	c-0.9,0.6-2.1,0.9-3.1,1.3c-0.4-1.2-1.1-2.3-1.1-3.5c-0.1-18.4-0.1-36.7,0-55.1c0-3.4-1-4.5-4.5-4.5c-62.7,0.1-125.5,0.1-188.2,0.1
	c-1,0-1.9,0.1-2.9,0.1C-0.4,308-0.4,240-0.4,172z"/>
</svg>
