<svg id="ideal_logo" xmlns="http://www.w3.org/2000/svg" viewBox="0 0 320.24 320.24"><defs><style>.cls-1{fill:#000268;}.cls-2{fill:#fff;}.cls-3{fill:#ff0007;}</style></defs><title>giropay_logo_sq</title><g id="giropay"><path id="_92653320" data-name=" 92653320" class="cls-1" d="M39.5,132.15a18.72,18.72,0,0,1,18.77-18.66H262.73a18.72,18.72,0,0,1,18.77,18.66v66.71a18.7,18.7,0,0,1-18.77,18.65H58.27A18.68,18.68,0,0,1,39.5,198.88Z"/><path id="_92186184" data-name=" 92186184" class="cls-2" d="M47.2,132.8v65.46a11.69,11.69,0,0,0,11.72,11.66H166V121.14H58.92A11.69,11.69,0,0,0,47.2,132.8Zm146.53,32.4c0,4.18-2,7-5.46,7-3,0-5.52-2.87-5.52-6.69s2.21-6.83,5.52-6.83C191.76,158.73,193.73,161.73,193.73,165.2Zm-20,23.9h9V174.9h.11c1.72,3.11,5.14,4.26,8.28,4.26,7.78,0,11.94-6.42,11.94-14.15,0-6.34-4-13.19-11.2-13.19-4.13,0-7.93,1.66-9.76,5.32H182v-4.72h-8.33V189.1Zm41.71-18.84c0-2.52,2.41-3.47,5.47-3.47,1.36,0,2.65.08,3.82.13,0,3.06-2.16,6.18-5.57,6.18-2.11,0-3.72-1-3.72-2.84Zm18.25,8.3a31.32,31.32,0,0,1-.49-6.17v-9.76c0-8-5.76-10.84-12.46-10.84a26.86,26.86,0,0,0-10.43,1.86l.16,6.12a16.82,16.82,0,0,1,8.33-2c3.25,0,5.93,1,6,4.53a27.74,27.74,0,0,0-4.21-.35c-4.81,0-13.5,1-13.5,8.93,0,5.68,4.62,8.22,9.78,8.22,3.72,0,6.23-1.44,8.28-4.72h.11c0,1.36.14,2.7.19,4.12h8.25Zm4,10.54a26,26,0,0,0,5.63.61c8.28,0,10.24-6.4,12.81-13l9.59-24.34h-9l-5.38,17.07h-.08l-5.63-17.07h-9.73l10.6,26.77a4.56,4.56,0,0,1-4.56,3.6,11.56,11.56,0,0,1-3.58-.54l-.63,6.85Z"/><path id="_47303032" data-name=" 47303032" class="cls-3" d="M69.28,165.26c0-3.58,1.74-6.53,5.13-6.53,4.07,0,5.76,3.25,5.76,6.17,0,4-2.56,6.72-5.76,6.72-2.73,0-5.13-2.29-5.13-6.36Zm19.64-12.87h-8.2v4.73h-.08a10.2,10.2,0,0,0-8.88-5.33c-8.14,0-11.8,5.82-11.8,13.6s4.48,13.17,11.64,13.17a10.18,10.18,0,0,0,8.79-4.48h.11v1.42c0,5.11-2.81,7.57-8,7.57a17.86,17.86,0,0,1-8.85-2.16L63.16,188a30.21,30.21,0,0,0,10,1.67c10.55,0,15.77-3.47,15.77-14.21Zm15.27-10.9h-9v6.64h9v-6.64Zm-9,37.07h9V152.39h-9Zm34.2-26.47a20.6,20.6,0,0,0-3-.3c-3.91,0-6.18,2.1-7.74,5.44h-.1v-4.81h-8.23v26.17h9v-11c0-5.13,2.37-8.19,6.58-8.19a10.44,10.44,0,0,1,3.06.3l.43-7.57Zm15.58,20.73c-4.18,0-5.88-3.47-5.88-7.32s1.7-7.37,5.88-7.37,5.87,3.47,5.87,7.37S149.07,172.82,144.92,172.82Zm0,6.34c8.63,0,15.21-5,15.21-13.66s-6.58-13.71-15.21-13.71-15.22,5-15.22,13.71S136.26,179.16,144.92,179.16Z"/></g></svg>