<?xml version="1.0" encoding="utf-8"?>
<!-- Generator: Adobe Illustrator 22.1.0, SVG Export Plug-In . SVG Version: 6.00 Build 0)  -->
<svg version="1.1" id="Layer_1" xmlns="http://www.w3.org/2000/svg" xmlns:xlink="http://www.w3.org/1999/xlink" x="0px" y="0px"
	 viewBox="0 0 512 512" style="enable-background:new 0 0 512 512;" xml:space="preserve">
<style type="text/css">
	.st0{fill:#C31348;}
	.st1{fill:#526370;}
</style>
<path class="st0" d="M140.3,323.7c0-64.2-0.2-128.4,0.1-192.6c0.1-26.8,19.2-45.7,46-45.9c49.8-0.3,99.6-0.3,149.3,0
	c27.5,0.2,46.2,19.7,46.2,47.2c0,48.9,0,97.8-0.1,146.8c0,4.8-0.5,9.6-1.6,14.2c-5.3,20.8-22.8,33.5-46.1,33.5
	c-62.7,0.1-125.3,0-188,0c-1.7,0-3.4,0-5.6,0C140.4,325.4,140.3,324.6,140.3,323.7z M308.6,189.9c14.2-0.2,22.4-13.7,15.9-25.9
	c-3.9-7.3-10.8-9-18.3-9c-20.6,0-41.2,0-61.8,0c-9.9,0-19.9-0.2-29.8,0.1c-9.3,0.2-15.3,4.2-17.8,11.4c-2.5,7.1-1.1,14.8,5,19
	c3.8,2.6,9.1,4.2,13.7,4.4c15.4,0.5,30.9,0.2,46.3,0.2C277.4,189.9,293,190.1,308.6,189.9z M308.9,257.2c10.9,0,17.6-6.6,17.7-17.1
	c0.1-10-7-17.5-17.5-17.5c-32.1-0.1-64.1-0.1-96.2,0c-10.4,0.1-17.6,7.8-17.4,17.8c0.2,9.7,7.5,16.7,17.7,16.8
	c16.1,0.1,32.2,0,48.4,0C277.4,257.2,293.2,257.3,308.9,257.2z"/>
<g>
	<path class="st1" d="M174.6,386.8c3.7,3.3,6.1,7.3,6.9,12.2c1.5,10.1-4.5,19.6-14.3,22.3c-1.8,0.5-3.8,0.7-5.7,0.7
		c-5.3,0.1-10.7,0-16,0c-3.4,0-5.2-1.8-5.2-5.2c0-19.2,0-38.5,0-57.7c0-3.4,1.7-5.1,5.1-5.1c5.7,0,11.4,0,17.2,0
		c8.8,0.1,16.5,7,17.8,15.8c0.9,6-0.8,11.2-4.8,15.7c-0.3,0.3-0.5,0.6-0.8,0.9C174.7,386.5,174.7,386.6,174.6,386.8z M149.5,402.2
		c0,2.8,0,5.6,0,8.4c0,2.5-0.1,2.2,2.3,2.2c3.5,0,7,0,10.5,0c0.6,0,1.3-0.1,1.9-0.2c5.6-1.3,9.1-6.1,8.5-11.8
		c-0.6-5.3-5.2-9.3-10.8-9.4c-3.6,0-7.2,0-10.7,0c-1.3,0-1.6,0.4-1.5,1.6C149.6,396.1,149.5,399.2,149.5,402.2z M149.5,372.7
		c0,2.7,0,5.4,0,8.1c0,1.1,0.3,1.5,1.5,1.5c3.7-0.1,7.4,0,11,0c5.2,0,9.3-4.4,9.4-9.7c0-4.8-4.2-9.2-9.2-9.3c-3.8-0.1-7.7,0-11.5,0
		c-1.1,0-1.3,0.5-1.3,1.4C149.6,367.3,149.5,370,149.5,372.7z"/>
	<path class="st1" d="M208.9,400c-3.4,0-6.8,0.1-10.2,0c-1.5-0.1-2,0.5-1.8,1.9c0.1,0.6,0,1.2,0,1.7c0,4.8,2,7.8,6.3,9.5
		c3.7,1.5,8.3,0.4,11.2-2.7c2-2.1,4.4-2.3,6.6-0.5c1.8,1.5,2.2,3.8,0.9,5.7c-2.2,3.3-5.5,5.2-9.3,6.4c-8.6,2.6-17.9-0.9-22.4-8.3
		c-1.6-2.7-2.5-5.6-2.5-8.8c0-5.5-0.1-11,0.1-16.6c0.2-8,7.1-15.4,15-16.5c10.3-1.4,19,4.8,20.7,15c0.5,3.1,0.3,6.3,0.2,9.4
		c-0.1,2.1-2,3.7-4.2,3.7C215.9,400,212.4,400,208.9,400C208.9,400,208.9,400,208.9,400z M214.5,390.7c0.3-4.1-1.4-7.3-4.6-9
		c-3.2-1.6-7.2-1.2-9.8,1c-2.5,2.1-3.5,4.7-3,8C202.9,390.7,208.6,390.7,214.5,390.7z"/>
	<path class="st1" d="M302.9,391.6c0-4.6,0-9.1,0-13.7c0-3.4,1.7-5.4,4.5-5.5c2.9-0.1,4.7,2,4.7,5.6c0,8.9,0,17.8,0,26.7
		c0,4.7,3.3,8.3,8.1,8.9c4.1,0.5,8.3-2.4,9.4-6.6c0.3-1.2,0.3-2.4,0.3-3.6c0-8.6,0-17.2,0-25.7c0-3,1.2-4.5,3.7-5.1
		c2.4-0.5,4.8,0.9,5.3,3.3c0.2,0.8,0.2,1.6,0.2,2.4c0,8.4,0,16.9,0,25.3c0,10.1-6,17.5-15.9,19c-6.4,1-13.3-1.8-17.5-8.3
		c-1.8-2.8-2.8-5.9-2.8-9.3C302.9,400.6,302.9,396.1,302.9,391.6C302.9,391.6,302.9,391.6,302.9,391.6z"/>
	<path class="st1" d="M263.8,381.6c0,0.8,0,1.4,0,2c0,11.1,0,22.2,0,33.3c0,3.2-1.8,5.2-4.6,5.2c-2.9,0-4.6-1.8-4.6-5
		c0-9.8,0-19.6,0-29.4c0-1.5-0.1-3,0-4.5c0.1-1.2-0.3-1.7-1.5-1.6c-0.9,0.1-1.7,0-2.6,0c-2.5-0.1-4.2-2-4.2-4.6
		c0-2.6,1.7-4.5,4.2-4.6c0.8,0,1.6-0.1,2.3,0c1.4,0.1,1.9-0.3,1.8-1.8c0-2.2-0.1-4.5,0.3-6.6c1-5.5,5.6-9.6,11.1-10.5
		c2.7-0.4,5.3-0.4,7.9,0.3c2.6,0.8,4.7,2.2,5.4,5.1c0.4,1.8-0.1,3.3-1.5,4.4c-1.4,1.1-3,1.1-4.5,0.3c-1.9-1-3.8-1.7-6-1.1
		c-2.4,0.7-3.6,2.1-3.6,4.6c0,1.2,0.1,2.4,0,3.6c-0.1,1.3,0.4,1.6,1.7,1.6c2.8-0.1,5.5,0,8.3,0c2.9,0,4.7,1.8,4.7,4.6
		c0,2.8-1.8,4.6-4.7,4.6C270.5,381.6,267.2,381.6,263.8,381.6z"/>
	<path class="st1" d="M360,422.9c-4.6-0.3-9.8-1.6-13.4-6.4c-1.8-2.4-1.2-5.1,1.3-6.7c1.9-1.2,4-1,5.5,0.7c3,3.2,6.6,3.6,10.5,2.7
		c0.7-0.2,1.4-0.5,2-0.8c3.6-2.1,4-6.5,0.5-8.8c-2.6-1.7-5.7-2.8-8.6-4.1c-2.1-1-4.2-1.9-6.2-3.2c-4.3-2.8-6.1-7.1-5.7-12.1
		c0.4-5.2,3.2-8.8,7.9-11c7.4-3.4,16.6-1,21.3,5.3c2,2.8,1.1,6.2-2.1,7.3c-2,0.7-3.7,0.2-5.1-1.6c-2.6-3.3-6.3-4.4-9.8-3
		c-1.7,0.7-2.9,1.8-3.1,3.7c-0.2,1.8,0.7,3.2,2.2,3.9c2.3,1.2,4.8,2.2,7.2,3.3c2.1,1,4.2,1.8,6.1,3c4.9,2.8,7.4,7.2,7.3,12.8
		c-0.1,6-3.2,10.2-8.4,12.9C366.9,422.2,364,422.9,360,422.9z"/>
	<path class="st1" d="M240.6,388.1c0,9.5,0,19.1,0,28.6c0,2.9-1,4.5-3.3,5.1c-2.6,0.8-5.2-0.8-5.7-3.4c-0.1-0.7-0.2-1.3-0.2-2
		c0-18.9,0-37.8,0-56.7c0-1,0.1-2.2,0.5-3.1c0.7-1.9,3-2.9,5.2-2.5c1.9,0.4,3.3,1.9,3.4,4c0.1,1.2,0.1,2.3,0.1,3.5
		C240.6,370.5,240.6,379.3,240.6,388.1z"/>
	<path class="st1" d="M293.8,397.4c0,6.5,0,13.1,0,19.6c0,3.1-1.6,4.9-4.2,5.1c-2.9,0.2-4.8-1.7-5-4.8c-0.1-1.5,0-3,0-4.5
		c0-11.6,0-23.2,0-34.7c0-3.1,1.2-4.8,3.8-5.3c2.6-0.6,5.1,1.2,5.3,3.8c0.2,2.8,0.1,5.7,0.1,8.6
		C293.9,389.1,293.9,393.2,293.8,397.4z"/>
	<path class="st1" d="M293.8,360.3c0,0.6,0,1.3,0,1.9c-0.2,2.7-1.8,4.4-4.3,4.5c-2.4,0.1-4.4-1.5-4.7-4.1c-0.2-1.6-0.2-3.2,0-4.8
		c0.3-2.5,2.2-3.9,4.8-3.8c2.3,0.1,4,1.7,4.1,4.2C293.8,359,293.8,359.7,293.8,360.3C293.8,360.3,293.8,360.3,293.8,360.3z"/>
</g>
</svg>
