<svg xmlns="http://www.w3.org/2000/svg" viewBox="0 0 512 512"><path fill="#c31348" d="M140.3 323.7c0-64.2-.2-128.4.1-192.6.1-26.8 19.2-45.7 46-45.9 49.8-.3 99.6-.3 149.3 0 27.5.2 46.2 19.7 46.2 47.2 0 48.9 0 97.8-.1 146.8 0 4.8-.5 9.6-1.6 14.2-5.3 20.8-22.8 33.5-46.1 33.5-62.7.1-125.3 0-188 0h-5.6c-.1-1.5-.2-2.3-.2-3.2m168.3-133.8c14.2-.2 22.4-13.7 15.9-25.9-3.9-7.3-10.8-9-18.3-9h-61.8c-9.9 0-19.9-.2-29.8.1-9.3.2-15.3 4.2-17.8 11.4-2.5 7.1-1.1 14.8 5 19 3.8 2.6 9.1 4.2 13.7 4.4 15.4.5 30.9.2 46.3.2 15.6-.2 31.2 0 46.8-.2m.3 67.3c10.9 0 17.6-6.6 17.7-17.1.1-10-7-17.5-17.5-17.5-32.1-.1-64.1-.1-96.2 0-10.4.1-17.6 7.8-17.4 17.8.2 9.7 7.5 16.7 17.7 16.8 16.1.1 32.2 0 48.4 0 15.8 0 31.6.1 47.3 0"/><path fill="#526370" d="M174.6 386.8c3.7 3.3 6.1 7.3 6.9 12.2 1.5 10.1-4.5 19.6-14.3 22.3-1.8.5-3.8.7-5.7.7-5.3.1-10.7 0-16 0-3.4 0-5.2-1.8-5.2-5.2v-57.7q0-5.1 5.1-5.1h17.2c8.8.1 16.5 7 17.8 15.8.9 6-.8 11.2-4.8 15.7-.3.3-.5.6-.8.9-.1.1-.1.2-.2.4m-25.1 15.4v8.4c0 2.5-.1 2.2 2.3 2.2h10.5c.6 0 1.3-.1 1.9-.2 5.6-1.3 9.1-6.1 8.5-11.8-.6-5.3-5.2-9.3-10.8-9.4h-10.7c-1.3 0-1.6.4-1.5 1.6-.1 3.1-.2 6.2-.2 9.2m0-29.5v8.1c0 1.1.3 1.5 1.5 1.5 3.7-.1 7.4 0 11 0 5.2 0 9.3-4.4 9.4-9.7 0-4.8-4.2-9.2-9.2-9.3-3.8-.1-7.7 0-11.5 0-1.1 0-1.3.5-1.3 1.4.2 2.6.1 5.3.1 8m59.4 27.3c-3.4 0-6.8.1-10.2 0-1.5-.1-2 .5-1.8 1.9.1.6 0 1.2 0 1.7 0 4.8 2 7.8 6.3 9.5 3.7 1.5 8.3.4 11.2-2.7 2-2.1 4.4-2.3 6.6-.5 1.8 1.5 2.2 3.8.9 5.7-2.2 3.3-5.5 5.2-9.3 6.4-8.6 2.6-17.9-.9-22.4-8.3-1.6-2.7-2.5-5.6-2.5-8.8 0-5.5-.1-11 .1-16.6.2-8 7.1-15.4 15-16.5 10.3-1.4 19 4.8 20.7 15 .5 3.1.3 6.3.2 9.4-.1 2.1-2 3.7-4.2 3.7-3.6.1-7.1.1-10.6.1m5.6-9.3c.3-4.1-1.4-7.3-4.6-9-3.2-1.6-7.2-1.2-9.8 1-2.5 2.1-3.5 4.7-3 8zm88.4.9v-13.7c0-3.4 1.7-5.4 4.5-5.5 2.9-.1 4.7 2 4.7 5.6v26.7c0 4.7 3.3 8.3 8.1 8.9 4.1.5 8.3-2.4 9.4-6.6.3-1.2.3-2.4.3-3.6v-25.7c0-3 1.2-4.5 3.7-5.1 2.4-.5 4.8.9 5.3 3.3.2.8.2 1.6.2 2.4v25.3c0 10.1-6 17.5-15.9 19-6.4 1-13.3-1.8-17.5-8.3-1.8-2.8-2.8-5.9-2.8-9.3zm-39.1-10v35.3c0 3.2-1.8 5.2-4.6 5.2-2.9 0-4.6-1.8-4.6-5v-29.4c0-1.5-.1-3 0-4.5.1-1.2-.3-1.7-1.5-1.6-.9.1-1.7 0-2.6 0-2.5-.1-4.2-2-4.2-4.6s1.7-4.5 4.2-4.6c.8 0 1.6-.1 2.3 0 1.4.1 1.9-.3 1.8-1.8 0-2.2-.1-4.5.3-6.6 1-5.5 5.6-9.6 11.1-10.5 2.7-.4 5.3-.4 7.9.3 2.6.8 4.7 2.2 5.4 5.1.4 1.8-.1 3.3-1.5 4.4s-3 1.1-4.5.3c-1.9-1-3.8-1.7-6-1.1-2.4.7-3.6 2.1-3.6 4.6 0 1.2.1 2.4 0 3.6-.1 1.3.4 1.6 1.7 1.6 2.8-.1 5.5 0 8.3 0 2.9 0 4.7 1.8 4.7 4.6s-1.8 4.6-4.7 4.6c-3.2.1-6.5.1-9.9.1m96.2 41.3c-4.6-.3-9.8-1.6-13.4-6.4-1.8-2.4-1.2-5.1 1.3-6.7 1.9-1.2 4-1 5.5.7 3 3.2 6.6 3.6 10.5 2.7.7-.2 1.4-.5 2-.8 3.6-2.1 4-6.5.5-8.8-2.6-1.7-5.7-2.8-8.6-4.1-2.1-1-4.2-1.9-6.2-3.2-4.3-2.8-6.1-7.1-5.7-12.1.4-5.2 3.2-8.8 7.9-11 7.4-3.4 16.6-1 21.3 5.3 2 2.8 1.1 6.2-2.1 7.3-2 .7-3.7.2-5.1-1.6-2.6-3.3-6.3-4.4-9.8-3-1.7.7-2.9 1.8-3.1 3.7-.2 1.8.7 3.2 2.2 3.9 2.3 1.2 4.8 2.2 7.2 3.3 2.1 1 4.2 1.8 6.1 3 4.9 2.8 7.4 7.2 7.3 12.8-.1 6-3.2 10.2-8.4 12.9-2.5 1.4-5.4 2.1-9.4 2.1m-119.4-34.8v28.6c0 2.9-1 4.5-3.3 5.1-2.6.8-5.2-.8-5.7-3.4-.1-.7-.2-1.3-.2-2v-56.7c0-1 .1-2.2.5-3.1.7-1.9 3-2.9 5.2-2.5 1.9.4 3.3 1.9 3.4 4 .1 1.2.1 2.3.1 3.5zm53.2 9.3V417c0 3.1-1.6 4.9-4.2 5.1-2.9.2-4.8-1.7-5-4.8-.1-1.5 0-3 0-4.5v-34.7c0-3.1 1.2-4.8 3.8-5.3 2.6-.6 5.1 1.2 5.3 3.8.2 2.8.1 5.7.1 8.6.1 3.9.1 8 0 12.2m0-37.1v1.9c-.2 2.7-1.8 4.4-4.3 4.5-2.4.1-4.4-1.5-4.7-4.1q-.3-2.4 0-4.8c.3-2.5 2.2-3.9 4.8-3.8 2.3.1 4 1.7 4.1 4.2.1.8.1 1.5.1 2.1"/></svg>