<?xml version="1.0" encoding="utf-8"?>
<!-- Generator: Adobe Illustrator 22.1.0, SVG Export Plug-In . SVG Version: 6.00 Build 0)  -->
<svg version="1.1" id="Layer_1" xmlns="http://www.w3.org/2000/svg" xmlns:xlink="http://www.w3.org/1999/xlink" x="0px" y="0px"
	 viewBox="0 0 512 512" style="enable-background:new 0 0 512 512;" xml:space="preserve">
<style type="text/css">
	.st0{fill:#006AA7;}
	.st1{fill:#FFFFFF;}
</style>
<rect x="1" y="1" class="st0" width="509" height="511"/>
<path class="st1" d="M256,160c0.1,1.8,0.2,3.7,0.2,5.5c0,62.8,0,125.7,0,188.5c0,2.1,0,4.2,0,6.6c-13.9,0-27.2,0-41.2,0
	c0-29.8,0-59.5,0-89.5c-26.7,0-52.6,0-79.1,0c0,29.8,0,59.5,0,89.9c-14.4,0-28.2,0-41.9,0c0-67,0-134,0-201c14.1,0,28,0,42,0
	c0,25.4,0,50.7,0,76.4c2.1,0,3.6,0,5.1,0c22.8,0,45.6-0.1,68.4,0.1c4.5,0,5.6-1.4,5.5-5.7c-0.2-23.6,0-47.2,0-70.9
	C228.7,160,242.3,160,256,160z"/>
<path class="st1" d="M320,365c-1.9-0.5-3.8-1.1-5.7-1.6c-24.8-6.1-34.9-25.7-31.7-49.2c3.2-23.3,18.2-36.6,43.6-40.1
	c11.7-1.6,23.4-3.4,35-5.2c8.5-1.3,12.8-5.2,13.1-11.3c0.5-8.5-3.6-15.1-11.9-16.6c-7.1-1.3-14.6-1.6-21.7-0.8
	c-8.6,1-14,6.9-15.6,15.4c-0.7,3.7-2.3,4.4-5.6,4.4c-10.6-0.2-21.2-0.1-31.8-0.1c-1.9-17.7,11.4-38.5,28.7-45.6
	c13.4-5.5,27.5-6.6,41.7-5.6c8.5,0.6,17.3,2,25.4,4.6c20,6.5,28.9,19.4,29,40.4c0.1,25.2-0.1,50.3,0.1,75.5c0,5.6,0.4,11.3,1.4,16.8
	c0.5,2.9,3,5.4,4.5,8c1.1,1.9,2.1,3.7,3.9,6.8c-14.9,0-28,0.1-41.2-0.1c-1,0-2.5-1.9-2.9-3.2c-1.2-4.3-1.9-8.7-3-13.5
	c-1.2,0.9-2.3,1.6-3.2,2.4c-9.6,9.6-20.8,16-34.4,17.6c-0.6,0.1-1.2,0.6-1.8,0.9C330.7,365,325.3,365,320,365z M374.1,289.3
	c-4.4,1.6-8.2,3.2-12.1,4.3c-4.2,1.1-8.5,1.5-12.7,2.6c-6.4,1.7-13.1,2.9-19,5.7c-8,3.8-11.2,13.1-8.9,22.3
	c2.1,8.2,8.4,12.9,17.8,13c9.7,0.1,18.4-2.8,25.8-9.1c4.9-4.1,8.5-9.3,9-15.6C374.6,305,374.1,297.3,374.1,289.3z"/>
</svg>
