<?xml version="1.0" encoding="utf-8"?>
<!-- Generator: Adobe Illustrator 22.1.0, SVG Export Plug-In . SVG Version: 6.00 Build 0)  -->
<svg version="1.1" id="Layer_1" xmlns="http://www.w3.org/2000/svg" xmlns:xlink="http://www.w3.org/1999/xlink" x="0px" y="0px"
	 viewBox="0 0 512 512" style="enable-background:new 0 0 512 512;" xml:space="preserve">
<style type="text/css">
	.st0{fill:#019430;}
</style>
<g>
	<path class="st0" d="M99.3,177.6c-0.9-2.4-2-3.5-4.6-3.3c-4.6,0.2-9.3,0.3-13.9,0c-3.4-0.2-4.9,0.9-6.1,4.2
		c-15.5,43.5-31.2,87-46.9,130.4c-0.5,1.3-1.2,2.4-1.9,3.6c0,0.3,0,0.5,0,0.8c5.9-0.1,11.8-0.3,17.7-0.1c3,0.1,4.2-1.1,5.1-3.7
		c2.9-8.8,6.1-17.4,9-26.2c0.8-2.5,2.1-3.3,4.7-3.3c16.3,0.1,32.7,0.1,49,0c2.9,0,4.1,1,4.9,3.6c3,8.9,6.1,17.7,9.4,26.5
		c0.4,1.2,1.8,2.9,2.7,3c6.5,0.3,13,0.1,19.9,0.1c-1.7-4.6-3.1-8.7-4.6-12.8C129,259.4,114.1,218.5,99.3,177.6z M65.6,261.5
		c7.1-21.1,14.1-42,21.4-63.7c7.4,21.6,14.5,42.5,21.8,63.7C94.3,261.5,80.2,261.5,65.6,261.5z"/>
	<path class="st0" d="M488.2,235.1c-2-13.9-10-22.4-23.3-26.2c-9.3-2.7-18.8-2.5-28.3-1c-7.9,1.2-15.4,3.7-22.2,8.3
		c2.6,5,5,9.8,7.5,14.7c1.3-0.5,2.3-0.9,3.2-1.3c7.8-3.8,16.2-5.2,24.7-4.9c14.9,0.4,21.8,8.9,18.6,25.7c-11.4-4-23.1-4.4-35-2.5
		c-17.6,2.8-28.6,14.4-29.1,30.7c-0.6,18.9,9,31.7,26.6,35.8c1.9,0.4,3.7,0.9,5.6,1.3c2.3,0,4.6,0,6.9,0c4.6-1.5,9.4-2.6,13.7-4.6
		c4-1.9,7.5-4.8,11.7-7.5c0.1,3.1,0.3,6.2,0.4,9.8c6.7,0,13.2,0,19.6,0c0-25.2,0-50.4,0-75.6C488.7,236.8,488.3,236,488.2,235.1z
		 M461,291.7c-8.1,5.5-16.9,7.3-26.3,4.3c-7.2-2.2-11.3-8-11.4-15.6c-0.1-7,3.5-12.3,10.7-14.7c11.2-3.6,22.3-2.1,33.1,2
		c1,0.4,1.8,2,2,3.2c0.3,1.7,0.1,3.6,0.1,6.3C471,283.9,466.4,288,461,291.7z"/>
	<path class="st0" d="M312.4,209.2c-10.2,0-10.2,0-10.2-10c0-8.7,0-17.5,0-26.2c0-1.2-0.2-2.4-0.3-4.1c-5.5,2.9-10.4,5.7-15.4,8.1
		c-2.7,1.3-3.7,2.9-3.7,5.9c0.2,7.4,0,14.9,0.1,22.4c0.1,3.1-1,4.1-4,3.9c-3.5-0.2-7.1-0.1-11.1-0.1c0,5.2,0.1,9.9,0,14.6
		c-0.1,2.6,0.7,3.7,3.4,3.6c3.7-0.2,7.4-0.1,11.4-0.1c0.1,2.1,0.3,3.7,0.3,5.3c0.1,20.1-0.2,40.1,0.3,60.1c0.3,13,7.8,21,18.4,22.2
		c0.5,0.1,0.9,0.4,1.4,0.6c2.3,0,4.6,0,6.9,0c4.4-1.2,8.9-2.4,13.2-3.8c1.1-0.3,2.5-1.4,2.6-2.4c0.9-5.1,1.4-10.3,2.1-15.5
		c-3.9,1.1-7.3,2.3-10.8,2.9c-10,1.9-14.8-1.9-14.9-12c-0.1-18,0-36-0.1-54c0-2.7,0.9-3.6,3.6-3.5c6.4,0.2,12.9,0.1,19.3,0
		c1.1,0,3.1-1.3,3.1-2c0.3-5.2,0.1-10.4,0.1-16C322.6,209.2,317.5,209.2,312.4,209.2z"/>
	<path class="st0" d="M225,247.3c-1.2-2.6-1-4.3,0.7-6.5c6.6-8.4,12.9-17,19.3-25.5c1.4-1.8,2.7-3.6,4.6-6.1c-6.9,0-13,0.1-19.1-0.1
		c-2.4-0.1-3.9,0.6-5.4,2.7c-9.5,13.8-19.1,27.4-28.7,41.1c-0.7,1-1.4,1.9-2.1,2.8c-0.3-0.1-0.6-0.2-1-0.4c0-28.6,0-57.3,0-86.6
		c-5.9,3.1-11,5.9-16.3,8.5c-2.5,1.2-3.5,2.7-3.5,5.6c0.1,41.9,0.1,83.8,0.1,125.8c0,1.4,0,2.7,0,4.5c5.9,0,11.3-0.1,16.7,0.1
		c2.6,0.1,3.3-0.9,3.3-3.4c-0.1-8-0.1-15.9,0-23.9c0-1.3-0.1-2.8,0.5-3.7c5-6.9,10.2-13.8,15.7-21.1c0.9,1.9,1.6,3,2.2,4.3
		c6.6,14.9,13.2,29.8,19.9,44.7c0.7,1.6,1.2,3.2,3.7,3.1c6.2-0.2,12.3-0.1,19.2-0.1c-0.7-1.7-1.2-2.9-1.7-4
		C243.7,288.5,234.4,267.9,225,247.3z"/>
	<path class="st0" d="M362.2,209.1c-3.9-0.3-4.7,1.2-4.6,4.8c0.1,31.5,0.1,62.9,0.1,94.4c0,1.5,0.2,3,0.3,4.6c6.6,0,12.8,0,19.2,0
		c0-34.6,0-69.1,0-103.7C372,209.2,367.1,209.5,362.2,209.1z"/>
	<path class="st0" d="M367.9,169.1c-7.2-0.1-13,5.5-13.2,12.7c-0.1,7.3,5.5,13.1,12.7,13.2c7,0.1,12.8-5.5,13-12.5
		C380.6,175.2,375,169.2,367.9,169.1z"/>
</g>
</svg>
