<?xml version="1.0" encoding="utf-8"?>
<!-- Generator: Adobe Illustrator 22.1.0, SVG Export Plug-In . SVG Version: 6.00 Build 0)  -->
<svg version="1.1" id="Layer_1" xmlns="http://www.w3.org/2000/svg" xmlns:xlink="http://www.w3.org/1999/xlink" x="0px" y="0px"
	 viewBox="0 0 512 512" style="enable-background:new 0 0 512 512;" xml:space="preserve">
<style type="text/css">
	.st0{fill-rule:evenodd;clip-rule:evenodd;fill:#312782;stroke:#312782;stroke-width:0.466;stroke-miterlimit:2.6131;}
	.st1{fill-rule:evenodd;clip-rule:evenodd;fill:#312782;}
</style>
<g>
	<polygon class="st0" points="296.9,159.3 299.5,157 454.2,157 451.2,159.3 296.9,159.3 	"/>
	<polygon class="st0" points="286.7,167.6 289.7,165.3 444,165.3 441.3,167.6 286.7,167.6 	"/>
	<polygon class="st0" points="276.8,175.9 279.5,173.7 434.2,173.7 431.5,175.9 276.8,175.9 	"/>
	<polygon class="st0" points="267,184.3 269.7,182 424.3,182 421.3,184.3 267,184.3 	"/>
	<polygon class="st0" points="269.7,193 266.6,190.3 414.1,190.3 411.1,193 269.7,193 	"/>
	<polygon class="st0" points="279.5,201.3 276.5,198.7 404.3,198.7 401.3,201.3 279.5,201.3 	"/>
	<polygon class="st0" points="289.3,209.6 286.7,207.4 394.1,207.4 391.4,209.6 289.3,209.6 	"/>
	<polygon class="st0" points="299.2,218 296.5,215.7 384.2,215.7 381.6,218 299.2,218 	"/>
	<polygon class="st0" points="62.8,159.3 59.8,157 214.8,157 217.8,159.3 62.8,159.3 	"/>
	<polygon class="st0" points="72.6,167.6 70,165.3 224.7,165.3 227.7,167.6 72.6,167.6 	"/>
	<polygon class="st0" points="82.5,175.9 79.8,173.7 234.9,173.7 237.5,175.9 82.5,175.9 	"/>
	<polygon class="st0" points="92.7,184.3 89.6,182 244.7,182 247.3,184.3 92.7,184.3 	"/>
	<polygon class="st0" points="102.9,193 99.9,190.3 254.9,190.3 257.6,193 102.9,193 	"/>
	<polygon class="st0" points="112.7,201.3 110.1,198.7 264.7,198.7 267.4,201.3 112.7,201.3 	"/>
	<polygon class="st0" points="122.5,209.6 119.9,207.4 274.6,207.4 277.6,209.6 122.5,209.6 	"/>
	<polygon class="st0" points="132.8,218 129.7,215.7 284.8,215.7 287.4,218 132.8,218 	"/>
	<polygon class="st1" points="237.5,287.3 202.3,287.3 202.3,228.2 222.4,228.2 222.4,273.6 244.3,273.6 244.3,287.3 237.5,287.3 	
		"/>
	<polygon class="st1" points="279.9,287.3 279.9,228.6 321.5,228.6 321.5,240.3 300.3,240.3 300.3,251.7 320.3,251.7 320.3,263.8 
		300.3,263.8 300.3,287.3 279.9,287.3 	"/>
	<polygon class="st1" points="250,228.6 269.7,228.6 269.7,287.3 250,287.3 250,228.6 	"/>
	<polygon class="st1" points="102.1,287.3 102.1,264.9 78.3,264.9 78.3,287.3 57.9,287.3 57.9,228.2 77.9,228.2 77.9,249.8 
		101.7,249.8 101.7,228.6 122.2,228.6 122.2,287.3 102.1,287.3 	"/>
	<polygon class="st0" points="129,299.8 132,297.5 215.2,297.5 217.8,299.8 129,299.8 	"/>
	<polygon class="st0" points="119.1,308.5 121.8,305.8 225,305.8 228.1,308.5 119.1,308.5 	"/>
	<polygon class="st0" points="109.3,316.8 112,314.2 234.9,314.2 237.9,316.8 109.3,316.8 	"/>
	<polygon class="st0" points="99.1,325.1 102.1,322.9 244.7,322.9 247.7,325.1 99.1,325.1 	"/>
	<polygon class="st0" points="88.9,333.5 91.9,331.2 246.6,331.2 243.9,333.5 88.9,333.5 	"/>
	<polygon class="st0" points="79.1,341.8 81.7,339.5 236.8,339.5 234.1,341.8 79.1,341.8 	"/>
	<polygon class="st0" points="69.2,350.1 71.9,347.9 226.9,347.9 223.9,350.1 69.2,350.1 	"/>
	<polygon class="st0" points="59,358.8 62,356.2 216.7,356.2 214.1,358.8 59,358.8 	"/>
	<polygon class="st0" points="230.3,299.8 227.7,297.5 382.4,297.5 385,299.8 230.3,299.8 	"/>
	<polygon class="st0" points="240.2,308.5 237.5,305.8 392.2,305.8 394.8,308.5 240.2,308.5 	"/>
	<polygon class="st0" points="250.4,316.8 247.3,314.2 402,314.2 405,316.8 250.4,316.8 	"/>
	<polygon class="st0" points="260.2,325.1 257.6,322.9 411.8,322.9 414.9,325.1 260.2,325.1 	"/>
	<polygon class="st0" points="270.4,333.5 267.4,331.2 422.1,331.2 425.1,333.5 270.4,333.5 	"/>
	<polygon class="st0" points="280.2,341.8 277.6,339.5 432.3,339.5 434.9,341.8 280.2,341.8 	"/>
	<polygon class="st0" points="290.5,350.1 287.4,347.9 442.1,347.9 444.7,350.1 290.5,350.1 	"/>
	<polygon class="st0" points="300.3,358.8 297.6,356.2 451.9,356.2 454.6,358.8 300.3,358.8 	"/>
	<path class="st1" d="M177,287.7l-3.8-9.8H152l-4.2,9.8h-21.6l26.1-59.5h20.4l25.7,59.5H177L177,287.7L177,287.7z M157,266.1h11.3
		l-6.1-14.4L157,266.1L157,266.1z"/>
	<path class="st1" d="M428.1,287.7l-11.7-15.5l-12.5,15.1l-37.1,0.4l-3.8-9.8h-21.2l-4.2,9.8h-21.6l25.7-59.5h20.8l23.4,54.2
		l19.3-24.6L382,228.2h24.6l12.1,14.4l11.7-14.4h20.8l-21.9,29.2l23.8,30.3H428.1L428.1,287.7L428.1,287.7z M347.2,266.8h11.3
		l-6.1-14.4L347.2,266.8L347.2,266.8z"/>
</g>
</svg>
