<svg xmlns="http://www.w3.org/2000/svg" viewBox="0 0 512 512"><path fill="#e3011b" d="M279.5 173.3c-1 2.3-1.5 3.5-2.1 4.5-7.4 13-14.9 26.1-22.4 39.4-12.1-5.3-24-8.9-37.1-6.3-24.8 4.8-42.3 24.3-43.8 49.6-1.4 23.6 14.3 46.1 37.4 53.3 23.8 7.5 49.2-1.3 61.5-22.7 19.1-33.3 37.3-67.1 55.8-100.7 6-10.9 12-21.8 18.9-34.4 38.7 69.2 76.7 137.2 115.4 206.5-19.4 0-37.2.2-55-.2-2 0-4.9-3-5.7-5.2-5.1-14.1-14.7-18.5-29.2-16.8-11.3 1.3-22.8.2-34.2.2-.8 0-1.5-.3-3.6-.6 6.2-11.4 12-22.6 18.4-33.4.9-1.5 4.5-1.8 7-2 3.3-.3 6.6-.1 11.6-.1-8.4-15-15.9-28.4-24.1-43.1-2.1 3.4-3.7 5.6-5 8-7.3 13.1-14.4 26.4-21.9 39.4-20.7 36.3-51.2 57.5-93.8 57.8-58.6.4-103.3-46.3-102.9-104.8.5-70.2 68.8-118.7 135.7-96.8 6.3 2 12.4 5.4 19.1 8.4m-176.6 189H54.1V163.6h48.8z"/></svg>