<?xml version="1.0" encoding="utf-8"?>
<!-- Generator: Adobe Illustrator 22.1.0, SVG Export Plug-In . SVG Version: 6.00 Build 0)  -->
<svg version="1.1" id="Layer_1" xmlns="http://www.w3.org/2000/svg" xmlns:xlink="http://www.w3.org/1999/xlink" x="0px" y="0px"
	 viewBox="0 0 512 512" style="enable-background:new 0 0 512 512;" xml:space="preserve">
<style type="text/css">
	.st0{fill:#E3011B;}
</style>
<path class="st0" d="M279.5,173.3c-1,2.3-1.5,3.5-2.1,4.5c-7.4,13-14.9,26.1-22.4,39.4c-12.1-5.3-24-8.9-37.1-6.3
	c-24.8,4.8-42.3,24.3-43.8,49.6c-1.4,23.6,14.3,46.1,37.4,53.3c23.8,7.5,49.2-1.3,61.5-22.7c19.1-33.3,37.3-67.1,55.8-100.7
	c6-10.9,12-21.8,18.9-34.4c38.7,69.2,76.7,137.2,115.4,206.5c-19.4,0-37.2,0.2-55-0.2c-2,0-4.9-3-5.7-5.2
	c-5.1-14.1-14.7-18.5-29.2-16.8c-11.3,1.3-22.8,0.2-34.2,0.2c-0.8,0-1.5-0.3-3.6-0.6c6.2-11.4,12-22.6,18.4-33.4
	c0.9-1.5,4.5-1.8,7-2c3.3-0.3,6.6-0.1,11.6-0.1c-8.4-15-15.9-28.4-24.1-43.1c-2.1,3.4-3.7,5.6-5,8c-7.3,13.1-14.4,26.4-21.9,39.4
	c-20.7,36.3-51.2,57.5-93.8,57.8c-58.6,0.4-103.3-46.3-102.9-104.8c0.5-70.2,68.8-118.7,135.7-96.8
	C266.7,166.9,272.8,170.3,279.5,173.3z"/>
<path class="st0" d="M102.9,362.3c-16.6,0-32.4,0-48.8,0c0-66.2,0-132.2,0-198.7c16.1,0,32.1,0,48.8,0
	C102.9,229.6,102.9,295.6,102.9,362.3z"/>
</svg>
