<svg xmlns="http://www.w3.org/2000/svg" viewBox="0 0 320.2 320.2"><path fill="#CD001C" d="M142.7 179.7c-.5 1.5-1.1 3.9-.7 6.1.1.6.4.9.2 1.5-.5 2.4-.7 4.6 1.4 7.3.8 1.1 1 2.2 1.7 3.3.6.8.8 2.2 1.5 2.7.9.9 1.5 2 2.4 2.8.9 1.2 1.5 1.8 2.8 2.6 1.8 1.3 2.8 1.9 4.6 3.1 1.4.9.8 1.8 2.6 2.4.6.2 1.9.8 2.6 1.1.7.1 1.8.9 2.6 1.5 2.4 1.8 4.4 1.8 7.7 2.5 2.1.6 4.1 1.7 6.2 2.1 1.5.4 2.4 0 3.8.2 1.1.1 1.7.6 2.6.8 2.4.4 3.3.4 5.2 0 2.7.5 5.1.7 7.9.2 1.3-.2 2.8-.1 3.7 0 1.7.1 3.1-.3 4.6-.6 3-.4 3.9-.1 6.4-.5 1.9-.2 4.7-1.3 6.8-1.8 6.7-1.8 9.1-1.4 14.7-3.4 1.7-.6 5.1-1.8 6.4-2.5 1.5-.8 3.8-1.2 5.4-1.8 2.5-.7 4.5-2.4 7.2-2.1-.2.9-.5 1.1-1.3 1.3-.1 2.5-1.4 3.1-3.3 3.9-1.1.5-2.1 1.8-3.1 2.2-.9.6-2 .5-2.8 1.1-1.2.7-1.4 2.7-2.2 3.5-2 1.9-5.1 2.8-7.6 4.4-2.7 1.2-3.7 2.4-5.9 3.7-1.1.6-2.3.5-3.3 1.3-.5.2-1.1.9-1.5 1.3-1.3.7-1.5.5-2.8.9-1.3.6-2.6 1.6-3.9 2.1-1.4.6-2.6.1-4.4.5-1.5.4-2.8 1.3-4.4 1.5-.9.2-2 0-3.1.2-.7.4-1.7.8-2.6 1.1-1.2.4-2-.1-3.6.2-1.7.4-2.2 1.1-3.9 1.1-5.3-.2-4.9 1.5-10.1 1.8-11.8 1.9-27.2-1.1-30.3-2.2-2.8-.4-4.1-.8-9.3-3.2-18.8-7.9-30.4-29.5-32.2-32.1-1.8-2.5-3.7-11.2-4.9-13.8-1.1-3.7-1.3-10.9-1.3-10.9-.8-13.5 2.9-24.6 2.9-24.6s5.9-24.3 34.4-46.9c18.3-14.4 37.2-18.5 46.6-22 5-1.8 11.1-2.6 13.7-3.3 3.1 0 1.5.5 9.7.2 6.8 1.1-.2 1.1 8 1.3 5.9 1.3 21.3 9.4 28.5 15.1 2.7 1.5 4.3 3.1 5 7 .2 1.6 1.7 2.5 1.1 4.8-.4.9-1.2 1.2-1.3 2.4-.2.9.5 1.4.2 2.2-.4 1.2-1.8 3.4-2.6 4.5-.9 1.2-4 3.5-5.4 3.3-2.7-.6-5.1-3.1-9.5-3.1-7.1 0-13.1-.8-19.9.5-1.5.4-2.4.4-4.6.8-2.1.5-3.6 1.3-5.9 1.8-2 .4-3.3.9-4.9 1.3-1.7.4-1.5.6-2.9.5-.9-.1-1.9.9-2.6 1.3-2.1 1.1-4.5 1.6-6.5 2.6-2.5 1.2-4.5 2.1-7.2 3.8-.5.5-1.9 1.4-2.3 1.5-1.1.8-1.5 1-2.2 2-.9 1.2-2.4 1.2-3.4 2.1-2.4 1.9-4.6 4.5-7 7.2-.5.6-1.7.7-2.5 1.3-1.2.8-1.2 2-2.4 2.8-1.9 1.4-3 2.5-4.4 4.4.3.1-12.1 13.6-15.1 27.8"/><path fill="#003EA4" d="M29.9 166c0-8 58.4-14.5 130.1-14.5 71.9 0 130.2 6.5 130.2 14.5 0 7.9-58.4 14.5-130.2 14.5-71.6 0-130.1-6.6-130.1-14.5m229.2 25.7c0-5.5 4.5-10 10.1-10s10.1 4.5 10.1 10-4.5 10-10.1 10-10.1-4.5-10.1-10"/></svg>