<?xml version="1.0" encoding="utf-8"?>
<!-- Generator: Adobe Illustrator 22.1.0, SVG Export Plug-In . SVG Version: 6.00 Build 0)  -->
<svg version="1.1" id="Layer_1" xmlns="http://www.w3.org/2000/svg" xmlns:xlink="http://www.w3.org/1999/xlink" x="0px" y="0px"
	 viewBox="0 0 512 512" style="enable-background:new 0 0 512 512;" xml:space="preserve">
<style type="text/css">
	.st0{fill:#012A7C;}
</style>
<path class="st0" d="M266.4,77c27,28.1,53.9,56.3,81.1,84.2c15.7,16.2,32.1,31.7,47.9,47.8c25.5,25.7,25.5,63.8-0.1,89.4
	c-42.6,42.5-85.4,84.8-128.1,127.1c-1,1-2.1,1.8-4.3,3.5c-7.3-7.5-14.3-15-21.6-22.3c-48.3-48-96.4-96-145-143.7
	c-7.4-7.2-7.5-11.5-0.2-19C151,188.5,205.3,132.4,259.8,76.5C262,76.7,264.2,76.9,266.4,77z M284.9,274.6
	c-42.9,4.9-45.3,2.9-43.3-35.1c0-0.7-0.3-1.7,0.1-2.1c1.8-2.1,3.6-5.7,5.6-5.7c12.4-0.5,24.9-0.3,37.3-0.3c0.9,5,1.6,8.7,2.3,12.4
	c8.4,0,16.2,0,24,0c0.7-3.9,1.3-7.2,2.6-14.4c10,16.5,23.1,16.8,37.7,13.7c-3.7-19.2-15.7-29.9-32.9-35c-5.9-1.8-8.5-4.4-10.1-10.4
	c-5.4-20.2-22.5-32.9-43.5-33.5c-21.9-0.6-40.2,11.8-46.6,32.5c-2,6.5-4.9,9.6-11.7,11.6c-20.3,5.9-33.2,24.3-33.1,45.2
	c0.1,20.3,12.9,38.7,32,43.6c7.7,2,10.9,5.3,13,12.7c5.9,21,24,33.7,45.7,33.4c20.8-0.2,38.9-13.7,43.8-34.4
	c1.8-7.6,5.2-10,12.3-11.7c17.6-4.1,28.7-17.1,30-33.2c-13.5-2.5-26.4-1.7-37,10.1c-1.3-5-2.1-7.8-2.7-10.1c-8.7,0-16.4,0-24.2,0
	C285.8,267.9,285.3,271,284.9,274.6z"/>
<path class="st0" d="M215.7,273.1c-12.4-2.4-15.7-10-15.8-19.1c-0.2-10,3.9-17.7,15.8-22c0,7.6,0,14.2,0,20.8
	C215.7,259.2,215.7,265.5,215.7,273.1z"/>
<path class="st0" d="M283,205.4c-13.8,0-26.9,0-40.4,0c4.7-11.7,11.4-16,23.1-15.1C274.6,190.9,281.1,194.8,283,205.4z"/>
<path class="st0" d="M283.2,302.7c-3.9,10-10.4,14.6-19.9,14.4c-9.4-0.3-17-4-20.9-14.4C256.3,302.7,269.2,302.7,283.2,302.7z"/>
</svg>
