<svg xmlns="http://www.w3.org/2000/svg" viewBox="0 0 512 512"><path fill="#012a7c" d="M266.4 77c27 28.1 53.9 56.3 81.1 84.2 15.7 16.2 32.1 31.7 47.9 47.8 25.5 25.7 25.5 63.8-.1 89.4-42.6 42.5-85.4 84.8-128.1 127.1-1 1-2.1 1.8-4.3 3.5-7.3-7.5-14.3-15-21.6-22.3-48.3-48-96.4-96-145-143.7-7.4-7.2-7.5-11.5-.2-19C151 188.5 205.3 132.4 259.8 76.5c2.2.2 4.4.4 6.6.5m18.5 197.6c-42.9 4.9-45.3 2.9-43.3-35.1 0-.7-.3-1.7.1-2.1 1.8-2.1 3.6-5.7 5.6-5.7 12.4-.5 24.9-.3 37.3-.3.9 5 1.6 8.7 2.3 12.4h24c.7-3.9 1.3-7.2 2.6-14.4 10 16.5 23.1 16.8 37.7 13.7-3.7-19.2-15.7-29.9-32.9-35-5.9-1.8-8.5-4.4-10.1-10.4-5.4-20.2-22.5-32.9-43.5-33.5-21.9-.6-40.2 11.8-46.6 32.5-2 6.5-4.9 9.6-11.7 11.6-20.3 5.9-33.2 24.3-33.1 45.2.1 20.3 12.9 38.7 32 43.6 7.7 2 10.9 5.3 13 12.7 5.9 21 24 33.7 45.7 33.4 20.8-.2 38.9-13.7 43.8-34.4 1.8-7.6 5.2-10 12.3-11.7 17.6-4.1 28.7-17.1 30-33.2-13.5-2.5-26.4-1.7-37 10.1-1.3-5-2.1-7.8-2.7-10.1h-24.2c-.4 4-.9 7.1-1.3 10.7m-69.2-1.5c-12.4-2.4-15.7-10-15.8-19.1-.2-10 3.9-17.7 15.8-22zm67.3-67.7h-40.4c4.7-11.7 11.4-16 23.1-15.1 8.9.6 15.4 4.5 17.3 15.1m.2 97.3c-3.9 10-10.4 14.6-19.9 14.4-9.4-.3-17-4-20.9-14.4z"/></svg>