<svg xmlns="http://www.w3.org/2000/svg" viewBox="0 0 512 512"><path fill="#0a0b09" d="M64 91v327.1h198.7c120 0 185.3-55.9 185.3-164C448 143.1 377.3 91 262.7 91zm198.7-17C438.7 74 465 186.9 465 254.1c0 116.7-71.8 181-202.3 181H47V74zM91.4 392.1H155V278.8H91.4zm71.2-170.3c0 21.8-17.7 39.5-39.5 39.5s-39.5-17.7-39.5-39.5 17.7-39.5 39.5-39.5 39.5 17.7 39.5 39.5"/><path fill="#d50172" d="M186.6 203.4v36.9h11.3c7.8 0 15.1-2.3 15.1-18.7 0-16.1-8.1-18.2-15.1-18.2zm189-18.4h18.3v55.3h27.2c-7.4-100.3-86.3-122-158-122h-76.4V185H198c20.6 0 33.4 14 33.4 36.5 0 23.2-12.5 37.1-33.4 37.1h-11.3v133.5H263c116.6 0 157.1-54.1 158.5-133.5h-46V185zm-51.1 41.1h13.3l-6.1-20.8h-1.1zm-28.6 32.6 22.2-73.6h26.1l22.2 73.6h-19.1l-4.2-14.2h-24l-4.2 14.2zm-8.8-18.4v18.3h-45.3V185h43.9v18.3h-25.5v8.5h24.2v18.3h-24.2v10.1c10.1.1 26.9.1 26.9.1"/></svg>