<?xml version="1.0" encoding="utf-8"?>
<!-- Generator: Adobe Illustrator 22.1.0, SVG Export Plug-In . SVG Version: 6.00 Build 0)  -->
<svg version="1.1" id="Layer_1" xmlns="http://www.w3.org/2000/svg" xmlns:xlink="http://www.w3.org/1999/xlink" x="0px" y="0px"
	 viewBox="0 0 512 512" style="enable-background:new 0 0 512 512;" xml:space="preserve">
<style type="text/css">
	.st0{fill:#0A0B09;}
	.st1{fill:#D50172;}
</style>
<g id="Page-1">
	<g id="Logo-iDeal" transform="translate(-30.000000, -30.000000)">
		<g transform="translate(30.000000, 30.000000)">
			<path id="Fill-4" class="st0" d="M64,91v327.1h198.7c120,0,185.3-55.9,185.3-164C448,143.1,377.3,91,262.7,91H64z M262.7,74
				C438.7,74,465,186.9,465,254.1c0,116.7-71.8,181-202.3,181c0,0-211.5,0-215.7,0c0-4.3,0-356.8,0-361.1C51.3,74,262.7,74,262.7,74
				z"/>
			<polygon id="Fill-5" class="st0" points="91.4,392.1 155,392.1 155,278.8 91.4,278.8 			"/>
			<path id="Fill-6" class="st0" d="M162.6,221.8c0,21.8-17.7,39.5-39.5,39.5c-21.8,0-39.5-17.7-39.5-39.5
				c0-21.8,17.7-39.5,39.5-39.5C144.9,182.3,162.6,200,162.6,221.8"/>
			<path id="Fill-7" class="st1" d="M186.6,203.4c0,10.2,0,26.7,0,36.9c5.6,0,11.3,0,11.3,0c7.8,0,15.1-2.3,15.1-18.7
				c0-16.1-8.1-18.2-15.1-18.2C197.9,203.4,192.2,203.4,186.6,203.4z M375.6,185h18.3c0,0,0,41.8,0,55.3c4.1,0,15.2,0,27.2,0
				c-7.4-100.3-86.3-122-158-122h-76.4v66.7h11.3c20.6,0,33.4,14,33.4,36.5c0,23.2-12.5,37.1-33.4,37.1h-11.3v133.5H263
				c116.6,0,157.1-54.1,158.5-133.5h-46V185z M324.5,226.1h13.3l-6.1-20.8h-1.1L324.5,226.1z M295.9,258.7l22.2-73.6h26.1l22.2,73.6
				h-19.1l-4.2-14.2h-24l-4.2,14.2H295.9z M287.1,240.3v18.3h-45.3v-73.6h43.9v18.3c0,0-15.6,0-25.5,0c0,2.5,0,5.4,0,8.5h24.2v18.3
				h-24.2c0,3.7,0,7.1,0,10.1C270.3,240.3,287.1,240.3,287.1,240.3z"/>
		</g>
	</g>
</g>
</svg>
