<svg xmlns="http://www.w3.org/2000/svg" viewBox="0 0 512 512"><path fill="#fc6822" d="M508.9 187.6c-3.4 2.5-7.2 4.6-10.7 7a5.1 5.1 0 0 0-1.9 2.5c-2.1 10.2-4 20.4-5.9 30.6l-3.4 20.1c2.7-1.5 4.9-3.1 7.3-4a7.5 7.5 0 0 1 4.9-.2c.5.2.6 2.7.4 4a51.8 51.8 0 0 1-11.8 26.1c-3.7 4.4-5.3 10.6-7.8 16-4.4 9.3-9.7 17.9-18.8 23.5-1 .6-2.2 2.5-1.9 3.4a4.2 4.2 0 0 0 3.3 2.2c16.5.4 32.1 4.8 47.6 10.3l1.8 1.2V183.8a9.5 9.5 0 0 1-3.1 3.8m-39 147.9-2.4-.4c-5.3-1.3-5.3-1.3-5.2 4.3.2 10.9-1.7 7.7 8.1 12.4 13.4 6.5 26.7 13.2 40 19.9a9 9 0 0 1 1.6 1.3v-27.2c-5.9-1.7-11.3-3.4-16.7-4.8-8.4-2-16.9-3.7-25.4-5.5m28.4-197.7c-.8-7.5-3.3-14-10.8-17.2-6-2.6-12.4-4-18.9-3.1s-10.5 3.1-13.7 7.9a66 66 0 0 0-5.4 9.3c-1.1 2.4-1.4 5.1-1.9 7.6s.6 4.1 3.3 4.7a25.5 25.5 0 0 1 5.4 2.2c9.7 4.4 17.4 11.3 24.4 19.1 2.3 2.6 4.8 2.9 7.4 1.5 4.2-2.2 7.7-5.2 8.5-10.3s1.4-10.5 2.2-15.7h-.5a58 58 0 0 0 0-6m-70.1 188c-.1.2-.1.5-.2.7s-3.2.1-4.8.3-2.8 2.3-2.9 4.4 1.1 2.5 2.9 3c3.6.9 7.1 2.1 10.5 3.3s4.6 2.3 7 3 2.9-.3 3.2-1a19.8 19.8 0 0 0 1.4-6.4c0-1.1-.9-2.9-1.8-3.2ZM301.4 141.3c-1.3-6.4-4.3-11.9-10.7-14.9-3.1-1.5-6-3.6-9.3-4.5s-7.6-2.1-11.1-1.5a51.2 51.2 0 0 0-14.6 5.3c-6.5 3.7-11.5 9-11.5 18.5a41.6 41.6 0 0 0 1.3 6c3.6 9.8 10.7 16.9 18.4 23.4.8.7 3.2.5 4.3-.2s2.7-2.8 4-4.3 4.7-5.8 7.6-8.1c6.5-5.2 13.4-9.9 19.9-15.1a5.7 5.7 0 0 0 1.7-4.6m2.8 189.3c-3.8 1-1.1 4-.5 5.7s.3 5.1 3.9 4.7h.3l17.8-9.7-.3-1.3c-7.1-.8-14.2-1.2-21.2.6m149-26.8 6.6-13.2c-4.2-2.5-8.1-4.6-11.7-7.1-6.1-4.1-13.7-6.4-17.4-13.7a16.8 16.8 0 0 0-9.7-8.4 5.7 5.7 0 0 1-2.9-4.1c-.8-9-1.2-18-1.7-27-.1-1.1.5-2.2 1.1-4.4 4.7 8.3 11.6 8.7 18.7 8.3s14.3-2.5 17.1-10.9c.5-1.6 2.5-3 4.2-3.8 4.9-2.3 8.5-6 12.5-10.7-2.3-.4-3.9-.8-5.5-.9-5-.2-9.9-.3-14.9-.3-11.7-.2-23.4-.5-35.1-.4a12.4 12.4 0 0 0-12.4 14.3c1.9 15.3 3.9 30.7 5.6 46.1.3 2.6 1 4.4 3.4 5.4 6.8 3 10.7 8.4 13.4 15.1a11.3 11.3 0 0 0 4.8 4.9c6.6 4 13.4 7.7 20 11.7 1.9 1.1 3 1 3.9-.9m-45.4-118.7a3.6 3.6 0 0 1 .2 1c4.1 0 8.3-.2 12.4.1 5.8.4 10.6-1.8 15.2-5s4-5.4 0-7.8a42.7 42.7 0 0 0-11.4-4.9c-7.9-2.1-16-3.6-24-5.3-2.8-.6-5.7-1-8.8-1.5 1.1 5 1.9 6.3 6.5 8.3 6.4 2.8 10.6 6.9 9.8 14.5a.7.7 0 0 0 .1.6m-57.8-5.6a75 75 0 0 0 6.2-9.6c1.6-3.8.2-5.7-5.1-5.4-1.9.6-5.4 1.4-8.7 2.7a48.8 48.8 0 0 0-22.2 16.6c-2 2.7-1.4 3.5 1.9 3.7 5.3.4 10.6.6 15.9 1.4a6.2 6.2 0 0 0 6.3-2.4c1.9-2.3 3.9-4.6 5.7-7m-16.4 99.2c1.6-1.3 3.6-3.1 3.8-4.9 1.1-7.9 1.5-15.9 2.4-23.8s2.2-18.6 3.9-27.8-4.3-15.7-12.8-15.4-15 .1-22.5.1v.7h-25.3a9.9 9.9 0 0 0-3.2 1c.5 1.1.7 2.5 1.4 3.3 6.6 6.8 13.1 13.7 20.2 20 2.5 2.2 6.3 3.5 9.7 4a43.2 43.2 0 0 0 12.4-.8c2.5-.4 3.2.1 3.7 2.5 1.9 8.3-.2 16.6-.6 24.8-.2 5.6-4 8.9-9.6 11a41.9 41.9 0 0 0-12.6 7.7c-5.6 5.1-8 11.8-5.7 19.5 1.1 3.5 3.4 4.4 6.7 2.6s6.7-4.1 10.3-5.8a9.9 9.9 0 0 0 5.8-7.3 10.7 10.7 0 0 1 6.3-8.2c2-1 4.1-1.8 5.7-3.2m96.6-231.4c-.2 4.8 2.5 6.5 6.6 3.9s9.2-6.6 13.7-10a15.9 15.9 0 0 0 3.6-3.2c3.7-5.1 8.2-4.2 12.8-1.8l42.9 23.4a12.8 12.8 0 0 1 2.2 1.7V0H0v512h512v-40.3c-1.1.4-2.9 0-6-.9-8.7-2.2-14.6-7.1-16.8-16-1.2-4.8-2.8-9.5-4.2-14.2-.7-2.4.3-3.6 2.7-3.4a20 20 0 0 1 3.4.5c3.1.7 6.2 1.6 9.3 2.2a6.2 6.2 0 0 1 5.3 4.3 56.7 56.7 0 0 0 5 10.2l1.3 2.3v-67.8c-3-1.7-5.5-3.1-8-4.3l-47.1-22c-3.1-1.4-4.8-.7-6.6 2a64.3 64.3 0 0 1-6.9 8.7c-2.9 3.1-4.7 3.1-8.3.8-6.9-4.5-13.6-9.2-20.7-13.3-3.7-2.2-8-3.4-12.2-4.7s-9.7-2.3-14.4-3.9c-1.5-.5-2.8-2.5-3.4-4.1s-1.4-6.5-2.3-9.7c-1.6-5.4-.9-7.6 3.9-10.5 6.3-3.7 10.7-8.7 11-16.5.1-3 1.9-3.7 4.5-2.9l2.9 1.1a7.5 7.5 0 0 0 10.1-8.6c-.3-1.8-.4-3.8-1.2-5.4s-2.4-3.7-4-4.3a95 95 0 0 0-42.6-5.9 73.2 73.2 0 0 0-23.1 5.7c-1.9.8-4.2 3.2-4.4 5.1a34.3 34.3 0 0 0 .9 11.5c.6 2.8 3.9 3.7 7.3 2.5a46.6 46.6 0 0 0 6-2.8c2.8-1.4 4.2-.8 3.8 2.2-1.1 8.7 3.7 14.2 10.1 18.7 4.3 3 5.4 6.6 3.6 11.6a59 59 0 0 0-2.1 8.3 7.9 7.9 0 0 1-6.1 6.7c-12.1 3.5-24.1 7.1-36.1 10.9-3 1-5.7 3-8.5 4.7-6.7 4.1-11.9 3.4-16.1-2.3s-9.9-8.2-17.3-4.8c-16 7.3-31.9 14.7-47.6 22.4-6.8 3.3-13.3 7.4-19.9 11.3-2.8 1.7-4.8 1.1-5.6-1.8a86.5 86.5 0 0 1-2.2-11.5c-.1-.8 1-2.1 1.8-2.6 14.2-7.9 28.4-15.9 42.8-23.5 8.8-4.6 18-8.4 27-12.6 2.1-1 2.9-2.3 2.4-4.7-1.7-7.7-2.1-8.6-10-7.5-10.2 1.4-20.2 3.6-30.3 5.8-13.2 2.9-25.3 8.6-37.5 14.1-4.7 2.1-5.6 1.6-6.1-3.5-.2-2-.5-3.9-.8-5.8-.7-4.2-.1-5.9 3.8-7.4 13.5-5.5 26.8-11.4 40.6-16 7.9-2.6 16.6-2.8 24.9-4 4.3-.6 8.7-.9 13.2-1.4.8-4.3-1.1-7.7-3.4-10.6-6.7-8.4-13.5-16.7-20.7-24.7s-9.3-15.3-11.6-24.1c-1.3-4.9 2-7 6.8-5l6.6 2.7c-1.1-5.6-2.5-10.1-2.9-14.7-1.1-10.2-3.6-20.3-2.5-30.7.5-4 1-8 1.9-12s-.7-5.8-3.8-7.2a43 43 0 0 0-7.7-3.2 16.5 16.5 0 0 1-10.4-8c-2.8-5-5.7-10.1-8.4-15.1-4.8-8.9-4.2-18.1-1.3-27.3 1.7-5.5 4-10.8 6.1-16.2a21.1 21.1 0 0 1 9.2-11l9.1-5.8A23.7 23.7 0 0 1 261 98c18.4-.3 34.1 6.7 48.4 17.3 6.1 4.4 9.6 10.9 12 17.9.9 2.6 2.2 3.7 5 3.5 16.1-1.2 31.1 2.9 45.7 9.4a5.3 5.3 0 0 0 4.4-.5 74.5 74.5 0 0 1 35.1-11.8c4.3-.3 8.5-.8 12.7-1.5.9-.1 1.9-1.8 2.1-2.8 1.4-9.9 5-18.8 12.8-25.4 3.7-3.2 7.7-5.8 12.8-6.5s10-2 15-2.6c15.3-1.7 26.8 4.9 36 16.6 2.6 3.3 5.3 6.5 7.5 9.9a14.8 14.8 0 0 1 1.5 3.1V76.7h-.2c-4.2 3.3-8.8 6-14.3 4.9s-9.9-1.8-13.9-4.2c-8.9-5.4-18.6-8-28.6-10-5.7-1.2-11.1-.4-15.7 3.4-2.9 2.3-5.7 4.8-8.4 7.2l-10.5 9.7c-5.6 5-12.6 6.5-19.6 8.1-8.8 2-17.5 4.1-25.6 8.3-4.6 2.4-6.3 1.4-7-3.6-.9-6.7-1.6-13.5-2.2-20.3-.2-2.2-.9-3.2-3.1-3.7-4.7-1.1-9.4-2.4-14-3.8-1.9-.5-2.5 0-3.2 1.8-3.2 7.3-6.7 14.4-10.1 21.6-1.1 2.4-2.7 2.6-5.1 1.6-19.8-8.3-37.3-20.3-55.1-31.9-6-3.9-5.6-3.9-11.4 0-11.9 7.9-24 15.7-36.3 23a29.9 29.9 0 0 0-9.8 9.9c-2.6 3.9-5.5 7.7-8.2 11.6s-3.8 3.3-6.8 1.9c-4.8-2.2-9.8-4.1-14.7-6s-3.8-2-1.9-5.3c9.4-17 21-32.3 35.6-45.3a42.4 42.4 0 0 1 13.8-8.3c9.3-3.4 18.4-7.4 27.7-10.8 3.6-1.3 7.7-1.6 11.5-2.4s4.8.3 6.8 2.4c10.4 10.8 23 19 35.1 27.6 2 1.4 2.6.1 3.2-1.5 2.3-6.5 4.5-13.1 6.8-19.6s2-5.1 7.1-2.8 11.9 5 17.9 7.4 8.4-.8 11.7-3c8.6-5.7 18.3-8.1 28.1-10.3 3.7-.8 5.1.6 4 4.3a42.2 42.2 0 0 1-3.8 9.3c-4.5 6.4-2.2 13.5-2.9 20.6a15.1 15.1 0 0 0 15.6-10.6c2.6-8.1 4.9-16.4 7-24.6.8-3 2-4 5.1-3.4a100 100 0 0 0 11 1.3c3.4.3 4.1 1.2 3.7 4.7s-.9 7.6-1.1 11.4m20.2 405.1c.3-2.1 1.7-2.7 3.5-2l12.6 4.8 1.2.6c7.3 3.3 7.3 3.3 7 14.4.6 8.2 3.6 18.9 9.1 28.8 2.6 4.6 1.2 7.4-4.2 7.4s-8.8.2-12.1-1.7-6.7-6.2-9.2-9.9a56.2 56.2 0 0 1-9.3-32.1 94 94 0 0 1 1.4-10.3m-96 57.4H330l-.3-.4h.4a93 93 0 0 1-5.5-7.8 98 98 0 0 1-5.3-11.9c-1.2-3.3-1.9-6.7-2.8-10s.6-5.1 3.9-6.5a12.9 12.9 0 0 1 10 0c3.3 1.3 6.9 1.8 10.4 2.7 5.5 1.4 8.4 4.9 9 10.5l2.4 20.6c.2 1.6.9 2.5 2.2 2.7Zm34.9-3.9a18 18 0 0 0-1.7 2.7c-.1.2 0 .5.1.9h.2c0 .1-.1.2-.1.3h-21.1v-.2c1.1-.3 1.7-1.1 1.5-2.7-.4-3.2-1-6.4-1.3-9.6-.5-6.2-1.3-12.4-1.1-18.5s5-6.7 9-8 9.9-2.5 14.8-3.8c2.2-.6 3.4.3 3.9 2.3 2.9 12.7 5.4 25.3-4.2 36.6m44.3-16.4c.4 6 2.2 12 3.6 17.9a3.9 3.9 0 0 0 2.3 2c0 .1.1.1-.1.1h-26.1a.3.3 0 0 1-.1-.2h.4c-.9-2.1-2.7-4.6-3-7.3-1-8.6-1.4-17.3-2.3-25.9a9 9 0 0 1 4.7-9.3 130 130 0 0 1 15.5-7.5c4.4-1.8 4.9-1.2 4.9 3.7.1 8.9-.4 17.7.2 26.5M314.1 384.3c13.8-8.6 28.8-13 45.1-14.4a179.3 179.3 0 0 1 46.3 2.1c8.8 1.5 17.3 4.2 24.9 9.1a5.8 5.8 0 0 1 2.5 4c.4 13.7-2.4 26.6-10.6 38-2.3 3.1-3 3-5.8.1-4.5-4-9-7.9-13.6-12.2l-3.5 16.8a4.3 4.3 0 0 1-3.9 3.7c-11 2.4-15.7 2.2-26.1-10.4-1.2 2.8-2.4 5.7-3.7 8.4s-5.2 5.4-9.4 5.4h-4.2c-7.7-.8-9.7-2.7-10.8-10.5-.4-3.3-1.1-6.6-1.3-10s0-6.4 0-10.7a30 30 0 0 0-4.5 2.8 88 88 0 0 0-6.7 7c-2 2.3-3.8 1.8-6 .3-3.8-2.5-5.7-6.3-7.2-10.3s-2.7-8.3-4.1-12.5-.3-4.9 2.6-6.7M273.9 451c.7-4.6 2-9.2 2.7-13.9s2.3-5.4 6.3-3.8c9.5 3.6 14.5 11 17.1 20.3.4 1.4.8 2.9 1.3 4.3 2.9 7.5.5 14.6-2.2 21.5-1.5 3.8-3.6 7.5-6 12.4a45 45 0 0 1-3.7-6.1c-1.8-4.4-2.9-9-5-13.2-2.9-5.9-6.4-11.4-9.5-17.1a7.7 7.7 0 0 1-1-4.4m-44.8-27.6c3.4-8.2 5.9-8.5 13.8-4.4s9.3 10.5 8.4 18.4 2.5 16.8 4.8 25c1 3.6 2.3 7 3.3 10.6a7.1 7.1 0 0 1-.2 2.9 12.7 12.7 0 0 1-2.8-.6c-6.9-3.7-13.9-7.2-20.7-11.3-2.2-1.3-4.5-3.7-5-6a152 152 0 0 1-3.8-23.2 25.2 25.2 0 0 1 2.2-11.4m-70.8 2.7c-1.6-4.6-3.4-9.1-4.5-13.7a133 133 0 0 1-3.4-19.7c-1-11.9-1.3-23.8-2-35.6-.2-3.1 1-4.8 3.8-6.2 7.1-3.6 14-7.6 21-11.4a5.1 5.1 0 0 1 3.2-.6c.5.1.8 1.4 1.2 2.2h-.8c-.8 5.3-1.5 10.7-2.5 16-1.8 9.7-.2 19 2.3 28.4 1.3 5 2.1 10.2 3 15.3a4.7 4.7 0 0 1-.4 2.3 77.9 77.9 0 0 1-15.5 24.4c-.9 1-2.5 1.4-3.8 2.1-.5-1.2-1.2-2.3-1.6-3.5m44.7 40.7c2.4-.6 4 .2 5.2 2.7a73 73 0 0 0 6 10.5c1.6 2.3.5 3.6-.9 5.1l-16.5 17.8c-1.7 2-3.3 4.1-5.3 6.4h.2c-.1.2-.1.4-.3.6h-12.9c-2.2-5.6-3.9-10.3-5.9-14.9s-4-8.1-6.1-12.1c-1.2-2.2-.9-3.6 1.6-4.5l26.2-9.2q4.4-1.3 8.7-2.4m-2.8-32.8c.4 1.1-.5 3-1.4 4-7.2 7.4-14.6 14.5-21.7 21.9-2.2 2.3-3.4 5.4-5.3 7.9-.7.9-2.3 1.1-3.4 1.7a15 15 0 0 1-1.1-3.4c-.7-6.1-1.1-12.2-2-18.2-.4-2.5-2-4.9-3.1-7.3s-1.4-5.7 1.7-7.2c8-3.9 13.6-10.9 20.9-15.7l2.5-1.5a12 12 0 0 1 2.2 1.5 38.7 38.7 0 0 1 10.7 16.3m9-161.9c-1.2 6.4-2.6 12.9-4.1 19.3-.2 1-1.5 2-2.6 2.5-9.4 5.3-18.6 10.9-26 18.8s-14.2 15.8-21.2 23.8l-5.8 6.9a16.4 16.4 0 0 1-2.2 1.4 16 16 0 0 1-1.3-2.6c-.4-2.4-.4-4.8-.7-7.2l-3.3-28.5c-1-4.3.8-6.9 4.5-9.3 7.7-4.8 14.7-11 22.7-15.1s17.3-6.9 26-10.2c3.3-1.2 6.8-2.1 10.3-3s4.2.3 3.7 3.2m4.5-46.8c-1 3.9-1.6 7.9-2.7 11.8a6.7 6.7 0 0 1-2.2 3.3c-6.6 4.9-13.3 9.6-19.9 14.4s-11.4 8.3-17 12.6a89 89 0 0 0-7.2 6.4c-2.4 2.2-3.7 1.9-4.4-1.3a145 145 0 0 1-2.9-14.6 83 83 0 0 1-.1-10h-.5c.5-4 1-8 1.4-12s3.7-7.1 7.5-8.7c9.3-4.1 18.9-7.5 29.2-8.3 4.4-.4 8.7-1.2 13.1-1.3s7 2.8 5.7 7.7m-20-108.1h3.8c5.3.3 5.9 1.4 4.9 6.8-1.5 8.5-2.8 17.1-3.6 25.7s4 15.7 7.1 23.2a64 64 0 0 1 2.4 6.1c1.8 6.5.4 11-5.9 13.6s-10.7 7.4-15.8 11.5c-6.7 5.5-13.2 11.2-19.7 17a44.5 44.5 0 0 0-4.2 5.3l-1-.2a18 18 0 0 1-.9-3.1c-1.2-9.9-2.3-19.7-3.6-29.6-.3-2.4.6-3.8 2.6-5.1 5.4-3.7 10.8-7.5 16.1-11.4a5 5 0 0 0 1.5-3.7c-.6-4.9-2-9.8-2.3-14.7-.6-8-1.8-16.3-.6-24.2 1.7-10.6 7.6-18.1 19.2-17.2"/></svg>