<?xml version="1.0" encoding="utf-8"?>
<!-- Generator: Adobe Illustrator 22.1.0, SVG Export Plug-In . SVG Version: 6.00 Build 0)  -->
<svg version="1.2" baseProfile="tiny" id="Layer_1" xmlns="http://www.w3.org/2000/svg" xmlns:xlink="http://www.w3.org/1999/xlink"
	 x="0px" y="0px" viewBox="0 0 510.2 510.2" xml:space="preserve">
<g>
	<path fill="#202B53" d="M161.6,347.8h-17.3V347c1.1,0,3.1-0.6,3.8-1.5c1.1-1.1,1.4-2.1,1.4-5.8v-24c0-1.7-0.6-3.2-1.5-4.1
		c-1.1-0.9-2.4-0.9-3.7-1.1v-0.9h16.1c8.6,0,13,1.4,17,5.4c3.2,3.2,5.4,8.1,5.4,13C182.7,340.3,174.6,347.8,161.6,347.8L161.6,347.8
		z M161.1,312.3c-1.7,0-3.4,0.2-5.1,0.5v30.3c0,2.1,2.8,2,5.1,2c9.5,0,13.9-6.9,13.9-16.4C175,319.1,169.8,312.3,161.1,312.3
		L161.1,312.3z"/>
	<path fill="#202B53" d="M201.9,315.8v24.8c0.2,2.1-0.5,6.4,4.3,6.4v0.8h-15V347c4.7,0,4-4.3,4.3-6.4v-24.8c0-4.6-2.6-5.5-4.4-5.5
		v-0.8h15.5v0.8C204.5,310.3,201.9,311.2,201.9,315.8L201.9,315.8z"/>
	<path fill="#202B53" d="M241.4,347.8l-10.9-18.1h-3.7V340c0,2.8-0.2,6.9,4.3,7v0.8h-14.8V347c4.6-0.2,4.1-4.3,4.1-6.9v-24.3
		c0-4.6-2.6-5.7-4.6-5.7v-0.6l16.8-0.2c8.9-0.2,12.9,3.4,12.9,9.6c0,6.3-4.3,9.2-8.1,9.8l9.5,15c1.2,2,2.9,2.9,4.7,3.1v0.9
		L241.4,347.8L241.4,347.8z M230.8,311.9c-1.2,0-2.8,0.2-4,0.3v15c1.2,0.3,2.1,0.3,3.5,0.3c5.7,0,8.1-3.8,8.1-7.8
		C238.5,314.3,235.7,311.9,230.8,311.9L230.8,311.9z"/>
	<path fill="#202B53" d="M287.3,347.8h-30.6v-0.9c3.7,0,5.5-2.3,5.5-5.5v-24.3c0-2.9,0-6.7-5.1-6.7v-0.8h29.4c0,1.7,0.2,6.6,0.5,9.5
		h-0.9c-0.9-5.5-5.5-6.7-11-6.7c-4.1,0-6.4,0.3-6.4,0.3v13.8h8.6c2.4,0,5.5-1.4,5.8-5h0.9c-0.3,2.6-0.3,9.9,0,12.5h-0.9
		c-0.3-3.7-3.1-4.7-5.7-4.7h-8.7v12.1c0,3.1,0.3,3.7,4.6,3.7h4.3c6.1-0.2,9-1.4,11.3-6.4l0.9,0.5
		C288.8,341.2,287.9,344.8,287.3,347.8L287.3,347.8z"/>
	<path fill="#202B53" d="M313,348.1c-11,0-17.8-8-17.8-18.8c0-10.1,6.4-20,18.7-20c3.1,0,5.8,0.8,8,1.5c0.6,0.2,1.2,0.6,1.8,0.6
		c0.6,0,1.2-0.8,1.7-1.8l0.8,0.2c0.2,4.3,0.6,8.3,1.2,12.4c-0.2,0.3-0.6,0.2-0.9,0.3c-1.2-5.4-5.4-10.6-11.6-10.6
		c-8.4,0-11.9,7.8-11.9,16.5c0,9,3.7,17,12.2,17c7.2,0,11-3.7,11.9-10.7l1.2,0.3C327.4,343.7,321.3,348.1,313,348.1L313,348.1z"/>
	<path fill="#202B53" d="M363,320.9c-1.2-6.6-5-8.6-9.6-8.6h-1.8v26.9c0,4.3-0.2,7.3,4.1,8v0.6h-15.2V347c5.1-0.3,4.6-4,4.6-7.7
		v-27.1h-2c-6,0-8.4,2.9-9.6,8.6l-1.1-0.2c0.2-0.9,0.9-11.2,0.9-11.2h29.8c0,0,0.8,10.1,0.9,11L363,320.9L363,320.9z"/>
	<g>
		<g>
			<path fill="#EC682C" d="M284.8,294.4l2.8,0.1 M281.9,286.6 M319.1,172.1c-7.4-1.9-13.7,1.7-19.9,3.6c3.4,1.7,4.3,5.3,6.2,8.2
				l2.1,2.8c1,1.7,2.9,2.6,4.3,3.6c5.3,4.3,13,1.2,19.2,1.7c18.2,9.1,30,28.6,30.5,48.5c0.5,15.4-4.8,31-19.2,38.9
				c-4.1,1.9-10.1,2.4-13.9,0.2c4.3-20.6,1.2-42.7-12.2-58.5c-4.8-5.5-11.5-11.5-19.2-8.4c-2.6,1.4-4.3,4.3-4.1,7.4
				c-1.4,1.2-3.4,1.9-5.3,2.6c-7.2,2.4-15.6,0.5-21.1-4.6l-0.2-5c-1.7-1-3.1-2.9-3.6-4.8c1-1,2.2,0.7,3.1,0.7c-0.7-2.4-1-5-2.2-7.2
				l-2.9-1c-1.4-1-2.9-2.6-2.9-4.3c1.2,0.7,3.1,0.7,3.8,1.4c-1-3.8-1.7-7.9-2.9-11.8c-1-5.3-7.4-6.5-9.8-11.3
				c-0.5-0.5-1.4-0.2-1.9-1c-0.5-0.5-0.5-1.4-0.5-2.2c0.7,0,1.2,0.5,1.9,0.7c-1.9-4.8-3.4-10.8-8.6-13.9c-1.9,1-4.3,0.7-6.7,1
				l-0.2-0.2c1-1.2,2.4-1.7,3.6-2.4l-1.7-1c-2.9-2.4-4.6,1.7-7.4,1v-1.7c0.2-0.5,0.7-1.2,1.4-1.2c-1.9-0.7-4.1-0.7-6,0l-1.4,2.2
				c-0.2,1.9-1.9,3.4-3.4,4.8c0-2.4,0.7-4.8,1.4-7l-4.3,1.9c-2.6-1.2-5-2.9-8.9-2.6c0.7,0.5,1,1.4,1.4,2.2c0,1.4,0.2,3.4-0.2,4.8
				c-1.7-1.7-3.1-3.6-4.1-5.8c-2.2,0.2-4.1,1.2-6,1.9c1.4,0,2.9,1.4,3.4,2.6h-1.9c-1.7-0.5-3.8-0.5-5.3-1.4
				c-3.8,1.9-7.4,6.2-8.6,9.8c0.5,0.2,1.4,0.2,1.9,0.7l-3.6,2.9c-0.5,1.7-0.5,3.4-0.5,5.3l-2.6,4.1c-2.4,7-2.9,15.1-2.6,22.3
				c-4.3,1.2-1.2,5.3-2.2,7.9c0.7-1.4,2.2-2.4,3.4-3.1c0.7,1.4-0.5,2.9,0,4.6c-1,0.5-1.4,1.4-2.4,1.9c-1.2,2.4,0.2,4.8,0.2,7.4
				c0.7-1.4,2.2-2.6,3.6-3.1c0.5,1.4-0.5,2.9-1,4.3c-0.2,1.2-1.9,1.4-1.9,2.6c1.4,7.9,3.8,15.6,6.5,23l-5,11.5
				c-1.2,3.8-1.9,8.2-3.8,11.8l-1.9-1c-3.6-1.4-8.4-0.7-11,2.2c-1.4-0.2-3.8-0.2-5.3,0.5c-1.9,1-3.8,2.6-4.3,4.8
				c1,2.6-2.6,3.6-2.9,6.2c-1,3.8,0.5,7.4,2.4,10.3h57.7c0.1,0.1,0.2,0.2,0.3,0.3h17l-3.7-0.3c-0.8-3.7-2.1-7.6-1.6-11.2l1.6-2.6
				l4.2,3.1l-0.5,11h7.6l0.3-0.3H278l1.9,0c3.1-0.2,43.2-0.1,45.3-2.3c4.1,0.7,8.2,0.5,12-0.2c11.5-1.7,21.1-11.8,26.4-21.8
				c10.4-23.7,3.2-52.5-13.3-71.2c-4.8-6.2-12-8.4-17.3-14.6c-3.5-3.3-5.1-8.4-9.4-10.5L319.1,172.1z M242.8,236
				c1.2-1,2.9-0.7,4.3-1.2l2.4,3.1l2.6,2.6C248.3,242,245.2,238.7,242.8,236z M253.1,259.1l1,2.4c-3.1,1.2-4.1-4.6-7-1.7
				c-2.4-0.7-5-1.7-7.2,0.2c-0.5,0.2-1.2,1-1.9,0.5c0-1.4,1.4-2.4,2.2-3.6c3.1,1.2,5-4.6,7.7-0.7
				C249.7,256.9,252.1,256.9,253.1,259.1z M236.8,234.4l0.2,0.5c-1.4,0.2-3.1,0.7-4.6,0c-2.2-1.7-1.7-5-1-7.4l1-2.2
				C234.1,227.9,232,232.9,236.8,234.4z M257.2,220c-0.7,0.5-1.2-0.2-1.9-0.2c-1.4-0.2-3.4,0.7-4.1-1.2l-0.5-1.4
				c1-0.2,2.2-1,3.4-0.5C255.2,217.6,256.2,219,257.2,220z M250.2,203.9c0.7,0.2,0.7,2.4,2.4,1.9c1,1.4,1.7,2.9,2.2,4.6
				c-0.5,0.5-1.4,0.2-1.9,0c-1-0.7-1.7-1.4-2.6-2.6L250.2,203.9L250.2,203.9z M247.6,222.4c1,1,2.2,1.7,2.9,2.9
				c-1.9,0-4.6,0.7-5.8-1.2C245.6,223.3,246.4,222.4,247.6,222.4z M245.9,196c-1,0-1.7,0.7-2.4,0.7c0.2-2.4,0.5-5.3,1.2-7.7
				C245.9,190.9,247.1,193.6,245.9,196z M191.2,164.1c2.6-0.2,4.3-3.4,7.2-2.4c2.2,0.7,3.8,1,5.3,1.4c-0.2,1.7,1.4,1.9,2.4,2.4
				c1.2,1.4,1.4,4.3,3.8,4.3c2.2,0,4.8,0.5,6.7,1.7c2.6-1.7,6.2-2.4,9.4-1.7c0.5-3.4,2.9-5.8,6-7.2c2.6-0.7,4.8,1.2,7.2,1.4
				c2.4,1.7,3.1,4.6,4.3,7c0,3.6-1.4,7.2-4.8,8.9l-1.4,0.5c0.7,2.9,0.2,6-1,8.9c0.7,0.2,1.7,0,2.2-0.7c0.2,1.2-0.5,2.4-0.2,3.8
				c-0.7,2.4-3.6,4.1-4.1,6.7c-1,1.2-2.4,2.6-3.8,2.6c-0.2,0.5,0,1,0.5,1.2c5.5,0,10.1,1.7,14.6,4.1v2.4c-4.3-2.6-9.4-3.8-14.4-4.6
				c-0.2,0.7-0.2,1.9-0.5,2.6c4.3,1.9,8.6,4.3,12.2,7.7c0.2,0.7,0.2,2.2,0,2.9c-4.1-3.4-8.2-7-13.2-8.6c-1.2,1-2.2,4.6-4.1,1.9
				c-2.4-1.7-5-2.6-7.9-3.1c-1-1-1-2.4-1-3.8c1.7-0.5,2.6-2.4,3.1-3.8c1,0,2.6,1,3.1-0.7c0.5-1.4-0.7-2.4-1.7-2.9
				c-3.8-0.7-8.6-1.7-12.2,0.7c-0.2,1-0.5,2.4,1,2.6c0.7,0,1.4,0,1.9-0.5c0.2,1.4,1,3.8,2.9,4.3c-0.2,1.4,0,3.8-1.9,4.1
				c-3.4,0.2-6.2,1.7-9.4,3.4c-1.4-0.5-2.2-1.7-3.4-2.6c-4.3,1.9-8.4,4.6-12.2,7.7c-0.5-1.2-0.2-2.2,0-3.1c3.4-3.4,7.4-4.6,11.3-6.5
				v-2.9c-2.2-0.7-4.3,0-6.5,0.5l-0.2-0.2c-2.2,1.4-5,1.9-7.2,3.6c-0.5-1.2,0-3.1,1.7-3.6c3.8-1.9,7.9-3.1,12.7-2.9
				c0.7-2.9-2.4-4.1-3.6-6.2c-0.7-1.7-1.7-3.4-1.9-5.3h1c-0.5-3.4-0.7-7.2,0-10.8c-3.6-1.4-5.8-5.3-7-8.6
				C188.3,168.1,190,166.2,191.2,164.1z M191.4,221.6c1.7,0.5,3.8,1.4,3.6,3.4c1.4,2.2,3.1,3.8,3.6,6.5c-2.9-0.7-5.3-3.4-6.7-5.8
				C191.7,224.5,191.4,222.8,191.4,221.6z M198.4,240.4c0.2,0.2,0.7,0,1.2,0.2c-0.2,1.9-1,3.8-1.4,5.8c-1.4,1.7-4.3,1.2-6.2,1
				C194.8,245.9,196.7,243.2,198.4,240.4z M189.5,230.3c-1.2,1.9-3.4,2.6-4.1,4.6h-0.2c-0.2-1.9-1.4-4.3,1.2-5.5
				C187.6,229.3,188.5,229.8,189.5,230.3z M186.4,177.3l0.5-0.2v3.8l-2.4,1.4C184.2,180.4,184.9,178.5,186.4,177.3z M183.5,189.7
				l1.2-2.2c1,0,1.9-0.5,2.9-0.7c-2.4,1.4-0.7,4.6-1.7,6.5l-1,4.8C184.5,195.3,182.1,192.6,183.5,189.7z M159.7,283.8
				c-1,0-1.7-1-2.6-1c-1.7,2.6,0.2,5.8-0.7,8.4c-1-0.2-1.9-0.7-2.4-1.7c-0.2-2.6-0.5-5.5,0-7.9l3.4-3.6
				C159.5,279.2,160,281.6,159.7,283.8z M168.4,283.6c-0.5-1.4-1.4-2.9-3.1-3.4c-1.9,2.4-1.4,6-1.2,9.1c-0.7,0.7-1.7,1.4-2.6,1.9
				c-1.9-6-0.2-12.5,3.4-17.3c1.2,0,2.4-0.2,3.6-0.2c-1,0.7-0.7,2.2-1.2,3.1c0.7,1,1.9,0.2,2.4,1.4
				C169.8,280.2,170.1,282.6,168.4,283.6z M178.5,289.8c-0.5-2.6,0.7-4.8,1.2-7.2c-1.4,0.2-3.6-2.6-4.6,0c-0.7,3.1-4.1,5.3-4.6,8.6
				l-0.2-0.5c-0.2-4.8,0.5-9.1,2.6-13c1.9-2.4,5-4.1,7.9-2.6c-0.2,0.7-1,1.2-1.4,1.9c1.4,0.7,3.1,2.2,3.6,3.8
				C183.3,284.5,180.6,287.2,178.5,289.8z M192.9,281.9c-1.9-3.1-1.7-7.9-6-9.4c-2.4-0.7-4.8-2.9-7.4-2.2c-0.2-1.4,1-2.6,1.9-3.4
				c1.4-0.7,2.4,1.2,4.1,0.7c0.5,2.2,4.3,1.2,3.8,3.8c-0.2,0.7-0.7,1.2-0.5,1.9c1.2,0.7,2.9,0,4.1,1.2
				C194.8,276.8,193.6,279.5,192.9,281.9z M206.5,229.6l3.4,1.2l1,5C208.7,234.4,207,232.2,206.5,229.6z M208,252.8
				c1.4-2.4,4.1-4.3,4.8-7c1.2-1,3.1-0.5,4.3-0.7c-0.7,3.1-3.4,6.2-7,7L208,252.8z M215.4,233.4c1.4-0.7,2.6-1.9,3.6-3.1
				c0,2.6,0,6-2.6,7.4C215.9,236.3,215.6,234.8,215.4,233.4z M216.8,256.9c0.5,1,0.7,1.9,1,2.9c-1.2,0.7-2.9,1-4.3,0.5l-2.4-2.9
				C212.8,257.2,215.2,257.6,216.8,256.9z M215.2,294.4c-0.5-3.4-4.2-5.7-3.1-9.6c1.3-1,3.4-1,3.9-3.1c-0.3-0.8-1.6-1.8-2.6-1.3
				c0,0.3-0.3,0-0.5,0c-0.5-3.7,3.4-2.9,5.2-3.9c0,2.6-0.8,5.2-0.8,7.6c0.5,3.4,1,7.3,2.9,10.4h-5V294.4z M220.7,217.8
				c-0.2,1.4-1,3.1-1,4.6c-1.2,0.5-2.4,0.7-3.6,0.7c-0.2-1.7-1-3.1-1-4.8l-0.2-0.2c-0.7,0.5-0.7,1.4-0.7,2.2l-1.4,2.6
				c-1.2-0.5-2.6,0-3.4-1.4c-0.2-1.2,0.5-2.6-0.2-3.8l-2.2,1.9c-1.4-1.7-1.9-4.1-1.7-6.5c6-2.6,15.1-2.9,20.6,0.7
				c-0.5,2.6-1.2,5.3-3.4,7C222.1,219.5,221.4,218.5,220.7,217.8z M222.6,243c-0.2-0.5-0.7-1-0.5-1.7l5.8,1.2
				c1.2,1.4,3.1,3.1,4.6,4.8c-1.2,0.7-2.6,1.4-4.3,1C225.5,247.3,225.2,244,222.6,243z M226.7,254.5l1.9,4.3c-0.7,0.5-1.7,0-2.4-0.5
				c-1.4-0.7-2.6-1.9-2.4-3.6C224.8,254.5,225.7,254.8,226.7,254.5z M235.8,285.8l-2.9,8.6h-3.7l1.6-10.7c0.8-0.8,1-2.1,2.1-2.3
				c1,0,1.8,0.5,2.6,0.8C236.6,283,236.1,284.8,235.8,285.8z M257.6,281.2c-1-1.9-1.7-4.8-4.3-5.5c-0.7-1-0.7-2.4-1.9-3.4
				c-1.2,0-2.6-0.7-3.6-0.2c0.7,1.4,2.6,2.2,1.9,3.8c1.2,1,2.9,1.4,3.4,2.9v3.4l-2.4,1.4c-0.2-2.4,0.2-5.8-2.2-7.2
				c-3.1,0.2-2.9-3.6-5.3-4.6c-1.9,1.2-4.8,0.5-6.7,1.4c0.5-1.2,0.5-2.9,1.9-3.1c1.9-1.4,5-0.5,7.2-1.9c3.1,1,6,2.6,9.1,3.4
				c2.6,1,0.7,5,3.8,4.8l0.5,0.5C258.6,278.3,258.4,279.7,257.6,281.2z M262.9,276.4c-0.2-1.4-3.4-2.6-1.7-4.6
				c0-3.4-1.7-6.2-2.2-9.4c5,1.9,3.6,7.4,4.3,11.8C263.4,274.9,263.4,275.6,262.9,276.4z M259.8,227.9l2.6-1.4l3.4,2.4
				C263.9,229.6,261,229.3,259.8,227.9z M285.5,234.1c2.2,1.2,1.9,3.6,1.9,5.8c-3.1-2.4-5.5-6-7.9-8.6
				C281.9,231,283.1,233.6,285.5,234.1z M279.5,238.9c0.2,2.2,3.1,1.4,3.6,3.8c0.5,1.4,1.7,2.4,1.7,3.8c-0.7,0.7-2.2,0.5-1.9,1.9
				c1,0.7,2.4,1.2,2.9,2.4c0,2.6-0.2,4.8-0.7,7.4c-0.7,0-0.7-0.7-1-1c-0.7-6.5-3.8-11.8-6.2-17.5l-3.1-2.6
				C276.6,237,279,237,279.5,238.9z M279.7,266.3L279,267c0-1.9,1-4.3-0.7-5.5c-0.5,0-1.2,0-1.2-0.5c0-2.6,0.7-4.8-1.2-6.7
				c-0.2-2.2,2.4-2.4,3.4-3.6c1,1,0.5,2.9,0.7,4.3c0.5,1.7,1.2,3.8,0.2,5.5c0.5,0.7,1.2,0.7,1.9,0.5
				C282.1,262.7,280.7,264.6,279.7,266.3z M268,235.3c1.4,1,2.6,2.4,2.6,3.8c-0.2,0.7-0.7,2.2-1.4,1.9
				C267.2,239.6,267.7,237.2,268,235.3z M271.8,263.2c-0.2-1.9-1-3.8-2.2-5.3c0.5-0.7,1-1.4,0.2-2.2c-0.8-0.8-1.9-0.7-1.9-1.9
				c-0.5-1.9,1.4-2.9,1.9-4.3c1,0.2,1,1.4,1.2,2.2c1.2,1.9-1.4,4.6,1.9,5.3C273.2,259.1,272.3,261,271.8,263.2z M290.5,254
				c-1-2.4-2.4-4.6-3.6-7c1.2-1.2,3.4-0.5,3.8,1.2C291.5,250.2,290.5,252.4,290.5,254z M308.5,249.5c-2.2-0.5-4.6-0.2-6.2,0.7
				c-1.2-0.5-1.4-1.9-1.9-3.1c2.4-0.7,5.3-1.9,7.9-1c1.2,0.2,2.2,0.7,2.4,1.9c1.9,1.2,2.9,3.1,2.6,5l-3.6-1.9
				C309.9,250.2,309.2,249.5,308.5,249.5z M308.3,232.2l0.2,0.2c1.4-0.2,2.4-1.9,4.1-1c1.7,1,3.4,2.9,3.6,4.8
				c-3.4-1.7-7-2.4-10.6-3.1c-1.9,0.2-3.4,1.9-5.5,2.2c-0.7,0.7-1.4,1.2-2.4,1.7c-1-1-0.7-2.6-0.7-4.1c1.4,0,2.6-1.2,3.8-1.7
				C303.7,232.7,307.5,227.4,308.3,232.2z M296.3,218.8c0.7-1.2,1.9-2.4,3.4-2.4c0.7-0.2,1.7-0.2,1.9,0.5c-0.2,0.7,0.7,1.2,1.4,1.4
				c2.6-1,3.6,1.4,4.3,3.1v0.2c-3.4-0.7-8.2-2.4-11.3-0.2C295.5,220.9,296,219.5,296.3,218.8z M309.2,269.6c-1-0.5-1.9-1.2-2.9-1.9
				c0-0.5,0.2-1.4-0.2-1.9c-1.7-1.9-4.6-0.2-6.7-0.7c-0.7-1.2,0.5-1.9,1-2.9c1.4-0.5,2.6-1.4,4.3-0.7c1.4,0.2,2.4,1.7,3.8,1.7
				C310.7,264.8,309.9,267.7,309.2,269.6z M317.1,278.5l-0.5,0.5c-0.7-2.2-2.4-3.8-3.6-5.8l1.4-2.9c1.2,0.7,1.9,1.9,2.6,2.9
				c0,1-0.7,1.4-0.5,2.4C318.1,276.4,317.9,277.6,317.1,278.5z M319.5,271.1c-0.7-0.7-2.4-2.2-2.2-3.6c0.5-1.2,1.7-5,2.9-1.9
				C320.5,267.2,320.5,269.4,319.5,271.1z"/>
			<path fill="#EC682C" d="M197.7,175.3c2.2-2.2,4.6-3.4,7.2-4.6c-0.5-3.8-5-4.3-7.9-5.8c-2.9,0.7-3.6,3.6-4.3,6
				C191.7,174.6,196,173.9,197.7,175.3z"/>
			<path fill="#EC682C" d="M236.3,178c0.7-1.7,2.6-0.7,3.6-1.7c0-1.9,0.5-4.3,0-6.2l-0.7-1.4c-2.2-1.4-4.8-4.1-7.4-1.9
				c-1.7,0.7-2.2,2.4-2.6,3.8C232,172.2,235.1,174.9,236.3,178z"/>
			<path fill="#EC682C" d="M222.8,178.7c1.2-0.5,2.6,0,3.6-0.4c0-0.2-0.2-0.7-0.5-1c-1.2-0.3-1.6-1.7-2.6-2.4l-2.6-0.3
				c-0.5,0.2-1,0-0.7,0.7C222.1,175.3,221.6,177.7,222.8,178.7z"/>
			<path fill="#EC682C" d="M213.2,175.1c-2.9,0.2-5.8,1-7.2,3.6h4.6L213.2,175.1z"/>
			<path fill="#EC682C" d="M208.7,182.1v0.5h-9.4l-0.5,0.2l0.7,0.7c1.9,0.5,2.2,2.6,3.8,3.6c1.2,0,2.9,0.2,3.8-0.7
				c0.5,1.9,0.7,4.3,0,6.2c-1.2,1.9-3.1,1.7-4.6,3.4c-0.5,1-0.7,2.4-0.2,3.4c1.2-0.2,2.4-1.2,3.6-1.7c0.2-1.7,1.7-2.4,2.9-3.1
				c0.2-3.6,1.2-7,1.4-10.6C210.4,183,209.4,182.5,208.7,182.1z"/>
			<path fill="#EC682C" d="M221.2,184.2l0.7,9.6l2.4,1.9c0.5,2.4,3.6,2.2,5,4.1c0.5-1,1.4-1.7,1.7-2.9c-1.9-1.2-5-1-5.3-3.8
				c-3.6-0.7-1.4-4.8-2.6-7.2c1-0.7,1,0.7,1.7,1c1.4,0.2,3.1,0.7,4.6-0.5c0.2-2.4,3.1-1.9,3.8-3.8
				C229.1,183,224.3,180.6,221.2,184.2z"/>
			<path fill="#EC682C" d="M203.4,203.7c-0.2,0.5-0.5,1.4,0,1.9c1.4-0.2,2.6-1,3.8-1.7C205.8,203.4,204.8,204.1,203.4,203.7z"/>
			<path fill="#EC682C" d="M224,204.6c1.2,0.7,2.9,1.4,3.8,1.7l0.2-1.9h-3.8L224,204.6z"/>
		</g>
	</g>
	<path fill="#202B53" d="M368.3,313c0-2,1.5-3.5,3.4-3.5s3.4,1.5,3.4,3.5s-1.5,3.6-3.4,3.6S368.3,315.1,368.3,313L368.3,313z
		 M367.5,313c0,2.4,1.9,4.2,4.2,4.2c2.3,0,4.2-1.8,4.2-4.2s-1.9-4.2-4.2-4.2C369.4,308.9,367.5,310.7,367.5,313L367.5,313z
		 M370.1,315.5h0.8v-2.1h0.8l1.3,2.1h0.8l-1.4-2.2c0.7-0.1,1.3-0.4,1.3-1.3s-0.5-1.4-1.7-1.4h-1.9L370.1,315.5L370.1,315.5z
		 M370.9,311.2h1c0.5,0,1.1,0.1,1.1,0.7c0,0.8-0.6,0.8-1.3,0.8h-0.8L370.9,311.2L370.9,311.2z"/>
</g>
</svg>
