<svg xmlns="http://www.w3.org/2000/svg" viewBox="0 0 512 512"><path fill="#2f435e" d="M256 39.6c-120.4 0-218 97.6-218 218s97.6 218 218 218 218-97.6 218-218-97.6-218-218-218m0 347.5c-71.5 0-129.5-58-129.5-129.5s58-129.5 129.5-129.5 129.5 58 129.5 129.5-58 129.5-129.5 129.5"/><circle cx="222" cy="303.9" r="44.7" fill="#08a1b6"/><circle cx="307" cy="223" r="44.7" fill="#08a1b6"/><path fill="#dfebef" d="M238.2 272.8c9.9-.1 17 6.6 17.1 16.4 0 7.4-9.4 16.9-16.7 16.7-7.4-.1-16.6-9.6-16.5-17 .1-9.2 6.8-16 16.1-16.1m85-76.9c9.9-.1 17 6.6 17.1 16.4 0 7.4-9.4 16.9-16.7 16.7-7.4-.1-16.6-9.6-16.5-17 .1-9.1 6.8-15.9 16.1-16.1"/></svg>