<svg xmlns="http://www.w3.org/2000/svg" viewBox="0 0 512 512"><path fill="#ee7300" d="M86.8 365.3c-1.5-5.7-3.4-9.6-3.5-13.6-.4-16-.3-32-.1-48 .5-55.5 60.2-90.6 108.8-63.8 7.1 3.9 11.2 3.8 17.4-2.1 37.7-36 97.7-39 141.5-7.3 6.4 4.7 11.6 6 19.3 3.3 22-7.5 49.6-.9 67.9 15.7-2.2 2.4-4.3 5-6.6 7.3-29.6 29.6-59.2 59.1-88.9 88.7-14.6 14.5-22.1 13.4-31.7-4.6-1-1.8-1.9-3.6-3-5.3-11.9-18-26.7-19.9-42.3-4.9-18.6 17.9-37 36.1-55.5 54.2-3.6 3.6-7.1 7.4-10.9 10.8-6.2 5.6-13.8 14.6-21.4 8.8-5-3.8-5.1-15.1-5.7-23.2-1-12.8.5-25.8-1.1-38.4-2.2-17.6-14.9-22.7-30.4-12.9-17.3 10.9-34.1 22.3-53.8 35.3m153.8-208.1c.1-20.9 16.1-36.4 37.1-36.1 19.5.2 35.6 16.5 35.5 35.9-.1 20.5-16.8 37.3-36.7 36.9-20.2-.5-36-16.6-35.9-36.7M181 188.3c0 16.2-11.4 27.9-27.3 28-15.6.1-27.7-12.5-27.6-28.8.1-15.9 11.8-27.3 27.9-27.1 16 .1 26.9 11.4 27 27.9m190.3 5.1c0-13.5 8-21.2 21.8-21.2 13.1 0 22.6 9.5 22.4 22.4-.1 12-10.4 21.9-22.3 21.7-13.1-.2-22-9.5-21.9-22.9"/></svg>