<?xml version="1.0" encoding="utf-8"?>
<!-- Generator: Adobe Illustrator 22.1.0, SVG Export Plug-In . SVG Version: 6.00 Build 0)  -->
<svg version="1.1" id="Layer_1" xmlns="http://www.w3.org/2000/svg" xmlns:xlink="http://www.w3.org/1999/xlink" x="0px" y="0px"
	 viewBox="0 0 512 512" style="enable-background:new 0 0 512 512;" xml:space="preserve">
<style type="text/css">
	.st0{fill:#EE7300;}
</style>
<path class="st0" d="M86.8,365.3c-1.5-5.7-3.4-9.6-3.5-13.6c-0.4-16-0.3-32-0.1-48c0.5-55.5,60.2-90.6,108.8-63.8
	c7.1,3.9,11.2,3.8,17.4-2.1c37.7-36,97.7-39,141.5-7.3c6.4,4.7,11.6,6,19.3,3.3c22-7.5,49.6-0.9,67.9,15.7c-2.2,2.4-4.3,5-6.6,7.3
	c-29.6,29.6-59.2,59.1-88.9,88.7c-14.6,14.5-22.1,13.4-31.7-4.6c-1-1.8-1.9-3.6-3-5.3c-11.9-18-26.7-19.9-42.3-4.9
	c-18.6,17.9-37,36.1-55.5,54.2c-3.6,3.6-7.1,7.4-10.9,10.8c-6.2,5.6-13.8,14.6-21.4,8.8c-5-3.8-5.1-15.1-5.7-23.2
	c-1-12.8,0.5-25.8-1.1-38.4c-2.2-17.6-14.9-22.7-30.4-12.9C123.3,340.9,106.5,352.3,86.8,365.3z"/>
<path class="st0" d="M240.6,157.2c0.1-20.9,16.1-36.4,37.1-36.1c19.5,0.2,35.6,16.5,35.5,35.9c-0.1,20.5-16.8,37.3-36.7,36.9
	C256.3,193.4,240.5,177.3,240.6,157.2z"/>
<path class="st0" d="M181,188.3c0,16.2-11.4,27.9-27.3,28c-15.6,0.1-27.7-12.5-27.6-28.8c0.1-15.9,11.8-27.3,27.9-27.1
	C170,160.5,180.9,171.8,181,188.3z"/>
<path class="st0" d="M371.3,193.4c0-13.5,8-21.2,21.8-21.2c13.1,0,22.6,9.5,22.4,22.4c-0.1,12-10.4,21.9-22.3,21.7
	C380.1,216.1,371.2,206.8,371.3,193.4z"/>
</svg>
