<?xml version="1.0" encoding="utf-8"?>
<!-- Generator: Adobe Illustrator 22.1.0, SVG Export Plug-In . SVG Version: 6.00 Build 0)  -->
<svg version="1.1" id="Layer_1" xmlns="http://www.w3.org/2000/svg" xmlns:xlink="http://www.w3.org/1999/xlink" x="0px" y="0px"
	 viewBox="0 0 512 512" style="enable-background:new 0 0 512 512;" xml:space="preserve">
<style type="text/css">
	.st0{fill:#08B53D;}
</style>
<g>
	<path class="st0" d="M437.8,254c-9-36.5-30.7-61.2-67.5-71.3c-4.2-1.2-8.7-1.4-13.1-2c-1.4-0.2-2.7-0.3-4.1-0.4
		c-0.7-5.3-1.1-10.5-2.2-15.6c-6.5-28.9-24-49.1-50.2-62.2c-10.4-5.2-21.5-8.2-33.2-9c-0.8-0.1-1.5-0.4-2.2-0.5c-3.5,0-7,0-10.4,0
		c-4.7,0.7-9.5,1.1-14.1,2.3c-37.3,9.4-62.2,31.7-71.6,69.7c-1.2,4.8-1.4,9.9-2.1,15.3c-2.8,0.3-5.8,0.4-8.8,0.9
		c-26.8,3.7-47.1,17.6-62.1,39.7c-9.1,13.5-14.3,28.4-15.6,44.7c-0.1,0.8-0.4,1.5-0.5,2.2c0,3.5,0,7,0,10.4c0.2,1.8,0.5,3.6,0.7,5.4
		c2.8,22.8,12.1,42.4,29,57.9c26.3,24.3,57.1,31.3,91.6,22.1c1.6-0.4,2.5-1.1,2.8-2.9c1.1-9.1,1-18.2-1.2-27.2
		c-1.3-5.3-3.3-10.5-5-15.9c-1.1,0.5-1.5,0.6-1.9,0.8c-9.4,4.5-19.2,5.7-29.5,4.1c-36.9-5.7-54.7-50.2-31.7-79.8
		c13.7-17.6,32.2-22.2,53.3-18.6c10.9,1.9,21.1,6.2,31.3,10.4c1,0.4,1.9,0.8,3.1,1.3c-2.9-7.7-5.7-14.9-8.3-22.3
		c-3.7-10.6-5.3-21.6-3.8-32.8c3.8-29.4,33.5-49.1,62.2-41.5c22.1,5.8,41.5,27.5,36.8,58.9c-1.3,8.9-4.2,17.3-7.4,25.7
		c-1.5,3.9-3.1,7.8-4.7,11.8c7.6-2.8,14.9-5.7,22.4-8.3c11.8-4.1,23.9-5.8,36.1-3.1c26.5,5.8,43,30.1,38.9,57.1
		c-4.1,27.3-31.8,46.7-58.8,41c-4.5-1-8.9-2.6-13.5-4c-0.1,0.2-0.4,0.7-0.6,1.1c-5.8,13.2-7.6,27-5.8,41.3c0.2,1.9,1.4,2.5,3,3
		c14.6,4.2,29.4,4.9,44.3,2.2c36.8-6.8,67.4-36.8,74.5-73.5c0.9-4.7,1.5-9.4,2.2-14.1c0-3.5,0-7,0-10.4
		C439.3,263.2,438.9,258.5,437.8,254z"/>
	<path class="st0" d="M296.6,351c-0.3-32.1,13.6-57.8,39.3-77.8c-16.5,0-32.3,0-48.1-0.1c-2.1,0-3.3,0.7-4.4,2.4
		c-14.2,20.9-21.8,43.9-22.8,69.1c-0.1,1.6,0,3.2,0,4.8c-0.3,0-0.5,0-0.8,0c-0.3-4.2-0.5-8.4-0.9-12.5c-2.1-22.4-9.6-42.9-22.4-61.5
		c-1.1-1.6-2.3-2.2-4.3-2.2c-15.1,0.1-30.3,0-45.4,0c-0.7,0-1.5,0.1-2.7,0.1c16.8,12.7,28.5,28.5,34.8,48.2
		c6.3,19.7,6.1,39.5-0.4,59.1c-6.6,19.6-18.4,35.3-35.2,47.3c51.1,0,102.3,0,153.4,0C310.8,408.8,296.9,383.1,296.6,351z"/>
</g>
</svg>
