<svg xmlns="http://www.w3.org/2000/svg" viewBox="0 0 512 512"><path fill="#b0063a" d="M0 0h512v512H0z"/><path fill="#fff" d="M74.1 270.9h10.6c57 0 114 .1 171-.1 7.6 0 13.7 1.9 19.9 6.5 53.9 39.7 108 79 162 118.5 2.6 1.9 5.1 4.1 9.1 7.3-4 .5-6.2 1-8.4 1-57.3 0-114.6.1-171.9-.1-3.9 0-8.5-1.1-11.7-3.3-58.9-41-117.6-82.2-176.3-123.4-1.7-1.2-3.2-2.6-4.8-3.9.2-1 .4-1.8.5-2.5m282.3 103.3c.2-.9.4-1.7.6-2.6-31.9-23.1-63.7-46.3-95.7-69.2-2-1.4-5.1-2-7.6-2q-42.9-.15-85.8 0c-1.3 0-2.7.5-5.4.9 2.9 2.3 4.6 3.8 6.4 5.1 29 20 58.2 39.8 86.9 60.1 8.1 5.7 16.1 8.1 25.9 7.9 20.8-.6 41.6-.2 62.3-.2zm88.7-259.4c-3.9 3.3-6.2 5.4-8.8 7.3-54.6 40.1-109.3 80.3-164.1 120.3-3.2 2.3-7.5 4.3-11.4 4.3-61.8.3-123.6.2-185.4.2-1.2 0-2.3-.3-5.1-.6 3.1-2.6 5.2-4.5 7.5-6.1 58.8-41.1 117.5-82.3 176.4-123.2 2.5-1.7 6.1-2.7 9.1-2.7 58-.3 115.8-.3 173.7-.3 2 0 3.9.4 8.1.8m-87.7 30.4c-2.7-.7-3.5-1.1-4.3-1.1-27.7 0-55.4-.2-83.1.1-3.3 0-7 1.6-9.8 3.5-16.5 11.1-32.8 22.4-49.1 33.8-16.4 11.4-32.8 22.9-49.7 34.7 1.6.8 2.1 1.3 2.6 1.3 20.2.1 40.5-1.2 60.5.4 22.5 1.8 41-3.9 58.7-18.4 23.2-19.1 48.4-35.6 74.2-54.3"/></svg>