<?xml version="1.0" encoding="utf-8"?>
<!-- Generator: Adobe Illustrator 22.1.0, SVG Export Plug-In . SVG Version: 6.00 Build 0)  -->
<svg version="1.1" id="Layer_1" xmlns="http://www.w3.org/2000/svg" xmlns:xlink="http://www.w3.org/1999/xlink" x="0px" y="0px"
	 viewBox="0 0 512 512" style="enable-background:new 0 0 512 512;" xml:space="preserve">
<style type="text/css">
	.st0{fill:#B0063A;}
	.st1{fill:#FFFFFF;}
</style>
<rect class="st0" width="512" height="512"/>
<g>
	<path class="st1" d="M74.1,270.9c3.5,0,7,0,10.6,0c57,0,114,0.1,171-0.1c7.6,0,13.7,1.9,19.9,6.5c53.9,39.7,108,79,162,118.5
		c2.6,1.9,5.1,4.1,9.1,7.3c-4,0.5-6.2,1-8.4,1c-57.3,0-114.6,0.1-171.9-0.1c-3.9,0-8.5-1.1-11.7-3.3
		c-58.9-41-117.6-82.2-176.3-123.4c-1.7-1.2-3.2-2.6-4.8-3.9C73.8,272.4,74,271.6,74.1,270.9z M356.4,374.2c0.2-0.9,0.4-1.7,0.6-2.6
		c-31.9-23.1-63.7-46.3-95.7-69.2c-2-1.4-5.1-2-7.6-2c-28.6-0.1-57.2-0.1-85.8,0c-1.3,0-2.7,0.5-5.4,0.9c2.9,2.3,4.6,3.8,6.4,5.1
		c29,20,58.2,39.8,86.9,60.1c8.1,5.7,16.1,8.1,25.9,7.9c20.8-0.6,41.6-0.2,62.3-0.2C348.2,374.2,352.3,374.2,356.4,374.2z"/>
	<path class="st1" d="M445.1,114.8c-3.9,3.3-6.2,5.4-8.8,7.3c-54.6,40.1-109.3,80.3-164.1,120.3c-3.2,2.3-7.5,4.3-11.4,4.3
		c-61.8,0.3-123.6,0.2-185.4,0.2c-1.2,0-2.3-0.3-5.1-0.6c3.1-2.6,5.2-4.5,7.5-6.1c58.8-41.1,117.5-82.3,176.4-123.2
		c2.5-1.7,6.1-2.7,9.1-2.7C321.3,114,379.1,114,437,114C439,114,440.9,114.4,445.1,114.8z M357.4,145.2c-2.7-0.7-3.5-1.1-4.3-1.1
		c-27.7,0-55.4-0.2-83.1,0.1c-3.3,0-7,1.6-9.8,3.5c-16.5,11.1-32.8,22.4-49.1,33.8c-16.4,11.4-32.8,22.9-49.7,34.7
		c1.6,0.8,2.1,1.3,2.6,1.3c20.2,0.1,40.5-1.2,60.5,0.4c22.5,1.8,41-3.9,58.7-18.4C306.4,180.4,331.6,163.9,357.4,145.2z"/>
</g>
</svg>
