<svg width="200" height="200" xmlns="http://www.w3.org/2000/svg"><path d="M158.903 68.63H40.208C30.152 68.63 22 76.782 22 86.837v26.327c0 10.056 8.152 18.207 18.208 18.207h118.695c10.056 0 18.208-8.151 18.208-18.207V86.837c0-10.055-8.152-18.207-18.208-18.207Z" fill="#FFB3C7"/><path d="M146.209 96.121a9.61 9.61 0 0 0-15.018 7.94A9.606 9.606 0 0 0 146.209 112v1.164h5.451V94.957h-5.451v1.164Zm-4.958 12.624a4.69 4.69 0 0 1-.575-9.302 4.69 4.69 0 0 1 5.515 4.618 4.818 4.818 0 0 1-4.94 4.684ZM71.45 86.84h-5.704v26.322h5.705V86.841ZM121.51 94.468a6.62 6.62 0 0 0-5.615 2.54v-2.05h-5.429v18.207h5.494v-9.568a3.851 3.851 0 0 1 1.103-2.999 3.839 3.839 0 0 1 2.99-1.126c2.396 0 3.773 1.431 3.773 4.087v9.606h5.445v-11.579c0-4.237-3.369-7.118-7.761-7.118ZM88.698 96.121a9.608 9.608 0 1 0 0 15.879v1.164h5.451V94.957h-5.451v1.164Zm-4.958 12.624a4.687 4.687 0 0 1-4.32-5.751 4.692 4.692 0 0 1 9.259 1.067 4.816 4.816 0 0 1-4.94 4.684ZM102.582 97.328v-2.372h-5.581v18.208h5.593v-8.5c0-2.868 3.109-4.41 5.266-4.41l.065.002v-5.299a6.796 6.796 0 0 0-5.343 2.37ZM157.448 106.707a3.42 3.42 0 0 0-3.356 4.089 3.422 3.422 0 1 0 3.356-4.089ZM61.813 86.837h-5.912a15.121 15.121 0 0 1-6.114 12.204l-2.342 1.754 9.076 12.377h7.462l-8.35-11.389a20.942 20.942 0 0 0 6.18-14.946ZM46.723 86.837H40.8v26.334h5.923V86.837Z"/></svg>