<?xml version="1.0" encoding="utf-8"?>
<!-- Generator: Adobe Illustrator 22.1.0, SVG Export Plug-In . SVG Version: 6.00 Build 0)  -->
<svg version="1.1" id="Layer_1" xmlns="http://www.w3.org/2000/svg" xmlns:xlink="http://www.w3.org/1999/xlink" x="0px" y="0px"
	 viewBox="0 0 512 512" style="enable-background:new 0 0 512 512;" xml:space="preserve">
<style type="text/css">
	.st0{fill:#033C5A;}
	.st1{fill:#FCC503;}
	.st2{fill:#39B14A;}
	.st3{fill:#FF00C3;}
</style>
<path class="st0" d="M150,183.6c-9.3-40.1,0.7-74.4,32.4-101c38.9-32.5,95.7-29.5,131.9,6.2c14.5,14.3,28.9,28.7,43.4,42.9
	c2.7,2.7,5.8,4.9,8.6,7.4c16,14.1,33.5,14.4,52,5.7c16.5-7.8,29.4-20.1,42.3-32.5c10-9.6,21.6-15.9,35.3-18.5
	c3.4-0.6,16.6-0.5,17.1,3.2c0,8-1,20.4-1,29c0,31.4-0.2,60.6,0,92c0,4.3-9.3,4.4-13.9,3.7c-15-2.4-27.6-9-38.4-19.7
	c-10.9-10.9-21.9-21.7-35.2-29.8c-22-13.5-41.1-12.2-60.8,4.4c-16.3,13.8-30.2,30.1-45,45.3c-28.7,29.4-62.8,39.1-102.6,28.8
	c0.3-12-1.9-23.8-3.5-35.6c9.2,4.4,18.7,7.2,29,7.5c35.4,1.1,64.9-23.7,69.5-58.5c4.4-33-18.2-65.4-51.1-73
	c-33.9-7.9-68.3,10.8-79.5,43.3c-6.1,17.8-4.2,35.2,3.6,52.1C172.8,185.1,161.5,183.8,150,183.6z"/>
<path class="st1" d="M150,183.6c11.5,0.3,22.8,1.5,34.2,3c5,1.2,10.1,1.8,15.2,1.7c8.4-0.1,11.8-3.4,11.8-11.7
	c0-7.4-0.5-14.8-0.3-22.2c0.7-18.1,15.9-32.4,34-32.1c18.3,0.3,32.7,14.9,32.7,33.2c0,18.5-14.5,33.5-32.9,33.7
	c-6.3,0.1-12.5-0.4-18.8-0.5c-9.1-0.2-13.5,3.5-14.5,12.3c-0.5,4.8,0.5,9.4,1.3,14.1c1.6,11.8,3.8,23.6,3.5,35.6
	c-1.9,19.9-9.3,37.1-24.5,50.5c-19.2,17-48.8,21.1-71.5,9.8c-25-12.4-39.4-37-37.3-63.8c2.6-33.7,27.8-59.5,61.4-62.8
	C146.3,184.2,148.1,183.9,150,183.6z"/>
<path class="st0" d="M350.5,383c11.6-7,23-7.7,34.2-0.8c13.2,8,18.2,28.2,11.3,44.4c-6,14-20.5,21.1-35.7,17.2
	c-2.2-0.6-4.2-1.8-6.3-2.5c-1.7-0.6-4.1-5-5.2,0.9c-0.3,1.4-3.8,0.5-5.9,0.5c-13.2,0.1-13.2,0-13.2-13.1c0-23.2,0-46.4,0-69.6
	c0-8,0.2-8.1,7.9-8.1c13,0,13,0,13,12.9C350.5,370.7,350.5,376.6,350.5,383z M348.7,410.7c0.1,10,6.4,16.9,15.4,16.7
	c8.5-0.2,14.5-7.4,14.4-17.1c-0.1-9.8-6.1-16.6-14.8-16.7C354.8,393.6,348.7,400.6,348.7,410.7z"/>
<path class="st0" d="M184.4,379.8c-6.7,6.2-13.2,12.5-20.1,18.5c-3.5,3-3.2,5.4-0.8,8.9c6.5,9.6,12.6,19.5,18.8,29.3
	c1.2,1.9,2.3,3.8,3.7,6.3c-7.5,0-14.3,0-21.1,0c-2.9,0-4.4-1.7-5.8-3.9c-3.3-5.1-6.4-10.3-9.9-15.3c-1.1-1.6-1.5-5.4-4.1-4.2
	c-2.6,1.2-5.5,3.4-5.2,7.5c0.2,4-0.1,8,0.1,12c0.1,2.8-0.5,4.2-3.7,4c-4.2-0.2-8.4-0.2-12.6,0c-3.4,0.1-4.9-1.2-4.9-4.6
	c0-26.8,0-53.7,0-80.5c0-4.2,2.1-5.8,6.5-5.9c14.6,0,14.6-0.2,14.6,14.3c0,9.5,0,19,0,28.5c0,1.2-0.6,2.7,1.2,4
	c4.8-5.2,9.8-10.3,14.4-15.8c3.1-3.6,6.5-5.4,11.3-5.1c5.3,0.3,10.6,0.1,15.9,0.1C183.3,378.5,183.8,379.2,184.4,379.8z"/>
<path class="st2" d="M406.9,206.3c18.4,0.1,33.5,15.2,33.4,33.3c-0.2,18.5-15.4,33-34.4,32.9c-18.2-0.1-32.9-14.9-32.9-33
	C372.9,220.8,387.9,206.2,406.9,206.3z"/>
<path class="st0" d="M300.3,437.2c-8.2,7.4-17.1,9.3-27,6.5c-9.8-2.8-15.4-9.9-15.3-19.4c0-9,5.2-15.3,15.1-18.2
	c7.4-2.1,15.1-2.1,22.6-2.1c3.8,0,4-1.7,3.3-4.6c-1.1-4.5-4.3-6.5-8.6-7.1c-7-1-13.7,0.2-19.9,3.4c-3,1.6-4.4,1.3-5.7-2
	c-4.1-10.1-4-10.7,6.5-13.7c9.4-2.7,19-3.5,28.8-1.6c13,2.7,20.8,11.1,21.4,24.4c0.5,12.1,0.1,24.3,0.3,36.5c0,3-1.2,3.5-3.8,3.4
	c-3.8-0.1-7.6-0.3-11.4,0C302.8,443.2,300.4,442.1,300.3,437.2z M300.6,420.3c-1.3-0.9,2.4-4.9-1.9-5c-4.9-0.2-9.9-0.3-14.5,1.6
	c-5.2,2.2-6.4,8.4-2.3,12c3.8,3.4,8.3,3.3,12.8,1.6C298.9,428.9,301.7,426.2,300.6,420.3z"/>
<path class="st0" d="M209.9,386.1c6.2-7.4,13.9-10,23-8.8c9.9,1.3,15.9,6.5,18.2,16.1c2,8.3,1,16.7,1.2,25
	c0.1,6.8-0.1,13.7,0.1,20.5c0.1,2.8-0.5,4.1-3.7,3.9c-4-0.3-8-0.3-12,0c-4.1,0.3-5.3-1.5-5.2-5.3c0.2-10.3,0.2-20.5-0.1-30.8
	c-0.2-8.1-3.6-11.9-9.9-12c-6.4-0.2-10.6,3.5-11.7,10.8c-1.5,10.6-0.7,21.3-0.5,31.9c0.1,4.6-1.3,5.6-5.7,5.5
	c-15.3-0.2-15.3,0-15.3-15.3c0-14.3,0.1-28.5-0.1-42.8c0-4.9,1.5-7.7,7-7c1.7,0.2,3.4,0,5.1,0C208.6,377.8,208.6,377.8,209.9,386.1z
	"/>
<path class="st3" d="M92.5,153.7c0-9.3,7.3-16.6,16.6-16.7c9.7-0.1,17.1,7.2,17.2,16.8c0.1,9.3-7.8,17-17.2,16.8
	C99.8,170.4,92.5,162.9,92.5,153.7z"/>
</svg>
