<?xml version="1.0" encoding="utf-8"?>
<!-- Generator: Adobe Illustrator 22.1.0, SVG Export Plug-In . SVG Version: 6.00 Build 0)  -->
<svg version="1.1" id="Layer_1" xmlns="http://www.w3.org/2000/svg" xmlns:xlink="http://www.w3.org/1999/xlink" x="0px" y="0px"
	 viewBox="0 0 512 512" style="enable-background:new 0 0 512 512;" xml:space="preserve">
<style type="text/css">
	.st0{fill:#A8C803;}
</style>
<path class="st0" d="M316.3,260.1c10.8-10.4,19.2-18,27-26.1c21.8-22.4,21.9-55.3,0.4-76.6c-21.1-20.9-54-21.1-75.8,0.3
	c-39.5,38.9-78.7,78.3-117.9,117.6c-2.9,2.9-5.3,6.3-9.7,11.5c-5.3-6.1-9.6-10.7-13.5-15.6c-6.4-8.2-6.9-17.1,0.4-24.4
	c40.2-40.5,79.6-81.7,121.4-120.5c33-30.6,86.1-27.4,119.1,3.5c33,31,37.8,82.2,11.1,118.9c-2.4,3.3-5.1,6.5-8.2,10.3
	c2.3,3.1,4.8,6.2,7.1,9.5c28.2,38,22.8,91.2-12.5,122.1c-35.5,31.2-88.5,29.9-122.6-3.2c-25.8-25.1-51.4-50.4-77-75.5
	c9.7-9.4,18.1-17.5,27.2-26.3c24.5,24.6,49.6,49.9,74.8,75c16.9,16.8,40.4,20.8,61.1,10.9c20.2-9.6,32.1-30.3,30.4-53.2
	c-1-13.3-6.4-24.6-16-33.8C334.9,276.7,326.2,269.1,316.3,260.1z"/>
<path class="st0" d="M216.1,260.4c26.9-27.2,52.2-53.1,78-78.5c6.8-6.7,18-5.5,24.4,1.1c6.8,6.9,7.2,17.7,0,25.3
	c-12.9,13.6-26.3,26.7-39.6,39.8c-3.4,3.4-7.6,6.1-12.6,10c15.5,15.5,29.2,29.1,43,42.8c2.9,2.9,6,5.7,8.7,8.8
	c7.5,8.3,7.6,19.1,0.4,26.2c-7.1,7.1-18.1,7.2-26.2-0.6c-15.9-15.4-31.3-31.2-47-46.8C235.7,278.9,226,269.8,216.1,260.4z"/>
</svg>
