<?xml version="1.0" encoding="utf-8"?>
<!-- Generator: Adobe Illustrator 22.1.0, SVG Export Plug-In . SVG Version: 6.00 Build 0)  -->
<svg version="1.1" id="Layer_1" xmlns="http://www.w3.org/2000/svg" xmlns:xlink="http://www.w3.org/1999/xlink" x="0px" y="0px"
	 viewBox="0 0 512 512" style="enable-background:new 0 0 512 512;" xml:space="preserve">
<style type="text/css">
	.st0{fill-rule:evenodd;clip-rule:evenodd;fill:#009EE2;}
	.st1{fill-rule:evenodd;clip-rule:evenodd;fill:#004676;}
</style>
<path class="st0" d="M262,242.3c37.1,0,67.2-30.1,67.2-67.2c0-37.1-30.1-67.2-67.2-67.2c-37.1,0-67.1,30.1-67.1,67.2
	C194.9,212.2,224.9,242.3,262,242.3L262,242.3z M454.3,225.8V287l-389,0v-29.7c0,0,54.5-10.9,127.8-18.6
	c12.3,9.7,31.6,18.4,54.1,18.4c28.9,0,51.5-13.9,64.3-27.8C387.6,225.4,454.3,225.8,454.3,225.8L454.3,225.8z"/>
<polygon class="st1" points="111.5,373.9 111.5,410.1 65.3,410.1 65.3,313.8 111.5,313.8 111.5,357.1 111.8,357.1 139,313.8 
	194.4,313.8 153.8,363.6 192.1,410.1 139.2,410.1 111.8,373.9 111.5,373.9 "/>
<path class="st1" d="M454.3,406.1c-10.9,3.3-25.2,5.3-38.1,5.3c-45.7,0-79.3-13-79.3-50.8c0-34.1,32.5-49,77-49
	c12.4,0,28.1,1.4,40.3,5.3l0,33.1c-9.1-5.5-18.2-9-31.2-9c-17,0-33.9,8.4-33.9,20.5c0,12.2,16.9,20.5,33.9,20.5
	c12.8,0,22.1-3.5,31.2-8.8L454.3,406.1L454.3,406.1z"/>
<path class="st1" d="M202,313.8h93.4c24.3,0,32.2,9.4,32.2,24.1c0,16.4-14.7,23.6-29.8,24.4v0.3c15.5,1.2,30.6,3,30.6,22.4
	c0,12.7-8,25.1-34.6,25.1H202V313.8L202,313.8z M248.2,390.5h24.1c9,0,12.1-3.7,12.1-9.3c0-5.5-3.1-9.5-12-9.5h-24.2V390.5
	L248.2,390.5z M248.2,354.6h23c8.9,0,12.4-3.6,12.4-9.1c0-6.3-3.5-9.5-11.7-9.5h-23.7V354.6L248.2,354.6z"/>
</svg>
