<svg xmlns="http://www.w3.org/2000/svg" viewBox="0 0 512 512"><path fill="#009ee2" fill-rule="evenodd" d="M262 242.3c37.1 0 67.2-30.1 67.2-67.2s-30.1-67.2-67.2-67.2-67.1 30.1-67.1 67.2 30 67.2 67.1 67.2m192.3-16.5V287h-389v-29.7s54.5-10.9 127.8-18.6c12.3 9.7 31.6 18.4 54.1 18.4 28.9 0 51.5-13.9 64.3-27.8 76.1-3.9 142.8-3.5 142.8-3.5" clip-rule="evenodd"/><path fill="#004676" fill-rule="evenodd" d="M111.5 373.9v36.2H65.3v-96.3h46.2v43.3h.3l27.2-43.3h55.4l-40.6 49.8 38.3 46.5h-52.9l-27.4-36.2zm342.8 32.2c-10.9 3.3-25.2 5.3-38.1 5.3-45.7 0-79.3-13-79.3-50.8 0-34.1 32.5-49 77-49 12.4 0 28.1 1.4 40.3 5.3V350c-9.1-5.5-18.2-9-31.2-9-17 0-33.9 8.4-33.9 20.5 0 12.2 16.9 20.5 33.9 20.5 12.8 0 22.1-3.5 31.2-8.8zM202 313.8h93.4c24.3 0 32.2 9.4 32.2 24.1 0 16.4-14.7 23.6-29.8 24.4v.3c15.5 1.2 30.6 3 30.6 22.4 0 12.7-8 25.1-34.6 25.1H202zm46.2 76.7h24.1c9 0 12.1-3.7 12.1-9.3 0-5.5-3.1-9.5-12-9.5h-24.2zm0-35.9h23c8.9 0 12.4-3.6 12.4-9.1 0-6.3-3.5-9.5-11.7-9.5h-23.7z" clip-rule="evenodd"/></svg>