<svg xmlns="http://www.w3.org/2000/svg" width="320.2" height="320.2"><path d="M136.623 166.222c2.8-2.7 5.7-5.4 8.5-8.1 6.3-6.3 12.4-12.7 18.7-19 8.3-8.4 16.5-16.9 24.9-25.3 4.2-4.2 9.2-7.3 15.2-8.3 12-2.2 25.1 6.1 26 20.1.4 7.3-1.9 13.6-7 18.8-9.9 9.9-19.9 19.7-29.9 29.5-.7.7-.6 1.1-.2 1.8 12 20.7 24 41.4 36 62.2 3 5.2 4.9 10.8 4.6 17-.7 13.2-12.1 23.1-25.3 22-9.8-.8-16.8-5.8-21.5-14.1-9.7-17.2-19.3-34.6-29-51.9-.7-1.3-.7-1.3-1.7-.3-6.1 6-12.2 12.1-18.4 18.1-.6.5-.8 1.1-.8 1.9 0 6.7.1 13.4 0 20.2-.1 7.2-2 13.8-7.2 19.1-5 5.1-11.2 7.2-18.2 7-7.1-.2-13.3-2.7-18.1-8.2-4.1-4.8-5.9-10.4-6.1-16.6-.1-6.5-.1-13-.1-19.6v-162.3c0-6.1 1.3-11.9 5-16.9 5.1-7 12.3-9.9 20.7-9.7 12.8.4 22.1 9 23.6 21.7.2 1.8.3 3.6.3 5.4v94.6c0 .3-.1.7 0 .9zm81.9 86c0-5.5-4.5-9.9-10-9.9-5.4 0-9.9 4.6-9.9 9.9.1 5.5 4.5 10 10 10s10-4.5 9.9-10zm-106.7-192.3c-4.6 0-8.3 3.7-8.3 8.2 0 4.5 3.8 8.2 8.2 8.2 4.5 0 8.2-3.6 8.2-8.2.1-4.4-3.6-8.2-8.1-8.2zm-.2 184c-4.5 0-8.2 3.7-8.2 8.2 0 4.5 3.7 8.2 8.2 8.3 4.5 0 8.3-3.7 8.3-8.3-.1-4.5-3.7-8.2-8.3-8.2zm87.6-116.6c0 4.5 3.7 8.2 8.2 8.3 4.5 0 8.2-3.7 8.3-8.2 0-4.6-3.7-8.3-8.2-8.3-4.6 0-8.3 3.7-8.3 8.2z" fill="#0d0d0d"/><path d="M218.284 251.913c0 5.5-4.5 10-9.9 10-5.5 0-9.9-4.4-10-10-.1-5.4 4.5-9.9 9.9-9.9 5.5 0 10 4.4 10 9.9z" fill="#e1001b"/><path fill="#fff" d="M111.823 59.922c4.5 0 8.2 3.8 8.2 8.2-.1 4.5-3.7 8.2-8.2 8.2-4.5 0-8.2-3.7-8.2-8.2-.2-4.5 3.6-8.2 8.2-8.2zm-.2 184c4.5 0 8.2 3.6 8.2 8.2 0 4.5-3.7 8.3-8.3 8.3-4.5 0-8.2-3.8-8.2-8.3.1-4.5 3.8-8.2 8.3-8.2zm87.6-116.6c0-4.5 3.6-8.2 8.2-8.2s8.3 3.7 8.2 8.3c0 4.5-3.8 8.2-8.3 8.2-4.4 0-8.1-3.8-8.1-8.3z"/></svg>