<?xml version="1.0" encoding="utf-8"?>
<!-- Generator: Adobe Illustrator 22.1.0, SVG Export Plug-In . SVG Version: 6.00 Build 0)  -->
<svg version="1.1" id="Layer_1" xmlns="http://www.w3.org/2000/svg" xmlns:xlink="http://www.w3.org/1999/xlink" x="0px" y="0px"
	 viewBox="0 0 512 512" style="enable-background:new 0 0 512 512;" xml:space="preserve">
<path d="M35.9,335.6c0-49.6,0-98.7,0-148.2c21.7,0,43.2,0,65.4,0c-6.4,42.1-12.7,84.1-19.1,126.3c22.5,0,44.6,0,67.3,0
	c0-42.1,0-84.1,0-126.3c21.6,0,42.7,0,64.5,0c-3,19.8-6,39.4-9,59.2c16.8,0,33.2,0,50,0c3.1-19.7,6.1-39.4,9.2-59.6c1.6,0,3,0,4.5,0
	c32.4,0.1,64.8,0.2,97.1,0.1c3.1,0,4.5,0.9,5.6,3.8c10,27,20.2,54,30.4,81c0.3,0.7,0.6,1.3,1.1,2.5c4.3-10.1,8.4-19.7,12.6-29.3
	c7.9-18.3,15.9-36.5,23.7-54.8c1.1-2.5,2.3-3.3,5-3.2c10.7,0.1,21.4,0.1,32.7,0.1c-0.7,1.7-1.1,2.9-1.7,4
	c-21.4,46.9-42.8,93.9-64.2,140.9c-1.2,2.6-2.5,3.7-5.5,3.6c-13-0.2-25.9-0.2-38.9,0c-2.9,0-4.3-0.7-5.3-3.6
	c-14.5-39.8-29.1-79.6-43.7-119.4c-0.4-1-0.8-2-2-3.1c-7.1,41.9-14.2,83.9-21.3,125.9c-17.5,0-34.8,0-52.7,0
	c3.4-22.4,6.7-44.6,10-66.9c-16.8,0-33.4,0-50.2,0c-1.2,7.9-2.4,15.8-3.6,23.6c-2,13.7-4,27.3-6.1,41c-0.2,1-1.6,1.9-2.7,2.5
	c-0.7,0.4-1.7,0.1-2.6,0.1c-48.6,0-97.2,0-145.7,0C39.4,335.6,37.9,335.6,35.9,335.6z"/>
</svg>
