<svg xmlns="http://www.w3.org/2000/svg" viewBox="0 0 77 86"><path fill="#98D131" d="M52 15.27v41.872l-18.799 2.829v-45.3z"/><path stroke="#101110" stroke-width=".5" d="M45.313 30.474a.73.73 0 0 1-.756-.73v-.046a.73.73 0 0 1 .7-.731l3.867-.141a.73.73 0 0 1 .753.73v.028a.73.73 0 0 1-.697.73zm-9.233.382a.73.73 0 0 1-.755-.731v-.09a.73.73 0 0 1 .7-.731l4.298-.157a.73.73 0 0 1 .753.73v.07a.73.73 0 0 1-.696.731z"/><path fill="#FFF" d="m45.303 30.224 3.867-.16a.48.48 0 0 0 .457-.48v-.027a.48.48 0 0 0-.494-.481l-3.867.14a.48.48 0 0 0-.46.482v.045a.48.48 0 0 0 .497.481m-9.233.382 4.3-.178a.48.48 0 0 0 .456-.48v-.07a.48.48 0 0 0-.493-.481l-4.3.157a.48.48 0 0 0-.458.48v.091c0 .274.225.492.495.48m-2.352-16.717 16.895.537-6.742-11.94L27.89.955z"/><path fill="none" stroke="#323031" stroke-width="1.071" d="m34.069 13.363 15.609.497-6.136-10.87-14.786-1.413z"/><path fill="#1B1A18" d="M25.944 4.973v51.342l4.277 1.876V14.856zm4.803 54.128 1.927.87v-45.3l-1.927.184zm0-44.246 1.927-.183-6.6-14.643L25 1.571z"/><path fill="#7CC00D" d="m33.718 13.888 16.895.537-6.742-11.94L27.89.955zm10.637-12.16L52 15.269l-18.799-.597-6.6-14.643z"/><path fill="#7AB72B" d="m62.575 71.29 5.322 6.23-5.322 6.232 1.476 1.287 6.422-7.519L64.05 70zm6.473 0 5.321 6.23-5.321 6.232 1.475 1.287 6.422-7.519L70.523 70zM6.653 83.287q0 .2-.02.335a.8.8 0 0 1-.064.23.34.34 0 0 1-.109.14.26.26 0 0 1-.153.045H.644a.7.7 0 0 1-.43-.155q-.204-.155-.204-.545V71.37q0-.08.04-.14a.27.27 0 0 1 .138-.094q.099-.036.268-.06.168-.025.406-.025.248 0 .41.025.165.024.263.06a.27.27 0 0 1 .139.095q.04.06.04.14v11.178h4.593q.09 0 .153.045a.36.36 0 0 1 .11.13q.044.085.064.225t.02.34m3.583.488q0 .08-.04.14a.27.27 0 0 1-.138.095 1.5 1.5 0 0 1-.263.06 3 3 0 0 1-.41.025q-.238 0-.406-.025a1.5 1.5 0 0 1-.268-.06.27.27 0 0 1-.138-.095.25.25 0 0 1-.04-.14V71.369q0-.08.045-.14t.148-.094q.105-.036.267-.06.165-.025.392-.025.247 0 .41.025.164.024.263.06a.27.27 0 0 1 .139.095q.04.06.04.14zm15.713 1.399q0 .229-.025.384a.7.7 0 0 1-.075.24.3.3 0 0 1-.109.115q-.06.03-.118.03-.198 0-.639-.165a8 8 0 0 1-1.015-.48q-.574-.315-1.227-.764-.654-.45-1.268-1.049-.484.3-1.227.52t-1.723.22q-1.446 0-2.5-.43a4.36 4.36 0 0 1-1.742-1.259q-.689-.829-1.025-2.063-.337-1.233-.337-2.832 0-1.538.367-2.782.366-1.244 1.099-2.118a4.9 4.9 0 0 1 1.831-1.349q1.099-.474 2.564-.474 1.377 0 2.421.43a4.56 4.56 0 0 1 1.752 1.253q.708.824 1.065 2.033.356 1.21.356 2.777 0 .81-.094 1.549-.095.74-.297 1.399-.202.66-.51 1.218-.306.56-.723 1.01.723.598 1.268.934.544.335.9.504.357.17.555.245.197.075.297.17a.5.5 0 0 1 .139.27q.04.173.04.464m-3.367-7.643q0-1.098-.193-2.038a4.7 4.7 0 0 0-.644-1.633 3.1 3.1 0 0 0-1.202-1.084q-.753-.39-1.862-.39t-1.861.415q-.753.416-1.223 1.119a4.7 4.7 0 0 0-.673 1.633 9.2 9.2 0 0 0-.203 1.969q0 1.138.188 2.092.187.954.634 1.654.445.7 1.192 1.084.748.384 1.877.384 1.118 0 1.88-.419.763-.42 1.228-1.134t.664-1.658a9.7 9.7 0 0 0 .198-1.994m12.574-2.637q0 .97-.317 1.748-.317.78-.906 1.329-.59.55-1.446.849-.855.3-2.044.3H28.99v4.655q0 .08-.045.14a.3.3 0 0 1-.139.095 1.4 1.4 0 0 1-.257.06 3 3 0 0 1-.41.025q-.249 0-.412-.025a1.5 1.5 0 0 1-.262-.06.27.27 0 0 1-.139-.095.25.25 0 0 1-.04-.14V71.849q0-.4.208-.57a.72.72 0 0 1 .466-.17h2.74q.416 0 .797.035t.901.15 1.06.43.915.774.58 1.064.203 1.334m-1.792.14q0-.789-.293-1.32-.291-.528-.722-.788a2.4 2.4 0 0 0-.891-.33 6 6 0 0 0-.897-.07h-1.574v5.185h1.535q.772 0 1.282-.2t.857-.554q.345-.355.525-.85a3.2 3.2 0 0 0 .178-1.073m13.99 8.392q.078.219.084.354.005.136-.075.205-.078.07-.262.09a5 5 0 0 1-.49.02q-.307 0-.49-.015a1 1 0 0 1-.277-.05.3.3 0 0 1-.139-.095 1 1 0 0 1-.084-.15l-1.099-3.146h-5.326l-1.05 3.107a.5.5 0 0 1-.08.154.4.4 0 0 1-.143.11.9.9 0 0 1-.267.065q-.173.02-.45.02-.288 0-.47-.024-.184-.026-.258-.095-.075-.07-.07-.205.006-.136.085-.355L40.79 71.41a.5.5 0 0 1 .103-.18.4.4 0 0 1 .189-.11q.123-.04.316-.055a7 7 0 0 1 .49-.015q.318 0 .525.015.208.016.337.055a.44.44 0 0 1 .198.115q.069.075.109.185zm-5.515-10.6h-.01l-2.208 6.442h4.455zm11.731 6.184v4.765q0 .08-.039.14a.26.26 0 0 1-.138.095 1.5 1.5 0 0 1-.265.06 3 3 0 0 1-.404.024q-.246 0-.408-.024a2 2 0 0 1-.266-.06.27.27 0 0 1-.143-.095.25.25 0 0 1-.04-.14v-4.765l-3.623-7.293a1.6 1.6 0 0 1-.133-.36q-.025-.13.05-.2.073-.069.266-.09.194-.02.52-.02.297 0 .48.02t.292.056a.34.34 0 0 1 .164.1 1 1 0 0 1 .104.164l1.772 3.717q.247.529.492 1.109.247.579.502 1.168h.02q.227-.57.468-1.134.24-.564.488-1.113l1.782-3.737a.5.5 0 0 1 .084-.17.33.33 0 0 1 .149-.104 1.2 1.2 0 0 1 .262-.055q.168-.02.426-.02.356 0 .56.024.201.026.281.095.08.07.055.2a1.5 1.5 0 0 1-.134.35z"/></svg>