<svg xmlns="http://www.w3.org/2000/svg" viewBox="0 0 84 44"><defs><radialGradient id="radial-gradient" cx=".945" cy="-.266" r="16.702" fx=".749" fy="-.316" gradientUnits="userSpaceOnUse"><stop offset="0" stop-color="red"/><stop offset=".495" stop-color="#e83e49"/><stop offset="1" stop-color="#f0f"/></radialGradient><linearGradient id="linear-gradient" x1=".5" x2=".5" y1="1" gradientUnits="objectBoundingBox"><stop offset="0" stop-color="#262626"/><stop offset="1"/></linearGradient></defs><path fill="url(#linear-gradient)" d="M77.267 44.333H6.994A7 7 0 0 1 0 37.339V6.994A7 7 0 0 1 6.994 0h70.273a7 7 0 0 1 6.994 6.994v30.345a7 7 0 0 1-6.994 6.994"/><path fill="#fff" d="M34.696 6.636h5.728v32.025h-5.728zM45.297 17.43h5.728v21.203h-5.728zm31.337 21.206-8.591-11.21 7.9-10h-6.744l-7.572 9.693V6.636h-5.728v32h5.728v-10.88l7.572 10.88zM20.129 17.21a10.7 10.7 0 0 0-5.122 1.294V6.636h-5.7v21.423A10.849 10.849 0 1 0 20.129 17.21m0 15.971a5.122 5.122 0 1 1 5.122-5.122 5.11 5.11 0 0 1-5.122 5.122"/><circle cx="5.094" cy="5.094" r="5.094" fill="url(#radial-gradient)" transform="translate(20.625 5.039)"/></svg>