<?xml version="1.0" encoding="utf-8"?>
<!-- Generator: Adobe Illustrator 22.1.0, SVG Export Plug-In . SVG Version: 6.00 Build 0)  -->
<svg version="1.1" id="Layer_1" xmlns="http://www.w3.org/2000/svg" xmlns:xlink="http://www.w3.org/1999/xlink" x="0px" y="0px"
	 viewBox="0 0 512 512" style="enable-background:new 0 0 512 512;" xml:space="preserve">
<style type="text/css">
	.st0{fill:#006C32;}
	.st1{fill:#231F20;}
	.st2{fill:#6D6E70;}
</style>
<g>
	<g>
		<path class="st0" d="M176.3,335.9c5-7.3,8.6-13.2,11.6-21.9h9.4c-4.4,11.1-9.5,19.8-16.8,29.7v14.8h-8.3v-14.7
			c-7.3-10-12.4-18.6-16.8-29.7h9.4C167.7,322.9,171.3,328.8,176.3,335.9"/>
		<path class="st0" d="M262.4,332.2c-4.1-1.3-6.5-2-7.9-3c-1.6-0.9-2-2.1-2-3.3c0-1.8,1.1-3,2.6-3.8c1.6-0.8,3.7-1.1,5.6-1.1
			c2.9,0,6.2,0.7,9.6,1.8l2.8-6.5c-3.4-1.7-8.1-2.8-12.4-2.8c-4.5,0-8.5,1.1-11.2,3c-3.4,2.2-5.2,5.5-5.2,9.5
			c0,7.7,6.5,10.6,12.8,12.7c2.6,0.9,5.4,1.6,7.3,2.6c1.8,1.1,2.9,2.5,2.9,4.4c0,2.1-1.3,3.6-2.6,4.2c-1.6,0.9-4.1,1.3-6.6,1.3
			c-5.9,0-10.2-2.2-13.2-4.4l-2.9,6.7c3.8,2.9,10.2,5,16.5,5c9.8,0,17.2-5.2,17.2-13.5C275.6,338.1,269.6,334.5,262.4,332.2"/>
		<path class="st0" d="M216.6,350.7h-6.1v-28.9h5.3c9.3,0,15.2,5,15.2,14.1C231.1,344.7,225.6,350.7,216.6,350.7 M215.7,314h-13.3
			v44.5h14.1c13.1,0,22.9-9.3,22.9-22.6C239.4,322.9,230.1,314,215.7,314"/>
		<path class="st0" d="M316.7,351.8h-7.1v-13h7.4c6.3,0,9.6,1.7,9.6,6.2C326.6,351,320.9,351.8,316.7,351.8 M309.6,320.7h6.3
			c5.9,0,8.7,1.5,8.7,5.3c0,3.8-2.8,6.1-8.1,6.1h-7V320.7z M324.9,335.2L324.9,335.2c4.8-1.6,7.7-4.9,7.7-10c0-7.8-6.9-11-13.6-11
			h-17.3v44.4h16.1c8.3,0,16.8-3.4,16.8-12.7C334.5,339.6,330.7,335.9,324.9,335.2"/>
		<polygon class="st0" points="421.9,314 414.1,314 414.1,346.1 414,346.1 395.2,314 385,314 385,358.5 392.7,358.5 392.7,325.4 
			392.8,325.4 412,358.5 421.9,358.5 		"/>
		<polygon class="st0" points="447.7,335.4 468.3,314 457.8,314 439.3,334 439.1,334 439.1,314 431.3,314 431.3,358.5 439.1,358.5 
			439.1,337 439.3,337 459,358.5 470,358.5 		"/>
		<polygon class="st0" points="81.7,358.5 106.7,358.5 109.3,350.6 89.8,350.6 89.8,314 81.7,314 		"/>
		<polygon class="st0" points="47.4,358.5 72.3,358.5 75.1,350.6 55.5,350.6 55.5,314 47.4,314 		"/>
		<path class="st0" d="M133.3,351.4c-9,0-14.1-6.6-14.1-15.1c0-8.5,5.2-15.1,14.1-15.1c9.1,0,14.3,6.9,14.3,15.2
			C147.4,344.7,142.2,351.4,133.3,351.4 M133.4,313.6c-13.6,0-22.6,10-22.6,22.7c0,12.6,8.7,22.6,22.5,22.6
			c13.6,0,22.6-10.2,22.6-22.7C155.7,323.7,146.9,313.6,133.4,313.6"/>
		<path class="st0" d="M358.3,349c3.3,0,6.5-0.3,9.3-1.1l4.1,10.6h9.3l-19.2-44.4H355l-19.3,44.4h9.3l4.1-10.6
			C351.8,348.8,355,349,358.3,349 M358.3,342.3c-2.4,0-4.5-0.1-6.9-0.7l6.9-17.6l6.9,17.6C362.8,342.2,360.7,342.3,358.3,342.3"/>
	</g>
	<g>
		<path class="st1" d="M333,227.8c3,2.2,6.2,3.8,6.2,7.4c0,1.1-1.3,2.1-4.2,2.1c-2.2,0-4.6-0.7-5.8-2.2c-0.9-1.2,0.4-2.9-0.4-4.1
			c-0.7-1.1-2-0.5-2.9-1.1c-1.1-0.7-1.2-1.1-2-2.6c-0.8-1.9-3.6-4.9-6.9-8.2c-2.8-2.8-5.7-4.2-7-4.1c-0.9,0.1-1.2,0.1-2.1,0.1
			c-2.4,0-4.4,2.2-7.8,3.7c-2.4,1.1-3.7,1.6-5.2,1.9l-0.5,0.7l3-0.1c2.9,0,6.6-0.4,9.5-0.4c2.9,0,4.4,2.6,5.6,5.4
			c2.2,5.5,5.6,13.6,9.6,20.4c2,3.2,3.6,5.2,3.6,9.1c0,1.2-0.1,2.9-1.7,2.9c-2.2,0-7.9-2.4-7.9-4.9c0-2,1.6-2.8,1.6-4.8
			c0-1.2-1.9-1.1-2.2-2.1c-1.5-5.9-3.2-11.9-6.5-15.5c-1.7-1.9-2-2.6-3.7-2.6c-0.9,0-1.8,0.3-2.6,0.5c-4.6,1.7-10.8,7-18.6,9.3
			c-2.9,0.9-3.4-0.8-6.5-0.3h0.3c-2.5,0.5-4.4,2-7.8,2.9c-4.6,1.3-12.7,2-19.2,1.1c-4.6-0.7-10.6-1.6-13.1-1.5
			c-2,5.6-6.1,13-12.3,15.9c-3.3,1.5-4.2,3.4-3.3,7.1c1.2,4.6,5.3,7.9,7.4,11.9c2,3.3,5.2,8.7,8.5,10.4c3.3,1.7,5.4,4.2,5.4,6.5
			c0,1.1-0.4,1.6-1.5,1.6h-6.7c-1.1,0-1.6-0.7-1.7-1.1c-0.9-1.7-0.3-3.3-1.6-4.9c-0.9-1.1-1.6-0.8-2.8-1.7c-2-2-0.5-3-2-5.6
			c-4.2-6.7-6.1-8.3-9.6-13.2c-2-2.5-4.5-3.8-4.5-7.1c0-4.1,4.1-4.8,4-8.9c-2.6,2-5.7,3.4-10.4,4.1c-0.7,0.1-2.2,1.3-2.9,2.1
			c-1.6,1.6-2.2,3.3-2.5,5.7c-0.5,5.6-1.6,11.1-0.9,16.7c0.9,3.6,1.6,4.8,4.5,6.7c1.9,1.2,4,2.9,4.2,5.6c0,0.7-0.3,1.6-1.2,1.6h-7.3
			c-0.7,0-1.3-0.5-1.6-0.9c-0.8-1.5-0.3-2.4-0.7-4.1c-0.7-3.3-4.5-3.2-4.5-6.6c0-1.1,0.7-2.4,0.7-4.5c0.3-4.6,1.6-12.3,0.3-21.4
			c-0.7-5.3,4.9-5.6,7.8-10.2c1.7-2.6,1.2-1.6,2.2-3.4c1.1-2,0.8-3.4,0.7-4.6c0-1.6-1.6-4.8-0.5-11.4c0.4-2.9,1.9-5.9,3.8-8.5
			c0-0.1,0-0.5-0.7-0.5c-2.9,0.3-2.9-0.5-4.8-0.5c-1.9,0-3.3,1.6-3.6,2.4c-0.9-0.4-1.3-1.5-1.3-2c0-1.1,0.3-2,1.2-2.9
			c0.4-0.4,0-0.7-0.5-0.7c-2.2,0-4.4,2.8-4.9,4.6c-1.3-0.3-1.5-2-2-2c-0.7,0-1.1,0.9-1.1,1.9c0,6.5,10.6,7.9,10.6,16.5
			c0,9.9-11.9,7.8-11.9,11.4c0,0.7,0.5,1.3,1.5,1.7c-0.4,0.9-1.5,1.3-2.5,1.3c-2.6,0-4.6-2-4.6-4.6c0-5.4,7.3-5.6,7.3-9.6
			c0-2-1.2-2.5-2.4-3.4c-6.9-4.9-10.8-9.8-10.8-17.8c0-8.7,6.1-15.3,13.9-15.3c11.4,0,11.8,13.2,22.1,14.3c3.8-2.6,8.5-4.2,13-4.2
			c6.7,0,9.6,1.7,16.8,1.7c2.9,0,7.7-0.8,13.3-4.8c2.1-1.5,3-1.7,5-3.4c4.5-3.8,8.7-11.4,8.7-16.8v0.3c0-1.7-0.4-2.8-1.2-2.8
			c-2.4,0-4.6,2.2-7,4.6c-1.6,1.6,0.8,2.4-2.6,4.2c-1.2,0.7-2.6-0.5-4-0.5c-2.8,0-4-3.3-4-6.1c0-1.5,1.1-1.9,1.7-3.2
			c1.5-2.8,1.3-3.8,2.6-6.5c0.8-1.9,2.2-3,2.1-4.4c0-0.5-0.4-0.8-0.4-1.3c0-2.8,3.7-4.6,3.7-7.4c0-1.6-1.7-2.2-2.1-3.4
			c-0.4-1.2-0.1-1.6-0.1-1.6c0.1-0.3,0.3-0.3,0.5-0.3c1.5,0,2,1.6,3.3,2.4c0.1-1.8-0.5-2.2-0.5-3.6c0-0.7-0.1-1.9,0.7-1.9
			c0.9,0,0.8,1.2,1.6,1.9c1.1,0.8,2,0.7,3,1.5c1.5,0.9,2.2,2.5,2.8,2.5c1.5,0.3,1.8-1.6,1.1-2.5c1.6-0.1,3.3,1.2,5.4,1.2
			c3.3,0,4.5,0.9,5.2,1.5c2.1,1.9,2.5,3.3,4.9,3.3c1.2,0,1.9-1.1,2.1-1.5c1.6,1.2,1.7,4.2,0,6.9c0.7,2.1,3.7,2.4,5.2,3.4
			c1.5,1.1,1.2,1.6,2.2,2.1c0.8,0.5,1.6,0.4,2.1,0c0.7,2.9-1.7,5.4-4.8,5.8c0.1,3.7,4,5.9,5.7,6.9c-1.1,2.2-2.9,2.9-4.5,3.3
			c0.5,2.2,2.9,5.6,1.7,8.5c-1.1-0.5-2.8,0-2.8,1.6c0,1.9,2.4,2.8-0.1,4.1c-1.1,0.7-1.3,2.2,0.7,3.8c2.6-0.7,5.2-0.7,8.2-0.7
			c1.9,0,4.2-0.5,5.9-0.5c3,0,4.9,1.2,7.1,3.7C322,217,327.2,223.5,333,227.8"/>
		<path class="st2" d="M181.7,211.6c1.2,0,3.4-6.7,8.1-6.7c1.3,0,1.6,0.5,1.6,1.1c0,0.9-1.6,1.7-1.6,2.9c0,0.3,0.1,0.5,0.5,0.5
			c1.1,0,2-2.5,6.5-2.5c1.2,0,2.2,0.1,3.3,0.4c0.5,0.1,1.6,0.7,1.1-0.8c-1.1-3.2-4.6-6.1-9.5-6.1c-4.9,0-10,4.4-10.6,9.6
			C181.2,210.9,181.2,211.6,181.7,211.6"/>
		<path class="st2" d="M266.3,169.6c-1.3-0.5-1.6-1.2-1.1-2.9c0.3-1.7,0.4-2.5-0.4-2.6c-0.7-0.3-1.6,0.3-2.5,1.2
			c-0.8,1.1-2.1,2.5-2.5,3.6c-0.4,1.5,1.3,1.2,0.1,3.6c-2.1,3.8-2.6,4.8-3.7,7.4c-0.9,2.9-1.6,3.3-2.1,4.2c-0.7,0.8,0.8,0.9,2.4,0.4
			c1.7-0.7,1.8,1.5,1.2,2.9c-0.5,1.1-0.1,1.5,1.3,0.3c1.3-1.1-0.7-1.9-0.3-5.2c0.5-2.9,1.1-4.6,2.9-7.5c1.6-2.5,2.9-4.4,5.5-3.4
			C268.3,171.9,267.7,170.2,266.3,169.6"/>
		<path class="st2" d="M323,256.1c0.5,0,0.7-0.7,0.7-1.3c0-1.5-0.8-3.6-2-4.5c-0.3,2.1-1.3,3.6-1.3,4.5
			C320.3,255.5,322.3,256.1,323,256.1"/>
		<path class="st2" d="M335.7,235.6c0.8,0,2-0.3,2-0.9c0-1.2-1.9-3.3-3.4-3.8C335.3,233,334.2,235.6,335.7,235.6"/>
		<path class="st2" d="M279.6,207.8c11.5,5.3,10.8,14.9,11.8,12.6c0.4-1.1,2-5.8-2.1-10.4c-3.2-3.7-4.4-2.8-3.2-5.8
			c5-12.2,8.2-30.5-6.9-36.9c-1.7-0.7-3.2-0.7-3.2-0.4c0,0.3,1.6,0.8,3.6,2.1c10,6.6,6.9,24.7-2.2,33.4
			C274.5,205.4,275.9,206,279.6,207.8"/>
		<path class="st2" d="M240.2,292.3c0.8,0,0.4-1.2,0.1-1.7c-0.7-1.2-2-2-3.2-2.5c0.3,1.2,0.4,4.2,1.6,4.2H240.2"/>
		<path class="st2" d="M205.5,292.3c0.8,0,0.3-1.2-0.1-1.7c-0.7-1.2-2.1-2-3.3-2.5c0.3,1.2,0.5,4.2,1.7,4.2H205.5"/>
		<path class="st2" d="M247.6,223.2c6.3-0.7,7.4-2.1,8.5-6.9c0.5-2.2,2.1-4.6,3.6-6.1c0.9-1.1,1.9-1.9,2.8-3.3
			c0.3-0.7,0.5-1.1,0-0.9c-0.7,0.5-2.9,2-3.8,2.6c-4.5,3.2-11.4,4.6-14,4.6c-5.8,0-10.8-1.7-16.1-1.7c-15.9,0-21.8,12.4-21,19.7
			c0.1,1.2,0.3,1.2,0.7,1.2c1.1,0,2.1-4.2,6.1-8.1c5.8-5.6,12.2-8.7,21.1-8.7c6.5,0,9.3,2.1,9.3,2.9c0,1.6-2.8,1.7-2.5,3.3
			C242,222.6,243.4,223.7,247.6,223.2"/>
	</g>
</g>
</svg>
