<svg xmlns="http://www.w3.org/2000/svg" viewBox="0 0 512 512"><path fill="#006c32" d="M176.3 335.9c5-7.3 8.6-13.2 11.6-21.9h9.4c-4.4 11.1-9.5 19.8-16.8 29.7v14.8h-8.3v-14.7c-7.3-10-12.4-18.6-16.8-29.7h9.4c2.9 8.8 6.5 14.7 11.5 21.8m86.1-3.7c-4.1-1.3-6.5-2-7.9-3-1.6-.9-2-2.1-2-3.3 0-1.8 1.1-3 2.6-3.8 1.6-.8 3.7-1.1 5.6-1.1 2.9 0 6.2.7 9.6 1.8l2.8-6.5c-3.4-1.7-8.1-2.8-12.4-2.8-4.5 0-8.5 1.1-11.2 3-3.4 2.2-5.2 5.5-5.2 9.5 0 7.7 6.5 10.6 12.8 12.7 2.6.9 5.4 1.6 7.3 2.6 1.8 1.1 2.9 2.5 2.9 4.4 0 2.1-1.3 3.6-2.6 4.2-1.6.9-4.1 1.3-6.6 1.3-5.9 0-10.2-2.2-13.2-4.4l-2.9 6.7c3.8 2.9 10.2 5 16.5 5 9.8 0 17.2-5.2 17.2-13.5-.1-6.9-6.1-10.5-13.3-12.8m-45.8 18.5h-6.1v-28.9h5.3c9.3 0 15.2 5 15.2 14.1.1 8.8-5.4 14.8-14.4 14.8m-.9-36.7h-13.3v44.5h14.1c13.1 0 22.9-9.3 22.9-22.6 0-13-9.3-21.9-23.7-21.9m101 37.8h-7.1v-13h7.4c6.3 0 9.6 1.7 9.6 6.2 0 6-5.7 6.8-9.9 6.8m-7.1-31.1h6.3c5.9 0 8.7 1.5 8.7 5.3s-2.8 6.1-8.1 6.1h-7v-11.4zm15.3 14.5c4.8-1.6 7.7-4.9 7.7-10 0-7.8-6.9-11-13.6-11h-17.3v44.4h16.1c8.3 0 16.8-3.4 16.8-12.7-.1-6.3-3.9-10-9.7-10.7m97-21.2h-7.8v32.1h-.1L395.2 314H385v44.5h7.7v-33.1h.1l19.2 33.1h9.9zm25.8 21.4 20.6-21.4h-10.5l-18.5 20h-.2v-20h-7.8v44.5h7.8V337h.2l19.7 21.5h11zm-366 23.1h25l2.6-7.9H89.8V314h-8.1zm-34.3 0h24.9l2.8-7.9H55.5V314h-8.1zm85.9-7.1c-9 0-14.1-6.6-14.1-15.1s5.2-15.1 14.1-15.1c9.1 0 14.3 6.9 14.3 15.2-.2 8.3-5.4 15-14.3 15m.1-37.8c-13.6 0-22.6 10-22.6 22.7 0 12.6 8.7 22.6 22.5 22.6 13.6 0 22.6-10.2 22.6-22.7-.2-12.5-9-22.6-22.5-22.6M358.3 349c3.3 0 6.5-.3 9.3-1.1l4.1 10.6h9.3l-19.2-44.4H355l-19.3 44.4h9.3l4.1-10.6c2.7.9 5.9 1.1 9.2 1.1m0-6.7c-2.4 0-4.5-.1-6.9-.7l6.9-17.6 6.9 17.6c-2.4.6-4.5.7-6.9.7"/><path fill="#231f20" d="M333 227.8c3 2.2 6.2 3.8 6.2 7.4 0 1.1-1.3 2.1-4.2 2.1-2.2 0-4.6-.7-5.8-2.2-.9-1.2.4-2.9-.4-4.1-.7-1.1-2-.5-2.9-1.1-1.1-.7-1.2-1.1-2-2.6-.8-1.9-3.6-4.9-6.9-8.2-2.8-2.8-5.7-4.2-7-4.1-.9.1-1.2.1-2.1.1-2.4 0-4.4 2.2-7.8 3.7-2.4 1.1-3.7 1.6-5.2 1.9l-.5.7 3-.1c2.9 0 6.6-.4 9.5-.4s4.4 2.6 5.6 5.4c2.2 5.5 5.6 13.6 9.6 20.4 2 3.2 3.6 5.2 3.6 9.1 0 1.2-.1 2.9-1.7 2.9-2.2 0-7.9-2.4-7.9-4.9 0-2 1.6-2.8 1.6-4.8 0-1.2-1.9-1.1-2.2-2.1-1.5-5.9-3.2-11.9-6.5-15.5-1.7-1.9-2-2.6-3.7-2.6-.9 0-1.8.3-2.6.5-4.6 1.7-10.8 7-18.6 9.3-2.9.9-3.4-.8-6.5-.3h.3c-2.5.5-4.4 2-7.8 2.9-4.6 1.3-12.7 2-19.2 1.1-4.6-.7-10.6-1.6-13.1-1.5-2 5.6-6.1 13-12.3 15.9-3.3 1.5-4.2 3.4-3.3 7.1 1.2 4.6 5.3 7.9 7.4 11.9 2 3.3 5.2 8.7 8.5 10.4s5.4 4.2 5.4 6.5c0 1.1-.4 1.6-1.5 1.6h-6.7c-1.1 0-1.6-.7-1.7-1.1-.9-1.7-.3-3.3-1.6-4.9-.9-1.1-1.6-.8-2.8-1.7-2-2-.5-3-2-5.6-4.2-6.7-6.1-8.3-9.6-13.2-2-2.5-4.5-3.8-4.5-7.1 0-4.1 4.1-4.8 4-8.9-2.6 2-5.7 3.4-10.4 4.1-.7.1-2.2 1.3-2.9 2.1-1.6 1.6-2.2 3.3-2.5 5.7-.5 5.6-1.6 11.1-.9 16.7.9 3.6 1.6 4.8 4.5 6.7 1.9 1.2 4 2.9 4.2 5.6 0 .7-.3 1.6-1.2 1.6h-7.3c-.7 0-1.3-.5-1.6-.9-.8-1.5-.3-2.4-.7-4.1-.7-3.3-4.5-3.2-4.5-6.6 0-1.1.7-2.4.7-4.5.3-4.6 1.6-12.3.3-21.4-.7-5.3 4.9-5.6 7.8-10.2 1.7-2.6 1.2-1.6 2.2-3.4 1.1-2 .8-3.4.7-4.6 0-1.6-1.6-4.8-.5-11.4.4-2.9 1.9-5.9 3.8-8.5 0-.1 0-.5-.7-.5-2.9.3-2.9-.5-4.8-.5s-3.3 1.6-3.6 2.4c-.9-.4-1.3-1.5-1.3-2 0-1.1.3-2 1.2-2.9.4-.4 0-.7-.5-.7-2.2 0-4.4 2.8-4.9 4.6-1.3-.3-1.5-2-2-2-.7 0-1.1.9-1.1 1.9 0 6.5 10.6 7.9 10.6 16.5 0 9.9-11.9 7.8-11.9 11.4 0 .7.5 1.3 1.5 1.7-.4.9-1.5 1.3-2.5 1.3-2.6 0-4.6-2-4.6-4.6 0-5.4 7.3-5.6 7.3-9.6 0-2-1.2-2.5-2.4-3.4-6.9-4.9-10.8-9.8-10.8-17.8 0-8.7 6.1-15.3 13.9-15.3 11.4 0 11.8 13.2 22.1 14.3 3.8-2.6 8.5-4.2 13-4.2 6.7 0 9.6 1.7 16.8 1.7 2.9 0 7.7-.8 13.3-4.8 2.1-1.5 3-1.7 5-3.4 4.5-3.8 8.7-11.4 8.7-16.8v.3c0-1.7-.4-2.8-1.2-2.8-2.4 0-4.6 2.2-7 4.6-1.6 1.6.8 2.4-2.6 4.2-1.2.7-2.6-.5-4-.5-2.8 0-4-3.3-4-6.1 0-1.5 1.1-1.9 1.7-3.2 1.5-2.8 1.3-3.8 2.6-6.5.8-1.9 2.2-3 2.1-4.4 0-.5-.4-.8-.4-1.3 0-2.8 3.7-4.6 3.7-7.4 0-1.6-1.7-2.2-2.1-3.4s-.1-1.6-.1-1.6c.1-.3.3-.3.5-.3 1.5 0 2 1.6 3.3 2.4.1-1.8-.5-2.2-.5-3.6 0-.7-.1-1.9.7-1.9.9 0 .8 1.2 1.6 1.9 1.1.8 2 .7 3 1.5 1.5.9 2.2 2.5 2.8 2.5 1.5.3 1.8-1.6 1.1-2.5 1.6-.1 3.3 1.2 5.4 1.2 3.3 0 4.5.9 5.2 1.5 2.1 1.9 2.5 3.3 4.9 3.3 1.2 0 1.9-1.1 2.1-1.5 1.6 1.2 1.7 4.2 0 6.9.7 2.1 3.7 2.4 5.2 3.4 1.5 1.1 1.2 1.6 2.2 2.1.8.5 1.6.4 2.1 0 .7 2.9-1.7 5.4-4.8 5.8.1 3.7 4 5.9 5.7 6.9-1.1 2.2-2.9 2.9-4.5 3.3.5 2.2 2.9 5.6 1.7 8.5-1.1-.5-2.8 0-2.8 1.6 0 1.9 2.4 2.8-.1 4.1-1.1.7-1.3 2.2.7 3.8 2.6-.7 5.2-.7 8.2-.7 1.9 0 4.2-.5 5.9-.5 3 0 4.9 1.2 7.1 3.7 5.5 5.8 10.7 12.3 16.5 16.6"/><path fill="#6d6e70" d="M181.7 211.6c1.2 0 3.4-6.7 8.1-6.7 1.3 0 1.6.5 1.6 1.1 0 .9-1.6 1.7-1.6 2.9 0 .3.1.5.5.5 1.1 0 2-2.5 6.5-2.5 1.2 0 2.2.1 3.3.4.5.1 1.6.7 1.1-.8-1.1-3.2-4.6-6.1-9.5-6.1s-10 4.4-10.6 9.6c.1.9.1 1.6.6 1.6m84.6-42c-1.3-.5-1.6-1.2-1.1-2.9.3-1.7.4-2.5-.4-2.6-.7-.3-1.6.3-2.5 1.2-.8 1.1-2.1 2.5-2.5 3.6-.4 1.5 1.3 1.2.1 3.6-2.1 3.8-2.6 4.8-3.7 7.4-.9 2.9-1.6 3.3-2.1 4.2-.7.8.8.9 2.4.4 1.7-.7 1.8 1.5 1.2 2.9-.5 1.1-.1 1.5 1.3.3 1.3-1.1-.7-1.9-.3-5.2.5-2.9 1.1-4.6 2.9-7.5 1.6-2.5 2.9-4.4 5.5-3.4 1.2.3.6-1.4-.8-2m56.7 86.5c.5 0 .7-.7.7-1.3 0-1.5-.8-3.6-2-4.5-.3 2.1-1.3 3.6-1.3 4.5-.1.7 1.9 1.3 2.6 1.3m12.7-20.5c.8 0 2-.3 2-.9 0-1.2-1.9-3.3-3.4-3.8 1 2.1-.1 4.7 1.4 4.7m-56.1-27.8c11.5 5.3 10.8 14.9 11.8 12.6.4-1.1 2-5.8-2.1-10.4-3.2-3.7-4.4-2.8-3.2-5.8 5-12.2 8.2-30.5-6.9-36.9-1.7-.7-3.2-.7-3.2-.4s1.6.8 3.6 2.1c10 6.6 6.9 24.7-2.2 33.4-2.9 3-1.5 3.6 2.2 5.4m-39.4 84.5c.8 0 .4-1.2.1-1.7-.7-1.2-2-2-3.2-2.5.3 1.2.4 4.2 1.6 4.2zm-34.7 0c.8 0 .3-1.2-.1-1.7-.7-1.2-2.1-2-3.3-2.5.3 1.2.5 4.2 1.7 4.2zm42.1-69.1c6.3-.7 7.4-2.1 8.5-6.9.5-2.2 2.1-4.6 3.6-6.1.9-1.1 1.9-1.9 2.8-3.3.3-.7.5-1.1 0-.9-.7.5-2.9 2-3.8 2.6-4.5 3.2-11.4 4.6-14 4.6-5.8 0-10.8-1.7-16.1-1.7-15.9 0-21.8 12.4-21 19.7.1 1.2.3 1.2.7 1.2 1.1 0 2.1-4.2 6.1-8.1 5.8-5.6 12.2-8.7 21.1-8.7 6.5 0 9.3 2.1 9.3 2.9 0 1.6-2.8 1.7-2.5 3.3-.3.8 1.1 1.9 5.3 1.4"/></svg>