<?xml version="1.0" encoding="utf-8"?>
<!-- Generator: Adobe Illustrator 22.1.0, SVG Export Plug-In . SVG Version: 6.00 Build 0)  -->
<svg version="1.1" id="Layer_1" xmlns="http://www.w3.org/2000/svg" xmlns:xlink="http://www.w3.org/1999/xlink" x="0px" y="0px"
	 viewBox="0 0 512 512" style="enable-background:new 0 0 512 512;" xml:space="preserve">
<style type="text/css">
	.st0{fill:#E11C1D;}
	.st1{fill:#1774B1;}
	.st2{fill:#2A9F3A;}
	.st3{fill:#F18F25;}
	.st4{fill:#FCFCFB;}
</style>
<rect class="st0" width="136.6" height="512"/>
<rect x="293.4" class="st0" width="90.6" height="512"/>
<rect x="384" class="st1" width="20.1" height="512"/>
<rect x="404.1" class="st2" width="107.9" height="512"/>
<rect x="136.6" width="27.3" height="512"/>
<rect x="164" class="st3" width="129.4" height="512"/>
<g>
	<path class="st4" d="M139.5,164.3c0.7,2.3,0.3,5.8,2.7,6.5c2.1,0.6,3.4-2.6,4.9-4.2c4.4-4.6,9.2-8.7,14.6-12
		c0.7-0.4,1.5-0.7,1.8-1.6c16.8-9.6,35-12.7,54.1-12c14,0.6,27.5,3.3,39.9,10c7.7,4.1,14.2,9.7,19.4,16.7c1.5,2,2.3,1.6,3.7,0.1
		c11.4-12.8,25.9-19.8,42.3-23.9c11.7-2.9,23.5-3.1,35.3-2.1c8.5,0.7,17,2.5,25,5.8c0.9,0.4,1.8,0.8,2.8,0.6
		c8,4.1,15.6,8.7,21.8,15.5c10.3,11.4,15.4,25,16.6,40c2.9,35.7,0.6,71.5,1.3,107.3c0,1.9,0,3.8,0,5.7c0.1,10.1,5.6,14.2,15.2,11.1
		c3.5-1.1,7.1-2.3,10.1-4.4c2.3-1.5,3.1-0.7,2.9,1.6c-0.6,10.9-1.3,21.7-2,32.6c-0.1,2-1.6,2.8-3.1,3.6c-11.4,6.4-23.6,9.6-36.6,10
		c-9.1,0.3-17.9-1-26.4-4c-14.4-6.8-22.2-18-22.9-33.9c-1.6-34.2-0.4-68.5-0.8-102.8c-0.1-8.2-0.2-16.6-3.8-24.1
		c-5-10.6-14-15.9-25.7-16.5c-7.2-0.4-14.3,0-21,3.4c-10.3,5.1-16,13.6-18.3,24.6c-1.9,8.7-2.3,17.6-2.3,26.4
		c0,39.9,0,79.8,0.1,119.7c0,3.6-0.9,4.7-4.6,4.7c-14.7-0.2-29.5-0.1-44.2-0.1c-4,0-7.9,1.1-12.1,0.2c-2.3-0.5-3-1.2-2.9-3.4
		c0.1-7.3,0-14.6,0-21.9c0-38.1,0-76.2,0-114.3c0-6.9-0.4-13.9-2.7-20.5c-3.8-11.1-12.5-16.8-23.6-18.4c-11.1-1.6-21.7-0.1-30.7,7.6
		c-3.4,2.9-6.1,6.4-8,10.4c-3.7,6-4.7,12.6-5.1,19.5c-1.4,22.2-0.5,44.5-0.6,66.8c-0.2,23.2-0.1,46.5,0,69.7c0,3.3-0.9,4.4-4.2,4.2
		c-3.9-0.2-7.9,0-11.8,0.1c-14.4,0-28.8-0.1-43.1,0.1c-3.2,0-4-0.9-4-4c0.1-56.2,0.1-112.4,0.1-168.6c0-5,0-5-4.8-5
		c-5.9,0.1-11.7,0.1-17.6,0.3c-3.1,0.1-4.5-0.7-4.5-4.2c0.2-12.6,0.1-25.2,0-37.7c0-3.2,1.1-4.1,4.2-4c18.9,0.1,37.9,0.2,56.8,0
		c3.5,0,4.9,1.3,5.9,4.3C135.4,154.4,137.5,159.3,139.5,164.3z"/>
</g>
</svg>
