<svg xmlns="http://www.w3.org/2000/svg" viewBox="0 0 512 512"><path fill="#009da6" d="M0 0h513.5v512H0z"/><path d="M60.8 123.3H122c.5 0 .9.1 1.6.1v9.2c.9-.3 1.6-.6 2.2-.8 11.8-5.3 24.2-8.7 37.1-9.8 35.1-2.9 65.8 7.3 91.5 31.6.5.4.9.8 1.5 1.3.4-.4.8-.7 1.2-1 17.9-17.3 39.1-27.7 63.7-31.2s48.2-.1 70.4 11.3c30.6 15.7 49.2 40.8 57.2 74.1 2 8.2 2.8 16.7 2.8 25.1 0 51.6.1 103.2.1 154.8 0 .8-.1 1.6-.1 2.5h-62.3c0-1-.1-2.1-.1-3.1v-82.6c0-25.1.1-50.2-.2-75.3-.2-19.4-9.1-34.2-25.5-44.1-17.3-10.5-39.9-8.5-56.2 4.5-12.8 10.2-19.1 23.8-19.3 40.1-.2 11.1 0 22.3 0 33.4v127.1h-62.5V231.3c0-7.8-1.3-15.4-4.6-22.5-8.1-17.3-21.6-27.4-40.5-29.7-22.3-2.7-44.4 11.1-52.5 32.1-2.1 5.5-3.2 11.2-3.5 17.1-.1 3.2-.1 6.5-.1 9.7v152.4c-.9.1-1.5.2-2.1.2H63c-.6 0-1.3-.1-1.9-.2-.3-89-.3-178.1-.3-267.1z" fill="#fff"/></svg>