<?xml version="1.0" encoding="utf-8"?>
<!-- Generator: Adobe Illustrator 22.1.0, SVG Export Plug-In . SVG Version: 6.00 Build 0)  -->
<svg version="1.1" id="Layer_1" xmlns="http://www.w3.org/2000/svg" xmlns:xlink="http://www.w3.org/1999/xlink" x="0px" y="0px"
	 viewBox="0 0 512 512" style="enable-background:new 0 0 512 512;" xml:space="preserve">
<style type="text/css">
	.st0{fill:#078DCD;}
	.st1{fill:#173E85;}
</style>
<path class="st0" d="M427,257.6c0.1,16.9-2.5,33.5-7.4,49.7c-1,3.5-2.1,5.1-5.8,2.4c-4.4-3.2-9.1-6-13.7-8.8
	c-2.1-1.3-2.9-2.5-2.2-5.2c7.6-29.2,7.4-58.3-3.3-86.7c-19.8-52.1-57.2-84.6-112.3-94.2c-62.9-11-122.3,19.1-152.6,75.3
	c-33.9,62.8-14.2,144.3,44.5,185.4c27.3,19.1,57.4,28.4,90.5,26.6c46.4-2.5,83.6-22.9,111.2-60.5c3.1-4.3,6.1-8.6,8.6-13.3
	c1.3-2.5,2.5-3.1,5-1.4c4.5,3.1,9.1,6.1,13.8,8.8c2.7,1.6,3.2,2.7,1.5,5.7c-19.1,33.1-46.3,57.5-81.5,71.9
	c-46.1,18.9-92.7,18.3-137.7-3.4c-50.9-24.6-83.1-65.3-93.2-121C81,225.9,100.2,172.3,148,129.6c25.8-23.1,56.5-36.1,90.9-39.9
	c38.7-4.2,75,3.5,108.2,24.2c37.8,23.7,62.5,57.3,74.4,100.3C425.4,228.4,427,242.9,427,257.6z"/>
<path class="st1" d="M166,229.1c-0.6-7.1-1.2-14.3-4.2-20.9c-0.2-0.4-0.2-0.9-0.4-1.3c-2.9-6.5-2.9-6.5,4.7-6.5
	c10.4,0,20.9,0.1,31.3-0.1c3.2-0.1,4.4,0.8,4.2,4.1c-0.2,2.3-0.7,4.8,0.6,7.9c9.2-12.1,21.7-15.4,35.7-15.1
	c14.7,0.3,25,7.7,32.6,20.3c7.2-9.2,15.9-15.7,27-18.3c12.3-2.9,24.7-3.4,36.6,1.8c15.1,6.6,22.2,19.2,25,34.8c0.9,4.9,1,9.9,1,14.9
	c0,22.4-0.1,44.9,0.1,67.3c0,3.3-0.6,4.6-4.3,4.5c-9.2-0.3-18.4-0.3-27.6,0c-3.5,0.1-4-1.2-4-4.3c0.1-21,0.1-42.1,0.1-63.1
	c0-1.4,0-2.8,0-4.2c-0.2-19.2-16.4-28.1-33.1-18.3c-6.1,3.6-8.5,9.3-9.7,15.8c-0.6,3.5-0.8,7.1-0.8,10.7c-0.1,19.6-0.1,39.3,0,58.9
	c0,3.2-0.5,4.7-4.2,4.6c-9.5-0.3-19-0.2-28.5,0c-2.7,0-3.2-0.5-3.2-3.5c0.3-22,0.4-44,0-65.9c-0.1-6.6,0.5-14.2-6-19
	c-5.1-3.8-10.8-5.3-17.2-4.1c-3.6,0.7-7.2,1.2-10.5,3.4c-7.6,5.1-9,12.8-9.6,21c-0.1,3-0.4,3.3-0.4,5c0,19.4-0.1,38.8,0.1,58.2
	c0,3.7-1,4.8-4.7,4.7c-9.8-0.2-19.6,0-29.3,0.1c-0.4-0.3-0.8-0.7-1.2-1c0.1-1.8,0.3-3.7,0.3-5.5c0-26.2,0-52.5,0-78.7
	C166.3,234.3,166.1,231.7,166,229.1z"/>
</svg>
