<svg xmlns="http://www.w3.org/2000/svg" viewBox="0 0 256 256"><path fill="#183181" d="M0 0h256v256H0z"/><path fill="#fff" d="M55.214 95.465c-1.932 4.906-3.995 9.829-6.12 14.786l-2.876 6.572-2.91-6.572a467 467 0 0 1-6.269-14.787H20.944v1.286c1.785 0 3.25 1.485 3.25 3.315a418 418 0 0 1-.891 10.186l-1.069 10.345a438 438 0 0 1-1.767 14.787h5.143c.318-4.901.716-9.835 1.216-14.787l1.586-15.597a498 498 0 0 1 6.593 14.294l.585 1.303c2.2 4.952 4.29 9.886 6.274 14.787h1.558a538 538 0 0 1 6.137-14.787l.927-2.124a516 516 0 0 1 6.462-14.288l1.676 16.412c.5 4.952.915 9.886 1.217 14.787h11.832a395 395 0 0 1-1.767-14.787l-1.057-10.345c-.495-4.957-.921-9.88-1.21-14.787zm53.076 35.952a161 161 0 0 1 4.16-7.399l14.373-23.846v-1.008H95.196v7.336h1.25c0-1.767 1.364-3.212 3.069-3.32q1.485-.05 2.944-.05h10.207a147 147 0 0 1-4.08 7.234L94.139 134.38v1.003h34.111v-4.26a91 91 0 0 1-7.252.294zm58.47 3.967c.102-.005.205-.017.301-.022a97 97 0 0 1-.301-7.371v-8.974h14.123v8.974c0 2.47-.085 4.946-.272 7.393h10.877a91 91 0 0 1-.29-7.393v-21.426c0-2.488.091-4.946.29-7.405h-13.867v1.144h.313c1.545 0 2.79 1.218 2.898 2.76q.051 1.742.051 3.501v8.481H166.76v-8.481c0-2.488.091-4.946.29-7.405h-13.862v1.144h.301c1.541 0 2.791 1.207 2.899 2.742.04 1.173.062 2.34.062 3.519v25.08a35 35 0 0 1-4.376.267c-1.597 0-3.171-.125-4.705-.374-4.354-.828-5.047-4.901-5.047-7.439v-17.744c0-2.408.108-4.805.29-7.195H128.75v1.144h.295c1.546 0 2.785 1.207 2.893 2.737.04 1.178.063 2.345.063 3.524v15.817c0 3.558 1.131 11.422 10.815 12.849a68 68 0 0 0 9.258.652c4.933 0 9.833-.176 14.686-.499m71.29-18.11c0 12.339-10.702 18.605-21.244 18.605s-21.222-6.266-21.222-18.605c0-12.345 10.679-18.611 21.222-18.611 10.542 0 21.244 6.266 21.244 18.611m-10.355 0c-.011-6.725-2.831-14.64-10.889-14.64-8.048 0-10.878 7.915-10.878 14.64 0 6.719 2.83 14.633 10.878 14.633 8.058 0 10.878-7.914 10.889-14.633M89.219 106.563c0-2.487.09-4.946.301-7.405H75.29v1.287h.294c1.842 0 3.28 1.484 3.28 3.33q.041 1.378.04 2.788v21.426c0 2.471-.097 4.947-.262 7.394H89.52a87 87 0 0 1-.301-7.394z"/><path fill="#ED1A3A" d="M40.256 155.278c28.655-6.402 58.435-9.784 89.012-9.784 43.165 0 84.817 6.452 124.055 18.452.148.045.233.181.205.345-.034.153-.199.272-.352.238-40.324-6.634-81.625-10.418-123.698-11.149a860 860 0 0 0-89.03 3.059.6.6 0 0 1-.636-.447.596.596 0 0 1 .444-.714"/></svg>