<?xml version="1.0" encoding="utf-8"?>
<!-- Generator: Adobe Illustrator 22.1.0, SVG Export Plug-In . SVG Version: 6.00 Build 0)  -->
<svg version="1.1" id="Layer_1" xmlns="http://www.w3.org/2000/svg" xmlns:xlink="http://www.w3.org/1999/xlink" x="0px" y="0px"
	 viewBox="0 0 512 512" style="enable-background:new 0 0 512 512;" xml:space="preserve">
<style type="text/css">
	.st0{fill:#FFFFFF;}
	.st1{fill:#C00A26;}
	.st2{fill:#1D1D1B;}
</style>
<g>
	<polygon class="st0" points="120,87.9 397.7,87.9 397.7,435 120,435 120,87.9 	"/>
	<path class="st1" d="M337,291.6c3.6,0,6.7-0.7,9.7-2.6c4.9-3.1,7-9.5,7-18.4c0-12.5-4.2-20.6-12.5-20.6c-5.9,0-7.4,1.8-7.4,5.8
		v33.7C333.8,291.3,334.5,291.6,337,291.6L337,291.6z M341,296.2c-6.5,0-7,0.3-7.1,1.6v38.5c0,6.7,1.8,10.7,8.2,10.7
		c5.7,0,10-3,12.5-9.1c2-4.3,2.9-10,2.9-17.3c0-6.3-1.2-11.5-3.2-15.6C351.5,299.5,346.9,296.2,341,296.2L341,296.2z M120,87.9
		v277.7h118c6.8,0,8.6-1.8,8.6-12.2V244.3c0-8.3-0.8-10.1-3.6-11c-4.5-1.4-7-0.9-7-3.9c0-1.4,1.1-2.5,3-2.5c2.6,0,8.3,0.9,14.5,0.9
		c4.9,0,9.4-0.9,13.2-0.9c2.3,0,3,0.9,3,2.8c0,3.2-1.5,2.1-6.6,3.7c-2.8,0.9-4.1,3.2-4.1,7.4v43.2c0,6.7,0.2,7.4,0.6,7.4
		c0.4,0,1.7-2.1,3.6-5.1c3.6-5.5,17-25,24.1-37.7c2.8-5.1,4.7-9,4.7-10.6c0-3-1.5-4.4-5.3-5.3c-3.2-0.7-4.7-1.1-4.7-3.2
		c0-1.4,1.1-2.5,3.6-2.5c3.2,0,8.9,0.9,13.4,0.9c5.3,0,10.2-0.9,12.4-0.9c3,0,4,0.9,4,2.5c0,2.8-1.7,2.1-5.5,3
		c-3.4,0.9-8.1,5.5-14.7,14.5c-6.4,8.7-12.6,17.7-18.1,27.3c-2.6,4.6-2.8,5.5-2.8,6.4c0,0.9,0.4,1.8,2.4,6.7
		c3,6.9,9.2,21.6,23.2,55.6c2.1,5.2,3.8,9.2,5.2,12.3c4.2,9.5,8.2,10.5,11.9,10.5h80.6V87.9H120L120,87.9z M222.1,351.7
		c-2.2,0-5-0.7-11-0.7c-5,0-9.1,0.7-11.3,0.7c-1.9,0-3.1-0.7-3.1-2.1v-0.2c0-1.8,1.4-2.3,4.7-3c3.6-0.5,3.9-2.3,3.9-9.9
		c0-17.3-1.2-51-1.7-68.1c-0.1-2.5-0.3-3.3-0.6-3.3c-0.5,0-0.6,0.8-1,2.1c-1.3,4.4-4.2,18.4-14.4,62c-4.2,18.1-3.7,21.7-6.3,21.7
		c-1.3,0-1.8-1.3-3.2-9.2c-3.6-19.4-14-64.7-16.2-74.7c-0.3-1.3-0.5-2-1.2-2c-0.6,0-0.6,1.3-0.9,3.6c-0.9,14-1.3,40.3-1.3,54.5
		c0,11-0.6,22.2,3.2,23.2c2.3,0.7,6,0.7,6,3c0,1.3-0.6,2.3-2.4,2.3c-2.3,0-3.9-0.7-9-0.7c-4.6,0-6.7,0.7-8.2,0.7
		c-1.2,0-2.1-0.2-2.1-2.3c0-2.3,2.1-2.1,4.2-2.8c3.1-1.2,3.6-4.9,4-12.8c0.6-16.3,1.9-56,1.9-69.6c0-9.1,0-10.9-3.9-11.7
		c-2.3-0.5-4.5-0.8-4.5-2.6c0-2.3,1.8-2.5,3.2-2.5c2.8,0,6.3,0.5,9.1,0.5c2.1,0,5.3-0.5,7.1-0.5c1.5,0,1.9,0.2,2.6,2.6
		c4.5,20.1,8.9,40.3,13.4,60.4c1,4.9,1.4,8.2,2.4,8.2c0.9,0,1.3-1.5,2.3-6.3c4.5-20.1,9-40.2,13.6-60.1c0.6-3.6,1.4-4.9,2.7-4.9
		c1.8,0,5,0.5,7.3,0.5c2.6,0,6.4-0.5,8.9-0.5c1.2,0,2.3,0.7,2.3,2.3c0,1.8-1.5,2.5-5.3,3c-1.7,0.2-2.6,2.5-2.6,9.2
		c0,15,1.8,57.1,2.2,76.9c0.1,4.9,1.2,7.2,3,7.7c3.6,1.2,5,1.3,5,3.1C225,351.3,223.9,351.7,222.1,351.7L222.1,351.7z M364.3,343.8
		c-4.1,4.9-10,7.9-17.9,7.9c-5.4,0-10.7-0.7-15.9-0.7c-4.9,0-10.4,0.7-12.8,0.7c-2,0-3-0.7-3-2.5c0-1.8,2.4-2.1,3.9-2.8
		c2.5-0.8,3.2-2.3,3.2-6.1v-80c0-5.1-1.6-6.9-5.5-7.1c-1.1,0-1.8,0-2.2-0.5c-0.4-0.2-0.5-0.5-0.5-1.2c0-1.6,2.4-2.6,5.4-3.5
		c6.2-2,12.6-2.8,19.1-2.8c10,0,16.3,2.1,20.9,5.8c5.7,4.4,7.8,11.4,7.8,18.8c0,12.2-7.1,19.4-15.9,22.7v0.5c2,0.5,4.1,1.2,5.9,2
		c8,3.8,14.1,12,14.1,26.5C370.7,330.4,368.6,338.2,364.3,343.8L364.3,343.8z M288.1,345.6c-6.2-14.7-12.2-29.4-18.5-44.3
		c-1.7-4.1-3.2-7.4-4.1-7.4c-1.5,0-6.4,6.7-6.4,10.3v49.2c0,10.8,3,12.1,7.4,12.1h21.5c4.5,0,6.2-4.8,3.9-10.9
		C291,352.6,289.8,349.8,288.1,345.6L288.1,345.6z"/>
	<polygon class="st2" points="120,372.5 397.7,372.5 397.7,435 120,435 120,372.5 	"/>
	<path class="st0" d="M154.8,388.6c1.8-0.4,5.1-0.7,8.3-0.7c4.2,0,6.8,0.6,8.9,2c1.9,1.2,3.2,3.2,3.2,5.9c0,2.9-1.8,5.5-5.2,6.7v0.1
		c3.3,0.8,6.3,3.4,6.3,7.7c0,2.8-1.2,5-3,6.4c-2.2,1.9-5.9,2.9-11.6,2.9c-3.1,0-5.5-0.2-7-0.4V388.6L154.8,388.6z M160.4,401h2.9
		c4,0,6.2-1.9,6.2-4.5c0-3-2.2-4.3-5.8-4.3c-1.7,0-2.6,0.1-3.2,0.2V401L160.4,401z M160.4,415.3c0.7,0.1,1.7,0.1,3,0.1
		c3.7,0,6.9-1.3,6.9-5.2c0-3.6-3.2-5.1-7.1-5.1h-2.8V415.3L160.4,415.3z"/>
	<path class="st0" d="M220.7,410.5l-2.7,8.8h-5.9l10-31.2h7.3l10.1,31.2h-6.1l-2.8-8.8H220.7L220.7,410.5z M229.6,406.2l-2.5-7.7
		c-0.6-1.9-1.1-4-1.6-5.8h-0.1c-0.5,1.8-0.9,4-1.5,5.8l-2.4,7.7H229.6L229.6,406.2z"/>
	<path class="st0" d="M277.2,419.4v-31.2h6.5l8.1,13.4c2,3.5,3.9,7.1,5.3,10.5l0.1,0c-0.4-4.1-0.5-8.1-0.5-12.9v-10.9h5.3v31.2h-5.9
		l-8.1-13.7c-2-3.4-4-7.2-5.6-10.7l-0.2,0c0.2,4,0.3,8.1,0.3,13.3v11.2H277.2L277.2,419.4z"/>
	<path class="st0" d="M342.6,388.2h5.6v14.3h0.1c0.7-1.2,1.5-2.3,2.3-3.4l8.2-11h7l-10.7,13.3l11.4,17.9h-6.7l-8.8-14.3l-2.8,3.3v11
		h-5.6V388.2L342.6,388.2z"/>
</g>
</svg>
