<svg xmlns="http://www.w3.org/2000/svg" viewBox="0 0 512 512"><path fill="#2baacc" d="M118.1 219.8c1.4-36.9 13.3-69.9 36.8-98.5 26.1-31.8 59.4-51.7 100.1-58 54.6-8.5 102.2 6.9 141.8 45.3 26.3 25.5 41.8 57 46.7 93.5 11 82-39.4 158.2-119.2 180.2-12.5 3.4-25.2 5.2-38.1 5.7-.2-.1-.4-.1-.6-.2.3-.2.5-.4.8-.5 9.7-2.6 16.3-10.4 16.5-19.6.3-10.2-5.6-18.5-15.3-21.6-.6-.2-1.2-.3-1.5-1 5.6-.4 11.2-.6 16.7-2 6.1-.7 12-2.4 17.7-4.4 58.2-20.5 91.3-79 78.9-139.5-10.8-52.7-58.8-93.4-112.5-95.3-21.5-.8-42.1 3.3-61.1 13.6-34.4 18.6-55.7 47.1-63.1 85.7-1.3 5.5-1.6 11.1-1.9 16.6-.9-.3-.8-1.1-1.1-1.8-4-11.9-16.5-18-28.1-13.6-7.4 2.8-11.5 8.5-13.5 15.9.1-.1.1-.3 0-.5"/><path fill="#d20e48" d="M285.7 387.7c.2.1.4.1.6.2-21 33-50.8 52.7-89.7 57.2-62.3 7.3-118.7-32.4-133.4-93.1-12.3-50.8 10.1-104.6 55-132.3.1.2.1.4.2.6-.3 10 0 19.8 1.7 29.7 1.1 6.6 2.9 13.1 4.1 19.7-1.1 1.2-2.1 2.4-3.2 3.6-26.7 32.1-23.6 80.2 7 108.4 31.1 28.7 76.6 28.8 108.5.2.8.2 1.7.3 2.5.5 15.2 4.1 30.8 6.2 46.7 5.3"/><path fill="#55538f" d="M124.1 269.8c-1.3-6.6-3-13.1-4.1-19.7-1.6-9.9-2-19.8-1.7-29.7 2-7.4 6.2-13.1 13.5-15.9 11.6-4.4 24.2 1.7 28.1 13.6.2.7.1 1.5 1.1 1.8-.5 5 .2 10 .5 15 .2 4 .5 8.1 1.9 12 0 .5-.1 1.1 0 1.6 9.8 42.4 34.8 72 75 88.6 6.7 2.8 13.6 4.9 20.9 5.8.8.2 1.6.6 2.4.7 8.1 1.3 16.3 1.8 24.5 1.6.2.7.8.8 1.5 1 9.7 3.2 15.6 11.5 15.3 21.6-.3 9.2-6.9 17-16.5 19.6-.3.1-.5.3-.8.5-15.9.8-31.5-1.2-46.8-5.3-.8-.2-1.7-.3-2.5-.5-.9-.9-2.1-.9-3.2-1.3-45.4-14.9-78.7-43.9-99.7-86.9-3.8-7.8-6.4-16.1-9.4-24.1"/><path fill="#f8ba30" d="M163.3 246.7c-1.4-3.9-1.6-8-1.9-12-.3-5-.9-10-.5-15 .3-5.6.6-11.2 1.9-16.6 18.3-2.7 36.4-2 54 3.7 46.3 15.1 74.7 46.8 85.2 94.3 3.1 13.8 2.8 27.9.8 41.9-5.5 1.4-11.1 1.6-16.7 2-8.2.1-16.4-.3-24.5-1.6-.8-.1-1.6-.5-2.4-.7 13.5-58.2-37.3-109-95.9-96"/></svg>