<?xml version="1.0" encoding="utf-8"?>
<!-- Generator: Adobe Illustrator 22.1.0, SVG Export Plug-In . SVG Version: 6.00 Build 0)  -->
<svg version="1.1" id="Layer_1" xmlns="http://www.w3.org/2000/svg" xmlns:xlink="http://www.w3.org/1999/xlink" x="0px" y="0px"
	 viewBox="0 0 512 512" style="enable-background:new 0 0 512 512;" xml:space="preserve">
<style type="text/css">
	.st0{fill:#2BAACC;}
	.st1{fill:#D20E48;}
	.st2{fill:#55538F;}
	.st3{fill:#F8BA30;}
</style>
<path class="st0" d="M118.1,219.8c1.4-36.9,13.3-69.9,36.8-98.5c26.1-31.8,59.4-51.7,100.1-58c54.6-8.5,102.2,6.9,141.8,45.3
	c26.3,25.5,41.8,57,46.7,93.5c11,82-39.4,158.2-119.2,180.2c-12.5,3.4-25.2,5.2-38.1,5.7c-0.2-0.1-0.4-0.1-0.6-0.2
	c0.3-0.2,0.5-0.4,0.8-0.5c9.7-2.6,16.3-10.4,16.5-19.6c0.3-10.2-5.6-18.5-15.3-21.6c-0.6-0.2-1.2-0.3-1.5-1c5.6-0.4,11.2-0.6,16.7-2
	c6.1-0.7,12-2.4,17.7-4.4c58.2-20.5,91.3-79,78.9-139.5c-10.8-52.7-58.8-93.4-112.5-95.3c-21.5-0.8-42.1,3.3-61.1,13.6
	c-34.4,18.6-55.7,47.1-63.1,85.7c-1.3,5.5-1.6,11.1-1.9,16.6c-0.9-0.3-0.8-1.1-1.1-1.8c-4-11.9-16.5-18-28.1-13.6
	c-7.4,2.8-11.5,8.5-13.5,15.9C118.2,220.2,118.2,220,118.1,219.8z"/>
<path class="st1" d="M285.7,387.7c0.2,0.1,0.4,0.1,0.6,0.2c-21,33-50.8,52.7-89.7,57.2c-62.3,7.3-118.7-32.4-133.4-93.1
	c-12.3-50.8,10.1-104.6,55-132.3c0.1,0.2,0.1,0.4,0.2,0.6c-0.3,10,0,19.8,1.7,29.7c1.1,6.6,2.9,13.1,4.1,19.7
	c-1.1,1.2-2.1,2.4-3.2,3.6c-26.7,32.1-23.6,80.2,7,108.4c31.1,28.7,76.6,28.8,108.5,0.2c0.8,0.2,1.7,0.3,2.5,0.5
	C254.2,386.5,269.8,388.6,285.7,387.7z"/>
<path class="st2" d="M124.1,269.8c-1.3-6.6-3-13.1-4.1-19.7c-1.6-9.9-2-19.8-1.7-29.7c2-7.4,6.2-13.1,13.5-15.9
	c11.6-4.4,24.2,1.7,28.1,13.6c0.2,0.7,0.1,1.5,1.1,1.8c-0.5,5,0.2,10,0.5,15c0.2,4,0.5,8.1,1.9,12c0,0.5-0.1,1.1,0,1.6
	c9.8,42.4,34.8,72,75,88.6c6.7,2.8,13.6,4.9,20.9,5.8c0.8,0.2,1.6,0.6,2.4,0.7c8.1,1.3,16.3,1.8,24.5,1.6c0.2,0.7,0.8,0.8,1.5,1
	c9.7,3.2,15.6,11.5,15.3,21.6c-0.3,9.2-6.9,17-16.5,19.6c-0.3,0.1-0.5,0.3-0.8,0.5c-15.9,0.8-31.5-1.2-46.8-5.3
	c-0.8-0.2-1.7-0.3-2.5-0.5c-0.9-0.9-2.1-0.9-3.2-1.3c-45.4-14.9-78.7-43.9-99.7-86.9C129.7,286.1,127.1,277.8,124.1,269.8z"/>
<path class="st3" d="M163.3,246.7c-1.4-3.9-1.6-8-1.9-12c-0.3-5-0.9-10-0.5-15c0.3-5.6,0.6-11.2,1.9-16.6c18.3-2.7,36.4-2,54,3.7
	c46.3,15.1,74.7,46.8,85.2,94.3c3.1,13.8,2.8,27.9,0.8,41.9c-5.5,1.4-11.1,1.6-16.7,2c-8.2,0.1-16.4-0.3-24.5-1.6
	c-0.8-0.1-1.6-0.5-2.4-0.7C272.7,284.5,221.9,233.7,163.3,246.7z"/>
</svg>
