<svg xmlns="http://www.w3.org/2000/svg" viewBox="0 0 256 256"><path fill="#17233A" d="M0 0h256v256H0z"/><path fill="#E83860" d="M205 160.9c0 2-.8 3.7-2 5l-32 32.3a2.8 2.8 0 0 1-4.9-2V124l38.5-38.5h.4V161z"/><path fill="#DFC586" d="M179.5 59.8a2.8 2.8 0 0 0-4 0L128 107.7h-.7v54l.7 1.4 38.1-38.4L205 85.5z"/><path fill="#327787" d="M51 160.9c0 2 .8 3.7 2 5l32 32.3c1.8 1.8 4.9.5 4.9-2V124L51.4 85.5H51V161z"/><path fill="#8ABB9C" d="M80.5 59.8a2.8 2.8 0 0 0-4 0L51 85.5l38.9 39.2 38.1 38.4v-55.4z"/></svg>