<svg width="256" height="256" viewBox="0 0 256 256" fill="none" xmlns="http://www.w3.org/2000/svg">
<path d="M0 0H256V256H0V0Z" fill="#17233A"/>
<path d="M204.998 160.903C204.998 162.808 204.247 164.635 202.909 165.982L170.976 198.153C169.18 199.963 166.107 198.681 166.107 196.121V124.034L204.554 85.5175H204.998V160.903Z" fill="#E83860"/>
<path d="M179.516 59.8448C178.402 58.7225 176.596 58.7225 175.482 59.8448L128 107.68H127.34V161.672L128 163.09L166.108 124.697L204.999 85.5172L179.516 59.8448Z" fill="#DFC586"/>
<path d="M51 160.903C51 162.808 51.7513 164.635 53.0884 165.982L85.0213 198.153C86.8183 199.963 89.8906 198.681 89.8906 196.121V124.034L51.4432 85.5175H51V160.903Z" fill="#327787"/>
<path d="M80.5166 59.8448C79.4027 58.7225 77.5969 58.7225 76.483 59.8448L51 85.5172L89.8906 124.697L128 163.09V107.68L80.5166 59.8448Z" fill="#8ABB9C"/>
</svg>
