<svg xmlns="http://www.w3.org/2000/svg" viewBox="0 0 512 512"><path d="M467.4 345.9c-.9 4-2.6 8.1-5.5 11.3l-89.2 89.2c-1.4 3.2-5.2 4.3-8.4 2.9s-4.3-5.2-2.9-8.4V246l105.9-105.9.1 205.8z" fill="#e34b5f"/><path d="M395 67.7c0-3.2-2.6-5.5-5.5-5.5-3.2 0-5.5 2.6-5.5 5.5L255.9 201.3v150.4l105.9-105.9 105.9-105.9L395 67.7z" fill="#e7ce9c"/><path d="M44.3 345.9c.9 4 2.6 8.1 5.5 11.3l89.2 89.2c1.4 3.2 5.2 4.3 8.4 2.9s4.3-5.2 2.9-8.4V246l-106-105.9v205.8z" fill="#1e7889"/><path d="M127.7 67.7c0-3.2-2.6-5.5-5.5-5.5-3.2 0-5.5 2.6-5.5 5.5l-72.4 72.4L150.2 246l105.6 105.6V201.3L127.7 67.7z" fill="#97baa6"/></svg>