<svg xmlns="http://www.w3.org/2000/svg" viewBox="0 0 512 512"><path d="M0 0h513.5v512H0z"/><path d="M184.7 178.1v154.7h-14.3V206.6l-50.9 98.7h-10.2l-50.9-98.7v126.2H44.3V178.1h15.3l56 106.9 55-106.9h14.1zm151.7 157.8L311 308.4c-9.2 14.3-22.4 25.5-42.8 25.5-26.5 0-46.8-18.3-46.8-41.7 0-19.3 12.2-30.5 34.6-43.8-13.2-13.2-20.4-23.4-20.4-36.6 0-18.3 15.3-33.6 34.6-33.6 20.4 0 34.6 14.3 34.6 33.6 0 17.3-14.3 29.5-28.5 38.7l31.6 34.6 19.3-30.5 11.2 7.1-21.4 33.6 28.5 30.5-9.1 10.1zm-72.3-78.4c-20.4 11.2-29.5 20.4-29.5 33.6 0 15.3 14.3 28.5 32.6 28.5 16.3 0 24.4-7.1 33.6-22.4l-36.7-39.7zm-15.2-45.8c0 9.2 6.1 16.3 18.3 29.5 15.3-9.2 23.4-17.3 23.4-29.5 0-11.2-8.1-20.4-21.4-20.4-12.2.1-20.3 9.2-20.3 20.4m217.8 0-13.2 5.1c-5.1-16.3-19.3-26.5-38.7-26.5-21.4 0-35.6 10.2-35.6 28.5 0 38.7 88.6 18.3 88.6 72.3 0 26.5-21.4 43.8-51.9 43.8-28.5 0-45.8-14.3-58-35.6l12.2-7.1c8.1 17.3 22.4 29.5 44.8 29.5 25.5 0 38.7-12.2 38.7-31.6 0-38.7-88.6-19.3-88.6-72.3 0-31.6 28.5-41.7 48.9-41.7 24.3 0 45.7 11.2 52.8 35.6" fill="#fff"/></svg>