<svg xmlns="http://www.w3.org/2000/svg" viewBox="0 0 320.24 320.24"><path fill="#246bb5" fill-rule="evenodd" d="M123.09 87.63h77.77c5.47 0 9.94 4.73 9.94 10.51v5c0 7.1-9.63 7.07-9.63 0v-2.74a3.17 3.17 0 0 0-3.17-3.1h-77.94a3.18 3.18 0 0 0-3.17 3.17v2.69c0 7.06-9.17 7-9.17.15v-5.17c0-5.78 4.47-10.51 9.93-10.51Zm35.66 117.25h50.44c11.52 0 11.63-12.24 10.46-18.28-.64-4.06-7.54-4-8.3 0v4.71a3.93 3.93 0 0 1-3.92 3.92h-96.71a3.93 3.93 0 0 1-3.92-3.92v-4.71c-.76-4-7.66-4.06-8.3 0-1.18 6-1.06 18.28 10.46 18.28z"/><path fill="#343336" fill-rule="evenodd" d="M189.93 141.46h8v-.09a7.67 7.67 0 0 0 6.49-7.56 7.67 7.67 0 0 0-7.65-7.65h-16.15v40h20.54a7.93 7.93 0 0 0 7.9-7.9 7.92 7.92 0 0 0-7.9-7.9H190a4.46 4.46 0 0 1-4.44-4.44 4.46 4.46 0 0 1 4.44-4.44Zm18.91 3.93a15.37 15.37 0 0 1 9.1 13.77c0 8.47-7.39 15.39-16.43 15.39h-25.33a4.19 4.19 0 0 1-4.31-4v-48.22a4.25 4.25 0 0 1 4.24-4.23h21.09a16.19 16.19 0 0 1 16.15 16.13 16.08 16.08 0 0 1-4.51 11.16"/><path fill="#343336" d="M126.3 219.68a1.36 1.36 0 1 1 2.72 0V227a6.09 6.09 0 0 1-6.09 6.09 6.09 6.09 0 0 1-6.09-6.09v-7.34a1.36 1.36 0 1 1 2.72 0V227a3.41 3.41 0 0 0 3.39 3.39 3.4 3.4 0 0 0 3.35-3.39Zm12.84 10.73a1.36 1.36 0 0 1 0 2.72h-3.75a5.06 5.06 0 0 1-3.61-1.5 5.12 5.12 0 0 1-1.5-3.6v-8.34a1.36 1.36 0 0 1 2.72 0V228a2.42 2.42 0 0 0 2.4 2.4h3.75Zm28.71-60.67a5.08 5.08 0 0 1-10.11 1.08l-4.16-38.33L138.82 170v.46a5 5 0 0 1-1 1.34l-.08.07a4.2 4.2 0 0 1-.88.62l-.09.05h-.61a4.9 4.9 0 0 1-1.49.28h-.37a5.2 5.2 0 0 1-1.67-.34h-.47l-.08-.05h-.05a5.4 5.4 0 0 1-.78-.54l-.17-.15-.12-.12a2 2 0 0 0-.13-.13l-.15-.17a4.2 4.2 0 0 1-.54-.78V170l-14.77-37.51-4.17 38.33a5.08 5.08 0 0 1-10.1-1.08l4.91-45.18a8.6 8.6 0 0 1 .33-1.57 7.8 7.8 0 0 1 .62-1.47 8.42 8.42 0 0 1 6.31-4.39h.28a9 9 0 0 1 1.28 0 9 9 0 0 1 1.54.21 8.34 8.34 0 0 1 5.9 5.11l12.57 31.92 12.57-31.92a8.34 8.34 0 0 1 5.91-5.11 9 9 0 0 1 1.54-.21 9 9 0 0 1 1.28 0h.28a8.42 8.42 0 0 1 6.31 4.39 8.5 8.5 0 0 1 .62 1.47 8.6 8.6 0 0 1 .33 1.57Zm-51.54 61.87a1.36 1.36 0 1 1-2.7.32l-1.16-9.78-4.15 9.62a1.36 1.36 0 0 1-2.5 0l-4.15-9.62-1.16 9.78a1.36 1.36 0 1 1-2.7-.32l1.36-11.36a2.15 2.15 0 0 1 1.18-1.68l.27-.12h.1a4 4 0 0 1 .4-.08 2.34 2.34 0 0 1 1.9.59 3 3 0 0 1 .28.32l.16.26.07.15 3.52 8.16 3.52-8.16a2.26 2.26 0 0 1 1.59-1.29 2 2 0 0 1 .4-.05h.46a2.3 2.3 0 0 1 1.69 1.08 2.3 2.3 0 0 1 .18.39 2 2 0 0 1 .07.26.6.6 0 0 1 0 .18Zm28.76.16a1.36 1.36 0 1 1-2.72 0V221h-3.86a1.36 1.36 0 0 1 0-2.72h10.45a1.36 1.36 0 0 1 0 2.72h-3.87Zm8.47 0a1.36 1.36 0 1 1-2.71 0v-12.09a1.36 1.36 0 1 1 2.71 0Zm27.87-.17a1.36 1.36 0 1 1-2.7.33l-.48-3.83h-4.7a1.36 1.36 0 0 1 0-2.72h4.37l-.13-1v-.09a5 5 0 0 0-.16-.7 4 4 0 0 0-.27-.71 3.08 3.08 0 0 0-2.75-1.83 3 3 0 0 0-.69.08 2.8 2.8 0 0 0-.6.23 3.82 3.82 0 0 0-1.9 3l-.84 7.55a1.36 1.36 0 0 1-2.7-.3l.85-7.55a6.53 6.53 0 0 1 3.35-5.15 6 6 0 0 1 1.21-.44 5.6 5.6 0 0 1 1.32-.15 5.72 5.72 0 0 1 5.16 3.34 6.6 6.6 0 0 1 .46 1.15 6.4 6.4 0 0 1 .24 1.11.5.5 0 0 1 0 .12Zm4.15.17a1.36 1.36 0 1 1-2.71 0v-11.23a1 1 0 0 1 0-.23 1.7 1.7 0 0 1 .1-.44 1.3 1.3 0 0 1 .12-.24 1.88 1.88 0 0 1 1.06-.89l.18-.05h.52a1.86 1.86 0 0 1 1.43.74l7.23 9.21v-8.89a1.36 1.36 0 1 1 2.72 0v11.18a1.92 1.92 0 0 1-.71 1.49 2 2 0 0 1-.28.19l-.16.08h-.11a1.9 1.9 0 0 1-1.46-.08.7.7 0 0 1-.17-.09 2 2 0 0 1-.27-.2l-.17-.18-.05-.05-7.23-9.22Zm21.22-1.36a1.36 1.36 0 0 1 0 2.72h-4a5.36 5.36 0 0 1-5.36-5.35v-4.09a5.36 5.36 0 0 1 5.35-5.35h4a1.36 1.36 0 0 1 0 2.72h-4a2.66 2.66 0 0 0-2.64 2.65v4.09a2.66 2.66 0 0 0 2.65 2.65h4Zm7.86-12.09a6.4 6.4 0 0 1 4.45 1.78 6 6 0 0 1 1.88 4.35V227a6 6 0 0 1-1.88 4.35 6.4 6.4 0 0 1-4.45 1.78 6.43 6.43 0 0 1-4.46-1.78 6 6 0 0 1-1.87-4.35v-2.53a6 6 0 0 1 1.88-4.35 6.38 6.38 0 0 1 4.44-1.78Zm0 2.71a3.72 3.72 0 0 0-2.57 1 3.4 3.4 0 0 0-1.05 2.4V227a3.4 3.4 0 0 0 1.05 2.4 3.73 3.73 0 0 0 2.58 1 3.72 3.72 0 0 0 2.57-1 3.3 3.3 0 0 0 1-2.4v-2.53a3.3 3.3 0 0 0-1-2.4 3.72 3.72 0 0 0-2.58-1.07Zm-59.96 4.61v-5.9a1.3 1.3 0 0 1 .11-.54 1.4 1.4 0 0 1 .32-.47 1.35 1.35 0 0 1 .89-.38h5.32a4.34 4.34 0 0 1 4.33 4.33A4.3 4.3 0 0 1 165 225a4.7 4.7 0 0 1 .77.62l.08.09a4.4 4.4 0 0 1 1.21 3 4.42 4.42 0 0 1-4.41 4.41H156a1.36 1.36 0 0 1-1.36-1.36v-6.13Zm2.72-4.6v9.37h5.25a1.7 1.7 0 0 0 1.2-.51 1.7 1.7 0 0 0 .51-1.2 1.72 1.72 0 0 0-.46-1.15l-.05-.05a1.7 1.7 0 0 0-1.2-.51h-1.81a1.36 1.36 0 0 1-1.36-1.36 1.36 1.36 0 0 1 1.36-1.36h.62a1.63 1.63 0 0 0 1-.48 1.6 1.6 0 0 0 .48-1.14 1.6 1.6 0 0 0-.48-1.15 1.63 1.63 0 0 0-1.14-.48h-3.92Z"/></svg>