<svg id="ideal_logo" xmlns="http://www.w3.org/2000/svg" viewBox="0 0 320.24 320.24"><defs><style>.cls-1{fill:#246bb5;}.cls-1,.cls-2{fill-rule:evenodd;}.cls-2,.cls-3{fill:#343336;}</style></defs><title>mb_logo_sq</title><g id="multibanco"><path class="cls-1" d="M123.09,87.63h77.77c5.47,0,9.94,4.73,9.94,10.51v5c0,7.1-9.63,7.07-9.63,0v-2.74A3.17,3.17,0,0,0,198,97.3H120.06a3.18,3.18,0,0,0-3.17,3.17v2.69c0,7.06-9.17,7-9.17.15V98.14c0-5.78,4.47-10.51,9.93-10.51Zm35.66,117.25h50.44c11.52,0,11.63-12.24,10.46-18.28-.64-4.06-7.54-4-8.3,0v4.71a3.93,3.93,0,0,1-3.92,3.92H110.72a3.93,3.93,0,0,1-3.92-3.92V186.6c-.76-4-7.66-4.06-8.3,0-1.18,6-1.06,18.28,10.46,18.28h49.79Z"/><path class="cls-2" d="M189.93,141.46h8v-.09a7.67,7.67,0,0,0,6.49-7.56h0a7.67,7.67,0,0,0-7.65-7.65H180.62v40h20.54a7.93,7.93,0,0,0,7.9-7.9h0a7.92,7.92,0,0,0-7.9-7.9H198v0h-8a4.46,4.46,0,0,1-4.44-4.44h0a4.46,4.46,0,0,1,4.44-4.44Zm18.91,3.93a15.37,15.37,0,0,1,9.1,13.77h0c0,8.47-7.39,15.39-16.43,15.39H176.18a4.19,4.19,0,0,1-4.31-4V122.33a4.25,4.25,0,0,1,4.24-4.23H197.2a16.19,16.19,0,0,1,16.15,16.13h0A16.08,16.08,0,0,1,208.84,145.39Z"/><path class="cls-3" d="M126.3,219.68a1.36,1.36,0,1,1,2.72,0V227h0a6.09,6.09,0,0,1-6.09,6.09h0a6.09,6.09,0,0,1-6.09-6.09h0v-7.34a1.36,1.36,0,1,1,2.72,0V227h0a3.41,3.41,0,0,0,3.39,3.39h0A3.4,3.4,0,0,0,126.3,227h0Z"/><path class="cls-3" d="M139.14,230.41a1.36,1.36,0,0,1,0,2.72h-3.75a5.06,5.06,0,0,1-3.61-1.5,5.12,5.12,0,0,1-1.5-3.6h0v-8.34a1.36,1.36,0,0,1,2.72,0V228h0a2.42,2.42,0,0,0,2.4,2.4h3.75Z"/><path class="cls-3" d="M167.85,169.74a5.08,5.08,0,0,1-10.11,1.08l-4.16-38.33L138.82,170v0h0l0,.1,0,.08v0l0,.08,0,.05,0,.07v0l0,.08,0,0a5,5,0,0,1-1,1.34h0l-.08.07a4.23,4.23,0,0,1-.88.62l0,0-.09.05h0l-.09,0,0,0-.06,0-.06,0-.05,0-.06,0-.06,0-.05,0-.05,0h-.07l-.06,0h0a4.9,4.9,0,0,1-1.49.28h-.37a5.18,5.18,0,0,1-1.67-.34l-.07,0h0l-.07,0-.07,0-.05,0-.06,0-.06,0,0,0-.09,0h0l-.08-.05-.05,0a5.4,5.4,0,0,1-.78-.54v0l-.17-.15h0l-.12-.12a1.59,1.59,0,0,0-.13-.13h0l-.15-.17v0a4.17,4.17,0,0,1-.54-.78l0,0,0-.08h0l0-.09,0,0,0-.06,0-.06,0-.05,0-.06,0-.07v0l0-.07-14.77-37.51-4.17,38.33a5.08,5.08,0,0,1-10.1-1.08l4.91-45.18h0v0h0a8.6,8.6,0,0,1,.33-1.57,7.79,7.79,0,0,1,.62-1.47,8.42,8.42,0,0,1,6.31-4.39h0l.28,0a9.17,9.17,0,0,1,1.28,0h0a9.09,9.09,0,0,1,1.54.21,8.34,8.34,0,0,1,5.9,5.11l12.57,31.92,12.57-31.92a8.34,8.34,0,0,1,5.91-5.11,9,9,0,0,1,1.54-.21h0a9.17,9.17,0,0,1,1.28,0l.28,0h0a8.42,8.42,0,0,1,6.31,4.39,8.51,8.51,0,0,1,.62,1.47,8.6,8.6,0,0,1,.33,1.57h0v0h0Z"/><path class="cls-3" d="M116.31,231.61a1.36,1.36,0,1,1-2.7.32l-1.16-9.78-4.15,9.62a1.36,1.36,0,0,1-2.5,0h0l-4.15-9.62-1.16,9.78a1.36,1.36,0,1,1-2.7-.32l1.36-11.36a2.15,2.15,0,0,1,1.18-1.68l.27-.12.1,0a3.53,3.53,0,0,1,.4-.08h0a2.34,2.34,0,0,1,1.9.59,2.92,2.92,0,0,1,.28.32l.16.26.07.15,3.52,8.16,3.52-8.16a2.26,2.26,0,0,1,1.59-1.29,1.83,1.83,0,0,1,.4-.05H113a2.3,2.3,0,0,1,1.69,1.08h0a2.32,2.32,0,0,1,.18.39,2,2,0,0,1,.07.26.57.57,0,0,1,0,.18h0Z"/><path class="cls-3" d="M145.07,231.77a1.36,1.36,0,1,1-2.72,0V221h-3.86a1.36,1.36,0,0,1,0-2.72h10.45a1.36,1.36,0,0,1,0,2.72h-3.87Z"/><path class="cls-3" d="M153.54,231.77a1.36,1.36,0,1,1-2.71,0V219.68a1.36,1.36,0,1,1,2.71,0Z"/><path class="cls-3" d="M181.41,231.6a1.36,1.36,0,1,1-2.7.33l-.48-3.83h-4.7a1.36,1.36,0,0,1,0-2.72h4.37l-.13-1h0s0-.06,0-.09a4.68,4.68,0,0,0-.16-.7,4.2,4.2,0,0,0-.27-.71,3.08,3.08,0,0,0-2.75-1.83h0a3.1,3.1,0,0,0-.69.08,2.75,2.75,0,0,0-.6.23,3.82,3.82,0,0,0-1.9,3l-.84,7.55a1.36,1.36,0,0,1-2.7-.3l.85-7.55a6.53,6.53,0,0,1,3.35-5.15,6.17,6.17,0,0,1,1.21-.44,5.56,5.56,0,0,1,1.32-.15h0a5.72,5.72,0,0,1,5.16,3.34,6.57,6.57,0,0,1,.46,1.15,6.42,6.42,0,0,1,.24,1.11.5.5,0,0,1,0,.12h0Z"/><path class="cls-3" d="M185.56,231.77a1.36,1.36,0,1,1-2.71,0V220.54h0a.93.93,0,0,1,0-.23,1.65,1.65,0,0,1,.1-.44h0a1.34,1.34,0,0,1,.12-.24h0a1.88,1.88,0,0,1,1.06-.89l.18-.05.15,0h.37a1.86,1.86,0,0,1,1.43.74l7.23,9.21v-8.89a1.36,1.36,0,1,1,2.72,0v11.18a1.92,1.92,0,0,1-.71,1.49,2,2,0,0,1-.28.19l-.16.08h0l-.11,0h0a1.89,1.89,0,0,1-1.46-.08.7.7,0,0,1-.17-.09,2.34,2.34,0,0,1-.27-.2l-.17-.18-.05-.05h0l0,0-7.23-9.22Z"/><path class="cls-3" d="M206.78,230.41a1.36,1.36,0,0,1,0,2.72h-4a5.36,5.36,0,0,1-5.36-5.35h0v-4.09h0a5.36,5.36,0,0,1,5.35-5.35h4a1.36,1.36,0,0,1,0,2.72h-4a2.66,2.66,0,0,0-2.64,2.65h0v4.09h0a2.66,2.66,0,0,0,2.65,2.65h4Z"/><path class="cls-3" d="M214.64,218.32h0a6.4,6.4,0,0,1,4.45,1.78,6,6,0,0,1,1.88,4.35h0V227h0a6,6,0,0,1-1.88,4.35,6.4,6.4,0,0,1-4.45,1.78h0a6.43,6.43,0,0,1-4.46-1.78,6,6,0,0,1-1.87-4.35h0v-2.53h0a6,6,0,0,1,1.88-4.35,6.38,6.38,0,0,1,4.44-1.78h0Zm0,2.71h0a3.72,3.72,0,0,0-2.57,1,3.39,3.39,0,0,0-1.05,2.4h0V227h0a3.39,3.39,0,0,0,1.05,2.4,3.73,3.73,0,0,0,2.58,1h0a3.72,3.72,0,0,0,2.57-1,3.31,3.31,0,0,0,1-2.4h0v-2.53h0a3.31,3.31,0,0,0-1-2.4A3.72,3.72,0,0,0,214.64,221Z"/><path class="cls-3" d="M154.68,225.64v-5.9h0a1.33,1.33,0,0,1,.11-.54,1.4,1.4,0,0,1,.32-.47l0,0h0a1.35,1.35,0,0,1,.89-.38h5.32a4.34,4.34,0,0,1,4.33,4.33h0A4.28,4.28,0,0,1,165,225a4.65,4.65,0,0,1,.77.62l.08.09a4.39,4.39,0,0,1,1.21,3h0a4.42,4.42,0,0,1-4.41,4.41H156a1.36,1.36,0,0,1-1.36-1.36v-6.13Zm2.72-4.6v9.37h5.25a1.69,1.69,0,0,0,1.2-.51,1.71,1.71,0,0,0,.51-1.2h0a1.72,1.72,0,0,0-.46-1.15l-.05-.05a1.71,1.71,0,0,0-1.2-.51h-1.81a1.36,1.36,0,0,1-1.36-1.36h0a1.36,1.36,0,0,1,1.36-1.36h.62a1.63,1.63,0,0,0,1-.48h0a1.59,1.59,0,0,0,.48-1.14h0a1.61,1.61,0,0,0-.48-1.15,1.63,1.63,0,0,0-1.14-.48H157.4Z"/></g></svg>