<svg id="ideal_logo" xmlns="http://www.w3.org/2000/svg" viewBox="0 0 320.24 320.24"><defs><style>.cls-1{fill:#1b4b68;}.cls-2{fill:#00c0ee;}</style></defs><title>mybank_logo_sq</title><g id="mybank"><path class="cls-1" d="M208.26,146.65c-10-.1-14.66,5.65-14.66,5.65-3,3.22-1.09,7.57,1.88,7.89,4.28.45,4.24-3.13,10.8-4.72,5.76-1.4,6,3.94,6,3.94-24.56-.61-23.39,20-15,24.37,8,4.2,15.51-1.1,15.51-1.1s.28,2.86,4.25,2.86c4.54,0,4.53-4.53,4.53-4.53l0-20.06C221.23,146.27,208.26,146.65,208.26,146.65Zm-1.93,29S199.9,177,200,172.38s11.7-4.32,12.9-3.95C212.87,168.43,213.23,173.65,206.33,175.66Z"/><path class="cls-1" d="M287.56,177.44l-10-15.07,7.36-7s3.39-3.14.6-6.26c-3.09-3.45-6.77,0-6.77,0l-9.24,8.59V140.46a4.48,4.48,0,1,0-8.95,0V181a4.48,4.48,0,0,0,8.95,0v-10.8l1.69-1.69,9.05,14.2s3,4.93,7.3,1.79C290.81,182.16,287.56,177.44,287.56,177.44Z"/><path class="cls-1" d="M255.62,161c0-14.65-12.22-16.72-20.52-12.07l0,0a4.57,4.57,0,0,0-8.88,1.5V181a4.58,4.58,0,1,0,9.15,0l-.06-20.61a16.86,16.86,0,0,1,2.89-2.58c4.27-3,8.35-2,8.35,3.18l.11,20.09a4.5,4.5,0,1,0,9,0Z"/><path class="cls-2" d="M124.16,186.12a9.29,9.29,0,0,0,1.23-3l-10.33-27s-1.87-5.22,2.26-6.77c4.37-1.64,6,2.54,6.28,3.41l6.52,17.38,6-17.34s1.71-5.39,6.48-3.47c4,1.59,1.92,6.88,1.92,6.88s-6.1,18.06-11.22,31.17c-3.05,7.83-5.67,8.6-8.65,9.33-4,1-11.54.5-11.54-4.47,0-3.91,4-4.15,5.82-4.1C119,188.18,122.73,188.5,124.16,186.12Z"/><path class="cls-2" d="M100.17,140.75l-9.44,26L80.44,140.91S78.92,136,74.63,136c-5,0-4.81,3.94-4.92,4.91s0,40.48,0,40.48a4.15,4.15,0,0,0,4.51,4.15,4.08,4.08,0,0,0,4.47-4.19s0-20.86,0-20.86l7.57,20.86s1.12,4.1,4.62,4,4.51-4,4.51-4l6.34-20.82v20.82a4.24,4.24,0,0,0,4.59,4.19,4.18,4.18,0,0,0,4.43-4.19V141s0-4.95-4.82-4.92c-4,0-5.51,3.84-5.77,4.72a1.45,1.45,0,0,0,0,.16"/><path class="cls-2" d="M289,201.48H150.87l0,.07a63,63,0,1,1,.17-81.64h12.66a73.23,73.23,0,1,0-7.15,90.47L283,210.25Z"/><path class="cls-1" d="M183,159c.24-.33,3.28-2.8,3-9.35-.48-13.28-12-13.13-14.56-13.2-4.11-.13-6.59-.08-14.13,0-6.37.06-6.33,5.85-6.33,5.85v43.25h21.48c11.49,0,15.76-6.33,15.76-15.18S183,159,183,159Zm-22.75-13.41h11.86c2.37.06,4.87,1.32,4.87,4.87s-2.18,4.87-4.87,4.87H160.29ZM173,176.7H160.29V164.57H173c3.08.16,6.07,1.72,6.07,6.06S176.36,176.7,173,176.7Z"/></g></svg>