<?xml version="1.0" encoding="utf-8"?>
<!-- Generator: Adobe Illustrator 22.1.0, SVG Export Plug-In . SVG Version: 6.00 Build 0)  -->
<svg version="1.1" id="Layer_1" xmlns="http://www.w3.org/2000/svg" xmlns:xlink="http://www.w3.org/1999/xlink" x="0px" y="0px"
	 viewBox="0 0 512 512" style="enable-background:new 0 0 512 512;" xml:space="preserve">
<style type="text/css">
	.st0{fill:#015FA9;}
	.st1{fill:#E12418;}
	.st2{fill:#FDFDFE;}
</style>
<rect x="2" y="0" class="st0" width="510" height="513"/>
<g>
	<path class="st1" d="M107.9,189.3c7.1,15.6,14.1,31.1,21.3,46.9c0.8-0.7,1-1.5,1.3-2.2c9-19.1,18-38.3,26.9-57.5
		c0.7-1.4,1.4-1.9,3-1.9c9.8,0.1,19.5,0.1,29.3,0c1.3,0,1.9,0.2,2.1,1.7c2.1,16.1,4.4,32.2,6.6,48.3c2.3,16.8,4.6,33.6,7,50.4
		c2.2,15.8,4.3,31.5,6.5,47.3c0.5,3.3,0.8,6.7,1.4,10c0.2,1.1-0.1,1.5-1.2,1.5c-13.2,0-26.4,0-39.6,0c-1.4,0-1.6-0.7-1.7-1.8
		c-1.7-12.2-3.4-24.4-5.2-36.6c-1.3-8.9-2.6-17.9-4.3-27c-10.5,21.6-21.1,43.3-31.6,64.9c-0.8-0.2-0.9-0.9-1.1-1.3
		c-9.5-20.5-19-41-28.6-61.5c-0.7-1.5-0.5-3-0.4-4.5c1.9-18.7,3.9-37.4,5.8-56.1c0.7-6.8,1.4-13.6,2.2-20.4
		C107.7,189.4,107.8,189.3,107.9,189.3z"/>
	<path class="st1" d="M60.3,333.8c-6.2,0-12.3,0-18.5,0c-1.4,0-1.7-0.4-1.6-1.8c2.1-18.9,4.2-37.9,6.2-56.8
		c2.2-19.9,4.4-39.8,6.6-59.8c1.4-13,2.9-26,4.2-39.1c0.1-1.4,0.6-1.7,1.9-1.7c12.3,0,24.7,0,37,0c1.4,0,1.6,0.4,1.5,1.7
		c-2.9,26.1-5.8,52.2-8.6,78.4c-2.5,22.5-4.9,45-7.3,67.5c-0.4,3.3-0.8,6.5-1.1,9.8c-0.1,1.4-0.6,1.9-2,1.9
		C72.5,333.7,66.4,333.8,60.3,333.8z"/>
	<path class="st2" d="M474.3,215.1c0.1,22.4-18.1,41-40.1,41.1c-21.9,0-40-18.4-40.1-40.8c-0.1-22.5,18-41.1,40-41.2
		C456,174.1,474.2,192.6,474.3,215.1z M453.5,215.2c0-10.8-8.9-20.1-19.4-20c-10.5,0-19.2,9-19.2,19.9c-0.1,10.9,8.8,20,19.3,20
		C444.6,235.1,453.5,226,453.5,215.2z"/>
	<path class="st2" d="M354.2,222.9c0,9.8,0,19.6,0,29.4c0,3.2,0,3.2-3.2,3.2c-5.3,0-10.7,0-16,0c-1.5,0-1.9-0.4-1.9-1.9
		c0-25.7,0-51.3,0-77c0-1.3,0.3-1.8,1.7-1.8c9.5,0.1,19.1-0.2,28.6,0.2c10,0.4,18.4,4.3,22.4,14.2c4,9.9,3.4,22.7-7.6,30.5
		c-1.3,0.9-0.9,1.6-0.4,2.6c4.6,10.3,9.1,20.6,13.7,30.9c1,2.3,1,2.3-1.5,2.3c-6.5,0-12.9,0-19.4,0c-1.4,0-2.1-0.4-2.6-1.7
		c-4.1-9.7-8.3-19.4-12.4-29.1c-0.3-0.6-0.6-1.2-0.8-1.9C354.5,222.9,354.4,222.9,354.2,222.9z M366.9,202.8c0-5.3-2.4-8.3-7.6-9.5
		c-1.1-0.2-2.2-0.3-3.3-0.5c-1.4-0.3-1.8,0.4-1.8,1.7c0.1,4.9,0,9.8,0,14.7c0,3.7,0,3.7,3.7,3.2
		C363.9,211.7,366.9,208.5,366.9,202.8z"/>
	<path class="st2" d="M223.3,215.2c0-12.8,0-25.5,0-38.3c0-1.5,0.3-2,1.9-2c13.2,0.1,26.4,0.1,39.6,0c1.4,0,1.9,0.3,1.9,1.8
		c-0.1,5.9-0.1,11.8,0,17.7c0,1.6-0.5,1.8-1.9,1.8c-6.1-0.1-12.2,0-18.3-0.1c-1.6,0-2.4,0.3-2.1,2c0.3,2.1-0.9,4.8,0.5,6
		c1.2,1,3.9,0.3,5.9,0.3c2.6,0,5.2,0.1,7.8,0c2-0.1,2.7,0.4,2.6,2.5c-0.2,5.5-0.1,11.1,0,16.6c0,1.8-0.3,2.4-2.3,2.4
		c-4.3-0.2-8.6,0-12.8-0.1c-1.3,0-1.7,0.4-1.6,1.7c0.1,2.2-0.7,5,0.4,6.3c1.1,1.4,4.1,0.4,6.2,0.5c4.7,0.1,9.4,0.1,14.1,0
		c1.3,0,1.6,0.4,1.6,1.7c-0.1,6,0,11.9,0,17.9c0,1.4-0.4,1.7-1.8,1.7c-13.3,0-26.5-0.1-39.8,0c-1.7,0-1.9-0.7-1.9-2.1
		C223.3,240.7,223.3,227.9,223.3,215.2z"/>
	<path class="st2" d="M310.7,225.3c0,9.4,0,18.8,0,28.2c0,1.5-0.3,2.1-1.9,2.1c-5.7-0.1-11.5-0.1-17.2,0c-1.6,0-2-0.5-2-2
		c0.1-18.7,0-37.3,0.1-56c0-2-0.5-2.5-2.4-2.4c-3.5,0.2-7,0-10.5,0.1c-1.1,0-1.4-0.3-1.4-1.4c0-5.8,0-11.6-0.1-17.5
		c0-1.3,0.5-1.5,1.6-1.5c15.6,0,31.1,0,46.7,0c1.2,0,1.6,0.3,1.6,1.5c-0.1,5.7-0.2,11.5-0.1,17.2c0,1.4-0.5,1.6-1.7,1.6
		c-3.4-0.1-6.9,0.1-10.3-0.1c-2-0.1-2.3,0.6-2.2,2.4C310.7,206.8,310.7,216,310.7,225.3z"/>
	<path class="st2" d="M282.8,304.7c6.8,4.6,9.3,12.9,6.3,20.4c-2,5-6.2,7.1-11.2,8c-2,0.4-4,0.5-6.1,0.5c-11.5,0-23,0-34.5,0
		c-1.6,0-2-0.4-1.9-2c0.1-17.3,0.1-34.6,0-51.9c0-1.5,0.3-2,1.9-2c11.6,0.1,23.3,0,34.9,0.1c8.7,0,14.3,4.2,15.7,11.6
		C289,295.4,287.9,300.8,282.8,304.7z M260.1,324.7c4.4-0.2,9.7,0.4,15-0.3c4.4-0.5,6.5-2.9,6.5-7.1c-0.1-4.7-2.2-7.3-6.8-7.4
		c-9.9-0.2-19.7-0.1-29.6-0.2c-1.2,0-1.4,0.5-1.3,1.5c0,3.9,0.1,7.8,0,11.8c0,1.3,0.4,1.7,1.7,1.6
		C250.1,324.7,254.6,324.7,260.1,324.7z M259.8,286.9C259.8,286.8,259.8,286.8,259.8,286.9c-4.8,0-9.5,0-14.3,0
		c-1.2,0-1.7,0.2-1.7,1.6c0.1,3.6,0.1,7.3,0,10.9c0,1.2,0.3,1.5,1.5,1.5c9.2,0,18.5,0,27.7,0c4,0,7-3.1,7-7.1c0-4.3-2.5-6.8-6.8-6.8
		C268.8,286.8,264.3,286.9,259.8,286.9z"/>
	<path class="st2" d="M400.9,322.1c0-1.2,0-1.9,0-2.6c0-13.2,0-26.4,0-39.5c0-1.6,0.4-2.2,2.1-2.1c1.7,0.2,3.4,0.1,5,0
		c1.1-0.1,1.4,0.4,1.4,1.4c0,17.6,0,35.2,0,52.8c0,1.1-0.2,1.6-1.5,1.6c-2.8-0.1-5.9,0.7-8.3-0.3c-2.4-0.9-3.3-4.2-4.8-6.4
		c-7.9-11.7-15.8-23.5-23.7-35.2c-0.4-0.6-0.8-1.1-1.3-1.9c-0.5,0.9-0.3,1.6-0.3,2.3c0,13.1,0,26.2,0,39.3c0,1.8-0.5,2.4-2.2,2.2
		c-1.4-0.1-2.8-0.1-4.2,0c-1.6,0.2-2.1-0.4-2.1-2.1c0.1-13.3,0-26.6,0-40c0-4.1,0-8.1,0-12.2c0-1.1,0.3-1.6,1.5-1.6
		c2.8,0.1,5.9-0.7,8.3,0.3c2.4,0.9,3.3,4.2,4.8,6.4c7.9,11.7,15.7,23.4,23.6,35.1C399.6,320.4,400.1,321,400.9,322.1z"/>
	<path class="st2" d="M431.8,305.6c9.1-8.8,18-17.4,26.8-26.1c1.1-1.1,2.3-1.6,3.9-1.6c3.1,0.1,6.3,0,10,0c-1.4,1.3-2.4,2.2-3.4,3.1
		c-6.4,5.6-12.8,11.3-19.3,16.9c-1.2,1-1.2,1.6-0.3,2.8c8,10.3,15.9,20.7,23.9,31c0.4,0.5,0.8,1.1,1.5,2c-3.6,0-7,0-10.3,0
		c-0.9,0-1.2-0.9-1.6-1.5c-6.5-8.5-13.1-17-19.6-25.5c-1.2-1.5-1.7-1.4-2.8,0c-2.5,3-5.2,5.9-7.9,8.8c-0.9,1-1.3,2-1.3,3.4
		c0.1,4.3-0.1,8.7,0.1,13c0,1.6-0.5,2.1-2,1.9c-1.5-0.1-3-0.1-4.4,0c-1.6,0.2-2.1-0.4-2.1-2.1c0.1-13.7,0-27.5,0-41.2
		c0-3.6,0-7.3,0-10.9c0-1.2,0.3-1.6,1.5-1.6c1.7,0.1,3.5,0.1,5.3,0c1.5-0.1,1.7,0.5,1.7,1.8c-0.1,7.8,0,15.6,0,23.4
		C431.4,303.9,431.2,304.6,431.8,305.6z"/>
	<path class="st2" d="M294,333.8c5.3-12,10.5-23.6,15.7-35.2c2.8-6.3,5.7-12.6,8.4-19c0.5-1.2,1.1-1.8,2.5-1.7
		c2.7,0.2,5.8-0.7,7.9,0.4c2.1,1.1,2.4,4.5,3.5,6.9c7,15.5,13.9,31.1,20.8,46.6c0.7,1.6,0.7,2.2-1.3,2.1c-2.1-0.2-4.7,0.6-6.2-0.4
		c-1.5-1-1.9-3.6-2.8-5.5c-1-2.2-1.4-5.1-3.1-6.2c-1.7-1.1-4.6-0.4-7-0.4c-7.6,0-15.2,0-22.7,0c-1.4,0-2.1,0.5-2.6,1.7
		c-1.2,3.1-2.7,6-3.9,9.1c-0.5,1.4-1.3,1.8-2.7,1.7C298.5,333.7,296.4,333.8,294,333.8z M323.9,286.8c-4,8.8-7.7,17.2-11.5,25.6
		c7.7,0,15.2,0,22.8,0C331.4,304,327.8,295.7,323.9,286.8z"/>
</g>
</svg>
