<svg xmlns="http://www.w3.org/2000/svg" viewBox="0 0 512 512"><path fill="#015fa9" d="M2 0h510v513H2z"/><path fill="#e12418" d="M107.9 189.3c7.1 15.6 14.1 31.1 21.3 46.9.8-.7 1-1.5 1.3-2.2 9-19.1 18-38.3 26.9-57.5.7-1.4 1.4-1.9 3-1.9 9.8.1 19.5.1 29.3 0 1.3 0 1.9.2 2.1 1.7 2.1 16.1 4.4 32.2 6.6 48.3 2.3 16.8 4.6 33.6 7 50.4 2.2 15.8 4.3 31.5 6.5 47.3.5 3.3.8 6.7 1.4 10 .2 1.1-.1 1.5-1.2 1.5h-39.6c-1.4 0-1.6-.7-1.7-1.8-1.7-12.2-3.4-24.4-5.2-36.6-1.3-8.9-2.6-17.9-4.3-27-10.5 21.6-21.1 43.3-31.6 64.9-.8-.2-.9-.9-1.1-1.3-9.5-20.5-19-41-28.6-61.5-.7-1.5-.5-3-.4-4.5 1.9-18.7 3.9-37.4 5.8-56.1.7-6.8 1.4-13.6 2.2-20.4.1-.1.2-.2.3-.2M60.3 333.8H41.8c-1.4 0-1.7-.4-1.6-1.8 2.1-18.9 4.2-37.9 6.2-56.8 2.2-19.9 4.4-39.8 6.6-59.8 1.4-13 2.9-26 4.2-39.1.1-1.4.6-1.7 1.9-1.7h37c1.4 0 1.6.4 1.5 1.7-2.9 26.1-5.8 52.2-8.6 78.4-2.5 22.5-4.9 45-7.3 67.5-.4 3.3-.8 6.5-1.1 9.8-.1 1.4-.6 1.9-2 1.9-6.1-.2-12.2-.1-18.3-.1"/><path fill="#fdfdfe" d="M474.3 215.1c.1 22.4-18.1 41-40.1 41.1-21.9 0-40-18.4-40.1-40.8-.1-22.5 18-41.1 40-41.2 21.9-.1 40.1 18.4 40.2 40.9m-20.8.1c0-10.8-8.9-20.1-19.4-20-10.5 0-19.2 9-19.2 19.9-.1 10.9 8.8 20 19.3 20 10.4 0 19.3-9.1 19.3-19.9m-99.3 7.7v29.4c0 3.2 0 3.2-3.2 3.2h-16c-1.5 0-1.9-.4-1.9-1.9v-77c0-1.3.3-1.8 1.7-1.8 9.5.1 19.1-.2 28.6.2 10 .4 18.4 4.3 22.4 14.2s3.4 22.7-7.6 30.5c-1.3.9-.9 1.6-.4 2.6 4.6 10.3 9.1 20.6 13.7 30.9 1 2.3 1 2.3-1.5 2.3h-19.4c-1.4 0-2.1-.4-2.6-1.7-4.1-9.7-8.3-19.4-12.4-29.1-.3-.6-.6-1.2-.8-1.9-.3.1-.4.1-.6.1m12.7-20.1c0-5.3-2.4-8.3-7.6-9.5-1.1-.2-2.2-.3-3.3-.5-1.4-.3-1.8.4-1.8 1.7.1 4.9 0 9.8 0 14.7 0 3.7 0 3.7 3.7 3.2q9-1.05 9-9.6m-143.6 12.4v-38.3c0-1.5.3-2 1.9-2q19.8.15 39.6 0c1.4 0 1.9.3 1.9 1.8q-.15 8.85 0 17.7c0 1.6-.5 1.8-1.9 1.8-6.1-.1-12.2 0-18.3-.1-1.6 0-2.4.3-2.1 2 .3 2.1-.9 4.8.5 6 1.2 1 3.9.3 5.9.3 2.6 0 5.2.1 7.8 0 2-.1 2.7.4 2.6 2.5-.2 5.5-.1 11.1 0 16.6 0 1.8-.3 2.4-2.3 2.4-4.3-.2-8.6 0-12.8-.1-1.3 0-1.7.4-1.6 1.7.1 2.2-.7 5 .4 6.3 1.1 1.4 4.1.4 6.2.5q7.05.15 14.1 0c1.3 0 1.6.4 1.6 1.7-.1 6 0 11.9 0 17.9 0 1.4-.4 1.7-1.8 1.7-13.3 0-26.5-.1-39.8 0-1.7 0-1.9-.7-1.9-2.1zm87.4 10.1v28.2c0 1.5-.3 2.1-1.9 2.1-5.7-.1-11.5-.1-17.2 0-1.6 0-2-.5-2-2 .1-18.7 0-37.3.1-56 0-2-.5-2.5-2.4-2.4-3.5.2-7 0-10.5.1-1.1 0-1.4-.3-1.4-1.4 0-5.8 0-11.6-.1-17.5 0-1.3.5-1.5 1.6-1.5h46.7c1.2 0 1.6.3 1.6 1.5-.1 5.7-.2 11.5-.1 17.2 0 1.4-.5 1.6-1.7 1.6-3.4-.1-6.9.1-10.3-.1-2-.1-2.3.6-2.2 2.4-.2 9.3-.2 18.5-.2 27.8m-27.9 79.4c6.8 4.6 9.3 12.9 6.3 20.4-2 5-6.2 7.1-11.2 8-2 .4-4 .5-6.1.5h-34.5c-1.6 0-2-.4-1.9-2q.15-25.95 0-51.9c0-1.5.3-2 1.9-2 11.6.1 23.3 0 34.9.1 8.7 0 14.3 4.2 15.7 11.6 1.1 6 0 11.4-5.1 15.3m-22.7 20c4.4-.2 9.7.4 15-.3 4.4-.5 6.5-2.9 6.5-7.1-.1-4.7-2.2-7.3-6.8-7.4-9.9-.2-19.7-.1-29.6-.2-1.2 0-1.4.5-1.3 1.5 0 3.9.1 7.8 0 11.8 0 1.3.4 1.7 1.7 1.6 4.5.1 9 .1 14.5.1m-.3-37.8q0-.15 0 0h-14.3c-1.2 0-1.7.2-1.7 1.6.1 3.6.1 7.3 0 10.9 0 1.2.3 1.5 1.5 1.5H273c4 0 7-3.1 7-7.1 0-4.3-2.5-6.8-6.8-6.8-4.4-.2-8.9-.1-13.4-.1m141.1 35.2V280c0-1.6.4-2.2 2.1-2.1 1.7.2 3.4.1 5 0 1.1-.1 1.4.4 1.4 1.4v52.8c0 1.1-.2 1.6-1.5 1.6-2.8-.1-5.9.7-8.3-.3-2.4-.9-3.3-4.2-4.8-6.4-7.9-11.7-15.8-23.5-23.7-35.2-.4-.6-.8-1.1-1.3-1.9-.5.9-.3 1.6-.3 2.3v39.3c0 1.8-.5 2.4-2.2 2.2q-2.1-.15-4.2 0c-1.6.2-2.1-.4-2.1-2.1.1-13.3 0-26.6 0-40v-12.2c0-1.1.3-1.6 1.5-1.6 2.8.1 5.9-.7 8.3.3 2.4.9 3.3 4.2 4.8 6.4 7.9 11.7 15.7 23.4 23.6 35.1.4.8.9 1.4 1.7 2.5m30.9-16.5c9.1-8.8 18-17.4 26.8-26.1 1.1-1.1 2.3-1.6 3.9-1.6 3.1.1 6.3 0 10 0-1.4 1.3-2.4 2.2-3.4 3.1-6.4 5.6-12.8 11.3-19.3 16.9-1.2 1-1.2 1.6-.3 2.8 8 10.3 15.9 20.7 23.9 31 .4.5.8 1.1 1.5 2h-10.3c-.9 0-1.2-.9-1.6-1.5-6.5-8.5-13.1-17-19.6-25.5-1.2-1.5-1.7-1.4-2.8 0-2.5 3-5.2 5.9-7.9 8.8-.9 1-1.3 2-1.3 3.4.1 4.3-.1 8.7.1 13 0 1.6-.5 2.1-2 1.9-1.5-.1-3-.1-4.4 0-1.6.2-2.1-.4-2.1-2.1.1-13.7 0-27.5 0-41.2v-10.9c0-1.2.3-1.6 1.5-1.6 1.7.1 3.5.1 5.3 0 1.5-.1 1.7.5 1.7 1.8-.1 7.8 0 15.6 0 23.4-.1.7-.3 1.4.3 2.4M294 333.8c5.3-12 10.5-23.6 15.7-35.2 2.8-6.3 5.7-12.6 8.4-19 .5-1.2 1.1-1.8 2.5-1.7 2.7.2 5.8-.7 7.9.4s2.4 4.5 3.5 6.9c7 15.5 13.9 31.1 20.8 46.6.7 1.6.7 2.2-1.3 2.1-2.1-.2-4.7.6-6.2-.4s-1.9-3.6-2.8-5.5c-1-2.2-1.4-5.1-3.1-6.2s-4.6-.4-7-.4h-22.7c-1.4 0-2.1.5-2.6 1.7-1.2 3.1-2.7 6-3.9 9.1-.5 1.4-1.3 1.8-2.7 1.7-2-.2-4.1-.1-6.5-.1m29.9-47c-4 8.8-7.7 17.2-11.5 25.6h22.8c-3.8-8.4-7.4-16.7-11.3-25.6"/></svg>