<?xml version="1.0" encoding="utf-8"?>
<!-- Generator: Adobe Illustrator 22.1.0, SVG Export Plug-In . SVG Version: 6.00 Build 0)  -->
<svg version="1.1" id="Layer_1" xmlns="http://www.w3.org/2000/svg" xmlns:xlink="http://www.w3.org/1999/xlink" x="0px" y="0px"
	 viewBox="0 0 512 512" style="enable-background:new 0 0 512 512;" xml:space="preserve">
<style type="text/css">
	.st0{fill:#0C57A5;}
</style>
<path class="st0" d="M318.9,359.6h59.2V164H324v121.8l-15.7-15.4v-97.1c-0.3-57.1,6.5-84.1,6.5-84.1c-18.4,0-27.9,17.4-30,22.5
	c-10.3,1.1-18.8,7.1-24.4,18.6c-3.2,6.5-4.8,12.9-5.4,16c-21.7,5-23.6,43.7-22.2,50.6L199.1,164H140v195.6h54.2V241.4
	c0,0,26.2,24.8,26.2,24.8c2.4,7.1,4.7,10,4.7,10l-10.3-8.8c-1.9,19.2,3.5,29,8.5,36.3L210.8,293c-1,19,8.2,30.7,13.9,35.8l-16.5-8.1
	c-1.1,11.4,10.3,28.1,16.9,31.3l-14-2.1c3,15.7,14,21.4,14,21.4s-23.8-0.5-34.8-0.5c-30.5,0-50.5,2.9-50.5,2.9s13.5,13.4,30.8,14
	l-15.4,9.5c11.2,3.6,21.8,2.4,21.8,2.4l-8.9,10.6c0,0,27.9-10.7,39.7-9.9c9.4,0.6,53.2,17.7,82.6,17.7c19.7,0,34-7.6,45.5-13.6
	c7-3.7,13.1-6.7,19-7.6c10.7-1.6,15.5,2.2,15.5,2.2c1.1-4.5,4.4-15.8-12.9-18.6c-0.7-3.1-3.7-7.1-8.1-7.8
	c-9.3-1.4-48.4-4.4-49.5-4.5c-3.4-0.2-14.6-2.4-4.3-17.2c0.8-1.1,6-7.7,6-7.7L318.9,359.6z M317.5,374.2c12.8,1,22,1.8,31.1,3
	c3.5,0.4,4.8,4.4,5.3,6.3c-4.4-1.1-11.3-1.4-11.3-1.4l-0.4,4.2c0,0,5.9-1.7,12.4-1.8c0,0,13.3-0.1,12.7,8.9
	c-3.6-2.5-11.1-1.5-13.2-1.2c-6.7,1.1-13,4.2-20.4,8.1c-6.7,3.6-14,7.4-22.5,10c3.7-3.6,13.5-14.4,13.5-14.4l-13-4.5l10.7-9.3
	l-16.4-8.9C310.1,373.5,313.9,373.9,317.5,374.2z M298.6,339.1c-6,7-13.9,16.9-12.2,24.2c0,0,0,0,0,0c1.3,6,9.7,9.7,9.7,9.7
	l18.2,9.9l-11.8,10.3l14.2,4.5c0,0-13,13.3-14.5,14.7c-3.7,0.6-7.7,1-11.9,1c-30.1,0-72-17.8-82.4-17.9c-12.5-0.2-28.2,7.1-28.2,7.1
	l8.2-8.9c0,0-10.7,2.2-21.1,1.3l14.7-10c-12.9-0.4-24.2-4.3-29.5-8c0,0,23.7-1.9,55.9-1.5c13,0.1,35.1,1.4,35.1,1.4
	c-10.9-4.6-21.1-10.7-25.5-21.5l20.8,3.1c-8.7-5.3-21.4-18.7-23.7-29.1l23.2,8.1c-4.1-4.5-18.5-17.9-21-33.5l18.3,11.5
	c-4.8-4.8-17.8-30.6-15.6-38.1l17.1,11.5c-8.2-10.1-17.8-37-11.2-47.4c5.2,20.2,16.8,27.6,16.8,27.6c-7.6-11-24-50-8.3-67.2
	c4.1,38.9,20.6,52,20.6,52c-13.7-21.8-29.3-88.8-0.2-102.3c-5.7,43,8,66.4,8,66.4c-8.7-39.6-8.4-95.8,21.1-100.9
	c-14.5,42.3-4.2,75-4.2,75C277,93.3,308.9,95,308.9,95s-5.2,28.1-5.2,78.2v144.7C303.7,327.9,302.8,333.9,298.6,339.1z"/>
</svg>
