<svg xmlns="http://www.w3.org/2000/svg" viewBox="0 0 256 256"><path fill="#1A468E" d="M0 0h256v256H0z"/><path fill="#fff" d="M172.477 144.153c3.381 0 6.787-1.385 9.332-3.805 2.663-2.526 4.191-5.994 4.191-9.512V98.687c0-3.823-1.378-7.141-4.092-9.843l-17.976-17.989a3.7 3.7 0 0 1-1.179-2.713V48.637c0-3.381-1.341-6.568-3.774-8.97-2.414-2.377-5.589-3.687-8.951-3.687H135.9c-6.905 0-12.525 5.677-12.525 12.656v1.06h-.007a1.27 1.27 0 0 1-1.272 1.236v.006h-2.109c-2.42 0-4.902.954-6.817 2.626a10.2 10.2 0 0 0-2.57 3.418c-1.328-.13-2.776-.2-3.979-.2-19.861 0-40.77 15.264-40.77 41.406 0 22.156 18.539 31.868 19.543 32.579.698.493 2.27 1.647 2.27 3.605v12.114c0 3.493 1.385 6.742 3.892 9.163 2.44 2.351 5.677 3.649 9.107 3.649l49.646-.006c3.437 0 6.424-1.061 8.633-3.075 2.376-2.152 3.686-5.29 3.686-8.833v-1.959c0-.698.568-1.272 1.272-1.272z"/><path fill="#1A468E" d="M159.47 123.398v-6.181a2.975 2.975 0 1 0-5.951 0v6.181a2.975 2.975 0 1 0 5.951 0m18.124-30.16-18.882-18.892c-1.128-1.183-1.951-2.735-1.951-4.461V48.639c0-3.68-3.088-6.705-6.768-6.705h-13.398a6.604 6.604 0 0 0-6.607 6.633v6.412c0 .761-.555 2.127-2.196 2.127h-7.13c-2.008 0-4.092 1.528-4.297 3.736-.163 1.735-.736 3.094-3.712 2.564l-.112-.019c-.069-.019-.137-.025-.206-.044l.006.007a34 34 0 0 0-6.381-.599c-18.863 0-34.151 15.289-34.151 34.157 0 11.365 5.539 21.427 14.084 27.633l.02.012a2.803 2.803 0 0 0 3.967-.73L109.227 95s2.021-3.063 5.67-3.063h22.293a2.127 2.127 0 0 0 2.065-2.657c-2.158-9.45-8.234-17.41-16.424-22.075a2.18 2.18 0 0 1-1.16-1.921c0-1.21.98-2.183 2.183-2.183h7.255c2.645 0 4.872-2.152 4.872-4.86v-8.22c0-1.242.991-2.134 2.133-2.134h10.616c1.104 0 2.059.923 2.059 2.133v45.704c0 1.097.854 2.145 2.127 2.145h19.018c1.397 0 2.133 1.192 2.133 2.134v30.284c0 1.085-.767 2.127-2.158 2.127h-16.611c-2.844 0-4.684 2.382-4.684 4.672l-.006 8.146c0 1.303-1.048 2.127-2.134 2.127h-18.363v-9.02a2.977 2.977 0 0 0-2.982-2.975 2.975 2.975 0 0 0-2.975 2.975v9.02h-22.431c-1.048 0-2.127-.774-2.127-2.127v-13.685c0-1.254 1.023-2.127 2.127-2.127h25.961c1.279 0 2.352-1.535 2.352-1.535l17.87-26.666c1.011-1.572-.399-3.318-1.671-3.318h-30.477c-1.21 0-1.722.817-2.321 1.752l-18.294 27.252s-1.497 2.134-1.497 4.641v14.939c0 3.868 3.168 6.856 7.042 6.856h51.018c2.277 0 4.878-1.778 4.878-4.859v-7.997c0-.911.686-2.121 2.127-2.121h13.717c3.867 0 7.572-3.337 7.572-7.366V98.874c0-2.47-1.01-4.241-2.407-5.633"/><path fill="#fff" d="M186.299 189c-2.211 0-4.014 1.811-4.014 4.045 0 2.247 1.803 4.05 4.014 4.05 2.214 0 4.025-1.803 4.025-4.05 0-2.234-1.811-4.045-4.025-4.045m-90.204 0c-2.23 0-4.02 1.811-4.02 4.045 0 2.247 1.79 4.05 4.02 4.05 2.206 0 4.008-1.803 4.008-4.05 0-2.234-1.803-4.045-4.008-4.045m-55.123.469v2.193h1.518c.858 0 2.125.979 2.125 2.313v15.232c-1.383-1.92-14.198-19.768-14.198-19.768H20.162v2.002h.782c.225.248 2.29 2.708 2.466 2.918v25.616c0 1.811-2.282 1.996-2.993 1.996H20v2.073h11.51v-2.163h-1.142c-1.188 0-2.546-1.151-2.546-1.906v-20.42c1.412 1.92 18.76 25.445 18.76 25.445h2.352v-31.027c0-1.581.858-2.312 2.634-2.312H52v-2.193H40.97zm32.44 31.195c-.146.191-.438.161-.663.065-.335-.117-.657-.414-.657-.753v-13.787c0-3.881-3.835-6.477-9.492-6.477-4.95 0-7.497 1.816-8.577 2.907l-.1.123v7.143h1.89l.083-.357c1.321-6.172 4.794-6.751 6.22-6.734 1.228.041 3.044 1.159 3.044 2.596v3.388c-8.13 2.302-12.1 5.76-12.1 10.598 0 3.292 2.36 5.518 5.88 5.518 2.28 0 4.404-.884 6.49-2.575.431 1.41 2.058 2.49 4.055 2.49 1.843 0 3.475-.9 4.615-2.55l.078-.084v-2.428zm-10.993-.278c-.712 0-1.957-.584-1.957-2.905 0-2.258 2.011-4.484 4.647-5.354v6.467c-.663 1.243-2.097 1.792-2.69 1.792m26.538-17.159v-2.897h-4.252v-8.375h-1.724l-.206.305c-1.418 2.223-4.083 6.396-7.21 8.73l-.167.126v2.154h2.368v15.985c0 3.535 2.539 5.392 5.093 5.392 2.241 0 3.752-.42 5.305-2.599l.076-.101v-2.012l-.63.31c-.623.314-1.39.27-2.039-.095-.538-.349-.866-.862-.866-1.396v-15.527zm12.474 18.744c-.634 0-1.722-.529-1.722-1.584V200.33H92.61v20.021c0 .985-1.007 1.664-1.919 1.664h-.408v2.092h11.556v-2.136zm12.257-22.39c-5.083 0-10.596 4.786-10.596 12.524 0 10.015 7.031 12.638 10.717 12.638 4.201 0 10.371-3.791 10.371-11.956 0-7.528-4.498-13.206-10.492-13.206m3.131 13.26c0 8.818-2.146 8.818-3.066 8.818-1.308 0-3.259 0-3.259-9.017 0-9.178 1.659-9.933 3.194-9.933 1.467 0 3.131 1.132 3.131 10.132m32.521 9.131c-1.343 0-1.605-.572-1.605-1.388v-13.661c0-3.559-2.244-7.282-6.355-7.282-2.807 0-4.863.973-6.347 2.793v-2.117h-9.294v1.991h1.018c.027 0 1.253.229 1.253 1.336v16.575c0 1.161-1.055 1.794-2.022 1.879l-.376.022v1.925h11.697v-1.961h-.419c-1.026 0-1.784-.824-1.784-1.865v-13.624c0-.72 1.635-2.831 3.283-2.831 1.427 0 2.122 1.028 2.122 3.033v13.858c0 .559-.98 1.361-1.651 1.361h-.438v2.029h11.343v-2.073zm24.301-21.596v1.873h.412c.527 0 1.188.183 1.48.589.105.175.173.344.173.527 0 .136-.017.253-.067.398-.306 1.135-2.179 6.742-3.061 9.363-.704-2.722-2.225-8.657-2.406-9.459a1.1 1.1 0 0 1-.038-.31c0-.2.04-.426.176-.614.281-.311.782-.494 1.483-.494h.452v-1.917h-11.11v1.977h.42c.476 0 1.25.112 1.477.737l.948 3.125c-.079.265-2.103 5.632-2.699 7.282-.822-2.351-2.709-7.805-3.288-9.237-.081-.262-.195-.598-.195-.914 0-.205.079-.379.168-.584.206-.286.636-.469 1.123-.469h.447v-2.004h-10.542v1.87l.238.107c.249.087.877.406 1.118.824.27.572 4.79 13.096 7.754 21.371l.097.276h2.428s4.073-11.406 4.795-13.449c.62 2.056 4.084 13.449 4.084 13.449h2.306l7.029-20.248c.571-1.588 1.101-2.261 1.827-2.261h.435v-1.808zm17.988 21.596c-.614 0-1.713-.529-1.713-1.584v-20.057h-7.093v20.021c0 .985-.999 1.664-1.919 1.664h-.403v2.092h11.562v-2.136zm24.021.111c-.972 0-1.67-1.045-1.67-1.988V189.47h-10.333v2.067h1.458c.588 0 1.979.584 1.979 1.645v8.476c-.915-.911-2.531-2.13-4.958-2.13-3.521 0-9.053 3.519-9.053 13.067 0 9.625 5.521 12.148 8.433 12.148 2.739 0 4.414-1.012 5.459-2.133v1.437h9.118v-1.963h-.433zm-8.628-15.696v11.733c0 .731-2.098 2.878-3.213 2.878-2.785 0-3.37-4.512-3.37-8.355 0-8.092 1.743-9.169 3.476-9.169 1.707 0 2.944 2.553 3.107 2.913M236 211.946c0-8.588-4.468-12.418-8.907-12.418-3.351 0-9.659 2.657-9.659 12.822 0 12.131 8.774 12.461 9.797 12.461 3.759 0 6.547-2.25 8.198-4.129l.208-.21-.898-1.869-.428.314s-2.238 1.645-4.536 1.645c-4.284 0-5.183-3.003-5.253-8.202H236zm-11.478-2.815c.07-5.487 1.091-6.595 2.809-6.595 2.198 0 2.428 2.703 2.444 6.595z"/><path fill="#ED1C24" d="M0 231h256v25H0z"/></svg>