<?xml version="1.0" encoding="utf-8"?>
<!-- Generator: Adobe Illustrator 22.1.0, SVG Export Plug-In . SVG Version: 6.00 Build 0)  -->
<svg version="1.1" id="Layer_1" xmlns="http://www.w3.org/2000/svg" xmlns:xlink="http://www.w3.org/1999/xlink" x="0px" y="0px"
	 viewBox="0 0 512 512" style="enable-background:new 0 0 512 512;" xml:space="preserve">
<style type="text/css">
	.st0{fill:#0002A0;}
</style>
<path class="st0" d="M315.8,221c0.2,1.2,0.7,2.4,0.7,3.7c-0.1,26.3-0.2,52.5-0.4,78.8c0,0.8-0.2,1.6-0.2,2.6c-4.1,0-8,0-12.1,0
	c-0.2-2.4-0.3-4.5-0.6-7.8c-5.1,6.9-12.2,8-18.9,9.8c-0.6,0-1.1,0-1.7,0c-2.3-0.4-4.7-0.8-7-1.3c-14-3.5-22.7-12.4-25.9-26.4
	c-2.9-13.1,2.8-26.9,14.4-34.4c12-7.8,24.5-8.2,36.9-0.5c0.4,0.2,0.7,0.4,1.1,0.6c0.1,0,0.3,0,1-0.1c0-8.2,0-16.5,0-24.8
	C307.2,221,311.5,221,315.8,221z M302.2,273.6c0-11-8.6-19.8-19.6-20c-10.7-0.2-19.8,8.9-19.8,19.8c0,10.6,8.9,19.6,19.5,19.6
	C293.7,293,302.2,284.7,302.2,273.6z"/>
<path class="st0" d="M355,308c-3.3-1.1-6.7-2-9.9-3.5c-14.3-6.6-22-22.4-18.6-37.8c3.5-15.7,16.6-26.5,32.5-26.7
	c16.1-0.2,29.5,10.2,33.4,26.2c0.3,1.2,0.5,2.4,0.8,3.9c-16.9,4.7-33.6,9.3-50.9,14c4.2,6.6,9.7,10.2,17,10.5
	c8.5,0.3,14.5-3.9,19.1-11.3c4,1.2,8.1,2.5,12.6,3.8c-4.9,11-13.1,17.2-24.3,19.9c-1.1,0.3-2.1,0.6-3.2,0.9
	C360.7,308,357.9,308,355,308z M376.5,262.3c-4.3-8.4-13-12-21.8-9.5c-8.9,2.6-15.5,11.1-14.5,19.4
	C352.2,268.9,364.2,265.7,376.5,262.3z"/>
<path class="st0" d="M127,306.6c-4,0-7.9,0.3-11.6-0.1c-1.4-0.1-2.9-1.6-3.9-2.8c-12.5-14.5-25-29.1-37.5-43.6
	c-1.5-1.7-2.9-3.4-5.5-4.9c0,8.4,0,16.8,0,25.1c0,8.5,0,17,0,25.7c-5.2,0-10,0-15,0c0-25.6,0-51.2,0-77.4c4.5,0,9-0.3,13.5,0.2
	c1.6,0.2,3.2,2.1,4.4,3.5c12.7,14.9,25.4,29.9,38.1,44.8c0.8,1,1.7,1.9,3.2,3.5c0-17.7,0-34.6,0-51.8c5,0,9.5,0,14.3,0
	C127,254.5,127,280.2,127,306.6z"/>
<path class="st0" d="M204.3,273.9c0,18.4-14.9,33.5-33.2,33.5c-19.4,0.1-34.5-14.8-34.5-34.1c0-18.7,15.2-33.6,34.1-33.6
	C189.3,239.8,204.3,255.1,204.3,273.9z M151.1,273.4c0,11,8.8,20,19.6,19.9c10.7-0.1,19.6-9.1,19.6-19.6c0-10.8-8.9-19.5-20-19.5
	C159.6,254.1,151.1,262.7,151.1,273.4z"/>
<path class="st0" d="M213.6,306c0-21.5,0-42.6,0-64c4.5,0,8.9,0,13.7,0c0.2,2,0.3,4,0.6,7c4.8-6.6,10.9-9.2,18.5-9.1
	c0,4.4,0,8.7,0,12.9c-3,1-6.2,1.6-8.9,3c-7.1,3.7-9.5,10.2-9.6,17.7c-0.2,9.2,0,18.4,0,27.7c0,1.5,0,3,0,4.8
	C223,306,218.5,306,213.6,306z"/>
<path class="st0" d="M466.7,306.4c-4.4,0-8.3,0-12.7,0c0-3,0-5.7,0-8.8c-3.2,2.5-5.7,5.1-8.7,6.7c-15.3,8.2-35.8,0-43.1-17
	c-5.6-12.9-2.7-27.3,7.4-37.7c9.1-9.3,24.3-12.2,36.7-7.1c12.5,5.2,20.4,17.1,20.4,31.2C466.7,284.4,466.7,295.1,466.7,306.4z
	 M432.5,293c11.3,0.4,20.2-7.7,20.6-18.8c0.4-11-8.3-20.2-19.5-20.6c-10.5-0.4-19.5,8.4-19.9,19.2
	C413.3,283.6,421.8,292.6,432.5,293z"/>
</svg>
