<?xml version="1.0" encoding="utf-8"?>
<!-- Generator: Adobe Illustrator 22.1.0, SVG Export Plug-In . SVG Version: 6.00 Build 0)  -->
<svg version="1.1" id="Layer_1" xmlns="http://www.w3.org/2000/svg" xmlns:xlink="http://www.w3.org/1999/xlink" x="0px" y="0px"
	 viewBox="0 0 512 512" style="enable-background:new 0 0 512 512;" xml:space="preserve">
<style type="text/css">
	.st0{fill:#401715;}
	.st1{fill:#61CBE8;}
</style>
<rect class="st0" width="512" height="512"/>
<path class="st1" d="M164,234.4c2.6-2.1,5-4.3,7.6-6.1c6.4-4.4,13.4-6.3,21.1-5.1c9.5,1.5,14.6,8.1,12.9,17.5
	c-1.5,8.1-3.5,16.2-5.6,24.2c-1.5,5.8-3.4,11.5-5.2,17.2c-1.3,4.2,0.3,6,4.5,4.8c3.1-0.9,6-2.4,8.9-3.8c0.5-0.3,0.9-1.4,1-2.1
	c1.1-21,10.3-37.7,26.6-50.6c5.2-4.1,11.3-6.7,18-7.3c2.9-0.2,6-0.2,8.8,0.4c6.9,1.4,11,6.6,11.7,14c0.4,4.3-0.7,8.3-2.7,12.1
	c-4.7,8.5-11.5,15.3-19.1,21c-6.2,4.6-12.9,8.7-19.5,12.8c-1.8,1.1-1.8,2.1-0.9,3.6c1.3,1.9,3,3.1,5.4,3c6.7-0.1,13-2.2,18.7-5.5
	c4.6-2.6,9-5.7,13.2-9.1c6.2-5,13.1-4.2,17.2,2.7c1.4,2.3,2.5,4.9,3.8,7.3c1,1.8,2,3.5,3.3,5.1c2.5,3.1,6.8,4.2,9.9,2.8
	c3-1.4,5-5.3,4-9.2c-0.7-2.6-2-5.3-3.7-7.4c-4.5-5.7-9.1-11.2-14.1-16.5c-9.4-10-7.9-30,10.3-35.6c0.7-0.2,1.5-0.5,2.4-0.8
	c-2.4-5.1-3.1-10.3-2.2-15.7c2.1-12.8,12.5-22.3,25.4-23.5c5.7-0.5,11.3,0.1,16.6,1.9c9.7,3.3,19.2,3.2,28.8-0.6
	c2.1-0.8,4.5-1.3,6.7-1.3c3.4,0,5.3,2.4,4.7,5.8c-0.5,2.7-1.4,5.3-2.2,7.9c-2.4,8.1-4.9,16.2-7.3,24.3c-0.1,0.4-0.2,0.8-0.3,1.6
	c2.4,0,4.6,0,6.8,0c1.5,0,3-0.1,4.6,0c3.8,0.2,6.5,2.9,6.5,6.5c0,3.7-2.8,6.3-6.8,6.4c-4.4,0-8.8,0.1-13.2,0c-1.5,0-2.1,0.5-2.5,1.9
	c-3.1,10.7-6,21.4-9.5,31.9c-4,12.2,4.9,23.5,18.8,22.4c12.5-1,21.8-7.2,28.1-17.8c8.6-14.5,11.7-30.3,9.7-46.9
	c-4-31.7-19.2-57.4-43-78.2c-13.7-12-29-21.5-46.6-26.7c-17.9-5.3-36-5.5-54.1-1c-4.3,1.1-8.3,3.2-12.4,5.1
	c-5.3,2.4-10.9,1.6-14.7-2.4c-4.7-4.9-4.3-11.8,1.1-15.9c6.3-4.9,13.6-7.3,21.3-8.4c52.4-6.8,94.5,11.4,126.6,53
	c13.7,17.7,23.6,37.5,28.7,59.4c4.9,20.9,4.1,41.6-4.4,61.6c-6.1,14.3-16.2,24.5-31.6,28.5c-10,2.6-20,3.2-29.7-1.3
	c-14.5-6.8-22.2-23.5-17.7-38.8c5.9-20.1,12.1-40.2,18.1-60.3c0.2-0.7,0.4-1.5,0.7-2.6c-2.2-0.2-4.3-0.4-6.4-0.4
	c-6.1-0.3-12.1-0.8-18.2-0.6c-8.7,0.2-15.5,6-17,14c-0.3,1.4-0.3,2.9-0.1,4.3c0.7,4.5,1.1,4.7,5.6,4.7c2.6,0,5.2,0,7.8,0.4
	c5,0.9,8.3,4.9,8,9.5c-0.3,5.1-3.9,8.6-9.3,9.1c-4.3,0.4-8.1-0.8-11.5-3.5c-1.2-1-2.4-2.1-3.6-3.1c-2.1-1.8-4.3-1.9-6.4-0.5
	c-1.8,1.2-2.7,3.7-1.7,6c0.8,1.9,2,3.8,3.4,5.4c4.4,5.2,9.1,10.1,13.4,15.3c3.4,4.1,5.7,8.9,6.4,14.3c1.2,10.4-3.6,19.6-12.8,24.5
	c-13.7,7.3-30.4,5.6-42.2-4.3c-2.2-1.9-4.1-4.2-6-6.3c-3.5,2.4-7,5.2-10.9,7.6c-7,4.3-14.7,6.7-22.9,7.4c-9.4,0.8-15.6-2.4-21.1-11
	c-1.1,0.6-2.2,1.2-3.3,1.8c-4.3,2.3-8.6,4.8-13,6.9c-3.7,1.8-7.6,3-11.7,2.3c-8.2-1.5-13-8.8-11-16.9c2.7-10.6,5.7-21.2,8.5-31.8
	c0.8-3.1,1.4-6.3,1.9-9.5c0.8-5.2-1.9-8-7.1-7.5c-4,0.4-7.2,2.5-10.2,5c-0.4,0.3-0.7,1-0.7,1.5c-1.2,14.1-5.5,27.4-9.2,40.9
	c-0.9,3.3-1.9,6.7-2.8,10c-1.8,6.2-6.8,9.7-12.1,8.4c-6.1-1.5-9.7-7.3-8.1-13.7c2.1-8.2,4.7-16.4,6.8-24.6c2-7.5,4.1-15.1,5.4-22.7
	c1.5-9.1-4.2-15.3-13.4-15.4c-14.5-0.3-26.5,8.3-31.4,22.4c-3.2,9.4-3.4,19-2.4,28.7c3,29.2,16.2,53.5,36,74.5
	c24.3,25.8,53.8,43.4,88.4,51.4c46.5,10.8,88.1,1,123.5-31.7c10.7-9.8,19.5-21.3,26.9-33.8c3.2-5.4,7.9-8.9,14.3-9.8
	c6.6-1,12.5,3.7,12.9,10.3c0.3,5.3-1.3,10.1-4.3,14.4c-12.7,18.4-28.7,33.3-47.4,45.4c-22.2,14.3-46.3,23.2-72.5,26
	c-47,5-89.4-7-126.4-36.5c-25-20-43.3-45-54.2-75.1c-5.7-15.5-8.8-31.6-8.1-48.2c0.6-14,4.5-26.9,14.6-37.2
	c7.8-8,17.6-11.8,28.7-12.5c14.7-1,25.5,5.3,33,17.7C163.6,233.9,163.8,234.1,164,234.4z M231.3,269.7c0.3,0.2,0.5,0.4,0.8,0.6
	c3.5-3.2,7.2-6.4,10.6-9.8c4.5-4.5,8.4-9.5,10.8-15.5c0.9-2.2,1.3-4.7,1.4-7.1c0.1-2.4-1-3.1-3.1-2.1s-4.2,2.1-5.8,3.6
	c-6.6,6.3-9.8,14.4-12.6,22.8C232.5,264.7,231.9,267.2,231.3,269.7z"/>
<path class="st1" d="M115.2,195.2c-6.9-0.1-11.3-4.7-11.3-11.8c0-2.4,0.5-5.1,1.7-7.2c26-47.2,65.4-76.5,118.2-87.7
	c10.2-2.2,20.5-3.2,31-3c1.6,0,3.3,0.5,4.8,1.1c1.6,0.7,2.6,2.2,2.1,3.9c-0.4,1.3-1.5,2.9-2.6,3.3c-2.5,0.9-5.2,1.2-7.8,1.5
	c-33.9,4.6-63.2,18.8-88.1,42.2c-14.8,13.9-26.1,30.4-34.7,48.8C125.6,192.1,120.8,194.9,115.2,195.2z"/>
<path class="st1" d="M188,333.4c6.9,0,13.6-0.1,20.3,0.1c2.7,0.1,4.8,1.6,5.9,4.1c1.1,2.4,0.5,4.5-1.4,6.2c0.1,0.2,0.1,0.4,0.2,0.5
	c2.2,1.6,3.4,3.5,2.7,6.3s-2.8,4.1-5.5,4.6c-1.7,0.3-3.4,0.3-5.2,0.3c-5.6,0-11.2,0-17.1,0C188,348.1,188,340.9,188,333.4z
	 M193.3,351.2c1.9,0,3.6,0,5.3,0c3,0,6.1,0.1,9.1-0.2c0.9-0.1,2.3-1.3,2.4-2.1c0.1-0.8-1.3-2.4-2-2.4c-4.9-0.2-9.7-0.1-14.7-0.1
	C193.3,348,193.3,349.4,193.3,351.2z M193.3,341.9c4.6,0,9.1,0.1,13.6-0.1c0.7,0,1.4-1.5,2.1-2.2c-0.7-0.6-1.4-1.8-2.2-1.8
	c-2.7-0.2-5.5-0.1-8.2-0.1c-1.8,0-3.5,0-5.3,0C193.3,339.2,193.3,340.4,193.3,341.9z"/>
<path class="st1" d="M278.7,333.5c2,0,3.5,0,5.2,0c0,7.3,0,14.5,0,21.8c-3.4,0.3-6.3,0.4-9-2.6c-3.8-4.3-8.4-7.9-12.4-11.5
	c0,4.1,0,9,0,14.2c-2,0-3.6,0-5.3,0c0-7.3,0-14.5,0-21.8c3.4-0.3,6.4-0.7,9,2.5c3,3.8,6.7,7.1,10.1,10.7c0.6,0.7,1.2,1.4,1.8,2.2
	c0.2-0.1,0.4-0.2,0.6-0.3C278.7,343.6,278.7,338.6,278.7,333.5z"/>
<path class="st1" d="M306,345.2c-4.9,1.7-7,4.9-5.7,10.1c-2,0-3.7,0-5.5,0c0-7.2,0-14.4,0-21.7c1.6,0,3.2,0,5.2,0c0,3.1,0,6.2,0,9.9
	c1.1-0.7,1.7-1.1,2.4-1.5c3-2.1,6.3-4,9-6.4c3.1-2.8,6.6-2.2,10.8-2.1c-4.3,3-8.1,5.7-12.2,8.6c4.5,4.5,8.8,8.7,13.5,13.4
	c-2.5,0-4.4,0.1-6.3-0.1c-0.7-0.1-1.5-0.7-2.1-1.3C312,351.2,309,348.1,306,345.2z"/>
<path class="st1" d="M251.4,355.4c-1.1,0-1.8-0.1-2.4,0c-2.3,0.4-3.9-0.4-4.6-2.7c-0.5-1.7-1.7-2.2-3.5-2.1c-3.5,0.1-6.9,0-10.4,0.1
	c-0.8,0-2,0.6-2.2,1.1c-1.2,3.8-3.9,4.1-7.3,3.4c0.1-0.4,0.2-0.8,0.4-1.1c3.5-6.5,7-12.9,10.4-19.4c0.6-1.2,1.4-1.2,2.6-1.4
	c4-0.7,6,1.1,7.6,4.6C244.8,343.8,248.1,349.4,251.4,355.4z M236,337.4c-1.7,3.1-3.2,5.9-4.8,8.9c3.4,0,6.3,0,9.6,0
	C239.2,343.3,237.7,340.5,236,337.4z"/>
</svg>
