<svg xmlns="http://www.w3.org/2000/svg" viewBox="0 0 512 512"><path fill="#076543" d="M148.1 388.7c1.5 0 1.5-.1 1.3-1.5 0-.2-.1-.3-.1-.5-.6-6.9-3.4-12.8-8.1-17.8-7.3-7.8-16.7-11.1-27.1-12.1-4.3-.4-8.6-.3-12.8.2-6.8.8-13.1 2.9-18.9 6.5-11.3 7.1-16.7 17.7-18.3 30.6-.6 5.1-.5 10.2.2 15.2 1.2 8.4 4.2 16.1 10 22.4 7 7.7 16 11.6 26.1 13 7.9 1.1 15.8.7 23.5-1.5 7.1-2.1 13.3-5.6 18.2-11.2 4.5-5.2 6.8-11.2 7.4-18 .1-.9-.4-.9-1-.9H135c-.7 0-1 .2-1.1 1-1.7 8.2-6.7 13.4-14.7 15.6-5.7 1.5-11.5 1.7-17.4.4-8.4-1.9-14.6-6.6-18.1-14.5-4.1-9.2-4.1-18.8-.5-28.2 2.5-6.5 7-11.1 13.3-13.9 3.1-1.4 6.4-2.1 9.7-2.4 5.4-.5 10.8.1 15.8 2.1 6.6 2.6 10.3 7.7 11.8 14.5.2.9.6 1.1 1.4 1.1h6.4c2.2-.1 4.3-.1 6.5-.1M457 405.8c0-4.3-.5-8.6-1.7-12.7-2.2-7.3-6.9-12.3-14.4-14.3-3.8-1-7.6-1.3-11.5-1-8.1.7-14.9 3.6-19.6 10.8-.1-.9-.3-1.6-.3-2.3-.4-3.8-3.4-6.9-7.1-7.7-3.8-.8-7.6-.3-11.4.3-.8.1-1 .5-1 1.3v6.2c0 2.2 0 2.2 2.2 2.4 2.8.2 4.1 1.3 4.4 4.2.1 1.3.2 2.7.2 4v45.9c0 .8.2 1.2 1.2 1.1 3.7-.3 7.4-.1 11.1-.1 2.5 0 2.1.2 2.1-2.2 0-11.8-.1-23.5 0-35.3.1-5.4 2.3-9.8 6.5-13.2 4-3.2 8.6-4.1 13.5-3.3 5.2.8 8.7 3.7 10.2 8.9.8 2.9 1.1 5.9 1.1 9 0 11.7-.1 23.4 0 35.1 0 .9.2 1.2 1.2 1.2 3.8 0 7.6-.3 11.4 0 1.8.1 1.8.1 1.8-1.8.1-12.4.1-24.5.1-36.5m-204-26.5c-7.4-2.2-14.8-2.3-22.2-.2-8.6 2.4-15 7.4-18.9 15.4-3.7 7.5-4.3 15.6-3 23.7 1.7 10.8 7.5 18.7 17.5 23.4 5.5 2.6 11.4 3.6 17.5 3.6 8.4 0 16.3-1.5 23.9-5.1.8-.4 1-.9.9-1.7-.6-2.9-1.1-5.8-1.6-8.7-.3-1.7-.3-1.7-2-1.1-3.2 1.2-6.4 2.4-9.7 3-4.6.9-9.3 1.3-14 .8-3.5-.4-6.8-1.3-9.7-3.2-5.2-3.2-7.4-8.2-7.9-14.1-.1-.9.3-1.1 1.2-1.1h43.9c.8 0 1.3-.1 1.5-1.1.8-4.8 1.1-9.6.2-14.4-2.1-9.6-7.9-16.3-17.6-19.2m4.6 23.4c0 .9-.2 1.2-1.1 1.2h-31c-1.1 0-1.5-.1-1.2-1.4 1.6-6.1 4.6-10.9 11-12.6 6.8-1.8 13.3-.9 18.6 4.2 2.5 2.3 3.5 5.3 3.7 8.6m-16.9 2.1h15.5zh-11.4c3.8-.1 7.6 0 11.4 0m142.7 31.6c0-1.2-.3-1.6-1.6-1.6-3.4.1-4.7-1.2-5-4.6v-1.8c-.1-10.2.4-20.5-.3-30.7-.5-7.8-4.1-13.7-11.3-17-5.3-2.5-10.9-3.1-16.6-3.1-4.1-.1-8.1.2-12.2.9-4.3.8-8.6 2-12.6 3.8-.5.2-1 .5-.9 1.2.6 3.2 1.3 6.4 1.9 9.6.1.6.3.8.9.5 4.5-2.3 9.2-3.5 14.2-4.1s10-.8 14.8.9c3.8 1.3 6.3 3.9 7.1 7.9.5 2.5.3 5 .3 7.6 0 .9-.4.7-.9.4-8.3-4.4-17-5.4-26-3.2-5.5 1.3-10.4 3.9-13.8 8.6-3 4.1-3.9 8.7-3.6 13.6.5 7.3 3.6 13.2 10.2 16.6 9.5 5 19.1 4.5 28.5-.3 3.6-1.8 6.4-4.5 8.2-8.3.5-.1.2.4.3.5-.2 1 .1 1.9.3 2.9.6 4.2 3.5 7 7.7 7.8 3.1.6 6.2.1 9.2-.5.9-.2 1.3-.6 1.2-1.5-.1-2 0-4 0-6.1m-21-16.8c.2 5.5-2.6 9.2-7.1 11.7-4.9 2.8-10.2 3.3-15.6 1.6-3.8-1.2-6.3-3.6-6.8-7.6-.6-4.3.6-7.9 4.4-10.4 3.2-2.1 6.8-2.6 10.5-2.6 4.6 0 8.9 1.3 13 3.4 1.2.6 1.9 1.3 1.6 2.7-.1.4 0 .8 0 1.2m-8.2 13.1-1.5.6zm-43.3 1.4c0-.9-.3-1.2-1.3-1.2-2.2.2-4.4.3-6.7 0-2.9-.5-4.6-2-5.2-4.9-.4-1.9-.5-3.7-.5-5.6v-66.2c0-2.7.3-2.4-2.3-2.4h-9.4c-2.7 0-2.7 0-2.7 2.6v67.4c0 3.8.5 7.5 1.7 11 1.8 5.1 5.1 8.6 10.4 9.8 5.2 1.3 10.4.5 15.6-.5.7-.1.8-.6.8-1.2-.1-2.9-.3-5.9-.4-8.8m-105.1-54.3c-6.4-3.1-12.9-2.9-19.3.1-3.8 1.8-6.7 4.6-8.4 8.5 0-.3 0-.5-.1-.8 0-4.6-3-8.3-7.5-9.1-3.9-.7-7.7-.2-11.5.3-.7.1-.9.5-.8 1.1v5.8c0 .9-.4 1.9.2 2.6.5.6 1.6.2 2.4.3 2.6.3 3.6 1.1 4.1 3.7.2.9.2 1.8.2 2.8v47.3c0 1.2.3 1.6 1.5 1.6 3.8-.1 7.6-.1 11.4-.1 1.6 0 1.7 0 1.7-1.7V412c0-2.4-.2-4.7 0-7.1.5-4.8 2.4-9 6.5-11.8 5.7-4 11.6-3.5 17.5-.2 1.3.7 1.3.7 1.7-.7.8-2.7 1.6-5.5 2.4-8.2.6-2.8.7-2.9-2-4.2"/><path fill="#beda27" d="M251.4 143.3V167c0 .7.3 1.8-.9 1.9-1 .1-2.3.6-2.9-.8-3-6.1-8.3-10-13.8-13.6-5.3-3.5-10.9-6.3-15.9-10.3-6.1-4.9-11.5-10.5-13-18.5-1.1-6-1.4-12.2-2-18.3l-2.7-26.7c-.4-3.6-.6-7.3-.9-10.9-.1-.9 0-1.6 1.1-1.9 1-.2 1.8-.4 2.4.8 4.1 7.8 11 12.8 18.2 17.4 7.5 4.7 15.2 9.2 21.4 15.7 5.8 6.1 9.4 13 9.1 21.8-.4 6.4-.1 13.1-.1 19.7m18-.8c0-6.8.2-13.6-.1-20.4-.3-7.1 2.4-12.9 6.8-18.1 5.8-7 13.4-11.8 21-16.5 6.3-3.9 12.5-7.9 17.3-13.8 1.3-1.6 2.3-3.3 3.3-5.1.7-1.3 1.6-1.1 2.8-.9 1.5.3 1 1.3.9 2.2-1.1 11.7-2.2 23.4-3.4 35.1-.6 6.6-1.1 13.2-2.1 19.7-1.3 8.1-6.4 13.8-12.5 18.8-5.1 4.2-11 7.3-16.6 10.8-5.5 3.5-10.6 7.4-13.7 13.4-.7 1.3-1.7 1.1-2.8 1-1.4-.1-.9-1.3-.9-2z"/><path fill="#059a3d" d="M249.7 312v22.5c0 .7.5 1.8-.6 2-.7.2-1.1-.7-1.5-1.3-3.5-4.8-7.8-8.7-12.7-11.9-8.7-5.6-18-10.1-26.9-15.4-9.5-5.7-19.4-10.8-28.3-17.6-3.7-2.8-7.1-6-9.9-9.7-2.8-3.8-3.7-8.2-4-12.7-.6-8-1.5-16.1-2.3-24.1-.6-5.5-1-11-1.5-16.4-.2-2-.6-4-.4-6 0-.5-.2-1.2.4-1.5.7-.4 1.1.4 1.5.8.8.9 1.6 1.9 2.4 2.8 5.8 6.1 12.8 10.6 20 14.9 11.2 6.6 22.6 12.8 34 19.1 7.9 4.4 15.8 9.1 22.1 15.9 5 5.3 8.2 11.4 7.9 19.1-.4 6.4-.2 13-.2 19.5m21.4-.3c0-6.6.1-13.1 0-19.7-.2-7.3 2.9-13.3 7.7-18.4 6.1-6.5 13.6-11.1 21.2-15.5 9.7-5.5 19.6-11 29.3-16.4 7.3-4 14.3-8.5 20.9-13.5 2.2-1.7 4-3.9 6-5.9.6-.6 1.1-1.6 2.1-1.2 1.1.5 1.2 1.7.9 2.7-.7 3.4-.3 6.8-.9 10.2-.7 4-.9 8.2-1.4 12.2-1 9.1-1.4 18.2-2.8 27.3-.6 3.6-2.6 6.6-4.9 9.4-5.9 6.9-13.6 11.5-21.2 16.1-12.7 7.8-25.9 14.5-38.6 22.2-6.1 3.7-12.1 7.6-16.2 13.8-.4.5-.8 1.4-1.6 1.1s-.4-1.2-.4-1.9c-.1-7.6-.1-15.1-.1-22.5"/><path fill="#81c01e" d="M249.7 226.3v17.1c0 2.7-.4 5.4.6 8 .3.8.5 1.6-.7 1.8-.9.2-1.6-.5-1.7-1.2-1.1-5.1-5.4-7.4-8.8-10.4-5.5-4.8-12.2-8-18.5-11.6-5.3-3-10.6-5.9-15.9-9-10.6-6-21.4-11.7-30.4-20-5-4.6-8.6-10.2-8.6-17.6-.1-6.6-1.5-13.1-1.9-19.6-.3-5.1-1.3-10.1-1.7-15.2-.4-4.1-.2-8.3-2-12.3-.5-1.1-.3-2.8-.1-4.1.2-1.2 1.2-1.4 2.1-.4.5.7.9 1.4 1.2 2.2 1.7 3.9 4.7 6.5 8 9 3.4 2.7 6.9 5.4 10.5 7.7 5.4 3.3 10.8 6.6 16.4 9.7 6.2 3.3 12.2 7 18.3 10.4 6.9 3.7 13.7 7.6 19.8 12.5 6.2 5 11.6 10.5 13.3 18.7.2.8.2 1.7.3 2.5-.2 7.1-.2 14.5-.2 21.8m-89.4-91.6c0 .2-.1.3-.1.4 0 .2.2.2.3 0v-.2zm110.8 91.9c0-6.6.3-13.3-.1-19.9-.4-8.9 4.1-15.2 10.1-20.8 5.3-4.8 11.3-8.8 17.5-12.2s12.4-7 18.6-10.4c7.5-4.1 14.9-8.3 22.1-12.9 3.6-2.3 7.1-4.9 10.5-7.6 2.7-2.2 4.9-4.7 7.1-7.2.8-.9.4-2 1.2-2.9.7-.8 1.2-1.9 2.4-1.4 1.3.5.9 2.3.6 2.6-1.8 1.7-.8 3.9-1.1 5.8-1 6.1-1.4 12.3-2.2 18.5-.9 7.4-1.3 14.8-2.6 22.1-.4 2.1 0 4.2-.3 6.3-.8 4.7-3.1 8.7-6.3 12.2-4.9 5.3-10.8 9.4-17 13.3-7.1 4.5-14.5 8.3-21.7 12.6-5.9 3.6-12.2 6.7-18.1 10.3-5.6 3.4-11.1 6.9-15.6 11.7-1.2 1.3-2.3 2.7-3.2 4.3-.3.6-.7 1.4-1.5 1.2-.7-.2-.4-1.1-.4-1.7z"/></svg>