<?xml version="1.0" encoding="utf-8"?>
<!-- Generator: Adobe Illustrator 22.1.0, SVG Export Plug-In . SVG Version: 6.00 Build 0)  -->
<svg version="1.1" id="Layer_1" xmlns="http://www.w3.org/2000/svg" xmlns:xlink="http://www.w3.org/1999/xlink" x="0px" y="0px"
	 viewBox="0 0 512 512" style="enable-background:new 0 0 512 512;" xml:space="preserve">
<style type="text/css">
	.st0{fill:#076543;}
	.st1{fill:#BEDA27;}
	.st2{fill:#4D8169;}
	.st3{fill:#059A3D;}
	.st4{fill:#81C01E;}
</style>
<g>
	<path class="st0" d="M148.1,388.7c1.5,0,1.5-0.1,1.3-1.5c0-0.2-0.1-0.3-0.1-0.5c-0.6-6.9-3.4-12.8-8.1-17.8
		c-7.3-7.8-16.7-11.1-27.1-12.1c-4.3-0.4-8.6-0.3-12.8,0.2c-6.8,0.8-13.1,2.9-18.9,6.5c-11.3,7.1-16.7,17.7-18.3,30.6
		c-0.6,5.1-0.5,10.2,0.2,15.2c1.2,8.4,4.2,16.1,10,22.4c7,7.7,16,11.6,26.1,13c7.9,1.1,15.8,0.7,23.5-1.5
		c7.1-2.1,13.3-5.6,18.2-11.2c4.5-5.2,6.8-11.2,7.4-18c0.1-0.9-0.4-0.9-1-0.9c-4.5,0-9,0-13.5,0c-0.7,0-1,0.2-1.1,1
		c-1.7,8.2-6.7,13.4-14.7,15.6c-5.7,1.5-11.5,1.7-17.4,0.4c-8.4-1.9-14.6-6.6-18.1-14.5c-4.1-9.2-4.1-18.8-0.5-28.2
		c2.5-6.5,7-11.1,13.3-13.9c3.1-1.4,6.4-2.1,9.7-2.4c5.4-0.5,10.8,0.1,15.8,2.1c6.6,2.6,10.3,7.7,11.8,14.5c0.2,0.9,0.6,1.1,1.4,1.1
		c2.1,0,4.3,0,6.4,0c0,0,0,0,0,0C143.8,388.7,145.9,388.7,148.1,388.7z"/>
	<path class="st0" d="M457,405.8c0-4.3-0.5-8.6-1.7-12.7c-2.2-7.3-6.9-12.3-14.4-14.3c-3.8-1-7.6-1.3-11.5-1
		c-8.1,0.7-14.9,3.6-19.6,10.8c-0.1-0.9-0.3-1.6-0.3-2.3c-0.4-3.8-3.4-6.9-7.1-7.7c-3.8-0.8-7.6-0.3-11.4,0.3c-0.8,0.1-1,0.5-1,1.3
		c0,2.1,0,4.1,0,6.2c0,2.2,0,2.2,2.2,2.4c2.8,0.2,4.1,1.3,4.4,4.2c0.1,1.3,0.2,2.7,0.2,4c0,14.9,0,29.8,0,44.6c0,0.4,0,0.8,0,1.3
		c0,0.8,0.2,1.2,1.2,1.1c3.7-0.3,7.4-0.1,11.1-0.1c2.5,0,2.1,0.2,2.1-2.2c0-11.8-0.1-23.5,0-35.3c0.1-5.4,2.3-9.8,6.5-13.2
		c4-3.2,8.6-4.1,13.5-3.3c5.2,0.8,8.7,3.7,10.2,8.9c0.8,2.9,1.1,5.9,1.1,9c0,11.7-0.1,23.4,0,35.1c0,0.9,0.2,1.2,1.2,1.2
		c3.8,0,7.6-0.3,11.4,0c1.8,0.1,1.8,0.1,1.8-1.8C457,429.9,457,417.8,457,405.8z"/>
	<path class="st0" d="M253,379.3c-7.4-2.2-14.8-2.3-22.2-0.2c-8.6,2.4-15,7.4-18.9,15.4c-3.7,7.5-4.3,15.6-3,23.7
		c1.7,10.8,7.5,18.7,17.5,23.4c5.5,2.6,11.4,3.6,17.5,3.6c8.4,0,16.3-1.5,23.9-5.1c0.8-0.4,1-0.9,0.9-1.7c-0.6-2.9-1.1-5.8-1.6-8.7
		c-0.3-1.7-0.3-1.7-2-1.1c-3.2,1.2-6.4,2.4-9.7,3c-4.6,0.9-9.3,1.3-14,0.8c-3.5-0.4-6.8-1.3-9.7-3.2c-5.2-3.2-7.4-8.2-7.9-14.1
		c-0.1-0.9,0.3-1.1,1.2-1.1c7.3,0,14.6,0,21.9,0c7.3,0,14.7,0,22,0c0.8,0,1.3-0.1,1.5-1.1c0.8-4.8,1.1-9.6,0.2-14.4
		C268.5,388.9,262.7,382.2,253,379.3z M257.6,402.7c0,0.9-0.2,1.2-1.1,1.2c-5.2,0-10.4,0-15.7,0c-5.1,0-10.2,0-15.3,0
		c-1.1,0-1.5-0.1-1.2-1.4c1.6-6.1,4.6-10.9,11-12.6c6.8-1.8,13.3-0.9,18.6,4.2C256.4,396.4,257.4,399.4,257.6,402.7z M240.7,404.8
		c5.2,0,10.4,0,15.5,0C251,404.8,245.8,404.8,240.7,404.8c-3.8,0-7.6,0-11.4,0C233.1,404.7,236.9,404.8,240.7,404.8z"/>
	<path class="st0" d="M383.4,436.4c0-1.2-0.3-1.6-1.6-1.6c-3.4,0.1-4.7-1.2-5-4.6c0-0.6,0-1.2,0-1.8c-0.1-10.2,0.4-20.5-0.3-30.7
		c-0.5-7.8-4.1-13.7-11.3-17c-5.3-2.5-10.9-3.1-16.6-3.1c-4.1-0.1-8.1,0.2-12.2,0.9c-4.3,0.8-8.6,2-12.6,3.8c-0.5,0.2-1,0.5-0.9,1.2
		c0.6,3.2,1.3,6.4,1.9,9.6c0.1,0.6,0.3,0.8,0.9,0.5c4.5-2.3,9.2-3.5,14.2-4.1c5-0.6,10-0.8,14.8,0.9c3.8,1.3,6.3,3.9,7.1,7.9
		c0.5,2.5,0.3,5,0.3,7.6c0,0.9-0.4,0.7-0.9,0.4c-8.3-4.4-17-5.4-26-3.2c-5.5,1.3-10.4,3.9-13.8,8.6c-3,4.1-3.9,8.7-3.6,13.6
		c0.5,7.3,3.6,13.2,10.2,16.6c9.5,5,19.1,4.5,28.5-0.3c3.6-1.8,6.4-4.5,8.2-8.3c0.5-0.1,0.2,0.4,0.3,0.5c-0.2,1,0.1,1.9,0.3,2.9
		c0.6,4.2,3.5,7,7.7,7.8c3.1,0.6,6.2,0.1,9.2-0.5c0.9-0.2,1.3-0.6,1.2-1.5C383.3,440.5,383.4,438.5,383.4,436.4z M362.4,419.6
		c0.2,5.5-2.6,9.2-7.1,11.7c-4.9,2.8-10.2,3.3-15.6,1.6c-3.8-1.2-6.3-3.6-6.8-7.6c-0.6-4.3,0.6-7.9,4.4-10.4
		c3.2-2.1,6.8-2.6,10.5-2.6c4.6,0,8.9,1.3,13,3.4c1.2,0.6,1.9,1.3,1.6,2.7C362.3,418.8,362.4,419.2,362.4,419.6z M354.2,432.7
		c-0.5,0.2-1,0.4-1.5,0.6C353.2,433.1,353.7,432.9,354.2,432.7z"/>
	<path class="st0" d="M310.9,434.1c0-0.9-0.3-1.2-1.3-1.2c-2.2,0.2-4.4,0.3-6.7,0c-2.9-0.5-4.6-2-5.2-4.9c-0.4-1.9-0.5-3.7-0.5-5.6
		c0-22.1,0-44.2,0-66.2c0-2.7,0.3-2.4-2.3-2.4c-3.1,0-6.2,0-9.4,0c-2.7,0-2.7,0-2.7,2.6c0,11.3,0,22.5,0,33.8c0,11.2,0,22.4,0,33.6
		c0,3.8,0.5,7.5,1.7,11c1.8,5.1,5.1,8.6,10.4,9.8c5.2,1.3,10.4,0.5,15.6-0.5c0.7-0.1,0.8-0.6,0.8-1.2C311.2,440,311,437,310.9,434.1
		z"/>
	<path class="st0" d="M205.8,379.8c-6.4-3.1-12.9-2.9-19.3,0.1c-3.8,1.8-6.7,4.6-8.4,8.5c0-0.3,0-0.5-0.1-0.8c0-4.6-3-8.3-7.5-9.1
		c-3.9-0.7-7.7-0.2-11.5,0.3c-0.7,0.1-0.9,0.5-0.8,1.1c0,1.9,0,3.9,0,5.8c0,0.9-0.4,1.9,0.2,2.6c0.5,0.6,1.6,0.2,2.4,0.3
		c2.6,0.3,3.6,1.1,4.1,3.7c0.2,0.9,0.2,1.8,0.2,2.8c0,15.8,0,31.5,0,47.3c0,1.2,0.3,1.6,1.5,1.6c3.8-0.1,7.6-0.1,11.4-0.1
		c1.6,0,1.7,0,1.7-1.7c0-10.1,0-20.1,0-30.2c0-2.4-0.2-4.7,0-7.1c0.5-4.8,2.4-9,6.5-11.8c5.7-4,11.6-3.5,17.5-0.2
		c1.3,0.7,1.3,0.7,1.7-0.7c0.8-2.7,1.6-5.5,2.4-8.2C208.4,381.2,208.5,381.1,205.8,379.8z"/>
</g>
<g>
	<path class="st1" d="M251.4,143.3c0,7.9,0,15.8,0,23.7c0,0.7,0.3,1.8-0.9,1.9c-1,0.1-2.3,0.6-2.9-0.8c-3-6.1-8.3-10-13.8-13.6
		c-5.3-3.5-10.9-6.3-15.9-10.3c-6.1-4.9-11.5-10.5-13-18.5c-1.1-6-1.4-12.2-2-18.3c-0.9-8.9-1.8-17.8-2.7-26.7
		c-0.4-3.6-0.6-7.3-0.9-10.9c-0.1-0.9,0-1.6,1.1-1.9c1-0.2,1.8-0.4,2.4,0.8c4.1,7.8,11,12.8,18.2,17.4c7.5,4.7,15.2,9.2,21.4,15.7
		c5.8,6.1,9.4,13,9.1,21.8C251.1,130,251.4,136.7,251.4,143.3z"/>
	<path class="st1" d="M269.4,142.5c0-6.8,0.2-13.6-0.1-20.4c-0.3-7.1,2.4-12.9,6.8-18.1c5.8-7,13.4-11.8,21-16.5
		c6.3-3.9,12.5-7.9,17.3-13.8c1.3-1.6,2.3-3.3,3.3-5.1c0.7-1.3,1.6-1.1,2.8-0.9c1.5,0.3,1,1.3,0.9,2.2c-1.1,11.7-2.2,23.4-3.4,35.1
		c-0.6,6.6-1.1,13.2-2.1,19.7c-1.3,8.1-6.4,13.8-12.5,18.8c-5.1,4.2-11,7.3-16.6,10.8c-5.5,3.5-10.6,7.4-13.7,13.4
		c-0.7,1.3-1.7,1.1-2.8,1c-1.4-0.1-0.9-1.3-0.9-2C269.4,158.8,269.4,150.6,269.4,142.5z"/>

	<path class="st3" d="M249.7,312c0,7.5,0,15,0,22.5c0,0.7,0.5,1.8-0.6,2c-0.7,0.2-1.1-0.7-1.5-1.3c-3.5-4.8-7.8-8.7-12.7-11.9
		c-8.7-5.6-18-10.1-26.9-15.4c-9.5-5.7-19.4-10.8-28.3-17.6c-3.7-2.8-7.1-6-9.9-9.7c-2.8-3.8-3.7-8.2-4-12.7
		c-0.6-8-1.5-16.1-2.3-24.1c-0.6-5.5-1-11-1.5-16.4c-0.2-2-0.6-4-0.4-6c0-0.5-0.2-1.2,0.4-1.5c0.7-0.4,1.1,0.4,1.5,0.8
		c0.8,0.9,1.6,1.9,2.4,2.8c5.8,6.1,12.8,10.6,20,14.9c11.2,6.6,22.6,12.8,34,19.1c7.9,4.4,15.8,9.1,22.1,15.9
		c5,5.3,8.2,11.4,7.9,19.1C249.5,298.9,249.7,305.5,249.7,312z"/>
	<path class="st3" d="M271.1,311.7c0-6.6,0.1-13.1,0-19.7c-0.2-7.3,2.9-13.3,7.7-18.4c6.1-6.5,13.6-11.1,21.2-15.5
		c9.7-5.5,19.6-11,29.3-16.4c7.3-4,14.3-8.5,20.9-13.5c2.2-1.7,4-3.9,6-5.9c0.6-0.6,1.1-1.6,2.1-1.2c1.1,0.5,1.2,1.7,0.9,2.7
		c-0.7,3.4-0.3,6.8-0.9,10.2c-0.7,4-0.9,8.2-1.4,12.2c-1,9.1-1.4,18.2-2.8,27.3c-0.6,3.6-2.6,6.6-4.9,9.4
		c-5.9,6.9-13.6,11.5-21.2,16.1c-12.7,7.8-25.9,14.5-38.6,22.2c-6.1,3.7-12.1,7.6-16.2,13.8c-0.4,0.5-0.8,1.4-1.6,1.1
		c-0.8-0.3-0.4-1.2-0.4-1.9C271.1,326.6,271.1,319.1,271.1,311.7C271.1,311.7,271.1,311.7,271.1,311.7z"/>
	<path class="st4" d="M249.7,226.3c0,5.7,0,11.4,0,17.1c0,2.7-0.4,5.4,0.6,8c0.3,0.8,0.5,1.6-0.7,1.8c-0.9,0.2-1.6-0.5-1.7-1.2
		c-1.1-5.1-5.4-7.4-8.8-10.4c-5.5-4.8-12.2-8-18.5-11.6c-5.3-3-10.6-5.9-15.9-9c-10.6-6-21.4-11.7-30.4-20c-5-4.6-8.6-10.2-8.6-17.6
		c-0.1-6.6-1.5-13.1-1.9-19.6c-0.3-5.1-1.3-10.1-1.7-15.2c-0.4-4.1-0.2-8.3-2-12.3c-0.5-1.1-0.3-2.8-0.1-4.1
		c0.2-1.2,1.2-1.4,2.1-0.4c0.5,0.7,0.9,1.4,1.2,2.2c1.7,3.9,4.7,6.5,8,9c3.4,2.7,6.9,5.4,10.5,7.7c5.4,3.3,10.8,6.6,16.4,9.7
		c6.2,3.3,12.2,7,18.3,10.4c6.9,3.7,13.7,7.6,19.8,12.5c6.2,5,11.6,10.5,13.3,18.7c0.2,0.8,0.2,1.7,0.3,2.5
		C249.7,211.6,249.7,219,249.7,226.3z M160.3,134.7c0,0.2-0.1,0.3-0.1,0.4c0,0.2,0.2,0.2,0.3,0c0-0.1,0-0.2,0-0.2
		C160.5,134.9,160.4,134.8,160.3,134.7z"/>
	<path class="st4" d="M271.1,226.6c0-6.6,0.3-13.3-0.1-19.9c-0.4-8.9,4.1-15.2,10.1-20.8c5.3-4.8,11.3-8.8,17.5-12.2
		c6.2-3.4,12.4-7,18.6-10.4c7.5-4.1,14.9-8.3,22.1-12.9c3.6-2.3,7.1-4.9,10.5-7.6c2.7-2.2,4.9-4.7,7.1-7.2c0.8-0.9,0.4-2,1.2-2.9
		c0.7-0.8,1.2-1.9,2.4-1.4c1.3,0.5,0.9,2.3,0.6,2.6c-1.8,1.7-0.8,3.9-1.1,5.8c-1,6.1-1.4,12.3-2.2,18.5c-0.9,7.4-1.3,14.8-2.6,22.1
		c-0.4,2.1,0,4.2-0.3,6.3c-0.8,4.7-3.1,8.7-6.3,12.2c-4.9,5.3-10.8,9.4-17,13.3c-7.1,4.5-14.5,8.3-21.7,12.6
		c-5.9,3.6-12.2,6.7-18.1,10.3c-5.6,3.4-11.1,6.9-15.6,11.7c-1.2,1.3-2.3,2.7-3.2,4.3c-0.3,0.6-0.7,1.4-1.5,1.2
		c-0.7-0.2-0.4-1.1-0.4-1.7C271.1,242.5,271.1,234.6,271.1,226.6z"/>
</g>
</svg>
