<?xml version="1.0" encoding="utf-8"?>
<!-- Generator: Adobe Illustrator 22.1.0, SVG Export Plug-In . SVG Version: 6.00 Build 0)  -->
<svg version="1.1" id="Layer_1" xmlns="http://www.w3.org/2000/svg" xmlns:xlink="http://www.w3.org/1999/xlink" x="0px" y="0px"
	 viewBox="0 0 512 512" style="enable-background:new 0 0 512 512;" xml:space="preserve">
<style type="text/css">
	.st0{fill:#3FB713;}
	.st1{fill:#F1F3F7;}
	.st2{fill:#FCFCFD;}
	.st3{fill:#DEDEDF;}
	.st4{fill:#BDBDBE;}
</style>
<circle class="st0" cx="258.5" cy="258.5" r="170.5"/>
<polygon class="st1" points="409,188.3 258.5,110.9 108,188.3 "/>
<polygon class="st2" points="172.7,172.7 258.5,128.6 344.3,172.7 "/>
<g>
	<rect x="128.2" y="188.3" class="st3" width="260.6" height="15.2"/>
	<rect x="128.2" y="371.6" class="st3" width="260.6" height="15.2"/>
</g>
<g>
	<rect x="114.8" y="386.1" class="st4" width="287.4" height="15.2"/>
	<path class="st4" d="M135,203.8v9.1c0,6.1,5,11.1,11.1,11.1h38.6c6.1,0,11.1-5,11.1-11.1v-9.1H135z"/>
	<path class="st4" d="M195.8,371.6v-9.1c0-6.1-5-11.1-11.1-11.1h-38.6c-6.1,0-11.1,5-11.1,11.1v9.1H195.8z"/>
</g>
<rect x="145.7" y="224" class="st3" width="39.7" height="127.6"/>
<g>
	<path class="st4" d="M228.5,203.8v9.1c0,6.1,5,11.1,11.1,11.1h38.8c6.1,0,11.1-5,11.1-11.1v-9.1H228.5z"/>
	<path class="st4" d="M289.4,371.6v-9.1c0-6.1-5-11.1-11.1-11.1h-38.8c-6.1,0-11.1,5-11.1,11.1v9.1H289.4z"/>
</g>
<rect x="239" y="224" class="st3" width="39.7" height="127.6"/>
<g>
	<path class="st4" d="M321.8,203.8v9.1c0,6.1,5,11.1,11.1,11.1h38.8c6.1,0,11.1-5,11.1-11.1v-9.1H321.8z"/>
	<path class="st4" d="M382.7,371.6v-9.1c0-6.1-5-11.1-11.1-11.1H333c-6.1,0-11.1,5-11.1,11.1v9.1H382.7z"/>
</g>
<rect x="332.5" y="224" class="st3" width="39.7" height="127.6"/>
</svg>
