<?xml version="1.0" encoding="utf-8"?>
<!-- Generator: Adobe Illustrator 22.1.0, SVG Export Plug-In . SVG Version: 6.00 Build 0)  -->
<svg version="1.1" id="Layer_1" xmlns="http://www.w3.org/2000/svg" xmlns:xlink="http://www.w3.org/1999/xlink" x="0px" y="0px"
	 viewBox="0 0 512 512" style="enable-background:new 0 0 512 512;" xml:space="preserve">
<style type="text/css">
	.st0{fill:#004C92;}
</style>
<g>
	<path class="st0" d="M272.4,88.8c5.8,0,11.7,0,17.5,0c37.2,0.4,66.7,35.4,59.2,71.7c-4.5,22-11.2,43.5-17.1,65.1
		c-16.6,60.8-33.3,121.6-49.9,182.5c-1,3.8-2.5,5.5-6.7,5.4c-16.3-0.6-32.7,0.2-48.9-1.3c-29.1-2.7-46.8-23-48.2-52.4
		c-0.8-17.7,4.2-34.2,8.6-51c14.4-54.5,28.9-109,43.4-163.5c4.6-17.4,9.3-34.7,13.8-52.1c0.9-3.5,2.6-4.4,5.9-4.3
		C257.4,89,264.9,88.9,272.4,88.8C272.4,88.8,272.4,88.8,272.4,88.8z M249.9,401c6,0,12-0.2,18,0.1c3.8,0.2,5.4-1.4,6.2-4.8
		c1.1-4.7,2.4-9.3,3.7-14c20-72.7,40-145.4,59.9-218.1c8.7-31.6-14.8-62.7-47.6-63.2c-9.2-0.2-18.3-0.2-27.5,0
		c-10.4,0.2-8.8-2.3-12,9.5c-9.3,34.7-18.5,69.5-27.7,104.2c-9.4,35.6-19.2,71-28.2,106.7c-2.9,11.5-5.4,23.5-5.6,35.3
		c-0.4,24.1,11.7,38.2,35.4,42.8"/>
	<path class="st0" d="M165.8,88.9c20.3,0,40.6,0,61,0c7.5,0,9.6,2.6,7.6,10c-13.2,49.3-26.5,98.6-39.7,148
		c-4.7,17.5-9.4,35-14.1,52.5c-2.3,8.5-2.6,8.7-11.7,8.7c-26,0-52,0-77.9,0c-20.3,0-31.7-14.5-26.4-34.3
		c9.1-33.6,18.6-67,27.9-100.5c4.9-17.8,9.8-35.6,14.7-53.4c0.4-1.6,0.8-3.2,1.1-4.9c1.3-7-0.7-10.9-7.4-13.2
		c-4-1.4-5.8-3.7-5.1-7.8c0.7-4.2,3.9-4.8,7.5-4.8 M119.5,101.7c-0.8,7.7-0.6,15-2.5,21.7c-13.8,50.7-28,101.3-42,152
		c-3.6,13,1.8,20.3,15,20.3c25.2,0.1,50.3,0,75.5,0.1c3.7,0,5.3-1.3,6.2-4.8c13.6-50.8,27.2-101.6,40.9-152.3
		c3.3-12.2,6.5-24.3,9.9-37C187.3,101.7,152.8,101.7,119.5,101.7z"/>
	<path class="st0" d="M288.7,413.7c4.4-16.3,8.5-31.5,12.6-46.8c13.7-50.4,27.3-100.8,41-151.3c1.4-5.1,2.6-10.4,4.3-15.4
		c0.6-1.6,2.7-3.9,4-3.9c18.3,0.3,36.6,0.6,54.9,1.7c5.2,0.3,10.8,2.7,15.3,5.6c25.7,16.7,35.1,38.4,28.1,67
		c-6.4,26-13.1,52-20.4,77.7c-3.1,11-7.8,21.6-12.2,32.2c-8,19-23.3,28.5-43,31.4c-7.9,1.2-15.9,1.3-23.9,1.4
		c-18.3,0.2-36.6,0.2-55,0.2C292.8,413.7,291.2,413.7,288.7,413.7z M303.3,400.8c2,0.2,3.1,0.4,4.3,0.4c19-0.1,38,0.2,56.9-0.5
		c7.2-0.3,14.4-2.5,21.3-4.9c8.2-2.9,15-8.3,18.7-16.4c4.6-9.9,9.4-20,12.4-30.4c7.8-27.2,14.3-54.7,21.9-81.9
		c8.8-31.5-18.7-58.2-43-58.1c-11.8,0-23.6-0.3-35.5-0.8c-4-0.2-5.4,1.6-6.4,5.2c-13.5,50.3-27.2,100.5-40.8,150.8
		C310,376.1,306.7,388.1,303.3,400.8z"/>
</g>
</svg>
