<svg xmlns="http://www.w3.org/2000/svg" viewBox="0 0 512 512"><path fill="#004c92" d="M272.4 88.8h17.5c37.2.4 66.7 35.4 59.2 71.7-4.5 22-11.2 43.5-17.1 65.1-16.6 60.8-33.3 121.6-49.9 182.5-1 3.8-2.5 5.5-6.7 5.4-16.3-.6-32.7.2-48.9-1.3-29.1-2.7-46.8-23-48.2-52.4-.8-17.7 4.2-34.2 8.6-51 14.4-54.5 28.9-109 43.4-163.5 4.6-17.4 9.3-34.7 13.8-52.1.9-3.5 2.6-4.4 5.9-4.3 7.4.1 14.9 0 22.4-.1M249.9 401c6 0 12-.2 18 .1 3.8.2 5.4-1.4 6.2-4.8 1.1-4.7 2.4-9.3 3.7-14 20-72.7 40-145.4 59.9-218.1 8.7-31.6-14.8-62.7-47.6-63.2-9.2-.2-18.3-.2-27.5 0-10.4.2-8.8-2.3-12 9.5-9.3 34.7-18.5 69.5-27.7 104.2-9.4 35.6-19.2 71-28.2 106.7-2.9 11.5-5.4 23.5-5.6 35.3-.4 24.1 11.7 38.2 35.4 42.8M165.8 88.9h61c7.5 0 9.6 2.6 7.6 10-13.2 49.3-26.5 98.6-39.7 148l-14.1 52.5c-2.3 8.5-2.6 8.7-11.7 8.7H91c-20.3 0-31.7-14.5-26.4-34.3 9.1-33.6 18.6-67 27.9-100.5l14.7-53.4c.4-1.6.8-3.2 1.1-4.9 1.3-7-.7-10.9-7.4-13.2-4-1.4-5.8-3.7-5.1-7.8.7-4.2 3.9-4.8 7.5-4.8m16.2 12.5c-.8 7.7-.6 15-2.5 21.7-13.8 50.7-28 101.3-42 152-3.6 13 1.8 20.3 15 20.3 25.2.1 50.3 0 75.5.1 3.7 0 5.3-1.3 6.2-4.8 13.6-50.8 27.2-101.6 40.9-152.3 3.3-12.2 6.5-24.3 9.9-37zm169.2 312c4.4-16.3 8.5-31.5 12.6-46.8 13.7-50.4 27.3-100.8 41-151.3 1.4-5.1 2.6-10.4 4.3-15.4.6-1.6 2.7-3.9 4-3.9 18.3.3 36.6.6 54.9 1.7 5.2.3 10.8 2.7 15.3 5.6 25.7 16.7 35.1 38.4 28.1 67-6.4 26-13.1 52-20.4 77.7-3.1 11-7.8 21.6-12.2 32.2-8 19-23.3 28.5-43 31.4-7.9 1.2-15.9 1.3-23.9 1.4-18.3.2-36.6.2-55 .2-1.6.2-3.2.2-5.7.2m14.6-12.9c2 .2 3.1.4 4.3.4 19-.1 38 .2 56.9-.5 7.2-.3 14.4-2.5 21.3-4.9 8.2-2.9 15-8.3 18.7-16.4 4.6-9.9 9.4-20 12.4-30.4 7.8-27.2 14.3-54.7 21.9-81.9 8.8-31.5-18.7-58.2-43-58.1-11.8 0-23.6-.3-35.5-.8-4-.2-5.4 1.6-6.4 5.2-13.5 50.3-27.2 100.5-40.8 150.8-3.1 11.9-6.4 23.9-9.8 36.6"/></svg>