<?xml version="1.0" encoding="utf-8"?>
<!-- Generator: Adobe Illustrator 22.1.0, SVG Export Plug-In . SVG Version: 6.00 Build 0)  -->
<svg version="1.1" id="Layer_1" xmlns="http://www.w3.org/2000/svg" xmlns:xlink="http://www.w3.org/1999/xlink" x="0px" y="0px"
	 viewBox="0 0 512 512" style="enable-background:new 0 0 512 512;" xml:space="preserve">
<style type="text/css">
	.st0{fill:#F16560;}
	.st1{fill:#E21E2E;}
</style>
<g>
	<g>
		<path class="st0" d="M304.4,276.8c0.5,0.7,1.3,1.3,2.2,1.3c1,0,1.8-0.5,2.3-1.2l42-72.7c1.7-3.1,1.8-6.8-0.1-10.1l-40.8-70.5
			c-1.9-3.3-5.6-5.6-9.8-5.6h-3.7c3.4,0,6,2.7,6,6c0,1-0.3,1.9-0.7,2.7l-37,63.4c-3.1,5.9-3.1,13.2,0.3,19.3L304.4,276.8z"/>
		<path class="st0" d="M237.2,238.6c0.4-0.8,0.5-1.7,0-2.6c-0.5-0.8-1.3-1.3-2.2-1.4h-84.1c-3.3,0.1-6.6,1.8-8.5,4.9l-40.8,70.7
			c-1.9,3.3-2,7.7,0,11.4l1.9,3c-1.7-2.7-0.7-6.4,2.2-8.2c0.8-0.5,1.8-0.6,2.7-0.6h73.4c6.6-0.3,13.1-3.7,16.6-9.8L237.2,238.6z"/>
		<path class="st0" d="M237.9,315.6c-0.9,0-1.8,0.6-2.3,1.5c-0.5,0.8-0.5,1.8-0.1,2.6l42,72.7c1.8,3,5.1,5.1,8.9,5.1l81.4-0.1
			c3.9,0,7.7-2.2,9.8-5.9l1.9-3c-1.7,2.7-5.4,3.7-8.3,1.9c-0.8-0.5-1.5-1.2-2.1-1.7L332.7,325c-3.5-5.5-10-9.4-17-9.4H237.9z"/>
	</g>
	<g>
		<path class="st1" d="M265,190.2l37-63.4c0.4-0.8,0.7-1.7,0.7-2.7c0-3.3-2.6-6-6-6h-78c-3.7,0-7.1,2-8.7,4.9l-42.1,72.7
			c-0.4,0.8-0.4,1.8,0,2.6c0.5,0.8,1.2,1.3,2.1,1.4l78.7-0.1c6.9,0,13.1,3.9,16.3,9.4l0.3,0.5C261.8,203.4,261.9,196,265,190.2z"/>
		<path class="st1" d="M181.8,315.8h-73.4c-0.9,0-1.9,0.1-2.7,0.6c-2.9,1.7-3.9,5.5-2.3,8.2l39.2,67.6c1.8,3.3,5.2,5.3,8.4,5.3l84,0
			c0.9,0,1.8-0.6,2.3-1.4c0.5-0.8,0.5-1.8,0.1-2.6L198,325.3c-3.4-5.8-3.1-13,0-18.8l0.3-0.6C194.9,312.2,188.4,315.5,181.8,315.8z"
			/>
		<path class="st1" d="M332.7,325l36.5,63.9c0.5,0.5,1.2,1.2,2.1,1.7c2.9,1.8,6.6,0.8,8.3-1.9l38.9-67.6c1.9-3.3,1.8-7.3,0.1-10.2
			l-41.9-72.7c-0.5-0.7-1.3-1.2-2.3-1.2c-1,0-1.8,0.4-2.3,1.1l-39.4,68.1c-3.4,6.1-9.9,9.3-16.3,9.4h-0.7
			C322.8,315.6,329.2,319.5,332.7,325z"/>
	</g>
</g>
</svg>
