<svg xmlns="http://www.w3.org/2000/svg" viewBox="0 0 512 512"><path fill="#008ad1" fill-rule="evenodd" d="M74.9 279.7h368.8v-57.1l-149.2 10.7c-11.6 11.2-27.4 18.1-44.8 18.1-14.1 0-27.1-4.5-37.8-12.2l-137 9.8zm186.5-169.6c35.6 0 64.4 28.9 64.4 64.4 0 35.6-28.9 64.4-64.4 64.4-35.6 0-64.4-28.9-64.4-64.4s28.8-64.4 64.4-64.4" clip-rule="evenodd"/><path fill="#1b4b9a" d="m191 310.4-26.9 42.9 29.4 52.1H145l-19-40.7v40.7H79v-95h47v36.9l20.9-36.9zm129.9 52.2v18.9l-12.7 5 15.9 18.7h-41.7L277 399c-14 5.7-27.2 8.6-39.7 8.6q-19.65 0-30.3-8.1c-7.1-5.4-10.6-11.9-10.6-19.5 0-6.1 2.1-10.8 6.3-14.3 4.2-3.4 10.4-6.3 18.8-8.4-11.9-5.3-17.9-12.5-17.9-21.5 0-7.8 4.2-14.1 12.7-18.8s20.2-7.1 35.1-7.1c13.4 0 23.9 2.3 31.6 7 7.7 4.6 11.6 10.6 11.6 17.8q0 11.25-14.1 20.1l15.9 17.8zm-69.5-19.7c5.1-4.1 7.6-8 7.6-11.7 0-1.6-.7-3.1-2.2-4.4s-3.5-2-6.3-2c-2.4 0-4.3.5-5.6 1.5s-1.9 2.6-1.9 4.6c0 4.3 2.8 8.4 8.4 12m10.1 43.3-14.6-15c-5.6 3.1-8.4 6.5-8.4 10.1 0 2.6.9 4.6 2.6 5.9 1.8 1.3 4.3 2 7.7 2 3.8 0 8-1 12.7-3m180-75.8v95h-47v-39.9h-14v39.9h-47.1v-95h47.1v34h14v-34z"/></svg>