<?xml version="1.0" encoding="utf-8"?>
<!-- Generator: Adobe Illustrator 22.1.0, SVG Export Plug-In . SVG Version: 6.00 Build 0)  -->
<svg version="1.1" id="Layer_1" xmlns="http://www.w3.org/2000/svg" xmlns:xlink="http://www.w3.org/1999/xlink" x="0px" y="0px"
	 viewBox="0 0 512 512" style="enable-background:new 0 0 512 512;" xml:space="preserve">
<style type="text/css">
	.st0{fill-rule:evenodd;clip-rule:evenodd;fill:#008AD1;}
	.st1{fill:#1B4B9A;}
</style>
<path class="st0" d="M74.9,279.7h368.8v-57.1l-149.2,10.7c-11.6,11.2-27.4,18.1-44.8,18.1c-14.1,0-27.1-4.5-37.8-12.2l-137,9.8
	V279.7z"/>
<path class="st0" d="M261.4,110.1c35.6,0,64.4,28.9,64.4,64.4c0,35.6-28.9,64.4-64.4,64.4c-35.6,0-64.4-28.9-64.4-64.4
	C197,139,225.8,110.1,261.4,110.1z"/>
<polygon class="st1" points="191,310.4 164.1,353.3 193.5,405.4 145,405.4 126,364.7 126,405.4 79,405.4 79,310.4 126,310.4 
	126,347.3 146.9,310.4 "/>
<path class="st1" d="M320.9,362.6v18.9l-12.7,5l15.9,18.7h-41.7l-5.4-6.2c-14,5.7-27.2,8.6-39.7,8.6c-13.1,0-23.2-2.7-30.3-8.1
	c-7.1-5.4-10.6-11.9-10.6-19.5c0-6.1,2.1-10.8,6.3-14.3c4.2-3.4,10.4-6.3,18.8-8.4c-11.9-5.3-17.9-12.5-17.9-21.5
	c0-7.8,4.2-14.1,12.7-18.8c8.5-4.7,20.2-7.1,35.1-7.1c13.4,0,23.9,2.3,31.6,7c7.7,4.6,11.6,10.6,11.6,17.8c0,7.5-4.7,14.2-14.1,20.1
	l15.9,17.8L320.9,362.6L320.9,362.6z M251.4,342.9c5.1-4.1,7.6-8,7.6-11.7c0-1.6-0.7-3.1-2.2-4.4c-1.5-1.3-3.5-2-6.3-2
	c-2.4,0-4.3,0.5-5.6,1.5c-1.3,1-1.9,2.6-1.9,4.6C243,335.2,245.8,339.3,251.4,342.9L251.4,342.9z M261.5,386.2l-14.6-15
	c-5.6,3.1-8.4,6.5-8.4,10.1c0,2.6,0.9,4.6,2.6,5.9c1.8,1.3,4.3,2,7.7,2C252.6,389.2,256.8,388.2,261.5,386.2z"/>
<polygon class="st1" points="441.5,310.4 441.5,405.4 394.5,405.4 394.5,365.5 380.5,365.5 380.5,405.4 333.4,405.4 333.4,310.4 
	380.5,310.4 380.5,344.4 394.5,344.4 394.5,310.4 "/>
</svg>
