<?xml version="1.0" encoding="utf-8"?>
<!-- Generator: Adobe Illustrator 22.1.0, SVG Export Plug-In . SVG Version: 6.00 Build 0)  -->
<svg version="1.1" id="Layer_1" xmlns="http://www.w3.org/2000/svg" xmlns:xlink="http://www.w3.org/1999/xlink" x="0px" y="0px"
	 viewBox="0 0 512 512" style="enable-background:new 0 0 512 512;" xml:space="preserve">
<style type="text/css">
	.st0{fill:#1FCA7C;}
</style>
<g>
	<path class="st0" d="M376.3,211.4c1-9.1,5-16.4,13.4-20.6c16.2-8.2,33.8,1.1,36.9,19.9c1.1,6.6,5.2,4.7,8.7,4.6
		c5.1-0.1,2.6-4.1,2.3-6.3c-2.8-20.2-22-33-43.8-29.5c-18.5,3-31.8,22-29.1,41.1c1.6,11.1,7.1,20.6,10.7,30.9
		c3.5,9.9,4.5,19.8-0.2,29.6c-4.1,8.4-16.3,15.5-23.7,13.8c-13.3-3-21.4-11.2-23-23.4c-1.9-14.3,3.4-24.8,15.6-31.2
		c1.9-0.4,3.8-0.8,5.8-1.3c4-0.9,2-4.1,2.4-6.3c0.4-2.5-0.5-3.9-3.3-2.8c-0.4,0.1-0.8,0.1-1.2,0.2c-5.5,0.1-10.3,2.1-14.6,5.4
		c0,0,0,0,0,0c-0.7,0.5-1.4,1.1-2.2,1.6l0,0c-2.1,1-3.9,2.5-4.9,4.7c0,0,0,0,0,0c-0.4,0.4-0.7,0.9-1.1,1.3l0,0
		c-0.3,0.4-0.6,0.8-0.9,1.2c-0.3,0.2-0.4,0.5-0.4,0.8c-9,11.6-9,30.6-0.1,42.4c0.1,1,0.5,1.8,1.5,2.2l0,0c0.4,0.4,0.7,0.8,1.1,1.3
		c0,0,0,0,0,0c1.1,2.2,2.7,3.7,4.9,4.7c0.6,0.5,1.2,0.9,1.9,1.4c0.6,0.4,1.1,0.7,1.7,1.1c0,0,0,0,0,0c3.1,2.7,6.9,3.7,10.9,4.4
		c21.6,3.7,38.6-6.9,43.4-27.4c2.9-12.5-0.5-24-5.8-35.2C378.5,231,375.1,221.7,376.3,211.4z"/>
	<path class="st0" d="M474.1,263.1c-0.8-15.2-8.7-26.5-23.2-31.8c-14.6-5.4-27.4-2.3-38.3,10.1c0-1.8-0.2-3.5,0-5.3
		c0.6-4.1-0.8-5.7-5.1-5.3c-3.6,0.3-6.1-0.2-6.1,5.1c0.3,34.7,0.2,69.4,0,104.1c0,4.5,1.1,5.8,5.6,5.8c4.5,0,5.6-1.2,5.6-5.7
		c-0.2-25.3-0.2-50.6-0.1-76c0.1-13.5,7.4-23,19.1-25.4c10.6-2.1,21,2,26.7,10.6c6.2,9.4,5.9,24.9-0.7,34.6
		c-5.7,8.3-16.1,12.2-26.3,10.2c-2-0.4-5.2-3.5-6.2,1.1c-0.8,3.8,0,7.2,4.8,7.9c8.7,1.2,17.1,0.8,25-3.5
		C469.6,291.7,474.9,278.6,474.1,263.1z"/>
	<path class="st0" d="M232.8,248.9c0.2-0.4,0.1-0.7-0.1-1c-1.3-9-6.4-14.9-14.9-17.5c-14.2-4.2-26.2-0.9-34.9,12.3
		c-5-9.2-12.8-13.2-22.2-13.9c-9.4-0.7-17.3,2.8-23.3,10.3c-1.5-2.8,0.6-5.7-1.6-7.8c-2-0.1-4-0.2-5.9-0.4c-3.1-0.4-4.1,0.8-4.1,4
		c0.2,20.7,0.2,41.4,0.3,62.1c0,0.8,0,1.5,0,2.3c0,0.4,0.1,0.8,0.1,1.2c9,3.2,10.7,2.1,10.7-6.4c0-12.4-0.1-24.7,0-37.1
		c0.1-11.3,8.3-18.7,20.3-18.8c11-0.1,16.4,5.7,16.8,17.8c0.1,1.8,0,3.6,0,5.4c0,12,0,23.9,0,35.9c0,1.6-0.9,4.2,1.8,4.2
		c3,0.1,6.2,1.3,9-1c0.1-15.4,0.1-30.9,0.2-46.3c1.2-2.9,1.8-6,3.9-8.5c5.7-6.9,13.2-8.4,21.4-7.1c8.9,1.3,11.1,8.4,12.5,15.9
		c0,15.4,0,30.7,0,46.1c8.1,3.4,10.8,1.9,10.8-5.9c0-1.8,0.1-3.6,0-5.3C233.2,275.8,234.7,262.3,232.8,248.9z"/>
	<path class="st0" d="M304.5,253.5c-0.1-10-4.3-17.7-13.9-21.7c-10.2-4.3-20.6-4.1-30.7,0.5c-4.9,2.2-8.5,5.9-10.6,10.9
		c-0.4,1-1.8,3.3,0.2,3.4c3.5,0.2,8,2.2,10.5-1.4c5.8-8.2,14-7.5,22.1-6.1c7.1,1.2,10.8,6.3,11.1,13.5c0.2,6.3-1.5,8.2-7.9,8.5
		c-7.5,0.3-15.1-0.7-22.6,0.8c-10.1,2.1-16.5,8.6-17.3,17.9c-0.9,9.8,4.4,18.6,14,21.9c12.2,4.2,23.5,2.7,33.1-7.4
		c0.5,1.3,0.8,1.7,0.7,2c-1.1,6.4,3.2,5.5,7.2,5.7c5.2,0.3,4-3.1,4-5.9C304.6,281.8,304.7,267.7,304.5,253.5z M270.2,294.6
		c-3.8,0-9.7-1.2-12.5-8.1c-3.5-8.6,1.5-16,11.4-17c7.3-0.7,14.7,1,22-1.2c2.2-0.7,2.1,1,2.3,2.4
		C295.5,284.5,286.9,294.5,270.2,294.6z"/>
	<path class="st0" d="M77.8,228.7c-20.7,0-36.5,16.4-36.5,37.8c0,21.1,15.6,37.1,36.3,37.1c19.9,0,36.2-14.1,36.5-37.2
		C114.1,244.9,98.5,228.7,77.8,228.7z M102.9,268.7c-1.4,15.5-10.7,25.7-26.1,26.5c-6,0.3-12-3.5-16.5-8.1
		c-10.1-10.5-10.2-30.8-0.2-41.5c4.7-5,10.3-7.3,17.6-7.4C93.1,238.1,104.4,251.9,102.9,268.7z"/>
</g>
</svg>
