<?xml version="1.0" encoding="utf-8"?>
<!-- Generator: Adobe Illustrator 22.1.0, SVG Export Plug-In . SVG Version: 6.00 Build 0)  -->
<svg version="1.1" id="Layer_1" xmlns="http://www.w3.org/2000/svg" xmlns:xlink="http://www.w3.org/1999/xlink" x="0px" y="0px"
	 viewBox="0 0 512 512" style="enable-background:new 0 0 512 512;" xml:space="preserve">
<style type="text/css">
	.st0{fill:#168ED0;}
	.st1{fill:#D2232A;}
</style>
<path class="st0" d="M483.6,285.4c0.1,0,0.3-0.1,0.4-0.1c0,2.9,0,5.8,0,8.7c-0.1,0-0.3-0.1-0.4-0.1
	C483.6,291.1,483.6,288.3,483.6,285.4z"/>
<g>
	<path class="st1" d="M289.8,72C254.6,174.2,220,275.1,184.9,377.1c39.4,23.2,80.4,27.1,122,9.9c49.5-20.5,79.5-58.6,84-112.1
		c5.7-67.4-26.7-113.9-88.1-142.2c6.5-18.9,12.9-38,19.8-56.9c0.7-1.9,4.5-3.6,6.9-3.7c27.3-0.2,54.7-0.5,82,0.1
		c17.9,0.4,30.1,15,30.2,35.1c0.1,45.2,0,90.5,0,135.7c0,52,0,104,0,156c0,24.5-13,37.7-37.3,37.7c-96.9,0.1-193.8,0.1-290.7,0
		c-24.3,0-36.8-12.4-36.8-36.8c-0.1-97.6-0.1-195.2,0-292.7c0-22.8,12.3-35.2,34.8-35.3c56.7-0.1,113.5,0,170.2,0
		C283.9,72,285.9,72,289.8,72z M239.5,127.7c-44.6-1.7-97.8,43.2-113.7,93.9c-17.2,54.8,7.2,113.8,35.1,134.1
		C187.1,279.9,213.2,204.2,239.5,127.7z"/>
	<path class="st1" d="M277.3,206.6c30.5,10.6,45.8,44.9,34.4,75.3c-10.8,28.8-44.3,45.1-72.2,34.4
		C252,279.8,264.6,243.2,277.3,206.6z"/>
</g>
</svg>
