<svg id="ideal_logo" xmlns="http://www.w3.org/2000/svg" viewBox="0 0 320.24 320.24"><defs><style>.cls-1{fill:#eea42d;}.cls-1,.cls-2,.cls-3{fill-rule:evenodd;}.cls-2{fill:#fff;}.cls-3{fill:#ec1c24;}</style></defs><title>oxxo_logo_sq</title><g id="oxxo"><path class="cls-1" d="M72.5,125.24A5.49,5.49,0,0,1,78,119.77h164.8a5.48,5.48,0,0,1,5.47,5.47V195.3a5.48,5.48,0,0,1-5.47,5.47H78a5.49,5.49,0,0,1-5.48-5.47V125.24Z"/><polygon class="cls-2" points="72.5 127.72 248.25 127.72 248.25 192.81 72.5 192.81 72.5 127.72 72.5 127.72"/><path class="cls-3" d="M221.45,144.63A14.6,14.6,0,1,0,236,159.22a14.62,14.62,0,0,0-14.59-14.59Z"/><path class="cls-3" d="M101.14,144.63a14.6,14.6,0,1,0,14.6,14.59,14.61,14.61,0,0,0-14.6-14.59Z"/><path class="cls-3" d="M220.3,131.78c-13.51-.31-19.86,8.35-29.08,19l-8.7,10.08,13.77,16.49c3.28,5.06-3,10.09-6.86,5.45l-12.74-15.19L164.29,182c-3.95,4.58-10.14-.54-6.79-5.56L171,160.82l-8.82-10.53,5.68-7,9,10.78,7.74-9c3.79-4.42,7.66-10.26,12.68-13.27H72.5v57h29.16c13.51,0,19.65-8.08,28.62-19l8.46-10.28-14.15-16.16c-3.39-5,2.75-10.16,6.74-5.61l13.08,14.89L156.48,138c3.85-4.67,10.15.3,6.92,5.4l-13.11,16,9.07,10.32-5.71,6.76-9-10.17-7.52,9.17c-3.69,4.5-7.43,10.23-12.38,13.36H248.25v-57Zm-96.1,27.44a23.06,23.06,0,1,1-23.06-23.06,23.11,23.11,0,0,1,23.06,23.06Zm97.25,23.06a23.06,23.06,0,1,1,23.05-23.06,23.11,23.11,0,0,1-23.05,23.06Z"/></g></svg>