<svg xmlns="http://www.w3.org/2000/svg" viewBox="0 0 320.24 320.24"><path fill="#eea42d" fill-rule="evenodd" d="M72.5 125.24a5.49 5.49 0 0 1 5.5-5.47h164.8a5.48 5.48 0 0 1 5.47 5.47v70.06a5.48 5.48 0 0 1-5.47 5.47H78a5.49 5.49 0 0 1-5.48-5.47v-70.06Z"/><path fill="#fff" fill-rule="evenodd" d="M72.5 127.72h175.75v65.09H72.5z"/><path fill="#ec1c24" fill-rule="evenodd" d="M221.45 144.63A14.6 14.6 0 1 0 236 159.22a14.62 14.62 0 0 0-14.59-14.59Zm-120.31 0a14.6 14.6 0 1 0 14.6 14.59 14.61 14.61 0 0 0-14.6-14.59m119.16-12.85c-13.51-.31-19.86 8.35-29.08 19l-8.7 10.08 13.77 16.49c3.28 5.06-3 10.09-6.86 5.45l-12.74-15.19-12.4 14.39c-3.95 4.58-10.14-.54-6.79-5.56l13.5-15.62-8.82-10.53 5.68-7 9 10.78 7.74-9c3.79-4.42 7.66-10.26 12.68-13.27H72.5v57h29.16c13.51 0 19.65-8.08 28.62-19l8.46-10.28-14.15-16.16c-3.39-5 2.75-10.16 6.74-5.61l13.08 14.89L156.48 138c3.85-4.67 10.15.3 6.92 5.4l-13.11 16 9.07 10.32-5.71 6.76-9-10.17-7.52 9.17c-3.69 4.5-7.43 10.23-12.38 13.36h123.5v-57Zm-96.1 27.44a23.06 23.06 0 1 1-23.06-23.06 23.11 23.11 0 0 1 23.06 23.06m97.25 23.06a23.06 23.06 0 1 1 23.05-23.06 23.11 23.11 0 0 1-23.05 23.06"/></svg>