<?xml version="1.0" encoding="utf-8"?>
<!-- Generator: Adobe Illustrator 22.1.0, SVG Export Plug-In . SVG Version: 6.00 Build 0)  -->
<svg version="1.1" id="Layer_1" xmlns="http://www.w3.org/2000/svg" xmlns:xlink="http://www.w3.org/1999/xlink" x="0px" y="0px"
	 viewBox="0 0 512 512" style="enable-background:new 0 0 512 512;" xml:space="preserve">
<style type="text/css">
	.st0{fill:#E91C24;}
</style>
<path class="st0" d="M297,343.8c-7.2,7.3-15,7.4-23.1,4.4c-8.9-3.3-13-10.8-14.1-19.6c-0.7-5.7-0.7-11.8,0.2-17.5
	c2.8-17.2,18.8-26.5,35.3-18.2c0.1-1.5,0.2-2.9,0.2-4.2c0-6.4,0.1-12.7,0-19.1c-0.1-2.8,0.9-3.9,3.6-3.9c3.6,0.1,7.3,0.1,10.9,0.1
	c2.2,0,3.1,1.1,3.1,3.3c-0.1,25.3,0,50.6,0,76c0,2.4-1.1,3.4-3.4,3.4c-2,0-4,0-6,0.1C300.4,348.9,297.5,348.7,297,343.8z
	 M295.4,318.6c0.1,0,0.1,0,0.2,0c0-2.4-0.2-4.7,0-7.1c0.6-5-2.5-6.6-6.2-7.4c-5-1.2-8.8,1-10.7,5.8c-0.6,1.6-1.1,3.4-1.3,5.1
	c-0.7,5.4-0.8,10.8,1.5,15.9c1.8,3.9,5.8,5.8,10.3,5.1c4.4-0.7,5.8-2.2,6.2-7.5C295.6,325.2,295.4,321.9,295.4,318.6z"/>
<path class="st0" d="M48.7,308.4c0-11.6,3.1-22.1,11.3-30.7c12.4-12.9,31.4-12.2,44.8-5.3c1,0.5,1.9,2.6,1.6,3.6
	c-1,3.4-2.4,6.6-3.9,9.8c-1,2.2-2.8,1.2-4.5,0.7c-4.5-1.1-9.1-2.9-13.6-2.6c-8.5,0.6-14.6,6.7-15.9,15.9c-0.9,5.8-1,12,0,17.8
	c2.1,12.4,12.9,18.5,24.9,14.9c1.7-0.5,3.4-1.2,4.9-2c2.5-1.4,4-0.6,5.1,1.7c0.7,1.4,1.3,2.8,1.8,4.2c3,7.2,2.6,7.9-4.5,10.5
	c-16,5.9-31.8,2.7-42-8.6C52.2,331.1,48.8,320.9,48.7,308.4z"/>
<path class="st0" d="M232.1,344.1c-10.9,11.2-32.2,6.2-36.3-12.3c-2-8.9-1.8-17.7,1.5-26.4c5.3-13.9,22.4-21,35.2-10.8
	c0.2-3.4,2.5-3.7,5.1-3.8c10.5-0.3,10.5-0.3,10.5,10.1c0,14.4-0.1,28.8,0.1,43.1c0.1,3.7-1.3,4.9-4.7,4.6c-1.6-0.1-3.3-0.1-4.9,0
	C235.4,348.9,232.5,348.6,232.1,344.1z M230.3,318.8c0.1,0,0.1,0,0.2,0c0-2.6-0.2-5.2,0-7.8c0.3-3.3-1.4-5-4-6.3
	c-4.9-2.3-10.6-0.5-12.1,4.8c-1.4,5-1.6,10.4-1.6,15.6c0,2.5,1.2,5.3,2.5,7.5c2.1,3.7,5.9,3.9,9.7,3.3c3.5-0.6,5.1-3.2,5.3-6.6
	C230.5,325.9,230.3,322.4,230.3,318.8z"/>
<path class="st0" d="M432.6,325.5c0.2,5.9,3.7,9.9,9.2,10.6c6.1,0.8,12-0.4,17.6-2.9c2.3-1,3.5-0.5,4.4,1.7
	c3.7,9.6,3.8,9.1-5.4,12.5c-7.6,2.8-15.6,3.3-23.7,1.6c-12.4-2.7-19.8-12.3-20.3-26.6c-0.1-4.1,0.2-8.3,1.1-12.2
	c2.4-9.8,8.2-17,18.4-19.4c9.9-2.3,19.4-1.5,26.8,6.5c6.7,7.2,7.8,16.3,7.3,25.8c-0.1,2.2-1.8,2.4-3.6,2.3c-9.3,0-18.6,0-27.9,0
	C435.1,325.4,433.8,325.5,432.6,325.5z M450.2,314.5c-0.1-4.5-1-8.3-4.9-10.5c-2.9-1.6-6-1.3-8.7,0.7c-3.2,2.4-4.4,5.7-4.5,9.8
	C438.4,314.5,444.2,314.5,450.2,314.5z"/>
<path class="st0" d="M341.7,325.3c0.3,6.2,3.8,10.1,9.3,10.8c5.9,0.8,11.5-0.3,16.9-2.7c2.8-1.2,4.3-0.7,5.3,2.2
	c2.9,8.5,4.2,8.1-5.4,11.7c-8,3-16.3,3.7-24.6,1.6c-11.8-3-19-12-19.8-24.9c-0.4-6.8,0.2-13.4,3.3-19.6
	c5.5-11.4,17.1-16.7,30.6-14.1c10.9,2.1,18.6,11.3,19.6,23.4c0.2,2.8,0.1,5.6,0.2,8.4c0.1,2.7-1.3,3.3-3.7,3.3
	c-9.2-0.1-18.4,0-27.6,0C344.4,325.3,343.2,325.3,341.7,325.3z M359.4,314.5c0-4.2-0.8-7.7-4.2-10.1c-2.8-2-6.1-1.9-8.9,0
	c-3.5,2.2-4.8,5.7-4.9,10.1C347.5,314.5,353.3,314.5,359.4,314.5z"/>
<path class="st0" d="M97.8,199.6c13.9,0,27.8,0,41.7,0c4.6,0,5.3,0.5,5.6,5.2c0.2,4.2,0.2,8.5,0,12.7c-0.3,5.3-0.6,5.5-5.9,5.5
	c-23.3,0-46.6,0-70,0c-4.6,0-9.2-0.1-13.8,0c-3.4,0.1-4.7-1.4-4.7-4.6c0.1-4.7,0.1-9.4,0-14.1c-0.1-3.4,1.4-4.8,4.9-4.8
	C69.8,199.7,83.8,199.6,97.8,199.6z"/>
<path class="st0" d="M97.9,157c14,0,28,0.1,42.1-0.1c3.4,0,5.1,1.1,5.1,4.5c0,4.8,0,9.6,0,14.5c0,3.3-1.5,4.4-4.8,4.4
	c-15.1-0.1-30.2-0.1-45.2-0.1c-13.1,0-26.2-0.1-39.2,0.1c-3.5,0-5-1.2-4.9-4.7c0.1-4.6-0.1-9.2,0-13.8c0.1-4.3,0.7-4.9,5-4.9
	C69.9,157,83.9,157,97.9,157z"/>
<path class="st0" d="M171.3,290.8c3.6,0,6.6,0,9.7,0c0.8,0,1.9-0.3,2.4,0.2c3.1,2.5,1.2,6.1,1.5,9.2c0.2,2.1-1.2,2.8-3.1,2.8
	c-3.3,0-6.6,0-9.9,0c-0.2,0.8-0.5,1.4-0.5,1.9c0,8.5-0.1,17,0.1,25.4c0.1,5.2,1.8,6.4,6.9,5.9c6.6-0.7,6.6-0.7,8.1,5.9
	c1,4.3,0.7,5-3.6,6.3c-5.7,1.7-11.5,2.2-17.4,0.8c-6-1.4-10.1-5.9-10.4-12.6c-0.5-9.6-0.5-19.3-0.7-28.9c0-1.4,0-2.8,0-4.2
	c-1-0.2-1.7-0.3-2.4-0.4c-2-0.4-5.5-0.5-5.7-1.2c-0.7-3.1-0.4-6.5-0.1-9.8c0.1-0.5,2.3-1.1,3.6-1.1c5.5-0.2,5.5-0.1,6.6-5.5
	c0.5-2.7,1.1-5.3,1.6-7.9c0.5-2.4,1.7-3.6,4.3-3.6c10.8,0,8.9-0.7,9.1,8.6C171.4,285.1,171.3,287.8,171.3,290.8z"/>
<path class="st0" d="M386.9,307.3c0-12.4,0.1-24.7-0.1-37.1c-0.1-3.5,1.2-4.6,4.4-4.6c3.2,0.1,6.3,0.2,9.5,0.1
	c2.9,0,3.7,1.4,3.7,4.2c-0.1,18.6-0.1,37.2-0.1,55.8c0,6.4-0.1,12.7,0,19.1c0.1,2.6-1,3.7-3.5,3.7c-3.3,0-6.6-0.1-9.9,0.1
	c-3.2,0.2-4.3-1-4.2-4.3C387,332.1,386.9,319.7,386.9,307.3z"/>
<path class="st0" d="M118,319.8c0-8.4,0.1-16.7-0.1-25.1c-0.1-2.6,0.9-3.8,3.3-3.8c3.5-0.1,7.1-0.1,10.6,0c2.5,0.1,3.7,1.2,3.7,4
	c-0.1,16.6-0.1,33.2,0,49.8c0,2.7-0.9,3.9-3.7,3.9c-3.4-0.1-6.8-0.1-10.2,0c-2.7,0.1-3.7-0.9-3.7-3.7
	C118.1,336.6,118,328.2,118,319.8z"/>
<path class="st0" d="M126.6,283.1c-5.3,0.1-9.7-4-9.8-9.1c-0.1-5,4.3-9.3,9.5-9.4c5.3-0.1,9.7,4,9.8,9.1
	C136.3,278.8,131.9,283.1,126.6,283.1z"/>
</svg>
