<svg xmlns="http://www.w3.org/2000/svg" viewBox="0 0 52 60"><path fill="#003087" d="M44.883 4.497C42.003 1.35 36.796 0 30.135 0h-19.33C9.44 0 8.282.95 8.07 2.239L.02 51.184c-.16.965.62 1.84 1.64 1.84h11.935l2.997-18.228-.093.57c.214-1.288 1.363-2.238 2.724-2.238h5.671c11.141 0 19.865-4.339 22.413-16.89q.113-.556.198-1.085-.483-.246 0 0c.759-4.64-.005-7.797-2.622-10.656m0 0C42.003 1.35 36.796 0 30.135 0h-19.33C9.44 0 8.282.95 8.07 2.239L.02 51.184c-.16.965.62 1.84 1.64 1.84h11.935l2.997-18.228-.093.57c.214-1.288 1.363-2.238 2.724-2.238h5.671c11.141 0 19.865-4.339 22.413-16.89q.113-.556.198-1.085-.483-.246 0 0c.759-4.64-.005-7.797-2.622-10.656"/><path fill="#009CDE" d="M46.87 15.349c-.058.356-.12.717-.195 1.09-2.51 12.595-11.1 16.951-22.07 16.951h-5.586c-1.34 0-2.472.954-2.68 2.247l-2.86 17.72-.812 5.027c-.138.848.533 1.616 1.41 1.616h9.908c1.172 0 2.17-.835 2.353-1.965l.097-.494 1.867-11.564.12-.639c.183-1.13 1.181-1.965 2.354-1.965h1.482c9.597 0 17.111-3.81 19.307-14.83.917-4.604.442-8.449-1.982-11.15-.735-.817-1.649-1.493-2.713-2.044"/><path fill="#012069" d="M45.123 14.84q-.582-.165-1.2-.299a23 23 0 0 0-1.273-.234c-1.527-.24-3.195-.354-4.986-.354H22.553a2.45 2.45 0 0 0-1.042.23 2.35 2.35 0 0 0-1.341 1.75l-3.212 19.77-.093.576c.21-1.3 1.357-2.26 2.714-2.26h5.657c11.11 0 19.81-4.381 22.35-17.054q.112-.56.198-1.096a14 14 0 0 0-2.09-.856 17 17 0 0 0-.571-.173"/></svg>