<svg xmlns="http://www.w3.org/2000/svg" viewBox="0 0 320.24 320.24"><path fill="#008ac9" d="M77.63 158.64c0-.9-.45-1.37-1.28-1.4h-4.42a1.55 1.55 0 0 0-1.61 1.76v7.95a1.59 1.59 0 0 0 1.78 1.71h4.05a1.31 1.31 0 0 0 1-.47 1.15 1.15 0 0 0 .43-.93Zm-13-1.12A7.12 7.12 0 0 1 66 153a5.8 5.8 0 0 1 1.69-1.09 5.1 5.1 0 0 1 2.07-.48h8.12c3.58 0 5.39 2 5.45 5.88v12a4.93 4.93 0 0 1-1.61 3.58 5.2 5.2 0 0 1-3.72 1.57h-7.68v8.62h-5.68v-25.56m28.92 9.95a.9.9 0 0 0 .45.79 1.47 1.47 0 0 0 1 .36h4.39c1 0 1.49-.38 1.52-1.15v-1.63c0-.89-.52-1.33-1.56-1.33H95a1.9 1.9 0 0 0-1.18.27 1.86 1.86 0 0 0-.3 1.24Zm7.36-9c0-.87-.48-1.29-1.52-1.26H88v-5.83h12.87c3.74.06 5.65 1.88 5.71 5.45v12.2a5.62 5.62 0 0 1-1.42 3.82 4.79 4.79 0 0 1-3.71 1.58h-7.81q-5.67-.06-5.76-5.2v-4.71c0-3.59 1.86-5.41 5.49-5.48h7.55zm21.57 18.78a1.82 1.82 0 0 0 1.15-.48 1.2 1.2 0 0 0 .46-.93v-1.38h-7.26a5.9 5.9 0 0 1-2.27-.37 5.2 5.2 0 0 1-1.8-1.2 5.88 5.88 0 0 1-1.61-4.27v-17.21h5.68v15.37c0 1.23.5 1.84 1.52 1.84h4a1.76 1.76 0 0 0 1.24-.47 1.22 1.22 0 0 0 .5-1v-15.74h5.63v25.39a7.13 7.13 0 0 1-1.44 4.53 4.9 4.9 0 0 1-3.88 1.75h-13.25v-5.83zm11.7-8.63h10.11c.92 0 1.4-.4 1.43-1.11V167a1.1 1.1 0 0 0-.13-.5q-.34-.66-.84-.66h-5a5.57 5.57 0 0 1-3.82-1.53 4.4 4.4 0 0 1-1.67-3.36v-4.35q.09-5.09 5.53-5.18h11.73v5.83h-9.94c-1.16 0-1.75.36-1.75 1.07v.57q0 1.11 1.8 1.11h5a4.7 4.7 0 0 1 3.41 1.53 5.2 5.2 0 0 1 1.48 3.58v4.25a5.6 5.6 0 0 1-1.65 3.58 4.5 4.5 0 0 1-1.58 1.21 6.4 6.4 0 0 1-2.24.32h-11.87v-5.84m27.04-1.16a.89.89 0 0 0 .46.79 1.46 1.46 0 0 0 1 .36h4.37c1 0 1.49-.38 1.52-1.15v-1.63c0-.89-.52-1.33-1.57-1.33h-4.32a1.9 1.9 0 0 0-1.17.27 1.86 1.86 0 0 0-.31 1.24Zm7.37-9q0-1.31-1.53-1.26h-11.42v-5.83h12.87c3.74.06 5.65 1.88 5.7 5.45v12.2a5.66 5.66 0 0 1-1.41 3.82 4.78 4.78 0 0 1-3.71 1.58h-7.78q-5.69-.06-5.76-5.2v-4.71c0-3.59 1.86-5.41 5.49-5.48h7.55zm10.24-10.36a4.8 4.8 0 0 1 1.75-3.79 6.54 6.54 0 0 1 4.34-1.48h3.61v5.63h-2.19q-1.8 0-1.83 1.71v1.23h4v5.84h-4v17.21h-5.68zm25.84 10.28v-.13a.9.9 0 0 0-.37-.74 1.62 1.62 0 0 0-1-.28h-4a1.72 1.72 0 0 0-1.23.44 1.22 1.22 0 0 0-.59 1v2.34Zm-7 8.25v.36a1.53 1.53 0 0 0 .37 1.1.81.81 0 0 0 .73.52h11.66v5.84H198a8.7 8.7 0 0 1-2.64-.32 4.8 4.8 0 0 1-1.82-1.1 5 5 0 0 1-1.27-1.89 8.6 8.6 0 0 1-.35-2.69v-11.67c.06-3.52 1.9-5.32 5.52-5.38h7.65q5.3.09 5.38 5.58v4.61l-12.8 5m24.79 7.86a11.4 11.4 0 0 1-2.35-.23 5 5 0 0 1-2.25-1 5.36 5.36 0 0 1-1.61-2.28 7.9 7.9 0 0 1-.46-2.81v-10.93a6.9 6.9 0 0 1 .26-2.35 4.9 4.9 0 0 1 1.2-2 5.2 5.2 0 0 1 2.14-1.35 10 10 0 0 1 2.42-.27h8.7v1.37H222a6 6 0 0 0-3.54.92 4.08 4.08 0 0 0-1.34 3.47v10.89a7.3 7.3 0 0 0 .35 2.23 3.93 3.93 0 0 0 3 2.75 10 10 0 0 0 2 .2h8.11v1.37h-8.19m30.49-14.1h-11.4a4.32 4.32 0 0 0-3.21 1.27 4.68 4.68 0 0 0-1.19 3.39v3.48a7 7 0 0 0 .22 1.84 2.87 2.87 0 0 0 1.06 1.55 5 5 0 0 0 3.27 1.22h6.91q4.34 0 4.34-4.57Zm1.36 7.84a14.5 14.5 0 0 1-.18 2.32 5.2 5.2 0 0 1-1.14 2.12 5.72 5.72 0 0 1-4.43 1.84h-6.78a6 6 0 0 1-4.29-1.58 5.55 5.55 0 0 1-1.7-4.32v-3.51c.05-4 2-6 5.91-6.07h11.29v-1.54a5.3 5.3 0 0 0-1.09-3.32 3.46 3.46 0 0 0-1.63-1.25 8.6 8.6 0 0 0-2.12-.24h-12.32v-1.37h11.68a17 17 0 0 1 2.91.23 3.25 3.25 0 0 1 1.23.51 4.1 4.1 0 0 1 1.12 1.06 7.25 7.25 0 0 1 1.54 4.66zM267 152.63c-3.16.05-4.72 1.78-4.66 5.18v16.65H261v-16.65q-.11-6.56 6.24-6.55h1.51v1.37zm23 0h-10.79a8.4 8.4 0 0 0-2.09.25 3.7 3.7 0 0 0-1.88 1.19 4.07 4.07 0 0 0-1.08 1.76 6 6 0 0 0-.25 2.12v10.61c0 1.77.51 3 1.54 3.62a6.6 6.6 0 0 0 1.71.67 8 8 0 0 0 2.09.25H284a7.1 7.1 0 0 0 4.3-1.22c1.11-.76 1.67-2.08 1.71-4Zm1.31 15.37q-.18 6.59-7 6.46h-5a13.6 13.6 0 0 1-2.85-.28 5.4 5.4 0 0 1-2.5-1.57 5.34 5.34 0 0 1-1.14-2.25 8.3 8.3 0 0 1-.26-2.55v-9.9q.07-6.71 6.74-6.65H290v-7.52h1.35V168"/><path fill="#e3001b" d="M33.12 150.54a7 7 0 0 1 1.34-.45 8.62 8.62 0 0 1 16.87 0 6.23 6.23 0 0 1 3.15 1.53 12 12 0 0 0-.08-2.16 11.56 11.56 0 0 0-23.07.55 15 15 0 0 0 0 1.67 7.2 7.2 0 0 1 1.82-1.14m16.5.87H35.79a5 5 0 0 0-2.07.48A5.7 5.7 0 0 0 32 153a7.12 7.12 0 0 0-1.33 4.54v10.83a7.1 7.1 0 0 0 1.33 4.51 5.8 5.8 0 0 0 1.7 1.11 5.2 5.2 0 0 0 2.07.47h13.88q5.37-.06 5.45-5.88v-11.29q-.08-5.83-5.45-5.88"/></svg>