<svg xmlns="http://www.w3.org/2000/svg" viewBox="0 0 512 512"><path fill="#005b58" d="M216.9 272.3c7 9.4 7 17.7-.6 24.1-2.7 2.2-6.6 3.9-10.1 4.1-9.9.5-19.8.3-29.7.2-7.3-.1-11.2-4.2-11.3-11.6-.1-10.6-.1-21.2 0-31.7 0-6.7 4-10.9 10.8-11 8.7-.2 17.4-.1 26.1-.1 14 .2 21.2 11.6 15.5 24.3-.3.6-.5 1.2-.7 1.7m-41.3 6.5c0 2.9-.5 5.3.2 7.3.6 1.6 2.6 3.9 4 3.9 8.4.4 16.7.3 25.1.1 3.5-.1 5.9-2 6-5.7 0-3.4-2.1-5.5-5.5-5.6-9.7-.1-19.4 0-29.8 0m.5-10.5h26.1c4 0 6.8-1.7 6.7-5.9 0-4.2-3-5.7-6.9-5.7h-17.8c-8.7 0-9.1.4-8.6 9.3.1.5.3 1 .5 2.3m80.2 32.4c-4.1 0-8.2.2-12.3-.1-6.6-.4-11.8-3.3-14.8-9.4-1.5-3.1-1.7-6.6 2-8.4 3.6-1.7 5.8.1 7.7 3.5 1 1.8 3.8 3.6 5.9 3.7 7.7.4 15.3.2 23 .1 3.7 0 6.5-1.6 6.6-5.6s-2.7-5.8-6.3-5.9c-6.8-.2-13.6-.1-20.5-.2-10.6-.1-17.3-6.3-17.4-16 0-9.8 6.5-16.1 17.1-16.3q9.75-.15 19.5 0c6.6.1 11.6 3.3 14.2 9.2.8 1.8-.8 4.8-1.3 7.2-2.4-.6-5.8-.4-6.9-1.9-2.5-3.4-5.4-4.3-9.2-4.1q-7.95.15-15.9 0c-4 0-6.9 1.8-6.9 5.9 0 4.2 2.9 5.8 6.9 5.8 6.8 0 13.7-.1 20.5 0 9.8.1 16.8 6.9 16.8 16.1 0 9.1-7.4 16.1-16.9 16.2-4 .2-7.9.2-11.8.2M115.2 282v12.5c0 3.5-1.4 6.1-5.3 6.1s-5.2-2.8-5.2-6.2c0-12.5-.1-24.9 0-37.4.1-6.5 3.7-10.4 10-10.6 9.9-.3 19.8-.4 29.7 0 9.4.4 15.4 8.4 15.1 19-.3 10.8-5.7 16.4-16 16.5-9.2.2-18.3.1-28.3.1m0-10.5c9.7 0 18.9.2 28-.1 4.2-.1 5.6-3.4 5.5-7.2-.1-4.3-2.1-7.3-6.7-7.4-7.5-.2-15-.1-22.4-.1-2.9 0-4.4 1.4-4.4 4.3zm-75.3-29.9c2.7-23.4 18-41.9 39.8-47.7 25.8-6.9 52.9 6.1 63.5 30.7.7 1.6 1.8 3.4 1.4 4.8-.5 1.9-1.8 4.2-3.4 5-1.3.6-3.7-.5-5.4-1.4-.9-.5-1.2-2-1.7-3.1-8-18.2-26.1-29.4-43.9-27.2-21.1 2.5-35.5 16-39.5 37-.7 3.5-1.9 6.8-6 5.9-2.1-.5-3.7-3-4.8-4m53.2 25.9c0 4.9.1 9.9 0 14.8s-2 6.5-6.7 6c-16.6-1.5-34.1-19.2-35.3-35.6-.3-4 1.4-6.4 5.4-6.4q15.6-.15 31.2 0c3.7 0 5.5 2.1 5.5 5.9-.1 5.1-.1 10.2-.1 15.3"/><path fill="#df5f06" d="M297.2 268.7c0-5 .1-9.9 0-14.9-.1-3.9.2-7.7 5.1-7.7 4.6 0 4.9 3.7 4.9 7.4-.1 8.2 0 16.4 0 24.6 0 11.6.8 12.4 12.6 12.3 1.5 0 3.1.1 4.6-.1 3.4-.5 5.8-2.4 5.6-6.1s-2.4-5.4-6.1-5.5c-2.2-.1-4.7.1-6.5-.8-1.6-.9-3.4-3.1-3.4-4.8-.1-1.4 2-4 3.5-4.2 14.6-2.8 24 5.6 22.5 17.8-.9 7.5-7.3 13.4-15.4 13.8-3.9.2-7.9.2-11.8 0-8.8-.4-15.3-7-15.5-15.9-.2-5.3-.1-10.6-.1-15.9m158.3 8.9c4.5-3.3 7.8-5.7 11.2-8.2 2.6-1.9 5.5-4.5 8.3-.8 2.7 3.6-.7 5.4-3.1 7.3-.8.6-1.5 1.3-2.9 2.5 3.3 4.4 6.5 8.7 9.7 12.9 1.9 2.6 3.8 5.3.4 7.9-3.5 2.7-5.6.2-7.5-2.4-3.2-4.2-6.3-8.4-9.6-12.7-4.4 1.8-7.2 4.2-6.5 9.2.5 3.6-.6 6.8-4.8 7-4.3.1-5-3.1-5-6.7.1-13.6.1-27.3 0-40.9 0-3.4.5-6.3 4.7-6.4 4.4-.1 5.2 2.9 5.1 6.6-.1 7.8 0 15.6 0 24.7m-87.5-9.3c3.1.2 6.2.1 9.2.6 6.6 1.2 11.5 6.4 12.1 12.8.4 4.6.6 9.3 0 13.8-.3 1.8-3 3.3-4.6 4.9-1.6-1.7-4-3.1-4.5-5-.8-3.2-.2-6.8-.4-10.2-.2-4.2-2.7-6.6-6.9-6.8-3.6-.2-7.2-.1-10.7.2-3.3.3-5.2 2.3-5.2 5.8.1 3.7 2.2 5.6 5.7 6 2.2.2 4.6-.4 6.6.4 1.7.7 3.9 2.7 4.1 4.2.1 1.6-1.6 4.3-3.1 5-5.3 2.6-15.2-.1-19.4-4.7-4.3-4.7-5.5-11.8-2.7-17.7 3.4-7 9.3-9.6 16.8-9.2h3.1c-.1 0-.1-.1-.1-.1m49.6.2c2.2 0 4.4-.1 6.7 0 7.6.6 13.8 6 14.7 13.4.5 4.5.6 9.3 0 13.8-.3 1.8-3.2 4.5-4.8 4.5s-4.2-2.7-4.6-4.7c-.8-3.2-.2-6.8-.3-10.2-.1-4-2.1-6.4-6.3-6.4-3.6 0-7.2-.1-10.8 0-3.7.1-5.6 2.2-5.8 5.8-.1 2.9-.1 5.8-.1 8.7 0 3.5-.7 6.9-4.9 7-4.7.2-5.1-3.5-5.2-7.2v-3.1c-.1-16.8 4.7-21.7 21.4-21.6"/><path fill="#005b58" d="M90 304.9c-28.5-1.1-54.1-26.7-55-53.8-.1-1.5 1.2-3 1.9-4.6.9 1.3 2.4 2.6 2.6 4 3.2 27.1 22.2 46.3 49.2 49.7 1.7.2 3.2 1.7 4.8 2.6-1.6.9-3.1 1.8-3.5 2.1"/></svg>