<?xml version="1.0" encoding="utf-8"?>
<!-- Generator: Adobe Illustrator 22.1.0, SVG Export Plug-In . SVG Version: 6.00 Build 0)  -->
<svg version="1.1" id="Layer_1" xmlns="http://www.w3.org/2000/svg" xmlns:xlink="http://www.w3.org/1999/xlink" x="0px" y="0px"
	 viewBox="0 0 512 512" style="enable-background:new 0 0 512 512;" xml:space="preserve">
<style type="text/css">
	.st0{fill-rule:evenodd;clip-rule:evenodd;fill:#003671;}
	.st1{fill-rule:evenodd;clip-rule:evenodd;fill:#FBBA06;}
</style>
<polygon class="st0" points="87.3,87 428.6,87 428.6,429 87.3,429 87.3,87 "/>
<path class="st1" d="M130,310.5c-16.1,18-36.3,28.5-39.5,30.1l-3.2,1.6v-5.2l0.8-0.5c104.4-74.8,8.4-134.1,8.1-134.3l-2.1-1.4l1.5-2
	l8.9-11.8l1.5-2l1.9,1.7c16.9,15,27.9,29.2,34.5,42.4c8.6,17.2,9.7,32.7,6.6,46.4C145.9,289.3,138.5,301,130,310.5L130,310.5z
	 M215.7,87h13.8l0.3,2c12.8,83.5,25.9,107.8,29.2,112.8c12.3-2,102.7-16.1,167-9.1l2.7,0.2v11.5l-2.8,0.1
	c-135.6,5.4-177.6,32.3-177.7,32.4l-2.2,1.3l-1.1-2.3c-11.3-23.1-18.4-48.1-22.7-73.1c-4.3-25-5.9-50-6.3-73.4L215.7,87L215.7,87z
	 M428.6,275.1v6.1l-1.8,0.5c-28.9,7.4-93.2,19.9-157.9,6.1c-64.9-13.9-130.2-54.3-160.4-152.9l-0.6-1.8l1.6-0.9l17.5-9.6l3-1.6
	l0.5,3.4c0.1,0.6,23.5,200.3,295.3,151.4L428.6,275.1L428.6,275.1z M428.6,373.9v8.1l-3.2-3l-21.9-20.1l0,0l-57.1-48.2l-3.2-2.7h4.2
	h17.1h0.6l0.5,0.5l62,64.5l0.4,0.5L428.6,373.9L428.6,373.9z M428.6,383v5.7l-2.2,0c-5.5-0.1-11.3-0.3-17.3-0.5
	c-4.6-0.2-9.3-0.4-14.1-0.6l18.1,18.8l0,0l0.3,0.3l-2.7,2.8l-0.1-0.1l-0.1,0.1l-25.5-22.4c-9.7-0.5-19.8-1.1-30.2-1.8
	c-2.3-0.2-4.5-0.3-6.6-0.5c-0.7-0.1-1.5-0.1-2.2-0.2l19.9,20.7l-2.7,2.8l-26.4-24.2c-35.2-3.8-66.9-9.2-93.5-13.7
	c-16.8-2.8-31.5-5.3-44-6.9l-0.2,0l0,0c-66.4-9.2-89.5,22.9-89.5,23l-2.1,2.8l-1.3-3.2l-8.6-22l-0.4-1.1l0.8-0.9
	c0.1-0.1,23.7-25.8,79.6-19h0c14.2,1.7,36.6,6.1,63.8,11.4c23.5,4.6,50.5,9.8,79.1,14.7L309,358.4l-0.1-0.1l-57.1-48.2l-4-3.4h5.3
	h17.1h0.8l0.6,0.6l61.1,63.5c7.8,1.3,15.8,2.5,24,3.8c5.6,0.8,11.2,1.6,16.7,2.4l-78.6-69.1h23.5l68,70.8c9.7,1.2,19.3,2.3,28.6,3.2
	c0.7,0.1,2.6,0.2,5.7,0.5c2,0.2,4,0.3,5.7,0.5l0.3,0L428.6,383L428.6,383z"/>
</svg>
