<?xml version="1.0" encoding="utf-8"?>
<!-- Generator: Adobe Illustrator 22.1.0, SVG Export Plug-In . SVG Version: 6.00 Build 0)  -->
<svg version="1.1" id="Layer_1" xmlns="http://www.w3.org/2000/svg" xmlns:xlink="http://www.w3.org/1999/xlink" x="0px" y="0px"
	 viewBox="0 0 512 512" style="enable-background:new 0 0 512 512;" xml:space="preserve">
<style type="text/css">
	.st0{fill:url(#SVGID_1_);}
	.st1{fill:url(#SVGID_2_);}
	.st2{fill:url(#SVGID_3_);}
	.st3{fill:#E4202C;}
</style>
<linearGradient id="SVGID_1_" gradientUnits="userSpaceOnUse" x1="256.0559" y1="463.4197" x2="256.0559" y2="134.7698">
	<stop  offset="0" style="stop-color:#000000"/>
	<stop  offset="1" style="stop-color:#003AAE"/>
</linearGradient>
<path class="st0" d="M137.5,247c0,71.8,0,143.5,0,216.5c-2.9-1.8-5.1-3.1-7.2-4.6c-16-11.3-28.9-25.3-35.4-44
	c-2.3-6.8-3.1-14.4-3.1-21.6c-0.2-43.3,0-86.7,0-130c0-16.7,0.1-33.3-0.5-50c-0.8-22.7,8.8-38.8,28.7-49.6
	c22.5-12.2,46.7-19.1,71.7-23.5c33-5.9,66.3-6.7,99.6-3.8c33,2.8,65.3,9,95.2,24c9.6,4.8,18.5,10.6,25.5,18.9
	c12.4,14.6,11.8,30.4-1.7,44.2c-12.8,13.1-29,20.5-45.9,26.3c-25.9,9-52.8,13.4-80.2,15.3c-36.4,2.4-72.6,0.7-108.2-7.4
	C163.3,254.9,150.8,250.7,137.5,247z M257.5,201.2c9.5,0,19,0,28.5,0c12,0,24,0.3,36-0.2c2.6-0.1,6.4-2.4,7.2-4.6
	c0.8-2.2-0.6-6.6-2.6-8c-3-2.2-7.2-3.6-10.9-3.7c-38.8-0.3-77.6-0.2-116.5-0.1c-2.3,0-4.7,0.2-6.9,0.9c-4.7,1.5-8,6-7.5,9.5
	c0.5,3.8,4.3,6.1,10,6.1C215.9,201.2,236.7,201.2,257.5,201.2z"/>
<linearGradient id="SVGID_2_" gradientUnits="userSpaceOnUse" x1="219.59" y1="493.9348" x2="219.59" y2="271.1884">
	<stop  offset="0" style="stop-color:#000000"/>
	<stop  offset="1" style="stop-color:#003AAE"/>
</linearGradient>
<path class="st1" d="M283,285.2c-4.8,21.3-2.4,42.7-3,63.9c-0.4,13.3-10.7,25.2-25.2,28.5c-3.1,0.7-4.6,1.6-3.5,5.2
	c1.9,0.3,3.9,0.7,6,1.1c13,2.6,22.7,14,22.8,27.3c0.1,16.5-0.3,33,0.2,49.5c0.3,10.4,1.9,20.7,3,31.8c-3.8,0.4-8.3,1.1-12.9,1.2
	c-10.7,0.2-21.3-0.1-32,0.2c-4.3,0.1-6.5-1.6-7.1-5.7c-1.4-9.2-3.5-18.3-3.8-27.6c-0.6-18.5-0.1-37-0.2-55.5
	c-0.1-10.9-7.3-18.5-18.1-19c0,34.6,0,69.1,0,104.5c-6-1.2-11.4-1.9-16.5-3.5c-11.1-3.4-22.2-7-33.1-10.9c-1.5-0.5-3.4-2.9-3.4-4.4
	c-0.1-66.7,0-133.3,0.1-200c0-0.3,0.1-0.6,0.2-0.7c17.3,3.8,34.6,7.5,52.5,11.4c0,29,0,58.6,0,88.1c10.3,0.4,18.3-7.6,18.5-18.5
	c0.2-13.2-0.2-26.3,0.2-39.5c0.3-8.1,1.7-16.2,2.7-24.2c0.4-3.3,1.9-4.5,5.6-4.3c14.3,0.5,28.6,0.5,42.9,0.7
	C280,284.9,281.3,285.1,283,285.2z"/>
<linearGradient id="SVGID_3_" gradientUnits="userSpaceOnUse" x1="357.5981" y1="487.3837" x2="357.5981" y2="252.5406">
	<stop  offset="0" style="stop-color:#000000"/>
	<stop  offset="1" style="stop-color:#003AAE"/>
</linearGradient>
<path class="st2" d="M299,385.5c0-27.3,0-54.7,0-82c0-16,3.8-20.1,19.5-22.4c26.3-3.9,51.7-11.1,75.6-23c2.5-1.3,5-2.7,7.5-4
	c7.7-4,14.2-0.2,14.3,8.5c0.1,21.5,0.1,43,0.1,64.5c0,20.8-0.7,41.7,0.2,62.5c1.2,29.2-12.2,50.4-34.3,67.3
	c-19.7,14.9-42.2,23.8-65.9,29.9c-9.7,2.5-17.1-3.7-17.1-13.9c0-29.2,0-58.3,0-87.5C298.9,385.5,299,385.5,299,385.5z M370,366.3
	C370.1,366.3,370.1,366.3,370,366.3c0.1-20,0.1-40,0.1-59.9c0-5.9-2.8-9-8.2-9.1c-5.6-0.2-10.3,3.8-10.3,9.2
	c0,41.6,0,83.2,0.1,124.9c0,5,3.4,7.5,8.3,6.4c6.1-1.3,9.9-6.1,9.9-12.5C370.1,405.6,370,386,370,366.3z"/>
<path class="st3" d="M204.9,66.5c0-28.9,22.8-51.4,51.9-51.3c27.9,0.1,51.1,23.5,51,51.6c-0.1,28.5-23.3,51.4-51.7,51.3
	C227.2,117.9,204.9,95.4,204.9,66.5z"/>
</svg>
