<?xml version="1.0" encoding="utf-8"?>
<!-- Generator: Adobe Illustrator 22.1.0, SVG Export Plug-In . SVG Version: 6.00 Build 0)  -->
<svg version="1.1" id="Layer_1" xmlns="http://www.w3.org/2000/svg" xmlns:xlink="http://www.w3.org/1999/xlink" x="0px" y="0px"
	 viewBox="0 0 512 512" style="enable-background:new 0 0 512 512;" xml:space="preserve">
<style type="text/css">
	.st0{fill:#FFFFFF;}
	.st1{fill:#FF0000;}
</style>
<rect width="512" height="512"/>
<path class="st0" d="M189,215.8c14.9-3.8,27.9-8.1,41.3-10.2c76.1-12,143.7,52.7,137.6,129.3c-4.5,56-48,105.4-106.6,111.3
	c-76.8,7.7-123.6-45.2-133.5-94.4c-1.5-7.5-2.6-15.2-2.6-22.8c0-79.4,0.2-158.9,0.4-238.3c0-2.4,0.4-4.8,0.7-8c20.6,0,41.1,0,62.8,0
	C189,126.8,189,171.2,189,215.8z M246.9,268.7c-31.9-0.1-57.2,24.8-57.3,56.3c-0.1,32.2,25.6,58.2,57.2,58
	c30.8-0.2,56.8-26.4,56.9-57.5C303.8,293.9,278.7,268.7,246.9,268.7z"/>
<path class="st1" d="M332,62c31.8,0.1,57,25.2,56.8,56.8c-0.1,31.1-26,57.3-56.9,57.5c-31.7,0.2-57.3-25.8-57.2-58
	C274.8,86.8,300.1,61.9,332,62z"/>
</svg>
