<?xml version="1.0" encoding="utf-8"?>
<!-- Generator: Adobe Illustrator 22.1.0, SVG Export Plug-In . SVG Version: 6.00 Build 0)  -->
<svg version="1.1" id="Layer_1" xmlns="http://www.w3.org/2000/svg" xmlns:xlink="http://www.w3.org/1999/xlink" x="0px" y="0px"
	 viewBox="0 0 512 512" style="enable-background:new 0 0 512 512;" xml:space="preserve">
<style type="text/css">
	.st0{fill:#8DC040;}
	.st1{fill:#21D5E8;}
	.st2{fill:url(#SVGID_1_);}
	.st3{fill:url(#SVGID_2_);}
	.st4{fill:#00884A;}
</style>
<rect class="st0" width="512" height="512"/>
<path class="st1" d="M241.1,0c0,0-1.1,2.2,0,5.4c1.1,3.2,3.2,7.5,3.2,7.5l3.2,6.6l8.7-9.8l8.7-9.8L241.1,0z"/>
<linearGradient id="SVGID_1_" gradientUnits="userSpaceOnUse" x1="361.4764" y1="329.759" x2="361.4764" y2="29.6652">
	<stop  offset="0" style="stop-color:#006A1E"/>
	<stop  offset="0.5169" style="stop-color:#007F5A"/>
	<stop  offset="1" style="stop-color:#00C9ED"/>
</linearGradient>
<path class="st2" d="M495.5,92.3c0,0-27.5,0-40.7,3.3c-13.2,3.3-40.7,18.7-47.2,27.5s-18.7,29.7-20.9,43.9c-1.1,5.5-1.1,22-1.1,29.7
	c-1.1,7.7,6.6,50.5,6.6,50.5s4.4,37.4,3.3,48.3c-1.1,11-11,24.2-16.5,27.5s-16.5,5.5-29.7,6.6c-13.2,1.1-40.7-4.4-40.7-4.4
	l-30.8-4.4l-30.8-3.3h-23.1l-2.2-79.1l9.9,2.2c0,0,11,5.5,22,8.8c11,3.3,30.8,6.6,38.5,6.6s20.9,0,25.3-2.2
	c4.4-2.2,9.9-6.6,13.2-14.3c3.3-7.7,3.3-12.1,3.3-19.8c0-7.7-5.5-24.2-5.5-24.2l-8.8-24.2l-17.6-34.1l-17.6-33L321.9,56l67-24.2
	l54.9-2.2l33,17.6l22,31.9l2.2,12.1L495.5,92.3z"/>
<linearGradient id="SVGID_2_" gradientUnits="userSpaceOnUse" x1="92.8412" y1="190.0086" x2="92.8412" y2="512">
	<stop  offset="0" style="stop-color:#009D1E"/>
	<stop  offset="0.5169" style="stop-color:#007F5A"/>
	<stop  offset="1" style="stop-color:#1558AB"/>
</linearGradient>
<path class="st3" d="M0,208.8c0,0,9.9-9.9,45-16.5c35.2-6.6,69.2,3.3,69.2,3.3l62.6,25.3v98.9c0,0-27.5,0-50.5,17.6
	c-29.7,20.9-28.6,36.3-29.7,42.8c-1.1,6.6-1.1,20.9,0,30.8c4.4,15.4,12.1,34.1,29.7,53.8c4.5,5.1,20,19.9,34.1,30.8
	c13.2,10.2,25.3,16.5,25.3,16.5H31.9H0V208.8z"/>
<path class="st4" d="M264.8,0l-25.3,28.6c0,0-24.8,34.9-35.2,52.7c-16.5,28.6-31.9,86.8-31.9,86.8s-9.9,46.1-9.9,59.3
	c-2.2,26.4-1.1,29.7-1.1,49.4s2.2,43.9,6.6,65.9c4.4,22,16.5,56,24.2,75.8c7.7,19.8,18.5,36.8,23.1,45c5.5,9.9,25.3,34.1,27.5,37.4
	c2.2,3.3,7.7,11,7.7,11H512v-69.2l-14.3,8.8c0,0-15.4,8.8-30.8,13.2c-11,3.2-38.5,8.8-58.2,7.7c-27.5,0-72.5-16.5-87.9-25.3
	c-9.8-5.6-42.8-34.1-50.5-42.8s-24.2-39.6-27.5-47.2c-3.3-7.7-11-34.1-13.2-47.2c-2.2-13.2-3.3-28.6-3.3-39.6s1.1-29.7,1.1-29.7
	l7.7-33l11-31.9l17.6-35.2l15.4-23.1c0,0,15.4-17.6,23.1-27.5c15.4-20.9,49.4-36.3,61.5-41.8c12.1-5.5,18.7-6.6,35.2-8.8
	c16.5-2.2,40.7-1.1,52.7,3.3c12.1,4.4,23.1,9.9,28.6,16.5s22,28.6,16.5,46.1c-5.5,17.6-22,68.1-22,68.1s-12.1,43.9-14.3,57.1
	c-2.2,13.2,0,30.8,2.2,39.6c2.2,8.8,14.3,17.6,14.3,17.6s13.2,6.6,20.9,6.6s14.3,0,14.3,0V0H264.8z"/>
</svg>
