<?xml version="1.0" encoding="utf-8"?>
<!-- Generator: Adobe Illustrator 22.1.0, SVG Export Plug-In . SVG Version: 6.00 Build 0)  -->
<svg version="1.1" id="Layer_1" xmlns="http://www.w3.org/2000/svg" xmlns:xlink="http://www.w3.org/1999/xlink" x="0px" y="0px"
	 viewBox="0 0 512 512" style="enable-background:new 0 0 512 512;" xml:space="preserve">
<style type="text/css">
	.st0{fill:#FC6822;}
	.st1{fill:#FFFFFF;}
</style>
<rect class="st0" width="512" height="512"/>
<path class="st1" d="M467.5,335.1c0.8,0.2,1.6,0.2,2.4,0.4c8.5,1.8,17,3.5,25.4,5.5c5.7,1.4,11.3,3.2,17.5,5c0-5.1,0.1-9.8-0.1-14.5
	c0-0.9-1.5-2-2.5-2.4c-15.5-5.5-31.1-9.9-47.6-10.3c-1.2,0-3-1.2-3.3-2.2c-0.3-0.9,0.9-2.8,1.9-3.4c9.1-5.6,14.4-14.2,18.8-23.5
	c2.5-5.4,4.1-11.6,7.8-16c6.5-7.8,10.3-16.3,11.8-26.1c0.2-1.3,0.1-3.8-0.4-4c-1.5-0.5-3.4-0.4-4.9,0.2c-2.4,0.9-4.6,2.5-7.3,4
	c1.2-7,2.3-13.5,3.4-20.1c1.9-10.2,3.8-20.4,5.9-30.6c0.2-0.9,1.1-1.9,1.9-2.5c3.5-2.4,7.3-4.5,10.7-7c2.6-1.9,3.9-4.5,3.9-8
	c-0.2-17.3,0-34.5-0.2-51.8c0-2.1-0.9-4.5-2.1-6.3c-2.2-3.4-4.9-6.6-7.5-9.9c-9.2-11.7-20.7-18.3-36-16.6c-5,0.6-10,1.9-15,2.6
	c-5.1,0.7-9.1,3.3-12.8,6.5c-7.8,6.6-11.4,15.5-12.8,25.4c-0.2,1-1.2,2.7-2.1,2.8c-4.2,0.7-8.4,1.2-12.7,1.5
	c-12.7,1-24.4,4.9-35.1,11.8c-1.1,0.8-3.2,1-4.4,0.5c-14.6-6.5-29.6-10.6-45.7-9.4c-2.8,0.2-4.1-0.9-5-3.5c-2.4-7-5.9-13.5-12-17.9
	c-14.3-10.6-30-17.6-48.4-17.3c-4.8,0.1-8.9,1.3-12.8,3.8c-3.1,2-6,3.9-9.1,5.8c-4.4,2.6-7.4,6.3-9.2,11c-2.1,5.4-4.4,10.7-6.1,16.2
	c-2.9,9.2-3.5,18.4,1.3,27.3c2.7,5,5.6,10.1,8.4,15.1c2.3,4.1,5.8,6.7,10.4,8c2.7,0.7,5.2,2,7.7,3.2c3.1,1.4,4.6,3.6,3.8,7.2
	c-0.9,4-1.4,8-1.9,12c-1.1,10.4,1.4,20.5,2.5,30.7c0.4,4.6,1.8,9.1,2.9,14.7c-2.7-1.1-4.7-1.9-6.6-2.7c-4.8-2-8.1,0.1-6.8,5
	c2.3,8.8,5.3,17.1,11.6,24.1c7.2,8,14,16.3,20.7,24.7c2.3,2.9,4.2,6.3,3.4,10.6c-4.5,0.5-8.9,0.8-13.2,1.4c-8.3,1.2-17,1.4-24.9,4
	c-13.8,4.6-27.1,10.5-40.6,16c-3.9,1.5-4.5,3.2-3.8,7.4c0.3,1.9,0.6,3.8,0.8,5.8c0.5,5.1,1.4,5.6,6.1,3.5
	c12.2-5.5,24.3-11.2,37.5-14.1c10.1-2.2,20.1-4.4,30.3-5.8c7.9-1.1,8.3-0.2,10,7.5c0.5,2.4-0.3,3.7-2.4,4.7c-9,4.2-18.2,8-27,12.6
	c-14.4,7.6-28.6,15.6-42.8,23.5c-0.8,0.5-1.9,1.8-1.8,2.6c0.5,3.9,1.2,7.8,2.2,11.5c0.8,2.9,2.8,3.5,5.6,1.8
	c6.6-3.9,13.1-8,19.9-11.3c15.7-7.7,31.6-15.1,47.6-22.4c7.4-3.4,12.5-1.7,17.3,4.8c4.2,5.7,9.4,6.4,16.1,2.3
	c2.8-1.7,5.5-3.7,8.5-4.7c12-3.8,24-7.4,36.1-10.9c3.5-1,5.5-3.2,6.1-6.7c0.5-2.8,1.2-5.6,2.1-8.3c1.8-5,0.7-8.6-3.6-11.6
	c-6.4-4.5-11.2-10-10.1-18.7c0.4-3-1-3.6-3.8-2.2c-2,1-3.9,2.1-6,2.8c-3.4,1.2-6.7,0.3-7.3-2.5c-0.9-3.7-1.3-7.7-0.9-11.5
	c0.2-1.9,2.5-4.3,4.4-5.1c7.3-3.3,15.1-4.9,23.1-5.7c14.7-1.4,28.9,0.8,42.6,5.9c1.6,0.6,3.1,2.6,4,4.3c0.8,1.6,0.9,3.6,1.2,5.4
	c1.1,6-4.3,10.7-10.1,8.6c-0.9-0.4-1.9-0.8-2.9-1.1c-2.6-0.8-4.4-0.1-4.5,2.9c-0.3,7.8-4.7,12.8-11,16.5c-4.8,2.9-5.5,5.1-3.9,10.5
	c0.9,3.2,1.2,6.6,2.3,9.7c0.6,1.6,1.9,3.6,3.4,4.1c4.7,1.6,9.7,2.4,14.4,3.9c4.2,1.3,8.5,2.5,12.2,4.7c7.1,4.1,13.8,8.8,20.7,13.3
	c3.6,2.3,5.4,2.3,8.3-0.8c2.5-2.7,4.9-5.6,6.9-8.7c1.8-2.7,3.5-3.4,6.6-2c15.7,7.4,31.4,14.6,47.1,22c2.7,1.3,5.4,2.8,8.7,4.6
	c0-5.5,0.1-10.2-0.1-14.9c0-0.9-1.2-2.1-2.2-2.6c-13.3-6.7-26.6-13.4-40-19.9c-9.8-4.7-7.9-1.5-8.1-12.4
	C462.2,333.8,462.2,333.8,467.5,335.1z M272.2,169.1c-1.3,1.5-2.4,3.3-4,4.3c-1.1,0.7-3.5,0.9-4.3,0.2c-7.7-6.5-14.8-13.6-18.4-23.4
	c-0.8-2.2-1-4.7-1.3-6c0-9.5,5-14.8,11.5-18.5c4.5-2.4,9.6-4.4,14.6-5.3c3.5-0.6,7.5,0.4,11.1,1.5c3.3,0.9,6.2,3,9.3,4.5
	c6.4,3,9.4,8.5,10.7,14.9c0.3,1.4-0.6,3.7-1.7,4.6c-6.5,5.2-13.4,9.9-19.9,15.1C276.9,163.3,274.7,166.4,272.2,169.1z M307.9,340.9
	c-0.1,0.1-0.2,0.1-0.3,0.1c-3.6,0.4-3.3-2.9-3.9-4.7c-0.6-1.7-3.3-4.7,0.5-5.7c7-1.8,14.1-1.4,21.2-0.7c0.1,0.4,0.2,0.9,0.3,1.3
	C319.7,334.4,313.8,337.7,307.9,340.9z M343.7,222.2c-1.7,9.2-2.8,18.5-3.9,27.8c-0.9,7.9-1.3,15.9-2.4,23.8
	c-0.2,1.8-2.2,3.6-3.8,4.9c-1.6,1.4-3.7,2.2-5.7,3.2c-3.5,1.7-5.6,4.3-6.3,8.2c-0.6,3.3-2.6,5.7-5.8,7.3c-3.6,1.7-6.8,4-10.3,5.8
	c-3.3,1.8-5.6,0.9-6.7-2.6c-2.3-7.7,0.1-14.4,5.7-19.5c3.6-3.2,8.1-6,12.6-7.7c5.6-2.1,9.4-5.4,9.6-11c0.4-8.2,2.5-16.5,0.6-24.8
	c-0.5-2.4-1.2-2.9-3.7-2.5c-4.1,0.7-8.3,1.3-12.4,0.8c-3.4-0.5-7.2-1.8-9.7-4c-7.1-6.3-13.6-13.2-20.2-20c-0.7-0.8-0.9-2.2-1.4-3.3
	c1.1-0.4,2.1-1,3.2-1c8.4,0,16.9,0,25.3,0c0-0.2,0-0.5,0-0.7c7.5,0,15,0.2,22.5-0.1C339.4,206.5,345.6,211.7,343.7,222.2z
	 M356.2,169.9c-1.7,3.4-4,6.5-6.2,9.6c-1.8,2.4-3.8,4.7-5.7,7c-1.6,2-3.5,2.8-6.3,2.4c-5.3-0.8-10.6-1-15.9-1.4
	c-3.3-0.2-3.9-1-1.9-3.7c5.8-7.7,13.2-13.2,22.2-16.6c3.3-1.3,6.8-2.1,8.7-2.7C356.4,164.2,357.8,166.1,356.2,169.9z M447.6,142.3
	c0.5-2.5,0.8-5.2,1.9-7.6c1.5-3.3,3.4-6.3,5.4-9.3c3.2-4.8,8.2-7.2,13.7-7.9c6.5-0.9,12.9,0.5,18.9,3.1c7.5,3.2,10,9.7,10.8,17.2
	c0.2,1.9,0,3.9,0,5.9c0.2,0.1,0.3,0.1,0.5,0.1c-0.8,5.2-1.4,10.5-2.2,15.7c-0.8,5.1-4.3,8.1-8.5,10.3c-2.6,1.4-5.1,1.1-7.4-1.5
	c-7-7.8-14.7-14.7-24.4-19.1c-1.7-0.8-3.5-1.8-5.4-2.2C448.2,146.4,447.2,144.8,447.6,142.3z M391.4,161.7c3.1,0.5,6,0.9,8.8,1.5
	c8,1.7,16.1,3.2,24,5.3c4,1,7.9,2.8,11.4,4.9c4,2.4,3.8,5.1,0,7.8c-4.6,3.2-9.4,5.4-15.2,5c-4.1-0.3-8.3-0.1-12.4-0.1
	c0-0.3-0.1-0.7-0.2-1c-0.1-0.2-0.2-0.4-0.1-0.6c0.8-7.6-3.4-11.7-9.8-14.5C393.3,168,392.5,166.7,391.4,161.7z M443.9,339.5
	c-0.3,0.7-2.3,1.3-3.2,1c-2.4-0.7-4.6-2.1-7-3c-3.4-1.2-6.9-2.4-10.5-3.3c-1.8-0.5-3-0.9-2.9-3c0.1-2.1,0.3-4.1,2.9-4.4
	c1.6-0.2,3.2-0.2,4.8-0.3c0.1-0.2,0.1-0.5,0.2-0.7c5.1,1.4,10.2,2.7,15.3,4.1c0.9,0.3,1.8,2.1,1.8,3.2
	C445.2,335.3,444.7,337.5,443.9,339.5z M453.2,303.8c-0.9,1.9-2,2-3.9,0.9c-6.6-4-13.4-7.7-20-11.7c-1.9-1.1-4-2.9-4.8-4.9
	c-2.7-6.7-6.6-12.1-13.4-15.1c-2.4-1-3.1-2.8-3.4-5.4c-1.7-15.4-3.7-30.8-5.6-46.1c-1-7.6,4.5-14.2,12.4-14.3
	c11.7-0.1,23.4,0.2,35.1,0.4c5,0,9.9,0.1,14.9,0.3c1.6,0.1,3.2,0.5,5.5,0.9c-4,4.7-7.6,8.4-12.5,10.7c-1.7,0.8-3.7,2.2-4.2,3.8
	c-2.8,8.4-9.5,10.5-17.1,10.9c-7.1,0.4-14,0-18.7-8.3c-0.6,2.2-1.2,3.3-1.1,4.4c0.5,9,0.9,18,1.7,27c0.1,1.5,1.6,3.6,2.9,4.1
	c4.4,1.6,7.7,4.4,9.7,8.4c3.7,7.3,11.3,9.6,17.4,13.7c3.6,2.5,7.5,4.6,11.7,7.1C457.4,295.3,455.3,299.5,453.2,303.8z M437.2,507.4
	c-1.4-5.9-3.2-11.9-3.6-17.9c-0.6-8.8-0.1-17.6-0.2-26.4c0-4.9-0.5-5.5-4.9-3.7c-5.3,2.1-10.5,4.7-15.5,7.5
	c-3.4,1.9-5.1,5.1-4.7,9.3c0.9,8.6,1.3,17.3,2.3,25.9c0.3,2.7,2.1,5.2,3,7.3h-0.4c0,0.1,0.1,0.2,0.1,0.2c13,0,22.3,0,26.1-0.1
	c0.2,0,0.1,0,0.1-0.1C438.5,509.1,437.4,508.1,437.2,507.4z M352.2,507c-0.8-6.9-1.6-13.7-2.4-20.6c-0.6-5.6-3.5-9.1-9-10.5
	c-3.5-0.9-7.1-1.4-10.4-2.7c-3.4-1.3-6.5-1.4-10,0c-3.3,1.4-4.7,3.1-3.9,6.5c0.9,3.3,1.6,6.7,2.8,10c1.5,4.1,3.3,8.1,5.3,11.9
	c1.5,2.7,3.6,5.1,5.5,7.8h-0.4c0.1,0.1,0.2,0.3,0.3,0.4c8.3,0,16.5,0,24.4,0v-0.1C353.1,509.5,352.4,508.6,352.2,507z M208.2,469.5
	c-1.2-2.5-2.8-3.3-5.2-2.7c-2.9,0.7-5.8,1.5-8.7,2.4c-8.7,3-17.4,6.1-26.2,9.2c-2.5,0.9-2.8,2.3-1.6,4.5c2.1,4,4.2,8,6.1,12.1
	c2,4.6,3.7,9.3,5.9,14.9c3.1,0,7.5,0,12.9,0c0.2-0.2,0.2-0.4,0.3-0.6h-0.2c2-2.3,3.6-4.4,5.3-6.4c5.5-6,11-11.9,16.5-17.8
	c1.4-1.5,2.5-2.8,0.9-5.1C211.9,476.7,209.9,473.1,208.2,469.5z M389.6,467c-4.9,1.3-10,2.2-14.8,3.8c-4,1.3-8.8,3-9,8
	c-0.2,6.1,0.6,12.3,1.1,18.5c0.3,3.2,0.9,6.4,1.3,9.6c0.2,1.6-0.4,2.4-1.5,2.7c0,0.1,0,0.1,0,0.2c7.4,0,14.5,0,21.1,0
	c0-0.1,0.1-0.2,0.1-0.3h-0.2c-0.1-0.4-0.2-0.7-0.1-0.9c0.6-1,1-1.9,1.7-2.7c9.6-11.3,7.1-23.9,4.2-36.6
	C393,467.3,391.8,466.4,389.6,467z M330.5,97.7c2.4,1,4,0.8,5.1-1.6c3.4-7.2,6.9-14.3,10.1-21.6c0.7-1.8,1.3-2.3,3.2-1.8
	c4.6,1.4,9.3,2.7,14,3.8c2.2,0.5,2.9,1.5,3.1,3.7c0.6,6.8,1.3,13.6,2.2,20.3c0.7,5,2.4,6,7,3.6c8.1-4.2,16.8-6.3,25.6-8.3
	c7-1.6,14-3.1,19.6-8.1c3.5-3.2,7-6.4,10.5-9.6c2.7-2.4,5.5-4.9,8.4-7.2c4.6-3.8,10-4.6,15.7-3.4c10,2,19.7,4.6,28.6,10
	c4,2.4,9.2,3.3,13.9,4.2c5.5,1.1,10.1-1.6,14.3-4.9c3.1-2.4,1.1-5.9,1.6-8.8c0.1-0.5-0.1-1.1,0-1.7c0.6-3.2-0.9-5.2-3.6-6.7
	c-14.3-7.8-28.6-15.6-42.9-23.4c-4.6-2.4-9.1-3.3-12.8,1.8c-0.9,1.3-2.3,2.2-3.6,3.2c-4.5,3.4-8.9,7-13.7,10
	c-4.1,2.6-6.8,0.9-6.6-3.9c0.2-3.8,0.7-7.6,1.1-11.4c0.4-3.5-0.3-4.4-3.7-4.7c-3.7-0.3-7.4-0.6-11-1.3c-3.1-0.6-4.3,0.4-5.1,3.4
	c-2.1,8.2-4.4,16.5-7,24.6c-2.3,6.9-8.7,11.2-15.6,10.6c0.7-7.1-1.6-14.2,2.9-20.6c1.7-2.8,2.8-6.1,3.8-9.3c1.1-3.7-0.3-5.1-4-4.3
	c-9.8,2.2-19.5,4.6-28.1,10.3c-3.3,2.2-7.2,4.8-11.7,3c-6-2.4-12-4.7-17.9-7.4c-5.1-2.3-5.2-2.4-7.1,2.8c-2.3,6.5-4.5,13.1-6.8,19.6
	c-0.6,1.6-1.2,2.9-3.2,1.5c-12.1-8.6-24.7-16.8-35.1-27.6c-2-2.1-4-3-6.8-2.4c-3.8,0.8-7.9,1.1-11.5,2.4
	c-9.3,3.4-18.4,7.4-27.7,10.8c-5.2,1.9-9.6,4.6-13.8,8.3c-14.6,13-26.2,28.3-35.6,45.3c-1.9,3.3-1.6,3.9,1.9,5.3
	c4.9,1.9,9.9,3.8,14.7,6c3,1.4,5,0.6,6.8-1.9c2.7-3.9,5.6-7.7,8.2-11.6c2.6-4,5.5-7.3,9.8-9.9c12.3-7.3,24.4-15.1,36.3-23
	c5.8-3.9,5.4-3.9,11.4,0C293.2,77.4,310.7,89.4,330.5,97.7z M160.8,223.2c0.1,1,0.6,2.1,0.9,3.1c0.4,0.1,0.7,0.1,1,0.2
	c1.4-1.8,2.6-3.8,4.2-5.3c6.5-5.8,13-11.5,19.7-17c5.1-4.1,9.5-8.9,15.8-11.5c6.3-2.6,7.7-7.1,5.9-13.6c-0.6-2.1-1.6-4.1-2.4-6.1
	c-3.1-7.5-7.9-14.6-7.1-23.2c0.8-8.6,2.1-17.2,3.6-25.7c1-5.4,0.4-6.5-4.9-6.8c-1.3,0-2.5,0-3.8-0.1c-11.6-0.9-17.5,6.6-19.2,17.3
	c-1.2,7.9,0,16.2,0.6,24.2c0.3,4.9,1.7,9.8,2.3,14.7c0.1,1.2-0.6,3-1.5,3.7c-5.3,3.9-10.7,7.7-16.1,11.4c-2,1.3-2.9,2.7-2.6,5.1
	C158.5,203.5,159.6,213.3,160.8,223.2z M155.3,336.5c7-8,13.9-16.1,21.2-23.8c7.4-7.9,16.6-13.5,26-18.8c1.1-0.5,2.4-1.5,2.6-2.5
	c1.5-6.4,2.9-12.9,4.1-19.3c0.5-2.9-1.1-3.9-3.7-3.2c-3.5,0.9-7,1.8-10.3,3c-8.7,3.3-17.8,5.9-26,10.2c-8,4.1-15,10.3-22.7,15.1
	c-3.7,2.4-5.5,5-4.5,9.3c1.1,9.5,2.2,19,3.3,28.5c0.3,2.4,0.3,4.8,0.7,7.2c0.2,0.9,0.9,1.7,1.3,2.6c0.7-0.5,1.6-0.8,2.2-1.4
	C151.5,341.1,153.3,338.8,155.3,336.5z M179.2,403.1c0.3-0.7,0.5-1.6,0.4-2.3c-0.9-5.1-1.7-10.3-3-15.3c-2.5-9.4-4.1-18.7-2.3-28.4
	c1-5.3,1.7-10.7,2.5-16c0.3,0,0.5,0,0.8,0c-0.4-0.8-0.7-2.1-1.2-2.2c-1-0.2-2.3,0.1-3.2,0.6c-7,3.8-13.9,7.8-21,11.4
	c-2.8,1.4-4,3.1-3.8,6.2c0.7,11.8,1,23.7,2,35.6c0.5,6.6,1.9,13.2,3.4,19.7c1.1,4.6,2.9,9.1,4.5,13.7c0.4,1.2,1.1,2.3,1.6,3.5
	c1.3-0.7,2.9-1.1,3.8-2.1C170.4,420.4,175.5,412.2,179.2,403.1z M157.4,257.9c0.6,4.9,1.8,9.8,2.9,14.6c0.7,3.2,2,3.5,4.4,1.3
	c2.3-2.2,4.6-4.4,7.2-6.4c5.6-4.3,11.3-8.4,17-12.6c6.6-4.8,13.3-9.5,19.9-14.4c1-0.8,1.9-2.1,2.2-3.3c1.1-3.9,1.7-7.9,2.7-11.8
	c1.3-4.9-0.6-7.9-5.7-7.8c-4.4,0.1-8.7,0.9-13.1,1.3c-10.3,0.8-19.9,4.2-29.2,8.3c-3.8,1.6-7.1,4-7.5,8.7c-0.4,4-0.9,8-1.4,12
	c0.2,0,0.3,0,0.5,0.1C157.3,251.2,157,254.6,157.4,257.9z M474.7,470.2c0.3-11.1,0.3-11.1-7-14.4c-0.4-0.1-0.8-0.4-1.2-0.6
	c-4.2-1.6-8.4-3.2-12.6-4.8c-1.8-0.7-3.2-0.1-3.5,2c-0.5,3.5-1.3,6.9-1.4,10.3c-0.1,11.6,2.9,22.4,9.3,32.1c2.5,3.7,5.4,7.8,9.2,9.9
	c3.3,1.9,8,1.7,12.1,1.7c5.4,0,6.8-2.8,4.2-7.4C478.3,489.1,475.3,478.4,474.7,470.2z M256.1,462.4c-2.3-8.2-5.7-16.2-4.8-25
	c0.9-7.9-0.8-14.4-8.4-18.4c-7.9-4.1-10.4-3.8-13.8,4.4c-1.5,3.5-2.5,7.7-2.2,11.4c0.6,7.8,2,15.6,3.8,23.2c0.5,2.3,2.8,4.7,5,6
	c6.8,4.1,13.8,7.6,20.7,11.3c0.8,0.4,1.9,0.4,2.8,0.6c0.1-0.9,0.5-2,0.2-2.9C258.4,469.4,257.1,466,256.1,462.4z M168.4,469.5
	c1.1-0.6,2.7-0.8,3.4-1.7c1.9-2.5,3.1-5.6,5.3-7.9c7.1-7.4,14.5-14.5,21.7-21.9c0.9-1,1.8-2.9,1.4-4c-2.2-6.3-5.7-11.8-10.7-16.3
	c-0.6-0.6-1.4-1-2.2-1.5c-1,0.6-1.8,1-2.5,1.5c-7.3,4.8-12.9,11.8-20.9,15.7c-3.1,1.5-3.1,4.3-1.7,7.2c1.1,2.4,2.7,4.8,3.1,7.3
	c0.9,6,1.3,12.1,2,18.2C167.4,467.2,168,468.4,168.4,469.5z M300,453.6c-2.6-9.3-7.6-16.7-17.1-20.3c-4-1.6-5.6-0.5-6.3,3.8
	c-0.7,4.7-2,9.3-2.7,13.9c-0.2,1.4,0.3,3.1,1,4.4c3.1,5.7,6.6,11.2,9.5,17.1c2.1,4.2,3.2,8.8,5,13.2c0.8,1.9,2.1,3.6,3.7,6.1
	c2.4-4.9,4.5-8.6,6-12.4c2.7-6.9,5.1-14,2.2-21.5C300.8,456.5,300.4,455,300,453.6z M510.7,454.4c-2-3.2-3.7-6.7-5-10.2
	c-1-2.7-2.7-3.8-5.3-4.3c-3.1-0.6-6.2-1.5-9.3-2.2c-1.1-0.3-2.3-0.4-3.4-0.5c-2.4-0.2-3.4,1-2.7,3.4c1.4,4.7,3,9.4,4.2,14.2
	c2.2,8.9,8.1,13.8,16.8,16c7.1,1.9,7.5,1.7,7.5-5.4c0-0.2,0-0.3,0-1.3C514.3,461,512.7,457.6,510.7,454.4z M422.3,423.1
	c8.2-11.4,11-24.3,10.6-38c0-1.4-1.3-3.2-2.5-4c-7.6-4.9-16.1-7.6-24.9-9.1c-15.3-2.6-30.7-3.5-46.3-2.1
	c-16.3,1.4-31.3,5.8-45.1,14.4c-2.9,1.8-3.6,3.7-2.6,6.6c1.4,4.2,2.5,8.4,4.1,12.5c1.5,4,3.4,7.8,7.2,10.3c2.2,1.5,4,2,6-0.3
	c2.1-2.4,4.3-4.8,6.7-7c1.1-1,2.5-1.6,4.5-2.8c0,4.3-0.2,7.5,0,10.7c0.2,3.4,0.9,6.7,1.3,10c1.1,7.8,3.1,9.7,10.8,10.5
	c1.4,0.1,2.8,0.1,4.2,0.1c4.2,0,7.5-1.6,9.4-5.4c1.3-2.7,2.5-5.6,3.7-8.4c10.4,12.6,15.1,12.8,26.1,10.4c2.2-0.4,3.5-1.5,3.9-3.7
	c1.1-5.3,2.2-10.5,3.5-16.8c4.6,4.3,9.1,8.2,13.6,12.2C419.3,426.1,420,426.2,422.3,423.1z"/>
</svg>
