<?xml version="1.0" encoding="utf-8"?>
<!-- Generator: Adobe Illustrator 22.1.0, SVG Export Plug-In . SVG Version: 6.00 Build 0)  -->
<svg version="1.1" id="Layer_1" xmlns="http://www.w3.org/2000/svg" xmlns:xlink="http://www.w3.org/1999/xlink" x="0px" y="0px"
	 viewBox="0 0 512 512" style="enable-background:new 0 0 512 512;" xml:space="preserve">
<style type="text/css">
	.st0{fill:#2F435E;}
	.st1{fill:#08A1B6;}
	.st2{fill:#DFEBEF;}
</style>
<path class="st0" d="M256,39.6c-120.4,0-218,97.6-218,218s97.6,218,218,218s218-97.6,218-218S376.4,39.6,256,39.6z M256,387.1
	c-71.5,0-129.5-58-129.5-129.5s58-129.5,129.5-129.5s129.5,58,129.5,129.5S327.5,387.1,256,387.1z"/>
<circle class="st1" cx="222" cy="303.9" r="44.7"/>
<circle class="st1" cx="307" cy="223" r="44.7"/>
<path class="st2" d="M238.2,272.8c9.9-0.1,17,6.6,17.1,16.4c0,7.4-9.4,16.9-16.7,16.7c-7.4-0.1-16.6-9.6-16.5-17
	C222.2,279.7,228.9,272.9,238.2,272.8z"/>
<path class="st2" d="M323.2,195.9c9.9-0.1,17,6.6,17.1,16.4c0,7.4-9.4,16.9-16.7,16.7c-7.4-0.1-16.6-9.6-16.5-17
	C307.2,202.9,313.9,196.1,323.2,195.9z"/>
</svg>
