<?xml version="1.0" encoding="utf-8"?>
<!-- Generator: Adobe Illustrator 22.1.0, SVG Export Plug-In . SVG Version: 6.00 Build 0)  -->
<svg version="1.1" id="Layer_1" xmlns="http://www.w3.org/2000/svg" xmlns:xlink="http://www.w3.org/1999/xlink" x="0px" y="0px"
	 viewBox="0 0 512 512" style="enable-background:new 0 0 512 512;" xml:space="preserve">
<style type="text/css">
	.st0{fill:#CF2732;}
	.st1{fill:#FFFFFF;}
</style>
<path class="st0" d="M-0.8,0C170.1,0,340.9,0,512,0c0,172.4,0,339.6,0,512c-170.8,0-341,0-512,0c0-12.9-0.7-20-0.7-32.4
	C-0.7,319.8-0.8,159.9-0.8,0z M71.7,223.3c-0.9,0.1-1.3,0.1-1.5,0.2c-0.5,0.4-0.9,0.8-1.3,1.3c-15,19.2-27.6,39.6-33,64
	c-3.8,17-3.9,33.6,1.5,50.1c8.2,24.9,23.4,44.7,44.1,60.5c12.1,9.3,25.6,16.3,39.8,21.9c16,6.3,32.6,10.2,49.4,12.5
	c23,3.2,46.2,3.8,69.3,1.6c13.8-1.3,27.7-2.2,41.2-5.1c16.7-3.6,33.3-8.3,49.5-13.7c18.3-6.1,35.7-14.4,52.5-23.8
	c18.8-10.4,36.8-21.9,52.9-36c8.7-7.7,17.3-15.5,23.7-25.4c10.1-15.6,14.1-33.3,16.6-51.4c0.3-2-1.1-4.2-1.6-6.3
	c-1.8,1-3.7,2-5.5,3.1c-0.4,0.2-0.7,0.7-1,1.1c-11.3,12-23.3,23.2-36.5,33.1c-16.3,12.1-33.5,22.8-51.9,31.4
	c-8.6,4.1-17.2,8.2-26.2,11.2c-13.2,4.4-26.7,8.2-40.2,11.4c-10.2,2.4-20.7,3.9-31.1,5.1c-23.5,2.7-47,1.5-70.3-2.9
	c-4.7-0.9-9.3-2.6-13.5-4.9c-5-2.6-5.5-7.3-1.7-11.4c2.6-2.8,5.4-5.6,8.6-7.5c10.2-6,20.6-11.7,31-17.4
	c21.8-11.8,42.5-25.2,61.7-40.9c14.8-12.1,29.3-24.8,42.8-38.4c23.7-24.1,44.3-50.6,55.5-83.2c3.8-10.8,6.3-21.9,5.3-33.4
	c-1.6-18.6-10.5-32.5-27.3-40.8c-16.2-7.9-33.6-9.3-51.4-8.2c-16.7,1-33,4.5-49.2,8.7c-1.4,0.4-2.8,1-4.1,1.6c1,1.2,1.9,1.5,2.8,1.7
	c5.4,1.1,10.9,1.8,16.3,3.3c15.2,4.1,25.3,17.4,25.2,33.2c-0.1,13.1-4.9,24.9-11.2,36.1c-9.3,16.5-21.5,30.8-35.4,43.5
	c-30.4,27.7-64.9,48.7-104.4,61c-19.3,6-39,9.4-59.3,6.4c-9.3-1.3-18-4.6-24.9-11.3c-9.4-9.2-11.4-20.7-9.2-33.2
	C70.3,229.1,71,226.3,71.7,223.3z M154.6,223.7c7.1-1.6,14-2.7,20.7-4.8c14-4.4,26.6-11.8,37.9-21.2c9.6-8,18.3-16.8,22.7-28.8
	c4.4-11.9,1.8-22-12.3-25.3c-9.6-2.3-18.7,0.2-27.7,3c-16,5.1-30.1,13.6-42.5,25c-8.7,8-16.2,16.9-19.9,28.5
	c-2.7,8.5,0.4,16.7,8.5,20C146,221.8,150.3,222.5,154.6,223.7z"/>
<path class="st1" d="M71.7,223.3c-0.7,3.1-1.4,5.9-1.9,8.7c-2.2,12.5-0.2,24,9.2,33.2c6.9,6.7,15.6,9.9,24.9,11.3
	c20.3,2.9,39.9-0.4,59.3-6.4c39.5-12.3,74-33.3,104.4-61c13.9-12.7,26.2-27,35.4-43.5c6.3-11.2,11.1-23,11.2-36.1
	c0.1-15.7-10-29.1-25.2-33.2c-5.3-1.4-10.8-2.2-16.3-3.3c-0.9-0.2-1.8-0.5-2.8-1.7c1.4-0.5,2.7-1.2,4.1-1.6
	c16.2-4.3,32.5-7.7,49.2-8.7c17.8-1.1,35.2,0.3,51.4,8.2c16.9,8.3,25.8,22.2,27.3,40.8c1,11.5-1.5,22.6-5.3,33.4
	c-11.3,32.5-31.8,59.1-55.5,83.2c-13.4,13.6-27.9,26.3-42.8,38.4c-19.2,15.6-39.9,29.1-61.7,40.9c-10.4,5.6-20.8,11.3-31,17.4
	c-3.2,1.9-6.1,4.7-8.6,7.5c-3.8,4.1-3.3,8.8,1.7,11.4c4.2,2.2,8.8,4,13.5,4.9c23.3,4.4,46.7,5.6,70.3,2.9
	c10.4-1.2,20.9-2.7,31.1-5.1c13.5-3.2,27-7,40.2-11.4c9-3,17.6-7.1,26.2-11.2c18.4-8.7,35.6-19.3,51.9-31.4
	c13.2-9.9,25.3-21.1,36.5-33.1c0.3-0.4,0.6-0.8,1-1.1c2.5-3.2,5.5-3.1,5.5-3.1s2.1,2.5,1.6,6.3c-2.5,18.1-6.6,35.7-16.6,51.4
	c-6.4,9.9-15,17.7-23.7,25.4c-16.1,14.2-34.2,25.6-52.9,36c-16.9,9.4-34.3,17.7-52.5,23.8c-16.3,5.4-32.8,10.2-49.5,13.7
	c-13.5,2.9-27.4,3.8-41.2,5.1c-23.1,2.1-46.3,1.5-69.3-1.6c-16.9-2.3-33.5-6.2-49.4-12.5c-14.3-5.6-27.7-12.6-39.8-21.9
	c-20.6-15.8-35.9-35.6-44.1-60.5c-5.4-16.5-5.3-33.1-1.5-50.1c5.5-24.3,18-44.7,33-64c0.4-0.5,0.8-0.9,1.3-1.3
	C70.4,223.3,70.9,223.4,71.7,223.3z"/>
<path class="st1" d="M154.6,223.7c-5.5-0.7-8.6-1.9-12.5-3.5c-8.1-3.3-11.1-11.5-8.5-20c3.7-11.6,11.2-20.5,19.9-28.5
	c12.3-11.4,26.5-19.9,42.5-25c8.9-2.8,18-5.3,27.7-3c14.1,3.3,16.7,13.4,12.3,25.3c-4.4,11.9-13.2,20.8-22.7,28.8
	c-11.3,9.4-23.8,16.8-37.9,21.2C168.6,221,162.7,223.9,154.6,223.7z"/>
</svg>
