<?xml version="1.0" encoding="utf-8"?>
<!-- Generator: Adobe Illustrator 22.1.0, SVG Export Plug-In . SVG Version: 6.00 Build 0)  -->
<svg version="1.1" id="Layer_1" xmlns="http://www.w3.org/2000/svg" xmlns:xlink="http://www.w3.org/1999/xlink" x="0px" y="0px"
	 viewBox="0 0 512 512" style="enable-background:new 0 0 512 512;" xml:space="preserve">
<style type="text/css">
	.st0{fill:#181712;}
	.st1{fill:url(#SVGID_1_);}
	.st2{fill:#DD1721;}
</style>
<path class="st0" d="M433.1,264c-0.2,14.2-3,27.7-10.8,39.7c-19.6,30.1-63.9,29.6-81.9-1.4c-13-22.5-13.9-46.4-3.1-70.1
	c8.8-19.4,24.3-30.3,46.1-29.7c21.9,0.6,35.9,13.2,44.4,32.5C431.7,244.2,433.3,254,433.1,264z M417.3,267.2
	c0-13.4-1.4-24.5-6.5-34.8c-5.9-12-14.9-19.9-28.9-20.1c-14.1-0.1-23.6,7.6-28.9,19.8c-9.9,22.7-9.2,45.7,2.6,67.4
	c12,22,39.6,22,52.9,0.8C415.1,289.6,417.2,277.6,417.3,267.2z"/>
<path class="st0" d="M261.6,266.3c0,18.3-0.1,35.3,0.1,52.2c0,3.9-0.5,5.5-5,5.4c-9.7-0.4-9.7-0.1-9.7-9.7c0-34.9,0-69.9-0.1-104.8
	c0-3.5,0.8-4.6,4.4-4.6c10.3,0.2,10.3,0,10.3,10.6c0,14.5,0,29.1,0,45c5.6-6.5,10.3-12.1,15.1-17.6c7.8-9.1,15.4-18.3,23.3-27.1
	c6.8-7.5,14.7-12.8,25.7-10.6c0.3,1.7-1.1,2.4-1.9,3.3c-12.8,14.5-25.6,28.9-38.5,43.3c-3.4,3.8-7.3,6.8-12.1,8.8
	c-1.2,0.5-3.1,0.5-3.3,2.6c-0.1,2.2,1.7,2.2,3,2.7c4.5,1.8,8.4,4.4,11.6,7.9c14.9,16.4,29.7,32.9,44.8,49.6c-4.6,2.2-8.8,1.2-12.9,0
	c-6-1.7-10.6-5.5-14.7-10.2c-11.8-13.8-23.6-27.5-35.4-41.3C265.1,270.2,263.7,268.7,261.6,266.3z"/>
<path class="st0" d="M157.8,272.2c0-14.8,0-29.5,0-44.3c0.1-16.3,6.5-23.2,22.8-24.6c6.9-0.6,13.8-0.3,20.5,1.2
	c16.9,3.8,26.9,14.3,28.4,29.7c1.8,18.6-6.6,34.1-22.1,40.8c-9.3,4-19.2,5-29.1,3.5c-5.1-0.8-5.6,1-5.5,5.3
	c0.3,11.7,0,23.5,0.2,35.2c0.1,3.5-0.5,5-4.6,4.9c-10.5-0.3-10.5,0-10.5-10.4C157.8,299.7,157.8,286,157.8,272.2z M172.9,245
	C172.8,245,172.8,245,172.9,245c-0.1,6.9-0.1,13.7-0.1,20.6c0,1.8-0.2,3.4,2.5,3.9c22.6,3.8,39.3-6.5,39-31.1
	c-0.2-17.9-11.9-28.2-29.7-26.4c-7.8,0.8-11.4,4.4-11.7,12.4C172.7,231.3,172.9,238.1,172.9,245z"/>
<linearGradient id="SVGID_1_" gradientUnits="userSpaceOnUse" x1="105.6238" y1="323.8187" x2="105.6238" y2="238.1841">
	<stop  offset="0" style="stop-color:#000000"/>
	<stop  offset="1" style="stop-color:#003AAE"/>
</linearGradient>
<path class="st1" d="M120.8,281c0,12.8-0.1,25.5,0.1,38.3c0.1,3.4-0.6,4.7-4.3,4.5c-7.4-0.3-14.8-0.3-22.2,0c-3.5,0.1-4-1.2-4-4.3
	c0.2-18.3,0-36.6,0.4-54.9c0.4-16.3,11.7-24.7,27.2-26.4c3.1-0.3,2.6,1.6,2.6,3.5c0,13.1,0,26.2,0,39.3
	C120.6,281,120.7,281,120.8,281z"/>
<path class="st2" d="M126.6,212.4c0.1,11.4-9,20.5-20.4,20.5c-11.1-0.1-20.1-9.2-20-20.3c0-11.2,9-20.1,20.2-20.2
	C117.6,192.4,126.6,201.2,126.6,212.4z"/>
</svg>
