<?xml version="1.0" encoding="utf-8"?>
<!-- Generator: Adobe Illustrator 22.1.0, SVG Export Plug-In . SVG Version: 6.00 Build 0)  -->
<svg version="1.1" id="Layer_1" xmlns="http://www.w3.org/2000/svg" xmlns:xlink="http://www.w3.org/1999/xlink" x="0px" y="0px"
	 viewBox="0 0 512 512" style="enable-background:new 0 0 512 512;" xml:space="preserve">
<style type="text/css">
	.st0{fill:#005B58;}
	.st1{fill:#DF5F06;}
</style>
<path class="st0" d="M216.9,272.3c7,9.4,7,17.7-0.6,24.1c-2.7,2.2-6.6,3.9-10.1,4.1c-9.9,0.5-19.8,0.3-29.7,0.2
	c-7.3-0.1-11.2-4.2-11.3-11.6c-0.1-10.6-0.1-21.2,0-31.7c0-6.7,4-10.9,10.8-11c8.7-0.2,17.4-0.1,26.1-0.1
	c14,0.2,21.2,11.6,15.5,24.3C217.3,271.2,217.1,271.8,216.9,272.3z M175.6,278.8c0,2.9-0.5,5.3,0.2,7.3c0.6,1.6,2.6,3.9,4,3.9
	c8.4,0.4,16.7,0.3,25.1,0.1c3.5-0.1,5.9-2,6-5.7c0-3.4-2.1-5.5-5.5-5.6C195.7,278.7,186,278.8,175.6,278.8z M176.1,268.3
	c8.9,0,17.5,0,26.1,0c4,0,6.8-1.7,6.7-5.9c0-4.2-3-5.7-6.9-5.7c-5.9,0-11.9,0-17.8,0c-8.7,0-9.1,0.4-8.6,9.3
	C175.7,266.5,175.9,267,176.1,268.3z"/>
<path class="st0" d="M256.3,300.7c-4.1,0-8.2,0.2-12.3-0.1c-6.6-0.4-11.8-3.3-14.8-9.4c-1.5-3.1-1.7-6.6,2-8.4
	c3.6-1.7,5.8,0.1,7.7,3.5c1,1.8,3.8,3.6,5.9,3.7c7.7,0.4,15.3,0.2,23,0.1c3.7,0,6.5-1.6,6.6-5.6c0.1-4-2.7-5.8-6.3-5.9
	c-6.8-0.2-13.6-0.1-20.5-0.2c-10.6-0.1-17.3-6.3-17.4-16c0-9.8,6.5-16.1,17.1-16.3c6.5-0.1,13-0.1,19.5,0c6.6,0.1,11.6,3.3,14.2,9.2
	c0.8,1.8-0.8,4.8-1.3,7.2c-2.4-0.6-5.8-0.4-6.9-1.9c-2.5-3.4-5.4-4.3-9.2-4.1c-5.3,0.1-10.6,0.1-15.9,0c-4,0-6.9,1.8-6.9,5.9
	c0,4.2,2.9,5.8,6.9,5.8c6.8,0,13.7-0.1,20.5,0c9.8,0.1,16.8,6.9,16.8,16.1c0,9.1-7.4,16.1-16.9,16.2
	C264.1,300.7,260.2,300.7,256.3,300.7z"/>
<path class="st0" d="M115.2,282c0,4.8,0,8.7,0,12.5c0,3.5-1.4,6.1-5.3,6.1c-3.9,0-5.2-2.8-5.2-6.2c0-12.5-0.1-24.9,0-37.4
	c0.1-6.5,3.7-10.4,10-10.6c9.9-0.3,19.8-0.4,29.7,0c9.4,0.4,15.4,8.4,15.1,19c-0.3,10.8-5.7,16.4-16,16.5
	C134.3,282.1,125.2,282,115.2,282z M115.2,271.5c9.7,0,18.9,0.2,28-0.1c4.2-0.1,5.6-3.4,5.5-7.2c-0.1-4.3-2.1-7.3-6.7-7.4
	c-7.5-0.2-15-0.1-22.4-0.1c-2.9,0-4.4,1.4-4.4,4.3C115.2,264.4,115.2,267.7,115.2,271.5z"/>
<path class="st0" d="M39.9,241.6c2.7-23.4,18-41.9,39.8-47.7c25.8-6.9,52.9,6.1,63.5,30.7c0.7,1.6,1.8,3.4,1.4,4.8
	c-0.5,1.9-1.8,4.2-3.4,5c-1.3,0.6-3.7-0.5-5.4-1.4c-0.9-0.5-1.2-2-1.7-3.1c-8-18.2-26.1-29.4-43.9-27.2c-21.1,2.5-35.5,16-39.5,37
	c-0.7,3.5-1.9,6.8-6,5.9C42.6,245.1,41,242.6,39.9,241.6z"/>
<path class="st0" d="M93.1,267.5c0,4.9,0.1,9.9,0,14.8c-0.1,4.9-2,6.5-6.7,6c-16.6-1.5-34.1-19.2-35.3-35.6c-0.3-4,1.4-6.4,5.4-6.4
	c10.4-0.1,20.8-0.1,31.2,0c3.7,0,5.5,2.1,5.5,5.9C93.1,257.3,93.1,262.4,93.1,267.5z"/>
<path class="st1" d="M297.2,268.7c0-5,0.1-9.9,0-14.9c-0.1-3.9,0.2-7.7,5.1-7.7c4.6,0,4.9,3.7,4.9,7.4c-0.1,8.2,0,16.4,0,24.6
	c0,11.6,0.8,12.4,12.6,12.3c1.5,0,3.1,0.1,4.6-0.1c3.4-0.5,5.8-2.4,5.6-6.1c-0.2-3.7-2.4-5.4-6.1-5.5c-2.2-0.1-4.7,0.1-6.5-0.8
	c-1.6-0.9-3.4-3.1-3.4-4.8c-0.1-1.4,2-4,3.5-4.2c14.6-2.8,24,5.6,22.5,17.8c-0.9,7.5-7.3,13.4-15.4,13.8c-3.9,0.2-7.9,0.2-11.8,0
	c-8.8-0.4-15.3-7-15.5-15.9C297.1,279.3,297.2,274,297.2,268.7z"/>
<path class="st1" d="M455.5,277.6c4.5-3.3,7.8-5.7,11.2-8.2c2.6-1.9,5.5-4.5,8.3-0.8c2.7,3.6-0.7,5.4-3.1,7.3
	c-0.8,0.6-1.5,1.3-2.9,2.5c3.3,4.4,6.5,8.7,9.7,12.9c1.9,2.6,3.8,5.3,0.4,7.9c-3.5,2.7-5.6,0.2-7.5-2.4c-3.2-4.2-6.3-8.4-9.6-12.7
	c-4.4,1.8-7.2,4.2-6.5,9.2c0.5,3.6-0.6,6.8-4.8,7c-4.3,0.1-5-3.1-5-6.7c0.1-13.6,0.1-27.3,0-40.9c0-3.4,0.5-6.3,4.7-6.4
	c4.4-0.1,5.2,2.9,5.1,6.6C455.4,260.7,455.5,268.5,455.5,277.6z"/>
<path class="st1" d="M368,268.3c3.1,0.2,6.2,0.1,9.2,0.6c6.6,1.2,11.5,6.4,12.1,12.8c0.4,4.6,0.6,9.3,0,13.8c-0.3,1.8-3,3.3-4.6,4.9
	c-1.6-1.7-4-3.1-4.5-5c-0.8-3.2-0.2-6.8-0.4-10.2c-0.2-4.2-2.7-6.6-6.9-6.8c-3.6-0.2-7.2-0.1-10.7,0.2c-3.3,0.3-5.2,2.3-5.2,5.8
	c0.1,3.7,2.2,5.6,5.7,6c2.2,0.2,4.6-0.4,6.6,0.4c1.7,0.7,3.9,2.7,4.1,4.2c0.1,1.6-1.6,4.3-3.1,5c-5.3,2.6-15.2-0.1-19.4-4.7
	c-4.3-4.7-5.5-11.8-2.7-17.7c3.4-7,9.3-9.6,16.8-9.2c1,0,2,0,3.1,0C368,268.4,368,268.3,368,268.3z"/>
<path class="st1" d="M417.6,268.5c2.2,0,4.4-0.1,6.7,0c7.6,0.6,13.8,6,14.7,13.4c0.5,4.5,0.6,9.3,0,13.8c-0.3,1.8-3.2,4.5-4.8,4.5
	c-1.6,0-4.2-2.7-4.6-4.7c-0.8-3.2-0.2-6.8-0.3-10.2c-0.1-4-2.1-6.4-6.3-6.4c-3.6,0-7.2-0.1-10.8,0c-3.7,0.1-5.6,2.2-5.8,5.8
	c-0.1,2.9-0.1,5.8-0.1,8.7c0,3.5-0.7,6.9-4.9,7c-4.7,0.2-5.1-3.5-5.2-7.2c0-1,0-2,0-3.1C396.1,273.3,400.9,268.4,417.6,268.5z"/>
<path class="st0" d="M90,304.9c-28.5-1.1-54.1-26.7-55-53.8c-0.1-1.5,1.2-3,1.9-4.6c0.9,1.3,2.4,2.6,2.6,4
	c3.2,27.1,22.2,46.3,49.2,49.7c1.7,0.2,3.2,1.7,4.8,2.6C91.9,303.7,90.4,304.6,90,304.9z"/>
</svg>
