<?xml version="1.0" encoding="utf-8"?>
<!-- Generator: Adobe Illustrator 22.1.0, SVG Export Plug-In . SVG Version: 6.00 Build 0)  -->
<svg version="1.1" id="Layer_1" xmlns="http://www.w3.org/2000/svg" xmlns:xlink="http://www.w3.org/1999/xlink" x="0px" y="0px"
	 viewBox="0 0 512 512" style="enable-background:new 0 0 512 512;" xml:space="preserve">
<style type="text/css">
	.st0{fill:#61C442;}
	.st1{fill:#FCFDFC;}
</style>
<rect class="st0" width="512" height="512"/>
<path class="st1" d="M278.2,437.5c-40.2,0-80.4,0.1-120.6,0c-32.1-0.1-57.9-13-76.6-39.3c-10.1-14.1-15.8-30-15.9-47.4
	c-0.3-63-1.1-125.9,0.2-188.9c0.7-36.4,20-62.6,52.8-78.6c12.5-6.1,25.8-8.4,39.7-8.3c74.8,0.1,149.7,0.1,224.5,0.1
	c10.2,0,12.3,2.1,12.3,12.3c0,3.3,0.1,6.5,0,9.8c-0.2,6.2-3.1,9.1-9.4,9.4c-2.8,0.1-5.5,0-8.3,0c-74,0-148.1,0-222.1,0
	c-6.9,0-10,1.8-9.9,5.8c0.1,3.8,3,5.4,9.9,5.4c85.1,0,170.2,0.1,255.3,0.1c2.6,0,5.2-0.1,7.8,0.2c5.8,0.6,9.7,4.5,9.7,10.3
	c0.1,23.4,0,46.9,0.1,70.3c0,4.6-3,4.2-5.9,4.3c-28.5,0-56.9,0-85.4,0.1c-15.3,0-25.5,7.5-30.4,21.9c-0.9,2.5-1,5.1-1,7.7
	c0,20.2-0.1,40.3,0,60.5c0.1,15.1,11.8,28.1,26.9,28.9c14.8,0.8,29.6,0.4,44.4,0.5c15.3,0.1,30.6,0.1,45.9,0c4.2,0,5.7,1.5,5.7,5.7
	c-0.1,30.7-0.4,61.5,0,92.2c0.1,9.9-8.7,17.2-16.9,17.1c-12.2-0.2-24.4,0-36.6,0C342.3,437.5,310.2,437.5,278.2,437.5z M155,316.6
	c28.6-0.4,55.3-7.6,78.9-24.2c15.3-10.8,28.3-23.9,35.9-41.5c2.9-6.6,5.3-13.8,0.5-20.4c-5.3-7.2-13.4-6.9-21.4-6.2
	c-0.8,0.1-1.6,0.3-2.4,0.4c-7.9,1.1-15.5,3.6-22.8,6.7c-3,1.3-8.4,1.9-6.6,6.6c1.7,4.4,6.1,2,9.4,0.9c7.7-2.5,15.5-4.9,23.7-4.8
	c7.9,0,11.2,4.9,8.9,12.3c-2.2,7.2-6.6,13-11.7,18.3c-16.3,16.7-36.2,27.3-58.5,33.4c-13.4,3.7-27.1,5.4-41,3.7
	c-10.1-1.3-19.4-4.2-23.6-15.2c-4-10.6-0.5-19.4,6.1-27.5c6-7.3,13.5-12.6,21.5-17.4c17.1-10.2,35.5-17.5,54.3-23.7
	c4-1.3,8.1-2.6,11.8-4.5c4.1-2.1,3.9-5.4-0.2-7.6c-2.9-1.6-5.9-1.2-9-0.5c-24.2,5.1-47,13.8-68.2,26.4c-15.5,9.2-29,20.8-37.5,37.3
	c-8.4,16.3-1.4,34.6,15.6,41.2C130.4,315,142.5,316.8,155,316.6z M205.2,261.6c0,3.9,0,7.8,0,11.7c0,1.7,0.2,3.4,2.5,3.4
	c5.2,0,10.5,0.5,15.5-0.6c6-1.4,8.3-7.7,4.6-12.6c-1.4-1.8-1.8-2.9-0.8-5.1c2.6-6-0.1-10.3-6.7-10.9c-3.9-0.3-7.8-0.1-11.7-0.2
	c-2.5-0.1-3.6,1-3.5,3.5C205.3,254.4,205.2,258,205.2,261.6z M192.3,261.4c-0.6,0-0.9,0-1.2,0c-1.9,0.3-4.7-1-5.2,2.1
	c-0.4,3,2.2,2.5,4.1,2.8c1.3,0.2,2.1,0.9,2.2,2.2c0,1.5-1,2.3-2.2,2.9c-3.5,1.7-6.9,1.8-10-0.9c-3.2-2.8-4.1-8.9-2.2-13.2
	c1.6-3.5,4.5-5,8.3-4.8c2,0.1,3.7,1.2,5.1,2.7c1.6,1.7,3.7,1.9,5.2,0.4c2.1-2.1-0.3-3.6-1.5-4.8c-4.3-4.6-14.5-4.4-19.2,0.2
	c-5.7,5.5-6.3,15.9-1.2,21.9c4.6,5.4,16.3,6.4,21.9,1.6c3.6-3,2-7.3,1.6-11C197.3,260.1,194,261.9,192.3,261.4z M156.1,277.4
	c7.7,0,11.5-2.7,12-8c0.5-5.2-3-8.8-9.6-10.2c-1.7-0.4-3.5-0.9-5.1-1.5c-1.1-0.4-2-1.3-1.9-2.6c0.1-1.3,1.2-1.9,2.3-2.3
	c2.7-1.2,5-0.4,7,1.8c1.6,1.7,3.8,2.9,5.4,0.9c1.8-2.2,0-4.4-2-5.6c-3.6-2.3-7.6-2.9-11.7-1.8c-3.7,1-6.5,3.1-6.7,7.3
	c-0.2,4.2,2.4,6.6,6,7.9c2.4,0.9,5,1.4,7.5,2.2c1.6,0.5,3,1.5,2.9,3.4c-0.2,2.1-1.6,3.2-3.5,3.5c-3.3,0.7-6.1-0.2-7.9-3.3
	c-1.1-1.8-3-2.3-4.6-1.2c-2.1,1.4-0.8,3.1,0.1,4.6C148.6,276.5,152.3,277.7,156.1,277.4z"/>
<path class="st1" d="M382,310.9c-14.1,0-28.3,0.1-42.4,0c-14.4-0.1-21.1-6.8-21.1-21.3c0-18-0.1-36.1,0-54.1
	c0-12.5,7.5-20.1,20-20.2c29.3-0.1,58.5,0,87.8,0.1c12.4,0.1,20,7.7,20.1,20.2c0.1,18.4,0.1,36.7,0,55.1c-0.1,12.9-6.9,19.9-19.8,20
	c-14.8,0.2-29.6,0-44.4,0C382,310.8,382,310.9,382,310.9z M387.4,263.4c0.1-11.9-9.3-21.5-21.1-21.5c-11.6,0-20.9,9.3-21,21.1
	c-0.1,12.1,9.1,21.5,21,21.5C378,284.4,387.3,275.2,387.4,263.4z"/>
<path class="st1" d="M216.4,271.8c-3.2,0.3-5.4-0.2-5.3-4.3c0.1-3.9,2.3-4.1,5.1-3.9c3.1,0.2,6.9-0.2,7,4.1
	C223.4,272.1,219.4,271.6,216.4,271.8z"/>
<path class="st1" d="M216,259c-1.9-0.2-4.8,0.8-4.8-3.2c-0.1-3.6,2.3-3.7,4.8-3.7c2.7,0.1,6.2-0.3,6.2,3.5
	C222.2,259,219,259,216,259z"/>
<path class="st1" d="M366.3,273.9c-5.5,0.1-10-4.3-10-9.7c0-5.4,4.4-9.8,9.9-9.8c5.3,0.1,9.6,4.3,9.8,9.5
	C376.2,269.3,371.8,273.8,366.3,273.9z"/>
</svg>
