<?xml version="1.0" encoding="utf-8"?>
<!-- Generator: Adobe Illustrator 22.1.0, SVG Export Plug-In . SVG Version: 6.00 Build 0)  -->
<svg version="1.1" id="Layer_1" xmlns="http://www.w3.org/2000/svg" xmlns:xlink="http://www.w3.org/1999/xlink" x="0px" y="0px"
	 viewBox="0 0 512 512" style="enable-background:new 0 0 512 512;" xml:space="preserve">
<style type="text/css">
	.st0{fill:#EDEFF0;}
	.st1{fill:#4AB6E6;}
	.st2{fill:#94C970;}
	.st3{fill:#EA5065;}
	.st4{fill:#D3D3D3;}
</style>
<rect class="st0" width="512" height="512"/>
<path class="st1" d="M455.9,258.3c8.2,5.7,15.5,12.2,20.4,21.2c8.7,15.9,4.9,41.4-7.8,54c-12.1,12.1-27.4,15.9-43.4,18.5
	c-13.7,2.2-27.5,0.4-41.2,0c-2.4-0.9-5-0.9-7.5-0.8c-0.4-0.2-0.8-0.4-1.3-0.5c-3.5-0.7-7-1.3-10.5-2c-0.8-0.1-1.6-0.1-2.4-0.2
	c-3.7-1.5-7.4-3-11.1-4.5c-1.9-0.8-3-1.8-3-4.1c0.1-53.5,0.2-107,0.1-160.5c0-4.3,1.3-6.5,5.3-7.8c11.2-3.8,22.7-6.1,34.4-7.3
	c12.9-1.4,25.9-1.3,38.6,1c19.1,3.4,36.7,10.3,45.1,29.7c9.4,21.6,1.2,46.7-23,56.1c-1.7,0.7-3.6,0.9-5.5,2.6
	C447.7,255.2,451.8,256.7,455.9,258.3z M433.5,279.5c-2.2-6.3-7.4-9.3-13-11.6c-8.6-3.5-17.7-3.2-26.7-3.4c-3.7-0.1-4.8,1.6-4.8,4.8
	c0.1,14.3,0.1,28.7,0.2,43c0,3,0.1,6-0.1,9c-0.1,2.6,0.9,3.8,3.5,4.4c5.7,1.3,11.4,1.5,17.1,1.2c11-0.6,20.7-4.2,25.2-14.8
	C439.5,301.3,439.5,290.1,433.5,279.5z M388.9,217.2c0,7.9,0,15.8,0,23.7c0,2.2,0.4,3.5,3.1,3.4c7.6-0.2,15.2,0.4,22.7-1.6
	c9.2-2.4,16-7.2,19-16.8c1.6-5.3,1.6-10.6,1-15.8c-1.2-10.1-6.1-17.8-16.4-21c-8.3-2.6-16.6-2.1-25.1-0.5c-3.3,0.6-4.3,2.2-4.2,5.3
	C389,201.7,388.9,209.4,388.9,217.2z"/>
<path class="st2" d="M41.9,263c0-27.7,0.1-55.5-0.1-83.2c0-3.9,1.3-5.5,4.9-6.8c19.3-7.1,39.4-9.1,59.7-8.1
	c14.3,0.7,28.1,3.8,40.3,12.1c13.4,9.1,20.3,22,22.1,37.7c1.2,10.3,0.8,20.6-3,30.5c-6.8,17.7-20.1,28.2-37.8,33.5
	c-13.4,4.1-27.2,5.4-41.2,3.8c-3.3-0.4-2.5,2.1-2.5,3.7c0,14.8,0,29.6,0,44.4c0,5.8-0.1,11.5,0,17.3c0.1,2.6-0.9,3.5-3.5,3.5
	c-11.8-0.1-23.6-0.2-35.4,0c-3.8,0.1-3.6-2.1-3.6-4.7C41.9,318.8,41.9,290.9,41.9,263z M84.3,224.1c0,9.5,0.1,19-0.1,28.5
	c-0.1,3.2,0.8,4.6,4.2,4.9c5.2,0.5,10.3,0.4,15.4-0.4c11.6-1.7,20.3-10,22.8-21.6c1.5-7.1,1.8-14.2,0.7-21.3
	c-1.5-9.8-4.9-18.4-15-22.3c-7.8-3.1-15.8-3.3-24.1-1.5c-2.9,0.6-4,1.8-4,4.9C84.4,204.9,84.3,214.5,84.3,224.1z"/>
<path class="st1" d="M241.7,213.3c2.6-8.7,4.5-16.2,7-23.5c3.7-11.4,14.9-17,26.4-13.7c4.4,1.3,6.7,4.2,6.9,8.8
	c0.2,5.6-1.8,10.7-4,15.7c-11.1,24.7-19.8,50.1-23.8,77c-0.9,5.8-5.6,9.8-11.3,9.6c-4.7-0.2-7.2-2.4-7.2-7.2
	c-0.1-13.1-0.5-26.1,1.5-39.2c1-6.2,0.1-5.3-4.5-5.4c-4.9-0.1-9.7-1.3-14.5-1.6c-8.2-0.6-16.3,0.2-24.3,2.2
	c-10.4,2.5-13.9-1.2-11.9-11.8c2.7-14.2,9.4-19.7,23.9-20.3c10.6-0.5,20.9,1,30.8,4.7C238.5,209.2,240.2,210.3,241.7,213.3z"/>
<path class="st3" d="M243.6,341.9c-33-2.9-59.3-16.4-74-47.7c-5.3-11.3,3.1-26.5,15.5-28.4c4.8-0.7,7,0.5,7.7,5.2
	c3.6,24.6,27.1,41.6,47.9,43.2c18.5,1.5,35.5-2.2,50.1-14.5c6.2-5.3,12.6-10.4,18.9-15.6c1.4-1.1,3-2.5,5-1.2c1.9,1.2,1.7,3.1,1.8,5
	c0.2,3.4-2.2,5.5-3.9,7.9c-9.9,13.5-20.1,26.7-34.5,35.6C267.6,337.7,256.4,342.3,243.6,341.9z"/>
<path class="st1" d="M335.3,240.8c-0.7,6.1-2.8,11.6-7.2,16.1c-3,3.1-6.2,3.4-10.1,1.3c-8.1-4.3-16-8.9-25.2-10.9
	c-3.6-0.8-7.1-0.7-10.7-0.9c-11.4-0.6-14.7-6-9.5-16.1c2.1-4.1,4.6-8.1,8.6-11.1c5.2-3.8,11-3.2,16.4-2.1c12.6,2.6,24.1,8.2,34.4,16
	C334.8,235.1,335.5,237.7,335.3,240.8z"/>
<path class="st4" d="M376.4,351c-0.4-0.2-0.8-0.4-1.3-0.5C375.6,350.7,376,350.9,376.4,351z"/>
</svg>
