<svg xmlns="http://www.w3.org/2000/svg" viewBox="0 0 512 512"><path d="M72 317.31V196.252h31.376c11.542 0 22.354-.265 27.86.73 5.505.995 12.736 3.648 16.45 6.036 5.042 3.051 8.823 7.628 11.476 13.665s3.914 13.266 3.914 21.624c0 13.798-2.985 24.61-10.282 31.774s-23.416 10.215-37.478 10.215h-8.027v36.948H72zm35.09-59.169c.465.066.531.066 1.659.133 10.945.398 13.797-2.322 15.522-4.378 2.587-3.184 2.653-10.348 2.653-16.982 0-5.505.199-10.016-3.781-14.328-2.587-2.852-9.021-3.781-16.053-3.781l.067 1.99v37.346zm287.754 58.639h-79.401V195.522h39.137v84.907h40.264zm44.312-79.401h-37.545v79.6h37.545zm.265-41.326H401.08v32.901h38.341z"/><path fill="#2F4398" d="M262.775 308.422c5.041-1.791 10.016-5.639 14.328-9.552 12.139-11.012 24.875-29.784 23.88-52.603-1.062-24.012-13.93-39.402-31.044-49.02 4.975 1.061 9.021 4.378 12.868 7.496 11.012 8.888 19.37 22.686 19.701 42.121.465 25.804-13.266 43.449-26.865 55.588 4.246-2.123 7.562-6.037 10.746-9.884 9.022-10.812 17.313-26.202 17.313-45.438 0-27.064-15.323-42.653-33.166-52.868 5.903 1.725 11.144 5.24 15.522 8.955 10.812 9.154 20.43 25.273 19.104 46.632-1.261 21.094-10.614 37.744-23.283 49.883s-30.049 20.829-50.215 22.686c-1.99.199-5.107.199-7.495 0-31.177-2.587-53.797-22.553-56.185-53.199a57.5 57.5 0 0 1 0-9.552c1.393-19.303 10.016-34.693 21.492-46.633 12.471-12.935 28.192-22.686 50.148-24.211.531-2.388 1.194-5.174 1.526-6.899 7.23 7.695 15.986 16.053 25.074 25.074-10.945 5.572-21.558 11.476-32.238 17.313.265-2.189.73-4.71.862-6.302-18.374 3.251-33.83 16.584-37.014 35.223-3.913 22.753 11.277 40.198 33.167 40.331 22.089.133 40.861-16.915 44.178-36.417 2.72-15.787-4.245-26.799-13.134-34.029 8.292 5.506 17.313 15.389 16.119 30.182-1.857 23.084-23.548 42.254-46.301 42.387-12.404.066-23.482-5.44-31.375-14.66 7.429 10.812 20.43 16.517 35.223 15.522 11.608-.796 21.425-6.501 28.656-13.466 7.429-7.097 13.134-16.981 14.659-27.196.531-3.848.597-8.159 0-12.272-1.791-11.94-9.087-17.512-15.721-25.14 9.42 7.562 19.37 17.578 18.706 33.83-.995 23.747-23.681 44.708-47.494 46.3-15.589 1.062-25.207-4.245-33.432-11.94 7.827 9.884 22.487 14.992 37.942 12.537 21.957-3.449 41.525-21.757 43.913-44.509 2.123-20.497-8.225-30.049-18.175-40.132 10.547 8.026 19.568 16.849 20.231 33.233.597 14.195-6.368 28.125-15.256 37.014-14.196 14.195-41.857 23.548-63.349 10.481 18.308 13.996 46.699 5.97 61.823-7.761 10.945-9.95 18.971-23.217 17.645-42.984-1.062-15.92-10.083-24.079-20.298-32.57 10.547 5.373 20.629 16.185 22.089 31.641 1.923 20.298-7.43 35.356-18.839 45.372-13.731 12.139-33.1 19.369-54.99 13.731 36.085 11.277 69.849-15.588 74.691-46.566 3.449-22.288-7.96-35.422-18.839-44.841-1.127-.929-1.724-1.659-3.25-2.985 15.522 8.092 28.391 25.87 23.283 51.076-5.904 29.32-35.289 53.133-73.166 46.898 5.506 2.189 11.94 1.725 17.512 1.459 17.247-.928 32.835-9.552 41.193-18.838 10.149-11.277 18.176-25.472 16.584-45.969-1.393-18.507-11.741-27.396-24.411-37.213 5.307 1.923 9.95 5.638 13.731 9.817 6.368 6.899 11.542 16.318 12.404 28.059 1.526 21.094-8.159 36.815-18.838 47.826-11.343 11.741-26.733 19.237-46.301 19.436 30.646.929 51.077-17.91 60.96-38.805 5.639-12.006 7.297-28.921 2.72-42.122-4.245-12.205-13.996-20.563-23.615-27.329 16.783 8.955 30.845 25.737 27.794 51.806-1.128 9.884-4.312 17.977-8.756 25.406-9.154 15.323-24.079 26.135-40.861 31.973 12.404-2.72 24.211-10.149 32.835-19.701 10.613-11.741 18.772-26.6 18.241-47.163-.597-22.222-14.328-35.024-28.39-45.107.199 0 .464.133.53.133 15.323 7.495 26.932 20.563 29.32 40.795 4.179 32.171-16.915 55.521-36.417 67.66"/></svg>