<?xml version="1.0" encoding="utf-8"?>
<!-- Generator: Adobe Illustrator 22.1.0, SVG Export Plug-In . SVG Version: 6.00 Build 0)  -->
<svg version="1.1" id="Layer_1" xmlns="http://www.w3.org/2000/svg" xmlns:xlink="http://www.w3.org/1999/xlink" x="0px" y="0px"
	 viewBox="0 0 512 512" style="enable-background:new 0 0 512 512;" xml:space="preserve">
<style type="text/css">
	.st0{fill:#019430;}
	.st1{fill:#FFFFFF;}
</style>
<rect x="1" y="-1" class="st0" width="509" height="511"/>
<path class="st1" d="M243.7,96.5c47.6-2.3,81.8,27.4,86.6,72.8c2,18.9,0.5,37.4-7.5,54.7c-12.9,27.9-35.7,42.7-65.5,47.1
	c-19.8,3-39,0.8-56.6-9.2c-22.3-12.7-33.8-32.9-38.2-57.5c-4.7-26.2-1.5-51.2,15-73.1C194.6,108.6,217.5,96.8,243.7,96.5z
	 M195.2,181.4c0.3,15.9,2.9,31.2,11.7,44.8c10.2,15.8,24.4,25.2,43.7,24c19.1-1.2,32.5-11.7,39.6-29.1c3.5-8.6,5.4-18.2,6.2-27.5
	c1.6-19.7-1.9-38.5-13.6-55.1c-20.5-28.9-64.1-28.5-80,7C197.5,156.9,195.5,168.9,195.2,181.4z"/>
<path class="st1" d="M37.4,99.8c14.3-0.5,28.1-1.1,41.9-1.2c10.3-0.1,20.7-0.2,30.9,1.2c22.1,3,35.6,16.5,40.6,37.9
	c5.4,23.5,1.8,45.1-16.6,62.5c-9.6,9.1-21.8,12.7-34.6,13.8c-7.4,0.6-14.9,0.1-23.4,0.1c3.7-7.5,7.2-14.8,11-21.8
	c0.5-0.9,2.7-1,4.1-1.1c16.6-1.8,24.5-9.1,27-25.6c1.4-9,0.9-18-2.3-26.6c-3.9-10.6-12-15.6-22.8-16.7c-6.1-0.6-12.3-0.2-18.5-0.5
	c-4-0.2-5.1,1.4-5,5.2c0.1,22.5,0,45,0,67.5c0,22.7-0.1,45.3,0.2,68c0,4.4-1.2,5.9-5.6,5.7c-7.1-0.3-14.3-0.3-21.5,0
	c-4.3,0.2-5.8-1.1-5.7-5.6c0.3-13,0.1-26,0.1-39c0-39,0-78,0-117C37.1,104.4,37.3,102.3,37.4,99.8z"/>
<path class="st1" d="M387,214.1c3.6-7.3,6.7-13.9,10-20.4c0.6-1.1,2.2-2.3,3.3-2.4c24.4-1,29.5-18.3,29.2-36.1
	c-0.1-3.3-0.4-6.7-1-9.9c-3-16.3-13.6-23.8-32.9-23.8c-15.3,0-15.3,0-15.3,15.1c0,41.8-0.1,83.7,0.1,125.5c0,4.9-1.4,6.3-6.2,6
	c-7-0.4-14-0.4-21,0c-4.5,0.2-5.5-1.5-5.5-5.8c0.1-40.7,0.1-81.3,0.1-122c0-12.2,0-24.3,0-36.5c0-2.4,0.1-4.2,3.3-4.2
	c20.8-0.3,41.7-1.4,62.4-0.8c28.2,0.9,46.4,18.7,49.4,46.8c2.2,20.5-1.9,39.2-17.5,53.9c-9.9,9.4-22.3,13.2-35.4,14.4
	C402.7,214.6,395.3,214.1,387,214.1z"/>
<path class="st1" d="M420.3,419.2c-9.6,0-17.7,0.2-25.8-0.2c-1.3-0.1-2.9-2-3.8-3.4c-6-9.5-11.9-19.2-19-28.6c0,10.5,0,21,0,32.2
	c-6.7,0-12.6,0.1-18.6-0.1c-0.8,0-1.8-1.5-2.2-2.5c-0.4-1-0.1-2.3-0.1-3.5c0-34.8,0.1-69.7-0.1-104.5c0-4,1.2-6.1,4.8-7.5
	c5.1-2.1,9.9-4.6,15.9-7.4c0,24,0,47.3,0,70.6c0.4,0.1,0.8,0.1,1.1,0.2c6.2-8,12.6-15.9,18.5-24.2c2.6-3.6,5.4-4.6,9.6-4.5
	c5.3,0.1,10.6-0.4,15.9-1.3c1.8-0.3,3.9-1.9,4.9-3.6c0.4-0.7-1.7-3.1-3-4.4c-2.9-3-6.1-5.7-9-8.7c-5.5-5.5-7.4-11.6-3.9-19.2
	c1.8-4,2.2-8.7,3.4-13.7c2.3,1.4,3.6,2.2,4.9,3c3-4.2,5.7-8.3,8.8-12.1c0.8-0.9,3-0.6,4.5-1c2.4-0.6,5.2-0.9,7.1-2.3
	c2.3-1.6,3.8-4.2,6-6.8c1.8,2.3,2.8,3.5,4,4.9c4.2-1,6.2-8.9,12.1-3.7c8.5-6.1,16.7-12.1,25.8-18.6c-1.1,9.6-2.1,18-3.1,26.5
	c-0.1,1-0.5,2.5-0.1,2.9c4.5,4.1,0.9,8.3,0.4,12.4c3.1,2.6,4.5,7.9,1.8,10.8c-3,3.2-2,5,1.2,7.3c-1.5,2.3-2.7,4.6-4.5,6.4
	c-1,1-2.9,1.6-4.3,1.5c-4.3-0.4-8.7-0.9-12.9-2c-1.3-0.3-2-2.8-3.1-4.4c-3.7,0.5-8.1,0.6-12,1.9c-2.6,0.9-5.4,3.2-6.8,5.6
	c-5.1,8.5-11.2,15.4-19.8,20.8c-6.1,3.8-10.5,10.5-15.5,16.1c-4.9,5.6-9.6,11.4-14.6,17.3C399.2,387,409.3,402.4,420.3,419.2z"/>
<path class="st1" d="M60.5,419.2c-7.2,0-13.5,0.1-19.8-0.1c-0.9,0-2.2-1.6-2.6-2.6c-0.5-1.2-0.2-2.6-0.2-4c0-34.3,0.1-68.6-0.1-103
	c0-4.5,1-6,5.8-6c12.7,0.1,25.3-0.8,38-0.6c21.5,0.4,34.8,14,35.8,35.6c0.7,15.5-3.8,28.8-17.2,37.5c-10.5,6.9-22.5,7-35.5,6.5
	c2.6-5.5,4.7-10.2,7.2-14.6c0.6-1.1,2.8-1.5,4.3-1.8c11.3-1.7,17-7.9,17.7-19.3c1.2-20.8-6-28.4-26.9-27.9c-2,0-3.9,0.2-6.4,0.3
	C60.5,352.6,60.5,385.5,60.5,419.2z"/>
<path class="st1" d="M343.5,335.8c-10.5,12.6-20.1,24.1-29.7,35.7c10.3,15.6,20.4,31.1,31.4,47.7c-5.5,0-10.1-0.6-14.5,0.1
	c-9.4,1.5-15.4-1.8-19.6-10.6c-3.7-7.8-8.9-14.8-13.5-22.1c-0.1-0.1-0.3-0.1-1-0.5c0,10.9,0,21.6,0,33c-6.5,0-12.4,0.1-18.4-0.1
	c-0.8,0-1.9-1.5-2.2-2.5c-0.4-1.2-0.1-2.6-0.1-4c0-34.7,0.1-69.3-0.1-104c0-4,1.2-6.1,4.8-7.5c5-2.1,9.9-4.6,15.7-7.4
	c0,24.2,0,47.5,0,70.8c0.4,0.1,0.7,0.2,1.1,0.3c5.9-7.7,12.1-15.3,17.7-23.3c3-4.2,6.2-6.3,11.5-5.7
	C331.6,336.2,336.8,335.8,343.5,335.8z"/>
<path class="st1" d="M216.2,419.2c-6.6,0-12.3,0-18.1,0c-3.5,0-2.8-2.6-2.8-4.6c-0.1-13.3,0-26.6,0-40c0-8.2,0.1-16.3-0.1-24.5
	c-0.1-2.9,0.8-4.6,3.5-5.8c5.6-2.5,11-5.4,17.3-8.5c0.2,3.3,0.3,5.8,0.4,8.9c1.8-1.2,3.1-2.1,4.5-2.9c4.2-2.3,8.3-5,12.8-6.5
	c14.7-5.1,27.6,2.9,28.4,18.4c1,20.8,0.7,41.6,0.7,62.4c0,1-1.7,2.9-2.7,3c-5,0.3-10,0.1-15,0.2c-3.4,0-3.1-2.3-3.1-4.5
	c0-14,0-28,0-42c0-3,0-6-0.1-9c-0.5-8.7-4.6-11.8-12.9-9.2c-3.1,0.9-5.9,2.9-8.8,4.5c-2.9,1.6-3.9,4-3.9,7.4
	c0.2,15.3,0.1,30.6,0.1,46C216.2,414.4,216.2,416.3,216.2,419.2z"/>
<path class="st1" d="M128.3,357.2c-1.9-4.6-3.8-8.6-5.1-12.8c-0.3-1,0.7-3.3,1.7-3.9c11.3-6.3,23.3-8.9,36-5.5
	c9.8,2.6,15.1,10,15.2,21.4c0.2,13.5-0.1,27-0.3,40.4c-0.1,4,0.7,6.5,5.5,6c1-0.1,2.7,1,3.2,2.1c1.4,2.8,2.4,5.8,3.5,8.6
	c-10.9,9.7-23.5,9.9-30.7,0.3c-2,0.8-4.1,1.7-6.2,2.5c-3.1,1.2-6.2,2.6-9.4,3.4c-16,4.3-26.1-3.1-26.9-19.7c-0.2-3.5,0-7,0.5-10.4
	c0.9-6.6,4.6-11.7,11-13.6c8.1-2.5,16.3-4.4,24.6-6.1c3.5-0.7,5.5-1.8,4.9-5.7c-0.3-1.8-0.1-3.7-0.2-5.5c-0.3-4.7-2.9-7.1-7.6-7.7
	C140.7,349.9,134.3,352.2,128.3,357.2z M155.7,382.1c-6.2,1.5-11.8,2.7-17.3,4.4c-4.2,1.3-3.5,5.1-3.5,8.4c0,3,0,7,3.7,7.2
	c5.3,0.2,10.6-1,15.9-1.7c0.5-0.1,1.1-1.6,1.2-2.4C155.8,392.9,155.7,388,155.7,382.1z"/>
<path class="st1" d="M447.3,335.9c0,28.3,0,55.6,0,83.1c-6.8,0-13.3,0-20.1,0c-0.1-1.6-0.4-3.1-0.4-4.5c0-21.3,0.1-42.7-0.1-64
	c0-3.4,1.1-5.1,4-6.5C436.2,341.5,441.5,338.7,447.3,335.9z"/>
<path class="st1" d="M431.9,331.9c4.1-4.9,8.1-9.9,12.3-14.7c3.6-4.1,8.6-4,13.1-1c1.9,1.2,4.6,1.4,7,1.7c2.7,0.4,5.4,0.4,8.2,1.2
	c-11.7,9.6-25.5,12.9-39.9,14.2C432.4,332.8,432.1,332.3,431.9,331.9z"/>
</svg>
