<svg xmlns="http://www.w3.org/2000/svg" viewBox="0 0 512 512"><path fill="#019430" d="M1-1h509v511H1z"/><path fill="#fff" d="M243.7 96.5c47.6-2.3 81.8 27.4 86.6 72.8 2 18.9.5 37.4-7.5 54.7-12.9 27.9-35.7 42.7-65.5 47.1-19.8 3-39 .8-56.6-9.2-22.3-12.7-33.8-32.9-38.2-57.5-4.7-26.2-1.5-51.2 15-73.1 17.1-22.7 40-34.5 66.2-34.8m-48.5 84.9c.3 15.9 2.9 31.2 11.7 44.8 10.2 15.8 24.4 25.2 43.7 24 19.1-1.2 32.5-11.7 39.6-29.1 3.5-8.6 5.4-18.2 6.2-27.5 1.6-19.7-1.9-38.5-13.6-55.1-20.5-28.9-64.1-28.5-80 7-5.3 11.4-7.3 23.4-7.6 35.9M37.4 99.8c14.3-.5 28.1-1.1 41.9-1.2 10.3-.1 20.7-.2 30.9 1.2 22.1 3 35.6 16.5 40.6 37.9 5.4 23.5 1.8 45.1-16.6 62.5-9.6 9.1-21.8 12.7-34.6 13.8-7.4.6-14.9.1-23.4.1 3.7-7.5 7.2-14.8 11-21.8.5-.9 2.7-1 4.1-1.1 16.6-1.8 24.5-9.1 27-25.6 1.4-9 .9-18-2.3-26.6-3.9-10.6-12-15.6-22.8-16.7-6.1-.6-12.3-.2-18.5-.5-4-.2-5.1 1.4-5 5.2.1 22.5 0 45 0 67.5 0 22.7-.1 45.3.2 68 0 4.4-1.2 5.9-5.6 5.7-7.1-.3-14.3-.3-21.5 0-4.3.2-5.8-1.1-5.7-5.6.3-13 .1-26 .1-39v-117c-.1-2.2.1-4.3.2-6.8M387 214.1c3.6-7.3 6.7-13.9 10-20.4.6-1.1 2.2-2.3 3.3-2.4 24.4-1 29.5-18.3 29.2-36.1-.1-3.3-.4-6.7-1-9.9-3-16.3-13.6-23.8-32.9-23.8-15.3 0-15.3 0-15.3 15.1 0 41.8-.1 83.7.1 125.5 0 4.9-1.4 6.3-6.2 6q-10.5-.6-21 0c-4.5.2-5.5-1.5-5.5-5.8.1-40.7.1-81.3.1-122v-36.5c0-2.4.1-4.2 3.3-4.2 20.8-.3 41.7-1.4 62.4-.8 28.2.9 46.4 18.7 49.4 46.8 2.2 20.5-1.9 39.2-17.5 53.9-9.9 9.4-22.3 13.2-35.4 14.4-7.3.7-14.7.2-23 .2m33.3 205.1c-9.6 0-17.7.2-25.8-.2-1.3-.1-2.9-2-3.8-3.4-6-9.5-11.9-19.2-19-28.6v32.2c-6.7 0-12.6.1-18.6-.1-.8 0-1.8-1.5-2.2-2.5s-.1-2.3-.1-3.5c0-34.8.1-69.7-.1-104.5 0-4 1.2-6.1 4.8-7.5 5.1-2.1 9.9-4.6 15.9-7.4v70.6c.4.1.8.1 1.1.2 6.2-8 12.6-15.9 18.5-24.2 2.6-3.6 5.4-4.6 9.6-4.5 5.3.1 10.6-.4 15.9-1.3 1.8-.3 3.9-1.9 4.9-3.6.4-.7-1.7-3.1-3-4.4-2.9-3-6.1-5.7-9-8.7-5.5-5.5-7.4-11.6-3.9-19.2 1.8-4 2.2-8.7 3.4-13.7 2.3 1.4 3.6 2.2 4.9 3 3-4.2 5.7-8.3 8.8-12.1.8-.9 3-.6 4.5-1 2.4-.6 5.2-.9 7.1-2.3 2.3-1.6 3.8-4.2 6-6.8 1.8 2.3 2.8 3.5 4 4.9 4.2-1 6.2-8.9 12.1-3.7 8.5-6.1 16.7-12.1 25.8-18.6-1.1 9.6-2.1 18-3.1 26.5-.1 1-.5 2.5-.1 2.9 4.5 4.1.9 8.3.4 12.4 3.1 2.6 4.5 7.9 1.8 10.8-3 3.2-2 5 1.2 7.3-1.5 2.3-2.7 4.6-4.5 6.4-1 1-2.9 1.6-4.3 1.5-4.3-.4-8.7-.9-12.9-2-1.3-.3-2-2.8-3.1-4.4-3.7.5-8.1.6-12 1.9-2.6.9-5.4 3.2-6.8 5.6-5.1 8.5-11.2 15.4-19.8 20.8-6.1 3.8-10.5 10.5-15.5 16.1-4.9 5.6-9.6 11.4-14.6 17.3 10.4 15.6 20.5 31 31.5 47.8m-359.8 0c-7.2 0-13.5.1-19.8-.1-.9 0-2.2-1.6-2.6-2.6-.5-1.2-.2-2.6-.2-4 0-34.3.1-68.6-.1-103 0-4.5 1-6 5.8-6 12.7.1 25.3-.8 38-.6 21.5.4 34.8 14 35.8 35.6.7 15.5-3.8 28.8-17.2 37.5-10.5 6.9-22.5 7-35.5 6.5 2.6-5.5 4.7-10.2 7.2-14.6.6-1.1 2.8-1.5 4.3-1.8 11.3-1.7 17-7.9 17.7-19.3 1.2-20.8-6-28.4-26.9-27.9-2 0-3.9.2-6.4.3-.1 33.4-.1 66.3-.1 100m283-83.4c-10.5 12.6-20.1 24.1-29.7 35.7 10.3 15.6 20.4 31.1 31.4 47.7-5.5 0-10.1-.6-14.5.1-9.4 1.5-15.4-1.8-19.6-10.6-3.7-7.8-8.9-14.8-13.5-22.1-.1-.1-.3-.1-1-.5v33c-6.5 0-12.4.1-18.4-.1-.8 0-1.9-1.5-2.2-2.5-.4-1.2-.1-2.6-.1-4 0-34.7.1-69.3-.1-104 0-4 1.2-6.1 4.8-7.5 5-2.1 9.9-4.6 15.7-7.4v70.8c.4.1.7.2 1.1.3 5.9-7.7 12.1-15.3 17.7-23.3 3-4.2 6.2-6.3 11.5-5.7 5 .5 10.2.1 16.9.1m-127.3 83.4h-18.1c-3.5 0-2.8-2.6-2.8-4.6-.1-13.3 0-26.6 0-40 0-8.2.1-16.3-.1-24.5-.1-2.9.8-4.6 3.5-5.8 5.6-2.5 11-5.4 17.3-8.5.2 3.3.3 5.8.4 8.9 1.8-1.2 3.1-2.1 4.5-2.9 4.2-2.3 8.3-5 12.8-6.5 14.7-5.1 27.6 2.9 28.4 18.4 1 20.8.7 41.6.7 62.4 0 1-1.7 2.9-2.7 3-5 .3-10 .1-15 .2-3.4 0-3.1-2.3-3.1-4.5v-42c0-3 0-6-.1-9-.5-8.7-4.6-11.8-12.9-9.2-3.1.9-5.9 2.9-8.8 4.5s-3.9 4-3.9 7.4c.2 15.3.1 30.6.1 46-.2 1.9-.2 3.8-.2 6.7m-87.9-62c-1.9-4.6-3.8-8.6-5.1-12.8-.3-1 .7-3.3 1.7-3.9 11.3-6.3 23.3-8.9 36-5.5 9.8 2.6 15.1 10 15.2 21.4.2 13.5-.1 27-.3 40.4-.1 4 .7 6.5 5.5 6 1-.1 2.7 1 3.2 2.1 1.4 2.8 2.4 5.8 3.5 8.6-10.9 9.7-23.5 9.9-30.7.3-2 .8-4.1 1.7-6.2 2.5-3.1 1.2-6.2 2.6-9.4 3.4-16 4.3-26.1-3.1-26.9-19.7-.2-3.5 0-7 .5-10.4.9-6.6 4.6-11.7 11-13.6 8.1-2.5 16.3-4.4 24.6-6.1 3.5-.7 5.5-1.8 4.9-5.7-.3-1.8-.1-3.7-.2-5.5-.3-4.7-2.9-7.1-7.6-7.7-7.3-1.1-13.7 1.2-19.7 6.2m27.4 24.9c-6.2 1.5-11.8 2.7-17.3 4.4-4.2 1.3-3.5 5.1-3.5 8.4 0 3 0 7 3.7 7.2 5.3.2 10.6-1 15.9-1.7.5-.1 1.1-1.6 1.2-2.4.1-5.1 0-10 0-15.9m291.6-46.2V419h-20.1c-.1-1.6-.4-3.1-.4-4.5 0-21.3.1-42.7-.1-64 0-3.4 1.1-5.1 4-6.5 5.5-2.5 10.8-5.3 16.6-8.1m-15.4-4c4.1-4.9 8.1-9.9 12.3-14.7 3.6-4.1 8.6-4 13.1-1 1.9 1.2 4.6 1.4 7 1.7 2.7.4 5.4.4 8.2 1.2-11.7 9.6-25.5 12.9-39.9 14.2-.2-.5-.5-1-.7-1.4"/></svg>