<?xml version="1.0" encoding="utf-8"?>
<!-- Generator: Adobe Illustrator 22.1.0, SVG Export Plug-In . SVG Version: 6.00 Build 0)  -->
<svg version="1.1" id="Layer_1" xmlns="http://www.w3.org/2000/svg" xmlns:xlink="http://www.w3.org/1999/xlink" x="0px" y="0px"
	 viewBox="0 0 512 512" style="enable-background:new 0 0 512 512;" xml:space="preserve">
<style type="text/css">
	.st0{fill:#E30050;}
</style>
<path class="st0" d="M82.1,252.4c0,8.2,0,16.4,0,24.8c1.2,0.3,2.4,0.6,3.7,0.9c2,0.4,4,0.6,5.9,1c0.3,0,0.6,0.5,0.6,0.7
	c0.1,1.8,0.1,3.6,0,5.4c0,0.2-0.3,0.6-0.6,0.6c-0.5,0.2-1.1,0.3-1.7,0.3c-9.2,0-18.5,0-27.7,0c-1.3,0-2.6-0.1-3.8-0.3
	c-0.2,0-0.6-0.4-0.6-0.7c-0.1-1.8-0.1-3.5,0-5.3c0-0.3,0.3-0.7,0.5-0.7c1.6-0.4,3.1-0.7,4.7-1c0.9-0.2,1.9-0.3,2.8-0.6
	c0.4-0.1,0.8-0.8,0.8-1.2c0-1.7-0.1-3.4-0.1-5.2c0-17.4,0-34.8,0-52.2c0-1.1,0.2-2.2,0.2-3.3c0-0.9-0.3-1.4-1.3-1.5
	c-1.8-0.3-3.6-0.8-5.4-1.2c-0.8-0.2-1.8-0.3-2.1-0.8c-0.4-0.6-0.1-1.6-0.1-2.4c0-0.9,0.1-1.9,0-2.8c-0.1-1,0.5-1.1,1.3-1.1
	c8.1,0,16.3,0,24.4,0c2.3,0,4.6-0.1,6.9,0c3.3,0.2,6.6,0.5,9.9,1.1c4.1,0.8,7.8,2.3,11.1,4.7c2,1.5,3.7,3.4,5,5.7
	c1.2,2,2.1,4.1,2.5,6.4c0.3,1.7,0.8,3.5,0.7,5.2c0,2.3-0.4,4.6-0.7,6.9c-0.2,2.1-0.9,4-1.9,5.9c-2.1,4.1-5.3,6.9-9.4,8.8
	c-2.8,1.2-5.6,2.2-8.6,2.3c-4.1,0.2-8.3,0.3-12.4,0.4C85.3,253.2,83.8,252.7,82.1,252.4z M82,245.1c0.9,0,1.6,0,2.4,0.1
	c3.9,0.6,7.7,0.6,11.6-0.5c5.8-1.6,7.8-6.1,8.2-10.4c0.3-3,0.4-6.1-0.3-9.2c-0.6-2.6-1.6-4.9-3.5-6.8c-2.4-2.5-5.4-3.6-8.8-3.7
	c-2.9,0-5.7,0-8.6,0c-0.3,0-0.6,0.1-1,0.1C82,224.9,82,234.9,82,245.1z"/>
<path class="st0" d="M205.5,234.1c0.9-0.6,1.6-1,2.2-1.5c2.9-2.2,6.1-3.7,9.5-4.6c3.4-0.9,7-0.9,10.4-0.4c4.6,0.6,8.7,2.7,11.8,6.4
	c2,2.4,3.3,5.2,4.2,8.2c0.8,2.7,1.3,5.3,1.4,8.1c0.1,2.8,0.4,5.7,0.2,8.5c-0.3,3.8-0.9,7.6-2.3,11.2c-2.7,6.8-7.1,12.2-14.1,14.9
	c-2.1,0.8-4.2,1.3-6.4,1.8c-4.5,1-9,0.4-13.5,0.4c-0.9,0-1.8-0.3-2.6-0.5c0,4.1,0,8.1,0,12c0,0.4-0.2,0.8-0.1,1.1
	c0.1,0.4,0.3,1,0.6,1.1c1.4,0.4,2.9,0.6,4.4,0.9c1.2,0.2,2.4,0.4,3.7,0.6c0,1.9,0,3.8,0,5.7c-0.4,0-0.8,0.1-1.2,0.1
	c-9.2,0-18.4,0-27.6,0c-1,0-1.4-0.3-1.3-1.3c0.1-1.2,0-2.3,0-3.5c0-0.7,0.3-1,1-1.1c2-0.4,4-0.8,6-1.3c0.3-0.1,0.5-0.5,0.7-0.8
	c0.1-0.3,0-0.7,0-1c0-19.7,0-39.5,0-59.2c0-1.4-0.2-1.7-1.7-1.9c-1.7-0.3-3.4-0.6-5-1c-0.6-0.1-1-0.4-1-1.2c0-1.5,0-3.1,0-4.6
	c0-0.3,0.4-0.8,0.7-0.9c2.2-0.4,4.4-0.6,6.6-0.9c3.4-0.5,6.8-0.9,10.2-1.4c0.6-0.1,1.3-0.4,1.8-0.3c0.9,0.3,1.5,0.9,1.4,2.1
	C205.4,231,205.5,232.4,205.5,234.1z M230.9,257.5c0.1,0,0.2,0,0.2,0c-0.2-2.2-0.5-4.4-0.6-6.6c-0.2-2.4-0.9-4.7-1.9-6.8
	c-1.6-3.4-4.3-5.4-7.8-6.1c-2.2-0.5-4.4-0.6-6.7-0.2c-2.4,0.4-4.8,1-7.1,1.8c-1,0.3-1,1-0.9,1.8c0,0.7,0.2,1.4,0.2,2.1
	c0,9.6,0,19.2,0,28.8c0,0.6-0.1,1.2-0.1,1.8c0,1.1-0.5,2.4,0.9,3.2c2.4,1.5,5.1,2.1,7.9,2.2c2,0,4.1-0.4,6.1-0.8
	c3-0.6,5.1-2.6,6.7-5.1c2.2-3.5,2.7-7.6,3.2-11.6C231.1,260.5,230.9,259,230.9,257.5z"/>
<path class="st0" d="M296.2,280.1c-0.6,0.3-1.1,0.4-1.4,0.7c-2.3,2.2-4.9,3.8-7.8,4.8c-2.1,0.7-4.3,1.2-6.6,1.5
	c-2.1,0.2-4.2,0.2-6.3,0c-5.1-0.5-10.2-2.7-12.4-9c-0.8-2.3-0.9-4.6-0.9-6.9c0-10.3,0-20.7,0-31c0-2.7,0-2.7-2.6-3.2
	c-1.5-0.3-3.1-0.6-4.6-1c-0.2-0.1-0.6-0.4-0.6-0.6c-0.1-1.6-0.2-3.1-0.1-4.7c0-0.9,0.4-1.4,1.5-1.4c2.5-0.1,4.9-0.3,7.4-0.5
	c3.1-0.3,6.1-0.6,9.2-0.9c0.9-0.1,1.6-0.6,2.6,0c0.6,0.4,0.9,0.7,0.9,1.5c0,4.8,0,9.7,0,14.5c0,8.7-0.1,17.4,0.1,26
	c0,2.6,1,5.1,3.6,6.2c1.4,0.6,3,1,4.5,1.1c4.2,0.3,8.2-0.7,12.1-2.2c0.8-0.3,1.1-0.8,1.1-1.8c0-11.1,0-22.2,0-33.3
	c0-2.5,0-2.5-2.4-3c-1.4-0.3-2.8-0.6-4.2-1c-0.2-0.1-0.6-0.3-0.6-0.5c-0.1-1.7-0.1-3.3-0.1-5c0-0.9,0.7-1.1,1.4-1.1
	c2.4-0.2,4.8-0.3,7.2-0.5c3-0.3,6-0.6,9-0.9c0.8-0.1,1.6-0.1,2.4,0c0.8,0.1,0.9,0.7,0.9,1.4c0,2.1,0,4.3,0,6.4c0,13.7,0,27.5,0,41.2
	c0,1.1,0.3,1.6,1.5,1.8c1.9,0.3,3.8,0.9,5.7,1.4c0.2,0,0.4,0.4,0.4,0.7c0,1.5,0.1,3.1,0,4.6c0,0.3-0.6,0.8-0.9,0.8
	c-5.9,0-11.8,0-17.7,0c-1.1,0-2.2-1.3-2.2-2.4C296.2,282.7,296.2,281.6,296.2,280.1z"/>
<path class="st0" d="M151.4,227.3c2.3,0.2,4.7,0.2,7,0.7c5.7,1.3,10.7,3.8,14.5,8.4c2.3,2.8,4.1,5.8,5,9.3c0.6,2.3,1,4.7,1.4,7.1
	c0.2,1.3,0.3,2.7,0.4,4c0.1,3.2-0.5,6.3-1.2,9.4c-1.1,4.5-3.1,8.4-6,11.8c-2.8,3.4-6.3,5.8-10.5,7.4c-4.1,1.7-8.4,2.4-12.8,2.1
	c-8-0.6-15.1-3.3-20.2-9.8c-2-2.6-3.6-5.4-4.4-8.6c-0.6-2.3-1.1-4.6-1.4-7c-0.3-2.4-0.6-5-0.3-7.4c0.3-3.6,1.1-7.1,2.5-10.5
	c1.8-4.5,4.6-8.1,8.3-11.1c2.5-2,5.3-3.5,8.4-4.5C145.1,227.8,148.2,227.3,151.4,227.3z M164.9,257.9c0.2-4.6-0.1-9.1-1.8-13.4
	c-1-2.6-2.3-4.9-4.6-6.6c-3.3-2.4-7-2.7-10.9-1.9c-3.4,0.7-5.6,2.8-7.3,5.7c-2.1,3.7-2.7,7.8-3,11.9c-0.2,2.9,0.2,5.8,0.3,8.6
	c0.1,3.4,0.9,6.6,2.3,9.7c1.1,2.2,2.5,4.1,4.6,5.5c2.6,1.7,5.5,2.1,8.6,1.8c3.5-0.3,6.1-1.9,8.1-4.7c2.4-3.4,3.2-7.3,3.6-11.3
	C165,261.4,164.9,259.6,164.9,257.9z"/>
<path class="st0" d="M365,238.3c0-2.2,0-4.2,0-6.2c0-1.3,1.2-1.2,1.8-1.4c2.7-0.9,5.4-1.6,8.1-2.3c1.4-0.3,2.9-0.5,4.3-0.6
	c3.5-0.2,7-0.4,10.5-0.4c2.5,0,4.8,0.7,7.1,1.6c3.4,1.4,5.8,3.7,7.2,7c0.5,1.3,0.9,2.7,1.1,4c1,6.8,0.3,13.6,0.4,20.4
	c0.1,5.3,0.1,10.6,0,16c0,2,1.5,3.5,3.3,3.5c1,0,2,0,3,0.1c0.5,0,1,0.2,1,0.9c0,1.4,0,2.9,0,4.3c0,0.3-0.4,0.8-0.7,0.9
	c-3.6,0.8-7.3,1.1-11.1,1c-3.3-0.1-6.5-1.9-7.6-5.3c-0.3-0.8-0.8-1-1.4-0.3c-1.9,1.9-4.1,3.5-6.7,4.4c-1.4,0.5-3,0.9-4.5,1.2
	c-1.7,0.3-3.4,0.5-5,0.4c-4.5-0.3-8.7-1.6-11.9-4.9c-1.8-1.9-3.2-4-3.6-6.7c-0.3-2.4-0.7-4.9-0.3-7.3c0.6-4.1,2.9-7.1,6.5-9.1
	c2.8-1.5,5.8-2.7,9-3.2c2.9-0.5,5.7-1.2,8.6-1.8c2.3-0.5,4.5-0.9,6.7-1.4c0.3-0.1,0.7-0.6,0.7-0.9c0-2.7,0.2-5.4-0.1-8
	c-0.3-2.7-1.6-5-5.1-6c-3.7-1-7.4-0.9-11.2-0.7c-1.5,0.1-2.9,0.2-4.4,0.4c-1.6,0.1-3.2,0.3-4.8,0.5
	C365.9,238.3,365.5,238.3,365,238.3z M391.8,268.2C391.8,268.2,391.7,268.2,391.8,268.2c0-2.2-0.1-4.4,0-6.6c0-1-0.3-1.3-1.2-1.2
	c-1.8,0.2-3.5,0.3-5.3,0.5c-2.2,0.3-4.4,0.5-6.5,0.9c-2.3,0.5-4.6,3-4.7,5.2c-0.1,1.9-0.3,3.9,0,5.8c0.3,2.1,1.3,3.9,3.4,4.9
	c2.4,1.1,4.7,1.5,7.4,1c2.2-0.5,4.2-1.2,6.1-2.4c0.7-0.4,0.9-1,0.9-1.8C391.7,272.5,391.8,270.3,391.8,268.2z"/>
<path class="st0" d="M353.2,280.2c0,1.7,0,3.5,0,5.3c0,0.2-0.6,0.6-0.9,0.7c-1.2,0.1-2.5,0-3.7,0c-7.6,0-15.2,0-22.9,0
	c-1.2,0-1.5-0.4-1.4-1.5c0.1-1.2,0-2.5,0-3.7c0-0.6,0.2-0.9,0.8-1.1c2.1-0.4,4.2-0.9,6.3-1.4c0.2-0.1,0.4-0.4,0.5-0.6
	c0.1-0.3,0-0.6,0-0.9c0-20.5,0-41,0-61.5c0-1.1-0.1-1.6-1.4-1.8c-2.2-0.3-4.4-0.9-6.8-1.5c0-1.9,0-3.9,0-5.9c0-0.2,0.6-0.6,0.9-0.6
	c3-0.4,6-0.7,9-1c3.3-0.4,6.6-0.9,9.9-1.2c1.8-0.2,2.3,0.4,2.3,2.1c0,23.6,0,47.3,0,70.9c0,1.2-0.1,2.1,1.6,2.2
	C349.3,279,351.1,279.7,353.2,280.2z"/>
<path class="st0" d="M428.4,238.3c-2.6-0.6-5.1-1.2-7.7-1.9c0-1.9,0-3.8,0-5.6c0-1.1,1.1-0.9,1.7-1c1.6-0.3,3.3-0.3,4.9-0.6
	c2.7-0.4,5.4-0.8,8.2-1.2c1.3-0.2,2.7-0.4,4-0.5c1.5-0.1,2,0.4,2,1.8c0,1.9,0,3.8,0,5.7c0,0.3,0.2,0.7,0.4,1c0.3-0.2,0.8-0.3,1-0.6
	c2.4-3.4,5.7-5.8,9.5-7.3c2.2-0.9,4.6-0.7,6.9-0.5c0.3,0,0.7,0.5,0.7,0.8c0,3.7,0,7.4,0,11.2c-2.4,0-4.6,0-6.9,0
	c-3.7,0-7.1,1.1-10.3,2.8c-0.3,0.2-0.5,0.8-0.5,1.2c0,3.1,0,6.3,0,9.4c0,8.1,0,16.1,0,24.2c0,0.9,0.1,1.4,1.2,1.5
	c1.9,0.2,3.7,0.8,5.5,1.2c0.5,0.1,1.1,0.1,1.9,0.2c0,1.9,0,3.7,0,5.6c0,0.2-0.5,0.4-0.7,0.5c-0.3,0.1-0.7,0-1,0
	c-9.1,0-18.1,0-27.2,0c-0.9,0-1.4-0.2-1.3-1.3c0.1-1.4,0-2.7,0-4.1c0-0.6,0.2-0.8,0.8-0.9c2.1-0.4,4.2-0.9,6.3-1.4
	c0.2-0.1,0.4-0.4,0.5-0.6c0.1-0.2,0-0.5,0-0.8c0-12.4,0-24.8,0-37.1C428.4,239.5,428.4,239,428.4,238.3z"/>
</svg>
