<?xml version="1.0" encoding="utf-8"?>
<!-- Generator: Adobe Illustrator 22.1.0, SVG Export Plug-In . SVG Version: 6.00 Build 0)  -->
<svg version="1.1" id="Layer_1" xmlns="http://www.w3.org/2000/svg" xmlns:xlink="http://www.w3.org/1999/xlink" x="0px" y="0px"
	 viewBox="0 0 512 512" style="enable-background:new 0 0 512 512;" xml:space="preserve">
<style type="text/css">
	.st0{fill:#ED7203;}
	.st1{fill:url(#SVGID_1_);}
</style>
<path class="st0" d="M349.5,315.2c-6.4-13.1-19.8-23.8-37.2-30.9c-15.9-6.6-34.3-10-53.1-10s-37.2,3.4-53.1,10
	c-17.4,7.2-30.8,17.9-37.2,30.9c-7.5,15.2-4.8,32,10.2,46.6c17.1,16.8,46.2,27.1,80,27.1s63-10.4,80-27.1
	C354.2,347.2,356.9,330.4,349.5,315.2z M260.1,366.7c-25.8,0.1-79-13.2-71-48.9c6.4-28.6,44.5-37.3,71-37.3s64.6,8.6,71,37.3
	C339,353.5,285.8,366.7,260.1,366.7z"/>
<linearGradient id="SVGID_1_" gradientUnits="userSpaceOnUse" x1="357.4073" y1="609.0395" x2="426.4108" y2="678.0504" gradientTransform="matrix(1 0 0 1 -129 -408.5098)">
	<stop  offset="0" style="stop-color:#2E2C85"/>
	<stop  offset="1" style="stop-color:#282573"/>
</linearGradient>
<path class="st1" d="M225.9,231.3c0.3-2.9-0.1-2.7,1.7-5.4c1.9-2.7,0.9-3.8,2.5-6c3.7-4.7,7.3-9.5,11.5-13.7
	c2.8-2.8,6.6-12.5,7.5-15.9c0.1-0.5,0.4-0.7,0.6-0.3c0.6,6.5,1.5,11.8,1.3,18.2c-0.4,13.3-0.1,11.9,5.4,24.4
	c0.4-5,1.6-12.3,4.6-14.8c-3.4,13-3.7,31.5-3.9,37.2c-0.1,2.9-1,7.5,0.4,10.1c0.4,2.2,0.6,4.4,0.5,6.6c0,1.3,0.1,22.8,0.1,22.8
	l-2,10c-0.7,2.9-4.5,7.7-7.2,9.2c-0.9,0.4-2.9,1.6-2.9,2.5c0,1,10.2,4.5,12.5,1c1.5-2.3,3.3-4.4,5.3-6.2c3.2-3.1-0.4-6.3,0.1-10.4
	c0.7-7.2,3.9-13.5,4.8-20.3c0.7-4.2,0.3-8.5-1.3-12.4l1.3-13c1.5,2.2,2.9,5.8,4.3,8.8c2.5,5.3,2.6,5.8,7,10.1c1.5,1.5,2.9,3.2,4.1,5
	c2.1,3.3,3.5,6.6,3.3,10.4c-1.5,2.8-2.2,2.6-4.1,4.2c0.1,0.1-0.5,1.6,1.3,1.6c6.6,0,5.8-3.4,8.3-7.9c1.6-2.9,6.3-7.3,1.2-8.8
	c-1.7-0.4-3.1-1.5-4-3c-3.5-5.9-3.7-5.7-5.5-11.2c-1.2-3.2-3.3-6-6-8.1c-1.5-3.3-2.4-6.7-2.8-10.3c-0.7-5.4-1.2-9.2-2.1-14.6
	c2.6-10.2,3.9-12.4-0.4-22.3c-1.1-2.3-1.6-4.8-1.6-7.4c0-3.3,1.8-10.7,3.6-14.5c0.6-1.6,1.5-3,2.7-3.5c1,3.9,4.8,12.1,6.9,14.2
	c0.1,1.6,0.1,3.2,0.7,4.8c2.7,6.4,6.6,12.3,8.5,19.1c0.7,2.3-0.2,3.4-0.9,5.4c-0.2,1.8-0.2,3.6,0.1,5.4l0.9,0.5
	c-0.1,0.6-0.6,2.2-0.9,3c-0.3,0.7,1.3,1.4,1.3,1.4c1.5-0.3,3.6-5.7,3.5-7.8c-0.2-6.6-1.6-9.5-2-11.4c-2.2-11.1-0.9-14.2-7.2-24.8
	l-3.5-8.7c-0.4-4.5-2.2-14.7-7.9-16.5c-1-0.3-1.9-0.4-3.4-0.8c-7.5-2.5-7.5-8.2-5.4-14.5s2.1-12.1-6.2-12.9
	c-5.1-0.4-6.6,3.6-7.7,8.2c0,0.5,0.3,8,1.4,9.6c1.1,1.6,3.4,1.1,3.3,5.2c-0.1,4.1-2.3,5.4-5.2,6.4c-4.8,1.7-7.2,2.7-8.9,7.6
	c-0.7,2.3-1,4.7-1,7.1v0.2c-1.3,3.4-3.1,7.3-4.1,10.9c-5.9,5.9-8.8,19.3-14.8,25c-3.9,3.8-5.1,4-3.7,9.8c0.1,0.6,2,2.1,2.5,2.3
	C224.8,232.5,225.9,231.6,225.9,231.3z"/>
</svg>
