<svg xmlns="http://www.w3.org/2000/svg" viewBox="0 0 512 512"><path fill="#ed7203" d="M349.5 315.2c-6.4-13.1-19.8-23.8-37.2-30.9-15.9-6.6-34.3-10-53.1-10s-37.2 3.4-53.1 10c-17.4 7.2-30.8 17.9-37.2 30.9-7.5 15.2-4.8 32 10.2 46.6 17.1 16.8 46.2 27.1 80 27.1s63-10.4 80-27.1c15.1-14.6 17.8-31.4 10.4-46.6m-89.4 51.5c-25.8.1-79-13.2-71-48.9 6.4-28.6 44.5-37.3 71-37.3s64.6 8.6 71 37.3c7.9 35.7-45.3 48.9-71 48.9"/><linearGradient id="SVGID_1_" x1="357.407" x2="426.411" y1="609.039" y2="678.05" gradientTransform="translate(-129 -408.51)" gradientUnits="userSpaceOnUse"><stop offset="0" stop-color="#2e2c85"/><stop offset="1" stop-color="#282573"/></linearGradient><path fill="url(#SVGID_1_)" d="M225.9 231.3c.3-2.9-.1-2.7 1.7-5.4 1.9-2.7.9-3.8 2.5-6 3.7-4.7 7.3-9.5 11.5-13.7 2.8-2.8 6.6-12.5 7.5-15.9.1-.5.4-.7.6-.3.6 6.5 1.5 11.8 1.3 18.2-.4 13.3-.1 11.9 5.4 24.4.4-5 1.6-12.3 4.6-14.8-3.4 13-3.7 31.5-3.9 37.2-.1 2.9-1 7.5.4 10.1.4 2.2.6 4.4.5 6.6 0 1.3.1 22.8.1 22.8l-2 10c-.7 2.9-4.5 7.7-7.2 9.2-.9.4-2.9 1.6-2.9 2.5 0 1 10.2 4.5 12.5 1 1.5-2.3 3.3-4.4 5.3-6.2 3.2-3.1-.4-6.3.1-10.4.7-7.2 3.9-13.5 4.8-20.3.7-4.2.3-8.5-1.3-12.4l1.3-13c1.5 2.2 2.9 5.8 4.3 8.8 2.5 5.3 2.6 5.8 7 10.1 1.5 1.5 2.9 3.2 4.1 5 2.1 3.3 3.5 6.6 3.3 10.4-1.5 2.8-2.2 2.6-4.1 4.2.1.1-.5 1.6 1.3 1.6 6.6 0 5.8-3.4 8.3-7.9 1.6-2.9 6.3-7.3 1.2-8.8-1.7-.4-3.1-1.5-4-3-3.5-5.9-3.7-5.7-5.5-11.2-1.2-3.2-3.3-6-6-8.1-1.5-3.3-2.4-6.7-2.8-10.3-.7-5.4-1.2-9.2-2.1-14.6 2.6-10.2 3.9-12.4-.4-22.3-1.1-2.3-1.6-4.8-1.6-7.4 0-3.3 1.8-10.7 3.6-14.5.6-1.6 1.5-3 2.7-3.5 1 3.9 4.8 12.1 6.9 14.2.1 1.6.1 3.2.7 4.8 2.7 6.4 6.6 12.3 8.5 19.1.7 2.3-.2 3.4-.9 5.4-.2 1.8-.2 3.6.1 5.4l.9.5c-.1.6-.6 2.2-.9 3-.3.7 1.3 1.4 1.3 1.4 1.5-.3 3.6-5.7 3.5-7.8-.2-6.6-1.6-9.5-2-11.4-2.2-11.1-.9-14.2-7.2-24.8l-3.5-8.7c-.4-4.5-2.2-14.7-7.9-16.5-1-.3-1.9-.4-3.4-.8-7.5-2.5-7.5-8.2-5.4-14.5s2.1-12.1-6.2-12.9c-5.1-.4-6.6 3.6-7.7 8.2 0 .5.3 8 1.4 9.6s3.4 1.1 3.3 5.2-2.3 5.4-5.2 6.4c-4.8 1.7-7.2 2.7-8.9 7.6-.7 2.3-1 4.7-1 7.1v.2c-1.3 3.4-3.1 7.3-4.1 10.9-5.9 5.9-8.8 19.3-14.8 25-3.9 3.8-5.1 4-3.7 9.8.1.6 2 2.1 2.5 2.3.5.4 1.6-.5 1.6-.8"/></svg>