<svg xmlns="http://www.w3.org/2000/svg" xmlns:xlink="http://www.w3.org/1999/xlink" viewBox="0 0 253 334.2"><defs><style>.a{fill:#ed7203;}.b{fill:url(#a);}</style><linearGradient id="a" x1="213.99" y1="352.01" x2="306.6" y2="259.39" gradientTransform="matrix(1, 0, 0, -1, 0, 512.08)" gradientUnits="userSpaceOnUse"><stop offset="0" stop-color="#2e2c85"/><stop offset="1" stop-color="#282573"/></linearGradient></defs><title>Rabobank</title><path class="a" d="M376.6,313.9C368,296.3,350,282,326.7,272.4c-21.3-8.8-46-13.4-71.2-13.4s-49.9,4.5-71.2,13.4c-23.3,9.7-41.3,24-49.9,41.5-10.1,20.4-6.4,43,13.7,62.6,23,22.5,62,36.4,107.4,36.4S340,399,362.9,376.5C382.9,356.8,386.6,334.3,376.6,313.9ZM256.6,383c-34.6.1-106-17.7-95.3-65.6,8.6-38.4,59.7-50.1,95.3-50.1s86.7,11.6,95.3,50.1C362.6,365.2,291.2,383,256.6,383Z" transform="translate(-129 -78.7)"/><path class="b" d="M210.8,201.2c.4-3.9-.2-3.6,2.3-7.2s1.2-5.1,3.3-8c5-6.3,9.8-12.7,15.5-18.4,3.8-3.8,8.9-16.8,10.1-21.3.2-.7.6-1,.8-.4.8,8.7,2,15.9,1.7,24.4-.6,17.9-.2,16,7.3,32.7.6-6.7,2.2-16.5,6.2-19.8-4.6,17.4-4.9,42.3-5.3,49.9-.2,3.9-1.3,10,.6,13.6a41.9,41.9,0,0,1,.7,8.8c0,1.7.1,30.6.1,30.6l-2.7,13.4c-1,3.9-6,10.4-9.6,12.4-1.2.6-3.9,2.1-3.9,3.4s13.7,6.1,16.8,1.3a41.4,41.4,0,0,1,7.1-8.3c4.3-4.1-.5-8.4.1-13.9,1-9.7,5.2-18.1,6.5-27.3a30,30,0,0,0-1.8-16.7l1.8-17.5c2,3,3.9,7.8,5.8,11.8,3.4,7.1,3.5,7.8,9.4,13.6a39.2,39.2,0,0,1,5.5,6.7c2.8,4.4,4.7,8.8,4.4,14-2,3.7-2.9,3.5-5.5,5.7.1.1-.7,2.2,1.8,2.2,8.9,0,7.8-4.6,11.1-10.6,2.2-3.9,8.4-9.8,1.6-11.8a9,9,0,0,1-5.4-4c-4.7-7.9-4.9-7.7-7.4-15a24.3,24.3,0,0,0-8.1-10.9,45,45,0,0,1-3.8-13.8c-1-7.2-1.6-12.3-2.8-19.6,3.5-13.7,5.2-16.7-.6-29.9a23.1,23.1,0,0,1-2.1-9.9c0-4.4,2.4-14.3,4.8-19.4.8-2.1,2-4,3.6-4.7,1.4,5.3,6.4,16.3,9.2,19,.2,2.2.1,4.3.9,6.4,3.6,8.6,8.8,16.5,11.4,25.6.9,3.1-.3,4.6-1.2,7.2a23,23,0,0,0,.2,7.3l1.2.7c-.2.8-.8,3-1.2,4s1.7,1.9,1.7,1.9c2-.4,4.8-7.6,4.7-10.5-.3-8.8-2.2-12.7-2.7-15.3-2.9-14.9-1.2-19-9.6-33.3l-4.7-11.7c-.6-6-3-19.7-10.6-22.1-1.3-.4-2.6-.5-4.5-1.1-10-3.3-10-11-7.3-19.4s2.8-16.3-8.3-17.3c-6.8-.6-8.9,4.8-10.4,11,0,.7.4,10.7,1.9,12.9s4.6,1.5,4.4,7-3.1,7.3-7,8.6c-6.4,2.3-9.7,3.6-11.9,10.2a29.8,29.8,0,0,0-1.3,9.5v.3c-1.8,4.5-4.1,9.8-5.5,14.6-7.9,7.9-11.8,25.9-19.8,33.5-5.3,5.1-6.9,5.4-5,13.2.2.8,2.7,2.8,3.3,3.1S210.8,201.6,210.8,201.2Z" transform="translate(-129 -78.7)"/></svg>