<?xml version="1.0" encoding="utf-8"?>
<!-- Generator: Adobe Illustrator 22.1.0, SVG Export Plug-In . SVG Version: 6.00 Build 0)  -->
<svg version="1.1" id="Layer_1" xmlns="http://www.w3.org/2000/svg" xmlns:xlink="http://www.w3.org/1999/xlink" x="0px" y="0px"
	 viewBox="0 0 512 512" style="enable-background:new 0 0 512 512;" xml:space="preserve">
<style type="text/css">
	.st0{fill:#FFF200;}
</style>
<path d="M0,0c41.6,0,83.3-0.1,124.9-0.1c125.4,0,250.8,0,376.3,0c3.3,0,6.5,0,10.8,0c0,171.1,0,341.6,0,512.1
	c-170.7,0-341.3,0-512,0C0,341.3,0,170.7,0,0z M496,496.1c0-160.2,0-320,0-480.3c-160.2,0-319.9,0-479.9,0c0,160.4,0,320.4,0,480.3
	C176.4,496.1,336,496.1,496,496.1z"/>
<path class="st0" d="M496,496.1c-160,0-319.6,0-479.9,0c0-159.9,0-319.8,0-480.3c160,0,319.7,0,479.9,0
	C496,176.1,496,335.9,496,496.1z M190.2,251C139.8,300.7,90,349.9,39.5,399.7c22.2,21.1,43.8,41.7,65.9,62.6
	c47.4-48.1,96.2-97.6,145.9-148c51.2,51,101.8,101.5,152.6,152.1c20.6-21,41.3-42.2,63-64.4c-49.6-49.4-99.7-99.2-149-148.4
	c8.1-8.5,15.8-16.2,22.9-24.5c2.5-3,4.6-7.3,4.8-11.1c0.5-14.5,0.2-28.9,0.2-43.4c0-10.3,5.9-18.1,16.8-21.7c0,12.5-0.1,25,0.1,37.4
	c0,2.6,0.5,6,2.2,7.6c6.9,6.2,14.3,11.9,22.8,18.8c23.3-23.8,46.1-47.2,69-70.6c7.9,5.9,15,11.3,23,17.3c0.7-5.2,1.4-8.5,1.6-11.7
	c0.2-2.3-0.1-4.6-0.4-6.8c-4.4-34.2-20.8-61.9-47.1-83.3C404.7,38.1,376,40,349.4,66c-22.3,21.9-44.4,44-66.5,66
	c-1.7,1.7-3.3,3.6-5.1,5.6c5.1,6.2,9.7,11.9,12.7,15.5c-11.9,13-23.2,25.5-34.8,38.2c-11.7-12.2-22.9-23.9-34.4-35.9
	c5.3-4.9,11.2-10.3,19.2-17.7c-3.1-1.9-5.8-3-7.8-4.9c-23.6-22.7-47.2-45.4-70.7-68.2C134.5,38,101,37.3,73,63.2
	c-22.5,20.8-34.2,47.4-39.7,77.1c-1.2,6.7-1.5,13.5-2.2,20.3c0.6,0.1,1.3,0.3,1.9,0.4c6.8-5.6,13.6-11.2,20.7-17
	c23,24.7,45.4,48.8,68,73.1c3.8-3.1,6.6-6.1,10.1-8.1c12.2-7.2,17.1-17.3,15-31.6c-1.1-7.7-0.2-15.8-0.2-23.9
	c11.4,4.4,15.4,11.5,14.5,22.8c-1,13.1-0.5,26.4-0.1,39.6c0.1,3.4,1.8,7.4,4.1,9.9C173,234.4,181.5,242.4,190.2,251z"/>
<path d="M190.2,251c-8.7-8.7-17.1-16.6-25-25.2c-2.3-2.5-3.9-6.5-4.1-9.9c-0.5-13.2-1-26.5,0.1-39.6c0.9-11.3-3.1-18.4-14.5-22.8
	c0,8.1-0.9,16.2,0.2,23.9c2.1,14.3-2.8,24.4-15,31.6c-3.4,2-6.3,5-10.1,8.1c-22.6-24.3-45-48.4-68-73.1c-7.1,5.8-13.9,11.4-20.7,17
	c-0.6-0.1-1.3-0.3-1.9-0.4c0.7-6.8,1-13.6,2.2-20.3c5.5-29.6,17.3-56.2,39.7-77.1c28-25.9,61.5-25.2,88.9,1.4
	c23.5,22.8,47.1,45.6,70.7,68.2c2,1.9,4.7,3,7.8,4.9c-8,7.4-13.9,12.8-19.2,17.7c11.5,12,22.6,23.7,34.4,35.9
	c11.6-12.7,23-25.2,34.8-38.2c-3-3.7-7.6-9.3-12.7-15.5c1.8-2,3.3-3.9,5.1-5.6c22.2-22,44.2-44.1,66.5-66
	c26.6-26.1,55.4-28,84.3-4.4c26.3,21.5,42.8,49.1,47.1,83.3c0.3,2.3,0.5,4.6,0.4,6.8c-0.2,3.3-0.9,6.5-1.6,11.7
	c-8.1-6.1-15.2-11.4-23-17.3c-22.9,23.4-45.7,46.7-69,70.6c-8.5-6.9-15.9-12.6-22.8-18.8c-1.7-1.5-2.1-5-2.2-7.6
	c-0.2-12.4-0.1-24.9-0.1-37.4c-10.8,3.6-16.8,11.4-16.8,21.7c0,14.5,0.3,29-0.2,43.4c-0.1,3.8-2.2,8.2-4.8,11.1
	c-7.1,8.3-14.9,16-22.9,24.5c49.3,49.1,99.4,99,149,148.4c-21.7,22.2-42.4,43.4-63,64.4c-50.8-50.6-101.4-101-152.6-152.1
	c-49.7,50.4-98.5,99.9-145.9,148c-22-20.9-43.6-41.5-65.9-62.6C90,349.9,139.8,300.7,190.2,251z"/>
</svg>
