<?xml version="1.0" encoding="utf-8"?>
<!-- Generator: Adobe Illustrator 22.1.0, SVG Export Plug-In . SVG Version: 6.00 Build 0)  -->
<svg version="1.1" id="Layer_1" xmlns="http://www.w3.org/2000/svg" xmlns:xlink="http://www.w3.org/1999/xlink" x="0px" y="0px"
	 viewBox="0 0 512 512" style="enable-background:new 0 0 512 512;" xml:space="preserve">
<style type="text/css">
	.st0{fill:#003671;}
</style>
<g>
	<path class="st0" d="M103.7,214.1c-10.3,3.7-13.8,13.6-13.8,13.6c-1.4,3.7-5.1,6.4-9.2,6.4H61.2c-5.4,0-9.8-4.4-9.8-9.8
		c0-5.4,3.7-9.7,9.8-9.7l15.6,0.2l-22.5-22.5c-3.8-3.8-3.8-10,0-13.8c3.8-3.8,10-3.8,13.8,0l22.2,22.2v-15.3c0-5.4,4.3-9.8,9.8-9.8
		c5.4,0,9.7,4.4,9.7,9.8v19.5C109.8,209.1,107.3,212.9,103.7,214.1 M100.1,296.6c-5.4,0-9.7-3.5-9.5-9.6l0.2-15.6l-22.5,22.5
		c-3.8,3.8-10.1,3.8-13.8,0c-3.8-3.8-3.8-10.1,0-13.8l22.1-22.2H61.4c-5.5,0-9.8-4.4-9.8-9.8c0-5.4,4.3-9.8,9.8-9.8h19.5
		c4.1,0,7.8,2.5,9.2,6.1c3.5,10.4,13.5,13.9,13.5,13.9c3.8,1.4,6.4,4.9,6.4,9.2v19.5C109.9,292.3,105.6,296.6,100.1,296.6z
		 M162.8,257.6l-15.6-0.2l22.5,22.5c3.8,3.8,3.8,10,0,13.8c-3.8,3.8-10,3.8-13.8,0l-22.2-22.2v15.3c0,5.8-4.4,9.8-9.8,9.8
		c-5.4,0-9.8-4.4-9.8-9.8v-19.5c0-4.1,2.6-8,6.3-9.2c10.3-3.5,13.8-13.6,13.8-13.6c1.4-3.7,5-6.4,9.2-6.4h19.5
		c5.4,0,9.8,4.4,9.8,9.8C172.6,253.3,168.6,257.6,162.8,257.6z M162.9,234h-19.5c-4.1,0-8-2.5-9.2-6.1
		c-3.5-10.3-13.6-13.9-13.6-13.9c-3.7-1.4-6.4-4.9-6.4-9.2v-19.5c0-5.4,4.4-9.6,9.8-9.6c5.4,0,9.7,4,9.7,9.6l-0.1,15.6l22.5-22.5
		c3.8-3.8,10-3.8,13.8,0c3.8,3.8,3.8,10.1,0,13.9l-22.2,22.1h15.3c5.4,0,9.8,4.4,9.8,9.8C172.7,229.6,168.3,234,162.9,234z"/>
</g>
<path class="st0" d="M263.7,296.2c-7.2-14.6-20.2-37.5-27.9-49.5h-6.1v49.5h-23V176.6h37.8c25,0,39.8,11.9,39.8,35.8
	c0,16.4-11.8,26.5-24.2,30.6c8,10.9,23.3,37.5,30.9,53.2H263.7 M241.5,195h-11.8v34.2h9.2c12.4,0,21.4-5.4,21.4-17
	C260.4,201.9,253.8,195,241.5,195z M339.3,296.2h-38.6V176.6h40.6c23.3,0,38.6,11.3,38.6,31.2c0,14.1-9.3,22.1-18.2,25.6
	c12.3,3.2,22.2,11.6,22.2,27.4C383.8,281.7,367.8,296.2,339.3,296.2z M338,194.8h-14.2v31.1H337c10,0,18.5-5.4,18.5-16.1
	C355.5,199.7,349.4,194.8,338,194.8z M337.9,243.7h-14.1V278h14.9c11.6,0,20.7-4.6,20.7-17.3C359.3,249.1,350.9,243.7,337.9,243.7z
	 M420.1,297.3c-10.4,0-23.6-1.7-30.2-3.7l5.2-21.5c4.7,2.1,15.3,5.5,25,5.5c11.6,0,20.4-5.1,20.4-15.3c0-8.7-5.4-13.3-20.4-19.1
	c-15.3-6-28-13.3-28-35.1c0-21.3,16.8-33.1,42.4-33.1c10.9,0,21.9,2.1,28.5,4.3l-5.1,20.8c-4.4-2.5-13-5.5-23.4-5.5
	c-12.4,0-17.9,4.8-17.9,12.9c0,8.3,6.1,11.3,19.5,17.2c18.4,7.8,29.9,15.6,29.9,36.2C466,283.5,447.9,297.3,420.1,297.3z"/>
<polyline class="st0" points="68.6,321.2 61.7,321.2 57.5,343.1 54.2,343.1 58.4,321.2 51.4,321.2 51.9,318.4 69.1,318.4 
	68.6,321.2 "/>
<path class="st0" d="M82.7,343.1h-3.2l2.2-11.6c0.5-2.9,0-4.1-1.6-4.1c-3.4,0-7.1,7.1-7.9,11.6l-0.8,4.1h-3.2l5.1-26.7h3.2l-1.6,8.5
	c-0.3,1.4-0.7,3.2-2,7.2h0.1c1.7-3.8,4.6-7.5,8.4-7.5c3.4,0,4.5,2.4,3.8,6.2L82.7,343.1"/>
<path class="st0" d="M92.2,335.1c-0.1,0.5-0.2,1.5-0.2,2.1c0,2.8,1,3.5,3.9,3.5c1.7,0,3.5-0.4,5.1-1l0.1,2.6c-1.8,0.7-4,1.1-6.3,1.1
	c-4.2,0-6.1-1.8-6.1-5.9c0-7.1,4-12.9,9.9-12.9c3.9,0,5.3,2,5.3,4.1C104,332.6,100,334.8,92.2,335.1 M98.3,327.1
	c-2.9,0-4.8,2.5-5.7,5.6c5.6-0.2,8.1-1.4,8.1-3.5C100.8,327.8,99.8,327.1,98.3,327.1z"/>
<path class="st0" d="M123.5,331.8c0.5,0.9,0.9,1.7,1.5,2.6l4.8,8.7h-4L120,332h-0.5l-2.1,11.1h-3.3l4.7-24.7
	c1.7-0.1,3.4-0.1,5.9-0.1c5,0,7.3,2,7.3,5.4C132,328.4,128,331.2,123.5,331.8 M124.2,321c-1.1,0-1.9,0-2.6,0.1l-1.6,8.4
	c0.4,0,1.1,0.1,2,0.1c3.7,0,6.6-1.9,6.6-5.3C128.5,322,127.3,321,124.2,321z"/>
<path class="st0" d="M139.7,343.4c-4.6,0-6.7-2.3-6.7-6.5c0-7.2,4.6-12.4,10.5-12.4c4.8,0,6.8,2.7,6.8,6.5
	C150.3,338.6,145.1,343.4,139.7,343.4 M143,327.4c-4,0-6.7,4.5-6.7,9c0,2.7,1.1,4.2,3.8,4.2c3.5,0,6.7-3.8,6.7-9.1
	C146.9,328.8,145.7,327.4,143,327.4z"/>
<path class="st0" d="M156.1,349.1c-2.2,2.2-4.4,3.3-6.5,3.3c-0.9,0-1.8-0.1-2.6-0.3l0.5-3c0.7,0.3,1.5,0.4,2.3,0.4
	c1.3,0,2.8-0.8,4-2.1c1.4-1.5,2.1-3.2,2.1-5.8c0-4.8-1-10.8-2.7-16.7h3.7c1.2,4.7,2,10.4,2,14.3c0,0.7-0.1,1.5-0.2,2.3h0
	c2.9-5.1,5.4-10.3,8.2-17.2l3,0.9C165.1,336.3,160.6,344.6,156.1,349.1"/>
<path class="st0" d="M183.9,343.1h-3.3c0.3-1.6,1-4,2.1-7.4l-0.1,0c-1.3,2.8-4.1,7.8-8.5,7.8c-2.6,0-4.1-1.7-4.1-5.5
	c0-6.7,3.5-13.3,11.4-13.3c2.1,0,4,0.2,5.7,0.5C185.3,335.3,184.7,338.7,183.9,343.1 M181,327.2c-5.4,0-7.5,5.6-7.5,10.1
	c0,2.4,0.7,3.3,1.9,3.3c3.4,0,7.2-7.3,8-11.6l0.3-1.5C182.9,327.4,182,327.2,181,327.2z"/>
<polyline class="st0" points="193.1,343.1 189.9,343.1 195,316.4 198.2,316.4 193.1,343.1 "/>
<path class="st0" d="M220.5,330L220.5,330c2.3,0.6,3.7,2.5,3.7,4.6c0,4.6-3.8,8.6-10.7,8.6c-1.5,0-3.9-0.1-6.2-0.1l4.7-24.7
	c1.8,0,4.1-0.1,6.9-0.1c4.7,0,6.8,1.8,6.8,4.8C225.6,326.8,223.2,329.1,220.5,330 M215.4,331.6c-0.9,0-2.2,0-2.8,0l-1.6,8.6
	c0.6,0.1,1.6,0.2,3,0.2c4.4,0,6.7-2.6,6.7-5.5C220.7,332.7,219,331.6,215.4,331.6z M217.9,321c-1.2,0-2.2,0-3.3,0.1l-1.5,8
	c0.7,0,1.3,0,2.1,0c4,0,6.9-1.9,6.9-5.3C222.1,322.2,221.2,321,217.9,321z"/>
<path class="st0" d="M241.3,343.1h-3.3c0.3-1.6,1-4,2.1-7.4l-0.1,0c-1.3,2.8-4.1,7.8-8.5,7.8c-2.6,0-4.1-1.7-4.1-5.5
	c0-6.7,3.5-13.3,11.4-13.3c2.1,0,4,0.2,5.7,0.5C242.8,335.3,242.1,338.7,241.3,343.1 M238.5,327.2c-5.4,0-7.5,5.6-7.5,10.1
	c0,2.4,0.7,3.3,1.9,3.3c3.4,0,7.2-7.3,8-11.6l0.3-1.5C240.3,327.4,239.5,327.2,238.5,327.2z"/>
<path class="st0" d="M261.9,343.1h-3.2l2.2-11.6c0.6-2.9,0-4.1-1.6-4.1c-3.4,0-7.1,7.1-7.9,11.6l-0.8,4.1h-3.2l1.8-9.5
	c0.2-0.8,1.5-7.9,1.6-8.7h3.2c-0.2,1.2-0.7,3.3-2,7.2h0.1c1.7-3.8,4.6-7.5,8.4-7.5c3.4,0,4.5,2.4,3.8,6.2L261.9,343.1"/>
<polyline class="st0" points="276.3,333.1 281.8,343.1 277.8,343.1 273,333.5 271.2,343.1 267.9,343.1 273,316.4 276.2,316.4 
	273.1,332.7 281.7,324 284,325.9 276.3,333.1 "/>
<path class="st0" d="M299.2,343.4c-4.6,0-6.7-2.3-6.7-6.5c0-7.2,4.6-12.4,10.5-12.4c4.8,0,6.7,2.7,6.7,6.5
	C309.8,338.6,304.6,343.4,299.2,343.4 M302.5,327.4c-4,0-6.7,4.5-6.7,9c0,2.7,1.1,4.2,3.8,4.2c3.5,0,6.6-3.8,6.6-9.1
	C306.4,328.8,305.1,327.4,302.5,327.4z"/>
<path class="st0" d="M327.6,319.2c-0.8-0.2-1.8-0.4-2.6-0.4c-2.6,0-4.1,1.4-4.7,4.8l-0.2,1.2h4.9l-0.5,2.6h-4.9l-3.1,16.5
	c-1.1,6-3.9,8.4-8.3,8.4c-1.1,0-2.2-0.1-3.1-0.3l0.8-2.8c0.8,0.3,1.8,0.4,2.6,0.4c2.6,0,4.1-1.3,4.9-5.6l3.2-16.6h-3.7l0.5-2.6h3.6
	l0.3-1.3c0.9-5,3.5-7.5,8.2-7.5c1,0,2,0.1,3,0.3L327.6,319.2"/>
<path class="st0" d="M347.6,321.4c-1.2-0.4-2.5-0.6-3.4-0.6c-3.7,0-5.3,2.1-5.3,4c0,4.5,7.5,4.6,7.5,10.5c0,4.6-4,8.1-9.8,8.1
	c-1.3,0-2.9-0.1-4.1-0.5l0.6-3.2c1,0.4,2.5,0.8,3.7,0.8c3.8,0,6-1.9,6-4.6c0-4.3-7.5-4.3-7.5-10.2c0-4,3.2-7.6,9.1-7.6
	c1.2,0,2.3,0.1,3.7,0.4L347.6,321.4"/>
<path class="st0" d="M363.3,328c-1-0.4-2-0.7-3.3-0.7c-4.6,0-6.8,5.2-6.8,9.3c0,1.9,0.6,3.8,3.8,3.8c1.4,0,2.9-0.3,4-0.8v2.8
	c-1.3,0.5-3.1,1-4.9,1c-4.7,0-6.3-2.6-6.3-6c0-6.9,3.9-12.8,10.4-12.8c1.5,0,2.7,0.2,3.8,0.5L363.3,328"/>
<path class="st0" d="M371.4,343.4c-4.6,0-6.7-2.3-6.7-6.5c0-7.2,4.6-12.4,10.5-12.4c4.8,0,6.8,2.7,6.8,6.5
	C382,338.6,376.9,343.4,371.4,343.4 M374.8,327.4c-4,0-6.7,4.5-6.7,9c0,2.7,1.1,4.2,3.8,4.2c3.5,0,6.7-3.8,6.7-9.1
	C378.6,328.8,377.4,327.4,374.8,327.4z"/>
<path class="st0" d="M396.3,327.5h-4.9l-1.8,9.5c-0.5,2.8-0.1,3.6,1.6,3.6c1,0,1.8-0.1,2.5-0.3l-0.2,2.7c-1.1,0.2-2.3,0.4-3.4,0.4
	c-3.7,0-4.7-1.8-3.9-5.9l1.9-10h-3.7l0.5-2.6h3.7l1.1-5.9l3.4-0.8l-1.3,6.6h4.9L396.3,327.5"/>
<polyline class="st0" points="401,343.1 397.8,343.1 402.9,316.4 406.1,316.4 401,343.1 "/>
<path class="st0" d="M420.8,343.1h-3.3c0.3-1.6,1-4,2.1-7.4l-0.1,0c-1.3,2.8-4.1,7.8-8.5,7.8c-2.6,0-4.1-1.7-4.1-5.5
	c0-6.7,3.5-13.3,11.4-13.3c2.1,0,4,0.2,5.7,0.5C422.2,335.3,421.6,338.7,420.8,343.1 M417.9,327.2c-5.4,0-7.5,5.6-7.5,10.1
	c0,2.4,0.7,3.3,1.9,3.3c3.4,0,7.2-7.3,8-11.6l0.3-1.5C419.8,327.4,418.9,327.2,417.9,327.2z"/>
<path class="st0" d="M441.3,343.1h-3.2l2.2-11.6c0.6-2.9,0-4.1-1.6-4.1c-3.4,0-7.1,7.1-7.9,11.6l-0.8,4.1h-3.2l1.8-9.5
	c0.1-0.8,1.5-7.9,1.6-8.7h3.2c-0.2,1.2-0.7,3.3-2,7.2h0.1c1.7-3.8,4.6-7.5,8.4-7.5c3.4,0,4.5,2.4,3.8,6.2L441.3,343.1"/>
<path class="st0" d="M462.2,336.5c-0.1,0.6-1.1,5.9-1.2,6.6h-3.2c0.3-1.6,1-4,2.1-7.4l-0.1,0c-1.3,2.8-4.1,7.8-8.5,7.8
	c-2.6,0-4.1-1.7-4.1-5.5c0-6.7,3.5-13.3,11.4-13.3c0.9,0,1.7,0.1,2.6,0.2l1.6-8.4h3.3L462.2,336.5 M458.1,327.2
	c-5.4,0-7.5,5.6-7.5,10.1c0,2.4,0.7,3.3,1.9,3.3c3.4,0,7.2-7.3,8-11.6l0.3-1.5C459.9,327.4,459.1,327.2,458.1,327.2z"/>
</svg>
