<svg xmlns="http://www.w3.org/2000/svg" viewBox="0 0 256 256"><path fill="#fff" d="M0 0h256v256H0z"/><path fill="#15366F" d="M76.466 126.838H65.89c-2.248 0-4.333-1.331-4.998-3.323-1.914-5.57-7.41-7.567-7.41-7.567-1.998-.747-3.498-2.655-3.498-4.983v-10.556c0-2.9 2.416-5.228 5.328-5.228 2.915 0 5.247 2.16 5.247 5.228l-.082 8.476 12.24-12.207a5.28 5.28 0 0 1 7.495 0c2.082 2.067 2.082 5.474 0 7.554L68.136 116.2h8.33c2.916 0 5.328 2.411 5.328 5.315 0 2.912-2.412 5.323-5.328 5.323m-.084 12.787-8.493-.082 12.24 12.217a5.26 5.26 0 0 1 0 7.482 5.285 5.285 0 0 1-7.492 0L60.56 147.189v8.308c0 3.161-2.413 5.323-5.33 5.323-2.913 0-5.329-2.411-5.329-5.323v-10.552c0-2.246 1.416-4.326 3.416-4.987 5.578-1.913 7.493-7.39 7.493-7.39.748-1.992 2.749-3.489 4.997-3.489h10.575c2.914 0 5.33 2.414 5.33 5.316s-2.164 5.23-5.33 5.23m-34.05 21.111c-2.915 0-5.247-1.913-5.165-5.239l.084-8.476-12.24 12.221c-2.08 2.076-5.496 2.076-7.492 0-2.085-2.081-2.085-5.49 0-7.482l11.988-12.054h-8.243a5.304 5.304 0 0 1-5.328-5.311 5.31 5.31 0 0 1 5.328-5.316H31.84c2.246 0 4.246 1.332 4.995 3.324 1.914 5.642 7.326 7.555 7.326 7.555 2.08.747 3.5 2.66 3.5 4.987v10.552c0 2.912-2.334 5.239-5.33 5.239m1.914-44.702c-5.58 1.995-7.494 7.395-7.494 7.395-.751 1.994-2.747 3.493-4.997 3.493H21.18c-2.915 0-5.328-2.411-5.328-5.32 0-2.907 1.998-5.235 5.328-5.235l8.497.082-12.244-12.217a5.25 5.25 0 0 1 0-7.473 5.284 5.284 0 0 1 7.494 0l12.074 12.044v-8.311c0-2.9 2.332-5.31 5.33-5.31 2.913 0 5.245 2.41 5.245 5.31v10.553c0 2.248-1.334 4.322-3.33 4.989m172.002 45.116c-5.662 0-12.82-.91-16.397-1.993l2.833-11.639c2.572 1.166 8.32 2.993 13.564 2.993 6.331 0 11.076-2.741 11.076-8.313 0-4.734-2.917-7.222-11.076-10.373-8.325-3.242-15.232-7.234-15.232-19.033 0-11.553 9.153-17.944 23.06-17.944 5.911 0 11.907 1.163 15.488 2.327l-2.747 11.295c-2.416-1.329-7.079-2.993-12.741-2.993-6.746 0-9.742 2.579-9.742 6.98 0 4.491 3.33 6.153 10.572 9.311 9.997 4.241 16.244 8.477 16.244 19.599 0 12.303-9.829 19.783-24.902 19.783m-44.708-29.078h-7.656v18.605h8.071c6.331 0 11.242-2.493 11.242-9.387 0-6.314-4.578-9.218-11.657-9.218m.081-26.509h-7.737v16.871h7.154c5.415 0 10.079-2.909 10.079-8.728 0-5.487-3.333-8.143-9.496-8.143m.667 55.009h-20.977V95.679h22.059c12.66 0 20.987 6.144 20.987 16.947 0 7.648-5.081 11.965-9.911 13.878 6.662 1.746 12.075 6.315 12.075 14.863 0 11.307-8.742 19.205-24.233 19.205m-53.112-54.928h-6.413v18.533h4.997c6.746 0 11.65-2.909 11.65-9.225 0-5.57-3.581-9.308-10.234-9.308m12.067 54.928c-3.915-7.898-10.983-20.366-15.15-26.841h-3.33v26.841h-12.492V95.679h20.572c13.564 0 21.642 6.474 21.642 19.438 0 8.893-6.413 14.378-13.154 16.624 4.328 5.889 12.655 20.351 16.817 28.831z"/></svg>