<svg xmlns="http://www.w3.org/2000/svg" viewBox="0 0 512 512"><path fill="#bb242e" d="M109.7 358.4c1.7.6 2.7 1 3.7 1.2 23.6 5 32 25 29.8 44.2-2.6 22.8-16.8 37-40.3 38.4-19.1 1.1-38.3.5-57.4.5-4.6 0-6-2.9-6-7.1.1-14.3 0-28.6 0-43v-99.9c0-7.5 1.3-8.9 8.6-8.8 17.7.2 35.5-.5 53.1 1 25.5 2.2 40 24 34 48.8-2.5 10.2-8.8 17-18 21.3-2.3 1.2-4.6 2.1-7.5 3.4M62 368.6v54.9c12.4 0 24.4.4 36.3-.2 7.1-.3 12.8-4.2 16.8-10.2 11.6-17.7 1.8-41.3-19.1-44.2-11.1-1.6-22.4-.3-34-.3m-.1-65.5v47.4c7.7 0 15 .2 22.3-.1 4.8-.2 9.7-.5 14.2-1.9 10.6-3.2 16-12.2 15.3-24.2-.7-11.7-7-19.9-18.4-21-11-1-22.1-.2-33.4-.2m-.3-140.7v60.9c0 12.9-.1 12.9-13.2 12.9h-2.1c-4.6 0-6.8-2.2-6.8-6.9v-151c0-4.3 1.6-7.1 6.1-7.1 17.9.2 35.9-.7 53.6 1.1 32.5 3.4 47.9 37 30.1 63.6-5.6 8.3-13.6 13-23.1 15.4-1.7.4-3.4.8-6.4 1.6 17.9 6.1 25.3 20 31.1 35.2 5.2 13.5 10.3 27.1 15.3 40.7 2.2 5.9 1 7.4-5.3 7.5-4.1.1-8.2-.1-12.4 0s-6.5-1.7-7.8-5.8c-3.9-12.1-7.9-24.1-12.1-36.1-1.4-4-3.3-7.9-5.3-11.7-9.4-18-20.8-23.5-41.7-20.3m.4-19.6h6c6.3 0 12.5.3 18.8-.2 4.2-.4 8.5-1.4 12.4-3.1 9.5-4.1 15-14.2 14.4-25.4-.6-10.5-5.9-19.2-16-21C86 91 74 91.2 62 90.4zm261.8-7.2c.6 1.2.9 2 1.3 2.7 9.8 15.2 9.3 30.7.3 45.6-9.2 15.2-24.3 18.9-41 18.3-2-.1-3.9-.3-5.9-.8-4.7-1-6 2.4-7 5.6-1.1 3.5.2 6.6 4 7.5 2.7.7 5.6 1 8.5 1 7.9.2 15.8-.1 23.6.2 16.7.6 28.3 8.8 31.8 22.3 4.1 15.8-1.9 32.2-16 39.8-21 11.3-42.7 10.9-64 .7-10-4.8-14.8-13.8-15.5-24.8-.3-5.4 1.4-7.1 6.9-7.1 1.8 0 3.6.3 5.4.1 6-.5 9.8 1.3 11 8 1 5.5 5.3 8.8 10.6 10.4 10.2 3.2 20.5 3.1 30.5-.7 8.3-3.2 12.2-9.5 11.2-17.4-.9-7.1-4.2-11.5-11.4-12.2-9-.9-18.2-.6-27.3-1-5.2-.2-10.5-.3-15.4-1.5-13.3-3.2-18.5-15.4-12-27.5 1.9-3.6 4.7-6.7 7.3-10.3-.3-.3-.5-1-1.1-1.4-18.8-13.9-18.9-42.1-10.4-57 9-15.8 23.8-20.2 40.7-19.9 12.7.2 25.4.8 38.1 1.1 4.2.1 7.9.3 8.2 6 .4 8.9-.2 10-7 11.1-1.6.5-3.3.9-5.4 1.2m-14 23.3c.1-19.9-7.3-27.4-25.7-25.9-8.7.7-15.1 5.2-16.2 13.7-1.1 8.2-.9 16.7 0 24.9.7 6.3 4.8 11.1 11.3 13.1 17.1 5.2 29.4-3.2 30.6-21 .1-1.6 0-3.2 0-4.8m62.4 216.3c8.7-12.9 17.6-25.6 26-38.7 3.6-5.6 7.7-8.6 14.4-7.8 2.6.3 5.4-.2 8 .2 1.9.2 4.3.8 5.4 2.1.6.7-.6 3.6-1.7 5.1-8.2 11.1-16.5 22.1-24.8 33.1-6.6 8.7-6.6 8.7-.3 17.9 10.8 15.8 21.5 31.7 32.1 47.6 1.2 1.8 1.4 4.1 2.1 6.2-2.1.6-4.2 1.9-6.3 1.8-20.8-.2-15.6 3.2-26.9-14.7-9.4-15-18.6-30.1-29.1-45-.1 1.8-.3 3.5-.3 5.3V435c0 6.8-1 7.7-7.9 7.8-13.4.2-13.4.2-13.4-13.2V285.1c0-9 .9-9.9 9.7-9.9h3.8c6.5.1 7.8 1.3 7.8 7.9v91.7c.5.1.9.3 1.4.4M167.5 182.4c1.3 6.7 1.8 12.4 3.4 17.8 3.3 11.2 11.3 17.7 22.8 17.8 8.8.1 17.7-1.6 26.4-3.4 5.2-1.1 7.2.7 8.7 5.1 2.9 8.7 2.9 10.5-2.4 12.5-17 6.6-34.2 7.4-51.4 1.1-10.3-3.8-18.2-11-22.5-21.2-10.4-24.5-10.7-49.3 1.2-73.2 12.9-25.9 48.3-30.9 66.9-10.1 8.9 9.9 11.7 22.3 13.1 35.1.4 3.7.3 7.5.5 11.3.3 5-2 7.2-7 7.1-17.5-.1-35.1 0-52.6 0-1.9.1-3.8.1-7.1.1m43.8-16.9c1.1-7.5-1.5-18.2-5.8-24.1-6.8-9.4-20-10.4-28-1.8-6.6 7.2-8.5 16.1-9.1 26 14.4-.1 28.5-.1 42.9-.1M479 176.6c-.2 13-1.8 25.2-7.6 36.5-7.7 15.2-20.1 23.4-37.1 24.2-17.7.8-32.5-5.4-40.9-21.4-13.1-25.1-13-51.1-.7-76.5 7.8-16.2 22.1-23.4 39.9-23.1 17.7.3 30.7 8.6 38.7 24.4 5.9 11.4 7.5 23.8 7.7 35.9m-21.8.6c-1.6-8.8-2.4-17.6-4.8-25.9-3.3-11.2-10.9-16.6-21-16.7-9.9-.1-17.4 5.1-20.9 16.1-5.7 17.6-5.8 35.6.2 53.2 3.6 10.5 11 15.4 20.9 15.3 9.8-.1 17.5-5.2 20.6-15.7 2.5-8.5 3.4-17.4 5-26.3M216.3 428.3c-8.5 10.9-19.2 15.3-31.8 15.6-19.3.5-31.1-10.1-32.7-29.3-1.9-23.2 10.9-38.3 34.4-40.4 7.3-.7 14.7-.9 22-1.4 2.1-.1 4.2-.5 6.9-.8-.2-4.6-.1-9-.7-13.1-1-6.7-5.2-10.7-11.9-12.1-10.2-2.1-19.9 0-29.7 2.5-6.6 1.7-7.8.9-9.3-5.6-.2-.9-.4-1.8-.6-2.6-1.6-7.3-1.1-9 6.1-10 11.1-1.6 22.4-3.5 33.5-3.1 21 .8 32.9 13.2 33.6 34.3.6 15.9 0 31.9.4 47.8.2 8.7 1.2 17.5 2.4 26.1.6 4.4-.4 6.4-5 6.6-13.5.7-13.5.8-17.6-14.5m-1.3-40.4c-6.4 0-12.1-.1-17.8.1-2.7.1-5.3.5-8 1.1-8.1 1.8-13.2 6.6-15.1 14.9-2.3 10.3 1.1 19.3 8.3 22.2 13 5.2 31.2-5.7 32.4-19.7.6-6.2.2-12.3.2-18.6m57-44.6c2.7-2.4 4.8-4.3 6.9-6.1 9.4-8.1 20.3-10.9 32.5-9.3 13.5 1.8 23.4 11.9 23.6 25.7.5 27.7.2 55.5.2 83.2 0 4-2 5.9-5.9 5.9-16.7.2-15.7.9-15.6-14.6.1-20.4 0-40.8 0-61.2v-4.3c.4-16.3-8.8-20.2-23.5-15.5-10.7 3.4-17.2 14-17.3 26.5-.1 20.2 0 40.5-.1 60.7 0 7.4-1 8.4-8.4 8.4-13.2.1-13.2.1-13.2-13.2v-92.4c0-3.9-.1-8.1 5.2-8.3 9.8-.3 12.1-1.1 13.5 6.1.5 2.7 1.3 5.2 2.1 8.4M372.6 177v51c0 6.8-1.4 8.2-8.2 8.2-13.3.1-13.3.1-13.3-13.3v-96.2c0-8 .8-8.8 9-9 1.1 0 2.1-.1 3.2-.1 8.1.1 9.3 1.2 9.3 9.4zm-10.5-85.9c-8.2.1-14.9-6.6-15-14.9-.1-8.5 6.3-15.1 14.6-15.2 8.1-.1 14.5 6.3 14.7 14.5.2 8.5-6.2 15.5-14.3 15.6"/></svg>