<?xml version="1.0" encoding="utf-8"?>
<!-- Generator: Adobe Illustrator 22.1.0, SVG Export Plug-In . SVG Version: 6.00 Build 0)  -->
<svg version="1.1" id="Layer_1" xmlns="http://www.w3.org/2000/svg" xmlns:xlink="http://www.w3.org/1999/xlink" x="0px" y="0px"
	 viewBox="0 0 512 512" style="enable-background:new 0 0 512 512;" xml:space="preserve">
<style type="text/css">
	.st0{fill:#BB242E;}
</style>
<path class="st0" d="M109.7,358.4c1.7,0.6,2.7,1,3.7,1.2c23.6,5,32,25,29.8,44.2c-2.6,22.8-16.8,37-40.3,38.4
	c-19.1,1.1-38.3,0.5-57.4,0.5c-4.6,0-6-2.9-6-7.1c0.1-14.3,0-28.6,0-43c0-33.3,0-66.6,0-99.9c0-7.5,1.3-8.9,8.6-8.8
	c17.7,0.2,35.5-0.5,53.1,1c25.5,2.2,40,24,34,48.8c-2.5,10.2-8.8,17-18,21.3C114.9,356.2,112.6,357.1,109.7,358.4z M62,368.6
	c0,18.4,0,36.7,0,54.9c12.4,0,24.4,0.4,36.3-0.2c7.1-0.3,12.8-4.2,16.8-10.2c11.6-17.7,1.8-41.3-19.1-44.2
	C84.9,367.3,73.6,368.6,62,368.6z M61.9,303.1c0,15.7,0,31.3,0,47.4c7.7,0,15,0.2,22.3-0.1c4.8-0.2,9.7-0.5,14.2-1.9
	c10.6-3.2,16-12.2,15.3-24.2c-0.7-11.7-7-19.9-18.4-21C84.3,302.3,73.2,303.1,61.9,303.1z"/>
<path class="st0" d="M61.6,162.4c0,20.5,0,40.7,0,60.9c0,12.9-0.1,12.9-13.2,12.9c-0.7,0-1.4,0-2.1,0c-4.6,0-6.8-2.2-6.8-6.9
	c0-50.3,0-100.6,0-151c0-4.3,1.6-7.1,6.1-7.1c17.9,0.2,35.9-0.7,53.6,1.1c32.5,3.4,47.9,37,30.1,63.6c-5.6,8.3-13.6,13-23.1,15.4
	c-1.7,0.4-3.4,0.8-6.4,1.6c17.9,6.1,25.3,20,31.1,35.2c5.2,13.5,10.3,27.1,15.3,40.7c2.2,5.9,1,7.4-5.3,7.5c-4.1,0.1-8.2-0.1-12.4,0
	c-4.2,0.1-6.5-1.7-7.8-5.8c-3.9-12.1-7.9-24.1-12.1-36.1c-1.4-4-3.3-7.9-5.3-11.7C93.9,164.7,82.5,159.2,61.6,162.4z M62,142.8
	c2.5,0,4.3,0,6,0c6.3,0,12.5,0.3,18.8-0.2c4.2-0.4,8.5-1.4,12.4-3.1c9.5-4.1,15-14.2,14.4-25.4c-0.6-10.5-5.9-19.2-16-21
	C86,91,74,91.2,62,90.4C62,108.7,62,125.4,62,142.8z"/>
<path class="st0" d="M323.8,135.6c0.6,1.2,0.9,2,1.3,2.7c9.8,15.2,9.3,30.7,0.3,45.6c-9.2,15.2-24.3,18.9-41,18.3
	c-2-0.1-3.9-0.3-5.9-0.8c-4.7-1-6,2.4-7,5.6c-1.1,3.5,0.2,6.6,4,7.5c2.7,0.7,5.6,1,8.5,1c7.9,0.2,15.8-0.1,23.6,0.2
	c16.7,0.6,28.3,8.8,31.8,22.3c4.1,15.8-1.9,32.2-16,39.8c-21,11.3-42.7,10.9-64,0.7c-10-4.8-14.8-13.8-15.5-24.8
	c-0.3-5.4,1.4-7.1,6.9-7.1c1.8,0,3.6,0.3,5.4,0.1c6-0.5,9.8,1.3,11,8c1,5.5,5.3,8.8,10.6,10.4c10.2,3.2,20.5,3.1,30.5-0.7
	c8.3-3.2,12.2-9.5,11.2-17.4c-0.9-7.1-4.2-11.5-11.4-12.2c-9-0.9-18.2-0.6-27.3-1c-5.2-0.2-10.5-0.3-15.4-1.5
	c-13.3-3.2-18.5-15.4-12-27.5c1.9-3.6,4.7-6.7,7.3-10.3c-0.3-0.3-0.5-1-1.1-1.4c-18.8-13.9-18.9-42.1-10.4-57
	c9-15.8,23.8-20.2,40.7-19.9c12.7,0.2,25.4,0.8,38.1,1.1c4.2,0.1,7.9,0.3,8.2,6c0.4,8.9-0.2,10-7,11.1
	C327.6,134.9,325.9,135.3,323.8,135.6z M309.8,158.9c0.1-19.9-7.3-27.4-25.7-25.9c-8.7,0.7-15.1,5.2-16.2,13.7
	c-1.1,8.2-0.9,16.7,0,24.9c0.7,6.3,4.8,11.1,11.3,13.1c17.1,5.2,29.4-3.2,30.6-21C309.9,162.1,309.8,160.5,309.8,158.9z"/>
<path class="st0" d="M372.2,375.2c8.7-12.9,17.6-25.6,26-38.7c3.6-5.6,7.7-8.6,14.4-7.8c2.6,0.3,5.4-0.2,8,0.2
	c1.9,0.2,4.3,0.8,5.4,2.1c0.6,0.7-0.6,3.6-1.7,5.1c-8.2,11.1-16.5,22.1-24.8,33.1c-6.6,8.7-6.6,8.7-0.3,17.9
	c10.8,15.8,21.5,31.7,32.1,47.6c1.2,1.8,1.4,4.1,2.1,6.2c-2.1,0.6-4.2,1.9-6.3,1.8c-20.8-0.2-15.6,3.2-26.9-14.7
	c-9.4-15-18.6-30.1-29.1-45c-0.1,1.8-0.3,3.5-0.3,5.3c0,15.6,0,31.1,0,46.7c0,6.8-1,7.7-7.9,7.8c-13.4,0.2-13.4,0.2-13.4-13.2
	c0-48.2,0-96.3,0-144.5c0-9,0.9-9.9,9.7-9.9c1.3,0,2.5,0,3.8,0c6.5,0.1,7.8,1.3,7.8,7.9c0,28.8,0,57.6,0,86.5c0,1.7,0,3.5,0,5.2
	C371.3,374.9,371.7,375.1,372.2,375.2z"/>
<path class="st0" d="M167.5,182.4c1.3,6.7,1.8,12.4,3.4,17.8c3.3,11.2,11.3,17.7,22.8,17.8c8.8,0.1,17.7-1.6,26.4-3.4
	c5.2-1.1,7.2,0.7,8.7,5.1c2.9,8.7,2.9,10.5-2.4,12.5c-17,6.6-34.2,7.4-51.4,1.1c-10.3-3.8-18.2-11-22.5-21.2
	c-10.4-24.5-10.7-49.3,1.2-73.2c12.9-25.9,48.3-30.9,66.9-10.1c8.9,9.9,11.7,22.3,13.1,35.1c0.4,3.7,0.3,7.5,0.5,11.3
	c0.3,5-2,7.2-7,7.1c-17.5-0.1-35.1,0-52.6,0C172.7,182.4,170.8,182.4,167.5,182.4z M211.3,165.5c1.1-7.5-1.5-18.2-5.8-24.1
	c-6.8-9.4-20-10.4-28-1.8c-6.6,7.2-8.5,16.1-9.1,26C182.8,165.5,196.9,165.5,211.3,165.5z"/>
<path class="st0" d="M479,176.6c-0.2,13-1.8,25.2-7.6,36.5c-7.7,15.2-20.1,23.4-37.1,24.2c-17.7,0.8-32.5-5.4-40.9-21.4
	c-13.1-25.1-13-51.1-0.7-76.5c7.8-16.2,22.1-23.4,39.9-23.1c17.7,0.3,30.7,8.6,38.7,24.4C477.2,152.1,478.8,164.5,479,176.6z
	 M457.2,177.2c-1.6-8.8-2.4-17.6-4.8-25.9c-3.3-11.2-10.9-16.6-21-16.7c-9.9-0.1-17.4,5.1-20.9,16.1c-5.7,17.6-5.8,35.6,0.2,53.2
	c3.6,10.5,11,15.4,20.9,15.3c9.8-0.1,17.5-5.2,20.6-15.7C454.7,195,455.6,186.1,457.2,177.2z"/>
<path class="st0" d="M216.3,428.3c-8.5,10.9-19.2,15.3-31.8,15.6c-19.3,0.5-31.1-10.1-32.7-29.3c-1.9-23.2,10.9-38.3,34.4-40.4
	c7.3-0.7,14.7-0.9,22-1.4c2.1-0.1,4.2-0.5,6.9-0.8c-0.2-4.6-0.1-9-0.7-13.1c-1-6.7-5.2-10.7-11.9-12.1c-10.2-2.1-19.9,0-29.7,2.5
	c-6.6,1.7-7.8,0.9-9.3-5.6c-0.2-0.9-0.4-1.8-0.6-2.6c-1.6-7.3-1.1-9,6.1-10c11.1-1.6,22.4-3.5,33.5-3.1c21,0.8,32.9,13.2,33.6,34.3
	c0.6,15.9,0,31.9,0.4,47.8c0.2,8.7,1.2,17.5,2.4,26.1c0.6,4.4-0.4,6.4-5,6.6C220.4,443.5,220.4,443.6,216.3,428.3z M215,387.9
	c-6.4,0-12.1-0.1-17.8,0.1c-2.7,0.1-5.3,0.5-8,1.1c-8.1,1.8-13.2,6.6-15.1,14.9c-2.3,10.3,1.1,19.3,8.3,22.2
	c13,5.2,31.2-5.7,32.4-19.7C215.4,400.3,215,394.2,215,387.9z"/>
<path class="st0" d="M272,343.3c2.7-2.4,4.8-4.3,6.9-6.1c9.4-8.1,20.3-10.9,32.5-9.3c13.5,1.8,23.4,11.9,23.6,25.7
	c0.5,27.7,0.2,55.5,0.2,83.2c0,4-2,5.9-5.9,5.9c-16.7,0.2-15.7,0.9-15.6-14.6c0.1-20.4,0-40.8,0-61.2c0-1.4,0-2.9,0-4.3
	c0.4-16.3-8.8-20.2-23.5-15.5c-10.7,3.4-17.2,14-17.3,26.5c-0.1,20.2,0,40.5-0.1,60.7c0,7.4-1,8.4-8.4,8.4
	c-13.2,0.1-13.2,0.1-13.2-13.2c0-30.8,0-61.6,0-92.4c0-3.9-0.1-8.1,5.2-8.3c9.8-0.3,12.1-1.1,13.5,6.1
	C270.4,337.6,271.2,340.1,272,343.3z"/>
<path class="st0" d="M372.6,177c0,17,0,34,0,51c0,6.8-1.4,8.2-8.2,8.2c-13.3,0.1-13.3,0.1-13.3-13.3c0-32.1,0-64.1,0-96.2
	c0-8,0.8-8.8,9-9c1.1,0,2.1-0.1,3.2-0.1c8.1,0.1,9.3,1.2,9.3,9.4C372.6,143.7,372.6,160.3,372.6,177z"/>
<path class="st0" d="M362.1,91.1c-8.2,0.1-14.9-6.6-15-14.9c-0.1-8.5,6.3-15.1,14.6-15.2c8.1-0.1,14.5,6.3,14.7,14.5
	C376.6,84,370.2,91,362.1,91.1z"/>
</svg>
