<svg fill="none" xmlns="http://www.w3.org/2000/svg" viewBox="0 0 256 256"><path d="M0 0h256v256H0V0z" fill="#fff"/><path fill-rule="evenodd" clip-rule="evenodd" d="M125 71c-2.2 16-4 29.6-7.3 50.6 8.8-.2 29 3.3 33.4-25.4 3.7-24-12.7-26.1-26-25.2z" fill="url(#paint0_linear)"/><path fill-rule="evenodd" clip-rule="evenodd" d="M125 71c-2.2 16-4 29.6-7.3 50.6 8.8-.2 29 3.3 33.4-25.4 3.7-24-12.7-26.1-26-25.2z" fill="#000"/><path fill-rule="evenodd" clip-rule="evenodd" d="M201.8 186.6a17 17 0 01-7.2 21.3 59 59 0 01-13.6 5.5c-7.7 1.8-15.7 2.9-23.7 3a38.5 38.5 0 01-31-16.1c-1.5 3-6.6 9.2-15.7 12.1-5.7 1.9-12.5 4-26.9 4a29.2 29.2 0 01-24-10.7c-6.2-7.8-7.1-17.6-6-24.3l.1-.3c4.9-24.4 11.5-68.6 14.6-90.8v-.2c.8-6.2 1.7-12.3 2.2-18.5.2-3.1.4-6.3.4-9.4l-.2-8.9c0-2.7.5-5.6 1.8-8 2.1-4 6-7.2 10.1-8.5 4.6-1.6 9.3-2.2 14-2.7a244.6 244.6 0 0132-2.1c10.1 0 20.2.2 30.2 2.2s20.3 6 28.3 13a56 56 0 0113 17.5c3 5.8 4 12 4.8 16.6 1.2 8.4.9 17-1 25.3-1.5 6-4 11.8-7.3 17a70.5 70.5 0 01-15 16.4c3.9 11 13.7 32.4 20.1 46.6zM88.7 54.5a120.4 120.4 0 01-1 24.7c-.4 4.2-1 8.3-1.5 12.4L86 93a2693 2693 0 01-5.6 38.6c-2 13.5-4.3 27-6.6 40.4-1 6.2-3.5 14.3-.2 20.3 3 5.3 10.4 6 15.6 5.4 19-2 22-6.2 22-6.2-3.7-4.2-.4-23.3 3.4-49H128l14.2 42.7s4.1 13.3 15.7 12.6c14.9-.8 25.8-4.2 27.4-6-4.6-2.6-17.7-35.3-24.8-59.3a90 90 0 0010-7c4.2-3.5 8.2-7.5 11.3-12.3a36.5 36.5 0 005.8-17.6 49.9 49.9 0 00-3.3-22.4c-3-6-7.3-11.4-13-14.8-9.9-5.8-21.2-6.9-32.2-7.5-12-.7-24-.3-35.8 1.2-1.3.1-14.8 1.3-14.7 2.4z" fill="url(#paint1_linear)"/><path fill-rule="evenodd" clip-rule="evenodd" d="M201.8 186.6a17 17 0 01-7.2 21.3 59 59 0 01-13.6 5.5c-7.7 1.8-15.7 2.9-23.7 3a38.5 38.5 0 01-31-16.1c-1.5 3-6.6 9.2-15.7 12.1-5.7 1.9-12.5 4-26.9 4a29.2 29.2 0 01-24-10.7c-6.2-7.8-7.1-17.6-6-24.3l.1-.3c4.9-24.4 11.5-68.6 14.6-90.8v-.2c.8-6.2 1.7-12.3 2.2-18.5.2-3.1.4-6.3.4-9.4l-.2-8.9c0-2.7.5-5.6 1.8-8 2.1-4 6-7.2 10.1-8.5 4.6-1.6 9.3-2.2 14-2.7a244.6 244.6 0 0132-2.1c10.1 0 20.2.2 30.2 2.2s20.3 6 28.3 13a56 56 0 0113 17.5c3 5.8 4 12 4.8 16.6 1.2 8.4.9 17-1 25.3-1.5 6-4 11.8-7.3 17a70.5 70.5 0 01-15 16.4c3.9 11 13.7 32.4 20.1 46.6zM88.7 54.5a120.4 120.4 0 01-1 24.7c-.4 4.2-1 8.3-1.5 12.4L86 93a2693 2693 0 01-5.6 38.6c-2 13.5-4.3 27-6.6 40.4-1 6.2-3.5 14.3-.2 20.3 3 5.3 10.4 6 15.6 5.4 19-2 22-6.2 22-6.2-3.7-4.2-.4-23.3 3.4-49H128l14.2 42.7s4.1 13.3 15.7 12.6c14.9-.8 25.8-4.2 27.4-6-4.6-2.6-17.7-35.3-24.8-59.3a90 90 0 0010-7c4.2-3.5 8.2-7.5 11.3-12.3a36.5 36.5 0 005.8-17.6 49.9 49.9 0 00-3.3-22.4c-3-6-7.3-11.4-13-14.8-9.9-5.8-21.2-6.9-32.2-7.5-12-.7-24-.3-35.8 1.2-1.3.1-14.8 1.3-14.7 2.4z" fill="#000"/><defs><linearGradient id="paint0_linear" x1="49.5" y1="233.6" x2="222.9" y2="69.8" gradientUnits="userSpaceOnUse"><stop offset=".1" stop-color="#0D59EC"/><stop offset=".7" stop-color="#008FE1"/><stop offset="1" stop-color="#20AFFF"/></linearGradient><linearGradient id="paint1_linear" x1="49.5" y1="233.6" x2="222.9" y2="69.8" gradientUnits="userSpaceOnUse"><stop offset=".1" stop-color="#0D59EC"/><stop offset=".7" stop-color="#008FE1"/><stop offset="1" stop-color="#20AFFF"/></linearGradient></defs></svg>