<svg xmlns="http://www.w3.org/2000/svg" viewBox="0 0 512 512"><path fill="#2d8d2d" d="M0 0h512.1v513H0z"/><path fill="#168ed0" d="M483.6 285.4c.1 0 .3-.1.4-.1v8.7c-.1 0-.3-.1-.4-.1z"/><path fill="#ec7e14" d="M258.7 268c-27.7-30.8-26.5-61.2 2.1-86.9 6.2-5.6 12.5-11.2 18.1-17.3 11.5-12.5 10.9-27.7 8.9-43.1-.4-3.1-2.2-6.3-5.3-6.6-3.5-.4-3.3 3.6-4.2 5.9-5.5 13-15.2 22.6-25.3 31.9-7.2 6.7-14.9 13.1-21.6 20.3-13.1 14.1-16.1 30.5-9.6 48.6 1.4 3.8 2.6 7.7 4.2 12.3-29.6-15.6-39.3-58.5-19.6-84.9 4.3-5.7 9.3-11.1 14.9-15.7 26.9-22 37.3-50.7 36.1-84.7-.3-7-3-17.5 4.1-19.6 7.8-2.3 11.7 8 15.4 14.2 16.8 27.7 30.9 56.6 37.1 88.9 5.9 30.5-1.2 56.4-25.6 76.8-14.2 11.8-27.5 24.4-28.9 44.5-.3 4.6-.5 9.1-.8 15.4"/><path fill="#f8faf8" d="M199.3 250.4c11.6 25.4 30.2 38.6 55.9 38.4 26.6-.2 45.4-14.2 55.7-39.8 7 19.3.6 43.1-17.4 56.1-25.9 18.7-42.3 21.7-77.3 1.1-11.8-6.9-21.2-35.9-16.9-55.8m97.5 72C284.3 375 282.2 429.8 263 480.9c-.7 1.9-1.7 4.4-3.3 4.1 0-29-.2-57.7.1-86.3.1-15.2 1.1-30.4 1.2-45.6 0-6.4 1.1-10.3 8.5-12 10.9-2.7 19.4-9.8 27.3-18.7"/><path fill="#f5f9f5" d="M241.9 471.7c-10.7-20.1-13.7-41.8-17.4-63.3-4.5-26.4-9.1-52.9-13.5-79.3-.4-2.5-1.6-6.1.7-7.5 3.8-2.2 4.4 2.7 6.6 4.2 13.7 9.7 16.1 23.6 16.7 39.3 1.7 35.6 4.6 71.1 6.9 106.6"/></svg>