<?xml version="1.0" encoding="utf-8"?>
<!-- Generator: Adobe Illustrator 22.1.0, SVG Export Plug-In . SVG Version: 6.00 Build 0)  -->
<svg version="1.1" id="Layer_1" xmlns="http://www.w3.org/2000/svg" xmlns:xlink="http://www.w3.org/1999/xlink" x="0px" y="0px"
	 viewBox="0 0 512 512" style="enable-background:new 0 0 512 512;" xml:space="preserve">
<style type="text/css">
	.st0{fill:#2D8D2D;}
	.st1{fill:#168ED0;}
	.st2{fill:#EC7E14;}
	.st3{fill:#F8FAF8;}
	.st4{fill:#F5F9F5;}
</style>
<rect class="st0" width="512.1" height="513"/>
<path class="st1" d="M483.6,285.4c0.1,0,0.3-0.1,0.4-0.1c0,2.9,0,5.8,0,8.7c-0.1,0-0.3-0.1-0.4-0.1
	C483.6,291.1,483.6,288.3,483.6,285.4z"/>
<g>
	<path class="st2" d="M258.7,268c-27.7-30.8-26.5-61.2,2.1-86.9c6.2-5.6,12.5-11.2,18.1-17.3c11.5-12.5,10.9-27.7,8.9-43.1
		c-0.4-3.1-2.2-6.3-5.3-6.6c-3.5-0.4-3.3,3.6-4.2,5.9c-5.5,13-15.2,22.6-25.3,31.9c-7.2,6.7-14.9,13.1-21.6,20.3
		c-13.1,14.1-16.1,30.5-9.6,48.6c1.4,3.8,2.6,7.7,4.2,12.3c-29.6-15.6-39.3-58.5-19.6-84.9c4.3-5.7,9.3-11.1,14.9-15.7
		c26.9-22,37.3-50.7,36.1-84.7c-0.3-7-3-17.5,4.1-19.6c7.8-2.3,11.7,8,15.4,14.2c16.8,27.7,30.9,56.6,37.1,88.9
		c5.9,30.5-1.2,56.4-25.6,76.8c-14.2,11.8-27.5,24.4-28.9,44.5C259.2,257.2,259,261.7,258.7,268z"/>
	<path class="st3" d="M199.3,250.4c11.6,25.4,30.2,38.6,55.9,38.4c26.6-0.2,45.4-14.2,55.7-39.8c7,19.3,0.6,43.1-17.4,56.1
		c-25.9,18.7-42.3,21.7-77.3,1.1C204.4,299.3,195,270.3,199.3,250.4z"/>
	<path class="st3" d="M296.8,322.4c-12.5,52.6-14.6,107.4-33.8,158.5c-0.7,1.9-1.7,4.4-3.3,4.1c0-29-0.2-57.7,0.1-86.3
		c0.1-15.2,1.1-30.4,1.2-45.6c0-6.4,1.1-10.3,8.5-12C280.4,338.4,288.9,331.3,296.8,322.4z"/>
	<path class="st4" d="M241.9,471.7c-10.7-20.1-13.7-41.8-17.4-63.3c-4.5-26.4-9.1-52.9-13.5-79.3c-0.4-2.5-1.6-6.1,0.7-7.5
		c3.8-2.2,4.4,2.7,6.6,4.2c13.7,9.7,16.1,23.6,16.7,39.3C236.7,400.7,239.6,436.2,241.9,471.7z"/>
</g>
</svg>
