<svg xmlns="http://www.w3.org/2000/svg" viewBox="0 0 512 512"><path fill="#ED1C25" d="M186.5 262.6v16.3h220.6c.4 4 1 6.8 1 9.7.1 31.4.2 62.8 0 94.2-.2 25.1-19.6 44.9-44.8 45.1-67.7.3-135.4.3-203 0-22-.1-39.5-14.5-43.5-36.4-2.1-11.5-1.6-23.6-2.3-36.8h221.7c2.8-15.9 2.5-16.4-11.2-16.4H115.1v-97.2c.1-32.6 18.6-52.1 51.1-52.3 63.9-.4 127.9-.5 191.8 0 32.2.3 50.2 19.5 50.2 51.7v22.2c-74.2-.1-147.3-.1-221.7-.1m74.7-88.7c-24.5-.2-43.2-19.7-43.1-44.8.1-24.8 19.4-44.3 43.8-44.3 24.8 0 44 20.1 43.6 45.6-.4 25.1-19.3 43.6-44.3 43.5"/></svg>