<svg xmlns="http://www.w3.org/2000/svg" viewBox="0 0 256 256"><path fill="#fff" d="M0 0h256v256H0z"/><path fill="#284F9B" d="M125.4 74.6v10.8c0 .4.1.5.5.5h6c.5 0 .6.1.6.5V90c0 .5-.1.6-.6.6h-6c-.4 0-.5 0-.5.5v14.5c0 .6 0 1.1.2 1.7a5.4 5.4 0 0 0 5.3 4.5h1.7c.3 0 .3 0 .3.3v4.3c0 .2 0 .3-.3.4-3.3.2-6.6-.1-9.4-2.3-2.2-1.7-3.1-4-3.4-6.7-.1-1-.2-1.8-.1-2.7V91.2c0-.6-.2-.7-.6-.7h-2.8c-.3 0-.4 0-.4-.4v-3.7c0-.3.1-.4.4-.4h2.8c.6 0 .8 0 .8-.8V74.8zm-38.4 0c.5.1.6.5.6 1V79c0 .5 0 .6-.5.6-1.3-.2-2.5 0-3.6.3a5.4 5.4 0 0 0-3.5 5.6c0 .4.3.3.5.3h5.8c.5 0 .7.2.7.6v3.4c0 .5-.1.6-.6.6h-5.8c-.5 0-.7 0-.7.6v24.7c0 1 .2.9-.8.9h-4c-.6 0-.7-.2-.7-.8V91.1c0-.6-.1-.8-.8-.8h-2.5c-.2 0-.3 0-.3-.4v-3.7c0-.3 0-.4.3-.4H74c.4 0 .5-.1.5-.6 0-1.8.3-3.5 1-5.1 1.5-3.1 4-4.7 7.2-5.3 1.4-.3 3-.2 4.4-.2zm46.3 11.3h6c.4 0 .4.3.5.5l6 15.7a60 60 0 0 1 2.6 7.3c1-3.8 2.4-7.2 3.7-10.8l4.5-12.3c.1-.3.3-.5.7-.5h5.6l-1 2.5-13 32.8c-1 2.4-2.3 4.4-4.6 5.7a9.8 9.8 0 0 1-10.3-.1c-.3-.2-.3-.4-.1-.8l1.5-3.3c.1-.4.3-.5.7-.2 2.6 1.6 5.1 1 7-1.2a9 9 0 0 0 1-1.7l1.5-3.5c.1-.3.1-.6 0-.8l-9.2-21.7-3-7V86zm-95.6 7.5a11 11 0 0 0-8-2.6c-.9 0-1.7.3-2.5.8a3 3 0 0 0-1.2 4c.2.4.4.8.7 1 1 .7 2 1.3 3 1.7 1.9.8 3.7 1.4 5.4 2.3 1.3.6 2.5 1.4 3.5 2.4 2.9 3.2 2.7 8-.4 10.9l-.6.5c-1.8 1.3-4 2.2-6.3 2.3-4.3.3-8.6-1-12-3.9-.4-.3-.4-.6 0-1l2-3c.3-.4.4-.4.7-.1 2.4 2 5.4 3.2 8.6 3 1 0 1.9-.3 2.8-.8 2-1.4 2.1-3.7.2-5.2l-2.8-1.6-5.3-2.2c-1-.5-2-1.1-3-2a7.5 7.5 0 0 1 .4-11.8c1.7-1.3 3.8-2 6-2.1 3.3-.3 6.5.2 9.5 1.9 1.6 1 1.6 1 .7 2.7z"/><path fill="#284F9B" fill-rule="evenodd" d="m112.6 109.7-.7-1.4-.7.6c-2.5 2-5.6 3-8.7 2.8-5 0-9-4-9.4-9 0-.5.1-.7.7-.7h20c.6 0 .7-.1.7-.6.2-1.8.1-3.5-.2-5.3-.8-4-2.7-7-6.4-9a13.5 13.5 0 0 0-8-1.1c-4.5.5-8 2.6-10.3 6.4-1.9 3.1-2.7 6.8-2.3 10.4.4 4.4 2.3 8.1 5.9 10.8 4 3 8.6 3.6 13.5 2.6a17 17 0 0 0 7-3.4l.3-.1c.2-.2.2-.5 0-.7zM94 97.9h7.1l6.5-.1c.7 0 1 0 1.1-.2.2-.1.1-.5 0-1.1-.4-2.9-1.8-5-4.7-5.9a8.4 8.4 0 0 0-10.6 6.5c-.2.7 0 .8.6.8m-31.4 13.4.3-.4a93 93 0 0 0-.1 5.1c0 .5 0 .7.6.7h4c.5 0 .6-.1.6-.7V97.7c0-1.1 0-2.1-.2-3.2-.6-3.8-2.6-6.5-6.2-7.9A18.8 18.8 0 0 0 45.9 89c-.3.2-.4.4-.2.7l1.7 3.1c.3.5.4.6 1 .3 2.5-1.8 5.5-2.6 8.5-2.4 3 .1 4.8 1.6 5.3 4.3l.2 2c0 .4 0 .6-.6.6-2.6 0-5.2 0-7.7.5a17 17 0 0 0-7.3 2.8 8.6 8.6 0 0 0-.2 13.5c1.6 1.2 3.5 2 5.6 2.2 4 .3 7.2-1 9.6-4.1zm-.5-9.4h-2c-1.2 0-2.2 0-3.4.2-1.8.2-3.6.5-5.2 1.5a4.3 4.3 0 0 0-2.3 4.3 4.3 4.3 0 0 0 2.9 3.8c2.2 1 4.8.6 6.6-1 2.8-2.1 3.8-5 3.8-8.4 0-.4-.1-.4-.4-.4" clip-rule="evenodd"/><path fill="#009BD0" d="M126.4 176.7c-.3-.2-.4-.3-.2-.6l2-3.3c.3-.3.4-.3.7-.1 2.1 1.2 4.9 1 6.7-.7a11 11 0 0 0 2.3-2.8l1.8-3c.2-.2.3-.6.2-1l-6.6-28.5c-.1-.6-.1-.7.5-.7h4.6c.4 0 .6 0 .7.5l4 20.6.5 3 2.5-4.8 10.3-18.7a1 1 0 0 1 1-.6h5.5c.1.2 0 .4-.2.5L142 171.7a13.8 13.8 0 0 1-6.3 5.9 10 10 0 0 1-9.2-.9z"/><path fill="#009BD0" fill-rule="evenodd" d="m71 172.5-1 5.9 5.3-.1.7-3.4 2.4-13.2.2.3a8 8 0 0 0 5.3 4.3c4.3 1.2 8.2.2 11.7-2.4a19.7 19.7 0 0 0 7-19.9 9.6 9.6 0 0 0-5.8-7.1 12.3 12.3 0 0 0-14.4 4c0 .2-.2.3-.5.4.5-1.5.8-3 1-4.6.2-.5.1-.6-.4-.6h-4.1c-.4 0-.5.1-.6.5l-1.4 7-1.3 7.1zm13.8-29a14.5 14.5 0 0 0-4.5 13c.6 3.1 2.7 5 5.8 5.3a9 9 0 0 0 6-1.9 14.1 14.1 0 0 0 4.9-14.4 5.9 5.9 0 0 0-5.7-4.5c-2.4-.1-4.8.8-6.5 2.4zm37.2 17.9.2-.3c0 .6-.2 1.2-.3 1.7-.2 1.2-.5 2.3-.6 3.5-.1.4-.1.5.4.5h4.1c.4 0 .6-.1.7-.5l1.7-9 1.8-9c.4-1.8.4-3.7.2-5.5-.7-3.5-3-5.8-6.7-6.5-5-.9-9.6.3-14 2.6-.3.1-.3.3-.2.6l.5 1.6.6 1.6c.3.9.3.9 1 .5 3-1.6 6-2.7 9.3-2.3 2.1.2 3.5 1.4 3.8 3.4v2.9c0 .4-.3.6-.7.6a43 43 0 0 0-7 .4 23 23 0 0 0-8 2.5c-2.3 1.3-4 3-4.9 5.7-1.1 3.5-.2 6.7 2.3 8.6 1.9 1.4 4.2 2 6.4 1.8a12.1 12.1 0 0 0 9.4-5.4m1.2-9.5h-1.9l-3.2.2c-2 .1-4 .7-5.8 1.5-1 .5-2 1.3-2.6 2.3-1.3 2.4-.6 5.8 3.3 6.2 1.8.2 3.6-.3 5-1.3 2.9-2 4.8-5 5.5-8.5.1-.3 0-.4-.3-.4" clip-rule="evenodd"/><path fill="#284F9B" d="M203.4 126.5 177 105.4v21h26.4z"/><path fill="#009BD0" d="M203.4 126.5 177 147.6v-21.1z"/><path fill="#284F9B" d="M239.3 126.5a50.7 50.7 0 0 0-50.6-50.7v14.7a36 36 0 0 1 35.9 36z"/><path fill="#009BD0" d="M239.3 126.5a50.7 50.7 0 0 1-50.6 50.7v-14.8a36 36 0 0 0 35.9-36h14.7z"/></svg>