<?xml version="1.0" encoding="utf-8"?>
<!-- Generator: Adobe Illustrator 22.1.0, SVG Export Plug-In . SVG Version: 6.00 Build 0)  -->
<svg version="1.1" id="Layer_1" xmlns="http://www.w3.org/2000/svg" xmlns:xlink="http://www.w3.org/1999/xlink" x="0px" y="0px"
	 viewBox="0 0 512 512" style="enable-background:new 0 0 512 512;" xml:space="preserve">
<style type="text/css">
	.st0{fill:#ED0100;}
	.st1{fill:#FFFFFF;}
</style>
<rect x="1" y="-1" class="st0" width="509" height="511"/>
<path class="st1" d="M197.3,240.6c0.2,11.7,2.8,22.6,8.7,32.5c10.2,17.3,20.4,34.7,30.4,52.2c6.6,11.6,12.9,23.5,19.5,35.4
	c4.6-6.8,7.2-15.1,8.1-24.1c1.3-12.8-1.6-24.8-8.1-35.9c-11-18.8-22-37.7-32.9-56.6c-11-19-11.7-38.5-2-58.2
	c0.7-1.4,1.7-2.7,2.4-3.9c16.7,35.3,38.4,67.5,57,101.4c3.3,6.1,6.1,12.5,9.3,19.1c6.5-10.2,9.1-21.4,8.7-33.4
	c-0.4-14.7-7.8-26.6-14.9-38.6c-9.4-15.9-18.9-31.8-27.7-48c-9.9-18.1-9.7-36.6-0.7-55.1c0.8-1.6,1.8-3,2.7-4.6
	c12.1,28.4,29.5,53.3,44.1,79.7c6.2,11.1,12.8,21.8,14,34.9c0.1,1.3,2.3,3,3.9,3.5c16.7,5,32.7,11.4,46.8,21.8
	c11.2,8.2,20.6,17.9,24.8,31.7c4.3,14.2,1.1,27-7.4,38.7c-11.3,15.5-27.1,24.8-44.4,31.9c-32.1,13.1-65.6,16.7-99.9,14.6
	c-24.5-1.5-48.1-6.5-70.6-16.5c-12.4-5.5-23.9-12.5-33.4-22.3c-21-21.8-20.9-47.6,0.5-68.9c16.3-16.2,36.7-24.8,58.5-30.9
	C195.2,240.7,196,240.7,197.3,240.6z"/>
</svg>
