<?xml version="1.0" encoding="utf-8"?>
<!-- Generator: Adobe Illustrator 22.1.0, SVG Export Plug-In . SVG Version: 6.00 Build 0)  -->
<svg version="1.1" id="Layer_1" xmlns="http://www.w3.org/2000/svg" xmlns:xlink="http://www.w3.org/1999/xlink" x="0px" y="0px"
	 viewBox="0 0 512 512" style="enable-background:new 0 0 512 512;" xml:space="preserve">
<style type="text/css">
	.st0{fill:#262342;}
	.st1{fill:#FFFFFF;}
</style>
<rect x="1" y="-1" class="st0" width="510" height="511"/>
<path class="st1" d="M136.3,340.6c0.5-0.3,1-0.8,1.6-1c11.1-2.8,22.3-5.6,33.3-8.4c3.2,7.2,5.6,14.5,9.4,21.1
	c10.4,18.2,31.8,27.8,52,23.8c21.6-4.2,37.2-20,40.5-41c2.5-15.8-2.2-29.2-15.9-37.4c-13.3-8-27.7-14.1-41.5-21.1
	c-10.9-5.5-22.1-10.3-32.5-16.6c-23.6-14.3-37.2-34.8-34.9-63.3c2.3-28.8,16.8-50.1,42.4-63.4c33.4-17.3,95.1-9.7,111.5,50.4
	c0.4,1.3,0.5,2.6,0.8,4.9c-11.9,3-23.8,6-35.9,9.1c-1.5-4.3-2.6-7.9-4-11.4c-7.2-17.5-26-26.4-46.7-22.1
	c-17.9,3.7-30.6,19.6-30.5,38c0.1,10.2,4.9,18.1,13.2,23c11,6.5,22.7,12,34.2,17.7c11.9,5.9,24.3,11,35.9,17.4
	c65,35.3,46.9,111.9,3.2,140.1C219.9,434.2,148.5,405.8,136.3,340.6z"/>
<path class="st1" d="M380,125.5c0.1,16.2-12.8,29.2-29,29.4c-16,0.1-29.3-12.9-29.4-29c-0.1-16.1,12.9-29.2,29.1-29.4
	C366.7,96.3,379.9,109.3,380,125.5z"/>
</svg>
