<svg xmlns="http://www.w3.org/2000/svg" viewBox="0 0 512 512"><path fill="#62932b" d="M172 304.5h-27c9.1-6.1 6.4-14.7 6.5-22.5.3-14.9.1-29.8.1-44.7 0-5.9.7-12-5.9-15.3.8-.7 1-1.2 1.2-1.2 13.2.1 26.4-1.1 39.4.6 14.1 1.8 22.1 10.9 21.1 24.1-.7 10.4-7.3 16.5-16.6 19.8-7 2.5-14.1 2.5-22 .1 2.8-2.5 5.7-1.8 8.2-2.3 6.1-1.3 11.2-3.8 14.2-9.4 5.5-10.3-.8-21.5-12.6-22.9-13-1.6-13-1.6-13 11.3 0 13.3-.1 26.7 0 40 .1 8-2.2 16.7 6.4 22.4m-68.8-37.1c4.2-6.5 8-11 15.8-10.4 6.4.6 12.8.1 19.2.1 1.2 0 2.7-.4 3.3.8.9 1.6-.9 2.4-1.6 3.4-3.2 4.7-7.5 6.5-13.3 6.1-7.5-.4-15.1 0-23.4 0m19 6.2c-3.8 0-7.6.1-11.4-.1-1.2 0-3.2.8-3.2-1.4 0-1.6 1.7-1.9 3.2-1.9 6 0 12.1-.2 18.1.1 4.5.2 8.1-.8 10.8-4.6.6-.8 1.4-1.5 2.3-2s2.1-.6 2.8.4c.6.9-.1 1.6-.6 2.3-3.4 4.3-6.8 8.2-13.2 7.2-2.8-.4-5.8 0-8.8 0"/><path fill="#5e9027" d="M92.9 236.5c-7.2-4.9-14.2-7.4-22.1-6.9-2.8.2-5.5.7-8 2-7 3.5-8.2 10-2.9 15.7 3.5 3.8 8 6 12.5 8.2 6.5 3.3 13.1 6.3 19 10.6 13.5 9.6 10.9 27.7-2.3 35-14.6 8.1-30 6.7-45.5 2.5-1.8-.5-1.9-1.8-2.2-3.1-.6-2.9-1.3-5.7-1.7-8.6-.2-1.2-2.1-2.6-.5-3.7 1.5-1 2.9.3 4.2 1.2 6.3 4 13.2 5.9 20.6 6.6 4.9.4 9.7-.4 14.1-2.8 7.6-4.1 8.4-11.6 1.9-17.4-3.4-3-7.5-4.9-11.6-6.8-6.1-2.8-12.4-5.4-18-9.2-7.8-5.4-11.2-12.7-9.7-22 1.4-8.5 7.3-13.1 14.9-15.7 11.4-3.8 22.8-3.3 34.3-.7 2.1.5 2.8 1.5 2.8 3.5.1 3.5.2 7.2.2 11.6m292.3 9.9c-6.7 7.6-12.6 14.4-18.7 21-2.2 2.3-2.6 3.9-.4 6.5 7.4 8.7 14.5 17.7 21.9 26.4 1.2 1.5 2.6 4 4.9 2.9 2.5-1.1 4.6-3.3 4.8-6.4.2-2.6.1-5.2.1-7.8 0-18.7.1-37.4.1-56.2 0-3.5 0-7-3.3-9.4-.7-.5-1.4-1.2-.9-2.1s1.5-.7 2.3-.7c4.1-.2 8.2.3 12.2-1.5 2.6-1.2 1.8 1.8 1.8 3 .1 8.1.1 16.3.1 24.4 0 14.9.1 29.8 0 44.7 0 4.9.2 9.4 5.1 11.8-.9 2.2-2.3 1.6-3.4 1.6-9.5.1-19.1 0-28.6.1-5.4 0-9.7-1.8-13-6.2-6-8.1-12.1-16.1-18.2-24-1.6-2.1-1.4-3.3.4-5.2 4.5-4.6 8.8-9.3 12.9-14.2 2-2.5 4.4-5.4-.8-8.7zm-124.1 51.2c-6.7 9.5-8.6 10.3-16.5 7.2-4.7-1.9-7.2-5.2-7.3-10.3-.1-5.4-.1-10.7 0-16.1.1-2.7-.5-3.7-3.5-2.6-4.7 1.7-9.7 2.6-14.4 4.4-4.2 1.6-8 4-7.3 9.4s4.8 6.8 9.3 7.3c3.8.4 7.6.1 11.5.1-2.2 7-5.6 9.6-12.1 9.7-4.6 0-9-.6-13.1-2.6-6.1-2.8-9.2-7.8-9.5-14.4-.3-6.3 2.6-11 8.1-14.1 4.6-2.6 9.6-3.9 14.6-5.3 3.8-1 7.7-2 11.3-3.8 2.6-1.3 4.8-3.1 4.6-6.3-.2-3.6-2.9-4.9-5.9-5.7-5.7-1.6-11.3-.7-16.8 1.1-1.4.5-2.6 1.8-4.4 1.1 2.6-11.1 4-12.2 15.1-12.3 1.9 0 3.8 0 5.7.2 13.2 1.1 18.5 6.9 18.5 20.1 0 6.4-.1 12.8-.1 19.2.3 10.7 1.4 12 12.2 13.7m-1.1-50.8c6.6-1.1 11.7 0 16.4-2.2 1.8-.8 1.9.8 1.9 2v5.1c1.5.8 2-.5 2.7-1.1 8.4-7.5 21.5-8.6 30.9-2.4 5.7 3.8 7.9 9.5 8 16 .2 8.7.2 17.3 0 26-.1 5.2.2 10.1 5 14.6-6.7 0-13.5.2-20.2-.1-2.4-.1-1.4-1.8-.1-2.6 2.6-1.8 3.5-4.4 3.5-7.2 0-9.5.7-19.1-.5-28.6-1.1-8.2-5.2-12.3-12.5-12.7-8-.4-14.3 3.8-15.7 11.4-1.9 10.5-1.2 21.1-.6 31.6.1 1.8.9 3.3 2.2 4.6.8.9 3 1.2 2 3-.6 1.1-2.2.5-3.4.5-5 .1-10.1.1-15.1 0-.9 0-2.2.5-2.7-.8-.4-1.1.5-1.5 1.2-2 3.1-2.2 3.5-5.4 3.5-8.8v-35.9c0-4.1-1.4-7.6-6.5-10.4m166.4-.4h20.9c-6.6 7.5-12.5 14.4-18.7 21-2.4 2.6-2.4 4.1-.2 6.7 7.3 8.6 14.2 17.4 21.5 26 1.4 1.7 3.3 4.8 5.7 3.4 2.6-1.5 5.2-4 5.2-7.9-.1-5.9 0-11.8 0-17.7 0-6.4-.1-12.8 0-19.2.1-4.5-.1-8.8-5-11.7 5.4-1.3 10.7-.6 15.7-2.6 2-.8 1.4 2.2 1.4 3.4.1 14.7.1 29.5 0 44.2 0 3.9.2 7.7 3.8 10.1.6.4 1.1.9.9 1.7-.3 1.2-1.4.9-2.1.9-11.2 0-22.4 0-33.6-.3-4-.1-7.1-2.5-9.5-5.7-6.1-8-12-16.1-18.2-24-1.8-2.3-1.4-3.7.4-5.6 4.4-4.6 8.7-9.4 12.9-14.2 2.2-2.4 3.5-5.2-1.1-8.5m-78.5-28.2v72.7c0 7.6 0 7.6 5.9 13.8-7.8 0-14.7.2-21.6-.2-2-.1-.6-1.8.3-2.5 3-2.3 3.3-5.5 3.3-8.9v-60.9c0-3.4-.3-6.6-3.4-8.8-.7-.5-1.4-1.2-.9-2.1s1.5-.6 2.3-.6c4.6 0 9.1.6 14.1-2.5m118.4 4.2c4.7.1 7.9 3.6 7.8 8.4-.1 4.5-3.5 7.7-8 7.7-4.7-.1-8-3.7-7.8-8.4.1-4.4 3.6-7.8 8-7.7"/></svg>