<?xml version="1.0" encoding="utf-8"?>
<!-- Generator: Adobe Illustrator 22.1.0, SVG Export Plug-In . SVG Version: 6.00 Build 0)  -->
<svg version="1.1" id="Layer_1" xmlns="http://www.w3.org/2000/svg" xmlns:xlink="http://www.w3.org/1999/xlink" x="0px" y="0px"
	 viewBox="0 0 512 512" style="enable-background:new 0 0 512 512;" xml:space="preserve">
<style type="text/css">
	.st0{fill:#5E9027;}
	.st1{fill:#62932B;}
</style>
<path class="st0" d="M92.9,236.5c-7.2-4.9-14.2-7.4-22.1-6.9c-2.8,0.2-5.5,0.7-8,2c-7,3.5-8.2,10-2.9,15.7c3.5,3.8,8,6,12.5,8.2
	c6.5,3.3,13.1,6.3,19,10.6c13.5,9.6,10.9,27.7-2.3,35c-14.6,8.1-30,6.7-45.5,2.5c-1.8-0.5-1.9-1.8-2.2-3.1c-0.6-2.9-1.3-5.7-1.7-8.6
	c-0.2-1.2-2.1-2.6-0.5-3.7c1.5-1,2.9,0.3,4.2,1.2c6.3,4,13.2,5.9,20.6,6.6c4.9,0.4,9.7-0.4,14.1-2.8c7.6-4.1,8.4-11.6,1.9-17.4
	c-3.4-3-7.5-4.9-11.6-6.8c-6.1-2.8-12.4-5.4-18-9.2c-7.8-5.4-11.2-12.7-9.7-22c1.4-8.5,7.3-13.1,14.9-15.7
	c11.4-3.8,22.8-3.3,34.3-0.7c2.1,0.5,2.8,1.5,2.8,3.5C92.8,228.4,92.9,232.1,92.9,236.5z"/>
<path class="st1" d="M172,304.5c-8.6,0-17.1,0-27,0c9.1-6.1,6.4-14.7,6.5-22.5c0.3-14.9,0.1-29.8,0.1-44.7c0-5.9,0.7-12-5.9-15.3
	c0.8-0.7,1-1.2,1.2-1.2c13.2,0.1,26.4-1.1,39.4,0.6c14.1,1.8,22.1,10.9,21.1,24.1c-0.7,10.4-7.3,16.5-16.6,19.8
	c-7,2.5-14.1,2.5-22,0.1c2.8-2.5,5.7-1.8,8.2-2.3c6.1-1.3,11.2-3.8,14.2-9.4c5.5-10.3-0.8-21.5-12.6-22.9c-13-1.6-13-1.6-13,11.3
	c0,13.3-0.1,26.7,0,40C165.7,290.1,163.4,298.8,172,304.5z"/>
<path class="st0" d="M385.2,246.4c-6.7,7.6-12.6,14.4-18.7,21c-2.2,2.3-2.6,3.9-0.4,6.5c7.4,8.7,14.5,17.7,21.9,26.4
	c1.2,1.5,2.6,4,4.9,2.9c2.5-1.1,4.6-3.3,4.8-6.4c0.2-2.6,0.1-5.2,0.1-7.8c0-18.7,0.1-37.4,0.1-56.2c0-3.5,0-7-3.3-9.4
	c-0.7-0.5-1.4-1.2-0.9-2.1c0.5-0.9,1.5-0.7,2.3-0.7c4.1-0.2,8.2,0.3,12.2-1.5c2.6-1.2,1.8,1.8,1.8,3c0.1,8.1,0.1,16.3,0.1,24.4
	c0,14.9,0.1,29.8,0,44.7c0,4.9,0.2,9.4,5.1,11.8c-0.9,2.2-2.3,1.6-3.4,1.6c-9.5,0.1-19.1,0-28.6,0.1c-5.4,0-9.7-1.8-13-6.2
	c-6-8.1-12.1-16.1-18.2-24c-1.6-2.1-1.4-3.3,0.4-5.2c4.5-4.6,8.8-9.3,12.9-14.2c2-2.5,4.4-5.4-0.8-8.7
	C371.8,246.4,377.9,246.4,385.2,246.4z"/>
<path class="st0" d="M261.1,297.6c-6.7,9.5-8.6,10.3-16.5,7.2c-4.7-1.9-7.2-5.2-7.3-10.3c-0.1-5.4-0.1-10.7,0-16.1
	c0.1-2.7-0.5-3.7-3.5-2.6c-4.7,1.7-9.7,2.6-14.4,4.4c-4.2,1.6-8,4-7.3,9.4c0.7,5.4,4.8,6.8,9.3,7.3c3.8,0.4,7.6,0.1,11.5,0.1
	c-2.2,7-5.6,9.6-12.1,9.7c-4.6,0-9-0.6-13.1-2.6c-6.1-2.8-9.2-7.8-9.5-14.4c-0.3-6.3,2.6-11,8.1-14.1c4.6-2.6,9.6-3.9,14.6-5.3
	c3.8-1,7.7-2,11.3-3.8c2.6-1.3,4.8-3.1,4.6-6.3c-0.2-3.6-2.9-4.9-5.9-5.7c-5.7-1.6-11.3-0.7-16.8,1.1c-1.4,0.5-2.6,1.8-4.4,1.1
	c2.6-11.1,4-12.2,15.1-12.3c1.9,0,3.8,0,5.7,0.2c13.2,1.1,18.5,6.9,18.5,20.1c0,6.4-0.1,12.8-0.1,19.2
	C249.2,294.6,250.3,295.9,261.1,297.6z"/>
<path class="st0" d="M260,246.8c6.6-1.1,11.7,0,16.4-2.2c1.8-0.8,1.9,0.8,1.9,2c0,1.7,0,3.5,0,5.1c1.5,0.8,2-0.5,2.7-1.1
	c8.4-7.5,21.5-8.6,30.9-2.4c5.7,3.8,7.9,9.5,8,16c0.2,8.7,0.2,17.3,0,26c-0.1,5.2,0.2,10.1,5,14.6c-6.7,0-13.5,0.2-20.2-0.1
	c-2.4-0.1-1.4-1.8-0.1-2.6c2.6-1.8,3.5-4.4,3.5-7.2c0-9.5,0.7-19.1-0.5-28.6c-1.1-8.2-5.2-12.3-12.5-12.7c-8-0.4-14.3,3.8-15.7,11.4
	c-1.9,10.5-1.2,21.1-0.6,31.6c0.1,1.8,0.9,3.3,2.2,4.6c0.8,0.9,3,1.2,2,3c-0.6,1.1-2.2,0.5-3.4,0.5c-5,0.1-10.1,0.1-15.1,0
	c-0.9,0-2.2,0.5-2.7-0.8c-0.4-1.1,0.5-1.5,1.2-2c3.1-2.2,3.5-5.4,3.5-8.8c0-12,0-23.9,0-35.9C266.5,253.1,265.1,249.6,260,246.8z"/>
<path class="st0" d="M426.4,246.4c7.6,0,13.7,0,20.9,0c-6.6,7.5-12.5,14.4-18.7,21c-2.4,2.6-2.4,4.1-0.2,6.7
	c7.3,8.6,14.2,17.4,21.5,26c1.4,1.7,3.3,4.8,5.7,3.4c2.6-1.5,5.2-4,5.2-7.9c-0.1-5.9,0-11.8,0-17.7c0-6.4-0.1-12.8,0-19.2
	c0.1-4.5-0.1-8.8-5-11.7c5.4-1.3,10.7-0.6,15.7-2.6c2-0.8,1.4,2.2,1.4,3.4c0.1,14.7,0.1,29.5,0,44.2c0,3.9,0.2,7.7,3.8,10.1
	c0.6,0.4,1.1,0.9,0.9,1.7c-0.3,1.2-1.4,0.9-2.1,0.9c-11.2,0-22.4,0-33.6-0.3c-4-0.1-7.1-2.5-9.5-5.7c-6.1-8-12-16.1-18.2-24
	c-1.8-2.3-1.4-3.7,0.4-5.6c4.4-4.6,8.7-9.4,12.9-14.2C429.7,252.5,431,249.7,426.4,246.4z"/>
<path class="st0" d="M347.9,218.2c0,12.2,0,23.4,0,34.7c0,12.7,0,25.3,0,38c0,7.6,0,7.6,5.9,13.8c-7.8,0-14.7,0.2-21.6-0.2
	c-2-0.1-0.6-1.8,0.3-2.5c3-2.3,3.3-5.5,3.3-8.9c0-20.3,0-40.6,0-60.9c0-3.4-0.3-6.6-3.4-8.8c-0.7-0.5-1.4-1.2-0.9-2.1
	c0.5-0.9,1.5-0.6,2.3-0.6C338.4,220.7,342.9,221.3,347.9,218.2z"/>
<path class="st1" d="M103.2,267.4c4.2-6.5,8-11,15.8-10.4c6.4,0.6,12.8,0.1,19.2,0.1c1.2,0,2.7-0.4,3.3,0.8c0.9,1.6-0.9,2.4-1.6,3.4
	c-3.2,4.7-7.5,6.5-13.3,6.1C119.1,267,111.5,267.4,103.2,267.4z"/>
<path class="st0" d="M466.3,222.4c4.7,0.1,7.9,3.6,7.8,8.4c-0.1,4.5-3.5,7.7-8,7.7c-4.7-0.1-8-3.7-7.8-8.4
	C458.4,225.7,461.9,222.3,466.3,222.4z"/>
<path class="st1" d="M122.2,273.6c-3.8,0-7.6,0.1-11.4-0.1c-1.2,0-3.2,0.8-3.2-1.4c0-1.6,1.7-1.9,3.2-1.9c6,0,12.1-0.2,18.1,0.1
	c4.5,0.2,8.1-0.8,10.8-4.6c0.6-0.8,1.4-1.5,2.3-2c0.9-0.5,2.1-0.6,2.8,0.4c0.6,0.9-0.1,1.6-0.6,2.3c-3.4,4.3-6.8,8.2-13.2,7.2
	C128.2,273.2,125.2,273.6,122.2,273.6z"/>
</svg>
