<?xml version="1.0" encoding="utf-8"?>
<!-- Generator: Adobe Illustrator 22.1.0, SVG Export Plug-In . SVG Version: 6.00 Build 0)  -->
<svg version="1.1" id="Layer_1" xmlns="http://www.w3.org/2000/svg" xmlns:xlink="http://www.w3.org/1999/xlink" x="0px" y="0px"
	 viewBox="0 0 512 512" style="enable-background:new 0 0 512 512;" xml:space="preserve">
<style type="text/css">
	.st0{fill:#48B154;}
</style>
<path class="st0" d="M86.7,236c1,0.6,1.7,0.9,2.4,1.3c33.6,19,67.2,37.9,100.8,57c2.1,1.2,3.6,1.3,5.8,0
	c72.7-41.5,145.4-82.9,218.2-124.4c2.8-1.6,2.9-1.6,4.1,1.5c4.8,12.4,10.2,24.5,13.2,37.5c7.8,34.2,5.5,67.7-7.2,100.4
	c-18.3,47.3-51.4,80-98.3,99c-80.3,32.5-166.7-1.1-208.8-63.1C100.2,321,90.6,294.2,87.5,265C86.5,255.5,86.6,246,86.7,236z"/>
<path class="st0" d="M89.9,214.6c1.4-5.5,2.8-11,4.2-16.6c0.5-1.8,1.4-0.5,2-0.2c6,3.4,12.1,6.8,18.1,10.3
	c25.5,14.5,51,29.1,76.5,43.7c1.7,1,2.8,0.9,4.4,0c66-37.8,132-75.5,198-113.2c1.7-1,2.6-1,3.7,0.7c2.6,3.8,5.4,7.5,8.3,11.1
	c1.2,1.5,1.1,2.1-0.6,3c-26.5,15.1-53,30.2-79.5,45.4c-43.2,24.7-86.4,49.3-129.5,74.1c-1.9,1.1-3.3,1.2-5.3,0
	c-32.8-18.7-65.6-37.4-98.4-56.1C90.9,216.3,89.4,216.2,89.9,214.6z"/>
<path class="st0" d="M381.6,123.3c-0.3,0.7-1.1,0.9-1.7,1.2c-15.7,9-31.4,17.9-47,26.9c-45.8,26.2-91.7,52.3-137.5,78.5
	c-1.9,1.1-3.2,1-5.1-0.1c-28.8-16.6-57.6-33.2-86.4-49.7c-2.1-1.2-2.6-2-1.3-4.3c2.2-3.8,4.1-7.7,5.9-11.7c1-2.2,1.7-2.5,3.9-1.3
	c26,14.9,52.2,29.7,78.2,44.6c1.8,1,3,0.9,4.7-0.1c56.5-32.2,113.1-64.4,169.6-96.6c1.6-0.9,2.6-1,4,0.4c3.8,3.7,7.8,7.1,11.7,10.7
	C380.9,122.3,381.5,122.6,381.6,123.3z"/>
<path class="st0" d="M348.7,98c-0.5,1-1.5,1.2-2.2,1.6c-50.5,28.9-101.1,57.8-151.6,86.7c-1.5,0.8-2.5,0.9-4,0
	c-22.9-13.1-45.9-26.1-68.9-39.1c-1.5-0.8-1.9-1.3-0.6-2.8c3.2-3.6,6.3-7.4,9.3-11.2c1.3-1.6,2.2-1.8,4-0.8
	c18.6,10.7,37.2,21.3,55.8,32c1.7,1,3,0.9,4.6-0.1c43.8-25.1,87.6-50.1,131.4-75.2c1.7-1,3-1.1,4.7-0.2
	C337,92.2,342.9,95.1,348.7,98z"/>
</svg>
