<svg xmlns="http://www.w3.org/2000/svg" viewBox="0 0 512 512"><path d="M46 298.2c1.7-1.2 3.4-2.3 5.1-3.6 5.8-4.3 11.6-8.7 17.4-13 .4-.3.8-.6 1-.7 4.7 3.3 9.1 6.7 13.9 9.5 12.2 7.4 25.3 8.4 38.9 4.9 2-.5 4-1.6 5.7-2.8 3.9-2.9 3.9-7.6.3-10.7-2.5-2.2-5.7-3.4-8.9-4.2-11-2.7-22.1-5.2-33.1-8.1-9.1-2.4-17.4-6.3-24-13.3-12.4-13.1-12.4-32.9 0-46.8 7.6-8.5 17.3-13.3 28.2-15.2 23.5-4.1 45.1 1 64.6 14.8 1.4 1 2.8 2.2 4.4 3.5-7.6 5.7-15 11.2-22.5 16.8-4.4-3.7-9.4-6.5-14.8-8.2-8.4-2.6-17-3.8-25.7-1.6-1.7.4-3.3 1.1-4.8 2-4.5 2.8-5 8.1-.8 11.5 2 1.6 4.5 3.1 6.9 3.8 7.5 2.3 15.2 4.1 22.7 6.4 8.4 2.5 16.7 5.1 24.9 8 5.3 1.9 10 5.1 13.8 9.4 6.1 6.8 7.9 14.9 7.2 23.7-1.4 18.1-12.2 28.6-28.4 34.6-12.2 4.5-25 5.4-37.9 4.3-14.1-1.2-27.3-5.5-39.4-12.9-5.5-3.3-10.5-7.2-14.9-11.9.2 0 .2-.1.2-.2M325.7 166c0 .6-.1 1.3-.1 1.9v179.2c0 .6 0 1.3.1 1.9h-8c0-.7.1-1.4.1-2.1V168c0-.7-.1-1.4-.1-2.1 2.7.1 5.4.1 8 .1M176.8 349c0-.7-.1-1.4-.1-2.1V168c0-.7.1-1.4.1-2.1h7.7v183c-2.6.1-5.1.1-7.7.1m127.8-57.8V320H202.8V194.9h100v28.5h-64.9v20h45.9V271h-45.9v20.2zm39.4-96.3h73.6c9.9 0 19.1 2.4 27.1 8.6 17.3 13.4 14 42-6.4 50.5l-.4.2c3.4 1.7 7.1 3.1 10.4 5.2 11 6.9 16.1 17 14.9 30-1.1 12.2-7.7 20.7-18.5 26.1-5.9 3-12.2 4.4-18.8 4.4-27.1.1-54.1.1-81.2.1-.2 0-.3 0-.7-.1zm35.4 74.5v22.8c11.7 0 23.3.1 34.9 0 3.1 0 5.8-1.5 7.8-4 2.9-3.8 3.4-8.1 1.3-12.4-2-4.3-5.7-6.3-10.4-6.3h-32.2c-.4-.1-.9-.1-1.4-.1m-.1-26.6c9.8 0 19.5.3 29.2-.1 7-.3 11.7-7 10.1-13.4-1.2-4.8-5.9-8.4-11.1-8.4-9-.1-18.1 0-27.1 0-.3 0-.7.1-1.1.1z"/></svg>