<?xml version="1.0" encoding="utf-8"?>
<!-- Generator: Adobe Illustrator 22.1.0, SVG Export Plug-In . SVG Version: 6.00 Build 0)  -->
<svg version="1.1" id="Layer_1" xmlns="http://www.w3.org/2000/svg" xmlns:xlink="http://www.w3.org/1999/xlink" x="0px" y="0px"
	 viewBox="0 0 512 512" style="enable-background:new 0 0 512 512;" xml:space="preserve">
<path d="M46,298.2c1.7-1.2,3.4-2.3,5.1-3.6c5.8-4.3,11.6-8.7,17.4-13c0.4-0.3,0.8-0.6,1-0.7c4.7,3.3,9.1,6.7,13.9,9.5
	c12.2,7.4,25.3,8.4,38.9,4.9c2-0.5,4-1.6,5.7-2.8c3.9-2.9,3.9-7.6,0.3-10.7c-2.5-2.2-5.7-3.4-8.9-4.2c-11-2.7-22.1-5.2-33.1-8.1
	c-9.1-2.4-17.4-6.3-24-13.3c-12.4-13.1-12.4-32.9,0-46.8c7.6-8.5,17.3-13.3,28.2-15.2c23.5-4.1,45.1,1,64.6,14.8
	c1.4,1,2.8,2.2,4.4,3.5c-7.6,5.7-15,11.2-22.5,16.8c-4.4-3.7-9.4-6.5-14.8-8.2c-8.4-2.6-17-3.8-25.7-1.6c-1.7,0.4-3.3,1.1-4.8,2
	c-4.5,2.8-5,8.1-0.8,11.5c2,1.6,4.5,3.1,6.9,3.8c7.5,2.3,15.2,4.1,22.7,6.4c8.4,2.5,16.7,5.1,24.9,8c5.3,1.9,10,5.1,13.8,9.4
	c6.1,6.8,7.9,14.9,7.2,23.7c-1.4,18.1-12.2,28.6-28.4,34.6c-12.2,4.5-25,5.4-37.9,4.3c-14.1-1.2-27.3-5.5-39.4-12.9
	c-5.5-3.3-10.5-7.2-14.9-11.9C46,298.4,46,298.3,46,298.2z"/>
<path d="M325.7,166c0,0.6-0.1,1.3-0.1,1.9c0,59.7,0,119.5,0,179.2c0,0.6,0,1.3,0.1,1.9c-2.7,0-5.3,0-8,0c0-0.7,0.1-1.4,0.1-2.1
	c0-59.6,0-119.2,0-178.9c0-0.7-0.1-1.4-0.1-2.1C320.4,166,323.1,166,325.7,166z"/>
<path d="M176.8,349c0-0.7-0.1-1.4-0.1-2.1c0-59.6,0-119.2,0-178.9c0-0.7,0.1-1.4,0.1-2.1c2.6,0,5.1,0,7.7,0c0,8.3,0,16.6,0,24.9
	c0,52.1,0,104.2,0,156.2c0,0.6,0,1.3,0,1.9C181.9,349,179.4,349,176.8,349z"/>
<path d="M304.6,291.2c0,9.7,0,19.2,0,28.8c-34,0-67.8,0-101.8,0c0-41.7,0-83.3,0-125.1c33.3,0,66.6,0,100,0c0,9.5,0,18.9,0,28.5
	c-21.6,0-43.2,0-64.9,0c0,6.7,0,13.2,0,20c15.2,0,30.5,0,45.9,0c0,9.3,0,18.4,0,27.6c-15.3,0-30.5,0-45.9,0c0,6.8,0,13.4,0,20.2
	C260.1,291.2,282.3,291.2,304.6,291.2z"/>
<path d="M344,194.9c0.7,0,1.3,0,1.9,0c23.9,0,47.8,0,71.7,0c9.9,0,19.1,2.4,27.1,8.6c17.3,13.4,14,42-6.4,50.5
	c-0.2,0.1-0.4,0.2-0.4,0.2c3.4,1.7,7.1,3.1,10.4,5.2c11,6.9,16.1,17,14.9,30c-1.1,12.2-7.7,20.7-18.5,26.1c-5.9,3-12.2,4.4-18.8,4.4
	c-27.1,0.1-54.1,0.1-81.2,0.1c-0.2,0-0.3,0-0.7-0.1C344,278.4,344,236.7,344,194.9z M379.4,269.4c0,7.8,0,15.3,0,22.8
	c11.7,0,23.3,0.1,34.9,0c3.1,0,5.8-1.5,7.8-4c2.9-3.8,3.4-8.1,1.3-12.4c-2-4.3-5.7-6.3-10.4-6.3c-10.7,0-21.4,0-32.2,0
	C380.4,269.4,379.9,269.4,379.4,269.4z M379.3,242.8c9.8,0,19.5,0.3,29.2-0.1c7-0.3,11.7-7,10.1-13.4c-1.2-4.8-5.9-8.4-11.1-8.4
	c-9-0.1-18.1,0-27.1,0c-0.3,0-0.7,0.1-1.1,0.1C379.3,228.3,379.3,235.5,379.3,242.8z"/>
</svg>
