<svg xmlns="http://www.w3.org/2000/svg" viewBox="0 0 80 80"><path fill="#0054a5" d="m7.92 50.21.66-.07a.78.78 0 0 0 .24.49.7.7 0 0 0 .49.16.75.75 0 0 0 .49-.14.41.41 0 0 0 .17-.32.4.4 0 0 0-.07-.21.7.7 0 0 0-.24-.12l-.54-.15a1.8 1.8 0 0 1-.76-.33.84.84 0 0 1-.31-.67.86.86 0 0 1 .14-.47.9.9 0 0 1 .42-.38 1.6 1.6 0 0 1 .66-.12 1.38 1.38 0 0 1 1 .28 1 1 0 0 1 .33.74h-.68a.57.57 0 0 0-.18-.37.74.74 0 0 0-.43-.11.8.8 0 0 0-.46.12.25.25 0 0 0-.11.21.28.28 0 0 0 .1.2 1.8 1.8 0 0 0 .62.22 3.6 3.6 0 0 1 .73.24 1 1 0 0 1 .37.34 1 1 0 0 1 .14.54 1.06 1.06 0 0 1-.16.54.94.94 0 0 1-.46.37 1.9 1.9 0 0 1-.73.13 1.43 1.43 0 0 1-1-.3 1.3 1.3 0 0 1-.43-.82m3.43-1.66V48H12v.59Zm0 2.76v-2.43H12v2.43Zm3.65 0h-.65v-1.24a1.8 1.8 0 0 0 0-.51.35.35 0 0 0-.13-.18.4.4 0 0 0-.22-.07.54.54 0 0 0-.3.1.43.43 0 0 0-.18.24 2.2 2.2 0 0 0-.05.56v1.1h-.64v-2.43h.59v.36a1 1 0 0 1 .8-.42 1 1 0 0 1 .39.08.6.6 0 0 1 .26.2.57.57 0 0 1 .13.27 2 2 0 0 1 0 .43Zm.72.16.73.08a.22.22 0 0 0 .09.18.43.43 0 0 0 .28.07.75.75 0 0 0 .38-.07.3.3 0 0 0 .13-.16 1 1 0 0 0 0-.3v-.35a.86.86 0 0 1-.72.39.89.89 0 0 1-.78-.42 1.5 1.5 0 0 1-.22-.81 1.35 1.35 0 0 1 .29-.93 1 1 0 0 1 .73-.33.92.92 0 0 1 .75.4v-.34H18v2.18a2 2 0 0 1-.07.64.67.67 0 0 1-.2.34.9.9 0 0 1-.34.19 2 2 0 0 1-.54.07 1.38 1.38 0 0 1-.87-.22.65.65 0 0 1-.26-.54ZM16.3 50a.88.88 0 0 0 .15.57.44.44 0 0 0 .36.18.5.5 0 0 0 .4-.19.83.83 0 0 0 .16-.54.8.8 0 0 0-.16-.56.49.49 0 0 0-.39-.19.45.45 0 0 0-.37.18.86.86 0 0 0-.15.55m2.47 1.31V48h.65v3.35Zm2.86-.77.63.11a1 1 0 0 1-.39.53 1.14 1.14 0 0 1-.66.19 1.07 1.07 0 0 1-.94-.42 1.4 1.4 0 0 1-.24-.84 1.32 1.32 0 0 1 .31-.94 1 1 0 0 1 .8-.35 1.09 1.09 0 0 1 .86.36 1.6 1.6 0 0 1 .3 1.1h-1.62a.7.7 0 0 0 .16.45.52.52 0 0 0 .37.16.42.42 0 0 0 .26-.08.6.6 0 0 0 .16-.27m0-.65a.62.62 0 0 0-.14-.43.46.46 0 0 0-.69 0 .56.56 0 0 0-.13.42Zm2.77 1.42V48h2.48v.56h-1.8v.75h1.67v.56h-1.67v.91H27v.57Zm4.85 0v-.37a1 1 0 0 1-.35.31.94.94 0 0 1-.9 0 .63.63 0 0 1-.28-.3 1.3 1.3 0 0 1-.08-.54v-1.53h.64V50a3.5 3.5 0 0 0 0 .62.43.43 0 0 0 .13.19.5.5 0 0 0 .24.06.53.53 0 0 0 .3-.09.46.46 0 0 0 .17-.22 2.2 2.2 0 0 0 .05-.65v-1h.65v2.43Zm2.01 0h-.64v-2.43h.59v.35a1.3 1.3 0 0 1 .28-.33.5.5 0 0 1 .28-.08.84.84 0 0 1 .42.12l-.2.57a.53.53 0 0 0-.3-.11.38.38 0 0 0-.23.08.48.48 0 0 0-.15.26 4.4 4.4 0 0 0 0 .82Zm1.19-1.25a1.3 1.3 0 0 1 .16-.62 1.1 1.1 0 0 1 .44-.46 1.4 1.4 0 0 1 .65-.16 1.2 1.2 0 0 1 .9.36 1.22 1.22 0 0 1 .35.91 1.26 1.26 0 0 1-.35.91 1.23 1.23 0 0 1-.9.37 1.3 1.3 0 0 1-.63-.16 1 1 0 0 1-.46-.44 1.4 1.4 0 0 1-.16-.71m.66 0a.78.78 0 0 0 .17.56.56.56 0 0 0 .84 0 .8.8 0 0 0 .18-.56.78.78 0 0 0-.18-.55.56.56 0 0 0-.84 0 .77.77 0 0 0-.17.58Zm3.94 1.25V48h1.08a4.4 4.4 0 0 1 .81 0 .88.88 0 0 1 .48.33 1 1 0 0 1 .19.65 1.14 1.14 0 0 1-.11.52.9.9 0 0 1-.28.33 1.2 1.2 0 0 1-.35.16 4.3 4.3 0 0 1-.7 0h-.44v1.27Zm.68-2.79v1h.37a2 2 0 0 0 .53 0 .44.44 0 0 0 .28-.43.44.44 0 0 0-.1-.3.46.46 0 0 0-.27-.15 2.6 2.6 0 0 0-.49 0Zm3.04 1.1-.58-.11a1 1 0 0 1 .34-.52 1.26 1.26 0 0 1 .71-.17 1.5 1.5 0 0 1 .64.11.63.63 0 0 1 .3.25 1.34 1.34 0 0 1 .08.58v.75a2.7 2.7 0 0 0 0 .47 2 2 0 0 0 .11.33h-.63a2 2 0 0 1-.06-.19s0-.06 0-.07a1.4 1.4 0 0 1-.35.24 1.1 1.1 0 0 1-.4.08.82.82 0 0 1-.59-.21.73.73 0 0 1-.11-.88.6.6 0 0 1 .27-.28 3.3 3.3 0 0 1 .51-.15 3 3 0 0 0 .62-.15v-.07a.37.37 0 0 0-.09-.27.54.54 0 0 0-.34-.08.4.4 0 0 0-.43.31Zm.86.52-.39.1a1 1 0 0 0-.34.12.24.24 0 0 0-.13.22.33.33 0 0 0 .1.24.37.37 0 0 0 .26.09.54.54 0 0 0 .33-.11.5.5 0 0 0 .15-.21 1.2 1.2 0 0 0 0-.32Zm1.1-1.26h.68L44 50.6l.57-1.72h.66l-.85 2.34-.16.42a1.7 1.7 0 0 1-.16.33 1 1 0 0 1-.17.18 1.2 1.2 0 0 1-.25.11 1.6 1.6 0 0 1-.33 0 2 2 0 0 1-.36 0l-.06-.51h.27a.42.42 0 0 0 .34-.13 1 1 0 0 0 .16-.34Zm3 0h.59v.33a.94.94 0 0 1 .75-.39.9.9 0 0 1 .41.1.7.7 0 0 1 .28.29 1 1 0 0 1 .35-.29.9.9 0 0 1 .39-.1.9.9 0 0 1 .45.11.63.63 0 0 1 .28.32 1.4 1.4 0 0 1 .07.5v1.56h-.65v-1.39a1.15 1.15 0 0 0-.06-.47.31.31 0 0 0-.28-.14.4.4 0 0 0-.25.09.4.4 0 0 0-.17.24 1.6 1.6 0 0 0 0 .5v1.17h-.65V50a2 2 0 0 0 0-.46.3.3 0 0 0-.11-.16.36.36 0 0 0-.19 0 .5.5 0 0 0-.27.08.43.43 0 0 0-.17.24 2 2 0 0 0-.05.5v1.18h-.64Zm5.75 1.66.64.11a1 1 0 0 1-.39.53 1.2 1.2 0 0 1-.67.19 1.08 1.08 0 0 1-.94-.42 1.4 1.4 0 0 1-.24-.84 1.32 1.32 0 0 1 .32-.94 1 1 0 0 1 .8-.35 1.07 1.07 0 0 1 .85.36 1.6 1.6 0 0 1 .3 1.1h-1.61a.65.65 0 0 0 .16.45.5.5 0 0 0 .37.16.4.4 0 0 0 .25-.08.5.5 0 0 0 .16-.27m0-.65a.62.62 0 0 0-.14-.43.43.43 0 0 0-.34-.15.44.44 0 0 0-.34.16.56.56 0 0 0-.14.42ZM55 51.31h-.65v-1.24a1.8 1.8 0 0 0 0-.51.3.3 0 0 0-.13-.18.4.4 0 0 0-.22-.07.54.54 0 0 0-.3.1.43.43 0 0 0-.18.24 2.2 2.2 0 0 0 0 .56v1.1h-.64v-2.43h.59v.36a1 1 0 0 1 .8-.42 1 1 0 0 1 .39.08.64.64 0 0 1 .27.2.56.56 0 0 1 .12.27 1.6 1.6 0 0 1 0 .43Zm1.92-2.43v.51h-.44v1a2.4 2.4 0 0 0 0 .35.16.16 0 0 0 .06.08.17.17 0 0 0 .1 0 .8.8 0 0 0 .26-.06l.05.5a1.3 1.3 0 0 1-.5.1.75.75 0 0 1-.31-.06.6.6 0 0 1-.21-.15.6.6 0 0 1-.08-.25 2.3 2.3 0 0 1 0-.46v-1.05h-.29v-.51h.29v-.48l.65-.38v.86Zm.36 1.74.64-.1a.46.46 0 0 0 .17.28.52.52 0 0 0 .35.1.6.6 0 0 0 .37-.09.2.2 0 0 0 .09-.17.17.17 0 0 0 0-.12s-.1-.06-.21-.09a3.6 3.6 0 0 1-1-.31.63.63 0 0 1-.29-.55.66.66 0 0 1 .25-.53 1.18 1.18 0 0 1 .77-.22 1.44 1.44 0 0 1 .75.16.84.84 0 0 1 .33.48l-.6.11a.4.4 0 0 0-.15-.21.54.54 0 0 0-.31-.08.8.8 0 0 0-.37.07.16.16 0 0 0-.07.13.14.14 0 0 0 .06.12 2.8 2.8 0 0 0 .6.18 1.85 1.85 0 0 1 .72.29.57.57 0 0 1 .2.48.72.72 0 0 1-.28.57 1.17 1.17 0 0 1-.82.25 1.36 1.36 0 0 1-.78-.2.93.93 0 0 1-.42-.55m7.42.69H64l-.29-.76h-1.37l-.28.76h-.72l1.3-3.31h.71ZM63.46 50 63 48.74 62.54 50Zm2.35 1.31h-.65v-2.43h.6v.35a1.1 1.1 0 0 1 .24-.33.5.5 0 0 1 .27-.08.85.85 0 0 1 .43.12l-.2.57a.6.6 0 0 0-.3-.11.36.36 0 0 0-.23.08.48.48 0 0 0-.15.26 4.4 4.4 0 0 0 0 .82Zm2.75-.77.64.11a1 1 0 0 1-.39.53 1.2 1.2 0 0 1-.67.19 1.1 1.1 0 0 1-.94-.37 1.4 1.4 0 0 1-.24-.84 1.32 1.32 0 0 1 .32-.94 1.14 1.14 0 0 1 1.65 0 1.6 1.6 0 0 1 .3 1.1h-1.61a.7.7 0 0 0 .16.45.5.5 0 0 0 .37.16.45.45 0 0 0 .26-.08.5.5 0 0 0 .15-.31m0-.65a.67.67 0 0 0-.15-.43.43.43 0 0 0-.33-.15.46.46 0 0 0-.35.16.6.6 0 0 0-.14.42Zm1.81-.27-.58-.11a1 1 0 0 1 .34-.52 1.24 1.24 0 0 1 .71-.17 1.5 1.5 0 0 1 .64.11.56.56 0 0 1 .29.25 1.3 1.3 0 0 1 .09.58v.75a2.7 2.7 0 0 0 0 .47 2 2 0 0 0 .12.33h-.64a1.3 1.3 0 0 0-.06-.19s0-.06 0-.07a1.6 1.6 0 0 1-.35.24 1.1 1.1 0 0 1-.4.08.8.8 0 0 1-.59-.21.67.67 0 0 1-.22-.51.76.76 0 0 1 .1-.37.7.7 0 0 1 .28-.28 2.7 2.7 0 0 1 .51-.15 3 3 0 0 0 .62-.15v-.07a.37.37 0 0 0-.09-.27.6.6 0 0 0-.35-.08.54.54 0 0 0-.27.07.55.55 0 0 0-.15.27m.86.52-.39.1a1.1 1.1 0 0 0-.35.12.25.25 0 0 0-.12.22.33.33 0 0 0 .1.24.35.35 0 0 0 .25.09.5.5 0 0 0 .33-.11.46.46 0 0 0 .16-.21 2 2 0 0 0 0-.32ZM22.14 34.81h-4.38a2.73 2.73 0 0 0-.26-1.44c-.26-.37-1-.55-2.15-.55a5.4 5.4 0 0 0-2.28.31c-.37.21-.55.67-.55 1.38a1.35 1.35 0 0 0 .48 1.25 2 2 0 0 0 .93.26l.89.06c1.89.12 3.08.21 3.55.26a5.4 5.4 0 0 1 3.26 1.2 3.2 3.2 0 0 1 .95 2 16 16 0 0 1 .08 1.65 8.8 8.8 0 0 1-.4 3.1A4 4 0 0 1 19 46.54a20 20 0 0 1-3.28.2 20.3 20.3 0 0 1-5.13-.44 3.35 3.35 0 0 1-2.35-2.19 10.4 10.4 0 0 1-.31-3h4.38v.36q0 1.14.66 1.47a2.54 2.54 0 0 0 1.09.24h1.61a5.6 5.6 0 0 0 1.56-.18 1.28 1.28 0 0 0 .79-.77 2.8 2.8 0 0 0 .1-.84q0-1.16-.84-1.41a27 27 0 0 0-2.93-.27c-1.41-.1-2.38-.2-2.92-.29a3.87 3.87 0 0 1-2.87-1.66 6.5 6.5 0 0 1-.63-3.23 8.3 8.3 0 0 1 .34-2.64 2.83 2.83 0 0 1 1.09-1.51 5.54 5.54 0 0 1 2.84-.93c1-.09 2-.13 3.19-.13a17 17 0 0 1 3.93.32c1.91.51 2.86 1.95 2.86 4.3 0 .2-.01.49-.04.87m19.28 11.93V29.23h8.78a10 10 0 0 1 2.75.29 4.27 4.27 0 0 1 2.91 2.78 10.6 10.6 0 0 1 .39 3.32 12.4 12.4 0 0 1-.42 3.83 3.76 3.76 0 0 1-3.48 2.65c-1.62 0-6.22.12-6.22.12v4.52Zm4.71-8.58h2.94a5.5 5.5 0 0 0 1.7-.22 1.24 1.24 0 0 0 .56-.92 7.7 7.7 0 0 0 .09-1.37 5.5 5.5 0 0 0-.18-1.65 1.39 1.39 0 0 0-1.24-.91 8 8 0 0 0-.91 0h-3Zm20.18 5.55H60l-.85 3h-4.87l5.27-17.51h7.1L72 46.74h-4.79Zm-.94-3.41-2.21-7.59L61 40.3Z"/><path fill="#ffc10e" d="M34.92 31.69A6.19 6.19 0 0 1 39.73 34l1-2.18a8.93 8.93 0 0 0-14.33 3h-2l-1.17 2.51h2.55v.7a8 8 0 0 0 0 .85h-1.23l-1.17 2.51h3.1a8.93 8.93 0 0 0 13.1 3.77v-3.09a6.19 6.19 0 0 1-9.86-.7h6.49l1.17-2.51h-8.61a5.6 5.6 0 0 1-.07-.92v-.63h9.38l1.17-2.51h-9.71a6.21 6.21 0 0 1 5.38-3.11"/><path fill="#0054a5" d="M34.92 31.77A6.1 6.1 0 0 1 39.68 34l.07.09v-.11l1-2.18v-.05a9.05 9.05 0 0 0-11.23-.92 8.8 8.8 0 0 0-3.22 3.93h.07-2l-1.17 2.52-.05.1h2.67l-.08-.08v.71a8 8 0 0 0 .05.86l.07-.08H24.5l-1.17 2.51v.11h3.22l-.07-.05a8.9 8.9 0 0 0 8.2 5.31 9 9 0 0 0 5-1.5v-3.3l-.14.15a6.13 6.13 0 0 1-9.74-.69l-.06.12h6.54v-.05l1.17-2.5v-.11h-8.68l.07.06a7 7 0 0 1-.07-.91v-.62l-.07.06h9.43l1.17-2.51v-.1h-9.76l.06.11a6.16 6.16 0 0 1 5.32-3.11m-5.38 3.11h9.74l-.07-.11L38 37.28l.07-.05h-9.41v.71a6 6 0 0 0 .07.94v.06h8.68l-.06-.11-1.17 2.51h.06-6.66l.08.11a6.28 6.28 0 0 0 10 .71h-.13v3.07-.06a8.86 8.86 0 0 1-4.93 1.48 8.75 8.75 0 0 1-8.06-5.22h-3.16l.07.1 1.17-2.5h-.07 1.36v-.08a8 8 0 0 1-.05-.85v-.78h-2.59l.07.11 1.17-2.51-.07.05h2v-.05A8.6 8.6 0 0 1 29.66 31a8.91 8.91 0 0 1 11 .91v-.09l-1 2.18h.12a6.25 6.25 0 0 0-4.87-2.32 6.32 6.32 0 0 0-5.45 3.14l-.06.12Z"/></svg>