<svg xmlns="http://www.w3.org/2000/svg" viewBox="0 0 80 80"><defs><style>.cls-1{fill:#0054a5;}.cls-2{fill:#ffc10e;}.cls-3{fill:none;}</style></defs><title>sepa</title><g id="sepa"><path class="cls-1" d="M7.92,50.21l.66-.07a.78.78,0,0,0,.24.49.71.71,0,0,0,.49.16.75.75,0,0,0,.49-.14.41.41,0,0,0,.17-.32.38.38,0,0,0-.07-.21A.66.66,0,0,0,9.66,50l-.54-.15a1.81,1.81,0,0,1-.76-.33.84.84,0,0,1-.31-.67.86.86,0,0,1,.14-.47A.89.89,0,0,1,8.61,48a1.62,1.62,0,0,1,.66-.12,1.38,1.38,0,0,1,1,.28,1,1,0,0,1,.33.74l-.68,0a.57.57,0,0,0-.18-.37.74.74,0,0,0-.43-.11.78.78,0,0,0-.46.12.25.25,0,0,0-.11.21.28.28,0,0,0,.1.2,1.78,1.78,0,0,0,.62.22,3.63,3.63,0,0,1,.73.24,1,1,0,0,1,.37.34,1,1,0,0,1,.14.54,1.06,1.06,0,0,1-.16.54.94.94,0,0,1-.46.37,1.87,1.87,0,0,1-.73.13,1.43,1.43,0,0,1-1-.3A1.3,1.3,0,0,1,7.92,50.21Z"/><path class="cls-1" d="M11.35,48.55V48H12v.59Zm0,2.76V48.88H12v2.43Z"/><path class="cls-1" d="M15,51.31h-.65V50.07a1.81,1.81,0,0,0,0-.51.35.35,0,0,0-.13-.18.41.41,0,0,0-.22-.07.54.54,0,0,0-.3.1.43.43,0,0,0-.18.24,2.18,2.18,0,0,0-.05.56v1.1h-.64V48.88h.59v.36a1,1,0,0,1,.8-.42,1,1,0,0,1,.39.08.6.6,0,0,1,.26.2.57.57,0,0,1,.13.27,2.16,2.16,0,0,1,0,.43Z"/><path class="cls-1" d="M15.72,51.47l.73.08a.22.22,0,0,0,.09.18.43.43,0,0,0,.28.07.75.75,0,0,0,.38-.07.3.3,0,0,0,.13-.16,1,1,0,0,0,0-.3v-.35a.86.86,0,0,1-.72.39.89.89,0,0,1-.78-.42,1.48,1.48,0,0,1-.22-.81,1.35,1.35,0,0,1,.29-.93,1,1,0,0,1,.73-.33.92.92,0,0,1,.75.4v-.34H18v2.18a2,2,0,0,1-.07.64.67.67,0,0,1-.2.34.92.92,0,0,1-.34.19,2,2,0,0,1-.54.07,1.38,1.38,0,0,1-.87-.22.65.65,0,0,1-.26-.54ZM16.3,50a.88.88,0,0,0,.15.57.44.44,0,0,0,.36.18.5.5,0,0,0,.4-.19.83.83,0,0,0,.16-.54.81.81,0,0,0-.16-.56.49.49,0,0,0-.39-.19.45.45,0,0,0-.37.18A.86.86,0,0,0,16.3,50Z"/><path class="cls-1" d="M18.77,51.31V48h.65v3.35Z"/><path class="cls-1" d="M21.63,50.54l.63.11a1,1,0,0,1-.39.53,1.14,1.14,0,0,1-.66.19,1.07,1.07,0,0,1-.94-.42,1.39,1.39,0,0,1-.24-.84,1.32,1.32,0,0,1,.31-.94,1,1,0,0,1,.8-.35,1.09,1.09,0,0,1,.86.36,1.59,1.59,0,0,1,.3,1.1H20.68a.7.7,0,0,0,.16.45.52.52,0,0,0,.37.16.42.42,0,0,0,.26-.08A.59.59,0,0,0,21.63,50.54Zm0-.65a.62.62,0,0,0-.14-.43.46.46,0,0,0-.69,0,.56.56,0,0,0-.13.42Z"/><path class="cls-1" d="M24.4,51.31V48h2.48v.56h-1.8v.75h1.67v.56H25.08v.91H27v.57Z"/><path class="cls-1" d="M29.25,51.31v-.37a1,1,0,0,1-.35.31.94.94,0,0,1-.9,0,.63.63,0,0,1-.28-.3,1.34,1.34,0,0,1-.08-.54V48.88h.64V50a3.49,3.49,0,0,0,0,.62.43.43,0,0,0,.13.19.48.48,0,0,0,.24.06.53.53,0,0,0,.3-.09.46.46,0,0,0,.17-.22,2.22,2.22,0,0,0,.05-.65v-1h.65v2.43Z"/><path class="cls-1" d="M31.26,51.31h-.64V48.88h.59v.35a1.26,1.26,0,0,1,.28-.33.51.51,0,0,1,.28-.08.84.84,0,0,1,.42.12l-.2.57a.53.53,0,0,0-.3-.11.38.38,0,0,0-.23.08.48.48,0,0,0-.15.26,4.41,4.41,0,0,0,0,.82Z"/><path class="cls-1" d="M32.45,50.06a1.27,1.27,0,0,1,.16-.62,1.09,1.09,0,0,1,.44-.46,1.42,1.42,0,0,1,.65-.16,1.19,1.19,0,0,1,.9.36,1.22,1.22,0,0,1,.35.91,1.26,1.26,0,0,1-.35.91,1.23,1.23,0,0,1-.9.37,1.28,1.28,0,0,1-.63-.16,1,1,0,0,1-.46-.44A1.41,1.41,0,0,1,32.45,50.06Zm.66,0a.78.78,0,0,0,.17.56.56.56,0,0,0,.84,0,.8.8,0,0,0,.18-.56.78.78,0,0,0-.18-.55.56.56,0,0,0-.84,0A.77.77,0,0,0,33.11,50.09Z"/><path class="cls-1" d="M37.05,51.31V48h1.08a4.36,4.36,0,0,1,.81,0,.88.88,0,0,1,.48.33,1,1,0,0,1,.19.65,1.14,1.14,0,0,1-.11.52.91.91,0,0,1-.28.33,1.2,1.2,0,0,1-.35.16,4.31,4.31,0,0,1-.7,0h-.44v1.27Zm.68-2.79v1h.37a2,2,0,0,0,.53,0,.44.44,0,0,0,.28-.43.44.44,0,0,0-.1-.3.46.46,0,0,0-.27-.15,2.55,2.55,0,0,0-.49,0Z"/><path class="cls-1" d="M40.77,49.62l-.58-.11a1,1,0,0,1,.34-.52,1.26,1.26,0,0,1,.71-.17,1.47,1.47,0,0,1,.64.11.63.63,0,0,1,.3.25,1.34,1.34,0,0,1,.08.58v.75a2.67,2.67,0,0,0,0,.47,1.82,1.82,0,0,0,.11.33h-.63a1.45,1.45,0,0,1-.06-.19s0-.06,0-.07a1.36,1.36,0,0,1-.35.24,1.06,1.06,0,0,1-.4.08.82.82,0,0,1-.59-.21.73.73,0,0,1-.11-.88A.6.6,0,0,1,40.5,50a3.28,3.28,0,0,1,.51-.15,2.9,2.9,0,0,0,.62-.15v-.07a.37.37,0,0,0-.09-.27.54.54,0,0,0-.34-.08.4.4,0,0,0-.43.31Zm.86.52-.39.1a1,1,0,0,0-.34.12.24.24,0,0,0-.13.22.33.33,0,0,0,.1.24.37.37,0,0,0,.26.09.54.54,0,0,0,.33-.11.51.51,0,0,0,.15-.21,1.24,1.24,0,0,0,0-.32Z"/><path class="cls-1" d="M42.73,48.88h.68L44,50.6l.57-1.72h.66l-.85,2.34-.16.42a1.7,1.7,0,0,1-.16.33,1,1,0,0,1-.17.18,1.17,1.17,0,0,1-.25.11,1.57,1.57,0,0,1-.33,0,2.2,2.2,0,0,1-.36,0l-.06-.51.27,0a.42.42,0,0,0,.34-.13,1,1,0,0,0,.16-.34Z"/><path class="cls-1" d="M45.73,48.88h.59v.33a.94.94,0,0,1,.75-.39.89.89,0,0,1,.41.1.71.71,0,0,1,.28.29,1,1,0,0,1,.35-.29.87.87,0,0,1,.39-.1.88.88,0,0,1,.45.11.63.63,0,0,1,.28.32,1.44,1.44,0,0,1,.07.5v1.56h-.65V49.92a1.15,1.15,0,0,0-.06-.47.31.31,0,0,0-.28-.14.4.4,0,0,0-.25.09.4.4,0,0,0-.17.24,1.55,1.55,0,0,0,0,.5v1.17h-.65V50a2.12,2.12,0,0,0,0-.46.31.31,0,0,0-.11-.16.36.36,0,0,0-.19,0,.5.5,0,0,0-.27.08.43.43,0,0,0-.17.24,1.85,1.85,0,0,0-.05.5v1.18h-.64Z"/><path class="cls-1" d="M51.48,50.54l.64.11a1,1,0,0,1-.39.53,1.18,1.18,0,0,1-.67.19,1.08,1.08,0,0,1-.94-.42,1.39,1.39,0,0,1-.24-.84,1.32,1.32,0,0,1,.32-.94,1,1,0,0,1,.8-.35,1.07,1.07,0,0,1,.85.36,1.59,1.59,0,0,1,.3,1.1H50.54a.65.65,0,0,0,.16.45.51.51,0,0,0,.37.16.39.39,0,0,0,.25-.08A.51.51,0,0,0,51.48,50.54Zm0-.65a.62.62,0,0,0-.14-.43.43.43,0,0,0-.34-.15.44.44,0,0,0-.34.16.56.56,0,0,0-.14.42Z"/><path class="cls-1" d="M55,51.31h-.65V50.07a1.81,1.81,0,0,0,0-.51.3.3,0,0,0-.13-.18.41.41,0,0,0-.22-.07.54.54,0,0,0-.3.1.43.43,0,0,0-.18.24,2.18,2.18,0,0,0,0,.56v1.1h-.64V48.88h.59v.36a1,1,0,0,1,.8-.42,1,1,0,0,1,.39.08.64.64,0,0,1,.27.2.56.56,0,0,1,.12.27,1.6,1.6,0,0,1,0,.43Z"/><path class="cls-1" d="M56.92,48.88v.51h-.44v1a2.39,2.39,0,0,0,0,.35.16.16,0,0,0,.06.08.17.17,0,0,0,.1,0,.84.84,0,0,0,.26-.06l.05.5a1.31,1.31,0,0,1-.5.1.75.75,0,0,1-.31-.06.57.57,0,0,1-.21-.15.61.61,0,0,1-.08-.25,2.25,2.25,0,0,1,0-.46V49.39h-.29v-.51h.29V48.4l.65-.38v.86Z"/><path class="cls-1" d="M57.28,50.62l.64-.1a.46.46,0,0,0,.17.28.52.52,0,0,0,.35.1.61.61,0,0,0,.37-.09.2.2,0,0,0,.09-.17.17.17,0,0,0,0-.12s-.1-.06-.21-.09a3.55,3.55,0,0,1-1-.31.63.63,0,0,1-.29-.55.66.66,0,0,1,.25-.53,1.18,1.18,0,0,1,.77-.22,1.44,1.44,0,0,1,.75.16.84.84,0,0,1,.33.48l-.6.11a.41.41,0,0,0-.15-.21.54.54,0,0,0-.31-.08.8.8,0,0,0-.37.07.16.16,0,0,0-.07.13.14.14,0,0,0,.06.12,2.77,2.77,0,0,0,.6.18,1.85,1.85,0,0,1,.72.29.57.57,0,0,1,.2.48.72.72,0,0,1-.28.57,1.17,1.17,0,0,1-.82.25,1.36,1.36,0,0,1-.78-.2A.93.93,0,0,1,57.28,50.62Z"/><path class="cls-1" d="M64.7,51.31H64l-.29-.76H62.34l-.28.76h-.72L62.64,48h.71ZM63.46,50,63,48.74,62.54,50Z"/><path class="cls-1" d="M65.81,51.31h-.65V48.88h.6v.35A1.1,1.1,0,0,1,66,48.9a.5.5,0,0,1,.27-.08.85.85,0,0,1,.43.12l-.2.57a.58.58,0,0,0-.3-.11.36.36,0,0,0-.23.08.48.48,0,0,0-.15.26,4.41,4.41,0,0,0,0,.82Z"/><path class="cls-1" d="M68.56,50.54l.64.11a1,1,0,0,1-.39.53,1.18,1.18,0,0,1-.67.19A1.1,1.1,0,0,1,67.2,51a1.39,1.39,0,0,1-.24-.84,1.32,1.32,0,0,1,.32-.94,1.14,1.14,0,0,1,1.65,0,1.59,1.59,0,0,1,.3,1.1H67.62a.7.7,0,0,0,.16.45.51.51,0,0,0,.37.16.45.45,0,0,0,.26-.08A.51.51,0,0,0,68.56,50.54Zm0-.65a.67.67,0,0,0-.15-.43.43.43,0,0,0-.33-.15.46.46,0,0,0-.35.16.61.61,0,0,0-.14.42Z"/><path class="cls-1" d="M70.37,49.62l-.58-.11a1,1,0,0,1,.34-.52,1.24,1.24,0,0,1,.71-.17,1.47,1.47,0,0,1,.64.11.56.56,0,0,1,.29.25,1.31,1.31,0,0,1,.09.58v.75a2.67,2.67,0,0,0,0,.47,1.92,1.92,0,0,0,.12.33h-.64a1.3,1.3,0,0,0-.06-.19s0-.06,0-.07a1.56,1.56,0,0,1-.35.24,1.1,1.1,0,0,1-.4.08.8.8,0,0,1-.59-.21.67.67,0,0,1-.22-.51.76.76,0,0,1,.1-.37A.68.68,0,0,1,70.1,50a2.72,2.72,0,0,1,.51-.15,3.08,3.08,0,0,0,.62-.15v-.07a.37.37,0,0,0-.09-.27.58.58,0,0,0-.35-.08.54.54,0,0,0-.27.07A.55.55,0,0,0,70.37,49.62Zm.86.52-.39.1a1.12,1.12,0,0,0-.35.12.25.25,0,0,0-.12.22.33.33,0,0,0,.1.24.35.35,0,0,0,.25.09.51.51,0,0,0,.33-.11.46.46,0,0,0,.16-.21,2,2,0,0,0,0-.32Z"/><path class="cls-1" d="M22.14,34.81H17.76a2.73,2.73,0,0,0-.26-1.44c-.26-.37-1-.55-2.15-.55a5.37,5.37,0,0,0-2.28.31c-.37.21-.55.67-.55,1.38A1.35,1.35,0,0,0,13,35.76a2,2,0,0,0,.93.26l.89.06c1.89.12,3.08.21,3.55.26a5.4,5.4,0,0,1,3.26,1.2,3.2,3.2,0,0,1,.95,2,16.28,16.28,0,0,1,.08,1.65,8.77,8.77,0,0,1-.4,3.1A4,4,0,0,1,19,46.54a20,20,0,0,1-3.28.2,20.3,20.3,0,0,1-5.13-.44,3.35,3.35,0,0,1-2.35-2.19,10.43,10.43,0,0,1-.31-3h4.38v.36q0,1.14.66,1.47a2.54,2.54,0,0,0,1.09.24h1.61A5.59,5.59,0,0,0,17.23,43a1.28,1.28,0,0,0,.79-.77,2.75,2.75,0,0,0,.1-.84q0-1.16-.84-1.41a27,27,0,0,0-2.93-.27c-1.41-.1-2.38-.2-2.92-.29a3.87,3.87,0,0,1-2.87-1.66,6.51,6.51,0,0,1-.63-3.23,8.25,8.25,0,0,1,.34-2.64,2.83,2.83,0,0,1,1.09-1.51,5.54,5.54,0,0,1,2.84-.93c1-.09,2-.13,3.19-.13a16.92,16.92,0,0,1,3.93.32c1.91.51,2.86,1.95,2.86,4.3C22.18,34.14,22.17,34.43,22.14,34.81Z"/><path class="cls-1" d="M41.42,46.74V29.23H50.2a10.07,10.07,0,0,1,2.75.29,4.27,4.27,0,0,1,2.91,2.78,10.61,10.61,0,0,1,.39,3.32,12.4,12.4,0,0,1-.42,3.83,3.76,3.76,0,0,1-3.48,2.65c-1.62,0-6.22.12-6.22.12v4.52Zm4.71-8.58h2.94a5.45,5.45,0,0,0,1.7-.22,1.24,1.24,0,0,0,.56-.92,7.71,7.71,0,0,0,.09-1.37A5.48,5.48,0,0,0,51.24,34,1.39,1.39,0,0,0,50,33.09a7.92,7.92,0,0,0-.91,0h-3Z"/><path class="cls-1" d="M66.31,43.71H60l-.85,3H54.28l5.27-17.51h7.1L72,46.74H67.21Zm-.94-3.41-2.21-7.59L61,40.3Z"/><path class="cls-2" d="M34.92,31.69A6.19,6.19,0,0,1,39.73,34l1-2.18a8.93,8.93,0,0,0-14.33,3h-2l-1.17,2.51h2.55c0,.23,0,.46,0,.7a7.94,7.94,0,0,0,0,.85H24.55l-1.17,2.51h3.1a8.93,8.93,0,0,0,13.1,3.77V42.07a6.19,6.19,0,0,1-9.86-.7h6.49l1.17-2.51H28.77a5.62,5.62,0,0,1-.07-.92q0-.31,0-.63h9.38l1.17-2.51H29.54A6.21,6.21,0,0,1,34.92,31.69Z"/><path class="cls-1" d="M34.92,31.77A6.1,6.1,0,0,1,39.68,34l.07.09,0-.11,1-2.18,0-.05,0,0a9.05,9.05,0,0,0-11.23-.92,8.81,8.81,0,0,0-3.22,3.93l.07,0h-2l0,0L23.2,37.28l-.05.1h2.67l-.08-.08c0,.26,0,.49,0,.71a8.43,8.43,0,0,0,.05.86l.07-.08H24.5l0,0-1.17,2.51,0,.11h3.22l-.07-.05a8.9,8.9,0,0,0,8.2,5.31,9,9,0,0,0,5-1.5l0,0V41.87l-.14.15a6.13,6.13,0,0,1-9.74-.69l-.06.12h6.54l0-.05,1.17-2.5,0-.11H28.77l.07.06a7,7,0,0,1-.07-.91c0-.21,0-.42,0-.62l-.07.06h9.43l0,0,1.17-2.51,0-.1H29.54l.06.11A6.16,6.16,0,0,1,34.92,31.77Zm-5.38,3.11h9.74l-.07-.11L38,37.28l.07-.05H28.66v.07c0,.21,0,.43,0,.64a6,6,0,0,0,.07.94v.06h8.68l-.06-.11-1.17,2.51.06,0H29.58l.08.11a6.28,6.28,0,0,0,10,.71l-.13,0v3.07l0-.06a8.86,8.86,0,0,1-4.93,1.48,8.75,8.75,0,0,1-8.06-5.22l0,0H23.38l.07.1,1.17-2.5-.07,0h1.36v-.08a8.24,8.24,0,0,1-.05-.85q0-.32,0-.69v-.09H23.27l.07.11,1.17-2.51-.07.05h2l0-.05A8.6,8.6,0,0,1,29.66,31a8.91,8.91,0,0,1,11,.91l0-.09-1,2.18.12,0a6.25,6.25,0,0,0-4.87-2.32,6.32,6.32,0,0,0-5.45,3.14l-.06.12Z"/><rect class="cls-3" x="-0.25" y="0.3" width="80" height="80"/></g></svg>