<?xml version="1.0" encoding="utf-8"?>
<!-- Generator: Adobe Illustrator 22.1.0, SVG Export Plug-In . SVG Version: 6.00 Build 0)  -->
<svg version="1.1" id="Layer_1" xmlns="http://www.w3.org/2000/svg" xmlns:xlink="http://www.w3.org/1999/xlink" x="0px" y="0px"
	 viewBox="0 0 512 512" style="enable-background:new 0 0 512 512;" xml:space="preserve">
<style type="text/css">
	.st0{fill:#009775;}
</style>
<path class="st0" d="M332.5,297.5c-6.1,0-11.5,0.1-16.9-0.1c-0.7,0-1.4-0.9-2-1.5c-0.6-0.6-0.9-1.5-1.6-2.5
	c-3.7,4.1-8.3,5.2-13.3,5.1c-9.2-0.1-15.5-4.3-18.7-12.9c-2.4-6.5-2.9-13.2-1.5-20c2.3-10.1,9.2-15.6,19-17.7c4-0.8,8.2-0.8,12.4-1
	c1.7-0.1,2.3-0.5,2.3-2.3c-0.1-4.3,0-8.6-0.1-13c0-1.6,0.6-2.2,2.1-2.1c4.2,0.1,8.3,0.1,12.5,0c2.2-0.1,2.9,0.7,2.9,2.9
	c-0.1,17,0,33.9,0,50.9c0,1.3,0,2.6,0,3.9C329.5,290.8,329.8,294.2,332.5,297.5z M312.2,272.3c0-3.8,0-7.6,0-11.5
	c0-1.3-0.3-2.1-1.8-2.2c-8.3-0.8-14.2,3.7-14.9,11.8c-0.7,7.9,2.1,13.5,9.7,15c1.6,0.3,3.2,0.3,4.9,0.4c1.5,0.1,2.2-0.5,2.2-2.1
	C312.1,279.9,312.2,276.1,312.2,272.3z"/>
<path class="st0" d="M122,264.1c2.6,0.4,4.2-0.4,5.5-2.2c3.3-4.5,6.7-9.1,10.1-13.5c0.5-0.7,1.5-1.3,2.3-1.4
	c5.9-0.1,11.7-0.1,18.1-0.1c-0.8,1.1-1.4,1.9-2,2.7c-4.9,6.2-9.7,12.5-14.7,18.7c-1.1,1.4-1.2,2.3-0.1,3.8
	c6,7.6,11.8,15.4,17.7,23.1c0.5,0.6,0.9,1.3,1.7,2.3c-6.5,0-12.6,0.1-18.7-0.1c-0.7,0-1.4-1-1.9-1.6c-4.3-5.8-8.5-11.6-12.7-17.4
	c-0.5-0.7-1.1-1.4-1.9-1.8c-2.3-1.3-3.5-0.6-3.5,2c0,5.5-0.1,10.9,0,16.4c0.1,2.1-0.7,2.6-2.6,2.6c-4-0.1-8-0.2-12,0
	c-2.4,0.1-3-0.8-3-3.1c0.1-19.7,0-39.3,0-59c0-5.9,0-5.9,5.8-5.9c3.1,0,6.2,0.1,9.3,0c1.9-0.1,2.5,0.6,2.5,2.6
	c-0.1,9.6,0,19.2,0,28.9C122,262.1,122,263,122,264.1z"/>
<path class="st0" d="M397.7,293.9c-4.3,4.7-10.3,4.9-16.3,4.7c-8.8-0.2-14.8-6-15.5-14.7c-0.8-9.4,2.7-14.7,11.7-17.3
	c3.8-1.1,7.8-1.4,11.8-1.9c1.8-0.2,3.8,0,5.6-0.1c0.9-0.1,2.7-0.5,2.7-0.8c-0.1-1.4-0.1-3.1-1-4c-1-1-2.7-1.8-4.1-1.8
	c-6.7-0.1-13.3,0.1-20,0.2c-0.5,0-0.9,0.1-1.7,0.1c0-3.5,0-6.9,0.1-10.3c0-0.4,0.8-1,1.3-1c10.1-1.2,20.3-2.1,30.4,0.2
	c8.7,2,12.9,7.5,12.9,16.5c0,7.7,0,15.5,0,23.2c0,5.8,0,5.8,2.4,10.7c-5.6,0-11.1,0.2-16.6-0.2C400.1,297.3,399.1,295.2,397.7,293.9
	z M398,281c0-1.5,0.1-3.1-0.1-4.6c-0.1-0.6-0.8-1.5-1.1-1.5c-3.4,0.2-6.8,0.2-10.1,0.9c-2.1,0.4-3.3,2.3-3.4,4.6
	c-0.2,2.3,0.8,4.1,2.7,5c1.8,0.8,3.8,1.4,5.8,1.5C399.1,286.9,397.9,287.8,398,281z"/>
<path class="st0" d="M213.9,297.6c-5.9,0-11.2,0.2-16.6-0.1c-1.3-0.1-2.6-2-3.5-3.4c-0.2,0-0.4-0.1-0.5,0c-5.8,5.5-12.9,5.4-20,4.1
	c-7-1.3-11.2-6.9-11.9-14c-1.2-11.8,5.5-16.5,15.1-18.4c4.5-0.9,9.2-0.7,13.8-1.1c1.1-0.1,2.8-0.4,3-1.1c0.6-1.7,0-3.7-1.7-4.3
	c-2.3-0.9-4.8-1.6-7.3-1.6c-5.8-0.1-11.7,0.3-17.9,0.5c0-3.3,0-6.7,0.1-10.2c0-0.3,0.9-0.9,1.4-0.9c10-1.1,20-2,29.9,0.1
	c8.9,1.9,13.2,7.4,13.3,16.4c0,8.2,0.1,16.5,0,24.7C211,291.4,211.5,294.5,213.9,297.6z M193.6,280.9c0-1.5,0.1-2.9-0.1-4.4
	c-0.1-0.6-0.9-1.6-1.3-1.6c-3.2,0.1-6.5,0.2-9.6,0.8c-2.3,0.5-3.6,2.4-3.7,4.9c-0.1,2.3,1,4.2,3.1,5.1c1.7,0.7,3.6,1.2,5.4,1.3
	C194.8,286.9,193.4,287.7,193.6,280.9z"/>
<path class="st0" d="M218.2,247c5.9,0,11.2-0.2,16.5,0.1c1.4,0.1,2.7,2,4.4,3.3c0.1-0.1,0.7-0.4,1.3-0.8c6.1-4,12.8-4.7,19.7-2.9
	c6,1.6,10.3,6.7,10.5,13.3c0.4,11.9,0.2,23.8,0.3,35.7c0,1.6-0.9,1.8-2.2,1.8c-4.4,0-8.8-0.1-13.2,0c-1.8,0.1-2.2-0.7-2.1-2.3
	c0.1-9.3,0-18.6,0-27.9c0-6.3-2.1-8.7-8.4-8.8c-8.1-0.1-6.4-0.9-6.5,6.3c-0.1,10-0.1,20.1,0,30.1c0,2.1-0.6,2.7-2.6,2.6
	c-3.8-0.1-7.7,0-11.5,0c-3.4,0-3.4,0-3.4-3.3c0-11.8,0-23.6,0-35.5C221,254.8,221.2,250.8,218.2,247z"/>
<path class="st0" d="M49.3,285.2c8.5,0.2,16.3,0.3,24.2,0.4c1.2,0,2.5-0.1,3.6-0.6c0.9-0.4,2.1-1.4,2.1-2.2c0-1-0.8-2.4-1.7-2.8
	c-1.9-0.9-4-1.4-6-2c-4.7-1.4-9.5-2.3-14-4.2c-6.7-2.9-9.4-8.6-8.1-15.8c0.9-4.9,4.2-7.7,8.6-9.5c5.7-2.3,11.7-2.7,17.8-2.6
	c5.1,0.1,10.3,0.4,15.4,0.7c3.4,0.2,3.4,0.3,3.4,3.6c0,2.8,0,5.5,0,8.5c-3.6-0.3-7-0.6-10.4-0.7c-4.2-0.1-8.5,0-12.7,0.1
	c-1.6,0-3.2,0.4-3.4,2.4c-0.2,2,1.2,2.8,2.7,3.2c3.9,1.1,8,1.8,11.8,3c3.3,1.1,6.7,2.2,9.6,4.1c8.6,5.7,8,18.5-0.9,23.7
	c-4.5,2.7-9.5,3.9-14.7,4c-7.9,0.1-15.8-0.2-23.7-0.5c-3.7-0.1-3.7-0.3-3.7-4C49.3,291,49.3,288,49.3,285.2z"/>
<path class="st0" d="M341.1,247c5.3,0,10.5,0,15.7,0c1.9,0,1.5,1.3,1.5,2.4c0,9,0,17.9,0,26.9c0,6.4-0.1,12.7,0,19.1
	c0,1.7-0.5,2.3-2.2,2.2c-4.4-0.1-8.8-0.1-13.2,0c-1.4,0-2.2-0.3-2.2-1.9c0-16,0-31.9,0-47.9C340.8,247.6,340.9,247.5,341.1,247z"/>
<path class="st0" d="M468.2,253.7c-0.8,5.7-3.6,9.5-8.2,11.9c-5.5,2.9-11.2,2.7-16.5-0.5c-8.9-5.4-9-16.9-0.3-22.7
	c7.1-4.7,17.4-3.1,22,3.8C466.5,248.4,467.2,251.2,468.2,253.7z"/>
<path class="st0" d="M452,303.6c-3.6,0-6.9-1.1-9.8-3.3c-7.2-5.5-7.3-15.3-0.3-21c5.8-4.7,14.9-4.7,20.6,0.1c4.3,3.6,6,8.2,4.6,13.7
	c-1.4,5.4-6.7,9.7-12.4,10.3C453.8,303.5,452.9,303.5,452,303.6z"/>
<path class="st0" d="M340.8,240.4c0-3.3-0.1-6.2,0.1-9.1c0-0.5,1-1.4,1.6-1.5c4.7-0.1,9.4-0.1,14.2,0c0.6,0,1.6,1,1.7,1.7
	c0.2,2.4,0.2,4.9,0,7.3c0,0.6-0.8,1.5-1.3,1.5C351.7,240.4,346.4,240.4,340.8,240.4z"/>
</svg>
