<?xml version="1.0" encoding="utf-8"?>
<!-- Generator: Adobe Illustrator 22.1.0, SVG Export Plug-In . SVG Version: 6.00 Build 0)  -->
<svg version="1.1" id="Layer_1" xmlns="http://www.w3.org/2000/svg" xmlns:xlink="http://www.w3.org/1999/xlink" x="0px" y="0px"
	 viewBox="0 0 512 512" style="enable-background:new 0 0 512 512;" xml:space="preserve">
<style type="text/css">
	.st0{fill:#C9242B;}
	.st1{fill:#080B0A;}
	.st2{fill:#FEFEFD;}
</style>
<g>
	<path class="st0" d="M97.1,256.2c-0.1-1.4-0.2-2.8-0.2-4.2c0-51.1,0-102.2-0.1-153.4c0-3.6,0.7-4.7,4.6-4.7
		c105.5,0.1,211,0.1,316.5,0.1c2.8,0,4.6-0.1,4.6,3.8c-0.2,52-0.1,103.9-0.1,155.9c0,0.8-0.1,1.7-0.2,2.5
		c-22.7,0.1-45.4,0.1-68.1,0.2c-63,0-126.1,0-189.1,0C142.3,256.4,119.7,256.3,97.1,256.2z"/>
	<path class="st1" d="M97.1,256.2c22.6,0.1,45.2,0.1,67.8,0.2c0,4,0.3,7.9-0.1,11.9c-0.4,3.7,1,4.3,4.4,4.3
		c46.7-0.1,93.5-0.1,140.2-0.1c13.7,0,27.4-0.1,41.1,0.1c2.6,0,3.8-0.5,3.6-3.4c-0.3-4.2-0.1-8.5-0.1-12.7
		c22.7-0.1,45.4-0.1,68.1-0.2c0.1,1.4,0.3,2.8,0.3,4.2c0,51.4,0,102.8,0.1,154.2c0,3.7-1.1,4.3-4.5,4.3
		c-105.6-0.1-211.3-0.1-316.9,0c-3.5,0-4.4-0.8-4.4-4.3c0.1-51.4,0.1-102.8,0.1-154.2C96.9,259,97.1,257.6,97.1,256.2z"/>
	<path class="st2" d="M354,256.4c0,4.2-0.2,8.5,0.1,12.7c0.2,2.9-0.9,3.4-3.6,3.4c-13.7-0.1-27.4-0.1-41.1-0.1
		c-46.7,0-93.5,0-140.2,0.1c-3.4,0-4.8-0.6-4.4-4.3c0.4-3.9,0.1-7.9,0.1-11.9C228,256.4,291,256.4,354,256.4z"/>
</g>
</svg>
