<?xml version="1.0" encoding="utf-8"?>
<!-- Generator: Adobe Illustrator 22.1.0, SVG Export Plug-In . SVG Version: 6.00 Build 0)  -->
<svg version="1.1" id="Layer_1" xmlns="http://www.w3.org/2000/svg" xmlns:xlink="http://www.w3.org/1999/xlink" x="0px" y="0px"
	 viewBox="0 0 512 512" style="enable-background:new 0 0 512 512;" xml:space="preserve">
<style type="text/css">
	.st0{fill:#E82128;}
</style>
<path class="st0" d="M301.8,174.9c0,3.8,0,7.5,0,11.1c-7.8,0.2-15.4,0.4-23.1,0.7c-8.4,0.3-16.3,2.2-23.1,7.3
	c-8.6,6.3-13.1,15-15.4,25.2c-1.4,6.2-2.7,12.4-4.4,18.4c-3.3,11.8-11.7,18.6-23,21.9c-3.6,1.1-7.5,1.4-11.4,2.1
	c0-29.2,0-57.9,0-86.8C234.7,174.9,268.1,174.9,301.8,174.9z"/>
<path class="st0" d="M201.3,275.2c0-0.6-0.1-1-0.1-1.5c0-3.2,0-6.3,0-9.6c0.6-0.1,1-0.2,1.4-0.2c7.3-0.2,14.6-0.4,21.9-0.6
	c10.2-0.3,19.4-3.2,26.9-10.4c6-5.8,9.5-13,11.4-21c1.5-6.2,2.7-12.5,4.4-18.6c3.6-13.3,13-20.5,25.9-23.6c2.8-0.7,5.7-0.8,8.7-1.2
	c0,29,0,57.7,0,86.6C268.3,275.2,234.9,275.2,201.3,275.2z"/>
<path d="M204.7,318.6c3.7,7.2,7.3,14.1,11,21.3c-3.3,0.4-6.4,0.7-9.5,1c-1.7,0.2-3.5,0.2-5.1,0.5c-1.1,0.2-1.6-0.1-2-1.1
	c-2.1-5.4-4.4-10.7-6.4-16.1c-0.7-1.9-1.7-2.7-3.6-2.3c-0.4,0.1-0.8,0.1-1.3,0.1c0,6.2,0,12.3,0,18.5c-5.1,0-10,0-15,0
	c0-16.5,0-32.9,0-49.5c0.4,0,0.7-0.1,1-0.1c8.1,0.1,16.2,0,24.2,0.2c4,0.1,7.8,1.2,11,3.9c4.1,3.5,5.2,9.6,3,15.6
	C210.7,314.2,208.2,316.8,204.7,318.6z M187.8,312.5c1.8,0,3.4,0.1,5,0c2.7-0.2,4.8-2.5,5.2-5.5c0.4-2.8-0.9-5.6-3.3-6.2
	c-2.2-0.6-4.5-0.5-6.9-0.8C187.8,304.4,187.8,308.3,187.8,312.5z"/>
<path d="M324.7,313.8c3.7,0.6,6.8,1.9,9.5,4.4c5,4.7,3.6,13.2-1,17.3c-3.8,3.4-8.5,4.8-13.3,5c-7.8,0.3-15.6,0.1-23.4,0.1
	c-0.2,0-0.4-0.1-0.7-0.1c0-16.5,0-32.9,0-49.5c0.4-0.1,0.7-0.1,1.1-0.1c8,0,15.9,0,23.9,0.2c3.8,0.1,7.4,1.1,10.3,3.8
	c4.7,4.3,4.3,11.7-0.8,15.6C328.5,311.7,326.6,312.6,324.7,313.8z M310.5,332.4c2.8,0.6,6.2,0.1,8.1-1c2.5-1.4,3.8-4.3,3.3-7.2
	c-0.5-3.1-1.9-4.8-4.7-5.3c-1.9-0.3-3.9-0.3-5.8-0.2c-0.3,0-0.9,0.7-0.9,1.1c-0.1,1.8,0,3.7,0,5.5
	C310.5,327.7,310.5,330.1,310.5,332.4z M310.5,298.9c0,3.9,0,7.5,0,11.1c0,0.3,0.5,0.8,0.8,0.8c2-0.2,4.1-0.3,6-0.9
	c2.4-0.8,3.5-3.4,3.2-6c-0.2-2.4-1.6-4.2-3.9-4.5C314.7,298.9,312.7,299,310.5,298.9z"/>
<path d="M264.6,340.6c-3.3,0-6.4,0-9.6,0c-0.4,0-0.9-0.4-1.1-0.8c-7.3-8.9-15-17.7-21.2-27.5c0-0.1-0.2-0.1-0.5-0.3
	c0,9.6,0,19,0,28.5c-4,0-7.8,0-11.7,0c0-16.5,0-32.9,0-49.6c2,0,4.1,0.2,6.1,0c3.3-0.4,5.5,0.8,7.5,3.5c6.2,8.1,13,15.8,18.3,24.6
	c0,0.1,0.2,0.1,0.5,0.2c0-9.4,0-18.7,0-28.1c4,0,7.8,0,11.7,0C264.6,307.5,264.6,323.9,264.6,340.6z"/>
<path d="M428.5,319c0-9.3,0-18.6,0-28c3.9,0,7.7,0,11.6,0c0,16.5,0,32.9,0,49.6c-3.2,0-6.4,0.1-9.6-0.1c-0.7,0-1.3-1.1-1.9-1.7
	c-7.1-8.7-14.5-17.2-20.8-27.2c0,9.9,0,19.3,0,28.9c-4,0-7.8,0-11.7,0c0-16.5,0-32.9,0-49.6c2.4,0,4.8,0.2,7.1,0
	c2.6-0.3,4.3,0.6,5.8,2.8c5.2,6.9,10.6,13.6,15.8,20.5c1.2,1.6,2.2,3.3,3.3,5C428.3,319.1,428.4,319,428.5,319z"/>
<path d="M104.6,338.7c-5,0.9-9.7,1.7-14.3,2.5c-1.1,0.2-1.5-0.4-1.9-1.1c-4.2-7.3-8.5-14.5-12.7-21.8c-0.3-0.5-0.6-0.9-1.1-1.8
	c0,8.3,0,16,0,23.9c-5.1,0-10,0-15,0c0-16.5,0-32.9,0-49.5c5,0,9.8,0,14.9,0c0,6.7,0,13.3,0,19.9c0.1,0,0.2,0.1,0.3,0.1
	c0.3-0.4,0.5-0.7,0.8-1.1c3.6-6.1,7.2-12.3,10.8-18.5c0.4-0.7,0.8-1.3,1.8-1.1c3.9,0.8,7.8,1.6,11.9,2.4c-2.2,3.5-4.3,6.8-6.5,10.1
	c-1.8,2.8-3.6,5.7-5.5,8.4c-0.7,1.1-0.7,1.7,0,2.8c5.2,7.6,10.3,15.2,15.4,22.9C103.8,337.4,104.1,338,104.6,338.7z"/>
<path d="M448.9,340.5c0-16.6,0-32.9,0-49.5c0.5-0.1,1-0.1,1.5-0.1c4,0,7.9,0,11.9,0c1.3,0,1.6,0.4,1.6,1.6c-0.1,5.5,0,11,0,16.5
	c0,0.6,0,1.2,0,1.8c0.1,0.1,0.2,0.1,0.3,0.2c0.3-0.5,0.6-0.9,0.9-1.4c3.5-6.1,7.1-12.1,10.6-18.2c0.4-0.7,0.8-1.2,1.8-1
	c3.9,0.8,7.8,1.6,11.9,2.4c-3,4.6-5.9,9.1-8.7,13.6c-1.1,1.6-2.1,3.3-3.2,4.9c-0.7,1-0.7,1.7,0,2.6c5.2,7.6,10.3,15.2,15.4,22.8
	c0.4,0.5,0.7,1.1,1.2,1.9c-2.9,0.5-5.6,1-8.3,1.5c-1.9,0.3-3.7,0.6-5.6,1c-1.2,0.3-1.9-0.1-2.5-1.2c-4.1-7.1-8.2-14.2-12.3-21.2
	c-0.3-0.6-0.7-1.1-1.4-1.7c0,7.8,0,15.5,0,23.4C458.8,340.5,453.9,340.5,448.9,340.5z"/>
<path d="M390.9,340.6c-5,0-10,0-15,0c-0.4,0-1-0.6-1.1-1.1c-1.1-3.1-2.2-6.3-3.1-9.5c-0.3-0.9-0.7-1.2-1.6-1.2
	c-4.3,0.1-8.7,0.1-13,0c-1,0-1.4,0.4-1.7,1.2c-1.2,3.2-2.5,6.3-3.8,9.4c-0.2,0.5-0.8,1.1-1.3,1.1c-3.5,0.1-7,0.1-10.7,0.1
	c0.1-0.5,0.2-0.9,0.3-1.2c6.4-15.7,12.7-31.3,19.1-47c0.5-1.2,1.1-1.6,2.5-1.6c3.2,0.1,6.4,0,9.5,0.1c0.6,0,1.4,0.5,1.6,1
	c6.1,16,12.2,32.1,18.3,48.2C390.9,340.2,390.9,340.3,390.9,340.6z M358.5,320.9c3.6,0,6.9,0,10.4,0c-1.6-5.9-3.2-11.6-4.9-17.7
	C362.1,309.3,360.3,315,358.5,320.9z"/>
<path d="M133.4,291c10,0,19.9,0,29.9,0c0,3,0,5.9,0,9.1c-4.9,0-9.8,0-14.9,0c0,3.4,0,6.6,0,10c4.8,0,9.6,0,14.5,0c0,3.2,0,6.1,0,9.3
	c-4.9,0-9.6,0-14.6,0c0,4.1,0,8,0,12.1c5.9,0,11.8,0,17.9,0c0,3.1,0,6,0,9.1c-10.9,0-21.9,0-32.9,0C133.4,324,133.4,307.6,133.4,291
	z"/>
<path d="M18.2,337c1.6-2.8,3-5.5,4.4-8c1.8,0.9,3.4,2.1,5.1,2.5c1.9,0.5,4.1,0.7,6,0.2c3.6-0.8,4.9-4.4,2.9-7.5
	c-1-1.6-2.4-2.9-3.8-4.2c-2.7-2.5-5.7-4.7-8.3-7.3c-6.7-6.7-5.1-16.3,3.4-20.5c7.7-3.8,15.3-2.7,23,0.9c-1.3,2.7-2.5,5.2-3.6,7.4
	c-2.8-0.4-5.4-1-8-1.2c-1.6-0.2-3.1,0.4-3.8,2.1c-0.7,1.6,0.2,2.9,1.3,3.8c3.2,3,6.5,5.7,9.7,8.7c3.1,3,5.4,6.6,5.8,11.1
	c0.6,6.5-3.5,12.3-9,14.5c-8,3.1-15.9,2.5-23.5-1.5C19.3,337.9,18.9,337.5,18.2,337z"/>
<path d="M104.9,354.4c0-2.8,0-5.3,0-7.8c0-0.4,0.2-0.9,0.5-1.1c3.6-1.5,3.9-4.8,4.1-8c0.2-5.2,0.2-10.3,0.2-15.5
	c0-9.8,0-19.6,0-29.4c0-0.5,0.1-1,0.1-1.6c5,0,9.8,0,14.7,0c0,0.4,0.1,0.8,0.1,1.1c0,14.4,0.1,28.8-0.1,43.3
	c-0.1,9.5-6,16.6-15,18.4C108,354.1,106.5,354.2,104.9,354.4z"/>
</svg>
