<svg xmlns="http://www.w3.org/2000/svg" viewBox="0 0 320.24 320.24"><defs><linearGradient id="linear-gradient" x1="-6963.47" x2="-6962.95" y1="469.22" y2="468.22" gradientTransform="matrix(226.77 0 0 -77.46 1579222.45 36466.33)" gradientUnits="userSpaceOnUse"><stop offset="0" stop-color="#6b195f"/><stop offset="1" stop-color="#4c255b"/></linearGradient></defs><path fill="url(#linear-gradient)" fill-rule="evenodd" d="M209.89 140.15a9.31 9.31 0 1 0-9.3-9.3 9.3 9.3 0 0 0 9.3 9.3m-71.29 5a65.9 65.9 0 0 1-10.75 18.44v-37.81l-19.48 3.85v68.59h19.48V177c5.64 8.46 8.43 21.2 8.43 21.2h23.33c-2.31-9.59-12.4-27.29-12.4-27.29a85.5 85.5 0 0 0 13.67-25.75Zm51.22-.72c-17.45.56-26.31 8.39-26.31 23.95v29.81h19v-24.28c0-9.32 1.22-13.31 12.27-13.69v-15.49a26.7 26.7 0 0 0-5-.27Zm-114.12 8.3c-2.39-.16-7.91-.51-7.91-5.49 0-6 7.95-6 10.94-6 5.24 0 12 1.55 16.89 3 0 0 2.7 1 5 1.93l.22.06V129.8l-.3-.09c-5.72-2-12.38-3.93-24.72-3.93-21.28 0-28.82 12.4-28.82 23 0 6.12 2.62 20.53 27 22.19 2.06.13 7.54.44 7.54 5.58 0 4.24-4.48 6.74-12 6.74a59 59 0 0 1-21.17-4.11v16.93A99 99 0 0 0 73.5 199c20.8 0 30.12-11.73 30.12-23.35 0-13.18-10.43-21.75-27.92-22.92m124.76 45.49h18.88v-53h-18.88Zm54.43-69.06v69.06h18.88v-72.44zm-27.56 0 18.87-3.38v72.44h-18.87z"/></svg>