<?xml version="1.0" encoding="utf-8"?>
<!-- Generator: Adobe Illustrator 22.1.0, SVG Export Plug-In . SVG Version: 6.00 Build 0)  -->
<svg version="1.1" id="Layer_1" xmlns="http://www.w3.org/2000/svg" xmlns:xlink="http://www.w3.org/1999/xlink" x="0px" y="0px"
	 viewBox="0 0 512 512" style="enable-background:new 0 0 512 512;" xml:space="preserve">
<style type="text/css">
	.st0{fill:#AF0000;}
	.st1{fill:#E40101;}
	.st2{fill:#FEFDFD;}
</style>
<path class="st0" d="M98,307.9c-4.1-9.4-5.6-19.4-6.8-29.4c-3.4-28.4-0.2-56.1,10.8-82.5c21.1-50.5,58.4-83.2,110.6-99
	c0.9-0.3,2-0.1,3-0.1c9.3-0.5,18.6-0.9,27.9-1c26.6-0.4,51.2,6.3,74,19.9c19.5,11.6,34.5,27.6,44.2,48.1c9,18.7,12.6,38.4,10.5,59.4
	c-1.6,15.8-5.7,30.6-12.4,44.8c-9.1,19.2-22.2,35.4-38.1,49.4c-6.7,5.9-13.5,11.7-21.7,15.6c-0.1-1.8-0.2-3.7-0.2-5.5
	c0-54.3,0-108.7,0-163c0-6.7-1.8-8.5-8.6-8.6c-11.5,0-23,0.1-34.5-0.1c-4.1,0-7.8,0.9-11.5,2.8c-15.8,8.2-31.6,16.3-47.5,24.4
	c-3.2,1.6-4.7,4-4.7,7.5c0,8.7-0.1,17.3,0,26c0.1,5.1,2.3,7.2,7.4,7.2c8.8,0.1,17.7,0.2,26.5-0.1c3.4-0.1,4.1,1,4.1,4.2
	c-0.1,43.3-0.1,86.7-0.1,130c-4.7,1.7-9.8,1.6-14.7,1.8c-21.4,0.8-42.3-2-62.3-9.9c-19.3-7.6-36.1-18.7-49.6-34.6
	c-1.7-2-2.6-5.5-6.2-5.7c0,0-0.1-0.3-0.1-0.3C98.7,308.7,98.5,308.3,98,307.9z"/>
<path class="st1" d="M98.4,309.7c3.5,0.2,4.4,3.6,6.2,5.7c13.5,15.9,30.3,27,49.6,34.6c20,7.9,40.9,10.7,62.3,9.9
	c4.8-0.2,9.9-0.1,14.7-1.8c13.9-0.8,27.1-4.9,39.9-9.9c10.2-4,20.3-8.3,29-15.1c8.2-3.9,15.1-9.7,21.7-15.6
	c15.8-14,29-30.2,38.1-49.4c6.7-14.2,10.8-29,12.4-44.8c2.1-21-1.5-40.7-10.5-59.4c-9.8-20.4-24.8-36.4-44.2-48.1
	c-22.8-13.6-47.4-20.3-74-19.9c-9.3,0.1-18.6,0.5-27.9,1c15.1-4.8,30.7-5.9,46.3-5.4c41.7,1.4,78.6,15.8,108.6,44.8
	c47.9,46.3,64.5,103,46.5,167c-17.9,63.8-61.6,103.4-126.2,118.1c-80.7,18.4-165.7-30.4-191.8-108.9
	C98.9,311.6,98.7,310.6,98.4,309.7z"/>
<path class="st1" d="M98,307.9c0.5,0.4,0.7,0.8,0.3,1.4C98.2,308.9,98.1,308.4,98,307.9z"/>
<path class="st2" d="M300.1,333c-8.8,6.8-18.8,11.1-29,15.1c-12.9,5-26,9.1-39.9,9.9c0-43.3,0-86.7,0.1-130c0-3.2-0.7-4.3-4.1-4.2
	c-8.8,0.2-17.7,0.1-26.5,0.1c-5.1,0-7.4-2.1-7.4-7.2c-0.1-8.7,0-17.3,0-26c0-3.5,1.5-5.9,4.7-7.5c15.9-8,31.7-16.2,47.5-24.4
	c3.6-1.9,7.3-2.9,11.5-2.8c11.5,0.1,23,0,34.5,0.1c6.7,0,8.6,1.8,8.6,8.6c0,54.3,0,108.7,0,163C299.9,329.4,300,331.2,300.1,333z"/>
</svg>
