<svg xmlns="http://www.w3.org/2000/svg" xmlns:xlink="http://www.w3.org/1999/xlink" viewBox="0 0 470.7 434"><defs><style>.a{fill:none;}.b{clip-path:url(#a);}.c{fill:url(#b);}.d{fill:#f5b2ac;}.e{fill:#fff;}.f{fill:#0b3087;}.g{clip-path:url(#c);}.h{fill:url(#d);}.i{fill:#fd0;}.j{fill:#e53527;}.k{fill:#f4f3f9;}.l{clip-path:url(#e);}.m{fill:url(#f);}.n{clip-path:url(#g);}.o{fill:url(#h);}.p{clip-path:url(#i);}.q{fill:url(#j);}.r{clip-path:url(#k);}.s{fill:url(#l);}.t{clip-path:url(#m);}.u{fill:url(#n);}.v{clip-path:url(#o);}.w{fill:url(#p);}.x{clip-path:url(#q);}.y{fill:url(#r);}.z{clip-path:url(#s);}.aa{fill:url(#t);}.ab{clip-path:url(#u);}.ac{fill:url(#v);}.ad{clip-path:url(#w);}.ae{fill:url(#x);}</style><clipPath id="a" transform="translate(-38.9 -139.5)"><polygon class="a" points="251.3 271 360.5 302.4 293.4 247.6 251.3 271"/></clipPath><linearGradient id="b" y1="512" x2="1" y2="512" gradientTransform="matrix(0, 45.29, 45.29, 0, -22848.33, 282.45)" gradientUnits="userSpaceOnUse"><stop offset="0" stop-color="#e53527"/><stop offset="1" stop-color="#c32f23"/></linearGradient><clipPath id="c" transform="translate(-38.9 -139.5)"><polygon class="a" points="142 239.7 209.1 294.4 251.3 271 142 239.7"/></clipPath><linearGradient id="d" y1="512" x2="1" y2="512" gradientTransform="matrix(0, 113.67, 113.67, 0, -58004.03, 211.87)" gradientUnits="userSpaceOnUse"><stop offset="0" stop-color="#dedbec"/><stop offset="1" stop-color="#908abd"/></linearGradient><clipPath id="e" transform="translate(-38.9 -139.5)"><path class="a" d="M282.6,161.8l10.8,85.8L333,192.1A113,113,0,0,0,282.6,161.8Z"/></clipPath><linearGradient id="f" y1="512" x2="1" y2="512" gradientTransform="matrix(0, -59.78, -59.78, 0, 30908.26, 227.13)" gradientUnits="userSpaceOnUse"><stop offset="0" stop-color="#7974b0"/><stop offset="1" stop-color="#c8c4e0"/></linearGradient><clipPath id="g" transform="translate(-38.9 -139.5)"><path class="a" d="M293.4,247.6l68.2-4.1A113.9,113.9,0,0,0,333,192.1h0Z"/></clipPath><linearGradient id="h" y1="512" x2="1" y2="512" gradientTransform="matrix(0, 62.04, 62.04, 0, -31416.83, 218.41)" gradientUnits="userSpaceOnUse"><stop offset="0" stop-color="#e53527"/><stop offset="0.53" stop-color="#c73023"/><stop offset="1" stop-color="#a82a1f"/></linearGradient><clipPath id="i" transform="translate(-38.9 -139.5)"><path class="a" d="M293.4,247.6l67.1,54.8a114.5,114.5,0,0,0,1.1-58.9h0Z"/></clipPath><linearGradient id="j" y1="512" x2="1" y2="512" gradientTransform="matrix(0, 77.56, 77.56, 0, -39347.61, 257.49)" gradientUnits="userSpaceOnUse"><stop offset="0" stop-color="#f5f3f9"/><stop offset="1" stop-color="#bdb8d9"/></linearGradient><clipPath id="k" transform="translate(-38.9 -139.5)"><path class="a" d="M142,239.7l85.9-10.8-55.6-39.6A113,113,0,0,0,142,239.7"/></clipPath><linearGradient id="l" y1="512" x2="1" y2="512" gradientTransform="matrix(0, 75.16, 75.16, 0, -38188.62, 208.63)" gradientUnits="userSpaceOnUse"><stop offset="0" stop-color="#fff19a"/><stop offset="0.39" stop-color="#ffe774"/><stop offset="1" stop-color="#ffd733"/></linearGradient><clipPath id="m" transform="translate(-38.9 -139.5)"><path class="a" d="M172.3,189.3l55.6,39.6-4.1-68.2a113.8,113.8,0,0,0-51.5,28.6"/></clipPath><linearGradient id="n" y1="512" x2="1" y2="512" gradientTransform="matrix(0, 69, 69, 0, -35014.74, 177.79)" gradientUnits="userSpaceOnUse"><stop offset="0" stop-color="#f4a687"/><stop offset="0.35" stop-color="#ef7d65"/><stop offset="1" stop-color="#e53527"/></linearGradient><clipPath id="o" transform="translate(-38.9 -139.5)"><path class="a" d="M250.6,157.3a114.4,114.4,0,0,0-26.8,3.4h0l4.1,68.2,54.7-67.1a113.6,113.6,0,0,0-30.8-4.5h-1.2Z"/></clipPath><linearGradient id="p" y1="512" x2="1" y2="512" gradientTransform="matrix(0, 56.85, 56.85, 0, -28777.19, 163.58)" gradientUnits="userSpaceOnUse"><stop offset="0" stop-color="#4066aa"/><stop offset="0.43" stop-color="#23529a"/><stop offset="1" stop-color="#003a87"/></linearGradient><clipPath id="q" transform="translate(-38.9 -139.5)"><path class="a" d="M141,298.5A113.6,113.6,0,0,0,169.5,350h0l39.6-55.6Z"/></clipPath><linearGradient id="r" y1="512" x2="1" y2="512" gradientTransform="matrix(0, 56.97, 56.97, 0, -28983.25, 301.92)" gradientUnits="userSpaceOnUse"><stop offset="0" stop-color="#fff"/><stop offset="1" stop-color="#dcdaeb"/></linearGradient><clipPath id="s" transform="translate(-38.9 -139.5)"><path class="a" d="M274.6,313.2l55.6,39.6a113,113,0,0,0,30.3-50.4h0Z"/></clipPath><linearGradient id="t" y1="512" x2="1" y2="512" gradientTransform="matrix(0, 79.58, 79.58, 0, -40293.14, 312.51)" gradientUnits="userSpaceOnUse"><stop offset="0" stop-color="#d3d0e6"/><stop offset="1" stop-color="#7974b0"/></linearGradient><clipPath id="u" transform="translate(-38.9 -139.5)"><path class="a" d="M274.6,313.2l4.2,68.1a113.8,113.8,0,0,0,51.4-28.5h0Z"/></clipPath><linearGradient id="v" y1="512" x2="1" y2="512" gradientTransform="matrix(0, 70.1, 70.1, 0, -35559.37, 324.16)" gradientUnits="userSpaceOnUse"><stop offset="0" stop-color="#e53527"/><stop offset="0.71" stop-color="#c12f22"/><stop offset="1" stop-color="#b12c20"/></linearGradient><clipPath id="w" transform="translate(-38.9 -139.5)"><path class="a" d="M219.9,380.3a113.4,113.4,0,0,0,58.9,1h0l-4.2-68.1Z"/></clipPath><linearGradient id="x" y1="512" x2="1" y2="512" gradientTransform="matrix(0, 54.3, 54.3, 0, -27552.43, 341.21)" gradientUnits="userSpaceOnUse"><stop offset="0" stop-color="#f5b3ad"/><stop offset="0.97" stop-color="#ee8795"/><stop offset="1" stop-color="#ee8694"/></linearGradient></defs><title>SNS Bank</title><g class="b"><rect class="c" x="239.7" y="232.5" width="135.9" height="135.87" transform="translate(-104.7 374) rotate(-74)"/></g><polygon class="d" points="212.3 131.5 254.5 108.1 243.7 22.2 212.3 131.5"/><polygon class="e" points="235.7 173.7 181 240.7 184.5 234.1 233.9 173.5 235.7 173.7"/><polygon class="e" points="212.3 131.5 235.7 173.7 233.9 173.5 212.8 135.4 212.3 131.5"/><polygon class="f" points="212.3 131.5 235.7 173.7 321.6 162.8 212.3 131.5"/><g class="g"><rect class="h" x="157.2" y="209.1" width="82.6" height="120.1" transform="translate(-153.7 246.4) rotate(-74)"/></g><polygon class="i" points="212.3 131.5 170.2 154.9 181 240.7 212.3 131.5"/><polygon class="j" points="212.3 131.5 189 89.3 243.7 22.2 212.3 131.5"/><polygon class="k" points="212.3 131.5 189 89.3 103.1 100.2 212.3 131.5"/><g class="l"><rect class="m" x="259.2" y="168.1" width="96" height="70.95" transform="translate(-7.8 308.1) rotate(-75)"/></g><g class="n"><rect class="o" x="218.1" y="199.2" width="186.1" height="186.13" transform="translate(-143.4 55.2) rotate(-30)"/></g><g class="p"><rect class="q" x="169.3" y="254.3" width="232.7" height="232.69" transform="translate(-148.5 -19.5) rotate(-20)"/></g><g class="r"><rect class="s" x="113.3" y="191" width="225.5" height="225.49" transform="translate(-167 298) rotate(-74)"/></g><g class="t"><rect class="u" x="136.7" y="168.7" width="207" height="206.99" transform="translate(-136.6 265.3) rotate(-70)"/></g><g class="v"><rect class="w" x="202.2" y="159.9" width="170.5" height="170.54" transform="translate(-66.2 314.6) rotate(-74)"/></g><path class="f" d="M169.5,350a113,113,0,0,0,50.4,30.3l-10.8-85.9L169.5,350" transform="translate(-38.9 -139.5)"/><g class="x"><rect class="y" x="46" y="298.6" width="170.9" height="170.9" transform="translate(-71.9 -126.6) rotate(-5)"/></g><path class="j" d="M209.1,294.4,141,298.5a113,113,0,0,1,1-58.8l67.1,54.7" transform="translate(-38.9 -139.5)"/><g class="z"><rect class="aa" x="242.7" y="306.6" width="238.7" height="238.75" transform="translate(-186 517.4) rotate(-74)"/></g><g class="ab"><rect class="ac" x="170.8" y="324.7" width="210.3" height="210.3" transform="translate(-216.9 56) rotate(-30)"/></g><g class="ad"><rect class="ae" x="203" y="303.1" width="93.1" height="93.08" transform="translate(-213.1 139.3) rotate(-45)"/></g></svg>