<svg xmlns="http://www.w3.org/2000/svg" viewBox="0 0 512 512"><defs><path id="SVGID_1_" d="m257.4 235.7 109.2 31.4-67.1-54.8z"/></defs><clipPath id="SVGID_2_"><use href="#SVGID_1_" overflow="visible"/></clipPath><g clip-path="url(#SVGID_2_)"><linearGradient id="SVGID_3_" x1="-37.537" x2="-36.537" y1="170.905" y2="170.905" gradientTransform="rotate(16 25909.775 11103.795)scale(45.29)" gradientUnits="userSpaceOnUse"><stop offset="0" stop-color="#e53527"/><stop offset="1" stop-color="#c32f23"/></linearGradient><path fill="url(#SVGID_3_)" d="m229.9 311.9 37.4-130.7 130.6 37.5-37.4 130.6z"/></g><path fill="#f5b2ac" d="m257.3 235.7 42.2-23.4-10.8-85.9z"/><path fill="#0b3087" d="m257.3 235.7 23.4 42.2 85.9-10.9z"/><defs><path id="SVGID_4_" d="m148.1 204.4 67.1 54.7 42.2-23.4z"/></defs><clipPath id="SVGID_5_"><use href="#SVGID_4_" overflow="visible"/></clipPath><g clip-path="url(#SVGID_5_)"><linearGradient id="SVGID_6_" x1="-39.62" x2="-38.62" y1="167.036" y2="167.036" gradientTransform="rotate(16 64596.608 26157.565)scale(113.67)" gradientUnits="userSpaceOnUse"><stop offset="0" stop-color="#dedbec"/><stop offset="1" stop-color="#908abd"/></linearGradient><path fill="url(#SVGID_6_)" d="m135.6 257.1 22.8-79.4 115.4 33.1-22.7 79.4z"/></g><path fill="#fd0" d="m257.3 235.7-42.1 23.4 10.8 85.8z"/><path fill="#e53527" d="M257.3 235.7 234 193.5l54.7-67.1z"/><path fill="#f4f3f9" d="M257.3 235.7 234 193.5l-85.9 10.9z"/><defs><path id="SVGID_7_" d="m288.7 126.5 10.8 85.8 39.6-55.5c-13.8-14.4-31.2-24.8-50.4-30.3"/></defs><clipPath id="SVGID_8_"><use href="#SVGID_7_" overflow="visible"/></clipPath><g clip-path="url(#SVGID_8_)"><linearGradient id="SVGID_9_" x1="-43.555" x2="-42.555" y1="161.13" y2="161.13" gradientTransform="rotate(-165 -1756.382 4709.834)scale(59.78)" gradientUnits="userSpaceOnUse"><stop offset="0" stop-color="#7974b0"/><stop offset="1" stop-color="#c8c4e0"/></linearGradient><path fill="url(#SVGID_9_)" d="m266.7 205.4 24.8-92.7 68.5 18.4-24.8 92.7z"/></g><defs><path id="SVGID_10_" d="m299.5 212.3 68.2-4.1c-4.9-19.3-14.7-37.1-28.6-51.4z"/></defs><clipPath id="SVGID_11_"><use href="#SVGID_10_" overflow="visible"/></clipPath><g clip-path="url(#SVGID_11_)"><linearGradient id="SVGID_12_" x1="-36.551" x2="-35.551" y1="166.556" y2="166.556" gradientTransform="rotate(60 7788.002 7469.591)scale(62.04)" gradientUnits="userSpaceOnUse"><stop offset="0" stop-color="#e53527"/><stop offset=".53" stop-color="#c73023"/><stop offset="1" stop-color="#a82a1f"/></linearGradient><path fill="url(#SVGID_12_)" d="m190.1 222.9 161.1-93.1L444.3 291l-161.2 93.1z"/></g><defs><path id="SVGID_13_" d="m299.5 212.3 67.1 54.8c5.5-19.2 5.9-39.5 1.1-58.9z"/></defs><clipPath id="SVGID_14_"><use href="#SVGID_13_" overflow="visible"/></clipPath><g clip-path="url(#SVGID_14_)"><linearGradient id="SVGID_15_" x1="-37.361" x2="-36.361" y1="166.143" y2="166.143" gradientTransform="rotate(70 7715.746 8807.326)scale(77.56)" gradientUnits="userSpaceOnUse"><stop offset="0" stop-color="#f5f3f9"/><stop offset="1" stop-color="#bdb8d9"/></linearGradient><path fill="url(#SVGID_15_)" d="m142.6 265.8 218.6-79.6 79.6 218.6-218.6 79.6z"/></g><defs><path id="SVGID_16_" d="m148.1 204.4 85.9-10.8-55.6-39.6c-14.4 13.8-24.8 31.2-30.3 50.4"/></defs><clipPath id="SVGID_17_"><use href="#SVGID_16_" overflow="visible"/></clipPath><g clip-path="url(#SVGID_17_)"><linearGradient id="SVGID_18_" x1="-38.913" x2="-37.913" y1="169.021" y2="169.021" gradientTransform="rotate(16 42941.163 17379.397)scale(75.16)" gradientUnits="userSpaceOnUse"><stop offset="0" stop-color="#fff19a"/><stop offset=".39" stop-color="#ffe774"/><stop offset="1" stop-color="#ffd733"/></linearGradient><path fill="url(#SVGID_18_)" d="M92.8 345.9 155 129.2l216.7 62.1-62.1 216.8z"/></g><defs><path id="SVGID_19_" d="m178.4 154 55.6 39.6-4.1-68.2c-19.4 4.8-37.1 14.7-51.5 28.6"/></defs><clipPath id="SVGID_20_"><use href="#SVGID_19_" overflow="visible"/></clipPath><g clip-path="url(#SVGID_20_)"><linearGradient id="SVGID_21_" x1="-38.495" x2="-37.495" y1="169.297" y2="169.297" gradientTransform="rotate(20 31295.13 13921.912)scale(69)" gradientUnits="userSpaceOnUse"><stop offset="0" stop-color="#f4a687"/><stop offset=".35" stop-color="#ef7d65"/><stop offset="1" stop-color="#e53527"/></linearGradient><path fill="url(#SVGID_21_)" d="m113.7 298.7 70.8-194.5L379 175l-70.8 194.5z"/></g><defs><path id="SVGID_22_" d="M256.7 122c-9 .1-18 1.2-26.8 3.4l4.1 68.2 54.7-67.1c-10-2.9-20.4-4.4-30.8-4.5z"/></defs><clipPath id="SVGID_23_"><use href="#SVGID_22_" overflow="visible"/></clipPath><g clip-path="url(#SVGID_23_)"><linearGradient id="SVGID_24_" x1="-38.241" x2="-37.241" y1="169.882" y2="169.882" gradientTransform="rotate(16 32712.586 13422.93)scale(56.85)" gradientUnits="userSpaceOnUse"><stop offset="0" stop-color="#4066aa"/><stop offset=".43" stop-color="#23529a"/><stop offset="1" stop-color="#003a87"/></linearGradient><path fill="url(#SVGID_24_)" d="m188.2 268.5 47-163.9 164 47-47 163.9z"/></g><path fill="#0b3087" d="M175.6 314.7c13.8 14.4 31.2 24.8 50.4 30.3l-10.8-85.9z"/><defs><path id="SVGID_25_" d="M147.1 263.2c4.8 19.4 14.6 37.1 28.5 51.5l39.6-55.6z"/></defs><clipPath id="SVGID_26_"><use href="#SVGID_25_" overflow="visible"/></clipPath><g clip-path="url(#SVGID_26_)"><linearGradient id="SVGID_27_" x1="-36.163" x2="-35.163" y1="164.855" y2="164.855" gradientTransform="rotate(85 4014.094 6024.642)scale(56.97)" gradientUnits="userSpaceOnUse"><stop offset="0" stop-color="#fff"/><stop offset="1" stop-color="#dcdaeb"/></linearGradient><path fill="url(#SVGID_27_)" d="m44.9 271.1 170.3-14.9 14.9 170.2-170.3 14.9z"/></g><path fill="#e53527" d="m215.2 259.1-68.1 4.1c-4.9-19.3-4.5-39.6 1-58.8z"/><defs><path id="SVGID_28_" d="m280.7 277.9 55.6 39.6c14.4-13.8 24.8-31.2 30.3-50.4z"/></defs><clipPath id="SVGID_29_"><use href="#SVGID_28_" overflow="visible"/></clipPath><g clip-path="url(#SVGID_29_)"><linearGradient id="SVGID_30_" x1="-39.029" x2="-38.029" y1="169.081" y2="169.081" gradientTransform="rotate(16 45167.111 18879.676)scale(79.58)" gradientUnits="userSpaceOnUse"><stop offset="0" stop-color="#d3d0e6"/><stop offset="1" stop-color="#7974b0"/></linearGradient><path fill="url(#SVGID_30_)" d="m220.6 472.8 65.8-229.4 229.5 65.8-65.8 229.4z"/></g><defs><path id="SVGID_31_" d="m280.7 277.9 4.2 68.1c19.3-4.8 37.1-14.7 51.4-28.5z"/></defs><clipPath id="SVGID_32_"><use href="#SVGID_31_" overflow="visible"/></clipPath><g clip-path="url(#SVGID_32_)"><linearGradient id="SVGID_33_" x1="-37.062" x2="-36.062" y1="166.654" y2="166.654" gradientTransform="rotate(60 8670.472 8441.145)scale(70.1)" gradientUnits="userSpaceOnUse"><stop offset="0" stop-color="#e53527"/><stop offset=".71" stop-color="#c12f22"/><stop offset="1" stop-color="#b12c20"/></linearGradient><path fill="url(#SVGID_33_)" d="m138.4 356 182.1-105.2L425.6 433 243.5 538.1z"/></g><defs><path id="SVGID_34_" d="M226 345c19.2 5.5 39.5 5.9 58.9 1l-4.2-68.1z"/></defs><clipPath id="SVGID_35_"><use href="#SVGID_34_" overflow="visible"/></clipPath><g clip-path="url(#SVGID_35_)"><linearGradient id="SVGID_36_" x1="-36.376" x2="-35.376" y1="167.377" y2="167.377" gradientTransform="rotate(45 9735.931 7384.073)scale(54.3)" gradientUnits="userSpaceOnUse"><stop offset="0" stop-color="#f5b3ad"/><stop offset=".97" stop-color="#ee8795"/><stop offset="1" stop-color="#ee8694"/></linearGradient><path fill="url(#SVGID_36_)" d="m189.8 314.3 65.8-65.9 65.8 65.9-65.8 65.8z"/></g></svg>