<svg xmlns="http://www.w3.org/2000/svg" viewBox="0 0 256 256"><g clip-path="url(#clip0)"><path fill="#F48120" d="M0 0h256v256H0z"/><path fill="#fff" d="M242.981 41.026H142.77c-15.803 0-31.146 0-44.9 6.945-13.755 6.945-25.884 20.859-35.24 48.64-2.02 5.974-3.095 11.125-3.233 15.596-.141 4.49.645 8.302 2.348 11.613 2.1 4.041 5.504 7.857 9.771 11.056a48.4 48.4 0 0 0 14.88 7.483l6.607 1.883 10.161 2.962c1.503.475 3.171 1.069 4.686 1.96s2.856 2.105 3.711 3.755q.84 1.65.888 3.597a11.7 11.7 0 0 1-.698 4.162c-1.273 3.784-3.218 6.211-6.929 7.708-3.692 1.485-9.16 1.964-17.395 2.02H-15.699L-32 215H78.382c10.389 0 29.376 0 47.627-7.717 18.25-7.717 35.748-23.155 43.159-54.027 2.818-11.591 1.93-21.053-2.636-28.472-4.587-7.432-12.871-12.815-24.897-16.253l-5.881-1.693-8.691-2.478c-3.084-.87-5.454-2.654-6.868-4.923-1.381-2.259-1.808-5.004-1.014-7.81.836-2.911 2.828-5.238 5.724-6.845s6.717-2.478 11.163-2.478h64.17c.458-.655.869-1.357 1.324-2.011C213.274 63.788 227.465 50.43 243 41z"/></g><defs><clipPath id="clip0"><path fill="#fff" d="M0 0h256v256H0z"/></clipPath></defs></svg>