<svg id="ideal_logo" xmlns="http://www.w3.org/2000/svg" viewBox="0 0 320.24 320.24"><defs><style>.cls-1{fill:#f47216;}.cls-2{fill:#2f2e34;}</style></defs><title>sofort_logo_sq</title><g id="sofort"><g id="g3412"><g id="g354"><g id="g356"><g id="g362"><path id="path364" class="cls-1" d="M244.4,126.12a11.28,11.28,0,0,1,2.3,2.43,11.86,11.86,0,0,1,1.9,8.39H257l-12.65,34.79H257l12.66-34.79h16.25l3.94-10.82Z"/></g><g id="g366"><path id="path368" class="cls-1" d="M231.5,140.66c-1.36,3.65-3.79,5.9-8.41,5.9h-2.41l4.09-11h2.33c4.25,0,5.84,1.25,4.4,5.13m12.27-10.07c-2.08-3-6.31-4.47-12.94-4.47H215.48l-16.61,45.6H213l6-16.06c.3.67,3.86,16.06,3.86,16.06h14.82S235,160.41,233,155.84a24.79,24.79,0,0,0-1.75-3.59c4.19-1.56,10.25-4.9,12.77-11.67,1.54-4.16,1.45-7.52-.26-10"/></g><g id="g370"><path id="path372" class="cls-1" d="M102.06,126.09H75.91c-4.12,0-8.12,0-11.71,1.82s-6.75,5.47-9.19,12.75a14.56,14.56,0,0,0-.85,4.09,6.2,6.2,0,0,0,.61,3,8.88,8.88,0,0,0,2.55,2.9,12.71,12.71,0,0,0,3.89,2l1.72.49,2.65.78a5.33,5.33,0,0,1,1.22.52,2.35,2.35,0,0,1,1,1,2.15,2.15,0,0,1,.24.94,3.13,3.13,0,0,1-.19,1.09,3,3,0,0,1-1.8,2,13.18,13.18,0,0,1-4.54.53H34.57l-4.25,11.69h28.8c2.71,0,7.66,0,12.42-2s9.33-6.06,11.26-14.15c.73-3,.51-5.52-.69-7.46s-3.35-3.36-6.5-4.26l-1.53-.45-2.27-.65A3,3,0,0,1,70,141.4a2.53,2.53,0,0,1-.26-2,3,3,0,0,1,1.49-1.8,6.14,6.14,0,0,1,2.91-.64H90.9c.12-.18.23-.36.35-.53a37,37,0,0,1,10.81-10.3"/></g><g id="g374"><path id="path376" class="cls-1" d="M114.34,148.68c-3.91,10.69-6.74,13.39-11,13.39h0c-4.16,0-5.62-2.64-1.73-13.28,2.91-7.95,6.67-13,11.23-13h0c4.33,0,5.32,2.51,1.52,12.92m13.41-18.32c-2.28-3.26-6.18-4.92-11.61-4.92a23.92,23.92,0,0,0-10.22,2.34A31.89,31.89,0,0,0,93.7,138.45a46.67,46.67,0,0,0-5.62,10.86c-2.8,7.68-2.77,13.92.1,18,1.63,2.32,5,5.1,11.89,5.11h0c12.53,0,21.88-8.22,27.8-24.41,1.57-4.29,3.63-12.28-.14-17.68"/></g><g id="g378"><path id="path380" class="cls-1" d="M177.81,126.09H151.16c-7.45,0-13,3.77-15.61,10.83l-12.66,34.77h13.86l6.51-17.88h12.25l3.49-9.57H146.78l2-5.54a2.92,2.92,0,0,1,2.82-1.79H166c.12-.17.23-.36.35-.53a38.74,38.74,0,0,1,11.44-10.3"/></g></g></g><g id="g382"><g id="g384"><g id="g390"><path id="path392" class="cls-1" d="M189.93,148.68c-3.91,10.69-6.75,13.39-11,13.39h0c-4.16,0-5.62-2.64-1.73-13.28,2.9-7.95,6.67-13,11.22-13h0c4.33,0,5.32,2.51,1.52,12.92m13.41-18.32c-2.28-3.26-6.18-4.92-11.61-4.92a23.88,23.88,0,0,0-10.22,2.34,31.91,31.91,0,0,0-12.23,10.67,46.27,46.27,0,0,0-5.61,10.86c-2.81,7.68-2.77,13.92.1,18,1.63,2.32,5,5.1,11.89,5.11h0c12.53,0,21.88-8.22,27.8-24.41,1.57-4.29,3.63-12.28-.14-17.68"/></g><g id="g394"><path id="path396" class="cls-2" d="M46.32,189.18a3.33,3.33,0,0,0,.24-1.23,1.47,1.47,0,0,0-.3-.9,1.86,1.86,0,0,0-.86-.55,5.36,5.36,0,0,0-1.64-.19H41.43l-2.13,5.88h2.57a5,5,0,0,0,1.67-.24,4.25,4.25,0,0,0,1.23-.65,4.51,4.51,0,0,0,.94-1,5,5,0,0,0,.61-1.16M44,198.87a3.63,3.63,0,0,0,.25-1.41,1.81,1.81,0,0,0-.39-1,2.3,2.3,0,0,0-1.06-.64,6.47,6.47,0,0,0-2-.23H38.07L35.73,202h3.32a6.53,6.53,0,0,0,1.69-.2,5.36,5.36,0,0,0,1.36-.6,4.68,4.68,0,0,0,1.11-1,4.62,4.62,0,0,0,.76-1.34m4.83-.15a9.18,9.18,0,0,1-1.13,2.18,9.91,9.91,0,0,1-1.55,1.73,9.63,9.63,0,0,1-1.87,1.3,12,12,0,0,1-2.12.89,13.35,13.35,0,0,1-2.27.52,18.34,18.34,0,0,1-2.54.17h-6a1,1,0,0,1-.85-.35c-.18-.23-.18-.59,0-1.11l7.19-19.74a2.16,2.16,0,0,1,.79-1.11,2,2,0,0,1,1.1-.34h5.69a13.81,13.81,0,0,1,3.4.35,4.63,4.63,0,0,1,2,1.06,2.84,2.84,0,0,1,.86,1.79,5.68,5.68,0,0,1-.4,2.56,7.51,7.51,0,0,1-.78,1.55,7.65,7.65,0,0,1-1.09,1.32,7.43,7.43,0,0,1-1.37,1,7.56,7.56,0,0,1-1.61.73,4.35,4.35,0,0,1,1.56.61,3,3,0,0,1,1,1.13,3.61,3.61,0,0,1,.37,1.62,5.93,5.93,0,0,1-.41,2.09"/></g></g></g><g id="g398"><g id="g400"><g id="g406"><path id="path408" class="cls-2" d="M66.43,187.18h0l-6.7,9.63h6.42Zm4.35,16.61a5.86,5.86,0,0,1-.1,1,.92.92,0,0,1-.34.55,1.63,1.63,0,0,1-.77.23c-.34,0-.79,0-1.36,0s-1.06,0-1.38,0a2.82,2.82,0,0,1-.73-.1.41.41,0,0,1-.28-.22.82.82,0,0,1,0-.37l.13-4.55H57.4l-3,4.43a2.39,2.39,0,0,1-.34.41,1.13,1.13,0,0,1-.46.26,3.23,3.23,0,0,1-.77.14c-.31,0-.72,0-1.22,0s-1,0-1.24-.05-.47-.12-.54-.26a.63.63,0,0,1,.08-.56,8.8,8.8,0,0,1,.62-1l14.29-20.08a3,3,0,0,1,.43-.48,1.3,1.3,0,0,1,.55-.29,4.45,4.45,0,0,1,.89-.12q.55,0,1.44,0c.69,0,1.24,0,1.64,0a4.27,4.27,0,0,1,.91.12.57.57,0,0,1,.38.29,1.19,1.19,0,0,1,.06.53Z"/></g><g id="g410"><path id="path412" class="cls-2" d="M94.23,203.9a2.39,2.39,0,0,1-.41.71,2.34,2.34,0,0,1-.56.53,2.12,2.12,0,0,1-.67.3,2.47,2.47,0,0,1-.7.1h-2a3.63,3.63,0,0,1-1-.12,1.33,1.33,0,0,1-.66-.45,2.43,2.43,0,0,1-.41-.87,12.18,12.18,0,0,1-.26-1.43L85.8,192.08c-.09-.63-.18-1.31-.25-2s-.12-1.44-.14-2.13h0c-.26.84-.53,1.67-.81,2.51s-.58,1.69-.91,2.58l-4.31,11.85a.78.78,0,0,1-.21.31,1.19,1.19,0,0,1-.42.24,4,4,0,0,1-.69.15,10,10,0,0,1-1,.05,8.82,8.82,0,0,1-1-.05,2.17,2.17,0,0,1-.57-.15c-.13-.07-.21-.14-.23-.24a.43.43,0,0,1,0-.31l7.4-20.35a2.38,2.38,0,0,1,2.26-1.65h2.47a4,4,0,0,1,1.08.12,1.46,1.46,0,0,1,.67.37,1.66,1.66,0,0,1,.41.73,5.85,5.85,0,0,1,.23,1.14l1.4,8.28c.08.5.15,1,.23,1.48s.14,1,.19,1.45.12,1,.17,1.43.09.93.13,1.4h0c.26-.82.55-1.67.85-2.56s.61-1.73.9-2.53l3.87-10.63a.71.71,0,0,1,.22-.31,1.21,1.21,0,0,1,.44-.24,2.14,2.14,0,0,1,.7-.15,7.83,7.83,0,0,1,1.05-.05,6.83,6.83,0,0,1,1,.05,1.18,1.18,0,0,1,.56.15.39.39,0,0,1,.22.24.49.49,0,0,1,0,.31Z"/></g><g id="g414"><path id="path416" class="cls-2" d="M117,204.82a.87.87,0,0,1-.22.34,1.23,1.23,0,0,1-.46.25,5,5,0,0,1-.8.15c-.33,0-.73.05-1.21.05a9.63,9.63,0,0,1-1.6-.09,1.09,1.09,0,0,1-.62-.26.74.74,0,0,1-.19-.42L109,194.09l-3.91,10.75a.86.86,0,0,1-.23.33,1.18,1.18,0,0,1-.45.24,4.85,4.85,0,0,1-.76.15c-.3,0-.68.05-1.14.05a10.67,10.67,0,0,1-1.09-.05,3,3,0,0,1-.65-.15.52.52,0,0,1-.29-.24.42.42,0,0,1,0-.33l7.77-21.33a.76.76,0,0,1,.23-.33,1.24,1.24,0,0,1,.46-.23,4,4,0,0,1,.76-.14,9.06,9.06,0,0,1,1.13-.06,7.92,7.92,0,0,1,1.1.06,2.56,2.56,0,0,1,.65.14.44.44,0,0,1,.29.23.48.48,0,0,1,0,.33l-3.51,9.64,10.14-9.62a1.89,1.89,0,0,1,.43-.38,1.92,1.92,0,0,1,.54-.24,4.5,4.5,0,0,1,.76-.12c.3,0,.68,0,1.14,0a8.62,8.62,0,0,1,1.13.06,2.38,2.38,0,0,1,.68.15.51.51,0,0,1,.29.23.45.45,0,0,1,0,.32,1.92,1.92,0,0,1-.37.61c-.19.21-.51.54-1,1l-9.18,8.14,3,10.23a5.5,5.5,0,0,1,.11,1,1.18,1.18,0,0,1,0,.37"/></g><g id="g418"><path id="path420" class="cls-2" d="M126.23,204.87a.71.71,0,0,1-.23.32,1.31,1.31,0,0,1-.46.23,4.83,4.83,0,0,1-.75.14c-.3,0-.69.05-1.14.05a10.52,10.52,0,0,1-1.09-.05,3.06,3.06,0,0,1-.66-.14.51.51,0,0,1-.29-.23.39.39,0,0,1,0-.32l7.78-21.38a.68.68,0,0,1,.23-.31,1.15,1.15,0,0,1,.47-.23,4,4,0,0,1,.76-.14,8.77,8.77,0,0,1,1.12-.06,8.12,8.12,0,0,1,1.1.06,2.56,2.56,0,0,1,.65.14.47.47,0,0,1,.29.23.41.41,0,0,1,0,.31Z"/></g><g id="g422"><path id="path424" class="cls-2" d="M151.84,203.9a2.63,2.63,0,0,1-.41.71,2.54,2.54,0,0,1-.56.53,2.08,2.08,0,0,1-.68.3,2.33,2.33,0,0,1-.68.1h-2a3.63,3.63,0,0,1-1-.12,1.33,1.33,0,0,1-.66-.45,2.43,2.43,0,0,1-.41-.87,11.92,11.92,0,0,1-.27-1.43l-1.78-10.59c-.09-.63-.18-1.31-.25-2s-.12-1.44-.14-2.13h0c-.26.84-.53,1.67-.81,2.51s-.59,1.69-.91,2.58L137,204.86a.78.78,0,0,1-.21.31,1.19,1.19,0,0,1-.42.24,4,4,0,0,1-.69.15,10,10,0,0,1-1,.05,8.82,8.82,0,0,1-1-.05,2.06,2.06,0,0,1-.57-.15c-.13-.07-.21-.14-.23-.24a.43.43,0,0,1,0-.31l7.4-20.35a2.38,2.38,0,0,1,2.26-1.65H145A4,4,0,0,1,146,183a1.46,1.46,0,0,1,.67.37,1.66,1.66,0,0,1,.41.73,5.85,5.85,0,0,1,.23,1.14l1.4,8.28c.08.5.15,1,.23,1.48s.14,1,.19,1.45.12,1,.17,1.43.09.93.14,1.4h0c.26-.82.55-1.67.85-2.56s.61-1.73.9-2.53l3.87-10.63a.71.71,0,0,1,.22-.31,1.16,1.16,0,0,1,.43-.24,2.27,2.27,0,0,1,.71-.15,7.74,7.74,0,0,1,1-.05,6.83,6.83,0,0,1,1,.05,1.22,1.22,0,0,1,.56.15.39.39,0,0,1,.22.24.43.43,0,0,1,0,.31Z"/></g><g id="g426"><path id="path428" class="cls-2" d="M183,186.38a7.69,7.69,0,0,1-.36.87,4.81,4.81,0,0,1-.33.59,1.13,1.13,0,0,1-.31.31.56.56,0,0,1-.3.08,1.13,1.13,0,0,1-.62-.31,6.5,6.5,0,0,0-1.1-.68,10,10,0,0,0-1.75-.69,9.18,9.18,0,0,0-2.59-.31,9,9,0,0,0-3.18.57,10.45,10.45,0,0,0-2.87,1.61,12,12,0,0,0-2.36,2.5,13.55,13.55,0,0,0-1.68,3.23,10.53,10.53,0,0,0-.73,3.42,4.78,4.78,0,0,0,.54,2.47,3.59,3.59,0,0,0,1.68,1.51,6.5,6.5,0,0,0,2.7.51,7.3,7.3,0,0,0,1.58-.18,7.4,7.4,0,0,0,1.59-.52l1.92-5.25H170.5c-.21,0-.33-.13-.35-.4a3.81,3.81,0,0,1,.32-1.33,7,7,0,0,1,.34-.83,2.72,2.72,0,0,1,.33-.53,1.44,1.44,0,0,1,.31-.3.65.65,0,0,1,.32-.09h7.64a1.06,1.06,0,0,1,.47.09.71.71,0,0,1,.28.29,1,1,0,0,1,.08.46,2.07,2.07,0,0,1-.14.63l-3.28,9a3,3,0,0,1-.52.92,2.12,2.12,0,0,1-1,.62c-.44.15-1,.31-1.58.47s-1.25.3-1.9.42-1.28.2-1.91.26-1.26.09-1.88.09a11.82,11.82,0,0,1-4.57-.78,6,6,0,0,1-2.81-2.25,6.5,6.5,0,0,1-1-3.61,13.8,13.8,0,0,1,1-4.82,19.56,19.56,0,0,1,2.66-5,18.06,18.06,0,0,1,3.75-3.76,16.48,16.48,0,0,1,4.58-2.37,16.19,16.19,0,0,1,5.15-.82,14.51,14.51,0,0,1,2.61.2,10.8,10.8,0,0,1,1.93.49,5.56,5.56,0,0,1,1.27.62,2.21,2.21,0,0,1,.62.58,1,1,0,0,1,.09.69,6.4,6.4,0,0,1-.38,1.32"/></g></g></g></g></g></svg>