<?xml version="1.0" encoding="utf-8"?>
<!-- Generator: Adobe Illustrator 22.1.0, SVG Export Plug-In . SVG Version: 6.00 Build 0)  -->
<svg version="1.1" id="Layer_1" xmlns="http://www.w3.org/2000/svg" xmlns:xlink="http://www.w3.org/1999/xlink" x="0px" y="0px"
	 viewBox="0 0 512 512" style="enable-background:new 0 0 512 512;" xml:space="preserve">
<style type="text/css">
	.st0{fill-rule:evenodd;clip-rule:evenodd;fill:#000875;}
	.st1{fill-rule:evenodd;clip-rule:evenodd;fill:#FFFFFF;}
</style>
<rect x="-1" y="1" class="st0" width="512" height="511"/>
<path class="st1" d="M243.9,300.5v-21.7c0,0,1.8-25.3-23.5-26.2c-25.3-0.9-31.3-11.4-30.4-23.2c0,0-28.3,9-28.3,27.1
	c0,18,27.7,14.1,33.4,13.2c0,0,39.1-9.6,39.1,14.1c0,0,1.5,9-10.2,11.1c0,0-7.5,0.6-3.9,5.4H243.9L243.9,300.5z"/>
<path class="st1" d="M269.1,300.5h28.3c3.6-4.8-3.9-5.4-3.9-5.4c-11.7-2.1-12.1-11.1-12.1-11.1c0-23.8,42.2-13.5,42.2-13.5
	c5.7,0.9,34.8,4.2,34.8-13.9c0,0-0.3-13.5-21.4-12.3c0,0,13.2-25-19.9-25.9c0,0,15.9-22.6-15-25.6c0,0,4.5-32.8-32.8-32.8
	c-37.3,0-37.9,32.2-37.9,32.2s0,17.1,12.3,23.2c0,0,7.6,2.8,5.3-6.5c0,0-4.7-9.9-4.7-14.2c0,0,0.5-14,15.6-14c0,0,11.3,1.6,10.2,16
	c0,0-1.1,8.6-5.2,15.1c0,0-2.9,7.7-0.9,9.5c0,0,3.6,3.2,5.6-2.3c0,0,6.1-10.4,13.5-3.8c7.4,6.5-1.6,13.5-1.6,13.5l-6.5,7
	c0,0-3.4,3.6-1.1,6.8c2.3,3.2,5.4,0,5.4,0s10.6-9.3,15.1-2.9c0,0,2.9,7-5.9,11.3c0,0-19.6,12-19.6,31.1V300.5L269.1,300.5z"/>
<path class="st1" d="M259.4,300.5v-40c0,0,3.2-20.1-25.3-29.3c-28.4-9.3-12.4-31.1-9.7-34.1c0,0-30,9.1-30,28.3
	c0,18,32,18.2,32,18.2s21.7,3.4,21.7,20.1v36.8H259.4L259.4,300.5z"/>
<path class="st1" d="M77.9,312.1h12.7c10.5,0,21.2,0.4,23.1,11.3c2,10.8-6.8,16.2-18.2,16.2H89l-0.8,15.7H75.5L77.9,312.1
	L77.9,312.1z M89.4,330.2h3.4c5.1,0,9.3-1.2,8.4-5c-0.8-3.1-4.1-3.7-7.5-3.7H90L89.4,330.2L89.4,330.2z"/>
<path class="st1" d="M128,312.1h16l13.5,43.2h-12.8l-2.5-9.2h-18.5l-4.4,9.2h-13.8L128,312.1L128,312.1z M135.5,321h-0.1l-7.9,16.9
	h12.3L135.5,321L135.5,321z"/>
<path class="st1" d="M268,312.1h16l13.5,43.2h-12.8l-2.5-9.2h-18.5l-4.4,9.2h-13.8L268,312.1L268,312.1z M275.5,321h-0.1l-7.9,16.9
	h12.3L275.5,321L275.5,321z"/>
<path class="st1" d="M174.9,338.7l-0.7,16.6h-12.8l2.2-43.2h15.2c9.1,0.1,21.6-0.1,22,11c0.3,7.7-3,10.7-8.7,12.5l8.3,19.7h-15
	l-5.9-16.6H174.9L174.9,338.7z M175.1,330.9h4.3c5.5,0,9.6-1.2,8.9-5.3c-0.6-3.1-2.8-4.4-6.7-4.5h-6.1L175.1,330.9L175.1,330.9z"/>
<path class="st1" d="M210.2,312.1h21.2c4.9,0,11.7,1.7,13,9.9c0.9,5.8-2.3,9.7-8.4,11.4c5.6,0.7,8.2,3.2,9,8
	c1.4,9.2-4.4,13.6-16.3,13.6l-21.7,0.2L210.2,312.1L210.2,312.1z M221.5,329.1h4c4.5,0,6.9-1.9,6.5-4.9c-0.5-3.5-3.2-4-7.2-4h-2.8
	L221.5,329.1L221.5,329.1z M220.2,347.1h3.4c6.4,0,10.5-1.6,9.8-5.8c-0.6-3.8-3.7-4.3-9.4-4.3h-3.1L220.2,347.1L220.2,347.1z"/>
<polygon class="st1" points="304.1,312.1 318.4,312.1 331.7,341.4 331.8,341.4 333.1,312.1 345.1,312.1 342.9,355.2 327,355.2 
	315.1,328 315,328 313.8,355.2 301.8,355.2 304.1,312.1 "/>
<polygon class="st1" points="440,312.1 454.3,312.1 467.6,341.4 467.7,341.4 469,312.1 481,312.1 478.7,355.2 462.9,355.2 451,328 
	450.9,328 449.7,355.2 437.6,355.2 440,312.1 "/>
<polygon class="st1" points="355.1,312.1 368,312.1 367.1,329.7 367.2,329.7 381.2,312.1 397.7,312.1 378.8,333 392.8,355.2 
	378.1,355.2 366.9,335.6 366.8,335.6 365.8,355.2 352.9,355.2 355.1,312.1 "/>
<polygon class="st1" points="400.3,312.1 430.6,312.1 430.2,321.1 412.5,321.1 412,328.8 428.6,328.8 428.1,338.2 411.5,338.2 
	411,346.2 429.5,346.2 429.2,355.2 397.9,355.2 400.3,312.1 "/>
<path class="st1" d="M69.1,322.2l1.7-9.8c0,0-5.9-1.9-14.3-1.9c-8.5,0-16.7,3.1-16.7,11.6c0,8.5,5.9,11.9,9,14.7
	c3.1,2.8,12.2,9.9-1.6,8.3c0,0-4.5-0.8-8.8-3.1l-1.4,11c0,0,4.3,1.5,12.2,2.2c7.6,0.7,17.9-0.2,19.5-10c1.6-9.8-9-15.7-9-15.7
	s-14.2-9.2,0.7-8.5C60.5,321,65.5,321.3,69.1,322.2C69.1,322.2,65.5,321.3,69.1,322.2L69.1,322.2z"/>
</svg>
