<?xml version="1.0" encoding="utf-8"?>
<!-- Generator: Adobe Illustrator 22.1.0, SVG Export Plug-In . SVG Version: 6.00 Build 0)  -->
<svg version="1.1" id="Layer_1" xmlns="http://www.w3.org/2000/svg" xmlns:xlink="http://www.w3.org/1999/xlink" x="0px" y="0px"
	 viewBox="0 0 512 512" style="enable-background:new 0 0 512 512;" xml:space="preserve">
<style type="text/css">
	.st0{fill:#C31718;}
	.st1{fill:#FFFFFF;}
</style>
<rect x="1" y="-1" class="st0" width="510" height="511"/>
<path class="st1" d="M231.1,96c-6.7,11.4-13.1,22-19.1,32.9c-23.1,42.4-38.9,87.3-44.7,135.5c-3.7,31-3.4,61.9,3.7,92.5
	c0.4,1.9,1,3.8,1.8,6.5c92.2-52.2,179.6-109.5,249.8-190.2c0.1,0.9,0.4,1.8,0.4,2.6c-2.4,51.3-10.8,101.4-28.9,149.6
	c-0.8,2.1-1.8,4.2-2.7,6.3c-4.9,12-12.7,21.3-24.2,27.9c-57.2,33.3-116.8,60.7-181.4,76.3c-15.5,3.7-31.2,5.6-47.2,4
	c-16.6-1.6-27.8-10-33-26.1c-4.7-14.3-6.2-29-6.6-43.9c-0.8-28.1,1.8-56,6-83.7c6.1-40.6,14.6-80.7,28.2-119.5
	c2.3-6.5,5.1-12.7,7.7-19c3.9-9.3,10.4-16.2,19.1-21.2c17.5-10.2,36.1-17.7,55.1-24.7C220.1,99.8,225.2,98.1,231.1,96z"/>
<path class="st1" d="M356.4,70.2c10.5,1.6,21.2,2.7,31.6,5c10.2,2.2,17.6,8.7,22.4,17.9c6.2,11.8,11.2,24.1,8.5,37.7
	c-1.3,6.5-4.3,13-7.6,18.9c-15.7,27.1-37.1,49.2-61,69.1c-32.7,27.2-67.8,50.5-107.1,67.1c-7.6,3.2-15.6,5.7-23.6,7.5
	c-13.5,3.1-22.2-1.4-28.1-14.1c-5.8-12.4-6.4-25.7-5.5-39c2.2-31,11.9-60.1,23.2-88.8c7.3-18.5,15.6-36.5,26-53.5
	c1.7-2.7,3.7-4.3,6.8-5.3c32.1-9.6,64.5-17.5,98-20.5"/>
</svg>
