<svg xmlns="http://www.w3.org/2000/svg" viewBox="0 0 512 512"><path fill="#c31718" d="M1-1h510v511H1z"/><path fill="#fff" d="M231.1 96c-6.7 11.4-13.1 22-19.1 32.9-23.1 42.4-38.9 87.3-44.7 135.5-3.7 31-3.4 61.9 3.7 92.5.4 1.9 1 3.8 1.8 6.5 92.2-52.2 179.6-109.5 249.8-190.2.1.9.4 1.8.4 2.6-2.4 51.3-10.8 101.4-28.9 149.6-.8 2.1-1.8 4.2-2.7 6.3-4.9 12-12.7 21.3-24.2 27.9-57.2 33.3-116.8 60.7-181.4 76.3-15.5 3.7-31.2 5.6-47.2 4-16.6-1.6-27.8-10-33-26.1-4.7-14.3-6.2-29-6.6-43.9-.8-28.1 1.8-56 6-83.7 6.1-40.6 14.6-80.7 28.2-119.5 2.3-6.5 5.1-12.7 7.7-19 3.9-9.3 10.4-16.2 19.1-21.2 17.5-10.2 36.1-17.7 55.1-24.7 5-2 10.1-3.7 16-5.8m125.3-25.8c10.5 1.6 21.2 2.7 31.6 5 10.2 2.2 17.6 8.7 22.4 17.9 6.2 11.8 11.2 24.1 8.5 37.7-1.3 6.5-4.3 13-7.6 18.9-15.7 27.1-37.1 49.2-61 69.1-32.7 27.2-67.8 50.5-107.1 67.1-7.6 3.2-15.6 5.7-23.6 7.5-13.5 3.1-22.2-1.4-28.1-14.1-5.8-12.4-6.4-25.7-5.5-39 2.2-31 11.9-60.1 23.2-88.8 7.3-18.5 15.6-36.5 26-53.5 1.7-2.7 3.7-4.3 6.8-5.3 32.1-9.6 64.5-17.5 98-20.5"/></svg>