<svg fill="none" xmlns="http://www.w3.org/2000/svg" viewBox="0 0 256 256"><path d="M0 0h256v256H0V0z" fill="#FEDD46"/><path d="M126.7 213a93 93 0 01-41.8-8.8l-2.2-1.5-.7-.7c-.7 0-4.4 5.1-7.3 8h-3l-.7-47.7h3c5.8 17 17.5 33.8 28.5 39 5.9 2.9 14.7 5.8 22.7 5.8 22.8 0 38.1-13.2 38.1-33.7 0-17-11-25-26.3-30.1-15.4-6-20.6-7.4-33.8-12.5-16-6.6-30.7-22-30.7-42.6 0-33.8 26.4-49.2 56.4-49.2 12.5 0 26.4 2.2 37.4 9.5.7.8 1.4.8 2.2 1.5l.7.7c.7 0 4.4-5 7.3-8h3v44h-3.7c-7.3-21.3-23.4-42.6-46.9-42.6-19 0-33.7 11-33.7 32.3 0 15.5 11 25.7 26.4 30.9 12.4 5.1 21.2 7.3 33.7 11C176.5 125.6 189 141 189 163c-1.5 31.5-27.1 49.9-62.3 49.9z" fill="#010101"/></svg>