<?xml version="1.0" encoding="utf-8"?>
<!-- Generator: Adobe Illustrator 22.1.0, SVG Export Plug-In . SVG Version: 6.00 Build 0)  -->
<svg version="1.1" id="Layer_1" xmlns="http://www.w3.org/2000/svg" xmlns:xlink="http://www.w3.org/1999/xlink" x="0px" y="0px"
	 viewBox="0 0 512 512" style="enable-background:new 0 0 512 512;" xml:space="preserve">
<style type="text/css">
	.st0{fill:#FFCB06;}
</style>
<rect class="st0" width="512" height="512"/>
<path d="M329.5,127c3.2-4.3,6.1-8.5,9.4-12.4c1-1.2,2.9-2.1,4.6-2.5c2.5-0.6,3.2,0.9,3.2,3.3c-0.1,11.1,0,22.3,0,33.4
	c0,12.4,0,24.8,0,37.2c0,1.5,1,3.9-1.9,4.2c-2.6,0.3-4.8,0.4-6-3c-6.2-16.5-14.5-31.8-26.5-45c-11.7-13-25.7-22.6-43.3-24.8
	c-22.2-2.8-43,1-58,19.4c-21.7,26.6-13.6,64.8,17.7,81.6c13.4,7.2,28.3,11.6,42.6,17.2c15.8,6.2,32.3,11,47.4,18.5
	c30.9,15.3,46.3,45,42.9,79.3c-3.5,35.2-24.2,56.6-55.8,68.9c-21.6,8.4-44.3,9.7-67.2,8.1c-18.8-1.3-36.9-5.3-53.8-13.8
	c-0.2-0.1-0.5-0.2-0.7-0.3c-7.7-3.9-7.7-3.9-13,3.2c-1,1.3-2.1,2.6-2.9,4c-1.7,3.3-4.3,4.1-8.7,2.8c0-3.2,0-6.7,0-10.2
	c-0.3-22.8-0.7-45.5-0.9-68.3c0-1.7-1.4-4.4,2-4.8c3-0.4,4.5,0.6,5.6,3.6c8.6,22.8,20.6,43.7,40.2,58.8c25,19.1,63.1,22.5,89.7,4.6
	c18.5-12.5,25.3-30.8,23.9-52.5c-1.2-19.9-12.8-33-30-40.7c-15.8-7.1-32.3-12.6-48.6-18.6c-14-5.2-28.6-9-41.3-17.2
	c-21.8-14-36.5-33.2-39-59.4c-3.6-38,13.1-70,50.4-85.5c19.9-8.3,40.8-10,62.1-8.2c16.9,1.5,33,5.6,47.8,14.1
	C323.8,123.4,326.3,125,329.5,127z"/>
</svg>
