<svg width="256" height="256" viewBox="0 0 256 256" fill="none" xmlns="http://www.w3.org/2000/svg">
<path d="M0 0H256V256H0V0Z" fill="white"/>
<path d="M128 226C182.124 226 226 182.124 226 128C226 73.8761 182.124 30 128 30C73.8761 30 30 73.8761 30 128C30 182.124 73.8761 226 128 226Z" fill="#7433FF"/>
<path d="M98.5098 127.81H110.494C110.494 115.349 115.444 103.398 124.255 94.5868C133.067 85.7756 145.017 80.8255 157.478 80.8255V68.8359C149.734 68.8359 142.066 70.3614 134.911 73.3252C127.756 76.2889 121.255 80.633 115.779 86.1093C110.304 91.5856 105.96 98.0868 102.997 105.242C100.034 112.397 98.5091 120.065 98.5098 127.81Z" fill="white"/>
<path d="M157.509 127.812H145.52C145.52 140.278 140.568 152.232 131.754 161.047C122.939 169.861 110.985 174.813 98.5195 174.813V186.807C106.267 186.807 113.938 185.281 121.095 182.316C128.252 179.352 134.756 175.006 140.233 169.528C145.711 164.05 150.056 157.546 153.02 150.388C155.984 143.231 157.51 135.56 157.509 127.812Z" fill="white"/>
</svg>
