<?xml version="1.0" encoding="utf-8"?>
<!-- Generator: Adobe Illustrator 22.1.0, SVG Export Plug-In . SVG Version: 6.00 Build 0)  -->
<svg version="1.1" id="Layer_1" xmlns="http://www.w3.org/2000/svg" xmlns:xlink="http://www.w3.org/1999/xlink" x="0px" y="0px"
	 viewBox="0 0 512 512" style="enable-background:new 0 0 512 512;" xml:space="preserve">
<style type="text/css">
	.st0{fill:#016F51;}
	.st1{fill:#7ABF43;}
</style>
<path class="st0" d="M257.9,134.5c0,8.4-0.1,16.8,0,25.2c0,2-0.6,2.6-2.6,2.7c-41.5,1.4-76.4,27.1-90,66.3
	c-18.9,54.5,15.5,115,72,126.7c47.3,9.8,93.1-14.6,111.3-59.4c4.4-10.9,6.6-22.2,6.9-33.9c0-2,0.6-2.6,2.6-2.6
	c16.7,0.1,33.4,0.1,50.2,0c2.5,0,2.9,0.9,2.8,3.1c-1,37.1-13.4,69.9-37.7,97.9c-23.7,27.3-53.5,44.7-89.1,50.3
	c-55.8,8.8-103.4-7.9-141.4-49.8c-22.3-24.6-34.4-54.1-37.6-87.1c-7.2-75.1,42.5-144.6,116.1-162.7c11-2.7,22.1-4.2,33.5-4.3
	c2.6,0,3.1,0.8,3,3.2C257.9,118.1,257.9,126.3,257.9,134.5z"/>
<path class="st1" d="M258.9,191.9c37.6,0.3,68.7,31.3,67.4,70.3c-1.1,36.4-31.1,66.4-69.3,65.7c-37.3-0.7-68.2-31.6-66.6-70.8
	C191.8,220.8,221.5,191.8,258.9,191.9z"/>
<path class="st0" d="M344.2,134.8c21.5-0.1,39.1,17.3,39.3,38.9c0.2,21.3-17.5,39.2-39,39.3c-21.3,0.1-39.1-17.4-39.2-38.6
	C305.2,152.6,322.5,135,344.2,134.8z"/>
</svg>
