<svg xmlns="http://www.w3.org/2000/svg" viewBox="0 0 512 512">
	<path fill="#0066A2" d="M181.1,270.2c0.2-12.8,1.2-25.5-2.8-37.9c-3.1-9.6-7.6-22.1-15.5-28.7c-8.3-7-21.7-8.4-32.1-7.8
	c-10.6,0.6-21.3,3.7-30.1,9.8c-7.9,5.5-14.3,13.2-16.8,22.6c-3.2,11.8-2.3,25.2-2.8,37.3c-1.1,30.1-1.4,60.3,2.3,90.3
	c0.8,6.3,10.8,6.4,10,0c-2.9-23.4-3.4-47-2.9-70.6c0.2-11.5,0.7-22.9,1.2-34.4c0.5-10.4,0-21.4,6.9-30c5.7-7,14.1-11.4,22.8-13.6
	c10-2.5,23.3-2.8,32.7,2.4c4.3,2.4,6.5,6.7,8.6,10.9c2.6,5.2,5,10.5,6.6,16.1c3.2,10.9,2.1,22.3,1.9,33.5
	c-0.5,26.7-0.1,53.5,1.1,80.2c0.3,6.4,10.3,6.4,10,0C181,323.7,180.6,296.9,181.1,270.2z"/>
	<path fill="#008048" d="M304.1,272.4c-0.9-12.8-2.2-25.8-4.6-38.4c-1.9-9.6-5.1-19.5-12.1-26.6c-14.1-14.3-41.2-12.9-57.5-3.3
	c-20.2,11.9-23.2,38.1-25.4,59.2c-3.1,29.6-0.8,59.4,1.7,88.9c0.5,6.4,10.5,6.4,10,0c-1.9-23.2-3.8-46.5-2.9-69.9
	c0.4-11.9,1.5-23.9,3.7-35.6c1.8-9.6,4-20.2,10.6-27.8c6-6.9,15-10.4,24-11.5c9.3-1.1,20.6-0.5,27.9,6c6.8,6,9.1,15.4,10.7,23.9
	c2.1,11.5,3.3,23.3,4.1,35c1.9,26.4,1.4,53,1,79.4c-0.1,6.4,9.9,6.4,10,0C305.5,325.3,306,298.8,304.1,272.4z"/>
	<path fill="#E98838" d="M425.1,274.9c-0.9-12.6-2.4-25.2-4.4-37.8c-1.9-11.4-2.9-22.4-13.4-29c-8.8-5.5-20.9-10.5-31.4-10.2
	c-10.6,0.4-22.5,5.8-31.1,11.7c-18.4,12.5-19.1,35.5-19.4,55.6c-0.4,30.3,0.5,60.7,2.7,90.9c0.5,6.4,10.5,6.4,10,0
	c-1.7-23.7-2.7-47.4-2.8-71.1c-0.1-11-0.2-22.1,0.5-33.1c0.5-8.8,1.7-18,6.4-25.6c5.3-8.5,15.8-13.3,24.9-16.4
	c11.1-3.8,21-0.2,31.1,4.7c4.4,2.1,8.3,4.5,9.9,9.4c1.6,5,2.2,10.6,3,15.8c1.9,11.6,3.2,23.3,4.1,35.1c1.9,26.3-0.6,52.6,0.4,78.9
	c0.3,6.4,10.3,6.4,10,0C424.4,327.4,426.9,301.2,425.1,274.9z"/>
	<path fill="#E4BB13" d="M425.3,156.6H84.9c-0.9,0-1.6,0.2-2.3,0.5c-0.1,0-0.1,0-0.2,0c-6.4,0-6.4,10,0,10c0.9,0,1.6-0.2,2.3-0.5
	c0.1,0,0.1,0,0.2,0h340.4C431.8,166.6,431.8,156.6,425.3,156.6z"/>
</svg>
