<?xml version="1.0" encoding="utf-8"?>
<!-- Generator: Adobe Illustrator 22.1.0, SVG Export Plug-In . SVG Version: 6.00 Build 0)  -->
<svg version="1.2" baseProfile="tiny" id="Layer_1" xmlns="http://www.w3.org/2000/svg" xmlns:xlink="http://www.w3.org/1999/xlink"
	 x="0px" y="0px" viewBox="0 0 510.2 510.2" xml:space="preserve">
<path fill="#E95314" d="M406.1,299c-0.6-1.3-0.6-1.9-2.1-3.7c-1.2-1.4-4.9-2.7-6.4-6.6c-1.8-1.5-5.9-2.3-5.9-2.3s-1.4-0.2-2.1,0.4
	c-0.8,0.6-1,1.5-2.1,2.3c-1.1,0.8-4.1,1.1-4.7,0c-0.6-1.2-0.7-1.1-1.4-1.8c-0.8-0.9-1.1-1.9-1.9-2c-2.8-0.6-3.9-0.6-4.3-0.5
	c0.9-0.2,4.5-1,5.5-1c1.5,0,4.6-1.5,6-2c1.1-0.4,1.4-0.6,2.9-1.4c1-0.5,5.8-1.8,4.9-9.4c-1-8.3-6.8-7.6-10.7-11.6
	c-0.9-2.6-0.3-3.5-0.3-4.5c-0.1-1.6-0.3-1.6-0.7-2.6c-0.9-0.8-0.5-1.5-3.5,0c-2,2.1-7,2.6-5.7-0.4c1.5-1.9,3.3-4.1,3.3-4.1
	s0.3-1.3-1.9-4.4c-4.1-3-7.5-4.8-7.5-4.8s-1.5-0.7,2.3-3c2.3-2.4,3.5-10,0.1-13.2c-5.5-3.1-9.4-4.7-9.4-4.7s-4.9-1.8-7.9-4.8
	c-1.9-1.9-2.4-2.1-3.7-2.9c-1.3-0.8-3.1-1.7-5.5-0.2c-1.8,1.1-4.8,0.1-4.8,0.1l1.1-4.3c0,0,2.7-4.9-0.7-6.5c-3-0.4-4.6-0.7-4.6-0.7
	s-3.9-0.3-3.7-3.1c0.2-2.8-6-9.2-6.2-10.4c-0.3-2.2-1.4-6-2.7-7.5c-0.7-0.8-1.7-1.9-1.7-3.3c0-1-0.9-9.2-7.2-11.8
	c-2.8-1.5-7.1-5.5-8.8-3.4c0,0-2.3,5.6-6.8,4.7c-0.9-0.2-8.3-1.8-8.3-1.8s-6.5-6.2-6.7-7s-2.8-6.5-5.3-7.5
	c-2.6-1.9-6.5,1.6-10.6-0.2c-1.1,0.4-4.9,0.6-4.9,0.6s-1.5-0.2-2.3,1.6c-0.8,1.9-1.1,3.8-3.1,3.7c-2,0.6-4.5-1.4-4.5-1.4
	s-2.5-0.9-6.6,1.5c-0.6,1.3-3.4,0-3.4,0s-6,0.2-10.8,3.1c-1.5,0.6-8.1,0.5-8.1,0.5s-2.6,1.4-3.5,3.2l-1.4,0.4c0,0-6,0.4-8.5,8.2
	h-5.7c0,0-4.5,0.6-4.5,4.5c-0.2,1.7-1.6,3.8-2.9,4.6c-1.3,0.8-3.6,2.8-3.6,2.8s-1.5,1.9,0.9,5.9c0.9,2.6,1.8,3.7,2,5.2
	c0.1,1.1-0.3,0.8,0.1,5.4c0,0-1.5,3.9-4.7,0.7c-1.3-2.3-1.5-4.9-7.3-2.2c-2.8,1.1-3.4,3.3-3.4,3.3s-3.7,2.6-5.9,3.1
	c-1.5,1.5-3.2,2.7-3.4,5.4c-0.2,2.6,2,8.6,2,8.6s-5.2-3.4-4.4-7.3c-1.3-2.1-2.8-1.5-3.8-0.5c-1.1,0.6-5.4,1.4-5.4,1.4
	s-1.5,0.6-2.8,1.5c-1.3,0.9-2.2,2-3.3,1.9c-1.1-0.2-2.8,0.4-3.6,0.8c-0.8,0.4-1.1,0.4-1.9,1.9s-0.7,4.9-0.7,4.9l-0.2,5.1l-2.8,0.2
	c0,0-2.1,0.7-3,1.8c-0.9,1.1-3.3,3.3-2.6,5.7c1.7,1.5,2.4,3,2,6.4c-0.2,2.3,1.7,3,2.1,4c0.4,0.9,2.8,2.9,2.8,2.9l-6.3-0.9
	c0,0-1.6,0.9-2.2,3.1c-0.6,2.3-1.3,6.6-1,7.7c0.4,1.1,0.1,2.6,4.9,3.3c2.1,0.6,5.2,2.1,5.2,2.1s2.6,1.4,0.6,3.7l-1.7,1.3l-1.6,1.6
	l-1.1-0.4l0.1-0.7c0,0-1.8-2.1-2.6-2.7c-0.8-0.6-4.7-0.1-4.7-0.1s-4.1,0.3-4.9,1.3c-0.8,0.9-0.7,2-0.7,2l-0.4,5.6l-0.7,0.2
	c0,0-2.4-1.7-3.1-3.4c-0.8-1.7-1-1.4-2-2c-0.9-0.6-1.8-0.7-2.9,0.3c-1.1,0.9-4.3,3.4-5.3,5.5c0,0,0.4,0.9-0.2,2.1
	c-0.6,1.1-2.8,3.6-2.8,4.4s0,1.9,1.1,2.5c1.1,0.6,4.5,1.5,4.5,1.5s1.3,1.9,0.2,1.9c-1.1,0-4.9,0-4.9,0s-3.1-0.5-3.3,2.9
	c-0.2,1.9-0.2,3.2-0.2,3.2s-0.2,0.9-1.9,1.9c-1.3,0.7-2.5,2.6-2.7,3.4c-0.2,0.8,0.5,1.8,1.1,2.7c0.6,0.9,1,2.2,0.6,3
	c-0.4,0.8-2.6,3-2.6,3s-0.6,1.9,0.2,2.7c0.8,0.8,3.2,2.2,4.4,2.4c1.1,0.2,3.8,0.2,4.9-0.1c1.1-0.4,1.7-1.3,2.7-2
	c0.2-0.8,2.5-0.7,3.3-0.1c0.8,0.6,3.1,1.6,4.6,1.8s1.8-0.6,3.5-1.1c1.5-1.3,3.6-2.8,4.9-3.5c1.3-0.8,3.5-1.8,4.4-1.3
	c1.1,0.3,1.6,1.1,1.8,2.1c0.2,0.9-0.4,1.9-0.6,3c-0.2,1.1-0.1,3.4,0.8,5.4c0.4,0.8,1,0.6,1.9,0.7c1.8-0.5,1.8,0,2.7,0.1
	c0.8,0,2.3,2.2,3.1,3c0.9,0.6,2.3,0.5,3.3,0.7c0.9,0.2,6.7,0.4,7.7,0c0.9-0.2,2.4-0.8,2.4-0.8s1.4-1.3,2.5-1.9
	c1.1-0.6,2.9,0.6,3.5,1.4c0.6,0.8,1,1,2,1.7c0.9,0.8,1.6,1.6,2.7,2c1.1,0.4,2.8,0.1,2.8,0.1s1.9-0.8,2.6-1.2c1.1-0.2,2.5,0,3.5-0.2
	c0.9,0,3.5,0.6,4.5,0.6c1,0.2,2.2,0.7,4,0.6c0.8,0,1.3-0.1,2.4-0.4c1.1-0.4,1.9-1.7,2.3-2.5c0.3-0.6,0.4-0.9,0.9-1.9
	c0.4-1.5,2.1-2.1,2.1-2.1c1.6-0.2,4.5,0.2,6.7,0.3c3.6,0.2,14.2,0,17.5-6.9c1.9-2.7-0.7-5.9-0.7-5.9s-1.2-1.7-1.5-2.4
	c1.1,0.1,2,0.1,3.5-0.4c1.5-0.6,3-1.6,5.2-1.1c0.8,0.2,1.4,1.9,1.6,3.8c0.2,1.9-0.8,21.5-4.3,28.7c-3,4.2-4.9,5.6-4.9,5.6
	s-9.5,4.1-12.5,5.8s-8.1,3.2-8.5,7c1.3,1.7,6.5-0.2,13.6-0.3c7.9,0.1,16,0,16.9,0.6c0.1,0.3-0.3,2.6-1.4,4.8
	c-0.8,1.9-0.7,3.4-0.7,4.4c0,0.9,1,3.1,3.7,1.9c8.5-3.8,16.4-7.5,27.8-7c12.7,0.3,17.2,4.5,24.1,7.4c4.2,2.4,3.9-3.5,3.7-4.4
	c-0.2-0.9-1-4.3-3.6-8c2.8,0.7,10.7,0.7,18.2,0.5c7.3,0.6,12.2,0.5,13.1-0.2c0-0.2-0.2-5-11.2-9.3c-8.1-2.7-10.3-4.3-10.3-4.3
	s-4.1-1.2-6.5-9.6c-1.1-4.1-2.4-10.5-2.6-19.4c0.4-2.3,0.8-5.8,1-6.1c0.4-0.6,2.7-1.8,4.2-1c1.3,0.7,2.1,1.4,3.8,5.4
	c1.9,4.5,3.3,9,8.3,10.2c4.7,1.2,8.8-1.2,12.9-1.1c5.7,0.2,4.6,3.4,8.2,4.4c3.3,0.9,5-1.1,6.2-1.5c1.2-0.4,4-0.6,5.9,1.4
	c1.9,2.1,4.6,2.2,8.2,0.3c1.5-1.1,4.6-4.6,5.7-5.4c1.1-0.8,4.5-2.6,9.3,2.7c2.5,2.8,3.5,2.3,5.7,2.4c2.3,0.2,9.8-1.9,12-1.8
	c1.5,0,6.3-1.1,4.2-4.5c-0.7-2.2,2.8-2.5,4.4,0c0.9,1.4,1.8,0.8,3.7,0.6c4.4-0.5,5.2-0.3,5.2-0.3c1.6-0.4,4.2-1.2,4.5-2
	c1.6-3.3,3.7-3,3.7-3l2.5-0.3c0,0,4.4,0.2,4.8-1.9C407.6,303.6,406.6,300.2,406.1,299z M150.4,295.3c-0.2,0.4-0.3,0.7-0.9,1.8
	c0,0.1-0.1,0.1-0.2,0.2c-0.6,0.6-2,0.5-2.1,0.5c-1.3,0-2.8-0.4-3-0.5c-2-1.2-2.8-4-3.3-6.9c0,0-0.1-0.6-0.2-1.3
	c-0.1-0.7-0.2-1.4-0.2-1.8c-0.2-0.8,0-1,0.5-1.2s1.1-0.3,1.5-0.4c0.4-0.1,1-0.1,1.5,0C145.6,286.1,152.7,291.7,150.4,295.3z
	 M177.6,228.1c0,0,0.4-0.4,1-0.9c0.5-0.5,1.1-0.9,1.4-1.2c0.6-0.6,0.8-0.6,1.3-0.3c0.4,0.3,0.9,0.7,1.2,1c0.3,0.3,0.6,0.8,0.8,1.2
	c0.6,1.6-0.2,10.6-4.4,10.7c-0.4,0.1-0.7,0.1-2,0.3c-0.1,0.1-0.1,0-0.3-0.1c-0.8-0.2-1.5-1.4-1.6-1.5c-0.7-1.1-1.2-2.6-1.2-2.8
	C173.6,232.3,175.5,230.1,177.6,228.1z M173.3,286.2c-0.6,0.3-1,0.6-2.7,1.4c-0.1,0.1-0.2,0-0.4,0.1c-1.3,0.2-2.9-1.1-3-1.2
	c-1.6-1.1-3.1-2.9-3.2-3.2c-1.4-3.2,0.1-7.3,2-11.3c0,0,0.4-0.8,0.9-1.8c0.5-0.9,1-1.9,1.3-2.4c0.5-1.1,0.9-1.2,1.7-1
	s1.6,0.6,2.2,0.8s1.3,0.8,1.8,1.3C175.5,270.8,179.3,283.8,173.3,286.2z M180.3,308.9c-0.4,0.1-0.7,0.1-2,0.3
	c-0.1,0.1-0.1,0-0.3-0.1c-0.8-0.2-1.5-1.4-1.6-1.5c-0.7-1.1-1.2-2.6-1.2-2.8c-0.1-2.3,1.8-4.5,3.9-6.6c0,0,0.4-0.4,1-0.9
	c0.5-0.5,1.1-0.9,1.4-1.2c0.6-0.6,0.8-0.6,1.3-0.3s0.9,0.7,1.2,1c0.3,0.3,0.6,0.8,0.8,1.2C185.3,299.8,184.6,308.8,180.3,308.9z
	 M192.7,279.3c0,0-0.5,0.3-1.1,0.7s-1.2,0.8-1.6,0.9c-0.6,0.5-0.9,0.4-1.3,0c-0.4-0.4-0.7-0.9-1-1.2c-0.3-0.3-0.5-0.9-0.6-1.4
	c-0.3-1.6,1.9-10.4,6.2-9.8c0.4,0,0.8,0,2,0.1c0.1,0,0.1,0.1,0.3,0.1c0.8,0.3,1.3,1.6,1.3,1.7c0.5,1.2,0.8,2.7,0.8,2.9
	C197.4,275.8,195.1,277.7,192.7,279.3z M198,255.3c-0.2,0.4-0.3,0.7-0.9,1.8c0,0.1-0.1,0.1-0.2,0.2c-0.6,0.6-2,0.5-2.1,0.5
	c-1.3,0-2.8-0.4-3-0.5c-2-1.2-2.8-4-3.3-6.9c0,0-0.1-0.6-0.2-1.3c-0.1-0.7-0.2-1.4-0.2-1.8c-0.2-0.8,0-1,0.5-1.2
	c0.5-0.2,1.1-0.3,1.5-0.4c0.4-0.1,1-0.1,1.5,0C193.2,246.1,200.3,251.7,198,255.3z M218.1,283.5c-0.2,0.4-0.3,0.7-0.9,1.8
	c0,0.1-0.1,0.1-0.2,0.2c-0.6,0.6-2,0.5-2.1,0.5c-1.3,0-2.8-0.4-3-0.5c-2-1.2-2.8-4-3.3-6.9c0,0-0.1-0.6-0.2-1.3s-0.2-1.4-0.2-1.8
	c-0.2-0.8,0-1,0.5-1.2s1.1-0.3,1.5-0.4c0.4-0.1,1-0.1,1.5,0C213.3,274.3,220.4,279.9,218.1,283.5z M214.6,213.1
	c-0.3-0.6-0.7-0.9-1.6-2.6c-0.1-0.1,0-0.2-0.1-0.4c-0.3-1.2,1-2.9,1-3.1c1-1.7,2.7-3.2,3-3.4c3.1-1.6,7.3-0.4,11.4,1.3
	c0,0,0.8,0.3,1.8,0.8c1,0.4,1.9,0.9,2.4,1.2c1.2,0.4,1.3,0.8,1.1,1.6c-0.1,0.8-0.5,1.6-0.7,2.2c-0.2,0.6-0.7,1.3-1.2,1.9
	C230.1,214.3,217.4,218.9,214.6,213.1z M223.9,255.9c-0.6,0.5-0.9,0.4-1.3,0c-0.4-0.4-0.7-0.9-1-1.2s-0.5-0.9-0.6-1.4
	c-0.3-1.6,1.9-10.4,6.2-9.8c0.4,0,0.8,0,2,0.1c0.1,0,0.1,0.1,0.3,0.1c0.8,0.3,1.3,1.6,1.3,1.7c0.5,1.2,0.8,2.7,0.8,2.9
	c-0.3,2.3-2.5,4.2-5,5.8c0,0-0.5,0.3-1.1,0.7C224.9,255.3,224.3,255.7,223.9,255.9z M241.9,266.6c-0.7,3.4-4.2,6-8.1,8.1
	c0,0-0.8,0.4-1.7,0.9s-1.9,1-2.4,1.2c-1,0.7-1.4,0.5-1.9-0.1s-1-1.4-1.3-1.9s-0.6-1.4-0.8-2.1c-0.2-2.5,4.1-15.3,10.3-13.9
	c0.7,0.1,1.1,0.1,3,0.4c0.1-0.1,0.2,0.1,0.4,0.2c1.1,0.5,1.7,2.6,1.8,2.7C241.7,263.9,241.9,266.2,241.9,266.6z M239,184.1
	c-0.4,0.1-0.7,0.1-2,0.3c-0.1,0.1-0.1,0-0.3-0.1c-0.8-0.2-1.5-1.4-1.6-1.5c-0.7-1.1-1.2-2.6-1.2-2.8c-0.1-2.3,1.8-4.5,3.9-6.6
	c0,0,0.4-0.4,1-0.9c0.5-0.5,1.1-0.9,1.4-1.2c0.6-0.6,0.8-0.6,1.3-0.3c0.4,0.3,0.9,0.7,1.2,1c0.3,0.3,0.6,0.8,0.8,1.2
	C244,175,243.3,184,239,184.1z M287.5,184.4c0.7,0.1,1.1,0.1,3,0.4c0.1-0.1,0.2,0.1,0.4,0.2c1.1,0.5,1.7,2.6,1.8,2.7
	c0.7,1.8,0.8,4.2,0.8,4.5c-0.7,3.4-4.2,6-8.1,8.1c0,0-0.8,0.4-1.7,0.9c-0.9,0.5-1.9,1-2.4,1.2c-1,0.7-1.4,0.5-1.9-0.1
	s-1-1.4-1.3-1.9c-0.3-0.5-0.6-1.4-0.8-2.1C276.9,195.8,281.3,183,287.5,184.4z M257.7,195.6c0,0,0.4-0.4,1-0.9
	c0.5-0.5,1.1-0.9,1.4-1.2c0.6-0.6,0.8-0.6,1.3-0.3s0.9,0.7,1.2,1s0.6,0.8,0.8,1.2c0.6,1.6-0.2,10.6-4.4,10.7c-0.4,0.1-0.7,0.1-2,0.3
	c-0.1,0.1-0.1,0-0.3-0.1c-0.8-0.2-1.5-1.4-1.6-1.5c-0.7-1.1-1.2-2.6-1.2-2.8C253.7,199.8,255.6,197.6,257.7,195.6z M254.5,276.2
	c-0.4,0.1-0.7,0.1-2,0.3c-0.1,0.1-0.1,0-0.3-0.1c-0.8-0.2-1.5-1.4-1.6-1.5c-0.7-1.1-1.2-2.6-1.2-2.8c-0.1-2.3,1.8-4.5,3.9-6.6
	c0,0,0.4-0.4,1-0.9c0.5-0.5,1.1-0.9,1.4-1.2c0.6-0.6,0.8-0.6,1.3-0.3c0.4,0.3,0.9,0.7,1.2,1c0.3,0.3,0.6,0.8,0.8,1.2
	C259.5,267.1,258.8,276.1,254.5,276.2z M266.9,245.7c-0.6,0.3-1,0.6-2.7,1.4c-0.1,0.1-0.2,0-0.4,0.1c-1.3,0.2-2.9-1.1-3-1.2
	c-1.6-1.1-3.1-2.9-3.2-3.2c-1.4-3.2,0.1-7.3,2-11.3c0,0,0.4-0.8,0.9-1.8c0.5-0.9,1-1.9,1.3-2.4c0.5-1.1,0.9-1.2,1.7-1
	c0.8,0.2,1.6,0.6,2.2,0.8c0.6,0.2,1.3,0.8,1.8,1.3C269.1,230.3,272.8,243.3,266.9,245.7z M289.8,284.3c-0.1,0.8-0.5,1.6-0.7,2.2
	s-0.7,1.3-1.2,1.9c-1.8,1.7-14.5,6.3-17.3,0.5c-0.3-0.6-0.7-0.9-1.6-2.6c-0.1-0.1,0-0.2-0.1-0.4c-0.3-1.2,1-2.9,1-3.1
	c1-1.7,2.7-3.2,3-3.4c3.1-1.6,7.3-0.4,11.4,1.3c0,0,0.8,0.3,1.8,0.8s1.9,0.9,2.4,1.2C289.8,283.1,289.9,283.5,289.8,284.3z
	 M294.5,261.1c-0.4,1.2-1.3,2.5-1.5,2.7c-1.8,1.5-4.7,1.3-7.6,0.8c0,0-0.6-0.1-1.3-0.3c-0.7-0.1-1.4-0.3-1.8-0.4
	c-0.8-0.1-0.9-0.3-1-0.9c0-0.5,0.1-1.1,0.1-1.5c0-0.4,0.2-1,0.5-1.4c0.9-1.4,8.6-6.1,11.2-2.8c0.3,0.3,0.6,0.5,1.4,1.5
	c0.1,0,0.1,0.1,0.1,0.3C295.1,259.7,294.5,261,294.5,261.1z M299.7,219.2c-0.2,0.4-0.3,0.7-0.9,1.8c0,0.1-0.1,0.1-0.2,0.2
	c-0.6,0.6-2,0.5-2.1,0.5c-1.3,0-2.8-0.4-3-0.5c-2-1.2-2.8-4-3.3-6.9c0,0-0.1-0.6-0.2-1.3c-0.1-0.7-0.2-1.4-0.2-1.8
	c-0.2-0.8,0-1,0.5-1.2c0.5-0.2,1.1-0.3,1.5-0.4c0.4-0.1,1-0.1,1.5,0C294.9,210,302,215.6,299.7,219.2z M306.4,245.2
	c-0.2-2.5,4.1-15.3,10.3-13.9c0.7,0.1,1.1,0.1,3,0.4c0.1-0.1,0.2,0.1,0.4,0.2c1.1,0.5,1.7,2.6,1.8,2.7c0.7,1.8,0.8,4.2,0.8,4.5
	c-0.7,3.4-4.2,6-8.1,8.1c0,0-0.8,0.4-1.7,0.9c-0.9,0.5-1.9,1-2.4,1.2c-1,0.7-1.4,0.5-1.9-0.1s-1-1.4-1.3-1.9
	C306.8,246.8,306.5,246,306.4,245.2z M317.5,298.3c-0.2,0.4-0.3,0.7-0.9,1.8c0,0.1-0.1,0.1-0.2,0.2c-0.6,0.6-2,0.5-2.1,0.5
	c-1.3,0-2.8-0.4-3-0.5c-2-1.2-2.8-4-3.3-6.9c0,0-0.1-0.6-0.2-1.3c-0.1-0.7-0.2-1.4-0.2-1.8c-0.2-0.8,0-1,0.5-1.2
	c0.5-0.2,1.1-0.3,1.5-0.4c0.4-0.1,1-0.1,1.5,0C312.7,289.1,319.8,294.7,317.5,298.3z M323,276.9c-0.4,0.1-0.7,0.1-2,0.3
	c-0.1,0.1-0.1,0-0.3-0.1c-0.8-0.2-1.5-1.4-1.6-1.5c-0.7-1.1-1.2-2.6-1.2-2.8c-0.1-2.3,1.8-4.5,3.9-6.6c0,0,0.4-0.4,1-0.9
	c0.5-0.5,1.1-0.9,1.4-1.2c0.6-0.6,0.8-0.6,1.3-0.3c0.4,0.3,0.9,0.7,1.2,1c0.3,0.3,0.6,0.8,0.8,1.2C328,267.8,327.3,276.8,323,276.9z
	 M346.4,295.8c-0.6,0.3-1,0.6-2.7,1.4c-0.1,0.1-0.2,0-0.4,0.1c-1.3,0.2-2.9-1.1-3-1.2c-1.6-1.1-3.1-2.9-3.2-3.2
	c-1.4-3.2,0.1-7.3,2-11.3c0,0,0.4-0.8,0.9-1.8s1-1.9,1.3-2.4c0.5-1.1,0.9-1.2,1.7-1s1.6,0.6,2.2,0.8c0.6,0.2,1.3,0.8,1.8,1.3
	C348.6,280.4,352.4,293.4,346.4,295.8z M358.9,256.8c-0.2,0.5-0.5,1-0.7,1.4c-0.2,0.4-0.6,0.8-1,1.1c-1.4,0.9-10.2,2.6-11.4-1.5
	c-0.2-0.4-0.3-0.7-0.8-1.9c-0.1-0.1,0-0.1,0-0.3c-0.1-0.8,0.9-1.8,1-1.9c0.9-1,2.1-1.9,2.3-1.9c2.2-0.7,4.9,0.5,7.4,2
	c0,0,0.5,0.3,1.1,0.7c0.6,0.4,1.2,0.8,1.5,1C359.1,256,359.1,256.3,358.9,256.8z M365.8,299.9c0,0-0.5,0.3-1.1,0.7
	c-0.6,0.4-1.2,0.8-1.6,0.9c-0.6,0.5-0.9,0.4-1.3,0c-0.4-0.4-0.7-0.9-1-1.2c-0.3-0.3-0.5-0.9-0.6-1.4c-0.3-1.6,1.9-10.4,6.2-9.8
	c0.4,0,0.8,0,2,0.1c0.1,0,0.1,0.1,0.3,0.1c0.8,0.3,1.3,1.6,1.3,1.7c0.5,1.2,0.8,2.7,0.8,2.9C370.5,296.4,368.2,298.3,365.8,299.9z"
	/>
</svg>
