<svg xmlns="http://www.w3.org/2000/svg" viewBox="0 0 512 512"><path fill="#1d1d1b" d="M300.1 147.8h6c1.7 0 3.4 1.7 5.2 1.7h4.3l1.7-1.7c1.7-1.7 4.3-2.6 6-2.6s4.3.9 6 1.7c.9.9 1.7 2.6 1.7 3.4 0 1.7-1.7 1.7-1.7 4.3 0 1.7 0 5.2 1.7 5.2h3.4c.9 0 2.6-.9 4.3 0 1.7 1.7 3.4 4.3 3.4 6.9 0 1.7 1.7 6.9 3.4 6.9s2.6-2.6 2.6-6v-6c0-3.4 0-3.4-1.7-6-.9-1.7-2.6-3.4-4.3-5.2-1.7-.9-2.6-1.7-3.4-3.4-1.7-1.7-1.7-5.2-3.4-6.9-.9-1.7-3.4-4.3-6-5.2h-6c-1.7 0-2.6 1.7-4.3 1.7s-2.6 1.7-3.4 2.6c-.9 1.7-2.6 2.6-4.3 3.4-1.7 0-2.6-1.7-4.3-2.6l-3.4-3.4h-4.3c-1.7 0-2.6 1.7-3.4 2.6-.9 1.7-.9 5.2 0 6.9.8 0 2.5.9 4.2 1.7m9.5 25.8s1.7-1.7 1.7-2.6v-3.4c0-3.4-1.7-6-5.2-8.6h-3.4c-2.6 0-6.9 1.7-6 6 0 1.7 2.6 1.7 4.3 3.4.9.9 1.7 2.6 1.7 3.4 0 1.7 1.7 2.6 2.6 2.6 1.7.9 2.5.1 4.3-.8m-38.7 62.7c0 1.7 1.7 3.4 2.6 3.4 2.6 0 4.3-1.7 5.2-3.4 1.7-2.6 3.4-6 5.2-8.6 0-1.7 1.7-2.6 2.6-4.3 0-1.7 1.7-6.9 0-6.9-2.6 0-3.4 1.7-4.3 2.6 0 0-2.6 2.6-4.3 2.6s-2.6-1.7-3.4-2.6c-1.7-1.7-2.6-2.6-2.6-3.4 0-1.7-1.7-6.9-4.3-6-1.7 0-3.4 4.3-3.4 5.2 0 1.7 0 2.6 1.7 4.3 0 .9.9 2.6 1.7 3.4.9.9 2.6 2.6 3.4 4.3v6c-.9-.1-.9 2.5-.1 3.4m17.2-60.1h-3.4c-1.7 0-2.6-2.6-4.3-4.3-1.7 0-2.6-1.7-4.3-1.7-1.7-1.7-4.3-2.6-6-1.7-1.7 0-4.3 1.7-4.3 4.3 0 1.7 1.7 1.7 3.4 1.7 3.4 0 6.9 2.6 8.6 6 0 0 0 1.7 1.7 1.7l1.7 1.7c1.7 1.7 5.2 0 6 3.4v3.4c0 1.7 1.7 2.6 2.6 5.2v3.4c0 .9.9 1.7 2.6 1.7 2.6 0 1.7-8.6 1.7-11.2 0-3.4-1.7-7.7-4.3-10.3.9-1.6-.8-3.3-1.7-3.3m-7.7-51.5c1.7 0 4.3 1.7 6 0s3.4-2.6 3.4-5.2c0-1.7-1.7-2.6-3.4-3.4h-6c-1.7 0-3.4 0-3.4 1.7s0 3.4 1.7 4.3c-.9.8 1.7 2.6 1.7 2.6m26.6 94.4c.9 0 1.7-.9 2.6-1.7l1.7-1.7c0-1.7 0-6 1.7-6.9.9-.9 1.7-2.6 2.6-4.3.9-.9 1.7-1.7 3.4-2.6 0 0 1.7-1.7 2.6-1.7 0 0 1.7-1.7 1.7-2.6 0-1.7-1.7-1.7-2.6-4.3v-5.2c0-1.7-6-2.6-6.9 0v10.3c-1.7 3.4-6 5.2-6.9 6.9v5.2c-.8 4.3-.8 8.6.1 8.6m27.5-48.9c-1.7-1.7-6.9-2.6-9.4-2.6-1.7 0-2.6 1.7-1.7 5.2l1.7 1.7s1.7 1.7 2.6 1.7c1.7 2.6 2.6 6.9 5.2 8.6 0 0 4.3 2.6 6 1.7s0-1.7 0-3.4c-.9-.9-1.7-2.6-1.7-3.4v-2.6c-.2-3.5-1-5.2-2.7-6.9.8 0 0 0 0 0m-6.9 80.6 1.7-1.7 1.7-1.7s0-1.7 1.7-2.6c0-1.7 1.7-1.7 1.7-3.4s-.9-2.6-2.6-2.6h-.8c-1.7.9-3.4 1.7-5.2 3.4 0 0-1.7 1.7-1.7 2.6-.9 1.7-.9 3.4-1.7 6 0 0 2.6.9 5.2 0m-97.9-36.9c0 1.7 1.7 2.6 2.6 3.4 2.6.9 5.2 0 6-2.6v-3.4c-.9-1.7-1.7-4.3-4.3-5.2-1.7-1.7-3.4-5.2-6-4.3-2.6 0-1.7 4.3 0 6.9 0 4.4 1.7 4.4 1.7 5.2m-11.1-51.5h3.4c.9 0 1.7-1.7 3.4-2.6s1.7-1.7 1.7-4.3c0-1.7-1.7-1.7-2.6-1.7s-1.7 1.7-4.3 1.7-3.4 1.7-3.4 2.6c-.8 2.6.9 3.5 1.8 4.3-.9 0 0 0 0 0M283 153c1.7 0 5.2 0 5.2-1.7s-1.7-2.6-2.6-3.4c-2.6-.9-4.3-.9-6.9-1.7-1.7 0-2.6 2.6-1.7 4.3-.1 3.4 3.4 2.5 6 2.5m-75.6 53.2c1.7 0 6 0 6-1.7 0-.9 0-2.6-1.7-3.4-1.7-1.7-2.6-1.7-4.3-3.4-1.7-.9-4.3-1.7-6-1.7s-2.6.9-2.6 2.6c0 0 1.7 1.7 1.7 2.6l1.7 1.7c2.6.7 3.5 3.3 5.2 3.3m42.9-38.6s2.6-1.7 2.6-3.4c0-2.6-5.2-2.6-6.9-1.7-.9 0-2.6 0-3.4 1.7-1.7 0-1.7 4.3-1.7 6v11.1c0 1.7 1.7 4.3 3.4 4.3s1.7-1.7 2.6-1.7c1.7-1.7 0-6 1.7-8.6V171c-.8-3.4.9-3.4 1.7-3.4m-54 50.6c-1.7-.9-3.4-.9-6-1.7-1.7 0-4.3 0-5.2 1.7-1.7.9-2.6 2.6-1.7 4.3 0 1.7 2.6 4.3 4.3 5.2s4.3 1.7 6.9 1.7c.9 0 2.6 0 3.4 1.7 1.7 0 6.9 1.7 6.9 0s-1.7-3.4-1.7-6c-1.8-4.3-4.4-6-6.9-6.9-.9 0 0 0 0 0m38.6-66.9c1.7 0 2.6-1.7 3.4-3.4.9-1.7 1.7-3.4 3.4-3.4h6.9c1.7 0 2.6-6 6-6 .9 0 1.7.9 1.7 1.7 0 0 0 1.7 1.7 1.7 4.3 0 7.7 0 11.2-1.7 1.7 0 3.4-1.7 4.3-3.4 1.7-1.7 1.7-6 0-6.9-1.7 0-4.3 1.7-6 2.6-2.6 0-5.2 0-6.9-1.7s-1.7-2.6-3.4-2.6-3.4.9-5.2 2.6-2.6 3.4-4.3 3.4-1.7-1.7-1.7-1.7l-1.7-1.7v-4.3c0-.9-1.7-1.7-2.6-1.7-1.7 0-6 4.3-6.9 6v2.6c0 .9 1.7 1.7 1.7 3.4 0 .9-.9 1.7-1.7 1.7l-1.7 1.7c-1.7 0-2.6 1.7-2.6 3.4v3.4c.9 1.7 2.7 4.3 4.4 4.3m173.4 153.6c0 1.7 1.7 3.4 3.4 3.4h1.7c1.7-1.7 1.7-1.7 0-4.3 0 0 0-1.7-1.7-1.7 0-1.7-4.3-3.4-6-2.6-1.7.9 0 2.6 0 4.3 1.7-.8 1.7.1 2.6.9-.9 0 0 0 0 0m27.4-18c3.4 0 6 0 6-1.7s-1.7-1.7-1.7-3.4c-1.7-1.7-1.7-2.6-3.4-2.6s-1.7 0-2.6 1.7v3.4c.9.9.9 1.7 1.7 2.6m-16.3-5.1c1.7 1.7 2.6 5.2 1.7 6.9 0 1.7-1.7 3.4 0 5.2 1.7 0 1.7-1.7 2.6-1.7 1.7-1.7 2.6-3.4 3.4-6 0-5.2-1.7-9.4-6-12-2.6-2.6-6.9-4.3-6.9-8.6 0-1.7 0-2.6-1.7-3.4-.9.9-2.6 2.6-3.4 4.3 0 1.7-1.7 3.4-1.7 5.2 0 .9 1.7 1.7 1.7 2.6 1.8 1.4 7.8 3.2 10.3 7.5m-65.2-47.3c-.9 1.7-1.7 4.3-1.7 6.9.9 1.7 1.7 2.6 3.4 1.7.9-.9 2.6-1.7 3.4-2.6 0 0 0-1.7 1.7-2.6.9-.9.9-1.7 1.7-2.6 0 0 1.7-4.3 0-5.2 0-1.7-2.6-2.6-4.3-2.6-1.6 1.9-3.3 3.6-4.2 7M85.5 308.4c-2.6 0-4.3.9-6 2.6-1.7 0-2.6.9-4.3 1.7-1.7 1.7-1.7 5.2 0 6.9s4.3 1.7 6 0l1.7-1.7s1.7 0 1.7-1.7c0-.9 3.4-2.6 3.4-4.3 1-1.8-1.6-3.5-2.5-3.5m265.3-106.5c1.7 0 6-1.7 6-2.6s1.7-1.7 1.7-2.6c0 0 1.7-1.7 1.7-2.6 0-1.7 0-2.6-1.7-3.4h-3.4c-3.4 0-3.4 0-5.2 3.4 0 1.7-1.7 2.6-1.7 3.4 1.7.1 1.7 4.4 2.6 4.4m18 68.7c1.7 0 1.7-2.6 2.6-3.4.9-.9 2.6-1.7 4.3-1.7h2.6c1.7 0 1.7-2.6 2.6-4.3 0-1.7 1.7-3.4 1.7-5.2 0-.9-1.7-1.7-4.3-1.7h-3.4c-1.7 0-2.6 0-3.4 1.7l-2.6 2.6c-1.7 1.7-3.4 4.3-5.2 6.9 0 1.7-1.7 2.6-1.7 4.3 2.5 2.5 5.1 2.5 6.8.8m-26.6-56.7s-1.7 1.7-2.6 1.7c-1.7 0 0-6 0-8.6 0 0-1.7-1.7-2.6-1.7-1.7 1.7-1.7 4.3-3.4 6-.9 1.7-2.6 3.4-4.3 5.2l-1.7 1.7-1.7 1.7v8.6c1.7 2.6 5.2 0 6-1.7 1.7-1.7 1.7-3.4 4.3-3.4 1.7 0 4.3 1.7 6.9 1.7 1.7 0 2.6-1.7 4.3-1.7s2.6-1.7 3.4-2.6 1.7 0 1.7 0c2.6-1.7 6-2.6 8.6-2.6 1.7 0 6 0 6-2.6 0 0-1.7-1.7-1.7-2.6-1.7 0-3.4-.9-6 0h-8.6c-1.7.9-3.4.9-5.2 1.7-.8-1.6-2.6-1.6-3.4-.8m60.9 35.2c0-1.7-1.7-4.3-4.3-4.3s-2.6 2.6-3.4 4.3-3.4 2.6-3.4 4.3l1.7 1.7c1.7 0 6 1.7 6.9 1.7 0 0 2.6 0 2.6-1.7v-3.4c.8 0-.1-.9-.1-2.6m-28.3-38.6h5.1c1.7 0 4.3.9 6 1.7 1.7 1.7 3.4 1.7 4.3 4.3 0 0 0 1.7 1.7 3.4 0 .9.9 2.6 1.7 3.4 1.7 3.4 1.7 6.9 3.4 10.3 0 1.7 1.7 2.6 3.4 3.4 0 0 3.4 1.7 4.3 0 1.7 0 1.7-3.4 0-5.2 0-1.7-1.7-3.4-1.7-6 0-1.7 1.7-3.4 1.7-6 0-1.7-1.7-2.6-3.4-4.3 0 0 0-1.7-1.7-1.7s0-1.7-1.7-1.7l-3.4-3.4s-1.7 0-1.7-1.7c-1.7-1.7-4.3-2.6-6-2.6h-12c-4.3 3.5-1.7 6.1 0 6.1m0 25.8s-1.7 1.7-1.7 2.6c0 1.7 1.7 0 3.4 0h6.8c1.7 0 1.7-3.4 1.7-6v-2.6c0-2.6-.9-6-2.6-8.6-1.7-1.7-2.6-4.3-4.3-1.7 0 3.4 1.7 6 0 8.6 1 4.2-.7 6.8-3.3 7.7m-163.1-60.1v2.6c0 5.2 1.7 11.2 6 11.2 3.4 0 3.4-3.4 2.6-6-.9-1.7-1.7-3.4-1.7-5.2 0-1.7 2.6-1.7 2.6-4.3s-4.3-4.3-6-3.4c-2.6.8-2.6 2.5-3.5 5.1m125.3 145c-1.7 0-6 4.3-6 6 .9 1.7 2.6 2.6 4.3 2.6 3.4 0 5.2-1.7 6-4.3 0-1.7 1.7-1.7 1.7-3.4-.8-.9-3.4-1.7-6-.9m-5.1-15.4c0-2.6-1.7-3.4-3.4-6-1.7-1.7-1.7-2.6-4.3-2.6s-2.6 1.7-3.4 2.6v3.4c0 1.7 2.6 2.6 4.3 4.3s2.6 3.4 5.2 3.4c1.7 0 2.6-1.7 3.4-2.6-1-.8-1-1.7-1.8-2.5m8.6-36.1c-.9-.9-2.6-1.7-3.4-1.7-.9-.9-2.6-1.7-3.4-1.7-2.6 0-6-.9-8.6 0h-6c-2.6 0-4.3 0-6 2.6-1.7 1.7-1.7 2.6-3.4 4.3-.9.9-2.6 1.7-3.4 1.7-.9.9-1.7 1.7-1.7 2.6 0 0 0 1.7-1.7 2.6 0 1.7-1.7 1.7-3.4 2.6-1.7 0-2.6 1.7-3.4 2.6-1.7 1.7-1.7 3.4-3.4 5.2-1.7.9-4.3 3.4-4.3 5.2 0 .9 0 1.7 1.7 1.7h2.6c1.7-.9 3.4-.9 6-1.7h8.6c.9 0 1.7-1.7 2.6-2.6v-5.2c.9-1.7 1.7-3.4 2.6-5.2 1.7-.9 3.4-.9 5.2-1.7h3.4c1.7 0 1.7-2.6 2.6-4.3 0-1.7 1.7-3.4 3.4-3.4 0 0 1.7 0 1.7 1.7 1.7 1.7 1.7 6 3.4 6.9h5.2c2.6-.9 5.2-1.7 6-4.3.9-.9.9-2.6 0-4.3 1.4-2.7-1.2-2.7-2.9-3.6m-58.4 87.6c0-2.6-.9-5.2-1.7-6.9v-23.2c0-2.6 3.4-6 1.7-8.6-1.7-1.7-4.3 0-6 0-6.9 0-12.9 0-19.7-1.7H253c-2.6 0-6 0-6 1.7s6 3.4 6.9 4.3c1.7 0 15.5 4.3 15.5 5.2 0 0 1.7 1.7 1.7 2.6s1.7 23.2 1.7 25.8c0 3.4.9 6 2.6 9.4.9 4.3 3.4 7.7 6 11.2 1.7 1.7 3.4 4.3 5.2 2.6 1.7 0 0-1.7 0-3.4.6-2.7-4.5-17.3-4.5-19m-20.6-1.7v-16.3c0-1.7 0-3.4-2.6-3.4-1.7 1.7-2.6 4.3-2.6 6.9v21.5c0 1.7.9 4.3 1.7 6 0 1.7 3.4 4.3 5.2 3.4v-3.4c-.8-6.1-.8-10.4-1.7-14.7m-10.3-76.4c0-1.7 0-3.4 1.7-5.2l1.7-8.6c.9-3.4 2.6-6 4.3-9.4 0-1.7 1.7-2.6 2.6-5.2v-5.2c0-.9-.9-1.7-1.7-2.6-1.7-2.6-2.6-5.2-3.4-6.9v-8.6c0-1.7 0-1.7-1.7-2.6H253c-1.7.9-3.4 1.7-4.3 3.4-1.7 2.6-2.6 6.9-6 6.9h-5.2c-1.8 0-1.7 4.3-1.7 6s1.7 1.7 3.4 1.7 2.6.9 4.3 1.7c.9.9 1.7 2.6 1.7 3.4v5.2c-.9 1.7-.9 3.4-1.7 5.2 0 1.7 1.7 2.6 1.7 4.3s-3.4 5.2-5.2 5.2h-5.2c-2.6 0-8.6-6.9-9.4-8.6-.9-.9-1.7-1.7-1.7-2.6 0 0-4.3-2.6-5.2-3.4-1.7-1.7-3.4-3.4-6-3.4s-2.6 1.7-3.4 1.7c-2.6 1.7-6.9 0-6.9 4.3 0 1.7 3.4 2.6 5.2 3.4 1.7 0 4.3.9 6 1.7 0 0 6.9 6 8.6 6.9s4.3 1.7 6.9 2.6c1.7 0 1.7 1.7 3.4 1.7 1.7 1.7 8.6 6 9.4 6.9 2.6 1.7 3.4 4.3 6 5.2 2.6-.8 2.6-2.5 3.5-5.1.9 0 0 0 0 0m44.6-23.2c.9-2.6 2.6-4.3 4.3-6.9 0-1.7 1.7-2.6 1.7-3.4V244c0-1.7 1.7-6 0-6.9h-1.7c-1.7.9-3.4 1.7-5.2 1.7-1.7 0-3.4.9-4.3 2.6v6c0 1.7 0 3.4-1.7 5.2-1.7.9-3.4 2.6-6 2.6s-3.4 1.7-5.2 3.4v5.2c0 1.7-1.7 3.4-3.4 4.3 0 0-4.3 1.7-5.2 3.4v9.4c0 2.6 0 6.9 2.6 6.9 4.3-3.4 7.7-7.7 11.2-12.9 0 0 0-1.7 1.7-1.7.9 0 1.7-1.7 2.6-2.6.9-2.6.9-4.3 1.7-6.9 0-1.7 3.4-2.6 5.2-4.3 0-1.7.9-3.4 1.7-3.4m60.1 2.6c.9-1.7 2.6-3.4 2.6-6h-1.7c-1.7 0-2.6 0-4.3 1.7-3.4 0-5.2 1.7-8.6 3.4-1.7 0-3.4 1.7-3.4 2.6s3.4 1.7 5.2 1.7c.9 0 2.6 1.7 4.3 1.7 2.5.9 5.1-1.7 5.9-5.1m92.7 65.2h-4.3c-1.7 0-2.6.9-3.4 1.7 0 1.7 1.7 5.2 3.4 5.2h3.4c1.7 0 1.7 0 2.6-1.7v-5.2zm-29.2-5.1c-2.6 0-5.2 2.6-6.9 3.4-.9.9-2.6 1.7-3.4 1.7-1.7 0-4.3 0-6-1.7h-7.7c-1.7 0-4.3 1.7-3.4 4.3 0 1.7 2.6 0 5.2 0h3.4c3.4 1.7 6.9 2.6 11.2 3.4 1.7.9 4.3 0 6-1.7s3.4-3.4 6-4.3c1.7 0 3.4 0 3.4-1.7s-5.2-3.4-7.8-3.4m-56.6-14.6c0-.9-.9-2.6-2.6-2.6-.9 0-1.7.9-2.6 1.7-1.7.9-2.6 2.6-4.3 3.4-1.7 1.7-2.6 2.6-1.7 4.3 0 4.3 6.9 0 8.6 0 .9-2.5 2.6-5.1 2.6-6.8M191.1 167.6c0 1.7 1.7 1.7 1.7 3.4s.9 2.6 1.7 4.3c.9.9 3.4.9 4.3 0 0-2.6-3.4-6-3.4-8.6 0-1.7 1.7-1.7 2.6-3.4s-1.7-5.2 0-6.9c0-1.7 1.7-1.7 4.3-2.6 3.4-.9 6-2.6 8.6-5.2 1.7 0 3.4-1.7 3.4-3.4V140c0-.9-1.7-1.7-1.7-1.7-1.7 0-2.6 1.7-3.4 2.6-2.6 2.6-5.2 6.9-10.3 6.9h-3.4c-1.7 0-2.6 2.6-3.4 4.3 0 0 0 1.7-1.7 2.6v2.6c0 1.7.9 3.4 1.7 5.2-1.9 1.7-1 4.2-1 5.1m182.8 151.1c-2.6 0-6 1.7-8.6 2.6h-5.2c-.9 0-2.6.9-2.6 2.6s1.7 1.7 2.6 1.7h9.5c1.7 0 2.6 4.3 6 3.4 0 0 1.7-1.7 2.6-3.4v-6c1.8.8-2.5-.9-4.3-.9m18.1-15.5c-1.7-3.4-3.4-6-6-8.6-.9-.9-2.6-1.7-4.3-1.7h-5.2c-.9 0-1.7.9-1.7 1.7 0 .9.9 1.7 1.7 1.7l1.7 1.7c.9.9 2.6 1.7 3.4 2.6.9 1.7 1.7 4.3 2.6 6 0 1.7 2.6 4.3 4.3 4.3s3.4-3.4 3.4-4.3c.9-1.7.9-2.5.1-3.4m73.8 30.1h-6c-1.7.9-2.6 1.7-3.4 3.4 0 1.7-1.7 2.6-3.4 3.4-2.6.9-6 .9-8.6 1.7H441c-2.6-1.7-2.6-6-6.9-6-1.7 0-2.6 1.7-4.3 1.7s-3.4 0-4.3 1.7c0 1.7 0 1.7 1.7 2.6 0 0 1.7 1.7 1.7 2.6s-3.4 1.7-5.2 1.7h-8.6c-2.6 0-6 0-8.6-1.7-1.7-1.7-3.4-4.3-6-6s-6-2.6-8.6-2.6-5.2.9-6.9 2.6-2.6 4.3-5.2 6c-.9.9-2.6 1.7-5.2 1.7h-3.4c-1.7-.9-3.4-2.6-4.3-5.2 0-1.7-2.6-4.3-5.2-4.3-1.7 0-3.4 1.7-4.3 3.4-1.7 1.7-1.7 3.4-4.3 3.4-1.7 0-3.4-.9-4.3-2.6s-1.7-3.4-3.4-4.3h-6.9c-1.7 0-11.2 2.6-11.2 2.6s-4.3 0-5.2-1.7c-1.7 0-1.7-1.7-3.4-3.4 0-1.7-1.7-2.6-2.6-4.3-1.7-2.6-1.7-6-3.4-9.4 0-1.7-1.7-1.7-2.6-3.4-1.7-1.7-6-2.6-8.6-4.3-1.7 0-2.6-1.7-5.2-1.7s-4.3 2.6-5.2 6c-.9 4.3-1.7 8.6-1.7 12s0 6.9 1.7 10.3c0 3.4.9 6.9 1.7 10.3 0 3.4.9 6 1.7 9.4.9 6 3.4 11.2 6 16.3 3.4 3.4 7.7 5.2 12 6 2.6 1.7 15.5 6.9 17.2 8.6 0 0 2.6 1.7 1.7 2.6s-6 0-6.9 0c-9.4-3.4-19.7-4.3-30-3.4-1.7 0-4.3 0-5.2 1.7 0 .9 0 2.6 1.7 3.4 1.7 1.7 2.6 4.3 2.6 6.9v4.3c-.9 0-1.7 0-4.3-1.7-1.7-.9-17.2-10.3-33.5-10.3-11.2.9-23.2 4.3-33.5 10.3-1.7 0-2.6 1.7-4.3 1.7s0-1.7 0-3.4c0-2.6 1.7-5.2 2.6-6.9.9-.9.9-2.6 1.7-3.4 0-1.7-6-1.7-6.9-1.7h-17.2c-1.7 0-12 1.7-13.7 1.7s-4.3 1.7-5.2 0c0 0 1.7-1.7 1.7-2.6 1.7-1.7 4.3-2.6 6-3.4 1.7 0 6.9-2.6 8.6-3.4 1.7-.9 3.4-1.7 6-1.7 4.3-.9 6.9-3.4 10.3-6 .9-1.7 2.6-3.4 3.4-6 0-1.7 1.7-4.3 1.7-6s1.7-4.3 1.7-6c0-2.6.9-4.3 1.7-6.9 0-5.2 1.7-9.4 1.7-14.6 0-2.6.9-4.3 1.7-6.9v-8.6c0-1.7 0-1.7-1.7-3.4-.9-1.7 0-2.6-1.7-3.4-.9-1.7-2.6-2.6-4.3-2.6s-3.4.9-5.2 1.7c-1.7 0-2.6 1.7-5.2 1.7h-3.4c-3.4 0-6 .9-8.6 1.7-2.6 1.7-4.3 6-3.4 8.6 0 1.7 1.7 2.6 2.6 3.4.9.9 3.4 1.7 3.4 2.6s-5.2 3.4-6 4.3c-1.7.9-4.3.9-6 1.7h-8.6c-3.4 0-8.6-1.7-11.2 0-1.7 1.7-2.6 3.4-2.6 6s-1.7 5.2-5.2 6c-1.7 0-5.2-1.7-6.9-1.7s-4.3 0-6 1.7c-1.7 0-3.4 1.7-6 1.7s-5.2-2.6-6.9-4.3l-2.6-2.6c-.9-.9-2.6-1.7-3.4-1.7-1.7 0-4.3 1.7-6 3.4-1.7 0-4.3 2.6-6 2.6s-2.6-1.7-4.3-1.7-3.4 1.7-6 1.7c-3.4 0-4.3-5.2-6.9-6h-4.3c-2.6-1.7 0-6.9 0-9.4 0 0 1.7-1.7 0-2.6 0-1.7-4.3-2.6-6-3.4h-2.6c-1.7 0-2.6 1.7-4.3 1.7s-6 3.4-6.9 4.3c-2.6 2.6-6 3.4-8.6 2.6-1.7 0-6-3.4-6.9-3.4-2.6 0-2.6 4.3-6 5.2-3.4 0-6 0-8.6-1.7-4.3-2.6 1.7-5.2 1.7-8.6 0-2.6-1.7-5.2-1.7-6.9s3.4-4.3 5.2-6l1.7-6c0-1.7 1.7-1.7 3.4-1.7h6c1.7 0 6-2.6 5.2-4.3 0-1.7-3.4-2.6-5.2-2.6-1.7 0-5.2-1.7-5.2-3.4s.9-3.4 1.7-5.2c0-1.7.9-2.6 1.7-4.3 0-1.7 1.7-2.6 3.4-3.4 1.7-.9 3.4-1.7 5.2-1.7 1.7 0 2.6 1.7 4.3 3.4s2.6 5.2 6 3.4c.9-.9 1.7-2.6 1.7-3.4v-6c1.7-1.7 5.2-1.7 6.9-3.4h2.6c1.7 0 1.7 3.4 2.6 6 0 1.7 1.7 6 2.6 6s1.7-1.7 2.6-2.6c.9-1.7 2.6-4.3 5.2-6 .9 0 1.7-.9 2.6-2.6s.9-3.4 1.7-5.2c0-2.6-4.3-3.4-6.9-4.3-1.7 0-2.6-.9-4.3-1.7-2.6 0-5.2 0-6-3.4v-5.2c0-3.4 0-6.9 3.4-6.9h4.3c1.7 0 2.6 0 2.6-1.7v-5.2c0-.9-1.7-2.6-2.6-4.3v-5.2c0-2.6-4.3-5.2-2.6-9.4.9-1.7 2.6-2.6 5.2-2.6h5.2c1.7-1.7 1.7-4.3 1.7-6.9s-1.7-6 0-8.6c0-1.7 2.6-1.7 5.2-2.6 3.4-1.7 6-5.2 9.4-6h4.3c1.7 0 2.6-1.7 4.3-1.7s2.6 4.3 3.4 6 1.7 6 3.4 6 6-1.7 6-3.4v-11.2c0-2.6 1.7-5.2 3.4-6 1.7 0 1.7-1.7 3.4-1.7 0 0 1.7-1.7 2.6-1.7.9-.9 1.7-2.6 2.6-4.3 1.7-1.7 3.4-1.7 6-1.7 1.7 0 1.7 2.6 3.4 4.3.9 2.6 3.4 4.3 6 4.3 1.7 0 2.6-2.6 3.4-5.2.9-4.3 1.7-8.6 1.7-12 0-1.7-.9-3.4-1.7-5.2-.9-2.6-1.7-5.2-1.7-6.9s1.7-1.7 2.6-3.4c1.7 0 1.7-1.7 3.4-3.4s1.7-8.6 5.2-8.6c3.4-1.7 6.9 1.7 9.4 0 1.7 0 1.7-2.6 2.6-5.2.9-1.7 1.7-4.3 3.4-6 .9-.9 2.6-1.7 3.4-1.7 1.7 0 2.6-.9 4.3-1.7h1.7c1.7-1.7 1.7-3.4 2.6-3.4h11.2c1.7 0 2.6-1.7 5.2-3.4s6-1.7 8.6-1.7h6.9c2.6 0 4.3-4.3 6-5.2 2.6 0 5.2 0 6.9 1.7 1.7 0 1.7 2.6 4.3 2.6 1.7 0 3.4-2.6 4.3-4.3 1.7-1.7 1.7-5.2 5.2-5.2h3.4c1.7 0 4.3 0 6 1.7h2.6c1.7 0 3.4-1.7 5.2-1.7h2.6c3.4 2.6 6 6 6.9 11.2 0 1.7 2.6 2.6 3.4 4.3.9.9 1.7 2.6 2.6 4.3 0 0 1.7 1.7 2.6 1.7h8.6c1.7 0 3.4 1.7 6 1.7 1.7 0 3.4-.9 5.2-2.6 1.7-1.7 1.7-4.3 3.4-5.2h3.4c5.2 2.6 8.6 5.2 12.9 6.9 1.7 1.7 3.4 2.6 4.3 4.3v6.9c0 2.6.9 5.2 2.6 6.9.9 2.6 1.7 6 1.7 8.6 0 1.7 2.6 3.4 4.3 6 0 0 1.7 1.7 1.7 2.6.9.9 2.6 2.6 3.4 4.3 0 2.6.9 4.3 1.7 6.9 0 1.7 4.3 2.6 6.9 3.4 2.6.9 4.3 1.7 4.3 2.6v3.4c0 2.6-1.7 4.3-1.7 6.9v3.4c0 2.6 6 0 6.9 0s2.6-1.7 3.4-1.7c.9-.9 2.6-.9 4.3 0 1.7 0 4.3 3.4 6 5.2l2.6 2.6c3.4 1.7 6.9 4.3 10.3 6 2.6 0 5.2 1.7 6.9 3.4s5.2 2.6 6 6c.9 3.4.9 6 0 8.6-.9 1.7-1.7 4.3-3.4 6s-4.3 2.6-4.3 5.2 5.2 5.2 6.9 6c1.7.9 2.6 1.7 4.3 1.7s2.6 1.7 3.4 2.6c0 1.7-.9 4.3-1.7 6 0 1.7-1.7 3.4-1.7 6v4.3c1.7 1.7 6 0 6.9-1.7.9-.9 1.7-1.7 2.6-1.7.9-.9 2.6-1.7 3.4-1.7 1.7 0 2.6 3.4 2.6 6 0 3.4 1.7 6 3.4 8.6 1.7.9 3.4 1.7 6 1.7 1.7.9 4.3 2.6 5.2 5.2 0 1.7.9 3.4 0 5.2v6c0 1.7-1.7 2.6-2.6 3.4 0 .9-1.7 0-3.4 1.7-3.4 1.7-6.9 2.6-10.3 2.6-2.6 0-5.2.9-6.9 1.7-2.6 0-4.3 2.6-4.3 5.2s6 1.7 6.9 2.6c1.7 0 1.7 5.2 5.2 6h5.2c.9 0 1.7-1.7 2.6-1.7.9-.9 2.6-1.7 4.3-1.7s3.4.9 5.2 1.7h4.3c1.7 0 3.4 4.3 6 6 3.4 2.6 6 3.4 6.9 6.9 0 0 1.7 6 1.7 6.9.4.7-2.1 1.6-4.7 1.6m-353.7-35.2c1.7 0 1.7-1.7 1.7-3.4s0-3.4 1.7-4.3c0-1.7 3.4-3.4 4.3-5.2 1.7-1.7 2.6-4.3 3.4-6V274c0-1.7-.9-4.3-2.6-6-1.7 0-1.7 1.7-1.7 4.3 0 3.4-1.7 6-3.4 9.4l-4.3 4.3c-1.7 1.7-4.3 3.4-3.4 6.9.9 2.6 3.5 6 4.3 5.2m37.8 12v2.6c0 2.6 0 6.9 1.7 6.9s2.6-.9 3.4-1.7v-11.2c0-.9-1.7-1.7-2.6-1.7-2.5.8-1.6 2.5-2.5 5.1m-12-54.1c-1.7-1.7-2.6-1.7-3.4-1.7s-1.7 0-1.7 1.7.9 3.4 2.6 5.2c.9.9 2.6 2.6 5.2 2.6 1.7 0 1.7-3.4 1.7-6-2.7-.1-3.6-.9-4.4-1.8m105.6 103.9c-1.7 0-5.2 9.4-6 11.2-.9 1.7-1.7 3.4 0 5.2 0 .9 1.7 1.7 2.6.9h.9c1.7 0 1.7-1.7 3.4-4.3.9-2.6 1.7-5.2 1.7-6.9-.1-4.4-.1-7-2.6-6.1m-96.2-138.2c.9 0 2.6 0 3.4-1.7 2.6-1.7 4.3-1.7 6-3.4 2.6-1.7 6-3.4 8.6-4.3 1.7 0 6 0 6-1.7s-1.7-4.3-2.6-5.2-2.6-2.6-2.6-5.2c0-1.7 1.7-1.7 2.6-1.7s2.6 0 3.4-1.7l9.4-1.7c2.6 0 2.6-5.2 5.2-6 1.7-.9 5.2 0 6-1.7V184c-.9-.9-2.6-1.7-5.2-2.6-1.7 0-10.3 8.6-11.2 8.6s-1.7-1.7-3.4-1.7c-3.4-.9-6.9 0-9.4 1.7 0 0-2.6 2.6-2.6 3.4v5.2c0 .9 1.7 2.6 0 5.2 0 1.7-6.9 6-8.6 6h-6c-2.6 1.7-4.3 5.2-3.4 8.6 1.9 3.3 2.7 3.3 4.4 3.3m-26.6 30c5.2 0 6-6 8.6-6.9.9-.9 2.6-1.7 4.3-1.7 4.3 0 6.9 1.7 11.2 1.7 1.7 0 3.4-.9 5.2-1.7 1.7 0 2.6-2.6 4.3-4.3s4.3-3.4 6.9-4.3h5.2c.9 0 2.6-.9 3.4-1.7 4.3-1.7 1.7-4.3-1.7-5.2-1.7-.9-3.4-.9-6-1.7h-6c-1.7.9-3.4 2.6-5.2 4.3-2.6 2.6-6 4.3-9.4 4.3h-8.6c-1.7 0-3.4 0-5.2 1.7-1.7 1.7-3.4 2.6-5.2 4.3-1.7 1.7-3.4 2.6-3.4 6-.1 4.3-.1 4.3 1.6 5.2m1.7-32.6s1.7 1.7 2.6 1.7c1.7 0 6 1.7 6.9 0 0-1.7 0-2.6-1.7-4.3 0-1.7-1.7-2.6-2.6-3.4-1.7 0-2.6-1.7-4.3-1.7s-2.6 1.7-3.4 2.6c-.9 2.5 0 4.2 2.5 5.1m19.8 78.1c1.7-1.7 1.7-4.3 0-6-.9-.9-1.7-2.6-2.6-3.4-.9-.9-1.7-2.6-2.6-3.4 0-1.7-1.7-3.4-3.4-2.6-1.7.9-2.6 1.7-3.4 3.4 0 .9-.9 1.7-1.7 2.6v4.3c.9 1.7 1.7 2.6 2.6 4.3 1.7 1.7 4.3 3.4 6 3.4 2.5-.9 4.2-.9 5.1-2.6m34.3-29.2c1.7-.9 3.4-3.4 4.3-6 0 0 0-1.7-1.7-2.6 0 0-1.7-1.7-2.6-1.7h-1.7c-1.7 0-3.4 0-3.4 1.7v3.4c0 1.7-3.4 3.4-5.2 4.3h-9.5c-1.7 0-3.4 1.7-3.4 3.4l1.7 1.7h15.5c.9-1.6 3.4-3.3 6-4.2m-21.4 61h-8.6c-1.7 0-6 0-6 2.6 0 1.7 1.7 3.4 3.4 4.3s3.4 1.7 6 1.7h6.9c1.7 0 6-2.6 5.2-5.2-2.7-1.7-5.2-2.6-6.9-3.4m70.3-38.7c-2.6-2.6-6-5.2-9.4-6.9-2.6-.9-6-2.6-9.4-2.6-1.7 0-4.3-1.7-6 0-1.7.9 0 3.4-1.7 5.2 0 1.7-1.7 2.6-3.4 2.6s-2.6-1.7-5.2 0-3.4 5.2-6 6c-3.4 0-4.3-2.6-6.9-3.4h-8.6c-.9.9-1.7 1.7-1.7 3.4s2.6 1.7 4.3 1.7c3.4.9 6 2.6 9.4 4.3.9 1.7 2.6 2.6 4.3 3.4h8.6c1.7 0 1.7-1.7 3.4-2.6 1.7-1.7 4.3-3.4 6.9-5.2 1.7 0 2.6-1.7 4.3-1.7h12c1.7.9 3.4 1.7 5.2 1.7 1.7 0 3.4 0 5.2-1.7.7-1.6-2.7-2.4-5.3-4.2M125 304.9c-1.7 0-5.2 3.4-5.2 5.2 0 .9 1.7 1.7 1.7 2.6.9.9 1.7 1.7 1.7 2.6 1.7 1.7 5.2 6 6.9 2.6v-5.2c0-1.7 0-4.3-1.7-6 .9-.9-.8-1.8-3.4-1.8m56.7 10.3c0-1.7-1.7-1.7-1.7-1.7-2.6 0-4.3 1.7-4.3 4.3v2.6c0 2.6-2.6 3.4-2.6 6 0 1.7 1.7 1.7 2.6 2.6h4.3c1.7 0 1.7-2.6 1.7-4.3s-1.7-5.2 0-6c-.9-2.6-.9-2.6 0-3.5-.9 0 0 0 0 0m-61 12H119c-1.7-1.7-1.7-3.4-2.6-6-.9-1.7-1.7-3.4-2.6-5.2 0-1.7-1.7-1.7-3.4-3.4-.9-.9-2.6-1.7-4.3-1.7s-2.6 1.7-2.6 4.3c0 1.7 1.7 2.6 3.4 2.6s3.4.9 4.3 2.6c1.7 2.6 0 8.6 1.7 10.3.9 1.7 2.6 1.7 6 2.6h4.3c2.6 0 5.2 0 4.3-3.4-3.4-1.8-5.1-2.7-6.8-2.7"/></svg>