<svg xmlns="http://www.w3.org/2000/svg" baseProfile="tiny" viewBox="0 0 510.2 510.2"><path fill="#E95314" d="M406.1 299c-.6-1.3-.6-1.9-2.1-3.7-1.2-1.4-4.9-2.7-6.4-6.6-1.8-1.5-5.9-2.3-5.9-2.3s-1.4-.2-2.1.4c-.8.6-1 1.5-2.1 2.3s-4.1 1.1-4.7 0c-.6-1.2-.7-1.1-1.4-1.8-.8-.9-1.1-1.9-1.9-2-2.8-.6-3.9-.6-4.3-.5.9-.2 4.5-1 5.5-1 1.5 0 4.6-1.5 6-2 1.1-.4 1.4-.6 2.9-1.4 1-.5 5.8-1.8 4.9-9.4-1-8.3-6.8-7.6-10.7-11.6-.9-2.6-.3-3.5-.3-4.5-.1-1.6-.3-1.6-.7-2.6-.9-.8-.5-1.5-3.5 0-2 2.1-7 2.6-5.7-.4 1.5-1.9 3.3-4.1 3.3-4.1s.3-1.3-1.9-4.4c-4.1-3-7.5-4.8-7.5-4.8s-1.5-.7 2.3-3c2.3-2.4 3.5-10 .1-13.2-5.5-3.1-9.4-4.7-9.4-4.7s-4.9-1.8-7.9-4.8c-1.9-1.9-2.4-2.1-3.7-2.9s-3.1-1.7-5.5-.2c-1.8 1.1-4.8.1-4.8.1l1.1-4.3s2.7-4.9-.7-6.5c-3-.4-4.6-.7-4.6-.7s-3.9-.3-3.7-3.1-6-9.2-6.2-10.4c-.3-2.2-1.4-6-2.7-7.5-.7-.8-1.7-1.9-1.7-3.3 0-1-.9-9.2-7.2-11.8-2.8-1.5-7.1-5.5-8.8-3.4 0 0-2.3 5.6-6.8 4.7-.9-.2-8.3-1.8-8.3-1.8s-6.5-6.2-6.7-7-2.8-6.5-5.3-7.5c-2.6-1.9-6.5 1.6-10.6-.2-1.1.4-4.9.6-4.9.6s-1.5-.2-2.3 1.6c-.8 1.9-1.1 3.8-3.1 3.7-2 .6-4.5-1.4-4.5-1.4s-2.5-.9-6.6 1.5c-.6 1.3-3.4 0-3.4 0s-6 .2-10.8 3.1c-1.5.6-8.1.5-8.1.5s-2.6 1.4-3.5 3.2l-1.4.4s-6 .4-8.5 8.2h-5.7s-4.5.6-4.5 4.5c-.2 1.7-1.6 3.8-2.9 4.6s-3.6 2.8-3.6 2.8-1.5 1.9.9 5.9c.9 2.6 1.8 3.7 2 5.2.1 1.1-.3.8.1 5.4 0 0-1.5 3.9-4.7.7-1.3-2.3-1.5-4.9-7.3-2.2-2.8 1.1-3.4 3.3-3.4 3.3s-3.7 2.6-5.9 3.1c-1.5 1.5-3.2 2.7-3.4 5.4-.2 2.6 2 8.6 2 8.6s-5.2-3.4-4.4-7.3c-1.3-2.1-2.8-1.5-3.8-.5-1.1.6-5.4 1.4-5.4 1.4s-1.5.6-2.8 1.5-2.2 2-3.3 1.9c-1.1-.2-2.8.4-3.6.8s-1.1.4-1.9 1.9-.7 4.9-.7 4.9l-.2 5.1-2.8.2s-2.1.7-3 1.8-3.3 3.3-2.6 5.7c1.7 1.5 2.4 3 2 6.4-.2 2.3 1.7 3 2.1 4 .4.9 2.8 2.9 2.8 2.9l-6.3-.9s-1.6.9-2.2 3.1c-.6 2.3-1.3 6.6-1 7.7.4 1.1.1 2.6 4.9 3.3 2.1.6 5.2 2.1 5.2 2.1s2.6 1.4.6 3.7l-1.7 1.3-1.6 1.6-1.1-.4.1-.7s-1.8-2.1-2.6-2.7-4.7-.1-4.7-.1-4.1.3-4.9 1.3c-.8.9-.7 2-.7 2l-.4 5.6-.7.2s-2.4-1.7-3.1-3.4c-.8-1.7-1-1.4-2-2-.9-.6-1.8-.7-2.9.3-1.1.9-4.3 3.4-5.3 5.5 0 0 .4.9-.2 2.1-.6 1.1-2.8 3.6-2.8 4.4s0 1.9 1.1 2.5 4.5 1.5 4.5 1.5 1.3 1.9.2 1.9h-4.9s-3.1-.5-3.3 2.9c-.2 1.9-.2 3.2-.2 3.2s-.2.9-1.9 1.9c-1.3.7-2.5 2.6-2.7 3.4s.5 1.8 1.1 2.7 1 2.2.6 3-2.6 3-2.6 3-.6 1.9.2 2.7 3.2 2.2 4.4 2.4c1.1.2 3.8.2 4.9-.1 1.1-.4 1.7-1.3 2.7-2 .2-.8 2.5-.7 3.3-.1s3.1 1.6 4.6 1.8 1.8-.6 3.5-1.1c1.5-1.3 3.6-2.8 4.9-3.5 1.3-.8 3.5-1.8 4.4-1.3 1.1.3 1.6 1.1 1.8 2.1.2.9-.4 1.9-.6 3s-.1 3.4.8 5.4c.4.8 1 .6 1.9.7 1.8-.5 1.8 0 2.7.1.8 0 2.3 2.2 3.1 3 .9.6 2.3.5 3.3.7.9.2 6.7.4 7.7 0 .9-.2 2.4-.8 2.4-.8s1.4-1.3 2.5-1.9 2.9.6 3.5 1.4 1 1 2 1.7c.9.8 1.6 1.6 2.7 2s2.8.1 2.8.1 1.9-.8 2.6-1.2c1.1-.2 2.5 0 3.5-.2.9 0 3.5.6 4.5.6 1 .2 2.2.7 4 .6.8 0 1.3-.1 2.4-.4 1.1-.4 1.9-1.7 2.3-2.5.3-.6.4-.9.9-1.9.4-1.5 2.1-2.1 2.1-2.1 1.6-.2 4.5.2 6.7.3 3.6.2 14.2 0 17.5-6.9 1.9-2.7-.7-5.9-.7-5.9s-1.2-1.7-1.5-2.4c1.1.1 2 .1 3.5-.4 1.5-.6 3-1.6 5.2-1.1.8.2 1.4 1.9 1.6 3.8s-.8 21.5-4.3 28.7c-3 4.2-4.9 5.6-4.9 5.6s-9.5 4.1-12.5 5.8-8.1 3.2-8.5 7c1.3 1.7 6.5-.2 13.6-.3 7.9.1 16 0 16.9.6.1.3-.3 2.6-1.4 4.8-.8 1.9-.7 3.4-.7 4.4 0 .9 1 3.1 3.7 1.9 8.5-3.8 16.4-7.5 27.8-7 12.7.3 17.2 4.5 24.1 7.4 4.2 2.4 3.9-3.5 3.7-4.4s-1-4.3-3.6-8c2.8.7 10.7.7 18.2.5 7.3.6 12.2.5 13.1-.2 0-.2-.2-5-11.2-9.3-8.1-2.7-10.3-4.3-10.3-4.3s-4.1-1.2-6.5-9.6c-1.1-4.1-2.4-10.5-2.6-19.4.4-2.3.8-5.8 1-6.1.4-.6 2.7-1.8 4.2-1 1.3.7 2.1 1.4 3.8 5.4 1.9 4.5 3.3 9 8.3 10.2 4.7 1.2 8.8-1.2 12.9-1.1 5.7.2 4.6 3.4 8.2 4.4 3.3.9 5-1.1 6.2-1.5s4-.6 5.9 1.4c1.9 2.1 4.6 2.2 8.2.3 1.5-1.1 4.6-4.6 5.7-5.4s4.5-2.6 9.3 2.7c2.5 2.8 3.5 2.3 5.7 2.4 2.3.2 9.8-1.9 12-1.8 1.5 0 6.3-1.1 4.2-4.5-.7-2.2 2.8-2.5 4.4 0 .9 1.4 1.8.8 3.7.6 4.4-.5 5.2-.3 5.2-.3 1.6-.4 4.2-1.2 4.5-2 1.6-3.3 3.7-3 3.7-3l2.5-.3s4.4.2 4.8-1.9c.7-2.2-.3-5.6-.8-6.8m-255.7-3.7c-.2.4-.3.7-.9 1.8 0 .1-.1.1-.2.2-.6.6-2 .5-2.1.5-1.3 0-2.8-.4-3-.5-2-1.2-2.8-4-3.3-6.9 0 0-.1-.6-.2-1.3s-.2-1.4-.2-1.8c-.2-.8 0-1 .5-1.2s1.1-.3 1.5-.4 1-.1 1.5 0c1.6.4 8.7 6 6.4 9.6m27.2-67.2s.4-.4 1-.9c.5-.5 1.1-.9 1.4-1.2.6-.6.8-.6 1.3-.3.4.3.9.7 1.2 1s.6.8.8 1.2c.6 1.6-.2 10.6-4.4 10.7-.4.1-.7.1-2 .3-.1.1-.1 0-.3-.1-.8-.2-1.5-1.4-1.6-1.5-.7-1.1-1.2-2.6-1.2-2.8-.2-2.2 1.7-4.4 3.8-6.4m-4.3 58.1c-.6.3-1 .6-2.7 1.4-.1.1-.2 0-.4.1-1.3.2-2.9-1.1-3-1.2-1.6-1.1-3.1-2.9-3.2-3.2-1.4-3.2.1-7.3 2-11.3l.9-1.8c.5-.9 1-1.9 1.3-2.4.5-1.1.9-1.2 1.7-1s1.6.6 2.2.8 1.3.8 1.8 1.3c1.6 1.9 5.4 14.9-.6 17.3m7 22.7c-.4.1-.7.1-2 .3-.1.1-.1 0-.3-.1-.8-.2-1.5-1.4-1.6-1.5-.7-1.1-1.2-2.6-1.2-2.8-.1-2.3 1.8-4.5 3.9-6.6 0 0 .4-.4 1-.9.5-.5 1.1-.9 1.4-1.2.6-.6.8-.6 1.3-.3s.9.7 1.2 1 .6.8.8 1.2c.5 1.8-.2 10.8-4.5 10.9m12.4-29.6s-.5.3-1.1.7-1.2.8-1.6.9c-.6.5-.9.4-1.3 0s-.7-.9-1-1.2-.5-.9-.6-1.4c-.3-1.6 1.9-10.4 6.2-9.8.4 0 .8 0 2 .1.1 0 .1.1.3.1.8.3 1.3 1.6 1.3 1.7.5 1.2.8 2.7.8 2.9-.3 2.5-2.6 4.4-5 6m5.3-24c-.2.4-.3.7-.9 1.8 0 .1-.1.1-.2.2-.6.6-2 .5-2.1.5-1.3 0-2.8-.4-3-.5-2-1.2-2.8-4-3.3-6.9 0 0-.1-.6-.2-1.3s-.2-1.4-.2-1.8c-.2-.8 0-1 .5-1.2s1.1-.3 1.5-.4 1-.1 1.5 0c1.6.4 8.7 6 6.4 9.6m20.1 28.2c-.2.4-.3.7-.9 1.8 0 .1-.1.1-.2.2-.6.6-2 .5-2.1.5-1.3 0-2.8-.4-3-.5-2-1.2-2.8-4-3.3-6.9 0 0-.1-.6-.2-1.3s-.2-1.4-.2-1.8c-.2-.8 0-1 .5-1.2s1.1-.3 1.5-.4 1-.1 1.5 0c1.6.4 8.7 6 6.4 9.6m-3.5-70.4c-.3-.6-.7-.9-1.6-2.6-.1-.1 0-.2-.1-.4-.3-1.2 1-2.9 1-3.1 1-1.7 2.7-3.2 3-3.4 3.1-1.6 7.3-.4 11.4 1.3 0 0 .8.3 1.8.8 1 .4 1.9.9 2.4 1.2 1.2.4 1.3.8 1.1 1.6-.1.8-.5 1.6-.7 2.2s-.7 1.3-1.2 1.9c-1.6 1.7-14.3 6.3-17.1.5m9.3 42.8c-.6.5-.9.4-1.3 0s-.7-.9-1-1.2-.5-.9-.6-1.4c-.3-1.6 1.9-10.4 6.2-9.8.4 0 .8 0 2 .1.1 0 .1.1.3.1.8.3 1.3 1.6 1.3 1.7.5 1.2.8 2.7.8 2.9-.3 2.3-2.5 4.2-5 5.8 0 0-.5.3-1.1.7-.6.5-1.2.9-1.6 1.1m18 10.7c-.7 3.4-4.2 6-8.1 8.1 0 0-.8.4-1.7.9s-1.9 1-2.4 1.2c-1 .7-1.4.5-1.9-.1s-1-1.4-1.3-1.9-.6-1.4-.8-2.1c-.2-2.5 4.1-15.3 10.3-13.9.7.1 1.1.1 3 .4.1-.1.2.1.4.2 1.1.5 1.7 2.6 1.8 2.7.5 1.8.7 4.1.7 4.5m-2.9-82.5c-.4.1-.7.1-2 .3-.1.1-.1 0-.3-.1-.8-.2-1.5-1.4-1.6-1.5-.7-1.1-1.2-2.6-1.2-2.8-.1-2.3 1.8-4.5 3.9-6.6 0 0 .4-.4 1-.9.5-.5 1.1-.9 1.4-1.2.6-.6.8-.6 1.3-.3.4.3.9.7 1.2 1s.6.8.8 1.2c.5 1.8-.2 10.8-4.5 10.9m48.5.3c.7.1 1.1.1 3 .4.1-.1.2.1.4.2 1.1.5 1.7 2.6 1.8 2.7.7 1.8.8 4.2.8 4.5-.7 3.4-4.2 6-8.1 8.1 0 0-.8.4-1.7.9s-1.9 1-2.4 1.2c-1 .7-1.4.5-1.9-.1s-1-1.4-1.3-1.9-.6-1.4-.8-2.1c-.4-2.5 4-15.3 10.2-13.9m-29.8 11.2s.4-.4 1-.9c.5-.5 1.1-.9 1.4-1.2.6-.6.8-.6 1.3-.3s.9.7 1.2 1 .6.8.8 1.2c.6 1.6-.2 10.6-4.4 10.7-.4.1-.7.1-2 .3-.1.1-.1 0-.3-.1-.8-.2-1.5-1.4-1.6-1.5-.7-1.1-1.2-2.6-1.2-2.8-.2-2.2 1.7-4.4 3.8-6.4m-3.2 80.6c-.4.1-.7.1-2 .3-.1.1-.1 0-.3-.1-.8-.2-1.5-1.4-1.6-1.5-.7-1.1-1.2-2.6-1.2-2.8-.1-2.3 1.8-4.5 3.9-6.6 0 0 .4-.4 1-.9.5-.5 1.1-.9 1.4-1.2.6-.6.8-.6 1.3-.3.4.3.9.7 1.2 1s.6.8.8 1.2c.5 1.8-.2 10.8-4.5 10.9m12.4-30.5c-.6.3-1 .6-2.7 1.4-.1.1-.2 0-.4.1-1.3.2-2.9-1.1-3-1.2-1.6-1.1-3.1-2.9-3.2-3.2-1.4-3.2.1-7.3 2-11.3l.9-1.8c.5-.9 1-1.9 1.3-2.4.5-1.1.9-1.2 1.7-1s1.6.6 2.2.8 1.3.8 1.8 1.3c1.6 1.9 5.3 14.9-.6 17.3m22.9 38.6c-.1.8-.5 1.6-.7 2.2s-.7 1.3-1.2 1.9c-1.8 1.7-14.5 6.3-17.3.5-.3-.6-.7-.9-1.6-2.6-.1-.1 0-.2-.1-.4-.3-1.2 1-2.9 1-3.1 1-1.7 2.7-3.2 3-3.4 3.1-1.6 7.3-.4 11.4 1.3 0 0 .8.3 1.8.8s1.9.9 2.4 1.2c1.3.4 1.4.8 1.3 1.6m4.7-23.2c-.4 1.2-1.3 2.5-1.5 2.7-1.8 1.5-4.7 1.3-7.6.8 0 0-.6-.1-1.3-.3-.7-.1-1.4-.3-1.8-.4-.8-.1-.9-.3-1-.9 0-.5.1-1.1.1-1.5s.2-1 .5-1.4c.9-1.4 8.6-6.1 11.2-2.8.3.3.6.5 1.4 1.5.1 0 .1.1.1.3.5.6-.1 1.9-.1 2m5.2-41.9c-.2.4-.3.7-.9 1.8 0 .1-.1.1-.2.2-.6.6-2 .5-2.1.5-1.3 0-2.8-.4-3-.5-2-1.2-2.8-4-3.3-6.9 0 0-.1-.6-.2-1.3s-.2-1.4-.2-1.8c-.2-.8 0-1 .5-1.2s1.1-.3 1.5-.4 1-.1 1.5 0c1.6.4 8.7 6 6.4 9.6m6.7 26c-.2-2.5 4.1-15.3 10.3-13.9.7.1 1.1.1 3 .4.1-.1.2.1.4.2 1.1.5 1.7 2.6 1.8 2.7.7 1.8.8 4.2.8 4.5-.7 3.4-4.2 6-8.1 8.1 0 0-.8.4-1.7.9s-1.9 1-2.4 1.2c-1 .7-1.4.5-1.9-.1s-1-1.4-1.3-1.9c-.5-.5-.8-1.3-.9-2.1m11.1 53.1c-.2.4-.3.7-.9 1.8 0 .1-.1.1-.2.2-.6.6-2 .5-2.1.5-1.3 0-2.8-.4-3-.5-2-1.2-2.8-4-3.3-6.9 0 0-.1-.6-.2-1.3s-.2-1.4-.2-1.8c-.2-.8 0-1 .5-1.2s1.1-.3 1.5-.4 1-.1 1.5 0c1.6.4 8.7 6 6.4 9.6m5.5-21.4c-.4.1-.7.1-2 .3-.1.1-.1 0-.3-.1-.8-.2-1.5-1.4-1.6-1.5-.7-1.1-1.2-2.6-1.2-2.8-.1-2.3 1.8-4.5 3.9-6.6 0 0 .4-.4 1-.9.5-.5 1.1-.9 1.4-1.2.6-.6.8-.6 1.3-.3.4.3.9.7 1.2 1s.6.8.8 1.2c.5 1.8-.2 10.8-4.5 10.9m23.4 18.9c-.6.3-1 .6-2.7 1.4-.1.1-.2 0-.4.1-1.3.2-2.9-1.1-3-1.2-1.6-1.1-3.1-2.9-3.2-3.2-1.4-3.2.1-7.3 2-11.3l.9-1.8c.5-1 1-1.9 1.3-2.4.5-1.1.9-1.2 1.7-1s1.6.6 2.2.8 1.3.8 1.8 1.3c1.6 1.9 5.4 14.9-.6 17.3m12.5-39c-.2.5-.5 1-.7 1.4s-.6.8-1 1.1c-1.4.9-10.2 2.6-11.4-1.5-.2-.4-.3-.7-.8-1.9-.1-.1 0-.1 0-.3-.1-.8.9-1.8 1-1.9.9-1 2.1-1.9 2.3-1.9 2.2-.7 4.9.5 7.4 2 0 0 .5.3 1.1.7l1.5 1c.8.5.8.8.6 1.3m6.9 43.1s-.5.3-1.1.7-1.2.8-1.6.9c-.6.5-.9.4-1.3 0s-.7-.9-1-1.2-.5-.9-.6-1.4c-.3-1.6 1.9-10.4 6.2-9.8.4 0 .8 0 2 .1.1 0 .1.1.3.1.8.3 1.3 1.6 1.3 1.7.5 1.2.8 2.7.8 2.9-.3 2.5-2.6 4.4-5 6"/></svg>