<svg xmlns="http://www.w3.org/2000/svg" viewBox="0 0 512 512"><path fill="#3ea43c" d="M284.1 348.3v-88.2c0-4.9 0-5.1 5-4.7 29.4 2.1 53 15.1 70.4 38.9 13.5 18.4 18.8 39.4 17.2 62.1-2.8 39.6-32.7 74.1-71.7 82.9-5.5 1.2-11.2 1.6-16.8 2.5-3.1.5-4.1-.6-4.1-3.8zM249 273.7c0 4.8-.1 9.6.1 14.4.1 3-.8 4.2-4 4.3-25.8.5-49.1-6.7-69.7-22.2-25.3-19-40.2-44.3-44.2-75.6-7.6-59.9 33.1-113.5 90.3-124 7.4-1.4 15-1.5 22.6-2.1 3.6-.3 5.2 1 5 5-.3 8.8-.2 17.7 0 26.5.1 3.4-.7 4.5-4.4 4.4-37.4-.4-68.2 24.6-75.8 61.3-8.5 41.4 20.8 83.2 62.4 89.1 4.8.7 9.8.8 14.7.8 2.4 0 3.1.9 3 3.1-.1 4.9 0 10 0 15"/><path fill="#c41730" d="M250 210.5c-16.3-.2-29.6-13.6-29.5-29.8.1-16.6 13.8-30.1 30.3-29.8 16.5.2 29.5 13.7 29.4 30.3 0 16.4-13.6 29.5-30.2 29.3"/></svg>