<?xml version="1.0" encoding="utf-8"?>
<!-- Generator: Adobe Illustrator 22.1.0, SVG Export Plug-In . SVG Version: 6.00 Build 0)  -->
<svg version="1.1" id="Layer_1" xmlns="http://www.w3.org/2000/svg" xmlns:xlink="http://www.w3.org/1999/xlink" x="0px" y="0px"
	 viewBox="0 0 512 512" style="enable-background:new 0 0 512 512;" xml:space="preserve">
<style type="text/css">
	.st0{fill:#3EA43C;}
	.st1{fill:#C41730;}
</style>
<path class="st0" d="M284.1,348.3c0-29.4,0-58.8,0-88.2c0-4.9,0-5.1,5-4.7c29.4,2.1,53,15.1,70.4,38.9
	c13.5,18.4,18.8,39.4,17.2,62.1c-2.8,39.6-32.7,74.1-71.7,82.9c-5.5,1.2-11.2,1.6-16.8,2.5c-3.1,0.5-4.1-0.6-4.1-3.8
	C284.1,408.1,284.1,378.2,284.1,348.3z"/>
<path class="st0" d="M249,273.7c0,4.8-0.1,9.6,0.1,14.4c0.1,3-0.8,4.2-4,4.3c-25.8,0.5-49.1-6.7-69.7-22.2
	c-25.3-19-40.2-44.3-44.2-75.6c-7.6-59.9,33.1-113.5,90.3-124c7.4-1.4,15-1.5,22.6-2.1c3.6-0.3,5.2,1,5,5c-0.3,8.8-0.2,17.7,0,26.5
	c0.1,3.4-0.7,4.5-4.4,4.4c-37.4-0.4-68.2,24.6-75.8,61.3c-8.5,41.4,20.8,83.2,62.4,89.1c4.8,0.7,9.8,0.8,14.7,0.8
	c2.4,0,3.1,0.9,3,3.1C248.9,263.6,249,268.7,249,273.7C249,273.7,249,273.7,249,273.7z"/>
<path class="st1" d="M250,210.5c-16.3-0.2-29.6-13.6-29.5-29.8c0.1-16.6,13.8-30.1,30.3-29.8c16.5,0.2,29.5,13.7,29.4,30.3
	C280.2,197.6,266.6,210.7,250,210.5z"/>
</svg>
