<?xml version="1.0" encoding="utf-8"?>
<!-- Generator: Adobe Illustrator 22.1.0, SVG Export Plug-In . SVG Version: 6.00 Build 0)  -->
<svg version="1.1" id="Layer_1" xmlns="http://www.w3.org/2000/svg" xmlns:xlink="http://www.w3.org/1999/xlink" x="0px" y="0px"
	 viewBox="0 0 512 512" style="enable-background:new 0 0 512 512;" xml:space="preserve">
<style type="text/css">
	.st0{fill:#06284E;}
	.st1{fill:#FFFFFF;}
</style>
<rect y="1" class="st0" width="512" height="511"/>
<g>
	<path class="st1" d="M213,283c-0.7-0.1-1.4-0.4-2-0.4c-3.7,0.2-4.3-1.8-4.3-5.1c0.2-19.6,0-39.2,0.1-58.9c0-2.3-0.4-3.4-3-3.1
		c-2.2,0.2-4.3,0.1-6.5,0.2c-3.4,0-6.9,0-10.3,0c-1.2,3.7-1,4.4,2.4,4.6c3.8,0.2,5,1.9,4.7,5.6c-0.3,3.6-0.1,7.3,0,11
		c0,1.9-0.3,2.7-2.5,1.9c-4.1-1.5-8.5-2-12.8-2.3c-9.9-0.8-18.3,4.9-21.2,14.5c-2.3,7.9-2.3,15.8-0.1,23.7c2.4,8.6,9,13.7,18,13.7
		c5.4,0,10.4-1.7,15.3-3.6c1.6-0.6,3.9-2.8,4,1.3c0,0.8,1.1,0.7,1.7,0.7c5.4,0.1,10.8,0.1,16.2,0.2c1.4,0,1.8-0.7,1.8-1.9
		C214.5,284.2,214.4,283.2,213,283z M194.1,248c-0.1,4.6,0,9.2,0,13.7c0,4.5-0.1,8.9,0,13.4c0,1.8-0.5,2.7-2.2,3.2
		c-3.4,1-6.8,2.2-10.3,2.4c-4.7,0.3-8.4-1.8-10.1-6.1c-3-7.7-3.2-15.6-0.2-23.5c1.8-4.7,5.4-7,10.4-7c3.3,0,6.6,0.3,9.9,0.8
		C193.5,245.3,194.2,246,194.1,248z"/>
	<path class="st1" d="M261.7,236.9c-6.5-0.7-12.8,0.4-19,2.3c-2.6,0.8-2.8,0.1-2.8-2.2c0.1-6.3,0-12.6,0.1-18.9
		c0-1.9-0.4-2.6-2.4-2.6c-5.2,0.1-10.3,0-15.5,0c-2,0-3.1,2.1-2.1,3.9c0.6,1,1.6,0.8,2.4,0.9c4.9,0.9,4.9,0.9,4.9,6
		c0,9.2,0,18.4,0,27.5c0,8,0,16.1,0,24.1c0,9.5,0,9.5,9.6,8.9c1.3-0.1,2.3-0.2,2.4-1.8c0.1-2.1,1.2-1.4,2.3-0.8
		c2.8,1.5,5.8,2.7,9,3.4c10.9,2.5,19.8-0.9,24.2-10.1c5-10.5,4.7-21.4-0.1-31.9C272.3,240.4,267.7,237.5,261.7,236.9z M263.3,273.1
		c-2,5.4-5.7,8-11.5,7.8c-0.7,0-1.4,0-2.1-0.1c-9-1.2-9.6-1.9-9.6-10.9c0-7.1,0-14.2,0-21.3c0-1.8,0.4-2.6,2.4-2.9
		c3.8-0.7,7.7-1.4,11.6-1.4c4.2,0,7.2,2,8.8,5.9c1.7,3.9,2.3,7.9,2.1,12.1C265,266,264.6,269.6,263.3,273.1z"/>
	<path class="st1" d="M474.7,282.3c-2.1-0.3-4.4-0.1-6.1-1.7c-7.2-6.9-14.4-13.8-21.7-20.7c-1.2-1.1-1-1.7,0.1-2.6
		c3.5-2.8,7-5.6,10.3-8.6c3.3-2.9,6.6-5.7,11.3-5.7c2.1,0,2.1-1.5,2.1-3.1c-0.1-2.1-1.6-1.5-2.8-1.5c-6.7,0-13.3,0-20,0
		c-1.1,0-2.6-0.6-2.7,1.6c-0.1,1.9,0.4,3.1,2.4,3.2c1.2,0.1,2.4,0.1,3.7,1.2c-5,4.3-9.9,8.5-14.8,12.6c-1.2,1-2.7,0.9-3.9,0.4
		c-1.1-0.5-0.6-1.8-0.6-2.8c0-12.2-0.1-24.3,0-36.5c0-2.3-0.6-3-2.9-2.9c-5.2,0.2-10.3,0.3-15.5,0.3c-1.8,0-2,0.7-2.1,2.3
		c-0.1,2.6,1.9,2.4,3.3,2.4c3.1,0.1,4.9,1.2,4.6,4.6c0,0.2,0,0.4,0,0.6c-0.1,1.3-0.2,2.5-0.2,3.8c0,15.7,0,31.4,0,47.2
		c0,5,0,5.1-5.1,6.1c-1.8,0.3-2.1,1.2-2.2,2.8c0,1.9,1,1.9,2.4,1.9c7.2,0,14.5-0.2,21.7,0c3.3,0.1,2.5-1.9,2.4-3.5
		c-0.1-1.5-1.6-1.2-2.5-1.2c-3.5,0-4.3-1.9-4-5c0.3-3.4,0-6.9,0.1-10.3c0-1-0.7-2.6,0.7-3c1.5-0.4,3.1-0.6,4.5,0.8
		c1.4,1.5,3.1,2.8,4.5,4.3c4,4.3,8,8.7,11.9,12.9c-0.3,0.1-1.2,0.4-2.1,0.5c-2,0.1-2.8,0.9-2.7,3c0.1,2.3,1.6,1.9,2.9,1.9
		c7.5,0,14.9,0,22.4,0c1.3,0,2.8,0.4,2.8-1.9C477,283.5,476.6,282.6,474.7,282.3z"/>
	<path class="st1" d="M79.6,248.3c-2.1-1-4.2-1.7-6.4-2.4c-5.9-1.8-12.1-2.7-17.8-5.2c-5.2-2.3-7.5-6-6.7-11c0.7-4.6,3.4-7,9-7.9
		c4-0.7,8-0.3,12,0c4.5,0.3,8.5,0.9,8.6,6.8c0,0.2,0.1,0.4,0.2,0.6c1.2,2.8,3.6,1.2,5.4,1.4c1.8,0.2,1.3-1.5,1.3-2.5
		c0.3-10.2,0.3-10.3-9.7-12.2c-9.1-1.7-18.2-2.4-27.2,0.6c-6.5,2.1-11.1,6.3-12,13.3c-1,7.4,0.2,14.3,7.2,18.7
		c5.1,3.2,10.8,4.9,16.6,6.4c4.1,1.1,8.2,2.1,12,4.1c5.1,2.7,6.9,6.7,5.9,13.3c-0.8,4.9-4,8-9.6,8.9c-5.4,0.8-10.7,0.6-16.1-0.4
		c-4.9-1-9-2.4-9-8.6c0-1.4-0.6-2.4-2.5-2.5c-4.3-0.1-4.3-0.2-4.3,4.2c0,0.9,0,1.8,0,2.8c0,0.9,0.1,1.9,0,2.7
		c-0.6,3.2,0.9,4.5,3.9,5.4c10,3.1,20,4.5,30.5,3.4c13.6-1.4,19.8-7.1,20.5-19.4C92.1,258.5,88.7,252.8,79.6,248.3z"/>
	<path class="st1" d="M402.4,282.4c-3.3-0.1-4.2-1.5-4-4.7c0.3-4.6,0.1-9.2,0.1-13.8c0-4.4,0-8.7,0-13.1c0-9.4-4.9-14.4-14.4-14.6
		c-6-0.2-11.5,1.7-17.1,3.6c-1.4,0.5-3.5,2.8-4.1-1c-0.1-0.7-1.2-0.5-1.8-0.5c-5.2,0-10.3,0.1-15.5,0c-2,0-2.2,0.9-2.2,2.5
		c0,2.8,2.3,2.3,3.7,2.4c3.1,0.2,4.2,1.4,4.1,4.7c-0.3,9.2-0.1,18.3-0.1,27.5c0,5.8,0,5.9-5.6,7.3c-1.7,0.4-1.8,1.3-1.8,2.7
		c0,1.8,1.3,1.6,2.4,1.6c7.3,0,14.7,0,22,0c1.2,0,2.3,0.1,2.3-1.7c0-1.5-0.2-2.5-1.9-2.6c-0.9-0.1-1.8-0.4-2.7-0.5
		c-1.6-0.2-2.1-1-2.1-2.5c0.1-10.1,0.1-20.2,0-30.3c0-1.6,0.6-2.3,2-2.7c3.9-0.9,7.7-2.1,11.8-2c6,0,8.4,2.3,8.4,8.3
		c0,7.2,0,14.5,0,21.7c0,2.1,0.4,4.3-0.2,6.2c-0.8,2.4-3.5,1.4-5.4,2c-1.7,0.5-1.2,1.6-1.3,2.7c-0.1,1.2,0.6,1.5,1.7,1.5
		c7.8,0,15.6,0,23.4,0c1.5,0,1.9-0.7,1.9-2.1C406.2,282,403.9,282.5,402.4,282.4z"/>
	<path class="st1" d="M153,238.3c-6.4,0-12.9,0-19.3,0c-1.3,0-2.2,0.2-2.2,1.8c0.1,1.2-0.3,2.6,1.6,2.8c1.4,0.2,2.7,0.5,4.1,0.7
		c1.4,0.1,1.8,0.6,1.2,2c-4.4,10.3-8.7,20.6-13.3,31.7c-1.5-3.3-2.7-6-3.9-8.6c-3.4-7.8-6.9-15.6-10.3-23.3c-0.4-1-0.3-1.5,0.8-1.7
		c1-0.2,2-0.4,3-0.6c2.1-0.4,1.4-2,1.4-3.3c0.1-1.6-1.1-1.4-2.1-1.4c-7.2,0-14.5,0-21.7,0c-1.9,0-2.3,0.6-2.3,2.4
		c-0.1,2.2,1.4,2.5,2.9,2.5c3.8-0.1,5.4,2,6.8,5.3c5,11.8,10.5,23.4,15.6,35.2c1,2.3,2,4,5.1,3.7c-2,3.9-3.1,7.8-5.4,11.1
		c-2.1,2.9-4.6,5-8.4,5.3c-2.9,0.3-5-0.2-4.8-3.7c0.1-2.5-1-3.6-3.5-3.1c-1.2,0.2-3.3-0.8-2.9,1.6c0.6,3.3-2.3,8.3,1.7,9.8
		c12.3,4.6,22.7-0.2,27.9-12.1c6.5-14.9,13-29.8,19.3-44.8c1.8-4.4,3.1-8.9,9.3-8.5c1.8,0.1,1.6-1.5,1.7-2.8
		C155.2,238.5,154.3,238.3,153,238.3z"/>
	<path class="st1" d="M333.8,282.6c-2.9-0.2-3.6-1.4-3.5-4.1c0.2-4.7,0.1-9.4,0.1-14.1c-0.1,0-0.1,0-0.2,0c0-4.9,0.2-9.9,0-14.8
		c-0.3-7.3-3.1-10.7-10.2-12.3c-7.4-1.6-14.8-0.4-22.2,1c-8,1.5-8,1.5-7.6,9.5c0,1.2-0.2,2.4,1.6,2.2c1.5-0.2,3.6,0.8,3.8-1.7
		c0.2-3.2,2-3.9,4.7-4.1c2.4-0.2,4.8-0.6,7.2-0.7c8.3-0.4,10.4,1.8,10.6,10c0.1,2.6-0.6,3.3-3.2,3.3c-6.7-0.1-13.3,0-19.6,2.5
		c-6.7,2.7-9.6,7.3-9.1,14.8c0.5,7,4.5,12.1,11,13.8c6.4,1.7,12.2-0.3,18-2.8c1.5-0.7,3.4-2.5,3.6,1.1c0.1,0.9,1,0.8,1.6,0.8
		c5.2,0,10.3,0,15.5,0c1.6,0,1.8-0.8,1.9-2.1C337.9,281.8,335.2,282.7,333.8,282.6z M316.7,278.7c-4.4,2.3-9.2,4.1-14.1,1.4
		c-5.3-2.9-5.2-11.5,0.2-14.7c4.2-2.5,8.9-2.7,13.6-2.8c1.5-0.1,1.6,0.9,1.6,2c0,2.1,0,4.1,0,6.2c0,0.3,0.1,0.7,0,1
		C317.5,274.1,319.5,277.2,316.7,278.7z"/>
</g>
</svg>
