<svg xmlns="http://www.w3.org/2000/svg" viewBox="0 0 200 200"><path fill="#222" d="M163.644 77.23a30.78 30.78 0 0 0-21.143 9.42 23.91 23.91 0 0 0-19.776-9.456 29.2 29.2 0 0 0-20.388 8.845l-2.445 2.59a32.36 32.36 0 0 0-26.32-13.7 2.877 2.877 0 0 0-2.877 2.876v10.787a3.8 3.8 0 0 0 .755 2.158 2.23 2.23 0 0 0 2.122.755 16.504 16.504 0 0 1 15.245 16.72v28.765a3.09 3.09 0 0 0 2.877 2.877h12.477a3.096 3.096 0 0 0 2.876-2.877v-33.476a12.87 12.87 0 0 1 12.801-9.672c7.767 0 11.255 5.178 11.255 13.088v30.06a2.87 2.87 0 0 0 .842 2.034 2.88 2.88 0 0 0 2.034.843h11.255a3.09 3.09 0 0 0 2.912-2.877v-30.887c0-2.589-.323-5.933-.323-5.933a14.95 14.95 0 0 1 12.656-6.652c7.731 0 11.255 5.178 11.255 13.089v30.383a2.806 2.806 0 0 0 2.589 2.877H186.8a3.06 3.06 0 0 0 3.02-3.021v-29.089c.468-15.929-6.688-30.527-26.176-30.527M60.52 122.895a25.8 25.8 0 0 1-7.732 1.187c-6.867 0-10.786-5.142-10.786-13.987V94.597h15.497a2.877 2.877 0 0 0 2.876-2.912v-10.32a3.6 3.6 0 0 0-.755-2.157 2.37 2.37 0 0 0-2.121-.755H41.822V61.877A2.84 2.84 0 0 0 39.232 59H26.757a3.09 3.09 0 0 0-2.877 2.877v16.9H13.056a2.73 2.73 0 0 0-2.121.898 2.52 2.52 0 0 0-.755 2.266v10.355a2.876 2.876 0 0 0 2.876 2.913h10.787v15.03c0 20.099 12.154 30.886 28.155 30.886a26.2 26.2 0 0 0 9.097-1.51 3.31 3.31 0 0 0 2.157-2.876v-11.722c.144-1.834-.575-2.409-2.733-2.122Z"/></svg>