<svg xmlns="http://www.w3.org/2000/svg" viewBox="0 0 512 512"><path d="M256 69.7C153.1 69.7 69.7 153.1 69.7 256S153.1 442.3 256 442.3 442.3 358.9 442.3 256 358.9 69.7 256 69.7zM308.8 400c-23 7.9-40.6 2.3-65-20.7-25-23.5-49.5-35.2-79.7-37.6-28-2.3-30-3-38.9-15.1-9.9-13.4-18.8-34.3-20.7-48.8-1.4-10.5-1.6-34.6-.3-41.6 3.9-20.5 7.6-32.3 14.5-46.7 18.5-37.9 50.5-65.9 90.7-79 9.8-3.2 12.8-3.9 27.9-6.3 7.8-1.1 30.7-1 41.6.6 39.9 5.3 81.4 31.7 104.1 66 10.8 16.2 20.7 39.6 23 54 .4 2.7 1.3 8.3 2 12.5 1.3 8.6 1 31.9-.6 42.6-7.9 53.3-48.5 102.7-98.6 120.1z" fill="#4050fb"/></svg>