<?xml version="1.0" encoding="utf-8"?>
<!-- Generator: Adobe Illustrator 22.1.0, SVG Export Plug-In . SVG Version: 6.00 Build 0)  -->
<svg version="1.1" id="Layer_1" xmlns="http://www.w3.org/2000/svg" xmlns:xlink="http://www.w3.org/1999/xlink" x="0px" y="0px"
	 viewBox="0 0 512 512" style="enable-background:new 0 0 512 512;" xml:space="preserve">
<style type="text/css">
	.st0{fill:#CE1728;}
</style>
<path class="st0" d="M299,292c0-17.7,0-35.1,0-52.4c0.2-0.1,0.3-0.3,0.4-0.3c9.2,0.1,18.4-0.2,27.5,0.6c8.1,0.7,12.4,6.2,12.2,14.1
	c-0.1,3.7-2,6.4-4.6,9c0.9,0.7,1.7,1.3,2.4,1.9c4.7,4.2,6,9.5,4.8,15.5c-1.2,5.7-4.9,9.1-10.3,10.7c-2.8,0.8-5.8,1.2-8.7,1.3
	c-7.2,0.2-14.5,0-21.7,0C300.4,292.2,299.8,292.1,299,292z M317.1,283.1c0,0.1,0,0.3,0.1,0.4c3.6-0.5,7.2-0.7,10.7-1.5
	c2.6-0.6,4-2.9,4.1-5.7c0.1-2.7-1.2-4.8-3.7-6c-1.2-0.6-2.7-1-4-1.1c-4.7-0.2-9.3-0.1-14-0.2c-1.2,0-1.7,0.5-1.6,1.7
	c0,3.5,0.1,7,0,10.5c0,1.4,0.5,1.9,1.9,1.9C312.7,283.1,314.9,283.1,317.1,283.1z M316.8,259.4C316.8,259.4,316.8,259.3,316.8,259.4
	c2.4-0.1,4.8,0.1,7.2-0.1c4-0.4,6.3-4.1,4.8-7.6c-1.1-2.5-3.2-3.3-5.7-3.4c-4.2-0.1-8.4,0-12.6-0.1c-1.3,0-1.9,0.4-1.8,1.7
	c0.1,2.6,0.1,5.1,0,7.7c0,1.4,0.6,1.8,1.8,1.7C312.6,259.4,314.7,259.4,316.8,259.4z"/>
<path class="st0" d="M390.1,292.1c-3.2,0-6.4,0-9.6,0c-0.1-0.8-0.2-1.6-0.4-2.7c-5.4,4.1-11.4,4.9-17.6,3.2
	c-4.6-1.3-8.3-4.1-11.2-7.9c-6.2-8.1-6-19.9,0.4-28c3.4-4.3,7.9-6.9,13.3-7.9c5.5-1.1,10.4,0.4,15.1,3.6c0.2-0.9,0.3-1.6,0.4-2.4
	c3.1,0,6.3,0,9.6,0C390.1,264,390.1,278,390.1,292.1z M369.6,258.1c-7.1-0.2-12.9,5.4-13.1,12.6c-0.2,7,5.5,13.1,12.3,13.4
	c7.4,0.2,13.1-5.2,13.2-12.7C382.2,264.1,376.8,258.3,369.6,258.1z"/>
<path class="st0" d="M272.5,292.2c-3.1,0-6.2,0-9.3,0c-0.1-0.8-0.2-1.5-0.4-2.7c-6.1,4.2-12.5,5.2-19.3,2.6c-4.8-1.8-8.4-5-11-9.3
	c-5-8.1-4.1-19.2,2.2-26.6c3.5-4.1,8-6.5,13.3-7.5c5.4-0.9,10.1,0.7,14.7,3.7c0.2-1,0.3-1.7,0.5-2.5c3.1,0,6.1,0,9.3,0
	C272.5,264,272.5,277.9,272.5,292.2z M251.8,258.1c-7.1,0-12.8,5.8-12.7,13c0.1,7.2,5.9,13.1,12.8,13c7.3-0.1,12.7-5.7,12.6-13.1
	C264.5,263.6,259.1,258.1,251.8,258.1z"/>
<path class="st0" d="M457.2,271.5c0,6.8,0,13.7,0,20.6c-3.4,0-6.6,0-10,0c0-17.6,0-35.2,0-52.8c3.3,0,6.5,0,9.9,0
	c0,9.3,0,18.6,0,28.5c1-0.8,1.5-1.2,1.9-1.6c5-5,9.9-10.1,14.9-15.1c0.6-0.6,1.4-1.2,2.1-1.2c3.9-0.1,7.7-0.1,12.3-0.1
	c-6.5,6.7-12.5,13-18.8,19.5c6.8,7.6,13.6,15.1,20.6,23c-4.5,0-8.4,0.1-12.3-0.1c-0.8,0-1.6-0.8-2.2-1.4c-5.5-6-11-12.1-16.5-18.1
	c-0.5-0.5-0.7-1.2-1.1-1.8C457.8,271.1,457.5,271.3,457.2,271.5z"/>
<path class="st0" d="M82.3,293.4c-12.7,0-22.2-9.6-22.2-22.4c0-12.7,9.8-22.6,22.4-22.6c12.5,0,22.4,10.1,22.3,22.7
	C104.7,283,95.4,293.9,82.3,293.4z M82.4,284.1c7.1,0,12.6-5.5,12.7-12.8c0.1-7.1-5.7-13.2-12.6-13.2c-6.9,0-12.5,5.8-12.6,12.9
	C69.7,278.4,75.2,284.1,82.4,284.1z"/>
<path class="st0" d="M196.3,271.4c-0.1,11.5-9.2,22.7-23.3,22.1c-12.2-0.5-21.7-10.5-21.4-22.8c0.3-13,10.3-22.5,23.2-22.2
	C187,248.8,196.6,259.1,196.3,271.4z M174,258.1c-7,0-12.6,5.9-12.5,13.2c0.1,7.4,5.4,12.8,12.6,12.8c7.2,0,12.7-5.7,12.6-13.1
	C186.6,263.9,180.8,258.1,174,258.1z"/>
<path class="st0" d="M104.6,249.8c3.4,0,6.6-0.1,9.7,0.1c0.6,0,1.3,0.9,1.6,1.6c3.9,8.7,7.6,17.4,11.4,26.1c0.2,0.5,0.5,1,0.9,1.9
	c1.1-2.5,2.1-4.7,3.1-6.8c3.1-7.1,6.2-14.1,9.2-21.2c0.5-1.2,1.1-1.7,2.4-1.6c2.9,0.1,5.9,0,9.2,0c-2,4.7-3.9,9-5.8,13.3
	c-6.3,14.3-12.6,28.6-18.8,43c-0.6,1.4-1.2,1.9-2.7,1.9c-2.9-0.1-5.9,0-9.3,0c1.7-3.8,2.9-7.4,4.7-10.7c2.2-3.9,1.9-7.2,0-11.3
	c-5.3-11.4-10.2-23.1-15.2-34.6C104.9,251,104.8,250.5,104.6,249.8z"/>
<path class="st0" d="M438.9,292.2c-3.2,0-6.2,0-9.5,0c0-0.8-0.1-1.6-0.1-2.5c0-6.2,0-12.5,0-18.7c0-1.2,0-2.5-0.2-3.7
	c-0.7-6.1-4.2-9.3-10-9.2c-6,0.1-10.2,3.4-10.5,9.3c-0.4,7.2-0.2,14.5-0.3,21.7c0,1,0,2,0,3.1c-3.4,0-6.5,0-9.7,0
	c0-14.1,0-28.1,0-42.2c3.2,0,6.3,0,9.4,0c0.1,0.7,0.2,1.4,0.4,2.5c0.8-0.4,1.5-0.8,2.2-1.2c6.9-3.7,13.9-3.9,20.7-0.1
	c4.7,2.6,7.2,7.2,7.4,12.3C439.1,273,438.9,282.4,438.9,292.2z"/>
<path class="st0" d="M38.5,292.1c0-14.4,0-28.6,0-43.1c-5.4,0-10.6,0-15.9,0c0-3.3,0-6.4,0-9.7c13.9,0,27.8,0,41.9,0
	c0,3.1,0,6.2,0,9.5c-5.3,0-10.4,0-15.9,0c0,14.5,0,28.8,0,43.2C45.2,292.1,42.1,292.1,38.5,292.1z"/>
<path class="st0" d="M207.9,249.8c0-3.7,0-7.1,0-10.6c3.3,0,6.3,0,9.7,0c0,1.9,0,3.8,0,5.7c0,4.8,0,4.8,5,4.8c1.5,0,2.9,0,4.6,0
	c0,3.2,0,6.2,0,9.4c-2.3,0-4.6,0.1-6.8,0c-2.1-0.2-2.8,0.5-2.8,2.7c0.1,9.1,0.1,18.2,0.1,27.3c0,0.9,0,1.8,0,2.9c-3.3,0-6.3,0-9.7,0
	c0-0.9,0-1.8,0-2.6c0-9.2-0.1-18.4,0.1-27.6c0-2.3-0.7-3-2.9-2.8c-2.1,0.2-4.2,0-6.5,0c0-3.1,0-6.1,0-9.4
	C201.7,249.8,204.7,249.8,207.9,249.8z"/>
</svg>
