<?xml version="1.0" encoding="utf-8"?>
<!-- Generator: Adobe Illustrator 22.1.0, SVG Export Plug-In . SVG Version: 6.00 Build 0)  -->
<svg version="1.1" id="Layer_1" xmlns="http://www.w3.org/2000/svg" xmlns:xlink="http://www.w3.org/1999/xlink" x="0px" y="0px"
	 viewBox="0 0 512 512" style="enable-background:new 0 0 512 512;" xml:space="preserve">
<style type="text/css">
	.st0{fill:#02947A;}
</style>
<path class="st0" d="M302.1,193.9c1.1-5.7,0.7-11.1,0.1-16.4c-1.1-9.9-3.2-19.5-7.3-28.7c-3.7-8.3-9-15.4-16.2-21
	c-13.3-10.3-29.9-9.3-42.1,2.4c-9.3,9-15.1,20-18.9,32.2c-1.7,5.4-2.8,11-3.9,16.5c-0.3,1.6-0.9,2.2-2.5,2.5
	c-10.8,2.1-21.2,5.7-31.3,10.2c-1.6,0.7-3.2,1.5-5.2,2.5c3.2-27,14-49.8,33.3-68.6c-0.6,0.2-1.3,0.4-1.9,0.7
	c-15.8,7.1-30.1,16.6-43.3,27.8c-19.2,16.2-34.3,35.7-45.8,58c-7.4,14.3-11.8,29.5-13.9,45.4c-0.8,6.1-1.3,12.3-2,18.7
	c-1,0-2.3,0-3.9,0c-0.4-4-1-8-1.2-12.1c-1.1-23.1,2.2-45.5,10.8-67c8.1-20.2,19.9-37.9,34.9-53.6c13.2-13.8,28.1-25.3,45-34.2
	c14.4-7.5,29.6-12.7,45.7-14.9c12.5-1.7,24.9-1.8,37.3,0.9c16.1,3.6,29.7,11.5,41,23.4c12.3,12.9,20.6,28.1,25.8,45.1
	c5.8,19.1,7.5,38.7,5.3,58.5c-2,17.8-7,34.7-14,51.2c-8.4,19.9-20.5,37.5-35.5,53c-0.4,0.4-0.7,0.8-1.3,1.6c3.1,1.8,6,3.7,9.1,5.3
	c10.7,5.4,21.9,9.3,33.8,10.6c11.3,1.2,22.1-0.7,31.9-6.7c10.2-6.2,17.2-19.2,13.3-34.6c-3.2-12.7-10-23.3-19-32.5
	c-4.1-4.2-8.7-8.1-13-12.2c-0.5-0.4-0.8-1.5-0.6-2.1c3.4-10.5,5.3-21.3,6.7-32.2c0.3-2.1,0.4-4.2,0.9-6.5
	c20.2,16.4,36.3,35.6,42.8,61.8c1.5-4.8,1.8-34.8-0.5-48.3c-2.8-16-7.3-31.4-13.9-46.1c-6.6-14.8-14.8-28.6-25.6-40.8
	c-10.7-12.1-22.8-22.8-36.8-31.2c0.4-0.8,0.6-1.4,0.9-2c0.3-0.6,0.7-1.2,1-1.9c9.1,4,17.8,8.4,26,13.8c27.7,18,47.7,42.4,60.1,73
	c5.9,14.5,10.1,29.4,12.1,44.9c3.7,28.4,0.7,55.9-11,82.1c-7.3,16.4-17.7,30.2-33,40c-10.3,6.6-21.5,10.6-33.6,12.1
	c-29,3.6-55.8-3.1-80.8-17.4c-32.8-18.6-56.5-45.7-71.7-80.1c-3.4-7.7-5.7-15.9-8.6-23.9c-0.4-1-0.6-2-1.1-3.6
	c-3.9,2.4-7.7,4.5-11.2,6.9c-11.6,8-21.4,17.9-28.2,30.3c-4.4,8.1-7,16.7-5.7,26c1.9,13.7,10.1,22.2,23.1,26.1
	c12.1,3.7,24.3,3,36.4,0.3c6-1.4,11.9-3.5,17.9-5.2c0.6-0.2,1.7-0.1,2.1,0.4c9,9.7,19.1,18,30.4,25.4c-11.8,6.2-24.4,8.4-37.2,10
	c-13,1.6-25.7,0.3-38.2-3.7c-0.1,0.2-0.1,0.4-0.2,0.5c1.9,1.4,3.8,2.8,5.7,4.1c18,12.2,37.6,20.7,58.7,25.7
	c15.7,3.7,31.6,5.5,47.7,5.2c24.4-0.4,47.4-6.2,68.9-17.8c0.4-0.2,0.8-0.5,1.4-0.8c0.7,1.1,1.3,2.1,2.1,3.4
	c-2.6,1.8-5.1,3.7-7.7,5.4c-15.6,10.3-32.3,18.2-50.5,22.9c-16.6,4.3-33.5,5.3-50.6,4c-20.7-1.6-40.5-6.5-59.4-15.1
	c-26.9-12.3-49.1-30.2-64.8-55.6c-6.5-10.4-10.8-21.6-12.6-33.7c-2-13.5-0.5-26.7,4.3-39.5c8.2-22.2,22.3-39.9,40.9-54.2
	c18.3-14,38.9-23,61.2-28.5c16.5-4.1,33.2-5.9,50.1-4.9c11.5,0.7,22.9,2.8,34,5.8C300.2,193.4,301,193.6,302.1,193.9z M297.4,236.1
	c-25.5-6.7-50.7-8.4-76.2-2.7c1.8,17.5,23.7,59.2,35.5,67.5C275.2,282.4,289,261.2,297.4,236.1z"/>
</svg>
