<svg xmlns="http://www.w3.org/2000/svg" viewBox="0 0 188.5 90.7"><path fill="#0ee06e" d="M176.2 90.8H12c-6.6 0-12-5.4-12-12V12.2C0 5.6 5.4.2 12 .2h164.2c6.6 0 12 5.4 12 12v66.6c0 6.6-5.4 12-12 12"/><text transform="translate(15.744 74.468)"><tspan x="0" y="0" font-family="TrustlySans-Medium" font-size="15">Instant</tspan><tspan x="49.4" y="0" font-family="TrustlySans-Medium" font-size="15"> </tspan><tspan x="53.1" y="0" font-family="TrustlySans-Medium" font-size="15">Bank</tspan><tspan x="89.4" y="0" font-family="TrustlySans-Medium" font-size="15"> </tspan><tspan x="93.1" y="0" font-family="TrustlySans-Medium" font-size="15">Payment</tspan></text><path d="M68.5 47.9V27.6h-7.3v-4.8H81v4.8h-7.3v20.3zm11.7 0V29.7H85v2.9c1.1-2.4 2.6-2.9 4.2-2.9h1.9v4.9h-1.6c-2.3 0-4.3 1.3-4.3 5.3V48h-5zm13.2-6.6V29.7h5v10.4c0 2.1 1 3.7 3.2 3.7 2.1 0 3.4-1.6 3.4-3.7V29.7h5V48h-4.8v-2.3c-1.2 1.8-3 2.7-5.3 2.7-4 0-6.5-2.8-6.5-7.1m18.6 1.5 4.3-1c.2 1.4 1.3 2.5 3.5 2.5 1.7 0 2.6-.7 2.6-1.6 0-.7-.4-1.2-2.1-1.6l-2.9-.6c-3.7-.8-5.2-2.5-5.2-5.6s2.6-5.7 7.4-5.7c5.2 0 7.2 3.1 7.4 5.1l-4.4 1c-.2-1.1-1-2.2-3.2-2.2-1.4 0-2.4.6-2.4 1.5 0 .8.5 1.2 1.4 1.4l4.2 1c3.2.7 4.7 2.6 4.7 5.3 0 2.9-2.3 5.9-7.6 5.9-5.5.1-7.4-3.4-7.7-5.4m25.1 5.1c-3.2 0-5.4-1.8-5.4-5.3V34h-3.1v-4.4h3.1v-4.1l5-1.4v5.5h3.7V34h-3.7v7.7c0 1.3.7 1.9 2 1.9h1.9V48h-3.5zm6.3 0V22.8h5V48h-5zm20.1-18.2h5.3l-7.6 24.8h-5.3l2.1-6.6h-2.8l-5-18.3h5.3l3.8 14.1zM18.3 33.8H30v-9.4l9.4 9.4-9.4 9.4v4.7h11.4V33.8h10.4v-11H18.3z"/></svg>