<?xml version="1.0" encoding="utf-8"?>
<!-- Generator: Adobe Illustrator 22.1.0, SVG Export Plug-In . SVG Version: 6.00 Build 0)  -->
<svg version="1.1" id="Layer_1" xmlns="http://www.w3.org/2000/svg" xmlns:xlink="http://www.w3.org/1999/xlink" x="0px" y="0px"
	 viewBox="0 0 512 512" style="enable-background:new 0 0 512 512;" xml:space="preserve">
<style type="text/css">
	.st0{fill:#26358C;}
	.st1{fill:#0068B3;}
	.st2{fill:#36BCEE;}
	.st3{fill:#005C9E;}
	.st4{fill:#002F60;}
	.st5{fill:#FFFFFF;}
</style>
<g>
	<path class="st0" d="M404.1,173.3c-31.2,0-58.4,16.8-73.2,41.9c7.4,12.6,11.7,27.3,11.7,43.1c0,15.7-4.3,30.4-11.7,43
		c14.8,25,42,41.9,73.2,41.9c46.9,0,84.9-38,84.9-84.9C489,211.3,451,173.3,404.1,173.3z"/>
	<path class="st1" d="M330.9,215.1c-14.8-25-42-41.9-73.2-41.9c-31.2,0-58.4,16.8-73.2,41.9c7.4,12.6,11.7,27.3,11.7,43.1
		c0,15.7-4.3,30.4-11.7,43c14.8,25,42,41.9,73.2,41.9c31.2,0,58.4-16.8,73.2-41.9c-7.5-12.6-11.7-27.3-11.7-43
		C319.2,242.5,323.5,227.8,330.9,215.1z"/>
	<path class="st2" d="M184.5,215.1c-14.8-25-42-41.9-73.2-41.9c-46.9,0-84.9,38-84.9,84.9c0,46.9,38,84.9,84.9,84.9
		c31.2,0,58.4-16.8,73.2-41.9c-7.4-12.6-11.7-27.3-11.7-43C172.8,242.5,177.1,227.8,184.5,215.1z"/>
	<g>
		<path class="st3" d="M184.5,301.2c7.4-12.6,11.7-27.3,11.7-43c0-15.7-4.3-30.4-11.7-43.1c-7.4,12.6-11.7,27.3-11.7,43.1
			C172.8,273.9,177.1,288.6,184.5,301.2z"/>
		<path class="st3" d="M184.5,301.2L184.5,301.2c-7.7-13-11.7-27.9-11.7-43.1c0-15.2,4.1-30,11.7-43.1l0,0l0,0
			c7.7,13,11.7,27.9,11.7,43.1C196.3,273.3,192.2,288.2,184.5,301.2L184.5,301.2z M184.5,215.2c-7.7,13-11.7,27.9-11.7,43
			c0,15.1,4.1,30,11.7,43c7.7-13,11.7-27.9,11.7-43C196.3,243,192.2,228.2,184.5,215.2z"/>
	</g>
	<path class="st4" d="M330.9,301.2c7.4-12.6,11.7-27.3,11.7-43c0-15.7-4.3-30.4-11.7-43.1c-7.5,12.6-11.7,27.3-11.7,43.1
		C319.2,273.9,323.5,288.6,330.9,301.2z"/>
	<g>
		<path class="st5" d="M143.3,228.5h-24.7v75.6h-17v-75.6H77.4V213h65.9V228.5L143.3,228.5z"/>
	</g>
	<g>
		<path class="st5" d="M374.6,213h31.9c12.1,0.1,15.4,0.3,19.8,1.5c9.2,2.7,15.6,10.8,15.6,20.8c0,4-0.9,8.9-3.4,12.4
			c-2.8,3.8-6.5,5.7-11.4,6.6c10.1,1.8,18.8,9.9,18.8,24c0,10.5-4.6,19.7-15.6,23.6c-5.8,2.1-10.3,2.2-20.6,2.2h-35V213z M391.4,227
			v22.7h5.3c4.8,0,8.2,0,10.3-0.1c4.3,0,8.5-0.1,11.6-1.8c3.6-1.8,6.1-5.3,6.1-9.4c0-3.5-1.8-7-5.3-9c-3.6-2.1-5.4-2.2-17.8-2.3
			H391.4z M391.4,262.5v27h16.2c10.1,0,12.8,0,17.2-3.1c2.3-1.7,4.1-5.2,4.1-9.5c0-2.1-0.4-4.5-1.7-6.8c-4.1-7.4-13.7-7.5-19.5-7.5
			H391.4z"/>
	</g>
	<path class="st5" d="M266.5,250.1l-9.3-2c-8.2-1.5-16.6-3.1-16.6-10.8c0-6.9,7.9-11,17-11c13.7,0,19.7,8.1,22.9,12.7l13.4-10.7
		c-6.5-8.5-16.5-17.2-35.5-17.2c-21.3,0-35.7,11-35.7,28.2c0,15,11.1,20.5,15.2,22.2c2.8,1.2,5.6,1.8,11.4,3.2l10.9,2.3
		c8.2,1.9,8.5,2.1,10.5,2.8c2.8,1.2,6.8,3.2,6.8,9c0,3.1-1.2,7.7-7.7,10.4c-3.2,1.3-6.5,1.5-9.7,1.5c-18.1,0-25.2-9.3-27.7-13.1
		L218.7,288c6.8,10.5,16.7,14.3,22.6,16.1c5.5,1.5,11.1,2.1,16.1,2.1c19.2,0,38.4-8.3,38.4-29.1
		C295.8,257.7,278.7,252.7,266.5,250.1z"/>
</g>
</svg>
