<svg xmlns="http://www.w3.org/2000/svg" viewBox="0 0 512 512"><path fill="#26358c" d="M404.1 173.3c-31.2 0-58.4 16.8-73.2 41.9 7.4 12.6 11.7 27.3 11.7 43.1 0 15.7-4.3 30.4-11.7 43 14.8 25 42 41.9 73.2 41.9 46.9 0 84.9-38 84.9-84.9 0-47-38-85-84.9-85"/><path fill="#0068b3" d="M330.9 215.1c-14.8-25-42-41.9-73.2-41.9s-58.4 16.8-73.2 41.9c7.4 12.6 11.7 27.3 11.7 43.1 0 15.7-4.3 30.4-11.7 43 14.8 25 42 41.9 73.2 41.9s58.4-16.8 73.2-41.9c-7.5-12.6-11.7-27.3-11.7-43s4.3-30.4 11.7-43.1"/><path fill="#36bcee" d="M184.5 215.1c-14.8-25-42-41.9-73.2-41.9-46.9 0-84.9 38-84.9 84.9s38 84.9 84.9 84.9c31.2 0 58.4-16.8 73.2-41.9-7.4-12.6-11.7-27.3-11.7-43 0-15.6 4.3-30.3 11.7-43"/><path fill="#005c9e" d="M184.5 301.2c7.4-12.6 11.7-27.3 11.7-43s-4.3-30.4-11.7-43.1c-7.4 12.6-11.7 27.3-11.7 43.1 0 15.7 4.3 30.4 11.7 43m0 0c-7.7-13-11.7-27.9-11.7-43.1s4.1-30 11.7-43.1c7.7 13 11.7 27.9 11.7 43.1.1 15.2-4 30.1-11.7 43.1m0-86c-7.7 13-11.7 27.9-11.7 43s4.1 30 11.7 43c7.7-13 11.7-27.9 11.7-43 .1-15.2-4-30-11.7-43"/><path fill="#002f60" d="M330.9 301.2c7.4-12.6 11.7-27.3 11.7-43s-4.3-30.4-11.7-43.1c-7.5 12.6-11.7 27.3-11.7 43.1 0 15.7 4.3 30.4 11.7 43"/><path fill="#fff" d="M143.3 228.5h-24.7v75.6h-17v-75.6H77.4V213h65.9zM374.6 213h31.9c12.1.1 15.4.3 19.8 1.5 9.2 2.7 15.6 10.8 15.6 20.8 0 4-.9 8.9-3.4 12.4-2.8 3.8-6.5 5.7-11.4 6.6 10.1 1.8 18.8 9.9 18.8 24 0 10.5-4.6 19.7-15.6 23.6-5.8 2.1-10.3 2.2-20.6 2.2h-35V213zm16.8 14v22.7h5.3c4.8 0 8.2 0 10.3-.1 4.3 0 8.5-.1 11.6-1.8 3.6-1.8 6.1-5.3 6.1-9.4 0-3.5-1.8-7-5.3-9-3.6-2.1-5.4-2.2-17.8-2.3h-10.2zm0 35.5v27h16.2c10.1 0 12.8 0 17.2-3.1 2.3-1.7 4.1-5.2 4.1-9.5 0-2.1-.4-4.5-1.7-6.8-4.1-7.4-13.7-7.5-19.5-7.5h-16.3zm-124.9-12.4-9.3-2c-8.2-1.5-16.6-3.1-16.6-10.8 0-6.9 7.9-11 17-11 13.7 0 19.7 8.1 22.9 12.7l13.4-10.7c-6.5-8.5-16.5-17.2-35.5-17.2-21.3 0-35.7 11-35.7 28.2 0 15 11.1 20.5 15.2 22.2 2.8 1.2 5.6 1.8 11.4 3.2l10.9 2.3c8.2 1.9 8.5 2.1 10.5 2.8 2.8 1.2 6.8 3.2 6.8 9 0 3.1-1.2 7.7-7.7 10.4-3.2 1.3-6.5 1.5-9.7 1.5-18.1 0-25.2-9.3-27.7-13.1L218.7 288c6.8 10.5 16.7 14.3 22.6 16.1 5.5 1.5 11.1 2.1 16.1 2.1 19.2 0 38.4-8.3 38.4-29.1 0-19.4-17.1-24.4-29.3-27"/></svg>