<svg xmlns="http://www.w3.org/2000/svg" viewBox="0 0 512 512"><path fill="#1f3567" d="M115.9 431.1V333c.8-.1 1.4-.1 2.1-.1 10.3 0 20.6-.2 30.9 0 8.3.2 16.1 2 22.8 7.5 10.4 8.7 11.5 29.3-4.1 37.7-.8.4-1.6.9-2.7 1.5.7.4 1 .6 1.5.8 14 4.5 18.5 16.5 15.3 29.3-2.7 10.5-10.1 16.6-20.1 19.4-5 1.4-10.2 2-15.4 2.1-9.6.3-19.2.1-28.7.1-.5-.1-1-.1-1.6-.2m17.1-28.9v12.9c0 1.4.3 2 1.9 2 4.6-.1 9.3.1 13.9-.1 4.5-.2 8.7-1.3 11.8-4.8 7.6-8.4 3.2-22-8.2-24-5.6-1-11.5-.6-17.2-.9-1.7-.1-2.2.6-2.2 2.2.1 4.3.1 8.5 0 12.7m.1-42.2c0 3.9.1 7.7 0 11.6 0 1.7.6 2.2 2.2 2.1 3.2-.1 6.5.2 9.7-.1 2.6-.2 5.2-.5 7.6-1.5 6.3-2.4 9.3-8.3 8.3-15.4-.8-5.9-4.9-9.6-11.7-10.1-4.9-.4-9.8-.1-14.8-.1-1.4 0-1.4.8-1.4 1.8.1 4 .1 7.9.1 11.7M86.5 210h17.3v2.6c0 20.3 0 40.6.1 60.8 0 2.8.5 5.6 1 8.3 1.4 6.7 5.8 10.8 12.4 12.4q8.25 1.95 16.5 0c6.6-1.5 10.8-5.7 12.2-12.3.8-3.6 1.3-7.4 1.3-11.1.1-19.4.1-38.7.1-58.1v-2.8H164c0 .7.1 1.4.1 2.1 0 20.6.1 41.3 0 61.9 0 6.2-1.1 12.3-3.9 18-3.7 7.3-9.6 12.3-17.4 14.8-11.5 3.7-23.3 4.1-34.9.5-12-3.7-18.7-12.1-20.4-24.4-.7-5.1-.9-10.2-1-15.3-.1-18.2 0-36.5 0-54.7zm274.9 176.6 8.1-10.5c4.1-5.4 8.1-10.8 12.2-16.2.4-.6 1.2-1.3 1.8-1.3 6.5-.1 12.9-.1 19.9-.1-1.5 1.9-2.6 3.4-3.8 4.9-7.3 9-14.6 18-22 27-.9 1.1-.9 1.8-.1 2.9 6.7 9.1 13.5 18.2 20.2 27.4 2.5 3.4 4.9 6.8 7.6 10.5-.8.1-1.3.3-1.8.3H386c-1.4 0-2.2-.5-2.9-1.6-6.7-9.9-13.4-19.8-20.1-29.8-.4-.7-.9-1.3-1.4-1.9-.2.1-.4.1-.5.2 0 .7-.1 1.4-.1 2.2 0 9.6-.1 19.2 0 28.7 0 1.7-.5 2.3-2.3 2.3-4.2-.1-8.4-.1-12.7 0-1.6 0-2.1-.5-2.1-2.1v-94.2c0-1.5.4-2.1 2-2.1q6.45.15 12.9 0c1.7 0 2.1.6 2.1 2.2v51s.2.1.5.2m-163.2-9.8c-.5-4.6-1-8.9-1.3-13.2 0-.6.5-1.7 1-1.9 12.9-4.6 26.1-6.5 39.5-2.3 8.2 2.5 12.5 8.7 13.3 17 .5 5.4.4 10.8.4 16.2l.3 35.7c0 .9.1 1.8.2 3.1h-14.3c-1.4 0-2-.4-1.9-1.9.1-2.3 0-4.6-.5-7.1-1 1.1-1.9 2.3-3.1 3.3-8.4 7.2-18 9.1-28.4 5.4-8.6-3.1-12-11.3-11-19.5 1.2-11.3 8.7-17.2 18.6-20.7 6.9-2.5 14.1-3.3 21.3-3.5 1.7 0 2.3-.6 2.1-2.2-.2-1.8-.1-3.7-.4-5.5-.7-4.6-3.5-7.6-8.2-8.4-9-1.6-17.5.4-25.5 4.5-.6.3-1.2.6-2.1 1m19.7 42.5c1.1-.2 2.2-.2 3.3-.5 8.2-2.1 12.5-10.1 13.2-18.2.1-1.1-.5-1.5-1.5-1.4-2.5.2-4.9.2-7.4.5-4.8.6-9.5 1.4-13.4 4.4-3.8 2.9-4.8 7.8-2.3 11.6 1.8 3 4.8 3.6 8.1 3.6m160.8-128c.5 4.1 1 8.4 1.4 12.6 0 .5-.8 1.3-1.4 1.4-5.3 1.4-10.6 3-15.9 3.8-6.5 1-13 .8-19.5-.7-12.3-2.9-19.7-10.7-22.4-22.9-2.3-10.6-2.1-21.2 1.8-31.5 4.6-12 16-19.9 28.9-20 6.4-.1 12.5.9 18 4.2 7.5 4.6 11.3 11.7 12.4 20.1.6 4.3.2 8.7.3 13 0 1.8-.8 2.2-2.5 2.2-13.6-.1-27.2 0-40.8 0-2.6 0-2.8.2-2.5 2.6.4 3 .8 6 1.8 8.8 2.2 6.5 7.2 9.7 13.7 10.7 8.1 1.2 16-.2 23.5-3.3.8-.3 1.7-.7 2.5-1 .4-.1.4-.1.7 0m-41.1-30.2h25.7c2.6 0 2.9-.3 2.4-2.9-1.2-7.8-7.7-12.4-15.6-11.2-7.4 1-12.2 8-12.5 14.1m-70.8 97.5c5.1 0 10 0 14.9.1.4 0 1 1 1 1.6.1 2.7 0 5.3 0 8.4.6-.7 1.1-1.1 1.6-1.7 8.1-10.5 23.5-11.6 32.3-7.9 6.6 2.8 9.7 8.3 10.9 15 .3 1.6.4 3.2.4 4.8 0 16.7 0 33.4.1 50.1 0 1.9-.5 2.6-2.5 2.5-3.9-.1-7.8-.1-11.6 0-1.8.1-2.4-.4-2.4-2.4.1-14.2.1-28.3 0-42.5q0-3.9-.6-7.8c-1-6.1-5.6-8.3-11.2-7.4-7.7 1.3-12 6.6-14.1 13.6-1.2 4-1.7 8.3-1.8 12.4-.2 10.5-.1 21 0 31.5 0 1.9-.5 2.6-2.5 2.5-4.2-.1-8.5-.1-12.7 0-1.3 0-1.9-.3-1.9-1.8v-69.9c0-.2 0-.5.1-1.1m9.6-109.1H263v-14.1h13.4c.1-1.1.2-1.9.2-2.7 0-5.5.1-11 0-16.5 0-1.6.5-2.2 2-2.6 4.8-1.3 9.6-2.6 14.8-4.1v25.8h14.8c4 0 4 0 4 3.9v10.1c-.9 0-1.7.1-2.4.1h-14.4c-1.4 0-2 .3-2 1.8 0 10.9 0 21.8.1 32.8 0 2.1.5 4.3 1 6.4.6 2.4 2.2 4.1 4.8 4.1 3.4.1 6.7-.2 10.1-.3.9 0 1.8-.3 2.9-.4 0 4.5 0 8.8-.1 13.1 0 .4-.7 1.1-1.1 1.2-6.9 1.4-13.9 2.1-20.9.9-7.4-1.3-11.5-5.6-12.7-13-.4-2.7-.7-5.5-.7-8.2-.1-11.7 0-23.4 0-35.1-.3-1.1-.4-2-.4-3.2m-21.8-.5c-3.5-.6-6.8-1.5-10.2-1.7-3.5-.2-7 .1-10.4.6-3.2.5-5.5 2.7-5.9 6.1-.4 3.3 1.2 5.9 4 7.3 4.1 2.2 8.5 3.8 12.6 6 3.3 1.8 6.7 3.6 9.6 6 5.2 4.4 5.8 10.6 4.9 16.8-1.3 9.5-7.6 14.8-16.3 17.4-10.4 3.2-20.9 2.3-31.3.1-.2 0-.4-.2-.7-.4.6-4.7 1.2-9.4 1.8-14.3 2.8.7 5.4 1.4 8 2 5.4 1.1 10.9 1.6 16.3-.1 4.4-1.4 6.6-5.6 4.6-9.4-1-1.8-2.8-3.4-4.7-4.3-4.2-2.2-8.8-3.8-13-6-2.6-1.3-5.1-2.8-7.2-4.7-9.4-8.6-7.4-25.2 3.7-31.9 6.4-3.8 13.4-4.9 20.7-4.7 3.9.1 7.8.7 11.8 1 1.4.1 1.9.7 1.9 2.1-.2 4.1-.2 8.1-.2 12.1m-74.1 59.3V210h3.8c3.7 0 7.3.1 11 0 1.7-.1 2.3.6 2.1 2.2-.1 1 0 2.1 0 3.2v90.2c0 2.9 0 2.9-2.9 2.9-4.6-.2-9.1-.2-14-.2m253.8-58.1c-2.5 0-4.8-.2-7 0-5.6.7-9 4.2-11.1 9.2-2.2 5.3-2.8 10.9-2.9 16.5-.2 9.9 0 19.7 0 29.6v2.8h-10.1c-1.5 0-3.1-.1-4.6 0-1.9.2-2.4-.6-2.4-2.4.1-15.3 0-30.7 0-46v-21.1c0-4.2-.2-3.4 3.5-3.4h12.8c-.2 3.4-.4 6.6-.5 9.8.1.2.2.3.4.5 5.1-8.6 12.4-12.7 22.7-11.4-.3 5.2-.6 10.6-.8 15.9m-156-146.6c1.7-1.6 3.1-2.9 4.5-4.3 4.7-4.7 9.3-9.4 14-14 3-3 8.1-2.9 11.1 0 3.1 3 3.2 8.3.1 11.4-5.2 5.3-10.4 10.5-15.7 15.7-.7.7-1.6 1.1-2.4 1.6l.6.9c.6.1 1.2.2 1.7.2h9.9c4.7 0 7.9 3 8.1 7.4.2 4.8-2.9 8.4-7.6 8.6q-8.25.3-16.5 0c-3.4-.1-6-1.8-7.3-5.2-2.1-5.3-5.9-9-11-11.3-3.6-1.6-5.4-4.3-5.3-8.3.1-5.1 0-10.1 0-15.2 0-4.6 3.5-8.1 8-8s7.8 3.5 7.7 8v10.3c-.1.6 0 1.2.1 2.2m-46.9 11.6c-2.8-2.8-5.1-5.2-7.5-7.6-3.7-3.7-7.4-7.3-11-11.1-3-3-2.9-8 .1-11s8.1-3.2 11-.2c5.4 5.3 10.8 10.7 16.1 16.1.6.6 1.3 1.1 2.5 2.1V91.1c.2-4.6 3.5-8 7.9-8 4.3 0 7.9 3.4 8 7.9.1 5.3.1 10.7 0 16.1-.1 3.6-1.8 6.2-5.3 7.6-5.2 2-8.7 5.9-11 10.9-1.7 3.7-4.2 5.7-8.5 5.6-5-.2-10 0-15 0-4.6 0-8.1-3.3-8.2-7.6-.1-5 2.8-8.2 7.8-8.3 3.4-.1 6.8.1 10.1.2.9-.1 1.6-.2 3-.3m-1.1 35.4c-3.8 0-7.6.1-11.4 0-6.5-.2-10.2-6.6-7-12 1.6-2.6 4-3.9 7-3.9 5.4-.1 10.7-.1 16.1 0q5.55.15 7.5 5.4c1.9 5.2 5.6 8.7 10.7 10.8 3.6 1.5 5.5 4.1 5.5 7.9.1 5.1.1 10.3 0 15.4 0 3.2-1.2 5.8-4.2 7.2-2.9 1.4-5.7 1.3-8.4-.4-2.1-1.4-3.1-3.4-3.1-5.9v-13c-.9.8-1.5 1.2-2 1.7-5.3 5.3-10.6 10.5-15.8 15.8-2.2 2.2-4.6 3.4-7.8 2.8-3.1-.6-5.3-2.4-6.1-5.5-.9-3.1-.3-6 2-8.4 5.3-5.3 10.5-10.6 15.8-15.8.5-.5 1-1.1 1.5-1.6-.1-.2-.2-.4-.3-.5m48 11.7c-.1 1-.1 1.8-.1 2.5v9.9c0 4.2-3.3 7.6-7.6 7.8-4 .2-8-2.7-8.1-6.7-.3-6.2-.2-12.4 0-18.6.1-3 2-5.2 4.7-6.2 5.6-2.2 9.3-6.1 11.6-11.5 1.4-3.2 4-4.9 7.5-4.9q7.8-.15 15.6 0c5.1.1 8.3 3.4 8.2 8.4-.1 4.5-3.5 7.5-8.4 7.5-3.2 0-6.3-.2-9.5-.3-.7 0-1.4.1-2.7.1 1.6 1.7 2.8 3 4 4.2 4.6 4.6 9.2 9.1 13.8 13.7 3.5 3.5 3.7 8.7.5 11.9-3.3 3.3-8.3 3.1-11.8-.6-5.4-5.5-10.8-10.9-16.2-16.3-.4-.2-.8-.4-1.5-.9"/></svg>