<?xml version="1.0" encoding="utf-8"?>
<!-- Generator: Adobe Illustrator 22.1.0, SVG Export Plug-In . SVG Version: 6.00 Build 0)  -->
<svg version="1.1" id="Layer_1" xmlns="http://www.w3.org/2000/svg" xmlns:xlink="http://www.w3.org/1999/xlink" x="0px" y="0px"
	 viewBox="0 0 512 512" style="enable-background:new 0 0 512 512;" xml:space="preserve">
<style type="text/css">
	.st0{fill:#1F3567;}
</style>
<path class="st0" d="M115.9,431.1c0-32.8,0-65.3,0-98.1c0.8-0.1,1.4-0.1,2.1-0.1c10.3,0,20.6-0.2,30.9,0c8.3,0.2,16.1,2,22.8,7.5
	c10.4,8.7,11.5,29.3-4.1,37.7c-0.8,0.4-1.6,0.9-2.7,1.5c0.7,0.4,1,0.6,1.5,0.8c14,4.5,18.5,16.5,15.3,29.3
	c-2.7,10.5-10.1,16.6-20.1,19.4c-5,1.4-10.2,2-15.4,2.1c-9.6,0.3-19.2,0.1-28.7,0.1C117,431.2,116.5,431.2,115.9,431.1z M133,402.2
	c0,4.3,0,8.6,0,12.9c0,1.4,0.3,2,1.9,2c4.6-0.1,9.3,0.1,13.9-0.1c4.5-0.2,8.7-1.3,11.8-4.8c7.6-8.4,3.2-22-8.2-24
	c-5.6-1-11.5-0.6-17.2-0.9c-1.7-0.1-2.2,0.6-2.2,2.2C133.1,393.8,133.1,398,133,402.2z M133.1,360c0,3.9,0.1,7.7,0,11.6
	c0,1.7,0.6,2.2,2.2,2.1c3.2-0.1,6.5,0.2,9.7-0.1c2.6-0.2,5.2-0.5,7.6-1.5c6.3-2.4,9.3-8.3,8.3-15.4c-0.8-5.9-4.9-9.6-11.7-10.1
	c-4.9-0.4-9.8-0.1-14.8-0.1c-1.4,0-1.4,0.8-1.4,1.8C133.1,352.3,133.1,356.2,133.1,360z"/>
<path class="st0" d="M86.5,210c5.8,0,11.3,0,17.3,0c0,0.9,0,1.8,0,2.6c0,20.3,0,40.6,0.1,60.8c0,2.8,0.5,5.6,1,8.3
	c1.4,6.7,5.8,10.8,12.4,12.4c5.5,1.3,11,1.3,16.5,0c6.6-1.5,10.8-5.7,12.2-12.3c0.8-3.6,1.3-7.4,1.3-11.1
	c0.1-19.4,0.1-38.7,0.1-58.1c0-0.9,0-1.8,0-2.8c5.7,0,11,0,16.6,0c0,0.7,0.1,1.4,0.1,2.1c0,20.6,0.1,41.3,0,61.9
	c0,6.2-1.1,12.3-3.9,18c-3.7,7.3-9.6,12.3-17.4,14.8c-11.5,3.7-23.3,4.1-34.9,0.5c-12-3.7-18.7-12.1-20.4-24.4
	c-0.7-5.1-0.9-10.2-1-15.3c-0.1-18.2,0-36.5,0-54.7C86.5,212,86.5,211.1,86.5,210z"/>
<path class="st0" d="M361.4,386.6c2.7-3.5,5.4-7,8.1-10.5c4.1-5.4,8.1-10.8,12.2-16.2c0.4-0.6,1.2-1.3,1.8-1.3
	c6.5-0.1,12.9-0.1,19.9-0.1c-1.5,1.9-2.6,3.4-3.8,4.9c-7.3,9-14.6,18-22,27c-0.9,1.1-0.9,1.8-0.1,2.9c6.7,9.1,13.5,18.2,20.2,27.4
	c2.5,3.4,4.9,6.8,7.6,10.5c-0.8,0.1-1.3,0.3-1.8,0.3c-5.8,0-11.7,0-17.5,0c-1.4,0-2.2-0.5-2.9-1.6c-6.7-9.9-13.4-19.8-20.1-29.8
	c-0.4-0.7-0.9-1.3-1.4-1.9c-0.2,0.1-0.4,0.1-0.5,0.2c0,0.7-0.1,1.4-0.1,2.2c0,9.6-0.1,19.2,0,28.7c0,1.7-0.5,2.3-2.3,2.3
	c-4.2-0.1-8.4-0.1-12.7,0c-1.6,0-2.1-0.5-2.1-2.1c0-31.4,0-62.8,0-94.2c0-1.5,0.4-2.1,2-2.1c4.3,0.1,8.6,0.1,12.9,0
	c1.7,0,2.1,0.6,2.1,2.2c0,16.3,0,32.5,0,48.8c0,0.7,0,1.5,0,2.2C360.9,386.4,361.1,386.5,361.4,386.6z"/>
<path class="st0" d="M198.2,376.8c-0.5-4.6-1-8.9-1.3-13.2c0-0.6,0.5-1.7,1-1.9c12.9-4.6,26.1-6.5,39.5-2.3
	c8.2,2.5,12.5,8.7,13.3,17c0.5,5.4,0.4,10.8,0.4,16.2c0.1,11.9,0.2,23.8,0.3,35.7c0,0.9,0.1,1.8,0.2,3.1c-1.6,0-3.1,0-4.6,0
	c-3.2,0-6.5,0-9.7,0c-1.4,0-2-0.4-1.9-1.9c0.1-2.3,0-4.6-0.5-7.1c-1,1.1-1.9,2.3-3.1,3.3c-8.4,7.2-18,9.1-28.4,5.4
	c-8.6-3.1-12-11.3-11-19.5c1.2-11.3,8.7-17.2,18.6-20.7c6.9-2.5,14.1-3.3,21.3-3.5c1.7,0,2.3-0.6,2.1-2.2c-0.2-1.8-0.1-3.7-0.4-5.5
	c-0.7-4.6-3.5-7.6-8.2-8.4c-9-1.6-17.5,0.4-25.5,4.5C199.7,376.1,199.1,376.4,198.2,376.8z M217.9,419.3c1.1-0.2,2.2-0.2,3.3-0.5
	c8.2-2.1,12.5-10.1,13.2-18.2c0.1-1.1-0.5-1.5-1.5-1.4c-2.5,0.2-4.9,0.2-7.4,0.5c-4.8,0.6-9.5,1.4-13.4,4.4
	c-3.8,2.9-4.8,7.8-2.3,11.6C211.6,418.7,214.6,419.3,217.9,419.3z"/>
<path class="st0" d="M378.7,291.3c0.5,4.1,1,8.4,1.4,12.6c0,0.5-0.8,1.3-1.4,1.4c-5.3,1.4-10.6,3-15.9,3.8c-6.5,1-13,0.8-19.5-0.7
	c-12.3-2.9-19.7-10.7-22.4-22.9c-2.3-10.6-2.1-21.2,1.8-31.5c4.6-12,16-19.9,28.9-20c6.4-0.1,12.5,0.9,18,4.2
	c7.5,4.6,11.3,11.7,12.4,20.1c0.6,4.3,0.2,8.7,0.3,13c0,1.8-0.8,2.2-2.5,2.2c-13.6-0.1-27.2,0-40.8,0c-2.6,0-2.8,0.2-2.5,2.6
	c0.4,3,0.8,6,1.8,8.8c2.2,6.5,7.2,9.7,13.7,10.7c8.1,1.2,16-0.2,23.5-3.3c0.8-0.3,1.7-0.7,2.5-1
	C378.4,291.2,378.4,291.2,378.7,291.3z M337.6,261.1c0.8,0,1.7,0,2.5,0c7.7,0,15.5,0,23.2,0c2.6,0,2.9-0.3,2.4-2.9
	c-1.2-7.8-7.7-12.4-15.6-11.2C342.7,248,337.9,255,337.6,261.1z"/>
<path class="st0" d="M266.8,358.6c5.1,0,10,0,14.9,0.1c0.4,0,1,1,1,1.6c0.1,2.7,0,5.3,0,8.4c0.6-0.7,1.1-1.1,1.6-1.7
	c8.1-10.5,23.5-11.6,32.3-7.9c6.6,2.8,9.7,8.3,10.9,15c0.3,1.6,0.4,3.2,0.4,4.8c0,16.7,0,33.4,0.1,50.1c0,1.9-0.5,2.6-2.5,2.5
	c-3.9-0.1-7.8-0.1-11.6,0c-1.8,0.1-2.4-0.4-2.4-2.4c0.1-14.2,0.1-28.3,0-42.5c0-2.6-0.2-5.2-0.6-7.8c-1-6.1-5.6-8.3-11.2-7.4
	c-7.7,1.3-12,6.6-14.1,13.6c-1.2,4-1.7,8.3-1.8,12.4c-0.2,10.5-0.1,21,0,31.5c0,1.9-0.5,2.6-2.5,2.5c-4.2-0.1-8.5-0.1-12.7,0
	c-1.3,0-1.9-0.3-1.9-1.8c0-23.3,0-46.6,0-69.9C266.7,359.5,266.7,359.2,266.8,358.6z"/>
<path class="st0" d="M276.4,249.5c-4.5,0-8.8,0-13.4,0c0-4.7,0-9.3,0-14.1c4.3,0,8.7,0,13.4,0c0.1-1.1,0.2-1.9,0.2-2.7
	c0-5.5,0.1-11,0-16.5c0-1.6,0.5-2.2,2-2.6c4.8-1.3,9.6-2.6,14.8-4.1c0,8.7,0,17.1,0,25.8c5.1,0,10,0,14.8,0c4,0,4,0,4,3.9
	c0,3.3,0,6.6,0,10.1c-0.9,0-1.7,0.1-2.4,0.1c-4.8,0-9.6,0-14.4,0c-1.4,0-2,0.3-2,1.8c0,10.9,0,21.8,0.1,32.8c0,2.1,0.5,4.3,1,6.4
	c0.6,2.4,2.2,4.1,4.8,4.1c3.4,0.1,6.7-0.2,10.1-0.3c0.9,0,1.8-0.3,2.9-0.4c0,4.5,0,8.8-0.1,13.1c0,0.4-0.7,1.1-1.1,1.2
	c-6.9,1.4-13.9,2.1-20.9,0.9c-7.4-1.3-11.5-5.6-12.7-13c-0.4-2.7-0.7-5.5-0.7-8.2c-0.1-11.7,0-23.4,0-35.1
	C276.5,251.6,276.4,250.7,276.4,249.5z"/>
<path class="st0" d="M254.6,249c-3.5-0.6-6.8-1.5-10.2-1.7c-3.5-0.2-7,0.1-10.4,0.6c-3.2,0.5-5.5,2.7-5.9,6.1
	c-0.4,3.3,1.2,5.9,4,7.3c4.1,2.2,8.5,3.8,12.6,6c3.3,1.8,6.7,3.6,9.6,6c5.2,4.4,5.8,10.6,4.9,16.8c-1.3,9.5-7.6,14.8-16.3,17.4
	c-10.4,3.2-20.9,2.3-31.3,0.1c-0.2,0-0.4-0.2-0.7-0.4c0.6-4.7,1.2-9.4,1.8-14.3c2.8,0.7,5.4,1.4,8,2c5.4,1.1,10.9,1.6,16.3-0.1
	c4.4-1.4,6.6-5.6,4.6-9.4c-1-1.8-2.8-3.4-4.7-4.3c-4.2-2.2-8.8-3.8-13-6c-2.6-1.3-5.1-2.8-7.2-4.7c-9.4-8.6-7.4-25.2,3.7-31.9
	c6.4-3.8,13.4-4.9,20.7-4.7c3.9,0.1,7.8,0.7,11.8,1c1.4,0.1,1.9,0.7,1.9,2.1C254.6,241,254.6,245,254.6,249z"/>
<path class="st0" d="M180.5,308.3c0-32.9,0-65.4,0-98.3c1.3,0,2.5,0,3.8,0c3.7,0,7.3,0.1,11,0c1.7-0.1,2.3,0.6,2.1,2.2
	c-0.1,1,0,2.1,0,3.2c0,30.1,0,60.1,0,90.2c0,2.9,0,2.9-2.9,2.9C189.9,308.3,185.4,308.3,180.5,308.3z"/>
<path class="st0" d="M434.3,250.2c-2.5,0-4.8-0.2-7,0c-5.6,0.7-9,4.2-11.1,9.2c-2.2,5.3-2.8,10.9-2.9,16.5c-0.2,9.9,0,19.7,0,29.6
	c0,0.8,0,1.7,0,2.8c-3.5,0-6.8,0-10.1,0c-1.5,0-3.1-0.1-4.6,0c-1.9,0.2-2.4-0.6-2.4-2.4c0.1-15.3,0-30.7,0-46c0-7,0-14.1,0-21.1
	c0-4.2-0.2-3.4,3.5-3.4c4.1,0,8.3,0,12.8,0c-0.2,3.4-0.4,6.6-0.5,9.8c0.1,0.2,0.2,0.3,0.4,0.5c5.1-8.6,12.4-12.7,22.7-11.4
	C434.8,239.5,434.5,244.9,434.3,250.2z"/>
<path class="st0" d="M278.3,103.6c1.7-1.6,3.1-2.9,4.5-4.3c4.7-4.7,9.3-9.4,14-14c3-3,8.1-2.9,11.1,0c3.1,3,3.2,8.3,0.1,11.4
	c-5.2,5.3-10.4,10.5-15.7,15.7c-0.7,0.7-1.6,1.1-2.4,1.6c0.2,0.3,0.4,0.6,0.6,0.9c0.6,0.1,1.2,0.2,1.7,0.2c3.3,0,6.6,0,9.9,0
	c4.7,0,7.9,3,8.1,7.4c0.2,4.8-2.9,8.4-7.6,8.6c-5.5,0.2-11,0.2-16.5,0c-3.4-0.1-6-1.8-7.3-5.2c-2.1-5.3-5.9-9-11-11.3
	c-3.6-1.6-5.4-4.3-5.3-8.3c0.1-5.1,0-10.1,0-15.2c0-4.6,3.5-8.1,8-8c4.5,0.1,7.8,3.5,7.7,8c0,3.4,0,6.9,0,10.3
	C278.1,102,278.2,102.6,278.3,103.6z"/>
<path class="st0" d="M231.4,115.2c-2.8-2.8-5.1-5.2-7.5-7.6c-3.7-3.7-7.4-7.3-11-11.1c-3-3-2.9-8,0.1-11c3-3,8.1-3.2,11-0.2
	c5.4,5.3,10.8,10.7,16.1,16.1c0.6,0.6,1.3,1.1,2.5,2.1c0-3.1,0-5.5,0-8c0-1.5,0-3,0-4.4c0.2-4.6,3.5-8,7.9-8c4.3,0,7.9,3.4,8,7.9
	c0.1,5.3,0.1,10.7,0,16.1c-0.1,3.6-1.8,6.2-5.3,7.6c-5.2,2-8.7,5.9-11,10.9c-1.7,3.7-4.2,5.7-8.5,5.6c-5-0.2-10,0-15,0
	c-4.6,0-8.1-3.3-8.2-7.6c-0.1-5,2.8-8.2,7.8-8.3c3.4-0.1,6.8,0.1,10.1,0.2C229.3,115.4,230,115.3,231.4,115.2z"/>
<path class="st0" d="M230.3,150.6c-3.8,0-7.6,0.1-11.4,0c-6.5-0.2-10.2-6.6-7-12c1.6-2.6,4-3.9,7-3.9c5.4-0.1,10.7-0.1,16.1,0
	c3.7,0.1,6.2,1.9,7.5,5.4c1.9,5.2,5.6,8.7,10.7,10.8c3.6,1.5,5.5,4.1,5.5,7.9c0.1,5.1,0.1,10.3,0,15.4c0,3.2-1.2,5.8-4.2,7.2
	c-2.9,1.4-5.7,1.3-8.4-0.4c-2.1-1.4-3.1-3.4-3.1-5.9c0-4.1,0-8.3,0-13c-0.9,0.8-1.5,1.2-2,1.7c-5.3,5.3-10.6,10.5-15.8,15.8
	c-2.2,2.2-4.6,3.4-7.8,2.8c-3.1-0.6-5.3-2.4-6.1-5.5c-0.9-3.1-0.3-6,2-8.4c5.3-5.3,10.5-10.6,15.8-15.8c0.5-0.5,1-1.1,1.5-1.6
	C230.5,150.9,230.4,150.7,230.3,150.6z"/>
<path class="st0" d="M278.3,162.3c-0.1,1-0.1,1.8-0.1,2.5c0,3.3,0,6.6,0,9.9c0,4.2-3.3,7.6-7.6,7.8c-4,0.2-8-2.7-8.1-6.7
	c-0.3-6.2-0.2-12.4,0-18.6c0.1-3,2-5.2,4.7-6.2c5.6-2.2,9.3-6.1,11.6-11.5c1.4-3.2,4-4.9,7.5-4.9c5.2-0.1,10.4-0.1,15.6,0
	c5.1,0.1,8.3,3.4,8.2,8.4c-0.1,4.5-3.5,7.5-8.4,7.5c-3.2,0-6.3-0.2-9.5-0.3c-0.7,0-1.4,0.1-2.7,0.1c1.6,1.7,2.8,3,4,4.2
	c4.6,4.6,9.2,9.1,13.8,13.7c3.5,3.5,3.7,8.7,0.5,11.9c-3.3,3.3-8.3,3.1-11.8-0.6c-5.4-5.5-10.8-10.9-16.2-16.3
	C279.4,163,279,162.8,278.3,162.3z"/>
</svg>
