<svg xmlns="http://www.w3.org/2000/svg" viewBox="0 0 512 512"><path d="M372.5 240.8c11.8-20.3 4.9-46.4-15.4-58.2-20-11.7-45.6-5.1-57.7 14.5l-74.1 127.5c-16.7 26.3-51.3 34.9-78.5 19.1-27.2-15.8-36.8-50.1-22.2-77.7h-.1s73.4-126.2 73.6-126.6c11.8-20.3 4.9-46.4-15.4-58.3-20.3-11.8-46.4-4.9-58.2 15.4-.1.2-73.7 126.8-73.7 126.8-38 68.2-14.6 154.5 53.2 193.9 68.5 39.8 156.4 16.6 196.2-51.9.9-1.6 72-124 72.3-124.5" fill="#64a70b"/><path d="M139.5 271.2c-11.8 20.3-4.9 46.4 15.4 58.2 20 11.7 45.6 5.1 57.7-14.6l74.1-127.5h.1c16.7-26.3 51.3-34.9 78.5-19.1 27.1 15.8 36.8 50.1 22.2 77.7h.1S314.2 372.1 314 372.5c-11.8 20.3-4.9 46.4 15.4 58.2 20.3 11.8 46.4 4.9 58.2-15.4.1-.1 73.8-126.8 73.8-126.8 38-68.2 14.6-154.5-53.2-193.9-68.6-39.8-156.4-16.6-196.3 51.9-1 1.8-72.1 124.2-72.4 124.7" fill="#a7a8aa"/></svg>