<?xml version="1.0" encoding="utf-8"?>
<!-- Generator: Adobe Illustrator 22.1.0, SVG Export Plug-In . SVG Version: 6.00 Build 0)  -->
<svg version="1.1" id="Layer_1" xmlns="http://www.w3.org/2000/svg" xmlns:xlink="http://www.w3.org/1999/xlink" x="0px" y="0px"
	 viewBox="0 0 512 512" style="enable-background:new 0 0 512 512;" xml:space="preserve">
<style type="text/css">
	.st0{fill:#FD6A27;}
</style>
<path class="st0" d="M410.4,251.3C405,338.8,342.6,400.5,258.6,399c-95-1.7-148.9-74.4-148.1-149c1-96.3,75.1-152.2,151.9-150
	C354.2,102.6,408.4,171.7,410.4,251.3z M276.7,188.5c0-16.3-0.7-31.2,0.2-46c0.8-12.8-6-14.5-16.1-14.2c-9.7,0.2-18.8-0.7-17.9,14
	c1,15,0.2,30.2,0.2,47.4c-36.4-16.7-65.8-9.5-88.9,17.8c-18.8,22.3-19.8,49.2-6.2,73.7c20.9,37.9,54.8,44.5,95.2,29.5
	c0,16.9,0.7,31.8-0.2,46.7c-0.8,13.7,7.8,13.2,17,13.2c9.2,0,17.7,0.4,16.9-13.3c-0.9-15.1-0.2-30.3-0.2-46
	c47.3,11.4,74,4,92.5-24.6c14.8-22.8,14.3-55.8-1.3-77.1C348.7,183.2,319.2,175.8,276.7,188.5z"/>
<path class="st0" d="M208.1,215.9c19.5-0.1,34.9,14.6,35.1,33.6c0.2,18.3-15.9,33.7-35,33.5c-19.1-0.1-33.4-14-33.7-32.8
	C174.1,230.5,188.3,216,208.1,215.9z"/>
<path class="st0" d="M310.9,283c-18.3-0.2-33.9-15.3-34.1-33c-0.2-18.7,15.4-34,34.7-34.1c19.9-0.1,34.3,14.3,34.1,33.9
	C345.4,269.4,330.9,283.2,310.9,283z"/>
</svg>
