<?xml version="1.0" encoding="utf-8"?>
<!-- Generator: Adobe Illustrator 22.1.0, SVG Export Plug-In . SVG Version: 6.00 Build 0)  -->
<svg version="1.1" id="Layer_1" xmlns="http://www.w3.org/2000/svg" xmlns:xlink="http://www.w3.org/1999/xlink" x="0px" y="0px"
	 viewBox="0 0 512 512" style="enable-background:new 0 0 512 512;" xml:space="preserve">
<style type="text/css">
	.st0{fill:#2A8A37;}
	.st1{fill:#188026;}
</style>
<path class="st0" d="M244.3,509.5c-31.5,0-63.1,0-94.6,0c-1-0.7-1.9-1.5-2.9-2.2c-0.3-4.2-0.8-8.4-0.8-12.7c0-135.5,0-271.1,0-406.6
	c0-20.1,5.3-25.7,25.5-25.7c59.1-0.1,118.1-0.1,177.2,0c18,0,24.2,5.7,24.2,21.9c0.1,138.9,0,277.9,0,416.8c0,2.1-0.5,4.2-0.8,6.3
	c-1,0.7-1.9,1.5-2.9,2.2c-32.4,0-64.8,0-97.1,0c-1-0.7-1.9-1.5-2.9-2.2c-0.2-22.5-0.3-45-0.8-67.5c-0.1-7.2,4.4-10.3,9.6-13.6
	c23.3-14.7,41.8-33.3,48.5-61.2c3.6-15.2,3.2-29.7-7.6-42c-5.1-5.8-2.8-10.8-0.3-16.3c4.4-9.7,8.3-19.7,5.7-30.7
	c-0.9-3.6-1.9-8.7-4.6-10.2c-13.8-7.8-9.9-18.6-7.5-30.5c2.9-14.6,3-29.1-15.5-35.4c-4.6-1.5-6.4-6.8-6.2-12.5
	c0.3-11.1-1-22-5.5-32.4c-5.3-12.1-14.3-18.8-27.7-18.7c-13.1,0.1-21.3,7.5-25.8,19.2c-4.2,10.8-5.4,22.2-5.3,33.8
	c0,4.3,0.6,8.9-4.7,10.6c-17.2,5.2-17.8,18.5-16.1,32.7c0.6,5.5,1.8,10.9,3.1,16.2c1,4.1,0.7,7.5-2.9,10.1
	c-16,11.6-14.2,27-7.9,42.3c4.2,10.2,5.4,18-2,27.8c-7.5,9.8-6.5,22.5-3.9,34.4c5.8,27,21.9,46.7,44.6,61
	c8.8,5.6,11.6,11.9,11.2,21.9c-0.8,20.3-0.7,40.7-0.9,61.1C246,508.1,245.1,508.8,244.3,509.5z"/>
<path class="st1" d="M910,1065.7c0.9,0.7,1.8,1.4,2.8,2.1C911.1,1068,909.8,1067.8,910,1065.7z"/>
<path class="st1" d="M1003.4,1067.8c0.8-0.7,1.6-1.3,2.4-2C1006.1,1067.7,1004.9,1068,1003.4,1067.8z"/>
<path class="st1" d="M1027.4,1065.7c0.9,0.7,1.8,1.4,2.8,2.1C1028.5,1068,1027.2,1067.8,1027.4,1065.7z"/>
<path class="st1" d="M1123.2,1067.8c0.9-0.7,1.9-1.4,2.8-2.1C1126.2,1067.8,1124.8,1068,1123.2,1067.8z"/>
</svg>
