<svg xmlns="http://www.w3.org/2000/svg" viewBox="0 0 512 512"><path fill="#2a8a37" d="M244.3 509.5h-94.6c-1-.7-1.9-1.5-2.9-2.2-.3-4.2-.8-8.4-.8-12.7V88c0-20.1 5.3-25.7 25.5-25.7 59.1-.1 118.1-.1 177.2 0 18 0 24.2 5.7 24.2 21.9.1 138.9 0 277.9 0 416.8 0 2.1-.5 4.2-.8 6.3-1 .7-1.9 1.5-2.9 2.2h-97.1c-1-.7-1.9-1.5-2.9-2.2-.2-22.5-.3-45-.8-67.5-.1-7.2 4.4-10.3 9.6-13.6 23.3-14.7 41.8-33.3 48.5-61.2 3.6-15.2 3.2-29.7-7.6-42-5.1-5.8-2.8-10.8-.3-16.3 4.4-9.7 8.3-19.7 5.7-30.7-.9-3.6-1.9-8.7-4.6-10.2-13.8-7.8-9.9-18.6-7.5-30.5 2.9-14.6 3-29.1-15.5-35.4-4.6-1.5-6.4-6.8-6.2-12.5.3-11.1-1-22-5.5-32.4-5.3-12.1-14.3-18.8-27.7-18.7-13.1.1-21.3 7.5-25.8 19.2-4.2 10.8-5.4 22.2-5.3 33.8 0 4.3.6 8.9-4.7 10.6-17.2 5.2-17.8 18.5-16.1 32.7.6 5.5 1.8 10.9 3.1 16.2 1 4.1.7 7.5-2.9 10.1-16 11.6-14.2 27-7.9 42.3 4.2 10.2 5.4 18-2 27.8-7.5 9.8-6.5 22.5-3.9 34.4 5.8 27 21.9 46.7 44.6 61 8.8 5.6 11.6 11.9 11.2 21.9-.8 20.3-.7 40.7-.9 61.1-.7.7-1.6 1.4-2.4 2.1"/><path fill="#188026" d="M910 1065.7c.9.7 1.8 1.4 2.8 2.1-1.7.2-3 0-2.8-2.1m93.4 2.1c.8-.7 1.6-1.3 2.4-2 .3 1.9-.9 2.2-2.4 2m24-2.1c.9.7 1.8 1.4 2.8 2.1-1.7.2-3 0-2.8-2.1m95.8 2.1c.9-.7 1.9-1.4 2.8-2.1.2 2.1-1.2 2.3-2.8 2.1"/></svg>