<?xml version="1.0" encoding="utf-8"?>
<!-- Generator: Adobe Illustrator 22.1.0, SVG Export Plug-In . SVG Version: 6.00 Build 0)  -->
<svg version="1.1" id="Layer_1" xmlns="http://www.w3.org/2000/svg" xmlns:xlink="http://www.w3.org/1999/xlink" x="0px" y="0px"
	 viewBox="0 0 512 512" style="enable-background:new 0 0 512 512;" xml:space="preserve">
<style type="text/css">
	.st0{fill:#15569C;}
	.st1{fill:#FFFFFF;}
</style>
<rect x="1" y="0" class="st0" width="511" height="512"/>
<path class="st1" d="M94,146c1.3,0.1,2.6,0.1,3.9,0.1c41,0,82.1,0,123.1-0.1c3.4,0,4.8,0.8,5.8,4.3c10.6,40,21.3,80,32.1,119.9
	c0.4,1.4,0.9,2.8,2.1,4.3c2.2-8.5,4.4-17.1,6.6-25.6c8.4-33,16.9-65.9,25.2-98.9c0.8-3,2-3.9,5-3.9c40.8,0.1,81.6,0.1,122.4,0.1
	c1.1,0,2.1,0,3.8,0c-0.7,3.8-1.2,7.4-2.1,10.9c-1.3,5-3.1,10-4.4,15c-0.8,2.8-2.1,3.8-5.2,3.8c-24.7-0.1-49.5,0-74.2-0.2
	c-3.2,0-4.7,0.9-5.3,4.1c-0.5,2.9-1.6,5.6-2.6,9c26.8,0,53,0,79.9,0c-0.9,1.8-1.4,3.2-2.1,4.3c-4.7,7.4-9.6,14.7-14.3,22.1
	c-1.5,2.4-3.4,3.2-6.2,3.1c-20.7-0.1-41.4,0-62.1-0.1c-3.5,0-5.2,1-5.9,4.4c-0.5,2.6-1.5,5.2-2.4,8.4c21,0,41.6,0,62.1,0
	c0.2,0.3,0.3,0.7,0.5,1c-6.8,6.2-13.9,12.2-20.5,18.5c-8.4,8-17.8,11.8-29.6,10.3c-6-0.8-12.1,0-18.2-0.2c-2.8-0.1-3.9,0.9-4.7,3.5
	c-11,35.8-22.1,71.6-32.9,107.5c-1.1,3.7-2.6,5.1-6.5,4.8c-5.6-0.4-11.2-0.2-16.8,0c-2.6,0.1-3.6-0.8-4.4-3.3
	c-11.1-35.8-22.4-71.6-33.4-107.4c-1.2-4-2.9-5.3-7.1-5.2c-9.9,0.4-19.7,0.2-29.6,0.1c-1.5,0-3.1-0.4-4.3-1.1
	c-11.9-7.8-22.4-17.2-32.3-27.4c-0.1-0.1-0.1-0.4-0.3-1.1c20.7,0,41.3,0,62.5,0c-1.3-4.3-2.3-8.1-3.8-11.6c-0.4-0.8-2.7-1.1-4.1-1.1
	c-20.5-0.1-40.9-0.2-61.4,0c-3.9,0-6.4-1-8.5-4.3c-5.1-8.1-10.5-16.1-15.7-24.1c0.2-0.3,0.5-0.7,0.7-1c26.3,0,52.6,0,79.6,0
	c-1.4-4.5-2.4-8.3-3.9-12c-0.3-0.8-2.4-1.1-3.6-1.1c-24.9-0.1-49.7-0.1-74.6,0c-3.1,0-4.8-0.7-5.5-3.9c-1.9-7.7-4-15.4-6.1-23
	c-0.2-0.8-0.6-1.5-0.9-2.3C94,146.5,94,146.2,94,146z"/>
</svg>
