<svg id="viamo" xmlns="http://www.w3.org/2000/svg" xmlns:xlink="http://www.w3.org/1999/xlink" viewBox="0 0 80 80"><defs><style>.cls-1{fill:none;}.cls-2{clip-path:url(#clip-path);}.cls-3{fill:#231f20;}</style><clipPath id="clip-path"><rect class="cls-1" x="-0.25" y="0.3" width="80" height="80"/></clipPath></defs><title>viamo</title><g class="cls-2"><path class="cls-3" d="M27.72,15.49,17.6,25.62a2.66,2.66,0,0,0,0,3.78L38,49.79a2.68,2.68,0,0,0,3.78,0L51.89,39.67a2.66,2.66,0,0,0,0-3.78L31.5,15.49A2.68,2.68,0,0,0,27.72,15.49ZM48.87,35.2a1,1,0,0,1,0,1.44L38.75,46.77a1,1,0,0,1-1.45,0L20.62,30.09a1,1,0,0,1,0-1.45L30.74,18.52a1,1,0,0,1,1.45,0Z"/><path class="cls-3" d="M62.13,25.62,52,15.5a2.66,2.66,0,0,0-3.78,0l-2.94,2.93h0l-4.38,4.39a.82.82,0,0,0,0,1.17.83.83,0,0,0,1.17,0l5.46-5.47a1,1,0,0,1,1.45,0L59.11,28.64a1,1,0,0,1,0,1.45l-5.47,5.46a.83.83,0,0,0,1.17,1.17l.66-.66,3.73-3.72,2.93-2.94A2.66,2.66,0,0,0,62.13,25.62Z"/><path class="cls-3" d="M26.43,55.66a1.22,1.22,0,0,0-1.22,1.22v8.64a1.23,1.23,0,0,0,2.45,0V56.88a1.23,1.23,0,0,0-1.23-1.22"/><path class="cls-3" d="M35.15,56.37A1.22,1.22,0,0,0,34,55.66a1.24,1.24,0,0,0-1.12.71L28.83,65a1.23,1.23,0,0,0,0,.94,1.16,1.16,0,0,0,.64.68,1.11,1.11,0,0,0,.5.12A1.25,1.25,0,0,0,31.06,66l.37-.79h2.13a1.22,1.22,0,0,0,0-2.44h-1l1.44-3L37,66a1.2,1.2,0,0,0,1.11.71,1.25,1.25,0,0,0,.51-.1,1.24,1.24,0,0,0,.64-.69,1.23,1.23,0,0,0,0-.94Z"/><path class="cls-3" d="M23.65,55.77a1.25,1.25,0,0,0-1.62.6l-3,6.25-3-6.25a1.23,1.23,0,0,0-1.61-.6,1.16,1.16,0,0,0-.64.68,1.18,1.18,0,0,0,0,.94L17.94,66a1.22,1.22,0,0,0,2.22,0l4.09-8.64a1.22,1.22,0,0,0-.6-1.62"/><path class="cls-3" d="M52.17,56.68a1.23,1.23,0,0,0-2.32-.32L47.1,62.71l-3-6.38a1.26,1.26,0,0,0-1.33-.65,1.22,1.22,0,0,0-1,1l-2,8.64v.06a1.22,1.22,0,0,0,1.1,1.33H41a1.23,1.23,0,0,0,1.21-1l1.36-4.92,2.51,5.27,0,.07a.89.89,0,0,0,.16.22l0,.05.19.15.05,0,.09,0,.13.05.09,0a1.18,1.18,0,0,0,.62,0l.09,0,.18-.07.11-.08a.75.75,0,0,0,.16-.13l.07-.07.13-.18,2.35-5.4,1.63,5a1.23,1.23,0,0,0,2.18.52,1.26,1.26,0,0,0,.23-.94Z"/><path class="cls-3" d="M60.47,64.38a3.17,3.17,0,1,1,3.16-3.17,3.17,3.17,0,0,1-3.16,3.17m0-8.7A5.53,5.53,0,1,0,66,61.21a5.54,5.54,0,0,0-5.53-5.53"/></g></svg>