<svg viewBox="0 0 200 200" xmlns="http://www.w3.org/2000/svg"><path d="M100 25c41.308 0 75 33.692 75 75s-33.691 75-75 75c-41.308-.001-75-33.692-75-75s33.692-75 75-75Z" fill="#CC2229"/><path d="M83.058 94.634c-3.593 1.668-4.063 7.848-4.95 11.389l-.776 2.976c-.297.884-.631 1.815-.772 2.775-.321 2.163-.27 6.319 2.49 6.319l.751-.083c.804-.632 1.217-.697 1.624-1.765.368-.978.32-2.179.394-3.31.118-.941.235-1.882.35-2.824.285-1.877.645-3.73.982-5.579.27-1.513.814-2.963 1.064-4.495.25-1.55 1.188-5.028-1.157-5.403Zm11.192-8.32c-.537.177-1.06.245-1.506.577-.595.439-.933 1.128-1.3 1.719a57.245 57.245 0 0 0-1.547 2.605c-.152.268-.35.593-.616.78-.46.317-1.04.46-1.355.988-.582.965-.76 2.057-.974 3.224-.334 1.81-.64 3.65-.79 5.582-.115 1.429-.235 5.887.476 6.847.34.466 1.012.557 1.6.557.29-.117.817-.084 1.168-.084.512-.314 1.031-.549 1.362-1.116.3-.514.526-1.068.673-1.645.46-1.838.603-3.819.856-5.731.096-.912.193-1.825.288-2.739.07-.33.213-.905.55-1.06.454-.214 1.177.145 1.7.145.215-.096.432-.192.646-.292.368-.19.67-.56.896-.902.193-.457.389-.912.582-1.37.811-2.371.634-4.688-.799-6.663-.717-.99-.444-1.188-1.91-1.422Zm-10.857-6.24c-.376.214-.782.393-1.017.791-.324.538-.444 1.182-.496 1.868-.133 1.677.107 3.3 1.795 3.908 1.07.384 1.944-.723 2.357-1.464.037-.07.178-.195.034-.195.379-1.417.083-4.078-1.378-4.747-.35-.16-.854-.16-1.295-.16Zm35.745-2.412c-.423.221-.834.446-1.117.863-.815 1.197-1.16 2.766-1.541 4.181-.429 1.575-.872 3.187-1.222 4.786-.431 1.95-.745 3.88-1.288 5.73-.39 1.313-.812 4.344.999 4.78 1.154.277 2.46-.402 3.024-1.324.759-1.256.827-3.02 1.089-4.535.259-1.5.88-2.904 1.084-4.396.139-1.146.28-2.29.418-3.437.291-1.422 1.365-2.556 1.1-4.228-.232-1.458-.92-2.368-2.546-2.42Zm19.458-9.567c-.681.307-1.396.341-1.98.858-1.189 1.04-2.231 2.34-3.184 3.559-.437.538-.872 1.077-1.309 1.612-.221.205-.63.543-.959.543-.086-.129-.25-.31-.25-.5-.134-.48-.113-.964-.388-1.372-.89-1.329-2.737.068-3.236 1.067-.445.886-.595 1.907-.941 2.851l-2.068 6.788c-.115.875-.229 1.748-.347 2.621-.262.925-.62 1.762-.782 2.772-.201 1.224-.651 4.281.433 5.121.355.274.742.356 1.233.364 1.725.027 2.591-1.36 3.067-2.747 1.138-3.349 2.109-6.737 3.552-9.924.66-1.467 1.185-2.53 2.364-3.739.301-.311.64-.71 1.06-.821.725-.195 1.031.38 1.022 1.012-.015.922-.279 1.89-.435 2.75-.217 1.265-.434 2.535-.654 3.8-.187.879-.563 2.173-.518 3.1.023.543.216 1.066.527 1.453.36.45 1.167.757 1.127 1.453-.067 1.144-4.126 3.377-5.101 3.743-1.828.681-3.405 1.994-4.964 3.196-.769.543-1.534 1.087-2.301 1.627-1.17.829-2.474 1.555-3.734 2.213-.857.556-1.712 1.116-2.568 1.671-.701.416-1.399.832-2.1 1.245l-2.019 1.392c-.63.421-1.14 1.063-1.802 1.428-.091.047-.722.234-.722.05h-.084c0-.932.201-1.805.289-2.667l.056-2.575c.064-.832.133-1.661.199-2.493.172-1.98.675-3.902 1.093-5.751.358-1.601.645-3.257 1.011-4.823.231-.99 1.29-5.155-.404-5.44-1.083-.186-2.388.534-2.977 1.377-.993 1.406-1.422 3.102-1.974 4.722-.78 2.279-1.735 4.705-2.822 6.819-.298.576-1.724 3.592-2.405 3.592-.495-.847-.148-2.36.09-3.244.019-.08.137-.25-.006-.25.36-.865.546-2.074.853-2.987.397-1.188 1.031-2.367 1.616-3.468.275-.52.731-1.224 1.17-1.643.325-.261.652-.52.977-.78a4.967 4.967 0 0 0 1.503-2.621c.32-1.446-.069-4.43-1.781-4.597-.402-.04-.846.141-1.169.274-2.185.884-2.969 3.526-3.863 5.403-1.801 3.773-3.339 7.663-4.192 11.927-.401 1.997-.41 4.111-.6 6.214-.198 2.154-.274 4.829 1.277 6.278 1.639 1.531 4.721-1.3 5.759-2.546.22-.265 1.389-2.054 1.624-2.054v-.082h.082v.167c.315.879.096 2.139.085 3.077-.021 1.298-.301 3.134-.897 4.111-.424.683-1.058 1.074-1.635 1.598-1.156 1.043-2.421 1.908-3.507 2.993-.989.983-1.646 2.205-2.747 3.083-.836.664-1.91.932-2.818 1.443-.572.32-.977.83-1.475 1.267-.329.259-.654.519-.984.78-1.182.999-1.51 2.597-2.75 3.567l-1.284.894c-1.73 1.339-3.427 2.748-5.154 4.091-1.38 1.065-2.746 2.115-4.048 3.293-1.084.922-2.163 1.842-3.247 2.76-.307.275-.615.55-.927.823-.811.746-1.62 1.492-2.431 2.236-.982.974-1.885 2.067-3.012 2.903-.857.631-1.91 1.204-2.56 2.107-.23.318-.489.658-.642 1.008-.39.882-.836 3.305-.11 4.108 1.783 1.973 6.472-3.733 7.77-4.838 2.04-1.744 3.81-3.817 5.773-5.649a314.609 314.609 0 0 0 10.505-10.337c.73-.754 1.642-1.153 2.475-1.703.866-.577 1.555-1.409 2.225-2.19.32-.32.637-.636.956-.957l3.437-3.059c.59-.424 1.223-.677 1.792-1.145.193-.249.387-.499.576-.748.476-.592 1.246-1.419 1.932-1.696.146-.059.465-.055.588.031.223.154.281.44.309.71-.058.637-.116 1.275-.176 1.912-.126 1.996-.25 3.994-.379 5.991.05 1.934-.109 4.049-.137 5.988l.007 2.913c-.028 1.798.056 3.764.141 5.574.084 1.782.084 3.575.193 5.321.077 1.027.152 2.054.227 3.081l-.07 2.746c0 1.731.208 5.459 1.384 6.423.416.343.879.439 1.456.405.553-.036 1.022-.161 1.446-.419 2.688-1.656 1.024-7.103.815-9.741l-.729-5.743-.595-6.652c-.141-1.467-.143-2.99-.143-4.487 0-3.866.246-7.843.822-11.478.285-1.828.63-4.095 1.36-5.709.663-1.482 2.011-2.876 3.329-3.887l1.787-1.149c1.163-.742 2.292-1.705 3.295-2.701.628-.627 1.135-1.353 1.836-1.911.924-.743 1.957-1.165 2.936-1.761.616-.377 1.107-1.037 1.7-1.445 1.585-1.1 3.399-1.934 5.066-2.875l2.166-1.467a171.091 171.091 0 0 1 10.573-5.878c2.406-1.233 4.8-2.447 7.398-3.307 1.058-.442 2.116-.885 3.169-1.33.553-.277 1.175-.67 1.801-.813 1.049-.245 2.255.247 3.146.47.407.102.986.062 1.438.062l1.052-.39c.484-.205.938-.605 1.283-1.019.345-.419.584-.988.781-1.492.731-1.901 1.703-4.199-.416-5.781-.416-.313-.949-.599-1.534-.624-1.706-.081-3.189.85-4.533 1.521-.51.177-1.015.354-1.524.527-.672.296-1.247.877-1.911 1.201-.682.328-1.438.502-2.099.868-.822.421-1.644.843-2.466 1.261-1.085.554-2.531 1.365-3.838 1.457-.617.038-1.586-.284-2.038-.653-.841-.697-1.696-1.64-1.929-2.709-.345-1.55.093-3.356.324-4.828l.238-2.65c.08-1.031.287-2.123.324-3.243.03-1.001.06-2.19-.42-2.995-.47-.774-1.146-1.055-2.096-1.083Zm-13.698-6.24c-.361.335-.772.538-.999.995-.285.567-.247 1.302-.257 1.998-.014.358-.026.717-.043 1.076.139 1.375 1.035 2.056 2.462 1.793.998-.187 1.117-1.38 1.288-2.196.126-.614.396-1.368.259-2.078-.078-.398-.3-.823-.624-1.087-.56-.456-1.267-.5-2.086-.5ZM97.172 34.733c-.545.225-1.158.462-1.563.936-1.065 1.236-1.727 2.71-2.5 4.108-1.38 2.483-2.948 4.95-3.976 7.591-.275.611-.548 1.222-.826 1.833l-.686 1.775c-.376.88-.563 1.845-.937 2.702-.365.829-1.03 1.49-1.445 2.271l-1.637 3.26c-.314.705-.624 1.408-.937 2.11-.454.856-.989 1.679-1.393 2.554-.806 1.74-1.376 3.622-2.028 5.441l-1.465 3.552-1.62 3.853c-1.524 3.2-2.647 6.652-3.93 9.983l-.945 2.605-2.404 6.909c-1.683 4.848-2.7 9.959-4.325 14.817-.376 1.119-.733 2.252-1.01 3.404-.242.996-.344 2.226-1.01 3-.138.159-.412.309-.61.148-.441-.362-.59-6.728-.684-7.896-.374-4.586-.233-9.549-.157-14.142.06-3.861-.013-7.86-.073-11.73l-.083-2.912c0-1.935.062-7.439-2.013-7.782-2.233-.371-3.807 4.83-4.384 6.25-.63 1.544-.815 3.34-1.24 5.002-.352 1.36-.832 2.638-1.338 3.905-1.613 4.009-4.194 7.528-5.705 11.594-.316.848-.67 1.76-.823 2.665-.2 1.165-.122 3.653.893 4.303.752.48 1.849.335 2.48-.248.59-.549.94-2.078 1.328-2.851.35-.734.7-1.464 1.047-2.197.454-.967 1.072-1.874 1.51-2.868.54-1.225.729-2.635 1.25-3.87.225-.4.45-.8.674-1.204l.947-2.007c.047-.08.159-.21.279-.21v.083c.277.553.349 1.266.433 1.91.134 1.027.274 2.059.326 3.162.17 3.653.243 7.384.243 11.15 0 3.38.186 6.763.615 9.978l.533 3.499c.313 2.816.313 5.723.588 8.569.221 2.134.443 4.272.666 6.406.143 1.298.018 3.5.77 4.406.54.654 1.322.586 2.173.586.535-.372.913-.349 1.357-.96.786-1.087.606-2.628.652-4.115.053-1.729.1-3.533.264-5.242.304-3.211.75-6.346 1.425-9.397.264-1.195.736-2.324 1.012-3.512.123-.717.248-1.435.37-2.153.035-.777-.008-1.612.126-2.321.267-1.454.93-2.699 1.451-4.009.167-.429.162-.973.221-1.474.113-.528.228-1.052.34-1.581.545-1.945 1.091-3.889 1.634-5.837.028-.127.362-.998.25-.998.303-.633.394-1.39.622-2.064l1.495-5 3.758-11.893a3765.04 3765.04 0 0 0 1.861-5.39c1.563-3.484 3.367-6.949 4.901-10.454.65-1.492 1.19-3.062 1.671-4.653.296-.988.37-1.887.814-2.804.412-.861 1.222-1.426 1.785-2.2.885-1.224 1.825-2.402 2.51-3.733 1.197-2.327 1.801-5.263 4.385-6.547.277-.14.528-.367.854-.419.955-.162 1.338 1.796 1.79 2.363.175.218.449.375.69.474.443.181.936-.009 1.426-.009.45-.353.833-.618 1.053-1.177.887-2.278.002-8.271-1.266-10.02-.618-.849-1.362-1.207-2.459-1.278Z" fill="#fff"/></svg>