<svg xmlns="http://www.w3.org/2000/svg" viewBox="0 0 512 512"><path d="m331.525 156.453-.4-.7.1-.9.1-.5.2-.5.1-.7.1-.5.2-.1.1-.3.1-.5.3-.9.2-.5.5-.9.2-.3.2-.4.3-.3.2-.4.5-.6.1-.1.4-.2.2-.3.2-.3.4-.2.2-.3.6-.5.2-.3.4-.1.1-.2h.2l.1-.1.3-.2.3-.2.2-.1.1-.2.3-.1.3-.3.3-.2.7-.3.3-.2.8-.2.3-.2.4-.1.8-.3.9-.2.4-.1h3.2l.4.1.3.2.4.1.4.2.8-.1h.3l.3.3.2.4.3.5.2.3.2.4.3.3.3.4v.5l.2.9-.1.2.1.3.2.4.1.3.1.2-.1.2-.4.6-.3.8-.1.7v.3l-.2.3-.1.4-.3.3-.2.4-.3.3-.2.4-.1.4-.7.5-.7 1-.9.9-.5.7-.5.7-.5.8-1.5 1.2-.9.5-.4.3-.2.4-.8.2-.6.5-1.3.6-.3.3h-.8l-.3-.1h-.4l-.9.2-1.3-.2-1.7-.4-.8-.3-.7-.4-1.2-1.2-.2-.3-.1-.5-.2-.9v-1m-12.1 96.3-.3-1.3.1-.7v-1.6l.2-2.3v-.6l.2-.7.1-1.5.1-1.4.1-1.5.2-1.4.3-2.3v-.7l.1-.5-.1-.1h.1l-.1-.3.1-.4.1-.5-.1-.1.1-.3v-.5l.1-1.4v-.4l-.1-.3.1-.5.2-1.3.1-.8v-.7l.1-1.5.2-1 .1-.4-.1-.3.1-.3.1-1.2v-.7h.1l.1-.1v-.2l-.1-.1v-.2l.1-.2-.1-.3.1-.3.1-.7.1-1.3v-.1l.3-.1-.1-.3-.1-.1v-.2l.1-.2-.2-.2.2-.1-.1-.3v-.9l.2-.6v-.6l.1-.3h.1l.1-.2-.2-.4.1-.1.1-.5v-.9l.1-.2v-.9l.2-.5.1-.8-.1-.3-.1-.3.1-.1h.3l-.1-.4.1-.3v-.2l-.1-.2-.1-.1h.1l.2.1v-.1l-.2-.1v-.3h.1l.1-.1h-.1l.1-.2v-.9l.1-.6.1-.8v-.6h.2v-.4l-.1-.2.1-.4.1-.7.1-1.1v-.4l.1-.1.1-.2-.1-.1v-.4l.1-.3.1-.5.1-.1v-.1h-.2v-.7h.1l-.1-.1-.1-.1.1.1v-.7l.1-.6.1-.5.1-.1v-.6l-.2-.3.3-.6.1-.9v-.4h.1l-.1-.2.2-.1-.1-.3-.1-.1.1-.1.1-.8.1-.4h-.1l.3-1.1.2-.6.1-.1v-.4l.2-.4.1-.2.1-.4.1-.2-.1-.1.2-.1v-.3l.1-.1.2-.2-.1-.1.3-.6-.1-.3.6-.8.1-.5.2-.1.3-.5.1-.1.2-.5.6-.7.6-.7.2-.2.1-.1.4-.3.2-.3.3-.2.9-.8.2-.2.7-.6.6-.3.3-.1.2-.2h.2l.1-.1.4-.2.3-.1.3-.1.4-.1h.4l.3-.1.3-.1h.3l.2.3.2-.1 1-.1h.7l.2-.1.2.1.7.1.5.1.2.2h.4l.3.1.2.2.2.3.2.1.2.1v.1l.1.1v.1l.1.3v.4h.1l.1.2v.2l-.1.4-.1.1h.1l.1.1v.2l-.1.1v.1l-.1.1-.1.3h.1v.1l.1.2v.1l.1-.1.1-.1h.4l-.1.1.1.1-.2.2.1-.1v.1l-.1.5v.1l.2.3-.1.1h.1l.1-.2.1.1.1.3-.1.1.1.1.1.1.1.3v.3l-.1.3v.3l.1.4.1.1.1.3-.1.3-.2.1v.4l-.2.2-.3.1.2.2v.1h.1v.2h-.1l.1.1-.2.1h-.1l-.1.3v.1l.1.1.2.2v.3l-.5.4-.2.2.1.1.1.1.1.2v.1l.1-.1.1.1h.3l-.1.1h-.2l-.2.4.1.1h.1v.1l.1.1v.3h-.1v.1l-.1.3.2.2-.3.2-.3.1v.1l-.1.2h.1v.2h.3l-.1.3h-.2l-.1.1-.1.1.1.1v.4h.2l-.2.2-.1.1-.2.2-.2.3-.1.1h-.2l-.1.3v.1h-.1l.5.1h.2l.1.1.2-.1-.3.2v.3l-.2.1.1.2.1.1h-.1v-.1h-.2l-.2.1-.2-.1v.1l.1.3.2.1.1.3v.4l-.2.2v-.1h-.2l-.1.3.2.3.2.2v.1l.1.1-.1.1-.1.1h-.2l-.1-.1-.1.1v.7l-.1.4v.2l-.1.1-.1.1.1.1.1.3v2.2l.1.1h.2l.1-.1.1.1-.1.1-.2.3-.1.1h.2l-.1.1v.1l.1-.1h.1l.1.1-.1.1v.1l-.1.1.1.1-.1.1.2.2.2.3v.1h-.1v.1l-.1.7-.2.5-.1.7.1.3.3.3h.2l-.1.2.1.1-.3.2-.2.4.3.2-.1.1-.1.3-.2.2v1l.2.1.1.1h.1l.1.2-.3.2-.2.3-.1.4.1.3-.1.3.3-.1.2-.2.1.3-.3.3-.1.2.1.2-.2.2.1.9.2.1v.3l.4.4-.3.1-.2.3.1.4.2.3v.4l-.2.3-.1.7.4.4v.3h-.3l-.4.3.1.3-.1.3v.3l-.3-.1-.4.3.2.9.1.3-.3.1-.2.3.1.7v1.1l.2.3.6.3.2.2.2.3.2.2-.2.3-.1.4v.1h-.2l-.1-.1.1-.1-.3-.2-.2-.1h-.2l.1-.3-.2-.2-.3.2.1.4v.3h.3l.2.1-.1.1.1.1-.1.4v.3l.4.2.2-.1.1.2v.8l-.3-.1-.8-.5h-.1l-.1-.1-.1.3.1.3-.2.6v.3l-.2.1.2.3-.1.4-.1 1.5-.1 2.3v.8l-.1 1.3v.4l-.1.2.1.3.1.2-.2.1v2.1l-.1 1.5.2.7.4.4v.7l-.1.5.2.1-.1.3-.4.5.1.4.1.5h-.2l.2.2-.2 1.1-.3.9-.6.3-.2.8-.6 1-1.2 1.4-1.1 1-.8.9-.4.2-.2.3-.6.2-1 .8-.6.2-.1.3-.3.1-1.3.7-2.1 1.2-2.1.7-1.5.1-1.4-.1-1.2-.3-.6-.5-1-.8-.5-.9.3-1.8m148-42.9-.3.4v.3l-.5.5.6-.1v.7l.5.3-.5.4-.6.1-.1.7-.3.5v.6l-.2.3-.1-.3-.5.7h.1l-.4.4v.4l-.2.3.2.7-.4-.3h-.2l-.1.3-.2.5-.3.6-.6.8-.8 1.2-.6.4-.5.4-.5.6-.5.6-.4.2-2.1 1.5-1.1.7-2.1 1.2-.9.5-2.2.8-1.9.8-1.4.4-2.7.9-1.5.4-1.4.5-2.8.9-3 1-1.3.5-2.8 1-.9.3-1 .5-.9.2-.9.4-.9.3-.8.4-.6.2-.8-.1-1.2.5-1.1.5-.5.3-.4.3h-.6l-.5.3-1.1.5-1 .4-1.1.5-1.2.6-1.3.4-.5.3-.5.3-1.1.5-.1.1h-.2l-.3.1-.7.4-1.2.5-1.5.8-1.1.5-.6.2-.6.5-1 .4-.5.3-1 .6-.6.2-.4.3v-.1l-.9.5-.4.3-.5.1-.9.6-.2.1-.1.2-.5.1-.4.3-.4.3-1.4.6-.4.2-.6.3-.1.2-.4.1-.8.5-1.5.7-1.1.6-1.1.5-1.2.7-1.4.7-.2.2-.4.1-.4.3-1.1.5-1.2.6-.3.1-.2.2-.7.1-.3.4-.5.3-1 .5-.5.3-.4.3-.9.6-1 .2-.4.4-.6.3-1.4.6-.4.3-1.1.5-.5.5-1.1.6-.6.3-.4.4-.4.1-.3.3-.5.4-.5.1-.7.4-.3.2-.4.1-.9.5-.4.3-.5.1-1.1.7-1 .6-.4.3-1 .5-.4.4-2.2 1.1-1.2.7-.6.3-.4.4-1.2.6-.9.6-.5.3-.6.1-.1.3h-.3l-.5.3-.7.3-.5.4-1 .7-.7.5-.4.3-.7.3-.5.4-.5.2-.4.4-1.1.5-.9.6-1.1.7-1.2.7-1.1.6-1.2.7-2.3 1.4-1.2.7-.9.6-2.2 1.3-1.2.7-.5.4-.3.2-.4.1-.2.3-.2.1-.5.3-.4.4-1 .4-1.1.7-1 .6-.4.3-.5.3-1 .6-.9.6-.9.5-.6.4-.2.3-.3.2-1.2.7-.1.1-1.2.5-.4.4-.6.2-.3.3-.2.1-.5.3-.4.3-.4.4.2.2-.6.2-.6.1-.5.3.1.1.1.3-.6.2-.6.2-1.1.7-.9.7-.5.3-.4.3-1 .6-.5.3-.4.2-.9.7-1.1.8-.3.1-.3.2-.3.2-.2.2-.2.2-.2.2h-.2l-.5.4v.2h-.3l-.6.4-.3.3-.3.3v-.1l-.4.3-.1.1-.1.1h-.2l-.1.1-.2.1v.1l-.1.1-.1.3-.3.1-.3.3h-.3l-.3.1-.3.2-.2.2-.2.2-.1.1.1.1-.2.5-.3.5-.2.2-.2.2-.8.1-.1.4-.5.1-.2.3-.4-.2-.3.4h.1l-.5.6-.4.4.1.3.1.1v.1l.2.2-.1.4-.2.4v.4l-.3.5.5.3v.3l-.1.3-.3.1h-.2l-.1.2.2.1.1.5-.2.6v.4l.2.3-.1.3v.5l-.2.3v.3l.2.5.3-.1.1.3-.1.3-.2.2-.1.3-.3.2-.2.2-.2.2v.6l-.1.1.5.3.2-.2.1.3-.2.5-.1.7-.1.3-.2.3-.2.6-.2.2.2.2h.3l.2.1.1.3.3.1v1.3l-.2.4-.1.3-.1.4-.2.3.2.3-.1.3v.4h-.6v.3l.2.3-.1.6.5.2.1.1h.1v.2l-.2.3.2.4-.4.2-.1-.4h-.3l-.2.6.2.3v.3l.2.6.2.3.2.2-.1.6-.1.1v.2l-.1.3-.2.3-.1.3.1.8.5.3-.2.3v.4l.2.3-.1.4-.2.3-.1.4-.2.1v.5l.2.1.1.4-.3.3.1.3.1.2.2.1-.1.3-.1.1-.1.2.1.4-.1.5v.6l.1.2-.1.2v1.3l-.1.2v.2l.2.4.2.1v.3l-.1.4-.2.4v.3l-.2.1.3.2.1-.1.1.1.2.3h.2v.1l-.1.2-.1.1-.1.4v.2h.2l.2.1-.1.2h-.5l-.4.2.2.2-.1.2-.2.1-.1.2v.3l-.2.1.1.2.2-.1.2-.1h.3v.4l-.1.5h.2v.5l.1.2-.1.3-.1.2-.1.1.2.1.1.2.2.1-.3.1-.1.2v.4l.1.2.1.1v.1l-.1.2-.1.2-.1.6.1.5.1.2v.1h.1v.1l-.1.1-.2.2-.2.1.2.1.2.2v.1h.1v.2l-.2.1v.7l.1.3v.2l-.1.2v.7l.1.3v.8l-.1.2-.2.1-.1.2.3.1v1.1l-.2.7-.1.1v.5l-.3.1v.2h.2l.2-.1.2.1.1.4-.1.2-.2.1v.4l.3.4.2.2.2.1v.5l-.1.2-.1.2v.2l-.1.2-.1.2v.2l-.1.4-.2.3.1.1h.2l.1.1-.1.2.2.1v.5l-.3.6-.1.6.4-.4.2-.2v.3l-.3.5-.1.4-.2.2.2.1.2-.2-.3.4-.1.2.2.1.3.1.1.1-.4.4.1.3.2.2h.3v.3l-.6.2-.6.2-.2.3v.4l-.1.2v.2l-.2.2-.2.2.2.2.1.6h.3l-.1.3-.4.3-.2.2.2.2.1.3.1-.3.5.1-.3.4.7-.3.2.3.1.4.1.3-.1.3-.1.3-.2-.1-.6-.2-.2.2-.2.3.3.4.1.3.2.2.5.3-.1.4-.6.1.4.5.3.1v.2l.1.1-.2.6.3.2v.3l-.5.3-.2.1h-.4l-.6-.1.5.1h.7v.3h-.3l-.2.2.2.1.2.5-.3.5-.2.2-.3.3-.1.5.2.2.1.3.3.3-.1.2v.7h.3l.3-.1.1-.3.1.1-.2.3.1.6-.4.3.4.3v.4l.4-.2.3-.3-.1.2-.1.6-.3.5h.4l.3-.5-.5.8h-.7l-.2.6-.2.2-.1.3-.2.4.3.1.1.3-.1.6.6.2v.6l.5.4.2.5-1.3.2-.2.7.4.6-.4.5.2.3.1.4.5.1.3-.4-.1-.4.4.3-.2.1v.3l.1.6v.3l.3.1.5.2-.5.4-.8.4.2.3v.3l.3.4-.1 1.1-.5.6.7.6-.1.6h.6v.6h1l-.1.3-.2.2h-.2v.1l-.2.1-.2 1.2-.2.5h.5l.8.4-.2-.1-.2.1-.2.2v.5l.1.5.5.2h.3v.3l-.4.4.6.7-.4.8.6.1-.2.4-.1.4.1.5.1.4-.1.1v.2l-.1-.1h-1l.4.6.1.7-.3.4v.2l-.1.2-.1.1-.1.2-.2.3.4.2v.1l.1.1v.2l-.1.2h.2l.3.4.1.2h.3v-.4l.2-.2.2-.2.1.4-.1.2-.1.2h.3l.1.2.2.1-.1.2v.3l-.1.1v.4l.2.1-.1.1-.1-.2-.1.1.1.2v.1h.2l.1.5.1.5.1.4.2.1v.2l.2.4-.2.4.3-.1v.4h.5l-.1.3.3-.2-.2.4.4.4-.4.4v.3l-1.1-1-.5.5.4.5-.7.1h-.8l-.2.5.2.2.4-.5.6.4.2-.1-.6.5h-.9l.1.3.1.1-.2.1.3.1-.1.3-.3.2.1.3v.4l.2.3-.1.5.2.6 1.1.5.3-1 .3.2-.1.3.1.9.2-.4.4.3.3.3.3.4-.4.4-.3-.4-.8.5h.9l.5.6.4.2.5.2-.4.7v-.6l-.2.4-.3.3-.4-.1.3.1.3.4-.5.3-.1.5h-.6l-.3-.3-.2-.3.1.3-.1.1.2.2v.4h.6l.2-.1.2.2.2.5-.4.1-.2.2h-.2l-.1.4.2.4-.1.2.6.1.3.3h.1l-.2.3.4-.3-.2.6.3.4-.2.3.3.3.1-.3.4.3h.5l.1.4.2-.4-.1.7-.7.5-.2.7-.1.4h-.4l.3.2.3.2-.8.3-.2.5-.2.5.1.6.3.1.2.1 1.1.4-.5.2-.3.3h-.2l-.1.2-.5.1-.1.3-.1.2-.2.4-.4.9-.1.6-.2.4-.8 1-.4.4-.4.4-3 2.1-.6.3-.4.4-.6.1-.7.3-2.4.2h-2.2l-1.5-.3-2.6-.8-1.1-.5-1-.6-1.1-.9-.4-.5-.6-.5-.5-.7-.5-1.1-.2-.3-.1-.3-.2-.7-.5-1.3-.2-.5-.1-.7h-.2l-.2-1.2-.2-.6v-.3l-.2-.1-.1-.7-.1-.7v-.7l-.2-.3v-.3l.1-.1-.1-.1-.1-.3v-.7l-.1-1.3.1-1v-.9l-.2-.5.2-.3-.2-.7.1-1.9.2-.7-.1-.7.1-.6-.1-1.4.2-1.8-.1-.3.1-.3-.1-.6.2-.6-.1-.7.1-1.4-.1-1.4.1-.5.1-.7v-1.2l.1-1.2v-1.2l.1-1.4-.1-.7v-.7l.2-.5v-.7l.1-1.1-.2-.5v-.6l.1-1.3v-2.8l.2-1.4-.1-.6.1-.9.3-1.3v-.7l-.2-.6.2-.5v-.7l-.1-1.4-.1-1.4-.1-1.4.1-.7.2-.9v-1.1l-.2-2.2-.1-.6.1-.7.1-1.4.2-1.2v-1l.1-1-.2-1.3.2-.5v-.7l-.1-.6-.3-.5v-.3l.5-.1.1-1.5.1-.4-.2-.2.1-.4v-.4l-.1-.7.1-.3v-.1h-.1l.1-1.1v-2.2l.1-1.4.1-1 .1-.6-.2-.6.1-.6v-1.4l-.1-.5.1-1.5-.1-.3.1-.2-.1-.6v-.7l-.1-.6.2-.6v-2.9h.1l-.1-1.3-.1-1.4v-1.5l-.1-.7.1-.7v-5.2l-.1-.3.1-.3v-.7l-.1-1.4v-1.3l.1-.6-.1-1.2.1-.5-.1-1.1.1-.1-.1-1.4v-1.4l.1-2.7-.1-.5.2-.6-.1-1.2v-.6l.1-.4.1-.7v-1.2l-.1-.1-.9.4-.2.2-.2.1-.5.2-.8.4-.8.6-.5.3-.5.4-1 .7-1.1.7-.8.5-.6.5-1 .6-.9.7-.9.7-.4.4-.4.5-.5.3-.4.5-1.1.8-1 .8-.9.6-.4.5-.7.5-.8.7-.6.5-.6.4-.6.3-.3.4-.5.3-.5.3-.3.4-.4.3-.4.4h-.3l-.1.3-.4.4-.2.2-.3.1-.4.5-.9.8-.9.6-.5.3-.4.4-.3.1-.2.3-1.1.9-.5.5-.2.2-.5.2-.5.4-.9.7-.9.8-.9.6-.4.4-.5.3-2 1.6-1 .9-.4.4-.2.2-.3.1-.2.5-.4.1-.3.2-.4.4-.4.5-.5.3-.4.4-1 .8-1 .8-.6.5-.4.5h-.3l-.2.2-.5.4-1 .9-.4.4-.3.1-.2.2-.5.4-.7.7-.8.5-1 .9-1.1.2-1 .8-.6.4-.2.3-.3.1-1 .9-1.8 1.5-1.2 1.2-1.2.8-.5.6-1.9 1.6-1 .9-1 .9-.5.3-.4.4-1 .9-.9.8-1.6 1.3-.8.6v-.1l-.5.6-.6.5-.4.3-.4.4-1 .6-.3.5-.6.4-.4.4-.3.5-.6.2-.5.4-.9.7-.2.5-.5.4-.8.9-.5.3-.4.4-.8.8-.7.9-.2.5-.5.5-.8.8-.4.4-.5.3-.7.8-.4.4-.4.3-.8.6-.8.5-.9.6-1.5 1.3-1 1.1-.6.5-.4.6-.5.5-.5.3-.2.2-.1.3-.6.4-.6.9-.6.4-.5.6-.8.8-.4.3-1.6 1.6-1.4 2-1.1.7-.7.8-.2.1-.4.3-.7.9-.8.9-.4.3-.4.4-.2-.1-.6.9-.4.3-.3.4-.6.6-.7.9-.9.6-.3.5-.4.4-.8.8-.7.6-.9.8-.4.4-.4.3-.3.5-.4.3-.2.2-.1.1h-.1l-.2.1-.4.3-.4.8-.5.7-.8 1-.5.5-.4.4-.1.5-.6.4-.4.5-.5.2-.3.5-.4.4-.4.4-.3.5-.4.5-.4.3-1 .9-.8.7-.7.8-.7.9-.1.2-.2.1-1.5 1.4-1 .9-.4.4-.3.4-.5.3-.3.4-.7.9-.3.5-.6.4-.5.5-.6.5-.4.4-.5.3-.4.3-.6.1-.2.2-.2.1-.4.4h-1.4l-.7.2-.7-.2-.6.2-.7-.1-.7.1-.3-.1-.3.1-1.4-.2-.6-.3-.7-.1-.5-.3-.6-.2-2.2-1.2-.9-.9-.8-.5-.4-.9-.4-.5-.6-1.3-.3-.6-.3-1.1-.2-.8.1-.9-.4-1.7.3-1.5.1-.6.6-1.3.8-1.2 1-1.2 1.5-2 2-2.4 1-1.1 1.1-1.2 2.4-2.5 2-2 2.1-1.9 1-.9.9-1 1.1-.9.4-.7.5-.5 2.3-2.1 2.2-1.9 1.2-1.2 1.1-1 2.2-2.2 1-.9.3-.3.3-.2.4-.5.6-.4.6-.6.6-.4.6-.6 1.1-1 .4-.1.1-.4.8-.7.9-.7 1-.9 2.4-2 1.2-1.1 1.2-1 .4-.6.7-.5 1.3-1.1 1.1-.9 1.2-1 .3-.4 1.3-1 .5-.4.6-.4.5-.6.7-.4 2.8-2.4 2.3-2 1.1-.9.7-.4.5-.3.5-.9.8-.5 2.5-2.1 1.1-1 .5-.6.4-.6 1.1-.5.8-.8 1.5-1.5.4.2 1.1-1.2 1.5-1 1.9-1.5 2-1.7.6-.4.5-.5 1.3-1.1 2.4-2 2.5-1.9 1.2-.9.9-1 1.1-.8 1.1-.8 1-.9 1.2-.8.6-.6.7-.4.5-.5.6-.5.5-.6.6-.4 1.2-.9v-.2l.5-.4.7-.3 1-.7 1-.7.6-.3.3-.5.1.2.4-.4.5-.3.4-.3 1.1-.7.4-.4.4-.4.9-.7h.3l.1-.3.6-.3.4-.5.4-.4.9-.6.9-.5.3-.4.4-.3.3-.4.4-.2v-.1l1.6-1 1.6-1.2 1.1-.9.7-.4.6-.4.5-.4.6-.3.5-.5.6-.5.7-.5.9-.5.7-.6.6-.6.6-.1.5-.4.5-.5.6-.3.4-.5.6-.4 1.1-.6.5-.4.4-.5 3-2.1 2.5-2 2.3-1.7.6-.5.3-.2.2-.3.6-.4.6-.5 1.1-.9 3.1-2h-.1l.2-.1 1-.8.9-.7 1.2-.8 1-1 .7-.4.6-.4.6-.4.9-.4v-.1h-.1v-1.3l.1-.7v-.3l.2-.1v-.4l.1-.4v-.4l-.2-.3v-.6l.3-.3-.3-.5v-.8l.1-.4-.2-.3.1-.8.1-.3.1-.4-.2-1.6-.5-1.4h-.3l-.6.2-.4.6-.8.3-.6.4-.7.4-.3.6-.9.2-.5.5-.3.2-.2.3-.8.2-.2.3-.4.1-.8.5-1 .3h-1.2l-.3.4-.5.1.2.4h-.7l-.9.4-.8.3.7.3-.9.1-.5.1-.5-.1h-.3l-.2-.2-.4-.1-.1.3-.2.1-.6.1-1.6.4-1.7.2-.8.2h-.9v.1h-1.4v.1h-.3v-.1h-.8l-.6-.1h-.8l-.7-.1-.7-.3-.9-.1-.6-.2-.7-.2v.3l-.4-.4-.4-.3-1.2-.5-1.8-1.2-.1.2-.2-.4-1.1-1-1.2-1.3-.5-.5-.2-.8-.4-.6-.3-.7-.3-1-.3-1.1-.2-.5v-.6l-.5-2.2-.1-1-.1-1.1-.2-1h.2l-.1-1.2c.1-1.2-.1-2.3 0-3.4v-1.8l.1-.8v-2.9c-.1-1.2 0-2.4 0-3.6l-.1-.9-.4-.7.1-1.7.1-.8v-.9l.2-.8.3-.8.3-.7v-.9l.1-2.8.2-2.7.1-1.4v-.3l.2-.2v-.6l.1-.3v-1.1l.4-.8-.1-1 .1-.7.3-1.2-.1-.4.1-.5.2-1.1.4-2.3.3-1.2.3-1.2.4-1.2.3-1.1.2-.9.2-.8.1-.4.3-.5.1-.6.3-.5.2-.5.5-1.2.3-.5.2-.6.2-.5.2-.5.3-.5.2-.2.1-.2.2-.2v-.3l.3-.5.4-.5.2-.5h.1l.3-.8.6-.7.4-.7.2-.3.1-.3.3-.5.7-.8.8-1.2.3-.7.3-.2.2-.4.7-.8.3-.4.2-.3.2-.1.2-.5.3-.5.8-.7 1.8-1.5 1.9-1.4.6-.6.4-.1.2-.2.3-.2.3-.1.3-.2.5-.4.5-.4.4-.3 1-.4.6-.3.6-.1.5-.3.6-.2 1.1-.3 1.2-.3.4-.2.7-.1h.7l.6-.1.7.1.6.1.5.1.5.2.6.1.6.2.3.5.4.4.3.5-.1.5.1-.1.1.6.1.5-.1 1.3-.3.9-.2.3.3.6-.5 1.3v.5l-.3.4-.1 1-.6.6-.3.3-.1.4v.5l-.5.2-.2.5-.2.4-.5.8-.5.4-.5.5-.6.3v.2h.7l-.1.2-.9 1-.4 1.4h-.3l-.8.9-.1-.1-.5.7-.2.6-.2.8h.1l-.4.7-.6.3-.4.9-.1.6-.4.6-.6 1.5-.3 1.6-1 1.3-.5 1.3-.4 1.6-.3 1.4-.3.6-.1.7-.2.6-.1.7-.5 1.1-.2.7-.1 2-.1.8.1.8-.1-.2.2.2.3.6.3 1.5-.5 1.2-.1.5-.2.4v1l-.1.6.1.8-.2 1.4-.3 2.8.1 1.4-.3 1.2-.3.5v.7l.1.7.2 1.1-.3.4.4.4-.1.5v2.6l.6 2.7.4.4.2.8.6 1.2 1 1 .6.4.8.3.6.2h.6l1.3-.1 2.2-.5.6-.4.7-.2.6-.3.5-.2.4-.4.5-.4.3-.1.2-.2.4-.4.2.1.6-.6 1.3-1.5.7-.8c1.1-1.4 1.6-3 2-4.7l.3-1.4.2-.6.1-.7.4-2.8.2-1.4.2-1.6.3-.5v-.7l.2-2.1.1-1.2.1-1.2h.2v-1.3l.1-1.1.2-1.3.1-1.4v-.4l.1-.2v-.8l.2-1.6.2-1.5v-1.6l-.1-.6.2-.2v-1.7l-.4-.1.1-.6.6-.3v-1l.2-1 .1-1.2.1-1.3.1-.7.1-.8.1-.7.1-.7.1-1.7.1-.6v-.7l.2-1.3.1-1.4.1-1.6.1-.7.1-.3-.1-.3.2-.6.1-.7v-1.5l.1-.5-.1-.3.1-.3.2-1.3v-1.9l.1-1.7.1-1.4.2-.6v-.9l.3-1.4.1-1.4.2-.6.2-.7.6-1.3.2-.2v-.3l.4-.5-.1-.2h.2l.7-.9.7-.7.8-.6.8-.6.2-.2.7-.1.1-.3.7-.1.5-.2 1-.5 3-.3h1.7l1.6.4 2.4 1.3.8.9.4.5.4.4.4 1 .1.4.6.1-.1.1-.6.2.4.5-.2.5v1.3l-.1.7.1.5.2.5-.3.3v.6l.1 1 .5.4-.2.4-.5.1v.7l.2.5.1.6-.3.6-.2 1.3v.7l.2.5-.2.5.4.6-.5 1 .2.5.1.6v.6l.2.6-.1.6v.3l-.3.1.1.4v.6l-.3-.2-.2.4.3.8-.3-.1-.1.8-.1.7.5-.2-.6.7-.1 1.7-.1.9-.2.9.2.7-.3.6.3.3-.1.4-.1.9-.1 1.9v1l-.2 1c-.1 1.3-.1 2.5-.2 3.8-.1 1.4-.4 2.8-.4 4.2l-.1 1.1v1.4l-.1 1.3v.9l-.2.3v.5l-.1.9-.2 1.9-.2 2v.9l.1.5-.3 1.2-.1 1.3v1.4l-.1.7.5.1-.3.3-.2.5v.7l-.1 1.8-.2.8-.5.8.3.2-.2.3v2.4l.4.6v.5l.1.2-.1.3-.1.5.2.5-.4 1-.2.5.4.4h-.4l.2 1.2v.6l-.3 1 .3.8-.1.3.1.1-.1.4v.5l-.3.3.1.3v.3l-.2.6-.1 1.3-.2 1.3.1 1.2.1 1.2-.1 1.2.1.5-.1.6v.6l-.2.5.2 1 1.2-.4.4-.3.2-.3.2-.1.3-.4.3-.1.2-.3.5-.4.5-.3.3-.3.5-.3 1.1-.7.5-.3.6-.4 1.2-.7 1.1-.6.7-.4.5-.4.6-.1.6-.5 3.3-2.2c1.8-1.2 3.7-2.2 5.5-3.4l2.9-1.9 3-1.7-.1-.1.8-.6.6-.5.6-.2.7-.4 1.1-.7 1.1-.6 1.1-.8.9-.5.9-.4 1.1-.7 1-.6.3-.3.6-.5 1-.6 1.2-.7 1.2-.4 1.2-.5 1-.6.3-.4.5-.1.9-.7.3-.2v-.3l.7-.4.5.3.5-.3.6-.3.5-.3.9-.7.3-.1.1-.2.3-.1.2-.2.3-.2h.3l.3-.5.5-.2.5-.3.5-.3.5-.4.5-.3.5-.4.8-.3.8-.5 2.4-1.5 1.1-.8.5-.1.5-.3.9-.7 1.1-.5 2.1-1.1 1.1-.7 1.2-.8 2.5-1.3 2.4-1.4.5-.3.6-.3.2-.2.3.1.5-.4 2.2-1.2 2.3-1.4.6-.3.6-.5.8-.5.3-.1 1.6-.9.6-.3.6-.1-.1-.1.9-.6 2.4-1.3.5-.3.7-.4 1.2-.6c1.7-.9 3.3-2 5-2.9l2.3-1.1 1.5-.8.5-.4.5-.3.5-.4.6-.3 1-.6.9-.6 1.4-.9.4-.1.8-.5.5-.3.3-.6-.5-.6-1.2-.6-.5-.4-.6-.4-.8-.9-.5-.6-.3-.7-.2-.6-.3-.4-.3-.6-.1-.7-.2-1.3-.1-1.4v-2.9l.1-1.4-.2-.7.1-.7.1-.7-.3-.6.2-.9.1-.9.2-.3v-.3l.1-.7v-3l.3-1.6-.3-1.4-.3-1.1.3-1.7-.1-.7.2-.6.3-1.2v-.4l-.2-.2-.1-.8-.1-.4-.2-.2.2-.7.4-.4-.1-.7h-.3l.1-.7.1-.3.3-.1.1-.7.1-1.2v-.5l.2-3.1v-1.4l.1-1.3-.1-.1-.2-.2.2-.1.1-.6v-4.7l-.1-3v-.9l-.3-.2-.2-.5-.3-.6-2.1-1.4h-1.4l-.2-.2-.3.1-.2-.2-.4-.1-.6.3-1.1.1-1.1.6-.7.3-.5.5-.7.2-.4.3-1 .9-.6.2-.5.4-.3.4-.2.4-.1.4-.9.5-.3 1.3-.5.3-.5.4-1.1.9-.6.7-.4.1-.1-.3-.3.1.4.5.4 2-1 .7-.6.3-.1.5-.1 1.3-.2.6-.1.6-.2.1v.2l-.1.3-.4-.1-.1.3.1.5v1.4l-.1.4-.2.2.2.6-.4.4-.3.7.7.3-.4.6-.3.3h-.4l-.5-.4.2.5-.2.1-.2.2.6.6.5.1-.4.3-.2.5.3.4-.9.4.7.1.4.4-1.1.1-.6.7.2.5v.6l.3.5-.2.5.5.5.2.4.1.8-.6.8h-.5l.2.1-.8.6.4.7-.2.2-.6-.2v.6h.1l-.2.5.3.3.8.8.3.1-.1.2.2.5-.4.3.2.4.1.6-.2.5.4.2v.4l-.6.3-.6.1-.1-.9-.1.5-.1.4.2.3-.4.6-.2.7.3.2.3.3.2.6h-.5l-.3.3v.5l-.1.3v2.3l-.1 1.4v.7l-.2.7.4.3-.4.5.4.2.4-.4.1.1v-.1h.3l-.3.9-.6.4.3.5-.3.2v.6l.4.6.3.1v.4l-.9.2.8.4.3.3.2.6-.6.9-.1.3.1.3-.2.6-.4.6.2.2.1.3.2.7-.1.4-.7-.9.3 1 .2.9.5.6-.1 1-.6.3.1.4-.4.3-.4.4-.4.5v.4l-.2.2-.1.4-.1.3.1.4-.4.1-.1.3-.2.1v.4l.1.4v.8l-.9.7h.1l-.6.1h-.1l-.4.7-.3.3-.2.3-.4.1-.3.2-.6.4-.4.4-1.1.5-.4.3-.4.1-.6.5-.7.3-.6.4-1.7.7-1.9.3-1.7-.1-.4.1-.5-.1-.8-.2-1.6-.8-1.1-1.2-.3-.8-.2-.4v-.2l-.2-.1-.3-1.7v-.8l-.1-.7.1-1 .1-.4-.1-.6.1-.7.1-1.1.1-.9-.1-.5-.1-.4.2-.8.1-.9.1-2 .1-.9v-.7l.1-.6v-1l-.2-.1.2-1v-1.1l.1-.1-.1-.1.1-.7v-.7l.1-1.3.1-1.3.1-.5.1-.5v-2l.1-1.9.1-.9v-1.2l.2-.4-.2-.3.2-.7.1-.6.2-1.1-.1-.6-.1-1 .1-1-.1-.9.2-.9v-.5l.1-1.9.1-1.8.1-1.8v-.4l.1-.4-.1-.4.1-.4.1-1.8.1-1.8.1-1.9.1-2.5.3-3 .1-1.5.2-1.6.8-2.6.4-1.2.6-1.2.6-1.1.7-1 .7-1 1-1.1.6-.6.4-.1.2-.2.3-.1.1-.2.7-.5 1.2-.7 1.2-.7.4-.1.6-.2 1.3-.5 3-.4 1.4.1h1.4l.4-.4.5-.3 1.4-.1h.6l.5.4.4.4 1-.1.6.2.6.1 1.2-.1h.7l.6-.2.6-.4.6-.2 1.1-.5 1-.7.4-.4.5-.3.9-.7.5-.9.5-.2.3-.4-.1-.1 1.6-1.8.6-.4.4-.4.7-.9 1-1 .6-.5.3-.6 1-.7 1.1-.7 2.3-1.4 1.2-.6.9-.4.5-.4 1.2-.4.7-.3.8-.1.4-.1h.3l.5-.2 1.5-.3h1.5l1.6.1 1.3.3 2.5 1 .5.5.5.5.7.9.5-.3-.1.5.2.4.4.5.2.5.2 1 .5-.2-.2.6.2 1.2v.6l.7.2.5.9-.8.1v1.5l.4.5.4.8h.7l-.1.3-.3.5v.9l.2.5.3.2h.2l-.1.3h-.4l-.2.1h-.3l-.3-.1-.3.5-.2 1.4v.8l.3.5v.5l-.2.3v.6l.5-.2.8-.6v.3l-.1.2-.1.6-.1 1.3.6.3-.2.4-.5-.2-.6.5.2.4v.5l-.4.2.5.2-.3.3.1.4-.2.3.2.6.2.7.4.6-.1.1v.3h-.4l-.4.1-.5-.1-.1 1.5.6.5.3.4-.6.3-.4.4v.7h.3v.3l.5.4-.3.2h-.7l-.1 1 .2.3-.2.6v3.3l-.1 1.5.1 1.6v.9l.4.3.3.5-.1.5h-.7l.1.3.1.2-.1.3v.3l.2.5.3.4-.6.2.1.4-.2.4v.4l.1.4.8.3.1.5-.4.4.1.4.1.3.2.4.2.3v.3l-.2.3v-.5l-.3.3-.2.4-.1.4.2.4v.5l-.1 1.1-.4-.2-.2.3v.6l.1.3-.2.2.5.1.2-.5.3.4v.6h-.6l-.1.4.4.2-.6.1.4.9.5.2-.2.5-.5-.1-.1.5.2.5-.2.5v.4l.1.3-.2.2.5.2.6.1-.3.9v.7h.5l.2.2.3.1.1.5-.8.8v.4l.2.2-.3.1.3.4.5-.2.4.4v.5l-.1.1.1.6.4.1-.1.3-.1.2.4.3.8.1.4.9.8.5v.2l.8.2.9.1 2.4-.7 1.2-.4 1-.5.5-.1 1.1-.5 1.1-.5.5-.3.7-.3h.2v-.1h.3l.4-.3.5-.2.2.1v-.2l.8-.4.4-.1.3-.3.8-.4h.3l.5-.5.5-.1.3-.3.4-.1 1.3-.7.9-.5 1-.5.9-.6.1.1.7-.5.3.1.2-.1.4-.4 1.1-.6 2.2-.9.4-.2 1.2-.4 1.2-.3.6-.1.3-.1.3.1h.5l.4.1 2-.1.9.1.7.2.8.1.8.2h.8l.8.1-.3-.4h.5l.3.6.7.3-.2-.3.6.3.4.4.1.3.3.1.3.3.4.5.3.5.2.5.3.5.4.4.3.5.1.6.2.2v.3l.4.4-.3.5.4.3.2.2-.1.3v.3m-255.6 26.3.2-.2.9-.2 1-.2 2.1-.1.9-.3.6-.1.5-.1 1.3-.5 1.3-.4.6-.5 1-.3 1-.1-.1-.2-.5.1.7-.4v-.1l.3-.1h.9l.5-.6.4-.3.5-.2.3-.1.2-.1.2.1.6-.3-.3-.2.4-.2.1-.2h.1l.2.4.4-.1v-.5l.5.1.6-.2.1-.2h.1l.3-.1.5-.1.6-.1.7-.1h1.2l1.3.3.7.2.5.3.8.7.4.5.1.3.2.3.3.5.4.4.1.6.2.2v.3l.3.5.2.2-.1.1.1.1.1.1v.1l.2.2.3.5h.1l-.2.5.3.5-.2.7-.1.7.1 1.4-.3 1.1-.3.4-.2.5-.4.3-.3.5-.4 1-1.3 1.4-.4.2-.2.2-.2.1-.7.7-1 .6-.5.3-.4.4-.3.1-.2.2-.4.4-.8.8-.8.4-.6.6-.6.5.1.1-.4.2-.2.3-.2.2h-.3l-.3.3-.2.2-.4.4-.5.3.1.1-.4.1-.2.2-.4.6-.7 1.1-.7 1-.7.9-.8 1-.4.5-.2.6-.5.6-.4.7-.2.8.3.7-.8.7-.1.6.4.3-.5.2-.1.7.1.7v.6l-.6.6v.6l-.3.5.1.6.1.6.2.5-.1.3h-.3l-.4.3-.4.3.2.7-.2.3-.1.4.1.6-.1.7-.1.7-.1-.1.1.3-.2.3.2.1-.2 1.1-.1 1.3.1.6.2.4-.4 1-.1 1.3-.1 1 .2.7-.2.7v1.4l-.1 1.4v1.3l-.1.7v1.1l-.1.6v2.5l-.1 1.3v1.2l.2.2-.3.3.2.9.1.9-.4.7-.1 1.3-.1.5.1.6v1.3l-.1 1.5-.2 1.5-.2.8-.1.4v.4l-.5 1-.4 1-.6 1-.6 1.1-.4.4-.3.4-1.2 1.2-.3.4-.1.5-.6-.1-.4.4-.4.3-.4.4-.5.2-.5.2-.2.2-.3.1-.2.2-.3.1-.5.3-1 .6-1.2.4-.5.1-.8.3-1.1.4h-.6l-.2.1-.2.1-1.3.1-1-.1-.7-.3-.6-.3v-.4h-.2l-.3-.2-.1-.1v-.2l-.3-.3-.3-.3-.5-.5-.2-.4-.1-.4-.3-.2-.1-.4-.2-.5-.1-.6-.2-.5-.1-1.4-.1-1.4.1-1.4v-1.4l-.1-1.4.1-.7-.3-.8.1-.5.1-.7.4-1.1.1-1.4.2-1.3-.2-.8v-.5l.1-1.1v-.1l-.1-1.4-.2-.5-.2-.5.2-.6v-.7l.1-.7v-.7l.2-.6.2-.6.1-.3v-.4l-.2-.5-.1-1.2-.3-.7.4-.5.1-.7v-1.7l-.1-.7v-.6l.1-1.2.4-1.3.3-.6.1-.4.1-.3-.1-.3v-.8l.2-1v-1.2l.2-1.5.2-1.3.1-1.4v-1.4l.1-1.4.1-1.3.1-.6-.1-.7.2-2.5.1-2.2v-.9l-.2-.7.2-.5.1-.6.1-1.2.1-2.4.4-2.6.4-1.6.4-1.2v-.7l.5-1.2.4-1.3.5-1 .3-.5.2-.1.1-.2.6-.9.8-.8 1.8-1.5.2-.2.3-.1.5-.3.5-.4.6-.3.5-.3.6-.2.5-.3 1.5-.6 1.6-.5.3.1m-29.6 24.9-1.3.5-.2 1.7.6 1.6.5 1 .3.2-.4.6-.2 1 .4.9-.3.9-.7 1.5-.2.9.2.4-.1.5-.1 1.4-.2 1 .1.6-.3.5.1 1.2-.3 1.2-.3 1.2-.5.9v1.2l.2 2.5-.2 1.2-.1 1.3v2.3l-.4.4-.1.6-.3 1.8-.3.3-.1 1.3v2.7l-.3 1.2-.2.5v.8h-.2v1.4l-.4 1.1v1.4l-.3 1.2-.1 1.4-.1.7-.1.6-.1 1.4-.1.6-.2.5.1 1.4h.1v.8l-.1.3-.3.8.1.3.2.8-.3 1.4.3 2v.7l-.1.8-.3.9-.3.6v.1l.1.5-.1.6-.2 1.4-.1.7-.2.6-.1 1.4-.7 1.3v.9l.3.3 1.2.4-.3.9-.2.4-.4.1-.7-.6-.4 1.3-1 .1-.7.6-1.5 1.4-1 .6-.9.8-1 .7-1.7 1-1 .5-.5.2-.4.4-1.3.1-.6.2h-.6l-2.4-.5-1.1-.5-.5-.2-.3-.5-.5-.9-.3-1.1-.4-1.1-.1-1.2v-7.2l.2-2.5.1-1.2.1-1.1-.1-1.3.2-1.3c-.1-1.6.2-3 .2-4.5l.1-2.1-.2-.1.1-.6.4-2.5.4-2.4-.2-1.3.2-1.2.2-1.7.2-1.9-.1-1.7v-1.6c.6-1.4.4-3.3.5-4.8v-.9l.1-1 .2-2.2-.2-1.1.3-.8v-3.1l.3-2.5.2-3 .3-2.9.2-2.4.1-.2.5-1.8.6-1.6c.6-1.5 1.1-2.9 1.8-4.3l1.3-2 1.4-1.5.9-1 .5-.5.7-.2-.2-.2 1.1-.8 1.2-.9c1.2-.9 2.8-1.5 4.2-2l2.5-.5 1.5.2 1 .3.9.8.8.9.6 1.7.3 1 .3.5v.1l-.2 1.3 1 1.8m8.3-47-.2.3v.5l.2.2-.2.4.3.4h-.2l-.1.3-.2.4-.2.8-.6.7-.2.3-.2.1v.4l-.2.3-.3.6-.4.5-.5.4-.5.3.1.6-.2.1-.2.3-.8.7-.5.3-.3.5-.2.3-.6.4-.8.6-.3.4-.5.1-.1.1-.4.3-.6.1-.1.2-.2.1-.4.3-.4.4-.2.1-.2.1-.5.2-.3.4-.8.5-.6.3-.3.4h-.5l.1-.1-.6.3-.1.3h-.4l-.6.1-.7-.3v-.1l-.3.1h-.4l-.4-.1-.1-.1-.6.2-.2-.2.2-.2-.7-.2h-.4l-.3-.2-.5-.4-.2-.8-.4-.2-.2-.5-.1.2-.2-.1v-.3l-.3-.9v-.6l-.3-.3.1-.4-.1-.5.1-.2-.1-.1.1-.4.1-.8.1-.9.2-.3.1-.4.3-.7.1-.7.2-.2.1-.3.3-.4.3-.5.2-.6v-.6l.5-.4.4-.4 1-1.5.8-.6.7-.8.9-.6.9-.8 1.7-1.5.6-.5.7-.4 1-.6.6-.2.6-.3 1.1-.4h.6l.1-.3h.4l.6-.1h.6l1.1-.1.1.2.2-.2.5.1.3.1.2.1.5.2.1.2.5.5.2.4.1.5.3.3v.3l.1.2.2.4.1.5.5.8.4.6v.6l.1 1.5m-51.1 63 .1-.3.3-.1.2-.6.1-.3.1-.3v-.9l.2-.8-.1-.7-.1-.3.1-.3-.1-.3v-.3l-.3-.3-.1-.5.6-3 .1-.7.2-.3h.4l.5-.5.3-.7v-.6l-.3-.1h-.1v-.3l.4-.5.3-.6-.2-.3-.1-.3.1-.6.3-.6.1-.3v-.4l-.3-.4.2-.7.2-.7.1-.6.3-.9.2-.4.1-.4.1-.4.1-1 .1-.4.1-.1-.1-.1.2-.3.1-.5.1-.7.3-.6.1-.7.1-.7.1-.7.3-.5.2-.6v-.7l.1-.3.2-.2v-.5l.1-.3v-.4l.2-.6.4-1.5.3-.7.3-.5-.3-.3.3-.3-.2-.1.1-.1.1-1 .1-.3v-.4l.2-.2v-.4l.1-.8.2-.3.1-.4.1-.4h.2v-.2l.1-.8v-.4l.3-.1-.1-.5.1-.2v-.4l.2-.3.1-.4.1-.3.1-.3v-.3l.2-.7.2-.6.2-.6.2-.2v-.4l.1-.4v-.4l.1-.3.1-.4.1-.4.2-.3-.1-.2.2-.5.2-.2.2-.2.2-.1v-.6l.4-.4.2-.4.1-.3.1-.3.2-1.1.4-.4.1-.7.1-.7.9-.8.1-.3.1-.3v-.6l.1-.7.4-.6.1-.4.1-.2.1-.1.2-.8.2-.7.2-.8.4-.6.5-.5.4-.1.2-.2.4-.5.1-.3.1-.4.2-.3.2-.3.2-.5.2-.4v-.3l.1-.6-.1-.8.3-.6-.2-.3-.1-.4.1-.7.1-.8.1-.3v-.4l.1-.8.1-.8v-.4l.1-.3v-.4l-.1-.3.2-.3.1-.3.1-.7v-.7l.4-.3-.2-.5v-.7l.7-1.5.7-1.5.8-1.6.1-.4-.1-.3.4-1 .4-1.4.2-.8.1-.8.3-.8.1-.4.4-.3.4-.6.5-1.3.4-.2.2-.5.1-.5-.6-.8-.1-1 .2-.3.2-.3.4-.8.1-.9.1-.5.2-.4.4-.4.2-.5.1-.4-.2-.3.1-.8.5-.7v-.8l.2-.6.2-.4.3-.2-1.2.7-.2-.4.2-.9.4-1 .1-.2.1-.2.1-.4.1-.8.3-.8.4-.7.3-.7.1-.4.2-.3-.1-.4.1-.4.3-.3.1-.4-.2-.3.2-.4.1-.4.3-.2v-.4l.1-.3.2-.3.1-.4.1-.9.1-.6.2-.4v-.4l.2-.3.1-.6.2-.5.1-.4.3-.7.1-.3.3-.1.1-.2.1-.1v-.1l.1-.3v-.2l.1-.1.1-.1-.1-.1.1-.4.1-.1.1-.1.3-.2.1-.4v-.8l.1-.3.2-.2.1-.6.1-.4.3-.6.1-.1v-.5l.1-.4.3-.6.2-.3.3-.5v-.4l.3-.8.3-.7 1-1.5.4-.9.2-.5-.1-.4.6-.8.3-1 .3-.4.2-.2.2-.2.1-.3.2-.2.1-.7.1-.5-.2-.5.1-.7v-.4l.4-1 .4-.9.5-1.2.3-.4.1-.7.5-1.1.1-.3.2-.2.1-.6.4-.6v-.3l.2-.2.5-1 .2-.3-.1-.3.2-.1.1-.3.3-.7v-.3l.7-1.5 1.3-3 .9-1.7-.1-.1.2-.5.2-.5.4-1 .1-.2.2-.1.1-.5.4-1 .6-1.2.2-.3v-.3l.3-.6.1-.4.2-.2.3-.5.2-.6.5-.8.1-.4.4-.8.5-.9.4-.4.4-.3.5-1.2.2-.6.5-.3.4-.8-.1-.1.3-.2.1-.4.5-.7.5-.8.2-.4.5-.9 1.3-1.6.2-.3.3-.1.3-.5.3-.5.4-.5.4-.4.4-.6.4-.4.4-.3.2-.3v-.3l.2-.3.3-.3.2-.3.3-.2.1-.3.3-.2.2-.3.3-.1v-.2l.1-.1.5-.7h.8l.2-.5.3-.2.2-.3v-.6l.3-.2.2.3-.1.3-.1.1.1.1.5-.1.1-.3.2-.2v-1l.4-.2v-.4l.2.2-.1.3h.4l.1-.1v-.4h.1l.1-.3.3-.1h.2l.1-.1.3.1v.1h.2l.1-.1.1-.1.2-.2.2-.3v-.4l.2-.3h.3l.2-.3.1-.3.1-.7v-.7l.4-.4h.2l.1-.1.3.1-.2-.5.2-.3.3-.2.1-.4.1-.1h.2l.2-.3.2-.2v-.1l.1-.2.2-.3.4-.5.3-.7.1-.3.3-.4.1-.1.1-.3.3-.6.2-.7.2-.3.1-.3v-.4l.1-.3.1-.7.1-.8.1-.3.1-.3-.1-.1-.1-.3.2-.2v-2.2l-.1-.6-.2-.5.1-.4-.1-.4-.1-.8-.3-.7-.1-.3-.2-.4v-.4l-.2-.6-.2-.3-.1-.4-.3-.6-.1-.4-.3-.3-.1-.3-.5-.9-.1-.3-.2-.3-1-1.1-.5-.4-.1-.2-.2-.1-.2-.3-.2-.1-.1-.1-.2-.1-.1-.1-.3-.2-.1-.3h-.4l-.2-.2-.5-.4-.3-.1-.2-.2-.7-.3-.9-.4-.7-.3-.7-.2-.4-.1h-.2l-.2-.1-.6-.4-.9-.1-.9-.2-.9-.1-.9-.1-.4.1-.4-.1-.4.1-.3-.1-1.1.2-1.1.1-.9.4-1 .3-.9 1.3c-1.5.7-2.6 1.8-3.9 2.7l-1 .9-.2.3h-.4l-.2.6-.6.6-.2.1-.4.4-.3.6-.9 1-.8 1-1.2 1.9-.4 1.2-1.2 1.8-1 1.9c-.6 1.2-1.1 2.5-1.6 3.9l-.9 2.2-.9 2.1-.9 2.6-.9 2.4c-.6 1.5-1.3 2.8-1.8 4.3l-.9 2.3-.8 2.3c-.6 1.4-1 3-1.6 4.4l-.7 1.4-.5 1.8-1.3 3.4c-.5 1.2-1 2.5-1.4 3.8-.5 1.6-1.2 3.2-1.7 4.8l-.8 2-.8 2.2-1 2.5-1 3.2c-.4 1.2-1 2.3-1.4 3.5-.5 1.5-1 3-1.6 4.5-1.5 3.5-2.6 7.3-3.8 10.9l-.4 1-.3.9-.6.9-.5 1.1-.5 2.4c-.1 1.2-.6 2-1 3.1l-.5 1.6-1.4 3.1-.8 2.1-.5 2.3-.4 1.8-.7 2-.5 2.3-1 2.2v2.4l-.7 1.1-.4 1.5-.2 1.4-.5 1.5c-.6 2-1.1 3.9-1.7 5.9l-.8 3-1 2.9c-.6 2-1 4-1.4 6.1l-.5 2.1.1 1-.6 1.2-.3 1.6-1 2.8c-.4 2.1-1.2 4.1-1.7 6.1-.3 1.6-1 3.1-1.3 4.8l-.3 2.2-.7 2.5-.4 1.7-.1.8-.4.6-.2 1.4-.3 1.3-.7 3-1.2 4.5-.5 2.4c-.3 1.5-.6 3-.8 4.5l-.6 2.4-.5 2.3-.3 2.2-.5 2.1-.3 2.1-.8 3.3-.6 2.8-.4 2.1c-.2 1.1-.4 2.2-.5 3.4-.2 2.3-.8 4.6-1.2 6.8l-.5 3c-.1 1.5-.7 3.1-.8 4.6l-.4 1.7-.4 3.5c-.3 2.2-.6 4.5-1.2 6.5l-.3 2.4c-.3 2.9-.8 5.8-1.3 8.6-.2 1.4-.4 2.8-.5 4.2l-.2 2.2-.1 1.5-.3.5v.7l-.4 2.7-.3.1.1.7-.4.8-.3-.7-1-.3-.3-.7v-.7l.1-1.8-.2-.7.2-.7-1.2-1 .3-.5-.1-.8v-3.1l-.4-1.4-.3-1.5.3-.6-.1-.9.3-1.3c-.4-1.5 0-1.1 0-1.6l-.4-1.3-.5-.3-.3-.6-.1-.4.4-.2-.3-.1-.1.2-.4-.5.2-.5-.1-.4.7-.6-.2-.1-.2.1-.5.1-.5-.1.1-.4-.1-.4v-.8l.1-.7.3-.5-.2-.5v-.4l.2-.6.2-.5.1-.6.2-.1.1-.3.2-.5-.1-1-.4-.7-.1-.8-.4-.4-.1-.6-.2-.4-.2-.5-.2-.6-.3-.4-.1-.7-.3-1.3v-1.5l-.1-1.2-.2-.4-.1-.6-.2-.5-.3-.7-.3-1.1.1-.5-.1-.6-.1-.6-.1-.4.6-.1.2-.5-.7-.9-.5-1.1.1-.8-.1-.9v-.8l-.3-.7-.1-.7-.4-.5-.5-1.4.1-.4-.4-.3-.1-.4-.3-.1v-.5l.1-.6.2-.6-.6-.4-.4-.4-.1-.8v-.8l-.2-.6.2-1v-.5l-.4-.1-.5-2.6.2-.5-.2-.6-.3-1.3-.1-.9-.2-.9.2-.3.3-.4-.4-.1-.2-.3.1-.4-.2-.3-.1-.8.1-.4-.1-.2-.2-.2-.1-.4-.1-.4v-.2l-.1-.2v-.3l.2-.3-.2-.3-.1-.4.4-.6.2-.3-.2-.3v-.5l-.1-.5-.1-.4-.3-.4.4-.3-.2-.3.3-.3-.3-.3-.7-.3v-.8l.3-.7-.2-.3-.2-.4v-.9l.4-.1-.3-.2-.5.1-.2-.4.3-.2.1-.4-.3-.2-.1-.8.3-.1-.1-.3-.2-.3-.3-.3-.2-1 .1-.4.2-.4-.5-.8-.2-.8v-.4l-.1-.4-.1-.5-.1-.4v-.4l-.2-1.3-.2-.8-.2-.9-.2-.9v-.5l-.1-.5v-1.4l-.2-.4v-.9l-.1-.2-.1-.1.1-.3-.2-.9-.2-1v-.5l-.1-.5-.1-.6-.1-.3-.2-.2v-.2l-.1-.2-.1-.7-.2-.8v-.5l-.1-.4-.1-1-.2-.9-.1-.6-.2-.5-.1-1v-.4l-.1-.5-.4-2-.1-.9-.3-.9-.6-1.8-.3-.6-.1-.4-.2-.3-.1-.4-.4-.8-.2-.3-.2-.4-.4-.4-.4-.5-.6-.5-.5-.5-.5-.4-1.1-.6-.4-.2-1-.3-.5-.1-1.1-.2-1-.1-.3-.1h-1.3l-.9.1-.9.3-.4.1-.3.3-.5.1-.9.4-.6.4-1.3 1-1 1-1.1 1.6-1.1 2.2-.8 2.5-.2.6-.3.6-.3 1.3-.2.4-.2.5-.3.8-.1.5v.4l-.2.1-.1.2-.9 2.9-.3.6-.2.6-.4 1.2-.4 1.1c-.5 1.5-.7 3-1.3 4.4l-.7 1.3-.4 1.4-.3 1.7-.6 1.3-.7 1.9-.6 1.5-.1 1.3-.5 1.6-1 2.9-.9 2.6-.6 1.4-.5 1.3-.4 1.3-.2 1.6c-.4 1.1-.8 1.9-1 3l-1.4 2.3-.4 1.6-.2 1.6-.8 2-.6 1.1-.3 1.3-.5.9-.2 1.5c-.4 1.2-1 2.3-1.4 3.5-.5 1.4-1.3 2.8-1.7 4.2h.3l-.3 1.2-.5 1.2-.1.8-.4.6-.5 1.2-.3 1.1-.3 1.3-.9 2.3-.8 2.4c-.5 1.6-1.2 3.4-.9 5.1l.8 2.5c.8 1.2 1.9 2.6 3.1 3.3l1.9.7.9.3.8-.1h1l.8-.2 1-.1h.5l.4-.3h.5l.3-.3.8-.3 1.6-1 .7-.8.3-.3.2-.5h.9l-.2-.4.2-1.2.5-.6.2-.7v-.4l.2-.3.3-.4.1-.7.3-.4.1-.7.6-1 .2-.5-.1-.4.8-.8.2-.6.4-.5v-.7l.2-.6.5-1.2.6-.6.6-.3-.7-.2v-.7l.2-.2.1-.4.1-.4.3-.1v-.5l.2-.1-.1-.2v-.4l.2-.2v-.1l.1-.1.2-.2.1-.5.4-.4v-.4l-.2-.3.1-.2v-.2l-.1-.3.3-.3.1-.3.2-.1v-.2l-.3.1h-.3l.1-.5.3-.2.1.1.2.1.3.1.1-.3-.2-.2.2-.2.1-.3-.1-.3.1-.3.1-.3.3-.2.1-.2-.2-.2-.1-.4.2-.7h.3l-.1-.3.3-.6.1-.3.4-.1.2-.4-.2-.2v-.3l.2-.7.2-.1v-.3l.1-.5.2-.2.1-.1.2-.1.1-.1h.2l.1-.4-.3-.1v-.1l.1-.3.2-.2.2-.1-.1-.3.6-.2.2-.6-.2-.2-.1-.4h.3v-.4l.2-.1-.1-.3.1-.7-.2.2-.1-.3-.2-.4v-.4l.5.2.2-.2.2-.1h.5l.1.2.2-.1-.4-.3v-.1l-.3-.1-.1.2.1-.4v-.3l.2-.1-.1-.5.8.3.1-.2.2-.1v-.5h.2l.1-.1v-.6l.1-.1.1-.2.3-.2.1-.3v-.3l.1-.1v-.5l.3-.5v-.5l.5-.3h.7l.2.3h.3l.3.1.3.1.2.2.1.3.3.5.3.1h.2l-.2.2v.6l-.1.1-.1.3-.2.6.2.2.2.3.3-.4.6-.3.5.3-.3.4-.3.1.1.3v.8l-.2.3.6.4-.2.2v.2l-.2.1-.2.1.1.3.1.2-.1.4-.1.7.5.4-.1.5.1 1.4.5.5h.3l.1.3.2.2v.4h.3l.1.3.1 1.2-.4 1 .5-.3.1 1.4.2.5.1.6.1 1.4.2 1.1v1l.2.6.3 1.3.1 1.4.1.7.1.5-.1.2.1.2.1.5.2 1 .2 1.1.1.9.2.9.2.6.1 1.3.1.3-.1.3v2.1l.1.4-.1.4.5.9.1.5.3.4v.8l.2 1.6.2 1.2.2.6-.1.5.1.6.2.6.2 1.3.4 2.7v.6l.2.6v.7l.2.6.2 1.2.1.5.2 1.3.1.7v.4l.1.2.1.6.1 1.4.2.6.1.6.1 1.3.2.5-.1.5.1.2v.3l.1.6.3 1.3.1 1.3.1 1 .1.6.2.8.1.8.1 1 .3 1.1.1.5-.1.6.3.6v.6l.2.7.1.4-.1.3.1.5-.2.3.2.3.1.9v.4l.2.3v.9l.2.8v.6l.2.1v.4l.1.4v.9h.2v.1l-.1.3v.4l.1.5.1.5.1.7.1.1v.3l.1.9.1.9.2.2-.1.4v.5l.1.4.1.8.1.1-.1.1.2.3v.4l.1.5v.5l.2.3v.6l.2.5.1.3-.1.2.1.5-.1.4.1.3.1.3.3 1.1v.6l.1.1v.4l.1.4.2.7.1.5.2.3-.1.3v.4l.2.6-.2.6-.2.6v.6l-.1.4-.1.5v.6l.4.1.3.2.5.6.1.4.1.4.1.3-.2.3-.4.6-.3.2-.3.2.1.2-.2.3.2-.2.3.1.2-.1.4.1.2.1.1.3.2.7v.8l.2.8.2.8.1.4.1.4-.1.2.1.1.1.3v.7l-.1.3-.3.1.3.4.2.4.2.4v.4l.2.4v.3l.1.3v.5l.1 1v.4l-.2.3.1.8.3.2.2.4.3.7v.8l.1.3v.5l.2.2.1 1 .2.9.1.8.1.4v.4l.1.2h.2l-.1.4.1.2v.2l-.1.3-.1.2.2.3.1.4.2.3.2 1.2.2 1.2.1.6.1.6.1.6v.4l.1.4v.5l.1.4.2.8.2.8.1.3v.6l.2.5-.1.4.2.2-.1.1.1.1.1.2v.2l-.1.4.3.5.1.3h.1v.6l.1.7.1.3-.1.3.2.5.2.6v.2l-.1.1.2.3.1.8.1.4.2.4.1.5.1.5.1.2-.1.1.1.3.2.8v.4l.1.4.1.4.3.7v.3l.1.3.1.2.3.8-.1.4.2.5.2.3.2.4.3.7.2.2.4.6.3.3.1.2.2.1.2.3.3.2.5.3.4.1.1.2.3.3.6.2.8.4.4.1.6.1.8.2.4-.1h1.3l.4-.1h.5l.9-.2 1.5-.4v-.3h.4l.2-.3.4-.2.4-.2.3-.2.6-.5.5-.5.3-.3.3-.3.2-.5.2-.1.1-.2.3-.4.2-.4.1-.3.2-.3.2-.5.3-.7.2-.8.2-.3.1-.4.1-.8.2-.3.1-.4.2-.8.1-.4v-.4l.3-1.3.3-.3-.3-.2.1-.3.2-.8.1-.8v-.9l.3-.2v-.3l.1-.8.2-.8.1-.9.1-.8.1-.6.1-.9v-.8l.1-.4v-.4l.2-.8.1-.9.1-.4-.1-.2.1-.1-.1-.4.2-.3v-.4l.1-.8.1-.3v-.4l.1-.4v-.4l.1-.2v-.4l.2-.2-.1-.2.1-.3v-1l.1-.4.1-.4.2-.3.1-.9.1-.9v-.7l.2-.8v-.2l.1-.1-.1-.4v-.4l.1-.7.1-.4.1-.8.1-.9-.1-.3.2-.3.1-.4v-.3l.1-.3v-.8l.1-.8.1-.3-.1-.1.1-.1v-.9l.1-.8v-.4l.2-.3.1-.8.1-.8.1-.8v-.6l.1-.4.1-.9.1-.4.1-.4.1-.1v-1.4l.1-.4v-.2l.2-.7.1-.8v-.8l.1-.5.1-.2.2-.1-.1-.3.2-.3v-.8l.1-.8.1-.7.2-.9v-.4l.1-.4.1-.9.1-.3v-.4l.2-.8.1-.8v-.2l.1-.1-.1-.1v-.2l.2-.7v-.4l.1-.4.1-.8.1-.4v-.4l.1-.4.1-.4-.1-.4.2-.1v-1.1l.1-.4v-.9l.2-.7.1-.9v-.4l.1-.4.2-.4.1-.4.3-.2v-.3l.1-.1.1-.2.1-.1.1-.3.1-.3.1-.3.2-.2v-.3l-.1-.6-.1-.1.2-.1v-.2l.1-.1.3-.3-.1.1h.6l.3-.2.1-.2v-.2l.4-.5-.1-.3-.2-.3v-.3l-.2-.2-.2-.2-.4-.1-.3-.7v-.4l.1-.3-.1-.3-.1-.4.1-.4-.1-.3.3-.6.1-.8v-.9l.1-.8.2-.8.1-.7.1-.8.1-.3v-.3l-.1-.6.1-.1v-.3l.2-.3v-.4l.4-.6h.1l.1-.2.2-.2.1-.5h.2v-.1l.2-.2.5-.3.1-.7.3-.5-.1-.6v-.7h.2v-.1h.1l.3-.1.1-.7v-.7l.1-.6.2-.4v-.4l-.1-.3-.3-.2.1-.4v-.4l.1-.1v-.3l.1-.1-.1-.1-.1-.2v-.3l-.4.2-.5-.3-.1-.6v-.3l-.1-.3v-.3h.2v-.1l.1-.6-.1-.3v-1.4l.2-.3v-.3l.1-.4v-.3l.1-.1v-.1l.1-.2.1-.3.1-.4-.1-.3v-.4l.1-.3v-.6l.1-.6.3-.1.1-.3v-.7l.1-.8v-.6l.1-.4.1-.3.2-.2h.3l-.4-.4v-.4l.1-.1v-.1l.1-.3-.1-.3-.2-.3.1-.3.1-.3.1-.1v-.2l.4-.4.2-.3h.2l.1-.1.2-1.4v-.7l-.2-.2.2-.6.1-.3.1-.6.3-.5-.3-.4.1-.6-.1-.6.4-1.2.3-.6.1-.2.1-.1.1-.4.1-.6.1-.3.2-.5.1-.2.1-.4.1-.3v-.6h-.1l-.1-.1v-.4l-.1-.3.1-.3v-.3l.1-.3.1-.1.1-.1h.2l-.1-.1.2-.1.1-.1v-.1l.2-.2" fill="#e10a0a"/></svg>