<?xml version="1.0" encoding="utf-8"?>
<!-- Generator: Adobe Illustrator 22.1.0, SVG Export Plug-In . SVG Version: 6.00 Build 0)  -->
<svg version="1.1" id="Layer_1" xmlns="http://www.w3.org/2000/svg" xmlns:xlink="http://www.w3.org/1999/xlink" x="0px" y="0px"
	 viewBox="0 0 512 512" style="enable-background:new 0 0 512 512;" xml:space="preserve">
<style type="text/css">
	.st0{fill:#002E68;}
</style>
<g>
	<path class="st0" d="M251.5,62c4.7,0,9.5,0,14.2,0c4.9,0.7,9.9,1.3,14.8,2.1c71.3,11.6,120.6,80.4,109.1,152
		c-12.5,77.4-89,127.3-164.9,107.4c-51.5-13.5-90.4-57.7-97.4-110.8c-0.7-5.5-1.2-11.1-1.9-16.7c0-0.6,0-1.2,0-1.8
		c0.9-7.7,1.6-15.5,2.9-23.2c8.7-52.3,52.9-97,104.9-106.2C239.3,63.8,245.5,63,251.5,62z M258.6,78.6
		c-64.1,0-116.4,52.5-116.4,116.7c0,64,52.4,116.3,116.3,116.4c64.3,0,116.6-52.3,116.6-116.5C375.1,130.9,322.9,78.5,258.6,78.6z"
		/>
	<path class="st0" d="M208.9,109.3c4.8,13.2,9.4,26,14.1,38.7c4.6,12.6,9.3,25.2,13.7,37.9c1,3,2.5,4.1,5.7,4.1
		c10.9-0.2,21.9-0.2,32.8,0c3.6,0.1,5.2-1.1,6.4-4.4c8.5-23.8,17.1-47.5,25.8-71.3c0.5-1.4,1.1-2.7,1.8-4.6
		c9.6,5.7,17.8,12.5,24.6,21c0.7,0.8,0,3.1-0.6,4.5c-11.1,29.1-22.3,58.2-33.5,87.3c-2.1,5.3-4.1,10.7-6.6,17.1
		c-3.1-7.8-5.8-14.7-8.5-21.7c-1.8-4.5-3.6-9.1-5.2-13.7c-0.8-2.3-2-3.3-4.5-3.3c-11.4,0.1-22.8,0.1-34.2,0c-2.8,0-3.8,1.3-4.7,3.6
		c-3.8,10-7.6,19.9-11.5,29.8c-0.6,1.5-1.2,2.9-2.1,5.2c-4.5-11.8-8.8-22.8-13-33.8c-8.9-23.2-17.8-46.3-26.8-69.4
		c-1-2.5-0.8-4.2,1-6.3C191,122,199,115,208.9,109.3z"/>
	<path class="st0" d="M351.8,161.4c17,46.6-4.1,98.8-46.2,120.8C321.1,241.8,336.3,202.1,351.8,161.4z"/>
	<path class="st0" d="M164.8,163.6c15.1,39.4,29.9,78.1,44.9,117.2C172,261.6,148.5,210.7,164.8,163.6z"/>
	<path class="st0" d="M283.8,291.2c-17.5,4.4-34.2,4.3-51.8-0.4c8.5-22.2,16.9-44,25.8-67.1C266.7,246.9,275.2,268.9,283.8,291.2z"
		/>
	<path class="st0" d="M259,167.1c-8.4-23.3-16.5-45.5-24.6-68.1c16.6-4.2,32.6-4.1,49.2,0.1C275.4,121.6,267.4,143.8,259,167.1z"/>
</g>
<g>
	<path d="M207.2,409.2c0.6-2.4,1.1-4.8,1.7-7.2c1-4.2,2.1-8.5,3.3-12.7c0.2-0.6,1.1-1.2,1.7-1.3c1.5-0.2,3-0.1,4.9-0.1
		c-0.7,2.5-1.2,4.7-1.8,6.8c-2.2,7.4-4.2,14.9-6.6,22.3c-0.9,2.7-3.9,0.8-6,1.3c-1.2,0.2-1.7-0.4-2-1.7c-1.1-5.6-2.3-11.3-3.6-16.9
		c-0.2-0.9-0.8-1.7-1.4-3.1c-0.4,1-0.7,1.4-0.8,1.9c-1.2,6.1-2.4,12.3-3.6,18.4c-0.1,0.4-0.4,1-0.6,1.1c-2.3,0-4.7,0.5-6.7-0.3
		c-1-0.4-1.3-3-1.8-4.6c-1.7-5.8-3.4-11.7-5.1-17.5c-0.7-2.3-1.3-4.7-2.1-7.6c2.1,0,4-0.1,5.9,0.1c0.4,0,0.9,0.9,1,1.4
		c1,3.7,2,7.3,2.9,11c0.5,2.2,0.9,4.4,1.4,6.5c0.1,0.5,0.6,1,1,1.5c0.4-0.5,1.1-1,1.2-1.6c0.9-4.2,1.7-8.5,2.5-12.7
		c0.3-1.8,0.7-3.5,1.2-5.2c0.1-0.4,0.6-0.7,1-1c0.2-0.1,0.6-0.1,0.8-0.1c5.7-0.4,5.8-0.4,7,5.3c1,4.3,1.7,8.6,2.7,12.9
		c0.2,1.1,0.8,2.2,1.3,3.2C206.8,409.3,207,409.2,207.2,409.2z"/>
	<path d="M80.8,419.1c-8.7,0.4-16.2-7-16.2-16c0-8.9,7.6-16.2,16.4-16.2c8.7,0,16.2,6.8,16.3,16.2C97.4,412.1,89.5,419.7,80.8,419.1
		z M81.1,413.1c5.3,0,9.8-4.6,9.8-10c0-5.5-4.5-10.1-9.9-10.1c-5.3,0-9.8,4.5-9.8,10C71.1,408.6,75.7,413.2,81.1,413.1z"/>
	<path d="M267.3,386.5c5.1,0.4,9.3,2.1,12.6,5.8c0.9,1,0.8,1.6-0.2,2.2c-0.7,0.4-1.4,0.8-2,1.2c-1.2,0.9-2.2,0.8-3.4-0.3
		c-3.9-3.9-12.1-3.9-15.1,2.3c-2.4,5.1-1.2,12.2,4.6,15.1c3.5,1.8,9.4,0.1,11.4-3.2c0.7-1.2,0.4-2-1-2c-1.4-0.1-2.9-0.1-4.3,0
		c-1.7,0.1-2.2-0.6-2-2.1c0.1-0.6,0-1.2,0-1.7c0-1.1,0.3-1.6,1.5-1.6c4,0,7.9,0,11.9,0.1c0.5,0,1.4,0.7,1.5,1.2c1,6-3.7,13-9.6,14.7
		c-6.4,1.9-12.3,1.3-17.2-3.6c-6.5-6.4-6.3-20.8,3.7-25.8C261.9,387.6,264.7,387.3,267.3,386.5z"/>
	<path d="M428.3,398.6c0,6.4,0,12.8,0,19.6c-1.6,0-3.4,0.1-5.2-0.1c-0.3,0-0.8-0.9-0.8-1.4c0-9.1,0-18.2,0-27.3
		c0-0.4,0.1-0.9,0.3-1.2c0.8-0.8,6-0.3,6.6,0.6c4,5.8,8,11.6,12,17.4c0.4,0.6,1,0.9,1.9,1.7c0-3.1,0-5.5,0-8c0-3.4-0.1-6.8-0.2-10.2
		c-0.1-1.5,0.5-1.9,1.9-1.9c4.8,0.1,4.1-0.5,4.1,3.9c0,8,0,16,0,24c0,1.9-0.5,2.4-2.4,2.5c-2.6,0.2-4.2-0.8-5.6-2.9
		c-3.4-5.2-7.1-10.3-10.7-15.4c-0.4-0.6-0.9-1.1-1.3-1.6C428.7,398.5,428.5,398.5,428.3,398.6z"/>
	<path d="M378.9,401.7c3.4,1.5,5.1,4,5.1,7.7c-0.1,4.4-3.2,8.2-7.6,8.5c-4.6,0.4-9.2,0.3-13.8,0.2c-0.5,0-1.4-1-1.4-1.5
		c-0.1-9,0-18-0.1-27c0-1.2,0.5-1.7,1.6-1.7c3.7,0,7.5,0,11.2,0.1c3,0.1,5.5,1.3,6.6,4c1.2,2.8,1.3,5.8-1,8.3
		c-0.2,0.2-0.3,0.5-0.5,0.7C379,401.1,379,401.3,378.9,401.7z M367.6,409c0,0.9-0.2,1.9,0.1,2.8c0.1,0.6,0.8,1.4,1.2,1.4
		c1.8,0.1,3.6,0.2,5.3-0.2c2.3-0.4,3.4-2.2,3.1-4.6c-0.2-2.2-1.5-3.3-3.9-3.4c-0.6,0-1.1,0-1.7,0C367.6,405,367.6,405,367.6,409z
		 M367.6,396.3c0,3.4,0.2,3.7,2.7,3.6c2.8,0,4.8-1.7,4.8-3.8c0-2.2-1.4-3.2-4.6-3.2C367.6,393,367.6,393,367.6,396.3z"/>
	<path d="M341.6,403.2c0,4.4-0.1,8.8,0,13.2c0,1.4-0.5,1.8-1.8,1.9c-3,0.4-4.9-0.7-6.5-3.3c-3.4-5.3-7.1-10.3-10.7-15.4
		c-0.3-0.4-0.7-0.6-1.1-0.8c-0.2,0.5-0.6,1.1-0.6,1.6c0,5.2,0,10.4,0.2,15.6c0.1,1.8-0.6,2.5-2.3,2.3c-0.5-0.1-1-0.1-1.5,0
		c-1.6,0.2-2.2-0.4-2.2-2.2c0.1-8.6,0.1-17.3,0-25.9c0-1.9,0.7-2.2,2.4-2.3c2.8-0.2,4.5,0.8,6,3.1c3.4,5.3,7.1,10.4,10.7,15.6
		c0.3,0.4,0.7,0.6,1.1,0.9c0.2-0.5,0.7-1.1,0.7-1.6c0-5.3,0-10.5-0.1-15.8c0-1.7,0.4-2.3,2.1-2.2c4.5,0.2,3.7-0.3,3.8,3.8
		C341.6,395.5,341.6,399.4,341.6,403.2z"/>
	<path d="M249.6,418.2c-2.3,0-4.3,0.1-6.2-0.1c-0.6-0.1-1.2-0.8-1.6-1.4c-0.5-0.9-0.6-2.1-1.2-3c-0.4-0.6-1.2-1.4-1.8-1.4
		c-3.5-0.1-6.9-0.2-10.4,0c-0.8,0.1-1.9,1.2-2.3,2.2c-1.7,3.7-1.6,3.8-5.6,3.8c-0.8,0-1.6,0-2.6,0c1.6-4.1,3-7.9,4.5-11.6
		c2.1-5.2,4.2-10.4,6.2-15.6c0.8-2.2,1.8-3.7,4.4-3.1c0.1,0,0.3,0,0.4,0c2.5-0.4,3.9,0.4,4.9,3c2.5,6.7,5.4,13.3,8.2,19.9
		C247.5,413.2,248.5,415.5,249.6,418.2z M233.8,395.3c-0.3,0.1-0.5,0.1-0.8,0.2c-1.2,3.3-2.4,6.6-3.4,9.9c-0.1,0.3,0.8,1.2,1.2,1.2
		c1.8,0.2,3.6,0.1,5.4,0.1c1.1,0,1.6-0.6,1.2-1.7c-0.5-1.4-1-2.8-1.5-4.3C235.3,398.9,234.5,397.1,233.8,395.3z"/>
	<path d="M418,418.2c-2.4,0-4.4,0.2-6.3-0.1c-0.6-0.1-1.4-1.2-1.6-2c-1.3-3.9-1.3-4-5.4-4c-2.1,0-4.2,0.2-6.3,0
		c-2.3-0.2-3.4,0.8-4.1,2.8c-1.2,3.3-1.2,3.2-4.6,3.2c-1,0-2,0-3.3,0c1.5-3.8,2.7-7.3,4.1-10.7c2.4-6.1,4.9-12.1,7.3-18.2
		c0.5-1.2,1.1-1.4,2.2-1.5c5.4-0.1,5.4-0.1,7.5,4.9C410.8,401.1,414.3,409.4,418,418.2z M401.8,406.7c0.6,0,1.3,0,1.9,0
		c1.9,0.1,2.5-0.6,1.9-2.4c-0.9-2.4-1.6-4.9-2.6-7.3c-0.2-0.5-0.9-0.8-1.3-1.3c-0.3,0.5-0.8,0.9-1,1.4c-0.6,1.7-1,3.4-1.7,5.1
		C397.2,406.5,397.3,406.7,401.8,406.7z"/>
	<path d="M483.1,418.2c-2.3,0-4.5,0.1-6.7-0.1c-0.7-0.1-1.5-0.8-2-1.4c-2.6-3.4-5-6.8-7.6-10.2c-0.3-0.4-0.9-0.7-1.4-1.1
		c-0.2,0.6-0.5,1.2-0.5,1.7c-0.1,3-0.1,6.1,0,9.1c0.1,1.6-0.6,2-2,2c-4.6,0.1-4.6,0.1-4.6-4.5c0-7.9,0.1-15.7,0-23.6
		c0-1.7,0.5-2.3,2.2-2.2c5.4,0.1,4.3-0.5,4.4,4.3c0,2,0,4,0,6.1c0,0.7,0.3,1.3,0.5,2c0.6-0.4,1.3-0.8,1.7-1.3c2.3-3,4.7-6,6.9-9.1
		c1-1.5,2.1-1.9,3.8-1.8c1.5,0.1,3.1,0,5.3,0c-0.9,1.3-1.4,2.1-2,2.8c-2.7,3.3-5.3,6.6-8,9.9c-1.1,1.3-1,2.3,0,3.6
		c3.4,4.4,6.8,8.9,10.1,13.4C483.2,417.7,483.1,417.8,483.1,418.2z"/>
	<path d="M149.4,388.5c-3.1,3.9-6.1,7.8-9.3,11.6c-1.5,1.7-1.5,2.9,0,4.7c3.2,3.9,6.1,8,9.2,12c0.2,0.3,0.4,0.7,0.8,1.4
		c-2.7,0-5,0.1-7.3-0.1c-0.5,0-1.1-0.7-1.4-1.2c-2.6-3.5-5.1-7.1-7.8-10.6c-0.3-0.4-1-0.6-1.5-0.9c-0.2,0.5-0.5,1-0.5,1.5
		c0,3.1-0.1,6.2,0,9.3c0.1,1.5-0.4,2-1.9,2.1c-4.7,0.1-4.7,0.2-4.7-4.5c0-7.9,0-15.9,0-23.8c0-1.6,0.4-2.2,2.1-2.1
		c5.5,0.1,4.5-0.4,4.5,4.4c0,2.2,0,4.3,0,6.5c0,0.5,0.4,0.9,0.6,1.4c0.5-0.3,1.1-0.4,1.4-0.8c2.5-3.3,5-6.5,7.3-9.9
		c0.9-1.2,1.8-1.7,3.2-1.6c1.7,0.1,3.4,0,5.1,0C149.3,388.1,149.4,388.3,149.4,388.5z"/>
	<path d="M33.7,388c2.4,0,4.4-0.1,6.3,0.1c0.5,0.1,1.1,1,1.4,1.6c2.2,6.4,4.4,12.9,6.6,19.4c0.1,0.3,0.4,0.6,1,1.5
		c0.2-0.6,0.3-1,0.4-1.3c1.8-5.4,3.7-10.7,5.5-16.1c0.5-1.4,0.8-2.8,1.3-4.1c0.2-0.4,0.7-1,1.1-1c1.9-0.1,3.8,0,6.3,0
		c-1.2,3.1-2.1,5.8-3.2,8.5c-2.4,6.2-4.8,12.4-7,18.7c-0.7,2.1-1.5,3.1-4.1,3.1c-3.1,0-4.9-0.5-6-3.8c-2.4-7.4-5.3-14.7-8-22
		C34.8,391.2,34.3,389.8,33.7,388z"/>
	<path d="M289.6,403.1c0-4.4,0-8.8,0-13.2c0-1.4,0.4-2.1,1.9-2c4.4,0.1,8.8,0.1,13.2,0c1.5,0,2,0.4,2,1.9c-0.2,3.8,0.7,3.6-3.6,3.6
		c-1.8,0-3.6,0-5.4,0c-1.2,0-1.9,0.6-1.9,1.9c0,0.1,0,0.1,0,0.2c-0.2,4.6-0.2,4.6,4.3,4.6c1.1,0,2.2,0,3.2,0c3.2,0,3,0,3.2,3.2
		c0.1,2.2-0.8,2.8-2.8,2.6c-2-0.1-4,0-6.1,0c-1.3,0-1.9,0.6-2,1.9c-0.2,5-0.2,5,4.8,5c1.4,0,2.9,0.1,4.3,0c1.4-0.1,1.8,0.4,1.7,1.7
		c-0.2,4.1,0.8,3.7-3.6,3.7c-3.8,0-7.6-0.1-11.5,0c-1.5,0-2-0.4-2-2C289.7,411.9,289.6,407.5,289.6,403.1z"/>
	<path d="M168.8,394.6c-0.9-0.6-1.9-1.4-3.1-2c-1.8-0.9-3.5-0.4-4.6,1.4c-1.2,1.8-0.5,3.3,1,4.3c1.7,1.1,3.6,2.1,5.5,3
		c4.5,2.2,6.6,5.9,5.6,10.3c-0.9,4.4-4.9,7.5-9.5,7.7c-3.6,0.2-6.8-0.4-9.7-2.7c-1.2-1-1.3-1.8-0.2-2.8c0.3-0.3,0.6-0.6,0.8-1
		c1.2-1.9,2.4-2,4.1-0.4c1.6,1.5,3.6,2.4,5.9,1.1c2.5-1.4,2.9-4.3,0.5-6c-1.8-1.3-3.8-2.2-5.8-3.3c-5.3-3-5.6-5.8-4.9-10.8
		c0.6-3.5,4.8-6.1,9.1-6.2c2.9-0.1,5.4,0.7,7.7,2.4c1.2,0.9,1.7,1.8,0.3,2.9C170.7,393,169.8,393.8,168.8,394.6z"/>
	<path d="M103.1,402.9c0-4.3,0.1-8.6,0-13c0-1.4,0.3-2.1,1.9-2.1c4.7-0.1,4.8-0.1,4.8,4.6c0,5.9,0,11.8,0,17.7
		c0,1.9,0.6,2.7,2.5,2.6c2.2-0.1,4.3,0,6.5,0c1.5-0.1,2.2,0.4,2,2c-0.1,0.6,0.2,1.4-0.1,1.9c-0.3,0.6-0.9,1.5-1.5,1.5
		c-4.8,0.1-9.6,0-14.5,0.1c-1.2,0-1.6-0.5-1.6-1.7C103.2,412,103.1,407.5,103.1,402.9z"/>
</g>
</svg>
