<svg xmlns="http://www.w3.org/2000/svg" viewBox="0 0 512 512"><path fill="#0066A2" d="M181.1 270.2c.2-12.8 1.2-25.5-2.8-37.9-3.1-9.6-7.6-22.1-15.5-28.7-8.3-7-21.7-8.4-32.1-7.8-10.6.6-21.3 3.7-30.1 9.8-7.9 5.5-14.3 13.2-16.8 22.6-3.2 11.8-2.3 25.2-2.8 37.3-1.1 30.1-1.4 60.3 2.3 90.3.8 6.3 10.8 6.4 10 0-2.9-23.4-3.4-47-2.9-70.6.2-11.5.7-22.9 1.2-34.4.5-10.4 0-21.4 6.9-30 5.7-7 14.1-11.4 22.8-13.6 10-2.5 23.3-2.8 32.7 2.4 4.3 2.4 6.5 6.7 8.6 10.9 2.6 5.2 5 10.5 6.6 16.1 3.2 10.9 2.1 22.3 1.9 33.5-.5 26.7-.1 53.5 1.1 80.2.3 6.4 10.3 6.4 10 0-1.2-26.6-1.6-53.4-1.1-80.1"/><path fill="#008048" d="M304.1 272.4c-.9-12.8-2.2-25.8-4.6-38.4-1.9-9.6-5.1-19.5-12.1-26.6-14.1-14.3-41.2-12.9-57.5-3.3-20.2 11.9-23.2 38.1-25.4 59.2-3.1 29.6-.8 59.4 1.7 88.9.5 6.4 10.5 6.4 10 0-1.9-23.2-3.8-46.5-2.9-69.9.4-11.9 1.5-23.9 3.7-35.6 1.8-9.6 4-20.2 10.6-27.8 6-6.9 15-10.4 24-11.5 9.3-1.1 20.6-.5 27.9 6 6.8 6 9.1 15.4 10.7 23.9 2.1 11.5 3.3 23.3 4.1 35 1.9 26.4 1.4 53 1 79.4-.1 6.4 9.9 6.4 10 0 .2-26.4.7-52.9-1.2-79.3"/><path fill="#E98838" d="M425.1 274.9c-.9-12.6-2.4-25.2-4.4-37.8-1.9-11.4-2.9-22.4-13.4-29-8.8-5.5-20.9-10.5-31.4-10.2-10.6.4-22.5 5.8-31.1 11.7-18.4 12.5-19.1 35.5-19.4 55.6-.4 30.3.5 60.7 2.7 90.9.5 6.4 10.5 6.4 10 0-1.7-23.7-2.7-47.4-2.8-71.1-.1-11-.2-22.1.5-33.1.5-8.8 1.7-18 6.4-25.6 5.3-8.5 15.8-13.3 24.9-16.4 11.1-3.8 21-.2 31.1 4.7 4.4 2.1 8.3 4.5 9.9 9.4 1.6 5 2.2 10.6 3 15.8 1.9 11.6 3.2 23.3 4.1 35.1 1.9 26.3-.6 52.6.4 78.9.3 6.4 10.3 6.4 10 0-1.2-26.4 1.3-52.6-.5-78.9"/><path fill="#E4BB13" d="M425.3 156.6H84.9c-.9 0-1.6.2-2.3.5h-.2c-6.4 0-6.4 10 0 10 .9 0 1.6-.2 2.3-.5h340.6c6.5 0 6.5-10 0-10"/></svg>