<?xml version="1.0" encoding="utf-8"?>
<!-- Generator: Adobe Illustrator 22.1.0, SVG Export Plug-In . SVG Version: 6.00 Build 0)  -->
<svg version="1.1" id="Layer_1" xmlns="http://www.w3.org/2000/svg" xmlns:xlink="http://www.w3.org/1999/xlink" x="0px" y="0px"
	 viewBox="0 0 512 512" style="enable-background:new 0 0 512 512;" xml:space="preserve">
<style type="text/css">
	.st0{fill:#095E27;}
	.st1{fill:#FFFFFF;}
	.st2{fill:#E10B1F;}
</style>
<rect class="st0" width="512" height="329"/>
<rect x="-0.2" y="312" class="st1" width="512" height="6.4"/>
<rect y="318.4" class="st2" width="512" height="193.6"/>
<path class="st1" d="M257.6,415.1c2.3-1.8,2.8-4.6,3-7.5c0.4-5.1-1.1-9.8-3.9-13.9c-3.8-5.5-8.1-10.6-11.9-16
	c-4.6-6.7-6.1-14-3.2-21.8c0.8-2.2,2-4.3,4.9-5.5c0.1,1.1,0.3,1.9,0.2,2.6c-0.3,5.5,2,10.1,5.2,14.2c3.4,4.3,7,8.4,10.4,12.7
	c3.7,4.7,7.3,9.6,7,16.1c0.2,0.1,0.4,0.1,0.6,0.2c0.6-0.7,1.3-1.3,1.7-2c3-6.2,2.7-12.4-0.8-18.1c-2.9-4.7-6.4-9.1-9.7-13.5
	c-3.6-4.8-6.9-9.8-7.9-15.9c-0.9-5.6-0.1-10.8,3.7-15.3c0.5-0.6,1.3-1,2.3-1.8c0.2,1.1,0.5,1.8,0.4,2.4c-0.6,6.3,2.5,11.2,5.9,16
	c4.1,5.7,8.4,11.4,12.3,17.3c2.5,3.8,4,8,3.1,13c3.5,1.1,7,2,10.5,3.2c7.2,2.5,13.9,6,19.1,11.8c6.8,7.6,5.6,17.3-1.9,24.2
	c-7.1,6.5-15.6,9.9-24.7,12.3c-12.5,3.3-25.1,3.9-37.9,2.7c-13.1-1.3-25.8-4.2-36.6-12.3c-5.4-4-9.3-8.9-8.9-16.3
	c0.3-4.6,2.6-8.1,5.7-11c7.6-7.1,16.9-11.1,26.9-13.5c0.7-0.2,1.9,0.4,2.3,1c3.1,4.4,5.9,9,9,13.4c3,4.3,6.4,8.3,9.2,12.7
	C255.3,409.1,256.3,412.1,257.6,415.1z"/>
</svg>
