<svg xmlns="http://www.w3.org/2000/svg" viewBox="0 0 512 512"><path fill="#40B93C" d="M208.563 296.217a11.56 11.56 0 0 1-5.218 1.252c-4.353 0-8.131-2.393-10.12-5.936l-.76-1.664-31.678-69.511c-.342-.757-.552-1.611-.552-2.444a5.799 5.799 0 0 1 9.269-4.649l37.381 26.614a17.3 17.3 0 0 0 9.503 2.834 17.4 17.4 0 0 0 5.949-1.065l175.791-78.24C366.617 126.27 314.724 102 255.996 102 159.896 102 82 166.916 82 247.003c0 43.688 23.436 83.018 60.119 109.6a11.6 11.6 0 0 1 4.871 9.449c0 1.286-.276 2.467-.612 3.693-2.93 10.929-7.619 28.432-7.841 29.252-.364 1.371-.933 2.802-.933 4.239a5.8 5.8 0 0 0 5.804 5.799c1.255 0 2.285-.467 3.346-1.079l38.092-21.993c2.868-1.653 5.898-2.677 9.244-2.677 1.775 0 3.494.273 5.11.768 17.771 5.11 36.945 7.952 56.796 7.952 96.097 0 174.004-64.925 174.004-145.003 0-24.258-7.19-47.099-19.823-67.195L209.832 295.483z"/></svg>