<svg xmlns="http://www.w3.org/2000/svg" viewBox="0 0 512 512"><style>.st0{fill:#089c49}</style><path class="st0" d="M320.4 63.5c20.8-4.7 42.4-6.8 64-6.8 21.6-.4 42.8 2.1 64 6.8 4.7 20.8 6.8 42.4 6.8 64s-2.1 42.8-6.8 64c-20.8 4.7-42.4 6.8-64 6.4-21.6 0-42.8-2.1-64-6.4-4.7-21.2-6.8-42.4-6.4-64-.3-21.6 1.8-43.2 6.4-64"/><linearGradient id="SVGID_1_" gradientUnits="userSpaceOnUse" x1="388.945" y1="1922.377" x2="388.945" y2="1787.123" gradientTransform="translate(0 -1723.89)"><stop offset="0" style="stop-color:#075f31"/><stop offset=".85" style="stop-color:#089c49"/></linearGradient><path d="M449.3 63.5c4.7 20.8 6.8 42.4 6.8 64 .4 21.6-2.1 42.8-6.8 64-20.8 4.2-42.4 6.8-63.6 6.4-21.6 0-42.8-2.1-64-6.4l127.6-128z" fill="url(#SVGID_1_)"/><path d="M191.6 191.2c21.2-4.2 42.4-6.8 64-6.4 21.2-.4 42.8 1.7 63.6 6.4 4.7 20.8 6.8 42.4 6.8 63.6.4 21.6-2.1 42.8-6.8 64-20.8 4.2-42.4 6.8-63.6 6.4-21.2 0-42.8-2.1-63.6-6.8-8.9-41.6-8.9-85.3-.4-127.2" fill="#68bd45"/><linearGradient id="SVGID_2_" gradientUnits="userSpaceOnUse" x1="260.051" y1="2051.059" x2="260.051" y2="1915.762" gradientTransform="translate(0 -1723.89)"><stop offset="0" style="stop-color:#4a863e"/><stop offset=".85" style="stop-color:#68bd45"/></linearGradient><path d="M320.4 191.2c4.7 20.8 6.8 42.4 6.8 63.6.4 21.6-2.1 42.8-6.8 64-20.8 4.2-42.4 6.8-63.6 6.8-21.6 0-42.8-2.1-64-6.8l127.6-127.6z" style="fill:url(#SVGID_2_)"/><path d="M63.1 320.9c20.8-4.7 42.4-6.8 64-6.8s42.8 2.1 64 6.8c4.7 21.2 6.8 42.4 6.4 64 0 21.2-2.1 42.8-6.4 63.6-20.8 4.7-41.6 6.8-62.8 6.8s-42.8-2.1-63.6-6.8c-5.5-20.8-8.1-42-7.6-63.6-.8-21.6 1.3-42.8 6-64" style="fill:#969696"/><linearGradient id="SVGID_3_" gradientUnits="userSpaceOnUse" x1="130.948" y1="2179.656" x2="130.948" y2="2044.402" gradientTransform="translate(0 -1723.89)"><stop offset="0" style="stop-color:#4e4e4e"/><stop offset=".85" style="stop-color:#969696"/></linearGradient><path d="M191.6 320.9c4.7 21.2 6.8 42.4 6.4 64 0 21.2-2.1 42.8-6.4 63.6-20.8 4.7-42.4 6.8-64 6.8-21.2 0-42.8-2.1-63.6-6.8l127.6-127.6z" style="fill:url(#SVGID_3_)"/><path class="st0" d="M191.6 63.5c4.7 20.8 6.8 42.4 6.4 64 0 21.6-2.1 42.8-6.4 64-21.2 4.7-42.4 6.8-64 6.4-21.2 0-42.8-2.1-63.6-6.4-5.5-20.8-8.5-42.4-8.1-64-.4-21.6 2.1-42.8 6.8-64 21.2-4.7 43.2-6.8 64.9-6.8s43.2 2.2 64 6.8"/><linearGradient id="SVGID_4_" gradientUnits="userSpaceOnUse" x1="123.691" y1="1922.377" x2="123.691" y2="1787.123" gradientTransform="translate(0 -1723.89)"><stop offset="0" style="stop-color:#075f31"/><stop offset=".85" style="stop-color:#089c49"/></linearGradient><path d="M191.6 191.2c-21.2 4.7-42.4 6.8-64 6.4-21.2 0-42.8-2.1-63.6-6.4-5.5-20.8-8.5-42.4-8.1-64-.4-21.6 2.1-42.8 6.8-64l128.9 128z" style="fill:url(#SVGID_4_)"/></svg>