<?xml version="1.0" encoding="utf-8"?>
<!-- Generator: Adobe Illustrator 22.1.0, SVG Export Plug-In . SVG Version: 6.00 Build 0)  -->
<svg version="1.1" id="Layer_1" xmlns="http://www.w3.org/2000/svg" xmlns:xlink="http://www.w3.org/1999/xlink" x="0px" y="0px"
	 viewBox="0 0 512 512" style="enable-background:new 0 0 512 512;" xml:space="preserve">
<style type="text/css">
	.st0{fill-rule:evenodd;clip-rule:evenodd;fill:#0082CA;}
	.st1{fill-rule:evenodd;clip-rule:evenodd;fill:#FFFFFF;stroke:#003361;stroke-width:0.1427;stroke-miterlimit:2.6131;}
	.st2{fill:none;stroke:#003361;stroke-width:0.1427;stroke-miterlimit:2.6131;}
	.st3{fill-rule:evenodd;clip-rule:evenodd;fill:#FFFFFF;}
</style>
<rect class="st0" width="512" height="512"/>
<path class="st1" d="M239.3,248.8c32.2,1.5,69-7.7,95.1-24.5c33.7-19.9,47.5-52.1,47.5-88.9V91h-67.5v44.5
	c0,16.9-6.1,30.7-26.1,41.4c-9.2,6.1-19.9,10.7-32.2,10.7c-12.3,0-24.5-4.6-33.7-10.7c-13.8-10.7-21.5-27.6-21.5-42.9V91H135v44.5
	c0,36.8,23,50.6,88.9,61.3c19.9,3.1,44.5,1.5,64.4-6.1c6.1-1.5,9.2-4.6,15.3-6.1l1.5,1.5l-1.5,3.1c-7.7,19.9-24.5,33.7-41.4,42.9
	c-23,12.3-50.6,10.7-75.1,7.7h-1.5c6.1,4.6,15.3,4.6,21.5,6.1C217.8,248.8,228.6,248.8,239.3,248.8L239.3,248.8z"/>
<path class="st2" d="M277.6,170.7l6.1,1.5v-4.6c16.9,1.5,26.1-36.8,13.8-44.5l3.1-3.1l-4.6-1.5c4.6-12.3-26.1-30.7-36.8-24.5
	l-1.5-3.1l-1.5,3.1c-16.9-6.1-39.9,15.3-36.8,24.5l-3.1,1.5l3.1,3.1c-10.7,3.1-4.6,46,10.7,41.4v6.1l4.6-1.5
	C231.6,182.9,280.7,184.5,277.6,170.7L277.6,170.7z"/>
<path class="st2" d="M268.4,130.8l-9.2-7.7c1.5-4.6,1.5-7.7,1.5-12.3c0-4.6,0-4.6,0-9.2c0-6.1,6.1-4.6,10.7-4.6
	c9.2,3.1,12.3,4.6,16.9,10.7c3.1,4.6,7.7,7.7,3.1,12.3c-1.5,1.5-4.6,0-10.7,3.1C274.6,126.2,271.5,130.8,268.4,130.8L268.4,130.8z"
	/>
<path class="st1" d="M257.7,127.7c4.6,0,9.2,3.1,9.2,7.7c0,6.1-4.6,9.2-9.2,9.2c-4.6,0-9.2-3.1-9.2-9.2
	C248.5,130.8,253.1,127.7,257.7,127.7L257.7,127.7z"/>
<path class="st1" d="M257.7,121.6c7.7,0,15.3,6.1,15.3,13.8c0,9.2-7.7,15.3-15.3,15.3c-7.7,0-13.8-6.1-13.8-15.3
	C243.9,127.7,250,121.6,257.7,121.6L257.7,121.6z"/>
<path class="st3" d="M297.6,123.1l3.1-3.1l-4.6-1.5c4.6-12.3-26.1-30.7-36.8-24.5l-1.5-3.1l-1.5,3.1c-16.9-6.1-39.9,15.3-36.8,24.5
	c1.5,1.5-3.1,1.5-3.1,1.5l3.1,3.1c-10.7,3.1-4.6,46,10.7,41.4v6.1l4.6-1.5c-3.1,13.8,46,15.3,42.9,1.5l6.1,1.5v-4.6
	C300.6,169.1,309.8,130.8,297.6,123.1z M260.8,110.9c0-4.6,0-4.6,0-9.2c0-6.1,6.1-4.6,10.7-4.6c9.2,3.1,12.3,4.6,16.9,10.7
	c3.1,4.6,7.7,7.7,3.1,12.3c-1.5,1.5-4.6,0-10.7,3.1c-6.1,3.1-9.2,7.7-12.3,7.7l-9.2-7.7C260.8,118.5,262.3,115.5,260.8,110.9z
	 M257.7,126.2c6.1,0,10.7,4.6,10.7,9.2c0,6.1-4.6,10.7-10.7,10.7c-4.6,0-9.2-4.6-9.2-10.7C248.5,130.8,253.1,126.2,257.7,126.2z
	 M227,107.8c6.1-6.1,9.2-7.7,18.4-10.7c3.1-1.5,10.7-1.5,9.2,3.1c0,6.1,0,6.1,0,10.7c0,3.1,0,7.7,1.5,12.3l-9.2,6.1
	c-3.1,0-4.6-3.1-10.7-6.1c-6.1-1.5-9.2-1.5-12.3-3.1C220.9,115.5,224,112.4,227,107.8z M230.1,163c-3.1,0-7.7-3.1-10.7-7.7
	c-3.1-7.7-3.1-18.4-3.1-21.5c0-3.1,0-7.7,4.6-7.7c4.6,0,6.1,3.1,10.7,4.6c4.6,0,9.2,3.1,13.8,3.1l3.1,12.3c-1.5,1.5-6.1,3.1-9.2,7.7
	C234.7,159.9,233.2,163,230.1,163z M265.4,176.8c-7.7,0-10.7,0-19.9-1.5c-3.1,0-7.7-3.1-7.7-7.7c0-3.1,4.6-6.1,7.7-9.2
	c3.1-3.1,4.6-6.1,6.1-10.7h13.8c0,3.1,1.5,7.7,4.6,12.3c3.1,4.6,6.1,6.1,6.1,9.2C274.6,175.3,270,175.3,265.4,176.8z M283.8,164.5
	c-3.1-1.5-3.1-4.6-7.7-9.2c-3.1-6.1-6.1-7.7-9.2-9.2l4.6-12.3c4.6-1.5,10.7-1.5,13.8-3.1c4.6-1.5,1.5-1.5,7.7-4.6
	c6.1-3.1,6.1,4.6,7.7,7.7c0,3.1-1.5,13.8-4.6,21.5C293,159.9,286.8,166.1,283.8,164.5z"/>
<g>
	<polygon class="st3" points="120,299 133.2,299 144.2,314.8 155.8,298.5 169,298.5 150.6,326.4 150.6,354.8 137.9,354.8 
		137.9,326.4 120,299 	"/>
	<path class="st3" d="M197.4,336.4c0,10.5-9.5,19.5-20,19.5c-11.6,0-20-7.9-20-19.5c0-11.6,8.4-20,20-20
		C188.5,316.4,197.4,325.3,197.4,336.4L197.4,336.4z M169,336.4c0,4.7,3.2,9.5,8.4,9.5c5.3,0,9-4.7,9-9.5c0-5.3-3.2-9.5-9-9.5
		C172.1,326.9,169,331.1,169,336.4L169,336.4z"/>
	<path class="st3" d="M213.2,321.6h1.1c1.1-1.6,5.8-4.2,8.4-4.2c1.6,0,2.1-0.5,3.2,0l0.5,10c-1.1-0.5-2.6-0.5-4.2-0.5
		c-7.9,0-9,6.3-9,11.6v16.3h-11.1v-36.9h11.1V321.6L213.2,321.6z"/>
	<path class="st3" d="M372.3,321.6h0.5c1.6-1.6,6.3-4.2,9-4.2c1.6,0,1.6-0.5,3.2,0v10c-1.1-0.5-2.6-0.5-4.2-0.5
		c-7.4,0-8.4,6.3-8.4,11.6v16.3h-11.6v-36.9h11.6V321.6L372.3,321.6z"/>
	<polygon class="st3" points="242.2,329.5 242.2,329.5 254.3,316.9 268,316.9 252.7,334.8 269.6,354.8 255.9,354.8 242.2,340.6 
		242.2,340.6 242.2,354.8 230.6,354.8 230.6,293.7 242.2,293.7 242.2,329.5 	"/>
	<path class="st3" d="M288,327.9c-0.5-2.6-2.1-4.2-4.2-4.2c-1.6,0-3.2,1.1-3.2,3.2c0,2.6,3.7,3.7,7.9,5.8c3.7,1.6,7.9,4.2,7.9,10.5
		c0,7.9-5.8,12.1-13.7,12.1c-6.8,0-14.2-4.7-14.2-10.5l7.9-2.1c1.1,2.1,2.6,4.7,5.8,4.7c2.6,0,3.7-2.1,3.7-3.2
		c0-3.7-4.2-4.7-7.9-6.3c-3.7-1.6-7.9-4.2-7.9-10c0-6.8,6.8-11.6,13.7-11.6c3.7,0,11.6,3.2,12.1,9L288,327.9L288,327.9z"/>
	<path class="st3" d="M313.3,293.7l-0.5,26.9h1.1c2.6-2.6,5.8-3.2,9.5-3.2c10,0,12.6,6.3,12.6,14.7v22.6h-11.1v-19.5
		c0-4.7,0.5-9-4.7-9c-7.4,0-7.9,5.3-7.9,10v18.4h-11.6v-61.1H313.3L313.3,293.7z"/>
	<path class="st3" d="M342.8,317.9h11.6v36.9h-11.6V317.9L342.8,317.9z M355.5,304.8c0,3.7-3.2,6.3-6.3,6.3c-3.7,0-6.3-2.6-6.3-6.3
		c0-3.2,2.6-6.3,6.3-6.3C352.3,298.5,355.5,301.6,355.5,304.8L355.5,304.8z"/>
	<path class="st3" d="M396.5,339c0,3.7,3.7,7.4,7.9,7.4c3.7,0,7.9-2.6,9.5-5.8l6.8,4.7c-3.7,5.8-8.4,10-16.3,10
		c-10.5,0-19-9-19-19.5c0-11.6,7.4-19,19-19c12.6,0,18.4,9.5,18.4,20.5v1.6H396.5L396.5,339z M411.8,331.6c-0.5-3.7-3.2-6.3-7.4-6.3
		c-4.2,0-7.4,2.1-7.9,6.3H411.8L411.8,331.6z"/>
</g>
<g>
	<polygon class="st3" points="275.9,407.6 275.9,407.6 288,394.9 301.7,394.9 286.4,412.8 303.8,432.9 289.6,432.9 275.9,418.6 
		275.9,418.6 275.9,432.9 264.3,432.9 264.3,371.8 275.9,371.8 275.9,407.6 	"/>
	<path class="st3" d="M174.2,417.1c0,11.1-8.4,15.8-18.4,15.8h-21.6v-55.3h16.3c10.5,0,19,2.6,19,13.7c0,4.2-1.1,8.4-4.7,10.5v1.1
		C167.9,404.4,174.2,408.1,174.2,417.1L174.2,417.1z M145.8,423.4h5.8c2.6,0,11.1,2.1,11.1-7.4c0-7.4-7.4-6.8-14.7-6.8h-2.1V423.4
		L145.8,423.4z M145.8,399.7h1.6c5.3,0,10.5,0.5,10.5-7.9c0-5.8-5.8-5.3-10.5-5.3h-1.6V399.7L145.8,399.7z"/>
	<path class="st3" d="M218,432.9h-11.6v-3.7h-0.5c-2.1,3.2-5.8,4.7-10,4.7c-10.5,0-18.4-9-18.4-19.5c0-9.5,8.4-18.4,19-18.4
		c3.7,0,6.8,0.5,10,3.2V396H218V432.9L218,432.9z M207.4,415c0-4.7-3.7-9.5-9-9.5c-5.3,0-9.5,4.2-9.5,9.5c0,4.7,4.2,9.5,9.5,9.5
		C203.7,424.4,207.4,420.2,207.4,415L207.4,415z"/>
	<path class="st3" d="M234.8,399.2h0.5c2.1-2.6,7.4-3.7,10-3.7c10,0,13.2,7.4,13.2,15.8v21.6H248V415c0-4.2,0-10-5.8-10
		c-6.8,0-7.4,4.7-7.4,11.6v16.3h-11.1V396h11.1V399.2L234.8,399.2z"/>
</g>
</svg>
