<svg xmlns="http://www.w3.org/2000/svg" viewBox="0 0 512 512"><path fill="#0082ca" fill-rule="evenodd" d="M0 0h512v512H0z" clip-rule="evenodd"/><path fill="#fff" fill-rule="evenodd" stroke="#003361" stroke-miterlimit="2.613" stroke-width=".143" d="M239.3 248.8c32.2 1.5 69-7.7 95.1-24.5 33.7-19.9 47.5-52.1 47.5-88.9V91h-67.5v44.5c0 16.9-6.1 30.7-26.1 41.4-9.2 6.1-19.9 10.7-32.2 10.7s-24.5-4.6-33.7-10.7c-13.8-10.7-21.5-27.6-21.5-42.9V91H135v44.5c0 36.8 23 50.6 88.9 61.3 19.9 3.1 44.5 1.5 64.4-6.1 6.1-1.5 9.2-4.6 15.3-6.1l1.5 1.5-1.5 3.1c-7.7 19.9-24.5 33.7-41.4 42.9-23 12.3-50.6 10.7-75.1 7.7h-1.5c6.1 4.6 15.3 4.6 21.5 6.1 10.7 2.9 21.5 2.9 32.2 2.9zm18.4-121.1c4.6 0 9.2 3.1 9.2 7.7 0 6.1-4.6 9.2-9.2 9.2s-9.2-3.1-9.2-9.2c0-4.6 4.6-7.7 9.2-7.7zm0-6.1c7.7 0 15.3 6.1 15.3 13.8 0 9.2-7.7 15.3-15.3 15.3-7.7 0-13.8-6.1-13.8-15.3 0-7.7 6.1-13.8 13.8-13.8z" clip-rule="evenodd"/><path fill="#fff" fill-rule="evenodd" d="m297.6 123.1 3.1-3.1-4.6-1.5c4.6-12.3-26.1-30.7-36.8-24.5l-1.5-3.1-1.5 3.1c-16.9-6.1-39.9 15.3-36.8 24.5 1.5 1.5-3.1 1.5-3.1 1.5l3.1 3.1c-10.7 3.1-4.6 46 10.7 41.4v6.1l4.6-1.5c-3.1 13.8 46 15.3 42.9 1.5l6.1 1.5v-4.6c16.8 1.6 26-36.7 13.8-44.4m-36.8-12.2v-9.2c0-6.1 6.1-4.6 10.7-4.6 9.2 3.1 12.3 4.6 16.9 10.7 3.1 4.6 7.7 7.7 3.1 12.3-1.5 1.5-4.6 0-10.7 3.1s-9.2 7.7-12.3 7.7l-9.2-7.7c1.5-4.7 3-7.7 1.5-12.3m-3.1 15.3c6.1 0 10.7 4.6 10.7 9.2 0 6.1-4.6 10.7-10.7 10.7-4.6 0-9.2-4.6-9.2-10.7 0-4.6 4.6-9.2 9.2-9.2M227 107.8c6.1-6.1 9.2-7.7 18.4-10.7 3.1-1.5 10.7-1.5 9.2 3.1v10.7c0 3.1 0 7.7 1.5 12.3l-9.2 6.1c-3.1 0-4.6-3.1-10.7-6.1-6.1-1.5-9.2-1.5-12.3-3.1-3-4.6.1-7.7 3.1-12.3m3.1 55.2c-3.1 0-7.7-3.1-10.7-7.7-3.1-7.7-3.1-18.4-3.1-21.5s0-7.7 4.6-7.7 6.1 3.1 10.7 4.6c4.6 0 9.2 3.1 13.8 3.1l3.1 12.3c-1.5 1.5-6.1 3.1-9.2 7.7-4.6 6.1-6.1 9.2-9.2 9.2m35.3 13.8c-7.7 0-10.7 0-19.9-1.5-3.1 0-7.7-3.1-7.7-7.7 0-3.1 4.6-6.1 7.7-9.2s4.6-6.1 6.1-10.7h13.8c0 3.1 1.5 7.7 4.6 12.3s6.1 6.1 6.1 9.2c-1.5 6.1-6.1 6.1-10.7 7.6m18.4-12.3c-3.1-1.5-3.1-4.6-7.7-9.2-3.1-6.1-6.1-7.7-9.2-9.2l4.6-12.3c4.6-1.5 10.7-1.5 13.8-3.1 4.6-1.5 1.5-1.5 7.7-4.6 6.1-3.1 6.1 4.6 7.7 7.7 0 3.1-1.5 13.8-4.6 21.5-3.1 4.6-9.3 10.8-12.3 9.2M120 299h13.2l11 15.8 11.6-16.3H169l-18.4 27.9v28.4h-12.7v-28.4zm77.4 37.4c0 10.5-9.5 19.5-20 19.5-11.6 0-20-7.9-20-19.5s8.4-20 20-20c11.1 0 20 8.9 20 20m-28.4 0c0 4.7 3.2 9.5 8.4 9.5 5.3 0 9-4.7 9-9.5 0-5.3-3.2-9.5-9-9.5-5.3 0-8.4 4.2-8.4 9.5m44.2-14.8h1.1c1.1-1.6 5.8-4.2 8.4-4.2 1.6 0 2.1-.5 3.2 0l.5 10c-1.1-.5-2.6-.5-4.2-.5-7.9 0-9 6.3-9 11.6v16.3h-11.1v-36.9h11.1zm159.1 0h.5c1.6-1.6 6.3-4.2 9-4.2 1.6 0 1.6-.5 3.2 0v10c-1.1-.5-2.6-.5-4.2-.5-7.4 0-8.4 6.3-8.4 11.6v16.3h-11.6v-36.9h11.6v3.7zm-130.1 7.9 12.1-12.6H268l-15.3 17.9 16.9 20h-13.7l-13.7-14.2v14.2h-11.6v-61.1h11.6zm45.8-1.6c-.5-2.6-2.1-4.2-4.2-4.2-1.6 0-3.2 1.1-3.2 3.2 0 2.6 3.7 3.7 7.9 5.8 3.7 1.6 7.9 4.2 7.9 10.5 0 7.9-5.8 12.1-13.7 12.1-6.8 0-14.2-4.7-14.2-10.5l7.9-2.1c1.1 2.1 2.6 4.7 5.8 4.7 2.6 0 3.7-2.1 3.7-3.2 0-3.7-4.2-4.7-7.9-6.3s-7.9-4.2-7.9-10c0-6.8 6.8-11.6 13.7-11.6 3.7 0 11.6 3.2 12.1 9zm25.3-34.2-.5 26.9h1.1c2.6-2.6 5.8-3.2 9.5-3.2 10 0 12.6 6.3 12.6 14.7v22.6h-11.1v-19.5c0-4.7.5-9-4.7-9-7.4 0-7.9 5.3-7.9 10v18.4h-11.6v-61.1h12.6zm29.5 24.2h11.6v36.9h-11.6zm12.7-13.1c0 3.7-3.2 6.3-6.3 6.3-3.7 0-6.3-2.6-6.3-6.3 0-3.2 2.6-6.3 6.3-6.3 3.1 0 6.3 3.1 6.3 6.3m41 34.2c0 3.7 3.7 7.4 7.9 7.4 3.7 0 7.9-2.6 9.5-5.8l6.8 4.7c-3.7 5.8-8.4 10-16.3 10-10.5 0-19-9-19-19.5 0-11.6 7.4-19 19-19 12.6 0 18.4 9.5 18.4 20.5v1.6h-26.3zm15.3-7.4c-.5-3.7-3.2-6.3-7.4-6.3s-7.4 2.1-7.9 6.3zm-135.9 76 12.1-12.7h13.7l-15.3 17.9 17.4 20.1h-14.2l-13.7-14.3v14.3h-11.6v-61.1h11.6zm-101.7 9.5c0 11.1-8.4 15.8-18.4 15.8h-21.6v-55.3h16.3c10.5 0 19 2.6 19 13.7 0 4.2-1.1 8.4-4.7 10.5v1.1c3.1 1.5 9.4 5.2 9.4 14.2m-28.4 6.3h5.8c2.6 0 11.1 2.1 11.1-7.4 0-7.4-7.4-6.8-14.7-6.8h-2.1v14.2zm0-23.7h1.6c5.3 0 10.5.5 10.5-7.9 0-5.8-5.8-5.3-10.5-5.3h-1.6zm72.2 33.2h-11.6v-3.7h-.5c-2.1 3.2-5.8 4.7-10 4.7-10.5 0-18.4-9-18.4-19.5 0-9.5 8.4-18.4 19-18.4 3.7 0 6.8.5 10 3.2V396H218zM207.4 415c0-4.7-3.7-9.5-9-9.5s-9.5 4.2-9.5 9.5c0 4.7 4.2 9.5 9.5 9.5 5.3-.1 9-4.3 9-9.5m27.4-15.8h.5c2.1-2.6 7.4-3.7 10-3.7 10 0 13.2 7.4 13.2 15.8v21.6H248V415c0-4.2 0-10-5.8-10-6.8 0-7.4 4.7-7.4 11.6v16.3h-11.1V396h11.1z" clip-rule="evenodd"/></svg>