<svg xmlns="http://www.w3.org/2000/svg" viewBox="0 0 512 512"><linearGradient id="a" gradientUnits="userSpaceOnUse" x1="255.933" y1="511.757" x2="255.933" y2="0"><stop offset="0" style="stop-color:#2b56a8"/><stop offset=".45" style="stop-color:#0db1e7"/><stop offset="1" style="stop-color:#0db1e7"/></linearGradient><path style="fill:url(#a)" d="M0 0h511.9v511.8H0z"/><path d="M322.8 228.9c-4.2 7.6-12.8 16.5-17.6 16.5-.4 0-.8 0-.9-.1-1.7-1-2.5-2.5-4.2-5.5-1.5-2.8-3.7-6.6-7.6-11-4.8-7.3-9.8-11.1-13.5-13.8-.9-.7-1.8-1.3-2.5-1.9l.6-2c3.2-4.3 5.1-9.7 5.1-15.6v-.3l.7-2c8.4-.7 17.2-2.6 23.8-5.3 3.6-1.4 4.4-2.1 5.7-3.1.8-.8 2.3-2 8.1-5 1.4-.6 2.5-.9 3.4-.9 3.1 0 4.1 4.9 4.9 10.9.2 1.2.4 2.3.6 3.3 0 6.2-1.2 24.2-6.6 35.8M275 265.1c-2 .5-4.1 1.1-6.3 1.8-5.1.5-9 .8-12.8.8-5.7 0-11.5-.7-21.7-2.7-5.3-1-13.8-4.3-12.8-9.9.5-3.5 3.9-6.8 7.5-10.2 2.1-2 4.3-4 5.9-6.2 4.2-5 8.2-10.2 10.8-18.3h2.7c2.3.8 4.8 1.3 7.4 1.3 2.8 0 5.4-.5 8-1.3h1.7c1.5 6.2 6 14.6 10.4 20.9 1.8 2.6 3.8 4.8 5.5 6.7 3.5 4 5.2 6 4.8 8.9-.8 5.3-4.2 6.4-11.1 8.2m-62.6-30.5c-3.6 4.8-5.6 7.3-7.9 7.4-6-.9-12.3-5.9-16.2-12.9-5.5-12-6.7-30.3-6.8-36.2.6-9.4 2.3-12.9 6.3-12.9h.3c4.3.6 6.8 2 9.7 3.7 2.2 1.3 4.6 2.7 8.2 3.8l.6.2c6.7 2.2 15.7 4.9 23.6 5.8-.1.7-.2 1.3-.2 2 0 6.1 2 11.5 5.1 15.8l.4 1.6c-1 .7-2.1 1.4-3.4 2.2-3.8 2.3-9.1 5.6-13.9 12-2.2 2.7-4.2 5.3-5.8 7.5M200.5 147l1.6-2.2c8.6-10 14-13.2 30-17.9 2.4-.6 5.1-1 7.5-1 3.3 0 5.8.7 6.9 1.9.2.3 1 1.1.7 3.2-.2 4.3-.6 6.6-.8 8.8-.3 2.5-.6 4.6-.6 8.6-.4 6.8.9 12.9 2.6 19.9l.4 1.6-1.7 1.3c-5.1 1.8-9.5 5.1-12.6 9.5l-.2.2c-1.2-.6-2.4-1.6-3.7-2.7-3.2-2.5-7.3-5.8-14.2-7.9-4.5-1.8-8.2-2.8-11.2-3.6-4.2-1.1-7-1.8-9.1-3.9-3.9-3.4-1.5-7.6 4.4-15.8m71.3 48.8c0 9-7.4 16.3-16.4 16.3-8.7 0-15.9-7.3-15.9-16.3 0-8.9 7-15.9 15.9-15.9 9.2 0 16.4 7 16.4 15.9m-7-46.4c0-4.2-.2-6.3-.6-8.8-.3-2.1-.6-4.5-.9-8.9-.2-1.7.3-2.5.8-3 1.1-1.3 3.8-2 7.4-2 2.4 0 5.4.4 7.8 1 16.2 4.7 21.4 7.9 30 17.7 1 1.4 2.1 2.8 3.2 4.2 6.2 7.8 7.1 10.4 3 13.9-1.5 1.2-3 1.5-5.9 1.9-3.4.5-8.1 1.2-14.6 4.3-7 2.9-11.3 6.8-14.7 10-.8.7-1.4 1.3-2.1 1.9-3.6-5.7-9.5-9.8-16.3-11.4l.3-1.2c1.7-6.9 3-12.9 2.6-19.6m67.3 21.9 5.1-8-9.3-1.7c.8-6-1.3-12.6-6.1-19.3-11.2-15.6-34.9-28.6-51.8-28.6-3.8 0-7.2.7-10.1 2l-3.6-7.6-6.2 8.1c-3.6-1.3-7.6-2.1-11.7-2.1-19.5 0-41.4 15.6-51.2 30.7-4.4 6.8-6 12.8-4.8 17.7-1.1.4-2.8.8-3.4 1h-5.5l5.5 8c-8.2 6-9.8 23.1-7.4 38.8 3.3 21.3 13.9 42.6 30.4 42.2v9.4l8-2.2c.2 2.1 1 4.2 2.4 6 7.2 9.7 27.8 13.3 43.2 13.3 17.2 0 30.8-3.9 36.4-10.4 1.5-1.7 2.5-3.7 2.9-5.6l10.9 3.4-1-10.4c16.8-.5 27.9-18.8 32.7-36 5.2-17.4 5.3-39.4-5.4-48.7M222 403.8c58.3 1.9 125.5-16.4 174.3-45.6 61.1-37.2 87-96.4 87-162.7v-81.8H360.1v79.4c0 32-13.6 57.8-48 78.5-17.4 9.9-38 17.9-59.2 17.9-24 0-45.7-6.6-63.5-19.7-25.4-17.8-40-50.3-40-78.5v-77.6H28.7v79.4c0 69.1 46.3 101.4 164.5 114.7 36.8 4.1 74.8 3.9 112.8-8.7 22.6-7.5 25.1-11.9 32-15.3 0 0 2.8 1.9 2.8 2.8l-1.9 5.1c-13.7 36.3-43.8 64-76.2 80.4-41.8 21.2-92.1 19.3-138.2 12.7h-.9c18.6 12.6 79.1 18.5 98.4 19" fill="#fff"/></svg>