<svg version="1" xmlns="http://www.w3.org/2000/svg" width="202.667" height="202.667" viewBox="0 0 152.000000 152.000000"><path d="M60.8 14.2L47 22.4v25.2l-10.2 6-10.3 6.1-.3 12.6-.3 12.6-10.5 6.3L5 97.5l.2 16.5.3 16.5 13 7.7c7.2 4.3 13.4 7.8 13.9 7.8s5.6-2.7 11.2-6.1l10.3-6.1 10.9 6.4 10.8 6.4 3.7-2.3c2.1-1.3 5.2-3.2 7-4.2 1.8-1 4.8-2.8 6.9-4l3.6-2.2 8.4 5.2c4.5 2.9 9 5.8 9.8 6.5 1.2 1 4.1-.3 16-7.2l14.5-8.4V97.6l-10.6-6.4-10.6-6.4.1-12.1c.1-7-.3-12.5-.9-13-.5-.5-5.3-3.5-10.5-6.6l-9.5-5.7-.1-12.3c-.1-6.7-.3-12.3-.5-12.5-.7-.5-28-16.6-28.2-16.6-.1 0-6.4 3.7-13.9 8.2zM87.7 18L99 24.5v25.3l10.5 6.2 10.5 6.1.1 5.2c0 2.9 0 8.4-.1 12.4-.1 7.8-.4 7.5 7.9 12.2 1.5.9 5.1 2.9 7.9 4.6l5.2 3v28.3l-4.2 2.5c-2.4 1.4-7.7 4.5-11.9 7l-7.7 4.5-10.2-6.3-10.3-6.3-6.1 3.7c-3.4 2-8.2 4.9-10.7 6.3l-4.6 2.7-10.6-6.4-10.7-6.4-10.7 6.4c-9.6 5.8-10.9 6.3-12.8 5.1-1.1-.7-6.4-3.9-11.7-7.1l-9.7-5.8v-13.8l.1-13.8 10.1-6.2c5.6-3.5 10.4-6.4 10.6-6.6.3-.2.4-5.9.4-12.7V62.3l10.3-6.2c6.3-3.8 10.4-6.9 10.5-7.9.1-.9.2-6.6.3-12.6l.1-10.8L63 17.9c6.3-3.8 12-6.8 12.5-6.6.6.1 6.1 3.1 12.2 6.7z"/><path d="M65.7 22.3l-8.8 5.2.3 11.3.3 11.4 8.9 5.4 8.8 5.4 9.2-5.6 9.1-5.5V27.6L85 22.4c-4.7-2.9-8.9-5.3-9.5-5.3-.5-.1-5 2.3-9.8 5.2zM44.8 59.7c-8.4 5.2-8.8 5.7-8.9 9.1-.1 11.1 0 18.4.3 18.6 2 1.8 17.2 10.6 18.1 10.5.7 0 5-2.4 9.7-5.3l8.5-5.2V65.2l-9.1-5.6c-5-3.1-9.3-5.6-9.5-5.5-.2 0-4.3 2.6-9.1 5.6zm42 0L78 65.2v22.3l8.8 5.2c4.8 2.9 9.2 5.3 9.7 5.3.6-.1 4.8-2.5 9.5-5.4l8.5-5.3V76.2l.1-11-9.2-5.6c-5-3.1-9.3-5.6-9.5-5.5-.2 0-4.3 2.6-9.1 5.6zM22.5 97.4l-9 5.3-.1 10.6c0 5.9.2 11 .5 11.5.3.4 4.6 3.1 9.4 6l8.9 5.2 8.9-5.1c5-2.9 9.3-5.9 9.7-6.8.6-1.3.7-12.7.3-20.1-.1-1.4-16.7-12-18.8-12-.4 0-4.9 2.4-9.8 5.4zm42.8-.1l-8.3 5.2v22.3l9.1 5.6 9 5.7 9.3-5.7 9.2-5.7-.1-11v-11.1L85 97.4c-4.7-2.9-9.2-5.2-10-5.2-.8 0-5.2 2.3-9.7 5.1zm42.5 0l-8.7 5.2-.1 11.2v11.2l8.7 5.2c4.7 2.9 9.1 5.2 9.7 5.2.6 0 5-2.4 9.7-5.3l8.5-5.2-.1-10.7c-.1-5.8-.3-10.9-.3-11.2-.3-.8-16.7-10.9-17.8-10.9-.5 0-4.8 2.4-9.6 5.3z"/></svg>