<?xml version="1.0" standalone="no"?>
<!DOCTYPE svg PUBLIC "-//W3C//DTD SVG 20010904//EN"
 "http://www.w3.org/TR/2001/REC-SVG-20010904/DTD/svg10.dtd">
<svg version="1.0" xmlns="http://www.w3.org/2000/svg"
 width="700.000000pt" height="700.000000pt" viewBox="0 0 700.000000 700.000000"
 preserveAspectRatio="xMidYMid meet">
<metadata>
Created by potrace 1.14, written by Peter Selinger 2001-2017
</metadata>
<g transform="translate(0.000000,700.000000) scale(0.100000,-0.100000)"
fill="#000000" stroke="none">
<path d="M3459 6010 c-38 -7 -77 -27 -449 -238 -220 -124 -248 -143 -277 -185
-42 -63 -45 -101 -41 -502 3 -315 4 -332 25 -370 11 -22 32 -50 45 -61 41 -37
645 -373 693 -385 34 -8 56 -9 90 0 44 11 618 329 683 377 18 14 42 44 55 67
21 41 22 52 25 383 2 216 0 363 -7 400 -20 107 -34 119 -346 296 -408 231
-412 233 -496 218z"/>
<path d="M2478 4366 c-43 -15 -619 -338 -664 -372 -18 -13 -42 -43 -53 -68
-21 -43 -22 -53 -19 -434 l3 -390 30 -43 c24 -33 60 -59 170 -122 546 -310
554 -314 625 -302 22 4 174 83 356 186 336 189 383 223 403 295 15 54 15 725
0 779 -20 70 -75 110 -399 292 -278 156 -357 194 -400 193 -8 -1 -31 -7 -52
-14z"/>
<path d="M4412 4369 c-18 -6 -173 -89 -345 -185 -349 -195 -378 -218 -397
-309 -7 -36 -10 -172 -8 -402 3 -334 4 -350 25 -388 11 -22 32 -50 45 -61 41
-37 649 -374 692 -384 48 -11 94 -2 156 30 95 48 577 323 608 347 18 13 42 43
55 66 22 41 22 48 22 422 0 370 -1 381 -22 420 -11 22 -32 50 -45 61 -36 33
-641 371 -684 383 -45 13 -57 13 -102 0z"/>
<path d="M1485 2721 c-22 -10 -173 -93 -335 -185 -308 -173 -350 -205 -370
-275 -13 -49 -13 -735 1 -784 18 -67 70 -105 402 -291 322 -181 357 -196 429
-182 38 7 658 353 696 389 14 12 33 40 43 62 17 37 19 72 19 415 0 344 -2 378
-19 415 -10 22 -31 52 -47 66 -25 23 -521 307 -641 368 -52 26 -124 27 -178 2z"/>
<path d="M3290 2654 c-329 -183 -492 -277 -522 -302 -66 -56 -68 -66 -68 -481
0 -359 1 -376 21 -418 11 -23 33 -53 48 -66 15 -12 171 -103 347 -202 l319
-180 65 0 65 0 320 180 c335 187 386 224 404 292 7 23 11 179 11 403 0 334 -2
368 -19 405 -10 22 -29 50 -43 62 -25 24 -557 329 -643 369 -93 44 -128 37
-305 -62z"/>
<path d="M5335 2718 c-146 -76 -615 -345 -639 -367 -16 -14 -37 -44 -47 -66
-17 -37 -19 -71 -19 -415 0 -343 2 -378 19 -415 10 -22 29 -50 43 -62 38 -35
659 -382 696 -389 72 -14 108 1 435 186 335 188 377 219 397 289 13 48 13 734
0 782 -20 70 -62 102 -370 275 -162 92 -313 175 -335 185 -54 25 -130 24 -180
-3z"/>
</g>
</svg>
