<svg xmlns="http://www.w3.org/2000/svg" width="34" height="34" viewBox="0 0 34 34">
  <g fill="none" fill-rule="evenodd" transform="translate(-18 -18)">
    <rect width="70" height="70"/>
    <path fill="#0068A3" fill-rule="nonzero" d="M34.9360904,18 C37.5953522,18 40.1138073,18.6215935 42.356801,19.7251622 C42.7091595,19.89291 43.0604919,20.0774669 43.4128503,20.2812344 L41.8537255,21.6818781 L39.5112779,19.2507339 L35.5577579,22.7902496 L33.2095008,20.2177717 L25.8448392,26.8810347 L30.5663024,32.1038614 L28.7108681,33.7418903 L33.3612439,38.9726072 L31.5167466,40.6068627 L38.1619962,48.0313379 L42.1066301,44.386165 L45.5170884,48.2923938 C44.8386875,48.8217085 44.0997951,49.3198069 43.2857145,49.7801702 C40.8195491,51.1917909 37.9692414,52 34.9360904,52 C25.6079974,52 18,44.3624955 18,35.0005144 C18,25.6364757 25.6079974,18 34.9360904,18 Z M31.8496242,33.9257618 L35.8769653,30.2853916 L39.5034179,34.3288367 L35.4764184,37.9678348 L31.8496242,33.9257618 Z M34.7132605,40.9107985 L38.7409432,37.2714577 L42.3677375,41.313874 L38.3403964,44.9542442 L34.7132605,40.9107985 Z M28.9678741,27.0223683 L32.9952152,23.3830275 L36.6206424,27.4254438 L32.5933012,31.0647846 L28.9678741,27.0223683 Z M36.3581684,25.063251 L39.3786741,22.3340025 L42.0980862,25.3658148 L39.0775805,28.0960922 L36.3581684,25.063251 Z M41.7248803,37.5668179 L44.7464115,34.8365401 L47.4658236,37.8690385 L44.4453179,40.5986297 L41.7248803,37.5668179 Z M44.3820916,43.6908173 L47.401914,40.9601967 L50.1220095,43.9920091 L47.1015037,46.7216004 L44.3820916,43.6908173 Z M45.5987695,29.6552219 L47.6124404,27.8353796 L49.4251537,29.856588 L47.4125083,31.6760871 L45.5987695,29.6552219 Z M43.0259742,23.6495716 L45.0396445,21.8300726 L46.8527,23.851281 L44.8386875,25.67078 L43.0259742,23.6495716 Z M48.1732742,35.660529 L50.1869445,33.8406866 L52,35.8615518 L49.9863297,37.6813941 L48.1732742,35.660529 Z M39.1425156,31.1604935 L42.1626796,28.4298729 L44.8820918,31.4616853 L41.862611,34.1912765 L39.1425156,31.1604935 Z"/>
  </g>
</svg>
