<svg xmlns="http://www.w3.org/2000/svg" viewBox="0 0 256 256"><path fill-rule="evenodd" d="M67.098 198.608v-9.354c0-3.522-2.222-5.894-5.812-5.927-1.887-.031-3.831.56-5.19 2.65-1.024-1.65-2.63-2.65-4.885-2.65-1.578 0-3.122.471-4.33 2.215v-1.839h-3.215v14.905h3.245v-8.265c0-2.588 1.424-3.959 3.618-3.959 2.133 0 3.215 1.401 3.215 3.929v8.295h3.248v-8.265c0-2.588 1.483-3.959 3.616-3.959 2.194 0 3.245 1.401 3.245 3.929v8.295zm48.042-14.905h-5.258v-4.523h-3.245v4.523h-2.999v2.962h2.999v6.797c0 3.46 1.331 5.52 5.134 5.52 1.39 0 2.996-.438 4.016-1.154l-.928-2.775c-.955.56-2.009.838-2.844.838-1.606 0-2.133-.994-2.133-2.491v-6.735h5.258zm27.417-.376c-1.852 0-3.06.875-3.892 2.185v-1.809h-3.187v14.905h3.214v-8.356c0-2.467 1.054-3.835 3.159-3.835.647 0 1.329.092 2.007.374l.992-3.057c-.715-.282-1.646-.407-2.293-.407m-41.452 1.563c-1.548-1.031-3.677-1.563-6.029-1.563-3.741 0-6.151 1.808-6.151 4.77 0 2.433 1.793 3.932 5.097 4.401l1.52.217c1.76.248 2.595.716 2.595 1.557 0 1.157-1.178 1.809-3.369 1.809-2.228 0-3.834-.716-4.916-1.558l-1.516 2.525c1.763 1.31 3.988 1.934 6.401 1.934 4.266 0 6.737-2.029 6.737-4.866 0-2.619-1.944-3.987-5.162-4.458l-1.513-.217c-1.393-.187-2.506-.469-2.506-1.469 0-1.089 1.051-1.744 2.814-1.744 1.886 0 3.71.716 4.608 1.279zm24.048-1.563c4.145 0 6.987 3.182 7.018 7.827 0 .438-.031.845-.059 1.249h-10.975c.463 2.683 2.349 3.647 4.42 3.647 1.485 0 3.06-.563 4.296-1.56l1.578 2.402c-1.794 1.527-3.834 2.09-6.062 2.09-4.42 0-7.572-3.091-7.572-7.828 0-4.645 3.029-7.827 7.356-7.827m-.058 2.901c-2.287 0-3.588 1.465-3.93 3.62h7.668c-.339-2.308-1.667-3.62-3.738-3.62m-39.881 4.926v7.454h-3.215v-1.811c-1.02 1.343-2.567 2.185-4.669 2.185-4.139 0-7.387-3.274-7.387-7.828 0-4.55 3.248-7.827 7.387-7.827 2.102 0 3.65.841 4.67 2.185v-1.809h3.214zm-11.961 0c0 2.62 1.698 4.771 4.481 4.771 2.657 0 4.454-2.06 4.454-4.771s-1.797-4.77-4.454-4.77c-2.783 0-4.481 2.151-4.481 4.77m107.175 0v7.454h-3.214v-1.811c-1.02 1.343-2.568 2.185-4.669 2.185-4.143 0-7.388-3.274-7.388-7.828 0-4.55 3.245-7.827 7.388-7.827 2.101 0 3.649.841 4.669 2.185v-1.809h3.214zm-11.961 0c0 2.62 1.695 4.771 4.481 4.771 2.657 0 4.451-2.06 4.451-4.771s-1.794-4.77-4.451-4.77c-2.786 0-4.481 2.151-4.481 4.77m-20.929-.03v-7.454h3.214v1.808c1.02-1.34 2.567-2.182 4.669-2.182 4.142 0 7.388 3.274 7.388 7.828 0 4.553-3.246 7.827-7.388 7.827-2.102 0-3.649-.841-4.669-2.185v7.204h-3.214zm11.961 0c0-2.62-1.699-4.771-4.482-4.771-2.659 0-4.45 2.06-4.45 4.771s1.791 4.767 4.45 4.767c2.783 0 4.482-2.148 4.482-4.767m36.82-6.206c-1.547-1.031-3.68-1.558-6.028-1.558-3.742 0-6.152 1.806-6.152 4.768 0 2.433 1.791 3.929 5.101 4.4l1.513.217c1.763.248 2.598.717 2.598 1.558 0 1.157-1.174 1.812-3.372 1.812-2.225 0-3.831-.72-4.915-1.558l-1.514 2.521c1.76 1.31 3.988 1.937 6.398 1.937 4.269 0 6.741-2.028 6.741-4.868 0-2.616-1.948-3.99-5.166-4.458l-1.51-.218c-1.39-.186-2.509-.471-2.509-1.465 0-1.093 1.054-1.745 2.814-1.745 1.89 0 3.714.713 4.611 1.279zm15.425 0c-1.544-1.031-3.677-1.558-6.028-1.558-3.739 0-6.155 1.806-6.155 4.768 0 2.433 1.797 3.929 5.104 4.4l1.516.217c1.76.248 2.595.717 2.595 1.558 0 1.157-1.174 1.812-3.368 1.812-2.229 0-3.834-.72-4.916-1.558l-1.516 2.521c1.762 1.31 3.991 1.937 6.398 1.937 4.268 0 6.743-2.028 6.743-4.868 0-2.616-1.951-3.99-5.162-4.458l-1.517-.218c-1.39-.186-2.505-.471-2.505-1.465 0-1.093 1.051-1.745 2.814-1.745 1.886 0 3.71.713 4.604 1.279zm2.993 13.709v-1.87h-.749v-.382h1.904v.382h-.748v1.87zm4.108 0v-2.255h-.579l-.675 1.551-.675-1.551h-.58v2.255h.41v-1.702l.632 1.472h.425l.632-1.478v1.708z" clip-rule="evenodd"/><mask id="a" width="187" height="151" x="34" y="53" maskUnits="userSpaceOnUse"><path fill="#fff" d="M34 203.967h186.649V53H34z"/></mask><g fill-rule="evenodd" clip-rule="evenodd" mask="url(#a)"><path fill="#FF5F00" d="M102.086 156.922h50.473V65.438h-50.473z"/><path fill="#EB001B" d="M105.292 111.183c0-18.56 8.614-35.09 22.03-45.744C117.512 57.649 105.132 53 91.676 53 59.821 53 34 79.053 34 111.183c0 32.133 25.82 58.183 57.676 58.183 13.456 0 25.836-4.645 35.646-12.439-13.416-10.655-22.03-27.182-22.03-45.744"/><path fill="#F79E1B" d="M220.648 111.261c0 32.133-25.824 58.183-57.676 58.183-13.456 0-25.84-4.648-35.65-12.439 13.416-10.652 22.03-27.185 22.03-45.744s-8.614-35.09-22.03-45.744c9.81-7.79 22.194-12.439 35.65-12.439 31.852 0 57.676 26.05 57.676 58.183m-5.505 36.053v-1.873h.749v-.379h-1.905v.379h.749v1.873zm3.702 0v-2.258h-.58l-.675 1.554-.675-1.554h-.579v2.258h.407v-1.701l.631 1.465h.429l.632-1.468v1.704z"/></g></svg>