<svg xmlns="http://www.w3.org/2000/svg" width="256" height="256"><path d="M0 0h256v256H0V0z" fill="#eef0f2"/><path d="M194.9 141.2V172c0 3.6-1.5 7-4.2 9.4-2.7 2.5-6.2 3.9-9.9 3.9H78.7c-4.8.1-9.3-1.8-12.7-5.2-3.3-3.3-5.1-7.8-4.9-12.4V88.4C61 83.8 62.7 79.3 66 76c3.3-3.4 7.9-5.3 12.7-5.2h94.2c3.5-.1 6.9 1.3 9.3 3.9 2.5 2.4 3.9 5.8 3.9 9.3 0 1.3-.5 2.5-1.4 3.3-.8.8-1.9 1.2-3 1.1H83.1c-1.2 0-2.4.5-3.2 1.4-1.7 1.5-2.5 3.7-2.3 5.9-.1 2.3.7 4.6 2.3 6.3.9.7 2.1 1.1 3.2 1.1h97.8c3.7-.1 7.2 1.3 9.9 3.8 2.7 2.4 4.2 5.8 4.2 9.4v24.9h-17.6c.1-2.3-.8-4.5-2.5-6.1-1.6-1.8-3.9-2.8-6.3-2.7-2.4 0-4.7 1-6.3 2.7-1.6 1.6-2.5 3.8-2.5 6.1-.2 4.7 3.4 8.6 8.1 8.8h.7c2.3 0 4.5-.8 6.1-2.5 1.7-1.6 2.7-3.9 2.7-6.3h17.5z" fill="#c8ced5"/></svg>