<svg xmlns="http://www.w3.org/2000/svg" viewBox="0 0 256 256"><path fill="#253B80" d="m94.102 213.889 3.2-20.286-7.128-.165h-34.04L79.79 43.75c.074-.452.312-.873.661-1.173a1.94 1.94 0 0 1 1.26-.464h57.395c19.055 0 32.204 3.957 39.069 11.767 3.219 3.664 5.269 7.493 6.26 11.707 1.04 4.42 1.058 9.703.043 16.145l-.074.47v4.128l3.219 1.82c2.711 1.435 4.864 3.078 6.516 4.959 2.754 3.132 4.535 7.114 5.287 11.834.777 4.855.52 10.631-.752 17.171-1.469 7.523-3.843 14.076-7.049 19.437-2.95 4.94-6.707 9.038-11.167 12.213-4.259 3.017-9.319 5.307-15.04 6.772-5.544 1.441-11.865 2.168-18.798 2.168h-4.466a13.56 13.56 0 0 0-8.732 3.206c-2.441 2.101-4.057 4.971-4.552 8.109l-.337 1.826-5.654 35.754-.257 1.313c-.067.415-.183.622-.355.763a.95.95 0 0 1-.587.214z"/><path fill="#179BD7" d="M190.571 82.426a100 100 0 0 1-.586 3.362c-7.549 38.821-33.374 52.232-66.358 52.232h-16.794c-4.034 0-7.433 2.934-8.061 6.92l-8.599 54.622-2.435 15.484c-.408 2.616 1.605 4.975 4.242 4.975h29.786a7.17 7.17 0 0 0 7.079-6.051l.292-1.516 5.609-35.649.36-1.956a7.166 7.166 0 0 1 7.079-6.064h4.454c28.859 0 51.45-11.736 58.053-45.698 2.758-14.187 1.33-26.034-5.968-34.365-2.209-2.512-4.949-4.597-8.153-6.296"/><path fill="#222D65" d="M182.31 79.881a60 60 0 0 0-3.573-.916 68 68 0 0 0-3.786-.716c-4.539-.733-9.513-1.081-14.841-1.081h-44.974a7.164 7.164 0 0 0-7.09 6.062l-9.568 60.532-.275 1.766a8.17 8.17 0 0 1 8.081-6.918h16.835c33.064 0 58.952-13.413 66.519-52.215a87 87 0 0 0 .588-3.36c-1.915-1.015-3.989-1.883-6.222-2.622-.55-.184-1.119-.36-1.694-.532"/><path fill="#253B80" d="M108.512 83.005a7.136 7.136 0 0 1 7.054-6.053h44.745c5.301 0 10.249.348 14.765 1.08a68 68 0 0 1 3.767.715 59 59 0 0 1 3.554.917c.573.17 1.139.348 1.692.525a40.6 40.6 0 0 1 6.19 2.62c2.24-14.336-.018-24.097-7.742-32.936-8.514-9.73-23.882-13.896-43.546-13.896H81.903a8.17 8.17 0 0 0-8.064 6.92L50.061 194.171c-.469 2.993 1.832 5.693 4.838 5.693h35.245l8.85-56.35z"/></svg>