<svg xmlns="http://www.w3.org/2000/svg" xmlns:xlink="http://www.w3.org/1999/xlink" viewBox="0 0 256 256"><defs><style>.cls-1{fill:none;}.cls-2{clip-path:url(#clip-path);}.cls-3{fill:#016fd0;}.cls-4,.cls-5{fill:#fff;}.cls-4{fill-rule:evenodd;}</style><clipPath id="clip-path"><rect class="cls-1" width="256" height="256"/></clipPath></defs><g class="cls-2"><path class="cls-3" d="M0,0H256V256H0Z"/><path class="cls-4" d="M115.06,138.22v81.35h85.88l9.4-12.3,9.26,12.3h51.87V200.74h11.66c10.12,0,14.8-3.06,14.8-3.06v21.89h34.25V206.75l10.46,12.82h173.7a26.63,26.63,0,0,0,3.6-.28,29,29,0,0,0,18.28-8.73c5.48-5.83,7.71-13.39,7.71-20.72,0-6.89-2-14.15-7.59-19.71q-.76-.78-1.59-1.47l14.41-30.41-330.82,0-9.58,12.05-9.28-12.05Z"/><path class="cls-5" d="M113.85,38.42h33.58l11,25.89V38.42H200.2l6.56,18.71,6.36-18.71h187.4v9.41a40,40,0,0,1,26-9.41l60.8.22,10.83,25.55V38.42h34.94l9.61,14.68V38.42H578v83H542.74l-9.21-14.73v14.73H482.2L477,108.36h-13.8l-5.08,13.09H423.35a34.07,34.07,0,0,1-22.83-9.22v9.22H348l-10.41-13.09v13.09H142.46l-5.16-13.09H123.54l-5.12,13.09H79Z"/><path class="cls-3" d="M120.34,48.16,94.12,110h17.07L116,97.61h28.12L149,110H166.4L140.21,48.16ZM130,62.55l8.57,21.63H121.44L130,62.55Z"/><path class="cls-3" d="M168.21,110V48.16l24.26.09,14.1,39.86,13.77-39.95H244.4V110H229.16V64.43L213,110H199.65l-16.2-45.56V110Z"/><path class="cls-3" d="M125.78,209.78V148H175.5v13.83H141.18v10.57H174.7v13H141.18v11H175.5v13.42Z"/><path class="cls-3" d="M177.44,209.78l24.21-30.53L176.86,148h19.2l14.76,19.34L225.63,148h18.44l-24.46,30.91,24.26,30.91h-19.2l-14.33-19-14,19Z"/></g></svg>