<svg width="256" height="256" viewBox="0 0 256 256" fill="none" xmlns="http://www.w3.org/2000/svg">
<path d="M0 0H256V256H0V0Z" fill="white"/>
<path d="M145.335 204.032C188.03 204.236 227 169.252 227 126.694C227 80.1537 188.03 47.9845 145.335 48H108.591C65.3838 47.9845 29.8203 80.1633 29.8203 126.694C29.8203 169.262 65.3838 204.236 108.591 204.032H145.335Z" fill="#0079BE"/>
<path d="M108.761 54.4648C69.2795 54.4772 37.2866 86.4421 37.2773 125.893C37.2866 165.337 69.2792 197.299 108.761 197.311C148.251 197.299 180.251 165.337 180.256 125.893C180.25 86.4421 148.251 54.4772 108.761 54.4648ZM63.4494 125.893C63.4866 106.615 75.5405 90.176 92.5381 83.6434V168.133C75.5405 161.604 63.4863 145.174 63.4494 125.893ZM124.977 168.151V83.6406C141.981 90.1574 154.054 106.606 154.085 125.893C154.054 145.186 141.981 161.622 124.977 168.151Z" fill="white"/>
<path d="M145.335 204.032C188.03 204.236 227 169.252 227 126.694C227 80.1537 188.03 47.9845 145.335 48H108.591C65.3838 47.9845 29.8203 80.1633 29.8203 126.694C29.8203 169.262 65.3838 204.236 108.591 204.032H145.335Z" fill="#0079BE"/>
<path d="M108.761 54.4648C69.2795 54.4772 37.2866 86.4421 37.2773 125.893C37.2866 165.337 69.2792 197.299 108.761 197.311C148.251 197.299 180.251 165.337 180.256 125.893C180.25 86.4421 148.251 54.4772 108.761 54.4648ZM63.4494 125.893C63.4866 106.615 75.5405 90.176 92.5381 83.6434V168.133C75.5405 161.604 63.4863 145.174 63.4494 125.893ZM124.977 168.151V83.6406C141.981 90.1574 154.054 106.606 154.085 125.893C154.054 145.186 141.981 161.622 124.977 168.151Z" fill="white"/>
</svg>
