<svg xmlns="http://www.w3.org/2000/svg" viewBox="0 0 256 256"><defs><style>.cls-1{fill:#0079be;}.cls-2{fill:#fff;}</style></defs><path class="cls-1" d="M145.33,204c42.7.21,81.67-34.78,81.67-77.34C227,80.15,188,48,145.33,48H108.59c-43.21,0-78.77,32.16-78.77,78.69,0,42.57,35.56,77.55,78.77,77.34Z"/><path class="cls-2" d="M108.76,54.46a71.43,71.43,0,1,0,71.5,71.43A71.47,71.47,0,0,0,108.76,54.46ZM63.45,125.89A45.35,45.35,0,0,1,92.54,83.64v84.49A45.33,45.33,0,0,1,63.45,125.89ZM125,168.15V83.64a45.23,45.23,0,0,1,0,84.51Z"/><path class="cls-1" d="M145.33,204c42.7.21,81.67-34.78,81.67-77.34C227,80.15,188,48,145.33,48H108.59c-43.21,0-78.77,32.16-78.77,78.69,0,42.57,35.56,77.55,78.77,77.34Z"/><path class="cls-2" d="M108.76,54.46a71.43,71.43,0,1,0,71.5,71.43A71.47,71.47,0,0,0,108.76,54.46ZM63.45,125.89A45.35,45.35,0,0,1,92.54,83.64v84.49A45.33,45.33,0,0,1,63.45,125.89ZM125,168.15V83.64a45.23,45.23,0,0,1,0,84.51Z"/></svg>