<svg xmlns="http://www.w3.org/2000/svg" viewBox="0 0 256 256"><defs><style>.cls-1{fill:#201d1c;}.cls-2{fill:#ff6f00;}</style></defs><path class="cls-1" d="M35.41,136.72c-2.19,2-5,2.85-9.56,2.85H24V115.89h1.87c4.52,0,7.26.81,9.56,2.9a12,12,0,0,1,3.87,8.91,12.26,12.26,0,0,1-3.87,9Zm-8.16-26.9H17v35.81H27.2c5.42,0,9.34-1.28,12.78-4.13a18,18,0,0,0,6.5-13.75c0-10.57-7.9-17.93-19.23-17.93"/><path class="cls-1" d="M49.69,145.63h7V109.82h-7Z"/><path class="cls-1" d="M73.76,123.56c-4.2-1.55-5.43-2.57-5.43-4.51,0-2.25,2.2-4,5.21-4,2.09,0,3.81.86,5.63,2.9l3.65-4.78a15.63,15.63,0,0,0-10.52-4c-6.33,0-11.17,4.4-11.17,10.26,0,4.93,2.25,7.46,8.81,9.82a27.4,27.4,0,0,1,4.83,2,4.28,4.28,0,0,1,2.1,3.7,5.11,5.11,0,0,1-5.43,5.06,8.26,8.26,0,0,1-7.62-4.78l-4.51,4.34c3.21,4.73,7.08,6.82,12.39,6.82,7.26,0,12.36-4.82,12.36-11.76,0-5.69-2.36-8.26-10.3-11.17"/><path class="cls-1" d="M86.26,127.75a18.55,18.55,0,0,0,18.9,18.69,19.25,19.25,0,0,0,8.76-2.09v-8.22c-2.79,2.8-5.26,3.92-8.43,3.92-7,0-12-5.1-12-12.35,0-6.87,5.15-12.3,11.7-12.3,3.34,0,5.86,1.19,8.76,4v-8.22a17.88,17.88,0,0,0-8.59-2.2A18.84,18.84,0,0,0,86.26,127.75Z"/><path class="cls-1" d="M169.3,133.88l-9.55-24.06h-7.63l15.2,36.73h3.76l15.47-36.73H179Z"/><path class="cls-1" d="M189.71,145.63h19.81v-6.06H196.69V129.9h12.36v-6.06H196.69v-8h12.83v-6.07H189.71v35.81"/><path class="cls-1" d="M223.16,126.31h-2V115.46h2.15c4.35,0,6.72,1.83,6.72,5.31s-2.37,5.54-6.83,5.54Zm14-5.92c0-6.7-4.62-10.57-12.68-10.57H214.15v35.81h7V131.25H222l9.67,14.38h8.59L229,130.55C234.28,129.48,237.18,125.88,237.18,120.39Z"/><circle class="cls-2" cx="135.13" cy="128.05" r="19.62"/></svg>