<svg xmlns="http://www.w3.org/2000/svg" xmlns:xlink="http://www.w3.org/1999/xlink" viewBox="0 0 256 256"><defs><style>.cls-1{fill:#fff;}.cls-2{fill:url(#linear-gradient);}.cls-3{fill:#4aa35b;}.cls-4{fill:url(#linear-gradient-2);}.cls-5{fill:#214f9c;}.cls-6{fill:#da3833;}</style><linearGradient id="linear-gradient" x1="454.01" y1="-562.22" x2="512.76" y2="-562.22" gradientTransform="matrix(1, 0, 0, -1, -289.5, -425)" gradientUnits="userSpaceOnUse"><stop offset="0" stop-color="#007940"/><stop offset="0.23" stop-color="#00873f"/><stop offset="0.74" stop-color="#40a737"/><stop offset="1" stop-color="#5cb531"/></linearGradient><linearGradient id="linear-gradient-2" x1="454.01" y1="-543.12" x2="512.76" y2="-543.12" xlink:href="#linear-gradient"/></defs><path class="cls-1" d="M235,177.22a33.26,33.26,0,0,1-33.21,33.21H21.11V78.9a33.25,33.25,0,0,1,33.2-33.2H235V177.22Z"/><path class="cls-2" d="M176.17,143.49H189.9c.39,0,1.31-.13,1.7-.13a6.11,6.11,0,0,0,4.83-6.14,6.35,6.35,0,0,0-4.83-6.15,7,7,0,0,0-1.7-.13H176.17Z"/><path class="cls-3" d="M188.32,56.81A23.79,23.79,0,0,0,164.53,80.6v24.71h33.6a13.48,13.48,0,0,1,2.35.13c7.59.4,13.21,4.32,13.21,11.12,0,5.36-3.79,9.93-10.85,10.85v.26c7.71.52,13.59,4.84,13.59,11.51,0,7.19-6.53,11.89-15.16,11.89H164.4v48.38h34.91a23.8,23.8,0,0,0,23.79-23.8V56.81Z"/><path class="cls-4" d="M194.74,118.12a5.57,5.57,0,0,0-4.84-5.62c-.26,0-.92-.13-1.31-.13H176.17v11.51h12.42a3.68,3.68,0,0,0,1.31-.13,5.58,5.58,0,0,0,4.84-5.63Z"/><path class="cls-5" d="M56.79,56.81A23.79,23.79,0,0,0,33,80.6v58.71c6.67,3.26,13.6,5.36,20.52,5.36,8.24,0,12.69-5,12.69-11.77V105.18H86.6v27.59c0,10.72-6.67,19.48-29.28,19.48a100.27,100.27,0,0,1-24.45-3v50.08H67.78a23.8,23.8,0,0,0,23.79-23.8V56.81Z"/><path class="cls-6" d="M122.56,56.81A23.79,23.79,0,0,0,98.77,80.6v31.12c6-5.1,16.47-8.37,33.33-7.58A106.07,106.07,0,0,1,150.8,107v10.07a45.29,45.29,0,0,0-18-5.23c-12.81-.91-20.53,5.36-20.53,16.34s7.72,17.39,20.53,16.35a47.69,47.69,0,0,0,18-5.23v10.06a103.09,103.09,0,0,1-18.7,2.88c-16.86.79-27.32-2.48-33.33-7.58v54.91h34.9a23.8,23.8,0,0,0,23.8-23.8v-119Z"/></svg>