<svg width="256" height="256" viewBox="0 0 256 256" fill="none" xmlns="http://www.w3.org/2000/svg">
<path d="M0 0H256V256H0V0Z" fill="white"/>
<path d="M155.323 165.808H100.688V68.2852H155.323V165.808Z" fill="#6C6BBD"/>
<path d="M104.18 117.025C104.18 97.2418 113.506 79.6197 128.029 68.2634C117.409 59.9591 104.005 55.0025 89.4388 55.0025C54.9539 55.0025 27 82.7703 27 117.025C27 151.279 54.9539 179.047 89.4388 179.047C104.005 179.047 117.409 174.09 128.029 165.786C113.506 154.43 104.18 136.808 104.18 117.025Z" fill="#EB001B"/>
<path d="M229 117.021C229 151.275 201.046 179.043 166.561 179.043C151.994 179.043 138.591 174.086 127.967 165.782C142.494 154.426 151.82 136.804 151.82 117.021C151.82 97.2379 142.494 79.6158 127.967 68.2595C138.591 59.9552 151.994 54.9986 166.561 54.9986C201.046 54.9986 229 82.7664 229 117.021Z" fill="#0099DF"/>
<path d="M173.744 193.341C174.47 193.341 175.514 193.479 176.312 193.79L175.201 197.166C174.438 196.854 173.676 196.752 172.946 196.752C170.587 196.752 169.408 198.266 169.408 200.987V210.222H165.799V193.755H169.372V195.754C170.309 194.307 171.663 193.341 173.744 193.341ZM160.412 197.028H154.516V204.469C154.516 206.121 155.104 207.225 156.91 207.225C157.847 207.225 159.026 206.913 160.098 206.294L161.138 209.358C159.995 210.151 158.192 210.636 156.632 210.636C152.364 210.636 150.875 208.36 150.875 204.536V197.028H147.509V193.755H150.875V188.759H154.516V193.755H160.412V197.028ZM114.243 200.541C114.628 198.163 116.081 196.543 118.65 196.543C120.972 196.543 122.465 197.99 122.846 200.541H114.243ZM126.594 201.988C126.558 196.854 123.366 193.341 118.717 193.341C113.862 193.341 110.463 196.854 110.463 201.988C110.463 207.221 114.001 210.632 118.963 210.632C121.46 210.632 123.747 210.013 125.76 208.325L123.989 205.671C122.604 206.775 120.833 207.394 119.17 207.394C116.847 207.394 114.731 206.326 114.211 203.364H126.522C126.558 202.915 126.594 202.469 126.594 201.988ZM142.443 197.958C141.438 197.335 139.394 196.543 137.278 196.543C135.3 196.543 134.121 197.268 134.121 198.475C134.121 199.575 135.368 199.887 136.928 200.092L138.627 200.332C142.236 200.853 144.42 202.367 144.42 205.261C144.42 208.396 141.645 210.636 136.861 210.636C134.153 210.636 131.656 209.946 129.679 208.498L131.378 205.707C132.593 206.637 134.399 207.43 136.896 207.43C139.358 207.43 140.676 206.708 140.676 205.431C140.676 204.504 139.739 203.984 137.762 203.711L136.063 203.471C132.351 202.95 130.338 201.298 130.338 198.613C130.338 195.34 133.045 193.341 137.242 193.341C139.878 193.341 142.272 193.928 144.003 195.064L142.443 197.958ZM186.929 196.744C186.186 196.744 185.499 196.874 184.86 197.13C184.225 197.391 183.673 197.753 183.208 198.219C182.744 198.684 182.379 199.244 182.113 199.894C181.847 200.545 181.716 201.263 181.716 202.044C181.716 202.828 181.847 203.542 182.113 204.193C182.379 204.843 182.744 205.403 183.208 205.868C183.673 206.334 184.225 206.696 184.86 206.957C185.499 207.217 186.186 207.343 186.929 207.343C187.671 207.343 188.362 207.217 188.997 206.957C189.636 206.696 190.192 206.334 190.656 205.868C191.129 205.403 191.494 204.843 191.764 204.193C192.03 203.542 192.161 202.828 192.161 202.044C192.161 201.263 192.03 200.545 191.764 199.894C191.494 199.244 191.129 198.684 190.656 198.219C190.192 197.753 189.636 197.391 188.997 197.13C188.362 196.874 187.671 196.744 186.929 196.744ZM186.929 193.341C188.215 193.341 189.406 193.562 190.502 194.007C191.597 194.449 192.546 195.06 193.344 195.837C194.146 196.614 194.77 197.533 195.222 198.589C195.675 199.65 195.901 200.801 195.901 202.044C195.901 203.286 195.675 204.437 195.222 205.498C194.77 206.554 194.146 207.477 193.344 208.254C192.546 209.031 191.597 209.638 190.502 210.084C189.406 210.525 188.215 210.746 186.929 210.746C185.642 210.746 184.451 210.525 183.355 210.084C182.26 209.638 181.319 209.031 180.525 208.254C179.731 207.477 179.107 206.554 178.655 205.498C178.202 204.437 177.976 203.286 177.976 202.044C177.976 200.801 178.202 199.65 178.655 198.589C179.107 197.533 179.731 196.614 180.525 195.837C181.319 195.06 182.26 194.449 183.355 194.007C184.451 193.562 185.642 193.341 186.929 193.341ZM93.1691 201.988C93.1691 199.094 95.0787 196.716 98.1993 196.716C101.181 196.716 103.194 198.991 103.194 201.988C103.194 204.985 101.181 207.256 98.1993 207.256C95.0787 207.256 93.1691 204.883 93.1691 201.988ZM106.592 201.988V193.755H102.987V195.754C101.84 194.272 100.109 193.341 97.7507 193.341C93.1016 193.341 89.461 196.957 89.461 201.988C89.461 207.016 93.1016 210.636 97.7507 210.636C100.109 210.636 101.84 209.705 102.987 208.222V210.222H106.592V201.988ZM86.2689 210.222V199.887C86.2689 195.995 83.7717 193.376 79.7499 193.341C77.6338 193.305 75.4463 193.96 73.9217 196.271C72.7783 194.445 70.9719 193.341 68.4389 193.341C66.6722 193.341 64.9373 193.857 63.5834 195.786V193.755H59.9785V210.222H63.6192V201.093C63.6192 198.234 65.2152 196.716 67.6767 196.716C70.0707 196.716 71.2856 198.266 71.2856 201.058V210.222H74.9262V201.093C74.9262 198.234 76.5937 196.716 78.9837 196.716C81.4492 196.716 82.6283 198.266 82.6283 201.058V210.222H86.2689Z" fill="#231F20"/>
</svg>
