<svg viewBox="0 0 256 256" fill="none" xmlns="http://www.w3.org/2000/svg">
<path d="M0 0H256V256H0V0Z" fill="black"/>
<path d="M155.309 79.2617H100.691V176.736H155.309V79.2617Z" fill="#FF5F00"/>
<path d="M104.158 128.002C104.158 108.197 113.521 90.6308 127.912 79.2645C117.336 70.9982 103.985 66.0039 89.4201 66.0039C54.9156 66.0039 27 93.7306 27 128.002C27 162.272 54.9156 189.999 89.4201 189.999C103.985 189.999 117.336 185.005 127.912 176.739C113.521 165.545 104.158 147.806 104.158 128.002Z" fill="#EB001B"/>
<path d="M229 127.998C229 162.269 201.085 189.995 166.58 189.995C152.016 189.995 138.665 185.001 128.088 176.735C142.653 165.368 151.842 147.802 151.842 127.998C151.842 108.193 142.479 90.6269 128.088 79.2606C138.665 70.9943 152.016 66 166.58 66C201.085 66 229 93.8989 229 127.998Z" fill="#F79E1B"/>
</svg>
