<svg xmlns="http://www.w3.org/2000/svg" viewBox="0 0 256 256"><defs><style>.cls-1{fill:#0f754e;}.cls-1,.cls-2{fill-rule:evenodd;}.cls-2{fill:#05a8fc;}</style></defs><path class="cls-1" d="M38.54,98c2,0,7.88-.54,10.37,7.88q2.52,8.52,8,27.89h1.5q5.91-20.43,8.12-27.89C69.09,97.38,75.4,98,77.92,98H97.38v60.54H77.55V122.87H76.22L65.16,158.55H50.24l-11.06-35.7H37.85v35.7H18V98Zm87.33,0v35.7h1.58l13.45-29.35A10.62,10.62,0,0,1,149.07,98h19.2v60.54H148v-35.7h-1.58L133.25,152.2a11,11,0,0,1-8.44,6.35H105.62V98Zm112.39,28.77c-2.83,8-11.7,13.73-21.52,13.73H195.51v18H176.25V126.78Z"/><path class="cls-2" d="M217.67,98H175.24c1,13.48,12.62,25,24.63,25H239.6C241.89,111.83,234,98,217.67,98Z"/></svg>