<svg viewBox="0 0 256 256" fill="none" xmlns="http://www.w3.org/2000/svg">
<path d="M0 0H256V256H0V0Z" fill="white"/>
<path d="M62.586 60.5508H116.412C123.926 60.5508 128.599 66.675 126.846 74.2136L101.786 181.805C100.018 189.318 92.4949 195.447 84.976 195.447H31.1553C23.6521 195.447 18.9684 189.318 20.7212 181.805L45.7915 74.2136C47.5443 66.675 55.0632 60.5508 62.586 60.5508Z" fill="#E21836"/>
<path d="M111.928 60.5508H173.827C181.339 60.5508 177.952 66.675 176.184 74.2136L151.129 181.805C149.371 189.318 149.919 195.447 142.391 195.447H80.4923C72.9643 195.447 68.3055 189.318 70.074 181.805L95.1286 74.2136C96.9077 66.675 104.411 60.5508 111.928 60.5508Z" fill="#00447C"/>
<path d="M171.369 60.5508H225.195C232.719 60.5508 237.393 66.675 235.625 74.2136L210.569 181.805C208.801 189.318 201.273 195.447 193.75 195.447H139.949C132.421 195.447 127.752 189.318 129.515 181.805L154.575 74.2136C156.327 66.675 163.841 60.5508 171.369 60.5508Z" fill="#007B84"/>
<path d="M76.6386 95.0376C71.1034 95.094 69.4687 95.0376 68.9466 94.9143C68.7458 95.8681 65.0107 113.098 65.0002 113.113C64.1959 116.598 63.6108 119.083 61.6232 120.688C60.4949 121.621 59.1777 122.071 57.6505 122.071C55.1959 122.071 53.7658 120.852 53.5257 118.54L53.4798 117.746C53.4798 117.746 54.2276 113.077 54.2276 113.051C54.2276 113.051 58.1478 97.3493 58.8497 95.2738C58.8864 95.1557 58.8969 95.094 58.9061 95.0376C51.2757 95.1045 49.9231 95.0376 49.8299 94.9143C49.7788 95.0835 49.5898 96.057 49.5898 96.057L45.587 113.754L45.2433 115.255L44.5781 120.164C44.5781 121.621 44.8641 122.809 45.4335 123.814C47.2572 127.001 52.4591 127.479 55.4018 127.479C59.1934 127.479 62.7502 126.673 65.1537 125.202C69.3257 122.737 70.4173 118.884 71.3908 115.46L71.8421 113.703C71.8421 113.703 75.8803 97.3952 76.5665 95.2738C76.5927 95.1557 76.6032 95.094 76.6386 95.0376ZM90.3784 108.193C89.405 108.193 87.6259 108.429 86.028 109.213C85.4481 109.51 84.8997 109.854 84.3211 110.197L84.8433 108.311L84.5573 107.994C81.1684 108.68 80.4101 108.772 77.2798 109.213L77.0174 109.387C76.654 112.401 76.3312 114.666 74.9838 120.59C74.4709 122.773 73.9382 124.977 73.4042 127.155L73.5486 127.432C76.7563 127.263 77.7298 127.263 80.5177 127.309L80.7434 127.063C81.0976 125.249 81.1435 124.824 81.9281 121.149C82.2967 119.407 83.0656 115.578 83.4447 114.215C84.1414 113.892 84.8288 113.575 85.4848 113.575C87.0474 113.575 86.8571 114.938 86.7968 115.481C86.7299 116.393 86.1605 119.371 85.5767 121.928L85.187 123.579C84.9154 124.797 84.6176 125.982 84.346 127.19L84.4641 127.432C87.6259 127.263 88.5902 127.263 91.2903 127.309L91.6078 127.063C92.0958 124.229 92.2388 123.471 93.1047 119.345L93.5403 117.449C94.3865 113.739 94.8116 111.858 94.1713 110.325C93.4944 108.608 91.8702 108.193 90.3784 108.193ZM105.727 112.078C104.047 112.401 102.975 112.616 101.91 112.755C100.853 112.924 99.8235 113.078 98.1993 113.303L98.0708 113.42L97.9527 113.513C97.7834 114.723 97.6654 115.768 97.441 116.998C97.2508 118.269 96.9582 119.713 96.482 121.789C96.1133 123.378 95.9231 123.931 95.7132 124.49C95.5085 125.049 95.2828 125.592 94.8683 127.155L94.9653 127.299L95.0467 127.432C96.5646 127.36 97.5578 127.308 98.5785 127.299C99.5979 127.263 100.654 127.299 102.289 127.308L102.432 127.192L102.585 127.063C102.821 125.654 102.857 125.275 103.001 124.587C103.144 123.85 103.391 122.829 103.996 120.103C104.282 118.823 104.6 117.546 104.897 116.239C105.205 114.938 105.528 113.656 105.835 112.376L105.789 112.221L105.727 112.078ZM105.763 106.84C104.236 105.939 101.556 106.225 99.7518 107.47C97.9531 108.69 97.7484 110.422 99.2703 111.335C100.771 112.211 103.462 111.95 105.25 110.695C107.045 109.448 107.269 107.732 105.763 106.84ZM114.999 127.714C118.088 127.714 121.256 126.863 123.639 124.336C125.474 122.287 126.314 119.238 126.606 117.982C127.554 113.821 126.816 111.877 125.888 110.694C124.479 108.89 121.989 108.312 119.406 108.312C117.852 108.312 114.153 108.465 111.262 111.13C109.187 113.052 108.228 115.66 107.649 118.16C107.065 120.708 106.394 125.295 110.612 127.002C111.913 127.561 113.789 127.714 114.999 127.714ZM114.757 118.351C115.47 115.199 116.311 112.554 118.457 112.554C120.139 112.554 120.261 114.522 119.513 117.684C119.379 118.386 118.765 120.996 117.935 122.107C117.355 122.927 116.669 123.424 115.911 123.424C115.685 123.424 114.343 123.424 114.322 121.431C114.311 120.447 114.512 119.442 114.757 118.351ZM134.329 127.309L134.571 127.064C134.913 125.249 134.97 124.823 135.728 121.149C136.107 119.407 136.892 115.579 137.26 114.216C137.958 113.891 138.634 113.574 139.311 113.574C140.863 113.574 140.674 114.937 140.612 115.48C140.556 116.393 139.986 119.37 139.392 121.927L139.024 123.578C138.741 124.798 138.434 125.981 138.163 127.191L138.281 127.432C141.453 127.263 142.381 127.263 145.097 127.309L145.425 127.064C145.901 124.228 146.029 123.47 146.922 119.345L147.347 117.448C148.197 113.738 148.627 111.858 147.997 110.326C147.301 108.608 145.666 108.194 144.195 108.194C143.22 108.194 141.432 108.428 139.843 109.213C139.275 109.511 138.706 109.853 138.147 110.197L138.634 108.312L138.373 107.993C134.985 108.68 134.211 108.772 131.085 109.213L130.845 109.388C130.466 112.401 130.157 114.666 128.81 120.59C128.297 122.773 127.764 124.978 127.232 127.155L127.375 127.432C130.588 127.263 131.547 127.263 134.329 127.309ZM157.637 127.432C157.836 126.458 159.021 120.688 159.032 120.688C159.032 120.688 160.041 116.454 160.102 116.301C160.102 116.301 160.42 115.86 160.737 115.686H161.204C165.611 115.686 170.587 115.686 174.488 112.816C177.142 110.848 178.956 107.942 179.766 104.411C179.976 103.545 180.131 102.515 180.131 101.485C180.131 100.132 179.859 98.794 179.075 97.7484C177.086 94.9657 173.125 94.9146 168.553 94.8936C168.538 94.8936 166.299 94.9146 166.299 94.9146C160.446 94.9867 158.099 94.9657 157.135 94.8477C157.053 95.274 156.9 96.0324 156.9 96.0324C156.9 96.0324 154.803 105.749 154.803 105.765C154.803 105.765 149.786 126.423 149.55 127.396C154.66 127.335 156.755 127.335 157.637 127.432ZM161.522 110.171C161.522 110.171 163.751 100.475 163.74 100.511L163.812 100.014L163.844 99.635L164.735 99.7269C164.735 99.7269 169.332 100.122 169.439 100.132C171.254 100.834 172.002 102.643 171.48 105.005C171.003 107.163 169.603 108.978 167.805 109.854C166.324 110.596 164.509 110.658 162.64 110.658H161.43L161.522 110.171ZM175.4 118.53C174.811 121.041 174.134 125.628 178.331 127.263C179.669 127.832 180.869 128.001 182.087 127.94C183.374 127.87 184.567 127.225 185.672 126.296C185.572 126.678 185.472 127.059 185.372 127.443L185.563 127.688C188.582 127.561 189.518 127.561 192.789 127.586L193.086 127.36C193.563 124.552 194.013 121.826 195.254 116.455C195.859 113.882 196.463 111.334 197.083 108.772L196.986 108.49C193.609 109.116 192.706 109.249 189.458 109.71L189.211 109.911C189.178 110.172 189.144 110.422 189.113 110.673C188.608 109.857 187.876 109.16 186.746 108.726C185.302 108.158 181.909 108.89 178.992 111.545C176.943 113.441 175.959 116.039 175.4 118.53ZM182.493 118.684C183.216 115.589 184.046 112.97 186.198 112.97C187.558 112.97 188.275 114.226 188.129 116.367C188.013 116.901 187.889 117.464 187.741 118.1C187.525 119.02 187.292 119.932 187.065 120.845C186.834 121.469 186.565 122.058 186.27 122.45C185.716 123.235 184.399 123.722 183.641 123.722C183.426 123.722 182.098 123.722 182.052 121.764C182.041 120.79 182.242 119.786 182.493 118.684ZM219.53 108.465L219.269 108.167C215.928 108.844 215.323 108.952 212.253 109.366L212.027 109.592C212.017 109.629 212.007 109.685 211.992 109.736L211.981 109.685C209.696 114.958 209.763 113.82 207.902 117.971C207.892 117.782 207.892 117.664 207.881 117.464L207.415 108.465L207.123 108.167C203.623 108.844 203.54 108.952 200.307 109.366L200.055 109.592C200.02 109.699 200.02 109.817 199.999 109.946L200.02 109.992C200.424 112.057 200.327 111.596 200.732 114.855C200.921 116.455 201.173 118.063 201.362 119.643C201.681 122.286 201.859 123.588 202.249 127.622C200.066 131.225 199.549 132.588 197.447 135.75L197.462 135.781L195.982 138.122C195.812 138.368 195.659 138.538 195.444 138.61C195.208 138.727 194.901 138.748 194.474 138.748H193.654L192.435 142.802L196.617 142.874C199.071 142.863 200.614 141.715 201.445 140.172L204.074 135.667H204.032L204.309 135.35C206.077 131.542 219.53 108.465 219.53 108.465ZM175.4 161.708H173.626L180.191 139.993H182.369L183.061 137.756L183.128 140.244C183.046 141.782 184.256 143.145 187.433 142.919H191.108L192.373 138.738H190.99C190.195 138.738 189.826 138.537 189.872 138.107L189.805 135.576H183V135.589C180.8 135.635 174.23 135.8 172.9 136.154C171.29 136.569 169.593 137.789 169.593 137.789L170.26 135.55H163.894L162.568 139.993L155.915 162.04H154.624L153.358 166.191H166.037L165.612 167.575H171.859L172.274 166.191H174.026L175.4 161.708ZM170.198 144.405C169.179 144.688 167.282 145.543 167.282 145.543L168.969 139.993H174.026L172.806 144.037C172.806 144.037 171.244 144.129 170.198 144.405ZM170.295 152.334C170.295 152.334 168.706 152.533 167.661 152.769C166.631 153.081 164.7 154.065 164.7 154.065L166.442 148.29H171.526L170.295 152.334ZM167.461 161.759H162.388L163.859 156.885H168.916L167.461 161.759ZM179.679 148.29H186.992L185.941 151.693H178.531L177.419 155.414H183.902L178.993 162.327C178.649 162.835 178.341 163.014 177.999 163.157C177.655 163.332 177.204 163.537 176.681 163.537H174.883L173.647 167.611H178.352C180.797 167.611 182.241 166.499 183.308 165.039L186.675 160.431L187.398 165.11C187.551 165.986 188.181 166.499 188.607 166.698C189.078 166.935 189.565 167.34 190.252 167.4C190.99 167.432 191.522 167.457 191.877 167.457H194.188L195.576 162.896H194.664C194.141 162.896 193.24 162.808 193.086 162.644C192.933 162.445 192.933 162.138 192.85 161.671L192.117 156.982H189.114L190.431 155.414H197.826L198.964 151.693H192.117L193.183 148.29H200.009L201.275 144.093H180.924L179.679 148.29ZM117.914 162.706L119.621 157.028H126.636L127.918 152.805H120.896L121.968 149.31H128.83L130.101 145.221H112.933L111.688 149.31H115.588L114.548 152.805H110.637L109.341 157.1H113.24L110.965 164.613C110.658 165.607 111.109 165.986 111.395 166.448C111.688 166.898 111.984 167.196 112.651 167.365C113.338 167.519 113.809 167.611 114.449 167.611H122.358L123.767 162.932L120.261 163.414C119.584 163.414 117.71 163.332 117.914 162.706ZM118.719 135.524L116.941 138.737C116.561 139.439 116.218 139.875 115.91 140.075C115.638 140.245 115.1 140.315 114.321 140.315H113.394L112.154 144.426H115.234C116.715 144.426 117.853 143.883 118.396 143.611C118.98 143.299 119.133 143.477 119.585 143.042L120.625 142.14H130.244L131.521 137.861H124.48L125.709 135.524H118.719ZM132.92 162.789C132.756 162.553 132.874 162.137 133.125 161.271L135.754 152.569H145.107C146.47 152.549 147.454 152.533 148.094 152.487C148.782 152.415 149.53 152.17 150.344 151.729C151.185 151.267 151.616 150.781 151.979 150.222C152.384 149.664 153.035 148.444 153.594 146.563L156.899 135.55L147.193 135.606C147.193 135.606 144.204 136.047 142.888 136.534C141.561 137.077 139.664 138.594 139.664 138.594L140.54 135.575H134.544L126.15 163.413C125.853 164.495 125.653 165.279 125.607 165.75C125.591 166.258 126.247 166.76 126.673 167.139C127.175 167.519 127.918 167.457 128.63 167.519C129.379 167.575 130.444 167.61 131.915 167.61H136.523L137.937 162.835L133.812 163.225C133.371 163.225 133.053 162.988 132.92 162.789ZM137.45 146.691H147.274L146.65 148.649C146.562 148.695 146.352 148.552 145.352 148.67H136.846L137.45 146.691ZM139.418 140.126H149.325L148.613 142.484C148.613 142.484 143.943 142.438 143.195 142.576C139.905 143.145 137.983 144.903 137.983 144.903L139.418 140.126ZM146.87 155.204C146.788 155.496 146.66 155.675 146.48 155.808C146.281 155.937 145.958 155.983 145.476 155.983H144.077L144.159 153.599H138.337L138.101 165.253C138.091 166.094 138.173 166.581 138.788 166.971C139.403 167.457 141.299 167.519 143.851 167.519H147.499L148.817 163.157L145.64 163.331L144.584 163.393C144.44 163.331 144.302 163.275 144.149 163.121C144.015 162.989 143.789 163.07 143.826 162.229L143.851 159.242L147.182 159.104C148.981 159.104 149.749 158.519 150.405 157.961C151.031 157.427 151.236 156.813 151.472 155.983L152.031 153.338H147.454L146.87 155.204Z" fill="#FEFEFE"/>
</svg>
