<svg xmlns="http://www.w3.org/2000/svg" viewBox="0 0 256 256"><defs><style>.cls-1{fill:#1a1f71;}</style></defs><path class="cls-1" d="M132,115c-.13,10.44,9.3,16.27,16.41,19.74,7.3,3.56,9.76,5.84,9.73,9-.06,4.87-5.83,7-11.22,7.1-9.42.14-14.9-2.55-19.25-4.58l-3.4,15.89c4.37,2,12.46,3.78,20.85,3.85,19.69,0,32.57-9.73,32.64-24.82.07-19.14-26.46-20.2-26.27-28.76.06-2.59,2.53-5.36,7.95-6.07a35.22,35.22,0,0,1,18.48,3.25l3.3-15.38A50.39,50.39,0,0,0,163.65,91C145.12,91,132.09,100.86,132,115Zm80.88-22.66a8.52,8.52,0,0,0-8,5.33l-28.13,67.22h19.67L200.35,154h24l2.27,10.83H244L228.87,92.32Zm2.75,19.6,5.68,27.24H205.74ZM108.13,92.32,92.62,164.87h18.75l15.5-72.55Zm-27.73,0L60.88,141.7,53,99.72a8.75,8.75,0,0,0-8.65-7.4H12.45L12,94.43c6.55,1.43,14,3.72,18.49,6.17C33.25,102.11,34,103.42,35,107L49.9,164.87H69.71l30.37-72.55Z"/></svg>