<svg xmlns="http://www.w3.org/2000/svg" width="31" height="32"><defs><radialGradient id="a" cx="35.082%" cy="34.932%" r="93.287%" fx="35.082%" fy="34.932%" gradientTransform="matrix(1 0 0 .9632 0 .013)"><stop offset="0%" stop-color="#9DD5F6"/><stop offset="7.11%" stop-color="#98D3F5"/><stop offset="15.75%" stop-color="#89CEF3"/><stop offset="25.16%" stop-color="#70C6EF"/><stop offset="35.14%" stop-color="#4EBBEA"/><stop offset="45.46%" stop-color="#23ADE3"/><stop offset="50%" stop-color="#0DA6E0"/><stop offset="100%" stop-color="#2E77BC"/></radialGradient></defs><g fill="none" fill-rule="evenodd"><path d="M-20-20h70v70h-70z"/><path fill="url(#a)" fill-rule="nonzero" d="M50.407 20.066H20.533v31.2h29.874V40.968c.12-.179.178-.407.178-.686 0-.32-.059-.518-.178-.684" transform="translate(-20 -20)"/><path fill="#FFF" fill-rule="nonzero" d="M3.226 13.566L2.65 12.11l-.571 1.457h1.146zm12.66-.58c-.115.073-.251.075-.415.075h-1.02v-.811h1.034c.147 0 .3.006.399.065.108.054.176.167.176.324 0 .16-.064.288-.173.347zm7.278.58l-.581-1.457-.578 1.457h1.159zM9.599 15.144h-.86l-.004-2.863-1.218 2.863H6.78l-1.22-2.866v2.866H3.851l-.323-.816H1.781l-.326.816H.543l1.503-3.656h1.248l1.428 3.461v-3.46h1.37l1.1 2.48 1.009-2.48h1.398v3.655zm3.43 0h-2.804v-3.656h2.805v.762h-1.965v.658h1.918v.75h-1.918v.73h1.965v.756zm3.956-2.671c0 .583-.374.884-.592.974.184.073.34.201.416.308.118.182.139.344.139.67v.719H16.1l-.004-.461c0-.22.02-.536-.132-.712-.123-.129-.31-.157-.612-.157h-.902v1.33h-.84v-3.656h1.932c.43 0 .745.012 1.017.175.266.164.425.402.425.81zm1.344 2.67h-.857v-3.655h.857v3.656zm9.94 0h-1.19L25.486 12.4v2.744h-1.71l-.327-.816h-1.744l-.317.816h-.983c-.408 0-.925-.094-1.217-.405-.296-.31-.45-.73-.45-1.395 0-.542.093-1.038.454-1.43.271-.291.696-.426 1.275-.426h.813v.784h-.796c-.307 0-.48.047-.646.216-.143.154-.242.445-.242.828 0 .392.075.674.231.859.13.144.364.188.585.188h.378l1.183-2.875h1.258l1.422 3.458v-3.458h1.278l1.476 2.546v-2.546h.86v3.656zm-27.736.719h1.435l.323-.812h.724l.323.812h2.823v-.621l.252.623h1.465l.252-.632v.63h7.016l-.004-1.333h.136c.095.003.123.013.123.176v1.157h3.628v-.31c.293.163.748.31 1.347.31h1.526l.327-.812h.724l.32.812h2.941v-.771l.446.77h2.357v-5.098h-2.333v.603l-.327-.603h-2.393v.603l-.3-.603H20.43c-.54 0-1.017.08-1.4.298v-.298h-2.232v.298c-.245-.226-.578-.298-.949-.298H7.698L7.15 12.08l-.562-1.317H4.022v.603l-.282-.603H1.55L.533 13.187v2.675zm29.874 2.696h-1.53c-.153 0-.254.006-.34.066-.088.06-.122.147-.122.263 0 .138.074.232.183.273a.922.922 0 0 0 .324.041l.455.013c.46.012.766.094.952.294.035.028.055.06.078.09v-1.04zm0 2.41c-.204.311-.601.468-1.14.468h-1.62v-.784h1.614c.16 0 .273-.022.34-.09a.328.328 0 0 0 .1-.239.306.306 0 0 0-.103-.241c-.061-.056-.15-.082-.296-.082-.788-.027-1.772.026-1.772-1.131 0-.53.324-1.089 1.205-1.089h1.672v-.727h-1.554c-.469 0-.81.117-1.05.298v-.298h-2.3c-.367 0-.798.095-1.002.298v-.298h-4.105v.298c-.327-.245-.878-.298-1.132-.298h-2.708v.298c-.258-.26-.833-.298-1.183-.298h-3.03l-.693.78-.65-.78H6.474v5.102h4.44l.715-.794.673.794 2.738.002v-1.2h.27c.362.006.79-.01 1.169-.18v1.377h2.258v-1.33h.109c.139 0 .152.007.152.151v1.18h6.86c.435 0 .89-.117 1.142-.327v.326h2.176c.453 0 .895-.066 1.231-.235v-.95zm-3.35-1.46c.164.176.252.398.252.775 0 .786-.472 1.153-1.319 1.153h-1.635v-.784h1.628c.16 0 .273-.022.343-.09a.33.33 0 0 0 .1-.239.32.32 0 0 0-.103-.241c-.064-.056-.153-.082-.299-.082-.785-.027-1.769.026-1.769-1.131 0-.53.32-1.089 1.201-1.089h1.683v.778H25.6c-.153 0-.252.006-.336.066-.092.06-.127.148-.127.264a.28.28 0 0 0 .184.272.93.93 0 0 0 .327.041l.452.013c.456.012.769.094.959.294zm-7.576-.226c-.112.07-.251.076-.415.076h-1.02v-.822h1.034c.15 0 .3.004.401.066.109.06.174.173.174.33 0 .156-.065.282-.174.35zm.507.455c.187.072.34.2.412.307.118.179.135.345.139.668v.724h-.843v-.457c0-.22.02-.546-.136-.716-.123-.13-.31-.162-.616-.162h-.897v1.335h-.844V17.78h1.938c.425 0 .735.02 1.01.173.266.166.432.394.432.812 0 .583-.374.881-.595.972zm1.061-1.957h2.802v.756h-1.966v.665h1.918v.746h-1.918v.727l1.966.004v.758H21.05V17.78zm-5.665 1.687h-1.085v-.93h1.094c.304 0 .514.128.514.448 0 .316-.2.482-.523.482zm-1.922 1.637l-1.289-1.49 1.29-1.442v2.932zm-3.329-.43H8.068v-.727h1.844v-.746H8.068v-.665h2.106l.918 1.066-.959 1.072zm6.676-1.69c0 1.016-.729 1.226-1.463 1.226H14.3v1.226h-1.632l-1.034-1.21-1.075 1.21H7.232V17.78h3.377l1.033 1.199 1.068-1.199h2.683c.667 0 1.416.192 1.416 1.205z"/></g></svg>