<svg xmlns="http://www.w3.org/2000/svg" width="28" height="20"><g fill="none" fill-rule="evenodd" transform="translate(-21 -25)"><path d="M0 0h70v70H0z"/><path fill="#3D3D3D" fill-rule="nonzero" d="M22.948 25.65h24.104c1.076 0 1.948.872 1.948 1.947v14.806a1.948 1.948 0 0 1-1.948 1.948H22.948A1.948 1.948 0 0 1 21 42.403V27.597c0-1.075.872-1.948 1.948-1.948zm.582 1.558a.974.974 0 0 0-.974.974v13.636c0 .538.436.974.974.974h22.94a.974.974 0 0 0 .974-.974V28.182a.974.974 0 0 0-.974-.974H23.53z"/><path fill="#3D3D3D" fill-rule="nonzero" d="M22.556 30.325h24.889v3.117H22.556z"/><rect width="4.667" height="4.675" x="24.889" y="35.779" fill="#3D3D3D" fill-rule="nonzero" rx=".779"/><rect width="10.111" height="1.558" x="35" y="38.896" fill="#3D3D3D" fill-rule="nonzero" rx=".39"/><rect width="6.222" height="1.558" x="35" y="35.779" fill="#3D3D3D" fill-rule="nonzero" rx=".39"/></g></svg>