<svg xmlns="http://www.w3.org/2000/svg" width="28" height="20" viewBox="0 0 28 20">
  <g fill="none" fill-rule="evenodd" transform="translate(-21 -25)">
    <rect width="70" height="70"/>
    <path fill="#3D3D3D" fill-rule="nonzero" d="M22.9480519,25.6493506 L47.0519481,25.6493506 L47.0519481,25.6493506 C48.1278274,25.6493506 49,26.5215232 49,27.5974026 L49,42.4025974 L49,42.4025974 C49,43.4784768 48.1278274,44.3506494 47.0519481,44.3506494 L22.9480519,44.3506494 L22.9480519,44.3506494 C21.8721726,44.3506494 21,43.4784768 21,42.4025974 L21,27.5974026 L21,27.5974026 C21,26.5215232 21.8721726,25.6493506 22.9480519,25.6493506 L22.9480519,25.6493506 Z M23.5295815,27.2077922 C22.9916418,27.2077922 22.5555556,27.6438785 22.5555556,28.1818182 L22.5555556,41.8181818 C22.5555556,42.3561215 22.9916418,42.7922078 23.5295815,42.7922078 L46.4704185,42.7922078 C47.0083582,42.7922078 47.4444444,42.3561215 47.4444444,41.8181818 L47.4444444,41.8181818 L47.4444444,28.1818182 C47.4444444,27.6438785 47.0083582,27.2077922 46.4704185,27.2077922 L23.5295815,27.2077922 Z"/>
    <rect width="24.889" height="3.117" x="22.556" y="30.325" fill="#3D3D3D" fill-rule="nonzero"/>
    <rect width="4.667" height="4.675" x="24.889" y="35.779" fill="#3D3D3D" fill-rule="nonzero" rx=".779"/>
    <rect width="10.111" height="1.558" x="35" y="38.896" fill="#3D3D3D" fill-rule="nonzero" rx=".39"/>
    <rect width="6.222" height="1.558" x="35" y="35.779" fill="#3D3D3D" fill-rule="nonzero" rx=".39"/>
  </g>
</svg>
