<svg xmlns="http://www.w3.org/2000/svg" width="28" height="18"><g fill="none" fill-rule="evenodd"><path d="M-21-26h70v70h-70z"/><path fill="#3D3D3D" fill-rule="nonzero" d="M0 1h28v16H0V1zm1.556 1.524v12.952h24.888V2.524H1.556z"/><path fill="#3D3D3D" fill-rule="nonzero" d="M0 6.835c.487.169 1.01.26 1.556.26 2.577 0 4.666-2.046 4.666-4.571A4.48 4.48 0 0 0 5.957 1H4.25c.265.448.417.969.417 1.524 0 1.683-1.393 3.047-3.111 3.047A3.146 3.146 0 0 1 0 5.164v1.671zM22.102.937a4.747 4.747 0 0 0-.26 1.555c0 2.578 2.046 4.667 4.571 4.667a4.48 4.48 0 0 0 1.524-.266V5.187a2.986 2.986 0 0 1-1.524.416c-1.683 0-3.047-1.392-3.047-3.11 0-.567.148-1.099.407-1.556h-1.671zM28 11.164a4.747 4.747 0 0 0-1.555-.26c-2.578 0-4.667 2.047-4.667 4.571 0 .535.094 1.048.266 1.524h1.706a2.986 2.986 0 0 1-.416-1.524c0-1.683 1.392-3.047 3.11-3.047.567 0 1.099.148 1.556.408v-1.672zM5.899 17.063a4.76 4.76 0 0 0 .26-1.556c0-2.577-2.047-4.666-4.571-4.666a4.48 4.48 0 0 0-1.524.265v1.707a2.986 2.986 0 0 1 1.524-.417c1.683 0 3.047 1.393 3.047 3.111 0 .567-.148 1.098-.408 1.556H5.9zm8.316-5.217h-.56v-.548c-.562-.04-1.015-.209-1.357-.503a1.431 1.431 0 0 1-.518-1.126h.714a.953.953 0 0 0 .338.671c.204.175.478.283.823.324V8.536l-.334-.09c-.445-.115-.79-.303-1.032-.565a1.364 1.364 0 0 1-.363-.962c0-.447.155-.814.466-1.1.31-.287.731-.456 1.263-.508v-.573h.56v.569c.524.044.944.211 1.262.503a1.5 1.5 0 0 1 .497 1.101h-.71a.9.9 0 0 0-.299-.649c-.19-.178-.44-.285-.75-.32v2l.355.086c.51.134.889.328 1.137.583.247.256.371.59.371 1.005 0 .486-.163.875-.49 1.168-.328.294-.785.464-1.373.51v.552zm1.14-2.173a.844.844 0 0 0-.273-.654c-.182-.167-.471-.29-.867-.373v2.03c.365-.02.646-.117.844-.293.198-.176.297-.412.297-.71zm-2.71-2.795a.79.79 0 0 0 .258.604c.173.16.424.273.752.342V5.94a1.13 1.13 0 0 0-.724.287.846.846 0 0 0-.287.65z"/></g></svg>