<svg xmlns="http://www.w3.org/2000/svg" width="55" height="16" viewBox="0 0 55 16">
  <g fill="none" fill-rule="evenodd" transform="translate(-7 -27)">
    <rect width="70" height="70"/>
    <path fill="#D12138" fill-rule="nonzero" d="M20.5579175,31.3738247 C20.4918512,31.8881571 20.3544857,32.2799026 20.1394978,32.571713 C19.8401282,32.9579065 19.3850777,33.1990831 18.751234,33.1990831 L18.3814373,33.1990831 C17.7513003,33.1990831 17.2962499,32.9772273 17.1037201,32.6110208 C16.9733319,32.3360883 16.9386635,31.9474519 17.006256,31.4304545 L17.1538694,30.2796467 C17.2336722,29.6609377 17.4272922,29.2072325 17.7451952,28.8929922 C18.0526323,28.5860805 18.4943823,28.4390649 19.025747,28.4390649 L19.3700329,28.4390649 C19.7359048,28.4390649 20.2182104,28.5005805 20.4881445,28.8647883 C20.7135984,29.1665922 20.7838074,29.6116364 20.706403,30.2221286 L20.5579175,31.3738247 L20.5579175,31.3738247 L20.5579175,31.3738247 Z M19.4524522,27.1743312 L19.451362,27.1743312 L19.1149255,27.1745532 C16.7121194,27.2003143 15.4572964,28.2176532 15.1919411,30.1657208 L15.0332077,31.4291221 C14.9320369,32.2994454 15.0846652,32.9516883 15.49807,33.4253805 C16.0093749,34.0092234 16.9035589,34.4316156 18.2626053,34.4460506 L18.5996959,34.4460506 C20.9503904,34.4216221 22.203251,33.4335974 22.499568,31.6221078 L22.5030567,31.6221078 L22.5196277,31.4921922 L22.677489,30.2305675 C22.7828026,29.3258221 22.6275578,28.6515935 22.2023788,28.1654649 C21.6897656,27.5791792 20.7988522,27.1883221 19.4524522,27.1743312 L19.4524522,27.1743312 L19.4524522,27.1743312 Z M39.9135894,31.3738247 C39.846433,31.8881571 39.7081953,32.2799026 39.4934254,32.571713 C39.19471,32.9579065 38.7385693,33.1990831 38.1060338,33.1990831 L37.7371093,33.1990831 C37.105446,33.1990831 36.6519218,32.9772273 36.4578658,32.6110208 C36.3279137,32.3360883 36.2943354,31.9474519 36.3604017,31.4304545 L36.5091053,30.2796467 C36.588036,29.6609377 36.782092,29.2072325 37.0993409,28.8929922 C37.4074321,28.5860805 37.848528,28.4390649 38.3812009,28.4390649 L38.7246147,28.4390649 C39.0900505,28.4390649 39.5738824,28.5005805 39.8433804,28.8647883 C40.0677441,29.1665922 40.1383892,29.6116364 40.0612029,30.2221286 L39.9135894,31.3738247 L39.9135894,31.3738247 L39.9135894,31.3738247 Z M38.8083422,27.1743312 L38.8061618,27.1743312 L38.4703795,27.1745532 C36.065829,27.2003143 34.8114421,28.2176532 34.5467409,30.1657208 L34.3877894,31.4291221 C34.2866186,32.2994454 34.439465,32.9516883 34.8526517,33.4253805 C35.3641747,34.0092234 36.2581407,34.4316156 37.616969,34.4460506 L37.9553678,34.4460506 C40.3051902,34.4216221 41.5580508,33.4335974 41.8541498,31.6221078 L41.8578565,31.6221078 L41.8737734,31.4921922 L42.0316347,30.2305675 C42.1362942,29.3258221 41.9812674,28.6515935 41.5569606,28.1654649 C41.0441294,27.5791792 40.153652,27.1883221 38.8083422,27.1743312 L38.8083422,27.1743312 L38.8083422,27.1743312 Z M57.8724941,31.3738247 C57.8055556,31.8881571 57.6681901,32.2799026 57.4525481,32.571713 C57.1536146,32.9579065 56.698128,33.1990831 56.0645024,33.1990831 L55.6960139,33.1990831 C55.0654408,33.1990831 54.6108264,32.9772273 54.4176426,32.6110208 C54.2859461,32.3360883 54.2534581,31.9474519 54.3184341,31.4304545 L54.4680099,30.2796467 C54.5473767,29.6609377 54.7409966,29.2072325 55.0578094,28.8929922 C55.3663367,28.5860805 55.8085228,28.4390649 56.3405416,28.4390649 L56.6841734,28.4390649 C57.0489551,28.4390649 57.5319148,28.5005805 57.8029391,28.8647883 C58.0266487,29.1665922 58.0979479,29.6116364 58.0205436,30.2221286 L57.8724941,31.3738247 L57.8724941,31.3738247 L57.8724941,31.3738247 Z M59.5158652,28.1654649 C59.0036881,27.5791792 58.1125566,27.1883221 56.7668108,27.1743312 L56.7657206,27.1743312 L56.428848,27.1745532 C54.0253877,27.2003143 52.7703467,28.2176532 52.5062997,30.1657208 L52.3477842,31.4291221 C52.2457413,32.2994454 52.3979335,32.9516883 52.8122105,33.4253805 C53.3235154,34.0092234 54.2161732,34.4316156 55.5773999,34.4460506 L55.9134003,34.4460506 C58.2636587,34.4216221 59.5173915,33.4335974 59.8132724,31.6221078 L59.8156709,31.6221078 L59.8328961,31.4921922 L59.9911935,30.2305675 C60.096507,29.3258221 59.9412622,28.6515935 59.5158652,28.1654649 L59.5158652,28.1654649 L59.5158652,28.1654649 Z M44.8681234,29.3187156 C44.9372422,29.3187156 45.0000379,29.3251558 45.0584727,29.3362597 C45.2871972,29.3784545 45.4339385,29.4926026 45.5224629,29.5920935 C45.689918,29.7817481 45.7686306,30.0555701 45.7363606,30.343161 L45.4840878,32.4571208 L45.4836517,32.4593416 L45.4169313,33.0025442 L45.4125705,33.039187 L45.4243447,33.039187 L45.4223823,33.0409636 L46.5701474,33.0411857 C46.6418828,33.0411857 46.7410912,33.0356338 46.858833,33.0225312 C47.3742807,32.9667896 48.220932,32.7518182 48.4644832,32.0704831 C48.4716785,32.0516065 48.4769115,32.033174 48.4841068,32.0138532 C48.5377448,31.8304169 48.582225,31.6374312 48.6064275,31.431787 L48.7043277,30.6933779 L48.7041097,30.6920454 L48.7043277,30.6920454 L48.7514245,30.3467143 C48.7874011,30.0673403 48.7948145,29.8028454 48.7669053,29.5632234 C48.6873206,28.8818883 47.8923449,28.6664727 47.3901977,28.6096208 C47.2768167,28.5965182 47.1780443,28.5922987 47.1058729,28.5922987 L45.9605062,28.5925208 L45.9605062,28.5936312 L45.0615253,28.5936312 L45.059563,28.5894117 C44.7881025,28.5700909 44.6099635,28.5238987 44.5079205,28.447726 C44.2643693,28.2669545 44.1394321,27.9722571 44.1287481,27.5456455 L44.1224249,27.3320065 L44.3441721,27.3320065 L46.8485851,27.3324506 C46.8612315,27.3324506 46.8721335,27.3328948 46.8845618,27.3328948 L47.1791345,27.333339 C48.6986587,27.3466636 49.7064418,27.6595714 50.2589564,28.2900506 C50.6745415,28.7659636 50.8289142,29.4066584 50.7301419,30.2492221 L50.6734513,30.6947104 L50.5938666,31.3849286 C50.5820924,31.4766467 50.5670476,31.6414286 50.5511306,31.7284831 C50.4793953,32.1748597 50.3529318,32.5606091 50.1734845,32.876626 C49.9717971,33.2315065 49.7053516,33.5128792 49.36281,33.7371779 C49.2533537,33.8080208 49.1321231,33.8706467 49.0052236,33.9294974 C48.7396503,34.0543052 48.4372281,34.153574 48.0997014,34.221974 C47.9974405,34.241739 47.8308575,34.2603935 47.6265536,34.2763831 C47.3891075,34.2952597 47.1012941,34.304587 46.8071574,34.3094727 L44.736427,34.3099169 L44.4584253,34.3099169 C43.9460302,34.295926 43.6440441,34.2057623 43.4796416,34.0169961 C43.4491159,33.9816857 43.4238232,33.9426 43.4037635,33.9010714 C43.3490353,33.7909208 43.3287576,33.6572299 43.3468549,33.4948909 L43.5991278,31.542826 L43.8670995,29.3187156 L44.8681234,29.3187156 L44.8681234,29.3187156 Z M13.8154515,33.039187 L11.076427,33.039187 L11.0759909,33.042074 C10.7040138,33.039187 10.408787,33.007874 10.1791904,32.942139 C9.94850352,32.8772922 9.77428917,32.774026 9.66069008,32.6347831 C9.57390996,32.5304065 9.51525707,32.4027117 9.48320512,32.2523649 C9.48058864,32.2385961 9.47797215,32.2234948 9.47644587,32.2090597 C9.46467168,32.1433247 9.45485986,32.075813 9.45071709,32.0014169 C9.43981506,31.8241987 9.44548412,31.6241065 9.47535566,31.3953662 L9.61272117,30.3291701 C9.62863813,30.2039182 9.65240454,30.0884377 9.67878744,29.9769545 C9.68641885,29.9465299 9.6968848,29.9096649 9.70909506,29.8616961 C9.71062135,29.8543675 9.71280175,29.8463727 9.7152002,29.8390442 C9.74005681,29.7499909 9.76752991,29.6636026 9.80045403,29.5836545 C9.80830349,29.5636675 9.8159349,29.5441247 9.82465652,29.5248039 C9.85474611,29.4570701 9.89072279,29.396887 9.92582731,29.3362597 C9.95984162,29.2825169 9.99690851,29.2309948 10.0376821,29.1832481 C10.1900924,29.0002558 10.4068246,28.8570156 10.6833,28.7557481 C10.9567227,28.6564792 11.3077679,28.6071779 11.755187,28.6067338 L13.2705684,28.6067338 L13.274057,28.601626 C13.5511865,28.5825273 13.7415358,28.5363351 13.8634204,28.4590519 C14.0088535,28.368 14.130084,28.2467454 14.2301645,28.0944 C14.2462995,28.0708597 14.2576376,28.0417675 14.2720283,28.0171169 C14.3487786,27.8827597 14.4144088,27.7315247 14.4628137,27.552974 L14.5249553,27.3342273 L11.6533621,27.3342273 L11.4656292,27.3346714 C11.1265763,27.3382247 10.8134701,27.364874 10.5208598,27.4092896 C8.8168734,27.6682325 7.90001315,28.6156169 7.68240875,30.2187974 L7.52912629,31.437561 C7.43144415,32.2770156 7.57862148,32.9059403 7.97741753,33.3623104 C8.43966336,33.8906338 9.23136836,34.2597273 10.4076968,34.3181338 L12.4779912,34.3139143 C12.7566469,34.2950377 13.0305058,34.2810467 13.1517363,34.2037636 C13.333364,34.0902818 13.4753084,33.9268325 13.5856369,33.7180792 C13.6126739,33.6674454 13.6384027,33.6165896 13.6621691,33.5599597 C13.6621691,33.5599597 13.7672646,33.3103442 13.8154515,33.039187 L13.8154515,33.039187 Z M26.1181679,33.1990831 L26.10792,33.2856935 C26.0706351,33.5746169 25.9267284,33.8473286 25.7119585,34.0369831 C25.5717584,34.1617909 25.332132,34.3108052 24.9917708,34.3108052 L23.970033,34.3108052 L24.0644446,33.5155442 L24.1026017,33.1990831 L24.8060003,27.3291195 L25.6424036,27.3291195 C26.1757306,27.3291195 26.5361515,27.4705831 26.7129824,27.7492909 L28.5680708,30.767774 L31.2065787,27.7195325 C31.4357393,27.4599234 31.8142576,27.3291195 32.3312316,27.3291195 L33.2031755,27.3291195 L32.4873485,33.1990831 L32.4773187,33.2845831 C32.4395977,33.5732844 32.296127,33.845774 32.0813572,34.0363169 C31.9411571,34.1604584 31.7015306,34.3088065 31.3613875,34.3088065 L30.3764986,34.3081403 L30.8718866,30.2361195 L28.7965772,32.9028312 C28.7353079,32.9752286 28.5427781,33.1928649 28.3099109,33.1950857 L28.2935578,33.1950857 C28.0742091,33.1928649 27.9084983,32.970787 27.847665,32.871074 L26.4788069,30.2239052 L26.118604,33.1990831 L26.1181679,33.1990831 Z"/>
    <path fill="#545554" fill-rule="nonzero" d="M10.5553102,40.4334935 C10.5465886,40.7537299 10.4118396,41.0126727 10.1517173,41.2096558 C9.89137691,41.406861 9.55603064,41.5061299 9.14306196,41.5061299 C8.62717817,41.5061299 8.22358524,41.3337974 7.93010274,40.9900208 C7.63596613,40.6451338 7.489879,40.1714416 7.489879,39.5658351 C7.489879,38.9511234 7.63596613,38.4669935 7.93010274,38.1174428 C8.22358524,37.7663376 8.62717817,37.5917844 9.14306196,37.5917844 C9.57456409,37.5917844 9.91754177,37.6875 10.1730852,37.8820402 C10.4279746,38.0765806 10.5553102,38.3370779 10.5553102,38.6639766 L10.0368099,38.6639766 C10.0368099,38.4738779 9.95940554,38.3197558 9.80416072,38.2020545 C9.64978805,38.0847974 9.44766452,38.0261689 9.19582776,38.0261689 C8.81752752,38.0261689 8.52557131,38.1554182 8.31865089,38.4139169 C8.11216655,38.6713052 8.00837928,39.0361792 8.00837928,39.5060961 C8.00837928,40.0062156 8.11020418,40.3930753 8.31341792,40.6673416 C8.51772185,40.942274 8.80291881,41.079074 9.17140723,41.079074 C9.41648473,41.079074 9.61533766,41.0222221 9.76949228,40.908074 C9.92321082,40.7934818 10.0115172,40.6353624 10.0368099,40.4334935 L10.5553102,40.4334935 L10.5553102,40.4334935 Z M11.1597184,38.8081052 L11.6348286,38.8081052 L11.6348286,39.0750428 C11.8195089,38.8458584 12.0600076,38.7312662 12.3550164,38.733487 L12.4830061,38.7385948 L12.4830061,39.1896351 L12.3861962,39.1843052 C12.1228032,39.1843052 11.9309276,39.2567026 11.8123136,39.4019416 C11.6930455,39.5469584 11.6348286,39.7792519 11.6348286,40.0977117 L11.6348286,41.4308455 L11.1597184,41.4308455 L11.1597184,38.8081052 L11.1597184,38.8081052 Z M14.8555047,39.8381026 C14.8400238,39.5980364 14.7911827,39.4219285 14.7089815,39.3093351 C14.6065024,39.1674273 14.4303257,39.0959182 14.1802333,39.0959182 C13.963501,39.0959182 13.7947377,39.1785311 13.6745974,39.3446455 C13.5836745,39.4692311 13.5274201,39.6337909 13.5069243,39.8381026 L14.8555047,39.8381026 L14.8555047,39.8381026 L14.8555047,39.8381026 Z M14.2194806,41.5061299 C13.839654,41.5061299 13.5429009,41.386874 13.3283491,41.1488065 C13.1140153,40.9096285 13.0063033,40.5811753 13.0063033,40.1607818 C13.0063033,39.7161818 13.1140153,39.3672974 13.3298754,39.1139065 C13.5455174,38.8594052 13.8427066,38.733487 14.2194806,38.733487 C14.5846984,38.733487 14.8633541,38.8431935 15.0547937,39.0634948 C15.2473234,39.2820194 15.3432612,39.6027 15.3432612,40.0219831 L15.3386824,40.1980909 L13.5010372,40.1980909 C13.5141196,40.4970078 13.5692838,40.7241935 13.6693644,40.8785376 C13.7827455,41.0553117 13.9624108,41.1436987 14.205962,41.1436987 C14.3793042,41.1436987 14.5212486,41.0941753 14.6315771,40.996461 C14.7425597,40.8985247 14.809062,40.7630572 14.830212,40.5911689 L15.3194948,40.5911689 C15.2833001,40.8876428 15.1714453,41.1152727 14.9834944,41.2718376 C14.7946714,41.4272922 14.5402181,41.5061299 14.2194806,41.5061299 L14.2194806,41.5061299 L14.2194806,41.5061299 Z M17.5692365,40.1554519 L17.1335917,40.1554519 C16.8654019,40.1554519 16.6641505,40.1996455 16.5300556,40.2889208 C16.3963968,40.3781961 16.3292403,40.511887 16.3292403,40.6895493 C16.3292403,40.8339 16.3772092,40.944939 16.4711847,41.0246649 C16.5651601,41.1037247 16.6986009,41.1436987 16.8721611,41.1436987 C17.1037201,41.1436987 17.2781525,41.0768533 17.3932779,40.9427182 C17.5092754,40.8099156 17.5670561,40.6133766 17.5688005,40.3531013 L17.5692365,40.1554519 L17.5692365,40.1554519 L17.5692365,40.1554519 Z M16.7925763,41.5061299 C16.4984397,41.5061299 16.2668807,41.4335104 16.1000797,41.2884935 C15.9330607,41.1436987 15.8499873,40.9427182 15.8499873,40.6873285 C15.8499873,40.4088428 15.9640225,40.1923169 16.192965,40.0341974 C16.4216895,39.8769662 16.7374121,39.7985727 17.1388246,39.7985727 L17.5688005,39.7985727 L17.5681463,39.576939 C17.5681463,39.4101584 17.5212676,39.2873493 17.426202,39.2116208 C17.3324446,39.1338935 17.1806884,39.0959182 16.9704974,39.0959182 C16.8272448,39.0959182 16.7121194,39.1307844 16.6253393,39.2016273 C16.5381231,39.272026 16.489282,39.3692961 16.47838,39.4938818 L15.9810296,39.4938818 C15.9999992,39.2304974 16.0928844,39.0381779 16.2585952,38.9162572 C16.4236518,38.7943364 16.6754886,38.733487 17.0099627,38.733487 C17.3200163,38.733487 17.5688005,38.8107701 17.7584957,38.9655584 C17.9479729,39.1201247 18.0428205,39.3246584 18.0428205,39.576939 L18.0428205,40.4896792 C18.0428205,40.7377402 18.0484895,40.9464935 18.062008,41.1141624 C18.0733461,41.2807208 18.0907894,41.386874 18.1130295,41.4308455 L17.6625579,41.4308455 C17.6440244,41.4084156 17.6289796,41.3495649 17.6187317,41.2549598 C17.6100101,41.1927779 17.6032509,41.1181598 17.5995442,41.0317715 C17.5688005,41.0879572 17.5334779,41.1425883 17.4922682,41.1934442 C17.3230688,41.4021974 17.0897655,41.5061299 16.7925763,41.5061299 L16.7925763,41.5061299 L16.7925763,41.5061299 Z M20.1161675,41.4692649 C19.9809824,41.4936935 19.8255195,41.5061299 19.6497789,41.5061299 C19.4709857,41.5061299 19.3198836,41.4568285 19.1964727,41.3571156 C19.0721896,41.2565143 19.0102661,41.1352598 19.0102661,40.9911311 L19.0102661,39.1574338 L18.476285,39.1574338 L18.476285,38.8081052 L19.0102661,38.8081052 L19.0102661,38.3355234 L19.4840681,38.1358753 L19.4840681,38.8081052 L20.1161675,38.8081052 L20.1161675,39.1574338 L19.4840681,39.1574338 L19.4840681,40.8785376 C19.4840681,40.9722545 19.5076165,41.0384338 19.5531869,41.0804065 C19.5974491,41.1226013 19.6702747,41.1436987 19.7703552,41.1436987 C19.8957285,41.1414779 20.011508,41.1299299 20.1161675,41.1088325 L20.1161675,41.4692649 L20.1161675,41.4692649 Z M20.727553,38.8081052 L21.2022271,38.8081052 L21.2022271,41.4310675 L20.727553,41.4310675 L20.727553,38.8081052 L20.727553,38.8081052 Z M20.7046587,37.6659584 L21.2255574,37.6659584 L21.2255574,38.1594156 L20.7046587,38.1594156 L20.7046587,37.6659584 L20.7046587,37.6659584 Z M22.1138544,38.8081052 L22.5547322,38.8081052 L22.5547322,39.1705364 C22.5793708,39.1338935 22.6057537,39.0992493 22.6356253,39.0666039 C22.8312076,38.8451922 23.0959087,38.733487 23.4266761,38.733487 C23.7657291,38.733487 24.0142953,38.8254273 24.1739009,39.0088636 C24.3328524,39.1916338 24.4122191,39.4776701 24.4122191,39.867639 L24.4122191,41.4308455 L23.9384172,41.4308455 L23.9384172,39.8754117 C23.9384172,39.6069194 23.8880498,39.4123792 23.7884053,39.2915689 C23.689851,39.1700922 23.5298093,39.109687 23.3115508,39.109687 C23.0588419,39.109687 22.8745976,39.1758662 22.7599083,39.3082247 C22.6454371,39.4408052 22.5887466,39.6542221 22.5887466,39.9473649 L22.5887466,41.4308455 L22.1138544,41.4308455 L22.1138544,38.8081052 L22.1138544,38.8081052 Z M26.2919462,39.0908104 C26.0675825,39.0908104 25.8951125,39.1747558 25.7725737,39.3442013 C25.6489448,39.5112039 25.5876754,39.7486052 25.5876754,40.0539624 C25.5876754,40.3853026 25.6454561,40.631587 25.7610176,40.7934818 C25.8776693,40.9560428 26.054282,41.036213 26.2919462,41.036213 C26.5154377,41.036213 26.6887799,40.9504909 26.8119727,40.7814896 C26.9356017,40.6116 26.9968711,40.3719779 26.9968711,40.0619572 C26.9968711,39.7530467 26.9356017,39.5134247 26.8119727,39.3446455 C26.6887799,39.1758662 26.5154377,39.0908104 26.2919462,39.0908104 L26.2919462,39.0908104 L26.2919462,39.0908104 Z M26.2869312,42.1226182 C26.5444371,42.1226182 26.7278091,42.0586598 26.8359572,41.9309649 C26.942579,41.8023818 26.9968711,41.5838572 26.9968711,41.2765013 L26.9968711,40.9269507 L26.9179404,41.0388779 C26.7260648,41.2758351 26.4735739,41.3946467 26.1609038,41.3946467 C25.8262117,41.3946467 25.5623827,41.2749467 25.3715973,41.036213 C25.1795036,40.7977013 25.084438,40.4688039 25.084438,40.0484104 C25.084438,39.6646598 25.1904056,39.3493091 25.402341,39.1023584 C25.6144944,38.8569624 25.8863909,38.733487 26.2186846,38.733487 C26.5328809,38.733487 26.7797027,38.8516325 26.9576238,39.0885896 L26.9968711,39.1385572 L26.9968711,38.8081052 L27.4715452,38.8081052 L27.4715452,41.2765013 C27.4715452,41.6964507 27.3756074,42.0033624 27.1841678,42.1956818 C26.9931644,42.3895558 26.6903061,42.4857156 26.2760292,42.4857156 C25.9143001,42.4857156 25.6495989,42.4175376 25.4808356,42.2802935 C25.3120722,42.1432715 25.2281266,41.9283 25.2281266,41.6340467 L25.7239507,41.6340467 C25.7239507,41.8030481 25.768649,41.9271896 25.8591358,42.005361 C25.9509309,42.0837545 26.0926572,42.1226182 26.2869312,42.1226182 L26.2869312,42.1226182 L26.2869312,42.1226182 Z"/>
    <polyline fill="#545554" fill-rule="nonzero" points="31.024 38.093 29.784 38.093 29.784 37.666 32.769 37.666 32.769 38.093 31.53 38.093 31.53 41.431 31.024 41.431 31.024 38.093"/>
    <path fill="#545554" fill-rule="nonzero" d="M33.3542775,38.8081052 L33.8285156,38.8081052 L33.8285156,39.0750428 C34.014068,38.8458584 34.2536945,38.7312662 34.5493574,38.733487 L34.6777833,38.7385948 L34.6777833,39.1896351 L34.5814094,39.1843052 C34.3164902,39.1843052 34.1250506,39.2567026 34.0075268,39.4019416 C33.8882587,39.5469584 33.8285156,39.7792519 33.8285156,40.0977117 L33.8285156,41.4308455 L33.3542775,41.4308455 L33.3542775,38.8081052 L33.3542775,38.8081052 Z M35.7716924,40.3781961 C35.7716924,40.6462442 35.8216236,40.8407844 35.9214862,40.962261 C36.0211307,41.0826273 36.1798642,41.1436987 36.3981227,41.1436987 C36.663478,41.1436987 36.8538273,41.0764091 36.9676444,40.9407194 C37.0812435,40.8056961 37.1329191,40.5896143 37.1185285,40.2926961 L37.1185285,38.8081052 L37.5927665,38.8081052 L37.5927665,41.4308455 L37.1529789,41.4308455 L37.1529789,41.0897338 L37.1004311,41.1588 C36.9013601,41.3906493 36.6375311,41.5061299 36.3089441,41.5061299 C35.9605154,41.5061299 35.7056261,41.4126351 35.5425318,41.2249792 C35.3790015,41.0373234 35.2970182,40.7437364 35.2970182,40.3435519 L35.2970182,38.8081052 L35.7716924,38.8081052 L35.7716924,40.3781961 L35.7716924,40.3781961 Z M39.8887328,39.5149792 C39.8887328,39.386174 39.8429443,39.2820194 39.7509312,39.2089558 C39.6597903,39.1338935 39.5322366,39.0959182 39.3697965,39.0959182 C39.2034316,39.0959182 39.0730434,39.1281194 38.979722,39.1896351 C38.887709,39.252261 38.8412663,39.3399818 38.8412663,39.4512428 C38.8412663,39.5334117 38.8659049,39.6004792 38.9171444,39.6542221 C38.9662035,39.7072987 39.0431718,39.7486052 39.1471771,39.7770311 L39.6722186,39.9211598 C39.9393182,39.9957779 40.131848,40.0912715 40.2478455,40.2065299 C40.363625,40.3200117 40.4207516,40.4712467 40.4207516,40.660013 C40.4207516,40.9238416 40.325904,41.130374 40.1368629,41.2807208 C39.9476038,41.4308455 39.6859552,41.5061299 39.3527893,41.5061299 C39.0032704,41.5061299 38.737261,41.4330662 38.5545431,41.2858285 C38.3722613,41.1392572 38.2804662,40.9253961 38.2804662,40.6444675 L38.7712753,40.6444675 C38.7712753,40.8014766 38.8227329,40.9227311 38.92543,41.0111182 C39.028127,41.0992831 39.1705075,41.1436987 39.3527893,41.1436987 C39.5416124,41.1436987 39.6900979,41.104613 39.7947574,41.0284402 C39.8996349,40.9516013 39.9517465,40.8434493 39.9517465,40.7030961 C39.9517465,40.6211493 39.9190405,40.551861 39.8538464,40.4938987 C39.7893064,40.4383792 39.6900979,40.3899662 39.5551309,40.3531013 L39.0311796,40.2091948 C38.7948237,40.144126 38.6225717,40.0550727 38.5190025,39.9442558 C38.4156513,39.8343273 38.3646298,39.6857572 38.3646298,39.4954364 C38.3646298,39.2584792 38.4527182,39.0712675 38.6312933,38.9362442 C38.8094324,38.8016649 39.0556001,38.733487 39.3697965,38.733487 C39.6837748,38.733487 39.9305966,38.8032194 40.1111341,38.9409078 C40.2897093,39.0803727 40.3791059,39.2715818 40.3791059,39.5149792 L39.8887328,39.5149792 L39.8887328,39.5149792 Z M42.5915627,41.4692649 C42.4563776,41.4936935 42.3009147,41.5061299 42.1251741,41.5061299 C41.947035,41.5061299 41.7952788,41.4568285 41.6716499,41.3571156 C41.5464946,41.2565143 41.4856613,41.1352598 41.4856613,40.9911311 L41.4856613,39.1574338 L40.9512441,39.1574338 L40.9512441,38.8081052 L41.4856613,38.8081052 L41.4856613,38.3355234 L41.9594633,38.1358753 L41.9594633,38.8081052 L42.5915627,38.8081052 L42.5915627,39.1574338 L41.9594633,39.1574338 L41.9594633,40.8785376 C41.9594633,40.9722545 41.9821395,41.0384338 42.027928,41.0804065 C42.0724083,41.1226013 42.1456699,41.1436987 42.2450964,41.1436987 C42.3713418,41.1414779 42.4862491,41.1299299 42.5915627,41.1088325 L42.5915627,41.4692649 L42.5915627,41.4692649 Z M47.3468076,40.6746701 C47.5476229,40.4050675 47.6483576,40.0242039 47.6483576,39.5311909 C47.6483576,39.0508364 47.5476229,38.6786338 47.3468076,38.414361 C47.1446841,38.1500883 46.8623217,38.0175078 46.4951415,38.0175078 C46.1290515,38.0175078 45.8469071,38.1500883 45.6460919,38.414361 C45.4448405,38.6786338 45.3447599,39.0508364 45.3447599,39.5311909 C45.3447599,40.0242039 45.4448405,40.4050675 45.6460919,40.6746701 C45.8469071,40.944939 46.1290515,41.079074 46.4951415,41.079074 C46.8623217,41.079074 47.1446841,40.944939 47.3468076,40.6746701 L47.3468076,40.6746701 L47.3468076,40.6746701 Z M45.280874,40.9795831 C44.9858653,40.6273675 44.839124,40.144126 44.839124,39.525861 C44.839124,38.9226974 44.9858653,38.4496715 45.280874,38.1058948 C45.5750107,37.7627844 45.9799118,37.5917844 46.4951415,37.5917844 C47.0140779,37.5917844 47.4202873,37.7627844 47.7133337,38.1058948 C48.0068162,38.4496715 48.1529033,38.9226974 48.1529033,39.525861 C48.1529033,40.144126 48.0068162,40.6273675 47.7133337,40.9795831 C47.4202873,41.3304662 47.0140779,41.5061299 46.4951415,41.5061299 C45.9799118,41.5061299 45.5750107,41.3304662 45.280874,40.9795831 L45.280874,40.9795831 L45.280874,40.9795831 Z M48.8039722,38.8081052 L49.2435418,38.8081052 L49.2435418,39.1705364 C49.2677443,39.1338935 49.2945633,39.0992493 49.3246529,39.0666039 C49.5208893,38.8451922 49.7845003,38.733487 50.1161399,38.733487 C50.4547567,38.733487 50.7033229,38.8254273 50.8629285,39.0088636 C51.0220981,39.1916338 51.1012468,39.4776701 51.1012468,39.867639 L51.1012468,41.4308455 L50.6270087,41.4308455 L50.6270087,39.8754117 C50.6270087,39.6069194 50.5768594,39.4123792 50.477869,39.2915689 C50.3777884,39.1700922 50.219491,39.109687 50.0012325,39.109687 C49.7483056,39.109687 49.5629711,39.1758662 49.4493721,39.3082247 C49.3349008,39.4408052 49.2782103,39.6542221 49.2782103,39.9473649 L49.2782103,41.4308455 L48.8039722,41.4308455 L48.8039722,38.8081052 L48.8039722,38.8081052 Z"/>
    <polygon fill="#545554" fill-rule="nonzero" points="51.903 37.666 52.376 37.666 52.376 41.431 51.903 41.431"/>
    <path fill="#545554" fill-rule="nonzero" d="M53.3163201,38.8081052 L53.7912122,38.8081052 L53.7912122,41.4310675 L53.3163201,41.4310675 L53.3163201,38.8081052 L53.3163201,38.8081052 Z M53.2929897,37.6659584 L53.8147606,37.6659584 L53.8147606,38.1594156 L53.2929897,38.1594156 L53.2929897,37.6659584 L53.2929897,37.6659584 Z M54.7028395,38.8081052 L55.1441535,38.8081052 L55.1441535,39.1705364 C55.1677018,39.1338935 55.195611,39.0992493 55.2250465,39.0666039 C55.4199747,38.8451922 55.6842397,38.733487 56.0160974,38.733487 C56.3549323,38.733487 56.6037165,38.8254273 56.7631041,39.0088636 C56.9216195,39.1916338 57.0009862,39.4776701 57.0009862,39.867639 L57.0009862,41.4308455 L56.5271843,41.4308455 L56.5271843,39.8754117 C56.5271843,39.6069194 56.4768169,39.4123792 56.3778265,39.2915689 C56.278182,39.1700922 56.1192305,39.109687 55.9007539,39.109687 C55.6476089,39.109687 55.4638008,39.1758662 55.3493296,39.3082247 C55.2348583,39.4408052 55.1775137,39.6542221 55.1775137,39.9473649 L55.1775137,41.4308455 L54.7028395,41.4308455 L54.7028395,38.8081052 L54.7028395,38.8081052 Z M59.525677,39.8381026 C59.5097601,39.5980364 59.461137,39.4219285 59.3787177,39.3093351 C59.2760207,39.1674273 59.0989718,39.0959182 58.8493154,39.0959182 C58.6325832,39.0959182 58.4638199,39.1785311 58.3445517,39.3446455 C58.2527567,39.4692311 58.1971563,39.6337909 58.1764425,39.8381026 L59.525677,39.8381026 L59.525677,39.8381026 L59.525677,39.8381026 Z M58.8889988,41.5061299 C58.5102625,41.5061299 58.2126372,41.386874 57.9983034,41.1488065 C57.7837516,40.9096285 57.6764757,40.5811753 57.6764757,40.1607818 C57.6764757,39.7161818 57.7837516,39.3672974 57.9993936,39.1139065 C58.2152537,38.8594052 58.5113527,38.733487 58.8889988,38.733487 C59.2531264,38.733487 59.5326543,38.8431935 59.7243119,39.0634948 C59.9168417,39.2820194 60.0129975,39.6027 60.0129975,40.0219831 L60.0075465,40.1980909 L58.1712095,40.1980909 C58.1825476,40.4970078 58.2394562,40.7241935 58.3388827,40.8785376 C58.4520457,41.0553117 58.631493,41.1436987 58.8756983,41.1436987 C59.0490405,41.1436987 59.1896766,41.0941753 59.3013134,40.996461 C59.412296,40.8985247 59.4783622,40.7630572 59.4999482,40.5911689 L59.9890131,40.5911689 C59.9528183,40.8876428 59.8411816,41.1152727 59.6525766,41.2718376 C59.4648437,41.4272922 59.2099544,41.5061299 58.8889988,41.5061299 L58.8889988,41.5061299 L58.8889988,41.5061299 Z M61.1339436,38.7870078 L61.2126563,38.7870078 C61.3044513,38.7870078 61.3777129,38.7565831 61.3777129,38.6808545 C61.3777129,38.6146753 61.329744,38.5704818 61.2259567,38.5704818 C61.1814765,38.5704818 61.1509508,38.5747013 61.1339436,38.5789208 L61.1339436,38.7870078 L61.1339436,38.7870078 L61.1339436,38.7870078 Z M61.1300189,39.1958533 L60.9638721,39.1958533 L60.9638721,38.4727675 C61.0299383,38.4589987 61.1212973,38.4458961 61.238385,38.4458961 C61.372916,38.4458961 61.4344034,38.4681039 61.486079,38.5036364 C61.5257624,38.5347273 61.5562881,38.5924675 61.5562881,38.6588689 C61.5562881,38.7428143 61.4958909,38.8054402 61.4080205,38.8320896 L61.4080205,38.8405285 C61.4782296,38.8627364 61.5174769,38.9204766 61.5392809,39.0181909 C61.5597767,39.1285636 61.5732952,39.1736455 61.5911745,39.1958533 L61.4132535,39.1958533 C61.3916675,39.1685376 61.3777129,39.1065779 61.3559089,39.0224104 C61.3423904,38.9424624 61.2992183,38.9067078 61.2078594,38.9067078 L61.1300189,38.9067078 L61.1300189,39.1958533 L61.1300189,39.1958533 L61.1300189,39.1958533 Z M61.238385,38.2373649 C60.9250609,38.2373649 60.6902313,38.4989727 60.6902313,38.8185428 C60.6902313,39.1423325 60.9250609,39.3997208 61.2466706,39.3997208 C61.5597767,39.4039402 61.7919898,39.1423325 61.7919898,38.8185428 C61.7919898,38.4989727 61.5597767,38.2373649 61.2423098,38.2373649 L61.238385,38.2373649 L61.238385,38.2373649 L61.238385,38.2373649 Z M61.2466706,38.0910156 C61.6563687,38.0910156 61.9736176,38.4148052 61.9736176,38.8185428 C61.9736176,39.2311636 61.6563687,39.5500675 61.2423098,39.5500675 C60.834138,39.5500675 60.5070773,39.2311636 60.5070773,38.8185428 C60.5070773,38.4148052 60.834138,38.0910156 61.2423098,38.0910156 L61.2466706,38.0910156 L61.2466706,38.0910156 L61.2466706,38.0910156 Z"/>
  </g>
</svg>
