<svg xmlns="http://www.w3.org/2000/svg" width="55" height="16"><g fill="none" fill-rule="evenodd"><path d="M-7-27h70v70H-7z"/><path fill="#D12138" fill-rule="nonzero" d="M13.558 4.374c-.066.514-.204.906-.419 1.198-.299.386-.754.627-1.388.627h-.37c-.63 0-1.085-.222-1.277-.588-.13-.275-.165-.664-.098-1.18l.148-1.151c.08-.62.273-1.073.591-1.387.308-.307.75-.454 1.28-.454h.345c.366 0 .848.062 1.118.426.226.302.296.747.218 1.357l-.148 1.152zm-1.106-4.2h-.337C9.712.2 8.457 1.219 8.192 3.167L8.033 4.43c-.101.87.052 1.523.465 1.996.511.584 1.406 1.007 2.765 1.021h.337c2.35-.024 3.603-1.012 3.9-2.824h.003l.017-.13.157-1.261c.106-.905-.05-1.58-.475-2.066C14.69.58 13.8.188 12.452.175zm20.462 4.2c-.068.514-.206.906-.42 1.198-.3.386-.755.627-1.388.627h-.369c-.632 0-1.085-.222-1.28-.588-.13-.275-.163-.664-.097-1.18l.15-1.151c.078-.62.272-1.073.59-1.387.307-.307.749-.454 1.281-.454h.344c.365 0 .849.062 1.118.426.225.302.295.747.218 1.357l-.147 1.152zm-1.106-4.2h-.338c-2.404.026-3.659 1.044-3.923 2.992l-.16 1.263c-.1.87.052 1.523.466 1.996.511.584 1.405 1.007 2.764 1.021h.338c2.35-.024 3.603-1.012 3.9-2.824h.003l.016-.13.158-1.261c.104-.905-.05-1.58-.475-2.066-.513-.586-1.403-.977-2.749-.99zm19.064 4.2c-.066.514-.204.906-.42 1.198-.298.386-.754.627-1.387.627h-.369c-.63 0-1.085-.222-1.278-.588-.132-.275-.165-.664-.1-1.18l.15-1.151c.08-.62.273-1.073.59-1.387.308-.307.75-.454 1.283-.454h.343c.365 0 .848.062 1.119.426.224.302.295.747.218 1.357l-.149 1.152zm1.644-3.209c-.512-.586-1.403-.977-2.75-.99h-.337c-2.404.025-3.659 1.043-3.923 2.99l-.158 1.264c-.102.87.05 1.523.464 1.996.512.584 1.404 1.007 2.765 1.021h.336c2.35-.024 3.604-1.012 3.9-2.824h.003l.017-.13.158-1.261c.106-.905-.05-1.58-.475-2.066zM37.868 2.32c.07 0 .132.006.19.017a.802.802 0 0 1 .464.256c.168.19.247.464.214.751l-.252 2.114v.002l-.067.544-.004.036h.011l-.002.002h1.148c.072 0 .171-.005.289-.018.515-.056 1.362-.271 1.605-.953.008-.018.013-.037.02-.056.054-.184.098-.377.122-.582l.098-.739v-.001l.047-.345c.036-.28.044-.544.016-.784-.08-.681-.875-.897-1.377-.953a2.53 2.53 0 0 0-.284-.018H38.96v.002h-.9l-.001-.005c-.272-.019-.45-.065-.552-.141-.244-.181-.369-.476-.38-.902l-.006-.214h2.763l.294.001c1.52.014 2.527.327 3.08.957.416.476.57 1.117.471 1.96l-.057.445-.08.69c-.01.092-.026.256-.042.343a3.42 3.42 0 0 1-.378 1.149 2.462 2.462 0 0 1-1.168 1.052 3.99 3.99 0 0 1-.905.293c-.103.02-.27.038-.473.054-.238.02-.526.029-.82.033h-2.348c-.512-.013-.814-.103-.978-.292a.528.528 0 0 1-.076-.116.718.718 0 0 1-.057-.406l.252-1.952.268-2.224h1.001zM6.815 6.039H4.076v.003c-.372-.003-.667-.034-.897-.1-.23-.065-.405-.168-.518-.307a.87.87 0 0 1-.185-.426 1.69 1.69 0 0 1-.025-.208 3.167 3.167 0 0 1 .024-.606l.138-1.066c.016-.125.04-.24.066-.352l.03-.115a2.295 2.295 0 0 1 .091-.278l.025-.06c.03-.067.066-.127.1-.188.035-.053.072-.105.113-.153.152-.183.369-.326.645-.427.274-.1.625-.149 1.072-.15h1.516l.003-.004c.277-.02.468-.066.59-.143a1.19 1.19 0 0 0 .366-.365c.016-.023.028-.052.042-.077.077-.134.142-.285.19-.464l.063-.219H4.466c-.34.004-.653.03-.945.075C1.817.67.9 1.616.682 3.22L.53 4.438c-.098.839.05 1.468.448 1.924.463.529 1.254.898 2.43.956l2.071-.004c.279-.019.553-.033.674-.11.181-.114.323-.277.434-.486.027-.05.052-.101.076-.158 0 0 .105-.25.153-.52zm12.303.16l-.01.087a1.22 1.22 0 0 1-.396.751 1.07 1.07 0 0 1-.72.274H16.97l.094-.795.039-.317.703-5.87h.836c.534 0 .894.142 1.071.42l1.855 3.019L24.207.72c.229-.26.607-.39 1.124-.39h.872l-.716 5.87-.01.085a1.227 1.227 0 0 1-.396.751c-.14.124-.38.273-.72.273h-.985l.496-4.073-2.075 2.667c-.062.072-.254.29-.487.292h-.016c-.22-.002-.386-.224-.446-.324l-1.37-2.647-.36 2.975z"/><path fill="#545554" fill-rule="nonzero" d="M3.555 13.433a.964.964 0 0 1-.403.777c-.26.197-.596.296-1.009.296-.516 0-.92-.172-1.213-.516-.294-.345-.44-.819-.44-1.424 0-.615.146-1.099.44-1.449.294-.35.697-.525 1.213-.525.432 0 .775.095 1.03.29a.933.933 0 0 1 .382.782h-.518a.553.553 0 0 0-.233-.462c-.154-.117-.356-.176-.608-.176-.378 0-.67.13-.877.388-.207.257-.31.622-.31 1.092 0 .5.101.887.304 1.161.205.275.49.412.858.412.245 0 .444-.057.598-.17a.668.668 0 0 0 .268-.476h.518zm.605-1.625h.475v.267a.874.874 0 0 1 .72-.342l.128.006v.45l-.097-.005c-.263 0-.455.073-.574.218-.119.145-.177.377-.177.696v1.333H4.16v-2.623zm3.696 1.03c-.016-.24-.065-.416-.147-.529-.102-.142-.279-.213-.529-.213a.588.588 0 0 0-.505.249.992.992 0 0 0-.168.493h1.349zm-.637 1.668c-.38 0-.676-.12-.89-.357-.215-.24-.323-.568-.323-.988 0-.445.108-.794.324-1.047.216-.255.513-.38.89-.38.365 0 .643.11.835.33.192.218.288.539.288.958l-.004.176H6.5c.013.299.068.526.168.68.114.177.293.266.537.266a.62.62 0 0 0 .426-.148.62.62 0 0 0 .198-.405h.49c-.037.297-.149.524-.337.68-.188.156-.443.235-.764.235zm3.35-1.35h-.435c-.269 0-.47.044-.604.133a.45.45 0 0 0-.2.4c0 .145.047.256.141.336.094.079.228.119.401.119.232 0 .406-.067.521-.201.116-.133.174-.33.176-.59v-.198zm-.776 1.35c-.295 0-.526-.072-.693-.218-.167-.144-.25-.345-.25-.6a.75.75 0 0 1 .343-.654c.229-.157.544-.235.946-.235h.43v-.222c0-.167-.048-.29-.143-.365-.094-.078-.245-.116-.456-.116a.529.529 0 0 0-.345.106.403.403 0 0 0-.147.292h-.497c.019-.264.112-.456.278-.578.165-.122.416-.183.751-.183.31 0 .559.078.748.233.19.154.285.359.285.61v.914c0 .248.005.456.019.624.011.167.029.273.051.317h-.45c-.019-.023-.034-.081-.044-.176a2.352 2.352 0 0 1-.02-.223c-.03.056-.066.11-.107.161-.169.21-.402.313-.7.313zm3.323-.037c-.135.025-.29.037-.466.037a.698.698 0 0 1-.454-.149.455.455 0 0 1-.186-.366v-1.834h-.534v-.349h.534v-.472l.474-.2v.672h.632v.35h-.632v1.72c0 .094.024.16.07.202.043.043.116.064.216.064.126-.003.242-.014.346-.035v.36zm.612-2.66h.474v2.622h-.474v-2.623zm-.023-1.143h.52v.493h-.52v-.493zm1.409 1.142h.44v.363a.88.88 0 0 1 .082-.104c.195-.222.46-.334.79-.334.34 0 .588.092.748.276.159.183.238.469.238.859v1.563h-.474v-1.556c0-.268-.05-.463-.15-.583-.098-.122-.258-.182-.476-.182-.253 0-.437.066-.552.198-.115.133-.171.346-.171.64v1.483h-.475v-2.623zm4.178.283a.602.602 0 0 0-.52.253c-.123.167-.184.405-.184.71 0 .331.057.578.173.74.117.162.293.242.53.242a.607.607 0 0 0 .521-.255c.124-.17.185-.409.185-.719 0-.309-.061-.549-.185-.717a.607.607 0 0 0-.52-.254zm-.005 3.032c.257 0 .44-.064.549-.192.107-.129.16-.347.16-.654v-.35l-.078.112a.927.927 0 0 1-.757.356c-.335 0-.599-.12-.79-.359-.191-.238-.287-.567-.287-.988 0-.383.106-.699.318-.946a1.03 1.03 0 0 1 .817-.369c.314 0 .56.119.739.356l.039.05v-.33h.475v2.468c0 .42-.096.726-.288.919-.19.194-.494.29-.908.29-.362 0-.626-.068-.795-.206-.169-.137-.253-.352-.253-.646h.496c0 .169.045.293.135.371.092.079.234.118.428.118zm4.737-4.03h-1.24v-.427h2.985v.427H24.53v3.338h-.506v-3.338m2.33.715h.475v.267a.876.876 0 0 1 .72-.342l.129.006v.45l-.097-.005c-.265 0-.456.073-.573.218-.12.145-.18.377-.18.696v1.333h-.474v-2.623zm2.418 1.57c0 .268.05.463.15.584.1.12.258.182.476.182.265 0 .456-.068.57-.203.113-.135.165-.351.15-.648v-1.485h.475v2.623h-.44v-.341l-.053.069c-.199.232-.462.347-.791.347-.348 0-.603-.093-.766-.281-.164-.188-.246-.481-.246-.881v-1.536h.475v1.57zm4.117-.863a.371.371 0 0 0-.138-.306.584.584 0 0 0-.381-.113.705.705 0 0 0-.39.094.3.3 0 0 0-.139.261c0 .082.025.15.076.203a.48.48 0 0 0 .23.123l.525.144c.267.075.46.17.576.286a.606.606 0 0 1 .173.453.75.75 0 0 1-.284.62c-.19.15-.451.226-.784.226-.35 0-.616-.073-.798-.22-.183-.147-.275-.36-.275-.642h.491a.46.46 0 0 0 .154.367c.103.088.246.133.428.133.189 0 .337-.04.442-.116a.38.38 0 0 0 .157-.325.27.27 0 0 0-.098-.21.772.772 0 0 0-.299-.14l-.524-.144c-.236-.065-.408-.154-.512-.265-.103-.11-.154-.258-.154-.449 0-.237.088-.424.266-.559.178-.134.425-.203.739-.203s.56.07.741.208c.179.14.268.33.268.574h-.49zm2.703 1.954a2.6 2.6 0 0 1-.467.037.7.7 0 0 1-.453-.149.452.452 0 0 1-.186-.366v-1.834h-.535v-.349h.535v-.472l.473-.2v.672h.633v.35h-.633v1.72c0 .094.023.16.069.202.044.043.118.064.217.064.126-.003.241-.014.347-.035v.36zm4.755-.794c.2-.27.301-.65.301-1.144 0-.48-.1-.852-.301-1.117-.202-.264-.485-.396-.852-.396-.366 0-.648.132-.849.396-.201.265-.301.637-.301 1.117 0 .493.1.874.301 1.144.2.27.483.404.85.404.366 0 .649-.134.85-.404zm-2.066.305c-.295-.353-.442-.836-.442-1.454 0-.603.147-1.076.442-1.42.294-.343.699-.514 1.214-.514.52 0 .925.17 1.218.514.294.344.44.817.44 1.42 0 .618-.146 1.101-.44 1.454-.293.35-.699.526-1.218.526-.515 0-.92-.176-1.214-.526zm3.523-2.172h.44v.363a.817.817 0 0 1 .08-.104c.197-.222.46-.334.792-.334.339 0 .587.092.747.276.16.183.238.469.238.859v1.563h-.474v-1.556c0-.268-.05-.463-.15-.583-.1-.122-.258-.182-.476-.182-.253 0-.438.066-.552.198-.114.133-.17.346-.17.64v1.483h-.475v-2.623zm3.099-1.142h.473v3.765h-.473zm1.413 1.142h.475v2.623h-.475v-2.623zm-.023-1.142h.522v.493h-.522v-.493zm1.41 1.142h.441v.363a.816.816 0 0 1 .081-.104c.195-.222.46-.334.791-.334.339 0 .588.092.747.276.159.183.238.469.238.859v1.563h-.474v-1.556c0-.268-.05-.463-.15-.583-.099-.122-.258-.182-.476-.182-.253 0-.437.066-.552.198-.114.133-.171.346-.171.64v1.483h-.475v-2.623zm4.823 1.03c-.016-.24-.065-.416-.147-.529-.103-.142-.28-.213-.53-.213a.585.585 0 0 0-.504.249.986.986 0 0 0-.169.493h1.35zm-.637 1.668c-.379 0-.676-.12-.89-.357-.215-.24-.323-.568-.323-.988 0-.445.108-.794.323-1.047.216-.255.512-.38.89-.38.364 0 .644.11.835.33.193.218.289.539.289.958l-.005.176H51.17c.012.299.068.526.168.68.113.177.292.266.537.266a.62.62 0 0 0 .425-.148.622.622 0 0 0 .199-.405h.489c-.036.297-.148.524-.336.68-.188.156-.443.235-.764.235zm2.245-2.719h.079c.091 0 .165-.03.165-.106 0-.066-.048-.11-.152-.11a.405.405 0 0 0-.092.008v.208zm-.004.409h-.166v-.723c.066-.014.157-.027.274-.027.135 0 .196.022.248.058a.2.2 0 0 1 .07.155c0 .084-.06.146-.148.173v.009c.07.022.11.08.131.177.02.11.034.156.052.178h-.178c-.021-.027-.035-.09-.057-.174-.014-.08-.057-.115-.148-.115h-.078v.289zm.108-.959c-.313 0-.548.262-.548.582 0 .323.235.58.557.58.313.005.545-.257.545-.58 0-.32-.232-.582-.55-.582h-.004zm.009-.146a.72.72 0 0 1 .727.728.72.72 0 0 1-.732.731.729.729 0 1 1 0-1.46l.005.001z"/></g></svg>