<svg xmlns="http://www.w3.org/2000/svg" width="62" height="18"><g fill="none" fill-rule="evenodd"><path d="M-4-26h70v70H-4z"/><path fill="#0079BE" fill-rule="nonzero" d="M11.853 17.048c4.376.021 8.37-3.63 8.37-8.073 0-4.857-3.994-8.215-8.37-8.213H8.088C3.659.76.015 4.119.015 8.975c0 4.444 3.644 8.094 8.073 8.073h3.765z"/><path fill="#FFF" fill-rule="nonzero" d="M8.105 1.435C4.06 1.435.78 4.772.78 8.89c.001 4.117 3.28 7.453 7.326 7.455 4.048-.002 7.327-3.338 7.328-7.455 0-4.118-3.28-7.454-7.328-7.455zM3.462 8.89a4.731 4.731 0 0 1 2.98-4.41v8.82a4.729 4.729 0 0 1-2.98-4.41zm6.305 4.411V4.48a4.729 4.729 0 0 1 2.984 4.41 4.73 4.73 0 0 1-2.984 4.411z"/><path fill="#211E1F" fill-rule="nonzero" d="M22.79 4.265c0-.77-.395-.72-.774-.728v-.222c.328.016.664.016.993.016.354 0 .834-.016 1.457-.016 2.18 0 3.367 1.481 3.367 2.998 0 .848-.488 2.98-3.468 2.98-.43 0-.826-.016-1.221-.016-.379 0-.75.008-1.128.016v-.222c.505-.052.75-.069.773-.651V4.265zm.825 4.018c0 .66.463.736.876.736 1.818 0 2.416-1.396 2.416-2.672 0-1.601-1.01-2.758-2.635-2.758-.346 0-.505.026-.657.035v4.659zm4.513.788h.16c.235 0 .404 0 .404-.283V6.467c0-.376-.126-.429-.438-.6v-.136c.396-.121.868-.283.9-.309a.295.295 0 0 1 .153-.043c.041 0 .059.052.059.12v3.289c0 .283.185.283.42.283h.144v.223c-.287 0-.582-.017-.884-.017-.303 0-.607.008-.918.017V9.07zm.9-5.01c-.218 0-.411-.206-.411-.429 0-.215.202-.412.412-.412.218 0 .413.18.413.412a.425.425 0 0 1-.413.428zm1.701 2.457c0-.317-.093-.402-.488-.565v-.162c.362-.12.707-.232 1.111-.412.025 0 .05.017.05.086v.557c.48-.351.893-.643 1.458-.643.715 0 .967.531.967 1.2v2.209c0 .283.186.283.422.283h.151v.223c-.295 0-.59-.017-.892-.017-.303 0-.607.008-.91.017V9.07h.152c.236 0 .403 0 .403-.283V6.57c0-.489-.293-.728-.773-.728-.27 0-.699.222-.978.411v2.535c0 .283.186.283.422.283h.152v.223c-.295 0-.59-.017-.893-.017-.303 0-.607.008-.91.017V9.07h.153c.235 0 .403 0 .403-.283v-2.27zm4.311.412c-.017.077-.017.205 0 .497.05.813.565 1.481 1.237 1.481.464 0 .827-.257 1.138-.574l.117.12c-.387.523-.867.968-1.557.968-1.34 0-1.609-1.32-1.609-1.867 0-1.68 1.112-2.176 1.7-2.176.683 0 1.416.437 1.424 1.345 0 .052 0 .102-.008.154l-.076.052H35.04zm1.49-.275c.21 0 .236-.111.236-.214 0-.436-.261-.788-.733-.788-.513 0-.867.385-.968 1.002h1.466zm1.154 2.416h.227c.235 0 .403 0 .403-.283V6.38c0-.265-.31-.317-.437-.385v-.128c.614-.266.951-.49 1.028-.49.05 0 .075.027.075.113v.77h.017c.21-.333.565-.882 1.078-.882.21 0 .48.145.48.454 0 .231-.16.437-.396.437-.262 0-.262-.206-.556-.206-.143 0-.614.197-.614.712v2.012c0 .283.168.283.404.283h.47v.223c-.462-.009-.815-.017-1.177-.017-.345 0-.7.008-1.002.017V9.07zm3.241-.968c.11.565.446 1.045 1.061 1.045.496 0 .681-.308.681-.608 0-1.01-1.835-.685-1.835-2.064 0-.48.38-1.097 1.305-1.097.27 0 .631.078.96.25l.059.872h-.194c-.084-.54-.378-.848-.918-.848-.337 0-.656.197-.656.566 0 1.003 1.953.693 1.953 2.038 0 .565-.447 1.165-1.448 1.165a2.19 2.19 0 0 1-1.027-.29l-.093-.986.152-.043zm10.018-3.238h-.21c-.16-1.002-.86-1.405-1.802-1.405-.968 0-2.374.66-2.374 2.715 0 1.732 1.213 2.973 2.509 2.973.833 0 1.524-.582 1.692-1.482l.193.051-.193 1.25c-.353.224-1.305.455-1.86.455-1.97 0-3.216-1.293-3.216-3.22 0-1.757 1.54-3.016 3.19-3.016.682 0 1.339.223 1.987.455l.084 1.224zm.304 4.206h.159c.236 0 .405 0 .405-.283v-4.77c0-.558-.126-.575-.447-.669v-.137a5.31 5.31 0 0 0 .868-.368c.091-.051.16-.095.184-.095.052 0 .068.052.068.12v5.919c0 .283.185.283.421.283h.142v.223c-.285 0-.58-.017-.883-.017-.302 0-.606.008-.917.017V9.07zm5.405-.249c0 .155.092.163.235.163.101 0 .227-.008.337-.008v.18c-.362.034-1.053.214-1.213.265l-.042-.026v-.693c-.504.42-.892.72-1.49.72-.455 0-.926-.3-.926-1.02V6.21c0-.223-.034-.437-.504-.48v-.162c.303-.009.975-.06 1.085-.06.093 0 .093.06.093.248v2.21c0 .257 0 .993.732.993.286 0 .665-.222 1.018-.521V6.132c0-.17-.403-.264-.706-.35v-.154c.757-.052 1.23-.12 1.313-.12.068 0 .068.06.068.154v3.16zm1.675-2.826c.337-.291.791-.617 1.255-.617.976 0 1.565.866 1.565 1.799 0 1.122-.808 2.244-2.012 2.244-.623 0-.951-.206-1.17-.3l-.252.197-.177-.094a10.25 10.25 0 0 0 .118-1.524V4.018c0-.558-.127-.575-.447-.669v-.137c.338-.11.69-.265.867-.368.093-.052.16-.095.186-.095.05 0 .067.052.067.12v3.127zm0 2.33c0 .325.303.874.867.874.901 0 1.28-.9 1.28-1.663 0-.925-.69-1.695-1.347-1.695-.312 0-.573.206-.8.403v2.08zm-36.32 5.948h.064c.164 0 .338-.023.338-.266v-2.441c0-.243-.174-.266-.338-.266h-.065v-.14c.18 0 .454.018.68.018.228 0 .502-.018.718-.018v.14h-.065c-.164 0-.338.023-.338.266v2.441c0 .243.174.266.338.266h.065v.14c-.22 0-.496-.018-.724-.018-.225 0-.495.018-.674.018v-.14z"/><path fill="#211E1F" fill-rule="nonzero" d="M23.404 14.434c-.222 0-.496-.019-.724-.019-.224 0-.493.019-.674.019h-.02v-.18h.085c.166-.004.317-.018.319-.246v-2.441c-.002-.228-.153-.243-.32-.246h-.083v-.18h.02c.18 0 .454.018.678.018.228 0 .502-.019.719-.019h.02v.181h-.084c-.167.003-.319.018-.32.246v2.441c.001.228.153.242.32.246h.084v.18h-.02zm-.02-.04v-.1h-.044c-.164 0-.359-.028-.36-.286v-2.441c.001-.258.196-.287.36-.287h.044v-.099c-.211 0-.477.018-.7.018-.217 0-.48-.016-.657-.018v.1h.044c.163 0 .358.028.358.286v2.441c0 .258-.195.287-.358.287h-.044v.1c.177-.003.436-.02.653-.02.223 0 .488.018.704.02zm3.167-.898l.01-.01V11.74c0-.383-.262-.438-.4-.438h-.1v-.14c.215 0 .426.018.64.018.188 0 .377-.018.565-.018v.14h-.069c-.193 0-.408.037-.408.591v2.122c0 .162.005.325.027.47h-.174l-2.359-2.675v1.92c0 .405.077.545.43.545h.078v.14c-.197 0-.393-.018-.59-.018-.206 0-.417.018-.623.018v-.14h.064c.316 0 .412-.219.412-.591V11.72a.414.414 0 0 0-.417-.42h-.06v-.14c.175 0 .353.02.527.02.137 0 .27-.02.408-.02l2.039 2.336z"/><path fill="#211E1F" fill-rule="nonzero" d="M26.816 14.504l-.189-.007-2.325-2.636v1.868c.006.405.066.52.411.525h.099v.18h-.02c-.199 0-.396-.019-.592-.019-.205 0-.415.019-.623.019h-.02v-.18h.085c.302-.002.389-.2.392-.571V11.72c0-.248-.2-.399-.397-.4h-.08v-.18h.02c.175 0 .355.019.526.019.137 0 .27-.018.424-.011l2.013 2.305V11.74c-.002-.37-.245-.415-.379-.418h-.121v-.181h.02c.217 0 .427.019.642.019.186 0 .374-.018.563-.018h.02v.18h-.088c-.19.005-.383.022-.389.571v2.121c0 .163.005.326.027.467l.005.024h-.024zm-.174-.04h.151a3.165 3.165 0 0 1-.024-.45v-2.122c0-.559.23-.612.428-.612h.048v-.099c-.18.002-.361.018-.543.018-.21 0-.414-.016-.621-.018v.1h.08c.141 0 .419.063.419.458l-.006 1.761-.01.01-.015.015-2.037-2.344c-.136 0-.269.018-.408.018-.169 0-.34-.016-.507-.018v.1h.04c.215 0 .436.166.436.439v1.963c0 .372-.102.61-.431.612l-.045-.001v.1c.199-.002.403-.019.603-.019.192 0 .382.017.571.02v-.1h-.058c-.36-.001-.45-.16-.45-.566v-1.973l2.379 2.707zm-.091-.944l.041-.038-.041.038zm-.004-.025v-.005l-.01-.009.01.014zm1.404-2.101c-.344 0-.357.084-.425.424h-.138c.018-.13.041-.26.055-.397.018-.13.027-.26.027-.395h.11c.037.14.152.135.276.135h2.363c.124 0 .238-.005.248-.145l.11.019a9.788 9.788 0 0 0-.051.378c-.008.125-.008.251-.008.377l-.138.052c-.01-.172-.033-.448-.34-.448h-.75v2.48c0 .359.16.4.38.4h.087v.14c-.179 0-.5-.018-.747-.018-.275 0-.596.018-.775.018v-.14h.088c.252 0 .38-.023.38-.39v-2.49h-.752z"/><path fill="#211E1F" fill-rule="nonzero" d="M29.757 14.434c-.18 0-.5-.019-.747-.019-.274 0-.595.019-.775.019h-.019v-.18h.107c.252-.006.354-.01.36-.37v-2.47h-.732v-.041h.771v2.51c0 .374-.148.412-.4.412h-.067v.098c.181 0 .49-.017.755-.017.24 0 .545.016.726.017v-.098h-.067c-.221 0-.4-.056-.4-.422v-2.5h.772c.307.001.347.267.358.44l.098-.037c0-.122.001-.243.01-.366.013-.12.03-.24.047-.358l-.07-.012c-.021.136-.15.143-.265.141h-2.387c-.107 0-.225-.005-.266-.135h-.076c0 .129-.01.254-.027.378-.013.128-.034.251-.051.374h.098c.06-.325.1-.43.441-.425v.041c-.338.006-.331.064-.406.409l-.003.016h-.176l.002-.025c.018-.13.041-.26.055-.396.02-.13.028-.258.028-.392v-.02h.145l.003.014c.032.118.117.118.233.12h2.387c.127-.002.22-.004.228-.126l.002-.021.02.004.13.02-.003.021a9.43 9.43 0 0 0-.05.376c-.01.124-.01.25-.01.376v.014l-.012.005-.162.06-.001-.027c-.013-.175-.03-.428-.32-.428h-.731v2.46c.004.35.141.375.36.38h.107v.18h-.02zm.966-.16h.064c.165 0 .34-.023.34-.266v-2.441c0-.243-.175-.266-.34-.266h-.064v-.14c.279 0 .756.018 1.14.018.385 0 .861-.018 1.172-.018-.007.2-.003.508.01.713l-.138.037c-.022-.303-.077-.545-.558-.545h-.636v1.221h.544c.275 0 .335-.158.362-.41h.137a11.246 11.246 0 0 0 0 1.077l-.137.027c-.027-.28-.04-.46-.357-.46h-.55v1.085c0 .303.265.303.559.303.55 0 .792-.038.93-.568l.128.032c-.06.247-.115.494-.155.741-.294 0-.82-.018-1.232-.018-.413 0-.958.018-1.22.018v-.14z"/><path fill="#211E1F" fill-rule="nonzero" d="M33.173 14.434c-.294 0-.82-.02-1.232-.02-.412 0-.957.02-1.218.02h-.02v-.18h.084c.166-.003.316-.018.319-.246v-2.441c-.003-.228-.153-.243-.32-.246h-.083v-.18h.02c.28 0 .756.018 1.14.018.385 0 .86-.018 1.172-.018h.02v.02a7.315 7.315 0 0 0 .01.71v.018l-.016.005-.16.043-.002-.024c-.027-.303-.066-.522-.538-.527h-.617v1.18h.525c.264-.003.311-.14.342-.391l.002-.018h.176v.02a10.634 10.634 0 0 0 0 1.075v.017l-.017.004-.159.033-.002-.022c-.031-.285-.033-.44-.338-.444h-.53v1.066c.001.283.241.281.54.283.551-.003.772-.03.91-.554l.005-.019.02.004.146.038-.004.02c-.06.246-.114.493-.155.74l-.004.016h-.016zm-.016-.04c.04-.236.092-.471.148-.706l-.09-.023c-.138.521-.404.568-.944.564-.289 0-.578 0-.579-.323V12.8h.57c.32-.004.352.193.374.458l.1-.02a9.927 9.927 0 0 1 0-1.041h-.1c-.025.243-.1.413-.379.41h-.565v-1.262h.657c.477-.003.556.247.576.54l.099-.027a8.007 8.007 0 0 1-.01-.677c-.31.002-.774.018-1.151.018s-.84-.016-1.12-.018v.1h.044c.163 0 .358.028.359.286v2.441c0 .257-.196.286-.36.287h-.044v.098c.267 0 .797-.017 1.2-.017.403 0 .92.017 1.215.017zm.79-2.74c0-.34-.183-.353-.325-.353h-.083v-.14c.147 0 .43.018.71.018.275 0 .495-.018.738-.018.577 0 1.09.158 1.09.82 0 .42-.275.676-.636.82l.783 1.193c.128.197.22.253.444.28v.14c-.151 0-.298-.018-.449-.018-.142 0-.289.018-.43.018-.353-.47-.656-.974-.954-1.51h-.301v.997c0 .36.164.373.375.373h.082v.14c-.261 0-.526-.018-.787-.018-.22 0-.436.018-.665.018v-.14h.083c.17 0 .325-.078.325-.251v-2.368zm.587 1.082h.224c.458 0 .705-.177.705-.727 0-.414-.261-.68-.67-.68-.137 0-.195.014-.26.018v1.389h.001z"/><path fill="#211E1F" fill-rule="nonzero" d="M36.668 14.434c-.153 0-.3-.019-.45-.019-.14 0-.286.019-.445.011a13.04 13.04 0 0 1-.949-1.502h-.27v.977c.004.35.143.348.355.353h.102v.18h-.02c-.262 0-.528-.019-.788-.019-.219 0-.434.02-.664.02h-.02v-.181h.103c.165-.001.304-.074.305-.231v-2.368c-.004-.331-.163-.33-.305-.334h-.103v-.18h.02c.149 0 .431.018.71.018.274 0 .494-.019.738-.019.577.002 1.109.164 1.11.84 0 .422-.273.684-.627.831l.77 1.172c.128.194.208.242.43.27l.018.003v.178h-.02zm-2.135-1.55h.314l.005.01c.299.535.6 1.038.937 1.5.14 0 .287-.019.43-.019.146 0 .287.016.43.019v-.102c-.216-.028-.316-.093-.442-.286l-.797-1.214.023-.01c.358-.143.624-.392.624-.802 0-.646-.494-.796-1.07-.799-.242 0-.462.019-.738.019-.269 0-.54-.017-.69-.019v.1h.063c.142 0 .345.023.345.374v2.368c0 .187-.173.272-.345.272h-.063v.099c.22-.001.429-.019.644-.019.256 0 .515.018.768.019v-.099h-.062c-.21 0-.396-.026-.396-.394v-1.017h.02zm0-.128h-.02v-1.427l.018-.002c.062-.005.124-.018.263-.018.417 0 .689.276.69.7-.002.557-.264.746-.726.747h-.225zm.225-.04c.453-.004.681-.165.686-.706-.002-.407-.251-.66-.65-.662-.124 0-.182.012-.24.017v1.35h.204zm5.02.78l.009-.01V11.74c0-.383-.261-.438-.398-.438h-.1v-.14c.214 0 .425.018.64.018.188 0 .375-.018.564-.018v.14h-.069c-.192 0-.407.037-.407.591v2.122c0 .162.004.325.027.47h-.174l-2.36-2.675v1.92c0 .405.079.545.431.545h.078v.14c-.197 0-.394-.018-.59-.018-.207 0-.418.018-.624.018v-.14h.064c.316 0 .413-.219.413-.591V11.72a.415.415 0 0 0-.417-.42h-.06v-.14c.174 0 .353.02.527.02.137 0 .27-.02.408-.02l2.038 2.336z"/><path fill="#211E1F" fill-rule="nonzero" d="M40.044 14.504l-.189-.007-2.325-2.636v1.868c.006.405.066.52.411.525h.097v.18h-.02c-.198 0-.394-.02-.59-.02-.205 0-.417.02-.623.02h-.02v-.18h.084c.302-.002.389-.2.392-.573V11.72c0-.249-.2-.4-.396-.4h-.08v-.18h.02c.175 0 .354.019.527.019.135 0 .267-.019.421-.012l2.014 2.306V11.74c-.001-.37-.245-.417-.379-.418h-.12v-.18h.02c.216 0 .427.018.641.018.187 0 .375-.019.563-.019h.02v.181h-.088c-.189.005-.383.022-.388.572v2.12c0 .163.004.325.027.468l.003.023h-.022zm-.174-.04h.15a3.25 3.25 0 0 1-.024-.45v-2.122c0-.559.232-.61.428-.612h.048v-.099c-.18.002-.36.018-.543.018-.21 0-.415-.016-.622-.018v.099h.081c.141.001.42.064.42.459L39.8 13.5l-.01.01-.013.015-2.039-2.344c-.136 0-.269.018-.407.018-.17 0-.34-.016-.508-.018v.099h.04a.435.435 0 0 1 .437.44v1.961c0 .375-.104.613-.432.614h-.045v.098c.198 0 .402-.017.604-.017.192 0 .382.016.571.017v-.098h-.057c-.361 0-.452-.16-.452-.566v-1.972l2.38 2.706zm-.092-.945l.04-.037-.04.037zm-.005-.023v-.005l-.01-.01.01.015zm1.457.252c-.046.158-.102.28-.102.363 0 .14.193.163.344.163h.05v.14c-.183-.01-.37-.018-.554-.018-.165 0-.33.008-.494.018v-.14h.027c.179 0 .33-.107.398-.303l.734-2.139c.059-.173.142-.406.17-.578.146-.051.33-.144.416-.2.014-.005.022-.01.037-.01.013 0 .022 0 .032.014.014.037.027.08.042.117l.842 2.438c.055.162.11.335.169.475.055.13.152.186.303.186h.027v.14a12.81 12.81 0 0 0-.631-.018c-.225 0-.455.008-.688.018v-.14h.05c.105 0 .285-.018.285-.135 0-.06-.042-.186-.093-.336l-.178-.54h-1.04l-.146.485zm.668-2.065h-.009l-.426 1.319h.856l-.42-1.32z"/><path fill="#211E1F" fill-rule="nonzero" d="M43.67 14.434c-.206-.01-.412-.02-.63-.02-.225 0-.453.01-.688.02l-.02.001v-.182h.07c.106 0 .264-.024.264-.114.001-.053-.04-.18-.09-.33l-.175-.526h-1.01l-.143.47c-.046.16-.101.283-.1.359 0 .113.172.141.324.141h.07v.182l-.02-.001c-.184-.01-.37-.02-.553-.02-.165 0-.33.01-.494.02l-.021.001v-.182h.047c.17 0 .313-.1.379-.289l.733-2.139c.06-.173.143-.405.183-.59.143-.05.327-.144.416-.2.012-.005.025-.011.044-.011.01 0 .036.002.05.027l.042.117.843 2.438c.054.163.109.336.169.473.053.125.137.173.284.174h.047v.182l-.021-.001zm-1.298-.042c.227-.008.449-.017.667-.017.213 0 .412.01.612.017v-.097h-.007c-.157.001-.265-.062-.321-.199-.06-.142-.116-.314-.17-.478l-.843-2.437c-.014-.037-.027-.08-.04-.112-.003-.005-.002-.005-.006-.005h-.008c-.01 0-.015.003-.027.006a1.69 1.69 0 0 1-.408.187c-.028.176-.11.409-.17.582l-.733 2.139c-.07.202-.23.317-.417.317h-.007v.097c.157-.008.315-.017.475-.017.177 0 .358.01.532.017v-.097h-.03c-.148-.002-.357-.019-.362-.183 0-.094.056-.213.101-.37l.02.006-.02-.007.15-.498h1.069l.184.554c.051.15.093.274.093.342-.006.143-.2.153-.304.156h-.03v.097zm-.937-1.37l.439-1.36h.025v.02l-.005.002.005-.001v-.02h.013l.435 1.359h-.912zm.055-.04h.802l-.399-1.25-.403 1.25zm.389-1.287l.03-.01-.03.01zm1.994-.301c-.344 0-.358.084-.427.424h-.137c.018-.13.041-.26.055-.397.019-.13.027-.26.027-.395h.11c.037.14.152.135.275.135h2.364c.123 0 .238-.005.247-.145l.11.019c-.018.126-.036.252-.05.378-.01.125-.01.251-.01.377l-.137.052c-.008-.172-.031-.448-.338-.448h-.752v2.48c0 .359.161.4.38.4h.087v.14c-.178 0-.498-.018-.746-.018-.275 0-.596.018-.774.018v-.14h.086c.253 0 .381-.023.381-.39v-2.49h-.751z"/><path fill="#211E1F" fill-rule="nonzero" d="M45.677 14.434c-.18 0-.5-.019-.746-.019-.274 0-.595.019-.774.019h-.02v-.18h.106c.253-.006.354-.01.36-.37v-2.47h-.73v-.041h.77v2.51c0 .374-.148.41-.4.412h-.067v.1c.181-.003.489-.02.755-.02.239 0 .545.017.726.02v-.1h-.067c-.22-.001-.399-.055-.4-.422v-2.5h.772c.307.001.347.267.356.44l.1-.037c0-.122 0-.243.01-.366.012-.12.03-.24.046-.358l-.07-.012c-.02.136-.15.143-.264.141h-2.387c-.108.002-.225-.005-.267-.136h-.075c0 .13-.01.255-.028.379-.012.128-.034.252-.051.374h.098c.06-.325.1-.43.443-.425v.04c-.34.007-.332.065-.407.41l-.004.016h-.176l.002-.024c.02-.131.042-.261.056-.396.018-.13.027-.26.027-.393v-.02h.145l.004.014c.032.118.116.118.233.12h2.387c.127-.002.22-.004.227-.125l.002-.022.021.004.13.02-.003.021a9.99 9.99 0 0 0-.05.376c-.01.124-.01.25-.01.376v.014l-.013.005-.162.06-.001-.027c-.012-.175-.03-.428-.32-.428h-.73v2.46c.004.35.14.375.359.38h.107v.18h-.02zm.99-.16h.063c.166 0 .339-.023.339-.266v-2.441c0-.243-.173-.266-.339-.266h-.064v-.14c.179 0 .453.018.677.018.23 0 .505-.018.72-.018v.14H48c-.165 0-.34.023-.34.266v2.441c0 .243.175.266.34.266h.064v.14c-.22 0-.495-.018-.723-.018-.225 0-.495.018-.674.018v-.14z"/><path fill="#211E1F" fill-rule="nonzero" d="M48.064 14.434c-.222 0-.496-.02-.724-.02-.224 0-.495.02-.674.02h-.02v-.18h.084c.166-.003.318-.017.318-.246v-2.441c0-.228-.152-.243-.318-.246h-.084v-.18h.02c.18 0 .454.018.677.018.229 0 .504-.018.72-.018h.02v.18h-.084c-.167.003-.317.018-.32.246v2.441c.003.229.153.243.32.246h.084v.18h-.02zm-.021-.04v-.1h-.044c-.164 0-.358-.029-.358-.286v-2.441c0-.258.194-.287.358-.287h.044v-.099c-.212.002-.476.018-.7.018-.216 0-.48-.016-.657-.018v.1h.044c.163 0 .358.028.36.286v2.441c-.002.257-.197.287-.36.287h-.044v.098c.177-.002.436-.017.654-.017.222 0 .487.016.703.017zm1.847-3.303c.977 0 1.755.616 1.755 1.608 0 1.073-.756 1.785-1.73 1.785-.973 0-1.714-.671-1.714-1.673 0-.97.737-1.72 1.69-1.72zm.07 3.188c.888 0 1.043-.798 1.043-1.477 0-.681-.36-1.506-1.122-1.506-.801 0-1.04.727-1.04 1.351 0 .834.376 1.632 1.119 1.632z"/><path fill="#211E1F" fill-rule="nonzero" d="M48.18 12.81c.002-.98.748-1.738 1.71-1.74v.041c-.941 0-1.67.74-1.671 1.7.002.99.733 1.652 1.695 1.652.966 0 1.71-.703 1.712-1.765 0-.98-.767-1.586-1.736-1.587v-.04c.984 0 1.773.622 1.775 1.627-.001 1.084-.767 1.804-1.751 1.806-.98-.002-1.732-.68-1.734-1.693zm.642-.163c.001-.627.242-1.372 1.06-1.372.777.002 1.14.842 1.142 1.527-.002.68-.159 1.496-1.064 1.496v-.04c.87 0 1.022-.777 1.024-1.456 0-.676-.358-1.485-1.102-1.486-.786.001-1.019.71-1.02 1.331 0 .83.372 1.61 1.098 1.612v.04c-.76-.002-1.137-.813-1.138-1.652zm5.91.849l.01-.01V11.74c0-.383-.262-.438-.4-.438h-.1v-.14c.216 0 .426.018.641.018.188 0 .376-.018.564-.018v.14h-.069c-.192 0-.408.037-.408.591v2.122c0 .162.005.325.028.47h-.174l-2.36-2.675v1.92c0 .405.078.545.43.545h.08v.14c-.198 0-.395-.018-.592-.018-.206 0-.417.018-.623.018v-.14h.064c.317 0 .412-.219.412-.591V11.72c0-.261-.21-.42-.416-.42h-.06v-.14c.174 0 .353.02.527.02.137 0 .27-.02.407-.02l2.04 2.336z"/><path fill="#211E1F" fill-rule="nonzero" d="M54.998 14.504l-.19-.007-2.324-2.636v1.868c.005.405.066.52.41.524h.1v.181h-.02c-.2 0-.396-.019-.592-.019-.205 0-.415.019-.624.019h-.019v-.18h.084c.302-.002.39-.2.393-.571V11.72c0-.249-.2-.4-.397-.4h-.08v-.18h.02c.175 0 .354.019.526.019.136 0 .269-.018.424-.011l2.012 2.305V11.74c-.001-.37-.245-.415-.379-.418h-.12v-.18h.02c.216 0 .427.018.64.018.188 0 .375-.018.565-.018h.02v.18h-.09c-.188.005-.382.023-.386.572v2.12c0 .163.003.326.025.468l.004.023h-.022zm-.174-.04h.15a3.265 3.265 0 0 1-.023-.45v-2.122c0-.56.23-.61.427-.612h.05v-.099c-.181.002-.362.018-.545.018-.209 0-.414-.016-.621-.018v.099h.08c.142.001.418.065.418.46l-.005 1.76-.008.01-.015.015-2.038-2.344c-.135 0-.27.018-.408.018-.17 0-.34-.016-.508-.018v.099h.04a.436.436 0 0 1 .437.44v1.963c0 .372-.102.61-.432.612h-.045v.098c.2 0 .403-.017.604-.017.191 0 .381.016.571.017v-.098h-.059c-.36 0-.45-.16-.45-.566v-1.973l2.38 2.707zm-.092-.945l.042-.037-.042.037zm-.004-.023v-.005l-.01-.01.01.015zm1.455.252c-.044.158-.1.28-.1.363 0 .14.193.163.343.163h.051v.14a10.22 10.22 0 0 0-.554-.018c-.166 0-.33.008-.494.018v-.14h.026c.18 0 .331-.107.399-.303l.733-2.139c.06-.173.142-.406.17-.578a2.4 2.4 0 0 0 .417-.2c.013-.005.022-.01.036-.01.014 0 .022 0 .032.014l.041.117.843 2.438c.055.162.11.335.17.475.055.13.151.186.302.186h.028v.14c-.207-.01-.413-.018-.633-.018-.224 0-.453.008-.687.018v-.14h.05c.105 0 .285-.018.285-.135 0-.06-.041-.186-.093-.336l-.177-.54h-1.04l-.148.485zm.67-2.065h-.01l-.426 1.319h.857l-.421-1.32z"/><path fill="#211E1F" fill-rule="nonzero" d="M58.624 14.434c-.206-.008-.412-.019-.63-.019-.224 0-.454.01-.687.019l-.02.001v-.181h.069c.107 0 .264-.025.265-.115 0-.053-.04-.18-.092-.33l-.174-.526h-1.01l-.143.47c-.045.16-.1.283-.099.358 0 .114.171.143.323.143h.07v.181l-.02-.001c-.184-.008-.371-.019-.553-.019-.165 0-.33.01-.494.019l-.02.001v-.181h.046c.17-.001.313-.1.38-.29l.733-2.139c.059-.173.141-.405.182-.59.144-.05.328-.144.417-.2a.1.1 0 0 1 .043-.01.051.051 0 0 1 .05.027c.014.036.027.079.042.116l.843 2.438c.055.163.11.336.169.474.054.124.137.172.283.174h.048v.181l-.021-.001zm-1.298-.041c.226-.009.45-.018.667-.018.213 0 .413.01.613.017l-.001-.097h-.008c-.155 0-.263-.062-.32-.199-.06-.142-.115-.314-.17-.477l-.843-2.438-.038-.11c-.004-.007-.004-.007-.007-.007h-.009c-.01 0-.015.004-.026.007-.089.057-.273.15-.408.186-.029.176-.112.409-.17.582l-.734 2.139c-.07.202-.23.317-.417.317h-.007v.097c.157-.008.315-.017.475-.017.177 0 .358.01.534.017v-.097h-.031c-.149-.002-.358-.018-.363-.184 0-.093.057-.211.102-.37l.018.007-.018-.007.15-.498h1.069l.183.554c.05.15.093.273.093.342-.007.143-.2.153-.304.156h-.03v.098zm-.936-1.371l.44-1.36h.023v.02l-.005.002.005-.001v-.02h.014l.433 1.359h-.91zm.055-.04h.801l-.398-1.249-.403 1.248zm.389-1.287l.026-.01-.026.01zm2.946 2.262c0 .187.127.242.274.261.188.015.394.015.606-.009a.654.654 0 0 0 .438-.252c.074-.102.115-.233.143-.335h.132c-.05.265-.114.527-.17.792-.401 0-.806-.018-1.208-.018-.404 0-.806.018-1.21.018v-.14h.064c.165 0 .345-.023.345-.312v-2.395c0-.243-.18-.266-.345-.266h-.063v-.14c.242 0 .48.018.723.018.234 0 .463-.018.697-.018v.14h-.116c-.173 0-.31.005-.31.251v2.405z"/><path fill="#211E1F" fill-rule="nonzero" d="M61.204 14.434c-.404 0-.807-.019-1.209-.019-.403 0-.807.019-1.21.019h-.02v-.18h.084c.166-.004.323-.016.325-.292v-2.396c-.002-.227-.158-.242-.325-.245h-.084v-.18h.02c.243 0 .482.018.724.018.232 0 .461-.018.697-.018h.018v.18h-.133c-.178.005-.289-.004-.292.231v2.405c.001.174.113.22.256.241a3.543 3.543 0 0 0 .601-.009.635.635 0 0 0 .426-.243c.07-.1.112-.227.139-.33l.004-.015h.173l-.005.025c-.051.267-.114.527-.17.792l-.004.016h-.015zm-.017-.04c.053-.253.113-.5.163-.753h-.095a1.083 1.083 0 0 1-.14.329.676.676 0 0 1-.455.26 3.391 3.391 0 0 1-.608.008c-.15-.017-.294-.081-.293-.28v-2.406c0-.259.16-.272.332-.272h.094v-.099c-.226.002-.448.019-.676.019-.237 0-.47-.017-.704-.019v.1h.044c.163 0 .363.028.363.285v2.396c0 .301-.199.333-.363.333h-.044v.098c.396 0 .792-.017 1.19-.017.398 0 .796.017 1.192.017zm.13-3.366c.277 0 .483.216.483.493 0 .275-.206.49-.482.49a.477.477 0 0 1-.483-.49.48.48 0 0 1 .483-.493zm0 .89a.393.393 0 0 0 .382-.397c0-.212-.163-.4-.381-.4a.394.394 0 0 0-.383.4c0 .21.166.398.383.398zm-.24-.139v-.024c.06-.008.07-.006.07-.044v-.363c0-.051-.005-.068-.067-.066v-.025h.247c.085 0 .162.041.162.13a.153.153 0 0 1-.114.148l.08.113a.5.5 0 0 0 .106.116v.015h-.094c-.045 0-.085-.096-.173-.226h-.054v.163c0 .033.011.03.07.04v.023h-.232zm.163-.258h.057c.062 0 .091-.048.091-.125 0-.079-.045-.106-.094-.106h-.054v.23z"/><path fill="#0079BE" fill-rule="nonzero" d="M11.853 17.048c4.376.021 8.37-3.63 8.37-8.073 0-4.857-3.994-8.215-8.37-8.213H8.088C3.659.76.015 4.119.015 8.975c0 4.444 3.644 8.094 8.073 8.073h3.765z"/><path fill="#FFF" fill-rule="nonzero" d="M8.105 1.435C4.06 1.435.78 4.772.78 8.89c.001 4.117 3.28 7.453 7.326 7.455 4.048-.002 7.327-3.338 7.328-7.455 0-4.118-3.28-7.454-7.328-7.455zM3.462 8.89a4.731 4.731 0 0 1 2.98-4.41v8.82a4.729 4.729 0 0 1-2.98-4.41zm6.305 4.411V4.48a4.729 4.729 0 0 1 2.984 4.41 4.73 4.73 0 0 1-2.984 4.411z"/><path fill="#211E1F" fill-rule="nonzero" d="M22.79 4.265c0-.77-.395-.72-.774-.728v-.222c.328.016.664.016.993.016.354 0 .834-.016 1.457-.016 2.18 0 3.367 1.481 3.367 2.998 0 .848-.488 2.98-3.468 2.98-.43 0-.826-.016-1.221-.016-.379 0-.75.008-1.128.016v-.222c.505-.052.75-.069.773-.651V4.265zm.825 4.018c0 .66.463.736.876.736 1.818 0 2.416-1.396 2.416-2.672 0-1.601-1.01-2.758-2.635-2.758-.346 0-.505.026-.657.035v4.659zm4.513.788h.16c.235 0 .404 0 .404-.283V6.467c0-.376-.126-.429-.438-.6v-.136c.396-.121.868-.283.9-.309a.295.295 0 0 1 .153-.043c.041 0 .059.052.059.12v3.289c0 .283.185.283.42.283h.144v.223c-.287 0-.582-.017-.884-.017-.303 0-.607.008-.918.017V9.07zm.9-5.01c-.218 0-.411-.206-.411-.429 0-.215.202-.412.412-.412.218 0 .413.18.413.412a.425.425 0 0 1-.413.428zm1.701 2.457c0-.317-.093-.402-.488-.565v-.162c.362-.12.707-.232 1.111-.412.025 0 .05.017.05.086v.557c.48-.351.893-.643 1.458-.643.715 0 .967.531.967 1.2v2.209c0 .283.186.283.422.283h.151v.223c-.295 0-.59-.017-.892-.017-.303 0-.607.008-.91.017V9.07h.152c.236 0 .403 0 .403-.283V6.57c0-.489-.293-.728-.773-.728-.27 0-.699.222-.978.411v2.535c0 .283.186.283.422.283h.152v.223c-.295 0-.59-.017-.893-.017-.303 0-.607.008-.91.017V9.07h.153c.235 0 .403 0 .403-.283v-2.27zm4.311.412c-.017.077-.017.205 0 .497.05.813.565 1.481 1.237 1.481.464 0 .827-.257 1.138-.574l.117.12c-.387.523-.867.968-1.557.968-1.34 0-1.609-1.32-1.609-1.867 0-1.68 1.112-2.176 1.7-2.176.683 0 1.416.437 1.424 1.345 0 .052 0 .102-.008.154l-.076.052H35.04zm1.49-.275c.21 0 .236-.111.236-.214 0-.436-.261-.788-.733-.788-.513 0-.867.385-.968 1.002h1.466zm1.154 2.416h.227c.235 0 .403 0 .403-.283V6.38c0-.265-.31-.317-.437-.385v-.128c.614-.266.951-.49 1.028-.49.05 0 .075.027.075.113v.77h.017c.21-.333.565-.882 1.078-.882.21 0 .48.145.48.454 0 .231-.16.437-.396.437-.262 0-.262-.206-.556-.206-.143 0-.614.197-.614.712v2.012c0 .283.168.283.404.283h.47v.223c-.462-.009-.815-.017-1.177-.017-.345 0-.7.008-1.002.017V9.07zm3.241-.968c.11.565.446 1.045 1.061 1.045.496 0 .681-.308.681-.608 0-1.01-1.835-.685-1.835-2.064 0-.48.38-1.097 1.305-1.097.27 0 .631.078.96.25l.059.872h-.194c-.084-.54-.378-.848-.918-.848-.337 0-.656.197-.656.566 0 1.003 1.953.693 1.953 2.038 0 .565-.447 1.165-1.448 1.165a2.19 2.19 0 0 1-1.027-.29l-.093-.986.152-.043zm10.018-3.238h-.21c-.16-1.002-.86-1.405-1.802-1.405-.968 0-2.374.66-2.374 2.715 0 1.732 1.213 2.973 2.509 2.973.833 0 1.524-.582 1.692-1.482l.193.051-.193 1.25c-.353.224-1.305.455-1.86.455-1.97 0-3.216-1.293-3.216-3.22 0-1.757 1.54-3.016 3.19-3.016.682 0 1.339.223 1.987.455l.084 1.224zm.304 4.206h.159c.236 0 .405 0 .405-.283v-4.77c0-.558-.126-.575-.447-.669v-.137a5.31 5.31 0 0 0 .868-.368c.091-.051.16-.095.184-.095.052 0 .068.052.068.12v5.919c0 .283.185.283.421.283h.142v.223c-.285 0-.58-.017-.883-.017-.302 0-.606.008-.917.017V9.07zm5.405-.249c0 .155.092.163.235.163.101 0 .227-.008.337-.008v.18c-.362.034-1.053.214-1.213.265l-.042-.026v-.693c-.504.42-.892.72-1.49.72-.455 0-.926-.3-.926-1.02V6.21c0-.223-.034-.437-.504-.48v-.162c.303-.009.975-.06 1.085-.06.093 0 .093.06.093.248v2.21c0 .257 0 .993.732.993.286 0 .665-.222 1.018-.521V6.132c0-.17-.403-.264-.706-.35v-.154c.757-.052 1.23-.12 1.313-.12.068 0 .068.06.068.154v3.16zm1.675-2.826c.337-.291.791-.617 1.255-.617.976 0 1.565.866 1.565 1.799 0 1.122-.808 2.244-2.012 2.244-.623 0-.951-.206-1.17-.3l-.252.197-.177-.094a10.25 10.25 0 0 0 .118-1.524V4.018c0-.558-.127-.575-.447-.669v-.137c.338-.11.69-.265.867-.368.093-.052.16-.095.186-.095.05 0 .067.052.067.12v3.127zm0 2.33c0 .325.303.874.867.874.901 0 1.28-.9 1.28-1.663 0-.925-.69-1.695-1.347-1.695-.312 0-.573.206-.8.403v2.08zm-36.32 5.948h.064c.164 0 .338-.023.338-.266v-2.441c0-.243-.174-.266-.338-.266h-.065v-.14c.18 0 .454.018.68.018.228 0 .502-.018.718-.018v.14h-.065c-.164 0-.338.023-.338.266v2.441c0 .243.174.266.338.266h.065v.14c-.22 0-.496-.018-.724-.018-.225 0-.495.018-.674.018v-.14z"/><path fill="#211E1F" fill-rule="nonzero" d="M23.404 14.434c-.222 0-.496-.019-.724-.019-.224 0-.493.019-.674.019h-.02v-.18h.085c.166-.004.317-.018.319-.246v-2.441c-.002-.228-.153-.243-.32-.246h-.083v-.18h.02c.18 0 .454.018.678.018.228 0 .502-.019.719-.019h.02v.181h-.084c-.167.003-.319.018-.32.246v2.441c.001.228.153.242.32.246h.084v.18h-.02zm-.02-.04v-.1h-.044c-.164 0-.359-.028-.36-.286v-2.441c.001-.258.196-.287.36-.287h.044v-.099c-.211 0-.477.018-.7.018-.217 0-.48-.016-.657-.018v.1h.044c.163 0 .358.028.358.286v2.441c0 .258-.195.287-.358.287h-.044v.1c.177-.003.436-.02.653-.02.223 0 .488.018.704.02zm3.167-.898l.01-.01V11.74c0-.383-.262-.438-.4-.438h-.1v-.14c.215 0 .426.018.64.018.188 0 .377-.018.565-.018v.14h-.069c-.193 0-.408.037-.408.591v2.122c0 .162.005.325.027.47h-.174l-2.359-2.675v1.92c0 .405.077.545.43.545h.078v.14c-.197 0-.393-.018-.59-.018-.206 0-.417.018-.623.018v-.14h.064c.316 0 .412-.219.412-.591V11.72a.414.414 0 0 0-.417-.42h-.06v-.14c.175 0 .353.02.527.02.137 0 .27-.02.408-.02l2.039 2.336z"/><path fill="#211E1F" fill-rule="nonzero" d="M26.816 14.504l-.189-.007-2.325-2.636v1.868c.006.405.066.52.411.525h.099v.18h-.02c-.199 0-.396-.019-.592-.019-.205 0-.415.019-.623.019h-.02v-.18h.085c.302-.002.389-.2.392-.571V11.72c0-.248-.2-.399-.397-.4h-.08v-.18h.02c.175 0 .355.019.526.019.137 0 .27-.018.424-.011l2.013 2.305V11.74c-.002-.37-.245-.415-.379-.418h-.121v-.181h.02c.217 0 .427.019.642.019.186 0 .374-.018.563-.018h.02v.18h-.088c-.19.005-.383.022-.389.571v2.121c0 .163.005.326.027.467l.005.024h-.024zm-.174-.04h.151a3.165 3.165 0 0 1-.024-.45v-2.122c0-.559.23-.612.428-.612h.048v-.099c-.18.002-.361.018-.543.018-.21 0-.414-.016-.621-.018v.1h.08c.141 0 .419.063.419.458l-.006 1.761-.01.01-.015.015-2.037-2.344c-.136 0-.269.018-.408.018-.169 0-.34-.016-.507-.018v.1h.04c.215 0 .436.166.436.439v1.963c0 .372-.102.61-.431.612l-.045-.001v.1c.199-.002.403-.019.603-.019.192 0 .382.017.571.02v-.1h-.058c-.36-.001-.45-.16-.45-.566v-1.973l2.379 2.707zm-.091-.944l.041-.038-.041.038zm-.004-.025v-.005l-.01-.009.01.014zm1.404-2.101c-.344 0-.357.084-.425.424h-.138c.018-.13.041-.26.055-.397.018-.13.027-.26.027-.395h.11c.037.14.152.135.276.135h2.363c.124 0 .238-.005.248-.145l.11.019a9.788 9.788 0 0 0-.051.378c-.008.125-.008.251-.008.377l-.138.052c-.01-.172-.033-.448-.34-.448h-.75v2.48c0 .359.16.4.38.4h.087v.14c-.179 0-.5-.018-.747-.018-.275 0-.596.018-.775.018v-.14h.088c.252 0 .38-.023.38-.39v-2.49h-.752z"/><path fill="#211E1F" fill-rule="nonzero" d="M29.757 14.434c-.18 0-.5-.019-.747-.019-.274 0-.595.019-.775.019h-.019v-.18h.107c.252-.006.354-.01.36-.37v-2.47h-.732v-.041h.771v2.51c0 .374-.148.412-.4.412h-.067v.098c.181 0 .49-.017.755-.017.24 0 .545.016.726.017v-.098h-.067c-.221 0-.4-.056-.4-.422v-2.5h.772c.307.001.347.267.358.44l.098-.037c0-.122.001-.243.01-.366.013-.12.03-.24.047-.358l-.07-.012c-.021.136-.15.143-.265.141h-2.387c-.107 0-.225-.005-.266-.135h-.076c0 .129-.01.254-.027.378-.013.128-.034.251-.051.374h.098c.06-.325.1-.43.441-.425v.041c-.338.006-.331.064-.406.409l-.003.016h-.176l.002-.025c.018-.13.041-.26.055-.396.02-.13.028-.258.028-.392v-.02h.145l.003.014c.032.118.117.118.233.12h2.387c.127-.002.22-.004.228-.126l.002-.021.02.004.13.02-.003.021a9.43 9.43 0 0 0-.05.376c-.01.124-.01.25-.01.376v.014l-.012.005-.162.06-.001-.027c-.013-.175-.03-.428-.32-.428h-.731v2.46c.004.35.141.375.36.38h.107v.18h-.02zm.966-.16h.064c.165 0 .34-.023.34-.266v-2.441c0-.243-.175-.266-.34-.266h-.064v-.14c.279 0 .756.018 1.14.018.385 0 .861-.018 1.172-.018-.007.2-.003.508.01.713l-.138.037c-.022-.303-.077-.545-.558-.545h-.636v1.221h.544c.275 0 .335-.158.362-.41h.137a11.246 11.246 0 0 0 0 1.077l-.137.027c-.027-.28-.04-.46-.357-.46h-.55v1.085c0 .303.265.303.559.303.55 0 .792-.038.93-.568l.128.032c-.06.247-.115.494-.155.741-.294 0-.82-.018-1.232-.018-.413 0-.958.018-1.22.018v-.14z"/><path fill="#211E1F" fill-rule="nonzero" d="M33.173 14.434c-.294 0-.82-.02-1.232-.02-.412 0-.957.02-1.218.02h-.02v-.18h.084c.166-.003.316-.018.319-.246v-2.441c-.003-.228-.153-.243-.32-.246h-.083v-.18h.02c.28 0 .756.018 1.14.018.385 0 .86-.018 1.172-.018h.02v.02a7.315 7.315 0 0 0 .01.71v.018l-.016.005-.16.043-.002-.024c-.027-.303-.066-.522-.538-.527h-.617v1.18h.525c.264-.003.311-.14.342-.391l.002-.018h.176v.02a10.634 10.634 0 0 0 0 1.075v.017l-.017.004-.159.033-.002-.022c-.031-.285-.033-.44-.338-.444h-.53v1.066c.001.283.241.281.54.283.551-.003.772-.03.91-.554l.005-.019.02.004.146.038-.004.02c-.06.246-.114.493-.155.74l-.004.016h-.016zm-.016-.04c.04-.236.092-.471.148-.706l-.09-.023c-.138.521-.404.568-.944.564-.289 0-.578 0-.579-.323V12.8h.57c.32-.004.352.193.374.458l.1-.02a9.927 9.927 0 0 1 0-1.041h-.1c-.025.243-.1.413-.379.41h-.565v-1.262h.657c.477-.003.556.247.576.54l.099-.027a8.007 8.007 0 0 1-.01-.677c-.31.002-.774.018-1.151.018s-.84-.016-1.12-.018v.1h.044c.163 0 .358.028.359.286v2.441c0 .257-.196.286-.36.287h-.044v.098c.267 0 .797-.017 1.2-.017.403 0 .92.017 1.215.017zm.79-2.74c0-.34-.183-.353-.325-.353h-.083v-.14c.147 0 .43.018.71.018.275 0 .495-.018.738-.018.577 0 1.09.158 1.09.82 0 .42-.275.676-.636.82l.783 1.193c.128.197.22.253.444.28v.14c-.151 0-.298-.018-.449-.018-.142 0-.289.018-.43.018-.353-.47-.656-.974-.954-1.51h-.301v.997c0 .36.164.373.375.373h.082v.14c-.261 0-.526-.018-.787-.018-.22 0-.436.018-.665.018v-.14h.083c.17 0 .325-.078.325-.251v-2.368zm.587 1.082h.224c.458 0 .705-.177.705-.727 0-.414-.261-.68-.67-.68-.137 0-.195.014-.26.018v1.389h.001z"/><path fill="#211E1F" fill-rule="nonzero" d="M36.668 14.434c-.153 0-.3-.019-.45-.019-.14 0-.286.019-.445.011a13.04 13.04 0 0 1-.949-1.502h-.27v.977c.004.35.143.348.355.353h.102v.18h-.02c-.262 0-.528-.019-.788-.019-.219 0-.434.02-.664.02h-.02v-.181h.103c.165-.001.304-.074.305-.231v-2.368c-.004-.331-.163-.33-.305-.334h-.103v-.18h.02c.149 0 .431.018.71.018.274 0 .494-.019.738-.019.577.002 1.109.164 1.11.84 0 .422-.273.684-.627.831l.77 1.172c.128.194.208.242.43.27l.018.003v.178h-.02zm-2.135-1.55h.314l.005.01c.299.535.6 1.038.937 1.5.14 0 .287-.019.43-.019.146 0 .287.016.43.019v-.102c-.216-.028-.316-.093-.442-.286l-.797-1.214.023-.01c.358-.143.624-.392.624-.802 0-.646-.494-.796-1.07-.799-.242 0-.462.019-.738.019-.269 0-.54-.017-.69-.019v.1h.063c.142 0 .345.023.345.374v2.368c0 .187-.173.272-.345.272h-.063v.099c.22-.001.429-.019.644-.019.256 0 .515.018.768.019v-.099h-.062c-.21 0-.396-.026-.396-.394v-1.017h.02zm0-.128h-.02v-1.427l.018-.002c.062-.005.124-.018.263-.018.417 0 .689.276.69.7-.002.557-.264.746-.726.747h-.225zm.225-.04c.453-.004.681-.165.686-.706-.002-.407-.251-.66-.65-.662-.124 0-.182.012-.24.017v1.35h.204zm5.02.78l.009-.01V11.74c0-.383-.261-.438-.398-.438h-.1v-.14c.214 0 .425.018.64.018.188 0 .375-.018.564-.018v.14h-.069c-.192 0-.407.037-.407.591v2.122c0 .162.004.325.027.47h-.174l-2.36-2.675v1.92c0 .405.079.545.431.545h.078v.14c-.197 0-.394-.018-.59-.018-.207 0-.418.018-.624.018v-.14h.064c.316 0 .413-.219.413-.591V11.72a.415.415 0 0 0-.417-.42h-.06v-.14c.174 0 .353.02.527.02.137 0 .27-.02.408-.02l2.038 2.336z"/><path fill="#211E1F" fill-rule="nonzero" d="M40.044 14.504l-.189-.007-2.325-2.636v1.868c.006.405.066.52.411.525h.097v.18h-.02c-.198 0-.394-.02-.59-.02-.205 0-.417.02-.623.02h-.02v-.18h.084c.302-.002.389-.2.392-.573V11.72c0-.249-.2-.4-.396-.4h-.08v-.18h.02c.175 0 .354.019.527.019.135 0 .267-.019.421-.012l2.014 2.306V11.74c-.001-.37-.245-.417-.379-.418h-.12v-.18h.02c.216 0 .427.018.641.018.187 0 .375-.019.563-.019h.02v.181h-.088c-.189.005-.383.022-.388.572v2.12c0 .163.004.325.027.468l.003.023h-.022zm-.174-.04h.15a3.25 3.25 0 0 1-.024-.45v-2.122c0-.559.232-.61.428-.612h.048v-.099c-.18.002-.36.018-.543.018-.21 0-.415-.016-.622-.018v.099h.081c.141.001.42.064.42.459L39.8 13.5l-.01.01-.013.015-2.039-2.344c-.136 0-.269.018-.407.018-.17 0-.34-.016-.508-.018v.099h.04a.435.435 0 0 1 .437.44v1.961c0 .375-.104.613-.432.614h-.045v.098c.198 0 .402-.017.604-.017.192 0 .382.016.571.017v-.098h-.057c-.361 0-.452-.16-.452-.566v-1.972l2.38 2.706zm-.092-.945l.04-.037-.04.037zm-.005-.023v-.005l-.01-.01.01.015zm1.457.252c-.046.158-.102.28-.102.363 0 .14.193.163.344.163h.05v.14c-.183-.01-.37-.018-.554-.018-.165 0-.33.008-.494.018v-.14h.027c.179 0 .33-.107.398-.303l.734-2.139c.059-.173.142-.406.17-.578.146-.051.33-.144.416-.2.014-.005.022-.01.037-.01.013 0 .022 0 .032.014.014.037.027.08.042.117l.842 2.438c.055.162.11.335.169.475.055.13.152.186.303.186h.027v.14a12.81 12.81 0 0 0-.631-.018c-.225 0-.455.008-.688.018v-.14h.05c.105 0 .285-.018.285-.135 0-.06-.042-.186-.093-.336l-.178-.54h-1.04l-.146.485zm.668-2.065h-.009l-.426 1.319h.856l-.42-1.32z"/><path fill="#211E1F" fill-rule="nonzero" d="M43.67 14.434c-.206-.01-.412-.02-.63-.02-.225 0-.453.01-.688.02l-.02.001v-.182h.07c.106 0 .264-.024.264-.114.001-.053-.04-.18-.09-.33l-.175-.526h-1.01l-.143.47c-.046.16-.101.283-.1.359 0 .113.172.141.324.141h.07v.182l-.02-.001c-.184-.01-.37-.02-.553-.02-.165 0-.33.01-.494.02l-.021.001v-.182h.047c.17 0 .313-.1.379-.289l.733-2.139c.06-.173.143-.405.183-.59.143-.05.327-.144.416-.2.012-.005.025-.011.044-.011.01 0 .036.002.05.027l.042.117.843 2.438c.054.163.109.336.169.473.053.125.137.173.284.174h.047v.182l-.021-.001zm-1.298-.042c.227-.008.449-.017.667-.017.213 0 .412.01.612.017v-.097h-.007c-.157.001-.265-.062-.321-.199-.06-.142-.116-.314-.17-.478l-.843-2.437c-.014-.037-.027-.08-.04-.112-.003-.005-.002-.005-.006-.005h-.008c-.01 0-.015.003-.027.006a1.69 1.69 0 0 1-.408.187c-.028.176-.11.409-.17.582l-.733 2.139c-.07.202-.23.317-.417.317h-.007v.097c.157-.008.315-.017.475-.017.177 0 .358.01.532.017v-.097h-.03c-.148-.002-.357-.019-.362-.183 0-.094.056-.213.101-.37l.02.006-.02-.007.15-.498h1.069l.184.554c.051.15.093.274.093.342-.006.143-.2.153-.304.156h-.03v.097zm-.937-1.37l.439-1.36h.025v.02l-.005.002.005-.001v-.02h.013l.435 1.359h-.912zm.055-.04h.802l-.399-1.25-.403 1.25zm.389-1.287l.03-.01-.03.01zm1.994-.301c-.344 0-.358.084-.427.424h-.137c.018-.13.041-.26.055-.397.019-.13.027-.26.027-.395h.11c.037.14.152.135.275.135h2.364c.123 0 .238-.005.247-.145l.11.019c-.018.126-.036.252-.05.378-.01.125-.01.251-.01.377l-.137.052c-.008-.172-.031-.448-.338-.448h-.752v2.48c0 .359.161.4.38.4h.087v.14c-.178 0-.498-.018-.746-.018-.275 0-.596.018-.774.018v-.14h.086c.253 0 .381-.023.381-.39v-2.49h-.751z"/><path fill="#211E1F" fill-rule="nonzero" d="M45.677 14.434c-.18 0-.5-.019-.746-.019-.274 0-.595.019-.774.019h-.02v-.18h.106c.253-.006.354-.01.36-.37v-2.47h-.73v-.041h.77v2.51c0 .374-.148.41-.4.412h-.067v.1c.181-.003.489-.02.755-.02.239 0 .545.017.726.02v-.1h-.067c-.22-.001-.399-.055-.4-.422v-2.5h.772c.307.001.347.267.356.44l.1-.037c0-.122 0-.243.01-.366.012-.12.03-.24.046-.358l-.07-.012c-.02.136-.15.143-.264.141h-2.387c-.108.002-.225-.005-.267-.136h-.075c0 .13-.01.255-.028.379-.012.128-.034.252-.051.374h.098c.06-.325.1-.43.443-.425v.04c-.34.007-.332.065-.407.41l-.004.016h-.176l.002-.024c.02-.131.042-.261.056-.396.018-.13.027-.26.027-.393v-.02h.145l.004.014c.032.118.116.118.233.12h2.387c.127-.002.22-.004.227-.125l.002-.022.021.004.13.02-.003.021a9.99 9.99 0 0 0-.05.376c-.01.124-.01.25-.01.376v.014l-.013.005-.162.06-.001-.027c-.012-.175-.03-.428-.32-.428h-.73v2.46c.004.35.14.375.359.38h.107v.18h-.02zm.99-.16h.063c.166 0 .339-.023.339-.266v-2.441c0-.243-.173-.266-.339-.266h-.064v-.14c.179 0 .453.018.677.018.23 0 .505-.018.72-.018v.14H48c-.165 0-.34.023-.34.266v2.441c0 .243.175.266.34.266h.064v.14c-.22 0-.495-.018-.723-.018-.225 0-.495.018-.674.018v-.14z"/><path fill="#211E1F" fill-rule="nonzero" d="M48.064 14.434c-.222 0-.496-.02-.724-.02-.224 0-.495.02-.674.02h-.02v-.18h.084c.166-.003.318-.017.318-.246v-2.441c0-.228-.152-.243-.318-.246h-.084v-.18h.02c.18 0 .454.018.677.018.229 0 .504-.018.72-.018h.02v.18h-.084c-.167.003-.317.018-.32.246v2.441c.003.229.153.243.32.246h.084v.18h-.02zm-.021-.04v-.1h-.044c-.164 0-.358-.029-.358-.286v-2.441c0-.258.194-.287.358-.287h.044v-.099c-.212.002-.476.018-.7.018-.216 0-.48-.016-.657-.018v.1h.044c.163 0 .358.028.36.286v2.441c-.002.257-.197.287-.36.287h-.044v.098c.177-.002.436-.017.654-.017.222 0 .487.016.703.017zm1.847-3.303c.977 0 1.755.616 1.755 1.608 0 1.073-.756 1.785-1.73 1.785-.973 0-1.714-.671-1.714-1.673 0-.97.737-1.72 1.69-1.72zm.07 3.188c.888 0 1.043-.798 1.043-1.477 0-.681-.36-1.506-1.122-1.506-.801 0-1.04.727-1.04 1.351 0 .834.376 1.632 1.119 1.632z"/><path fill="#211E1F" fill-rule="nonzero" d="M48.18 12.81c.002-.98.748-1.738 1.71-1.74v.041c-.941 0-1.67.74-1.671 1.7.002.99.733 1.652 1.695 1.652.966 0 1.71-.703 1.712-1.765 0-.98-.767-1.586-1.736-1.587v-.04c.984 0 1.773.622 1.775 1.627-.001 1.084-.767 1.804-1.751 1.806-.98-.002-1.732-.68-1.734-1.693zm.642-.163c.001-.627.242-1.372 1.06-1.372.777.002 1.14.842 1.142 1.527-.002.68-.159 1.496-1.064 1.496v-.04c.87 0 1.022-.777 1.024-1.456 0-.676-.358-1.485-1.102-1.486-.786.001-1.019.71-1.02 1.331 0 .83.372 1.61 1.098 1.612v.04c-.76-.002-1.137-.813-1.138-1.652zm5.91.849l.01-.01V11.74c0-.383-.262-.438-.4-.438h-.1v-.14c.216 0 .426.018.641.018.188 0 .376-.018.564-.018v.14h-.069c-.192 0-.408.037-.408.591v2.122c0 .162.005.325.028.47h-.174l-2.36-2.675v1.92c0 .405.078.545.43.545h.08v.14c-.198 0-.395-.018-.592-.018-.206 0-.417.018-.623.018v-.14h.064c.317 0 .412-.219.412-.591V11.72c0-.261-.21-.42-.416-.42h-.06v-.14c.174 0 .353.02.527.02.137 0 .27-.02.407-.02l2.04 2.336z"/><path fill="#211E1F" fill-rule="nonzero" d="M54.998 14.504l-.19-.007-2.324-2.636v1.868c.005.405.066.52.41.524h.1v.181h-.02c-.2 0-.396-.019-.592-.019-.205 0-.415.019-.624.019h-.019v-.18h.084c.302-.002.39-.2.393-.571V11.72c0-.249-.2-.4-.397-.4h-.08v-.18h.02c.175 0 .354.019.526.019.136 0 .269-.018.424-.011l2.012 2.305V11.74c-.001-.37-.245-.415-.379-.418h-.12v-.18h.02c.216 0 .427.018.64.018.188 0 .375-.018.565-.018h.02v.18h-.09c-.188.005-.382.023-.386.572v2.12c0 .163.003.326.025.468l.004.023h-.022zm-.174-.04h.15a3.265 3.265 0 0 1-.023-.45v-2.122c0-.56.23-.61.427-.612h.05v-.099c-.181.002-.362.018-.545.018-.209 0-.414-.016-.621-.018v.099h.08c.142.001.418.065.418.46l-.005 1.76-.008.01-.015.015-2.038-2.344c-.135 0-.27.018-.408.018-.17 0-.34-.016-.508-.018v.099h.04a.436.436 0 0 1 .437.44v1.963c0 .372-.102.61-.432.612h-.045v.098c.2 0 .403-.017.604-.017.191 0 .381.016.571.017v-.098h-.059c-.36 0-.45-.16-.45-.566v-1.973l2.38 2.707zm-.092-.945l.042-.037-.042.037zm-.004-.023v-.005l-.01-.01.01.015zm1.455.252c-.044.158-.1.28-.1.363 0 .14.193.163.343.163h.051v.14a10.22 10.22 0 0 0-.554-.018c-.166 0-.33.008-.494.018v-.14h.026c.18 0 .331-.107.399-.303l.733-2.139c.06-.173.142-.406.17-.578a2.4 2.4 0 0 0 .417-.2c.013-.005.022-.01.036-.01.014 0 .022 0 .032.014l.041.117.843 2.438c.055.162.11.335.17.475.055.13.151.186.302.186h.028v.14c-.207-.01-.413-.018-.633-.018-.224 0-.453.008-.687.018v-.14h.05c.105 0 .285-.018.285-.135 0-.06-.041-.186-.093-.336l-.177-.54h-1.04l-.148.485zm.67-2.065h-.01l-.426 1.319h.857l-.421-1.32z"/><path fill="#211E1F" fill-rule="nonzero" d="M58.624 14.434c-.206-.008-.412-.019-.63-.019-.224 0-.454.01-.687.019l-.02.001v-.181h.069c.107 0 .264-.025.265-.115 0-.053-.04-.18-.092-.33l-.174-.526h-1.01l-.143.47c-.045.16-.1.283-.099.358 0 .114.171.143.323.143h.07v.181l-.02-.001c-.184-.008-.371-.019-.553-.019-.165 0-.33.01-.494.019l-.02.001v-.181h.046c.17-.001.313-.1.38-.29l.733-2.139c.059-.173.141-.405.182-.59.144-.05.328-.144.417-.2a.1.1 0 0 1 .043-.01.051.051 0 0 1 .05.027c.014.036.027.079.042.116l.843 2.438c.055.163.11.336.169.474.054.124.137.172.283.174h.048v.181l-.021-.001zm-1.298-.041c.226-.009.45-.018.667-.018.213 0 .413.01.613.017l-.001-.097h-.008c-.155 0-.263-.062-.32-.199-.06-.142-.115-.314-.17-.477l-.843-2.438-.038-.11c-.004-.007-.004-.007-.007-.007h-.009c-.01 0-.015.004-.026.007-.089.057-.273.15-.408.186-.029.176-.112.409-.17.582l-.734 2.139c-.07.202-.23.317-.417.317h-.007v.097c.157-.008.315-.017.475-.017.177 0 .358.01.534.017v-.097h-.031c-.149-.002-.358-.018-.363-.184 0-.093.057-.211.102-.37l.018.007-.018-.007.15-.498h1.069l.183.554c.05.15.093.273.093.342-.007.143-.2.153-.304.156h-.03v.098zm-.936-1.371l.44-1.36h.023v.02l-.005.002.005-.001v-.02h.014l.433 1.359h-.91zm.055-.04h.801l-.398-1.249-.403 1.248zm.389-1.287l.026-.01-.026.01zm2.946 2.262c0 .187.127.242.274.261.188.015.394.015.606-.009a.654.654 0 0 0 .438-.252c.074-.102.115-.233.143-.335h.132c-.05.265-.114.527-.17.792-.401 0-.806-.018-1.208-.018-.404 0-.806.018-1.21.018v-.14h.064c.165 0 .345-.023.345-.312v-2.395c0-.243-.18-.266-.345-.266h-.063v-.14c.242 0 .48.018.723.018.234 0 .463-.018.697-.018v.14h-.116c-.173 0-.31.005-.31.251v2.405z"/><path fill="#211E1F" fill-rule="nonzero" d="M61.204 14.434c-.404 0-.807-.019-1.209-.019-.403 0-.807.019-1.21.019h-.02v-.18h.084c.166-.004.323-.016.325-.292v-2.396c-.002-.227-.158-.242-.325-.245h-.084v-.18h.02c.243 0 .482.018.724.018.232 0 .461-.018.697-.018h.018v.18h-.133c-.178.005-.289-.004-.292.231v2.405c.001.174.113.22.256.241a3.543 3.543 0 0 0 .601-.009.635.635 0 0 0 .426-.243c.07-.1.112-.227.139-.33l.004-.015h.173l-.005.025c-.051.267-.114.527-.17.792l-.004.016h-.015zm-.017-.04c.053-.253.113-.5.163-.753h-.095a1.083 1.083 0 0 1-.14.329.676.676 0 0 1-.455.26 3.391 3.391 0 0 1-.608.008c-.15-.017-.294-.081-.293-.28v-2.406c0-.259.16-.272.332-.272h.094v-.099c-.226.002-.448.019-.676.019-.237 0-.47-.017-.704-.019v.1h.044c.163 0 .363.028.363.285v2.396c0 .301-.199.333-.363.333h-.044v.098c.396 0 .792-.017 1.19-.017.398 0 .796.017 1.192.017zm.13-3.366c.277 0 .483.216.483.493 0 .275-.206.49-.482.49a.477.477 0 0 1-.483-.49.48.48 0 0 1 .483-.493zm0 .89a.393.393 0 0 0 .382-.397c0-.212-.163-.4-.381-.4a.394.394 0 0 0-.383.4c0 .21.166.398.383.398zm-.24-.139v-.024c.06-.008.07-.006.07-.044v-.363c0-.051-.005-.068-.067-.066v-.025h.247c.085 0 .162.041.162.13a.153.153 0 0 1-.114.148l.08.113a.5.5 0 0 0 .106.116v.015h-.094c-.045 0-.085-.096-.173-.226h-.054v.163c0 .033.011.03.07.04v.023h-.232zm.163-.258h.057c.062 0 .091-.048.091-.125 0-.079-.045-.106-.094-.106h-.054v.23z"/></g></svg>