<svg xmlns="http://www.w3.org/2000/svg" width="28" height="25"><g fill="none" fill-rule="evenodd"><path d="M-21-21h70v70h-70z"/><path fill="#3D3D3D" fill-rule="nonzero" d="M.854 5.647h25.01c1.18 0 2.136.957 2.136 2.136v14.843c0 1.18-.956 2.136-2.136 2.136H2.136A2.136 2.136 0 0 1 0 22.626V6.502c0-.472.382-.855.854-.855zm1.91 1.738c-.589 0-1.067.478-1.067 1.068v13.503c0 .59.478 1.068 1.068 1.068h22.47c.59 0 1.068-.478 1.068-1.068V8.453c0-.59-.478-1.068-1.068-1.068H2.765z"/><path fill="#3D3D3D" fill-rule="nonzero" d="M20.788 18.246c-1.64 0-2.97-1.362-2.97-3.041 0-1.68 1.33-3.041 2.97-3.041 1.64 0 2.97 1.361 2.97 3.04 0 1.68-1.33 3.042-2.97 3.042zm0-1.738c.703 0 1.273-.584 1.273-1.303 0-.72-.57-1.304-1.273-1.304s-1.273.584-1.273 1.304c0 .72.57 1.303 1.273 1.303zM1.812 3.504L21.298.514a2.136 2.136 0 0 1 2.46 2.11v3.892H0v-.901C0 4.56.77 3.664 1.812 3.504zm.772 1.858a1.068 1.068 0 0 0-.887 1.052v.102h20.364V3.275a1.068 1.068 0 0 0-1.25-1.053L2.584 5.362z"/></g></svg>