<svg xmlns="http://www.w3.org/2000/svg" width="31" height="10"><g fill="none" fill-rule="evenodd"><path d="M-20-30h70v70h-70z"/><path fill="#3D3D3D" d="M.145 9.877H1.35V2.758H.145v7.119zM.747 1.56a.75.75 0 0 0 .755-.74c0-.41-.34-.739-.755-.739A.745.745 0 0 0 0 .822c0 .403.34.739.747.739zm5.904 8.316H2.88V0h3.786C8.375 0 9.53.986 9.53 2.464c0 1.027-.76 1.985-1.723 2.156v.055c1.357.171 2.229 1.116 2.229 2.43 0 1.738-1.26 2.772-3.385 2.772zM4.125 1.088v3.17h1.869c1.474 0 2.277-.582 2.277-1.65 0-.979-.678-1.52-1.89-1.52H4.125zm0 7.7h2.34c1.501 0 2.29-.602 2.29-1.745 0-1.143-.816-1.725-2.408-1.725H4.125v3.47zm9.226.199c1.135 0 2.007-.787 2.007-1.814v-.582l-1.924.117c-.969.061-1.523.486-1.523 1.156 0 .678.575 1.123 1.44 1.123zM13.081 10c-1.433 0-2.395-.856-2.395-2.136 0-1.218.949-1.984 2.61-2.08l2.062-.117v-.595c0-.87-.581-1.39-1.578-1.39-.927 0-1.509.432-1.66 1.13h-1.164c.083-1.232 1.15-2.177 2.852-2.177 1.689 0 2.754.904 2.754 2.32v4.922H15.42V8.652h-.027C14.963 9.466 14.05 10 13.08 10zm4.727-.123h1.205v-4.19c0-1.204.74-1.998 1.875-1.998 1.108 0 1.654.63 1.654 1.78v4.408h1.205v-4.62c0-1.616-.914-2.622-2.492-2.622-1.114 0-1.882.493-2.284 1.26h-.028V2.758h-1.135v7.119zM26.26 5.92V0h-1.204v9.877h1.204V7.194l.671-.63 2.672 3.313H31l-3.218-4.045 3.121-3.074h-1.46l-3.184 3.163z"/></g></svg>