<svg xmlns="http://www.w3.org/2000/svg" width="39" height="31"><g fill="none" fill-rule="evenodd"><path d="M-16-19h70v70h-70z"/><path d="M-4-4h47.935v38.81H-4z"/><path fill="#231F20" fill-rule="nonzero" d="M7.87 29.927v-1.934a1.139 1.139 0 0 0-.334-.886 1.17 1.17 0 0 0-.894-.339c-.44-.028-.86.182-1.098.548a1.15 1.15 0 0 0-1.031-.548 1.036 1.036 0 0 0-.915.458v-.38H2.92v3.08h.686v-1.695a.716.716 0 0 1 .187-.587.736.736 0 0 1 .577-.231c.45 0 .68.29.68.812v1.715h.685v-1.71a.72.72 0 0 1 .188-.585.74.74 0 0 1 .576-.233c.464 0 .686.29.686.812v1.715l.685-.013zm10.145-3.082h-1.117v-.934h-.686v.934h-.62v.613h.633v1.418c0 .716.281 1.141 1.084 1.141.3.001.595-.082.85-.238l-.197-.574a1.266 1.266 0 0 1-.6.174c-.327 0-.451-.206-.451-.516v-1.405h1.11l-.006-.613zm5.792-.077a.924.924 0 0 0-.823.451v-.374h-.672v3.082h.679v-1.728c0-.51.222-.793.653-.793.145-.002.29.025.425.078l.209-.645a1.47 1.47 0 0 0-.484-.084l.013.013zm-8.757.322a2.359 2.359 0 0 0-1.274-.322c-.79 0-1.306.374-1.306.986 0 .503.379.813 1.078.91l.326.044c.373.052.549.149.549.323 0 .238-.248.374-.712.374a1.677 1.677 0 0 1-1.038-.323l-.327.522c.396.273.87.413 1.352.4.901 0 1.424-.419 1.424-1.005 0-.587-.412-.826-1.091-.922l-.327-.045c-.293-.04-.528-.097-.528-.303 0-.207.222-.361.594-.361.344.004.681.095.98.264l.3-.542zm18.19-.322a.924.924 0 0 0-.822.451v-.374h-.673v3.082h.68v-1.728c0-.51.222-.793.653-.793.145-.002.29.025.424.078l.209-.645a1.47 1.47 0 0 0-.483-.084l.013.013zm-8.75 1.612c-.017.438.155.862.472 1.169.317.306.75.467 1.193.442.408.02.809-.11 1.123-.367l-.326-.542a1.383 1.383 0 0 1-.816.278.995.995 0 0 1-.922-.987c0-.515.4-.944.922-.986.295.003.581.1.816.277l.326-.541a1.647 1.647 0 0 0-1.123-.368 1.589 1.589 0 0 0-1.193.443 1.546 1.546 0 0 0-.472 1.169v.013zm6.36 0v-1.535h-.679v.374a1.191 1.191 0 0 0-.98-.45c-.9 0-1.632.72-1.632 1.61 0 .89.731 1.612 1.633 1.612.38.014.745-.154.98-.451v.374h.679V28.38zm-2.527 0a.94.94 0 0 1 .978-.876.937.937 0 0 1 .908.946.938.938 0 0 1-.939.916.943.943 0 0 1-.692-.289.918.918 0 0 1-.255-.697zm-8.196-1.612a1.622 1.622 0 0 0-1.61 1.634c.013.89.754 1.602 1.656 1.59.47.023.932-.126 1.296-.42l-.326-.496a1.498 1.498 0 0 1-.908.322.862.862 0 0 1-.934-.754h2.319v-.258c0-.967-.608-1.611-1.483-1.611l-.01-.007zm0 .6a.78.78 0 0 1 .552.212.76.76 0 0 1 .239.535h-1.633a.8.8 0 0 1 .83-.747h.012zm17.016 1.018v-2.778h-.653v1.611a1.191 1.191 0 0 0-.98-.45 1.62 1.62 0 0 0-1.632 1.61c0 .89.73 1.612 1.632 1.612.381.014.746-.154.98-.451v.374h.653v-1.528zm1.133 1.093a.33.33 0 0 1 .225.087.296.296 0 0 1 0 .432.327.327 0 0 1-.101.064.31.31 0 0 1-.124.026.327.327 0 0 1-.294-.187.3.3 0 0 1 .17-.4.33.33 0 0 1 .134-.022h-.01zm0 .544a.234.234 0 0 0 .17-.07.236.236 0 0 0 0-.323.242.242 0 0 0-.17-.07.248.248 0 0 0-.173.07.236.236 0 0 0 0 .323c.022.022.049.04.078.051.033.014.069.02.105.02h-.01zm.02-.383c.03-.002.06.008.084.026a.08.08 0 0 1 .03.067.077.077 0 0 1-.023.058.115.115 0 0 1-.069.03l.095.106h-.075l-.088-.107h-.03v.107h-.062v-.284l.138-.003zm-.072.055v.077h.072a.07.07 0 0 0 .039 0 .032.032 0 0 0 0-.029.032.032 0 0 0 0-.029.07.07 0 0 0-.04 0l-.071-.02zm-3.592-1.309a.94.94 0 0 1 .977-.876c.513.02.917.44.908.946a.938.938 0 0 1-.938.916.943.943 0 0 1-.692-.288.918.918 0 0 1-.255-.698zm-22.932 0v-1.54h-.68v.373a1.191 1.191 0 0 0-.98-.45c-.9 0-1.632.72-1.632 1.61 0 .89.731 1.612 1.633 1.612.38.014.745-.154.98-.451v.374h.679v-1.528zm-2.528 0a.94.94 0 0 1 .978-.876c.513.02.916.44.908.946a.938.938 0 0 1-.939.916.943.943 0 0 1-.696-.286.918.918 0 0 1-.257-.7h.006z"/><g fill-rule="nonzero"><path fill="#FF5F00" d="M14.825 3.365h10.286v18.246H14.825z"/><path fill="#EB001B" d="M15.478 12.49a11.53 11.53 0 0 1 4.49-9.125C15.147-.374 8.226.171 4.067 4.616a11.493 11.493 0 0 0 0 15.744c4.159 4.446 11.08 4.99 15.9 1.251a11.53 11.53 0 0 1-4.49-9.121z"/><path fill="#F79E1B" d="M38.988 12.49c0 4.442-2.57 8.495-6.618 10.436a11.88 11.88 0 0 1-12.403-1.315 11.55 11.55 0 0 0 4.492-9.123 11.55 11.55 0 0 0-4.492-9.123A11.88 11.88 0 0 1 32.37 2.05c4.048 1.942 6.618 5.994 6.618 10.437v.003z"/></g></g></svg>