<svg xmlns="http://www.w3.org/2000/svg" xmlns:xlink="http://www.w3.org/1999/xlink" width="38" height="31"><defs><path id="a" d="M16 50.588h37.727V20H16z"/></defs><g fill="none" fill-rule="evenodd" transform="translate(-16 -20)"><path d="M0 0h70v70H0z"/><path fill="#000" d="M22.69 49.502v-1.895c0-.714-.45-1.195-1.175-1.201-.381-.007-.774.113-1.049.537-.207-.335-.531-.537-.987-.537-.32 0-.631.095-.876.449v-.373h-.65v3.02h.657v-1.675c0-.524.288-.802.731-.802.431 0 .65.284.65.796v1.681h.656v-1.675c0-.524.3-.802.731-.802.444 0 .656.284.656.796v1.681h.656zm9.71-3.02h-1.062v-.916h-.656v.916h-.606v.6h.606v1.377c0 .701.269 1.119 1.038 1.119.28 0 .605-.09.811-.234l-.187-.562a1.19 1.19 0 0 1-.575.17c-.325 0-.431-.202-.431-.505v-1.365H32.4v-.6zm5.542-.076c-.374 0-.618.177-.786.442v-.366h-.645v3.02h.65v-1.693c0-.5.213-.777.639-.777.13 0 .268.018.405.076l.2-.62a1.382 1.382 0 0 0-.463-.082zm-8.378.316c-.313-.208-.743-.316-1.219-.316-.756 0-1.243.366-1.243.966 0 .493.362.797 1.03.892l.307.044c.356.05.525.145.525.315 0 .235-.238.367-.681.367-.45 0-.775-.145-.994-.316l-.306.512c.356.265.806.392 1.294.392.862 0 1.361-.411 1.361-.986 0-.53-.393-.808-1.043-.904l-.306-.044c-.281-.037-.506-.094-.506-.297 0-.22.212-.354.568-.354.382 0 .75.146.932.26l.28-.53zm4.86-.316c.838 0 1.413.644 1.419 1.586 0 .088-.006.17-.012.253h-2.218c.093.543.475.739.893.739.3 0 .619-.114.869-.317l.319.487c-.363.31-.775.424-1.226.424-.893 0-1.53-.627-1.53-1.586 0-.942.612-1.586 1.487-1.586zm-.011.587c-.462 0-.725.297-.795.734h1.55c-.068-.468-.337-.734-.755-.734zm-8.061.999v1.51h-.65v-.367c-.206.272-.519.443-.944.443-.836 0-1.493-.664-1.493-1.586s.657-1.586 1.493-1.586c.425 0 .738.17.944.442v-.366h.65v1.51zm-2.418 0c0 .53.343.966.906.966.537 0 .9-.417.9-.966 0-.55-.363-.967-.9-.967-.563 0-.906.436-.906.967zm21.663 0v1.51h-.65v-.367c-.206.272-.518.443-.943.443-.838 0-1.494-.664-1.494-1.586s.656-1.586 1.494-1.586c.425 0 .737.17.943.442v-.366h.65v1.51zm-2.417 0c0 .53.342.966.905.966.537 0 .9-.417.9-.966 0-.55-.363-.967-.9-.967-.563 0-.905.436-.905.967zm-4.23-.007v-1.51h.649v.367c.206-.272.519-.443.944-.443.837 0 1.493.664 1.493 1.586 0 .923-.656 1.586-1.493 1.586-.425 0-.738-.17-.944-.442v1.46h-.65v-2.604zm2.417 0c0-.53-.344-.966-.906-.966-.538 0-.9.417-.9.966 0 .55.362.966.9.966.562 0 .906-.435.906-.966zm7.442-1.257c-.313-.209-.744-.316-1.218-.316-.757 0-1.244.366-1.244.966 0 .493.362.797 1.031.892l.306.044c.356.05.525.145.525.316 0 .234-.237.367-.681.367-.45 0-.775-.146-.994-.316l-.306.511c.356.265.806.392 1.293.392.863 0 1.363-.41 1.363-.986 0-.53-.394-.808-1.044-.903l-.305-.044c-.281-.038-.508-.096-.508-.297 0-.222.214-.354.57-.354.381 0 .75.145.931.26l.281-.532zm3.118 0c-.312-.209-.743-.316-1.218-.316-.756 0-1.245.366-1.245.966 0 .493.364.797 1.032.892l.307.044c.355.05.524.145.524.316 0 .234-.237.367-.68.367-.451 0-.776-.146-.994-.316l-.307.511c.356.265.807.392 1.293.392.863 0 1.363-.41 1.363-.986 0-.53-.394-.808-1.043-.903l-.307-.044c-.28-.038-.506-.096-.506-.297 0-.222.212-.354.569-.354.381 0 .75.145.93.26l.282-.532zm.605 2.778v-.38h-.151v-.077h.384v.078h-.15v.379h-.083zm.83 0v-.457h-.117l-.136.314-.137-.314h-.117v.457h.083v-.345l.128.298h.086l.127-.3v.347h.083z"/><mask id="b" fill="#fff"><use xlink:href="#a"/></mask><path fill="#FF5F00" mask="url(#b)" d="M29.762 41.056h10.202V22.52H29.762z"/><path fill="#EB001B" d="M30.41 31.789c0-3.76 1.741-7.11 4.453-9.269A11.527 11.527 0 0 0 27.658 20C21.22 20 16 25.279 16 31.789s5.22 11.788 11.658 11.788c2.72 0 5.222-.94 7.205-2.52a11.816 11.816 0 0 1-4.453-9.268" mask="url(#b)"/><path fill="#F79E1B" d="M53.727 31.804c0 6.51-5.22 11.789-11.658 11.789-2.72 0-5.223-.942-7.206-2.52a11.816 11.816 0 0 0 4.453-9.269c0-3.76-1.741-7.11-4.453-9.268a11.528 11.528 0 0 1 7.206-2.52c6.438 0 11.658 5.277 11.658 11.788zm-1.113 7.305v-.38h.152v-.076h-.385v.077h.151v.379h.082zm.748 0v-.458h-.117l-.136.315-.137-.315h-.117v.458h.083v-.345l.127.297h.087l.128-.297v.345h.082z" mask="url(#b)"/></g></svg>