<svg xmlns="http://www.w3.org/2000/svg" width="49" height="16"><g fill="none" fill-rule="evenodd"><path d="M-11-27h70v70h-70z"/><path fill="#F79E1B" fill-rule="nonzero" d="M4.276 10.834a3.405 3.405 0 0 0-.785-.373 2.752 2.752 0 0 0-.855-.132 2.19 2.19 0 0 0-.535.061 1.317 1.317 0 0 0-.416.178.87.87 0 0 0-.27.28.707.707 0 0 0-.095.366.58.58 0 0 0 .083.324.682.682 0 0 0 .24.22c.12.067.248.117.381.15.168.042.338.076.51.1l.403.055c.234.033.466.085.692.156a2.1 2.1 0 0 1 .602.295c.175.124.32.287.426.476.112.214.167.455.16.697a1.64 1.64 0 0 1-.19.798c-.124.23-.298.43-.508.583a2.339 2.339 0 0 1-.747.36 3.22 3.22 0 0 1-.9.123 3.902 3.902 0 0 1-.614-.052 4.264 4.264 0 0 1-.641-.149 3.787 3.787 0 0 1-.576-.25 2.56 2.56 0 0 1-.51-.346l.51-.762c.11.1.231.187.361.26a3.149 3.149 0 0 0 1.477.391c.179.003.357-.016.532-.055a1.44 1.44 0 0 0 .432-.171.92.92 0 0 0 .291-.276.654.654 0 0 0 .11-.373.575.575 0 0 0-.321-.528 2.982 2.982 0 0 0-1-.273l-.454-.064a3.513 3.513 0 0 1-.64-.153 1.84 1.84 0 0 1-.555-.298 1.454 1.454 0 0 1-.394-.483 1.53 1.53 0 0 1-.16-.7 1.663 1.663 0 0 1 .183-.788c.12-.229.29-.427.496-.58.222-.163.47-.284.734-.357.291-.084.593-.125.896-.123a3.663 3.663 0 0 1 2.117.638l-.47.775zm3.186.454c.263-.002.524.05.766.156.227.1.43.247.596.434.17.197.302.424.387.671.097.278.144.571.141.866v.33H6.38c.021.166.073.325.154.47a1.065 1.065 0 0 0 .628.509c.132.04.27.06.41.059.205-.002.409-.04.601-.114.201-.076.389-.186.554-.324l.433.632a2.168 2.168 0 0 1-.778.444 2.923 2.923 0 0 1-.868.127 2.19 2.19 0 0 1-.827-.152 1.875 1.875 0 0 1-.64-.432 1.948 1.948 0 0 1-.423-.67 2.432 2.432 0 0 1-.15-.876 2.465 2.465 0 0 1 .147-.866c.09-.25.23-.48.41-.674.18-.19.399-.337.64-.434a2.07 2.07 0 0 1 .791-.16v.004zm-.016.788a1.125 1.125 0 0 0-.416.071.902.902 0 0 0-.32.204c-.09.094-.163.204-.215.325a1.518 1.518 0 0 0-.118.402h2.075a1.272 1.272 0 0 0-.32-.736.923.923 0 0 0-.689-.27l.003.004zm4.641-.788c.288-.003.573.052.84.162.248.107.467.273.64.483l-.56.603a1.68 1.68 0 0 0-.443-.324 1.204 1.204 0 0 0-.519-.107 1.15 1.15 0 0 0-.467.094 1.115 1.115 0 0 0-.368.282 1.231 1.231 0 0 0-.25.409c-.12.34-.12.713 0 1.053.055.153.14.293.25.412a1.118 1.118 0 0 0 .842.36c.189 0 .375-.043.544-.127.162-.076.311-.178.442-.301l.542.626c-.18.21-.406.376-.66.483-.265.11-.55.165-.836.162a2.23 2.23 0 0 1-.865-.162 1.934 1.934 0 0 1-1.089-1.132 2.46 2.46 0 0 1 0-1.692c.189-.51.58-.917 1.08-1.122.277-.113.574-.17.874-.165l.003.003zm5.973 2.438c.008.285-.047.569-.16.83a1.62 1.62 0 0 1-.416.567 1.669 1.669 0 0 1-.593.324 2.314 2.314 0 0 1-1.37 0 1.574 1.574 0 0 1-1.012-.892 1.999 1.999 0 0 1-.158-.829v-2.334h.878v2.27c-.004.168.02.336.074.495a.867.867 0 0 0 .208.324c.09.087.2.15.32.185.25.076.518.076.769 0a.786.786 0 0 0 .32-.185.867.867 0 0 0 .208-.324c.055-.16.08-.327.077-.496v-2.27h.878l-.023 2.335zm3.187-2.438c.121 0 .242.01.362.03.11.017.217.046.32.087l-.208.875a1.232 1.232 0 0 0-.32-.11 1.687 1.687 0 0 0-.343-.039 1.004 1.004 0 0 0-.384.071.813.813 0 0 0-.301.211.995.995 0 0 0-.196.344 1.39 1.39 0 0 0-.07.46v2.227h-.89v-4.052h.864v.457c.123-.186.295-.334.497-.428.21-.093.437-.14.666-.136l.003.003zm2.93 0c.263-.002.524.05.766.156.227.1.43.247.596.434.176.195.313.423.403.671.097.278.144.571.141.866v.33h-2.991c.021.166.073.325.153.47a1.065 1.065 0 0 0 .628.509c.133.04.271.06.41.059.206-.002.41-.04.602-.114.201-.076.389-.186.554-.324l.436.63a2.165 2.165 0 0 1-.778.443 2.923 2.923 0 0 1-.868.127 2.19 2.19 0 0 1-.827-.153 1.875 1.875 0 0 1-.64-.43 1.948 1.948 0 0 1-.423-.672 2.432 2.432 0 0 1-.15-.875 2.465 2.465 0 0 1 .147-.866c.088-.25.226-.479.403-.674.18-.19.4-.338.64-.435a2.06 2.06 0 0 1 .795-.155l.003.003zm-.016.788a1.125 1.125 0 0 0-.416.071.902.902 0 0 0-.32.204c-.09.094-.163.204-.215.325a1.521 1.521 0 0 0-.118.402h2.081a1.272 1.272 0 0 0-.32-.736.923.923 0 0 0-.695-.27l.003.004zM29.833 9.4c.254 0 .506.028.753.085.234.054.461.136.676.246.205.105.396.237.567.392.167.15.31.325.426.519l-.788.532a1.93 1.93 0 0 0-.689-.626 1.947 1.947 0 0 0-.96-.227 2.152 2.152 0 0 0-.827.156 1.92 1.92 0 0 0-.64.44 2.032 2.032 0 0 0-.433.681 2.522 2.522 0 0 0 0 1.75c.098.255.245.486.433.682.181.19.4.34.64.44.263.106.544.16.826.156a1.915 1.915 0 0 0 1.63-.85l.77.571a2.544 2.544 0 0 1-.443.5 2.748 2.748 0 0 1-.544.389 2.93 2.93 0 0 1-.66.24 3.394 3.394 0 0 1-1.973-.15 2.842 2.842 0 0 1-1.601-1.62 3.45 3.45 0 0 1 0-2.451 2.842 2.842 0 0 1 1.601-1.621 3.235 3.235 0 0 1 1.236-.234zm5.157 1.874c.294-.003.585.052.858.162a2.057 2.057 0 0 1 1.134 1.122 2.28 2.28 0 0 1 0 1.692 2.057 2.057 0 0 1-1.134 1.122 2.343 2.343 0 0 1-1.716 0 2.067 2.067 0 0 1-.683-.448 2.068 2.068 0 0 1-.46-.66 2.279 2.279 0 0 1 0-1.693 2.07 2.07 0 0 1 .448-.674c.195-.194.427-.346.682-.448a2.22 2.22 0 0 1 .874-.165l-.003-.01zm0 .833c-.17-.001-.339.03-.497.094a1.171 1.171 0 0 0-.66.675 1.503 1.503 0 0 0 0 1.053 1.178 1.178 0 0 0 .66.674c.32.127.674.127.993 0 .303-.12.543-.36.666-.664.129-.34.129-.714 0-1.054a1.197 1.197 0 0 0-.666-.674 1.287 1.287 0 0 0-.493-.094l-.003-.01zm4.782-.833c.49-.019.959.203 1.258.597V9.343h.875v6.098h-.875v-.486a1.55 1.55 0 0 1-.519.43 1.57 1.57 0 0 1-.74.163 1.939 1.939 0 0 1-1.418-.6 2.043 2.043 0 0 1-.426-.684 2.45 2.45 0 0 1 0-1.712c.096-.25.241-.48.426-.674a1.939 1.939 0 0 1 1.419-.6v-.003zm.105.833a1.135 1.135 0 0 0-.884.383c-.104.12-.185.26-.237.412a1.558 1.558 0 0 0 0 1.005c.052.151.133.29.237.411.106.119.234.214.378.28.32.134.68.134 1 0 .144-.064.273-.157.38-.273a1.23 1.23 0 0 0 .244-.386 1.558 1.558 0 0 0 0-1.03 1.235 1.235 0 0 0-.247-.41 1.147 1.147 0 0 0-.38-.272 1.198 1.198 0 0 0-.49-.11v-.01zm4.932-.833c.263-.002.524.05.766.156.227.1.43.247.596.434.17.197.302.424.387.671.097.278.144.571.141.866v.33h-2.956c.02.166.073.325.154.47a1.062 1.062 0 0 0 .628.509c.132.04.27.06.41.059.205-.002.409-.04.601-.114.201-.076.389-.186.555-.324l.435.63c-.226.2-.491.351-.778.443a2.92 2.92 0 0 1-.868.127 2.19 2.19 0 0 1-.826-.153 1.875 1.875 0 0 1-.641-.43 1.948 1.948 0 0 1-.423-.672 2.432 2.432 0 0 1-.15-.875 2.465 2.465 0 0 1 .147-.866c.09-.25.23-.48.41-.674a1.8 1.8 0 0 1 .64-.434c.247-.097.509-.145.772-.143v-.01zm2.31 4.156v-.194h.08v-.042h-.209v.042h.09v.204l.039-.01zm.4 0v-.246h-.064l-.074.168-.073-.168h-.065v.246h.045v-.185l.068.16h.044l.068-.16v.185h.05zm-2.726-3.368a1.125 1.125 0 0 0-.416.071.902.902 0 0 0-.32.204c-.09.095-.163.204-.215.325a1.525 1.525 0 0 0-.118.402h2.075a1.272 1.272 0 0 0-.32-.746.922.922 0 0 0-.686-.246v-.01z"/><path fill="#EB001B" fill-rule="nonzero" d="M7.148 7.09h-.98V2.04l-1.77 4.444H3.365L1.601 2.088V7.09H.615V.953h1.502L3.882 5.34 5.643.953h1.502l.003 6.137zm5.157 0h-.906v-.503c-.145.188-.329.34-.539.448-.238.116-.5.173-.765.165a2.009 2.009 0 0 1-1.473-.622 2.124 2.124 0 0 1-.442-.7 2.541 2.541 0 0 1 0-1.777c.1-.26.25-.499.442-.7a2.009 2.009 0 0 1 1.473-.623c.265-.007.527.051.765.169.21.109.394.263.539.45v-.505h.906V7.09zM10.2 3.644a1.176 1.176 0 0 0-.916.396 1.3 1.3 0 0 0-.247.427 1.613 1.613 0 0 0 0 1.044c.055.158.14.303.25.428.109.123.242.221.39.289.333.14.706.14 1.038 0 .15-.066.283-.162.394-.282a1.3 1.3 0 0 0 .256-.425 1.62 1.62 0 0 0 0-1.07 1.3 1.3 0 0 0-.256-.425 1.192 1.192 0 0 0-.91-.382zm6.258.298a2.49 2.49 0 0 0-.554-.237 3.205 3.205 0 0 0-.359-.087 2.099 2.099 0 0 0-.384-.036 1.03 1.03 0 0 0-.58.14.42.42 0 0 0-.205.363.304.304 0 0 0 .055.185.418.418 0 0 0 .144.123.877.877 0 0 0 .217.078c.084.019.173.036.27.051l.429.065c.381.04.746.179 1.06.402.263.198.413.515.4.846.002.193-.042.383-.128.555-.09.165-.216.308-.368.418a1.79 1.79 0 0 1-.593.282 2.92 2.92 0 0 1-.8.1c-.107 0-.231-.006-.372-.019a3.07 3.07 0 0 1-.938-.243 2.235 2.235 0 0 1-.471-.276l.42-.687c.077.06.158.116.243.165.095.055.194.1.298.137.12.041.243.073.368.094a2.8 2.8 0 0 0 .458.035c.243.014.485-.034.704-.14a.418.418 0 0 0 .24-.372.348.348 0 0 0-.172-.295 1.35 1.35 0 0 0-.545-.169l-.432-.058a1.981 1.981 0 0 1-1.05-.408 1.04 1.04 0 0 1-.363-.824 1.287 1.287 0 0 1 .122-.564c.08-.167.197-.313.343-.425.162-.12.344-.211.538-.265.232-.066.473-.098.714-.094.311-.002.621.037.923.116.268.068.524.177.759.324l-.391.72zm4.298-.22h-1.601V5.55c0 .124.02.246.06.363a.69.69 0 0 0 .141.243.55.55 0 0 0 .208.14c.084.03.171.046.26.045.148-.001.294-.03.432-.084.141-.053.276-.12.404-.201l.359.732a2.78 2.78 0 0 1-.564.295 1.933 1.933 0 0 1-.708.124c-.403.023-.8-.12-1.095-.4a1.696 1.696 0 0 1-.397-1.237V3.725h-.824v-.833h.824V1.62h.91v1.27h1.6l-.01.83zm2.786-.944c.273-.003.544.05.795.16.235.102.446.256.618.45.177.204.314.44.403.697.1.288.148.592.144.898v.34H22.42c.023.171.077.336.16.486a1.143 1.143 0 0 0 .65.516c.139.041.282.062.426.061.22.001.436-.039.64-.116a2.01 2.01 0 0 0 .574-.324l.452.648c-.235.208-.51.365-.807.46-.292.09-.595.134-.9.133a2.265 2.265 0 0 1-.875-.142A1.942 1.942 0 0 1 21.628 5.9a2.524 2.524 0 0 1-.157-.908c-.004-.306.047-.61.15-.898.095-.26.24-.498.427-.7.18-.194.398-.347.64-.45.271-.113.562-.168.855-.162v-.004zm-.016.817a1.166 1.166 0 0 0-.432.075.934.934 0 0 0-.32.214 1.125 1.125 0 0 0-.225.324 1.58 1.58 0 0 0-.13.425h2.151a1.304 1.304 0 0 0-.346-.762.955.955 0 0 0-.698-.276zm5.125-.817c.125 0 .25.01.374.03.11.019.217.05.32.09l-.217.908a1.27 1.27 0 0 0-.32-.114 1.773 1.773 0 0 0-.356-.038 1.042 1.042 0 0 0-.397.074.842.842 0 0 0-.32.22 1.034 1.034 0 0 0-.205.357 1.442 1.442 0 0 0-.074.477v2.311h-.906V2.88h.896v.473c.127-.188.302-.338.506-.434.218-.095.453-.141.689-.136l.01-.004zm3.097 0c.298-.003.594.054.87.169.264.109.497.282.68.502l-.58.626a1.739 1.739 0 0 0-.458-.324 1.268 1.268 0 0 0-.538-.114 1.195 1.195 0 0 0-.484.098c-.147.063-.28.157-.39.275-.112.123-.2.268-.257.425a1.64 1.64 0 0 0 0 1.092c.058.158.145.302.257.425a1.175 1.175 0 0 0 .874.373c.193.002.383-.04.557-.123.169-.084.323-.193.458-.325l.558.633a1.83 1.83 0 0 1-.686.502 2.2 2.2 0 0 1-.868.169 2.297 2.297 0 0 1-.896-.169 2.015 2.015 0 0 1-1.131-1.164 2.541 2.541 0 0 1 0-1.754c.199-.53.61-.953 1.13-1.163.286-.109.59-.16.894-.15l.01-.003zm6.364 4.312h-.907v-.503c-.145.188-.328.34-.538.448-.238.116-.5.173-.765.165a2.009 2.009 0 0 1-1.474-.622 2.124 2.124 0 0 1-.442-.7 2.541 2.541 0 0 1 0-1.777c.1-.26.25-.499.442-.7a2.009 2.009 0 0 1 1.474-.623c.264-.007.527.051.765.169.21.109.393.263.538.45v-.505h.907V7.09zm-2.101-3.446a1.176 1.176 0 0 0-.916.396 1.3 1.3 0 0 0-.247.427 1.613 1.613 0 0 0 0 1.044 1.3 1.3 0 0 0 .247.428c.109.123.242.221.39.289.332.14.706.14 1.038 0a1.198 1.198 0 0 0 .65-.707 1.613 1.613 0 0 0 0-1.07 1.28 1.28 0 0 0-.256-.425 1.192 1.192 0 0 0-.903-.382h-.003zm5.537-.862c.126-.001.25.008.375.029.11.019.217.05.32.09l-.218.908a1.27 1.27 0 0 0-.32-.113 1.78 1.78 0 0 0-.356-.04 1.04 1.04 0 0 0-.397.075.842.842 0 0 0-.32.22 1.034 1.034 0 0 0-.205.357 1.442 1.442 0 0 0-.074.477v2.311h-.906V2.882h.906v.473a1.25 1.25 0 0 1 .51-.437 1.63 1.63 0 0 1 .688-.136h-.003zm2.972 0c.265-.008.528.05.766.168.21.11.393.263.538.45V.779h.906V7.09h-.906v-.503c-.145.188-.329.34-.538.448a1.64 1.64 0 0 1-.766.165 2.009 2.009 0 0 1-1.473-.622 2.126 2.126 0 0 1-.452-.7 2.541 2.541 0 0 1 0-1.777c.1-.26.25-.499.442-.7a2.009 2.009 0 0 1 1.474-.623l.01.004zm3.267 3.922a.263.263 0 0 1 .25.162.266.266 0 0 1-.144.35.269.269 0 0 1-.356-.14.266.266 0 0 1 .144-.35.27.27 0 0 1 .11-.022h-.004zm0 .477a.193.193 0 0 0 .144-.062.213.213 0 0 0-.064-.34.196.196 0 0 0-.08 0 .206.206 0 0 0-.08 0 .21.21 0 0 0-.064.324c.018.019.04.034.064.045a.203.203 0 0 0 .083.03l-.003.003zm0-.324a.111.111 0 0 1 .074.022.072.072 0 0 1 .025.059.069.069 0 0 1-.019.051.096.096 0 0 1-.058.026l.08.094h-.064l-.073-.094h-.023v.094h-.05v-.25l.108-.002zm-.06.045v.065h.06c.01.003.022.003.032 0a.03.03 0 0 0 0-.026.026.026 0 0 0 0-.026.06.06 0 0 0-.032 0l-.06-.013zM44.613 3.66a1.176 1.176 0 0 0-.916.396 1.3 1.3 0 0 0-.247.427 1.613 1.613 0 0 0 0 1.044 1.3 1.3 0 0 0 .247.428c.11.123.242.221.39.289.333.14.706.14 1.038 0 .15-.066.284-.162.394-.282a1.28 1.28 0 0 0 .28-.45 1.617 1.617 0 0 0 0-1.07 1.28 1.28 0 0 0-.257-.425 1.192 1.192 0 0 0-.394-.282 1.236 1.236 0 0 0-.516-.091l-.019.016z"/></g></svg>