<svg xmlns="http://www.w3.org/2000/svg" width="51" height="15"><defs><linearGradient id="a" x1="30.006%" y1="50%" y2="50%"><stop offset="0%" stop-color="#13AAE3"/><stop offset="100%" stop-color="#0076D0"/></linearGradient></defs><g fill="none" fill-rule="evenodd"><path d="M-10-27h70v70h-70z"/><path fill="#319B42" fill-rule="nonzero" d="M13.838.385v.006c-.006 0-1.966-.006-2.488 1.9C10.87 4.04 9.52 8.868 9.483 9H9.11S7.73 4.065 7.244 2.285C6.72.38 4.755.385 4.755.385H.276V14.89h4.48V6.276h.373l2.613 8.614h3.11l2.613-8.608h.373v8.608h4.48V.385h-4.48zm16.362 0s-1.313.12-1.929 1.52L25.1 9h-.374V.385h-4.479V14.89h4.23s1.375-.126 1.991-1.52l3.11-7.094h.374v8.614h4.48V.385H30.2zm6.221 6.587v7.918h4.48v-4.624h4.852c2.115 0 3.907-1.375 4.573-3.294H36.42z"/><path fill="url(#a)" fill-rule="nonzero" d="M10.016 0H.056C.554 2.762 2.588 4.979 5.22 5.7a7.038 7.038 0 0 0 1.872.254h7.677c.069-.33.1-.665.1-1.013C14.869 2.21 12.698 0 10.016 0z" transform="translate(35.737 .385)"/></g></svg>