<svg xmlns="http://www.w3.org/2000/svg" width="64" height="16" viewBox="0 0 64 16">
  <g fill="none" fill-rule="evenodd" transform="translate(-3 -27)">
    <rect width="70" height="70"/>
    <path fill="#253B80" fill-rule="nonzero" d="M26.8359871 30.475963L23.3534206 30.475963C23.1151049 30.475963 22.9124347 30.646869 22.8752615 30.8791001L21.4667546 39.6943327C21.4387474 39.8682547 21.5752188 40.0250861 21.7539555 40.0250861L23.4165641 40.0250861C23.6548798 40.0250861 23.85755 39.85418 23.8947232 39.6214463L24.2746025 37.2438418C24.3112664 37.011108 24.5144458 36.8402019 24.7522523 36.8402019L25.8547171 36.8402019C28.1487604 36.8402019 29.4727366 35.7443927 29.818498 33.5728808 29.9743199 32.6228443 29.8251179 31.8763871 29.3744568 31.3536157 28.8794934 30.7795725 28.0015953 30.475963 26.8359871 30.475963L26.8359871 30.475963zM27.237763 33.695531C27.0473141 34.9290704 26.0925235 34.9290704 25.1693048 34.9290704L24.6437882 34.9290704 25.0124646 32.6253576C25.0343611 32.4861195 25.1565743 32.3835759 25.2991564 32.3835759L25.5400182 32.3835759C26.1689069 32.3835759 26.76215 32.3835759 27.0687014 32.7374519 27.2515119 32.9485711 27.3075263 33.2622339 27.237763 33.695531L27.237763 33.695531zM37.2460043 33.6558205L35.5783036 33.6558205C35.4362307 33.6558205 35.3135083 33.7583641 35.2916118 33.8976022L35.2177746 34.3580432 35.1011629 34.1911585C34.7401248 33.6739164 33.9350454 33.5009997 33.1314938 33.5009997 31.2886208 33.5009997 29.7146168 34.878804 29.4080654 36.8115501 29.248679 37.7756611 29.4752826 38.6975484 30.0293158 39.3404567 30.537519 39.9315905 31.2646874 40.1778962 32.1298549 40.1778962 33.614745 40.1778962 34.4381564 39.2353997 34.4381564 39.2353997L34.36381 39.6928247C34.3358029 39.867752 34.4722742 40.0245834 34.6499926 40.0245834L36.1521962 40.0245834C36.3910212 40.0245834 36.592673 39.8536774 36.6303553 39.6209437L37.5316776 33.9865739C37.560194 33.8131546 37.4242319 33.6558205 37.2460043 33.6558205L37.2460043 33.6558205zM34.9214077 36.8598059C34.7604936 37.8002917 34.0042995 38.4316387 33.0398339 38.4316387 32.5555641 38.4316387 32.1685558 38.2783259 31.9200556 37.9877857 31.6735923 37.6992561 31.5798956 37.288579 31.6583157 36.8311539 31.808536 35.8987108 32.5774607 35.2467546 33.5271589 35.2467546 34.000735 35.2467546 34.3857066 35.402078 34.6392989 35.6951315 34.8934005 35.9912011 34.9942264 36.4043916 34.9214077 36.8598059L34.9214077 36.8598059zM46.1278474 33.6558205L44.4519991 33.6558205C44.2921036 33.6558205 44.1418832 33.7342362 44.0512417 33.8654317L41.7398849 37.2262486 40.7601425 33.9966272C40.6985267 33.794556 40.5096055 33.6558205 40.2957325 33.6558205L38.6489098 33.6558205C38.4487857 33.6558205 38.3097682 33.8488438 38.3734209 34.0348297L40.2193492 39.3821779 38.4839219 41.8004982C38.3474506 41.9910081 38.4849404 42.2528965 38.72071 42.2528965L40.3945214 42.2528965C40.5533985 42.2528965 40.7020913 42.1764915 40.7922235 42.0478093L46.3661631 34.1057055C46.4995792 33.9156982 46.3625985 33.6558205 46.1278474 33.6558205L46.1278474 33.6558205z"/>
    <path fill="#179BD7" fill-rule="nonzero" d="M51.6763261 30.475963L48.1932503 30.475963C47.9554437 30.475963 47.7527735 30.646869 47.7156003 30.8791001L46.3070934 39.6943327C46.2790863 39.8682547 46.4155576 40.0250861 46.593276 40.0250861L48.3806435 40.0250861C48.54665 40.0250861 48.6887229 39.9054519 48.7146931 39.7425885L49.1144321 37.2438418C49.1510961 37.011108 49.3542753 36.8402019 49.5920821 36.8402019L50.6940374 36.8402019C52.9885899 36.8402019 54.3120571 35.7443927 54.6583274 33.5728808 54.8146586 32.6228443 54.6644385 31.8763871 54.2137772 31.3536157 53.719323 30.7795725 52.8419341 30.475963 51.6763261 30.475963L51.6763261 30.475963zM52.0781017 33.695531C51.8881621 34.9290704 50.9333718 34.9290704 50.0096436 34.9290704L49.4846361 34.9290704 49.8538216 32.6253576C49.8757185 32.4861195 49.9969133 32.3835759 50.1400045 32.3835759L50.3808664 32.3835759C51.0092456 32.3835759 51.6029981 32.3835759 51.9095494 32.7374519 52.0923601 32.9485711 52.147865 33.2622339 52.0781017 33.695531L52.0781017 33.695531zM62.0858339 33.6558205L60.4191514 33.6558205C60.2760602 33.6558205 60.1543564 33.7583641 60.1329691 33.8976022L60.059132 34.3580432 59.9420111 34.1911585C59.5809728 33.6739164 58.7764026 33.5009997 57.9728509 33.5009997 56.1299779 33.5009997 54.5564833 34.878804 54.249932 36.8115501 54.0910549 37.7756611 54.3166401 38.6975484 54.8706731 39.3404567 55.3798948 39.9315905 56.1060448 40.1778962 56.9712121 40.1778962 58.4561022 40.1778962 59.2795137 39.2353997 59.2795137 39.2353997L59.2051674 39.6928247C59.17716 39.867752 59.3136314 40.0245834 59.4923682 40.0245834L60.994063 40.0245834C61.2318694 40.0245834 61.4345393 39.8536774 61.4717125 39.6209437L62.3735442 33.9865739C62.4010421 33.8131546 62.2645706 33.6558205 62.0858339 33.6558205L62.0858339 33.6558205zM59.7612371 36.8598059C59.6013418 37.8002917 58.8441292 38.4316387 57.8796636 38.4316387 57.3964122 38.4316387 57.0083853 38.2783259 56.7598852 37.9877857 56.5134219 37.6992561 56.4207434 37.288579 56.4981452 36.8311539 56.6493841 35.8987108 57.4172904 35.2467546 58.3669884 35.2467546 58.8405645 35.2467546 59.2255359 35.402078 59.4791287 35.6951315 59.7342485 35.9912011 59.8350743 36.4043916 59.7612371 36.8598059L59.7612371 36.8598059zM64.0519386 30.7177447L62.6225534 39.6943327C62.5945464 39.8682547 62.7310178 40.0250861 62.9087358 40.0250861L64.3457595 40.0250861C64.5845843 40.0250861 64.7872543 39.85418 64.8239183 39.6214463L66.2334437 30.8067164C66.2614512 30.6327944 66.1249798 30.4754603 65.9472613 30.4754603L64.338121 30.4754603C64.1960481 30.475963 64.0738351 30.5785066 64.0519386 30.7177447L64.0519386 30.7177447z"/>
    <path fill="#253B80" fill-rule="nonzero" d="M7.00435197,41.7381678 L7.27067486,40.0683153 L6.67743169,40.0547433 L3.84463194,40.0547433 L5.81328264,27.7329212 C5.8193933,27.695724 5.83925295,27.6610401 5.86827857,27.6364095 C5.89730421,27.611779 5.93447738,27.598207 5.97317823,27.598207 L10.7496768,27.598207 C12.3353929,27.598207 13.4297101,27.9239338 14.0010567,28.5668421 C14.2689073,28.868441 14.4394966,29.1836118 14.5219904,29.5304505 C14.6085581,29.8943798 14.6100858,30.3291849 14.525555,30.8594962 L14.5194443,30.8982014 L14.5194443,31.2380028 L14.7872949,31.3877969 C15.0128801,31.5059231 15.1921261,31.64114 15.3296159,31.7959607 C15.5587656,32.0538278 15.7069491,32.3815652 15.7695833,32.7701251 C15.8342545,33.1697436 15.8128672,33.6452645 15.7069491,34.1836185 C15.5847359,34.8029016 15.3871579,35.3422609 15.1203258,35.7836006 C14.874881,36.1902563 14.5622189,36.5275445 14.1909964,36.7889302 C13.8365782,37.0372466 13.4154519,37.2257459 12.9393297,37.3463854 C12.477975,37.4650143 11.951949,37.5248314 11.375001,37.5248314 L11.0032691,37.5248314 C10.7374555,37.5248314 10.4792801,37.6193324 10.2766099,37.7887304 C10.0734305,37.9616471 9.93899605,38.1978996 9.89774907,38.4562693 L9.8697419,38.6065661 L9.39922115,41.5496685 L9.37783382,41.6577414 C9.37223242,41.6919226 9.36255718,41.7090132 9.34829898,41.7205745 C9.33556845,41.7311304 9.31723646,41.7381678 9.2994137,41.7381678 L7.00435197,41.7381678 L7.00435197,41.7381678 Z"/>
    <path fill="#179BD7" fill-rule="nonzero" d="M15.0408872,30.9374093 L15.0408872,30.9374093 C15.026629,31.0273863 15.0103339,31.1193739 14.9920019,31.2138749 C14.3620949,34.406299 12.207069,35.5091456 9.45472628,35.5091456 L8.05334845,35.5091456 C7.71675298,35.5091456 7.43311655,35.7504247 7.38066673,36.0781621 L7.38066673,36.0781621 L6.66317349,40.5699747 L6.45999407,41.8432247 C6.42587623,42.0583652 6.59391935,42.2523939 6.81390309,42.2523939 L9.2994137,42.2523939 C9.59374381,42.2523939 9.84377161,42.0412746 9.89011078,41.7547557 L9.91455339,41.6300948 L10.3825281,38.6985537 L10.4125721,38.537701 C10.4584021,38.2501767 10.7089391,38.0390575 11.0032691,38.0390575 L11.375001,38.0390575 C13.7831099,38.0390575 15.6682483,37.0739411 16.219226,34.2811355 C16.4493942,33.1144505 16.3302363,32.1402861 15.7212073,31.455154 C15.5368691,31.2485588 15.3082286,31.0771501 15.0408872,30.9374093 L15.0408872,30.9374093 Z"/>
    <path fill="#222D65" fill-rule="nonzero" d="M14.3819545,30.6780342 C14.2857116,30.6503877 14.1864134,30.6252544 14.084569,30.6026345 C13.9822156,30.5805173 13.8773159,30.5609133 13.7693609,30.5438227 C13.3915185,30.4835029 12.9775213,30.454851 12.5339893,30.454851 L8.79019209,30.454851 C8.69802298,30.454851 8.61043689,30.4754603 8.53201677,30.5126575 C8.35939065,30.5945919 8.2310668,30.7559473 8.20000429,30.9534945 L7.4035817,35.932892 L7.38066673,36.0781621 C7.43311655,35.7504247 7.71675298,35.5091456 8.05334845,35.5091456 L9.45472628,35.5091456 C12.207069,35.5091456 14.3620949,34.4057964 14.9920019,31.2138749 C15.0108431,31.1193739 15.026629,31.0273863 15.0408872,30.9374093 C14.8815009,30.8539669 14.7088748,30.7825885 14.5230088,30.7217661 C14.4771789,30.7066861 14.4298213,30.6921088 14.3819545,30.6780342 L14.3819545,30.6780342 Z"/>
    <path fill="#253B80" fill-rule="nonzero" d="M8.20000429,30.9534945 C8.2310668,30.7559473 8.35939065,30.5945919 8.53201677,30.5131602 C8.61094611,30.475963 8.69802298,30.4553537 8.79019209,30.4553537 L12.5339893,30.4553537 C12.9775213,30.4553537 13.3915185,30.4840056 13.7693609,30.5443254 C13.8773159,30.561416 13.9822156,30.5810199 14.084569,30.6031372 C14.1864134,30.6257571 14.2857116,30.6508903 14.3819545,30.6785369 C14.4298213,30.6926115 14.4771789,30.7071888 14.5235181,30.7217661 C14.709384,30.7825885 14.8820101,30.8544696 15.0413965,30.9374093 C15.2287901,29.757655 15.0398688,28.9543966 14.3936666,28.2270407 C13.6812656,27.4262957 12.395481,27.0834783 10.750186,27.0834783 L5.97368745,27.0834783 C5.63760119,27.0834783 5.35090943,27.3247574 5.29896883,27.6529975 L3.30944004,40.1014911 C3.27022998,40.3477969 3.46271574,40.5699747 3.71427121,40.5699747 L6.66317349,40.5699747 L7.4035817,35.932892 L8.20000429,30.9534945 L8.20000429,30.9534945 Z"/>
  </g>
</svg>
