<svg xmlns="http://www.w3.org/2000/svg" width="58" height="12"><g fill="none" fill-rule="evenodd"><path d="M-6-29h70v70H-6z"/><path fill="#054279" fill-rule="nonzero" d="M42.834 2.563v8.108h-1.951V2.554h-2.162V.832h6.29v1.731h-2.177M8.292.826v9.851H6.339V2.556H2.436v8.121H.477V.826h7.815m3.89 4.549h.73c.365 0 .834 0 1.244-.31.352-.28.527-.724.527-1.152a1.36 1.36 0 0 0-.542-1.123c-.395-.28-.893-.31-1.347-.31h-.612v2.895zm.89-4.549c1.099 0 1.86.119 2.578.754.79.708.995 1.669.995 2.377 0 .384-.058 1.447-.805 2.2-.542.547-1.347.872-2.475.872h-1.183v3.648h-1.95V.827h2.84zm23.697 9.496c-.586.31-1.362.576-2.416.576-1.714 0-2.753-.59-3.573-1.373-1.128-1.093-1.567-2.319-1.567-3.766 0-1.787.732-3.072 1.567-3.855.98-.93 2.196-1.3 3.587-1.3.688 0 1.509.119 2.402.606v2.245a3.128 3.128 0 0 0-2.358-1.108c-1.962 0-3.236 1.625-3.236 3.441 0 2.186 1.67 3.368 3.31 3.368.908 0 1.713-.4 2.284-1.078v2.244m10.195.355h1.95V.826h-1.95zm5.854-5.302h.729c.366 0 .834 0 1.245-.31.351-.28.527-.724.527-1.152a1.36 1.36 0 0 0-.542-1.123c-.396-.28-.893-.31-1.347-.31h-.612v2.895zm.89-4.549c1.098 0 1.86.119 2.577.754.79.708.996 1.669.996 2.377 0 .384-.059 1.447-.806 2.2-.541.547-1.347.872-2.474.872h-1.183v3.648h-1.951V.827h2.84z"/><path fill="#F9C626" fill-rule="nonzero" d="M21.948 5.764v-.012c0-.55.442-.997.987-.997.546 0 .988.447.988.997a.992.992 0 0 1-.981.995v1.345a2.33 2.33 0 0 0 2.314-2.34 2.33 2.33 0 0 0-2.32-2.34 2.33 2.33 0 0 0-2.321 2.34v.012h1.333"/><path fill="#054279" fill-rule="nonzero" d="M26.355 4.06c.248.51.388 1.084.388 1.692 0 2.124-1.708 3.846-3.814 3.846s-3.814-1.722-3.814-3.846c0-2.048 1.587-3.722 3.588-3.84l.952-1.468a5.295 5.295 0 0 0-.726-.052c-2.935 0-5.314 2.4-5.314 5.36 0 2.96 2.38 5.359 5.314 5.359 2.935 0 5.314-2.4 5.314-5.36a5.364 5.364 0 0 0-.978-3.096l-.91 1.405"/></g></svg>