<svg xmlns="http://www.w3.org/2000/svg" width="32" height="34" viewBox="0 0 32 34">
  <g fill="none" fill-rule="evenodd" transform="translate(-20 -19)">
    <rect width="70" height="70"/>
    <path fill="#FF9E16" fill-rule="nonzero" d="M51.4666667,51.7201704 C50.2748901,49.6618502 48.6894496,48.3267574 46.9714288,47.2286934 C46.3641376,46.9382601 45.6771131,46.6712416 44.7238096,46.4801138 C43.7745851,46.0838007 42.4533845,45.9769935 40.9777776,45.7315342 C39.705288,45.4963599 38.701176,44.9623224 37.9809525,44.234375 C37.1157355,43.894248 36.6401035,43.3602106 36.4825397,42.7372158 C36.2173195,42.7193658 35.8473835,42.2921362 35.7333333,41.9886362 C35.9002315,42.1853289 35.6359915,43.146596 36.4825397,44.234375 C31.7252384,44.3214777 27.8144859,41.8649065 25.9936507,38.9943184 C22.7410768,33.3737141 23.9037328,26.7516526 28.2412699,24.022727 C32.6765024,20.8772431 39.335352,22.959988 43.2253968,28.5142046 C45.0957851,31.5579877 45.6771131,35.4564595 44.7238096,38.2457388 C44.7258491,38.6072794 44.7258491,38.6606833 44.7238096,38.9943184 C42.8233205,37.272186 41.0793365,37.9664346 40.9777776,38.2457388 C42.9818645,37.8062234 44.4616091,39.3015275 44.7238096,38.9943184 C44.7258491,39.5151426 44.9372411,39.7287577 44.7238096,39.742898 C45.1486331,39.9957762 45.2014811,40.0491801 45.473016,40.491477 C45.7299611,40.7968321 46.0470491,41.5444841 46.2222224,41.9886362 C49.9578021,37.539205 50.5919781,30.9171429 46.9714288,25.5198862 C42.9818645,19.2217273 33.9448549,17.566212 26.7428571,21.7769888 C20.0986763,26.5380375 17.9319077,35.4564595 22.2476192,41.9886362 C25.6477173,47.4188936 33.8391589,49.0210055 38.7301589,47.2286934 C40.339464,46.991664 46.4169856,46.457627 50.7174603,51.7201704 C50.6448261,51.4775767 51.0147621,51.9048069 51.4666667,52.46875 C51.1733061,52.3320365 51.2790021,52.5456516 51.4666667,52.46875 C51.4375461,52.4388438 51.5960901,52.2786326 51.4666667,51.7201704 L51.4666667,51.7201704 L51.4666667,51.7201704 Z M42.4761904,42.7372158 C42.5901227,42.7541011 42.5901227,42.7541011 42.4761904,42.7372158 C42.5901227,42.7541011 42.5901227,42.7541011 42.4761904,42.7372158 C42.5445499,42.7541011 42.5445499,42.7541011 42.4761904,42.7372158 C42.5445499,42.7541011 42.5445499,42.7541011 42.4761904,42.7372158 C42.4989771,42.7541011 42.4989771,42.7541011 42.4761904,42.7372158 C42.3166853,42.7110602 42.1343931,42.7541011 41.726984,42.7372158 C41.6786635,43.0123459 41.6330907,43.4857954 41.726984,43.4857954 C42.0432475,44.0022857 42.1799664,44.1314081 42.4761904,44.234375 C42.3622581,44.1744489 42.3622581,44.1744489 42.4761904,44.234375 C42.3622581,44.1744489 42.3622581,44.1744489 42.4761904,44.234375 C42.4078309,44.1744489 42.4078309,44.1744489 42.4761904,44.234375 C42.4078309,44.2174897 42.4078309,44.2174897 42.4761904,44.234375 C42.4534037,44.2174897 42.4534037,44.2174897 42.4761904,44.234375 C42.635696,44.2605306 42.8179877,44.2174897 43.2253968,44.234375 C43.2737173,43.9162041 43.3192901,43.4857954 43.2253968,42.7372158 C42.9547067,42.9693051 42.7724149,42.8401827 42.4761904,42.7372158 L42.4761904,42.7372158 L42.4761904,42.7372158 Z M44.7238096,41.2400566 C44.7209221,41.1573899 44.6757445,41.5085132 44.7238096,41.9886362 C44.9016315,42.2609194 45.0823408,42.6622028 45.473016,42.7372158 C45.3985824,42.8126841 45.5341147,42.6120422 45.473016,41.9886362 C45.3985824,41.859636 45.2630507,41.3580318 44.7238096,41.2400566 L44.7238096,41.2400566 L44.7238096,41.2400566 Z"/>
  </g>
</svg>
