<svg xmlns="http://www.w3.org/2000/svg" width="53" height="19"><g fill="none" fill-rule="evenodd"><path d="M-9-26h70v70H-9z"/><path fill="#0B4A8E" fill-rule="nonzero" d="M.03 17.232l.543-.054c.033.181.099.315.199.4.1.085.235.128.404.128.18 0 .315-.038.407-.114a.338.338 0 0 0 .136-.265.256.256 0 0 0-.057-.167.46.46 0 0 0-.2-.119 7.166 7.166 0 0 0-.446-.119c-.298-.073-.508-.163-.628-.27a.71.71 0 0 1-.134-.943.747.747 0 0 1 .345-.277c.15-.064.331-.096.544-.096.346 0 .607.076.783.227a.8.8 0 0 1 .276.607l-.56.021c-.023-.14-.075-.242-.153-.304-.079-.062-.196-.093-.354-.093a.64.64 0 0 0-.38.1.2.2 0 0 0-.089.17c0 .065.028.12.083.166.07.059.241.12.512.183.272.064.472.13.602.198s.232.161.305.28a.81.81 0 0 1 .11.438.807.807 0 0 1-.505.75c-.16.067-.361.1-.602.1-.35 0-.618-.08-.805-.241-.188-.162-.3-.397-.336-.706m2.828.899h.536v-1.988h-.536v1.988zm0-2.26h.536v-.486h-.536v.485zm3.015 2.26h-.532v-1.017c0-.215-.011-.354-.034-.418a.294.294 0 0 0-.11-.147.315.315 0 0 0-.183-.052.424.424 0 0 0-.246.075.377.377 0 0 0-.149.199c-.027.082-.04.235-.04.457v.903h-.532v-1.988h.493v.292c.175-.228.395-.341.66-.341a.79.79 0 0 1 .32.062c.097.042.17.096.22.16.05.066.084.14.104.222.02.083.029.2.029.355v1.238m1.076-1.037c0 .211.04.366.122.464a.378.378 0 0 0 .302.148c.129 0 .237-.05.326-.151.088-.101.133-.25.133-.448 0-.207-.043-.36-.128-.46a.404.404 0 0 0-.321-.15.39.39 0 0 0-.312.147c-.081.098-.122.248-.122.45zm-.477 1.167l.603.066c.01.074.033.125.07.153.05.04.13.06.238.06.14 0 .243-.021.313-.062a.257.257 0 0 0 .106-.133.796.796 0 0 0 .024-.242l.002-.29c-.157.212-.356.318-.598.318a.74.74 0 0 1-.64-.34 1.149 1.149 0 0 1-.184-.668c0-.334.08-.589.242-.765a.785.785 0 0 1 .603-.264c.248 0 .452.108.614.324v-.275h.493v1.787c0 .235-.02.41-.058.527a.65.65 0 0 1-.165.274.728.728 0 0 1-.282.155 1.497 1.497 0 0 1-.447.056c-.34 0-.58-.058-.723-.174a.547.547 0 0 1-.213-.442c0-.018 0-.04.002-.065zm2.523-.13h.536v-2.746h-.536zm2.385-1.161c-.004-.154-.044-.272-.12-.352a.366.366 0 0 0-.277-.121.37.37 0 0 0-.289.127.494.494 0 0 0-.112.346h.797zm-.028.534l.526.088a.86.86 0 0 1-.322.437.96.96 0 0 1-.552.15c-.35 0-.608-.113-.775-.34-.133-.181-.199-.41-.199-.687 0-.33.087-.59.261-.777a.861.861 0 0 1 .66-.281c.299 0 .534.098.707.294.173.197.255.498.248.904h-1.333a.53.53 0 0 0 .13.365c.082.087.185.13.308.13a.332.332 0 0 0 .211-.066.413.413 0 0 0 .13-.217zm2.294.627v-2.746h2.046v.463h-1.486v.611h1.382v.463h-1.382v.746h1.541v.463h-2.101m4.002-.001v-.297a.79.79 0 0 1-.288.253.802.802 0 0 1-.74.006.523.523 0 0 1-.233-.248 1.097 1.097 0 0 1-.072-.44v-1.261h.532v.914c0 .28.01.451.03.514a.28.28 0 0 0 .106.15.33.33 0 0 0 .196.056.418.418 0 0 0 .391-.258c.026-.073.04-.252.04-.537v-.84h.532v1.989h-.494m1.663 0h-.532v-1.988h.493v.282a.885.885 0 0 1 .228-.266.412.412 0 0 1 .23-.065c.12 0 .236.033.348.1l-.161.46a.47.47 0 0 0-.25-.087.298.298 0 0 0-.19.061.424.424 0 0 0-.122.22c-.03.107-.044.33-.044.668v.615m1.525-.994c0 .198.047.35.142.455a.452.452 0 0 0 .35.157.449.449 0 0 0 .348-.157c.094-.106.141-.259.141-.46 0-.194-.047-.345-.14-.45a.449.449 0 0 0-.35-.158.452.452 0 0 0-.35.158c-.094.105-.141.257-.141.455zm-.543-.029c0-.175.043-.345.13-.509a.891.891 0 0 1 .369-.376c.159-.086.337-.13.533-.13a1 1 0 0 1 1.035 1.038c0 .302-.098.552-.293.751a.993.993 0 0 1-.739.298 1.17 1.17 0 0 1-.525-.124.852.852 0 0 1-.38-.364 1.207 1.207 0 0 1-.13-.584zm4.359-1.26v.785h.305c.22 0 .366-.014.44-.043a.366.366 0 0 0 .237-.351c0-.1-.03-.184-.089-.25a.385.385 0 0 0-.223-.122 2.673 2.673 0 0 0-.401-.019h-.269zm-.56 2.283v-2.746h.896c.34 0 .56.014.664.042.158.04.29.13.397.269.107.137.16.316.16.534 0 .169-.03.31-.092.426a.754.754 0 0 1-.234.27.808.808 0 0 1-.29.13 3.19 3.19 0 0 1-.577.04h-.364v1.035h-.56zm3.789-.953a3.31 3.31 0 0 1-.322.08.965.965 0 0 0-.288.092.22.22 0 0 0-.103.187.26.26 0 0 0 .082.192.29.29 0 0 0 .211.08.459.459 0 0 0 .273-.094.331.331 0 0 0 .126-.175 1.05 1.05 0 0 0 .02-.257v-.105zm-.713-.43l-.477-.088a.745.745 0 0 1 .279-.428c.132-.092.328-.138.588-.138.237 0 .413.027.528.083a.528.528 0 0 1 .245.212c.047.086.07.243.07.472l-.005.615c0 .175.009.305.026.387.017.084.048.173.095.268h-.527a1.798 1.798 0 0 1-.07-.214.959.959 0 0 1-.29.197.834.834 0 0 1-.33.066c-.205 0-.368-.056-.486-.167a.555.555 0 0 1-.178-.422.53.53 0 0 1 .308-.504c.098-.047.238-.088.422-.123.247-.047.419-.09.515-.13v-.053c0-.102-.026-.175-.076-.22-.05-.043-.146-.064-.287-.064a.384.384 0 0 0-.221.055.385.385 0 0 0-.13.195zm1.616-.605h.564l.48 1.411.47-1.411h.548l-.835 2.263a1.42 1.42 0 0 1-.133.266.577.577 0 0 1-.347.238 1.05 1.05 0 0 1-.271.032 1.42 1.42 0 0 1-.3-.031l-.05-.413c.083.017.158.025.225.025.124 0 .216-.037.275-.109a.758.758 0 0 0 .137-.278l-.763-1.993m2.477 0h.488v.271c.175-.214.384-.32.626-.32a.68.68 0 0 1 .334.078.608.608 0 0 1 .233.238.93.93 0 0 1 .285-.238.704.704 0 0 1 .327-.078.73.73 0 0 1 .374.089.54.54 0 0 1 .228.261c.037.085.055.223.055.413v1.274h-.532v-1.14c0-.197-.018-.324-.055-.382-.049-.075-.124-.112-.226-.112a.361.361 0 0 0-.209.067.374.374 0 0 0-.141.198 1.414 1.414 0 0 0-.044.412v.957h-.531v-1.092c0-.194-.01-.319-.029-.375a.239.239 0 0 0-.087-.126.279.279 0 0 0-.161-.041.387.387 0 0 0-.22.065.362.362 0 0 0-.141.19 1.37 1.37 0 0 0-.043.41v.969h-.531v-1.988m4.782.827c-.004-.154-.043-.272-.12-.352a.366.366 0 0 0-.276-.121.37.37 0 0 0-.288.127.494.494 0 0 0-.112.346h.796zm-.027.534l.526.088a.86.86 0 0 1-.322.437c-.147.1-.33.15-.552.15-.349 0-.607-.113-.775-.34-.133-.181-.199-.41-.199-.687 0-.33.087-.59.261-.777a.862.862 0 0 1 .66-.281c.299 0 .534.098.707.294.173.197.255.498.248.904h-1.333a.53.53 0 0 0 .13.365c.082.087.185.13.308.13a.331.331 0 0 0 .211-.066.41.41 0 0 0 .13-.217zm2.921.627h-.532v-1.017c0-.215-.011-.354-.034-.418a.294.294 0 0 0-.11-.147.315.315 0 0 0-.183-.052.423.423 0 0 0-.245.075.378.378 0 0 0-.15.199c-.027.082-.04.235-.04.457v.903h-.532v-1.988h.493v.292c.175-.228.395-.341.66-.341a.79.79 0 0 1 .32.062c.097.042.17.096.22.16.05.066.084.14.104.222.02.083.03.2.03.355v1.238m1.569-1.988v.419h-.362v.804c0 .163.003.258.01.285.006.027.022.05.046.067a.146.146 0 0 0 .088.026.67.67 0 0 0 .21-.05l.046.407a1.05 1.05 0 0 1-.417.079.66.66 0 0 1-.257-.048.375.375 0 0 1-.168-.124.487.487 0 0 1-.074-.205 2.538 2.538 0 0 1-.016-.372v-.87h-.242v-.418h.242v-.398l.532-.31v.708h.362m.299 1.427l.532-.082a.384.384 0 0 0 .137.232c.07.052.166.078.29.078.137 0 .24-.025.31-.075a.169.169 0 0 0 .069-.141.138.138 0 0 0-.038-.1.426.426 0 0 0-.178-.07c-.43-.094-.703-.18-.818-.258a.512.512 0 0 1-.238-.448.55.55 0 0 1 .206-.436c.138-.118.352-.176.64-.176.276 0 .481.044.615.132a.677.677 0 0 1 .277.39l-.499.093a.307.307 0 0 0-.123-.178.456.456 0 0 0-.259-.062c-.14 0-.242.02-.303.059a.124.124 0 0 0-.06.107c0 .038.017.07.052.097.048.035.214.084.497.148.284.065.482.143.594.236a.487.487 0 0 1 .167.393.605.605 0 0 1-.23.473c-.154.132-.38.198-.68.198-.273 0-.49-.055-.648-.164a.756.756 0 0 1-.312-.446m5.107-.523l-.386-1.019-.374 1.019h.76zm1.026 1.084h-.602l-.24-.621h-1.113l-.228.62h-.592l1.07-2.745h.589l1.116 2.746zm.913 0h-.532v-1.988h.494v.282a.882.882 0 0 1 .228-.266.41.41 0 0 1 .229-.065c.12 0 .237.033.35.1l-.163.46a.471.471 0 0 0-.25-.087.298.298 0 0 0-.19.061.424.424 0 0 0-.121.22c-.03.107-.045.33-.045.668v.615m2.304-1.16c-.004-.155-.043-.273-.12-.353a.367.367 0 0 0-.276-.121.37.37 0 0 0-.289.127.493.493 0 0 0-.112.346h.797zm-.027.533l.526.088a.86.86 0 0 1-.322.437.96.96 0 0 1-.552.15c-.349 0-.608-.113-.775-.34-.133-.181-.199-.41-.199-.687 0-.33.087-.59.261-.777a.861.861 0 0 1 .66-.281c.299 0 .534.098.707.294.173.197.255.498.248.904H49.35a.531.531 0 0 0 .13.365c.082.087.185.13.308.13a.332.332 0 0 0 .211-.066.414.414 0 0 0 .13-.217zm2.203-.326c-.068.022-.176.05-.322.08a.967.967 0 0 0-.288.092.22.22 0 0 0-.103.187.26.26 0 0 0 .082.192c.055.053.126.08.211.08a.459.459 0 0 0 .273-.094.331.331 0 0 0 .126-.175 1.05 1.05 0 0 0 .02-.257v-.105zm-.713-.43l-.478-.088a.745.745 0 0 1 .28-.428c.132-.092.328-.138.588-.138.237 0 .413.027.528.083a.528.528 0 0 1 .245.212c.047.086.07.243.07.472l-.005.615c0 .175.009.305.025.387.017.084.05.173.096.268h-.527a1.863 1.863 0 0 1-.07-.214.958.958 0 0 1-.29.197.835.835 0 0 1-.33.066c-.205 0-.368-.056-.486-.167a.555.555 0 0 1-.178-.422.53.53 0 0 1 .308-.504 1.77 1.77 0 0 1 .422-.123c.247-.047.419-.09.515-.13v-.053c0-.102-.026-.175-.076-.22-.05-.043-.146-.064-.287-.064a.384.384 0 0 0-.222.055.386.386 0 0 0-.128.195zM11.777 4.597H8.155c0-.59-.07-.987-.209-1.189-.216-.298-.81-.447-1.784-.447-.946 0-1.573.085-1.878.258-.306.172-.46.547-.46 1.125 0 .523.136.868.408 1.033.195.117.452.186.772.206l.73.052c1.566.103 2.544.176 2.934.217 1.238.124 2.135.45 2.692.98.438.414.7.955.783 1.622.049.399.073.85.073 1.352 0 1.157-.111 2.004-.334 2.541-.403.985-1.309 1.607-2.718 1.869-.591.11-1.494.165-2.71.165-2.028 0-3.442-.12-4.24-.36-.98-.296-1.625-.894-1.938-1.795-.174-.501-.26-1.337-.26-2.506h3.622v.3c0 .623.18 1.024.541 1.203.25.123.551.188.906.196h1.331c.68 0 1.114-.035 1.3-.104.334-.13.552-.34.656-.63.056-.178.083-.409.083-.691 0-.633-.232-1.017-.696-1.155-.174-.055-.981-.131-2.423-.227-1.158-.083-1.962-.161-2.412-.238-1.186-.22-1.976-.673-2.37-1.361-.347-.585-.52-1.469-.52-2.652 0-.9.093-1.623.28-2.166.188-.544.49-.956.907-1.239C1.83.524 2.613.27 3.564.194A30.72 30.72 0 0 1 6.198.09c1.52 0 2.604.087 3.25.26 1.576.42 2.364 1.598 2.364 3.534 0 .159-.012.396-.035.714m19.82 2.742h2.427c.77-.028 1.238-.087 1.407-.179.23-.125.384-.377.46-.754.05-.251.075-.625.075-1.12 0-.608-.05-1.059-.147-1.353-.14-.412-.476-.663-1.007-.754a7.927 7.927 0 0 0-.755-.021h-2.46v4.18zm-3.893 7.042V.014h7.254c.994 0 1.754.081 2.275.242 1.193.372 1.994 1.132 2.404 2.28.211.604.317 1.511.317 2.724 0 1.457-.117 2.504-.35 3.142-.465 1.261-1.422 1.987-2.869 2.176-.17.028-.893.053-2.17.073l-.647.022h-2.32v3.71h-3.894zM47.492 9.1l-1.825-6.228-1.77 6.228h3.595zm.773 2.8h-5.206l-.699 2.482h-4.028L42.678.014h5.873l4.4 14.368h-3.944l-.742-2.483z"/><path fill="#F6BC25" fill-rule="nonzero" d="M22.33 2.036c1.606 0 3.04.735 3.982 1.885l.839-1.787A7.384 7.384 0 0 0 22.08.142c-3.067 0-5.691 1.84-6.768 4.445h-1.637l-.966 2.058h2.105a6.877 6.877 0 0 0 .01 1.276h-1.058L12.8 9.979h2.562c1.108 2.54 3.699 4.322 6.719 4.322a7.413 7.413 0 0 0 4.102-1.227v-2.522a5.13 5.13 0 0 1-3.853 1.737 5.137 5.137 0 0 1-4.293-2.31h5.365l.966-2.058h-7.12a5.174 5.174 0 0 1-.03-1.276h7.75l.965-2.058H17.89a5.137 5.137 0 0 1 4.442-2.551"/><path fill="#0B4A8E" fill-rule="nonzero" d="M17.889 4.65h8.045l-.056-.089-.966 2.058.056-.036h-7.806l-.006.056a5.275 5.275 0 0 0 .031 1.291l.008.053h7.174l-.056-.088-.966 2.058.056-.036h-5.48l.063.095a5.192 5.192 0 0 0 4.345 2.338c1.49 0 2.912-.64 3.9-1.758l-.109-.04v2.522l.028-.05a7.35 7.35 0 0 1-4.068 1.215c-2.912 0-5.527-1.682-6.662-4.285l-.016-.037H12.8l.057.089.965-2.059-.056.036h1.126l-.006-.068a6.975 6.975 0 0 1-.036-.693c0-.175.009-.362.026-.572l.005-.067H12.71l.056.088.966-2.058-.056.036h1.678l.016-.038a7.06 7.06 0 0 1 2.615-3.172A7.34 7.34 0 0 1 22.082.204c1.885 0 3.67.701 5.026 1.975l-.014-.071-.839 1.787.105-.013a5.189 5.189 0 0 0-4.03-1.908c-1.844 0-3.566.99-4.496 2.583l-.054.092h.109zm4.442-2.553c1.53 0 2.963.68 3.932 1.863l.063.077.042-.09.84-1.787.018-.04-.032-.031A7.435 7.435 0 0 0 22.082.081a7.462 7.462 0 0 0-4.166 1.256 7.177 7.177 0 0 0-2.66 3.227l.057-.038h-1.677l-.016.035-1.008 2.146h2.203l-.062-.067a7.012 7.012 0 0 0 .01 1.287l.062-.067h-1.097l-.017.035-.967 2.058-.04.088h2.659l-.057-.038c1.155 2.648 3.815 4.36 6.776 4.36a7.47 7.47 0 0 0 4.137-1.237l.027-.018v-2.72l-.108.123a5.086 5.086 0 0 1-3.807 1.716 5.07 5.07 0 0 1-4.241-2.282l-.052.096h5.405l.017-.035.966-2.059.041-.087h-7.218l.061.052a5.138 5.138 0 0 1-.03-1.26l-.062.055h7.79l.017-.036.966-2.058.041-.087H17.89l.053.092a5.099 5.099 0 0 1 4.389-2.52z"/></g></svg>