<svg xmlns="http://www.w3.org/2000/svg" xmlns:xlink="http://www.w3.org/1999/xlink" width="53" height="27"><defs><path id="a" d="M0 26.872h52.748V0H0z"/><path id="c" d="M0 26.872h52.748V0H0z"/><path id="e" d="M0 26.872h52.748V0H0z"/><path id="g" d="M0 26.872h52.748V0H0z"/><path id="i" d="M0 26.872h52.748V0H0z"/><path id="k" d="M0 26.872h52.748V0H0z"/><path id="m" d="M0 26.872h52.748V0H0z"/><path id="o" d="M0 26.872h52.748V0H0z"/><path id="q" d="M0 26.872h52.748V0H0z"/><path id="s" d="M0 26.872h52.748V0H0z"/><path id="u" d="M0 26.872h52.748V0H0z"/></defs><g fill="none" fill-rule="evenodd"><path d="M-8-22h70v70H-8z"/><path fill="#1A1F71" fill-rule="nonzero" d="M2.818 9.414L0 .614h1.204L2.55 4.949c.371 1.188.691 2.258.923 3.29h.026c.244-1.02.601-2.128.986-3.277L5.945.614h1.193l-3.09 8.8h-1.23zm8.216-3.773c.014-.731-.294-1.869-1.563-1.869-1.141 0-1.64 1.071-1.73 1.869h3.293zm-3.306.822c.026 1.554.999 2.194 2.127 2.194.808 0 1.294-.144 1.718-.327l.192.823c-.397.182-1.076.391-2.063.391-1.91 0-3.051-1.28-3.051-3.186S7.754 2.95 9.56 2.95c2.025 0 2.564 1.816 2.564 2.978 0 .234-.026.417-.038.535H7.728zm5.28-1.398c0-.744-.012-1.383-.05-1.972h.986l.04 1.242h.05c.282-.849.96-1.384 1.717-1.384a1.2 1.2 0 0 1 .32.039v1.084a1.637 1.637 0 0 0-.385-.04c-.793 0-1.356.614-1.51 1.475-.027.157-.053.34-.053.536v3.369h-1.115V5.065z"/><mask id="b" fill="#fff"><use xlink:href="#a"/></mask><path fill="#1A1F71" fill-rule="nonzero" d="M16.738 9.413h1.13v-6.32h-1.13v6.32zm1.256-8.094c.013.39-.269.705-.717.705-.397 0-.68-.314-.68-.705 0-.405.295-.719.706-.719.422 0 .691.314.691.719z" mask="url(#b)"/><mask id="d" fill="#fff"><use xlink:href="#c"/></mask><path fill="#1A1F71" fill-rule="nonzero" d="M19.34 9.414V3.968h-.871v-.874h.872v-.3c0-.887.192-1.697.717-2.207.423-.418.986-.587 1.513-.587.397 0 .742.091.96.183l-.153.887a1.663 1.663 0 0 0-.718-.143c-.96 0-1.205.862-1.205 1.827v.34h1.499v.874h-1.499v5.446h-1.114z" mask="url(#d)"/><mask id="f" fill="#fff"><use xlink:href="#e"/></mask><path fill="#1A1F71" fill-rule="nonzero" d="M23.066 9.413h1.128v-6.32h-1.128v6.32zm1.255-8.094c.014.39-.27.705-.718.705-.397 0-.679-.314-.679-.705 0-.405.296-.719.706-.719.421 0 .691.314.691.719z" mask="url(#f)"/><mask id="h" fill="#fff"><use xlink:href="#g"/></mask><path fill="#1A1F71" fill-rule="nonzero" d="M29.486 5.64c.013-.73-.294-1.868-1.563-1.868-1.14 0-1.64 1.071-1.73 1.869h3.293zm-3.306.823c.026 1.554 1 2.194 2.128 2.194.807 0 1.294-.144 1.717-.327l.193.823c-.398.182-1.078.391-2.064.391-1.91 0-3.05-1.28-3.05-3.186s1.102-3.408 2.909-3.408c2.025 0 2.562 1.816 2.562 2.978 0 .234-.024.417-.038.535H26.18z" mask="url(#h)"/><mask id="j" fill="#fff"><use xlink:href="#i"/></mask><path fill="#1A1F71" fill-rule="nonzero" d="M35.69 5.667c0-.143-.013-.34-.05-.484-.168-.73-.783-1.331-1.629-1.331-1.165 0-1.857 1.044-1.857 2.44 0 1.281.614 2.339 1.833 2.339.754 0 1.447-.51 1.652-1.372.038-.156.05-.313.05-.495V5.667zM36.819.143V7.78c0 .563.012 1.202.05 1.634h-1.012l-.052-1.098h-.026c-.345.704-1.101 1.24-2.115 1.24-1.498 0-2.651-1.292-2.651-3.212C31 4.242 32.28 2.95 33.793 2.95c.948 0 1.59.458 1.87.966h.027V.143h1.129z" mask="url(#j)"/><mask id="l" fill="#fff"><use xlink:href="#k"/></mask><path fill="#1A1F71" fill-rule="nonzero" d="M42.16 6.88c0 .143.027.288.053.419.217.795.87 1.344 1.69 1.344 1.18 0 1.884-.98 1.884-2.428 0-1.267-.64-2.351-1.845-2.351-.768 0-1.485.535-1.716 1.411-.027.13-.065.287-.065.47v1.136zm-1.165 2.535c.026-.432.05-1.072.05-1.634V.143h1.116v3.97h.026c.397-.705 1.115-1.163 2.115-1.163 1.538 0 2.626 1.307 2.614 3.226 0 2.259-1.397 3.38-2.781 3.38-.898 0-1.616-.351-2.076-1.187h-.038l-.053 1.046h-.973z" mask="url(#l)"/><mask id="n" fill="#fff"><use xlink:href="#m"/></mask><path fill="#1A1F71" fill-rule="nonzero" d="M48.147 3.094l1.358 3.734c.142.418.295.914.397 1.293h.026c.116-.379.244-.862.398-1.319l1.231-3.708h1.192l-1.693 4.505c-.807 2.167-1.359 3.277-2.127 3.957-.55.495-1.103.691-1.384.743l-.282-.965c.282-.092.653-.275.987-.562.307-.248.691-.693.949-1.28.051-.117.089-.209.089-.274a1.04 1.04 0 0 0-.077-.3l-2.294-5.824h1.23z" mask="url(#n)"/><mask id="p" fill="#fff"><use xlink:href="#o"/></mask><path fill="#1A1F71" fill-rule="nonzero" d="M18.706 13.727l-3.419 8.808-1.382-7.49c-.16-.834-.801-1.318-1.515-1.318H6.8l-.075.374c1.145.257 2.45.664 3.24 1.1.482.27.62.502.778 1.14l2.621 10.327h3.474l5.322-12.941h-3.454z" mask="url(#p)"/><mask id="r" fill="#fff"><use xlink:href="#q"/></mask><path fill="#1A1F71" fill-rule="nonzero" mask="url(#r)" d="M23.568 13.727l-2.715 12.941h3.285l2.712-12.941z"/><mask id="t" fill="#fff"><use xlink:href="#s"/></mask><path fill="#1A1F71" fill-rule="nonzero" d="M31.162 17.313c.01-.463.445-.957 1.393-1.086.473-.063 1.768-.11 3.242.577l.576-2.74a8.66 8.66 0 0 0-3.073-.577c-3.25 0-5.533 1.762-5.554 4.28-.017 1.862 1.634 2.903 2.877 3.525 1.28.631 1.71 1.036 1.703 1.606-.006.87-1.021 1.25-1.963 1.265-1.655.025-2.612-.455-3.377-.816l-.594 2.837c.766.358 2.184.672 3.656.688 3.445 0 5.705-1.741 5.717-4.428.014-3.42-4.635-3.605-4.603-5.131" mask="url(#t)"/><mask id="v" fill="#fff"><use xlink:href="#u"/></mask><path fill="#1A1F71" fill-rule="nonzero" d="M41.922 13.727c-.632 0-1.164.372-1.4.95l-4.928 11.99h3.45l.686-1.932h4.207l.394 1.933h3.045l-2.648-12.941h-2.806zm-1.248 8.356l1.747-4.86.982 4.86h-2.729z" mask="url(#v)"/></g></svg>