<svg xmlns="http://www.w3.org/2000/svg" width="44" height="18"><g fill="none" fill-rule="evenodd"><path d="M-12-26h70v70h-70z"/><text fill="#225E63" font-family="Arial-Black, Arial Black" font-size="2.227" font-weight="700" transform="translate(28.733 8.067)"><tspan x="0" y="2">COMPLIANT</tspan></text><g fill-rule="nonzero"><path fill="#225E63" d="M24.02 11.398l1.429-.455-.463-1.04c-.344.43-.683.983-.966 1.495zm-.487-4.76L20.731.344.217 1.517 5.9 17.157l10.94-3.477c-.693-1.01-.95-2.208-.146-2.795.9-.656 2.255.103 3.125 1.182.835-1.415 3.178-4.683 3.714-5.428z"/><path d="M20.094 4.892c.858 0 1.555-.662 1.555-1.479 0-.817-.697-1.479-1.555-1.479-.859 0-1.555.662-1.555 1.479 0 .817.696 1.479 1.555 1.479zm-1.272.642h2.544v6.7h-2.544v-6.7zm-1.256 1.955c.018.01.033.002.033-.02V5.773a.071.071 0 0 0-.034-.057s-.334-.22-1.352-.28c-.054-.031-.94-.035-1.187 0-3.7.299-3.837 2.998-3.837 3.122v.656c0 .08 0 2.84 3.837 3.085.375.029 1.11 0 1.187 0 .884 0 1.496-.268 1.496-.268a.062.062 0 0 0 .035-.053v-1.59c0-.021-.014-.029-.032-.017 0 0-.275.222-1.483.341-.342.039-.504.02-.628 0-1.712-.29-1.794-1.556-1.794-1.556a.827.827 0 0 1-.004-.076v-.485c0-.021.002-.056.005-.077 0 0 .116-1.356 1.793-1.499h.628c.741.101 1.337.47 1.337.47zM4.132 12.207c0 .021.017.039.038.039h2.48a.038.038 0 0 0 .038-.039v-1.944c0-.022.017-.038.038-.037 0 0 3.956.289 3.956-2.39 0-2.113-2.482-2.345-3.299-2.306H4.171a.039.039 0 0 0-.039.038v6.64zm2.51-3.466V6.99h.607s.882.04.95.646a1.44 1.44 0 0 1 0 .36c-.113.712-.88.746-.88.746h-.676z" fill="#FEFEFE"/><path fill="#2BBC5D" d="M20.164 15.468c.207 0 .365 0 .627-.117.903-.479 3.943-7.968 7.15-10.272a.29.29 0 0 0 .061-.058c.021-.03.022-.061.022-.061s0-.155-.475-.155c-2.855-.078-5.824 5.958-7.385 8.347-.02.026-.127 0-.127 0s-1.046-1.245-1.954-1.722a.549.549 0 0 0-.23-.034c-.072 0-.494.086-.691.295-.233.248-.228.387-.226.688 0 .025.016.124.044.175.223.392 1.237 1.799 2.069 2.575.128.093.324.34 1.115.34z"/></g><g fill="#225E63" font-family="Arial-Black, Arial Black" font-size="7.219" font-weight="700"><text transform="translate(28.233)"><tspan x="0" y="8">DS</tspan></text><text transform="translate(38.233)"><tspan x=".598" y="8">S</tspan></text></g></g></svg>