<svg xmlns="http://www.w3.org/2000/svg" width="47" height="16"><g fill="none" fill-rule="evenodd"><path d="M-13-27h70v70h-70z"/><path fill="#0A2171" fill-rule="nonzero" d="M17.798.712l-6.093 14.67H7.718l-2.99-11.73c-.191-.734-.345-.966-.881-1.277-1.18-.573-2.43-.99-3.719-1.238L.205.712h6.402A1.757 1.757 0 0 1 8.332 2.22l1.571 8.478L13.811.712h3.987zm15.6 9.87c-.039 3.056-2.607 5.032-6.554 4.992a10.58 10.58 0 0 1-4.178-.774l.69-3.212a7.674 7.674 0 0 0 3.872.929c1.073 0 2.261-.465 2.261-1.432 0-.62-.536-1.123-1.955-1.82-1.418-.697-3.335-1.858-3.296-3.986.038-2.826 2.645-4.84 6.361-4.84 1.207 0 2.401.224 3.527.66l-.652 3.095a7.12 7.12 0 0 0-3.716-.658c-1.112.156-1.61.698-1.61 1.24-.039 1.702 5.25 1.935 5.25 5.806zm9.812 4.8l-.498-2.207h-4.83l-.766 2.206h-3.948L38.84 1.795A1.71 1.71 0 0 1 40.45.712h3.22l3.028 14.67H43.21zm-4.216-5.187h3.143l-1.15-5.498-1.993 5.498zM23.164.712l-3.104 14.67h-3.757L19.408.711h3.756z"/></g></svg>