<svg xmlns="http://www.w3.org/2000/svg" width="54" height="29"><g fill="none" fill-rule="evenodd"><path d="M-8-21h70v70H-8z"/><path d="M16.552.344l-3.88 7.857c-.844 1.72-1.664 3.384-2.31 5.104h-.047a111.05 111.05 0 0 0-.416-5.104l-.404-4.118-.37-3.739H0v.574h.312C4.539 1.147 5.614 3.59 5.89 4.84L5.383.918l.531 4.037c-.012-.034-.012-.08-.023-.115l.092.734v-.091L7.462 16.86h4.285L20.676.344h-4.124zm9.899-.057l-3.28 16.528h-3.696L22.755.287zm.255 12.708c1.028.585 2.494 1.056 4.077 1.056 1.432 0 2.75-.643 2.75-1.939 0-.929-.74-1.548-2.334-2.328-1.848-.952-3.593-2.225-3.593-4.393 0-3.338 3.05-5.368 6.827-5.368 2.102 0 3.338.436 4.077.837l-1.65 2.937c-.566-.299-1.005-.884-2.738-.86-1.72.022-2.622.951-2.622 1.857 0 .952 1.051 1.549 2.518 2.329C36.12 8.178 37.46 9.52 37.46 11.48c0 3.682-3.188 5.563-7.034 5.563-2.414 0-4.378-.952-5.198-1.548l1.479-2.5zm16.113-.47l-2.056 4.29h-3.927L45.256.287h4.748l2.032 16.528h-3.88l-.359-4.29H42.82zm4.828-2.695l-.335-3.556c-.08-.906-.185-2.225-.254-3.234h-.046c-.44 1.009-.924 2.282-1.386 3.234L43.905 9.83h3.742zM3.692 28.901c-1.05 0-1.852-.263-2.426-.78-.574-.527-.855-1.274-.855-2.24 0-.77.13-1.472.379-2.098a4.953 4.953 0 0 1 1.04-1.626c.432-.44.941-.791 1.548-1.044a4.861 4.861 0 0 1 1.895-.373c.53 0 1.028.055 1.483.164.455.11.866.275 1.235.484l-.455 1.9h-.228c-.324-.362-.66-.626-.985-.79a2.53 2.53 0 0 0-1.148-.253c-.769 0-1.407.318-1.916.944-.498.626-.747 1.428-.747 2.406 0 .626.14 1.077.411 1.362.282.286.682.418 1.213.418.476 0 .931-.1 1.342-.297a5.72 5.72 0 0 0 1.192-.747h.205l-.454 1.878c-.152.066-.336.143-.542.231a5.73 5.73 0 0 1-.595.22 4.92 4.92 0 0 1-.704.165c-.195.065-.498.076-.888.076zm10.612-4.734c0 .088-.011.198-.022.33a2.993 2.993 0 0 1-.065.406l-.877 3.856h-1.895l.671-2.944c.044-.22.087-.418.12-.571.032-.154.043-.297.043-.418 0-.23-.055-.406-.174-.505-.119-.1-.324-.154-.628-.154a1.65 1.65 0 0 0-.52.099 4.04 4.04 0 0 0-.65.296l-.952 4.208H7.471l1.862-8.217h1.884l-.67 2.944a7.765 7.765 0 0 1 1.05-.604c.313-.143.67-.22 1.05-.22.53 0 .942.132 1.223.396.293.241.434.615.434 1.098zm3.779 4.745c-.997 0-1.765-.22-2.307-.67-.541-.45-.812-1.065-.812-1.856 0-.538.087-1.033.27-1.483.174-.45.434-.846.77-1.186.314-.33.714-.594 1.201-.791.477-.198 1.008-.286 1.581-.286.867 0 1.527.176 1.971.538.444.363.66.89.66 1.582 0 .242-.021.473-.075.703-.054.23-.108.462-.184.681h-4.353v.132c0 .407.14.736.433.967.282.23.725.351 1.31.351.412 0 .801-.066 1.17-.208.368-.143.682-.297.953-.473h.205l-.346 1.527a5.178 5.178 0 0 1-1.148.363 7.15 7.15 0 0 1-1.3.11zm1.429-3.877c.01-.066.022-.121.022-.176 0-.055.01-.11.01-.165 0-.274-.086-.494-.26-.637-.173-.154-.41-.22-.736-.22-.39 0-.714.11-.974.319a1.89 1.89 0 0 0-.596.89h2.534v-.011zm5.1 3.877c-.4 0-.769-.054-1.126-.153a2.329 2.329 0 0 1-.91-.473 2.225 2.225 0 0 1-.595-.78 2.628 2.628 0 0 1-.217-1.087c0-.527.098-1.022.303-1.483a3.43 3.43 0 0 1 .845-1.197c.357-.33.79-.605 1.3-.791a4.536 4.536 0 0 1 1.656-.297c.357 0 .715.044 1.061.12.358.078.682.199.986.352l-.401 1.626h-.27a1.962 1.962 0 0 0-.694-.56 2.044 2.044 0 0 0-.866-.187c-.585 0-1.061.209-1.418.637-.358.429-.542.956-.542 1.593 0 .44.108.77.336.989.216.22.563.33 1.028.33.358 0 .693-.078.986-.22.292-.154.552-.319.758-.495h.27l-.4 1.626a6.006 6.006 0 0 1-.985.352c-.282.066-.65.098-1.105.098zm9.258-.164h-1.971l-1.158-2.615-.823.747-.433 1.879h-1.884l1.862-8.217h1.884l-1.115 4.899 2.62-2.614h2.155L32.3 25.408zm7.353-3.758a4.33 4.33 0 0 1-.271 1.56 3.689 3.689 0 0 1-.78 1.253 3.659 3.659 0 0 1-1.202.835c-.454.198-.996.296-1.602.296-.867 0-1.538-.208-2.003-.637-.466-.417-.693-1.01-.693-1.757 0-.528.086-1.033.26-1.505a3.611 3.611 0 0 1 1.982-2.098c.475-.209 1.017-.308 1.612-.308.877 0 1.538.209 2.004.626.454.429.693 1 .693 1.736zm-2.437 1.945a2.61 2.61 0 0 0 .358-.813c.086-.296.119-.648.119-1.065 0-.363-.076-.637-.239-.835-.151-.198-.4-.297-.747-.297-.26 0-.498.066-.693.198a1.963 1.963 0 0 0-.53.55c-.141.219-.25.494-.336.823-.087.33-.12.66-.12 1.01 0 .407.088.693.272.869.184.175.422.263.725.263.228 0 .444-.066.65-.187.216-.12.39-.296.541-.516zm9.919-4.108l-1.354 5.932h-1.884l.152-.66c-.184.121-.368.242-.552.341-.174.11-.347.198-.51.253-.205.088-.39.143-.552.176a2.545 2.545 0 0 1-.498.043c-.509 0-.92-.12-1.212-.373-.293-.253-.444-.615-.444-1.11 0-.131.01-.252.021-.373.011-.11.033-.242.065-.373l.877-3.856h1.895l-.671 2.944c-.054.23-.087.417-.12.582-.02.165-.042.297-.042.417 0 .231.054.396.162.506.108.099.325.154.628.154.152 0 .325-.033.53-.1.196-.065.412-.164.65-.285l.953-4.207h1.906v-.011zm2.382 6.042c-.65 0-1.115-.11-1.386-.33-.281-.22-.411-.538-.411-.967 0-.11.01-.22.021-.33.022-.11.044-.23.065-.373l.64-2.812h-.77l.282-1.252h.769l.39-1.692h1.884l-.38 1.692h1.755l-.282 1.252H51.91l-.487 2.142c-.033.143-.065.297-.098.45a1.814 1.814 0 0 0-.043.385c0 .209.054.363.173.44.12.087.293.12.542.12.097 0 .227-.022.379-.055a1.81 1.81 0 0 0 .379-.12h.151l-.292 1.274a4.282 4.282 0 0 1-.671.12c-.239.023-.531.056-.856.056z" fill="#161E6F" fill-rule="nonzero"/></g></svg>