<svg xmlns="http://www.w3.org/2000/svg" xmlns:xlink="http://www.w3.org/1999/xlink" width="27" height="36"><defs><path id="a" d="M.008 36V.114h26.931V36z"/></defs><g fill="none" fill-rule="evenodd"><path d="M-22-15h70v70h-70z"/><mask id="b" fill="#fff"><use xlink:href="#a"/></mask><path fill="#FACA22" d="M0 17.915c0-2.015.167-3.294 4.286-6.41C7.696 8.928 18.626.115 18.626.115v14.712h8.313V36H2.597C1.169 36 0 34.816 0 33.369V17.915" mask="url(#b)"/><path fill="#C9A521" d="M18.627 14.826v8.524L3.352 33.893l19.312-6.366V14.826h-4.037"/><path fill="#6F8F9D" d="M11.647 14.385c.893-1.079 2.197-1.46 2.914-.85.716.609.573 1.977-.32 3.055s-2.198 1.459-2.914.85c-.717-.61-.573-1.977.32-3.055"/></g></svg>