<svg xmlns="http://www.w3.org/2000/svg" fill="none" viewBox="0 0 80 80"><path fill="#EC5C63" d="M17.68 41.736a.925.925 0 0 0 .67-.249.823.823 0 0 0 .265-.63.87.87 0 0 0-.265-.63.99.99 0 0 0-.67-.248h-2.652V37.05h4.133a.925.925 0 0 0 .67-.249.823.823 0 0 0 .266-.63.87.87 0 0 0-.265-.63.99.99 0 0 0-.67-.248h-5.148c-.312 0-.562.088-.749.264-.187.175-.265.395-.265.688v8.42c0 .293.078.527.265.703.187.176.437.249.749.249s.546-.073.733-.249c.187-.176.28-.41.28-.703v-2.929h2.652zM26.582 44.885a.94.94 0 0 0 .093.175.95.95 0 0 0 .203.25.961.961 0 0 0 .312.22c.125.058.296.087.484.087a.925.925 0 0 0 .67-.249c.172-.176.265-.41.265-.703a.79.79 0 0 0-.124-.41c-.078-.132-.14-.234-.188-.322l-1.637-2.636v-.073c.296-.147.577-.352.826-.615.188-.205.375-.484.546-.835.172-.337.265-.761.265-1.26a3.17 3.17 0 0 0-.265-1.274 3.483 3.483 0 0 0-.748-1.01 3.874 3.874 0 0 0-1.155-.688 4.435 4.435 0 0 0-1.497-.25h-2.73c-.312 0-.561.089-.748.264-.188.176-.265.396-.265.689v8.42c0 .293.078.527.265.703.187.176.436.249.748.249s.546-.073.733-.249c.188-.176.281-.41.281-.703v-2.929h1.716l1.95 3.149zm-1.95-7.835c.468 0 .842.147 1.123.41.28.264.437.615.437 1.055 0 .439-.156.805-.437 1.069-.28.263-.655.395-1.123.395h-1.716V37.05h1.716zM31.734 36.172c0-.293-.094-.513-.28-.689-.188-.175-.422-.263-.734-.263s-.561.087-.749.263c-.187.176-.265.396-.265.689v8.493c0 .293.078.527.265.703.188.176.437.249.75.249.311 0 .545-.073.732-.249.187-.176.28-.41.28-.703v-8.493zM36.58 44.08c-.407 0-.75-.088-1.03-.264a1.987 1.987 0 0 1-.687-.762 1.994 1.994 0 0 0-.312-.395c-.124-.117-.312-.19-.546-.19-.312 0-.561.087-.748.263-.188.176-.265.395-.265.688 0 .235.078.498.265.776.187.293.437.557.764.791.312.25.702.454 1.139.615.436.161.904.235 1.42.235.592 0 1.138-.074 1.606-.235a3.227 3.227 0 0 0 1.2-.659c.328-.293.578-.63.75-1.04.17-.41.264-.863.264-1.361 0-.571-.14-1.04-.39-1.392a3.355 3.355 0 0 0-.95-.893 5.784 5.784 0 0 0-1.233-.556 22.376 22.376 0 0 1-1.248-.44c-.374-.146-.702-.307-.951-.498a.903.903 0 0 1-.375-.761c0-.366.125-.659.39-.893.265-.235.655-.352 1.17-.352.421 0 .749.103.983.293.234.19.42.38.577.586.109.176.218.293.343.38.11.089.28.133.515.133.25 0 .468-.088.655-.264.187-.176.28-.395.28-.688 0-.235-.093-.469-.249-.733-.156-.263-.39-.497-.67-.717a4.636 4.636 0 0 0-1.061-.527 4.063 4.063 0 0 0-1.373-.22c-.546 0-1.045.088-1.482.234-.437.161-.81.381-1.123.645a2.91 2.91 0 0 0-.733.98c-.172.381-.25.777-.25 1.216 0 .586.125 1.055.375 1.406.25.352.577.644.951.864.375.234.796.41 1.248.557.437.146.858.307 1.232.453.375.147.702.323.952.528a1 1 0 0 1 .39.805c0 .38-.172.703-.484.981-.327.279-.764.41-1.31.41zM42.674 35.293c-.312 0-.562.088-.749.264-.187.175-.265.395-.265.688v8.347c0 .293.078.527.265.703.187.175.437.249.749.249h3.12c.498 0 .967-.073 1.403-.235.421-.16.796-.38 1.108-.659.312-.278.546-.6.733-.98.171-.382.265-.777.265-1.202 0-.468-.094-.864-.265-1.156a2.947 2.947 0 0 0-.593-.733 2.644 2.644 0 0 0-.858-.454v-.073c.218-.088.437-.22.624-.395.156-.132.296-.322.421-.557a1.85 1.85 0 0 0 .203-.878c0-.396-.094-.776-.25-1.128a3.024 3.024 0 0 0-.702-.937 3.55 3.55 0 0 0-1.06-.63 3.946 3.946 0 0 0-1.342-.234h-2.807zm3.041 5.784c.468 0 .827.132 1.092.366.25.25.39.586.39 1.026 0 .41-.125.732-.374.966-.25.234-.593.351-1.03.351h-2.105v-2.709h2.027zm-.234-4.027c.39 0 .702.103.92.308.22.205.328.498.328.864 0 .834-.452 1.244-1.325 1.244h-1.716V37.05h1.793zM56.871 45.544a.925.925 0 0 0 .67-.25.823.823 0 0 0 .266-.629.87.87 0 0 0-.265-.63.99.99 0 0 0-.671-.249h-4.29v-2.49h2.886a.925.925 0 0 0 .67-.248.823.823 0 0 0 .266-.63.87.87 0 0 0-.265-.63.99.99 0 0 0-.67-.248H52.58v-2.49h4.134a.925.925 0 0 0 .67-.249.823.823 0 0 0 .266-.63.87.87 0 0 0-.265-.63.99.99 0 0 0-.671-.248h-5.147c-.312 0-.562.088-.749.264-.187.175-.265.395-.265.688v8.347c0 .293.078.527.265.703.187.175.437.249.749.249h5.303zM65.064 45.544a.925.925 0 0 0 .67-.25.823.823 0 0 0 .266-.629.869.869 0 0 0-.265-.63.99.99 0 0 0-.67-.249h-4.29v-2.49h2.885a.925.925 0 0 0 .671-.248.823.823 0 0 0 .265-.63.87.87 0 0 0-.265-.63.99.99 0 0 0-.67-.248h-2.886v-2.49h4.133a.925.925 0 0 0 .67-.249.823.823 0 0 0 .266-.63.87.87 0 0 0-.265-.63.99.99 0 0 0-.67-.248H59.76c-.312 0-.562.088-.749.264-.187.175-.265.395-.265.688v8.347c0 .293.078.527.265.703.187.175.437.249.749.249h5.303z"/></svg>