<svg xmlns="http://www.w3.org/2000/svg" viewBox="0 0 256 256"><path fill="#531DA7" d="M0 0h256v256H0z"/><path fill="#fff" d="M218.6 84.3c0-5.1-4.4-10.2-11-10.2-6.7 0-11 5.1-11 10.2v85c0 5.1 4.3 10.2 11 10.2 6.6 0 11-5.2 11-10.2zm-86.3 35.1V96H147c7.4 0 12.6 5.1 12.6 11.7 0 6.8-5.2 11.8-12.6 11.8h-14.7zm14 20.6 20 33.6c1.7 3 4.3 5.9 9.5 5.9 6.7 0 11-5.2 11-10.2 0-4.4-1.4-7-4.3-11.8l-14.8-23.4v-1.4s14-6.6 14-25c0-18.3-14-32.2-34.6-32.2h-25.9c-6.6 0-11 5.2-11 10.2v83.5c0 5.1 4.4 10.2 11 10.2 6.7 0 11-5.1 11-10.2V140h14zM93 96c6.7 0 11-4.4 11-10.3 0-5.8-4.3-10.2-11-10.2H48c-6.7 0-11.1 5-11.1 10.2v83.5c0 5.1 4.4 10.2 11 10.2 6.7 0 11.1-5.1 11.1-10.2v-27.8h21.4c6.6 0 11-4.4 11-10.2 0-6-4.4-10.3-11-10.3H59.2V96h34z"/></svg>