<svg xmlns="http://www.w3.org/2000/svg" width="51" height="15" viewBox="0 0 51 15">
  <defs>
    <linearGradient id="mir-a" x1="30.006%" y1="50%" y2="50%">
      <stop offset="0%" stop-color="#13AAE3"/>
      <stop offset="100%" stop-color="#0076D0"/>
    </linearGradient>
  </defs>
  <g fill="none" fill-rule="evenodd" transform="translate(-10 -27)">
    <rect width="70" height="70"/>
    <path fill="#319B42" fill-rule="nonzero" d="M13.5623578,-6.21126052e-15 L13.5623578,0.00633427708 C13.5561365,0.00633427708 11.5964381,-6.21126052e-15 11.0738518,1.9066174 C10.5948144,3.65487787 9.24479987,8.48159701 9.20747228,8.61461682 L8.83419637,8.61461682 C8.83419637,8.61461682 7.45307553,3.68021498 6.96781686,1.90028312 C6.44523059,-0.00633427708 4.47931084,-6.21126052e-15 4.47931084,-6.21126052e-15 L0,-6.21126052e-15 L0,14.5054945 L4.47931084,14.5054945 L4.47931084,5.89087768 L4.66594879,5.89087768 L4.85258674,5.89087768 L7.46551806,14.5054945 L10.5761506,14.5054945 L13.1890819,5.89721196 L13.5623578,5.89721196 L13.5623578,14.5054945 L18.0416687,14.5054945 L18.0416687,-6.21126052e-15 L13.5623578,-6.21126052e-15 Z" transform="translate(10.276 27.385)"/>
    <path fill="#319B42" fill-rule="nonzero" d="M9.95402408,0 C9.95402408,0 8.64133716,0.120351264 8.02543192,1.5202265 L4.85258674,8.61461682 L4.47931084,8.61461682 L4.47931084,0 L0,0 L0,14.5054945 L4.23046024,14.5054945 L4.23046024,14.5054945 C4.23046024,14.5054945 5.60535981,14.378809 6.22126505,12.985268 L9.33189758,5.89087768 L9.70517348,5.89087768 L9.70517348,14.5054945 L14.1844843,14.5054945 L14.1844843,0 L9.95402408,0 Z" transform="translate(30.246 27.385)"/>
    <path fill="#319B42" fill-rule="nonzero" d="M0,0 L0,7.91784635 L4.47931084,7.91784635 L4.47931084,3.29382408 L9.33189758,3.29382408 C11.4471277,3.29382408 13.238852,1.91928595 13.9045274,0 L0,0 Z" transform="translate(46.421 33.972)"/>
    <path fill="url(#mir-a)" fill-rule="nonzero" d="M10.0162367,0 L0.0559913855,0 C0.55369259,2.76174481 2.58804626,4.97874178 5.21964138,5.70084937 L5.21964138,5.70084937 C5.81688282,5.86554057 6.44523059,5.95422045 7.09224216,5.95422045 L14.7692832,5.95422045 C14.8377171,5.62483804 14.8688235,5.28912136 14.8688235,4.94073612 C14.8688235,2.2106627 12.697602,0 10.0162367,0 Z" transform="translate(45.737 27.385)"/>
  </g>
</svg>
