<svg xmlns="http://www.w3.org/2000/svg" width="49" height="16" viewBox="0 0 49 16">
  <g fill="none" fill-rule="evenodd" transform="translate(-11 -27)">
    <rect width="70" height="70"/>
    <path fill="#F79E1B" fill-rule="nonzero" d="M15.275647,37.8342705 C15.0307512,37.6768514 14.7670821,37.5515766 14.4909777,37.4614575 C14.2145218,37.3723047 13.9259936,37.3274577 13.6358483,37.3285415 C13.4557476,37.3269024 13.2761261,37.347588 13.1009921,37.3901367 C12.9531466,37.4250071 12.812315,37.4853175 12.684637,37.5684386 C12.5754009,37.6397261 12.4834453,37.735021 12.4156075,37.8472379 C12.3509199,37.9580855 12.3176747,38.0848388 12.3195255,38.2135673 C12.314811,38.327607 12.3438036,38.440479 12.4027966,38.5377525 C12.4641022,38.6297914 12.5465203,38.7054299 12.6430014,38.7581985 C12.7629858,38.8247118 12.8911406,38.8748558 13.0241265,38.9073237 C13.1919779,38.9499974 13.3619659,38.9835446 13.5333609,39.0078211 L13.9369051,39.0629326 C14.1712278,39.0960715 14.4025605,39.1481066 14.6286952,39.2185415 C14.8436169,39.2838532 15.0468738,39.3834399 15.2308088,39.5135501 C15.4060279,39.6383756 15.5515462,39.8011762 15.6567721,39.9901024 C15.7690194,40.2044256 15.8242082,40.4446364 15.8169087,40.6871007 C15.822499,40.9649332 15.7574293,41.2395549 15.6279475,41.4845964 C15.5033603,41.7151432 15.3293599,41.9145308 15.1187132,42.0681299 C14.8929173,42.2317505 14.6402669,42.353582 14.3724766,42.4279755 C14.0796426,42.5113772 13.7767096,42.5528436 13.472509,42.5511659 C13.2665113,42.5501373 13.060909,42.5327945 12.8575845,42.4992962 C12.6406286,42.4661726 12.42649,42.4163192 12.2170381,42.350171 C12.0184269,42.2831323 11.8256106,42.1996423 11.6405464,42.1005484 C11.4576827,42.0059951 11.2867113,41.8895335 11.131312,41.7536702 L11.6405464,40.9918348 C11.7506528,41.0924326 11.8721338,41.1794874 12.0024551,41.251183 C12.3023528,41.4173629 12.6268069,41.5334036 12.9632746,41.5948194 C13.1333309,41.6269038 13.3059295,41.6431808 13.4789145,41.6434472 C13.6576334,41.6457639 13.8360228,41.627272 14.0105679,41.5883357 C14.1628075,41.554724 14.3087681,41.4967211 14.4429367,41.4165175 C14.5589017,41.3474473 14.6584095,41.2533651 14.7343853,41.1409601 C14.8075021,41.0308888 14.8455086,40.9007669 14.8432782,40.768147 C14.8477984,40.5437652 14.7226679,40.3373111 14.523005,40.2397251 C14.2079456,40.0912538 13.8698681,39.9991212 13.5237527,39.9674095 L13.0689648,39.9025724 C12.8512482,39.8719733 12.6368111,39.8209651 12.4284184,39.7502053 C12.2282797,39.68349 12.0408874,39.5826191 11.8743458,39.4519549 C11.7095962,39.3221653 11.5751002,39.1572491 11.4804098,38.9689189 C11.3722725,38.7519014 11.3173458,38.5117197 11.3202732,38.2686787 C11.3154557,37.9948076 11.3782015,37.7240452 11.5028289,37.4809086 C11.6229527,37.2520593 11.792662,37.0536785 11.9992523,36.900617 C12.2205587,36.7380829 12.4690103,36.6172816 12.7326779,36.5440132 C13.0243323,36.4601927 13.3262675,36.4187153 13.6294429,36.4208228 C14.0214012,36.4156719 14.4116737,36.4736694 14.785629,36.592641 C15.1250969,36.7040287 15.448256,36.8610398 15.7464486,37.0594678 L15.275647,37.8342705 Z M18.4623652,38.2881299 C18.7254181,38.2856876 18.9860947,38.3386806 19.2278181,38.4437388 C19.4550639,38.5432726 19.6582983,38.6914772 19.8235262,38.878147 C19.9940825,39.0745661 20.1256571,39.3024059 20.2110568,39.5492105 C20.3075573,39.8272045 20.3552501,40.1201482 20.351977,40.4147851 C20.351977,40.4698966 20.351977,40.5282499 20.351977,40.5833614 C20.351977,40.6384729 20.351977,40.6935844 20.351977,40.745454 L17.3798418,40.745454 C17.401244,40.9105771 17.4534107,41.0700888 17.533573,41.2155227 C17.6027227,41.3404078 17.6951789,41.4505084 17.8058052,41.5397079 C17.9117863,41.6233611 18.0323917,41.6860501 18.1613084,41.7244935 C18.2944145,41.7640823 18.4325277,41.7837417 18.5712581,41.7828468 C18.7770006,41.7812412 18.9808424,41.7428284 19.1733717,41.669382 C19.3744367,41.5929366 19.5616471,41.4834007 19.7274443,41.3451968 L20.1598131,41.977358 C19.9335558,42.1783293 19.6685425,42.3295651 19.3815492,42.4214918 C19.1000542,42.5070771 18.8075231,42.5496899 18.5136089,42.547924 C18.2310905,42.5509902 17.9506052,42.4992699 17.6873041,42.395557 C17.4466683,42.2981431 17.2285724,42.1513378 17.0467577,41.9643906 C16.861649,41.7725884 16.7177162,41.5441186 16.6239971,41.2933271 C16.5205622,41.0135524 16.4695155,40.7167235 16.4734687,40.4180269 C16.4704006,40.1228532 16.5203191,39.8295693 16.6207944,39.5524523 C16.7112193,39.3020482 16.8506542,39.0726987 17.0307441,38.878147 C17.2112064,38.688758 17.4296095,38.5406406 17.6712904,38.4437388 C17.9222313,38.3390988 18.1909649,38.2851361 18.4623652,38.284888 L18.4623652,38.2881299 Z M18.4463515,39.0759 C18.3043843,39.0731487 18.1631641,39.0973394 18.0299964,39.1472208 C17.9101847,39.191636 17.8010299,39.2612435 17.7097232,39.3514575 C17.6193898,39.4454735 17.5466817,39.5553187 17.4951402,39.6756427 C17.4372838,39.8033789 17.3973956,39.938691 17.3766391,40.0776324 L19.4520093,40.0776324 C19.4272177,39.8035883 19.31477,39.5452143 19.1317362,39.3417319 C18.9487825,39.1596098 18.6995439,39.0622168 18.4431488,39.0726582 L18.4463515,39.0759 Z M23.08711,38.2881299 C23.3746593,38.2853877 23.659883,38.3404845 23.9262257,38.4502225 C24.1747849,38.5571489 24.3944273,38.7227812 24.5667721,38.9332585 L24.006294,39.5362431 C23.8774324,39.4044925 23.7281326,39.2949827 23.564317,39.2120578 C23.4012221,39.1382863 23.2240827,39.1017616 23.0454745,39.1050767 C22.8848658,39.1033831 22.7256526,39.1353939 22.5778756,39.1990904 C22.4369965,39.2660434 22.311532,39.3621194 22.2095615,39.4811316 C22.1005478,39.599324 22.0156543,39.7381348 21.9597484,39.889605 C21.8397758,40.230308 21.8397758,40.6025041 21.9597484,40.943207 C22.0152773,41.0958291 22.1001898,41.235773 22.2095615,41.3549223 C22.3150209,41.4687412 22.4426004,41.5592481 22.5842811,41.6207542 C22.7320581,41.6844507 22.8912712,41.7164615 23.0518799,41.7147679 C23.2405082,41.715109 23.4267252,41.6718668 23.5963444,41.5883357 C23.7582522,41.5116956 23.907368,41.409977 24.0383214,41.2868434 L24.579583,41.9125209 C24.3997885,42.1233018 24.1738762,42.2887003 23.9198203,42.395557 C23.6547195,42.50571 23.3704577,42.5608315 23.0839073,42.5576496 C22.787916,42.5619358 22.4940165,42.5068452 22.2191697,42.395557 C21.7144405,42.1912906 21.3187897,41.780206 21.1302408,41.2641504 C20.9294815,40.7183699 20.9294815,40.117684 21.1302408,39.5719034 C21.3188882,39.0614709 21.7104344,38.6545576 22.2095615,38.4502225 C22.4871758,38.3365549 22.7844746,38.2803371 23.0839073,38.284888 L23.08711,38.2881299 Z M29.0602049,40.7260029 C29.0675963,41.0111803 29.0129257,41.2945127 28.9000683,41.5559172 C28.8041968,41.7737212 28.6620331,41.967433 28.4837132,42.1232414 C28.3099335,42.2707956 28.1083573,42.3810866 27.8912078,42.4474266 C27.444518,42.585857 26.9671283,42.585857 26.5204385,42.4474266 C26.3023618,42.3809896 26.0997561,42.2707313 25.9247304,42.1232414 C25.7452936,41.9684869 25.6029273,41.7744991 25.5083753,41.5559172 C25.3976038,41.2939547 25.3440706,41.0108548 25.3514414,40.7260029 L25.3514414,38.3918691 L26.2289899,38.3918691 L26.2289899,40.6611659 C26.224543,40.8295983 26.2494792,40.9975046 26.3026528,41.1571693 C26.3470083,41.2797375 26.4181762,41.390564 26.5108303,41.4813546 C26.6016491,41.56772 26.7114113,41.6310487 26.8311035,41.6661402 C27.0818135,41.7421949 27.3490492,41.7421949 27.5997592,41.6661402 C27.7194514,41.6310487 27.8292136,41.56772 27.9200324,41.4813546 C28.0126865,41.390564 28.0838544,41.2797375 28.1282099,41.1571693 C28.1825366,40.9977188 28.2085596,40.8297955 28.2050755,40.6611659 L28.2050755,38.3918691 L29.082624,38.3918691 L29.0602049,40.7260029 Z M32.2469231,38.2881299 C32.3681524,38.2876124 32.4892117,38.2973721 32.6088318,38.3173065 C32.7183248,38.3350422 32.8256725,38.3643801 32.929105,38.4048366 L32.7209274,39.2801367 C32.6196323,39.2287904 32.5118764,39.1917058 32.4006542,39.1699137 C32.2880136,39.1452709 32.1731971,39.132237 32.0579619,39.1310115 C31.9264989,39.1293724 31.7959728,39.1535945 31.6736341,39.2023323 C31.5587708,39.2485117 31.4558127,39.3205758 31.3725773,39.4130527 C31.2852742,39.5131243 31.2188251,39.6300037 31.1772106,39.756689 C31.1280199,39.9049613 31.1041911,40.0606442 31.1067505,40.2170321 L31.1067505,42.4441848 L30.2163911,42.4441848 L30.2163911,38.3918691 L31.0811287,38.3918691 L31.0811287,38.8489703 C31.2044518,38.6627208 31.3762585,38.5146208 31.5775521,38.4210458 C31.7874264,38.3279379 32.0145977,38.2815064 32.2437203,38.284888 L32.2469231,38.2881299 Z M35.1774227,38.2881299 C35.4404756,38.2856876 35.7011523,38.3386806 35.9428756,38.4437388 C36.1701214,38.5432726 36.3733558,38.6914772 36.5385838,38.878147 C36.714799,39.0732439 36.8518569,39.3011608 36.942128,39.5492105 C37.0385645,39.8272211 37.0862554,40.1201532 37.0830482,40.4147851 C37.0830482,40.4698966 37.0830482,40.5282499 37.0830482,40.5833614 C37.0830482,40.6384729 37.0830482,40.6935844 37.0830482,40.745454 L34.0916966,40.745454 C34.1130988,40.9105771 34.1652654,41.0700888 34.2454277,41.2155227 C34.3145775,41.3404078 34.4070337,41.4505084 34.51766,41.5397079 C34.6236411,41.6233611 34.7442464,41.6860501 34.8731632,41.7244935 C35.0062693,41.7640823 35.1443824,41.7837417 35.2831129,41.7828468 C35.4888554,41.7812412 35.6926972,41.7428284 35.8852265,41.669382 C36.0862915,41.5929366 36.2735018,41.4834007 36.4392991,41.3451968 L36.8748706,41.9741161 C36.6486675,42.1751648 36.3836373,42.3264102 36.0966068,42.4182499 C35.8151117,42.5038352 35.5225806,42.546448 35.2286664,42.5446822 C34.946148,42.5477483 34.6656628,42.496028 34.4023616,42.3923151 C34.1617258,42.2949012 33.9436299,42.1480959 33.7618152,41.9611487 C33.5767065,41.7693466 33.4327737,41.5408768 33.3390546,41.2900853 C33.2356197,41.0103105 33.184573,40.7134817 33.1885262,40.4147851 C33.1854581,40.1196113 33.2353766,39.8263274 33.3358519,39.5492105 C33.4243705,39.2993425 33.561603,39.0700328 33.7393961,38.8749052 C33.9198584,38.6855162 34.1382615,38.5373987 34.3799425,38.4404969 C34.6321013,38.3365517 34.9019553,38.2836839 35.17422,38.284888 L35.1774227,38.2881299 Z M35.1614091,39.0759 C35.0194418,39.0731487 34.8782216,39.0973394 34.7450539,39.1472208 C34.6252422,39.191636 34.5160874,39.2612435 34.4247807,39.3514575 C34.3344474,39.4454735 34.2617392,39.5553187 34.2101977,39.6756427 C34.1523808,39.8033939 34.1124943,39.9387003 34.0916966,40.0776324 L36.1734723,40.0776324 C36.1486806,39.8035883 36.036233,39.5452143 35.8531991,39.3417319 C35.6687031,39.1579237 35.4167928,39.060394 35.1582063,39.0726582 L35.1614091,39.0759 Z M40.8334472,36.4013717 C41.0866731,36.400501 41.3391757,36.4287786 41.5860891,36.4856599 C41.8204404,36.539553 42.0473887,36.6222959 42.2618656,36.7320407 C42.4669543,36.8371506 42.6575403,36.9690297 42.8287491,37.1243048 C42.9957155,37.2745206 43.1393214,37.4493897 43.2547124,37.6430012 L42.4668404,38.174665 C42.2910861,37.9124464 42.0547042,37.6976606 41.7782531,37.5489875 C41.4822354,37.3919262 41.1515544,37.3138248 40.8174335,37.3220578 C40.5346223,37.3190447 40.2539462,37.3719013 39.9911287,37.4776667 C39.7502603,37.5790959 39.5323178,37.7291071 39.3505823,37.9185587 C39.1627639,38.1138023 39.0157173,38.3453354 38.9182135,38.5993477 C38.7091493,39.1636954 38.7091493,39.7856004 38.9182135,40.349948 C39.0157173,40.6039603 39.1627639,40.8354934 39.3505823,41.0307371 C39.5323178,41.2201886 39.7502603,41.3701998 39.9911287,41.471629 C40.2539462,41.5773944 40.5346223,41.6302511 40.8174335,41.6272379 C41.4678368,41.6416853 42.0812985,41.3220581 42.447624,40.7778726 L43.2162797,41.3484386 C43.0912589,41.5337827 42.942654,41.7016427 42.7743027,41.8476839 C42.609079,41.9992368 42.4262466,42.1298714 42.2298382,42.2367062 C42.0202174,42.3431637 41.798705,42.4237081 41.5700755,42.4766033 C40.9122375,42.6239116 40.22612,42.5720497 39.5971927,42.3274781 C38.8634291,42.0368791 38.282919,41.4492781 37.9958267,40.7065518 C37.6955032,39.9178844 37.6955032,39.0443788 37.9958267,38.2557113 C38.282919,37.512985 38.8634291,36.9253841 39.5971927,36.6347851 C39.9904764,36.47675 40.410324,36.3974799 40.8334472,36.4013717 Z M45.9898454,38.2751625 C46.2836861,38.2717308 46.5753269,38.326806 46.8481776,38.4372551 C47.1022505,38.5398599 47.3340076,38.6918465 47.5303595,38.8846307 C47.723827,39.07665 47.8773708,39.305921 47.9819446,39.558936 C48.1991735,40.1015906 48.1991735,40.7085285 47.9819446,41.251183 C47.8773708,41.5041981 47.723827,41.7334691 47.5303595,41.9254884 C47.3340076,42.1182726 47.1022505,42.2702592 46.8481776,42.372864 C46.2960612,42.5900025 45.6836297,42.5900025 45.1315133,42.372864 C44.8771314,42.2708649 44.6452634,42.1188056 44.4493314,41.9254884 C44.2540659,41.7379431 44.0973334,41.5131933 43.988138,41.2641504 C43.7709092,40.7214959 43.7709092,40.114558 43.988138,39.5719034 C44.0920653,39.3193279 44.2444686,39.0901345 44.4365205,38.8975981 C44.6324524,38.7042809 44.8643205,38.5522216 45.1187024,38.4502225 C45.3963167,38.3365549 45.6936156,38.2803371 45.9930482,38.284888 L45.9898454,38.2751625 Z M45.9898454,39.1083185 C45.8198911,39.1065152 45.6512361,39.1384554 45.493422,39.2023323 C45.3444705,39.2625102 45.2093031,39.3529869 45.0962832,39.4681642 C44.983009,39.5854775 44.8937576,39.7242951 44.8336592,39.8766376 C44.7055186,40.2158625 44.7055186,40.5910147 44.8336592,40.9302396 C44.8937576,41.0825822 44.983009,41.2213997 45.0962832,41.3387131 C45.2094182,41.4537481 45.3445548,41.5442041 45.493422,41.604545 C45.812567,41.7310758 46.1671238,41.7310758 46.4862689,41.604545 C46.7887473,41.4845211 47.02948,41.2443624 47.1524371,40.9399652 C47.2805778,40.6007403 47.2805778,40.225588 47.1524371,39.8863631 C47.0918475,39.7335066 47.0014378,39.5945817 46.8866104,39.4778897 C46.7721975,39.3629104 46.6360305,39.2724937 46.4862689,39.2120578 C46.3294535,39.1485963 46.1619266,39.1166637 45.9930482,39.1180441 L45.9898454,39.1083185 Z M50.7715241,38.2751625 C51.261753,38.2559668 51.7308135,38.4782603 52.0301977,38.8716633 L52.0301977,36.3430184 L52.9045435,36.3430184 L52.9045435,42.4409429 L52.0301977,42.4409429 L52.0301977,41.954665 C51.8905901,42.1351712 51.7134549,42.2823733 51.5113551,42.3858314 C51.2810858,42.4989318 51.0273881,42.5545155 50.7715241,42.547924 C50.2374085,42.5530887 49.7245702,42.3363078 49.3527139,41.9481813 C49.1670406,41.7512379 49.0222058,41.5186558 48.9267505,41.2641504 C48.7208959,40.7126084 48.7208959,40.1039944 48.9267505,39.5524523 C49.0234128,39.3014469 49.1681798,39.0722788 49.3527139,38.878147 C49.7245702,38.4900206 50.2374085,38.2732396 50.7715241,38.2784043 L50.7715241,38.2751625 Z M50.8772142,39.1083185 C50.7031205,39.1055625 50.5304973,39.1409512 50.3711826,39.2120578 C50.2274368,39.2773979 50.0987252,39.3723506 49.9932602,39.4908571 C49.8886073,39.6112234 49.8081088,39.7510637 49.7562581,39.9025724 C49.6449774,40.2280951 49.6449774,40.582024 49.7562581,40.9075467 C49.8081088,41.0590554 49.8886073,41.1988957 49.9932602,41.3192619 C50.0987252,41.4377685 50.2274368,41.5327211 50.3711826,41.5980613 C50.6909718,41.7327784 51.0506458,41.7327784 51.3704349,41.5980613 C51.5147064,41.5349304 51.6444794,41.442207 51.75156,41.3257456 C51.8558535,41.2137209 51.9384221,41.0828568 51.9949676,40.9399652 C52.1119825,40.6065351 52.1119825,40.2424862 51.9949676,39.9090561 C51.9399422,39.7578857 51.8561571,39.6191082 51.7483573,39.5005827 C51.6410942,39.3843329 51.5113678,39.2916428 51.3672322,39.2282671 C51.2132945,39.1572764 51.0463675,39.1197284 50.8772142,39.1180441 L50.8772142,39.1083185 Z M55.8094213,38.2751625 C56.072483,38.2726253 56.3331788,38.3256222 56.5748742,38.4307714 C56.8021705,38.5302152 57.0054227,38.6784328 57.1705823,38.8651796 C57.3411386,39.0615987 57.4727131,39.2894384 57.5581129,39.5362431 C57.6546776,39.8142204 57.7023722,40.1071757 57.6990331,40.4018177 C57.6990331,40.4569292 57.6990331,40.5152825 57.6990331,40.570394 C57.6990331,40.6255055 57.6990331,40.680617 57.6990331,40.7324866 L54.7429116,40.7324866 C54.7638506,40.8977167 54.8160457,41.0573153 54.8966427,41.2025552 C54.9657251,41.3274878 55.0581916,41.4376006 55.1688749,41.5267405 C55.2748145,41.6104594 55.3954328,41.6731551 55.5243781,41.7115261 C55.657494,41.7510694 55.7956005,41.7707279 55.9343278,41.7698794 C56.1400703,41.7682738 56.3439121,41.729861 56.5364414,41.6564146 C56.7374813,41.5799154 56.9246833,41.4703844 57.090514,41.3322293 L57.5260855,41.9611487 C57.2997742,42.1620429 57.0347777,42.3132691 56.7478217,42.4052825 C56.466337,42.4909152 56.1737989,42.533529 55.8798814,42.5317148 C55.597363,42.5347809 55.3168777,42.4830606 55.0535766,42.3793477 C54.8129407,42.2819338 54.5948449,42.1351285 54.4130302,41.9481813 C54.2279214,41.7563792 54.0839886,41.5279094 53.9902696,41.2771179 C53.8868347,40.9973431 53.835788,40.7005143 53.8397412,40.4018177 C53.836673,40.1066439 53.8865916,39.81336 53.9870669,39.5362431 C54.0775711,39.2858779 54.2169968,39.0565437 54.3970165,38.8619378 C54.5774789,38.6725488 54.7958819,38.5244313 55.0375629,38.4275295 C55.2836124,38.3309671 55.5455355,38.282563 55.8094213,38.284888 L55.8094213,38.2751625 Z M58.1185909,42.4312173 L58.1185909,42.2367062 L58.1986592,42.2367062 L58.1986592,42.1945621 L57.9904817,42.1945621 L57.9904817,42.2367062 L58.0801582,42.2367062 L58.0801582,42.4409429 L58.1185909,42.4312173 Z M58.5189324,42.4312173 L58.5189324,42.1848366 L58.4548778,42.1848366 L58.381215,42.3534129 L58.3075521,42.1848366 L58.2434975,42.1848366 L58.2434975,42.4312173 L58.2883357,42.4312173 L58.2883357,42.2464317 L58.3555931,42.4052825 L58.4004313,42.4052825 L58.4676887,42.2464317 L58.4676887,42.4312173 L58.5189324,42.4312173 Z M55.7934076,39.0629326 C55.6514404,39.0601813 55.5102201,39.084372 55.3770525,39.1342534 C55.2572407,39.1786686 55.148086,39.2482761 55.0567793,39.3384901 C54.9664459,39.4325061 54.8937377,39.5423513 54.8421963,39.6626753 C54.7844186,39.7904414 54.7445338,39.9257422 54.7236952,40.064665 L56.7990654,40.064665 C56.7763241,39.7872086 56.6637426,39.5251083 56.4787922,39.319039 C56.2929192,39.1460169 56.0454588,39.0570604 55.7934076,39.0726582 L55.7934076,39.0629326 Z"/>
    <path fill="#EB001B" fill-rule="nonzero" d="M18.1484975,34.0899309 L17.1684615,34.0899309 L17.1684615,29.0391247 L15.3973508,33.4837045 L14.3660712,33.4837045 L12.6013659,29.0877525 L12.6013659,34.0899309 L11.6149245,34.0899309 L11.6149245,27.9531041 L13.1170057,27.9531041 L14.881711,32.3393305 L16.6432135,27.9531041 L18.1452947,27.9531041 L18.1484975,34.0899309 Z M23.3048958,34.0899309 L22.3985226,34.0899309 L22.3985226,33.5874438 C22.2537588,33.7747114 22.0700637,33.9274469 21.8604637,34.0348194 C21.6219915,34.1509365 21.3595372,34.2076255 21.0950108,34.2001539 C20.5403448,34.206125 20.0076374,33.9810616 19.6217541,33.5777182 C19.4302398,33.3760989 19.2800297,33.1381156 19.1797771,32.8774781 C18.9660378,32.3050603 18.9660378,31.6733606 19.1797771,31.1009429 C19.2801052,30.8403441 19.4303064,30.6023751 19.6217541,30.4007028 C20.0076374,29.9973593 20.5403448,29.7722959 21.0950108,29.7782671 C21.3598575,29.7711675 21.6224724,29.8290034 21.8604637,29.9468434 C22.0699817,30.0557707 22.2535802,30.2095321 22.3985226,30.3974609 L22.3985226,29.8917319 L23.3048958,29.8917319 L23.3048958,34.0899309 Z M21.2007009,30.6438417 C21.0200438,30.640729 20.8408606,30.6772245 20.6754529,30.7508228 C20.5268571,30.8185408 20.3937962,30.9167955 20.2847196,31.0393477 C20.1761112,31.1646216 20.09238,31.3099141 20.0381093,31.4672722 C19.9224344,31.8053811 19.9224344,32.1730399 20.0381093,32.5111487 C20.0928931,32.6689724 20.177771,32.8143664 20.2879224,32.9390733 C20.3968724,33.0617673 20.529965,33.1600454 20.6786556,33.2275981 C21.0106291,33.3680798 21.3843673,33.3680798 21.7163408,33.2275981 C21.8653727,33.1619264 21.9994641,33.0659228 22.1102768,32.945557 C22.2219672,32.8220661 22.3089751,32.6778503 22.3664953,32.5208743 C22.4876454,32.1748131 22.4876454,31.7971242 22.3664953,31.451063 C22.3089751,31.2940869 22.2219672,31.1498712 22.1102768,31.0263803 C21.999344,30.9061537 21.865283,30.8101718 21.7163408,30.7443391 C21.5534665,30.6741392 21.3776826,30.6398792 21.2007009,30.6438417 Z M27.458839,30.9420921 C27.3830304,30.8980007 27.3049902,30.8579629 27.2250395,30.8221436 C27.1208742,30.7763055 27.013894,30.7373222 26.9047664,30.7054369 C26.7869386,30.6693824 26.6671755,30.6401583 26.5460604,30.6179069 C26.4192861,30.5942359 26.2906457,30.5822998 26.1617326,30.5822465 C25.9592097,30.5705437 25.757722,30.6189957 25.5820381,30.7216462 C25.4545439,30.7969252 25.3764086,30.9353322 25.3770633,31.0847336 C25.3747381,31.1507011 25.3938657,31.215618 25.4315097,31.2695192 C25.4696071,31.3212027 25.5189134,31.3633477 25.5756326,31.3927096 C25.644554,31.4281735 25.717774,31.4543316 25.7934184,31.4705141 C25.8766894,31.4899652 25.9663659,31.5072551 26.0624479,31.5223837 L26.4916139,31.5872208 C26.8731366,31.627218 27.2381411,31.7656271 27.5517182,31.9892105 C27.8150132,32.187031 27.9648353,32.5036807 27.9520597,32.835334 C27.9539271,33.0278485 27.9099864,33.2179896 27.8239504,33.3896907 C27.7339822,33.5554753 27.608055,33.6984582 27.4556362,33.8078897 C27.2768306,33.9377795 27.0760068,34.0333745 26.8631308,34.0899309 C26.6020438,34.160393 26.3326299,34.1942084 26.0624479,34.1904283 C25.9556902,34.1904283 25.8318512,34.1839446 25.690931,34.1709772 C25.5387146,34.1563381 25.3877751,34.1303325 25.2393458,34.0931727 C25.0730545,34.0510243 24.910284,33.9957434 24.7525306,33.9278383 C24.585131,33.8556645 24.4270343,33.7631313 24.281729,33.6522808 L24.7012868,32.9650081 C24.7786452,33.0256143 24.8599669,33.080852 24.9446945,33.1303426 C25.0396212,33.1849236 25.1393302,33.2305036 25.2425485,33.2665004 C25.3625105,33.3081954 25.4857128,33.3396433 25.6108627,33.3605141 C25.7622611,33.3854399 25.9154699,33.3973691 26.0688533,33.3961745 C26.3115395,33.4100521 26.5537906,33.3621247 26.7734543,33.2567748 C26.9176321,33.1895342 27.0109986,33.0446235 27.0136592,32.8839618 C27.011443,32.7616341 26.9457255,32.649535 26.8407117,32.5889532 C26.6729933,32.4945384 26.4874465,32.4370897 26.2962473,32.4203769 L25.8638785,32.3620235 C25.4822475,32.3307081 25.1175764,32.1889099 24.8133825,31.9535501 C24.5747195,31.7495147 24.4413944,31.4461677 24.4514738,31.1301196 C24.4488612,30.9351424 24.4904982,30.7421599 24.5731776,30.5660372 C24.6524663,30.3989366 24.7699393,30.2533577 24.9158699,30.1413546 C25.0775858,30.0200709 25.2599785,29.9299585 25.4539288,29.8755227 C25.6863516,29.8098718 25.9268573,29.7782132 26.168138,29.7815089 C26.4793019,29.7797139 26.7893717,29.8189461 27.0905248,29.8982156 C27.3586801,29.9655926 27.6147857,30.074974 27.8495723,30.2224009 L27.458839,30.9420921 Z M31.7569051,30.7216462 L30.1555392,30.7216462 L30.1555392,32.550051 C30.1553168,32.6736989 30.1758948,32.7964825 30.2163911,32.9131384 C30.245828,33.0033698 30.293861,33.0862443 30.3573113,33.1562774 C30.414871,33.2187129 30.4862059,33.2664801 30.5654889,33.295677 C30.6486394,33.3261816 30.7364681,33.3415473 30.8249101,33.341063 C30.9729044,33.3398824 31.1194377,33.3113165 31.2572789,33.2567748 C31.3981096,33.2036378 31.5333045,33.1363008 31.6608231,33.05578 L32.0195291,33.7884386 C31.843137,33.9078216 31.6540588,34.0067778 31.4558483,34.0834472 C31.2294616,34.1684309 30.9894727,34.2102 30.7480446,34.2066376 C30.3445015,34.2303936 29.9488675,34.0863661 29.6527103,33.8078897 C29.3615099,33.4657674 29.218402,33.0195176 29.2555715,32.5695021 L29.2555715,30.724888 L28.4324694,30.724888 L28.4324694,29.8917319 L29.2555715,29.8917319 L29.2555715,28.6209257 L30.1651474,28.6209257 L30.1651474,29.8917319 L31.7665133,29.8917319 L31.7569051,30.7216462 Z M34.5432818,29.7782671 C34.8160688,29.7747834 35.0865792,29.8288838 35.3375593,29.9371179 C35.5734018,30.0402548 35.7843039,30.1940034 35.9556866,30.3877353 C36.1331571,30.5916925 36.2701663,30.8283336 36.3592308,31.0847336 C36.4586511,31.373264 36.5074276,31.6771779 36.5033537,31.9827268 C36.5033537,32.0410801 36.5033537,32.0994335 36.5033537,32.1577868 C36.5033537,32.2161402 36.5033537,32.2712516 36.5033537,32.3231213 L33.4191229,32.3231213 C33.4416059,32.4940141 33.4959476,32.6590303 33.5792595,32.8093992 C33.652093,32.93454 33.7477327,33.044549 33.8610999,33.1335844 C33.9709944,33.2200619 34.0959201,33.2849371 34.2294141,33.3248537 C34.3676586,33.3663761 34.5111767,33.3871291 34.6553774,33.3864489 C34.8741002,33.386981 35.0911127,33.3474416 35.2959238,33.2697422 C35.5032272,33.1940935 35.6968878,33.0845817 35.8692128,32.945557 L36.320798,33.5939275 C36.0860397,33.8021135 35.8112437,33.9588503 35.5137096,34.0542705 C35.2219095,34.143585 34.9185887,34.1883824 34.6137419,34.1871865 C34.3159001,34.1976824 34.0188981,34.1492292 33.7393961,34.044545 C33.4868305,33.9445384 33.2577308,33.7921482 33.0668224,33.5971693 C32.8746628,33.3979351 32.7252775,33.1606346 32.6280482,32.900171 C32.5205367,32.6100785 32.4673188,32.3022615 32.4711143,31.9924523 C32.46732,31.6863774 32.5183191,31.3821369 32.6216427,31.0944592 C32.7156585,30.8344229 32.8605364,30.5962584 33.047606,30.3942191 C33.2277732,30.2004808 33.4459526,30.0469939 33.6881524,29.9436016 C33.959348,29.8312988 34.2503171,29.7761446 34.5432818,29.7815089 L34.5432818,29.7782671 Z M34.5272682,30.5952139 C34.3798057,30.592466 34.2331438,30.6177581 34.0948994,30.6697765 C33.974678,30.7179217 33.8656248,30.7907759 33.7746262,30.8837388 C33.681558,30.9775424 33.6056535,31.087302 33.5504349,31.207924 C33.4869134,31.3424352 33.4426963,31.4854399 33.4191229,31.6326067 L35.5713587,31.6326067 C35.5425855,31.3468973 35.420925,31.0789394 35.2254637,30.8707714 C35.0391714,30.68705 34.7872536,30.5876254 34.5272682,30.5952139 L34.5272682,30.5952139 Z M39.6516391,29.7782671 C39.7771286,29.7774653 39.9024667,29.7872245 40.0263587,29.8074438 C40.1358604,29.8267226 40.2431614,29.8571338 40.3466319,29.8982156 L40.1288462,30.8059343 C40.027531,30.7539055 39.9198288,30.7157493 39.808573,30.6924695 C39.691648,30.6675476 39.5725552,30.6545154 39.4530697,30.6535673 C39.3171785,30.6522663 39.1823218,30.6775856 39.055931,30.7281299 C38.933706,30.7754332 38.8240497,30.8509102 38.7356578,30.9485758 C38.6442924,31.0522493 38.5745715,31.1735458 38.530683,31.3051796 C38.4795803,31.4586458 38.4546699,31.6198002 38.4570201,31.7817319 L38.4570201,34.0931727 L37.550647,34.0931727 L37.550647,29.8787645 L38.4474119,29.8787645 L38.4474119,30.352075 C38.5743135,30.1637423 38.74916,30.0136435 38.9534436,29.9176667 C39.1707291,29.8230146 39.4055284,29.7765866 39.6420309,29.7815089 L39.6516391,29.7782671 Z M42.7486808,29.7782671 C43.0472549,29.7751782 43.3434307,29.8324917 43.6198239,29.9468434 C43.8831045,30.0560437 44.1161469,30.2285098 44.298803,30.4493305 L43.7191086,31.0750081 C43.5847091,30.9426613 43.430049,30.8331863 43.2611179,30.7508228 C43.0919865,30.6740453 42.9084094,30.6353329 42.723059,30.637358 C42.5569619,30.6357601 42.3923256,30.6688689 42.2394464,30.7346136 C42.0916769,30.7979426 41.9585943,30.8917967 41.8487132,31.010171 C41.7365602,31.1333093 41.6494937,31.2776223 41.5924946,31.4348537 C41.467598,31.7880498 41.467598,32.1741619 41.5924946,32.527358 C41.6495693,32.6845524 41.7366273,32.8288512 41.8487132,32.9520407 C41.9586559,33.0703427 42.0917225,33.1641855 42.2394464,33.2275981 C42.3923256,33.2933428 42.5569619,33.3264516 42.723059,33.3248537 C42.9156031,33.3267039 43.1060826,33.2845968 43.2803343,33.2016633 C43.4487951,33.1184889 43.6033343,33.0090994 43.7383249,32.8774781 L44.2956003,33.5096393 C44.1090955,33.7290744 43.874349,33.9011779 43.6102157,34.0121264 C43.3349667,34.126559 43.03982,34.1838841 42.7422753,34.1807028 C42.4352829,34.1850746 42.1304819,34.1277773 41.8455104,34.0121264 C41.3241246,33.801781 40.9139369,33.3795258 40.7149461,32.8483014 C40.5068146,32.2826671 40.5068146,31.6600935 40.7149461,31.0944592 C40.9139369,30.5632348 41.3241246,30.1409796 41.8455104,29.9306341 C42.130808,29.8220432 42.434436,29.7713712 42.7390726,29.7815089 L42.7486808,29.7782671 Z M49.112509,34.0899309 L48.2061359,34.0899309 L48.2061359,33.5874438 C48.061372,33.7747114 47.877677,33.9274469 47.6680769,34.0348194 C47.4296048,34.1509365 47.1671504,34.2076255 46.902624,34.2001539 C46.3479581,34.206125 45.8152506,33.9810616 45.4293674,33.5777182 C45.237853,33.3760989 45.0876429,33.1381156 44.9873904,32.8774781 C44.7736511,32.3050603 44.7736511,31.6733606 44.9873904,31.1009429 C45.0877185,30.8403441 45.2379196,30.6023751 45.4293674,30.4007028 C45.8152506,29.9973593 46.3479581,29.7722959 46.902624,29.7782671 C47.1674708,29.7711675 47.4300857,29.8290034 47.6680769,29.9468434 C47.877595,30.0557707 48.0611934,30.2095321 48.2061359,30.3974609 L48.2061359,29.8917319 L49.112509,29.8917319 L49.112509,34.0899309 Z M47.0115169,30.6438417 C46.8308597,30.640729 46.6516765,30.6772245 46.4862689,30.7508228 C46.3376731,30.8185408 46.2046121,30.9167955 46.0955356,31.0393477 C45.9869271,31.1646216 45.9031959,31.3099141 45.8489252,31.4672722 C45.7332503,31.8053811 45.7332503,32.1730399 45.8489252,32.5111487 C45.9031959,32.6685068 45.9869271,32.8137994 46.0955356,32.9390733 C46.2045491,33.0616962 46.3376258,33.1599625 46.4862689,33.2275981 C46.8183139,33.3677182 47.191909,33.3677182 47.523954,33.2275981 C47.672941,33.1618457 47.8070171,33.065853 47.91789,32.945557 C48.0299759,32.8223675 48.1170339,32.6780687 48.1741086,32.5208743 C48.2957813,32.1749042 48.2957813,31.797033 48.1741086,31.451063 C48.1170339,31.2938685 48.0299759,31.1495698 47.91789,31.0263803 C47.8069572,30.9061537 47.6728963,30.8101718 47.523954,30.7443391 C47.3630292,30.675132 47.1895425,30.6408943 47.0147196,30.6438417 L47.0115169,30.6438417 Z M52.5490403,29.7815089 C52.6745297,29.7807071 52.7998679,29.7904663 52.9237599,29.8106856 C53.0332616,29.8299644 53.1405625,29.8603757 53.2440331,29.9014575 L53.0262473,30.8091762 C52.9249322,30.7571474 52.8172299,30.7189912 52.7059741,30.6957113 C52.5890424,30.6708321 52.4699539,30.6578004 52.3504709,30.6568091 C52.2145726,30.6554262 52.0797004,30.6807483 51.9533321,30.7313717 C51.8311071,30.778675 51.7214509,30.8541521 51.633059,30.9518177 C51.5416935,31.0554911 51.4719726,31.1767877 51.4280841,31.3084215 C51.3769815,31.4618877 51.3520711,31.623042 51.3544213,31.7849738 L51.3544213,34.0964146 L50.4480482,34.0964146 L50.4480482,29.8820064 L51.3544213,29.8820064 L51.3544213,30.3553168 C51.4816414,30.1652304 51.6577162,30.0139069 51.8636556,29.9176667 C52.0809705,29.8231109 52.315749,29.776687 52.552243,29.7815089 L52.5490403,29.7815089 Z M55.5211754,29.7815089 C55.7860222,29.7744094 56.0486371,29.8322452 56.2866283,29.9500853 C56.4960898,30.0590993 56.6796712,30.2128464 56.8246873,30.4007028 L56.8246873,27.7780441 L57.7310604,27.7780441 L57.7310604,34.0899309 L56.8246873,34.0899309 L56.8246873,33.5874438 C56.6799234,33.7747114 56.4962284,33.9274469 56.2866283,34.0348194 C56.0481562,34.1509365 55.7857018,34.2076255 55.5211754,34.2001539 C54.9665095,34.206125 54.433802,33.9810616 54.0479188,33.5777182 C53.8530236,33.3769109 53.699519,33.1388827 53.5963336,32.8774781 C53.3825943,32.3050603 53.3825943,31.6733606 53.5963336,31.1009429 C53.6966617,30.8403441 53.8468628,30.6023751 54.0383106,30.4007028 C54.4241938,29.9973593 54.9569013,29.7722959 55.5115672,29.7782671 L55.5211754,29.7815089 Z M58.7879619,33.7041505 C58.8241326,33.7032862 58.8600968,33.709905 58.893652,33.7236016 C58.9259113,33.7372512 58.9552708,33.7570633 58.9801258,33.7819549 C59.0045012,33.8060517 59.0240727,33.834667 59.037775,33.8662431 C59.065912,33.9324704 59.065912,34.0074943 59.037775,34.0737216 C59.0240037,34.1052586 59.0044407,34.1338614 58.9801258,34.1580098 C58.9551718,34.1827782 58.925837,34.2025736 58.893652,34.2163631 C58.8603858,34.2313517 58.8243749,34.2390837 58.7879619,34.2390561 C58.6801198,34.240596 58.5817928,34.1767959 58.5381488,34.0769635 C58.5100118,34.0107361 58.5100118,33.9357123 58.5381488,33.8694849 C58.5655334,33.8044263 58.6173991,33.7530936 58.6822717,33.7268434 C58.7166407,33.7117774 58.7537113,33.704052 58.7911646,33.7041505 L58.7879619,33.7041505 Z M58.7879619,34.1807028 C58.8154813,34.1810686 58.8427666,34.1755449 58.8680302,34.1644935 C58.8919843,34.1535284 58.9137074,34.1381365 58.9320848,34.1191076 C59.0114302,34.0371703 59.0114302,33.9060362 58.9320848,33.824099 C58.9138081,33.8049502 58.892061,33.7895413 58.8680302,33.7787131 C58.8416176,33.7732099 58.8143745,33.7732099 58.7879619,33.7787131 C58.7615239,33.7734688 58.7343316,33.7734688 58.7078936,33.7787131 C58.6501959,33.8070363 58.608918,33.861059 58.5963421,33.9247066 C58.5837662,33.9883541 58.6013417,34.0542912 58.643839,34.1028983 C58.6621669,34.1219862 58.6839017,34.1373865 58.7078936,34.1482842 C58.7332327,34.1640055 58.7616462,34.173961 58.7911646,34.1774609 L58.7879619,34.1807028 Z M58.7879619,33.8565175 C58.8143931,33.8550406 58.8404878,33.8630795 58.8616247,33.8792105 C58.8787715,33.8934888 58.8882662,33.9151129 58.8872466,33.9375638 C58.8883945,33.9568292 58.8814099,33.9756825 58.8680302,33.9894335 C58.8522453,34.0043997 58.8319335,34.0135375 58.810381,34.0153683 L58.8904493,34.109382 L58.8263947,34.109382 L58.7527318,34.0153683 L58.7303127,34.0153683 L58.7303127,34.109382 L58.679069,34.109382 L58.679069,33.8597594 L58.7879619,33.8565175 Z M58.72711,33.9019034 L58.72711,33.9667405 L58.7879619,33.9667405 C58.7984234,33.9698025 58.8095277,33.9698025 58.8199892,33.9667405 C58.8239937,33.9585707 58.8239937,33.9489755 58.8199892,33.9408057 C58.8245661,33.9327814 58.8245661,33.9228951 58.8199892,33.9148709 C58.809505,33.9119761 58.7984461,33.9119761 58.7879619,33.9148709 L58.72711,33.9019034 Z M55.6140546,30.660051 C55.4333975,30.6569382 55.2542143,30.6934338 55.0888066,30.7670321 C54.9402108,30.8347501 54.8071499,30.9330048 54.6980733,31.055557 C54.5894649,31.1808309 54.5057337,31.3261234 54.451463,31.4834815 C54.3357881,31.8215903 54.3357881,32.1892491 54.451463,32.527358 C54.5057337,32.6847161 54.5894649,32.8300086 54.6980733,32.9552825 C54.8070868,33.0779054 54.9401635,33.1761718 55.0888066,33.2438074 C55.4208516,33.3839275 55.7944467,33.3839275 56.1264917,33.2438074 C56.2754787,33.178055 56.4095548,33.0820623 56.5204277,32.9617662 C56.6435012,32.8330034 56.7384363,32.6794728 56.7990654,32.5111487 C56.9204762,32.165133 56.9204762,31.7873532 56.7990654,31.4413374 C56.7419907,31.284143 56.6549327,31.1398442 56.5428469,31.0166547 C56.431914,30.8964281 56.2978531,30.8004463 56.1489109,30.7346136 C55.9852925,30.6678366 55.8095552,30.6369003 55.633271,30.6438417 L55.6140546,30.660051 Z"/>
  </g>
</svg>
