<?xml version="1.0" encoding="UTF-8"?>
<svg width="136px" height="38px" viewBox="0 0 136 38" version="1.1" xmlns="http://www.w3.org/2000/svg" xmlns:xlink="http://www.w3.org/1999/xlink">
    <!-- Generator: Sketch 41.2 (35397) - http://www.bohemiancoding.com/sketch -->
    <title>comodo_logo</title>
    <desc>Created with Sketch.</desc>
    <defs></defs>
    <g id="Page-1" stroke="none" stroke-width="1" fill="none" fill-rule="evenodd">
        <g id="Marketing-Desktop-1440x900" transform="translate(-1241.000000, -1420.000000)">
            <g id="comodo_logo" transform="translate(1241.000000, 1420.000000)">
                <path d="M32.604096,10.6915714 C32.439264,11.9488286 32.096544,12.9064286 31.56016,13.6197429 C30.813248,14.5637714 29.67792,15.1533143 28.096512,15.1533143 L27.173888,15.1533143 C25.601728,15.1533143 24.4664,14.611 23.986048,13.7158286 C23.660736,13.0437714 23.57424,12.0937714 23.74288,10.83 L24.111168,8.01691429 C24.310272,6.50451429 24.793344,5.39545714 25.586496,4.62731429 C26.353536,3.87708571 27.45568,3.51771429 28.781408,3.51771429 L29.640384,3.51771429 C30.553216,3.51771429 31.756544,3.66808571 32.430016,4.55837143 C32.992512,5.29611429 33.16768,6.384 32.97456,7.87631429 L32.604096,10.6915714 L32.604096,10.6915714 L32.604096,10.6915714 Z M29.846016,0.426142857 L29.843296,0.426142857 L29.003904,0.426685714 C23.009024,0.489657143 19.878304,2.97648571 19.216256,7.73842857 L18.820224,10.8267429 C18.567808,12.9542 18.948608,14.5485714 19.980032,15.7064857 C21.255712,17.1336571 23.486656,18.1661714 26.877408,18.2014571 L27.718432,18.2014571 C33.583296,18.1417429 36.70912,15.7265714 37.448416,11.2984857 L37.45712,11.2984857 L37.498464,10.9809143 L37.89232,7.89694286 C38.155072,5.68534286 37.767744,4.03722857 36.706944,2.84891429 C35.428,1.41577143 33.205216,0.460342857 29.846016,0.426142857 L29.846016,0.426142857 L29.846016,0.426142857 Z" id="Fill-1" fill="#D12138"></path>
                <path d="M80.89552,10.6915714 C80.727968,11.9488286 80.383072,12.9064286 79.847232,13.6197429 C79.101952,14.5637714 77.963904,15.1533143 76.38576,15.1533143 L75.465312,15.1533143 C73.889344,15.1533143 72.757824,14.611 72.273664,13.7158286 C71.94944,13.0437714 71.865664,12.0937714 72.030496,10.83 L72.401504,8.01691429 C72.598432,6.50451429 73.082592,5.39545714 73.874112,4.62731429 C74.642784,3.87708571 75.743296,3.51771429 77.072288,3.51771429 L77.929088,3.51771429 C78.840832,3.51771429 80.047968,3.66808571 80.720352,4.55837143 C81.280128,5.29611429 81.456384,6.384 81.263808,7.87631429 L80.89552,10.6915714 L80.89552,10.6915714 L80.89552,10.6915714 Z M78.137984,0.426142857 L78.132544,0.426142857 L77.294784,0.426685714 C71.295552,0.489657143 68.16592,2.97648571 67.505504,7.73842857 L67.108928,10.8267429 C66.856512,12.9542 67.237856,14.5485714 68.268736,15.7064857 C69.54496,17.1336571 71.77536,18.1661714 75.165568,18.2014571 L76.009856,18.2014571 C81.872544,18.1417429 84.998368,15.7265714 85.73712,11.2984857 L85.746368,11.2984857 L85.78608,10.9809143 L86.179936,7.89694286 C86.441056,5.68534286 86.054272,4.03722857 84.995648,2.84891429 C83.71616,1.41577143 81.494464,0.460342857 78.137984,0.426142857 L78.137984,0.426142857 L78.137984,0.426142857 Z" id="Fill-2" fill="#D12138"></path>
                <path d="M125.70208,10.6915714 C125.535072,11.9488286 125.192352,12.9064286 124.654336,13.6197429 C123.908512,14.5637714 122.772096,15.1533143 121.191232,15.1533143 L120.271872,15.1533143 C118.698624,15.1533143 117.564384,14.611 117.0824,13.7158286 C116.753824,13.0437714 116.672768,12.0937714 116.83488,10.83 L117.208064,8.01691429 C117.40608,6.50451429 117.889152,5.39545714 118.679584,4.62731429 C119.449344,3.87708571 120.552576,3.51771429 121.879936,3.51771429 L122.73728,3.51771429 C123.647392,3.51771429 124.852352,3.66808571 125.528544,4.55837143 C126.086688,5.29611429 126.264576,6.384 126.071456,7.87631429 L125.70208,10.6915714 L125.70208,10.6915714 L125.70208,10.6915714 Z M129.802208,2.84891429 C128.524352,1.41577143 126.301024,0.460342857 122.943456,0.426142857 L122.940736,0.426142857 L122.100256,0.426685714 C116.103744,0.489657143 112.97248,2.97648571 112.313696,7.73842857 L111.918208,10.8267429 C111.663616,12.9542 112.043328,14.5485714 113.076928,15.7064857 C114.352608,17.1336571 116.579744,18.1661714 119.975936,18.2014571 L120.81424,18.2014571 C126.678016,18.1417429 129.806016,15.7265714 130.544224,11.2984857 L130.550208,11.2984857 L130.593184,10.9809143 L130.988128,7.89694286 C131.25088,5.68534286 130.863552,4.03722857 129.802208,2.84891429 L129.802208,2.84891429 L129.802208,2.84891429 Z" id="Fill-3" fill="#D12138"></path>
                <path d="M93.256832,5.66797143 C93.42928,5.66797143 93.585952,5.68371429 93.731744,5.71085714 C94.3024,5.814 94.668512,6.09302857 94.889376,6.33622857 C95.307168,6.79982857 95.503552,7.46917143 95.42304,8.17217143 L94.793632,13.3396286 L94.792544,13.3450571 L94.62608,14.6728857 L94.6152,14.7624571 L94.644576,14.7624571 L94.63968,14.7668 L97.503296,14.7673429 C97.682272,14.7673429 97.929792,14.7537714 98.223552,14.7217429 C99.509568,14.5854857 101.62192,14.06 102.229568,12.3945143 C102.24752,12.3483714 102.260576,12.3033143 102.278528,12.2560857 C102.412352,11.8076857 102.523328,11.3359429 102.583712,10.8332571 L102.827968,9.02825714 L102.827424,9.025 L102.827968,9.025 L102.945472,8.18085714 C103.035232,7.49794286 103.053728,6.8514 102.984096,6.26565714 C102.785536,4.60017143 100.802112,4.0736 99.54928,3.93462857 C99.2664,3.9026 99.019968,3.89228571 98.839904,3.89228571 L95.982272,3.89282857 L95.982272,3.89554286 L93.73936,3.89554286 L93.734464,3.88522857 C93.057184,3.838 92.612736,3.72508571 92.358144,3.53888571 C91.750496,3.097 91.438784,2.37662857 91.412128,1.3338 L91.396352,0.811571429 L91.9496,0.811571429 L98.197984,0.812657143 C98.229536,0.812657143 98.256736,0.813742857 98.287744,0.813742857 L99.022688,0.814828571 C102.813824,0.8474 105.328192,1.61228571 106.706688,3.15345714 C107.743552,4.3168 108.128704,5.88294286 107.882272,7.94254286 L107.740832,9.03151429 L107.542272,10.7187143 C107.512896,10.9429143 107.47536,11.3457143 107.435648,11.5585143 C107.256672,12.6496571 106.941152,13.5926 106.49344,14.3650857 C105.99024,15.2325714 105.325472,15.9203714 104.470848,16.4686571 C104.19776,16.6418286 103.895296,16.7949143 103.578688,16.9387714 C102.916096,17.2438571 102.161568,17.4865143 101.319456,17.6537143 C101.06432,17.7020286 100.648704,17.7476286 100.138976,17.7867143 C99.54656,17.8328571 98.82848,17.8556571 98.094624,17.8676 L92.928256,17.8686857 L92.234656,17.8686857 C90.956256,17.8344857 90.202816,17.6140857 89.79264,17.1526571 C89.71648,17.0663429 89.653376,16.9708 89.603328,16.8692857 C89.466784,16.6000286 89.416192,16.2732286 89.461344,15.8764 L90.090752,11.1046857 L90.759328,5.66797143 L93.256832,5.66797143" id="Fill-4" fill="#D12138"></path>
                <path d="M15.781984,14.7624571 L8.948256,14.7624571 L8.947168,14.7695143 C8.019104,14.7624571 7.282528,14.6859143 6.709696,14.5252286 C6.134144,14.3667143 5.699488,14.1142857 5.416064,13.7739143 C5.199552,13.5187714 5.053216,13.2066286 4.973248,12.8391143 C4.96672,12.8054571 4.960192,12.7685429 4.956384,12.7332571 C4.927008,12.5725714 4.902528,12.4075429 4.892192,12.2256857 C4.864992,11.7924857 4.879136,11.3033714 4.953664,10.7442286 L5.296384,8.13797143 C5.336096,7.8318 5.395392,7.54951429 5.461216,7.277 C5.480256,7.20262857 5.506368,7.11251429 5.536832,6.99525714 C5.54064,6.97734286 5.54608,6.9578 5.552064,6.93988571 C5.61408,6.7222 5.682624,6.51102857 5.764768,6.3156 C5.784352,6.26674286 5.803392,6.21897143 5.825152,6.17174286 C5.900224,6.00617143 5.989984,5.85905714 6.077568,5.71085714 C6.162432,5.57948571 6.254912,5.45354286 6.35664,5.33682857 C6.736896,4.88951429 7.277632,4.53937143 7.967424,4.29182857 C8.6496,4.04917143 9.52544,3.92865714 10.641728,3.92757143 L14.422528,3.92757143 L14.431232,3.91508571 C15.122656,3.8684 15.597568,3.75548571 15.901664,3.56657143 C16.264512,3.344 16.566976,3.0476 16.816672,2.6752 C16.856928,2.61765714 16.885216,2.54654286 16.92112,2.48628571 C17.112608,2.15785714 17.276352,1.78817143 17.39712,1.35171429 L17.55216,0.817 L10.38768,0.817 L9.919296,0.818085714 C9.073376,0.826771429 8.292192,0.891914286 7.562144,1.00048571 C3.310784,1.63345714 1.023264,3.94928571 0.480352,7.86817143 L0.09792,10.8473714 C-0.145792,12.8993714 0.221408,14.4367429 1.216384,15.5523143 C2.369664,16.8437714 4.344928,17.746 7.279808,17.8887714 L12.445088,17.8784571 C13.14032,17.8323143 13.823584,17.7981143 14.126048,17.6092 C14.5792,17.3318 14.933344,16.9322571 15.208608,16.4219714 C15.276064,16.2982 15.340256,16.1738857 15.399552,16.0354571 C15.399552,16.0354571 15.66176,15.4252857 15.781984,14.7624571" id="Fill-6" fill="#D12138"></path>
                <path d="M46.47664,15.1533143 L46.451072,15.3650286 C46.358048,16.0712857 45.999008,16.7379143 45.463168,17.2015143 C45.113376,17.5066 44.51552,17.8708571 43.666336,17.8708571 L41.117152,17.8708571 L41.352704,15.9268857 L41.447904,15.1533143 L43.202848,0.804514286 L45.289632,0.804514286 C46.620256,0.804514286 47.519488,1.15031429 47.960672,1.8316 L52.589024,9.21011429 L59.171968,1.75885714 C59.743712,1.12425714 60.688096,0.804514286 61.97792,0.804514286 L64.153376,0.804514286 L62.367424,15.1533143 L62.3424,15.3623143 C62.248288,16.0680286 61.890336,16.7341143 61.354496,17.1998857 C61.004704,17.5033429 60.406848,17.8659714 59.558208,17.8659714 L57.10096,17.8643429 L58.336928,7.91051429 L53.159136,14.4291429 C53.006272,14.6061143 52.52592,15.1381143 51.944928,15.1435429 L51.904128,15.1435429 C51.356864,15.1381143 50.943424,14.5952571 50.791648,14.3515143 L47.376416,7.88065714 L46.477728,15.1533143" id="Fill-7" fill="#D12138"></path>
                <path d="M7.648096,32.8374286 C7.626336,33.6202286 7.290144,34.2532 6.641152,34.7347143 C5.991616,35.2167714 5.154944,35.4594286 4.124608,35.4594286 C2.837504,35.4594286 1.83056,35.0381714 1.098336,34.1978286 C0.36448,33.3547714 0,32.1968571 0,30.7164857 C0,29.2138571 0.36448,28.0304286 1.098336,27.1759714 C1.83056,26.3177143 2.837504,25.8910286 4.124608,25.8910286 C5.201184,25.8910286 6.056896,26.125 6.694464,26.6005429 C7.3304,27.0760857 7.648096,27.7128571 7.648096,28.5119429 L6.354464,28.5119429 C6.354464,28.0472571 6.161344,27.6705143 5.774016,27.3828 C5.388864,27.0961714 4.884576,26.9528571 4.256256,26.9528571 C3.312416,26.9528571 2.584,27.2688 2.067744,27.9006857 C1.552576,28.5298571 1.293632,29.4217714 1.293632,30.5704571 C1.293632,31.7929714 1.54768,32.7386286 2.054688,33.4090571 C2.564416,34.0811143 3.275968,34.4155143 4.195328,34.4155143 C4.806784,34.4155143 5.302912,34.2765429 5.68752,33.9975143 C6.07104,33.7174 6.29136,33.3308857 6.354464,32.8374286 L7.648096,32.8374286" id="Fill-8" fill="#545554"></path>
                <path d="M9.156064,28.8642571 L10.34144,28.8642571 L10.34144,29.5167714 C10.802208,28.9565429 11.40224,28.6764286 12.138272,28.6818571 L12.4576,28.6943429 L12.4576,29.7968857 L12.216064,29.7838571 C11.558912,29.7838571 11.080192,29.9608286 10.784256,30.3158571 C10.486688,30.6703429 10.34144,31.2381714 10.34144,32.0166286 L10.34144,35.2754 L9.156064,35.2754 L9.156064,28.8642571" id="Fill-10" fill="#545554"></path>
                <path d="M18.376864,31.3820286 C18.33824,30.7952 18.216384,30.3647143 18.011296,30.0894857 C17.755616,29.7426 17.316064,29.5678 16.692096,29.5678 C16.15136,29.5678 15.730304,29.7697429 15.43056,30.1758 C15.203712,30.4803429 15.06336,30.8826 15.012224,31.3820286 L18.376864,31.3820286 L18.376864,31.3820286 L18.376864,31.3820286 Z M16.790016,35.4594286 C15.842368,35.4594286 15.101984,35.1679143 14.566688,34.5859714 C14.031936,34.0013143 13.7632,33.1984286 13.7632,32.1708 C13.7632,31.084 14.031936,30.2311714 14.570496,29.6117714 C15.108512,28.9896571 15.849984,28.6818571 16.790016,28.6818571 C17.701216,28.6818571 18.396448,28.9500286 18.87408,29.4885429 C19.354432,30.0227143 19.593792,30.8066 19.593792,31.8315143 L19.582368,32.262 L14.997536,32.262 C15.030176,32.9926857 15.167808,33.5480286 15.417504,33.9253143 C15.700384,34.3574286 16.14864,34.5734857 16.756288,34.5734857 C17.188768,34.5734857 17.542912,34.4524286 17.818176,34.2135714 C18.095072,33.9741714 18.260992,33.6430286 18.31376,33.2228571 L19.534496,33.2228571 C19.444192,33.9475714 19.16512,34.504 18.696192,34.8867143 C18.225088,35.2667143 17.59024,35.4594286 16.790016,35.4594286 L16.790016,35.4594286 L16.790016,35.4594286 Z" id="Fill-11" fill="#545554"></path>
                <path d="M25.147488,32.1577714 L24.060576,32.1577714 C23.391456,32.1577714 22.889344,32.2658 22.554784,32.4840286 C22.221312,32.7022571 22.05376,33.0290571 22.05376,33.4633429 C22.05376,33.8162 22.17344,34.0876286 22.407904,34.2825143 C22.642368,34.4757714 22.975296,34.5734857 23.40832,34.5734857 C23.986048,34.5734857 24.421248,34.4100857 24.70848,34.0822 C24.997888,33.7575714 25.142048,33.2771429 25.1464,32.6409143 L25.147488,32.1577714 L25.147488,32.1577714 L25.147488,32.1577714 Z M23.20976,35.4594286 C22.475904,35.4594286 21.898176,35.2819143 21.482016,34.9274286 C21.065312,34.5734857 20.858048,34.0822 20.858048,33.4579143 C20.858048,32.7771714 21.14256,32.2478857 21.71376,31.8613714 C22.284416,31.4770286 23.072128,31.2854 24.073632,31.2854 L25.1464,31.2854 L25.144768,30.7436286 C25.144768,30.3359429 25.027808,30.0357429 24.790624,29.8506286 C24.556704,29.6606286 24.17808,29.5678 23.653664,29.5678 C23.296256,29.5678 23.009024,29.6530286 22.792512,29.8262 C22.574912,29.9982857 22.453056,30.2360571 22.425856,30.5406 L21.184992,30.5406 C21.23232,29.8967714 21.464064,29.4266571 21.877504,29.1286286 C22.289312,28.8306 22.917632,28.6818571 23.752128,28.6818571 C24.525696,28.6818571 25.1464,28.8707714 25.61968,29.2491429 C26.092416,29.6269714 26.329056,30.1269429 26.329056,30.7436286 L26.329056,32.9747714 C26.329056,33.5811429 26.3432,34.0914286 26.376928,34.5012857 C26.405216,34.9084286 26.448736,35.1679143 26.504224,35.2754 L25.38032,35.2754 C25.33408,35.2205714 25.296544,35.0767143 25.270976,34.8454571 C25.249216,34.6934571 25.232352,34.5110571 25.223104,34.2998857 C25.1464,34.4372286 25.058272,34.5707714 24.955456,34.6950857 C24.533312,35.2053714 23.951232,35.4594286 23.20976,35.4594286 L23.20976,35.4594286 L23.20976,35.4594286 Z" id="Fill-12" fill="#545554"></path>
                <path d="M31.501952,35.3693143 C31.164672,35.4290286 30.7768,35.4594286 30.338336,35.4594286 C29.892256,35.4594286 29.515264,35.3389143 29.20736,35.0951714 C28.89728,34.8492571 28.742784,34.5528571 28.742784,34.2005429 L28.742784,29.7181714 L27.410528,29.7181714 L27.410528,28.8642571 L28.742784,28.8642571 L28.742784,27.7090571 L29.924896,27.2210286 L29.924896,28.8642571 L31.501952,28.8642571 L31.501952,29.7181714 L29.924896,29.7181714 L29.924896,33.9253143 C29.924896,34.1544 29.983648,34.3161714 30.097344,34.4187714 C30.207776,34.5219143 30.389472,34.5734857 30.639168,34.5734857 C30.951968,34.5680571 31.240832,34.5398286 31.501952,34.4882571 L31.501952,35.3693143" id="Fill-13" fill="#545554"></path>
                <path d="M33.027328,28.8642571 L34.211616,28.8642571 L34.211616,35.2759429 L33.027328,35.2759429 L33.027328,28.8642571 L33.027328,28.8642571 Z M32.970208,26.0723429 L34.269824,26.0723429 L34.269824,27.2785714 L32.970208,27.2785714 L32.970208,26.0723429 L32.970208,26.0723429 Z" id="Fill-14" fill="#545554"></path>
                <path d="M36.48608,28.8642571 L37.586048,28.8642571 L37.586048,29.7502 C37.64752,29.6606286 37.713344,29.5759429 37.787872,29.4961429 C38.27584,28.9549143 38.936256,28.6818571 39.761504,28.6818571 C40.607424,28.6818571 41.227584,28.9066 41.625792,29.355 C42.022368,29.8017714 42.220384,30.5009714 42.220384,31.4542286 L42.220384,35.2754 L41.038272,35.2754 L41.038272,31.4732286 C41.038272,30.8169143 40.912608,30.3413714 40.664,30.0460571 C40.418112,29.7491143 40.018816,29.6014571 39.474272,29.6014571 C38.843776,29.6014571 38.384096,29.7632286 38.097952,30.0867714 C37.812352,30.4108571 37.670912,30.9325429 37.670912,31.6491143 L37.670912,35.2754 L36.48608,35.2754 L36.48608,28.8642571" id="Fill-15" fill="#545554"></path>
                <path d="M46.910208,29.5553143 C46.350432,29.5553143 45.920128,29.7605143 45.6144,30.1747143 C45.305952,30.5829429 45.153088,31.1632571 45.153088,31.9096857 C45.153088,32.7196286 45.297248,33.3216571 45.585568,33.7174 C45.876608,34.1147714 46.317248,34.3107429 46.910208,34.3107429 C47.467808,34.3107429 47.900288,34.1012 48.207648,33.6880857 C48.516096,33.2728 48.66896,32.6870571 48.66896,31.9292286 C48.66896,31.1741143 48.516096,30.5883714 48.207648,30.1758 C47.900288,29.7632286 47.467808,29.5553143 46.910208,29.5553143 L46.910208,29.5553143 L46.910208,29.5553143 Z M46.897696,36.9664 C47.54016,36.9664 47.997664,36.8100571 48.267488,36.4979143 C48.533504,36.1836 48.66896,35.6494286 48.66896,34.8981143 L48.66896,34.0436571 L48.472032,34.3172571 C47.993312,34.8964857 47.36336,35.1869143 46.583264,35.1869143 C45.748224,35.1869143 45.089984,34.8943143 44.613984,34.3107429 C44.13472,33.7277143 43.897536,32.9237429 43.897536,31.8961143 C43.897536,30.9580571 44.16192,30.1872 44.690688,29.5835429 C45.22,28.9836857 45.898368,28.6818571 46.727424,28.6818571 C47.511328,28.6818571 48.127136,28.9706571 48.57104,29.5498857 L48.66896,29.6720286 L48.66896,28.8642571 L49.853248,28.8642571 L49.853248,34.8981143 C49.853248,35.9246571 49.613888,36.6748857 49.136256,37.145 C48.659712,37.6189143 47.904096,37.8539714 46.870496,37.8539714 C45.968,37.8539714 45.307584,37.6873143 44.886528,37.3518286 C44.465472,37.0168857 44.256032,36.4914 44.256032,35.7721143 L45.493088,35.7721143 C45.493088,36.1852286 45.604608,36.4886857 45.830368,36.6797714 C46.059392,36.8714 46.412992,36.9664 46.897696,36.9664 L46.897696,36.9664 L46.897696,36.9664 Z" id="Fill-16" fill="#545554"></path>
                <polyline id="Fill-17" fill="#545554" points="58.715552 27.1168 55.622912 27.1168 55.622912 26.0723429 63.069728 26.0723429 63.069728 27.1168 59.977088 27.1168 59.977088 35.2754 58.715552 35.2754 58.715552 27.1168"></polyline>
                <path d="M64.530368,28.8642571 L65.713568,28.8642571 L65.713568,29.5167714 C66.176512,28.9565429 66.774368,28.6764286 67.512032,28.6818571 L67.832448,28.6943429 L67.832448,29.7968857 L67.592,29.7838571 C66.93104,29.7838571 66.453408,29.9608286 66.160192,30.3158571 C65.862624,30.6703429 65.713568,31.2381714 65.713568,32.0166286 L65.713568,35.2754 L64.530368,35.2754 L64.530368,28.8642571" id="Fill-18" fill="#545554"></path>
                <path d="M70.561696,32.7022571 C70.561696,33.3574857 70.686272,33.8330286 70.935424,34.1299714 C71.184032,34.4242 71.580064,34.5734857 72.124608,34.5734857 C72.786656,34.5734857 73.261568,34.409 73.545536,34.0773143 C73.82896,33.7472571 73.957888,33.2190571 73.921984,32.4932571 L73.921984,28.8642571 L75.105184,28.8642571 L75.105184,35.2754 L74.007936,35.2754 L74.007936,34.4415714 L73.876832,34.6104 C73.38016,35.1771429 72.72192,35.4594286 71.902112,35.4594286 C71.0328,35.4594286 70.396864,35.2308857 69.989952,34.7721714 C69.581952,34.3134571 69.377408,33.5958 69.377408,32.6175714 L69.377408,28.8642571 L70.561696,28.8642571 L70.561696,32.7022571" id="Fill-19" fill="#545554"></path>
                <path d="M80.833504,30.5921714 C80.833504,30.2773143 80.719264,30.0227143 80.489696,29.8441143 C80.262304,29.6606286 79.944064,29.5678 79.538784,29.5678 C79.123712,29.5678 78.7984,29.6465143 78.565568,29.7968857 C78.336,29.9499714 78.220128,30.1644 78.220128,30.4363714 C78.220128,30.6372286 78.2816,30.8011714 78.40944,30.9325429 C78.53184,31.0622857 78.723872,31.1632571 78.98336,31.2327429 L80.293312,31.5850571 C80.959712,31.7674571 81.440064,32.0008857 81.729472,32.2826286 C82.018336,32.5600286 82.160864,32.9297143 82.160864,33.3911429 C82.160864,34.0360571 81.924224,34.5409143 81.452576,34.9084286 C80.980384,35.2754 80.327584,35.4594286 79.496352,35.4594286 C78.62432,35.4594286 77.96064,35.2808286 77.504768,34.9209143 C77.049984,34.5626286 76.82096,34.0398571 76.82096,33.3531429 L78.045504,33.3531429 C78.045504,33.7369429 78.173888,34.0333429 78.430112,34.2494 C78.686336,34.4649143 79.041568,34.5734857 79.496352,34.5734857 C79.967456,34.5734857 80.33792,34.4779429 80.59904,34.2917429 C80.860704,34.1039143 80.99072,33.8395429 80.99072,33.4964571 C80.99072,33.2961429 80.90912,33.1267714 80.746464,32.9850857 C80.58544,32.8493714 80.33792,32.7310286 80.001184,32.6409143 L78.693952,32.2891429 C78.104256,32.1300857 77.674496,31.9124 77.416096,31.6415143 C77.15824,31.3728 77.030944,31.0096286 77.030944,30.5444 C77.030944,29.9651714 77.25072,29.5075429 77.696256,29.1774857 C78.140704,28.8485143 78.75488,28.6818571 79.538784,28.6818571 C80.322144,28.6818571 80.937952,28.8523143 81.388384,29.1888857 C81.83392,29.5298 82.05696,29.9972 82.05696,30.5921714 L80.833504,30.5921714" id="Fill-20" fill="#545554"></path>
                <path d="M87.576928,35.3693143 C87.239648,35.4290286 86.851776,35.4594286 86.413312,35.4594286 C85.968864,35.4594286 85.59024,35.3389143 85.281792,35.0951714 C84.969536,34.8492571 84.81776,34.5528571 84.81776,34.2005429 L84.81776,29.7181714 L83.484416,29.7181714 L83.484416,28.8642571 L84.81776,28.8642571 L84.81776,27.7090571 L85.999872,27.2210286 L85.999872,28.8642571 L87.576928,28.8642571 L87.576928,29.7181714 L85.999872,29.7181714 L85.999872,33.9253143 C85.999872,34.1544 86.056448,34.3161714 86.170688,34.4187714 C86.281664,34.5219143 86.464448,34.5734857 86.712512,34.5734857 C87.027488,34.5680571 87.314176,34.5398286 87.576928,34.4882571 L87.576928,35.3693143" id="Fill-21" fill="#545554"></path>
                <path d="M99.441024,33.4269714 C99.942048,32.7679429 100.193376,31.8369429 100.193376,30.6318 C100.193376,29.4576 99.942048,28.5477714 99.441024,27.9017714 C98.936736,27.2557714 98.232256,26.9316857 97.31616,26.9316857 C96.402784,26.9316857 95.698848,27.2557714 95.197824,27.9017714 C94.695712,28.5477714 94.446016,29.4576 94.446016,30.6318 C94.446016,31.8369429 94.695712,32.7679429 95.197824,33.4269714 C95.698848,34.0876286 96.402784,34.4155143 97.31616,34.4155143 C98.232256,34.4155143 98.936736,34.0876286 99.441024,33.4269714 L99.441024,33.4269714 L99.441024,33.4269714 Z M94.286624,34.1723143 C93.550592,33.3113429 93.18448,32.1300857 93.18448,30.6187714 C93.18448,29.1443714 93.550592,27.9880857 94.286624,27.1477429 C95.02048,26.3090286 96.030688,25.8910286 97.31616,25.8910286 C98.61088,25.8910286 99.624352,26.3090286 100.355488,27.1477429 C101.087712,27.9880857 101.452192,29.1443714 101.452192,30.6187714 C101.452192,32.1300857 101.087712,33.3113429 100.355488,34.1723143 C99.624352,35.0300286 98.61088,35.4594286 97.31616,35.4594286 C96.030688,35.4594286 95.02048,35.0300286 94.286624,34.1723143 L94.286624,34.1723143 L94.286624,34.1723143 Z" id="Fill-22" fill="#545554"></path>
                <path d="M103.076576,28.8642571 L104.17328,28.8642571 L104.17328,29.7502 C104.233664,29.6606286 104.300576,29.5759429 104.375648,29.4961429 C104.865248,28.9549143 105.522944,28.6818571 106.350368,28.6818571 C107.1952,28.6818571 107.81536,28.9066 108.213568,29.355 C108.610688,29.8017714 108.80816,30.5009714 108.80816,31.4542286 L108.80816,35.2754 L107.62496,35.2754 L107.62496,31.4732286 C107.62496,30.8169143 107.49984,30.3413714 107.252864,30.0460571 C107.003168,29.7491143 106.608224,29.6014571 106.06368,29.6014571 C105.43264,29.6014571 104.97024,29.7632286 104.686816,30.0867714 C104.401216,30.4108571 104.259776,30.9325429 104.259776,31.6491143 L104.259776,35.2754 L103.076576,35.2754 L103.076576,28.8642571" id="Fill-23" fill="#545554"></path>
                <polygon id="Fill-24" fill="#545554" points="110.80736 26.0723429 111.988928 26.0723429 111.988928 35.2754 110.80736 35.2754"></polygon>
                <path d="M114.334656,28.8642571 L115.519488,28.8642571 L115.519488,35.2759429 L114.334656,35.2759429 L114.334656,28.8642571 L114.334656,28.8642571 Z M114.276448,26.0723429 L115.57824,26.0723429 L115.57824,27.2785714 L114.276448,27.2785714 L114.276448,26.0723429 L114.276448,26.0723429 Z" id="Fill-25" fill="#545554"></path>
                <path d="M117.793952,28.8642571 L118.895008,28.8642571 L118.895008,29.7502 C118.95376,29.6606286 119.023392,29.5759429 119.096832,29.4961429 C119.583168,28.9549143 120.242496,28.6818571 121.070464,28.6818571 C121.91584,28.6818571 122.536544,28.9066 122.934208,29.355 C123.329696,29.8017714 123.527712,30.5009714 123.527712,31.4542286 L123.527712,35.2754 L122.3456,35.2754 L122.3456,31.4732286 C122.3456,30.8169143 122.219936,30.3413714 121.97296,30.0460571 C121.724352,29.7491143 121.327776,29.6014571 120.782688,29.6014571 C120.151104,29.6014571 119.692512,29.7632286 119.406912,30.0867714 C119.121312,30.4108571 118.97824,30.9325429 118.97824,31.6491143 L118.97824,35.2754 L117.793952,35.2754 L117.793952,28.8642571" id="Fill-26" fill="#545554"></path>
                <path d="M129.826688,31.3820286 C129.786976,30.7952 129.665664,30.3647143 129.460032,30.0894857 C129.203808,29.7426 128.76208,29.5678 128.1392,29.5678 C127.598464,29.5678 127.177408,29.7697429 126.87984,30.1758 C126.650816,30.4803429 126.512096,30.8826 126.460416,31.3820286 L129.826688,31.3820286 L129.826688,31.3820286 L129.826688,31.3820286 Z M128.238208,35.4594286 C127.29328,35.4594286 126.55072,35.1679143 126.015968,34.5859714 C125.480672,34.0013143 125.213024,33.1984286 125.213024,32.1708 C125.213024,31.084 125.480672,30.2311714 126.018688,29.6117714 C126.557248,28.9896571 127.296,28.6818571 128.238208,28.6818571 C129.146688,28.6818571 129.844096,28.9500286 130.322272,29.4885429 C130.802624,30.0227143 131.042528,30.8066 131.042528,31.8315143 L131.028928,32.262 L126.44736,32.262 C126.475648,32.9926857 126.617632,33.5480286 126.865696,33.9253143 C127.148032,34.3574286 127.595744,34.5734857 128.205024,34.5734857 C128.637504,34.5734857 128.988384,34.4524286 129.266912,34.2135714 C129.543808,33.9741714 129.70864,33.6430286 129.762496,33.2228571 L130.982688,33.2228571 C130.892384,33.9475714 130.613856,34.504 130.143296,34.8867143 C129.674912,35.2667143 129.038976,35.4594286 128.238208,35.4594286 L128.238208,35.4594286 L128.238208,35.4594286 Z" id="Fill-27" fill="#545554"></path>
                <path d="M133.839232,28.8126857 L134.035616,28.8126857 C134.26464,28.8126857 134.447424,28.7383143 134.447424,28.5532 C134.447424,28.3914286 134.327744,28.2834 134.0688,28.2834 C133.957824,28.2834 133.881664,28.2937143 133.839232,28.3040286 L133.839232,28.8126857 L133.839232,28.8126857 L133.839232,28.8126857 Z M133.82944,29.8120857 L133.414912,29.8120857 L133.414912,28.0445429 C133.579744,28.0108857 133.80768,27.9788571 134.099808,27.9788571 C134.435456,27.9788571 134.588864,28.0331429 134.717792,28.12 C134.8168,28.196 134.89296,28.3371429 134.89296,28.4994571 C134.89296,28.7046571 134.742272,28.8577429 134.52304,28.9228857 L134.52304,28.9435143 C134.698208,28.9978 134.796128,29.1389429 134.850528,29.3778 C134.901664,29.6476 134.935392,29.7578 134.98,29.8120857 L134.536096,29.8120857 C134.48224,29.7453143 134.447424,29.5938571 134.393024,29.3881143 C134.359296,29.1926857 134.251584,29.1052857 134.023648,29.1052857 L133.82944,29.1052857 L133.82944,29.8120857 L133.82944,29.8120857 L133.82944,29.8120857 Z M134.099808,27.4691143 C133.31808,27.4691143 132.732192,28.1086 132.732192,28.8897714 C132.732192,29.6812571 133.31808,30.3104286 134.12048,30.3104286 C134.901664,30.3207429 135.481024,29.6812571 135.481024,28.8897714 C135.481024,28.1086 134.901664,27.4691143 134.1096,27.4691143 L134.099808,27.4691143 L134.099808,27.4691143 L134.099808,27.4691143 Z M134.12048,27.1113714 C135.142656,27.1113714 135.934176,27.9028571 135.934176,28.8897714 C135.934176,29.8984 135.142656,30.6779429 134.1096,30.6779429 C133.091232,30.6779429 132.275232,29.8984 132.275232,28.8897714 C132.275232,27.9028571 133.091232,27.1113714 134.1096,27.1113714 L134.12048,27.1113714 L134.12048,27.1113714 L134.12048,27.1113714 Z" id="Fill-28" fill="#545554"></path>
            </g>
        </g>
    </g>
</svg>