<svg width="130" height="129" viewBox="0 0 130 129" xmlns="http://www.w3.org/2000/svg"><title>fondy_color_square</title><g fill="none" fill-rule="evenodd"><path fill="#3D3D3D" d="M14.801 102.31H4.543v7.282h9.895v4.3H4.543v14.43H.1V98.01h14.7v4.3z"/><path d="M23 113.077c0 3.349 1.092 6.1 3.28 8.258 2.172 2.158 4.683 3.237 7.53 3.237 3.089 0 5.694-1.099 7.817-3.295 2.123-2.224 3.185-4.93 3.185-8.12 0-3.23-1.049-5.938-3.146-8.122-2.085-2.197-4.666-3.295-7.742-3.295-3.063 0-5.65 1.098-7.76 3.295-2.11 2.17-3.165 4.852-3.165 8.042zm-4.481-.05c0-4.265 1.518-7.93 4.556-10.992 3.025-3.064 6.66-4.595 10.907-4.595 4.194 0 7.791 1.545 10.791 4.634 3.013 3.088 4.52 6.8 4.52 11.131 0 4.358-1.514 8.055-4.539 11.092-3.038 3.05-6.705 4.574-11.002 4.574-3.8 0-7.213-1.355-10.238-4.063-3.33-2.998-4.995-6.924-4.995-11.78z" fill="#59C341"/><path d="M88.954 124.022h2.002c1.996 0 3.654-.216 4.976-.648a10.04 10.04 0 0 0 3.585-2.179c2.186-2.055 3.28-4.731 3.28-8.03 0-3.324-1.08-6.02-3.242-8.088-1.945-1.845-4.811-2.767-8.6-2.767h-2v21.712zm-4.443 4.3V98.01h6.178c2.961 0 5.3.301 7.017.903 1.842.589 3.514 1.59 5.014 3.004 3.038 2.853 4.557 6.603 4.557 11.249 0 4.658-1.583 8.429-4.748 11.307-1.588 1.44-3.253 2.441-4.995 3.004-1.627.563-3.934.845-6.922.845h-6.1zm31.386-13.095l-9.61-17.217h5.11l6.73 12.113 6.75-12.113h5.11l-9.648 17.217v13.095h-4.442zM74.99 98.01v22.292L57.73 98.01h-4.28v30.312h4.443V105.99l17.26 22.33h4.28V98.01H74.99zM64.514.115l-1.202.723L49.588 9.15l-1.07.691v14.665L37.37 31.243l-1.11.692V46.6l-11.15 6.736-1.11.691v19.17l.996.692L38.722 82.2l1.15.714 1.175-.702 11.43-6.73 11.29 6.724 1.193.71 1.191-.713 11.18-6.694 10.57 6.666 1.214.764 1.229-.738 14.037-8.311 1.348-.692V54.026l-1.11-.691-11.149-6.736V31.935l-1.111-.692-11.148-6.737V9.841l-1.42-.69L65.85.837 64.514.115zm.35 2.767l13.894 8.312v14.664l12.26 7.427v14.666l12.26 7.427v16.466l-13.986 8.311-11.857-7.426-12.444 7.426-12.497-7.426-12.434 7.426-13.608-8.31V55.377L38.71 47.95V33.285l12.26-7.427V11.194l13.893-8.312z" fill="#3D3D3D"/><path fill="#59C341" d="M75.49 25.97l-10.627 6.544-10.623-6.545V12.884L64.863 6.34l10.626 6.543z"/><path fill="#3D3D3D" d="M75.49 70.153l-10.627 6.544-10.623-6.544V57.068l10.623-6.543 10.626 6.543zm24.518 0l-10.625 6.544-10.625-6.544V57.068l10.625-6.543 10.625 6.543zm-49.038 0l-11.034 6.544-11.032-6.544V57.068l11.032-6.543 11.034 6.543zm12.26-22.09l-10.625 6.542-10.625-6.542V34.976l10.625-6.544 10.625 6.544v13.087zm24.519 0l-10.625 6.542L66.5 48.063V34.976l10.625-6.544 10.625 6.544v13.087z"/></g></svg>