<?xml version="1.0" encoding="UTF-8"?>
<svg width="117px" height="42px" viewBox="0 0 117 42" version="1.1" xmlns="http://www.w3.org/2000/svg" xmlns:xlink="http://www.w3.org/1999/xlink">
    <!-- Generator: Sketch 41.1 (35376) - http://www.bohemiancoding.com/sketch -->
    <title>MasterCard_SecureCode</title>
    <desc>Created with Sketch.</desc>
    <defs></defs>
    <g id="Page-1" stroke="none" stroke-width="1" fill="none" fill-rule="evenodd">
        <g id="Marketing-Desktop-1440x900" transform="translate(-1041.000000, -1554.000000)">
            <g id="Group-10" transform="translate(974.000000, 1521.000000)">
                <g id="MasterCard_SecureCode" transform="translate(67.000000, 33.000000)">
                    <g id="Layer_1">
                        <g id="Group">
                            <g transform="translate(0.662651, 0.000000)" id="Shape" fill="#EC2127">
                                <path d="M109.266777,16.583 C109.266777,15.304 110.25247,14.269 111.455843,14.269 C112.665843,14.269 113.641265,15.304 113.641265,16.583 C113.641265,17.864 112.666175,18.899 111.455843,18.899 C110.25247,18.899 109.266777,17.864 109.266777,16.583 L109.266777,16.583 L109.266777,16.583 Z M111.456175,18.3506667 C112.375934,18.3506667 113.126717,17.5566667 113.126717,16.583 C113.126717,15.6143333 112.375934,14.8273333 111.456175,14.8273333 C110.54006,14.8273333 109.785633,15.6143333 109.785633,16.583 C109.785633,17.5566667 110.54006,18.3506667 111.456175,18.3506667 L111.456175,18.3506667 L111.456175,18.3506667 Z M111.158313,17.5973333 L110.71003,17.5973333 L110.71003,15.5586667 L111.522771,15.5586667 C111.688102,15.5586667 111.873645,15.5686667 112.015783,15.671 C112.171175,15.786 112.260633,15.979 112.260633,16.1833333 C112.260633,16.4093333 112.133072,16.6206667 111.92997,16.6973333 L112.280843,17.5973333 L111.78253,17.5973333 L111.485994,16.7983333 L111.157982,16.7983333 L111.157982,17.5973333 L111.158313,17.5973333 L111.158313,17.5973333 Z M111.158313,16.4516667 L111.408133,16.4516667 C111.49991,16.4516667 111.606265,16.4546667 111.683133,16.4093333 C111.759006,16.3596667 111.792801,16.2606667 111.792801,16.1733333 C111.792801,16.0966667 111.748735,16.0043333 111.683133,15.9683333 C111.616205,15.9226667 111.481355,15.933 111.402831,15.933 L111.158313,15.933 L111.158313,16.4516667 L111.158313,16.4516667 L111.158313,16.4516667 Z"></path>
                                <path d="M77.9681325,1.19433333 L77.3684337,5.11866667 C76.0676506,4.422 75.1111145,4.149 74.0893072,4.149 C71.3628313,4.149 69.4345181,6.93733333 69.4345181,10.9183333 C69.4345181,13.668 70.729006,15.3246667 72.8577711,15.3246667 C73.7612952,15.3246667 74.7542771,15.0326667 75.969247,14.3923333 L75.3294578,18.522 C73.9856024,18.911 73.1089157,19.0493333 72.092741,19.0493333 C68.1433434,19.0493333 65.6868976,16.0523333 65.6868976,11.2416667 C65.6868976,4.77066667 69.080994,0.252 73.9362349,0.252 C74.5634337,0.252 75.1237048,0.313666667 75.5789458,0.446333333 L77.0884639,0.844333333 C77.537741,1.02333333 77.6387952,1.05066667 77.9681325,1.19433333 L77.9681325,1.19433333 L77.9681325,1.19433333 Z"></path>
                                <path d="M65.8121386,3.884 C65.6971687,3.862 65.5699398,3.846 65.4374096,3.846 C64.2307229,3.846 63.5485241,4.48833333 62.4279819,6.241 L62.7533434,4.00533333 L59.4357831,4.00533333 L57.186747,18.7163333 L60.8671084,18.7163333 C62.1831325,9.725 62.519759,8.17233333 64.2840663,8.17233333 C64.3914157,8.17233333 64.4013554,8.17233333 64.5517771,8.18733333 C64.8771386,6.41466667 65.3227711,5.11133333 65.9373795,3.92266667 L65.8121386,3.884 L65.8121386,3.884 L65.8121386,3.884 Z"></path>
                                <path d="M43.8850301,18.5366667 C42.8893976,18.87 42.1025,19.0216667 41.2572892,19.0216667 C39.3879518,19.0216667 38.3671386,17.876 38.3671386,15.7856667 C38.3671386,15.3756667 38.3976205,14.9333333 38.471506,14.4666667 L38.6981325,13.0323333 L38.8661145,11.8606667 L40.4551506,1.82266667 L44.0960843,1.82266667 L43.6786145,4.00533333 L45.5525904,4.00533333 L45.0380422,7.58133333 L43.1687048,7.58133333 L42.2012349,13.721 C42.1681024,13.992 42.1399398,14.192 42.1399398,14.3303333 C42.1399398,15.0836667 42.5219578,15.4203333 43.3877108,15.4203333 C43.8101506,15.4203333 44.1285542,15.376 44.3734036,15.283 L43.8850301,18.5366667 L43.8850301,18.5366667 L43.8850301,18.5366667 Z"></path>
                                <path d="M29.4475301,8.65733333 C29.4475301,10.514 30.2977108,11.798 32.2230422,12.7576667 C33.6974398,13.4953333 33.9316867,13.7103333 33.9316867,14.38 C33.9316867,15.294 33.2773193,15.7173333 31.8360542,15.7173333 C30.7489759,15.7173333 29.7328012,15.5346667 28.5615663,15.1283333 L28.0549699,18.5216667 L28.2206325,18.557 L28.8928916,18.7003333 C29.109247,18.7466667 29.4276506,18.788 29.8477711,18.8336667 C30.7211446,18.9156667 31.390753,18.955 31.8645482,18.955 C35.7065964,18.955 37.4841566,17.3943333 37.4841566,14.0436667 C37.4841566,12.0303333 36.7433133,10.8396667 34.9124096,9.94833333 C33.3846687,9.216 33.2113855,9.04333333 33.2113855,8.36033333 C33.2113855,7.56233333 33.8173795,7.15233333 34.9939157,7.15233333 C35.7115663,7.15233333 36.6846687,7.238 37.6137048,7.37133333 L38.1355422,3.97433333 C37.1806627,3.81066667 35.7625904,3.68433333 34.9223494,3.68433333 C30.8457229,3.68433333 29.4322892,5.942 29.4475301,8.65733333 L29.4475301,8.65733333 L29.4475301,8.65733333 Z"></path>
                                <path d="M107.140663,18.7163333 L103.674337,18.7163333 L103.856235,17.275 C102.846687,18.4136667 101.810633,18.9106667 100.472078,18.9106667 C97.7933133,18.9106667 96.0379518,16.4823333 96.0379518,12.804 C96.0379518,7.911 98.765753,3.77966667 102.00512,3.77966667 C103.428494,3.77966667 104.504639,4.39966667 105.518163,5.79366667 L106.315331,0.625666667 L109.925452,0.625666667 L107.140663,18.7163333 L107.140663,18.7163333 L107.140663,18.7163333 Z M101.73509,15.2526667 C103.446386,15.2526667 104.64247,13.2083333 104.64247,10.2966667 C104.64247,8.427 103.959608,7.40866667 102.693946,7.40866667 C101.034669,7.40866667 99.8551506,9.46133333 99.8551506,12.3563333 C99.8551506,14.2826667 100.48997,15.2526667 101.73509,15.2526667 L101.73509,15.2526667 L101.73509,15.2526667 Z"></path>
                                <path d="M55.4860542,18.4073333 C54.2329819,18.8033333 53.0216566,19.0033333 51.7228614,18.998 C47.6386145,18.998 45.5045482,16.7366667 45.5045482,12.413 C45.5045482,7.35733333 48.2187651,3.636 51.9087349,3.636 C54.9181627,3.636 56.8511145,5.72166667 56.8511145,8.99033333 C56.8511145,10.0726667 56.7209036,11.128 56.3948795,12.619 L49.1123494,12.619 C49.0818675,12.843 49.0772289,12.9453333 49.0772289,13.0753333 C49.0772289,14.7946667 50.1666265,15.6606667 52.2980422,15.6606667 C53.6044578,15.6606667 54.7806627,15.3756667 56.0973494,14.725 L55.4860542,18.4073333 L55.4860542,18.4073333 L55.4860542,18.4073333 Z M53.4311747,9.64733333 C53.4520482,9.34 53.4570181,9.08933333 53.4570181,8.903 C53.4570181,7.70066667 52.812259,6.99866667 51.7228614,6.99866667 C50.5612349,6.99866667 49.7289458,7.93633333 49.3876807,9.63733333 L53.4311747,9.64733333 L53.4311747,9.64733333 L53.4311747,9.64733333 Z"></path>
                                <polygon points="14.7429819 18.7163333 11.0838253 18.7163333 13.1794578 4.81466667 8.49683735 18.7163333 5.98903614 18.7163333 5.68587349 4.89633333 3.47825301 18.7163333 0.0510240964 18.7163333 2.91036145 0.625333333 8.18373494 0.625333333 8.32885542 11.82 11.8882831 0.625333333 17.5794578 0.625333333"></polygon>
                                <path d="M24.1718373,12.1633333 C23.7845181,12.117 23.6142169,12.1 23.3518072,12.1 C21.2767169,12.1 20.2250904,12.8596667 20.2250904,14.3456667 C20.2250904,15.2616667 20.7419578,15.8453333 21.5414458,15.8453333 C23.0310843,15.8453333 24.1108735,14.3456667 24.1718373,12.1633333 L24.1718373,12.1633333 L24.1718373,12.1633333 Z M26.8353614,18.7163333 L23.8024096,18.7163333 L23.8686747,17.189 C22.9442771,18.407 21.7094277,18.972 20.0312651,18.972 C18.04,18.972 16.6805723,17.3326667 16.6805723,14.964 C16.6805723,11.3726667 19.0561747,9.28766667 23.1175602,9.28766667 C23.5323795,9.28766667 24.0621687,9.32 24.6071988,9.39666667 C24.721506,8.91 24.7523193,8.7 24.7523193,8.442 C24.7523193,7.47033333 24.1158434,7.10166667 22.399247,7.10166667 C21.3631928,7.10166667 20.1737349,7.26033333 19.3540361,7.522 L18.8447892,7.67033333 L18.5240663,7.76566667 L19.028012,4.46633333 C20.8565964,3.89466667 22.0606325,3.67433333 23.417741,3.67433333 C26.565,3.67433333 28.2328916,5.16833333 28.2328916,7.98766667 C28.2328916,8.72 28.1795482,9.26333333 27.9300602,10.906 L27.1637048,16.1183333 L27.0387952,17.0596667 L26.9446988,17.8093333 L26.8810843,18.3216667 L26.8353614,18.7163333 L26.8353614,18.7163333 L26.8353614,18.7163333 Z"></path>
                                <path d="M84.2768976,12.1633333 C83.8958735,12.117 83.7189458,12.1 83.4631627,12.1 C81.3797892,12.1 80.3248494,12.8596667 80.3248494,14.3456667 C80.3248494,15.2616667 80.8473494,15.8453333 81.6471687,15.8453333 C83.1437651,15.8453333 84.2112952,14.3456667 84.2768976,12.1633333 L84.2768976,12.1633333 L84.2768976,12.1633333 Z M86.9430723,18.7163333 L83.9061446,18.7163333 L83.9767169,17.189 C83.0529819,18.407 81.8154819,18.972 80.1396386,18.972 C78.1483735,18.972 76.7833133,17.3326667 76.7833133,14.964 C76.7833133,11.3726667 79.1565964,9.28766667 83.2259337,9.28766667 C83.6384337,9.28766667 84.1731928,9.32 84.7145783,9.39666667 C84.8268976,8.91 84.8596988,8.7 84.8596988,8.442 C84.8596988,7.47033333 84.2235542,7.10166667 82.5076205,7.10166667 C81.4652711,7.10166667 80.2791265,7.26033333 79.4663855,7.522 L78.9455422,7.67033333 L78.6287952,7.76566667 L79.1383735,4.46633333 C80.9692771,3.89466667 82.1706627,3.67433333 83.5181627,3.67433333 C86.6703916,3.67433333 88.3382831,5.16833333 88.3382831,7.98766667 C88.3382831,8.72 88.2753313,9.26333333 88.0381024,10.906 L87.2657831,16.1183333 L87.1524699,17.0596667 L87.0500904,17.8093333 L86.9831627,18.3216667 L86.9430723,18.7163333 L86.9430723,18.7163333 L86.9430723,18.7163333 Z"></path>
                                <path d="M97.1737349,3.884 C97.0653916,3.862 96.9454518,3.846 96.8053012,3.846 C95.6029217,3.846 94.9154217,4.48833333 93.7895783,6.241 L94.1162651,4.00533333 L90.803012,4.00533333 L88.563253,18.7163333 L92.2310241,18.7163333 C93.5483735,9.725 93.8942771,8.17233333 95.6466566,8.17233333 C95.7603012,8.17233333 95.7526807,8.162 95.9027711,8.18733333 C96.234759,6.41466667 96.6827108,5.11133333 97.2983133,3.92266667 L97.1737349,3.884 L97.1737349,3.884 L97.1737349,3.884 Z"></path>
                            </g>
                            <g transform="translate(0.000000, 22.666667)" id="Shape" fill="#F89620">
                                <path d="M82.4678614,10.317 C82.4678614,13.652 81.441747,15.6156667 79.8242169,15.6156667 C78.6433735,15.6523333 77.9273795,14.3283333 77.9273795,12.348 C77.9273795,10.006 78.9733735,7.35133333 80.6518675,7.35133333 C82.0010241,7.35166667 82.4678614,8.79 82.4678614,10.317 L82.4678614,10.317 L82.4678614,10.317 Z M86.0700301,10.3783333 C86.0700301,6.67133333 84.2493976,3.786 80.8274699,3.786 C76.888012,3.786 74.3368072,7.29466667 74.3368072,12.46 C74.3368072,16.158 75.8446687,19.1816667 79.5743976,19.1816667 C83.338253,19.1816667 86.0700301,16.5006667 86.0700301,10.3783333 L86.0700301,10.3783333 L86.0700301,10.3783333 Z"></path>
                                <path d="M75.514006,1.18366667 L74.9540663,5.10366667 C73.7364458,4.412 72.8504819,4.125 71.8929518,4.125 C69.3337952,4.125 67.5462952,6.92533333 67.5462952,10.9063333 C67.5462952,13.6546667 68.7433735,15.3173333 70.7372892,15.3173333 C71.5874699,15.3173333 72.5178313,15.0253333 73.646988,14.3843333 L73.0539157,18.5113333 C71.788253,18.9036667 70.9619277,19.038 70.0219578,19.038 C66.3349699,19.038 64.0382229,16.0396667 64.0382229,11.2283333 C64.0382229,4.75433333 67.208012,0.236333333 71.7481627,0.236333333 C72.3359337,0.236333333 72.8561145,0.311333333 73.2861747,0.430666667 L74.6870181,0.830666667 C75.1193976,1.00333333 75.2088554,1.03366667 75.514006,1.18366667 L75.514006,1.18366667 L75.514006,1.18366667 Z"></path>
                                <path d="M52.8665964,3.87733333 C52.7622289,3.84833333 52.6419578,3.83666667 52.5150602,3.83666667 C51.4044578,3.83666667 50.7530723,4.48166667 49.7120482,6.22833333 L50.0148795,3.99666667 L46.9179819,3.99666667 L44.8273193,18.7093333 L48.2469277,18.7093333 C49.4771386,9.709 49.8025,8.16033333 51.4428916,8.16033333 C51.5396386,8.16033333 51.5495783,8.16033333 51.6923795,8.177 C52.0008434,6.39733333 52.415994,5.09366667 52.9911747,3.90266667 L52.8665964,3.87733333 L52.8665964,3.87733333 L52.8665964,3.87733333 Z"></path>
                                <path d="M97.5388554,18.552 L94.3074398,18.552 L94.4737651,17.116 C93.5337952,18.2483333 92.5560542,18.7496667 91.3053012,18.7496667 C88.8134036,18.7496667 87.1680422,16.3173333 87.1680422,12.64 C87.1680422,7.755 89.7218976,3.61166667 92.7412651,3.61166667 C94.0735241,3.61166667 95.0843976,4.245 96.0184036,5.639 L96.7728313,0.466 L100.139096,0.466 L97.5388554,18.552 L97.5388554,18.552 L97.5388554,18.552 Z M92.4828313,15.0913333 C94.0937349,15.0913333 95.2043373,13.0486667 95.2043373,10.1343333 C95.2043373,8.25933333 94.5698494,7.25266667 93.3936446,7.25266667 C91.8380723,7.25266667 90.7327711,9.29766667 90.7327711,12.202 C90.7327711,14.119 91.3258434,15.0913333 92.4828313,15.0913333 L92.4828313,15.0913333 L92.4828313,15.0913333 Z"></path>
                                <path d="M20.7959639,18.4913333 C19.6326807,18.895 18.4992169,19.0903333 17.2925301,19.0903333 C13.473012,19.0903333 11.4794277,16.8243333 11.4794277,12.502 C11.4794277,7.45333333 14.0153916,3.729 17.4578614,3.729 C20.2767771,3.729 22.0742169,5.811 22.0742169,9.07966667 C22.0742169,10.16 21.9519578,11.2186667 21.6593976,12.7103333 L14.8427108,12.7103333 C14.8221687,12.93 14.8145482,13.039 14.8145482,13.1673333 C14.8145482,14.8826667 15.8356928,15.748 17.8193373,15.748 C19.0415964,15.748 20.1465663,15.4613333 21.3714759,14.8163333 L20.7959639,18.4913333 L20.7959639,18.4913333 L20.7959639,18.4913333 Z M18.8835542,9.73833333 C18.8991265,9.42733333 18.9090663,9.17966667 18.9090663,8.99066667 C18.9090663,7.791 18.3083735,7.089 17.2921988,7.089 C16.1998193,7.089 15.4228614,8.03333333 15.1100904,9.723 L18.8835542,9.73833333 L18.8835542,9.73833333 L18.8835542,9.73833333 Z"></path>
                                <path d="M61.4793976,18.4913333 C60.3124699,18.895 59.1766867,19.0903333 57.9743072,19.0903333 C54.1471687,19.0903333 52.1562349,16.8243333 52.1562349,12.502 C52.1562349,7.45333333 54.6948494,3.729 58.1346687,3.729 C60.954247,3.729 62.7573193,5.811 62.7573193,9.07966667 C62.7573193,10.16 62.629759,11.2186667 62.3269277,12.7103333 L55.5251506,12.7103333 C55.5042771,12.93 55.4916867,13.039 55.4916867,13.1673333 C55.4916867,14.8826667 56.510512,15.748 58.4938253,15.748 C59.7164157,15.748 60.8243675,15.4613333 62.0496084,14.8163333 L61.4793976,18.4913333 L61.4793976,18.4913333 L61.4793976,18.4913333 Z M59.5563855,9.73833333 C59.5789157,9.42733333 59.591506,9.17966667 59.591506,8.99066667 C59.591506,7.791 58.9858434,7.089 57.9739759,7.089 C56.8812651,7.089 56.1053012,8.03333333 55.7892169,9.723 L59.5563855,9.73833333 L59.5563855,9.73833333 L59.5563855,9.73833333 Z"></path>
                                <path d="M109.208795,18.4913333 C108.026627,18.895 106.906084,19.0903333 105.694759,19.0903333 C101.875572,19.0903333 99.8766867,16.8243333 99.8766867,12.502 C99.8766867,7.45333333 102.420602,3.729 105.86009,3.729 C108.679006,3.729 110.474789,5.811 110.474789,9.07966667 C110.474789,10.16 110.3575,11.2186667 110.054337,12.7103333 L103.245602,12.7103333 C103.221747,12.93 103.216777,13.039 103.216777,13.1673333 C103.216777,14.8826667 104.238584,15.748 106.222229,15.748 C107.445813,15.748 108.548795,15.4613333 109.776687,14.8163333 L109.208795,18.4913333 L109.208795,18.4913333 L109.208795,18.4913333 Z M107.286114,9.73833333 C107.301355,9.42733333 107.311295,9.17966667 107.311295,8.99066667 C107.311295,7.791 106.713253,7.089 105.694759,7.089 C104.602048,7.089 103.828735,8.03333333 103.511988,9.723 L107.286114,9.73833333 L107.286114,9.73833333 L107.286114,9.73833333 Z"></path>
                                <path d="M10.671988,4.54233333 C10.0023795,4.09166667 9.09587349,3.698 7.81496988,3.698 C6.4323494,3.698 5.31975904,3.98633333 5.31975904,5.46633333 C5.31975904,8.08 10.3612048,7.104 10.3612048,12.701 C10.3612048,17.799 7.03370482,19.1206667 4.02361446,19.1206667 C2.68439759,19.1206667 1.14373494,18.675 0.00828313253,18.1673333 L0.825662651,14.4213333 C1.51084337,15.0473333 2.89313253,15.4763333 4.02361446,15.4763333 C5.10075301,15.4763333 6.78885542,15.1803333 6.78885542,13.289 C6.78885542,10.3273333 1.75006024,11.429 1.75006024,6.23066667 C1.75006024,1.47533333 4.69355422,0.051 7.53301205,0.051 C9.13198795,0.051 10.6342169,0.287 11.5152108,0.876 L10.671988,4.54233333 L10.671988,4.54233333 L10.671988,4.54233333 Z"></path>
                                <path d="M30.8102711,18.486 C30.1048795,18.8273333 29.1629217,19.052 27.7726807,19.052 C24.7834639,19.052 22.9296988,16.046 22.9296988,12.3863333 C22.9296988,7.59666667 25.6111145,3.77566667 29.5575301,3.77566667 C30.4183133,3.77566667 31.7320181,4.15033333 32.7684036,4.75466667 L32.011988,8.26833333 C31.2784337,7.78333333 30.5147289,7.475 29.7281627,7.475 C27.8995783,7.475 26.593494,9.161 26.593494,12.182 C26.593494,13.9213333 27.540753,15.348 29.0376807,15.348 C29.9286145,15.348 30.5554819,15.159 31.3221687,14.708 L30.8102711,18.486 L30.8102711,18.486 L30.8102711,18.486 Z"></path>
                                <path d="M43.6034036,14.802 C43.4278012,16.0676667 43.2647892,17.2963333 43.1677108,18.6166667 L39.8753313,18.6166667 L40.1529819,16.2386667 L40.1195181,16.2386667 C39.0884337,17.855 38.0215663,18.9553333 36.1575301,18.9553333 C34.0903916,18.9553333 32.9701807,16.767 32.9701807,13.909 C32.9701807,12.924 33.0311446,12.368 33.2498193,10.8296667 L34.1818373,4.02033333 L37.8459639,4.02033333 L36.8629217,10.8496667 C36.7635241,11.5833333 36.6237048,12.311 36.6237048,13.07 C36.6237048,13.9306667 37.0133434,14.8013333 38.0013554,14.748 C39.503253,14.748 40.3895482,12.8996667 40.6416867,10.743 L41.6528916,4.02 L45.1997289,4.02 L43.6034036,14.802 L43.6034036,14.802 L43.6034036,14.802 Z"></path>
                                <g transform="translate(110.993976, 15.333333)">
                                    <polygon points="1.62813253 3.10566667 1.07415663 3.10566667 1.07415663 0.665666667 0.273012048 0.665666667 0.273012048 0.143 2.42927711 0.143 2.42927711 0.665666667 1.62813253 0.665666667"></polygon>
                                    <polygon points="5.30120482 3.10566667 4.7836747 3.10566667 4.7836747 0.629 4.77638554 0.629 4.28171687 3.10566667 3.73900602 3.10566667 3.25593373 0.629 3.24831325 0.629 3.24831325 3.10566667 2.73210843 3.10566667 2.73210843 0.143 3.53987952 0.143 4.02063253 2.47866667 4.02792169 2.47866667 4.50006024 0.143 5.30120482 0.143"></polygon>
                                </g>
                            </g>
                        </g>
                    </g>
                </g>
            </g>
        </g>
    </g>
</svg>