<?xml version="1.0" encoding="UTF-8"?>
<svg width="132px" height="50px" viewBox="0 0 132 50" version="1.1" xmlns="http://www.w3.org/2000/svg" xmlns:xlink="http://www.w3.org/1999/xlink">
    <!-- Generator: Sketch 41.2 (35397) - http://www.bohemiancoding.com/sketch -->
    <title>pcidss_logo</title>
    <desc>Created with Sketch.</desc>
    <defs></defs>
    <g id="Page-1" stroke="none" stroke-width="1" fill="none" fill-rule="evenodd">
        <g id="Marketing-Desktop-1440x900" transform="translate(-1241.000000, -1481.000000)">
            <g id="pcidss_logo" transform="translate(1241.000000, 1480.000000)">
                <g id="logo_pci_dss">
                    <g id="Page-1">
                        <g id="logo_pci_dss">
                            <g id="COMPLIANT-+-Rectangle-3-+-Letters-+-DSS">
                                <g id="Page-1">
                                    <g id="COMPLIANT-+-Rectangle-3-+-Letters-+-DSS">
                                        <g id="COMPLIANT" transform="translate(86.484143, 23.921112)" font-size="6.70143148" font-family="Arial-Black, Arial Black" fill="#225E63" font-weight="700">
                                            <g id="Group">
                                                <text id="COMPLIANT">
                                                    <tspan x="0" y="7">COMPLIANT</tspan>
                                                </text>
                                            </g>
                                        </g>
                                        <g id="Rectangle-3-+-Letters" transform="translate(0.000000, 0.977547)">
                                            <path d="M72.1960954,32.8172828 L76.5271847,31.4703852 L75.1248983,28.3878557 C74.0822606,29.6581016 73.0551316,31.3001254 72.1960948,32.8172833 L72.1960954,32.8172828 Z M70.7209285,18.7069768 L62.2277693,0.0371747817 L0.0522514994,3.5205095 L17.2774271,49.8960851 L50.4367716,39.5840746 C48.3347643,36.5927691 47.554726,33.0370408 49.992593,31.2990092 C52.7212187,29.3536867 56.8264325,31.6035416 59.4635484,34.8023842 C61.9944771,30.6059733 69.095558,20.9150059 70.7209285,18.7069768 L70.7209285,18.7069768 Z" id="Rectangle-3" fill="#225E63"></path>
                                            <g id="Letters" transform="translate(11.888167, 4.755430)" fill="#FEFEFE">
                                                <path d="M48.4094715,8.77112804 C51.0120727,8.77112804 53.1218978,6.80764413 53.1218978,4.38556401 C53.1218978,1.96348389 51.0120727,0 48.4094715,0 C45.8068701,0 43.697045,1.96348389 43.697045,4.38556401 C43.697045,6.80764413 45.8068701,8.77112804 48.4094715,8.77112804 L48.4094715,8.77112804 Z M44.5538497,10.6733004 L52.2650931,10.6733004 L52.2650931,30.5404336 L44.5538497,30.5404336 L44.5538497,10.6733004 L44.5538497,10.6733004 Z" id="Oval-1"></path>
                                                <path d="M40.746888,16.4713731 C40.8020652,16.5033753 40.8467955,16.4772315 40.8467955,16.4145052 L40.8467955,11.3814445 C40.8467955,11.318035 40.8026923,11.2412366 40.7449712,11.210906 C40.7449712,11.210906 39.7336838,10.5605034 36.6470504,10.3792967 C36.482224,10.2893205 33.7959921,10.2760804 33.0506435,10.3792967 C21.8362904,11.2666315 21.4203049,19.2720567 21.4203049,19.6376706 L21.4203049,21.5825183 C21.4203049,21.8212904 21.4203049,30.005985 33.0501771,30.7317053 C34.1863789,30.8170112 36.4125991,30.7317053 36.6466106,30.7317053 C39.325111,30.7317045 41.1813226,29.935818 41.1813226,29.935818 C41.2403588,29.9122129 41.2882173,29.8409187 41.2882173,29.7781886 L41.2882173,25.0658217 C41.2882173,25.0023702 41.2455418,24.9798546 41.1899133,25.0132748 C41.1899133,25.0132748 40.35752,25.6735155 36.6967113,26.0257905 C35.6589485,26.1409375 35.1666102,26.086948 34.79248,26.0257905 C29.6021626,25.1645278 29.3550515,21.412203 29.3550515,21.412203 C29.3479051,21.3501274 29.3421118,21.2481028 29.3421118,21.1852602 L29.3421118,19.7478563 C29.3421118,19.684595 29.3480288,19.5824276 29.356964,19.5202137 C29.356964,19.5202137 29.7078854,15.5003237 34.7926994,15.0763242 L36.6969514,15.0763242 C38.9429868,15.3756129 40.746888,16.4713731 40.746888,16.4713731 L40.746888,16.4713731 Z" id="Path-3"></path>
                                                <path d="M0.031061294,30.4616388 C0.031059726,30.5248503 0.0825501991,30.5760938 0.146522106,30.5760938 L7.65850724,30.5760938 C7.72227607,30.5760938 7.7739709,30.5242714 7.7739709,30.4616993 L7.7739709,24.6960358 C7.7739709,24.6328575 7.82531587,24.5848614 7.88991038,24.5883839 C7.88991038,24.5883839 19.8804196,25.4443172 19.8804207,17.5022325 C19.8804199,11.2353479 12.3575571,10.5476907 9.88081238,10.6624621 C9.83099559,10.6647706 0.148444785,10.662489 0.148444785,10.662489 C0.0838868937,10.6624741 0.0315510933,10.7144092 0.0315495428,10.7769173 L0.031061294,30.4616388 L0.031061294,30.4616388 Z M7.64017666,20.1847845 L7.64017666,14.9901343 L9.47844739,14.9901343 C9.47844739,14.9901343 12.1515619,15.1088692 12.3596769,16.9032988 C12.4082734,17.0435029 12.3965535,17.9218701 12.3594087,17.9702802 C12.015028,20.081845 9.69260434,20.185216 9.69260434,20.185216 L7.64017666,20.1847845 L7.64017666,20.1847845 Z" id="Path-1"></path>
                                            </g>
                                            <path d="M60.509587,44.8878754 C61.1362258,44.8878754 61.6162385,44.8878754 62.4085566,44.5410379 C65.146489,43.1204368 74.3622758,20.9130925 84.0825825,14.082441 C84.1418215,14.0386532 84.2212601,13.9748846 84.2672017,13.9100176 C84.3309723,13.8199769 84.3335547,13.728082 84.3335547,13.728082 C84.3335547,13.728082 84.3335538,13.2699778 82.8923573,13.2699778 C74.2388748,13.0372446 65.2401178,30.9365595 60.5095873,38.0184591 C60.450502,38.0964688 60.1251058,38.0184591 60.1251058,38.0184591 C60.1251058,38.0184591 56.9551506,34.3287849 54.2012161,32.9125946 C54.1437975,32.8830674 53.8305098,32.7888466 53.5054088,32.8126387 C53.2876493,32.8126387 52.0066759,33.0669888 51.4098107,33.6883927 C50.7043883,34.4228173 50.7189842,34.8349925 50.725185,35.7287156 C50.7256902,35.8015147 50.7730507,36.0958412 50.8604113,36.2465721 C51.5336588,37.4081869 54.6092091,41.5806875 57.129191,43.8825895 C57.5191339,44.1563801 58.1124282,44.8878754 60.509587,44.8878754 L60.509587,44.8878754 Z" id="Path-7" fill="#2BBC5D"></path>
                                        </g>
                                        <g id="DSS" transform="translate(84.968922, 0.000000)" font-size="21.7218814" font-family="Arial-Black, Arial Black" fill="#225E63" font-weight="700">
                                            <g id="DS">
                                                <text>
                                                    <tspan x="0" y="24">DS</tspan>
                                                </text>
                                            </g>
                                            <g id="S" transform="translate(32.083333, 0.000000)">
                                                <text>
                                                    <tspan x="0.0393481667" y="24">S</tspan>
                                                </text>
                                            </g>
                                        </g>
                                    </g>
                                </g>
                            </g>
                        </g>
                    </g>
                </g>
            </g>
        </g>
    </g>
</svg>