<svg width="95" height="41" viewBox="0 0 95 41" xmlns="http://www.w3.org/2000/svg"><title>verified-by-visa</title><g fill="none" fill-rule="evenodd"><path d="M71.067 34.203c.404-1.058 1.936-5.148 1.936-5.148-.028.051.4-1.063.646-1.753l.325 1.588 1.13 5.313h-4.037zm5.995-11.865h-3.756c-1.165 0-2.035.325-2.55 1.53l-7.221 16.866h5.108s.835-2.272 1.024-2.767c.558 0 5.518.012 6.225.012.15.642.59 2.755.59 2.755H81l-3.938-18.396zm-12.47.437c-.96-.372-2.477-.775-4.358-.775-4.814 0-8.188 2.499-8.221 6.075-.03 2.645 2.417 4.122 4.257 5.003 1.898.9 2.533 1.477 2.527 2.284-.018 1.232-1.516 1.795-2.914 1.795-1.944 0-2.979-.277-4.572-.963l-.633-.294-.682 4.122c1.14.512 3.24.955 5.422.978 5.105 0 8.426-2.472 8.468-6.285.019-2.1-1.28-3.69-4.088-5.005-1.695-.85-2.743-1.419-2.725-2.282 0-.764.876-1.582 2.783-1.582a8.72 8.72 0 0 1 3.641.707l.43.211.664-3.99zM42.086 40.728l3.042-18.406h4.863L46.95 40.728h-4.863zm-4.08-18.39l-4.76 12.545-.507-2.55c-1.185-3.124-3.75-6.402-6.74-7.734l4.355 16.11 5.148-.002 7.653-18.37h-5.148z" fill="#00579F"/><path d="M29.025 22h-7.979l-.046.315c6.203 1.523 10.296 5.263 12 9.685l-1.734-8.454c-.297-1.16-1.166-1.505-2.24-1.546" fill="#FAA61A"/><path d="M6.68 17.707H3.577L0 1.197 3.428.61 5.876 13.53 12.112.781h3.294L6.68 17.707zM18.458 7.621c-1.146 0-2.216.927-2.722 2.857h4.582c.085-1.832-.477-2.857-1.86-2.857zm4.352 4.69h-7.396c-.203 2.294.84 3.295 2.605 3.295 1.48 0 2.782-.562 4.183-1.466l-.011 2.297c-1.373.879-2.962 1.44-4.823 1.44-3.221 0-5.349-1.88-4.71-6.13.576-3.835 3.169-6.154 6.175-6.154 3.461 0 4.611 2.663 4.109 6.008-.037.244-.105.537-.132.71zm4.823-1.442l-1.018 6.765h-2.863l1.773-11.797h2.435l.002 2.368c.97-1.367 2.286-2.515 4.091-2.612L32.07 8.5c-1.808.122-3.434 1.1-4.436 2.37zm7.925-7.01c-.954 0-1.614-.684-1.468-1.66a2.014 2.014 0 0 1 1.977-1.71c.93 0 1.586.708 1.436 1.71-.147.976-1.013 1.66-1.945 1.66zm-3.527 13.775l1.776-11.797h2.862l-1.774 11.797h-2.864zM44.6 2.613c-.979 0-1.57.439-1.726 1.49l-.262 1.734h2.195l-.002 2.393h-2.552l-1.415 9.404h-2.84l1.415-9.404h-1.67l.36-2.393h1.67l.303-2.027C40.47 1.197 42.24.22 44.602.22c.502 0 .875.049 1.156.098l.02 2.392a7.071 7.071 0 0 0-1.178-.097zm3.559 1.246c-.955 0-1.615-.684-1.468-1.66a2.013 2.013 0 0 1 1.975-1.71c.93 0 1.587.708 1.44 1.71-.149.976-1.016 1.66-1.947 1.66zM44.63 17.634l1.776-11.797h2.861l-1.772 11.797H44.63zM56.017 7.62c-1.145 0-2.216.927-2.718 2.857h4.581c.083-1.832-.478-2.857-1.863-2.857zm4.357 4.69h-7.4c-.2 2.294.84 3.295 2.603 3.295 1.481 0 2.784-.562 4.184-1.466l-.01 2.297c-1.375.879-2.961 1.44-4.823 1.44-3.223 0-5.347-1.88-4.71-6.13.576-3.835 3.169-6.154 6.176-6.154 3.462 0 4.611 2.663 4.108 6.008-.036.244-.106.537-.128.71zm9.436-3.739c-.663-.342-1.187-.512-2.167-.512-1.503 0-2.788 1.245-3.178 3.834-.345 2.296.45 3.37 1.712 3.37 1.051 0 1.958-.633 2.867-1.61l.766-5.082zm-.959 9.062l.008-1.636c-.96 1.001-2.215 1.88-3.812 1.88-2.413 0-4.068-1.833-3.469-5.814.66-4.396 3.316-6.348 5.987-6.348 1.099 0 1.952.195 2.608.438l.855-5.69L73.961 0l-2.649 17.634h-2.46zm12.83-7.16c-.721 0-1.446.5-2.09 1.165l-.608 4.052c.427.167.721.24 1.336.24 1.374 0 2.333-.85 2.64-2.885.26-1.722-.301-2.572-1.278-2.572zm-1.599 7.271c-1.354 0-2.46-.223-3.488-.594l1.881-12.523 2.222-.35-.812 5.419c.647-.592 1.551-1.184 2.652-1.184 1.845 0 3.077 1.406 2.628 4.403-.494 3.292-2.48 4.829-5.083 4.829zm10.193.37C89.168 20.315 88.071 21 86.388 21c-.378 0-.59-.037-.78-.094l-.014-1.83c.277.074.577.13.992.13.634 0 1.184-.296 1.553-.945l.286-.591-1.837-8.805 2.305-.296 1.065 6.363 2.89-6.234H95l-4.725 9.417z" fill="#00579F"/></g></svg>