<svg width="256" height="256" viewBox="0 0 256 256" fill="none" xmlns="http://www.w3.org/2000/svg">
<path d="M0 0H256V256H0V0Z" fill="white"/>
<g clip-path="url(#clip0)">
<path d="M204.647 177.288C201.774 183.891 198.374 189.97 194.434 195.558C189.064 203.176 184.667 208.449 181.279 211.377C176.026 216.184 170.398 218.645 164.371 218.785C160.045 218.785 154.827 217.56 148.753 215.076C142.66 212.602 137.06 211.377 131.94 211.377C126.57 211.377 120.81 212.602 114.65 215.076C108.48 217.56 103.51 218.855 99.7098 218.984C93.9305 219.229 88.17 216.697 82.4201 211.377C78.7501 208.192 74.1598 202.733 68.6607 194.998C62.7607 186.738 57.91 177.16 54.1099 166.24C50.0402 154.446 48 143.024 48 131.967C48 119.301 50.7507 108.377 56.2603 99.2221C60.5904 91.8688 66.3509 86.0683 73.5606 81.8101C80.7704 77.5519 88.5605 75.382 96.9498 75.2431C101.54 75.2431 107.56 76.6559 115.04 79.4325C122.5 82.2184 127.289 83.6312 129.389 83.6312C130.959 83.6312 136.28 81.9793 145.3 78.6859C153.83 75.6316 161.03 74.367 166.927 74.8651C182.908 76.1484 194.915 82.4167 202.9 93.7097C188.607 102.326 181.537 114.395 181.677 129.878C181.806 141.937 186.203 151.972 194.845 159.941C198.761 163.639 203.134 166.497 208 168.527C206.945 171.572 205.831 174.488 204.647 177.288ZM167.994 33.7811C167.994 43.2332 164.524 52.0587 157.606 60.2274C149.258 69.9385 139.16 75.55 128.21 74.6645C128.07 73.5305 127.989 72.3371 127.989 71.0829C127.989 62.0089 131.96 52.2978 139.01 44.3577C142.53 40.3375 147.006 36.9948 152.435 34.3282C157.852 31.7014 162.976 30.2488 167.795 30C167.936 31.2636 167.994 32.5273 167.994 33.781V33.7811Z" fill="black"/>
</g>
<defs>
<clipPath id="clip0">
<rect width="160" height="189" fill="white" transform="translate(48 30)"/>
</clipPath>
</defs>
</svg>
