<svg width="256" height="256" viewBox="0 0 256 256" fill="none" xmlns="http://www.w3.org/2000/svg">
<path d="M0 0H256V256H0V0Z" fill="white"/>
<path d="M0 0H256V256H0V0Z" fill="url(#paint0_linear)"/>
<path fill-rule="evenodd" clip-rule="evenodd" d="M104.249 46.8672H72.0195V161.267C72.0065 161.776 72 162.286 72 162.799C72 163.311 72.0065 163.821 72.0195 164.33V165.267H72.0508C73.3515 196.817 99.4702 221.998 131.5 221.998C164.361 221.998 191 195.494 191 162.799C191 130.103 164.361 103.599 131.5 103.599C121.679 103.599 112.413 105.966 104.249 110.159V46.8672ZM104.249 163.835V161.762C104.796 147.257 116.788 135.665 131.5 135.665C146.561 135.665 158.771 147.813 158.771 162.799C158.771 177.784 146.561 189.932 131.5 189.932C116.788 189.932 104.796 178.34 104.249 163.835Z" fill="black"/>
<ellipse cx="161.5" cy="64" rx="22.5" ry="22" fill="black"/>
<path fill-rule="evenodd" clip-rule="evenodd" d="M100.249 42.8672H68.0195V157.267C68.0065 157.776 68 158.286 68 158.799C68 159.311 68.0065 159.821 68.0195 160.33V161.267H68.0508C69.3515 192.817 95.4702 217.998 127.5 217.998C160.361 217.998 187 191.494 187 158.799C187 126.103 160.361 99.5986 127.5 99.5986C117.679 99.5986 108.413 101.966 100.249 106.159V42.8672ZM100.249 159.835V157.762C100.796 143.257 112.788 131.665 127.5 131.665C142.561 131.665 154.771 143.813 154.771 158.799C154.771 173.784 142.561 185.932 127.5 185.932C112.788 185.932 100.796 174.34 100.249 159.835Z" fill="white"/>
<ellipse cx="157.5" cy="60" rx="22.5" ry="22" fill="#E73E4C"/>
<defs>
<linearGradient id="paint0_linear" x1="128" y1="0" x2="128" y2="256" gradientUnits="userSpaceOnUse">
<stop/>
<stop offset="1" stop-color="#535456"/>
</linearGradient>
</defs>
</svg>
