<svg width="256" height="256" viewBox="0 0 256 256" fill="none" xmlns="http://www.w3.org/2000/svg">
<path d="M0 0H256V256H0V0Z" fill="white"/>
<path d="M212 129.597C212.008 123.694 211.511 117.802 210.516 111.984H129.215V145.344H175.78C174.827 150.672 172.811 155.751 169.851 160.275C166.892 164.799 163.052 168.674 158.562 171.666V193.32H186.353C202.625 178.246 212 155.955 212 129.597Z" fill="#4285F4"/>
<path d="M129.202 214.231C152.467 214.231 172.056 206.556 186.34 193.323L158.549 171.668C150.814 176.937 140.852 179.945 129.202 179.945C106.716 179.945 87.6296 164.715 80.8047 144.191H52.1758V166.507C59.3512 180.853 70.3538 192.913 83.9554 201.34C97.557 209.767 113.222 214.23 129.202 214.231Z" fill="#34A853"/>
<path d="M80.8087 144.213C77.2006 133.459 77.2006 121.813 80.8087 111.058V88.7422H52.1798C46.1436 100.81 43 114.129 43 127.636C43 141.142 46.1436 154.461 52.1798 166.529L80.8087 144.213Z" fill="#FBBC04"/>
<path d="M129.202 75.2916C141.496 75.0898 153.376 79.7569 162.273 88.2842L186.879 63.5622C171.276 48.8382 150.606 40.7545 129.202 41.0057C113.222 41.0064 97.557 45.4695 83.9554 53.8967C70.3538 62.324 59.3512 74.3836 52.1758 88.7293L80.8047 111.045C87.6296 90.5218 106.716 75.2916 129.202 75.2916Z" fill="#EA4335"/>
</svg>
