<svg width="256" height="256" viewBox="0 0 256 256" fill="none" xmlns="http://www.w3.org/2000/svg">
<path d="M0 0H256V256H0V0Z" fill="white"/>
<mask id="mask0" mask-type="alpha" maskUnits="userSpaceOnUse" x="41" y="23" width="126" height="111">
<path d="M41.877 74.9941C41.877 90.667 50.2939 104.785 63.4375 114.384C64.5363 115.171 65.1997 116.436 65.1997 117.784C65.1789 118.24 65.1168 118.675 64.9716 119.11C63.9351 123.029 62.2351 129.31 62.1729 129.6C61.9863 130.077 61.8619 130.596 61.8205 131.114C61.8205 132.254 62.7534 133.187 63.8936 133.187C64.329 133.166 64.7436 133.042 65.096 132.814L78.758 124.915C79.7531 124.314 80.914 123.982 82.075 123.961C82.6969 123.961 83.3188 124.065 83.9201 124.231C90.5541 126.138 97.3954 127.092 104.299 127.092C138.775 127.092 166.721 103.811 166.721 75.0771C166.721 46.3435 138.796 23 104.32 23C69.8435 23 41.877 46.2813 41.877 74.9941Z" fill="#9D9D9D"/>
</mask>
<g mask="url(#mask0)">
<path d="M166.742 23H41.877V133.104H166.742V23Z" fill="url(#paint0_linear)"/>
<path d="M91.7804 58.2456C91.7804 62.8273 88.0695 66.5382 83.4878 66.5382C78.9062 66.5382 75.1953 62.8273 75.1953 58.2456C75.1953 53.664 78.9062 49.9531 83.4878 49.9531C88.0695 49.9531 91.7804 53.664 91.7804 58.2456Z" fill="#227B3D"/>
<path d="M133.534 58.2456C133.534 62.8273 129.823 66.5382 125.242 66.5382C120.66 66.5382 116.949 62.8273 116.949 58.2456C116.949 53.664 120.66 49.9531 125.242 49.9531C129.823 49.9531 133.534 53.664 133.534 58.2456Z" fill="#227B3D"/>
</g>
<mask id="mask1" mask-type="alpha" maskUnits="userSpaceOnUse" x="110" y="70" width="105" height="93">
<path d="M110.289 113.616C110.289 137.519 133.57 156.903 162.283 156.903C168.026 156.924 173.748 156.115 179.262 154.54C179.76 154.395 180.278 154.312 180.796 154.312C181.771 154.333 182.724 154.602 183.554 155.1L194.935 161.671C195.225 161.879 195.578 161.982 195.93 162.003C196.884 161.982 197.651 161.215 197.672 160.262C197.609 159.826 197.506 159.412 197.361 158.997L195.018 150.269C194.914 149.917 194.852 149.544 194.831 149.17C194.831 148.051 195.391 146.973 196.303 146.33C207.249 138.411 214.257 126.656 214.257 113.616C214.257 89.6924 190.975 70.3086 162.262 70.3086C133.55 70.3086 110.289 89.6924 110.289 113.616Z" fill="#9D9D9D"/>
</mask>
<g mask="url(#mask1)">
<path d="M214.26 70.3086H110.271V162.003H214.26V70.3086Z" fill="url(#paint1_linear)"/>
<path d="M173.207 100.388C173.166 104.244 176.255 107.374 180.111 107.416C183.967 107.457 187.097 104.368 187.139 100.512C187.18 96.6563 184.091 93.5258 180.235 93.4844C180.215 93.4844 180.173 93.4844 180.152 93.4844C176.317 93.4844 173.207 96.5941 173.207 100.429V100.45" fill="#8C8C8C"/>
<path d="M138.405 100.388C138.363 104.244 141.452 107.374 145.308 107.416C149.164 107.457 152.295 104.368 152.336 100.512C152.378 96.6563 149.289 93.5258 145.433 93.4844C145.412 93.4844 145.391 93.4844 145.37 93.4844C141.514 93.4844 138.405 96.5941 138.405 100.45" fill="#8C8C8C"/>
</g>
<path d="M86.58 179.692H83.28C83.28 179.692 75.99 204.692 75.72 205.592C74.65 209.412 73.72 212.732 72.99 216.082C72.31 212.082 71.08 207.412 69.77 202.532L63.77 179.822V179.692H60.77L54.11 202.692C52.67 207.092 51.45 211.562 50.47 216.092C49.78 212.862 48.77 208.872 47.7 204.652L41.3 179.802V179.672H38L48.78 220.492V220.622H51.78L58.78 197.122C60.12 192.812 61.24 188.432 62.12 184.002C62.88 188.422 63.88 192.802 65.12 197.112L71.24 220.622H74.24L86.52 179.912L86.58 179.692Z" fill="#4E4E4E"/>
<path d="M99.3695 190.72C91.4895 190.72 86.1895 197.08 86.1895 206.55C86.1895 215.34 91.6795 221.24 99.8495 221.24C105.069 221.24 108.009 219.92 109.029 219.35L109.179 219.27L107.849 217L107.709 217.06C105.349 218.1 102.779 218.58 100.209 218.47C96.9595 218.47 89.4295 217.24 89.3595 205.91H110.649V205.77C110.769 205.18 110.809 204.59 110.779 203.99C110.769 201.13 110.049 198.32 108.669 195.81C106.769 192.5 103.179 190.53 99.3695 190.72ZM89.5195 203.25C90.1295 198.69 92.9694 193.47 99.0294 193.47C101.179 193.37 103.279 194.16 104.829 195.66C107.199 198.07 107.479 201.66 107.479 203.25H89.5195Z" fill="#4E4E4E"/>
<path d="M210.62 185H207.39V191.39H202.52V194.08H207.4V212.16C207.4 215.48 208 217.78 209.24 219.16C210.5 220.62 212.38 221.4 214.31 221.27C215.76 221.26 217.2 220.96 218.53 220.38L217.3 218.22C216.43 218.41 215.53 218.52 214.64 218.53C211.91 218.53 210.64 216.53 210.64 212.67V194.07H218.16V191.38H210.62V185Z" fill="#4E4E4E"/>
<path d="M143.929 216.83C141.219 217.92 138.319 218.46 135.399 218.43C124.749 218.43 118.399 211.72 118.399 200.43C118.399 188.76 124.939 181.8 135.889 181.8C138.639 181.75 141.359 182.28 143.889 183.35L144.029 183.41L145.489 180.9L145.339 180.81C144.519 180.42 141.519 179 135.819 179C123.389 179 115.039 187.59 115.039 200.38C115.039 215.76 125.489 221.21 134.429 221.21C140.649 221.21 144.319 219.7 145.299 219.21L145.459 219.13L144.069 216.72L143.929 216.83Z" fill="#4E4E4E"/>
<path d="M198.269 216.741C198.219 215.741 198.199 214.741 198.199 213.571V202.241C198.199 194.681 194.689 190.691 188.029 190.691C184.949 190.731 181.939 191.621 179.329 193.261L180.329 195.701C182.499 194.221 185.059 193.431 187.689 193.431C189.579 193.301 191.429 193.941 192.839 195.201C194.249 196.601 194.929 198.751 194.929 201.761V202.381H194.579C187.679 202.381 182.739 203.811 179.899 206.621C178.159 208.341 177.209 210.711 177.279 213.161C177.279 217.071 179.989 221.281 185.939 221.281C189.499 221.321 192.859 219.681 195.029 216.861C195.119 218.141 195.359 219.401 195.749 220.621H199.249C198.709 219.391 198.379 218.081 198.269 216.741ZM182.519 208.131C184.589 206.131 188.389 205.131 193.839 205.131H195.009V211.131C195.019 211.711 194.919 212.281 194.719 212.821C193.489 216.361 190.069 218.661 186.329 218.491C182.179 218.491 180.709 215.341 180.709 212.641C180.659 210.951 181.319 209.321 182.519 208.131Z" fill="#4E4E4E"/>
<path d="M162.85 190.72C160.75 190.71 158.69 191.3 156.92 192.43C155.35 193.37 154.04 194.7 153.14 196.29V179H149.91V220.64H153.14V202.82C153.1 201.87 153.23 200.91 153.52 200C154.78 196.3 158.19 193.76 162.1 193.61C165.01 193.61 169.88 194.88 169.88 203.38V220.64H173.11V203.06C173.08 191.31 164.52 190.72 162.85 190.72Z" fill="#4E4E4E"/>
<defs>
<linearGradient id="paint0_linear" x1="104.304" y1="149.775" x2="104.304" y2="52.9973" gradientUnits="userSpaceOnUse">
<stop stop-color="#7BC142"/>
<stop offset="0.03" stop-color="#7BC142"/>
<stop offset="0.96" stop-color="#A7D168"/>
<stop offset="1" stop-color="#A7D168"/>
</linearGradient>
<linearGradient id="paint1_linear" x1="162.268" y1="162.354" x2="162.268" y2="70.8896" gradientUnits="userSpaceOnUse">
<stop stop-color="#E4E7E8"/>
<stop offset="1" stop-color="#F1F0F0"/>
</linearGradient>
</defs>
</svg>
