<svg width="256" height="256" viewBox="0 0 256 256" fill="none" xmlns="http://www.w3.org/2000/svg">
<path d="M0 0H256V256H0V0Z" fill="white"/>
<path d="M0 0H256V256H0V0Z" fill="url(#paint0_linear)"/>
<path fill-rule="evenodd" clip-rule="evenodd" d="M51.5155 153.881C35.9608 142.521 26 125.814 26 107.266C26 73.2862 59.0965 45.7344 99.8967 45.7344C136.556 45.7344 166.956 68.0362 172.749 97.2287C171.316 97.1501 169.873 97.1102 168.422 97.1102C132.43 97.1102 101.555 121.624 101.555 153.777C101.555 159.022 102.377 164.064 103.908 168.83C102.572 168.89 101.226 168.92 99.8722 168.92C91.7024 168.92 83.6061 167.792 75.7552 165.534C75.0437 165.338 74.3077 165.215 73.5716 165.215C72.1977 165.24 70.8238 165.633 69.6462 166.344L53.4782 175.692C53.0611 175.961 52.5704 176.109 52.0552 176.133C50.7058 176.133 49.6018 175.029 49.6018 173.68C49.6509 173.066 49.7981 172.453 50.0189 171.889C50.0564 171.714 50.5985 169.693 51.2833 167.14L51.2835 167.139C51.9411 164.688 52.7302 161.746 53.331 159.474C53.5027 158.959 53.5763 158.444 53.6009 157.904C53.6009 156.31 52.8158 154.813 51.5155 153.881ZM85.0593 87.4486C85.0593 92.8706 80.6677 97.2622 75.2457 97.2622C69.8237 97.2622 65.4321 92.8706 65.4321 87.4486C65.4321 82.0265 69.8237 77.6349 75.2457 77.6349C80.6677 77.6349 85.0593 82.0265 85.0593 87.4486ZM124.655 97.2622C130.077 97.2622 134.469 92.8706 134.469 87.4486C134.469 82.0265 130.077 77.6349 124.655 77.6349C119.233 77.6349 114.842 82.0265 114.842 87.4486C114.842 92.8706 119.233 97.2622 124.655 97.2622Z" fill="white"/>
<path fill-rule="evenodd" clip-rule="evenodd" d="M106.963 153.728C106.963 182.016 134.515 204.956 168.494 204.956C175.29 204.98 182.062 204.023 188.588 202.159C189.177 201.987 189.79 201.889 190.403 201.889C191.557 201.913 192.685 202.232 193.666 202.821L207.136 210.598C207.479 210.844 207.896 210.966 208.313 210.991C209.442 210.966 210.35 210.059 210.374 208.93C210.301 208.415 210.178 207.924 210.006 207.433L207.234 197.105C207.111 196.688 207.038 196.246 207.013 195.804C207.013 194.479 207.675 193.204 208.755 192.443C221.709 183.071 230.001 169.16 230.001 153.728C230.001 125.416 202.45 102.477 168.47 102.477C134.49 102.477 106.963 125.416 106.963 153.728ZM140.236 138.071C140.187 142.635 143.842 146.339 148.406 146.388C152.969 146.438 156.674 142.782 156.723 138.219C156.772 133.655 153.116 129.951 148.553 129.902H148.479C143.916 129.902 140.236 133.582 140.236 138.145V138.071ZM189.592 146.388C185.029 146.339 181.373 142.635 181.422 138.071V138.12C181.422 133.582 185.102 129.902 189.641 129.902H189.739C194.302 129.951 197.958 133.655 197.909 138.219C197.86 142.782 194.155 146.438 189.592 146.388Z" fill="white"/>
<defs>
<linearGradient id="paint0_linear" x1="128" y1="0" x2="128" y2="256" gradientUnits="userSpaceOnUse">
<stop stop-color="#67DE7C"/>
<stop offset="1" stop-color="#58BF6C"/>
</linearGradient>
</defs>
</svg>
