<svg width="256" height="256" viewBox="0 0 256 256" fill="none" xmlns="http://www.w3.org/2000/svg">
<path d="M0 0H256V256H0V0Z" fill="white"/>
<path d="M53.3056 148.704H49.1619L40.5876 122.152H40.4282L31.8699 148.704H27.8058L13 109.258H20.9687L29.7661 134.888H29.9096L38.0854 109.258H42.8666L51.0903 134.888H51.2338L60.0312 109.258H67.9999L53.3056 148.704Z" fill="#508ECB"/>
<path d="M75.9049 132.19C76.5103 135.194 78.1318 137.901 80.4987 139.858C82.8656 141.814 85.8346 142.902 88.9098 142.941C91.2206 142.97 93.4953 142.369 95.4873 141.201C97.4792 140.034 99.1123 138.345 100.209 136.319H107.636C106.244 140.231 103.671 143.619 100.269 146.016C96.8678 148.412 92.8051 149.701 88.6389 149.706C77.4827 149.706 68.4781 140.082 68.4781 128.903C68.4452 126.254 68.9363 123.625 69.9233 121.165C70.9103 118.706 72.3739 116.464 74.2305 114.568C76.0871 112.672 78.3004 111.159 80.7439 110.116C83.1874 109.072 85.8132 108.518 88.4715 108.486C91.1298 108.454 93.7685 108.943 96.2368 109.927C98.7051 110.911 100.955 112.37 102.857 114.22C104.76 116.07 106.278 118.276 107.325 120.71C108.372 123.145 108.927 125.762 108.959 128.411C108.959 129.697 108.816 131.682 108.752 132.19H75.9049ZM101.5 126.489C101.183 123.327 99.698 120.395 97.333 118.262C94.9681 116.129 91.8923 114.948 88.7026 114.948C85.513 114.948 82.4371 116.129 80.0722 118.262C77.7073 120.395 76.2221 123.327 75.9049 126.489H101.5Z" fill="#508ECB"/>
<path d="M114.57 109.26H121.36V115.31H121.503C123.081 113.059 125.193 111.232 127.651 109.991C130.109 108.749 132.837 108.133 135.592 108.196C149.027 108.196 156.087 118.946 156.087 129.475C156.134 132.122 155.65 134.751 154.663 137.209C153.676 139.667 152.206 141.904 150.34 143.788C148.474 145.673 146.25 147.167 143.796 148.183C141.343 149.199 138.711 149.717 136.054 149.706C127.766 149.706 123.623 145.498 122.125 143.005H121.981V161.886H114.57V109.26ZM135.082 114.992C127.288 114.992 121.87 121.678 121.87 128.935C121.799 130.726 122.09 132.512 122.727 134.188C123.364 135.864 124.332 137.396 125.575 138.691C126.818 139.986 128.31 141.019 129.962 141.728C131.614 142.436 133.392 142.807 135.191 142.816C136.989 142.826 138.771 142.475 140.431 141.783C142.09 141.092 143.593 140.076 144.85 138.794C146.107 137.512 147.092 135.991 147.747 134.322C148.401 132.653 148.712 130.869 148.66 129.078C148.66 122.011 143.162 114.992 135.082 114.992Z" fill="#32AF4A"/>
<path d="M194.32 148.703V142.573H194.177C192.763 144.847 190.768 146.706 188.396 147.959C186.024 149.212 183.36 149.814 180.678 149.703C177.918 149.797 175.169 149.329 172.597 148.328C170.025 147.327 167.684 145.815 165.719 143.883C163.753 141.951 162.203 139.64 161.163 137.092C160.124 134.543 159.616 131.81 159.672 129.059C159.672 119.452 166.461 108.13 180.678 108.13C183.294 108.025 185.895 108.577 188.243 109.734C190.59 110.891 192.608 112.616 194.113 114.752H194.256V109.257H201.699V148.703H194.32ZM180.678 114.99C171.53 114.99 167.099 122.93 167.099 129.075C167.036 130.901 167.343 132.72 168.001 134.424C168.659 136.129 169.654 137.684 170.928 138.997C172.202 140.311 173.728 141.355 175.415 142.068C177.102 142.782 178.916 143.149 180.749 143.149C182.582 143.149 184.396 142.782 186.084 142.068C187.771 141.355 189.297 140.311 190.571 138.997C191.844 137.684 192.84 136.129 193.498 134.424C194.156 132.72 194.462 130.901 194.4 129.075C194.485 127.238 194.191 125.403 193.537 123.683C192.883 121.963 191.882 120.395 190.597 119.075C189.311 117.755 187.768 116.712 186.062 116.009C184.356 115.307 182.523 114.96 180.678 114.99Z" fill="#32AF4A"/>
<path d="M223.197 161.884H215.483L221.269 147.925L205.475 109.258H213.443L225.094 139.874L237.031 109.258H244.999L223.197 161.884Z" fill="#32AF4A"/>
</svg>
