<svg xmlns="http://www.w3.org/2000/svg" viewBox="0 0 256 256"><path fill="#016fd0" d="M0 0h256v256H0z"/><path fill="#fff" fill-rule="evenodd" d="M115.06 138.22v81.35h85.88l9.4-12.3 9.26 12.3h51.87v-18.83h11.66c10.12 0 14.8-3.06 14.8-3.06v21.89h34.25v-12.82l10.46 12.82h173.7a27 27 0 0 0 3.6-.28 29 29 0 0 0 18.28-8.73c5.48-5.83 7.71-13.39 7.71-20.72 0-6.89-2-14.15-7.59-19.71q-.76-.78-1.59-1.47l14.41-30.41H220.34l-9.58 12.05-9.28-12.05z"/><path fill="#fff" d="M113.85 38.42h33.58l11 25.89V38.42h41.77l6.56 18.71 6.36-18.71h187.4v9.41a40 40 0 0 1 26-9.41l60.8.22 10.83 25.55V38.42h34.94l9.61 14.68V38.42H578v83h-35.26l-9.21-14.73v14.73H482.2l-5.2-13.06h-13.8l-5.08 13.09h-34.77a34.07 34.07 0 0 1-22.83-9.22v9.22H348l-10.41-13.09v13.09H142.46l-5.16-13.09h-13.76l-5.12 13.09H79z"/><path fill="#016fd0" d="M120.34 48.16 94.12 110h17.07L116 97.61h28.12L149 110h17.4l-26.19-61.84zM130 62.55l8.57 21.63h-17.13zM168.21 110V48.16l24.26.09 14.1 39.86 13.77-39.95h24.06V110h-15.24V64.43L213 110h-13.35l-16.2-45.56V110zm-42.43 99.78V148h49.72v13.83h-34.32v10.57h33.52v13h-33.52v11h34.32v13.42zm51.66 0 24.21-30.53L176.86 148h19.2l14.76 19.34L225.63 148h18.44l-24.46 30.91 24.26 30.91h-19.2l-14.33-19-14 19z"/></svg>