<svg xmlns="http://www.w3.org/2000/svg" width="64" height="64" viewBox="0 0 48 48"><path fill="#C8CED5" d="M21.541 13.011h14.673l-3.079-5.332a3.207 3.207 0 0 0-4.373-1.155l-11.271 6.487z"/><path fill="#5A6470" d="M36.843 15.321H11.807a3.665 3.665 0 0 0-3.657 3.657v15.794a3.664 3.664 0 0 0 3.657 3.657h25.036a3.665 3.665 0 0 0 3.657-3.657V18.978a3.664 3.664 0 0 0-3.657-3.657M14.741 33.466a1.14 1.14 0 0 1-1.631.003 1.16 1.16 0 0 1-.339-.817 1 1 0 0 1 0-.226 1 1 0 0 1 .174-.415q.06-.094.138-.174a1.19 1.19 0 0 1 1.899.371c.062.14.096.291.1.444a1.15 1.15 0 0 1-.341.814m8.429.341h-4.622c-.306 0-.6-.122-.817-.338a1.16 1.16 0 0 1 0-1.634c.217-.217.511-.339.817-.339h4.622a1.156 1.156 0 0 1 0 2.311m12.709-10.935a1.7 1.7 0 0 1-1.693 1.692h-3.547a1.696 1.696 0 0 1-1.693-1.692v-1.237a1.7 1.7 0 0 1 1.693-1.692h3.547a1.696 1.696 0 0 1 1.693 1.692z"/></svg>