<svg xmlns="http://www.w3.org/2000/svg" viewBox="0 0 256 256"><path fill="#0079be" d="M145.33 204c42.7.21 81.67-34.78 81.67-77.34C227 80.15 188 48 145.33 48h-36.74c-43.21 0-78.77 32.16-78.77 78.69 0 42.57 35.56 77.55 78.77 77.34z"/><path fill="#fff" d="M108.76 54.46a71.43 71.43 0 1 0 71.5 71.43 71.47 71.47 0 0 0-71.5-71.43m-45.31 71.43a45.35 45.35 0 0 1 29.09-42.25v84.49a45.33 45.33 0 0 1-29.09-42.24M125 168.15V83.64a45.23 45.23 0 0 1 0 84.51"/><path fill="#0079be" d="M145.33 204c42.7.21 81.67-34.78 81.67-77.34C227 80.15 188 48 145.33 48h-36.74c-43.21 0-78.77 32.16-78.77 78.69 0 42.57 35.56 77.55 78.77 77.34z"/><path fill="#fff" d="M108.76 54.46a71.43 71.43 0 1 0 71.5 71.43 71.47 71.47 0 0 0-71.5-71.43m-45.31 71.43a45.35 45.35 0 0 1 29.09-42.25v84.49a45.33 45.33 0 0 1-29.09-42.24M125 168.15V83.64a45.23 45.23 0 0 1 0 84.51"/></svg>