<svg xmlns="http://www.w3.org/2000/svg" viewBox="0 0 256 256"><path fill="#fff" d="M235 177.22a33.26 33.26 0 0 1-33.21 33.21H21.11V78.9a33.25 33.25 0 0 1 33.2-33.2H235z"/><path fill="#4aa35b" d="M176.17 143.49h13.73c.39 0 1.31-.13 1.7-.13a6.11 6.11 0 0 0 4.83-6.14 6.35 6.35 0 0 0-4.83-6.15 7 7 0 0 0-1.7-.13h-13.73zm12.15-86.68a23.79 23.79 0 0 0-23.79 23.79v24.71h33.6a13.5 13.5 0 0 1 2.35.13c7.59.4 13.21 4.32 13.21 11.12 0 5.36-3.79 9.93-10.85 10.85v.26c7.71.52 13.59 4.84 13.59 11.51 0 7.19-6.53 11.89-15.16 11.89H164.4v48.38h34.91a23.8 23.8 0 0 0 23.79-23.8V56.81zm6.42 61.31a5.57 5.57 0 0 0-4.84-5.62c-.26 0-.92-.13-1.31-.13h-12.42v11.51h12.42a3.7 3.7 0 0 0 1.31-.13 5.58 5.58 0 0 0 4.84-5.63"/><path fill="#214f9c" d="M56.79 56.81A23.79 23.79 0 0 0 33 80.6v58.71c6.67 3.26 13.6 5.36 20.52 5.36 8.24 0 12.69-5 12.69-11.77v-27.72H86.6v27.59c0 10.72-6.67 19.48-29.28 19.48a100.3 100.3 0 0 1-24.45-3v50.08h34.91a23.8 23.8 0 0 0 23.79-23.8V56.81z"/><path fill="#da3833" d="M122.56 56.81A23.79 23.79 0 0 0 98.77 80.6v31.12c6-5.1 16.47-8.37 33.33-7.58a106 106 0 0 1 18.7 2.86v10.07a45.3 45.3 0 0 0-18-5.23c-12.81-.91-20.53 5.36-20.53 16.34s7.72 17.39 20.53 16.35a47.7 47.7 0 0 0 18-5.23v10.06a103 103 0 0 1-18.7 2.88c-16.86.79-27.32-2.48-33.33-7.58v54.91h34.9a23.8 23.8 0 0 0 23.8-23.8v-119z"/></svg>