<svg xmlns="http://www.w3.org/2000/svg" viewBox="0 0 256 256"><path d="M235 177.22a33.26 33.26 0 01-33.21 33.21H21.11V78.9a33.25 33.25 0 0133.2-33.2H235v131.52z" fill="#fff"/><path d="M176.17 143.49h13.73c.39 0 1.31-.13 1.7-.13a6.11 6.11 0 004.83-6.14 6.35 6.35 0 00-4.83-6.15 7 7 0 00-1.7-.13h-13.73z" fill="#4aa35b"/><path d="M188.32 56.81a23.79 23.79 0 00-23.79 23.79v24.71h33.6a13.48 13.48 0 012.35.13c7.59.4 13.21 4.32 13.21 11.12 0 5.36-3.79 9.93-10.85 10.85v.26c7.71.52 13.59 4.84 13.59 11.51 0 7.19-6.53 11.89-15.16 11.89H164.4v48.38h34.91a23.8 23.8 0 0023.79-23.8V56.81z" fill="#4aa35b"/><path d="M194.74 118.12a5.57 5.57 0 00-4.84-5.62c-.26 0-.92-.13-1.31-.13h-12.42v11.51h12.42a3.68 3.68 0 001.31-.13 5.58 5.58 0 004.84-5.63z" fill="#4aa35b"/><path d="M56.79 56.81A23.79 23.79 0 0033 80.6v58.71c6.67 3.26 13.6 5.36 20.52 5.36 8.24 0 12.69-5 12.69-11.77v-27.72H86.6v27.59c0 10.72-6.67 19.48-29.28 19.48a100.27 100.27 0 01-24.45-3v50.08h34.91a23.8 23.8 0 0023.79-23.8V56.81z" fill="#214f9c"/><path d="M122.56 56.81A23.79 23.79 0 0098.77 80.6v31.12c6-5.1 16.47-8.37 33.33-7.58a106.07 106.07 0 0118.7 2.86v10.07a45.29 45.29 0 00-18-5.23c-12.81-.91-20.53 5.36-20.53 16.34s7.72 17.39 20.53 16.35a47.69 47.69 0 0018-5.23v10.06a103.09 103.09 0 01-18.7 2.88c-16.86.79-27.32-2.48-33.33-7.58v54.91h34.9a23.8 23.8 0 0023.8-23.8v-119z" fill="#da3833"/></svg>