<svg xmlns="http://www.w3.org/2000/svg" viewBox="0 0 256 256"><path fill="#0f754e" fill-rule="evenodd" d="M38.54 98c2 0 7.88-.54 10.37 7.88q2.52 8.52 8 27.89h1.5q5.91-20.43 8.12-27.89C69.09 97.38 75.4 98 77.92 98h19.46v60.54H77.55v-35.67h-1.33l-11.06 35.68H50.24l-11.06-35.7h-1.33v35.7H18V98zm87.33 0v35.7h1.58l13.45-29.35a10.62 10.62 0 0 1 8.17-6.35h19.2v60.54H148v-35.7h-1.58l-13.17 29.36a11 11 0 0 1-8.44 6.35h-19.19V98zm112.39 28.77c-2.83 8-11.7 13.73-21.52 13.73h-21.23v18h-19.26v-31.72z"/><path fill="#05a8fc" fill-rule="evenodd" d="M217.67 98h-42.43c1 13.48 12.62 25 24.63 25h39.73c2.29-11.17-5.6-25-21.93-25"/></svg>