<svg xmlns="http://www.w3.org/2000/svg" viewBox="0 0 256 256"><path fill="#00458d" d="M183 101.11a61.23 61.23 0 1 1-59.43-34.18l14.34-22.34a84 84 0 1 0 58.81 35.12z"/><path fill="#ffcb02" d="M128 91a37.28 37.28 0 0 0-26.16 10.69A36.26 36.26 0 0 0 91 127.5h21.38a15.2 15.2 0 0 1 2.63-8.56 15.6 15.6 0 0 1 7-5.68 15.82 15.82 0 0 1 17 3.34 15.37 15.37 0 0 1 4.27 7.89 15.2 15.2 0 0 1-.89 8.91 15.43 15.43 0 0 1-5.75 6.91 15.73 15.73 0 0 1-8.68 2.6V164a37.28 37.28 0 0 0 26.16-10.69 36.15 36.15 0 0 0 0-51.62A37.28 37.28 0 0 0 128 91"/></svg>