<svg xmlns="http://www.w3.org/2000/svg" viewBox="0 0 256 256"><path d="M183 101.11a61.23 61.23 0 11-59.43-34.18l14.34-22.34a84 84 0 1058.81 35.12z" fill="#00458d"/><path d="M128 91a37.28 37.28 0 00-26.16 10.69A36.26 36.26 0 0091 127.5h21.38a15.21 15.21 0 012.63-8.56 15.61 15.61 0 017-5.68 15.82 15.82 0 0117 3.34 15.37 15.37 0 014.27 7.89 15.2 15.2 0 01-.89 8.91 15.43 15.43 0 01-5.75 6.91 15.73 15.73 0 01-8.68 2.6V164a37.28 37.28 0 0026.16-10.69 36.15 36.15 0 000-51.62A37.28 37.28 0 00128 91z" fill="#ffcb02"/></svg>