<svg xmlns="http://www.w3.org/2000/svg" viewBox="0 0 256 256"><path fill="#e21836" d="M62.59 60.55h53.82c7.52 0 12.19 6.13 10.44 13.66L101.79 181.8c-1.77 7.52-9.3 13.65-16.81 13.65H31.16c-7.51 0-12.19-6.13-10.44-13.65L45.79 74.21c1.75-7.53 9.27-13.66 16.8-13.66"/><path fill="#00447c" d="M111.93 60.55h61.9c7.51 0 4.12 6.13 2.35 13.66L151.13 181.8c-1.76 7.52-1.21 13.65-8.74 13.65h-61.9c-7.53 0-12.18-6.13-10.42-13.65L95.13 74.21c1.78-7.53 9.28-13.66 16.8-13.66"/><path fill="#007b84" d="M171.37 60.55h53.83c7.52 0 12.19 6.13 10.43 13.66L210.57 181.8c-1.77 7.52-9.3 13.65-16.82 13.65H140c-7.53 0-12.2-6.13-10.44-13.65l25.01-107.59c1.76-7.53 9.27-13.66 16.8-13.66"/><path fill="#fefefe" d="M73.64 109c-5.54 0-7.17 0-7.69-.13-.2 1-3.94 18.19-4 18.2-.8 3.49-1.39 6-3.38 7.58a6 6 0 0 1-4 1.38c-2.45 0-3.88-1.22-4.12-3.53l-.05-.79s.75-4.67.75-4.7 3.92-15.7 4.62-17.78a1.3 1.3 0 0 0 .06-.23c-7.63.06-9 0-9.08-.13 0 .17-.24 1.15-.24 1.15l-4 17.69-.35 1.5-.66 4.91a7.2 7.2 0 0 0 .85 3.65c1.83 3.19 7 3.67 10 3.67a19.34 19.34 0 0 0 9.75-2.28c4.18-2.46 5.27-6.32 6.24-9.74l.45-1.76s4-16.3 4.73-18.43a.5.5 0 0 1 .12-.23m13.74 13.15a10.7 10.7 0 0 0-4.35 1c-.58.3-1.13.64-1.71 1l.52-1.89-.28-.32c-3.39.69-4.15.78-7.28 1.22l-.26.18a94 94 0 0 1-2 11.2c-.51 2.18-1 4.39-1.58 6.56l.15.28c3.21-.17 4.18-.17 7-.12l.22-.25c.36-1.81.4-2.24 1.19-5.91.37-1.74 1.14-5.57 1.51-6.94a5.3 5.3 0 0 1 2-.64c1.57 0 1.38 1.37 1.32 1.91-.07.91-.64 3.89-1.22 6.45l-.39 1.65c-.27 1.22-.57 2.4-.84 3.61l.11.24c3.17-.17 4.13-.17 6.83-.12l.32-.25c.49-2.83.63-3.59 1.49-7.71l.44-1.9c.85-3.71 1.27-5.59.63-7.13-.71-1.66-2.33-2.08-3.82-2.08zm15.35 3.89c-1.68.32-2.76.54-3.82.67s-2.09.33-3.71.55l-.13.12-.12.09c-.17 1.21-.28 2.26-.51 3.49s-.48 2.71-1 4.79a19 19 0 0 1-.77 2.7 24 24 0 0 0-.84 2.66l.1.15.08.13c1.51-.07 2.51-.12 3.53-.13s2.07 0 3.71 0l.14-.12.16-.13c.23-1.41.27-1.78.41-2.47s.39-1.76 1-4.49c.28-1.28.6-2.55.9-3.86s.63-2.58.93-3.86v-.16zm0-5.24c-1.52-.9-4.2-.62-6 .63s-2 3-.48 3.86 4.19.62 6-.64 2.02-2.92.51-3.81zm9.27 20.91a11.5 11.5 0 0 0 8.64-3.37 15.5 15.5 0 0 0 3-6.36c.94-4.16.21-6.1-.72-7.29-1.41-1.8-3.9-2.38-6.48-2.38a11.88 11.88 0 0 0-8.15 2.82 13.4 13.4 0 0 0-3.61 7c-.58 2.55-1.26 7.13 3 8.84a12.3 12.3 0 0 0 4.32.74m-.24-9.36c.71-3.15 1.55-5.8 3.7-5.8 1.68 0 1.8 2 1.05 5.13a13.8 13.8 0 0 1-1.58 4.43 2.57 2.57 0 0 1-2 1.31c-.23 0-1.57 0-1.59-2a13.4 13.4 0 0 1 .42-3.07m19.57 9 .24-.25c.34-1.81.4-2.24 1.16-5.91.38-1.74 1.16-5.57 1.53-6.93a5 5 0 0 1 2.05-.65c1.55 0 1.36 1.37 1.3 1.91a59 59 0 0 1-1.22 6.45l-.37 1.65c-.28 1.22-.59 2.4-.86 3.61l.12.24c3.17-.17 4.1-.17 6.82-.12l.32-.25c.48-2.83.61-3.59 1.5-7.71l.43-1.9c.85-3.71 1.28-5.59.65-7.12a3.73 3.73 0 0 0-3.8-2.14 10.7 10.7 0 0 0-4.36 1c-.56.3-1.13.64-1.69 1l.48-1.89-.26-.32c-3.38.69-4.16.78-7.29 1.22l-.24.18a93 93 0 0 1-2 11.2c-.51 2.18-1 4.39-1.58 6.56l.14.28c3.19-.2 4.15-.2 6.93-.15zm23.31.12c.2-1 1.38-6.74 1.39-6.74s1-4.24 1.07-4.39a2.5 2.5 0 0 1 .64-.61h.46c4.41 0 9.39 0 13.29-2.87a14.2 14.2 0 0 0 5.28-8.41 12.8 12.8 0 0 0 .36-2.92 6.1 6.1 0 0 0-1.06-3.74c-2-2.78-5.95-2.84-10.52-2.86h-2.25c-5.85.08-8.2.06-9.17-.06l-.23 1.13s-2.1 9.72-2.1 9.73l-5.25 21.64c5.11-.04 7.21-.04 8.09.06zm3.88-17.26 2.22-9.66.07-.5v-.37l.89.09 4.71.4c1.81.7 2.56 2.51 2 4.87a7.09 7.09 0 0 1-3.68 4.85 11.5 11.5 0 0 1-5.16.81h-1.21zm13.88 8.36c-.59 2.51-1.27 7.1 2.93 8.73a8.2 8.2 0 0 0 3.76.68 6.25 6.25 0 0 0 3.58-1.64l-.3 1.14.19.25c3-.13 4-.13 7.23-.1l.3-.23c.47-2.81.92-5.53 2.16-10.9.61-2.58 1.21-5.13 1.83-7.69l-.09-.28c-3.38.63-4.28.76-7.53 1.22l-.25.2c0 .26-.07.51-.1.76a4.6 4.6 0 0 0-2.36-1.94c-1.45-.57-4.84.16-7.76 2.81a13.2 13.2 0 0 0-3.59 6.95zm7.09.15c.73-3.09 1.56-5.71 3.71-5.71 1.36 0 2.07 1.26 1.93 3.4-.12.53-.24 1.09-.39 1.73-.21.92-.45 1.83-.68 2.75a6.4 6.4 0 0 1-.79 1.6 3.7 3.7 0 0 1-2.63 1.27c-.21 0-1.54 0-1.59-2a13.6 13.6 0 0 1 .44-3.08zm37-10.22-.26-.29c-3.34.67-4 .78-7 1.2l-.22.22v.15-.06c-2.28 5.28-2.22 4.14-4.08 8.29v-.51l-.46-9-.3-.29c-3.5.67-3.58.78-6.81 1.2l-.25.22a2 2 0 0 0-.06.36 46 46 0 0 1 .71 4.87c.19 1.6.44 3.2.63 4.78.32 2.65.5 4 .89 8-2.18 3.61-2.7 5-4.8 8.13l-1.48 2.35a1.1 1.1 0 0 1-.54.49 2.16 2.16 0 0 1-1 .14h-.82l-1.21 4.05 4.18.07a5.15 5.15 0 0 0 4.82-2.7l2.63-4.5.28-.32c1.74-3.81 15.19-26.89 15.19-26.89z"/></svg>