<svg xmlns="http://www.w3.org/2000/svg" viewBox="0 0 256 256"><path d="M132 115c-.13 10.44 9.3 16.27 16.41 19.74 7.3 3.56 9.76 5.84 9.73 9-.06 4.87-5.83 7-11.22 7.1-9.42.14-14.9-2.55-19.25-4.58l-3.4 15.89c4.37 2 12.46 3.78 20.85 3.85 19.69 0 32.57-9.73 32.64-24.82.07-19.14-26.46-20.2-26.27-28.76.06-2.59 2.53-5.36 7.95-6.07a35.22 35.22 0 0118.48 3.25l3.3-15.38A50.39 50.39 0 00163.65 91c-18.53 0-31.56 9.86-31.65 24zm80.88-22.66a8.52 8.52 0 00-8 5.33l-28.13 67.22h19.67l3.93-10.89h24l2.27 10.83H244l-15.13-72.51zm2.75 19.6l5.68 27.24h-15.57zm-107.5-19.62l-15.51 72.55h18.75l15.5-72.55zm-27.73 0L60.88 141.7 53 99.72a8.75 8.75 0 00-8.65-7.4h-31.9L12 94.43c6.55 1.43 14 3.72 18.49 6.17 2.76 1.51 3.51 2.82 4.51 6.4l14.9 57.87h19.81l30.37-72.55z" fill="#1a1f71"/></svg>