<svg xmlns="http://www.w3.org/2000/svg" viewBox="0 0 84 40"><defs><style>.cls-1{fill:#0079be;}.cls-2{fill:#fff;}</style></defs><path class="cls-1" d="M45.26,35.13c8.23,0,15.74-6.7,15.74-14.9,0-9-7.51-15.17-15.74-15.17H38.18A14.84,14.84,0,0,0,23,20.23a15.07,15.07,0,0,0,15.18,14.9Z"/><path class="cls-2" d="M38.21,6.3A13.77,13.77,0,1,0,52,20.07,13.78,13.78,0,0,0,38.21,6.3ZM29.48,20.07a8.73,8.73,0,0,1,5.61-8.14V28.21A8.74,8.74,0,0,1,29.48,20.07Zm11.86,8.14V11.93a8.71,8.71,0,0,1,0,16.28Z"/><path class="cls-1" d="M45.26,35.13c8.23,0,15.74-6.7,15.74-14.9,0-9-7.51-15.17-15.74-15.17H38.18A14.84,14.84,0,0,0,23,20.23a15.07,15.07,0,0,0,15.18,14.9Z"/><path class="cls-2" d="M38.21,6.3A13.77,13.77,0,1,0,52,20.07,13.78,13.78,0,0,0,38.21,6.3ZM29.48,20.07a8.73,8.73,0,0,1,5.61-8.14V28.21A8.74,8.74,0,0,1,29.48,20.07Zm11.86,8.14V11.93a8.71,8.71,0,0,1,0,16.28Z"/></svg>