<svg viewBox="0 0 84 40" fill="none" xmlns="http://www.w3.org/2000/svg">
<path d="M17.946 30.1883C23.4701 30.2147 28.5123 25.6883 28.5123 20.1819C28.5123 14.1602 23.4701 9.998 17.946 10H13.1918C7.60141 9.998 3 14.1615 3 20.1819C3 25.6895 7.60141 30.2147 13.1918 30.1883H17.946Z" fill="#0079BE"/>
<path d="M13.2138 10.8359C8.10547 10.8375 3.96605 14.9733 3.96484 20.0777C3.96605 25.1812 8.10543 29.3166 13.2138 29.3182C18.3233 29.3166 22.4636 25.1812 22.4643 20.0777C22.4635 14.9733 18.3233 10.8375 13.2138 10.8359ZM7.35113 20.0777C7.35595 17.5834 8.91555 15.4564 11.1148 14.6112V25.5429C8.91555 24.6982 7.35591 22.5724 7.35113 20.0777ZM15.312 25.5453V14.6109C17.512 15.454 19.074 17.5822 19.078 20.0777C19.074 22.574 17.512 24.7006 15.312 25.5453Z" fill="white"/>
<path d="M31.752 14.3425C31.752 13.3875 31.2535 13.4504 30.7754 13.44V13.1641C31.1897 13.1845 31.6144 13.1845 32.0295 13.1845C32.4758 13.1845 33.0818 13.1641 33.8686 13.1641C36.6204 13.1641 38.1191 15.0002 38.1191 16.8804C38.1191 17.9319 37.5031 20.5752 33.7406 20.5752C33.1988 20.5752 32.6988 20.5543 32.1995 20.5543C31.7215 20.5543 31.2535 20.5648 30.7754 20.5752V20.2996C31.4127 20.2355 31.7215 20.2143 31.7519 19.4921V14.3425H31.752ZM32.7938 19.3227C32.7938 20.1402 33.379 20.2355 33.8995 20.2355C36.1958 20.2355 36.9497 18.5047 36.9497 16.9225C36.9497 14.9377 35.674 13.5045 33.6232 13.5045C33.1869 13.5045 32.9864 13.5357 32.7939 13.547L32.7938 19.3227Z" fill="#211E1F"/>
<path d="M38.4922 20.2999H38.6935C38.9907 20.2999 39.2037 20.2999 39.2037 19.9485V17.0718C39.2037 16.6051 39.0444 16.5402 38.651 16.3291V16.1589C39.1503 16.0091 39.7463 15.8088 39.788 15.7767C39.8629 15.7343 39.9263 15.7231 39.9796 15.7231C40.0322 15.7231 40.0542 15.7872 40.0542 15.8725V19.9485C40.0542 20.2999 40.288 20.2999 40.5856 20.2999H40.7661V20.5759C40.4043 20.5759 40.0322 20.5547 39.6504 20.5547C39.2678 20.5547 38.8848 20.5651 38.4922 20.5759V20.2999H38.4922ZM39.6291 14.0883C39.3524 14.0883 39.1086 13.8336 39.1086 13.5576C39.1086 13.2916 39.3637 13.0469 39.6291 13.0469C39.9046 13.0469 40.15 13.2708 40.15 13.5576C40.15 13.8444 39.9155 14.0883 39.6291 14.0883Z" fill="#211E1F"/>
<path d="M41.7757 17.1346C41.7757 16.7421 41.6582 16.6363 41.1597 16.4345V16.233C41.6165 16.0844 42.0516 15.9462 42.5621 15.7227C42.5938 15.7227 42.625 15.7443 42.625 15.8288V16.5194C43.2318 16.0844 43.7528 15.7227 44.4658 15.7227C45.3681 15.7227 45.6868 16.3811 45.6868 17.2091V19.9482C45.6868 20.2995 45.9206 20.2995 46.2186 20.2995H46.4099V20.5755C46.0369 20.5755 45.6652 20.5543 45.2835 20.5543C44.9004 20.5543 44.5174 20.5647 44.1353 20.5755V20.2995H44.3262C44.6245 20.2995 44.8359 20.2995 44.8359 19.9482V17.1991C44.8359 16.593 44.4658 16.2962 43.859 16.2962C43.5193 16.2962 42.9771 16.5722 42.625 16.8061V19.9481C42.625 20.2994 42.86 20.2994 43.158 20.2994H43.3489V20.5754C42.9771 20.5754 42.6045 20.5542 42.222 20.5542C41.8398 20.5542 41.4564 20.5646 41.0742 20.5754V20.2994H41.2659C41.5635 20.2994 41.7756 20.2994 41.7756 19.9481V17.1346H41.7757Z" fill="#211E1F"/>
<path d="M47.2179 17.645C47.1958 17.7407 47.1958 17.8997 47.2179 18.261C47.2805 19.2692 47.9305 20.0972 48.7794 20.0972C49.3645 20.0972 49.8225 19.7788 50.2151 19.3862L50.3635 19.5352C49.8743 20.1825 49.2686 20.7345 48.3976 20.7345C46.7073 20.7345 46.3672 19.099 46.3672 18.4201C46.3672 16.3387 47.77 15.7227 48.5135 15.7227C49.3749 15.7227 50.3001 16.2639 50.3101 17.3894C50.3101 17.4539 50.3101 17.5168 50.3001 17.5813L50.2039 17.645H47.2179ZM49.0995 17.3049C49.3645 17.3049 49.3959 17.1667 49.3959 17.0397C49.3959 16.4981 49.0666 16.0627 48.4711 16.0627C47.8234 16.0627 47.377 16.5398 47.2495 17.3049H49.0995Z" fill="#211E1F"/>
<path d="M50.5527 20.2995H50.8399C51.1365 20.2995 51.3491 20.2995 51.3491 19.9482V16.9652C51.3491 16.6363 50.9566 16.5722 50.7966 16.4873V16.3287C51.5725 15.999 51.998 15.7227 52.0946 15.7227C52.1576 15.7227 52.1889 15.7547 52.1889 15.8613V16.8166H52.2114C52.4764 16.4028 52.9236 15.7227 53.5713 15.7227C53.8371 15.7227 54.1768 15.9029 54.1768 16.2854C54.1768 16.5722 53.9755 16.8278 53.678 16.8278C53.3471 16.8278 53.3471 16.5722 52.9758 16.5722C52.7949 16.5722 52.2002 16.8166 52.2002 17.4539V19.9482C52.2002 20.2995 52.4123 20.2995 52.7103 20.2995H53.305V20.5755C52.7203 20.5646 52.2755 20.5543 51.8176 20.5543C51.3821 20.5543 50.9353 20.5647 50.5528 20.5755V20.2995H50.5527Z" fill="#211E1F"/>
<path d="M54.6468 19.0989C54.7852 19.7999 55.2099 20.3948 55.9863 20.3948C56.6119 20.3948 56.846 20.0127 56.846 19.6409C56.846 18.388 54.5297 18.7914 54.5297 17.0822C54.5297 16.4873 55.0085 15.7227 56.1771 15.7227C56.5168 15.7227 56.9735 15.8188 57.3878 16.0315L57.4632 17.1134H57.2182C57.1123 16.4453 56.7406 16.0628 56.0596 16.0628C55.6345 16.0628 55.2311 16.3072 55.2311 16.7634C55.2311 18.0067 57.6966 17.6234 57.6966 19.2901C57.6966 19.9907 57.1331 20.7345 55.8683 20.7345C55.4432 20.7345 54.9439 20.5859 54.5722 20.374L54.4551 19.1527L54.6468 19.0989Z" fill="#211E1F"/>
<path d="M67.2939 15.0856H67.0287C66.8267 13.8439 65.9444 13.3444 64.7546 13.3444C63.5314 13.3444 61.7565 14.1615 61.7565 16.7095C61.7565 18.8557 63.2879 20.3946 64.9242 20.3946C65.976 20.3946 66.8483 19.6728 67.0608 18.5577L67.3047 18.621L67.0608 20.1711C66.6144 20.4479 65.4134 20.7343 64.7112 20.7343C62.2248 20.7343 60.6523 19.1309 60.6523 16.7419C60.6523 14.5653 62.5969 13.0039 64.6799 13.0039C65.5405 13.0039 66.3695 13.2811 67.188 13.5679L67.2939 15.0856Z" fill="#211E1F"/>
<path d="M67.6778 20.3015H67.8791C68.1771 20.3015 68.3904 20.3015 68.3904 19.9501V14.0371C68.3904 13.3465 68.2308 13.3252 67.8266 13.2087V13.0388C68.2516 12.9011 68.698 12.7096 68.9214 12.5818C69.0373 12.5186 69.1231 12.4648 69.1544 12.4648C69.2194 12.4648 69.2406 12.529 69.2406 12.6143V19.9501C69.2406 20.3015 69.474 20.3015 69.772 20.3015H69.9513V20.5774C69.5915 20.5774 69.2194 20.5562 68.8364 20.5562C68.4542 20.5562 68.0716 20.5667 67.6777 20.5774V20.3015H67.6778Z" fill="#211E1F"/>
<path d="M74.5004 19.9911C74.5004 20.183 74.6167 20.1934 74.7972 20.1934C74.9251 20.1934 75.0839 20.183 75.2227 20.183V20.4065C74.7652 20.4485 73.8937 20.6716 73.6915 20.7349L73.6382 20.7028V19.8437C73.0014 20.3636 72.5117 20.7349 71.7566 20.7349C71.1827 20.7349 70.5876 20.3636 70.5876 19.4723V16.7533C70.5876 16.4773 70.5455 16.2117 69.9512 16.1589V15.957C70.3342 15.9466 71.1828 15.8829 71.3215 15.8829C71.4394 15.8829 71.4394 15.957 71.4394 16.1905V18.9291C71.4394 19.2484 71.4394 20.1612 72.3634 20.1612C72.7247 20.1612 73.2027 19.8853 73.6487 19.5147V16.6571C73.6487 16.4456 73.1389 16.3291 72.7572 16.2225V16.0314C73.7125 15.9673 74.3087 15.8828 74.4143 15.8828C74.5004 15.8828 74.5004 15.9569 74.5004 16.0743V19.9911H74.5004Z" fill="#211E1F"/>
<path d="M76.6173 16.4893C77.042 16.1284 77.6158 15.7246 78.2009 15.7246C79.434 15.7246 80.1772 16.7982 80.1772 17.9545C80.1772 19.3453 79.1574 20.7364 77.6366 20.7364C76.8506 20.7364 76.4363 20.4813 76.1596 20.3651L75.8412 20.6086L75.6187 20.4925C75.7129 19.866 75.767 19.2499 75.767 18.6026V14.037C75.767 13.3465 75.6066 13.3252 75.2031 13.2087V13.0388C75.6295 12.9011 76.0746 12.7096 76.298 12.5818C76.4151 12.5185 76.4997 12.4648 76.5326 12.4648C76.5959 12.4648 76.6172 12.529 76.6172 12.6143V16.4893H76.6173V16.4893ZM76.6173 19.377C76.6173 19.7807 76.9994 20.4609 77.7116 20.4609C78.8489 20.4609 79.327 19.3453 79.327 18.4C79.327 17.2536 78.4564 16.2983 77.627 16.2983C77.2328 16.2983 76.9039 16.5535 76.6172 16.7982V19.377H76.6173Z" fill="#211E1F"/>
<path d="M30.7637 26.7492H30.8451C31.0528 26.7492 31.2726 26.7212 31.2726 26.4204V23.3937C31.2726 23.0925 31.0528 23.0641 30.8451 23.0641H30.7637V22.8906C30.9895 22.8906 31.3363 22.9135 31.6207 22.9135C31.9094 22.9135 32.2559 22.8906 32.5278 22.8906V23.0641H32.4464C32.2391 23.0641 32.0189 23.0925 32.0189 23.3937V26.4204C32.0189 26.7212 32.2391 26.7492 32.4464 26.7492H32.5278V26.9235C32.2503 26.9235 31.9026 26.9007 31.6143 26.9007C31.3308 26.9007 30.9895 26.9235 30.7637 26.9235V26.7492Z" fill="#211E1F"/>
<path d="M32.5272 26.9462C32.2477 26.9462 31.9013 26.923 31.6133 26.923C31.3306 26.923 30.9905 26.9462 30.7631 26.9462H30.7383V26.9214V26.748V26.7227H30.7631H30.8442C31.0538 26.7179 31.2448 26.7011 31.2468 26.4187V23.392C31.2448 23.1096 31.0539 23.0908 30.8442 23.0868H30.7383V23.0624V22.8633H30.7631C30.9905 22.8633 31.337 22.8861 31.6197 22.8861C31.9076 22.8861 32.2538 22.8633 32.5272 22.8633H32.5529V22.8897V23.0868H32.5272H32.4462C32.2365 23.0908 32.0444 23.1096 32.0432 23.392V26.4187C32.0444 26.7011 32.2364 26.7179 32.4462 26.7227H32.5529V26.748V26.9462H32.5272ZM32.5024 26.8969V26.7736H32.4463C32.2397 26.7736 31.9939 26.7379 31.9927 26.4187V23.392C31.9939 23.0728 32.2397 23.0367 32.4463 23.0367H32.5024V22.9142C32.2353 22.9142 31.9004 22.9366 31.6197 22.9366C31.345 22.9366 31.0125 22.9158 30.7888 22.9142V23.0367H30.8441C31.0502 23.0367 31.2969 23.0728 31.2969 23.392V26.4187C31.2969 26.738 31.0502 26.7736 30.8441 26.7736H30.7888V26.8969C31.0125 26.8945 31.3393 26.8737 31.6133 26.8737C31.8948 26.8737 32.2297 26.8953 32.5024 26.8969Z" fill="#211E1F"/>
<path d="M36.4998 25.7847L36.5114 25.7735V23.6073C36.5114 23.133 36.1814 23.0641 36.0081 23.0641H35.8805V22.8906C36.1528 22.8906 36.4187 22.9135 36.6902 22.9135C36.9272 22.9135 37.1654 22.8906 37.402 22.8906V23.0641H37.3154C37.072 23.0641 36.8001 23.1101 36.8001 23.7975V26.4268C36.8001 26.6287 36.8061 26.8306 36.8345 27.0097H36.6144L33.6368 23.6934V26.074C33.6368 26.5767 33.7342 26.7493 34.1802 26.7493H34.278V26.9236C34.0298 26.9236 33.7815 26.9007 33.5325 26.9007C33.273 26.9007 33.0068 26.9236 32.7461 26.9236V26.7493H32.8271C33.2261 26.7493 33.3473 26.4785 33.3473 26.0167V23.5833C33.3473 23.26 33.0806 23.0641 32.8215 23.0641H32.7461V22.8907C32.9659 22.8907 33.1913 22.9135 33.4106 22.9135C33.5842 22.9135 33.7523 22.8907 33.9255 22.8907L36.4998 25.7847Z" fill="#211E1F"/>
<path d="M36.8349 27.0362L36.5964 27.0274L33.6616 23.76V26.0753C33.6684 26.5776 33.745 26.7202 34.1805 26.7258H34.3044V26.7506V26.9493H34.2788C34.0285 26.9493 33.7795 26.9261 33.5328 26.9261C33.2738 26.9261 33.0083 26.9493 32.746 26.9493H32.7207V26.9245V26.7258H32.746H32.8274C33.2096 26.7238 33.3187 26.4786 33.3231 26.018V23.585C33.3222 23.2774 33.0696 23.0907 32.8218 23.0899H32.7207V23.0643V22.8672H32.746C32.967 22.8672 33.1935 22.8892 33.4105 22.8892C33.5825 22.8892 33.7502 22.8672 33.945 22.8756L36.4868 25.7336V23.6091C36.4836 23.1492 36.1768 23.0939 36.0083 23.0899H35.8551V23.0643V22.8672H35.8808C36.154 22.8672 36.4202 22.8892 36.6905 22.8892C36.9259 22.8892 37.1629 22.8672 37.4019 22.8672H37.4272V22.892V23.0899H37.4019H37.3157C37.0771 23.0967 36.8321 23.1175 36.8253 23.7989V26.4277C36.8253 26.6296 36.8313 26.8315 36.8594 27.0065L36.865 27.0362H36.8349V27.0362ZM36.6152 26.9853H36.8065C36.7805 26.8119 36.776 26.6196 36.776 26.4277V23.7989C36.776 23.1055 37.0668 23.0398 37.3158 23.0398H37.3768V22.9172C37.149 22.9188 36.9204 22.9396 36.6906 22.9396C36.426 22.9396 36.1685 22.9188 35.9066 22.9172L35.9062 23.0398H36.0085C36.1862 23.0398 36.5371 23.1191 36.5371 23.609L36.529 25.792L36.5174 25.8041L36.4978 25.8221L33.926 22.9172C33.7544 22.9172 33.5867 22.9396 33.4106 22.9396C33.1985 22.9396 32.9815 22.9188 32.7718 22.9172L32.7706 23.0398H32.8219C33.0934 23.0398 33.3721 23.2469 33.3721 23.585V26.018C33.3721 26.4798 33.2434 26.7754 32.8275 26.777L32.7718 26.7754V26.9C33.0224 26.8976 33.2799 26.8767 33.5329 26.8767C33.7744 26.8767 34.0146 26.8976 34.2536 26.9V26.777H34.1806C33.7254 26.7754 33.6123 26.5775 33.6119 26.0752V23.6298L36.6152 26.9853ZM36.5001 25.7856L36.5185 25.7688L36.5001 25.7856ZM36.4868 25.7745V25.7725L36.482 25.7684L36.4868 25.7745Z" fill="#211E1F"/>
<path d="M38.2696 23.1827C37.8353 23.1827 37.8189 23.2868 37.7322 23.7082H37.5586C37.5815 23.5468 37.6103 23.3853 37.628 23.2171C37.6512 23.0553 37.6624 22.8942 37.6624 22.7268H37.8016C37.8481 22.9003 37.9925 22.8943 38.1493 22.8943H41.1326C41.2889 22.8943 41.4333 22.8886 41.4454 22.7148L41.5833 22.7381C41.5608 22.8943 41.5376 23.0501 41.5199 23.2063C41.5095 23.3622 41.5095 23.5183 41.5095 23.6737L41.3354 23.7382C41.3234 23.5247 41.2945 23.1827 40.9075 23.1827H39.9591V26.2566C39.9591 26.702 40.1617 26.7529 40.4383 26.7529H40.5486V26.9271C40.3232 26.9271 39.9178 26.9043 39.6062 26.9043C39.2594 26.9043 38.8539 26.9271 38.6281 26.9271V26.7529H38.7384C39.0572 26.7529 39.2184 26.7244 39.2184 26.2686V23.1827H38.2696Z" fill="#211E1F"/>
<path d="M40.5491 26.9496C40.3213 26.9496 39.9166 26.9264 39.6058 26.9264C39.2593 26.9264 38.8547 26.9496 38.6277 26.9496H38.6037V26.9252V26.7261H38.6277H38.738C39.0568 26.7185 39.1851 26.7145 39.1924 26.2667V23.206H38.2692V23.1807V23.1551H39.2425V26.2667C39.2425 26.7301 39.0557 26.777 38.738 26.7774H38.653V26.8991C38.8812 26.898 39.2702 26.8771 39.6059 26.8771C39.9075 26.8771 40.294 26.898 40.5226 26.8991V26.7774H40.438C40.1585 26.777 39.9335 26.7085 39.9335 26.2546V23.1551H40.9072C41.2954 23.1567 41.3459 23.4864 41.3588 23.7007L41.4835 23.6546C41.4835 23.504 41.4843 23.353 41.4947 23.2008C41.5116 23.0521 41.5328 22.9047 41.5545 22.7573L41.4662 22.7425C41.4394 22.9108 41.2769 22.9192 41.1313 22.9176H38.1489H38.1188C37.9829 22.9176 37.8341 22.9112 37.7823 22.7498H37.6869C37.6861 22.9096 37.6748 23.0646 37.6528 23.2184C37.6359 23.377 37.6095 23.5297 37.5878 23.6823H37.7118C37.7879 23.2797 37.8377 23.1491 38.2692 23.1551V23.1808V23.206C37.8417 23.2136 37.8505 23.2857 37.7562 23.7127L37.7519 23.7323H37.7318H37.5293L37.5325 23.7023C37.5558 23.5405 37.5851 23.3794 37.6023 23.2112C37.6263 23.0509 37.6376 22.8907 37.6376 22.7249V22.6997H37.662H37.8208L37.8249 22.7177C37.8646 22.8635 37.9716 22.8643 38.1188 22.8667H38.1489H41.1313C41.2926 22.8643 41.4097 22.8619 41.4197 22.7108L41.4221 22.6836L41.4482 22.6892L41.6114 22.7149L41.6077 22.7401C41.5845 22.8947 41.5616 23.0509 41.5448 23.206C41.5332 23.3598 41.5332 23.516 41.5332 23.6718V23.6898L41.5171 23.6963L41.3122 23.7707L41.3106 23.7371C41.2954 23.52 41.2725 23.2059 40.9072 23.2059H39.984V26.2546C39.9892 26.6904 40.1624 26.7204 40.4379 26.7261H40.5735V26.7509V26.9496L40.5491 26.9496Z" fill="#211E1F"/>
<path d="M41.7656 26.7492H41.847C42.0548 26.7492 42.2749 26.7212 42.2749 26.4204V23.3937C42.2749 23.0925 42.0548 23.0641 41.847 23.0641H41.7656V22.8906C42.1177 22.8906 42.7201 22.9135 43.2049 22.9135C43.6918 22.9135 44.2921 22.8906 44.6851 22.8906C44.6755 23.1386 44.6807 23.5207 44.6979 23.7743L44.5235 23.8207C44.4958 23.4454 44.4264 23.1454 43.8189 23.1454H43.0156V24.6583H43.703C44.0499 24.6583 44.1257 24.4625 44.1598 24.1497H44.333C44.3218 24.3759 44.3158 24.6011 44.3158 24.8262C44.3158 25.0461 44.3218 25.2652 44.333 25.4847L44.1598 25.5191C44.1257 25.1727 44.1081 24.9475 43.7086 24.9475H43.0157V26.293C43.0157 26.6692 43.3497 26.6692 43.7203 26.6692C44.4144 26.6692 44.7204 26.6223 44.8941 25.9646L45.0562 26.0042C44.9803 26.3111 44.9113 26.6167 44.86 26.9235C44.4895 26.9235 43.8242 26.9007 43.3044 26.9007C42.783 26.9007 42.0954 26.9235 41.7656 26.9235V26.7492Z" fill="#211E1F"/>
<path d="M44.8606 26.9493C44.4892 26.9493 43.8243 26.9256 43.305 26.9256C42.7841 26.9256 42.0967 26.9493 41.7666 26.9493H41.7422V26.9249V26.7506V26.7258H41.7666H41.8477C42.0574 26.7226 42.2474 26.7042 42.2503 26.4218V23.3951C42.2475 23.1131 42.0574 23.0943 41.8477 23.0899H41.7422V23.0655V22.8672H41.7666C42.1195 22.8672 42.7211 22.8892 43.2059 22.8892C43.6923 22.8892 44.2923 22.8672 44.6861 22.8672H44.7122L44.7109 22.8928C44.7069 22.9797 44.7054 23.0822 44.7054 23.1912C44.7054 23.3911 44.7109 23.6094 44.7226 23.7741L44.7234 23.7949L44.7042 23.8005L44.5008 23.8534L44.4997 23.8238C44.4656 23.4488 44.4155 23.1769 43.82 23.1713H43.0408L43.0399 24.6337H43.7041C44.037 24.6305 44.0966 24.4603 44.136 24.149L44.138 24.1262H44.1604H44.3598L44.3594 24.1522C44.3482 24.3773 44.3409 24.6024 44.3409 24.8275C44.3409 25.0462 44.3482 25.2653 44.3594 25.4853L44.3598 25.5057L44.3389 25.5105L44.138 25.5505L44.136 25.5233C44.0963 25.1708 44.0934 24.9777 43.7092 24.9734L43.0407 24.9729V26.2944C43.0412 26.6453 43.3443 26.6433 43.7213 26.6453C44.4175 26.6413 44.6966 26.6077 44.8711 25.9587L44.8767 25.9355L44.9011 25.9399L45.0865 25.9875L45.0808 26.0116C45.0062 26.3176 44.9368 26.6228 44.8851 26.9288L44.8803 26.9493H44.8606ZM44.8393 26.8988C44.8895 26.6076 44.9556 26.3152 45.0266 26.0244L44.9123 25.9955C44.7391 26.6421 44.4037 26.6997 43.7212 26.6954C43.3571 26.6954 42.9922 26.6954 42.9905 26.2943V24.9236H43.7092C44.113 24.9192 44.1544 25.1628 44.1828 25.4916L44.308 25.4656C44.2967 25.2529 44.2915 25.0394 44.2915 24.8275C44.2915 24.61 44.2967 24.3937 44.308 24.1762H44.1828C44.1508 24.477 44.0565 24.6885 43.704 24.6845H42.9906V23.1207H43.82C44.4215 23.1167 44.5213 23.4267 44.547 23.79L44.6718 23.7564C44.6617 23.5934 44.6548 23.3843 44.6548 23.1912C44.6548 23.0923 44.6573 22.9989 44.6605 22.9172C44.2675 22.9188 43.682 22.9396 43.2059 22.9396C42.7307 22.9396 42.1457 22.9188 41.7915 22.9172V23.0398H41.8476C42.0537 23.0398 42.3 23.0758 42.3008 23.3951V26.4218C42.3 26.7402 42.0537 26.7755 41.8476 26.7771H41.7915V26.8988C42.1288 26.8984 42.7969 26.8768 43.305 26.8768C43.8151 26.8768 44.4663 26.8984 44.8393 26.8988Z" fill="#211E1F"/>
<path d="M45.8391 23.5031C45.8391 23.0817 45.6081 23.0645 45.4281 23.0645H45.3242V22.8906C45.5095 22.8906 45.8676 22.9139 46.2205 22.9139C46.5674 22.9139 46.8453 22.8906 47.1513 22.8906C47.8795 22.8906 48.5281 23.0873 48.5281 23.9085C48.5281 24.4272 48.1812 24.7452 47.7244 24.9251L48.7129 26.4031C48.8749 26.6475 48.99 26.716 49.274 26.7496V26.9239C49.0831 26.9239 48.8977 26.901 48.7073 26.901C48.528 26.901 48.3423 26.9239 48.1638 26.9239C47.7187 26.3403 47.3361 25.7162 46.9603 25.0513H46.5798V26.2882C46.5798 26.7336 46.7872 26.7496 47.053 26.7496H47.1573V26.9239C46.8268 26.9239 46.4929 26.9011 46.1628 26.9011C45.8849 26.9011 45.6129 26.9239 45.3242 26.9239V26.7496H45.4281C45.643 26.7496 45.8391 26.6527 45.8391 26.4384V23.5031ZM46.5798 24.8434H46.8621C47.4408 24.8434 47.7524 24.6239 47.7524 23.9421C47.7524 23.4286 47.4232 23.0989 46.9078 23.0989C46.7342 23.0989 46.6604 23.1169 46.5797 23.1221V24.8434H46.5798Z" fill="#211E1F"/>
<path d="M49.2739 26.9461C49.0802 26.9461 48.8961 26.9229 48.7061 26.9229C48.5296 26.9229 48.3451 26.9461 48.1434 26.9365C47.6999 26.3553 47.3197 25.7348 46.9459 25.0747H46.6043V26.2852C46.6103 26.7198 46.7851 26.7162 47.0526 26.7226H47.1821V26.7475V26.9462H47.1564C46.826 26.9462 46.4904 26.9229 46.1619 26.9229C45.8856 26.9229 45.6145 26.9462 45.3241 26.9462H45.2988V26.9213V26.7226H45.3241H45.428C45.6365 26.7214 45.8122 26.6309 45.813 26.4362V23.501C45.8086 23.0908 45.6077 23.0932 45.428 23.0872H45.2988V23.0624V22.8633H45.3241C45.5114 22.8633 45.8683 22.8861 46.2204 22.8861C46.5657 22.8861 46.8437 22.8633 47.1517 22.8633C47.8803 22.8649 48.5517 23.066 48.5536 23.9047C48.5536 24.4267 48.2084 24.7523 47.762 24.9342L48.7337 26.3874C48.8953 26.6269 48.996 26.6866 49.2775 26.7226L49.2987 26.7259V26.7475V26.9462H49.2739V26.9461ZM46.579 25.0242H46.9744L46.9812 25.037C47.3582 25.7007 47.7379 26.324 48.1639 26.8968C48.3403 26.8968 48.526 26.8732 48.7061 26.8732C48.8909 26.8732 49.0689 26.8932 49.249 26.896V26.7694C48.9775 26.7358 48.8504 26.6549 48.6924 26.4149L47.6862 24.9108L47.7147 24.8992C48.1671 24.7214 48.5019 24.4125 48.5023 23.9046C48.5019 23.1031 47.8787 22.9172 47.1517 22.914C46.8464 22.914 46.5689 22.9369 46.2204 22.9369C45.8808 22.9369 45.5379 22.9156 45.3486 22.914V23.0366H45.428C45.6077 23.037 45.8635 23.0666 45.8635 23.5009V26.4362C45.8635 26.6681 45.6457 26.7738 45.428 26.7742H45.3486V26.896C45.6269 26.8952 45.8904 26.8732 46.1619 26.8732C46.4855 26.8732 46.8116 26.8952 47.1316 26.896V26.7742H47.0526C46.7887 26.7738 46.5537 26.741 46.5537 26.2852V25.0242H46.579H46.579ZM46.579 24.8656H46.5537V23.0967L46.5757 23.0947C46.6548 23.0887 46.733 23.0723 46.9078 23.0723C47.4348 23.0723 47.7773 23.4143 47.778 23.941C47.7765 24.6308 47.4452 24.8651 46.8621 24.8655H46.579V24.8656ZM46.8621 24.8159C47.4347 24.8111 47.7227 24.6125 47.7287 23.9411C47.7255 23.4364 47.4115 23.1231 46.9078 23.1211C46.7514 23.1211 46.678 23.1355 46.6042 23.142V24.8159H46.8621Z" fill="#211E1F"/>
<path d="M53.1985 25.7847L53.2089 25.7735V23.6073C53.2089 23.133 52.8797 23.0641 52.7065 23.0641H52.5798V22.8906C52.8513 22.8906 53.1168 22.9135 53.389 22.9135C53.6264 22.9135 53.8627 22.8906 54.1013 22.8906V23.0641H54.0142C53.7713 23.0641 53.4993 23.1101 53.4993 23.7975V26.4268C53.4993 26.6287 53.505 26.8306 53.5334 27.0097H53.3141L50.336 23.6934V26.074C50.336 26.5767 50.4343 26.7493 50.8794 26.7493H50.9777V26.9236C50.7294 26.9236 50.4804 26.9007 50.2322 26.9007C49.971 26.9007 49.7052 26.9236 49.4453 26.9236V26.7493H49.5255C49.925 26.7493 50.0465 26.4785 50.0465 26.0167V23.5833C50.0465 23.26 49.7805 23.0641 49.5207 23.0641H49.4453V22.8907C49.6643 22.8907 49.8909 22.9135 50.1102 22.9135C50.2827 22.9135 50.4511 22.8907 50.6247 22.8907L53.1985 25.7847Z" fill="#211E1F"/>
<path d="M53.5344 27.0366L53.2963 27.0286L50.3612 23.7608V26.0757C50.368 26.5784 50.4442 26.7209 50.8805 26.7266H51.0028V26.7514V26.9501H50.9775C50.7274 26.9501 50.4794 26.9264 50.2316 26.9264C49.9734 26.9264 49.7063 26.9501 49.446 26.9501H49.4199V26.9257V26.7266H49.446H49.5262C49.908 26.725 50.0175 26.4794 50.0211 26.0172V23.5854C50.0207 23.2777 49.7685 23.0911 49.5214 23.0907H49.4199V23.0663V22.8672H49.446C49.6666 22.8672 49.8928 22.89 50.1109 22.89C50.2809 22.89 50.4486 22.8672 50.6427 22.8752L53.1848 25.7344V23.609C53.1832 23.1499 52.8752 23.0931 52.7072 23.0907H52.5544V23.0663V22.8672H52.5797C52.8532 22.8672 53.1194 22.89 53.3897 22.89C53.6256 22.89 53.8626 22.8672 54.1007 22.8672H54.126V22.8932V23.0907H54.1007H54.0149C53.7763 23.0971 53.5304 23.1183 53.5244 23.7997V26.4285C53.5244 26.6304 53.5297 26.8307 53.5589 27.0086L53.5621 27.0366H53.5344ZM53.3147 26.9861H53.5048C53.4795 26.8127 53.4739 26.6204 53.4739 26.4285V23.7997C53.4743 23.1062 53.7671 23.0422 54.0149 23.0402H54.0754V22.918C53.8484 22.9196 53.6195 22.9405 53.3897 22.9405C53.1242 22.9405 52.8663 22.9196 52.6045 22.918V23.0402H52.7072C52.8852 23.0422 53.2357 23.1199 53.2357 23.609L53.2277 25.7928L53.2165 25.8049L53.1989 25.8233L50.6251 22.9181C50.4534 22.9181 50.2857 22.9405 50.1109 22.9405C49.8968 22.9405 49.6806 22.9197 49.4701 22.9181V23.0402H49.5214C49.7929 23.0422 50.0716 23.2469 50.0716 23.5854V26.0172C50.0716 26.481 49.9409 26.7762 49.5262 26.7778L49.4701 26.7774V26.8996C49.7199 26.8984 49.9778 26.8776 50.2316 26.8776C50.4743 26.8776 50.7145 26.8984 50.9535 26.8996V26.7778H50.8805C50.425 26.7774 50.3111 26.5784 50.3103 26.0756V23.6314L53.3147 26.9861ZM53.1992 25.7864L53.2168 25.77L53.1992 25.7864ZM53.1848 25.7756V25.7736L53.1803 25.7692L53.1848 25.7756Z" fill="#211E1F"/>
<path d="M55.0309 26.0976C54.9724 26.2935 54.9027 26.4449 54.9027 26.5478C54.9027 26.7217 55.1461 26.7497 55.3362 26.7497H55.4007V26.9239C55.169 26.9115 54.9327 26.9011 54.6997 26.9011C54.4916 26.9011 54.2847 26.9116 54.0762 26.9239V26.7497H54.111C54.3364 26.7497 54.5277 26.6171 54.6131 26.374L55.5395 23.723C55.6141 23.5091 55.7191 23.2203 55.7541 23.0061C55.9382 22.9432 56.1699 22.8278 56.2795 22.7581C56.2975 22.7521 56.3075 22.7461 56.3256 22.7461C56.3428 22.7461 56.354 22.7461 56.3668 22.7641C56.3837 22.8098 56.4005 22.8623 56.419 22.9083L57.4829 25.9302C57.5523 26.132 57.6208 26.3455 57.6959 26.5194C57.7657 26.6812 57.8875 26.7497 58.0788 26.7497H58.1129V26.9239C57.8527 26.9115 57.5921 26.9012 57.3153 26.9012C57.0318 26.9012 56.7418 26.9116 56.4471 26.9239V26.7497H56.5113C56.6436 26.7497 56.8698 26.7273 56.8698 26.5827C56.8698 26.5078 56.8176 26.3519 56.7531 26.1665L56.5281 25.4963H55.2156L55.0309 26.0976ZM55.8747 23.538H55.8631L55.3253 25.1731H56.4061L55.8747 23.538Z" fill="#211E1F"/>
<path d="M58.1131 26.9502C57.8529 26.9385 57.5926 26.9265 57.3171 26.9265C57.0335 26.9265 56.7456 26.9385 56.4496 26.9502L56.4235 26.9518V26.9257V26.7258H56.4488H56.5126C56.6466 26.7258 56.8454 26.6954 56.8454 26.5845C56.8471 26.5188 56.7949 26.3601 56.7311 26.1763L56.511 25.523H55.2353L55.0557 26.1066C54.9971 26.3037 54.9278 26.4563 54.9281 26.5504C54.9301 26.6914 55.1463 26.7258 55.338 26.7258H55.427V26.7519V26.9518L55.401 26.9502C55.1696 26.9385 54.9334 26.9265 54.7028 26.9265C54.4954 26.9265 54.2869 26.9385 54.0796 26.9502L54.0527 26.9518V26.9257V26.7258H54.078H54.1125C54.3278 26.725 54.5075 26.6029 54.5909 26.3678L55.5169 23.7165C55.5927 23.5022 55.697 23.2142 55.7471 22.9839C55.9283 22.9226 56.1605 22.8064 56.272 22.7359C56.2881 22.7307 56.3042 22.7227 56.3278 22.7227C56.3419 22.7223 56.3731 22.7259 56.3916 22.7564C56.408 22.804 56.426 22.8553 56.4437 22.9022L57.5088 25.9236C57.5771 26.1263 57.646 26.3398 57.7214 26.5104C57.7884 26.6647 57.8947 26.7251 58.0807 26.7259H58.1397V26.752V26.9518L58.1131 26.9502ZM56.4741 26.8985C56.7604 26.8885 57.0408 26.8773 57.3171 26.8773C57.5857 26.8773 57.8372 26.8885 58.0886 26.8985V26.7779H58.0806C57.8825 26.7791 57.7457 26.7014 57.6747 26.5312C57.5994 26.3557 57.5288 26.1414 57.461 25.9391L56.3963 22.9181C56.3787 22.8721 56.3618 22.8196 56.3465 22.7787C56.3418 22.7731 56.3429 22.7731 56.3382 22.7731H56.3277C56.3157 22.7731 56.3088 22.7767 56.294 22.7807C56.1825 22.8532 55.9504 22.9666 55.779 23.0118C55.7434 23.2306 55.6395 23.519 55.5641 23.7329L54.6386 26.3846C54.5504 26.6353 54.3478 26.7783 54.1124 26.7779H54.1032V26.8985C54.3013 26.8885 54.5018 26.8773 54.7027 26.8773C54.9261 26.8773 55.1547 26.8885 55.3753 26.8985V26.7779H55.338C55.1499 26.7755 54.8868 26.7542 54.8796 26.5504C54.88 26.435 54.951 26.2872 55.0075 26.0922L55.0328 26.0997L55.0075 26.0913L55.198 25.4737H56.5463L56.7784 26.1603C56.8434 26.3457 56.8959 26.4995 56.8959 26.5845C56.8879 26.7619 56.6437 26.7743 56.5126 26.7779H56.474V26.8985H56.4741ZM55.2919 25.1997L55.8457 23.5145H55.8649H55.877V23.5397L55.8706 23.541L55.877 23.5397V23.5145H55.8942L56.4432 25.1997H55.2919ZM55.3612 25.1496H56.3734L55.8701 23.6014L55.3612 25.1496ZM55.8517 23.547L55.8649 23.5426L55.8517 23.547Z" fill="#211E1F"/>
<path d="M58.3682 23.1827C57.9342 23.1827 57.917 23.2868 57.8299 23.7082H57.6562C57.6791 23.5468 57.7084 23.3853 57.7265 23.2171C57.7497 23.0553 57.7602 22.8942 57.7602 22.7268H57.8997C57.9458 22.9003 58.091 22.8943 58.2462 22.8943H61.2311C61.3863 22.8943 61.5307 22.8886 61.5427 22.7148L61.6811 22.7381C61.659 22.8943 61.6362 23.0501 61.6185 23.2063C61.6061 23.3622 61.6061 23.5183 61.6061 23.6737L61.4328 23.7382C61.422 23.5247 61.3931 23.1827 61.0053 23.1827H60.0569V26.2566C60.0569 26.702 60.2599 26.7529 60.5366 26.7529H60.6464V26.9271C60.421 26.9271 60.0168 26.9043 59.7039 26.9043C59.3575 26.9043 58.952 26.9271 58.7267 26.9271V26.7529H58.8362C59.1549 26.7529 59.317 26.7244 59.317 26.2686V23.1827H58.3682Z" fill="#211E1F"/>
<path d="M60.6464 26.9496C60.4194 26.9496 60.0144 26.9264 59.704 26.9264C59.3583 26.9264 58.9532 26.9496 58.7267 26.9496H58.701V26.9252V26.7261H58.7267H58.8361C59.1549 26.7185 59.2829 26.7145 59.2909 26.2666L59.2901 23.206H58.3681V23.1807V23.1551H59.341V26.2666C59.341 26.7301 59.1537 26.7757 58.8361 26.7769H58.7512V26.9003C58.9801 26.8979 59.3683 26.8771 59.704 26.8771C60.0059 26.8771 60.3926 26.8979 60.6211 26.9003V26.7769H60.5357C60.2577 26.7757 60.0324 26.7088 60.0316 26.2546V23.1551H61.0053C61.3935 23.1567 61.4444 23.4863 61.4553 23.7006L61.5816 23.6546C61.5816 23.5039 61.582 23.3529 61.5932 23.2015C61.6092 23.0529 61.6309 22.9047 61.6522 22.7573L61.5648 22.7424C61.5383 22.9107 61.3751 22.9199 61.2311 22.9175H58.2462H58.2169C58.0806 22.9191 57.933 22.9111 57.8804 22.7488H57.7858C57.7842 22.9091 57.7734 23.0645 57.7505 23.2183C57.7353 23.3774 57.7068 23.5304 57.6852 23.6822H57.8091C57.8857 23.2796 57.9358 23.149 58.3681 23.1551V23.1807V23.2059C57.9394 23.2132 57.9491 23.2856 57.8543 23.7126L57.85 23.7323H57.8299H57.627L57.6306 23.7034C57.6546 23.5404 57.6835 23.3793 57.7003 23.2123C57.724 23.0509 57.7353 22.8906 57.7353 22.7248V22.6996H57.7601H57.9181L57.9229 22.7176C57.9634 22.8634 58.0688 22.8642 58.2169 22.8666L58.2461 22.8674H61.231C61.3906 22.8642 61.5073 22.8618 61.5173 22.7112L61.519 22.6836L61.5462 22.6892L61.7103 22.7149L61.7059 22.7401C61.6822 22.8947 61.6601 23.0509 61.6425 23.206C61.6309 23.3598 61.6309 23.5164 61.6309 23.6718V23.6898L61.6145 23.6963L61.4095 23.7708L61.4084 23.7371C61.3935 23.52 61.3706 23.2059 61.0053 23.2059H60.0818V26.2546C60.0878 26.6904 60.2606 26.7204 60.5357 26.7261H60.6712V26.7509V26.9496L60.6464 26.9496Z" fill="#211E1F"/>
<path d="M61.8945 26.7492H61.9756C62.1845 26.7492 62.403 26.7212 62.403 26.4204V23.3937C62.403 23.0925 62.1845 23.0641 61.9756 23.0641H61.8945V22.8906C62.1204 22.8906 62.4668 22.9135 62.7495 22.9135C63.0399 22.9135 63.3868 22.8906 63.6587 22.8906V23.0641H63.5777C63.3696 23.0641 63.149 23.0925 63.149 23.3937V26.4204C63.149 26.7212 63.3696 26.7492 63.5777 26.7492H63.6587V26.9235C63.3807 26.9235 63.0335 26.9007 62.7452 26.9007C62.4612 26.9007 62.1204 26.9235 61.8945 26.9235V26.7492Z" fill="#211E1F"/>
<path d="M63.6585 26.9493C63.379 26.9493 63.0329 26.9256 62.7446 26.9256C62.4618 26.9256 62.1202 26.9493 61.8944 26.9493H61.8691V26.9249V26.7506V26.7258H61.8944H61.9754C62.1843 26.7226 62.376 26.7046 62.3768 26.4218V23.3951C62.376 23.1131 62.1843 23.0938 61.9754 23.0899H61.8691V23.0655V22.8672H61.8944C62.1202 22.8672 62.4675 22.8892 62.7494 22.8892C63.0377 22.8892 63.3846 22.8672 63.6585 22.8672H63.683V22.892V23.0899H63.6585H63.5775C63.3661 23.0939 63.1765 23.1131 63.1736 23.3951V26.4218C63.1765 26.7046 63.3662 26.7226 63.5775 26.7258H63.683V26.7506V26.9493H63.6585ZM63.6325 26.8988V26.7766H63.5775C63.3702 26.7766 63.1248 26.7402 63.1248 26.4218V23.3951C63.1248 23.0758 63.3702 23.0398 63.5775 23.0398H63.6325V22.9172C63.3654 22.9188 63.0313 22.9396 62.7494 22.9396C62.4755 22.9396 62.1438 22.9188 61.9197 22.9172V23.0398H61.9755C62.1811 23.0398 62.4274 23.0758 62.4282 23.3951V26.4218C62.4274 26.7402 62.1811 26.7766 61.9755 26.7766H61.9197V26.8988C62.1427 26.8964 62.4699 26.8768 62.7446 26.8768C63.0249 26.8768 63.3598 26.8976 63.6324 26.8988H63.6325Z" fill="#211E1F"/>
<path d="M65.9651 22.8047C67.1978 22.8047 68.1803 23.5682 68.1803 24.7983C68.1803 26.1274 67.2263 27.0106 65.9951 27.0106C64.768 27.0106 63.832 26.1786 63.832 24.9365C63.832 23.7352 64.7624 22.8047 65.9651 22.8047ZM66.0525 26.7562C67.1746 26.7562 67.3699 25.7676 67.3699 24.9253C67.3699 24.0809 66.9143 23.0586 65.9539 23.0586C64.9417 23.0586 64.6413 23.9599 64.6413 24.7334C64.6413 25.7676 65.1153 26.7562 66.0525 26.7562Z" fill="#211E1F"/>
<path d="M63.8066 24.9383C63.8091 23.723 64.7507 22.7829 65.9654 22.7812V22.8065V22.8309C64.7768 22.8309 63.8568 23.7494 63.8556 24.9382C63.8584 26.1664 64.7812 26.9859 65.9955 26.9863C67.2146 26.9859 68.1551 26.1151 68.157 24.7989C68.1558 23.5844 67.1881 22.8325 65.9655 22.8309V22.8065V22.7812C67.2078 22.7821 68.2036 23.5531 68.206 24.7989C68.2048 26.1419 67.2382 27.0344 65.9955 27.0368C64.7587 27.0344 63.8091 26.194 63.8067 24.9382H63.8066V24.9383ZM64.6168 24.7352C64.6184 23.9581 64.9223 23.0344 65.9546 23.0344C66.9363 23.0368 67.3947 24.0783 67.3962 24.9271C67.3947 25.7694 67.1962 26.7821 66.0533 26.7821V26.7581V26.7332C67.1529 26.7316 67.3434 25.7694 67.3461 24.9271C67.3461 24.0895 66.8946 23.0869 65.9546 23.0857C64.9624 23.0869 64.6689 23.9657 64.6669 24.7352C64.6677 25.7642 65.1373 26.7308 66.0533 26.7332V26.7581V26.7821C65.0932 26.7809 64.6184 25.7755 64.6168 24.7352Z" fill="#211E1F"/>
<path d="M72.0779 25.7847L72.0895 25.7735V23.6073C72.0895 23.133 71.7591 23.0641 71.5854 23.0641H71.4603V22.8906C71.7314 22.8906 71.9973 22.9135 72.2683 22.9135C72.5062 22.9135 72.7432 22.8906 72.9806 22.8906V23.0641H72.8931C72.6509 23.0641 72.3786 23.1101 72.3786 23.7975V26.4268C72.3786 26.6287 72.3843 26.8306 72.4136 27.0097H72.1941L69.2153 23.6934V26.074C69.2153 26.5767 69.3132 26.7493 69.7583 26.7493H69.8573V26.9236C69.6083 26.9236 69.3601 26.9007 69.1114 26.9007C68.8511 26.9007 68.5845 26.9236 68.3242 26.9236V26.7493H68.4056C68.8055 26.7493 68.9254 26.4785 68.9254 26.0167V23.5833C68.9254 23.26 68.6606 23.0641 68.3996 23.0641H68.3242V22.8907C68.5439 22.8907 68.7697 22.9135 68.9891 22.9135C69.1628 22.9135 69.33 22.8907 69.504 22.8907L72.0779 25.7847Z" fill="#211E1F"/>
<path d="M72.415 27.0358L72.1757 27.0274L69.2413 23.76V26.0753C69.2477 26.5776 69.3242 26.7198 69.7586 26.725H69.8837V26.751V26.9493H69.8584C69.6078 26.9493 69.3596 26.9261 69.1125 26.9261C68.853 26.9261 68.5876 26.9493 68.3248 26.9493H68.3008V26.9245V26.725H68.3248H68.4067C68.7881 26.7238 68.8976 26.4787 68.9023 26.018V23.5846C68.9015 23.277 68.6492 23.0903 68.4006 23.0899H68.3008V23.0655V22.8672H68.3248C68.5467 22.8672 68.772 22.8893 68.9902 22.8893C69.1618 22.8893 69.3287 22.8672 69.5243 22.8756L72.0653 25.7336V23.6091C72.0636 23.1493 71.7557 23.0939 71.5864 23.0899H71.4345V23.0655V22.8673H71.4605C71.7328 22.8673 71.9995 22.8893 72.2685 22.8893C72.5059 22.8893 72.7418 22.8673 72.9816 22.8673H73.0064V22.8921V23.0899H72.9816H72.8941C72.6563 23.0967 72.4101 23.1184 72.4053 23.7989V26.4278C72.4053 26.6297 72.4097 26.8311 72.4378 27.0078L72.4426 27.0358H72.415V27.0358ZM72.1953 26.9853H72.3846C72.3594 26.8119 72.3549 26.6196 72.3549 26.4277V23.7989C72.3549 23.1043 72.6465 23.0414 72.8943 23.0394H72.9569V22.9172C72.7287 22.9188 72.5001 22.9396 72.2688 22.9396C72.0057 22.9396 71.747 22.9188 71.4851 22.9172V23.0394H71.5865C71.7658 23.0414 72.1147 23.1203 72.1147 23.609L72.1084 25.792L72.0975 25.8041L72.0791 25.8225L69.5053 22.9173C69.3348 22.9173 69.166 22.9397 68.9903 22.9397C68.7774 22.9397 68.5604 22.9189 68.3499 22.9173V23.0394H68.4008C68.6723 23.0414 68.9518 23.2461 68.9518 23.5846V26.018C68.9518 26.4798 68.8227 26.7755 68.4068 26.7771L68.3499 26.7766V26.8988C68.6009 26.8976 68.8584 26.8768 69.1126 26.8768C69.3536 26.8768 69.5931 26.8976 69.8333 26.8988V26.7771H69.7587C69.3048 26.7766 69.1913 26.5776 69.1913 26.0752V23.6298L72.1953 26.9853ZM72.079 25.7856L72.0974 25.7692L72.079 25.7856ZM72.0654 25.7748V25.7728L72.0605 25.7684L72.0654 25.7748Z" fill="#211E1F"/>
<path d="M73.9099 26.0976C73.8533 26.2935 73.7832 26.4449 73.7832 26.5478C73.7832 26.7217 74.0266 26.7497 74.2163 26.7497H74.2808V26.9239C74.0494 26.9115 73.8121 26.9011 73.5807 26.9011C73.3717 26.9011 73.1644 26.9116 72.957 26.9239V26.7497H72.9899C73.2165 26.7497 73.4082 26.6171 73.4936 26.374L74.42 23.723C74.4946 23.5091 74.5992 23.2203 74.633 23.0061C74.8182 22.9432 75.0492 22.8278 75.1603 22.7581C75.1767 22.7521 75.1884 22.7461 75.206 22.7461C75.2233 22.7461 75.2341 22.7461 75.2457 22.7641C75.2634 22.8098 75.2815 22.8623 75.2987 22.9083L76.3622 25.9302C76.4316 26.132 76.5006 26.3455 76.5768 26.5194C76.6461 26.6812 76.7681 26.7497 76.9581 26.7497H76.9935V26.9239C76.7328 26.9115 76.4725 26.9012 76.1946 26.9012C75.9119 26.9012 75.6223 26.9116 75.3272 26.9239V26.7497H75.3914C75.5233 26.7497 75.7503 26.7273 75.7503 26.5827C75.7503 26.5078 75.6977 26.3519 75.6332 26.1665L75.4086 25.4963H74.0956L73.9099 26.0976ZM74.7552 23.538H74.7437L74.2051 25.1731H75.2874L74.7552 23.538Z" fill="#211E1F"/>
<path d="M76.9909 26.9493C76.7306 26.9389 76.4708 26.9261 76.1945 26.9261C75.9125 26.9261 75.623 26.9389 75.3278 26.9493L75.3022 26.9509V26.9245V26.7258H75.327H75.39C75.5247 26.7258 75.724 26.6946 75.7244 26.5836C75.7256 26.5179 75.6735 26.3605 75.609 26.1754L75.3892 25.5221H74.1128L73.9339 26.1057C73.8761 26.3036 73.8071 26.4554 73.8084 26.5488C73.8084 26.6906 74.0248 26.7258 74.2162 26.7258H74.3044V26.7506V26.9509L74.2788 26.9493C74.0473 26.9389 73.8107 26.9261 73.5806 26.9261C73.3733 26.9261 73.1654 26.9389 72.9569 26.9493L72.9316 26.9509V26.9245V26.7258H72.9569H72.9898C73.2055 26.725 73.386 26.6012 73.4703 26.3669L74.3958 23.7156C74.4696 23.5013 74.5739 23.2133 74.6252 22.9838C74.8069 22.9209 75.039 22.8055 75.1514 22.735C75.1666 22.7298 75.1823 22.723 75.2059 22.723C75.2212 22.7214 75.2507 22.725 75.2692 22.7566C75.2865 22.8019 75.3033 22.8544 75.3226 22.9012L76.3861 25.9227C76.4551 26.1254 76.5245 26.3389 76.5994 26.5107C76.6672 26.6637 76.7727 26.7242 76.9572 26.7258H77.0173V26.7506V26.9509L76.9909 26.9493ZM75.3519 26.8984C75.6378 26.8876 75.9194 26.8764 76.1945 26.8764C76.4635 26.8764 76.7158 26.8876 76.9676 26.8976L76.9668 26.777H76.9572C76.7615 26.7774 76.6248 26.7005 76.553 26.5303C76.4768 26.3549 76.4078 26.1406 76.3388 25.939L75.2744 22.9172C75.2572 22.8712 75.2396 22.8187 75.2256 22.7794C75.2207 22.7722 75.2212 22.7722 75.2167 22.7722H75.2059C75.1939 22.7722 75.1874 22.7762 75.1733 22.7802C75.0607 22.8511 74.8289 22.9665 74.6577 23.011C74.6219 23.2297 74.5169 23.5177 74.4424 23.732L73.5164 26.3837C73.4285 26.6344 73.2264 26.7774 72.9898 26.777H72.9813V26.8976C73.1803 26.8876 73.3791 26.8764 73.5805 26.8764C73.8047 26.8764 74.0328 26.8876 74.2554 26.8976V26.777H74.2161C74.0281 26.7746 73.7642 26.7542 73.7574 26.5487C73.7586 26.4342 73.8303 26.2872 73.8861 26.0913L73.9098 26.0989L73.8861 26.0904L74.0766 25.4728H75.4253L75.657 26.1593C75.7208 26.3452 75.7733 26.4987 75.7733 26.5836C75.7649 26.761 75.5223 26.7734 75.3899 26.777H75.3518V26.8984H75.3519ZM74.1705 25.1985L74.7251 23.5137H74.7427H74.7552V23.5389L74.7491 23.5401L74.7552 23.5389V23.5137H74.7732L75.3198 25.1985H74.1705ZM74.2398 25.1488H75.2513L74.7483 23.6014L74.2398 25.1488ZM74.7311 23.5462L74.7427 23.5418L74.7311 23.5462Z" fill="#211E1F"/>
<path d="M78.4509 26.3571C78.4509 26.5882 78.6113 26.6571 78.7966 26.6807C79.0336 26.6984 79.2939 26.6984 79.561 26.6691C79.8032 26.6399 80.0117 26.5013 80.1151 26.3571C80.2074 26.2297 80.2596 26.0679 80.2944 25.9409H80.4621C80.3987 26.2702 80.3177 26.5946 80.2479 26.9235C79.7402 26.9235 79.2301 26.9006 78.7219 26.9006C78.2123 26.9006 77.7042 26.9235 77.1953 26.9235V26.7492H77.2747C77.484 26.7492 77.7102 26.7212 77.7102 26.3627V23.3937C77.7102 23.0925 77.484 23.0641 77.2747 23.0641H77.1953V22.8906C77.5009 22.8906 77.802 22.9135 78.108 22.9135C78.404 22.9135 78.6928 22.8906 78.9879 22.8906V23.0641H78.8423C78.6233 23.0641 78.4509 23.0705 78.4509 23.3757V26.3571Z" fill="#211E1F"/>
<path d="M80.2482 26.9493C79.7386 26.9493 79.2297 26.926 78.7223 26.926C78.213 26.926 77.7041 26.9493 77.1944 26.9493H77.1699V26.9244V26.7258H77.1944H77.275C77.4848 26.7209 77.6829 26.7065 77.6853 26.364V23.3939C77.6828 23.1131 77.4859 23.0939 77.275 23.0899H77.1699V23.0655V22.8672H77.1944C77.502 22.8672 77.8032 22.8892 78.1087 22.8892C78.4023 22.8892 78.6911 22.8672 78.9882 22.8672H79.0119V22.892V23.0899H78.9882H78.8431C78.6189 23.0963 78.4793 23.0859 78.4749 23.3771V26.3585C78.4765 26.5736 78.6177 26.6317 78.7982 26.6569C78.9004 26.6641 79.0075 26.6685 79.119 26.6685C79.2605 26.6685 79.4077 26.6617 79.5569 26.6457C79.7927 26.6181 79.9956 26.4823 80.0951 26.3445C80.1841 26.2211 80.2355 26.0625 80.2699 25.9363L80.2752 25.9171H80.2944H80.4929L80.4877 25.9475C80.4224 26.278 80.3429 26.6009 80.2728 26.9297L80.268 26.9493H80.2483H80.2482V26.9493ZM80.2274 26.8988C80.2943 26.5856 80.3702 26.2791 80.4323 25.9666H80.3136C80.2775 26.0924 80.2262 26.2474 80.1352 26.3736C80.0273 26.5234 79.8131 26.6644 79.5625 26.6953C79.4109 26.7109 79.2609 26.7189 79.119 26.7189C79.007 26.7189 78.8984 26.7137 78.7937 26.7064C78.6057 26.6856 78.4231 26.6055 78.424 26.3584V23.377C78.424 23.0562 78.6272 23.0397 78.843 23.0397H78.9625V22.9172C78.6774 22.9188 78.3967 22.94 78.1087 22.94C77.8092 22.94 77.5164 22.9188 77.2196 22.9172V23.0397H77.275C77.4815 23.0397 77.7341 23.0758 77.7341 23.3938V26.364C77.7341 26.7377 77.4827 26.7766 77.275 26.7766H77.2196V26.8988C77.7197 26.8984 78.2198 26.8767 78.7223 26.8767C79.2248 26.8767 79.727 26.8984 80.2274 26.8988Z" fill="#211E1F"/>
<path d="M80.3924 22.7266C80.7409 22.7266 81.0012 22.9941 81.0012 23.337C81.0012 23.6783 80.7409 23.9435 80.3924 23.9435C80.0439 23.9435 79.7832 23.6783 79.7832 23.337C79.7832 22.9942 80.0438 22.7266 80.3924 22.7266ZM80.3924 23.8301C80.6647 23.8301 80.874 23.5978 80.874 23.337C80.874 23.0747 80.6679 22.8403 80.3924 22.8403C80.1185 22.8403 79.9091 23.0747 79.9091 23.337C79.9091 23.5978 80.1185 23.8301 80.3924 23.8301ZM80.0892 23.6575V23.6274C80.1641 23.617 80.1778 23.6194 80.1778 23.5729V23.1227C80.1778 23.0595 80.171 23.0378 80.092 23.041V23.0102H80.4036C80.5111 23.0102 80.6093 23.061 80.6093 23.1716C80.6093 23.2621 80.5491 23.329 80.4653 23.355L80.5652 23.4944C80.6121 23.5577 80.6646 23.617 80.6995 23.6378V23.6574H80.5809C80.5239 23.6574 80.4742 23.5377 80.3618 23.377H80.2945V23.5793C80.2945 23.6194 80.3085 23.617 80.3835 23.6274V23.6574H80.0892V23.6575ZM80.2945 23.337H80.3663C80.4449 23.337 80.4818 23.2773 80.4818 23.1816C80.4818 23.0847 80.4248 23.0506 80.3623 23.0506H80.2945V23.337Z" fill="#211E1F"/>
<path d="M17.946 30.1883C23.4701 30.2147 28.5123 25.6883 28.5123 20.1819C28.5123 14.1602 23.4701 9.998 17.946 10H13.1918C7.60141 9.998 3 14.1615 3 20.1819C3 25.6895 7.60141 30.2147 13.1918 30.1883H17.946Z" fill="#0079BE"/>
<path d="M13.2138 10.8359C8.10547 10.8375 3.96605 14.9733 3.96484 20.0777C3.96605 25.1812 8.10543 29.3166 13.2138 29.3182C18.3233 29.3166 22.4636 25.1812 22.4643 20.0777C22.4635 14.9733 18.3233 10.8375 13.2138 10.8359ZM7.35113 20.0777C7.35595 17.5834 8.91555 15.4564 11.1148 14.6112V25.5429C8.91555 24.6982 7.35591 22.5724 7.35113 20.0777ZM15.312 25.5453V14.6109C17.512 15.454 19.074 17.5822 19.078 20.0777C19.074 22.574 17.512 24.7006 15.312 25.5453Z" fill="white"/>
<path d="M31.752 14.3425C31.752 13.3875 31.2535 13.4504 30.7754 13.44V13.1641C31.1897 13.1845 31.6144 13.1845 32.0295 13.1845C32.4758 13.1845 33.0818 13.1641 33.8686 13.1641C36.6204 13.1641 38.1191 15.0002 38.1191 16.8804C38.1191 17.9319 37.5031 20.5752 33.7406 20.5752C33.1988 20.5752 32.6988 20.5543 32.1995 20.5543C31.7215 20.5543 31.2535 20.5648 30.7754 20.5752V20.2996C31.4127 20.2355 31.7215 20.2143 31.7519 19.4921V14.3425H31.752ZM32.7938 19.3227C32.7938 20.1402 33.379 20.2355 33.8995 20.2355C36.1958 20.2355 36.9497 18.5047 36.9497 16.9225C36.9497 14.9377 35.674 13.5045 33.6232 13.5045C33.1869 13.5045 32.9864 13.5357 32.7939 13.547L32.7938 19.3227Z" fill="#211E1F"/>
<path d="M38.4922 20.2999H38.6935C38.9907 20.2999 39.2037 20.2999 39.2037 19.9485V17.0718C39.2037 16.6051 39.0444 16.5402 38.651 16.3291V16.1589C39.1503 16.0091 39.7463 15.8088 39.788 15.7767C39.8629 15.7343 39.9263 15.7231 39.9796 15.7231C40.0322 15.7231 40.0542 15.7872 40.0542 15.8725V19.9485C40.0542 20.2999 40.288 20.2999 40.5856 20.2999H40.7661V20.5759C40.4043 20.5759 40.0322 20.5547 39.6504 20.5547C39.2678 20.5547 38.8848 20.5651 38.4922 20.5759V20.2999H38.4922ZM39.6291 14.0883C39.3524 14.0883 39.1086 13.8336 39.1086 13.5576C39.1086 13.2916 39.3637 13.0469 39.6291 13.0469C39.9046 13.0469 40.15 13.2708 40.15 13.5576C40.15 13.8444 39.9155 14.0883 39.6291 14.0883Z" fill="#211E1F"/>
<path d="M41.7757 17.1346C41.7757 16.7421 41.6582 16.6363 41.1597 16.4345V16.233C41.6165 16.0844 42.0516 15.9462 42.5621 15.7227C42.5938 15.7227 42.625 15.7443 42.625 15.8288V16.5194C43.2318 16.0844 43.7528 15.7227 44.4658 15.7227C45.3681 15.7227 45.6868 16.3811 45.6868 17.2091V19.9482C45.6868 20.2995 45.9206 20.2995 46.2186 20.2995H46.4099V20.5755C46.0369 20.5755 45.6652 20.5543 45.2835 20.5543C44.9004 20.5543 44.5174 20.5647 44.1353 20.5755V20.2995H44.3262C44.6245 20.2995 44.8359 20.2995 44.8359 19.9482V17.1991C44.8359 16.593 44.4658 16.2962 43.859 16.2962C43.5193 16.2962 42.9771 16.5722 42.625 16.8061V19.9481C42.625 20.2994 42.86 20.2994 43.158 20.2994H43.3489V20.5754C42.9771 20.5754 42.6045 20.5542 42.222 20.5542C41.8398 20.5542 41.4564 20.5646 41.0742 20.5754V20.2994H41.2659C41.5635 20.2994 41.7756 20.2994 41.7756 19.9481V17.1346H41.7757Z" fill="#211E1F"/>
<path d="M47.2179 17.645C47.1958 17.7407 47.1958 17.8997 47.2179 18.261C47.2805 19.2692 47.9305 20.0972 48.7794 20.0972C49.3645 20.0972 49.8225 19.7788 50.2151 19.3862L50.3635 19.5352C49.8743 20.1825 49.2686 20.7345 48.3976 20.7345C46.7073 20.7345 46.3672 19.099 46.3672 18.4201C46.3672 16.3387 47.77 15.7227 48.5135 15.7227C49.3749 15.7227 50.3001 16.2639 50.3101 17.3894C50.3101 17.4539 50.3101 17.5168 50.3001 17.5813L50.2039 17.645H47.2179ZM49.0995 17.3049C49.3645 17.3049 49.3959 17.1667 49.3959 17.0397C49.3959 16.4981 49.0666 16.0627 48.4711 16.0627C47.8234 16.0627 47.377 16.5398 47.2495 17.3049H49.0995Z" fill="#211E1F"/>
<path d="M50.5527 20.2995H50.8399C51.1365 20.2995 51.3491 20.2995 51.3491 19.9482V16.9652C51.3491 16.6363 50.9566 16.5722 50.7966 16.4873V16.3287C51.5725 15.999 51.998 15.7227 52.0946 15.7227C52.1576 15.7227 52.1889 15.7547 52.1889 15.8613V16.8166H52.2114C52.4764 16.4028 52.9236 15.7227 53.5713 15.7227C53.8371 15.7227 54.1768 15.9029 54.1768 16.2854C54.1768 16.5722 53.9755 16.8278 53.678 16.8278C53.3471 16.8278 53.3471 16.5722 52.9758 16.5722C52.7949 16.5722 52.2002 16.8166 52.2002 17.4539V19.9482C52.2002 20.2995 52.4123 20.2995 52.7103 20.2995H53.305V20.5755C52.7203 20.5646 52.2755 20.5543 51.8176 20.5543C51.3821 20.5543 50.9353 20.5647 50.5528 20.5755V20.2995H50.5527Z" fill="#211E1F"/>
<path d="M54.6468 19.0989C54.7852 19.7999 55.2099 20.3948 55.9863 20.3948C56.6119 20.3948 56.846 20.0127 56.846 19.6409C56.846 18.388 54.5297 18.7914 54.5297 17.0822C54.5297 16.4873 55.0085 15.7227 56.1771 15.7227C56.5168 15.7227 56.9735 15.8188 57.3878 16.0315L57.4632 17.1134H57.2182C57.1123 16.4453 56.7406 16.0628 56.0596 16.0628C55.6345 16.0628 55.2311 16.3072 55.2311 16.7634C55.2311 18.0067 57.6966 17.6234 57.6966 19.2901C57.6966 19.9907 57.1331 20.7345 55.8683 20.7345C55.4432 20.7345 54.9439 20.5859 54.5722 20.374L54.4551 19.1527L54.6468 19.0989Z" fill="#211E1F"/>
<path d="M67.2939 15.0856H67.0287C66.8267 13.8439 65.9444 13.3444 64.7546 13.3444C63.5314 13.3444 61.7565 14.1615 61.7565 16.7095C61.7565 18.8557 63.2879 20.3946 64.9242 20.3946C65.976 20.3946 66.8483 19.6728 67.0608 18.5577L67.3047 18.621L67.0608 20.1711C66.6144 20.4479 65.4134 20.7343 64.7112 20.7343C62.2248 20.7343 60.6523 19.1309 60.6523 16.7419C60.6523 14.5653 62.5969 13.0039 64.6799 13.0039C65.5405 13.0039 66.3695 13.2811 67.188 13.5679L67.2939 15.0856Z" fill="#211E1F"/>
<path d="M67.6778 20.3015H67.8791C68.1771 20.3015 68.3904 20.3015 68.3904 19.9501V14.0371C68.3904 13.3465 68.2308 13.3252 67.8266 13.2087V13.0388C68.2516 12.9011 68.698 12.7096 68.9214 12.5818C69.0373 12.5186 69.1231 12.4648 69.1544 12.4648C69.2194 12.4648 69.2406 12.529 69.2406 12.6143V19.9501C69.2406 20.3015 69.474 20.3015 69.772 20.3015H69.9513V20.5774C69.5915 20.5774 69.2194 20.5562 68.8364 20.5562C68.4542 20.5562 68.0716 20.5667 67.6777 20.5774V20.3015H67.6778Z" fill="#211E1F"/>
<path d="M74.5004 19.9911C74.5004 20.183 74.6167 20.1934 74.7972 20.1934C74.9251 20.1934 75.0839 20.183 75.2227 20.183V20.4065C74.7652 20.4485 73.8937 20.6716 73.6915 20.7349L73.6382 20.7028V19.8437C73.0014 20.3636 72.5117 20.7349 71.7566 20.7349C71.1827 20.7349 70.5876 20.3636 70.5876 19.4723V16.7533C70.5876 16.4773 70.5455 16.2117 69.9512 16.1589V15.957C70.3342 15.9466 71.1828 15.8829 71.3215 15.8829C71.4394 15.8829 71.4394 15.957 71.4394 16.1905V18.9291C71.4394 19.2484 71.4394 20.1612 72.3634 20.1612C72.7247 20.1612 73.2027 19.8853 73.6487 19.5147V16.6571C73.6487 16.4456 73.1389 16.3291 72.7572 16.2225V16.0314C73.7125 15.9673 74.3087 15.8828 74.4143 15.8828C74.5004 15.8828 74.5004 15.9569 74.5004 16.0743V19.9911H74.5004Z" fill="#211E1F"/>
<path d="M76.6173 16.4893C77.042 16.1284 77.6158 15.7246 78.2009 15.7246C79.434 15.7246 80.1772 16.7982 80.1772 17.9545C80.1772 19.3453 79.1574 20.7364 77.6366 20.7364C76.8506 20.7364 76.4363 20.4813 76.1596 20.3651L75.8412 20.6086L75.6187 20.4925C75.7129 19.866 75.767 19.2499 75.767 18.6026V14.037C75.767 13.3465 75.6066 13.3252 75.2031 13.2087V13.0388C75.6295 12.9011 76.0746 12.7096 76.298 12.5818C76.4151 12.5185 76.4997 12.4648 76.5326 12.4648C76.5959 12.4648 76.6172 12.529 76.6172 12.6143V16.4893H76.6173V16.4893ZM76.6173 19.377C76.6173 19.7807 76.9994 20.4609 77.7116 20.4609C78.8489 20.4609 79.327 19.3453 79.327 18.4C79.327 17.2536 78.4564 16.2983 77.627 16.2983C77.2328 16.2983 76.9039 16.5535 76.6172 16.7982V19.377H76.6173Z" fill="#211E1F"/>
<path d="M30.7637 26.7492H30.8451C31.0528 26.7492 31.2726 26.7212 31.2726 26.4204V23.3937C31.2726 23.0925 31.0528 23.0641 30.8451 23.0641H30.7637V22.8906C30.9895 22.8906 31.3363 22.9135 31.6207 22.9135C31.9094 22.9135 32.2559 22.8906 32.5278 22.8906V23.0641H32.4464C32.2391 23.0641 32.0189 23.0925 32.0189 23.3937V26.4204C32.0189 26.7212 32.2391 26.7492 32.4464 26.7492H32.5278V26.9235C32.2503 26.9235 31.9026 26.9007 31.6143 26.9007C31.3308 26.9007 30.9895 26.9235 30.7637 26.9235V26.7492Z" fill="#211E1F"/>
<path d="M32.5272 26.9462C32.2477 26.9462 31.9013 26.923 31.6133 26.923C31.3306 26.923 30.9905 26.9462 30.7631 26.9462H30.7383V26.9214V26.748V26.7227H30.7631H30.8442C31.0538 26.7179 31.2448 26.7011 31.2468 26.4187V23.392C31.2448 23.1096 31.0539 23.0908 30.8442 23.0868H30.7383V23.0624V22.8633H30.7631C30.9905 22.8633 31.337 22.8861 31.6197 22.8861C31.9076 22.8861 32.2538 22.8633 32.5272 22.8633H32.5529V22.8897V23.0868H32.5272H32.4462C32.2365 23.0908 32.0444 23.1096 32.0432 23.392V26.4187C32.0444 26.7011 32.2364 26.7179 32.4462 26.7227H32.5529V26.748V26.9462H32.5272ZM32.5024 26.8969V26.7736H32.4463C32.2397 26.7736 31.9939 26.7379 31.9927 26.4187V23.392C31.9939 23.0728 32.2397 23.0367 32.4463 23.0367H32.5024V22.9142C32.2353 22.9142 31.9004 22.9366 31.6197 22.9366C31.345 22.9366 31.0125 22.9158 30.7888 22.9142V23.0367H30.8441C31.0502 23.0367 31.2969 23.0728 31.2969 23.392V26.4187C31.2969 26.738 31.0502 26.7736 30.8441 26.7736H30.7888V26.8969C31.0125 26.8945 31.3393 26.8737 31.6133 26.8737C31.8948 26.8737 32.2297 26.8953 32.5024 26.8969Z" fill="#211E1F"/>
<path d="M36.4998 25.7847L36.5114 25.7735V23.6073C36.5114 23.133 36.1814 23.0641 36.0081 23.0641H35.8805V22.8906C36.1528 22.8906 36.4187 22.9135 36.6902 22.9135C36.9272 22.9135 37.1654 22.8906 37.402 22.8906V23.0641H37.3154C37.072 23.0641 36.8001 23.1101 36.8001 23.7975V26.4268C36.8001 26.6287 36.8061 26.8306 36.8345 27.0097H36.6144L33.6368 23.6934V26.074C33.6368 26.5767 33.7342 26.7493 34.1802 26.7493H34.278V26.9236C34.0298 26.9236 33.7815 26.9007 33.5325 26.9007C33.273 26.9007 33.0068 26.9236 32.7461 26.9236V26.7493H32.8271C33.2261 26.7493 33.3473 26.4785 33.3473 26.0167V23.5833C33.3473 23.26 33.0806 23.0641 32.8215 23.0641H32.7461V22.8907C32.9659 22.8907 33.1913 22.9135 33.4106 22.9135C33.5842 22.9135 33.7523 22.8907 33.9255 22.8907L36.4998 25.7847Z" fill="#211E1F"/>
<path d="M36.8349 27.0362L36.5964 27.0274L33.6616 23.76V26.0753C33.6684 26.5776 33.745 26.7202 34.1805 26.7258H34.3044V26.7506V26.9493H34.2788C34.0285 26.9493 33.7795 26.9261 33.5328 26.9261C33.2738 26.9261 33.0083 26.9493 32.746 26.9493H32.7207V26.9245V26.7258H32.746H32.8274C33.2096 26.7238 33.3187 26.4786 33.3231 26.018V23.585C33.3222 23.2774 33.0696 23.0907 32.8218 23.0899H32.7207V23.0643V22.8672H32.746C32.967 22.8672 33.1935 22.8892 33.4105 22.8892C33.5825 22.8892 33.7502 22.8672 33.945 22.8756L36.4868 25.7336V23.6091C36.4836 23.1492 36.1768 23.0939 36.0083 23.0899H35.8551V23.0643V22.8672H35.8808C36.154 22.8672 36.4202 22.8892 36.6905 22.8892C36.9259 22.8892 37.1629 22.8672 37.4019 22.8672H37.4272V22.892V23.0899H37.4019H37.3157C37.0771 23.0967 36.8321 23.1175 36.8253 23.7989V26.4277C36.8253 26.6296 36.8313 26.8315 36.8594 27.0065L36.865 27.0362H36.8349V27.0362ZM36.6152 26.9853H36.8065C36.7805 26.8119 36.776 26.6196 36.776 26.4277V23.7989C36.776 23.1055 37.0668 23.0398 37.3158 23.0398H37.3768V22.9172C37.149 22.9188 36.9204 22.9396 36.6906 22.9396C36.426 22.9396 36.1685 22.9188 35.9066 22.9172L35.9062 23.0398H36.0085C36.1862 23.0398 36.5371 23.1191 36.5371 23.609L36.529 25.792L36.5174 25.8041L36.4978 25.8221L33.926 22.9172C33.7544 22.9172 33.5867 22.9396 33.4106 22.9396C33.1985 22.9396 32.9815 22.9188 32.7718 22.9172L32.7706 23.0398H32.8219C33.0934 23.0398 33.3721 23.2469 33.3721 23.585V26.018C33.3721 26.4798 33.2434 26.7754 32.8275 26.777L32.7718 26.7754V26.9C33.0224 26.8976 33.2799 26.8767 33.5329 26.8767C33.7744 26.8767 34.0146 26.8976 34.2536 26.9V26.777H34.1806C33.7254 26.7754 33.6123 26.5775 33.6119 26.0752V23.6298L36.6152 26.9853ZM36.5001 25.7856L36.5185 25.7688L36.5001 25.7856ZM36.4868 25.7745V25.7725L36.482 25.7684L36.4868 25.7745Z" fill="#211E1F"/>
<path d="M38.2696 23.1827C37.8353 23.1827 37.8189 23.2868 37.7322 23.7082H37.5586C37.5815 23.5468 37.6103 23.3853 37.628 23.2171C37.6512 23.0553 37.6624 22.8942 37.6624 22.7268H37.8016C37.8481 22.9003 37.9925 22.8943 38.1493 22.8943H41.1326C41.2889 22.8943 41.4333 22.8886 41.4454 22.7148L41.5833 22.7381C41.5608 22.8943 41.5376 23.0501 41.5199 23.2063C41.5095 23.3622 41.5095 23.5183 41.5095 23.6737L41.3354 23.7382C41.3234 23.5247 41.2945 23.1827 40.9075 23.1827H39.9591V26.2566C39.9591 26.702 40.1617 26.7529 40.4383 26.7529H40.5486V26.9271C40.3232 26.9271 39.9178 26.9043 39.6062 26.9043C39.2594 26.9043 38.8539 26.9271 38.6281 26.9271V26.7529H38.7384C39.0572 26.7529 39.2184 26.7244 39.2184 26.2686V23.1827H38.2696Z" fill="#211E1F"/>
<path d="M40.5491 26.9496C40.3213 26.9496 39.9166 26.9264 39.6058 26.9264C39.2593 26.9264 38.8547 26.9496 38.6277 26.9496H38.6037V26.9252V26.7261H38.6277H38.738C39.0568 26.7185 39.1851 26.7145 39.1924 26.2667V23.206H38.2692V23.1807V23.1551H39.2425V26.2667C39.2425 26.7301 39.0557 26.777 38.738 26.7774H38.653V26.8991C38.8812 26.898 39.2702 26.8771 39.6059 26.8771C39.9075 26.8771 40.294 26.898 40.5226 26.8991V26.7774H40.438C40.1585 26.777 39.9335 26.7085 39.9335 26.2546V23.1551H40.9072C41.2954 23.1567 41.3459 23.4864 41.3588 23.7007L41.4835 23.6546C41.4835 23.504 41.4843 23.353 41.4947 23.2008C41.5116 23.0521 41.5328 22.9047 41.5545 22.7573L41.4662 22.7425C41.4394 22.9108 41.2769 22.9192 41.1313 22.9176H38.1489H38.1188C37.9829 22.9176 37.8341 22.9112 37.7823 22.7498H37.6869C37.6861 22.9096 37.6748 23.0646 37.6528 23.2184C37.6359 23.377 37.6095 23.5297 37.5878 23.6823H37.7118C37.7879 23.2797 37.8377 23.1491 38.2692 23.1551V23.1808V23.206C37.8417 23.2136 37.8505 23.2857 37.7562 23.7127L37.7519 23.7323H37.7318H37.5293L37.5325 23.7023C37.5558 23.5405 37.5851 23.3794 37.6023 23.2112C37.6263 23.0509 37.6376 22.8907 37.6376 22.7249V22.6997H37.662H37.8208L37.8249 22.7177C37.8646 22.8635 37.9716 22.8643 38.1188 22.8667H38.1489H41.1313C41.2926 22.8643 41.4097 22.8619 41.4197 22.7108L41.4221 22.6836L41.4482 22.6892L41.6114 22.7149L41.6077 22.7401C41.5845 22.8947 41.5616 23.0509 41.5448 23.206C41.5332 23.3598 41.5332 23.516 41.5332 23.6718V23.6898L41.5171 23.6963L41.3122 23.7707L41.3106 23.7371C41.2954 23.52 41.2725 23.2059 40.9072 23.2059H39.984V26.2546C39.9892 26.6904 40.1624 26.7204 40.4379 26.7261H40.5735V26.7509V26.9496L40.5491 26.9496Z" fill="#211E1F"/>
<path d="M41.7656 26.7492H41.847C42.0548 26.7492 42.2749 26.7212 42.2749 26.4204V23.3937C42.2749 23.0925 42.0548 23.0641 41.847 23.0641H41.7656V22.8906C42.1177 22.8906 42.7201 22.9135 43.2049 22.9135C43.6918 22.9135 44.2921 22.8906 44.6851 22.8906C44.6755 23.1386 44.6807 23.5207 44.6979 23.7743L44.5235 23.8207C44.4958 23.4454 44.4264 23.1454 43.8189 23.1454H43.0156V24.6583H43.703C44.0499 24.6583 44.1257 24.4625 44.1598 24.1497H44.333C44.3218 24.3759 44.3158 24.6011 44.3158 24.8262C44.3158 25.0461 44.3218 25.2652 44.333 25.4847L44.1598 25.5191C44.1257 25.1727 44.1081 24.9475 43.7086 24.9475H43.0157V26.293C43.0157 26.6692 43.3497 26.6692 43.7203 26.6692C44.4144 26.6692 44.7204 26.6223 44.8941 25.9646L45.0562 26.0042C44.9803 26.3111 44.9113 26.6167 44.86 26.9235C44.4895 26.9235 43.8242 26.9007 43.3044 26.9007C42.783 26.9007 42.0954 26.9235 41.7656 26.9235V26.7492Z" fill="#211E1F"/>
<path d="M44.8606 26.9493C44.4892 26.9493 43.8243 26.9256 43.305 26.9256C42.7841 26.9256 42.0967 26.9493 41.7666 26.9493H41.7422V26.9249V26.7506V26.7258H41.7666H41.8477C42.0574 26.7226 42.2474 26.7042 42.2503 26.4218V23.3951C42.2475 23.1131 42.0574 23.0943 41.8477 23.0899H41.7422V23.0655V22.8672H41.7666C42.1195 22.8672 42.7211 22.8892 43.2059 22.8892C43.6923 22.8892 44.2923 22.8672 44.6861 22.8672H44.7122L44.7109 22.8928C44.7069 22.9797 44.7054 23.0822 44.7054 23.1912C44.7054 23.3911 44.7109 23.6094 44.7226 23.7741L44.7234 23.7949L44.7042 23.8005L44.5008 23.8534L44.4997 23.8238C44.4656 23.4488 44.4155 23.1769 43.82 23.1713H43.0408L43.0399 24.6337H43.7041C44.037 24.6305 44.0966 24.4603 44.136 24.149L44.138 24.1262H44.1604H44.3598L44.3594 24.1522C44.3482 24.3773 44.3409 24.6024 44.3409 24.8275C44.3409 25.0462 44.3482 25.2653 44.3594 25.4853L44.3598 25.5057L44.3389 25.5105L44.138 25.5505L44.136 25.5233C44.0963 25.1708 44.0934 24.9777 43.7092 24.9734L43.0407 24.9729V26.2944C43.0412 26.6453 43.3443 26.6433 43.7213 26.6453C44.4175 26.6413 44.6966 26.6077 44.8711 25.9587L44.8767 25.9355L44.9011 25.9399L45.0865 25.9875L45.0808 26.0116C45.0062 26.3176 44.9368 26.6228 44.8851 26.9288L44.8803 26.9493H44.8606ZM44.8393 26.8988C44.8895 26.6076 44.9556 26.3152 45.0266 26.0244L44.9123 25.9955C44.7391 26.6421 44.4037 26.6997 43.7212 26.6954C43.3571 26.6954 42.9922 26.6954 42.9905 26.2943V24.9236H43.7092C44.113 24.9192 44.1544 25.1628 44.1828 25.4916L44.308 25.4656C44.2967 25.2529 44.2915 25.0394 44.2915 24.8275C44.2915 24.61 44.2967 24.3937 44.308 24.1762H44.1828C44.1508 24.477 44.0565 24.6885 43.704 24.6845H42.9906V23.1207H43.82C44.4215 23.1167 44.5213 23.4267 44.547 23.79L44.6718 23.7564C44.6617 23.5934 44.6548 23.3843 44.6548 23.1912C44.6548 23.0923 44.6573 22.9989 44.6605 22.9172C44.2675 22.9188 43.682 22.9396 43.2059 22.9396C42.7307 22.9396 42.1457 22.9188 41.7915 22.9172V23.0398H41.8476C42.0537 23.0398 42.3 23.0758 42.3008 23.3951V26.4218C42.3 26.7402 42.0537 26.7755 41.8476 26.7771H41.7915V26.8988C42.1288 26.8984 42.7969 26.8768 43.305 26.8768C43.8151 26.8768 44.4663 26.8984 44.8393 26.8988Z" fill="#211E1F"/>
<path d="M45.8391 23.5031C45.8391 23.0817 45.6081 23.0645 45.4281 23.0645H45.3242V22.8906C45.5095 22.8906 45.8676 22.9139 46.2205 22.9139C46.5674 22.9139 46.8453 22.8906 47.1513 22.8906C47.8795 22.8906 48.5281 23.0873 48.5281 23.9085C48.5281 24.4272 48.1812 24.7452 47.7244 24.9251L48.7129 26.4031C48.8749 26.6475 48.99 26.716 49.274 26.7496V26.9239C49.0831 26.9239 48.8977 26.901 48.7073 26.901C48.528 26.901 48.3423 26.9239 48.1638 26.9239C47.7187 26.3403 47.3361 25.7162 46.9603 25.0513H46.5798V26.2882C46.5798 26.7336 46.7872 26.7496 47.053 26.7496H47.1573V26.9239C46.8268 26.9239 46.4929 26.9011 46.1628 26.9011C45.8849 26.9011 45.6129 26.9239 45.3242 26.9239V26.7496H45.4281C45.643 26.7496 45.8391 26.6527 45.8391 26.4384V23.5031ZM46.5798 24.8434H46.8621C47.4408 24.8434 47.7524 24.6239 47.7524 23.9421C47.7524 23.4286 47.4232 23.0989 46.9078 23.0989C46.7342 23.0989 46.6604 23.1169 46.5797 23.1221V24.8434H46.5798Z" fill="#211E1F"/>
<path d="M49.2739 26.9461C49.0802 26.9461 48.8961 26.9229 48.7061 26.9229C48.5296 26.9229 48.3451 26.9461 48.1434 26.9365C47.6999 26.3553 47.3197 25.7348 46.9459 25.0747H46.6043V26.2852C46.6103 26.7198 46.7851 26.7162 47.0526 26.7226H47.1821V26.7475V26.9462H47.1564C46.826 26.9462 46.4904 26.9229 46.1619 26.9229C45.8856 26.9229 45.6145 26.9462 45.3241 26.9462H45.2988V26.9213V26.7226H45.3241H45.428C45.6365 26.7214 45.8122 26.6309 45.813 26.4362V23.501C45.8086 23.0908 45.6077 23.0932 45.428 23.0872H45.2988V23.0624V22.8633H45.3241C45.5114 22.8633 45.8683 22.8861 46.2204 22.8861C46.5657 22.8861 46.8437 22.8633 47.1517 22.8633C47.8803 22.8649 48.5517 23.066 48.5536 23.9047C48.5536 24.4267 48.2084 24.7523 47.762 24.9342L48.7337 26.3874C48.8953 26.6269 48.996 26.6866 49.2775 26.7226L49.2987 26.7259V26.7475V26.9462H49.2739V26.9461ZM46.579 25.0242H46.9744L46.9812 25.037C47.3582 25.7007 47.7379 26.324 48.1639 26.8968C48.3403 26.8968 48.526 26.8732 48.7061 26.8732C48.8909 26.8732 49.0689 26.8932 49.249 26.896V26.7694C48.9775 26.7358 48.8504 26.6549 48.6924 26.4149L47.6862 24.9108L47.7147 24.8992C48.1671 24.7214 48.5019 24.4125 48.5023 23.9046C48.5019 23.1031 47.8787 22.9172 47.1517 22.914C46.8464 22.914 46.5689 22.9369 46.2204 22.9369C45.8808 22.9369 45.5379 22.9156 45.3486 22.914V23.0366H45.428C45.6077 23.037 45.8635 23.0666 45.8635 23.5009V26.4362C45.8635 26.6681 45.6457 26.7738 45.428 26.7742H45.3486V26.896C45.6269 26.8952 45.8904 26.8732 46.1619 26.8732C46.4855 26.8732 46.8116 26.8952 47.1316 26.896V26.7742H47.0526C46.7887 26.7738 46.5537 26.741 46.5537 26.2852V25.0242H46.579H46.579ZM46.579 24.8656H46.5537V23.0967L46.5757 23.0947C46.6548 23.0887 46.733 23.0723 46.9078 23.0723C47.4348 23.0723 47.7773 23.4143 47.778 23.941C47.7765 24.6308 47.4452 24.8651 46.8621 24.8655H46.579V24.8656ZM46.8621 24.8159C47.4347 24.8111 47.7227 24.6125 47.7287 23.9411C47.7255 23.4364 47.4115 23.1231 46.9078 23.1211C46.7514 23.1211 46.678 23.1355 46.6042 23.142V24.8159H46.8621Z" fill="#211E1F"/>
<path d="M53.1985 25.7847L53.2089 25.7735V23.6073C53.2089 23.133 52.8797 23.0641 52.7065 23.0641H52.5798V22.8906C52.8513 22.8906 53.1168 22.9135 53.389 22.9135C53.6264 22.9135 53.8627 22.8906 54.1013 22.8906V23.0641H54.0142C53.7713 23.0641 53.4993 23.1101 53.4993 23.7975V26.4268C53.4993 26.6287 53.505 26.8306 53.5334 27.0097H53.3141L50.336 23.6934V26.074C50.336 26.5767 50.4343 26.7493 50.8794 26.7493H50.9777V26.9236C50.7294 26.9236 50.4804 26.9007 50.2322 26.9007C49.971 26.9007 49.7052 26.9236 49.4453 26.9236V26.7493H49.5255C49.925 26.7493 50.0465 26.4785 50.0465 26.0167V23.5833C50.0465 23.26 49.7805 23.0641 49.5207 23.0641H49.4453V22.8907C49.6643 22.8907 49.8909 22.9135 50.1102 22.9135C50.2827 22.9135 50.4511 22.8907 50.6247 22.8907L53.1985 25.7847Z" fill="#211E1F"/>
<path d="M53.5344 27.0366L53.2963 27.0286L50.3612 23.7608V26.0757C50.368 26.5784 50.4442 26.7209 50.8805 26.7266H51.0028V26.7514V26.9501H50.9775C50.7274 26.9501 50.4794 26.9264 50.2316 26.9264C49.9734 26.9264 49.7063 26.9501 49.446 26.9501H49.4199V26.9257V26.7266H49.446H49.5262C49.908 26.725 50.0175 26.4794 50.0211 26.0172V23.5854C50.0207 23.2777 49.7685 23.0911 49.5214 23.0907H49.4199V23.0663V22.8672H49.446C49.6666 22.8672 49.8928 22.89 50.1109 22.89C50.2809 22.89 50.4486 22.8672 50.6427 22.8752L53.1848 25.7344V23.609C53.1832 23.1499 52.8752 23.0931 52.7072 23.0907H52.5544V23.0663V22.8672H52.5797C52.8532 22.8672 53.1194 22.89 53.3897 22.89C53.6256 22.89 53.8626 22.8672 54.1007 22.8672H54.126V22.8932V23.0907H54.1007H54.0149C53.7763 23.0971 53.5304 23.1183 53.5244 23.7997V26.4285C53.5244 26.6304 53.5297 26.8307 53.5589 27.0086L53.5621 27.0366H53.5344ZM53.3147 26.9861H53.5048C53.4795 26.8127 53.4739 26.6204 53.4739 26.4285V23.7997C53.4743 23.1062 53.7671 23.0422 54.0149 23.0402H54.0754V22.918C53.8484 22.9196 53.6195 22.9405 53.3897 22.9405C53.1242 22.9405 52.8663 22.9196 52.6045 22.918V23.0402H52.7072C52.8852 23.0422 53.2357 23.1199 53.2357 23.609L53.2277 25.7928L53.2165 25.8049L53.1989 25.8233L50.6251 22.9181C50.4534 22.9181 50.2857 22.9405 50.1109 22.9405C49.8968 22.9405 49.6806 22.9197 49.4701 22.9181V23.0402H49.5214C49.7929 23.0422 50.0716 23.2469 50.0716 23.5854V26.0172C50.0716 26.481 49.9409 26.7762 49.5262 26.7778L49.4701 26.7774V26.8996C49.7199 26.8984 49.9778 26.8776 50.2316 26.8776C50.4743 26.8776 50.7145 26.8984 50.9535 26.8996V26.7778H50.8805C50.425 26.7774 50.3111 26.5784 50.3103 26.0756V23.6314L53.3147 26.9861ZM53.1992 25.7864L53.2168 25.77L53.1992 25.7864ZM53.1848 25.7756V25.7736L53.1803 25.7692L53.1848 25.7756Z" fill="#211E1F"/>
<path d="M55.0309 26.0976C54.9724 26.2935 54.9027 26.4449 54.9027 26.5478C54.9027 26.7217 55.1461 26.7497 55.3362 26.7497H55.4007V26.9239C55.169 26.9115 54.9327 26.9011 54.6997 26.9011C54.4916 26.9011 54.2847 26.9116 54.0762 26.9239V26.7497H54.111C54.3364 26.7497 54.5277 26.6171 54.6131 26.374L55.5395 23.723C55.6141 23.5091 55.7191 23.2203 55.7541 23.0061C55.9382 22.9432 56.1699 22.8278 56.2795 22.7581C56.2975 22.7521 56.3075 22.7461 56.3256 22.7461C56.3428 22.7461 56.354 22.7461 56.3668 22.7641C56.3837 22.8098 56.4005 22.8623 56.419 22.9083L57.4829 25.9302C57.5523 26.132 57.6208 26.3455 57.6959 26.5194C57.7657 26.6812 57.8875 26.7497 58.0788 26.7497H58.1129V26.9239C57.8527 26.9115 57.5921 26.9012 57.3153 26.9012C57.0318 26.9012 56.7418 26.9116 56.4471 26.9239V26.7497H56.5113C56.6436 26.7497 56.8698 26.7273 56.8698 26.5827C56.8698 26.5078 56.8176 26.3519 56.7531 26.1665L56.5281 25.4963H55.2156L55.0309 26.0976ZM55.8747 23.538H55.8631L55.3253 25.1731H56.4061L55.8747 23.538Z" fill="#211E1F"/>
<path d="M58.1131 26.9502C57.8529 26.9385 57.5926 26.9265 57.3171 26.9265C57.0335 26.9265 56.7456 26.9385 56.4496 26.9502L56.4235 26.9518V26.9257V26.7258H56.4488H56.5126C56.6466 26.7258 56.8454 26.6954 56.8454 26.5845C56.8471 26.5188 56.7949 26.3601 56.7311 26.1763L56.511 25.523H55.2353L55.0557 26.1066C54.9971 26.3037 54.9278 26.4563 54.9281 26.5504C54.9301 26.6914 55.1463 26.7258 55.338 26.7258H55.427V26.7519V26.9518L55.401 26.9502C55.1696 26.9385 54.9334 26.9265 54.7028 26.9265C54.4954 26.9265 54.2869 26.9385 54.0796 26.9502L54.0527 26.9518V26.9257V26.7258H54.078H54.1125C54.3278 26.725 54.5075 26.6029 54.5909 26.3678L55.5169 23.7165C55.5927 23.5022 55.697 23.2142 55.7471 22.9839C55.9283 22.9226 56.1605 22.8064 56.272 22.7359C56.2881 22.7307 56.3042 22.7227 56.3278 22.7227C56.3419 22.7223 56.3731 22.7259 56.3916 22.7564C56.408 22.804 56.426 22.8553 56.4437 22.9022L57.5088 25.9236C57.5771 26.1263 57.646 26.3398 57.7214 26.5104C57.7884 26.6647 57.8947 26.7251 58.0807 26.7259H58.1397V26.752V26.9518L58.1131 26.9502ZM56.4741 26.8985C56.7604 26.8885 57.0408 26.8773 57.3171 26.8773C57.5857 26.8773 57.8372 26.8885 58.0886 26.8985V26.7779H58.0806C57.8825 26.7791 57.7457 26.7014 57.6747 26.5312C57.5994 26.3557 57.5288 26.1414 57.461 25.9391L56.3963 22.9181C56.3787 22.8721 56.3618 22.8196 56.3465 22.7787C56.3418 22.7731 56.3429 22.7731 56.3382 22.7731H56.3277C56.3157 22.7731 56.3088 22.7767 56.294 22.7807C56.1825 22.8532 55.9504 22.9666 55.779 23.0118C55.7434 23.2306 55.6395 23.519 55.5641 23.7329L54.6386 26.3846C54.5504 26.6353 54.3478 26.7783 54.1124 26.7779H54.1032V26.8985C54.3013 26.8885 54.5018 26.8773 54.7027 26.8773C54.9261 26.8773 55.1547 26.8885 55.3753 26.8985V26.7779H55.338C55.1499 26.7755 54.8868 26.7542 54.8796 26.5504C54.88 26.435 54.951 26.2872 55.0075 26.0922L55.0328 26.0997L55.0075 26.0913L55.198 25.4737H56.5463L56.7784 26.1603C56.8434 26.3457 56.8959 26.4995 56.8959 26.5845C56.8879 26.7619 56.6437 26.7743 56.5126 26.7779H56.474V26.8985H56.4741ZM55.2919 25.1997L55.8457 23.5145H55.8649H55.877V23.5397L55.8706 23.541L55.877 23.5397V23.5145H55.8942L56.4432 25.1997H55.2919ZM55.3612 25.1496H56.3734L55.8701 23.6014L55.3612 25.1496ZM55.8517 23.547L55.8649 23.5426L55.8517 23.547Z" fill="#211E1F"/>
<path d="M58.3682 23.1827C57.9342 23.1827 57.917 23.2868 57.8299 23.7082H57.6562C57.6791 23.5468 57.7084 23.3853 57.7265 23.2171C57.7497 23.0553 57.7602 22.8942 57.7602 22.7268H57.8997C57.9458 22.9003 58.091 22.8943 58.2462 22.8943H61.2311C61.3863 22.8943 61.5307 22.8886 61.5427 22.7148L61.6811 22.7381C61.659 22.8943 61.6362 23.0501 61.6185 23.2063C61.6061 23.3622 61.6061 23.5183 61.6061 23.6737L61.4328 23.7382C61.422 23.5247 61.3931 23.1827 61.0053 23.1827H60.0569V26.2566C60.0569 26.702 60.2599 26.7529 60.5366 26.7529H60.6464V26.9271C60.421 26.9271 60.0168 26.9043 59.7039 26.9043C59.3575 26.9043 58.952 26.9271 58.7267 26.9271V26.7529H58.8362C59.1549 26.7529 59.317 26.7244 59.317 26.2686V23.1827H58.3682Z" fill="#211E1F"/>
<path d="M60.6464 26.9496C60.4194 26.9496 60.0144 26.9264 59.704 26.9264C59.3583 26.9264 58.9532 26.9496 58.7267 26.9496H58.701V26.9252V26.7261H58.7267H58.8361C59.1549 26.7185 59.2829 26.7145 59.2909 26.2666L59.2901 23.206H58.3681V23.1807V23.1551H59.341V26.2666C59.341 26.7301 59.1537 26.7757 58.8361 26.7769H58.7512V26.9003C58.9801 26.8979 59.3683 26.8771 59.704 26.8771C60.0059 26.8771 60.3926 26.8979 60.6211 26.9003V26.7769H60.5357C60.2577 26.7757 60.0324 26.7088 60.0316 26.2546V23.1551H61.0053C61.3935 23.1567 61.4444 23.4863 61.4553 23.7006L61.5816 23.6546C61.5816 23.5039 61.582 23.3529 61.5932 23.2015C61.6092 23.0529 61.6309 22.9047 61.6522 22.7573L61.5648 22.7424C61.5383 22.9107 61.3751 22.9199 61.2311 22.9175H58.2462H58.2169C58.0806 22.9191 57.933 22.9111 57.8804 22.7488H57.7858C57.7842 22.9091 57.7734 23.0645 57.7505 23.2183C57.7353 23.3774 57.7068 23.5304 57.6852 23.6822H57.8091C57.8857 23.2796 57.9358 23.149 58.3681 23.1551V23.1807V23.2059C57.9394 23.2132 57.9491 23.2856 57.8543 23.7126L57.85 23.7323H57.8299H57.627L57.6306 23.7034C57.6546 23.5404 57.6835 23.3793 57.7003 23.2123C57.724 23.0509 57.7353 22.8906 57.7353 22.7248V22.6996H57.7601H57.9181L57.9229 22.7176C57.9634 22.8634 58.0688 22.8642 58.2169 22.8666L58.2461 22.8674H61.231C61.3906 22.8642 61.5073 22.8618 61.5173 22.7112L61.519 22.6836L61.5462 22.6892L61.7103 22.7149L61.7059 22.7401C61.6822 22.8947 61.6601 23.0509 61.6425 23.206C61.6309 23.3598 61.6309 23.5164 61.6309 23.6718V23.6898L61.6145 23.6963L61.4095 23.7708L61.4084 23.7371C61.3935 23.52 61.3706 23.2059 61.0053 23.2059H60.0818V26.2546C60.0878 26.6904 60.2606 26.7204 60.5357 26.7261H60.6712V26.7509V26.9496L60.6464 26.9496Z" fill="#211E1F"/>
<path d="M61.8945 26.7492H61.9756C62.1845 26.7492 62.403 26.7212 62.403 26.4204V23.3937C62.403 23.0925 62.1845 23.0641 61.9756 23.0641H61.8945V22.8906C62.1204 22.8906 62.4668 22.9135 62.7495 22.9135C63.0399 22.9135 63.3868 22.8906 63.6587 22.8906V23.0641H63.5777C63.3696 23.0641 63.149 23.0925 63.149 23.3937V26.4204C63.149 26.7212 63.3696 26.7492 63.5777 26.7492H63.6587V26.9235C63.3807 26.9235 63.0335 26.9007 62.7452 26.9007C62.4612 26.9007 62.1204 26.9235 61.8945 26.9235V26.7492Z" fill="#211E1F"/>
<path d="M63.6585 26.9493C63.379 26.9493 63.0329 26.9256 62.7446 26.9256C62.4618 26.9256 62.1202 26.9493 61.8944 26.9493H61.8691V26.9249V26.7506V26.7258H61.8944H61.9754C62.1843 26.7226 62.376 26.7046 62.3768 26.4218V23.3951C62.376 23.1131 62.1843 23.0938 61.9754 23.0899H61.8691V23.0655V22.8672H61.8944C62.1202 22.8672 62.4675 22.8892 62.7494 22.8892C63.0377 22.8892 63.3846 22.8672 63.6585 22.8672H63.683V22.892V23.0899H63.6585H63.5775C63.3661 23.0939 63.1765 23.1131 63.1736 23.3951V26.4218C63.1765 26.7046 63.3662 26.7226 63.5775 26.7258H63.683V26.7506V26.9493H63.6585ZM63.6325 26.8988V26.7766H63.5775C63.3702 26.7766 63.1248 26.7402 63.1248 26.4218V23.3951C63.1248 23.0758 63.3702 23.0398 63.5775 23.0398H63.6325V22.9172C63.3654 22.9188 63.0313 22.9396 62.7494 22.9396C62.4755 22.9396 62.1438 22.9188 61.9197 22.9172V23.0398H61.9755C62.1811 23.0398 62.4274 23.0758 62.4282 23.3951V26.4218C62.4274 26.7402 62.1811 26.7766 61.9755 26.7766H61.9197V26.8988C62.1427 26.8964 62.4699 26.8768 62.7446 26.8768C63.0249 26.8768 63.3598 26.8976 63.6324 26.8988H63.6325Z" fill="#211E1F"/>
<path d="M65.9651 22.8047C67.1978 22.8047 68.1803 23.5682 68.1803 24.7983C68.1803 26.1274 67.2263 27.0106 65.9951 27.0106C64.768 27.0106 63.832 26.1786 63.832 24.9365C63.832 23.7352 64.7624 22.8047 65.9651 22.8047ZM66.0525 26.7562C67.1746 26.7562 67.3699 25.7676 67.3699 24.9253C67.3699 24.0809 66.9143 23.0586 65.9539 23.0586C64.9417 23.0586 64.6413 23.9599 64.6413 24.7334C64.6413 25.7676 65.1153 26.7562 66.0525 26.7562Z" fill="#211E1F"/>
<path d="M63.8066 24.9383C63.8091 23.723 64.7507 22.7829 65.9654 22.7812V22.8065V22.8309C64.7768 22.8309 63.8568 23.7494 63.8556 24.9382C63.8584 26.1664 64.7812 26.9859 65.9955 26.9863C67.2146 26.9859 68.1551 26.1151 68.157 24.7989C68.1558 23.5844 67.1881 22.8325 65.9655 22.8309V22.8065V22.7812C67.2078 22.7821 68.2036 23.5531 68.206 24.7989C68.2048 26.1419 67.2382 27.0344 65.9955 27.0368C64.7587 27.0344 63.8091 26.194 63.8067 24.9382H63.8066V24.9383ZM64.6168 24.7352C64.6184 23.9581 64.9223 23.0344 65.9546 23.0344C66.9363 23.0368 67.3947 24.0783 67.3962 24.9271C67.3947 25.7694 67.1962 26.7821 66.0533 26.7821V26.7581V26.7332C67.1529 26.7316 67.3434 25.7694 67.3461 24.9271C67.3461 24.0895 66.8946 23.0869 65.9546 23.0857C64.9624 23.0869 64.6689 23.9657 64.6669 24.7352C64.6677 25.7642 65.1373 26.7308 66.0533 26.7332V26.7581V26.7821C65.0932 26.7809 64.6184 25.7755 64.6168 24.7352Z" fill="#211E1F"/>
<path d="M72.0779 25.7847L72.0895 25.7735V23.6073C72.0895 23.133 71.7591 23.0641 71.5854 23.0641H71.4603V22.8906C71.7314 22.8906 71.9973 22.9135 72.2683 22.9135C72.5062 22.9135 72.7432 22.8906 72.9806 22.8906V23.0641H72.8931C72.6509 23.0641 72.3786 23.1101 72.3786 23.7975V26.4268C72.3786 26.6287 72.3843 26.8306 72.4136 27.0097H72.1941L69.2153 23.6934V26.074C69.2153 26.5767 69.3132 26.7493 69.7583 26.7493H69.8573V26.9236C69.6083 26.9236 69.3601 26.9007 69.1114 26.9007C68.8511 26.9007 68.5845 26.9236 68.3242 26.9236V26.7493H68.4056C68.8055 26.7493 68.9254 26.4785 68.9254 26.0167V23.5833C68.9254 23.26 68.6606 23.0641 68.3996 23.0641H68.3242V22.8907C68.5439 22.8907 68.7697 22.9135 68.9891 22.9135C69.1628 22.9135 69.33 22.8907 69.504 22.8907L72.0779 25.7847Z" fill="#211E1F"/>
<path d="M72.415 27.0358L72.1757 27.0274L69.2413 23.76V26.0753C69.2477 26.5776 69.3242 26.7198 69.7586 26.725H69.8837V26.751V26.9493H69.8584C69.6078 26.9493 69.3596 26.9261 69.1125 26.9261C68.853 26.9261 68.5876 26.9493 68.3248 26.9493H68.3008V26.9245V26.725H68.3248H68.4067C68.7881 26.7238 68.8976 26.4787 68.9023 26.018V23.5846C68.9015 23.277 68.6492 23.0903 68.4006 23.0899H68.3008V23.0655V22.8672H68.3248C68.5467 22.8672 68.772 22.8893 68.9902 22.8893C69.1618 22.8893 69.3287 22.8672 69.5243 22.8756L72.0653 25.7336V23.6091C72.0636 23.1493 71.7557 23.0939 71.5864 23.0899H71.4345V23.0655V22.8673H71.4605C71.7328 22.8673 71.9995 22.8893 72.2685 22.8893C72.5059 22.8893 72.7418 22.8673 72.9816 22.8673H73.0064V22.8921V23.0899H72.9816H72.8941C72.6563 23.0967 72.4101 23.1184 72.4053 23.7989V26.4278C72.4053 26.6297 72.4097 26.8311 72.4378 27.0078L72.4426 27.0358H72.415V27.0358ZM72.1953 26.9853H72.3846C72.3594 26.8119 72.3549 26.6196 72.3549 26.4277V23.7989C72.3549 23.1043 72.6465 23.0414 72.8943 23.0394H72.9569V22.9172C72.7287 22.9188 72.5001 22.9396 72.2688 22.9396C72.0057 22.9396 71.747 22.9188 71.4851 22.9172V23.0394H71.5865C71.7658 23.0414 72.1147 23.1203 72.1147 23.609L72.1084 25.792L72.0975 25.8041L72.0791 25.8225L69.5053 22.9173C69.3348 22.9173 69.166 22.9397 68.9903 22.9397C68.7774 22.9397 68.5604 22.9189 68.3499 22.9173V23.0394H68.4008C68.6723 23.0414 68.9518 23.2461 68.9518 23.5846V26.018C68.9518 26.4798 68.8227 26.7755 68.4068 26.7771L68.3499 26.7766V26.8988C68.6009 26.8976 68.8584 26.8768 69.1126 26.8768C69.3536 26.8768 69.5931 26.8976 69.8333 26.8988V26.7771H69.7587C69.3048 26.7766 69.1913 26.5776 69.1913 26.0752V23.6298L72.1953 26.9853ZM72.079 25.7856L72.0974 25.7692L72.079 25.7856ZM72.0654 25.7748V25.7728L72.0605 25.7684L72.0654 25.7748Z" fill="#211E1F"/>
<path d="M73.9099 26.0976C73.8533 26.2935 73.7832 26.4449 73.7832 26.5478C73.7832 26.7217 74.0266 26.7497 74.2163 26.7497H74.2808V26.9239C74.0494 26.9115 73.8121 26.9011 73.5807 26.9011C73.3717 26.9011 73.1644 26.9116 72.957 26.9239V26.7497H72.9899C73.2165 26.7497 73.4082 26.6171 73.4936 26.374L74.42 23.723C74.4946 23.5091 74.5992 23.2203 74.633 23.0061C74.8182 22.9432 75.0492 22.8278 75.1603 22.7581C75.1767 22.7521 75.1884 22.7461 75.206 22.7461C75.2233 22.7461 75.2341 22.7461 75.2457 22.7641C75.2634 22.8098 75.2815 22.8623 75.2987 22.9083L76.3622 25.9302C76.4316 26.132 76.5006 26.3455 76.5768 26.5194C76.6461 26.6812 76.7681 26.7497 76.9581 26.7497H76.9935V26.9239C76.7328 26.9115 76.4725 26.9012 76.1946 26.9012C75.9119 26.9012 75.6223 26.9116 75.3272 26.9239V26.7497H75.3914C75.5233 26.7497 75.7503 26.7273 75.7503 26.5827C75.7503 26.5078 75.6977 26.3519 75.6332 26.1665L75.4086 25.4963H74.0956L73.9099 26.0976ZM74.7552 23.538H74.7437L74.2051 25.1731H75.2874L74.7552 23.538Z" fill="#211E1F"/>
<path d="M76.9909 26.9493C76.7306 26.9389 76.4708 26.9261 76.1945 26.9261C75.9125 26.9261 75.623 26.9389 75.3278 26.9493L75.3022 26.9509V26.9245V26.7258H75.327H75.39C75.5247 26.7258 75.724 26.6946 75.7244 26.5836C75.7256 26.5179 75.6735 26.3605 75.609 26.1754L75.3892 25.5221H74.1128L73.9339 26.1057C73.8761 26.3036 73.8071 26.4554 73.8084 26.5488C73.8084 26.6906 74.0248 26.7258 74.2162 26.7258H74.3044V26.7506V26.9509L74.2788 26.9493C74.0473 26.9389 73.8107 26.9261 73.5806 26.9261C73.3733 26.9261 73.1654 26.9389 72.9569 26.9493L72.9316 26.9509V26.9245V26.7258H72.9569H72.9898C73.2055 26.725 73.386 26.6012 73.4703 26.3669L74.3958 23.7156C74.4696 23.5013 74.5739 23.2133 74.6252 22.9838C74.8069 22.9209 75.039 22.8055 75.1514 22.735C75.1666 22.7298 75.1823 22.723 75.2059 22.723C75.2212 22.7214 75.2507 22.725 75.2692 22.7566C75.2865 22.8019 75.3033 22.8544 75.3226 22.9012L76.3861 25.9227C76.4551 26.1254 76.5245 26.3389 76.5994 26.5107C76.6672 26.6637 76.7727 26.7242 76.9572 26.7258H77.0173V26.7506V26.9509L76.9909 26.9493ZM75.3519 26.8984C75.6378 26.8876 75.9194 26.8764 76.1945 26.8764C76.4635 26.8764 76.7158 26.8876 76.9676 26.8976L76.9668 26.777H76.9572C76.7615 26.7774 76.6248 26.7005 76.553 26.5303C76.4768 26.3549 76.4078 26.1406 76.3388 25.939L75.2744 22.9172C75.2572 22.8712 75.2396 22.8187 75.2256 22.7794C75.2207 22.7722 75.2212 22.7722 75.2167 22.7722H75.2059C75.1939 22.7722 75.1874 22.7762 75.1733 22.7802C75.0607 22.8511 74.8289 22.9665 74.6577 23.011C74.6219 23.2297 74.5169 23.5177 74.4424 23.732L73.5164 26.3837C73.4285 26.6344 73.2264 26.7774 72.9898 26.777H72.9813V26.8976C73.1803 26.8876 73.3791 26.8764 73.5805 26.8764C73.8047 26.8764 74.0328 26.8876 74.2554 26.8976V26.777H74.2161C74.0281 26.7746 73.7642 26.7542 73.7574 26.5487C73.7586 26.4342 73.8303 26.2872 73.8861 26.0913L73.9098 26.0989L73.8861 26.0904L74.0766 25.4728H75.4253L75.657 26.1593C75.7208 26.3452 75.7733 26.4987 75.7733 26.5836C75.7649 26.761 75.5223 26.7734 75.3899 26.777H75.3518V26.8984H75.3519ZM74.1705 25.1985L74.7251 23.5137H74.7427H74.7552V23.5389L74.7491 23.5401L74.7552 23.5389V23.5137H74.7732L75.3198 25.1985H74.1705ZM74.2398 25.1488H75.2513L74.7483 23.6014L74.2398 25.1488ZM74.7311 23.5462L74.7427 23.5418L74.7311 23.5462Z" fill="#211E1F"/>
<path d="M78.4509 26.3571C78.4509 26.5882 78.6113 26.6571 78.7966 26.6807C79.0336 26.6984 79.2939 26.6984 79.561 26.6691C79.8032 26.6399 80.0117 26.5013 80.1151 26.3571C80.2074 26.2297 80.2596 26.0679 80.2944 25.9409H80.4621C80.3987 26.2702 80.3177 26.5946 80.2479 26.9235C79.7402 26.9235 79.2301 26.9006 78.7219 26.9006C78.2123 26.9006 77.7042 26.9235 77.1953 26.9235V26.7492H77.2747C77.484 26.7492 77.7102 26.7212 77.7102 26.3627V23.3937C77.7102 23.0925 77.484 23.0641 77.2747 23.0641H77.1953V22.8906C77.5009 22.8906 77.802 22.9135 78.108 22.9135C78.404 22.9135 78.6928 22.8906 78.9879 22.8906V23.0641H78.8423C78.6233 23.0641 78.4509 23.0705 78.4509 23.3757V26.3571Z" fill="#211E1F"/>
<path d="M80.2482 26.9493C79.7386 26.9493 79.2297 26.926 78.7223 26.926C78.213 26.926 77.7041 26.9493 77.1944 26.9493H77.1699V26.9244V26.7258H77.1944H77.275C77.4848 26.7209 77.6829 26.7065 77.6853 26.364V23.3939C77.6828 23.1131 77.4859 23.0939 77.275 23.0899H77.1699V23.0655V22.8672H77.1944C77.502 22.8672 77.8032 22.8892 78.1087 22.8892C78.4023 22.8892 78.6911 22.8672 78.9882 22.8672H79.0119V22.892V23.0899H78.9882H78.8431C78.6189 23.0963 78.4793 23.0859 78.4749 23.3771V26.3585C78.4765 26.5736 78.6177 26.6317 78.7982 26.6569C78.9004 26.6641 79.0075 26.6685 79.119 26.6685C79.2605 26.6685 79.4077 26.6617 79.5569 26.6457C79.7927 26.6181 79.9956 26.4823 80.0951 26.3445C80.1841 26.2211 80.2355 26.0625 80.2699 25.9363L80.2752 25.9171H80.2944H80.4929L80.4877 25.9475C80.4224 26.278 80.3429 26.6009 80.2728 26.9297L80.268 26.9493H80.2483H80.2482V26.9493ZM80.2274 26.8988C80.2943 26.5856 80.3702 26.2791 80.4323 25.9666H80.3136C80.2775 26.0924 80.2262 26.2474 80.1352 26.3736C80.0273 26.5234 79.8131 26.6644 79.5625 26.6953C79.4109 26.7109 79.2609 26.7189 79.119 26.7189C79.007 26.7189 78.8984 26.7137 78.7937 26.7064C78.6057 26.6856 78.4231 26.6055 78.424 26.3584V23.377C78.424 23.0562 78.6272 23.0397 78.843 23.0397H78.9625V22.9172C78.6774 22.9188 78.3967 22.94 78.1087 22.94C77.8092 22.94 77.5164 22.9188 77.2196 22.9172V23.0397H77.275C77.4815 23.0397 77.7341 23.0758 77.7341 23.3938V26.364C77.7341 26.7377 77.4827 26.7766 77.275 26.7766H77.2196V26.8988C77.7197 26.8984 78.2198 26.8767 78.7223 26.8767C79.2248 26.8767 79.727 26.8984 80.2274 26.8988Z" fill="#211E1F"/>
<path d="M80.3924 22.7266C80.7409 22.7266 81.0012 22.9941 81.0012 23.337C81.0012 23.6783 80.7409 23.9435 80.3924 23.9435C80.0439 23.9435 79.7832 23.6783 79.7832 23.337C79.7832 22.9942 80.0438 22.7266 80.3924 22.7266ZM80.3924 23.8301C80.6647 23.8301 80.874 23.5978 80.874 23.337C80.874 23.0747 80.6679 22.8403 80.3924 22.8403C80.1185 22.8403 79.9091 23.0747 79.9091 23.337C79.9091 23.5978 80.1185 23.8301 80.3924 23.8301ZM80.0892 23.6575V23.6274C80.1641 23.617 80.1778 23.6194 80.1778 23.5729V23.1227C80.1778 23.0595 80.171 23.0378 80.092 23.041V23.0102H80.4036C80.5111 23.0102 80.6093 23.061 80.6093 23.1716C80.6093 23.2621 80.5491 23.329 80.4653 23.355L80.5652 23.4944C80.6121 23.5577 80.6646 23.617 80.6995 23.6378V23.6574H80.5809C80.5239 23.6574 80.4742 23.5377 80.3618 23.377H80.2945V23.5793C80.2945 23.6194 80.3085 23.617 80.3835 23.6274V23.6574H80.0892V23.6575ZM80.2945 23.337H80.3663C80.4449 23.337 80.4818 23.2773 80.4818 23.1816C80.4818 23.0847 80.4248 23.0506 80.3623 23.0506H80.2945V23.337Z" fill="#211E1F"/>
</svg>
