<svg xmlns="http://www.w3.org/2000/svg" viewBox="0 0 84 40"><defs><style>.cls-1{fill:#201d1c;}.cls-2{fill:#ff6f00;}</style></defs><path class="cls-1" d="M10.22,14.29H7V25.55h3.21a5.89,5.89,0,0,0,4-1.3,5.65,5.65,0,0,0,2-4.32C16.27,16.6,13.78,14.29,10.22,14.29Zm2.57,8.46a4.19,4.19,0,0,1-3,.89H9.19V16.2h.59a4.07,4.07,0,0,1,3,.91A3.77,3.77,0,0,1,14,19.91,3.87,3.87,0,0,1,12.79,22.75Z"/><rect class="cls-1" x="17.28" y="14.29" width="2.2" height="11.26"/><path class="cls-1" d="M24.84,18.61c-1.32-.49-1.7-.81-1.7-1.42S23.83,16,24.77,16a2.27,2.27,0,0,1,1.77.91l1.15-1.51a4.93,4.93,0,0,0-3.31-1.24,3.3,3.3,0,0,0-3.51,3.22c0,1.55.71,2.35,2.77,3.09a8.22,8.22,0,0,1,1.52.64,1.35,1.35,0,0,1,.66,1.16,1.61,1.61,0,0,1-1.71,1.59,2.58,2.58,0,0,1-2.39-1.5L20.3,23.68a4.39,4.39,0,0,0,3.9,2.14,3.63,3.63,0,0,0,3.88-3.7C28.08,20.34,27.34,19.53,24.84,18.61Z"/><path class="cls-1" d="M28.77,19.93a5.83,5.83,0,0,0,5.94,5.87,6.1,6.1,0,0,0,2.76-.66V22.56a3.51,3.51,0,0,1-2.65,1.23A3.68,3.68,0,0,1,31,19.91a3.67,3.67,0,0,1,6.44-2.6V14.73A5.63,5.63,0,0,0,34.76,14,5.92,5.92,0,0,0,28.77,19.93Z"/><polygon class="cls-1" points="54.88 21.85 51.87 14.29 49.48 14.29 54.25 25.84 55.43 25.84 60.3 14.29 57.92 14.29 54.88 21.85"/><polygon class="cls-1" points="61.29 25.55 67.52 25.55 67.52 23.64 63.48 23.64 63.48 20.6 67.37 20.6 67.37 18.7 63.48 18.7 63.48 16.2 67.52 16.2 67.52 14.29 61.29 14.29 61.29 25.55"/><path class="cls-1" d="M73.65,20.8a3,3,0,0,0,2.56-3.19c0-2.1-1.45-3.32-4-3.32H69V25.55h2.19V21h.29l3,4.53h2.7Zm-1.84-1.33h-.65V16.06h.68c1.37,0,2.11.58,2.11,1.67S73.21,19.47,71.81,19.47Z"/><circle class="cls-2" cx="44.13" cy="20.01" r="6.17"/></svg>