<svg xmlns="http://www.w3.org/2000/svg" xmlns:xlink="http://www.w3.org/1999/xlink" viewBox="0 0 84 40"><defs><style>.cls-1{fill:#fff;}.cls-2{fill:url(#linear-gradient);}.cls-3{fill:#4aa35b;}.cls-4{fill:url(#linear-gradient-2);}.cls-5{fill:#214f9c;}.cls-6{fill:#da3833;}</style><linearGradient id="linear-gradient" x1="340.43" y1="-381.29" x2="354.75" y2="-381.29" gradientTransform="matrix(1, 0, 0, -1, -289.5, -359)" gradientUnits="userSpaceOnUse"><stop offset="0" stop-color="#007940"/><stop offset="0.23" stop-color="#00873f"/><stop offset="0.74" stop-color="#40a737"/><stop offset="1" stop-color="#5cb531"/></linearGradient><linearGradient id="linear-gradient-2" x1="340.43" y1="-376.64" x2="354.75" y2="-376.64" xlink:href="#linear-gradient"/></defs><path class="cls-1" d="M68.1,32A8.1,8.1,0,0,1,60,40.13H16v-32A8.1,8.1,0,0,1,24.09,0h44V32Z"/><path class="cls-2" d="M53.77,23.82h3.35l.41,0a1.49,1.49,0,0,0,1.18-1.5,1.54,1.54,0,0,0-1.18-1.49,1.76,1.76,0,0,0-.41,0H53.77Z"/><path class="cls-3" d="M56.73,2.71A5.79,5.79,0,0,0,50.94,8.5v6h8.18a3.57,3.57,0,0,1,.58,0c1.84.1,3.21,1.06,3.21,2.71a2.7,2.7,0,0,1-2.64,2.64V20c1.88.13,3.31,1.18,3.31,2.8s-1.59,2.9-3.69,2.9h-9V37.45h8.5a5.8,5.8,0,0,0,5.8-5.79V2.71Z"/><path class="cls-4" d="M58.3,17.64a1.37,1.37,0,0,0-1.18-1.37l-.32,0h-3v2.81h3c.09,0,.29,0,.32,0a1.35,1.35,0,0,0,1.18-1.37Z"/><path class="cls-5" d="M24.69,2.71A5.79,5.79,0,0,0,18.9,8.5V22.8a11.39,11.39,0,0,0,5,1.31A2.78,2.78,0,0,0,27,21.24V14.49h5v6.72C32,23.82,30.33,26,24.82,26a24.18,24.18,0,0,1-5.95-.74v12.2h8.5a5.8,5.8,0,0,0,5.8-5.79V2.71Z"/><path class="cls-6" d="M40.71,2.71A5.79,5.79,0,0,0,34.92,8.5v7.58c1.46-1.24,4-2,8.12-1.84a25.17,25.17,0,0,1,4.55.7v2.45a11,11,0,0,0-4.39-1.28c-3.12-.22-5,1.31-5,4s1.88,4.23,5,4a11.45,11.45,0,0,0,4.39-1.28v2.46A25.62,25.62,0,0,1,43,26c-4.11.19-6.66-.61-8.12-1.85V37.49h8.5a5.8,5.8,0,0,0,5.8-5.8v-29Z"/></svg>