<svg viewBox="0 0 84 40" fill="none" xmlns="http://www.w3.org/2000/svg">
<path d="M47.3874 27.4697H35.8516V6.8125H47.3874V27.4697Z" fill="#6C6BBD"/>
<path d="M36.5888 17.1359C36.5888 12.9455 38.5578 9.21277 41.6242 6.80727C39.3819 5.04824 36.5519 3.99834 33.4763 3.99834C26.1952 3.99834 20.293 9.88013 20.293 17.1359C20.293 24.3917 26.1952 30.2734 33.4763 30.2734C36.5519 30.2734 39.3819 29.2235 41.6242 27.4645C38.5578 25.059 36.5888 21.3263 36.5888 17.1359Z" fill="#EB001B"/>
<path d="M62.9434 17.1359C62.9434 24.3917 57.0412 30.2734 49.7601 30.2734C46.6845 30.2734 43.8545 29.2235 41.6113 27.4645C44.6785 25.059 46.6476 21.3263 46.6476 17.1359C46.6476 12.9455 44.6785 9.21277 41.6113 6.80727C43.8545 5.04824 46.6845 3.99834 49.7601 3.99834C57.0412 3.99834 62.9434 9.88013 62.9434 17.1359Z" fill="#0099DF"/>
<path d="M51.2762 33.3015C51.4296 33.3015 51.6501 33.3307 51.8186 33.3967L51.5839 34.1117C51.4229 34.0457 51.262 34.024 51.1077 34.024C50.6098 34.024 50.3609 34.3447 50.3609 34.9211V36.8772H49.5989V33.3892H50.3533V33.8127C50.5511 33.5061 50.837 33.3015 51.2762 33.3015ZM48.4614 34.0825H47.2165V35.6586C47.2165 36.0085 47.3406 36.2424 47.722 36.2424C47.9198 36.2424 48.1688 36.1764 48.3951 36.0453L48.6148 36.6943C48.3733 36.8622 47.9928 36.9649 47.6633 36.9649C46.7622 36.9649 46.4479 36.483 46.4479 35.6728V34.0825H45.737V33.3892H46.4479V32.331H47.2165V33.3892H48.4614V34.0825ZM38.7132 34.8267C38.7945 34.323 39.1013 33.9797 39.6437 33.9797C40.1341 33.9797 40.4493 34.2863 40.5297 34.8267H38.7132ZM41.321 35.1332C41.3135 34.0457 40.6395 33.3015 39.6579 33.3015C38.6327 33.3015 37.9152 34.0457 37.9152 35.1332C37.9152 36.2416 38.6621 36.9641 39.7099 36.9641C40.2372 36.9641 40.72 36.8329 41.145 36.4754L40.7711 35.9133C40.4786 36.1472 40.1047 36.2783 39.7535 36.2783C39.2631 36.2783 38.8163 36.052 38.7065 35.4247H41.306C41.3135 35.3295 41.321 35.2351 41.321 35.1332ZM44.6674 34.2796C44.4553 34.1476 44.0236 33.9797 43.5768 33.9797C43.1594 33.9797 42.9104 34.1334 42.9104 34.389C42.9104 34.622 43.1736 34.688 43.503 34.7315L43.8618 34.7824C44.6238 34.8927 45.0848 35.2134 45.0848 35.8265C45.0848 36.4905 44.4989 36.9649 43.4888 36.9649C42.9171 36.9649 42.3898 36.8187 41.9724 36.5122L42.3312 35.9208C42.5877 36.118 42.9691 36.2858 43.4963 36.2858C44.0161 36.2858 44.2944 36.133 44.2944 35.8624C44.2944 35.6661 44.0965 35.5558 43.6791 35.4982L43.3203 35.4473C42.5365 35.337 42.1115 34.987 42.1115 34.4182C42.1115 33.725 42.6832 33.3015 43.5693 33.3015C44.1259 33.3015 44.6313 33.426 44.9968 33.6665L44.6674 34.2796ZM54.0601 34.0223C53.9034 34.0223 53.7583 34.0499 53.6234 34.1042C53.4892 34.1593 53.3727 34.2362 53.2747 34.3347C53.1766 34.4333 53.0995 34.5519 53.0433 34.6897C52.9871 34.8275 52.9595 34.9795 52.9595 35.1449C52.9595 35.3111 52.9871 35.4623 53.0433 35.6001C53.0995 35.7379 53.1766 35.8565 53.2747 35.9551C53.3727 36.0536 53.4892 36.1305 53.6234 36.1856C53.7583 36.2407 53.9034 36.2675 54.0601 36.2675C54.2169 36.2675 54.3627 36.2407 54.4968 36.1856C54.6318 36.1305 54.7492 36.0536 54.8472 35.9551C54.947 35.8565 55.0241 35.7379 55.0811 35.6001C55.1373 35.4623 55.1649 35.3111 55.1649 35.1449C55.1649 34.9795 55.1373 34.8275 55.0811 34.6897C55.0241 34.5519 54.947 34.4333 54.8472 34.3347C54.7492 34.2362 54.6318 34.1593 54.4968 34.1042C54.3627 34.0499 54.2169 34.0223 54.0601 34.0223ZM54.0601 33.3015C54.3317 33.3015 54.5832 33.3483 54.8145 33.4427C55.0459 33.5362 55.2462 33.6657 55.4147 33.8302C55.5841 33.9948 55.7157 34.1894 55.8112 34.4132C55.9068 34.6379 55.9546 34.8818 55.9546 35.1449C55.9546 35.408 55.9068 35.6519 55.8112 35.8766C55.7157 36.1004 55.5841 36.2959 55.4147 36.4604C55.2462 36.625 55.0459 36.7536 54.8145 36.848C54.5832 36.9415 54.3317 36.9883 54.0601 36.9883C53.7885 36.9883 53.537 36.9415 53.3057 36.848C53.0743 36.7536 52.8756 36.625 52.708 36.4604C52.5403 36.2959 52.4087 36.1004 52.3132 35.8766C52.2176 35.6519 52.1698 35.408 52.1698 35.1449C52.1698 34.8818 52.2176 34.6379 52.3132 34.4132C52.4087 34.1894 52.5403 33.9948 52.708 33.8302C52.8756 33.6657 53.0743 33.5362 53.3057 33.4427C53.537 33.3483 53.7885 33.3015 54.0601 33.3015ZM34.2637 35.1332C34.2637 34.5201 34.6669 34.0165 35.3258 34.0165C35.9553 34.0165 36.3803 34.4984 36.3803 35.1332C36.3803 35.768 35.9553 36.2491 35.3258 36.2491C34.6669 36.2491 34.2637 35.7463 34.2637 35.1332ZM37.0979 35.1332V33.3892H36.3367V33.8127C36.0945 33.4986 35.729 33.3015 35.2311 33.3015C34.2495 33.3015 33.4808 34.0674 33.4808 35.1332C33.4808 36.1981 34.2495 36.9649 35.2311 36.9649C35.729 36.9649 36.0945 36.7678 36.3367 36.4537V36.8772H37.0979V35.1332ZM32.8068 36.8772V34.688C32.8068 33.8636 32.2796 33.309 31.4304 33.3015C30.9836 33.294 30.5217 33.4326 30.1998 33.9221C29.9584 33.5354 29.577 33.3015 29.0422 33.3015C28.6692 33.3015 28.3028 33.4109 28.017 33.8194V33.3892H27.2559V36.8772H28.0245V34.9436C28.0245 34.3381 28.3615 34.0165 28.8812 34.0165C29.3867 34.0165 29.6432 34.3447 29.6432 34.9361V36.8772H30.4119V34.9436C30.4119 34.3381 30.764 34.0165 31.2686 34.0165C31.7892 34.0165 32.0381 34.3447 32.0381 34.9361V36.8772H32.8068Z" fill="#231F20"/>
</svg>
