<svg viewBox="0 0 84 40" fill="none" xmlns="http://www.w3.org/2000/svg">
<path d="M48.1641 8.99609H35.834V31.0013H48.1641V8.99609Z" fill="#FF5F00"/>
<path d="M36.618 20.004C36.618 15.533 38.7317 11.5674 41.9806 9.00145C39.5929 7.13529 36.5789 6.00781 33.2908 6.00781C25.5013 6.00781 19.1992 12.2672 19.1992 20.004C19.1992 27.7408 25.5013 34.0003 33.2908 34.0003C36.5789 34.0003 39.5929 32.8728 41.9806 31.0066C38.7317 28.4795 36.618 24.4751 36.618 20.004Z" fill="#EC001B"/>
<path d="M64.801 19.9962C64.801 27.733 58.4989 33.9925 50.7094 33.9925C47.4213 33.9925 44.4073 32.865 42.0195 30.9988C45.3076 28.4328 47.3822 24.4672 47.3822 19.9962C47.3822 15.5252 45.2684 11.5596 42.0195 8.99364C44.4073 7.12748 47.4213 6 50.7094 6C58.4989 6 64.801 12.2983 64.801 19.9962Z" fill="#F89E1B"/>
</svg>
