<svg xmlns="http://www.w3.org/2000/svg" viewBox="0 0 84 40"><defs><style>.cls-1{fill:#0f754e;}.cls-1,.cls-2{fill-rule:evenodd;}.cls-2{fill:#05a8fc;}</style></defs><path class="cls-1" d="M15.29,10.46c.61,0,2.41-.17,3.18,2.41q.77,2.61,2.46,8.55h.46q1.8-6.27,2.48-8.55a3,3,0,0,1,3.48-2.41h6V29H27.24V18.07h-.41L23.44,29H18.87L15.48,18.07h-.4V29H9V10.46Zm26.75,0V21.39h.48l4.12-9a3.25,3.25,0,0,1,2.51-1.94H55V29h-6.2V18.07h-.49l-4,9A3.34,3.34,0,0,1,41.72,29H35.84V10.46Zm34.43,8.81a6.92,6.92,0,0,1-6.59,4.21H63.37V29h-5.9V19.27Z"/><path class="cls-2" d="M70.16,10.46h-13c.31,4.13,3.86,7.66,7.54,7.66H76.88A6.48,6.48,0,0,0,70.16,10.46Z"/></svg>