<svg viewBox="0 0 84 40" fill="none" xmlns="http://www.w3.org/2000/svg">
<path d="M25.8379 3H39.4045C41.2982 3 42.4761 4.54359 42.0343 6.44365L35.7181 33.5616C35.2724 35.4551 33.3763 37 31.4812 37H17.9159C16.0248 37 14.8443 35.4551 15.286 33.5616L21.6049 6.44365C22.0467 4.54359 23.9418 3 25.8379 3Z" fill="#E21836"/>
<path d="M38.2745 3H53.8758C55.7692 3 54.9154 4.54359 54.47 6.44365L48.1548 33.5616C47.7117 35.4551 47.8499 37 45.9525 37H30.3512C28.4538 37 27.2796 35.4551 27.7253 33.5616L34.0402 6.44365C34.4886 4.54359 36.3798 3 38.2745 3Z" fill="#00447C"/>
<path d="M53.2563 3H66.8229C68.7193 3 69.8972 4.54359 69.4518 6.44365L63.1365 33.5616C62.6908 35.4551 60.7934 37 58.8973 37H45.337C43.4396 37 42.2627 35.4551 42.7071 33.5616L49.0233 6.44365C49.4651 4.54359 51.3589 3 53.2563 3Z" fill="#007B84"/>
<path d="M29.3795 11.6924C27.9844 11.7066 27.5724 11.6924 27.4408 11.6613C27.3902 11.9017 26.4488 16.2445 26.4461 16.2481C26.2434 17.1267 26.0959 17.753 25.595 18.1574C25.3106 18.3925 24.9786 18.506 24.5937 18.506C23.975 18.506 23.6145 18.1988 23.554 17.6161L23.5425 17.4161C23.5425 17.4161 23.7309 16.2392 23.7309 16.2326C23.7309 16.2326 24.719 12.2751 24.8959 11.7519C24.9052 11.7222 24.9078 11.7066 24.9101 11.6924C22.9869 11.7093 22.646 11.6924 22.6225 11.6613C22.6096 11.704 22.562 11.9493 22.562 11.9493L21.5531 16.4098L21.4665 16.7881L21.2988 18.0255C21.2988 18.3925 21.3709 18.6921 21.5144 18.9454C21.9741 19.7486 23.2852 19.869 24.0269 19.869C24.9825 19.869 25.879 19.666 26.4848 19.2953C27.5363 18.674 27.8115 17.7028 28.0568 16.8397L28.1706 16.3969C28.1706 16.3969 29.1884 12.2866 29.3613 11.7519C29.368 11.7222 29.3706 11.7066 29.3795 11.6924ZM32.8426 15.0082C32.5972 15.0082 32.1488 15.0677 31.7461 15.2652C31.5999 15.3402 31.4617 15.4269 31.3159 15.5132L31.4475 15.038L31.3754 14.958C30.5213 15.1309 30.3301 15.1541 29.5411 15.2652L29.475 15.3091C29.3834 16.0687 29.3021 16.6398 28.9625 18.1328C28.8332 18.683 28.6989 19.2385 28.5643 19.7875L28.6007 19.8572C29.4092 19.8146 29.6546 19.8146 30.3572 19.8262L30.4141 19.7643C30.5034 19.307 30.515 19.1999 30.7127 18.2736C30.8056 17.8345 30.9994 16.8696 31.095 16.526C31.2706 16.4447 31.4438 16.3647 31.6092 16.3647C32.003 16.3647 31.9551 16.7082 31.9398 16.8451C31.923 17.0749 31.7795 17.8256 31.6323 18.4701L31.5341 18.886C31.4657 19.1932 31.3906 19.4918 31.3221 19.7964L31.3519 19.8572C32.1488 19.8146 32.3919 19.8146 33.0724 19.8262L33.1524 19.7643C33.2754 19.0501 33.3115 18.8589 33.5297 17.819L33.6395 17.3411C33.8528 16.406 33.9599 15.9318 33.7986 15.5456C33.6279 15.1127 33.2186 15.0082 32.8426 15.0082ZM36.7112 15.9873C36.2876 16.0687 36.0175 16.1229 35.749 16.1579C35.4828 16.2006 35.2232 16.2393 34.8138 16.2962L34.7814 16.3256L34.7516 16.3491C34.709 16.654 34.6792 16.9175 34.6227 17.2273C34.5747 17.5478 34.501 17.9118 34.381 18.435C34.288 18.8354 34.2401 18.975 34.1872 19.1158C34.1356 19.2567 34.0787 19.3936 33.9742 19.7874L33.9987 19.8238L34.0192 19.8572C34.4018 19.839 34.6521 19.8261 34.9094 19.8238C35.1663 19.8146 35.4325 19.8238 35.8445 19.8261L35.8806 19.7967L35.9193 19.7643C35.9788 19.4091 35.9877 19.3136 36.0241 19.1403C36.0601 18.9545 36.1223 18.6972 36.2747 18.0101C36.3468 17.6873 36.4272 17.3656 36.5019 17.0362C36.5796 16.7082 36.661 16.3851 36.7383 16.0624L36.7268 16.0234L36.7112 15.9873ZM36.7203 14.6672C36.3353 14.44 35.6598 14.5121 35.2051 14.8259C34.7517 15.1334 34.7002 15.5699 35.0837 15.8001C35.462 16.021 36.1402 15.9552 36.591 15.6387C37.0433 15.3246 37.0999 14.8921 36.7203 14.6672ZM39.048 19.9284C39.8268 19.9284 40.625 19.7138 41.2259 19.0769C41.6881 18.5604 41.9001 17.7919 41.9735 17.4755C42.2126 16.4266 42.0264 15.9368 41.7926 15.6386C41.4375 15.1839 40.8099 15.038 40.1588 15.038C39.7673 15.038 38.8348 15.0767 38.1063 15.7483C37.5831 16.2328 37.3414 16.8902 37.1956 17.5204C37.0484 18.1626 36.8791 19.3186 37.9423 19.7488C38.2703 19.8897 38.7432 19.9284 39.048 19.9284ZM38.9872 17.5684C39.1668 16.7741 39.3787 16.1075 39.9197 16.1075C40.3436 16.1075 40.3744 16.6035 40.1859 17.4004C40.1522 17.5773 39.9974 18.235 39.7881 18.5151C39.6419 18.7218 39.469 18.8471 39.2779 18.8471C39.221 18.8471 38.8827 18.8471 38.8774 18.3448C38.8748 18.0968 38.9254 17.8435 38.9872 17.5684ZM43.9202 19.8263L43.981 19.7644C44.0674 19.3071 44.0816 19.1996 44.2727 18.2737C44.3683 17.8346 44.566 16.8697 44.6589 16.5261C44.8349 16.4444 45.0051 16.3644 45.1758 16.3644C45.567 16.3644 45.5193 16.708 45.5038 16.8449C45.4896 17.075 45.3461 17.8253 45.1963 18.4698L45.1034 18.8858C45.0323 19.1933 44.9549 19.4916 44.8864 19.7965L44.9162 19.8573C45.7158 19.8147 45.9496 19.8147 46.6341 19.8263L46.7167 19.7644C46.8368 19.0498 46.8692 18.8587 47.094 17.8191L47.2012 17.3409C47.4154 16.4058 47.5239 15.9319 47.3652 15.5457C47.1896 15.1128 46.7776 15.0083 46.4069 15.0083C46.1612 15.0083 45.7105 15.0675 45.31 15.2653C45.1668 15.3403 45.0233 15.4266 44.8825 15.5133L45.0051 15.0381L44.9393 14.9577C44.0855 15.131 43.8904 15.1541 43.1024 15.2653L43.0419 15.3092C42.9464 16.0688 42.8687 16.6395 42.5291 18.1329C42.3998 18.6831 42.2655 19.2386 42.1313 19.7876L42.1673 19.8573C42.9771 19.8147 43.2188 19.8147 43.9202 19.8263ZM49.7948 19.8572C49.8451 19.6118 50.1437 18.1575 50.1463 18.1575C50.1463 18.1575 50.4006 17.0904 50.4161 17.0517C50.4161 17.0517 50.4962 16.9406 50.5762 16.8966H50.6939C51.8047 16.8966 53.0589 16.8966 54.042 16.1735C54.711 15.6774 55.1683 14.945 55.3723 14.0548C55.4252 13.8366 55.4642 13.577 55.4642 13.3174C55.4642 12.9765 55.3958 12.6392 55.198 12.3757C54.6967 11.6743 53.6984 11.6614 52.546 11.6561C52.5424 11.6561 51.9779 11.6614 51.9779 11.6614C50.5028 11.6796 49.9112 11.6743 49.6682 11.6445C49.6477 11.752 49.609 11.9431 49.609 11.9431C49.609 11.9431 49.0806 14.3921 49.0806 14.3961C49.0806 14.3961 47.8161 19.6029 47.7565 19.8482C49.0445 19.8327 49.5726 19.8327 49.7948 19.8572ZM50.7739 15.5068C50.7739 15.5068 51.3358 13.0628 51.3331 13.0721L51.3513 12.9467L51.3592 12.8512L51.5838 12.8743C51.5838 12.8743 52.7424 12.9738 52.7696 12.9765C53.2269 13.1534 53.4154 13.6094 53.2838 14.2046C53.1637 14.7486 52.8109 15.2059 52.3575 15.4268C51.9842 15.614 51.5269 15.6295 51.0557 15.6295H50.7508L50.7739 15.5068ZM54.272 17.6136C54.1235 18.2466 53.9529 19.4026 55.0107 19.8146C55.348 19.9581 55.6502 20.0008 55.9574 19.9852C56.2818 19.9677 56.5824 19.805 56.8608 19.5709C56.8357 19.6671 56.8105 19.7634 56.7854 19.8599L56.8334 19.9218C57.5942 19.8897 57.8303 19.8897 58.6547 19.896L58.7295 19.8391C58.8498 19.1314 58.9632 18.4443 59.2761 17.0905C59.4285 16.4421 59.5806 15.7999 59.737 15.1541L59.7125 15.083C58.8614 15.2407 58.6339 15.2744 57.8151 15.3905L57.753 15.4411C57.7447 15.5069 57.7361 15.5701 57.7282 15.6332C57.6009 15.4276 57.4163 15.252 57.1316 15.1425C56.7676 14.9993 55.9124 15.1838 55.1773 15.8531C54.6608 16.331 54.4128 16.9857 54.272 17.6136ZM56.0596 17.6523C56.2418 16.8723 56.4511 16.2122 56.9934 16.2122C57.3363 16.2122 57.5169 16.5287 57.4802 17.0684C57.4511 17.2029 57.4196 17.3448 57.3823 17.5052C57.328 17.737 57.2692 17.9668 57.212 18.197C57.1538 18.3544 57.086 18.5028 57.0116 18.6017C56.8721 18.7994 56.5401 18.9221 56.3489 18.9221C56.2947 18.9221 55.96 18.9221 55.9485 18.4288C55.9458 18.1831 55.9964 17.9301 56.0596 17.6523ZM65.3947 15.0767L65.3289 15.0016C64.4867 15.1722 64.3342 15.1994 63.5604 15.3038L63.5036 15.3607C63.5009 15.37 63.4986 15.3842 63.4946 15.3971L63.492 15.3842C62.916 16.7132 62.9328 16.4265 62.4639 17.4727C62.4613 17.4251 62.4613 17.3954 62.4586 17.3448L62.3412 15.0767L62.2675 15.0016C61.3853 15.1722 61.3644 15.1994 60.5497 15.3038L60.4862 15.3607C60.4772 15.3878 60.4772 15.4176 60.4719 15.45L60.4772 15.4616C60.5791 15.9821 60.5546 15.866 60.6568 16.6874C60.7044 17.0905 60.7679 17.4959 60.8155 17.894C60.8959 18.5603 60.9408 18.8884 61.0391 19.9052C60.4888 20.8132 60.3585 21.1568 59.8288 21.9537L59.8324 21.9617L59.4594 22.5516C59.4168 22.6137 59.3781 22.6564 59.3238 22.6746C59.2643 22.704 59.1869 22.7093 59.0795 22.7093H58.8728L58.5656 23.7311L59.6195 23.7493C60.2382 23.7466 60.627 23.4573 60.8363 23.0684L61.499 21.9329H61.4884L61.5582 21.8529C62.004 20.8932 65.3947 15.0767 65.3947 15.0767ZM54.2719 28.4963H53.8248L55.4795 23.0233H56.0285L56.2027 22.4595L56.2196 23.0864C56.1991 23.474 56.504 23.8176 57.3049 23.7607H58.2311L58.5499 22.7068H58.2013C58.0009 22.7068 57.908 22.6562 57.9196 22.5478L57.9027 21.9099H56.1875V21.9132C55.633 21.9248 53.977 21.9665 53.6417 22.0557C53.2359 22.1602 52.8084 22.4678 52.8084 22.4678L52.9763 21.9033H51.3719L51.0376 23.0233L49.3607 28.5799H49.0354L48.7162 29.6262H51.9119L51.8048 29.9751H53.3794L53.4839 29.6262H53.9257L54.2719 28.4963ZM52.9608 24.1353C52.7039 24.2064 52.2257 24.422 52.2257 24.422L52.6509 23.0233H53.9257L53.6182 24.0424C53.6182 24.0424 53.2243 24.0656 52.9608 24.1353ZM52.9853 26.1336C52.9853 26.1336 52.5848 26.1839 52.3213 26.2434C52.0617 26.3221 51.5749 26.5701 51.5749 26.5701L52.0141 25.1145H53.2954L52.9853 26.1336ZM52.271 28.5092H50.9923L51.363 27.2807H52.6377L52.271 28.5092ZM55.3504 25.1145H57.1936L56.9288 25.9722H55.0611L54.7807 26.91H56.4149L55.1775 28.6524C55.0909 28.7803 55.0132 28.8256 54.9269 28.8617C54.8402 28.9057 54.7265 28.9572 54.5949 28.9572H54.1415L53.83 29.9843H55.0158C55.6322 29.9843 55.9963 29.7039 56.2651 29.3359L57.1136 28.1745L57.2958 29.3537C57.3345 29.5746 57.4932 29.7039 57.6007 29.7542C57.7194 29.8137 57.8421 29.9159 58.0154 29.9311C58.2012 29.939 58.3355 29.9453 58.4247 29.9453H59.0074L59.3572 28.7959H59.1274C58.9955 28.7959 58.7683 28.7737 58.7296 28.7324C58.6909 28.6821 58.6909 28.6047 58.6701 28.487L58.4852 27.3052H57.7283L58.0603 26.91H59.9243L60.211 25.9722H58.4852L58.7541 25.1145H60.4746L60.7937 24.0566H55.6643L55.3504 25.1145ZM39.7829 28.748L40.2131 27.3169H41.9812L42.3043 26.2524H40.5345L40.8047 25.3715H42.5341L42.8545 24.3408H38.5273L38.2135 25.3715H39.1966L38.9344 26.2524H37.9486L37.6219 27.3351H38.6047L38.0313 29.2285C37.9539 29.4792 38.0677 29.5747 38.1397 29.6911C38.2135 29.8045 38.2882 29.8796 38.4562 29.9223C38.6295 29.9609 38.7482 29.9841 38.9096 29.9841H40.9029L41.258 28.8049L40.3744 28.9263C40.2038 28.9263 39.7313 28.9058 39.7829 28.748ZM39.9857 21.8968L39.5376 22.7067C39.4417 22.8836 39.3554 22.9934 39.2777 23.044C39.2092 23.0866 39.0737 23.1045 38.8772 23.1045H38.6435L38.331 24.1405H39.1074C39.4807 24.1405 39.7674 24.0036 39.9043 23.9351C40.0515 23.8564 40.0902 23.9014 40.2039 23.7916L40.4661 23.5644H42.8906L43.2124 22.4858H41.4377L41.7475 21.8968H39.9857ZM43.565 28.7688C43.5237 28.7093 43.5535 28.6045 43.6166 28.3862L44.2793 26.1929H46.6367C46.9802 26.1879 47.2282 26.1839 47.3896 26.1724C47.5629 26.1542 47.7514 26.0923 47.9567 25.9812C48.1687 25.8648 48.2771 25.7422 48.3687 25.6013C48.4709 25.4608 48.6349 25.1532 48.7758 24.679L49.6088 21.9034L47.1624 21.9176C47.1624 21.9176 46.4092 22.0287 46.0775 22.1514C45.7429 22.2883 45.2647 22.6705 45.2647 22.6705L45.4856 21.9096H43.9744L41.8587 28.9262C41.7837 29.1987 41.7334 29.3965 41.7218 29.5152C41.7179 29.6431 41.8832 29.7698 41.9904 29.8654C42.117 29.9609 42.3042 29.9454 42.4837 29.9609C42.6725 29.9751 42.941 29.9841 43.3117 29.9841H44.4731L44.8295 28.7804L43.7899 28.8786C43.6788 28.8786 43.5984 28.8191 43.565 28.7688ZM44.7069 24.7114H47.1829L47.0255 25.2048C47.0034 25.2164 46.9505 25.1803 46.6985 25.2101H44.5544L44.7069 24.7114ZM45.2029 23.0568H47.6998L47.5202 23.651C47.5202 23.651 46.3434 23.6394 46.1549 23.6741C45.3255 23.8176 44.8411 24.2607 44.8411 24.2607L45.2029 23.0568ZM47.081 26.857C47.0605 26.9307 47.0281 26.9757 46.9828 27.0094C46.9325 27.0418 46.8511 27.0534 46.7298 27.0534H46.377L46.3978 26.4526H44.9303L44.8707 29.3899C44.8684 29.6019 44.8889 29.7246 45.044 29.8228C45.1991 29.9455 45.6769 29.961 46.3201 29.961H47.2397L47.5717 28.8615L46.7711 28.9055L46.5049 28.921C46.4686 28.9055 46.4338 28.8913 46.3951 28.8526C46.3614 28.8192 46.3045 28.8397 46.3138 28.6277L46.3201 27.8748L47.1597 27.8401C47.613 27.8401 47.8068 27.6926 47.9721 27.552C48.1299 27.4175 48.1814 27.2627 48.241 27.0534L48.3818 26.3867H47.2281L47.081 26.857Z" fill="#FEFEFE"/>
</svg>
