<svg width="136" height="38" xmlns="http://www.w3.org/2000/svg"><g fill="none" fill-rule="evenodd"><path d="M32.604 10.692c-.165 1.257-.507 2.214-1.044 2.928-.747.944-1.882 1.533-3.463 1.533h-.923c-1.572 0-2.708-.542-3.188-1.437-.325-.672-.412-1.622-.243-2.886l.368-2.813c.2-1.512.682-2.622 1.475-3.39.768-.75 1.87-1.11 3.195-1.11h.86c.912 0 2.116.151 2.789 1.041.563.738.738 1.826.545 3.318l-.37 2.816zM29.846.426h-.843c-5.994.064-9.125 2.55-9.787 7.312l-.396 3.089c-.252 2.127.129 3.722 1.16 4.88 1.276 1.427 3.507 2.46 6.897 2.494h.841c5.865-.06 8.991-2.474 9.73-6.903h.01l.04-.317.394-3.084c.263-2.212-.124-3.86-1.185-5.048C35.428 1.416 33.205.46 29.846.426zm51.05 10.266c-.168 1.257-.513 2.214-1.049 2.928-.745.944-1.883 1.533-3.461 1.533h-.92c-1.577 0-2.708-.542-3.192-1.437-.325-.672-.408-1.622-.244-2.886l.372-2.813c.196-1.512.68-2.622 1.472-3.39.769-.75 1.87-1.11 3.198-1.11h.857c.912 0 2.119.151 2.791 1.041.56.738.736 1.826.544 3.318l-.368 2.816zM78.138.426h-.843c-6 .064-9.13 2.55-9.79 7.312l-.396 3.089c-.252 2.127.129 3.722 1.16 4.88 1.276 1.427 3.506 2.46 6.897 2.494h.844c5.863-.06 8.988-2.474 9.727-6.903h.01l.04-.317.393-3.084c.261-2.212-.126-3.86-1.184-5.048C83.716 1.416 81.494.46 78.138.426zm47.564 10.266c-.167 1.257-.51 2.214-1.048 2.928-.745.944-1.882 1.533-3.463 1.533h-.92c-1.572 0-2.707-.542-3.189-1.437-.328-.672-.41-1.622-.247-2.886l.373-2.813c.198-1.512.681-2.622 1.472-3.39.77-.75 1.873-1.11 3.2-1.11h.857c.91 0 2.115.151 2.792 1.041.558.738.736 1.826.542 3.318l-.369 2.816zm4.1-7.843c-1.278-1.433-3.501-2.389-6.859-2.423h-.842c-5.997.064-9.129 2.55-9.787 7.312l-.396 3.089c-.254 2.127.125 3.722 1.159 4.88 1.276 1.427 3.503 2.46 6.899 2.494h.838c5.864-.06 8.992-2.474 9.73-6.903h.006l.043-.317.395-3.084c.263-2.212-.124-3.86-1.186-5.048zM93.257 5.668c.172 0 .329.016.475.043.57.103.937.382 1.157.625.418.464.615 1.133.534 1.836l-.63 5.168v.005l-.167 1.328-.01.09h.029l-.005.004h2.863c.18 0 .427-.013.72-.045 1.287-.137 3.399-.662 4.007-2.327.018-.047.03-.092.049-.139a8.63 8.63 0 0 0 .305-1.423l.244-1.805v-.003l.117-.844c.09-.683.109-1.33.04-1.915-.2-1.666-2.183-2.192-3.436-2.331a6.439 6.439 0 0 0-.71-.043h-2.857v.004H93.74l-.005-.01c-.677-.048-1.121-.16-1.376-.347-.608-.442-.92-1.162-.946-2.205l-.016-.522h6.801l.09.002h.735c3.79.033 6.305.798 7.684 2.34 1.037 1.163 1.422 2.729 1.175 4.789l-.141 1.089-.199 1.687c-.03.224-.067.627-.106.84-.18 1.09-.495 2.034-.943 2.806a6.07 6.07 0 0 1-2.022 2.104 7.34 7.34 0 0 1-.892.47c-.663.305-1.417.548-2.26.715-.255.048-.67.094-1.18.133-.592.046-1.31.069-2.044.08l-5.167.002h-.693c-1.279-.035-2.032-.255-2.442-.716a1.29 1.29 0 0 1-.19-.284c-.136-.269-.187-.596-.142-.993l.63-4.771.668-5.437h2.498m-77.475 9.094H8.948v.008c-.929-.008-1.665-.084-2.238-.245-.576-.158-1.01-.41-1.294-.751a2.11 2.11 0 0 1-.46-1.04 4.05 4.05 0 0 1-.064-.508 7.586 7.586 0 0 1 .062-1.482l.342-2.606c.04-.306.1-.588.165-.861l.076-.282a5.531 5.531 0 0 1 .228-.68c.02-.048.038-.096.06-.143.075-.166.165-.313.253-.461.084-.132.177-.257.279-.374.38-.447.92-.798 1.61-1.045.683-.243 1.558-.363 2.675-.364h3.78l.01-.013c.69-.047 1.166-.16 1.47-.348.363-.223.665-.52.915-.892.04-.057.068-.128.104-.189.192-.328.355-.698.476-1.134l.155-.535h-7.164l-.469.001C9.073.827 8.292.892 7.562 1 3.311 1.633 1.023 3.95.48 7.868l-.382 2.98c-.244 2.051.123 3.589 1.118 4.704 1.154 1.292 3.129 2.194 6.064 2.337l5.165-.01c.695-.047 1.379-.08 1.681-.27.453-.277.807-.677 1.083-1.187.067-.124.131-.248.19-.387 0 0 .263-.61.383-1.273m30.695.391l-.026.212a2.965 2.965 0 0 1-.988 1.837 2.7 2.7 0 0 1-1.797.669h-2.549l.236-1.944.095-.774L43.203.805h2.087c1.33 0 2.23.345 2.67 1.027l4.63 7.378 6.583-7.451c.572-.635 1.516-.954 2.806-.954h2.175l-1.786 14.348-.025.21a2.98 2.98 0 0 1-.988 1.837c-.35.303-.947.666-1.796.666l-2.457-.002 1.236-9.953-5.178 6.518c-.153.177-.633.71-1.214.715h-.04c-.548-.006-.962-.549-1.113-.792L47.376 7.88l-.898 7.272" fill="#D12138"/><path d="M7.648 32.837c-.022.783-.358 1.416-1.007 1.898-.65.482-1.486.724-2.516.724-1.287 0-2.294-.42-3.027-1.261C.364 33.355 0 32.197 0 30.716c0-1.502.364-2.686 1.098-3.54.733-.858 1.74-1.285 3.027-1.285 1.076 0 1.932.234 2.57.71.635.475.953 1.112.953 1.91H6.354c0-.464-.193-.84-.58-1.128-.385-.287-.89-.43-1.518-.43-.944 0-1.672.316-2.188.948-.515.629-.774 1.52-.774 2.67 0 1.222.254 2.168.76 2.838.51.672 1.222 1.007 2.141 1.007.612 0 1.108-.14 1.493-.418.383-.28.603-.667.666-1.16h1.294m1.508-3.974h1.185v.653c.461-.56 1.061-.84 1.797-.835l.32.012v1.103l-.242-.013c-.657 0-1.136.177-1.432.532-.297.354-.443.922-.443 1.7v3.26H9.156v-6.412m9.221 2.518c-.039-.587-.16-1.017-.366-1.293-.255-.346-.695-.521-1.319-.521-.54 0-.962.202-1.261.608-.227.304-.368.707-.419 1.206h3.365zm-1.587 4.077c-.948 0-1.688-.291-2.223-.873-.535-.585-.804-1.388-.804-2.415 0-1.087.269-1.94.807-2.56.539-.621 1.28-.93 2.22-.93.911 0 1.606.269 2.084.808.48.534.72 1.318.72 2.343l-.012.43h-4.584c.032.73.17 1.286.42 1.663.282.432.73.648 1.338.648.433 0 .787-.12 1.062-.36.277-.239.443-.57.496-.99h1.22c-.09.725-.369 1.281-.838 1.664-.47.38-1.106.572-1.906.572zm8.357-3.301h-1.086c-.67 0-1.172.108-1.506.326-.334.218-.501.545-.501.98 0 .352.12.624.354.819.234.193.567.29 1 .29.578 0 1.013-.163 1.3-.49.29-.325.434-.806.438-1.442l.001-.483zm-1.937 3.301c-.734 0-1.312-.177-1.728-.532-.417-.354-.624-.845-.624-1.47 0-.68.285-1.21.856-1.596.57-.384 1.358-.576 2.36-.576h1.072l-.001-.541c0-.408-.117-.708-.354-.893-.234-.19-.613-.283-1.137-.283-.358 0-.645.085-.861.258-.218.172-.34.41-.367.715h-1.241c.047-.644.28-1.114.693-1.412.411-.298 1.04-.447 1.874-.447.774 0 1.394.189 1.868.567.472.378.71.878.71 1.495v2.23c0 .607.013 1.117.047 1.527.028.407.072.667.127.774H25.38c-.046-.054-.083-.198-.109-.43a5.637 5.637 0 0 1-.048-.545 2.63 2.63 0 0 1-.268.395c-.422.51-1.004.764-1.745.764zm8.292-.089c-.337.059-.725.09-1.164.09-.446 0-.823-.121-1.13-.365-.31-.246-.465-.542-.465-.894v-4.483H27.41v-.854h1.332V27.71l1.182-.488v1.643h1.577v.854h-1.577v4.207c0 .23.059.391.172.494.11.103.292.154.542.154.313-.005.602-.033.863-.085v.881m1.526-6.506h1.185v6.412h-1.185v-6.412zm-.057-2.792h1.3v1.207h-1.3v-1.207zm3.516 2.792h1.1v.886c.062-.09.127-.174.202-.254.488-.541 1.148-.814 1.974-.814.845 0 1.466.225 1.864.673.396.447.594 1.146.594 2.1v3.82h-1.182v-3.802c0-.656-.125-1.132-.374-1.427-.246-.297-.645-.445-1.19-.445-.63 0-1.09.162-1.376.486-.286.324-.427.846-.427 1.562v3.626h-1.185v-6.41m10.424.69c-.56 0-.99.206-1.296.62-.308.408-.46.988-.46 1.735 0 .81.143 1.412.432 1.807.29.398.731.594 1.324.594.558 0 .99-.21 1.298-.623.308-.415.461-1 .461-1.759 0-.755-.153-1.34-.461-1.753-.308-.413-.74-.62-1.298-.62zm-.012 7.411c.642 0 1.1-.156 1.37-.468.266-.314.401-.849.401-1.6v-.854l-.197.273c-.479.58-1.109.87-1.889.87-.835 0-1.493-.293-1.969-.876-.48-.583-.716-1.387-.716-2.415 0-.938.264-1.709.793-2.312.529-.6 1.207-.902 2.036-.902.784 0 1.4.289 1.844.868l.098.122v-.808h1.184v6.034c0 1.027-.24 1.777-.717 2.247-.476.474-1.232.709-2.266.709-.902 0-1.562-.167-1.983-.502-.422-.335-.631-.86-.631-1.58h1.237c0 .413.112.717.337.908.23.191.583.286 1.068.286zm11.818-9.849h-3.093v-1.045h7.447v1.045h-3.093v8.158h-1.261v-8.158m5.814 1.747h1.184v.653c.463-.56 1.06-.84 1.798-.835l.32.012v1.103l-.24-.013c-.661 0-1.139.177-1.432.532-.297.354-.446.922-.446 1.7v3.26H64.53v-6.412m6.032 3.838c0 .655.124 1.131.373 1.428.249.294.645.443 1.19.443.662 0 1.137-.164 1.42-.496.284-.33.413-.858.377-1.584v-3.629h1.183v6.411h-1.097v-.833l-.131.168c-.497.567-1.155.85-1.975.85-.87 0-1.505-.23-1.912-.688-.408-.459-.613-1.176-.613-2.154v-3.754h1.185v3.838m10.272-2.11c0-.315-.115-.57-.344-.748-.228-.183-.546-.276-.951-.276-.415 0-.74.079-.973.229a.73.73 0 0 0-.346.64c0 .2.062.364.19.496.122.13.314.23.573.3l1.31.352c.667.182 1.147.416 1.436.698.29.277.432.647.432 1.108 0 .645-.237 1.15-.708 1.517-.473.367-1.125.551-1.957.551-.872 0-1.535-.178-1.991-.538-.455-.358-.684-.881-.684-1.568h1.225c0 .384.128.68.384.896.256.216.612.324 1.066.324.471 0 .842-.095 1.103-.281.262-.188.392-.452.392-.796a.65.65 0 0 0-.245-.51c-.16-.137-.408-.255-.745-.345l-1.307-.352c-.59-.159-1.02-.377-1.278-.647s-.385-.632-.385-1.098c0-.579.22-1.036.665-1.367.445-.328 1.059-.495 1.843-.495.783 0 1.399.17 1.85.507.445.34.668.808.668 1.403h-1.223m6.743 4.778c-.337.059-.725.09-1.164.09-.444 0-.823-.121-1.131-.365-.312-.246-.464-.542-.464-.894v-4.483h-1.334v-.854h1.334V27.71L86 27.221v1.643h1.577v.854H86v4.207c0 .23.056.391.17.494.112.103.294.154.543.154.314-.005.601-.033.864-.085v.881m11.864-1.942c.501-.66.752-1.59.752-2.795 0-1.174-.251-2.084-.752-2.73-.504-.646-1.209-.97-2.125-.97-.913 0-1.617.324-2.118.97-.502.646-.752 1.556-.752 2.73 0 1.205.25 2.136.752 2.795.5.66 1.205.989 2.118.989.916 0 1.62-.328 2.125-.989zm-5.154.745c-.736-.86-1.103-2.042-1.103-3.553 0-1.475.367-2.63 1.103-3.471.733-.839 1.744-1.257 3.03-1.257 1.294 0 2.307.418 3.038 1.257.733.84 1.097 1.996 1.097 3.47 0 1.512-.364 2.693-1.097 3.554-.73.858-1.744 1.287-3.039 1.287-1.285 0-2.296-.429-3.03-1.287zm8.79-5.308h1.096v.886c.06-.09.128-.174.203-.254.49-.541 1.147-.814 1.974-.814.845 0 1.465.225 1.864.673.397.447.594 1.146.594 2.1v3.82h-1.183v-3.802c0-.656-.125-1.132-.372-1.427-.25-.297-.645-.445-1.19-.445-.63 0-1.093.162-1.376.486-.286.324-.427.846-.427 1.562v3.626h-1.183v-6.41m7.73-2.793h1.182v9.203h-1.182zm3.528 2.792h1.184v6.412h-1.184v-6.412zm-.059-2.792h1.302v1.207h-1.302v-1.207zm3.518 2.792h1.101v.886a2 2 0 0 1 .202-.254c.486-.541 1.145-.814 1.973-.814.846 0 1.467.225 1.864.673.396.447.594 1.146.594 2.1v3.82h-1.182v-3.802c0-.656-.126-1.132-.373-1.427-.249-.297-.645-.445-1.19-.445-.632 0-1.09.162-1.376.486-.286.324-.429.846-.429 1.562v3.626h-1.184v-6.41m12.033 2.517c-.04-.587-.161-1.017-.367-1.293-.256-.346-.698-.521-1.32-.521-.542 0-.963.202-1.26.608-.23.304-.368.707-.42 1.206h3.367zm-1.589 4.077c-.945 0-1.687-.291-2.222-.873-.535-.585-.803-1.388-.803-2.415 0-1.087.268-1.94.806-2.56.538-.621 1.277-.93 2.22-.93.908 0 1.605.269 2.083.808.48.534.72 1.318.72 2.343l-.013.43h-4.582c.029.73.17 1.286.419 1.663.282.432.73.648 1.339.648.433 0 .783-.12 1.062-.36.277-.239.442-.57.495-.99h1.22c-.09.725-.368 1.281-.839 1.664-.468.38-1.104.572-1.905.572zm5.602-6.646h.196c.229 0 .411-.075.411-.26 0-.162-.12-.27-.378-.27a.992.992 0 0 0-.23.021v.509zm-.01 1h-.415v-1.768c.165-.034.393-.066.685-.066.335 0 .489.054.618.141a.484.484 0 0 1 .175.38c0 .205-.15.358-.37.423v.02c.175.055.273.196.328.435.05.27.084.38.129.434h-.444c-.054-.067-.089-.218-.143-.424-.034-.195-.141-.283-.37-.283h-.194v.707zm.27-2.344c-.782 0-1.368.64-1.368 1.42 0 .792.586 1.421 1.388 1.421.782.01 1.361-.629 1.361-1.42 0-.781-.58-1.42-1.371-1.42h-.01zm.02-.358c1.023 0 1.814.792 1.814 1.779 0 1.008-.791 1.788-1.824 1.788-1.019 0-1.835-.78-1.835-1.788 0-.987.816-1.779 1.835-1.779h.01z" fill="#545554"/></g></svg>