<svg xmlns="http://www.w3.org/2000/svg" viewBox="0 0 275 44"><g fill="none" fill-rule="evenodd"><path fill="#3D3D3D" d="M197.939 22.272h-6.825v4.724h6.587v2.788h-6.587v9.356h-2.956V19.484h9.781v2.788"/><path fill="#59C341" d="M203.395 29.256c0 2.172.731 3.956 2.185 5.352 1.446 1.4 3.118 2.1 5.012 2.1 2.055 0 3.788-.712 5.201-2.136 1.414-1.444 2.12-3.196 2.12-5.264 0-2.096-.698-3.852-2.091-5.268-1.39-1.424-3.106-2.136-5.153-2.136-2.04 0-3.76.712-5.166 2.136-1.405 1.408-2.108 3.148-2.108 5.216zm-2.98-.032c0-2.768 1.01-5.144 3.033-7.128 2.015-1.988 4.434-2.98 7.257-2.98 2.795 0 5.185 1 7.184 3.004 2.003 2.004 3.005 4.408 3.005 7.22 0 2.824-1.006 5.22-3.017 7.188-2.023 1.98-4.462 2.968-7.321 2.968-2.533 0-4.802-.88-6.817-2.636-2.218-1.944-3.324-4.488-3.324-7.636z"/><path fill="#3D3D3D" d="M247.293 36.352h1.333c1.329 0 2.431-.14 3.312-.42a6.664 6.664 0 0 0 2.382-1.412c1.458-1.332 2.185-3.068 2.185-5.208 0-2.156-.719-3.904-2.156-5.244-1.297-1.196-3.203-1.796-5.723-1.796h-1.333v14.08zm-2.956 2.788V19.484h4.111c1.971 0 3.526.196 4.669.588 1.228.38 2.338 1.032 3.336 1.948 2.023 1.848 3.033 4.28 3.033 7.292 0 3.02-1.055 5.464-3.159 7.332-1.058.932-2.164 1.584-3.323 1.948-1.087.364-2.621.548-4.608.548h-4.059zm20.887-8.492l-6.397-11.164h3.401l4.478 7.856 4.495-7.856h3.4l-6.421 11.164v8.492h-2.956v-8.492m-27.223-11.164V33.94l-11.49-14.456h-2.847V39.14h2.957V24.66l11.485 14.48h2.851V19.484m-75.753-3.844l-.396.236-4.54 2.728-.35.224v4.808l-3.688 2.208-.367.228v4.804l-3.688 2.208-.367.228v6.28l.331.228 4.535 2.724.384.236.388-.232 3.78-2.204 3.731 2.204.396.232.392-.236 3.699-2.192 3.493 2.184.4.252.408-.244 4.64-2.724.448-.228v-6.28l-.367-.228-3.687-2.208v-4.804l-.368-.228-3.687-2.208v-4.808l-.468-.224-4.608-2.728-.444-.236zm.117.908l4.591 2.724v4.808l4.055 2.432v4.808l4.055 2.432v5.4l-4.624 2.724-3.922-2.436-4.115 2.436-4.131-2.436-4.111 2.436-4.5-2.724v-5.4l4.051-2.432v-4.808l4.055-2.432v-4.808l4.596-2.724z"/><path fill="#59C341" d="M168.834 24.116l-3.513 2.144-3.514-2.144v-4.292l3.514-2.144 3.513 2.144"/><path fill="#3D3D3D" d="M168.834 38.596l-3.513 2.144-3.514-2.144v-4.288l3.514-2.144 3.513 2.144v4.288m8.105 0l-3.513 2.144-3.514-2.144v-4.288l3.514-2.144 3.513 2.144v4.288m-16.214 0l-3.647 2.144-3.647-2.144v-4.288l3.647-2.144 3.647 2.144v4.288m4.055-7.24l-3.514 2.144-3.513-2.144v-4.288l3.513-2.144 3.514 2.144v4.288m8.109 0l-3.514 2.144-3.513-2.144v-4.288l3.513-2.144 3.514 2.144v4.288m-19.413-25.84L152.99 8.3h-.929l1.248-7.112 2.395.008c.739 0 1.308.192 1.712.584.4.388.574.904.517 1.548-.06.68-.331 1.216-.82 1.608-.488.388-1.13.584-1.93.584l-1.708-.004zm.133-.768l1.6.008c.5 0 .916-.128 1.235-.376.323-.252.513-.6.57-1.048.052-.4-.033-.724-.255-.972-.218-.248-.537-.38-.961-.392l-1.7-.008-.49 2.788zm7.859-.928l-.42-.044c-.57 0-1.022.256-1.35.768l-.653 3.756h-.893l.925-5.284.864-.004-.133.616c.375-.492.824-.732 1.337-.72.105 0 .246.024.424.072l-.101.84zm2.907-.9c.449.004.832.124 1.151.36.32.232.554.556.707.968.154.412.206.864.154 1.352l-.009.108c-.06.512-.218.976-.464 1.392a2.66 2.66 0 0 1-.957.968 2.34 2.34 0 0 1-1.284.328 1.935 1.935 0 0 1-1.147-.36 2.03 2.03 0 0 1-.703-.956 3.016 3.016 0 0 1-.157-1.336 3.554 3.554 0 0 1 .448-1.472c.25-.436.57-.776.965-1.016a2.312 2.312 0 0 1 1.296-.336zm-1.813 2.832a2.79 2.79 0 0 0 0 .636c.032.388.15.692.347.92.198.228.465.348.796.356.299.012.57-.064.82-.216.25-.156.46-.388.63-.7.173-.316.283-.66.331-1.04.028-.3.032-.552.016-.76-.04-.392-.161-.704-.36-.932a1.072 1.072 0 0 0-.799-.36c-.46-.012-.852.168-1.175.536-.32.368-.521.852-.594 1.448l-.012.112zm6.74 1.912c.32.008.606-.084.86-.276a1.3 1.3 0 0 0 .505-.748l.844-.004a1.885 1.885 0 0 1-.404.908 2.231 2.231 0 0 1-.823.636 2.199 2.199 0 0 1-1.022.216c-.444-.004-.82-.12-1.127-.344a1.934 1.934 0 0 1-.678-.932c-.146-.4-.194-.848-.146-1.344l.025-.244c.06-.508.21-.964.448-1.364.234-.4.545-.712.925-.936a2.33 2.33 0 0 1 1.264-.312c.557.012 1.005.196 1.34.556.336.356.501.812.501 1.36l-.832-.004c-.008-.344-.105-.624-.29-.836-.186-.216-.44-.328-.76-.34a1.416 1.416 0 0 0-1.155.512c-.307.352-.5.844-.573 1.476l-.016.124c-.02.212-.025.424-.008.648.02.38.129.68.323.9.194.224.46.34.8.348zm5.23.732c-.662-.012-1.183-.256-1.559-.728-.375-.472-.533-1.076-.472-1.812l.024-.208a3.495 3.495 0 0 1 .472-1.436c.259-.432.574-.76.945-.98a2.18 2.18 0 0 1 1.2-.312c.55.012.981.192 1.292.54.315.348.485.82.513 1.416.012.212.004.424-.02.636l-.053.404h-3.485c-.06.48.02.884.239 1.22.218.336.545.512.977.524.529.012 1.013-.22 1.462-.704l.513.432a2.371 2.371 0 0 1-.869.748c-.351.18-.747.268-1.179.26zm.565-4.74a1.287 1.287 0 0 0-.96.372c-.275.256-.493.64-.655 1.148l2.593.004.02-.08c.052-.408-.012-.752-.198-1.024a.948.948 0 0 0-.8-.42zm5.666 3.212c.049-.364-.153-.62-.605-.772l-.93-.268c-.779-.268-1.158-.708-1.13-1.328.02-.464.234-.848.642-1.144.404-.3.885-.444 1.43-.436.541.004.977.16 1.316.464.336.304.497.7.485 1.188l-.889-.004a.817.817 0 0 0-.25-.644c-.174-.164-.404-.252-.695-.26a1.33 1.33 0 0 0-.8.224.828.828 0 0 0-.359.58c-.04.304.146.528.566.668l.452.12c.61.156 1.042.36 1.3.612.255.252.376.56.356.932-.02.328-.13.616-.327.86s-.46.428-.788.56a2.637 2.637 0 0 1-1.05.176c-.565-.004-1.034-.168-1.401-.488a1.525 1.525 0 0 1-.533-1.24l.892.004c0 .296.097.536.287.716.19.176.452.268.784.268a1.59 1.59 0 0 0 .844-.204c.234-.14.371-.336.403-.584zm5.097 0c.048-.364-.153-.62-.606-.772l-.925-.268c-.783-.268-1.163-.708-1.134-1.328.02-.464.238-.848.642-1.144.408-.3.884-.444 1.433-.436.538.004.978.16 1.313.464.335.304.5.7.485 1.188l-.885-.004a.834.834 0 0 0-.254-.644c-.174-.164-.404-.252-.695-.26a1.339 1.339 0 0 0-.8.224.828.828 0 0 0-.359.58c-.04.304.15.528.57.668l.448.12c.61.156 1.046.36 1.3.612.259.252.376.56.355.932-.02.328-.129.616-.327.86a1.87 1.87 0 0 1-.787.56 2.625 2.625 0 0 1-1.05.176c-.566-.004-1.034-.168-1.401-.488a1.51 1.51 0 0 1-.53-1.24l.889.004c0 .296.097.536.287.716.19.176.452.268.783.268a1.59 1.59 0 0 0 .844-.204.77.77 0 0 0 .404-.584zm4.103 1.528c-.666-.012-1.183-.256-1.559-.728-.375-.472-.533-1.076-.472-1.812l.024-.208a3.495 3.495 0 0 1 .472-1.436c.255-.432.57-.76.941-.98.372-.22.776-.324 1.204-.312.55.012.981.192 1.292.54.311.348.485.82.513 1.416.008.212.004.424-.02.636l-.053.404h-3.485c-.06.48.02.884.238 1.22.219.336.546.512.978.524.525.012 1.013-.22 1.458-.704l.513.432a2.327 2.327 0 0 1-.865.748c-.351.18-.747.268-1.179.26zm.565-4.74a1.287 1.287 0 0 0-.96.372c-.275.256-.493.64-.655 1.148l2.593.004.02-.08c.052-.408-.016-.752-.202-1.024a.94.94 0 0 0-.796-.42zm2.617 1.992a4.214 4.214 0 0 1 .449-1.456c.234-.432.52-.756.864-.972a2.031 2.031 0 0 1 1.13-.308c.594.016 1.05.228 1.37.644L197.47.8h.892l-1.312 7.5h-.812l.093-.568a1.98 1.98 0 0 1-1.56.664c-.492-.012-.884-.204-1.178-.572-.291-.372-.449-.868-.473-1.488-.008-.192 0-.42.024-.688zm.86.508c-.012.464.073.828.251 1.084.178.256.436.388.78.396.516.02.973-.236 1.372-.772l.424-2.44c-.193-.484-.553-.732-1.074-.744a1.372 1.372 0 0 0-.929.316c-.266.22-.472.528-.61.92-.14.396-.21.808-.213 1.24zm11.773-.476a4.02 4.02 0 0 1-.449 1.46c-.234.436-.517.756-.848.964a1.934 1.934 0 0 1-1.106.296c-.642-.012-1.123-.252-1.434-.716l-.182.616h-.823l1.316-7.5h.893l-.538 2.8c.429-.468.945-.696 1.56-.68.512.012.908.2 1.195.56.286.36.44.86.456 1.492 0 .212-.008.412-.032.608l-.008.1zm-.848-.512c.008-.472-.073-.836-.243-1.092-.17-.252-.432-.384-.783-.396-.557-.012-1.026.264-1.41.832l-.4 2.296c.198.54.566.816 1.111.828.347.012.65-.092.913-.308.262-.22.46-.524.594-.916.137-.392.205-.808.218-1.244zm3.412 1.8l1.898-3.952h.986l-3.167 6.164c-.44.856-1.005 1.276-1.696 1.268a2.967 2.967 0 0 1-.537-.088l.08-.732.231.024c.283.012.525-.048.731-.188.206-.14.388-.364.545-.672l.32-.604-.921-5.172h.932l.598 3.952z"/><g fill-rule="nonzero"><path fill="#000" d="M0 1h133.96v42.759H0z"/><path fill="#FFF" d="M68.811 2.045h64.062v40.629H68.811z"/><path fill="#F7B600" d="M69.857 36.083h61.93v5.546h-61.93z"/><path fill="#1A1F71" d="M69.857 3.13h61.93v5.546h-61.93zm24.788 11.654l-6.398 15.231h-4.185l-3.139-12.177c-.201-.763-.362-1.004-.925-1.326a15.877 15.877 0 0 0-3.904-1.286l.08-.442h6.72c.91.004 1.679.67 1.812 1.567l1.65 8.801 4.104-10.368h4.185zm16.378 10.248c0-4.019-5.553-4.26-5.513-6.028 0-.563.523-1.125 1.69-1.286a7.53 7.53 0 0 1 3.903.683l.684-3.215a10.306 10.306 0 0 0-3.702-.683c-3.903 0-6.64 2.09-6.68 5.023-.04 2.21 1.972 3.416 3.461 4.14 1.489.723 2.052 1.245 2.052 1.888 0 1.005-1.247 1.487-2.374 1.487a8.105 8.105 0 0 1-4.064-.964l-.724 3.335c1.393.559 2.885.832 4.386.804 4.144.04 6.84-2.01 6.88-5.184zm10.301 4.983h3.662l-3.179-15.23h-3.38a1.799 1.799 0 0 0-1.69 1.124l-5.956 14.106h4.145l.805-2.29h5.07l.523 2.29zm-4.426-5.385l2.092-5.707 1.208 5.707h-3.3zm-16.62-9.846L97.02 30.015h-3.943l3.26-15.23h3.943z"/><path fill="#FFF" d="M18.873 40.182v-2.411a1.401 1.401 0 0 0-1.49-1.527 1.586 1.586 0 0 0-1.367.683 1.409 1.409 0 0 0-1.288-.683 1.369 1.369 0 0 0-1.167.563v-.483h-.765v3.858h.765v-2.21a.9.9 0 0 1 .966-1.005c.563 0 .885.362.885 1.005v2.21h.765v-2.21a.9.9 0 0 1 .965-1.005c.564 0 .886.362.886 1.005v2.21h.845zm12.555-3.818h-1.409V35.2h-.764v1.165h-.805v.684h.805v1.808c0 .884.322 1.407 1.287 1.407a2.252 2.252 0 0 0 1.047-.282l-.242-.683a1.325 1.325 0 0 1-.724.201.564.564 0 0 1-.604-.643v-1.849h1.409v-.643zm7.162-.12a1.208 1.208 0 0 0-1.046.563v-.483h-.764v3.858h.764v-2.17c0-.643.322-1.045.845-1.045.177.007.353.034.523.08l.242-.723a2.72 2.72 0 0 0-.564-.08zm-10.824.402a2.763 2.763 0 0 0-1.57-.402c-.965 0-1.569.442-1.569 1.206 0 .643.443 1.004 1.288 1.125l.402.04c.443.08.724.241.724.442 0 .281-.321.482-.925.482a2.123 2.123 0 0 1-1.288-.402l-.402.603a2.912 2.912 0 0 0 1.65.482c1.126 0 1.73-.522 1.73-1.245s-.483-1.005-1.328-1.126l-.402-.04c-.362-.04-.684-.16-.684-.402s.322-.482.764-.482a2.89 2.89 0 0 1 1.207.322l.403-.603zm11.71 1.607a1.895 1.895 0 0 0 2.012 2.01c.495.026.982-.132 1.368-.442l-.403-.603a1.61 1.61 0 0 1-1.006.361 1.29 1.29 0 0 1 0-2.572c.367.003.722.13 1.006.362l.403-.603a2.014 2.014 0 0 0-1.368-.442 1.804 1.804 0 0 0-2.012 1.93zm-5.433-2.01c-1.126 0-1.891.805-1.891 2.01a1.887 1.887 0 0 0 1.972 2.01 2.465 2.465 0 0 0 1.57-.523l-.403-.562c-.324.25-.718.39-1.127.401a1.13 1.13 0 0 1-1.167-1.004h2.857v-.322c0-1.205-.724-2.01-1.81-2.01zm0 .724a.962.962 0 0 1 1.006.965h-2.092a1.034 1.034 0 0 1 1.086-.965zm-10.422 1.286v-1.929h-.765v.483a1.482 1.482 0 0 0-1.247-.563 2.01 2.01 0 0 0 0 4.019 1.48 1.48 0 0 0 1.247-.563v.482h.765v-1.929zm-3.139 0a1.207 1.207 0 1 1 1.207 1.286 1.184 1.184 0 0 1-1.207-1.286zm29.738-2.01a1.208 1.208 0 0 0-1.046.564v-.483h-.765v3.858h.765v-2.17c0-.643.321-1.045.845-1.045.176.007.352.034.523.08l.241-.723a2.72 2.72 0 0 0-.563-.08zm6.197 3.377a.242.242 0 0 1 .16.04c.041 0 .081.04.121.08.04.04.081.08.081.12s.04.081.04.161a.24.24 0 0 1-.04.161c-.04.04-.04.08-.08.12s-.081.081-.121.081c-.04 0-.08.04-.161.04a.242.242 0 0 1-.161-.04c-.04-.04-.08-.04-.12-.08-.041-.04-.081-.08-.081-.12s-.04-.081-.04-.162a.24.24 0 0 1 .04-.16c.04-.04.04-.08.08-.12s.08-.081.12-.081.122-.04.162-.04zm0 .683a.149.149 0 0 0 .12-.04.088.088 0 0 0 .081-.08l.08-.081c0-.04.04-.08.04-.12a.149.149 0 0 0-.04-.121.088.088 0 0 0-.08-.08l-.08-.081c-.04 0-.08-.04-.121-.04a.149.149 0 0 0-.12.04.088.088 0 0 0-.081.08l-.08.08c0 .04-.041.081-.041.121a.149.149 0 0 0 .04.12.088.088 0 0 0 .08.081l.081.08a.145.145 0 0 0 .12.04zm.04-.442a.149.149 0 0 1 .12.04c.041.04.041.04.041.08s0 .04-.04.08a.14.14 0 0 1-.08.04l.12.121h-.12l-.121-.12h-.04v.12h-.081v-.361h.201zm-.08.04v.08h.12v-.08h-.12zm-9.135-1.648v-1.929h-.765v.483a1.482 1.482 0 0 0-1.247-.563 2.01 2.01 0 0 0 0 4.019 1.48 1.48 0 0 0 1.247-.563v.482h.765v-1.929zm-3.098 0a1.207 1.207 0 1 1 1.207 1.286c-.765.04-1.207-.562-1.207-1.286zm10.905 0v-3.456h-.765v2.01a1.482 1.482 0 0 0-1.247-.563 2.01 2.01 0 0 0 0 4.019 1.48 1.48 0 0 0 1.247-.563v.482h.765v-1.929zm-3.14 0a1.207 1.207 0 1 1 1.208 1.286 1.184 1.184 0 0 1-1.207-1.286z"/><path fill="#FF5F00" d="M26.88 7.068h13.963v22.746H26.88z"/><path fill="#EB001B" d="M28.33 18.441a14.5 14.5 0 0 1 5.512-11.373 14.502 14.502 0 0 0-17.175-.539 14.457 14.457 0 0 0-5.608 16.221 14.484 14.484 0 0 0 13.85 10.158 14.41 14.41 0 0 0 8.933-3.094 14.5 14.5 0 0 1-5.513-11.373z"/><path fill="#F79E1B" d="M55.894 27.403v-.483h.2v-.08h-.482v.08h.201v.483h.08zm.965 0v-.563h-.16l-.162.402-.16-.402h-.161v.563h.12v-.442l.161.361h.121l.16-.361v.442h.081zm.443-8.962a14.466 14.466 0 0 1-8.152 12.995 14.502 14.502 0 0 1-15.268-1.622 14.492 14.492 0 0 0 5.513-11.373 14.49 14.49 0 0 0-5.513-11.373A14.502 14.502 0 0 1 49.15 5.446a14.466 14.466 0 0 1 8.152 12.995z"/></g></g></svg>