<svg width="117" height="42" xmlns="http://www.w3.org/2000/svg"><g fill="none" fill-rule="evenodd"><path d="M109.93 16.583c0-1.279.985-2.314 2.188-2.314 1.21 0 2.186 1.035 2.186 2.314 0 1.281-.975 2.316-2.186 2.316-1.203 0-2.189-1.035-2.189-2.316zm2.189 1.768c.92 0 1.67-.794 1.67-1.768 0-.969-.75-1.756-1.67-1.756-.916 0-1.67.787-1.67 1.756 0 .974.754 1.768 1.67 1.768zm-.298-.754h-.448V15.56h.812c.166 0 .351.01.493.112a.635.635 0 0 1 .245.512.542.542 0 0 1-.33.514l.35.9h-.498l-.296-.799h-.328v.8zm0-1.145h.25c.092 0 .198.003.275-.043.076-.05.11-.148.11-.236 0-.076-.045-.169-.11-.205-.067-.045-.202-.035-.28-.035h-.245v.519zM78.63 1.194l-.599 3.925c-1.3-.697-2.257-.97-3.279-.97-2.727 0-4.655 2.788-4.655 6.77 0 2.749 1.295 4.406 3.423 4.406.904 0 1.897-.292 3.112-.933l-.64 4.13c-1.344.389-2.22.527-3.237.527-3.949 0-6.405-2.997-6.405-7.807 0-6.471 3.394-10.99 8.249-10.99.627 0 1.187.062 1.643.194l1.51.398c.448.18.55.207.879.35zm-12.155 2.69a2.001 2.001 0 0 0-.375-.038c-1.207 0-1.889.642-3.01 2.395l.326-2.236h-3.318L57.85 18.716h3.68c1.317-8.991 1.653-10.544 3.418-10.544.107 0 .117 0 .267.015.326-1.772.771-3.076 1.386-4.264l-.125-.039zM44.548 18.537c-.996.333-1.783.485-2.628.485-1.87 0-2.89-1.146-2.89-3.236 0-.41.03-.853.104-1.32l.227-1.434.168-1.171 1.589-10.038h3.64l-.417 2.182h1.874l-.514 3.576h-1.87l-.967 6.14c-.033.271-.061.471-.061.61 0 .753.382 1.09 1.247 1.09.423 0 .741-.045.986-.138l-.488 3.254zM30.11 8.657c0 1.857.85 3.141 2.776 4.1 1.474.738 1.708.953 1.708 1.623 0 .914-.654 1.337-2.095 1.337-1.087 0-2.104-.182-3.275-.589l-.506 3.394.165.035.673.143c.216.047.534.088.954.134.874.082 1.543.121 2.017.121 3.842 0 5.62-1.56 5.62-4.911 0-2.014-.741-3.204-2.572-4.096-1.528-.732-1.701-.905-1.701-1.588 0-.798.606-1.208 1.783-1.208.717 0 1.69.086 2.62.22l.521-3.398c-.955-.163-2.373-.29-3.213-.29-4.077 0-5.49 2.258-5.475 4.973zm77.693 10.059h-3.466l.182-1.441c-1.01 1.139-2.046 1.636-3.384 1.636-2.679 0-4.434-2.429-4.434-6.107 0-4.893 2.727-9.024 5.967-9.024 1.423 0 2.5.62 3.513 2.014l.797-5.168h3.61l-2.785 18.09zm-5.405-3.463c1.711 0 2.907-2.045 2.907-4.956 0-1.87-.683-2.888-1.948-2.888-1.66 0-2.84 2.052-2.84 4.947 0 1.927.636 2.897 1.88 2.897zm-46.249 3.154a12.06 12.06 0 0 1-3.763.591c-4.085 0-6.219-2.261-6.219-6.585 0-5.056 2.714-8.777 6.404-8.777 3.01 0 4.943 2.086 4.943 5.354 0 1.083-.13 2.138-.456 3.629h-7.283c-.03.224-.035.326-.035.456 0 1.72 1.09 2.586 3.22 2.586 1.307 0 2.483-.285 3.8-.936l-.611 3.682zm-2.055-8.76c.02-.307.026-.558.026-.744 0-1.202-.645-1.904-1.734-1.904-1.162 0-1.994.937-2.336 2.638l4.044.01zm-38.688 9.069h-3.66l2.096-13.901L9.16 18.716H6.652l-.303-13.82-2.208 13.82H.714L3.573.626h5.273l.146 11.194L12.55.625h5.691zm9.428-6.553a6.088 6.088 0 0 0-.82-.063c-2.075 0-3.126.76-3.126 2.246 0 .916.517 1.5 1.316 1.5 1.49 0 2.57-1.5 2.63-3.683zm2.664 6.553h-3.033l.066-1.527c-.924 1.218-2.159 1.783-3.837 1.783-1.991 0-3.35-1.64-3.35-4.008 0-3.591 2.375-5.676 6.436-5.676.415 0 .945.032 1.49.109.114-.487.145-.697.145-.955 0-.972-.637-1.34-2.353-1.34-1.036 0-2.226.158-3.045.42l-.51.148-.32.096.504-3.3c1.828-.571 3.032-.792 4.39-.792 3.147 0 4.815 1.494 4.815 4.314 0 .732-.054 1.275-.303 2.918l-.767 5.212-.125.942-.094.75-.063.512-.046.394zm57.442-6.553a6.01 6.01 0 0 0-.814-.063c-2.084 0-3.138.76-3.138 2.246 0 .916.522 1.5 1.322 1.5 1.496 0 2.564-1.5 2.63-3.683zm2.666 6.553h-3.037l.07-1.527c-.923 1.218-2.16 1.783-3.837 1.783-1.991 0-3.356-1.64-3.356-4.008 0-3.591 2.373-5.676 6.443-5.676.412 0 .947.032 1.488.109.113-.487.145-.697.145-.955 0-.972-.636-1.34-2.352-1.34-1.042 0-2.228.158-3.041.42l-.52.148-.318.096.51-3.3c1.83-.571 3.032-.792 4.38-.792 3.152 0 4.82 1.494 4.82 4.314 0 .732-.063 1.275-.3 2.918l-.773 5.212-.113.942-.102.75-.067.512-.04.394zm10.23-14.832a1.817 1.817 0 0 0-.368-.038c-1.202 0-1.89.642-3.016 2.395l.327-2.236h-3.313l-2.24 14.711h3.668c1.317-8.991 1.663-10.544 3.415-10.544.114 0 .106-.01.256.015.332-1.772.78-3.076 1.396-4.264l-.125-.039z" fill="#EC2127"/><path d="M82.468 32.984c0 3.335-1.026 5.298-2.644 5.298-1.18.037-1.897-1.287-1.897-3.267 0-2.342 1.046-4.997 2.725-4.997 1.349 0 1.816 1.439 1.816 2.966zm3.602.061c0-3.707-1.82-6.592-5.243-6.592-3.939 0-6.49 3.508-6.49 8.674 0 3.698 1.508 6.721 5.237 6.721 3.764 0 6.496-2.68 6.496-8.803zM75.514 23.85l-.56 3.92c-1.218-.691-2.104-.978-3.061-.978-2.56 0-4.347 2.8-4.347 6.781 0 2.748 1.197 4.411 3.191 4.411.85 0 1.78-.292 2.91-.933l-.593 4.127c-1.266.392-2.092.527-3.032.527-3.687 0-5.984-2.999-5.984-7.81 0-6.474 3.17-10.992 7.71-10.992a5.81 5.81 0 0 1 1.538.194l1.401.4c.432.173.522.203.827.353zm-22.647 2.694a1.333 1.333 0 0 0-.352-.04c-1.11 0-1.762.644-2.803 2.391l.303-2.232h-3.097l-2.09 14.713h3.419c1.23-9 1.556-10.549 3.196-10.549.097 0 .107 0 .25.017.308-1.78.723-3.084 1.298-4.275l-.124-.025zm44.672 14.675h-3.232l.167-1.436c-.94 1.132-1.918 1.633-3.169 1.633-2.492 0-4.137-2.432-4.137-6.11 0-4.884 2.554-9.028 5.573-9.028 1.333 0 2.343.634 3.277 2.028l.755-5.173h3.366l-2.6 18.086zm-5.056-3.461c1.61 0 2.721-2.043 2.721-4.957 0-1.875-.634-2.882-1.81-2.882-1.556 0-2.661 2.045-2.661 4.95 0 1.917.593 2.889 1.75 2.889zm-71.687 3.4a10.468 10.468 0 0 1-3.503.599c-3.82 0-5.814-2.266-5.814-6.588 0-5.049 2.536-8.773 5.979-8.773 2.819 0 4.616 2.082 4.616 5.35 0 1.08-.122 2.14-.415 3.631h-6.816a4.59 4.59 0 0 0-.028.457c0 1.715 1.02 2.58 3.004 2.58 1.223 0 2.328-.286 3.552-.931l-.575 3.675zm-1.912-8.753c.015-.311.025-.559.025-.748 0-1.2-.6-1.901-1.617-1.901-1.092 0-1.87.944-2.182 2.634l3.774.015zm42.596 8.753a10.511 10.511 0 0 1-3.506.599c-3.827 0-5.818-2.266-5.818-6.588 0-5.049 2.539-8.773 5.979-8.773 2.82 0 4.622 2.082 4.622 5.35 0 1.08-.127 2.14-.43 3.631h-6.802c-.02.22-.033.329-.033.457 0 1.715 1.019 2.58 3.002 2.58 1.222 0 2.33-.286 3.556-.931l-.57 3.675zm-1.924-8.753c.023-.311.036-.559.036-.748 0-1.2-.606-1.901-1.618-1.901-1.093 0-1.869.944-2.185 2.634l3.767.015zm49.653 8.753a10.59 10.59 0 0 1-3.514.599c-3.82 0-5.818-2.266-5.818-6.588 0-5.049 2.544-8.773 5.983-8.773 2.819 0 4.615 2.082 4.615 5.35 0 1.08-.117 2.14-.42 3.631h-6.81c-.023.22-.028.329-.028.457 0 1.715 1.022 2.58 3.005 2.58 1.224 0 2.327-.286 3.555-.931l-.568 3.675zm-1.923-8.753c.015-.311.025-.559.025-.748 0-1.2-.598-1.901-1.616-1.901-1.093 0-1.866.944-2.183 2.634l3.774.015zm-96.614-5.196c-.67-.45-1.576-.844-2.857-.844-1.383 0-2.495.288-2.495 1.768 0 2.614 5.041 1.638 5.041 7.235 0 5.098-3.327 6.42-6.337 6.42-1.34 0-2.88-.446-4.016-.954l.818-3.746c.685.626 2.067 1.055 3.198 1.055 1.077 0 2.765-.296 2.765-2.187 0-2.962-5.039-1.86-5.039-7.059 0-4.755 2.944-6.18 5.783-6.18 1.599 0 3.101.237 3.982.826l-.843 3.666zM30.81 41.153c-.705.341-1.647.566-3.037.566-2.99 0-4.843-3.006-4.843-6.666 0-4.79 2.681-8.61 6.628-8.61.86 0 2.174.374 3.21.978l-.756 3.514c-.734-.485-1.497-.793-2.284-.793-1.828 0-3.135 1.686-3.135 4.707 0 1.739.948 3.166 2.445 3.166.89 0 1.517-.19 2.284-.64l-.512 3.778zm12.793-3.684c-.175 1.265-.338 2.494-.435 3.814h-3.293l.278-2.378h-.033c-1.032 1.617-2.098 2.717-3.962 2.717-2.068 0-3.188-2.188-3.188-5.046 0-.985.061-1.541.28-3.08l.932-6.809h3.664l-.983 6.83c-.1.733-.24 1.46-.24 2.22 0 .86.39 1.731 1.378 1.678 1.502 0 2.389-1.849 2.64-4.005l1.012-6.723H45.2l-1.597 10.782zm69.019 3.637h-.554v-2.44h-.801v-.523h2.156v.523h-.8zm3.673 0h-.517v-2.477h-.008l-.494 2.477h-.543l-.483-2.477h-.008v2.477h-.516v-2.963h.808l.48 2.336h.008l.472-2.336h.801z" fill="#F89620"/></g></svg>