<svg xmlns="http://www.w3.org/2000/svg" viewBox="0 0 116.49 90.34"><g data-name="Layer 2"><g data-name="Layer 1"><path data-name="&lt;Compound Path&gt;" d="M21.19 90.1v-6a3.56 3.56 0 0 0-3.76-3.8 3.7 3.7 0 0 0-3.36 1.7 3.51 3.51 0 0 0-3.16-1.7 3.16 3.16 0 0 0-2.8 1.42v-1.18H6v9.56h2.1v-5.3a2.24 2.24 0 0 1 2.34-2.54c1.38 0 2.08.9 2.08 2.52v5.32h2.1v-5.3A2.25 2.25 0 0 1 17 82.26c1.42 0 2.1.9 2.1 2.52v5.32zm31.08-9.56h-3.4v-2.9h-2.1v2.9h-1.94v1.9h1.94v4.36c0 2.22.86 3.54 3.32 3.54a4.88 4.88 0 0 0 2.6-.74l-.6-1.78a3.84 3.84 0 0 1-1.84.54c-1 0-1.38-.64-1.38-1.6v-4.32h3.4zM70 80.3a2.82 2.82 0 0 0-2.52 1.4v-1.16h-2.06v9.56h2.08v-5.36c0-1.58.68-2.46 2-2.46a3.39 3.39 0 0 1 1.3.24l.64-2A4.45 4.45 0 0 0 70 80.3zm-26.82 1a7.15 7.15 0 0 0-3.9-1c-2.42 0-4 1.16-4 3.06 0 1.56 1.16 2.52 3.3 2.82l1 .14c1.14.16 1.68.46 1.68 1 0 .74-.76 1.16-2.18 1.16a5.09 5.09 0 0 1-3.18-1l-1 1.62a6.9 6.9 0 0 0 4.14 1.24c2.76 0 4.36-1.3 4.36-3.12s-1.26-2.56-3.34-2.86l-1-.14c-.9-.12-1.62-.3-1.62-.94s.68-1.12 1.82-1.12a6.16 6.16 0 0 1 3 .82zm55.71-1a2.82 2.82 0 0 0-2.52 1.4v-1.16h-2.05v9.56h2.08v-5.36c0-1.58.68-2.46 2-2.46a3.39 3.39 0 0 1 1.3.24l.64-2a4.45 4.45 0 0 0-1.48-.26zm-26.8 5a4.83 4.83 0 0 0 5.1 5 5 5 0 0 0 3.44-1.14l-1-1.68a4.2 4.2 0 0 1-2.5.86 3.07 3.07 0 0 1 0-6.12 4.2 4.2 0 0 1 2.5.86l1-1.68a5 5 0 0 0-3.43-1.1 4.83 4.83 0 0 0-5.1 5zm19.48 0v-4.76H89.5v1.16a3.63 3.63 0 0 0-3-1.4 5 5 0 0 0 0 10 3.63 3.63 0 0 0 3-1.4v1.2h2.08zm-7.74 0a2.89 2.89 0 1 1 2.9 3.06 2.87 2.87 0 0 1-2.9-3.06zm-25.1-5a5 5 0 0 0 .14 10A5.81 5.81 0 0 0 62.8 89l-1-1.54a4.55 4.55 0 0 1-2.78 1 2.65 2.65 0 0 1-2.86-2.34h7.1v-.8c0-3-1.86-5-4.54-5zm0 1.86a2.37 2.37 0 0 1 2.42 2.32h-5a2.46 2.46 0 0 1 2.54-2.32zm52.17 3.16V76.7h-2.1v5a3.63 3.63 0 0 0-3-1.4 5 5 0 0 0 0 10 3.63 3.63 0 0 0 3-1.4v1.2h2.08zm-7.74 0a2.89 2.89 0 1 1 2.9 3.06 2.87 2.87 0 0 1-2.9-3.06zm-70.23 0v-4.78h-2.1v1.16a3.63 3.63 0 0 0-3-1.4 5 5 0 0 0 0 10 3.63 3.63 0 0 0 3-1.4v1.2h2.08zm-7.74 0a2.89 2.89 0 1 1 2.9 3.06 2.87 2.87 0 0 1-2.92-3.06z"/><g data-name="&lt;Group&gt;"><path fill="#ff5f00" d="M42.5 7.7H74v56.61H42.5z"/><path data-name="&lt;Path&gt;" d="M44.5 36A35.94 35.94 0 0 1 58.25 7.7a36 36 0 1 0 0 56.61A35.94 35.94 0 0 1 44.5 36z" fill="#eb001b"/><path d="M116.49 36a36 36 0 0 1-58.24 28.3 36 36 0 0 0 0-56.61A36 36 0 0 1 116.49 36z" fill="#f79e1b"/></g></g></g></svg>