<svg width="67" height="21" xmlns="http://www.w3.org/2000/svg"><g fill="none"><path fill="#000" d="M0 0h66.98v20.882H0z"/><path fill="#FFF" d="M34.405.51h32.031v19.842H34.405z"/><path fill="#F7B600" d="M34.929 17.134h30.965v2.708H34.929z"/><path fill="#1A1F71" d="M34.929 1.04h30.965v2.708H34.929zm12.394 5.692l-3.2 7.438h-2.092l-1.57-5.947c-.1-.373-.18-.49-.462-.647a8.072 8.072 0 0 0-1.952-.628l.04-.216h3.36a.912.912 0 0 1 .906.765l.825 4.298 2.052-5.063h2.093zm8.188 5.004c0-1.962-2.776-2.08-2.756-2.943 0-.275.262-.55.845-.629a3.844 3.844 0 0 1 1.952.334l.342-1.57a5.262 5.262 0 0 0-1.851-.334c-1.952 0-3.32 1.021-3.34 2.454-.02 1.08.986 1.668 1.73 2.021s1.026.609 1.026.923c0 .49-.624.726-1.187.726a4.13 4.13 0 0 1-2.032-.471l-.362 1.629a5.73 5.73 0 0 0 2.193.392c2.072.02 3.42-.981 3.44-2.532zm5.151 2.434h1.831l-1.59-7.438h-1.69a.9.9 0 0 0-.845.55l-2.977 6.888h2.072l.402-1.119h2.536l.261 1.12zm-2.213-2.63l1.046-2.787.604 2.787h-1.65zm-8.31-4.808l-1.63 7.438h-1.971l1.63-7.438h1.971z"/><path fill="#FF5F00" d="M13.44 2.964h6.982v11.108H13.44z"/><path d="M14.165 8.518c0-2.165 1.016-4.211 2.756-5.554A7.39 7.39 0 0 0 8.334 2.7C5.72 4.457 4.584 7.668 5.53 10.622c.945 2.955 3.751 4.966 6.924 4.961a7.315 7.315 0 0 0 4.467-1.511c-1.74-1.343-2.756-3.39-2.756-5.554z" fill="#EB001B"/><path d="M28.651 8.518c-.003 2.701-1.585 5.165-4.076 6.346a7.393 7.393 0 0 1-7.634-.792c1.741-1.343 2.757-3.39 2.757-5.554 0-2.165-1.016-4.211-2.757-5.554a7.393 7.393 0 0 1 7.634-.792c2.49 1.18 4.073 3.644 4.076 6.346z" fill="#F79E1B"/><path d="M9.436 19.136v-1.178a.675.675 0 0 0-.196-.54.712.712 0 0 0-.548-.206.8.8 0 0 0-.684.334.709.709 0 0 0-.644-.334.69.69 0 0 0-.584.275v-.236h-.382v1.885h.382v-1.08a.433.433 0 0 1 .123-.357.457.457 0 0 1 .36-.134c.282 0 .443.177.443.491v1.08h.382v-1.08a.433.433 0 0 1 .123-.357.457.457 0 0 1 .36-.134c.282 0 .443.177.443.491v1.08h.422zm6.278-1.865h-.704v-.57h-.383v.57h-.402v.334h.402v.883c0 .432.161.687.644.687.183-.004.363-.05.523-.138l-.12-.333a.674.674 0 0 1-.363.098.286.286 0 0 1-.228-.086.27.27 0 0 1-.073-.228v-.903h.704v-.314zm3.581-.059a.608.608 0 0 0-.523.275v-.236h-.382v1.885h.382v-1.06c0-.314.161-.51.423-.51.088.003.176.016.261.039l.12-.354a1.39 1.39 0 0 0-.28-.039zm-5.412.196a1.407 1.407 0 0 0-.785-.196c-.483 0-.784.216-.784.589 0 .314.22.49.643.55l.202.02c.22.038.362.117.362.215 0 .137-.161.235-.463.235a1.079 1.079 0 0 1-.644-.196l-.201.295c.244.157.532.24.825.235.563 0 .865-.255.865-.608 0-.354-.241-.49-.664-.55l-.201-.02c-.181-.02-.342-.078-.342-.196 0-.117.16-.235.382-.235.21.009.417.062.604.157l.2-.295zm5.855.785a.914.914 0 0 0 .276.712.963.963 0 0 0 .73.27c.247.012.49-.064.684-.216l-.201-.295a.817.817 0 0 1-.503.177.637.637 0 0 1-.595-.628c0-.329.259-.602.595-.628a.82.82 0 0 1 .503.177l.2-.295a1.023 1.023 0 0 0-.683-.216.916.916 0 0 0-.732.24.868.868 0 0 0-.274.702zm-2.716-.98c-.564 0-.946.392-.946.98a.91.91 0 0 0 .268.706c.188.187.45.287.718.276.284.006.561-.085.785-.255l-.202-.275a.977.977 0 0 1-.563.196.561.561 0 0 1-.584-.49h1.429v-.158c0-.588-.362-.98-.905-.98zm0 .352a.488.488 0 0 1 .355.13.464.464 0 0 1 .148.341h-1.047a.513.513 0 0 1 .544-.47zm-5.211.628v-.942h-.383v.236a.748.748 0 0 0-.623-.275.994.994 0 0 0-1.007.981c0 .542.45.982 1.007.982a.748.748 0 0 0 .623-.275v.236h.383v-.943zm-1.57 0a.598.598 0 0 1 .629-.549.596.596 0 0 1 .577.6.597.597 0 0 1-.602.577.599.599 0 0 1-.446-.182.568.568 0 0 1-.158-.446zm14.869-.98a.608.608 0 0 0-.523.274v-.236h-.382v1.885h.382v-1.06c0-.314.16-.51.422-.51.089.003.176.016.262.039l.12-.354a1.39 1.39 0 0 0-.281-.039zm3.098 1.648a.123.123 0 0 1 .08.02c.021 0 .041.019.061.039.02.02.04.039.04.059 0 .02.02.039.02.078a.116.116 0 0 1-.02.079c-.02.02-.02.039-.04.058-.02.02-.04.04-.06.04-.02 0-.04.02-.08.02a.123.123 0 0 1-.081-.02c-.02-.02-.04-.02-.06-.04-.02-.02-.04-.039-.04-.058 0-.02-.02-.04-.02-.079a.116.116 0 0 1 .02-.078c.02-.02.02-.04.04-.06.02-.019.04-.039.06-.039.02 0 .06-.02.08-.02zm0 .333a.076.076 0 0 0 .06-.02.044.044 0 0 0 .041-.038l.04-.04c0-.02.02-.039.02-.059a.072.072 0 0 0-.02-.058.044.044 0 0 0-.04-.04l-.04-.039c-.02 0-.04-.02-.06-.02a.076.076 0 0 0-.061.02.044.044 0 0 0-.04.04l-.04.039c0 .02-.02.039-.02.058a.072.072 0 0 0 .02.06c.001.02.018.037.04.039l.04.039a.076.076 0 0 0 .06.02zm.02-.215a.076.076 0 0 1 .06.02c.021.019.021.019.021.038 0 .02 0 .02-.02.04a.071.071 0 0 1-.04.02l.06.058h-.06l-.06-.059h-.02v.06h-.041v-.177h.1zm-.04.02v.038h.06v-.039h-.06zm-4.567-.806v-.942h-.382v.236a.748.748 0 0 0-.624-.275.994.994 0 0 0-1.006.981c0 .542.45.982 1.006.982a.748.748 0 0 0 .624-.275v.236h.382v-.943zm-1.55 0a.598.598 0 0 1 .63-.549.596.596 0 0 1 .577.6.597.597 0 0 1-.603.577c-.382.02-.603-.274-.603-.628zm5.453 0v-1.687h-.382v.98a.748.748 0 0 0-.624-.274.994.994 0 0 0-1.006.981c0 .542.45.982 1.006.982a.748.748 0 0 0 .624-.275v.236h.382v-.943zm-1.569 0a.598.598 0 0 1 .629-.549.596.596 0 0 1 .577.6.597.597 0 0 1-.602.577.599.599 0 0 1-.446-.182.568.568 0 0 1-.158-.446z" fill="#FFF"/></g></svg>