<svg width="132" height="50" xmlns="http://www.w3.org/2000/svg"><g fill="none" fill-rule="evenodd"><text transform="translate(86.484 22.921)" font-size="6.701" font-family="Arial-Black, Arial Black" fill="#225E63" font-weight="700"><tspan x="0" y="7">COMPLIANT</tspan></text><path d="M72.196 32.795l4.331-1.347-1.402-3.083c-1.043 1.27-2.07 2.913-2.929 4.43zm-1.475-14.11L62.228.015.052 3.498l17.225 46.376 33.16-10.312c-2.102-2.992-2.882-6.547-.444-8.285 2.728-1.946 6.833.304 9.47 3.503 2.531-4.196 9.633-13.887 11.258-16.095z" fill="#225E63"/><path d="M60.298 13.504c2.602 0 4.712-1.963 4.712-4.385 0-2.423-2.11-4.386-4.712-4.386-2.603 0-4.713 1.963-4.713 4.386 0 2.422 2.11 4.385 4.713 4.385zm-3.856 1.902h7.711v19.867h-7.711V15.406zm-3.807 5.798c.055.032.1.006.1-.057v-5.033a.21.21 0 0 0-.102-.17s-1.011-.65-4.098-.832c-.165-.09-2.85-.103-3.596 0-11.215.888-11.63 8.893-11.63 9.259v1.944c0 .24 0 8.424 11.63 9.15 1.136.085 3.362 0 3.596 0 2.678 0 4.534-.796 4.534-.796a.184.184 0 0 0 .107-.158V29.8c0-.064-.042-.086-.098-.053 0 0-.832.66-4.493 1.013-1.038.115-1.53.06-1.904 0-5.19-.861-5.438-4.614-5.438-4.614a2.4 2.4 0 0 1-.013-.227v-1.437c0-.063.006-.166.015-.228 0 0 .351-4.02 5.436-4.444h1.904c2.246.3 4.05 1.395 4.05 1.395zM11.92 35.195c0 .063.05.114.115.114h7.512a.115.115 0 0 0 .115-.114v-5.766c0-.063.051-.111.116-.108 0 0 11.99.856 11.99-7.086 0-6.267-7.522-6.954-9.999-6.84-.05.003-9.732 0-9.732 0a.116.116 0 0 0-.117.115v19.685zm7.608-10.277v-5.195h1.839s2.673.119 2.88 1.913c.05.14.038 1.019 0 1.067-.344 2.112-2.666 2.215-2.666 2.215h-2.053z" fill="#FEFEFE"/><path d="M60.51 44.865c.626 0 1.106 0 1.899-.346 2.737-1.421 11.953-23.628 21.674-30.459a.873.873 0 0 0 .184-.172c.064-.09.067-.182.067-.182s0-.458-1.442-.458C74.24 13.015 65.24 30.914 60.51 37.996c-.06.078-.385 0-.385 0s-3.17-3.69-5.924-5.106a1.696 1.696 0 0 0-.696-.1c-.217 0-1.498.255-2.095.876-.706.734-.691 1.147-.685 2.04 0 .073.048.367.135.518.674 1.162 3.75 5.334 6.27 7.636.39.274.982 1.005 3.38 1.005z" fill="#2BBC5D"/><g font-size="21.722" font-family="Arial-Black, Arial Black" fill="#225E63" font-weight="700"><text transform="translate(84.969 -1)"><tspan x="0" y="24">DS</tspan></text><text transform="translate(117.052 -1)"><tspan x=".039" y="24">S</tspan></text></g></g></svg>