<svg xmlns="http://www.w3.org/2000/svg" viewBox="0 0 84 40"><rect fill="#016fd0" width="84" height="40"/><path fill="#fff" d="M20,21.77V33.18H31.8l1.3-1.72,1.28,1.72h7.15V30.54h1.6a3.89,3.89,0,0,0,2-.43v3.07h4.72v-1.8l1.45,1.8H75.28a2.63,2.63,0,0,0,.49,0,3.9,3.9,0,0,0,2.52-1.22A4.22,4.22,0,0,0,79.36,29a3.88,3.88,0,0,0-1-2.77,2.09,2.09,0,0,0-.22-.2l2-4.27H34.48l-1.32,1.69-1.28-1.69Z"/><path fill="#fff" d="M8.74,6.81h4.65l1.52,3.56V6.81h5.78l.91,2.57.88-2.57H48.4v1.3A5.52,5.52,0,0,1,52,6.81l8.41,0,1.5,3.51V6.81h4.83l1.33,2v-2H73V18.23H68.07l-1.27-2v2H59.7L59,16.43h-1.9l-.71,1.8H51.56A4.72,4.72,0,0,1,48.4,17v1.27H41.14l-1.44-1.8v1.8h-27L12,16.43H10.08l-.7,1.8H3.92Z"/><path fill="#016fd0" d="M9.69,8.22,6.07,16.76H8.43l.67-1.71H13l.67,1.71h2.41L12.44,8.22Zm.16,5,1.18-3,1.19,3Z"/><polygon fill="#016fd0" points="24.73 10.47 24.73 16.76 26.84 16.76 26.84 8.22 23.52 8.22 21.61 13.74 19.66 8.23 16.31 8.22 16.31 16.76 18.42 16.76 18.42 10.47 20.66 16.76 22.5 16.76 24.73 10.47"/><polygon fill="#016fd0" points="35.15 14.91 30.41 14.91 30.41 13.39 35.04 13.39 35.04 11.59 30.41 11.59 30.41 10.13 35.15 10.13 35.15 8.22 28.28 8.22 28.28 16.76 35.15 16.76 35.15 14.91"/><path fill="#016fd0" d="M38.48,13.73h.89l2.52,3h2.57l-2.77-3.14A2.59,2.59,0,0,0,44,11a2.74,2.74,0,0,0-2.94-2.77H36.37v8.54h2.11Zm0-3.6h2.41a1,1,0,0,1,1,.9,1,1,0,0,1-1,.9H38.48Z"/><rect fill="#016fd0" x="44.86" y="8.22" width="2.15" height="8.55"/><path fill="#016fd0" d="M51.65,16.76h.46L53,14.9h-.55a2.08,2.08,0,0,1-2.28-2.35,2,2,0,0,1,2-2.31h2.41v-2H52.22C49.39,8.22,48,10,48,12.53S49.4,16.76,51.65,16.76Z"/><path fill="#016fd0" d="M55.43,16.76l.67-1.71H60l.66,1.71h2.41L59.44,8.22H56.7l-3.63,8.54ZM58,10.21l1.18,3H56.85Z"/><polygon fill="#016fd0" points="65.42 11.26 68.92 16.76 71.51 16.76 71.51 8.22 69.41 8.22 69.41 13.59 65.99 8.22 63.31 8.22 63.31 16.76 65.42 16.76 65.42 11.26"/><polygon fill="#016fd0" points="21.41 31.72 28.28 31.72 28.28 29.86 23.54 29.86 23.54 28.34 28.17 28.34 28.17 26.55 23.54 26.55 23.54 25.08 28.28 25.08 28.28 23.17 21.41 23.17 21.41 31.72"/><polygon fill="#016fd0" points="55.08 31.72 61.95 31.72 61.95 29.86 57.21 29.86 57.21 28.34 61.82 28.34 61.82 26.55 57.21 26.55 57.21 25.08 61.95 25.08 61.95 23.17 55.08 23.17 55.08 31.72"/><polygon fill="#016fd0" points="35.21 23.17 33.16 25.85 31.12 23.17 28.47 23.17 31.89 27.5 28.55 31.72 31.16 31.72 33.1 29.09 35.08 31.72 37.73 31.72 34.38 27.45 37.76 23.17 35.21 23.17"/><path fill="#016fd0" d="M42.63,23.18H38v8.54h2.16V29h2.22c1.87,0,3.29-1,3.29-3A2.78,2.78,0,0,0,42.63,23.18Zm-.16,3.9H40.14v-2h2.33a1,1,0,0,1,1,1A1,1,0,0,1,42.47,27.08Z"/><path fill="#016fd0" d="M54.2,25.94a2.74,2.74,0,0,0-2.94-2.77H46.57v8.55h2.11v-3h.88l2.53,3h2.57l-2.77-3.15A2.59,2.59,0,0,0,54.2,25.94Zm-3.09.94H48.68v-1.8h2.4a1,1,0,0,1,1,.9A1,1,0,0,1,51.11,26.88Z"/><path fill="#016fd0" d="M67.52,26.54h-2a.74.74,0,0,1-.78-.74c0-.34.21-.7.89-.7h3.54l.89-1.93H66c-2.46,0-3.31,1.32-3.31,2.69a2.37,2.37,0,0,0,2.58,2.56h1.91c.62,0,.89.37.89.73s-.27.71-.89.71H62.93v1.86h4.49A2.55,2.55,0,0,0,70.17,29,2.33,2.33,0,0,0,67.52,26.54Z"/><path fill="#016fd0" d="M75.25,26.54h-2a.74.74,0,0,1-.77-.74c0-.34.21-.7.88-.7h3.55l.89-1.93H73.7c-2.46,0-3.31,1.32-3.31,2.69A2.37,2.37,0,0,0,73,28.42h1.9c.63,0,.9.37.9.73s-.27.71-.9.71H70.66v1.86h4.49A2.55,2.55,0,0,0,77.9,29,2.34,2.34,0,0,0,75.25,26.54Z"/></svg>