<svg xmlns="http://www.w3.org/2000/svg" viewBox="0 0 84 40"><path fill="#ffcb09" d="M34.22,19.52v0a1.25,1.25,0,1,1,1.26,1.21v1.63a2.84,2.84,0,1,0-2.95-2.84v0Z"/><polygon fill="#004a8f" points="55.48 15.62 58.22 15.62 58.22 25.47 60.69 25.47 60.69 15.63 60.69 15.63 63.45 15.63 63.45 13.53 55.48 13.53 55.48 15.62"/><polygon fill="#004a8f" points="7 25.47 9.48 25.47 9.48 15.62 14.43 15.62 14.43 25.48 16.91 25.48 16.91 13.53 7 13.53 7 25.47"/><path fill="#004a8f" d="M26.23,14.44A4.52,4.52,0,0,0,23,13.53h-3.6V25.47h2.47V21.05h1.5A4.32,4.32,0,0,0,26.47,20a3.94,3.94,0,0,0-.24-5.55Zm-1.89,4.23a2.59,2.59,0,0,1-1.58.37h-.93V15.53h.78a3,3,0,0,1,1.71.38A1.64,1.64,0,0,1,25,17.27,1.75,1.75,0,0,1,24.34,18.67Z"/><path fill="#004a8f" d="M45.41,14.83a6.15,6.15,0,0,0-2,4.68,5.87,5.87,0,0,0,2,4.57,6.21,6.21,0,0,0,4.53,1.66A6.55,6.55,0,0,0,53,25V22.32a3.77,3.77,0,0,1-2.89,1.31A4.13,4.13,0,1,1,53,16.72V14a6.39,6.39,0,0,0-3-.73A6.5,6.5,0,0,0,45.41,14.83Z"/><rect fill="#004a8f" x="65.92" y="13.53" width="2.47" height="11.95"/><path fill="#004a8f" d="M77.74,14.44a4.55,4.55,0,0,0-3.27-.91h-3.6V25.47h2.48V21.05h1.49A4.36,4.36,0,0,0,78,20a3.73,3.73,0,0,0,1-2.67A3.74,3.74,0,0,0,77.74,14.44Zm-1.89,4.23a2.59,2.59,0,0,1-1.58.37h-.92V15.53h.77a3,3,0,0,1,1.71.38,1.64,1.64,0,0,1,.69,1.36A1.75,1.75,0,0,1,75.85,18.67Z"/><path fill="#004a8f" d="M39.8,17.45a4.43,4.43,0,0,1,.49,2.05,4.84,4.84,0,1,1-5.12-4.66l1.21-1.78a7,7,0,0,0-.92-.06,6.62,6.62,0,0,0-6.74,6.5,6.74,6.74,0,0,0,13.47,0A6.35,6.35,0,0,0,41,15.74Z"/></svg>