<svg xmlns="http://www.w3.org/2000/svg" viewBox="0 0 84 40"><path fill="#2b9050" d="M75.82,13.37,80,21l-8.78,7.62Z"/><path fill="#f37f36" d="M72.93,13.37,77.1,21l-8.77,7.62Z"/><path fill="#3a4682" d="M21.41,16c.42-1.42.29-2.43-.42-3s-2.09-.93-4.17-.93H10.16L6,25.85h4.41l1.44-4.75h1.89c.7,0,1.14.14,1.34.44a1.87,1.87,0,0,1,0,1.5l-.42,1.38a3.38,3.38,0,0,0-.11.57c0,.25-.06.54-.07.86H19l.15-.51c-.24,0-.28-.31-.13-.85v0l.51-1.93a3.29,3.29,0,0,0,.06-2.1,1.79,1.79,0,0,0-1.4-1,5.68,5.68,0,0,0,2.09-1.32A5.21,5.21,0,0,0,21.41,16Zm-4.34.66a1.63,1.63,0,0,1-.7,1,3.13,3.13,0,0,1-1.56.29h-2l.78-2.59h1.91a2.55,2.55,0,0,1,1.51.29C17.18,15.88,17.22,16.22,17.07,16.7Z"/><path fill="#3a4682" d="M29.69,15.67l-1.58,5.24a3.31,3.31,0,0,1-.85,1.55A1.77,1.77,0,0,1,26,23c-.51,0-.82-.15-.94-.45a2.89,2.89,0,0,1,.17-1.6l1.59-5.26H22.7L21.11,21a13.32,13.32,0,0,0-.6,2.62,2.5,2.5,0,0,0,.24,1.33,2.16,2.16,0,0,0,1,.92,3.73,3.73,0,0,0,1.57.3,5.3,5.3,0,0,0,2.13-.43,7.25,7.25,0,0,0,2-1.33L27,25.85h3.72l3.07-10.18Z"/><path fill="#3a4682" d="M47.47,16.86a4.78,4.78,0,0,0,.22-2.27,2.74,2.74,0,0,0-.95-1.6,3.71,3.71,0,0,0-1.64-.71,14.88,14.88,0,0,0-2.94-.22H36.44L32.28,25.85h4.47L38,21.63h2.67A7.43,7.43,0,0,0,45,20.41,6.49,6.49,0,0,0,47.47,16.86Zm-4.24,0a1.75,1.75,0,0,1-.8,1.09,4.37,4.37,0,0,1-2,.31H39l.85-2.82h1.44a3.15,3.15,0,0,1,1.79.31Q43.47,16.07,43.23,16.86Z"/><path fill="#3a4682" d="M56.23,25.21a1.25,1.25,0,0,1,0-.5L58,19a4,4,0,0,0,.24-1.75,1.82,1.82,0,0,0-.69-1.11,3.63,3.63,0,0,0-1.47-.63,10.37,10.37,0,0,0-2.26-.22,9.17,9.17,0,0,0-4.34.87,4.3,4.3,0,0,0-2.2,2.59h4a1.52,1.52,0,0,1,.63-.77,2,2,0,0,1,1.05-.25A1.87,1.87,0,0,1,54,18a.5.5,0,0,1,.16.63c-.16.53-.9.86-2.23,1-.38,0-.69.07-.92.11a10,10,0,0,0-3.84,1A3.76,3.76,0,0,0,45.53,23a2.49,2.49,0,0,0,.23,2.39,3,3,0,0,0,2.42.84,6.8,6.8,0,0,0,2.14-.33,7.44,7.44,0,0,0,2-1l0,1h4.1l.09-.29A.6.6,0,0,1,56.23,25.21Zm-3-3.71c0,.08-.06.18-.09.33a2.92,2.92,0,0,1-.93,1.49,2.6,2.6,0,0,1-1.62.47,1,1,0,0,1-.78-.24.62.62,0,0,1-.1-.68c.13-.45.75-.81,1.85-1.08a15.85,15.85,0,0,0,1.69-.48Z"/><path fill="#3a4682" d="M67,15.67l-3.61,6.18.07-6.18H59.31L59.93,25a5.22,5.22,0,0,1,0,.56,1.82,1.82,0,0,1-.09.43,1.07,1.07,0,0,1-.45.67,1.82,1.82,0,0,1-.92.2H57.31l-.91,3,1.09.06c.35,0,.67,0,.95,0a8.91,8.91,0,0,0,2.17-.19,3.66,3.66,0,0,0,1.31-.65,5.38,5.38,0,0,0,.94-1c.34-.43.86-1.21,1.59-2.34l6.37-10.13Z"/></svg>