<svg xmlns="http://www.w3.org/2000/svg" viewBox="0 0 84 40"><path fill="#e21836" d="M25.84,3H39.4A2.64,2.64,0,0,1,42,6.44L35.72,33.56A4.62,4.62,0,0,1,31.48,37H17.92a2.64,2.64,0,0,1-2.63-3.44L21.6,6.44A4.61,4.61,0,0,1,25.84,3Z"/><path fill="#00447c" d="M38.27,3H53.88c1.89,0,1,1.54.59,3.44L48.15,33.56C47.71,35.45,47.85,37,46,37H30.35a2.63,2.63,0,0,1-2.62-3.44L34,6.44A4.61,4.61,0,0,1,38.27,3Z"/><path fill="#007b84" d="M53.26,3H66.82a2.64,2.64,0,0,1,2.63,3.44L63.14,33.56A4.63,4.63,0,0,1,58.9,37H45.34a2.64,2.64,0,0,1-2.63-3.44L49,6.44A4.61,4.61,0,0,1,53.26,3Z"/><path fill="#fefefe" d="M28.65,15.19a13.71,13.71,0,0,1-1.94,0c-.05.24-1,4.58-1,4.59a3.18,3.18,0,0,1-.85,1.91,1.52,1.52,0,0,1-1,.34.92.92,0,0,1-1-.89v-.2L23,19.73s1-4,1.16-4.48l0-.06a14.23,14.23,0,0,1-2.29,0l-.06.29-1,4.46-.09.38-.16,1.23a1.84,1.84,0,0,0,.21.92c.46.81,1.77.93,2.51.93a4.86,4.86,0,0,0,2.46-.58,3.62,3.62,0,0,0,1.57-2.45l.12-.44s1-4.11,1.19-4.65A.11.11,0,0,1,28.65,15.19Zm3.46,3.32a2.81,2.81,0,0,0-1.1.25l-.43.25.13-.47-.07-.08c-.85.17-1,.19-1.83.3l-.07,0a22.66,22.66,0,0,1-.51,2.82c-.13.55-.26,1.11-.4,1.66l0,.07c.81-.05,1.05-.05,1.75,0l.06-.06c.09-.45.1-.56.3-1.49.09-.44.29-1.4.38-1.75a1.35,1.35,0,0,1,.52-.16c.39,0,.34.35.33.48s-.16,1-.31,1.63l-.1.41-.21.91,0,.07c.8-.05,1-.05,1.72,0l.08-.06c.12-.71.16-.9.38-1.94l.11-.48c.21-.94.32-1.41.16-1.8A.94.94,0,0,0,32.11,18.51Zm3.87,1-1,.17-.94.13,0,0,0,0c0,.3-.07.57-.13.88s-.12.68-.24,1.2a4.43,4.43,0,0,1-.2.68c-.05.15-.1.28-.21.68l0,0,0,0c.38,0,.63,0,.89,0s.52,0,.93,0l0,0,0,0c.06-.35.06-.45.1-.62s.1-.44.25-1.13c.07-.32.15-.65.23-1s.16-.65.23-1v-.07Zm0-1.32a1.56,1.56,0,0,0-1.52.15c-.45.31-.5.75-.12,1a1.57,1.57,0,0,0,1.51-.16C36.31,18.82,36.37,18.39,36,18.17Zm2.32,5.26a2.92,2.92,0,0,0,2.18-.85A3.88,3.88,0,0,0,41.24,21a2,2,0,0,0-.18-1.83,2,2,0,0,0-1.63-.6,3,3,0,0,0-2.06.71A3.39,3.39,0,0,0,36.46,21c-.15.64-.31,1.8.75,2.23A3.13,3.13,0,0,0,38.31,23.43Zm-.06-2.36c.18-.8.4-1.46.94-1.46s.45.49.26,1.29a3.42,3.42,0,0,1-.4,1.11.64.64,0,0,1-.51.34s-.39,0-.4-.51A3.66,3.66,0,0,1,38.25,21.07Zm4.94,2.25.06-.06c.08-.45.1-.56.29-1.49.09-.44.29-1.4.39-1.75a1.26,1.26,0,0,1,.51-.16c.39,0,.35.35.33.48A14.94,14.94,0,0,1,44.46,22l-.09.41c-.07.31-.15.61-.22.91l0,.07c.8-.05,1-.05,1.72,0l.08-.06c.12-.71.16-.9.38-1.94l.11-.48c.21-.94.32-1.41.16-1.8a.94.94,0,0,0-1-.53,2.77,2.77,0,0,0-1.09.25l-.43.25.12-.47-.06-.08c-.86.17-1.05.19-1.84.3l-.06,0a24.76,24.76,0,0,1-.51,2.82c-.13.55-.27,1.11-.4,1.66l0,.07C42.24,23.31,42.49,23.31,43.19,23.32Zm5.87,0,.35-1.7.27-1.11a.58.58,0,0,1,.16-.15H50a5.43,5.43,0,0,0,3.35-.73,3.58,3.58,0,0,0,1.33-2.12,3.24,3.24,0,0,0,.09-.73,1.56,1.56,0,0,0-.27-1c-.5-.7-1.5-.71-2.65-.72h-.57c-1.47,0-2.06,0-2.31,0,0,.11,0,.3,0,.3l-.53,2.45L47,23.35C48.31,23.33,48.84,23.33,49.06,23.36ZM50,19s.56-2.45.56-2.44l0-.12v-.1l.22,0,1.19.1a1,1,0,0,1,.51,1.23,1.79,1.79,0,0,1-.93,1.23,3,3,0,0,1-1.3.2H50Zm3.5,2.1c-.15.64-.32,1.79.74,2.2a1.9,1.9,0,0,0,.94.17,1.54,1.54,0,0,0,.91-.41l-.08.29.05.06c.76,0,1,0,1.82,0l.08-.05c.12-.71.23-1.4.54-2.75.16-.65.31-1.29.46-1.94l0-.07c-.85.16-1.08.19-1.9.31l-.06.05,0,.19a1.17,1.17,0,0,0-.59-.49,2.3,2.3,0,0,0-2,.71A3.35,3.35,0,0,0,53.54,21.11Zm1.79,0c.18-.78.39-1.44.93-1.44.34,0,.52.32.49.86,0,.13-.06.27-.1.43s-.11.47-.17.7a2.13,2.13,0,0,1-.2.4.93.93,0,0,1-.66.32c-.06,0-.39,0-.4-.49A2.77,2.77,0,0,1,55.33,21.15Zm9.33-2.57-.06-.08c-.85.17-1,.2-1.77.3l-.06.06a.08.08,0,0,1,0,0v0c-.58,1.33-.56,1-1,2.09v-.13l-.12-2.26-.08-.08c-.88.17-.9.2-1.71.3l-.07.06a.28.28,0,0,0,0,.09h0a9.09,9.09,0,0,1,.18,1.23c0,.4.11.8.16,1.2.08.67.13,1,.23,2-.55.91-.68,1.26-1.21,2.05h0l-.37.59a.37.37,0,0,1-.14.12.55.55,0,0,1-.24,0h-.21l-.31,1,1.06,0a1.29,1.29,0,0,0,1.21-.68l.67-1.14h0l.07-.08C61.27,24.39,64.66,18.58,64.66,18.58Z"/></svg>