<svg xmlns="http://www.w3.org/2000/svg" viewBox="0 0 84 40"><path fill="#1a1f71" d="M50.69,11a11.4,11.4,0,0,1,4.19.77l-.64,3.9-.42-.19a8,8,0,0,0-3.48-.7c-1.84,0-2.67.79-2.68,1.56s1,1.4,2.63,2.23c2.69,1.29,3.93,2.86,3.91,4.92,0,3.74-3.22,6.16-8.12,6.16a14.16,14.16,0,0,1-5.2-1l.65-4.05.62.29a9.27,9.27,0,0,0,4.37,1c1.35,0,2.79-.56,2.81-1.77,0-.79-.62-1.37-2.42-2.25s-4.13-2.3-4.09-4.9C42.84,13.46,46.08,11,50.69,11ZM33.29,29.38H38l2.92-18H36.21ZM61.08,23l1.86-5.06.14-.4h0c.14-.37.34-.92.47-1.32l.33,1.55S64.76,22.08,65,23Zm5.76-11.66H63.23a2.29,2.29,0,0,0-2.44,1.5L53.86,29.38h4.89l1-2.71h6c.14.64.56,2.71.56,2.71H70.6Zm-37.44,0L24.83,23.64l-.5-2.5h0L22.7,12.85a1.94,1.94,0,0,0-2.12-1.52h-7.5l-.08.36a19,19,0,0,1,4.9,2l4.16,15.68H27l7.33-18Z"/></svg>