<svg xmlns="http://www.w3.org/2000/svg" width="28" height="25" viewBox="0 0 28 25">
  <g fill="none" fill-rule="evenodd" transform="translate(-21 -21)">
    <rect width="70" height="70"/>
    <path fill="#3D3D3D" fill-rule="nonzero" d="M21.8543097,26.647452 L46.8642258,26.647452 L46.8642258,26.647452 C48.0437813,26.647452 49,27.6036707 49,28.7832262 L49,43.6261305 L49,43.6261305 C49,44.8056861 48.0437813,45.7619048 46.8642258,45.7619048 L23.1357742,45.7619048 C21.9562187,45.7619048 21,44.8056861 21,43.6261305 L21,27.5017617 L21,27.5017617 C21,27.0299394 21.3824875,26.647452 21.8543097,26.647452 L21.8543097,26.647452 Z M23.7648568,28.3851295 L23.7648568,28.3851295 C23.175079,28.3851295 22.6969697,28.8632388 22.6969697,29.4530166 L22.6969697,42.9563401 C22.6969697,43.5461179 23.175079,44.0242272 23.7648568,44.0242272 L46.2351432,44.0242272 C46.824921,44.0242272 47.3030303,43.5461179 47.3030303,42.9563401 L47.3030303,29.4530166 C47.3030303,28.8632388 46.824921,28.3851295 46.2351432,28.3851295 L23.7648568,28.3851295 Z"/>
    <path fill="#3D3D3D" fill-rule="nonzero" d="M41.7878788 39.245614C40.1477604 39.245614 38.8181818 37.8841408 38.8181818 36.2046784 38.8181818 34.525216 40.1477604 33.1637427 41.7878788 33.1637427 43.4279971 33.1637427 44.7575758 34.525216 44.7575758 36.2046784 44.7575758 37.8841408 43.4279971 39.245614 41.7878788 39.245614zM41.7878788 37.5079365C42.4907867 37.5079365 43.0606061 36.924448 43.0606061 36.2046784 43.0606061 35.4849088 42.4907867 34.9014202 41.7878788 34.9014202 41.0849709 34.9014202 40.5151515 35.4849088 40.5151515 36.2046784 40.5151515 36.924448 41.0849709 37.5079365 41.7878788 37.5079365zM22.8118074 24.5038403L42.2978347 21.5134824C43.4637413 21.3345605 44.5539402 22.1346696 44.7328622 23.3005762 44.749314 23.407781 44.7575758 23.5160833 44.7575758 23.6245431L44.7575758 27.5162907 21 27.5162907 21 26.6149009 21 26.6149009C21 25.5604404 21.7695483 24.6637871 22.8118074 24.5038403L22.8118074 24.5038403zM23.5836123 26.361578L23.5836123 26.361578C23.0713085 26.4498076 22.6969697 26.8941263 22.6969697 27.4139721L22.6969697 27.4139721 22.6969697 27.5162907 43.0606061 27.5162907 43.0606061 24.2747483C43.0606061 24.2140028 43.0554229 24.153368 43.045113 24.0935038 42.9450144 23.5122826 42.3926956 23.1222556 41.8114744 23.2223542L41.8114744 23.2223542 23.5836123 26.361578z"/>
  </g>
</svg>
