<svg xmlns="http://www.w3.org/2000/svg" width="256" height="256"><path fill="#372666" d="M159.117 39.693c.05 17.19-9.29 31.255-31.137 31.343C105.593 71.1 96.166 57.059 96.1 39.9 96.048 22.2 107.448 8.094 127.768 8c19.766-.049 31.28 13.98 31.349 31.693Zm33.626 137.316c-1.722-13.735-4.19-26.975-6.951-36.978-7.024-32.847-29.868-53.75-58.238-53.998-28.265.248-51.277 21.15-58.296 53.998-4.096 14.71-6.8 31.584-8.178 48.184-.683 7.408-.996 14.683-1.074 22.953-.15 16.035 2.382 26.454 7.726 31.857C71.055 246.377 75.719 248 82 248c11.484 0 19.993-8.836 24.718-17.131 4-7.024 8.983-15.77 20.894-15.77 11.908 0 16.887 8.74 20.886 15.77C153.224 239.164 161.734 248 173.22 248c6.273 0 10.94-1.623 14.26-4.975 5.348-5.4 7.875-15.817 7.728-31.857-.118-12.362-.803-22.492-2.466-34.159Z"/></svg>