<svg xmlns="http://www.w3.org/2000/svg" viewBox="0 0 200 200"><path fill="#372666" d="M118.233 48.258c.029 10.072-5.444 18.313-18.245 18.365-13.117.037-18.64-8.19-18.68-18.244-.03-10.371 6.65-18.636 18.556-18.691 11.582-.03 18.328 8.191 18.369 18.57m19.703 80.458c-1.009-8.048-2.456-15.805-4.073-21.667-4.116-19.246-17.501-31.494-34.124-31.639-16.562.145-30.045 12.393-34.158 31.639-2.4 8.62-3.984 18.507-4.792 28.233-.4 4.341-.583 8.604-.63 13.449-.087 9.396 1.397 15.501 4.528 18.667 1.947 1.964 4.68 2.915 8.36 2.915 6.729 0 11.715-5.178 14.483-10.038 2.344-4.116 5.264-9.24 12.243-9.24 6.977 0 9.895 5.121 12.238 9.24 2.769 4.86 7.755 10.038 14.485 10.038 3.676 0 6.41-.951 8.356-2.915 3.133-3.165 4.614-9.268 4.528-18.667-.069-7.243-.471-13.179-1.445-20.015z"/></svg>