<svg width="200" height="200" fill="none" xmlns="http://www.w3.org/2000/svg"><path d="M120.403 116.815c-5.83-1.206-9.975-4.756-13.591-9.311-1.157.955-1.963 2.324-2.862 3.523-1.477 1.969-3.026 3.887-4.59 5.789-4.097 4.978-8.678 9.661-13.688 13.726-8.135 6.6-21.075 14.389-30.957 6.53-1.368-1.088-2.42-2.429-3.348-3.897-1.245-1.969-1.976-4.275-2.44-6.544-.599-2.935-.938-6.065-.733-9.06.923-13.483 6.921-26.399 14.323-37.5 3.106-4.659 6.681-9.506 10.823-13.297 2.38-2.179 4.908-4.08 7.801-5.517 2.505-1.244 5.27-2.144 8.054-2.506 10.334-1.343 15.835 8.891 18.924 17.041.68 1.792 1.282 3.67 1.713 5.537 1.617-.45 2.813-1.88 4.279-2.69 2.812-1.554 5.836-2.603 9.061-2.824 1.807-.124 4.196.805 5.256-1.035.692-1.2.13-2.118-.368-3.267-.876-2.022-1.645-4.118-2.73-6.04-4.835-8.564-12.028-15.146-21.789-17.394-4.223-.973-8.799-.976-13.087-.517-10.28 1.1-20.06 4.449-28.692 10.193-9.76 6.495-18.312 14.548-24.832 24.329C31.822 89.746 27.739 97.92 25.923 107c-.97 4.857-1.193 9.934-.582 14.849.46 3.697 1.39 7.458 3.013 10.822 1.216 2.518 2.698 4.932 4.538 7.047 13.103 15.066 35.793 15.696 53.535 10.018 3.577-1.145 7.042-2.689 10.318-4.516 7.189-4.01 13.582-8.977 19.631-14.541 1.45-1.333 2.889-2.649 4.279-4.049.572-.576 1.353-1.2 1.586-2.012.253-.879-.308-1.949-.58-2.769-.531-1.612-1.11-3.34-1.258-5.033v-.001Z" fill="#4AC9F5"/><path d="M127.702 76.043c5.992 1.688 10.871 4.42 14.323 9.816 1.116 1.746 1.587 3.729 2.539 5.537 1.383-1.278 2.28-3.197 3.285-4.782l5.285-8.306c3.886-6.126 7.821-12.223 11.671-18.372 1.679-2.682 4.216-5.537 5.179-8.557h-24.413c-.794 0-1.769-.135-2.494.259-.843.459-1.345 1.472-1.833 2.258l-2.827 4.53c-3.586 5.728-8.035 11.396-10.715 17.617Z" fill="#7CC242"/><path d="m127.702 75.54.252.252-.252-.252Z" fill="#6CC49D"/><path d="M122.92 85.97c-3.374.526-6.332 2.369-7.972 5.425-3.082 5.746-.113 13.477 6.211 15.342 1.756.519 3.496.519 5.285.226a9.804 9.804 0 0 0 3.774-1.439c7.814-5.038 5.566-17.442-3.523-19.41-1.242-.269-2.517-.341-3.775-.144Z" fill="#FDD404"/><path d="M120.402 116.815c.316 2.338 1.223 4.528 1.824 6.795 2.304 8.699 5.79 18.218 13.277 23.789 9.197 6.844 22.943 7.094 32.467.707 2.384-1.598 5.563-3.984 6.795-6.626-5.303.014-10.356 1.045-15.603-.512-10.202-3.029-13.276-13.005-16.115-22.139-.886-2.853-1.976-5.679-2.761-8.558-1.95.909-3.411 2.795-5.286 3.913-4.469 2.666-9.504 3.578-14.597 2.631h-.001Z" fill="#EF3A39"/><path d="m120.402 117.57.252.252-.252-.252Z" fill="#C58378"/><path d="m120.402 117.822.252.252-.252-.252Z" fill="#8FB0BF"/><path d="m120.654 118.577.252.252-.252-.252Z" fill="#B8918C"/><path d="m120.906 119.584.252.252-.252-.252Z" fill="#A8A0A3"/><path d="m121.158 120.339.252.252-.252-.252Z" fill="#CA7E72"/><path d="m121.158 120.59.252.252-.252-.252Z" fill="#92AFBC"/><path d="m121.41 121.346.252.252-.252-.252Z" fill="#9FA6AD"/><path d="m121.661 122.101.252.252-.252-.252Z" fill="#AC9C9D"/><path d="m121.913 122.855.252.252-.252-.252Z" fill="#B9918C"/><path d="m122.165 123.61.252.252-.252-.252Z" fill="#C4857B"/></svg>