<svg xmlns="http://www.w3.org/2000/svg" width="256" height="256"><g fill="none"><path fill="#4AC9F5" d="M162.82 156.698c-9.949-2.059-17.024-8.118-23.194-15.892-1.975 1.63-3.351 3.967-4.885 6.013-2.521 3.361-5.165 6.634-7.835 9.88-6.992 8.496-14.81 16.488-23.36 23.426-13.883 11.264-35.968 24.557-52.833 11.144-2.334-1.856-4.13-4.145-5.714-6.651-2.124-3.36-3.372-7.295-4.163-11.168-1.023-5.008-1.602-10.35-1.252-15.463 1.576-23.01 11.812-45.053 24.445-64 5.3-7.95 11.402-16.222 18.471-22.692 4.062-3.719 8.376-6.963 13.314-9.416 4.275-2.124 8.994-3.66 13.745-4.278 17.636-2.292 27.025 15.175 32.297 29.084 1.16 3.059 2.187 6.263 2.924 9.45 2.759-.767 4.8-3.208 7.302-4.591 4.8-2.653 9.96-4.443 15.464-4.82 3.084-.212 7.162 1.374 8.971-1.766 1.18-2.047.221-3.615-.628-5.575-1.496-3.452-2.808-7.028-4.66-10.309-8.252-14.616-20.528-25.85-37.187-29.686-7.207-1.66-15.016-1.665-22.335-.882-17.545 1.878-34.234 7.592-48.967 17.396C46.084 66.986 31.488 80.73 20.36 97.423c-8.717 13.076-15.686 27.027-18.785 42.523-1.657 8.29-2.037 16.954-.994 25.343.785 6.309 2.372 12.728 5.143 18.47 2.074 4.297 4.604 8.416 7.744 12.026 22.363 25.713 61.087 26.788 91.366 17.098 6.105-1.954 12.02-4.589 17.61-7.708 12.27-6.844 23.18-15.321 33.504-24.816 2.475-2.275 4.93-4.521 7.302-6.91.977-.983 2.309-2.049 2.708-3.435.432-1.5-.527-3.325-.99-4.725-.907-2.751-1.895-5.7-2.147-8.59Z"/><path fill="#7CC242" d="M175.277 87.114c10.227 2.88 18.554 7.544 24.445 16.752 1.905 2.98 2.708 6.364 4.334 9.45 2.36-2.18 3.89-5.456 5.606-8.161l9.02-14.175c6.632-10.456 13.348-20.861 19.918-31.356 2.866-4.577 7.196-9.45 8.838-14.604h-41.664c-1.355 0-3.019-.23-4.256.442-1.44.783-2.296 2.513-3.129 3.854l-4.824 7.731c-6.121 9.777-13.713 19.449-18.288 30.067Z"/><path fill="#6CC49D" d="m175.277 86.255.43.43-.43-.43Z"/><path fill="#FDD404" d="M167.116 104.055c-5.758.899-10.807 4.043-13.606 9.26-5.259 9.806-.193 23 10.6 26.183 2.997.885 5.967.886 9.02.386 2.32-.38 4.467-1.184 6.442-2.457 13.336-8.598 9.498-29.767-6.013-33.125-2.119-.459-4.295-.583-6.443-.247Z"/><path fill="#EF3A39" d="M162.82 156.698c.538 3.99 2.087 7.727 3.112 11.597 3.932 14.846 9.882 31.092 22.66 40.6 15.696 11.68 39.156 12.106 55.41 1.206 4.068-2.727 9.495-6.8 11.597-11.309-9.051.025-17.675 1.784-26.63-.874-17.41-5.169-22.657-22.194-27.502-37.784-1.513-4.869-3.373-9.692-4.713-14.604-3.328 1.551-5.821 4.77-9.02 6.678-7.628 4.55-16.221 6.105-24.913 4.49Z"/><path fill="#C58378" d="m162.82 157.987.43.43-.43-.43Z"/><path fill="#8FB0BF" d="m162.82 158.416.43.43-.43-.43Z"/><path fill="#B8918C" d="m163.25 159.705.43.43-.43-.43Z"/><path fill="#A8A0A3" d="m163.68 161.423.43.43-.43-.43Z"/><path fill="#CA7E72" d="m164.11 162.712.429.43-.43-.43Z"/><path fill="#92AFBC" d="m164.11 163.141.429.43-.43-.43Z"/><path fill="#9FA6AD" d="m164.539 164.43.43.43-.43-.43Z"/><path fill="#AC9C9D" d="m164.968 165.718.43.43-.43-.43Z"/><path fill="#B9918C" d="m165.398 167.007.43.43-.43-.43Z"/><path fill="#C4857B" d="m165.827 168.295.43.43-.43-.43Z"/></g></svg>