<svg xmlns="http://www.w3.org/2000/svg" viewBox="0 0 200 200"><path fill="#FAF8F5" d="M100 169.444c38.353 0 69.445-31.092 69.445-69.445S138.353 30.555 100 30.555 30.556 61.646 30.556 99.999 61.647 169.444 100 169.444"/><path fill="#FF875B" d="M111.483 59.722H88.594a1.38 1.38 0 0 0-1.377 1.372c-.517 21.228-11.761 41.361-31.095 55.628a1.34 1.34 0 0 0-.552.897 1.34 1.34 0 0 0 .263 1.019L69.2 136.905a1.435 1.435 0 0 0 1.95.333c12.111-8.889 21.861-19.533 28.856-31.383 7 11.85 16.755 22.55 28.861 31.383a1.36 1.36 0 0 0 1.043.246 1.36 1.36 0 0 0 .901-.579l13.372-18.267a1.396 1.396 0 0 0-.289-1.916c-19.333-14.267-30.577-34.4-31.033-55.628a1.376 1.376 0 0 0-1.378-1.372"/><path fill="#FF875B" stroke="#FF875B" d="M100 172.222c39.887 0 72.222-32.335 72.222-72.222 0-39.888-32.335-72.223-72.222-72.223S27.778 60.112 27.778 100 60.113 172.222 100 172.222Z"/><path fill="#fff" d="M111.483 59.722H88.594a1.38 1.38 0 0 0-1.377 1.372c-.517 21.228-11.761 41.361-31.095 55.628a1.34 1.34 0 0 0-.552.897 1.34 1.34 0 0 0 .263 1.019L69.2 136.905a1.435 1.435 0 0 0 1.95.333c12.111-8.889 21.861-19.533 28.856-31.383 7 11.85 16.755 22.55 28.861 31.383a1.36 1.36 0 0 0 1.043.246 1.36 1.36 0 0 0 .901-.579l13.372-18.267a1.396 1.396 0 0 0-.289-1.916c-19.333-14.267-30.577-34.4-31.033-55.628a1.376 1.376 0 0 0-1.378-1.372"/></svg>