<svg xmlns="http://www.w3.org/2000/svg" width="27" height="27"><g fill="none" fill-rule="evenodd" transform="translate(1 1)"><circle cx="12.5" cy="12.5" r="12.5" fill="#FAF8F5"/><path fill="#FF875B" fill-rule="nonzero" d="M14.567 5.25h-4.12a.248.248 0 0 0-.248.247c-.093 3.821-2.117 7.445-5.597 10.013a.242.242 0 0 0-.052.345l2.406 3.288a.258.258 0 0 0 .351.06c2.18-1.6 3.935-3.516 5.194-5.649 1.26 2.133 3.016 4.059 5.195 5.649a.247.247 0 0 0 .35-.06l2.407-3.288a.252.252 0 0 0-.052-.345c-3.48-2.568-5.504-6.192-5.586-10.013a.248.248 0 0 0-.248-.247Z"/><circle cx="12.5" cy="12.5" r="13" fill="#FF875B" stroke="#FF875B"/><path fill="#FFF" fill-rule="nonzero" d="M14.567 5.25h-4.12a.248.248 0 0 0-.248.247c-.093 3.821-2.117 7.445-5.597 10.013a.242.242 0 0 0-.052.345l2.406 3.288a.258.258 0 0 0 .351.06c2.18-1.6 3.935-3.516 5.194-5.649 1.26 2.133 3.016 4.059 5.195 5.649a.247.247 0 0 0 .35-.06l2.407-3.288a.252.252 0 0 0-.052-.345c-3.48-2.568-5.504-6.192-5.586-10.013a.248.248 0 0 0-.248-.247Z"/></g></svg>