<svg width="200" height="200" fill="none" xmlns="http://www.w3.org/2000/svg"><path d="M100 169.444c38.353 0 69.445-31.092 69.445-69.445 0-38.353-31.092-69.444-69.445-69.444-38.353 0-69.444 31.091-69.444 69.444S61.647 169.444 100 169.444Z" fill="#FAF8F5"/><path d="M111.483 59.722H88.594a1.378 1.378 0 0 0-1.377 1.372c-.517 21.228-11.761 41.361-31.095 55.628a1.338 1.338 0 0 0-.552.897 1.34 1.34 0 0 0 .263 1.019L69.2 136.905a1.435 1.435 0 0 0 1.95.333c12.111-8.889 21.861-19.533 28.856-31.383 7 11.85 16.755 22.55 28.861 31.383a1.361 1.361 0 0 0 1.043.246 1.362 1.362 0 0 0 .901-.579l13.372-18.267a1.396 1.396 0 0 0-.289-1.916c-19.333-14.267-30.577-34.4-31.033-55.628a1.376 1.376 0 0 0-1.378-1.372Z" fill="#FF875B"/><path d="M100 172.222c39.887 0 72.222-32.335 72.222-72.222 0-39.888-32.335-72.223-72.222-72.223-39.887 0-72.222 32.335-72.222 72.223 0 39.887 32.335 72.222 72.222 72.222Z" fill="#FF875B" stroke="#FF875B"/><path d="M111.483 59.722H88.594a1.378 1.378 0 0 0-1.377 1.372c-.517 21.228-11.761 41.361-31.095 55.628a1.338 1.338 0 0 0-.552.897 1.34 1.34 0 0 0 .263 1.019L69.2 136.905a1.435 1.435 0 0 0 1.95.333c12.111-8.889 21.861-19.533 28.856-31.383 7 11.85 16.755 22.55 28.861 31.383a1.361 1.361 0 0 0 1.043.246 1.362 1.362 0 0 0 .901-.579l13.372-18.267a1.396 1.396 0 0 0-.289-1.916c-19.333-14.267-30.577-34.4-31.033-55.628a1.376 1.376 0 0 0-1.378-1.372Z" fill="#fff"/></svg>