<svg width="200" height="200" fill="none" xmlns="http://www.w3.org/2000/svg"><g clip-path="url(#a)"><path d="m117.396 36.469-3.251 2.167-4.449 30.285 22.244 11.75 8.811 16.311-2.024 14.943 26.235 14.544 1.711-1.369-13.003-7.386 3.65-33.536-8.84-15.998-32.881-17.68 1.797-14.031Z" fill="url(#b)"/><path d="m131.939 80.67 8.783 16.284 16.597-12.805-8.84-15.97-16.54 12.491Z" fill="url(#c)"/><path d="m50.124 62.645-2.538 17.11 2.538-17.11ZM32.7 71.2l2.595 1.455 14.858-10.067 13.517 7.5-2.852 16.797 29.287 16.426 16.483-12.234L49.554 58.88 32.7 71.2Z" fill="url(#d)"/><path d="M34.155 57.742 32.7 71.23l16.797-12.348 2.025-13.346.028.029v-.029L34.155 57.742Z" fill="url(#e)"/><path d="m84.315 39.662-2.395 22.7 3.565 1.967 11.578-4.278L101.796 27l-17.48 12.662Z" fill="url(#f)"/><path d="m101.796 27-4.734 33.051L101.796 27Z" fill="url(#g)"/><path d="m97.062 60.05-11.578 4.278 11.578-4.277Z" fill="url(#h)"/><path d="m49.468 58.912 56.977 32.196-56.977-32.196Z" fill="url(#i)"/><path d="M97.063 60.051 85.485 64.33 51.52 45.536l-2.053 13.375 56.977 32.195 8.413-57.205L101.797 27l-4.734 33.051Z" fill="url(#j)"/><path d="m119.819 127.35-1.283 10.152 29.543 16.369 17.111-12.833-33.565-18.222-11.806 4.534Z" fill="url(#k)"/><path fill-rule="evenodd" clip-rule="evenodd" d="m102.024 153.018-16.882 12.063 13.29 7.557 17.223-12.462-13.631-7.158Z" fill="#215E85"/><path d="m131.626 122.816 33.593 18.222-33.593-18.222Z" fill="url(#l)"/><path d="m102.024 153.017 13.631 7.158 4.164-32.824 11.806-4.534 33.593 18.223 1.968-13.318-57.092-31.682-8.07 56.977Z" fill="url(#m)"/><path d="M49.582 63.016 33.184 74.109 25 131.143l57.32 31.768 16.368-12.69-57.034-30.741 8.555-57.035-.627.57Z" fill="url(#n)"/><path d="m41.683 119.567 57.005 30.77 2.881-12.519-34.221-19.934-9.382-15.485 5.675-32.281-13.175-7.3-.342-.171-8.441 56.92Z" fill="url(#o)"/><path d="m148.451 68.18 8.869 15.998-8.869-15.998Z" fill="url(#p)"/><path d="m117.395 36.469-1.796 14.03 1.796-14.03Z" fill="url(#q)"/><path d="m115.599 50.498 32.851 17.68-32.851-17.68Z" fill="url(#r)"/><path d="m153.669 117.711 13.033 7.415-13.033-7.415Z" fill="url(#s)"/><path d="m157.32 84.176-3.651 33.536 3.651-33.536Z" fill="url(#t)"/><path d="m115.599 50.5 32.88 17.68 8.84 15.998-3.65 33.536 13.032 7.414L175 68.522l-57.605-32.053-1.796 14.03Z" fill="url(#u)"/><path d="m102.024 153.017 8.07-56.977-8.07 56.977Z" fill="url(#v)"/><path d="m93.098 108.844-3.136 22.215 11.606 6.758-2.88 12.519-12.862 9.981-.684 4.734 16.882-12.034 8.071-56.977-16.997 12.804Z" fill="url(#w)"/><path d="m25 131.258 16.682-11.692L25 131.258Z" fill="url(#x)"/><path d="m41.198 119.879 57.035 30.741.684-.713-57.006-30.77-.713.742Z" fill="url(#y)"/><path d="m49.61 63.016-8.469 56.863.998-.228 8.441-56.778-.484-.057-.485.2Z" fill="url(#z)"/></g><defs><linearGradient id="b" x1="109.696" y1="81.469" x2="166.673" y2="81.469" gradientUnits="userSpaceOnUse"><stop stop-color="#3B3635"/><stop offset="1" stop-color="#2B2523"/></linearGradient><linearGradient id="c" x1="131.939" y1="82.581" x2="157.319" y2="82.581" gradientUnits="userSpaceOnUse"><stop stop-color="#3B3635"/><stop offset=".31" stop-color="#3F3A3A"/><stop offset=".65" stop-color="#4C4747"/><stop offset="1" stop-color="#5F5C5C"/></linearGradient><linearGradient id="d" x1="32.672" y1="81.124" x2="106.445" y2="81.124" gradientUnits="userSpaceOnUse"><stop stop-color="#394F7B"/><stop offset="1" stop-color="#1C65AF"/></linearGradient><linearGradient id="e" x1="32.7" y1="58.369" x2="51.55" y2="58.369" gradientUnits="userSpaceOnUse"><stop stop-color="#394F7B"/><stop offset="1" stop-color="#175CA8"/></linearGradient><linearGradient id="f" x1="81.92" y1="45.679" x2="101.796" y2="45.679" gradientUnits="userSpaceOnUse"><stop stop-color="#504C4C"/><stop offset="1" stop-color="#2B2523"/></linearGradient><linearGradient id="g" x1="89.819" y1="36.867" x2="95.523" y2="36.867" gradientUnits="userSpaceOnUse"><stop stop-color="#6294CE"/><stop offset="1" stop-color="#195AA6"/></linearGradient><linearGradient id="h" x1="83.348" y1="60.091" x2="95.268" y2="60.091" gradientUnits="userSpaceOnUse"><stop stop-color="#6294CE"/><stop offset="1" stop-color="#195AA6"/></linearGradient><linearGradient id="i" x1="45.043" y1="70.317" x2="102.505" y2="70.317" gradientUnits="userSpaceOnUse"><stop stop-color="#1C65AF"/><stop offset="1" stop-color="#394F7B"/></linearGradient><linearGradient id="j" x1="49.468" y1="59.053" x2="114.858" y2="59.053" gradientUnits="userSpaceOnUse"><stop stop-color="#195AA6"/><stop offset="1" stop-color="#6294CE"/></linearGradient><linearGradient id="k" x1="118.536" y1="138.358" x2="165.19" y2="138.358" gradientUnits="userSpaceOnUse"><stop stop-color="#504C4C"/><stop offset="1" stop-color="#2B2523"/></linearGradient><linearGradient id="l" x1="135.576" y1="136.565" x2="169.626" y2="136.565" gradientUnits="userSpaceOnUse"><stop stop-color="#394F7B"/><stop offset="1" stop-color="#1C65AF"/></linearGradient><linearGradient id="m" x1="167.186" y1="128.093" x2="102.024" y2="128.093" gradientUnits="userSpaceOnUse"><stop stop-color="#195AA6"/><stop offset="1" stop-color="#6294CE"/></linearGradient><linearGradient id="n" x1="25" y1="112.835" x2="98.688" y2="112.835" gradientUnits="userSpaceOnUse"><stop stop-color="#C84318"/><stop offset="1" stop-color="#A33F17"/></linearGradient><linearGradient id="o" x1="41.683" y1="106.477" x2="101.569" y2="106.477" gradientUnits="userSpaceOnUse"><stop stop-color="#E84C16"/><stop offset="1" stop-color="#EC6810"/></linearGradient><linearGradient id="p" x1="152.648" y1="80.978" x2="162.344" y2="80.978" gradientUnits="userSpaceOnUse"><stop stop-color="#195AA6"/><stop offset="1" stop-color="#6294CE"/></linearGradient><linearGradient id="q" x1="122.857" y1="50.126" x2="125.594" y2="50.126" gradientUnits="userSpaceOnUse"><stop stop-color="#6294CE"/><stop offset="1" stop-color="#195AA6"/></linearGradient><linearGradient id="r" x1="109.7" y1="52.957" x2="143.037" y2="52.957" gradientUnits="userSpaceOnUse"><stop stop-color="#6294CE"/><stop offset="1" stop-color="#195AA6"/></linearGradient><linearGradient id="s" x1="154.748" y1="122.759" x2="168.237" y2="122.759" gradientUnits="userSpaceOnUse"><stop stop-color="#6294CE"/><stop offset="1" stop-color="#195AA6"/></linearGradient><linearGradient id="t" x1="160.89" y1="108.233" x2="165.482" y2="108.233" gradientUnits="userSpaceOnUse"><stop stop-color="#6294CE"/><stop offset="1" stop-color="#195AA6"/></linearGradient><linearGradient id="u" x1="115.599" y1="80.784" x2="175" y2="80.784" gradientUnits="userSpaceOnUse"><stop stop-color="#1860AB"/><stop offset=".64" stop-color="#3E79BD"/><stop offset="1" stop-color="#6294CE"/></linearGradient><linearGradient id="v" x1="105.911" y1="129.003" x2="114.923" y2="129.003" gradientUnits="userSpaceOnUse"><stop stop-color="#195AA6"/><stop offset="1" stop-color="#6294CE"/></linearGradient><linearGradient id="w" x1="85.142" y1="130.545" x2="110.095" y2="130.545" gradientUnits="userSpaceOnUse"><stop stop-color="#394F7B"/><stop offset="1" stop-color="#175CA8"/></linearGradient><linearGradient id="x" x1="24.471" y1="125.1" x2="41.695" y2="125.1" gradientUnits="userSpaceOnUse"><stop stop-color="#C84318"/><stop offset="1" stop-color="#A33F17"/></linearGradient><linearGradient id="y" x1="41.198" y1="134.879" x2="98.917" y2="134.879" gradientUnits="userSpaceOnUse"><stop stop-color="#EC6810"/><stop offset="1" stop-color="#E84C16"/></linearGradient><linearGradient id="z" x1="41.141" y1="91.334" x2="50.58" y2="91.334" gradientUnits="userSpaceOnUse"><stop stop-color="#EC6810"/><stop offset="1" stop-color="#E84C16"/></linearGradient><clipPath id="a"><path fill="#fff" transform="translate(25 27)" d="M0 0h150v145.637H0z"/></clipPath></defs></svg>