<svg width="200" height="200" fill="none" xmlns="http://www.w3.org/2000/svg"><g clip-path="url(#a)"><path d="m123.425 15.322-4.321 2.881-5.914 40.26 29.569 15.618 11.714 21.684-2.692 19.864 34.876 19.333 2.275-1.819-17.287-9.819 4.853-44.58-11.752-21.267-43.709-23.504 2.388-18.65Z" fill="url(#b)"/><path d="m142.758 74.08 11.676 21.647 22.063-17.022-11.752-21.228-21.987 16.604Z" fill="url(#c)"/><path d="m33.998 50.12-3.374 22.745 3.374-22.745ZM10.836 61.493l3.45 1.933 19.75-13.382 17.969 9.97-3.791 22.329 38.932 21.835 21.911-16.263L33.24 45.116 10.836 61.493Z" fill="url(#d)"/><path d="m12.77 43.6-1.934 17.932 22.328-16.415 2.692-17.741.038.038v-.038L12.769 43.601Z" fill="url(#e)"/><path d="m79.45 19.567-3.184 30.175 4.738 2.616 15.391-5.686 6.293-43.937L79.45 19.567Z" fill="url(#f)"/><path d="m102.688 2.735-6.293 43.937 6.293-43.937Z" fill="url(#g)"/><path d="m96.395 46.67-15.39 5.687 15.39-5.686Z" fill="url(#h)"/><path d="m33.126 45.156 75.742 42.8-75.742-42.8Z" fill="url(#i)"/><path d="m96.396 46.672-15.391 5.686-45.15-24.982-2.729 17.78 75.742 42.798 11.183-76.045-17.362-9.174-6.293 43.937Z" fill="url(#j)"/><path d="m126.646 136.134-1.706 13.495 39.274 21.76 22.745-17.059-44.618-24.224-15.695 6.028Z" fill="url(#k)"/><path fill-rule="evenodd" clip-rule="evenodd" d="m102.991 170.256-22.442 16.035 17.665 10.046 22.897-16.566-18.12-9.515Z" fill="#215E85"/><path d="m142.342 130.106 44.656 24.224-44.656-24.224Z" fill="url(#l)"/><path d="m102.991 170.253 18.12 9.515 5.535-43.632 15.694-6.028 44.656 24.224 2.616-17.704-75.893-42.116-10.728 75.741Z" fill="url(#m)"/><path d="M33.277 50.613 11.48 65.359.6 141.177l76.197 42.23 21.76-16.869-75.818-40.866L34.11 49.855l-.834.758Z" fill="url(#n)"/><path d="m22.777 125.787 75.78 40.903 3.828-16.641-45.49-26.499-12.472-20.584 7.544-42.913-17.514-9.704-.455-.228-11.221 75.666Z" fill="url(#o)"/><path d="m164.707 57.477 11.79 21.266-11.79-21.266Z" fill="url(#p)"/><path d="m123.424 15.322-2.388 18.651 2.388-18.65Z" fill="url(#q)"/><path d="m121.036 33.973 43.671 23.503-43.671-23.503Z" fill="url(#r)"/><path d="m171.645 123.321 17.324 9.857-17.324-9.857Z" fill="url(#s)"/><path d="m176.497 78.741-4.852 44.581 4.852-44.58Z" fill="url(#t)"/><path d="m121.036 33.973 43.709 23.504 11.752 21.267-4.853 44.58 17.325 9.857L200 57.931l-76.576-42.609-2.388 18.651Z" fill="url(#u)"/><path d="m102.991 170.253 10.728-75.741-10.728 75.741Z" fill="url(#v)"/><path d="m91.125 111.533-4.17 29.531 15.429 8.984-3.829 16.642-17.096 13.268-.91 6.293 22.442-15.998 10.728-75.741-22.594 17.021Z" fill="url(#w)"/><path d="m.6 141.33 22.177-15.543L.6 141.33Z" fill="url(#x)"/><path d="m22.133 126.202 75.817 40.866.91-.948-75.78-40.903-.947.985Z" fill="url(#y)"/><path d="m33.316 50.612-11.259 75.59 1.327-.303 11.22-75.477-.643-.075-.645.265Z" fill="url(#z)"/></g><defs><linearGradient id="b" x1="113.19" y1="75.142" x2="188.932" y2="75.142" gradientUnits="userSpaceOnUse"><stop stop-color="#3B3635"/><stop offset="1" stop-color="#2B2523"/></linearGradient><linearGradient id="c" x1="142.758" y1="76.621" x2="176.497" y2="76.621" gradientUnits="userSpaceOnUse"><stop stop-color="#3B3635"/><stop offset=".31" stop-color="#3F3A3A"/><stop offset=".65" stop-color="#4C4747"/><stop offset="1" stop-color="#5F5C5C"/></linearGradient><linearGradient id="d" x1="10.798" y1="74.685" x2="108.868" y2="74.685" gradientUnits="userSpaceOnUse"><stop stop-color="#394F7B"/><stop offset="1" stop-color="#1C65AF"/></linearGradient><linearGradient id="e" x1="10.836" y1="44.435" x2="35.894" y2="44.435" gradientUnits="userSpaceOnUse"><stop stop-color="#394F7B"/><stop offset="1" stop-color="#175CA8"/></linearGradient><linearGradient id="f" x1="76.266" y1="27.566" x2="102.688" y2="27.566" gradientUnits="userSpaceOnUse"><stop stop-color="#504C4C"/><stop offset="1" stop-color="#2B2523"/></linearGradient><linearGradient id="g" x1="86.767" y1="15.852" x2="94.348" y2="15.852" gradientUnits="userSpaceOnUse"><stop stop-color="#6294CE"/><stop offset="1" stop-color="#195AA6"/></linearGradient><linearGradient id="h" x1="78.164" y1="46.724" x2="94.01" y2="46.724" gradientUnits="userSpaceOnUse"><stop stop-color="#6294CE"/><stop offset="1" stop-color="#195AA6"/></linearGradient><linearGradient id="i" x1="27.244" y1="60.318" x2="103.631" y2="60.318" gradientUnits="userSpaceOnUse"><stop stop-color="#1C65AF"/><stop offset="1" stop-color="#394F7B"/></linearGradient><linearGradient id="j" x1="33.126" y1="45.345" x2="120.051" y2="45.345" gradientUnits="userSpaceOnUse"><stop stop-color="#195AA6"/><stop offset="1" stop-color="#6294CE"/></linearGradient><linearGradient id="k" x1="124.94" y1="150.767" x2="186.959" y2="150.767" gradientUnits="userSpaceOnUse"><stop stop-color="#504C4C"/><stop offset="1" stop-color="#2B2523"/></linearGradient><linearGradient id="l" x1="147.593" y1="148.384" x2="192.856" y2="148.384" gradientUnits="userSpaceOnUse"><stop stop-color="#394F7B"/><stop offset="1" stop-color="#1C65AF"/></linearGradient><linearGradient id="m" x1="189.612" y1="137.121" x2="102.991" y2="137.121" gradientUnits="userSpaceOnUse"><stop stop-color="#195AA6"/><stop offset="1" stop-color="#6294CE"/></linearGradient><linearGradient id="n" x1=".6" y1="116.839" x2="98.556" y2="116.839" gradientUnits="userSpaceOnUse"><stop stop-color="#C84318"/><stop offset="1" stop-color="#A33F17"/></linearGradient><linearGradient id="o" x1="22.777" y1="108.387" x2="102.385" y2="108.387" gradientUnits="userSpaceOnUse"><stop stop-color="#E84C16"/><stop offset="1" stop-color="#EC6810"/></linearGradient><linearGradient id="p" x1="170.287" y1="74.49" x2="183.176" y2="74.49" gradientUnits="userSpaceOnUse"><stop stop-color="#195AA6"/><stop offset="1" stop-color="#6294CE"/></linearGradient><linearGradient id="q" x1="130.685" y1="33.477" x2="134.324" y2="33.477" gradientUnits="userSpaceOnUse"><stop stop-color="#6294CE"/><stop offset="1" stop-color="#195AA6"/></linearGradient><linearGradient id="r" x1="113.195" y1="37.242" x2="157.51" y2="37.242" gradientUnits="userSpaceOnUse"><stop stop-color="#6294CE"/><stop offset="1" stop-color="#195AA6"/></linearGradient><linearGradient id="s" x1="173.079" y1="130.032" x2="191.009" y2="130.032" gradientUnits="userSpaceOnUse"><stop stop-color="#6294CE"/><stop offset="1" stop-color="#195AA6"/></linearGradient><linearGradient id="t" x1="181.243" y1="110.721" x2="187.347" y2="110.721" gradientUnits="userSpaceOnUse"><stop stop-color="#6294CE"/><stop offset="1" stop-color="#195AA6"/></linearGradient><linearGradient id="u" x1="121.036" y1="74.233" x2="200" y2="74.233" gradientUnits="userSpaceOnUse"><stop stop-color="#1860AB"/><stop offset=".64" stop-color="#3E79BD"/><stop offset="1" stop-color="#6294CE"/></linearGradient><linearGradient id="v" x1="108.158" y1="138.331" x2="120.138" y2="138.331" gradientUnits="userSpaceOnUse"><stop stop-color="#195AA6"/><stop offset="1" stop-color="#6294CE"/></linearGradient><linearGradient id="w" x1="80.549" y1="140.381" x2="113.719" y2="140.381" gradientUnits="userSpaceOnUse"><stop stop-color="#394F7B"/><stop offset="1" stop-color="#175CA8"/></linearGradient><linearGradient id="x" x1="-.103" y1="133.143" x2="22.793" y2="133.143" gradientUnits="userSpaceOnUse"><stop stop-color="#C84318"/><stop offset="1" stop-color="#A33F17"/></linearGradient><linearGradient id="y" x1="22.133" y1="146.142" x2="98.86" y2="146.142" gradientUnits="userSpaceOnUse"><stop stop-color="#EC6810"/><stop offset="1" stop-color="#E84C16"/></linearGradient><linearGradient id="z" x1="22.057" y1="88.255" x2="34.605" y2="88.255" gradientUnits="userSpaceOnUse"><stop stop-color="#EC6810"/><stop offset="1" stop-color="#E84C16"/></linearGradient><clipPath id="a"><path fill="#fff" transform="translate(.6 2.735)" d="M0 0h199.4v193.6H0z"/></clipPath></defs></svg>