<svg xmlns="http://www.w3.org/2000/svg" width="256" height="256"><defs><linearGradient id="a" x1="50%" x2="50%" y1="0%" y2="100%"><stop offset="0%" stop-color="#182848"/><stop offset="100%" stop-color="#243963"/></linearGradient><linearGradient id="b" x1="0%" x2="0%" y1="0%" y2="100%"><stop offset="0%" stop-color="#42C1FD"/><stop offset="100%" stop-color="#1F8EFA"/></linearGradient></defs><g fill="none" fill-rule="evenodd"><path fill="url(#a)" d="M0 128C0 57.308 57.307 0 128 0c70.692 0 128 57.308 128 128 0 70.693-57.308 128-128 128C57.307 256 0 198.693 0 128Z"/><path fill="url(#b)" d="m44 200.203 49.852-136.06c6.326-15.885 18.12-24.877 33.797-25.137V39h.702v.006c15.678.26 27.471 9.252 33.797 25.137L212 200.203l-30.87-10.695L138.544 73.28c-2.592-6.428-5.585-8.743-10.544-8.845-4.96.102-7.952 2.417-10.544 8.845L74.87 189.508 44 200.203Zm105.691-51.809c0 11.884-9.58 21.52-21.398 21.52s-21.399-9.636-21.399-21.52c0-11.885 9.58-21.52 21.399-21.52 11.818 0 21.398 9.635 21.398 21.52Z"/></g></svg>