<svg xmlns="http://www.w3.org/2000/svg" viewBox="0 0 200 200"><path fill="url(#a)" fill-rule="evenodd" d="M25 100c0-41.421 33.578-75 75-75s75 33.579 75 75-33.579 75-75 75-75-33.578-75-75" clip-rule="evenodd"/><path fill="url(#b)" fill-rule="evenodd" d="m50.781 142.306 29.21-79.722c3.707-9.308 10.618-14.577 19.803-14.729v-.003h.412v.003c9.186.152 16.096 5.421 19.803 14.729l29.21 79.722-18.088-6.266-24.953-68.102c-1.519-3.767-3.272-5.123-6.178-5.183-2.906.06-4.66 1.416-6.178 5.182L68.869 136.04zm61.929-30.356c0 6.963-5.614 12.609-12.538 12.609s-12.539-5.646-12.539-12.609c0-6.964 5.614-12.61 12.539-12.61s12.538 5.646 12.538 12.61" clip-rule="evenodd"/><defs><linearGradient id="a" x1="100" x2="100" y1="25" y2="175" gradientUnits="userSpaceOnUse"><stop stop-color="#182848"/><stop offset="1" stop-color="#243963"/></linearGradient><linearGradient id="b" x1="50.781" x2="50.781" y1="47.852" y2="142.306" gradientUnits="userSpaceOnUse"><stop stop-color="#42C1FD"/><stop offset="1" stop-color="#1F8EFA"/></linearGradient></defs></svg>