<svg xmlns="http://www.w3.org/2000/svg" viewBox="0 0 200 200"><path fill="#fff" d="M175 100c0-41.421-33.579-75-75-75s-75 33.579-75 75 33.579 75 75 75 75-33.579 75-75"/><path fill-rule="evenodd" d="M25 100c0-41.42 33.58-75 75-75s75 33.58 75 75-33.58 75-75 75-75-33.58-75-75m8.74.34c0 36.4 29.52 65.92 65.92 65.92s65.92-29.52 65.92-65.92-29.52-65.92-65.92-65.92-65.92 29.52-65.92 65.92m89.789-37.169c.655-1.313 1.325-2.66 2.011-4.03l.18-.061h7.22l-.24.44-.707 1.345a2070 2070 0 0 1-5.093 9.655c1.64.82 2.94 1.9 3.86 3.18 1.14 1.58 1.7 3.7 1.7 6.32 0 1.36-.34 2.98-1.02 4.82-.679 1.82-1.82 3.66-3.4 5.44s-3.68 3.48-6.26 5.06c-1.32.8-2.78 1.64-4.56 2.36 1.52.18 2.96.44 4.3.8 2.14.58 4.02 1.42 5.6 2.48 1.6 1.06 2.88 2.44 3.78 4.06s1.36 3.58 1.36 5.78c0 3.36-1 6.54-2.98 9.46-1.96 2.88-4.48 5.44-7.46 7.58s-6.36 3.84-10.02 5.06-7.3 1.84-10.8 1.84c-2.96 0-5.58-.3-7.84-.92a.1.1 0 0 0-.02.04 856 856 0 0 0-3.74 7.46l-.08.18H82.1l.24-.44 2.701-5.135q1.296-2.46 2.518-4.785c-1.94-1.52-2.92-3.38-2.92-5.52 0-1.76.7-3.3 2.08-4.58 1.38-1.26 3.241-1.9 5.54-1.9 1.44 0 2.7.42 3.78 1.28l.56.44-.72.1c-1.38.2-2.32.78-2.88 1.82-.58 1.061-.88 2.42-.88 4.061 0 1.739.8 3.159 2.42 4.319 1.64 1.18 3.76 1.78 6.321 1.78 3.839 0 7.239-.66 10.119-1.96s5.3-3.04 7.22-5.16a21.5 21.5 0 0 0 4.34-7.3 25.2 25.2 0 0 0 1.44-8.42c0-2.1-.459-3.86-1.359-5.26s-2.141-2.54-3.701-3.4c-1.64-.9-3-1.46-4.74-1.52-2.619-.1-5.78.24-5.92.26l-.3.04v-.06c-1.18.02-2.48.2-3.88.48-1.62.32-3.079.5-4.32.5l-.1-.02c-.099-.02-.18-.06-.26-.099v-.001a1 1 0 0 0-.09-.05q-.045-.021-.09-.05a.4.4 0 0 1-.11-.065 1 1 0 0 1-.21-.175c-.2-.2-.3-.6-.3-1.28 0-.56.16-1.02.5-1.42q.54-.6 1.38-.6c1.08 0 2.1.14 3.081.44.919.28 1.899.42 2.9.42.819 0 1.799-.08 2.879-.22 1.061-.14 1.981-.34 2.7-.62 1.14-.52 1.94-1.14 2.86-1.86.42-.34.86-.68 1.36-1.04a24 24 0 0 0 4.42-4.16 21.2 21.2 0 0 0 3.141-5.34c.779-1.96 1.18-4.08 1.18-6.3 0-1.72-.381-3.18-1.101-4.32a7.9 7.9 0 0 0-2.88-2.68l-.48-.24c-.6-.3-1.26-.54-1.94-.74-.56-.16-1.04-.28-1.559-.36-1.52-.24-2.281-.36-3.781-.36-.999 0-1.96.12-2.839.34-.821.22-1.561.74-2.181 1.54-1.04 1.3-2.1 2.9-3.179 4.74l-.74 1.26c-.428.738-.851 1.46-1.261 2.16a436 436 0 0 0-1.039 1.78c-3.02 5.42-16.12 30.48-19.26 36.7l-.44.88q-3.987 8.058-7.969 16.117c-1.637 3.314-2.455 4.97-2.852 5.763l-.08.18H64.2l.24-.44c1.5-2.88 3.18-6.08 4.74-9.02a29 29 0 0 1-3.06 1.28c-2.9 1.04-5.7 1.28-8.26.72-2.32-.5-3.8-1.6-4.38-3.28-.38-1.12-.3-2.14.24-3.04.52-.88 1.34-1.54 2.44-1.92s2.06-.38 2.84 0 1.32 1.04 1.64 1.92c.28.8.2 1.6-.26 2.36-.38.64-.94 1.12-1.66 1.46.24.26.56.44.96.56.58.18 1.22.28 1.9.28.64 0 1.34-.02 2.02-.22 3.3-.98 5.04-2.34 6.88-5.34 1.54-2.526 11.9-21.408 13.365-24.081l.056-.099c.48-.92 1.359-2.54 2.34-4.34l1.342-2.472c1.32-2.433 2.57-4.732 3.137-5.748.142-.26.4-.738.748-1.382.586-1.082 1.426-2.636 2.392-4.418 2.74-5.06 6.381-11.78 7.54-13.84-.06 0-.12 0-.16-.02h-.04c-8.04-.2-21.52-.5-33.9 7.64-6.439 4.22-13.04 15.2-11.6 22.48.68 3.42 2.98 5.54 6.88 6.28 5.1.98 8.84-1.3 11.08-3.4 3.5-3.28 5.12-7.68 4.9-9.48-.436-3.567-2.698-3.62-3.576-3.639l-.024-.001q-.084-.001-.15-.012a1 1 0 0 0-.09-.008l-.16-.02-.08-.16c-.08-.2.08-.6.22-.82a.91.91 0 0 1 .68-.4c2.86-.18 6.86 1.76 7.52 4.4 1.22 4.9-4.06 12.54-12.74 15.02-7.78 2.22-12.46.46-15-1.42-3.46-2.52-4.76-6.46-4.84-9.28-.18-6.66 5.32-15.86 12.24-20.52 10.38-7 21.1-9.46 39.52-9.08.261-.02.52-.02.8-.02a1182 1182 0 0 0 4.441-8.78l.079-.18h7.221l-.241.44c-1.259 2.4-2.8 5.14-4.3 7.78l-.4.72c2.801.04 5.18.14 7.881.34q1.71.12 3.24.36l.9-1.8q.893-1.788 1.829-3.668Z" clip-rule="evenodd"/></svg>