<svg xmlns="http://www.w3.org/2000/svg" width="256" height="256"><g fill="none" fill-rule="evenodd"><rect width="256" height="256" fill="#FFF" fill-rule="nonzero" rx="128"/><path fill="#000" d="M0 128C0 57.31 57.31 0 128 0s128 57.31 128 128-57.31 128-128 128S0 198.69 0 128Zm14.916.58c0 62.123 50.381 112.504 112.504 112.504 62.122 0 112.503-50.381 112.503-112.504 0-62.122-50.38-112.503-112.503-112.503S14.916 66.457 14.916 128.58Zm153.24-63.434c1.118-2.242 2.262-4.54 3.432-6.88l.308-.103h12.322l-.41.751-1.206 2.296a3572.265 3572.265 0 0 1-8.693 16.478c2.8 1.399 5.018 3.242 6.588 5.427 1.946 2.696 2.901 6.314 2.901 10.786 0 2.321-.58 5.086-1.74 8.226-1.16 3.106-3.106 6.246-5.803 9.284-2.697 3.038-6.28 5.94-10.684 8.636-2.253 1.365-4.744 2.799-7.782 4.028 2.594.307 5.051.75 7.339 1.365 3.652.99 6.86 2.424 9.557 4.232 2.73 1.81 4.915 4.165 6.451 6.93 1.536 2.764 2.321 6.11 2.321 9.864 0 5.734-1.707 11.162-5.086 16.145-3.345 4.915-7.646 9.285-12.731 12.937-5.086 3.652-10.855 6.553-17.101 8.636-6.247 2.082-12.459 3.14-18.432 3.14-5.052 0-9.523-.512-13.38-1.57a.17.17 0 0 0-.035.068.162.162 0 0 1-.034.068c-2.048 4.028-4.164 8.26-6.349 12.664l-.136.307H97.45l.41-.751c1.58-3.006 3.117-5.926 4.61-8.764 1.475-2.8 2.908-5.521 4.298-8.166-3.311-2.594-4.983-5.769-4.983-9.421 0-3.004 1.194-5.632 3.55-7.817 2.355-2.15 5.53-3.242 9.454-3.242 2.458 0 4.608.716 6.452 2.184l.955.751-1.229.171c-2.355.341-3.959 1.331-4.915 3.106-.99 1.81-1.501 4.13-1.501 6.93 0 2.969 1.365 5.392 4.13 7.372 2.798 2.014 6.417 3.038 10.786 3.038 6.553 0 12.356-1.127 17.271-3.345 4.915-2.219 9.045-5.189 12.322-8.807a36.62 36.62 0 0 0 7.407-12.458 43.112 43.112 0 0 0 2.458-14.37c0-3.584-.785-6.588-2.321-8.978-1.536-2.389-3.653-4.334-6.315-5.802-2.799-1.536-5.12-2.492-8.09-2.594-4.47-.171-9.864.41-10.103.443l-.512.069v-.103c-2.014.034-4.233.341-6.622.82-2.765.545-5.256.853-7.373.853l-.17-.034c-.17-.034-.307-.103-.444-.17v-.001a1.235 1.235 0 0 0-.154-.085c-.05-.026-.102-.052-.153-.086a.68.68 0 0 1-.189-.11 1.835 1.835 0 0 0-.084-.06 1.905 1.905 0 0 1-.273-.24c-.342-.34-.512-1.023-.512-2.184 0-.956.273-1.74.853-2.423.614-.683 1.4-1.024 2.355-1.024 1.843 0 3.584.239 5.257.75 1.57.479 3.242.717 4.95.717 1.398 0 3.071-.136 4.914-.375 1.81-.239 3.38-.58 4.608-1.058 1.946-.888 3.311-1.946 4.881-3.175.717-.58 1.468-1.16 2.321-1.774a41.212 41.212 0 0 0 7.544-7.1c2.184-2.697 3.994-5.769 5.359-9.114 1.331-3.345 2.014-6.963 2.014-10.752 0-2.935-.649-5.427-1.878-7.373-1.263-1.945-2.901-3.481-4.915-4.573l-.82-.41c-1.023-.512-2.15-.922-3.31-1.263-.956-.273-1.775-.478-2.662-.615-2.594-.41-3.892-.614-6.452-.614-1.706 0-3.345.205-4.846.58-1.4.376-2.663 1.263-3.721 2.629-1.775 2.218-3.584 4.949-5.427 8.09l-1.263 2.15c-.73 1.26-1.451 2.49-2.152 3.687a899.227 899.227 0 0 0-1.773 3.037c-5.155 9.25-27.512 52.019-32.87 62.635l-.752 1.502a53494.852 53494.852 0 0 0-13.599 27.506c-2.794 5.655-4.19 8.482-4.867 9.835l-.136.307H66.9l.41-.75c2.56-4.916 5.427-10.377 8.09-15.394a48.518 48.518 0 0 1-5.223 2.184c-4.95 1.775-9.728 2.184-14.097 1.229-3.96-.853-6.485-2.731-7.475-5.598-.649-1.911-.512-3.652.41-5.188.887-1.502 2.286-2.629 4.164-3.277 1.877-.649 3.516-.649 4.847 0 1.331.648 2.253 1.775 2.799 3.277.478 1.365.34 2.73-.444 4.027-.649 1.093-1.604 1.912-2.833 2.492.41.444.955.751 1.638.956.99.307 2.082.478 3.243.478 1.092 0 2.287-.034 3.447-.376 5.632-1.672 8.602-3.993 11.742-9.113 2.627-4.311 20.308-36.537 22.81-41.098l.094-.17c.819-1.57 2.32-4.335 3.993-7.407.752-1.38 1.529-2.813 2.292-4.218 2.254-4.152 4.385-8.076 5.354-9.81.242-.445.682-1.26 1.276-2.358 1-1.848 2.434-4.5 4.083-7.54 4.676-8.637 10.889-20.106 12.868-23.621-.102 0-.205 0-.273-.034h-.068c-13.722-.342-36.728-.854-57.856 13.039-10.99 7.202-22.255 25.94-19.797 38.366 1.16 5.836 5.085 9.454 11.741 10.717 8.704 1.673 15.088-2.218 18.91-5.802 5.974-5.598 8.738-13.107 8.363-16.18-.744-6.088-4.606-6.177-6.104-6.21l-.04-.002c-.096 0-.182-.01-.256-.02a1.288 1.288 0 0 0-.153-.014l-.274-.034-.136-.273c-.137-.342.136-1.024.375-1.4a1.55 1.55 0 0 1 1.161-.682c4.88-.308 11.708 3.004 12.834 7.51 2.082 8.362-6.93 21.4-21.743 25.633-13.278 3.789-21.265.785-25.6-2.423-5.905-4.301-8.124-11.025-8.26-15.838-.307-11.366 9.08-27.068 20.89-35.02 17.715-11.948 36.01-16.146 67.447-15.498.444-.034.887-.034 1.365-.034 2.97-5.836 6.178-12.151 7.578-14.984l.136-.307h12.323l-.41.75c-2.15 4.097-4.779 8.773-7.339 13.279l-.683 1.228c4.78.068 8.841.24 13.45.58 1.945.137 3.788.342 5.529.615l1.536-3.072c1.016-2.033 2.057-4.122 3.122-6.26Z"/></g></svg>