<svg width="200" height="200" fill="none" xmlns="http://www.w3.org/2000/svg"><path d="M100 175c41.421 0 75-33.579 75-75s-33.579-75-75-75-75 33.579-75 75 33.579 75 75 75Z" fill="#0F59D1"/><path d="m76.343 63.525 23.29 13.623 23.731-13.623-23.73-13.623-23.291 13.623Zm52.075 8.57V99.34l-23.73 13.623V85.718l23.73-13.623Zm-23.73 50.537v27.246l31.64-18.018v-27.246l-31.64 18.018ZM71.289 99.341l23.73 13.623V85.718L71.29 72.095V99.34Zm0 36.914 23.73 13.623v-27.246l-23.73-13.623v27.246Z" fill="#fff"/></svg>