<svg xmlns="http://www.w3.org/2000/svg" width="256" height="256"><g fill="none" fill-rule="evenodd"><circle cx="128" cy="128" r="128" fill="#1F2126"/><g fill="#F3BA2F"><path d="m95.434 114.768 32.82-32.82 32.82 32.853 19.097-19.097-51.917-51.95L76.337 95.67l19.097 19.097Zm-51.68 13.486 19.097-19.097 19.097 19.097L62.85 147.35l-19.097-19.097Zm51.68 13.486 32.82 32.82 32.82-32.854 19.13 19.097-51.95 51.95-51.917-51.916-.034-.034 19.131-19.063Zm79.126-13.486 19.097-19.097 19.097 19.097-19.097 19.097-19.097-19.097Z"/><path d="m149.754 128.254-21.466-21.5-15.878 15.887-1.84 1.837-3.782 3.776-.034.034.034.034 21.466 21.432 21.5-21.466z"/></g></g></svg>