<svg width="200" height="200" fill="none" xmlns="http://www.w3.org/2000/svg"><path d="M100 175c41.421 0 75-33.579 75-75s-33.579-75-75-75-75 33.579-75 75 33.579 75 75 75Z" fill="#1F2126"/><path fill-rule="evenodd" clip-rule="evenodd" d="m80.919 92.246 19.23-19.23 19.23 19.25 11.19-11.19-30.42-30.44-30.42 30.42 11.19 11.19Zm-30.282 7.902 11.19-11.19 11.19 11.19-11.19 11.19-11.19-11.19Zm30.282 7.902 19.23 19.231 19.23-19.251 11.209 11.19-30.439 30.44-30.42-30.42-.02-.02 11.21-11.17Zm46.362-7.902 11.19-11.19 11.19 11.19-11.19 11.19-11.19-11.19Z" fill="#F3BA2F"/><path fill-rule="evenodd" clip-rule="evenodd" d="m112.747 100.148-12.578-12.597-9.304 9.309-1.078 1.076-2.216 2.212-.02.02.02.02 12.578 12.558 12.598-12.578v-.02Z" fill="#F3BA2F"/></svg>