<svg width="200" height="200" fill="none" xmlns="http://www.w3.org/2000/svg"><mask id="a" style="mask-type:alpha" maskUnits="userSpaceOnUse" x="25" y="25" width="150" height="150"><path d="M158.836 25H41.164C32.237 25 25 32.237 25 41.164v117.672C25 167.763 32.237 175 41.164 175h117.672c8.927 0 16.164-7.237 16.164-16.164V41.164C175 32.237 167.763 25 158.836 25Z" fill="#fff"/></mask><g mask="url(#a)" fill-rule="evenodd" clip-rule="evenodd"><path d="M25 25h50v50H25V25Zm100 100h50v50h-50v-50Z" fill="#BFF0E2"/><path d="M75 25h50v50H75V25Zm50 50h50v50h-50V75Zm-50 50h50v50H75v-50ZM25 75h50v50H25V75Z" fill="#7FE1C4"/><path d="M125 25h50v50h-50V25ZM75 75h50v50H75V75Zm-50 50h50v50H25v-50Z" fill="#00C48A"/></g></svg>