<svg xmlns="http://www.w3.org/2000/svg" xmlns:xlink="http://www.w3.org/1999/xlink" width="256" height="256"><defs><path id="a" d="M128 256c70.692 0 128-57.308 128-128C256 57.308 198.692 0 128 0 57.308 0 0 57.308 0 128c0 70.692 57.308 128 128 128Z"/></defs><g fill="none" fill-rule="evenodd"><mask id="b" fill="#fff"><use xlink:href="#a"/></mask><use fill="#2FCF6E" xlink:href="#a"/><path fill="#FFF" d="M158.403 112.921c-3.455 13.916-26.166 7.191-33.57 5.472l6.255-24.704c7.237 1.72 30.934 4.693 27.315 19.232Zm-3.622 39.87c-3.782 15.323-31.102 7.35-39.823 5.317l6.749-27.205c8.884 2.033 37.023 5.785 33.074 21.889Zm29.292-39.87c2.14-15.011-9.874-22.829-26.33-28.145l5.102-20.325-13-2.97-4.934 19.856c-3.456-.782-6.912-1.564-10.368-2.188l4.935-19.86-13.162-2.969-5.103 20.328c-2.799-.627-5.595-1.096-8.394-1.723l-17.935-4.062-3.293 13.134s9.711 2.03 9.381 2.188c5.265 1.25 6.252 4.534 6.089 7.035l-5.759 23.14c.326.158.823.158 1.317.468-.494-.155-.824-.155-1.317-.31l-7.901 32.363c-.657 1.564-2.303 3.752-5.922 2.974.163.155-9.544-2.192-9.544-2.192l-6.255 14.23 16.949 3.752c3.13.782 6.255 1.406 9.217 2.188l-5.102 20.483 13 2.97 5.102-20.325c3.62.937 7.075 1.72 10.367 2.502l-5.102 20.17 13 2.97 5.102-20.48c22.214 3.752 38.833 2.029 45.581-17.2 5.432-15.325-.493-24.08-12.34-29.865 8.721-1.878 14.973-7.19 16.62-18.137Z" mask="url(#b)" transform="rotate(-32 128 127.461)"/></g></svg>