<svg xmlns="http://www.w3.org/2000/svg" viewBox="0 0 200 200"><mask id="a" width="150" height="150" x="25" y="25" maskUnits="userSpaceOnUse" style="mask-type:alpha"><path fill="#fff" d="M158.836 25H41.164C32.237 25 25 32.237 25 41.164v117.672C25 167.763 32.237 175 41.164 175h117.672c8.927 0 16.164-7.237 16.164-16.164V41.164C175 32.237 167.763 25 158.836 25"/></mask><g fill-rule="evenodd" clip-rule="evenodd" mask="url(#a)"><path fill="#BFF0E2" d="M25 25h50v50H25zm100 100h50v50h-50z"/><path fill="#7FE1C4" d="M75 25h50v50H75zm50 50h50v50h-50zm-50 50h50v50H75zM25 75h50v50H25z"/><path fill="#00C48A" d="M125 25h50v50h-50zM75 75h50v50H75zm-50 50h50v50H25z"/></g></svg>