<svg xmlns="http://www.w3.org/2000/svg" xmlns:xlink="http://www.w3.org/1999/xlink" width="256" height="256"><defs><path id="a" d="M128 256c70.692 0 128-57.308 128-128C256 57.308 198.692 0 128 0 57.308 0 0 57.308 0 128c0 70.692 57.308 128 128 128Z"/></defs><g fill="none" fill-rule="evenodd"><mask id="b" fill="#fff"><use xlink:href="#a"/></mask><use fill="#F7931A" xlink:href="#a"/><path fill="#FFF" d="M158.403 113.35c-3.455 14.022-26.166 7.245-33.57 5.513l6.255-24.89c7.237 1.731 30.934 4.727 27.315 19.377Zm-3.622 40.173c-3.782 15.438-31.102 7.404-39.823 5.356l6.749-27.41c8.884 2.047 37.023 5.828 33.074 22.054Zm29.292-40.173c2.14-15.125-9.874-23.002-26.33-28.359l5.102-20.478-13-2.993-4.934 20.007c-3.456-.788-6.912-1.576-10.368-2.205l4.935-20.01-13.162-2.992-5.103 20.482c-2.799-.632-5.595-1.104-8.394-1.736l-17.935-4.093-3.293 13.234s9.711 2.044 9.381 2.204c5.265 1.26 6.252 4.569 6.089 7.089l-5.759 23.315c.326.16.823.16 1.317.472-.494-.156-.824-.156-1.317-.313l-7.901 32.608c-.657 1.577-2.303 3.78-5.922 2.996.163.157-9.544-2.208-9.544-2.208l-6.255 14.338 16.949 3.78c3.13.788 6.255 1.417 9.217 2.205l-5.102 20.638 13 2.992 5.102-20.478c3.62.944 7.075 1.732 10.367 2.52l-5.102 20.323 13 2.992 5.102-20.635c22.214 3.78 38.833 2.045 45.581-17.33 5.432-15.44-.493-24.262-12.34-30.09 8.721-1.893 14.973-7.246 16.62-18.275Z" mask="url(#b)"/></g></svg>