<svg width="200" height="200" fill="none" xmlns="http://www.w3.org/2000/svg"><mask id="a" style="mask-type:alpha" maskUnits="userSpaceOnUse" x="25" y="25" width="150" height="150"><path d="M100 175c41.421 0 75-33.579 75-75s-33.579-75-75-75-75 33.579-75 75 33.579 75 75 75Z" fill="#fff"/></mask><g mask="url(#a)"><path d="M100 175c41.421 0 75-33.579 75-75s-33.579-75-75-75-75 33.579-75 75 33.579 75 75 75Z" fill="#F7931A"/><path fill-rule="evenodd" clip-rule="evenodd" d="M117.814 91.416c-2.024 8.216-15.331 4.245-19.67 3.23l3.665-14.584c4.241 1.015 18.126 2.77 16.005 11.354Zm-2.122 23.539c-2.216 9.046-18.224 4.338-23.334 3.138l3.955-16.06c5.205 1.199 21.693 3.414 19.379 12.922Zm17.163-23.539c1.254-8.862-5.785-13.478-15.427-16.617l2.989-11.998-7.617-1.754-2.891 11.723c-2.025-.462-4.05-.924-6.075-1.292l2.891-11.725L99.013 58l-2.99 12.001c-1.64-.37-3.278-.647-4.918-1.017l-10.509-2.398-1.93 7.754s5.69 1.198 5.497 1.291c3.085.739 3.664 2.678 3.568 4.154l-3.374 13.661c.19.094.482.094.771.277-.29-.092-.483-.092-.771-.183l-4.63 19.106c-.385.924-1.35 2.215-3.47 1.755.096.092-5.592-1.294-5.592-1.294L67 121.509l9.931 2.214c1.834.462 3.665.831 5.4 1.292l-2.989 12.093 7.617 1.753 2.99-11.999c2.12.553 4.145 1.015 6.074 1.477l-2.99 11.908 7.618 1.753 2.989-12.091c13.016 2.215 22.754 1.198 26.708-10.154 3.183-9.047-.289-14.216-7.23-17.631 5.11-1.109 8.773-4.246 9.738-10.708h-.001Z" fill="#fff"/></g></svg>