<svg width="200" height="200" fill="none" xmlns="http://www.w3.org/2000/svg"><mask id="a" style="mask-type:alpha" maskUnits="userSpaceOnUse" x="25" y="25" width="150" height="150"><path d="M100 175c41.421 0 75-33.579 75-75s-33.579-75-75-75-75 33.579-75 75 33.579 75 75 75Z" fill="#fff"/></mask><g mask="url(#a)"><path d="M100 175c41.421 0 75-33.579 75-75s-33.579-75-75-75-75 33.579-75 75 33.579 75 75 75Z" fill="#0251F5"/><path fill-rule="evenodd" clip-rule="evenodd" d="M115.427 87.629c-.125 8.46-13.984 7.585-18.44 7.572l.291-15.035c4.36.035 18.284-1.378 18.149 7.463Zm3.227 23.413c-.124 9.312-16.781 8.326-22.03 8.307l.24-16.539c5.342-.002 21.906-1.552 21.79 8.232Zm11.428-26.797c-.771-8.917-8.669-11.83-18.77-12.72l.214-12.364-7.817.005-.18 12.073c-2.077.005-4.153.011-6.21.108l.18-12.075-7.908.027-.214 12.366c-1.681.008-3.34.107-5.021.115l-10.78.027-.135 7.99s5.814-.113 5.647.022c3.172.025 4.171 1.784 4.41 3.244l-.215 14.07c.208.049.491-.017.814.096-.302-.024-.49.02-.793-.005l-.213 19.658c-.167.987-.816 2.462-2.986 2.491.114.068-5.74-.002-5.74-.002l-1.68 9.01 10.174-.076c1.89.037 3.758-.016 5.553.044l-.193 12.455 7.817-.005.213-12.364c2.191.062 4.268.056 6.251.072l-.234 12.276 7.816-.006.193-12.453c13.181-.77 22.44-3.951 23.739-15.902 1.066-9.531-3.479-13.787-11.011-15.553 4.729-2.23 7.593-6.11 7.08-12.624h-.001Z" fill="#fff"/></g></svg>