<svg xmlns="http://www.w3.org/2000/svg" viewBox="0 0 200 200"><mask id="a" width="150" height="150" x="25" y="25" maskUnits="userSpaceOnUse" style="mask-type:alpha"><path fill="#fff" d="M100 175c41.421 0 75-33.579 75-75s-33.579-75-75-75-75 33.579-75 75 33.579 75 75 75"/></mask><g mask="url(#a)"><path fill="#2FCF6E" d="M100 175c41.421 0 75-33.579 75-75s-33.579-75-75-75-75 33.579-75 75 33.579 75 75 75"/><path fill="#fff" fill-rule="evenodd" d="M110.593 83.02c2.604 7.987-10.77 11.697-14.982 13.142l-4.563-14.218c4.13-1.392 16.829-7.273 19.545 1.075Zm10.58 20.935c2.878 8.789-13.173 13.31-18.138 15.007l-5.093-15.614c5.046-1.748 20.193-8.62 23.231.608zm2.175-28.906c-3.597-8.124-11.995-8.278-21.822-5.81L97.75 57.555l-7.382 2.56 3.714 11.4c-1.96.684-3.92 1.368-5.831 2.131l-3.715-11.4-7.462 2.61 3.776 11.686c-1.585.558-3.12 1.193-4.706 1.75l-10.173 3.55 2.442 7.55s5.456-2.007 5.34-1.826c3.005-1.014 4.515.312 5.21 1.605l4.324 13.287c.211-.023.458-.177.8-.177-.294.077-.458.179-.751.255l6.123 18.535c.159.981.02 2.579-2.02 3.316.13.027-5.423 1.875-5.423 1.875l1.31 9.013 9.588-3.399c1.798-.583 3.544-1.243 5.259-1.774l3.825 11.762 7.382-2.561-3.776-11.683c2.09-.659 4.05-1.343 5.928-1.976l3.728 11.607 7.382-2.561-3.824-11.761c12.203-5.033 19.926-11.049 17.309-22.699-2.06-9.302-7.722-11.813-15.405-11.009 3.75-3.641 5.207-8.222 2.627-14.173h-.001Z" clip-rule="evenodd"/></g></svg>