<svg xmlns="http://www.w3.org/2000/svg" width="256" height="256"><defs><linearGradient id="a" x1="50%" x2="50%" y1="0%" y2="100%"><stop offset="0%" stop-color="#000F18"/><stop offset="100%" stop-color="#0D3044"/></linearGradient></defs><g fill="none" fill-rule="evenodd"><circle cx="128" cy="128" r="128" fill="url(#a)"/><g fill-rule="nonzero"><path fill="#709B30" d="M90.067 88.276c14.07-9.059 29.618-15.808 45.852-20.03 12.626-3.285 41.198-7.4 53.607-4.404-5.339 6.713-11.183 13.823-16.775 20.32-12.914 13.823-26.407 27.249-41.63 38.51-21.79 16.493-46.97 29.956-74.46 33.132-.504-10.467.326-21.114 3.789-31.075 2.994-9.023 8.008-17.36 14.682-24.11 4.365-4.764 9.38-9.023 14.935-12.343Z"/><path fill="#98C455" d="M190.29 64.804c13.036 64.86-31.832 151.952-111.055 124.954-6.554-2.237-12.1-7.038-16.709-12.271 28.34-4.295 52-19.021 72.921-37.898 23.515-21.223 38.711-47.86 54.844-74.785Z"/></g></g></svg>