<svg xmlns="http://www.w3.org/2000/svg" viewBox="0 0 200 200"><path fill="url(#a)" d="M100 175c41.421 0 75-33.579 75-75s-33.579-75-75-75-75 33.579-75 75 33.579 75 75 75"/><path fill="#709B30" d="M77.774 76.724c8.244-5.308 17.354-9.263 26.866-11.736 7.398-1.925 24.139-4.336 31.41-2.58a407 407 0 0 1-9.829 11.906c-7.567 8.099-15.473 15.966-24.392 22.564-12.768 9.664-27.522 17.552-43.63 19.413-.295-6.133.192-12.371 2.22-18.208 1.755-5.287 4.693-10.172 8.604-14.127 2.557-2.791 5.496-5.287 8.75-7.232Z"/><path fill="#98C455" d="M136.498 62.97c7.638 38.005-18.652 89.035-65.071 73.216-3.84-1.311-7.09-4.124-9.79-7.19 16.605-2.517 30.468-11.145 42.726-22.206 13.779-12.435 22.683-28.043 32.136-43.82z"/><defs><linearGradient id="a" x1="100" x2="100" y1="25" y2="175" gradientUnits="userSpaceOnUse"><stop stop-color="#000F18"/><stop offset="1" stop-color="#0D3044"/></linearGradient></defs></svg>