<svg width="200" height="200" fill="none" xmlns="http://www.w3.org/2000/svg"><g clip-path="url(#a)" fill="#02AEEF"><path d="M35.107 66.207V44.85c0-4.912 1.832-6.827 6.661-7.16 15.61-1 31.055-3.039 45.875-8.2 3.455-1.208 6.744-2.873 10.2-4.122 1.04-.375 2.58-.541 3.538-.125 12.613 6.078 26.101 9.158 39.88 10.865 5.745.708 11.531 1.082 17.276 1.665 3.58.333 5.786 2.415 5.745 6.078-.167 16.277 1.207 32.595-1.332 48.706-5.912 37.924-25.81 65.69-60.903 82.009-1.332.624-3.456.541-4.87-.042-29.849-13.613-49.04-36.467-57.907-68.022-3.913-14.112-4.579-28.432-4.163-40.296Zm64.608 73.267c2.248 0 4.247.166 6.245-.125a2.99 2.99 0 0 0 1.873-1.874c.167-2.48.208-4.967.125-7.451-.042-1.915.458-2.914 2.706-3.206a50.28 50.28 0 0 0 9.658-1.998c6.494-2.165 9.616-6.993 10.074-14.82.458-7.118-2.581-11.906-8.451-13.779a6.671 6.671 0 0 1-.999-.708c5.454-4.038 6.286-9.324 4.704-15.153-1.54-5.661-6.244-7.826-11.406-9.158-1.915-.5-3.913-.79-6.12-1.207V58.089h-7.826v11.698h-5.495V57.964h-7.868v12.073c-4.537 0-8.658-.042-12.78.041-.832.042-2.164.874-2.248 1.499-.291 2.165-.124 4.37-.124 6.827h9.45v39.006h-8.368c0 2.498.125 4.621-.042 6.827-.125 2.04.625 2.748 2.706 2.706 3.538-.125 7.119-.041 11.032-.041v12.03h7.992v-11.697h5.287c-.125 4.246-.125 8.076-.125 12.239Z"/><path d="M95.095 101.341c4.704.5 9.283.708 13.696 1.582 4.038.791 6.327 3.747 6.286 6.952-.042 3.164-2.207 5.745-6.328 6.578-4.371.874-8.825 1.082-13.57 1.581-.084-5.661-.084-10.74-.084-16.693Zm-.083-7.95V79.32c4.954-.292 9.991-.541 14.278 2.58 3.705 2.706 3.039 7.785-1.04 9.908-2.914 1.624-8.7 2.331-13.238 1.582Z"/></g><defs><clipPath id="a"><path fill="#fff" transform="translate(35 25)" d="M0 0h129.506v150H0z"/></clipPath></defs></svg>