<svg width="200" height="200" fill="none" xmlns="http://www.w3.org/2000/svg"><path d="M100 175c41.421 0 75-33.579 75-75s-33.579-75-75-75-75 33.579-75 75 33.579 75 75 75Z" fill="url(#a)"/><path d="M131.359 91.699c1.432-8.591-5.25-13.364-14.318-16.705l2.864-11.931-7.159-1.91-2.864 11.455-5.727-1.432 2.863-11.455-7.159-1.908-2.863 11.931c-1.432-.477-3.341-.954-4.773-.954L82.2 66.403l-1.909 7.637 5.25 1.431c2.864.956 3.34 2.864 3.34 4.296l-3.34 13.364h.955-.955l-4.773 19.09c-.477.956-1.431 2.387-3.34 1.909l-5.25-1.431-3.819 8.114 9.545 2.386c1.91.477 3.342.955 5.25 1.431l-2.862 11.932 7.159 1.909 2.864-11.931 5.727 1.431-2.864 11.933 7.16 1.909 2.863-11.933c12.409 2.387 21.477 1.432 25.772-9.544 3.341-9.069 0-14.319-6.681-17.66 4.772-1.431 8.113-4.295 9.068-10.977h-.001Zm-16.227 23.386c-2.386 9.069-17.182 4.295-22.432 2.864l3.818-15.75c5.25.955 21 3.341 18.614 12.886Zm1.909-23.386c-1.909 8.114-14.795 3.818-18.614 2.864l3.819-14.319c3.818.955 17.181 2.864 14.795 11.455Z" fill="#fff"/><defs><linearGradient id="a" x1="25.035" y1="99.96" x2="175.108" y2="99.96" gradientUnits="userSpaceOnUse"><stop stop-color="#1CA9DF"/><stop offset="1" stop-color="#5080BE"/></linearGradient></defs></svg>