<svg xmlns="http://www.w3.org/2000/svg" width="256" height="256"><defs><linearGradient id="a" x1=".023%" x2="100.072%" y1="49.973%" y2="49.973%"><stop offset="0%" stop-color="#1CA9DF"/><stop offset="100%" stop-color="#5080BE"/></linearGradient></defs><g fill="none" fill-rule="evenodd"><circle cx="128" cy="128" r="128" fill="url(#a)"/><path fill="#FFF" fill-rule="nonzero" d="M181.52 113.833c2.444-14.662-8.96-22.808-24.436-28.51l4.887-20.363-12.218-3.258-4.888 19.549-9.774-2.444 4.887-19.549L127.76 56l-4.887 20.364c-2.444-.815-5.702-1.63-8.146-1.63l-17.105-4.072-3.258 13.033 8.96 2.443c4.887 1.63 5.701 4.887 5.701 7.331l-5.701 22.807h1.629-1.63l-8.145 32.582c-.814 1.63-2.443 4.073-5.702 3.258l-8.96-2.443L74 163.52l16.29 4.073c3.26.814 5.703 1.629 8.96 2.443L94.365 190.4l12.218 3.258 4.887-20.363 9.775 2.443-4.888 20.364 12.219 3.258 4.887-20.364c21.178 4.073 36.654 2.444 43.985-16.29 5.702-15.477 0-24.437-11.403-30.139 8.145-2.443 13.847-7.33 15.476-18.734Zm-27.695 39.912c-4.072 15.477-29.323 7.331-38.283 4.888l6.516-26.88c8.96 1.629 35.84 5.702 31.767 21.992Zm3.259-39.912c-3.259 13.847-25.251 6.516-31.768 4.887l6.517-24.436c6.516 1.629 29.323 4.887 25.25 19.549Z"/></g></svg>