<svg width="200" height="200" fill="none" xmlns="http://www.w3.org/2000/svg"><path d="M99.983 200C155.221 200 200 155.221 200 99.983 200 44.746 155.221-.033 99.983-.033 44.746-.033-.033 44.746-.033 99.983-.033 155.221 44.746 200 99.983 200Z" fill="url(#a)"/><path d="M112.77 75.344a30.65 30.65 0 0 1 13.064 2.704 25.275 25.275 0 0 1 9.148 7.278 31.937 31.937 0 0 1 5.331 10.74 45.628 45.628 0 0 1 1.82 13.215 51.395 51.395 0 0 1-4.069 20.544 51.271 51.271 0 0 1-27.392 28.226 51.185 51.185 0 0 1-20.493 4.144c-.96 0-2.527 0-5.054-.151a46.857 46.857 0 0 1-8.112-.758 106.977 106.977 0 0 1-9.602-1.87 48.466 48.466 0 0 1-9.602-3.462L85.2 41.584l24.385-3.84-9.603 40.43a35.382 35.382 0 0 1 6.166-2.173c2.17-.499 4.395-.72 6.621-.657Zm-20.418 67.242a19.9 19.9 0 0 0 10.36-2.704 27.03 27.03 0 0 0 8.44-7.126 34.417 34.417 0 0 0 5.56-10.107 37.288 37.288 0 0 0 2.021-11.776 23.6 23.6 0 0 0-2.527-11.776c-1.642-2.855-5.054-4.144-9.602-4.144a20.046 20.046 0 0 0-5.332.758 13.191 13.191 0 0 0-6.317 3.31l-10.108 43.161c2.49.298 4.997.433 7.505.404Z" fill="#fff"/><defs><linearGradient id="a" x1="99.983" y1="200" x2="99.983" y2="-.033" gradientUnits="userSpaceOnUse"><stop stop-color="#2A3F90"/><stop offset="1" stop-color="#050F3D"/></linearGradient></defs></svg>