<svg width="200" height="200" fill="none" xmlns="http://www.w3.org/2000/svg"><path d="M100 175c41.421 0 75-33.579 75-75s-33.579-75-75-75-75 33.579-75 75 33.579 75 75 75Z" fill="url(#a)"/><path d="M109.588 81.523c3.375-.051 6.72.64 9.797 2.028a18.947 18.947 0 0 1 6.859 5.457 23.948 23.948 0 0 1 3.999 8.053 34.25 34.25 0 0 1 1.364 9.911 38.532 38.532 0 0 1-3.051 15.405 38.436 38.436 0 0 1-20.541 21.166 38.394 38.394 0 0 1-15.367 3.108c-.72 0-1.895 0-3.79-.114a35.057 35.057 0 0 1-6.083-.568 79.778 79.778 0 0 1-7.2-1.403 36.274 36.274 0 0 1-7.2-2.596l20.54-85.763 18.286-2.88L100 83.646a26.514 26.514 0 0 1 4.624-1.63 19.661 19.661 0 0 1 4.964-.493Zm-15.31 50.423a14.931 14.931 0 0 0 7.769-2.027 20.278 20.278 0 0 0 6.328-5.344 25.78 25.78 0 0 0 4.169-7.579 27.945 27.945 0 0 0 1.516-8.831 17.69 17.69 0 0 0-1.895-8.83c-1.231-2.141-3.79-3.107-7.2-3.107a15.03 15.03 0 0 0-3.999.568 9.891 9.891 0 0 0-4.737 2.482l-7.58 32.365c1.868.224 3.748.325 5.628.303Z" fill="#fff"/><defs><linearGradient id="a" x1="100" y1="175" x2="100" y2="25" gradientUnits="userSpaceOnUse"><stop stop-color="#2A3F90"/><stop offset="1" stop-color="#050F3D"/></linearGradient></defs></svg>