<svg xmlns="http://www.w3.org/2000/svg" viewBox="0 0 200 200"><path fill="url(#a)" d="M100 175c41.421 0 75-33.579 75-75s-33.579-75-75-75-75 33.579-75 75 33.579 75 75 75"/><path fill="#fff" d="M109.588 81.523a23 23 0 0 1 9.797 2.028 18.95 18.95 0 0 1 6.859 5.457 24 24 0 0 1 3.999 8.053 34.3 34.3 0 0 1 1.364 9.911 38.5 38.5 0 0 1-3.051 15.405 38.44 38.44 0 0 1-20.541 21.166 38.4 38.4 0 0 1-15.367 3.108c-.72 0-1.895 0-3.79-.114a35 35 0 0 1-6.083-.568 80 80 0 0 1-7.2-1.403 36.3 36.3 0 0 1-7.2-2.596l20.54-85.763 18.286-2.88L100 83.646a26.5 26.5 0 0 1 4.624-1.63 19.7 19.7 0 0 1 4.964-.493m-15.31 50.423a14.93 14.93 0 0 0 7.769-2.027 20.3 20.3 0 0 0 6.328-5.344 25.8 25.8 0 0 0 4.169-7.579 28 28 0 0 0 1.516-8.831 17.7 17.7 0 0 0-1.895-8.83c-1.231-2.141-3.79-3.107-7.2-3.107a15 15 0 0 0-3.999.568 9.9 9.9 0 0 0-4.737 2.482l-7.58 32.365a43 43 0 0 0 5.628.303Z"/><defs><linearGradient id="a" x1="100" x2="100" y1="175" y2="25" gradientUnits="userSpaceOnUse"><stop stop-color="#2A3F90"/><stop offset="1" stop-color="#050F3D"/></linearGradient></defs></svg>