<svg width="200" height="200" fill="none" xmlns="http://www.w3.org/2000/svg"><path fill-rule="evenodd" clip-rule="evenodd" d="M100 25c-41.421 0-75 33.579-75 75s33.579 75 75 75 75-33.579 75-75-33.579-75-75-75Z" fill="#149F49"/><path fill-rule="evenodd" clip-rule="evenodd" d="M129.176 146.179c-7.856.09-15.734.025-23.628.047-11.394-.022-22.786.043-34.18-.047a211.27 211.27 0 0 1 0-9.311c11.907-.091 23.818 0 35.754-.022 7.343.022 14.708-.069 22.048.022.059 3.112.059 6.223-.01 9.311h.016Z" fill="#73C692"/><path d="M106.386 122.734c3.934.044 7.979-.447 11.625-2.012 3.644-1.564 6.904-4.135 8.851-7.6 2.838-4.94 2.907-11.333.267-16.388-1.922-3.688-5.365-6.392-9.209-7.867 2.484-1.298 4.806-3.018 6.325-5.387 2.393-3.331 2.75-7.647 2.214-11.603a15.626 15.626 0 0 0-4.695-8.628c-3.648-3.375-8.616-5.098-13.503-5.412-12.338-.043-24.655-.021-36.972 0 .022 2.841-.025 5.679.022 8.542 1.586.065 3.173.357 4.56 1.161 2.882 1.453 4.739 4.518 5.052 7.69a9.891 9.891 0 0 1-2.484 7.142c-1.813 1.99-4.449 3.241-7.14 3.129.021 2.593 0 5.185.021 7.803 1.879.133 3.8.559 5.344 1.676 2.815 1.81 4.424 5.186 4.268 8.495.12 1.71-.186 3.422-.894 4.983-1.52 3.331-5.051 5.679-8.74 5.614.022 2.881 0 5.765 0 8.65l35.088.012Zm9.724-16.946a9.332 9.332 0 0 1-5.97 6.775c-2.189.826-4.561.739-6.862.739-4.347 0-8.675-.025-13.012.021-.044-6.55-.044-13.1 0-19.65 3.601.068 7.221.022 10.841.022 2.438.022 4.919-.112 7.334.27 2.549.512 5.008 1.922 6.415 4.157 1.5 2.236 1.766 5.074 1.254 7.666ZM90.222 67.161h13.994c2.927-.111 6.014.96 8.004 3.173 1.878 2.059 2.39 5.03 1.943 7.712-.49 3.264-3.263 5.835-6.349 6.707-1.863.605-3.844.382-5.787.426H90.228c.016-6.014.016-12.004-.005-18.018Z" fill="#fff"/></svg>