<svg xmlns="http://www.w3.org/2000/svg" width="256" height="256"><path fill="#252C36" d="M146.027 175.147c0-2.774-2.08-4.16-4.16-4.16-4.16 0-9.707.693-13.867.693-23.573 0-42.987-19.413-42.987-42.987V25.387c0-.694-.693-1.387-1.386-1.387H24.693l-.693.693V128c0 57.547 46.453 104 104 104 5.547 0 11.093-.693 16.64-1.387.693 0 1.387-.693 1.387-1.386v-54.08ZM128 24c-5.547 0-11.787.693-17.333 1.387-.694 0-1.387.693-1.387 1.386v54.08c0 2.774 2.08 4.854 4.16 4.16 2.08 0 13.867-.693 13.867-.693 23.573 0 42.986 19.413 42.986 42.987v93.6c0 .693.694.693.694.693C207.04 205.653 232 169.6 232 128c0-57.547-46.453-104-104-104Z"/></svg>