<svg xmlns="http://www.w3.org/2000/svg" width="256" height="256"><g fill="none" fill-rule="evenodd"><path fill="#149F49" d="M128 0C57.308 0 0 57.308 0 128c0 70.692 57.308 128 128 128 70.692 0 128-57.308 128-128C256 57.308 198.692 0 128 0Z"/><path fill="#73C692" d="M177.795 206.812c-13.408.154-26.854.043-40.326.08-19.446-.037-38.887.074-58.334-.08a360.61 360.61 0 0 1 0-15.891c20.322-.154 40.65 0 61.02-.037 12.532.037 25.102-.117 37.63.037.1 5.311.1 10.622-.017 15.891h.027Z"/><path fill="#FFF" fill-rule="nonzero" d="M138.899 166.8c6.713.074 13.618-.763 19.839-3.434 6.22-2.67 11.784-7.058 15.107-12.971 4.843-8.43 4.96-19.341.455-27.968-3.28-6.295-9.156-10.91-15.716-13.427 4.239-2.215 8.202-5.15 10.794-9.194 4.085-5.685 4.694-13.05 3.778-19.802a26.67 26.67 0 0 0-8.012-14.725c-6.226-5.76-14.705-8.701-23.045-9.236-21.058-.074-42.078-.037-63.099 0 .037 4.848-.042 9.691.037 14.577 2.708.111 5.416.61 7.784 1.982 4.918 2.48 8.086 7.71 8.621 13.125a16.882 16.882 0 0 1-4.239 12.188c-3.094 3.396-7.593 5.532-12.187 5.34.037 4.425 0 8.85.037 13.317 3.206.228 6.486.954 9.12 2.861 4.805 3.09 7.55 8.85 7.285 14.498a17.608 17.608 0 0 1-1.526 8.505c-2.596 5.685-8.621 9.691-14.916 9.58.037 4.917 0 9.84 0 14.763l59.883.021Zm16.596-28.921a15.934 15.934 0 0 1-10.19 11.562c-3.736 1.41-7.784 1.261-11.71 1.261-7.42 0-14.806-.042-22.208.037a2526.85 2526.85 0 0 1 0-33.537c6.146.117 12.325.038 18.503.038 4.16.037 8.394-.191 12.516.46 4.35.875 8.547 3.28 10.948 7.096 2.56 3.815 3.015 8.658 2.14 13.083Zm-44.182-65.924h23.882c4.996-.19 10.264 1.638 13.66 5.416 3.206 3.513 4.08 8.584 3.317 13.162-.837 5.57-5.569 9.957-10.836 11.446-3.18 1.033-6.56.652-9.877.726h-20.136c.027-10.264.027-20.486-.01-30.75Z"/></g></svg>