<svg xmlns="http://www.w3.org/2000/svg" viewBox="0 0 200 200"><path fill="url(#a)" d="M100 175c41.421 0 75-33.579 75-75s-33.579-75-75-75-75 33.579-75 75 33.579 75 75 75"/><path stroke="#fff" stroke-width=".5" d="M100 165.625c36.244 0 65.625-29.381 65.625-65.625S136.244 34.375 100 34.375 34.375 63.756 34.375 100 63.756 165.625 100 165.625Z"/><path fill="#fff" d="M72.638 61.736c12.64.072 25.278.024 37.918.024 4.655.072 9.479.17 13.821 2.026 1.978.796 3.666 2.22 5.041 3.835 1.375 2.003 2.268 4.294 2.701 6.682.797 4.148.724 8.418.362 12.615-.024.12-.048.386-.072.506-.506 3.064-1.688 6.223-4.221 8.202-1.833 1.567-4.221 2.195-6.44 2.99 1.64.555 3.425.58 5.041 1.303 2.147.868 4.148 2.316 5.355 4.318 1.977 3.159 2.388 6.995 2.508 10.637.072 4.703-.048 9.6-1.978 13.99-1.447 3.352-4.39 5.957-7.839 7.139-5.958 2.147-12.398 1.689-18.621 1.761-11.192.049-22.408-.048-33.624.049.145-6.103.024-12.229.072-18.332 0-19.248.048-38.497-.024-57.745m14.424 12.688c.121.627.193 1.23.193 1.857-.024 5.79-.024 11.602 0 17.415 2.509-.072 5.042-.072 7.55-.048 4.27.048 8.514.024 12.76.024 2.484-.048 5.162 0 7.381-1.279 2.074-1.182 2.894-3.666 2.991-5.909.289-2.147.265-4.318.024-6.465l-.072-.096c-.17-1.713-.917-3.521-2.461-4.462-1.858-1.086-4.1-1.086-6.199-1.158-7.308-.048-14.617.024-21.926-.024l.073.12c-.073 0-.241.024-.314.024Zm.193 31.308c.024 6.513.024 13.049 0 19.562.627-.024 1.23-.048 1.858-.097.433.121.916.049 1.374.073 6.706-.049 13.411.072 20.093-.049 2.918-.168 6.512-.482 8.177-3.28 1.688-3.087 1.447-6.826 1.133-10.203l-.169.024.049-.29c-.024-1.47-.507-2.966-1.375-4.148-1.134-1.471-3.015-2.098-4.775-2.364-3.354-.362-6.731-.241-10.083-.265h-15.8c-.723-.193-.433.651-.482 1.037"/><defs><linearGradient id="a" x1="100" x2="100" y1="25" y2="175" gradientUnits="userSpaceOnUse"><stop stop-color="#007AFC"/><stop offset="1" stop-color="#004896"/></linearGradient></defs></svg>