<svg xmlns="http://www.w3.org/2000/svg" width="256" height="256"><defs><linearGradient id="a" x1="50%" x2="50%" y1="0%" y2="100%"><stop offset="0%" stop-color="#007AFC"/><stop offset="100%" stop-color="#004896"/></linearGradient></defs><g fill="none" fill-rule="evenodd"><circle cx="128" cy="128" r="128" fill="url(#a)"/><circle cx="128" cy="128" r="112" stroke="#FFF" stroke-width=".5"/><path fill="#FFF" fill-rule="nonzero" d="M81.303 62.696c21.57.123 43.141.04 64.712.04 7.945.124 16.178.289 23.588 3.459 3.376 1.358 6.257 3.787 8.604 6.545 2.346 3.417 3.87 7.328 4.61 11.403 1.359 7.08 1.235 14.367.618 21.53-.041.206-.082.658-.124.864-.864 5.228-2.881 10.62-7.204 13.997-3.128 2.675-7.204 3.746-10.99 5.104 2.798.947 5.845.988 8.603 2.223 3.664 1.482 7.08 3.952 9.139 7.369 3.375 5.392 4.075 11.938 4.28 18.154.124 8.027-.081 16.384-3.375 23.876-2.47 5.722-7.492 10.168-13.379 12.185-10.168 3.664-21.159 2.882-31.78 3.005-19.1.083-38.243-.082-57.385.083.247-10.415.041-20.871.124-31.286 0-32.85.082-65.701-.041-98.551Zm24.617 21.653c.206 1.07.329 2.1.329 3.17-.041 9.88-.041 19.8 0 29.721 4.281-.123 8.604-.123 12.885-.082 7.286.082 14.531.041 21.777.041 4.24-.082 8.81 0 12.596-2.182 3.54-2.017 4.94-6.257 5.105-10.085.494-3.664.453-7.369.041-11.033l-.123-.164c-.289-2.923-1.565-6.01-4.2-7.616-3.17-1.853-6.997-1.853-10.579-1.976-12.473-.082-24.946.041-37.42-.041l.124.206c-.124 0-.412.04-.535.04Zm.329 53.433c.041 11.115.041 22.27 0 33.386 1.07-.042 2.1-.083 3.17-.165.74.206 1.564.082 2.346.123 11.444-.082 22.888.124 34.291-.082 4.981-.288 11.115-.823 13.956-5.599 2.881-5.269 2.47-11.65 1.934-17.413l-.288.041.083-.494c-.042-2.51-.865-5.063-2.347-7.08-1.935-2.511-5.146-3.581-8.15-4.034-5.723-.618-11.486-.412-17.208-.453h-26.964c-1.235-.33-.74 1.111-.823 1.77Z"/></g></svg>