<svg xmlns="http://www.w3.org/2000/svg" width="256" height="256"><g fill="none"><rect width="256" height="256" fill="#257DAD" rx="50"/><path fill="#FFF" d="M46.673 205.182h5.818v-29.673h-5.818v29.673Zm158.545 0h5.818v-29.673h-5.818v29.673ZM39.982 189.764c1.163-1.455 1.745-3.2 1.745-5.237v-.29c0-4.655-3.782-8.437-8.436-8.437H21.655v29.673h13.381c4.655 0 8.437-3.782 8.437-8.437v-.29c0-2.91-1.455-5.528-3.491-6.982Zm-12.218-8.728h5.818c1.745 0 3.2 1.455 3.2 3.2v.291c0 1.746-1.455 3.2-3.2 3.2h-5.818v-6.69Zm10.472 15.71c0 1.745-1.454 3.2-3.2 3.2h-7.272v-6.691h7.272c1.746 0 3.2 1.454 3.2 3.2v.29Zm29.091-13.091a11.05 11.05 0 0 0-11.054 11.054 11.05 11.05 0 0 0 11.054 11.055 11.05 11.05 0 0 0 11.055-11.055 11.05 11.05 0 0 0-11.055-11.054Zm0 16.872c-3.2 0-5.818-2.618-5.818-5.818 0-3.2 2.618-5.818 5.818-5.818 3.2 0 5.818 2.618 5.818 5.818 0 3.2-2.618 5.818-5.818 5.818Zm93.091-16.872a11.05 11.05 0 0 0-11.054 11.054 11.05 11.05 0 0 0 11.054 11.055H161c1.745 0 6.4-.291 9.018-4.364l-4.363-2.91c-1.455 2.328-4.655 2.037-4.655 2.037h-.29c-2.328 0-4.074-1.163-5.237-3.2h16.29v-2.618c-.29-6.109-5.236-11.054-11.345-11.054Zm-5.236 8.436c.873-1.746 2.909-3.2 5.236-3.2s4.073 1.164 5.237 3.2h-10.473Zm81.745 2.618a11.05 11.05 0 0 0-11.054-11.054 11.05 11.05 0 0 0-11.055 11.054 11.05 11.05 0 0 0 11.055 11.055h.582c1.745 0 6.4-.291 9.018-4.364l-4.364-2.91c-1.454 2.328-4.654 2.037-4.654 2.037h-.291c-2.328 0-4.073-1.163-5.237-3.2h16.291v-2.618h-.29Zm-16.29-2.618c.872-1.746 2.908-3.2 5.236-3.2 2.327 0 4.072 1.164 5.236 3.2h-10.473Zm-128 8.436c-3.2 0-5.819-2.618-5.819-5.818 0-3.2 2.618-5.818 5.818-5.818 2.037 0 3.782.873 4.946 2.618l4.654-2.909c-2.036-3.2-5.527-5.236-9.309-5.236a11.05 11.05 0 0 0-11.054 11.054 11.05 11.05 0 0 0 11.054 11.055c3.782 0 7.564-2.037 9.6-5.237l-4.654-2.909c-1.164 2.328-3.2 3.2-5.237 3.2Zm31.708-16.29h-6.69l-6.982 9.018v-17.746h-5.818v29.673h5.818v-9.018l7.563 9.018h6.982l-8.727-10.764 7.854-10.182Zm12.51 3.781c-4.364-.873-5.237-2.036-5.528-3.2 0-.29 0-1.745.582-2.618.582-.873 1.746-1.164 3.2-1.455 3.782-.29 5.818 3.491 5.818 3.491l2.328-1.163 2.327-1.164c0-.29-3.491-6.982-11.055-6.4-4.072.291-6.4 2.327-7.272 3.782-1.746 2.618-1.746 5.818-1.164 7.273 1.454 4.363 5.527 5.818 9.6 6.69 2.327.582 4.073 1.455 4.654 2.328.291.582.582 1.454.291 2.618-.581 1.745-2.618 2.327-3.2 2.327-2.618.291-6.4-1.163-8.436-4.945l-4.655 2.618c2.91 5.527 8.146 7.855 12.51 7.855h1.163c3.782-.291 6.982-2.91 7.855-6.11.872-3.2 0-5.527-.873-6.981-1.455-2.619-4.364-4.364-8.145-4.946Zm44.509-9.6-5.237 1.455v4.363h-3.782v5.237h3.782v8.436c0 1.455 0 4.073 2.037 5.818 1.163.873 2.618 1.455 4.945 1.455.873 0 2.036 0 2.91-.291v-4.946c-4.655 1.164-4.655-.581-4.655-2.036v-8.436h4.945v-5.237h-4.945v-5.818Zm15.418 0-5.237 1.455v4.363h-3.781v5.237h3.781v8.436c0 1.455 0 4.073 2.037 5.818 1.163.873 2.618 1.455 4.945 1.455.873 0 2.037 0 2.91-.291v-4.946c-4.655.873-4.655-.872-4.655-2.327v-8.436h4.945v-5.237h-4.945v-5.527Z"/></g></svg>