<svg xmlns="http://www.w3.org/2000/svg" viewBox="0 0 200 200"><g clip-path="url(#a)"><path fill="#3D89F5" d="m37.835 79.512-6.844 6.844a19.5 19.5 0 0 0 0 28.125l55.134 55.679a16.8 16.8 0 0 0 4.5 3.281V105.95z"/><path fill="#1656B9" d="m162.166 79.512 6.843 6.844a19.49 19.49 0 0 1 4.431 21.705 19.5 19.5 0 0 1-4.431 6.42l-55.134 55.679a16.8 16.8 0 0 1-4.5 3.282V105.95z"/><path fill="#85B5F8" d="m148.929 65.543-34.5-34.593A19.6 19.6 0 0 0 100.366 25a19.6 19.6 0 0 0-14.062 5.95L51.71 65.543l48.469 24.188z"/></g><defs><clipPath id="a"><path fill="#fff" d="M25 25h150v150H25z"/></clipPath></defs></svg>