<svg width="200" height="200" fill="none" xmlns="http://www.w3.org/2000/svg"><g clip-path="url(#a)"><path d="m37.835 79.512-6.844 6.844a19.5 19.5 0 0 0 0 28.125l55.134 55.679a16.807 16.807 0 0 0 4.5 3.281V105.95l-52.79-26.438Z" fill="#3D89F5"/><path d="m162.166 79.512 6.843 6.844a19.49 19.49 0 0 1 4.431 21.705 19.481 19.481 0 0 1-4.431 6.42l-55.134 55.679a16.798 16.798 0 0 1-4.5 3.282V105.95l52.791-26.438Z" fill="#1656B9"/><path d="m148.929 65.543-34.5-34.593A19.606 19.606 0 0 0 100.366 25a19.594 19.594 0 0 0-14.062 5.95L51.71 65.543l48.469 24.188 48.75-24.188Z" fill="#85B5F8"/></g><defs><clipPath id="a"><path fill="#fff" transform="translate(25 25)" d="M0 0h150v150H0z"/></clipPath></defs></svg>