<svg width="200" height="200" fill="none" xmlns="http://www.w3.org/2000/svg"><path fill="#257DAD" d="M0 0h200v200H0z"/><path d="M160.938 0H39.063C17.488 0 0 17.489 0 39.063v121.875C0 182.511 17.489 200 39.063 200h121.875C182.511 200 200 182.511 200 160.938V39.063C200 17.488 182.511 0 160.938 0Z" fill="#257DAD"/><path d="M36.463 160.298h4.546v-23.182h-4.546v23.182Zm123.864 0h4.545v-23.182h-4.545v23.182ZM31.236 148.253c.909-1.137 1.363-2.5 1.363-4.091v-.227a6.595 6.595 0 0 0-6.59-6.591h-9.091v23.182h10.454a6.596 6.596 0 0 0 6.591-6.592v-.226c0-2.274-1.136-4.319-2.727-5.455Zm-9.545-6.819h4.545c1.363 0 2.5 1.137 2.5 2.5v.228c0 1.364-1.137 2.5-2.5 2.5H21.69V141.434Zm8.18 12.274c0 1.363-1.135 2.5-2.5 2.5h-5.68v-5.228h5.68c1.365 0 2.5 1.136 2.5 2.5v.228ZM52.6 143.48a8.638 8.638 0 0 0-7.98 5.331 8.633 8.633 0 0 0-.656 3.305 8.633 8.633 0 0 0 8.636 8.637 8.62 8.62 0 0 0 6.108-2.528 8.636 8.636 0 0 0 1.872-9.414 8.631 8.631 0 0 0-7.98-5.331Zm0 13.182a4.56 4.56 0 0 1-4.545-4.546c0-2.5 2.045-4.545 4.545-4.545s4.546 2.045 4.546 4.545a4.56 4.56 0 0 1-4.546 4.546Zm72.728-13.182a8.639 8.639 0 0 0-7.98 5.331 8.618 8.618 0 0 0-.656 3.305 8.62 8.62 0 0 0 2.528 6.108 8.62 8.62 0 0 0 6.108 2.529h.454c1.364 0 5-.227 7.046-3.409l-3.409-2.274c-1.137 1.819-3.637 1.592-3.637 1.592h-.226c-1.819 0-3.183-.909-4.092-2.5h12.727v-2.046c-.227-4.772-4.091-8.636-8.863-8.636Zm-4.091 6.591c.682-1.364 2.273-2.5 4.091-2.5s3.182.909 4.091 2.5h-8.182Zm63.863 2.045a8.618 8.618 0 0 0-2.528-6.107 8.634 8.634 0 0 0-9.413-1.872 8.638 8.638 0 0 0-4.675 4.674 8.618 8.618 0 0 0-.656 3.305 8.62 8.62 0 0 0 2.528 6.109 8.628 8.628 0 0 0 6.108 2.528h.455c1.363 0 5-.227 7.045-3.409l-3.409-2.274c-1.136 1.819-3.636 1.592-3.636 1.592h-.227c-1.819 0-3.182-.909-4.092-2.5h12.728v-2.046h-.228Zm-12.726-2.045c.681-1.364 2.272-2.5 4.09-2.5s3.182.909 4.091 2.5h-8.182.001Zm-100 6.591a4.56 4.56 0 0 1-4.546-4.546c0-2.5 2.045-4.545 4.545-4.545 1.591 0 2.955.682 3.864 2.045l3.636-2.272c-1.59-2.5-4.318-4.091-7.273-4.091a8.638 8.638 0 0 0-7.98 5.331 8.636 8.636 0 0 0 4.674 11.285 8.64 8.64 0 0 0 3.306.657c2.955 0 5.91-1.592 7.5-4.092l-3.636-2.272c-.91 1.818-2.5 2.5-4.091 2.5Zm24.771-12.727h-5.226l-5.455 7.045v-13.864h-4.545v23.182h4.545v-7.045l5.909 7.045h5.455l-6.818-8.409 6.135-7.955v.001Zm9.774 2.954c-3.409-.682-4.091-1.591-4.319-2.5 0-.227 0-1.363.455-2.045.455-.682 1.364-.91 2.5-1.137 2.955-.227 4.545 2.727 4.545 2.727l1.819-.908 1.818-.91c0-.226-2.727-5.454-8.637-5-3.181.228-5 1.818-5.681 2.955-1.364 2.045-1.364 4.545-.91 5.682 1.136 3.409 4.319 4.545 7.501 5.227 1.818.454 3.182 1.136 3.636 1.818.227.455.454 1.136.227 2.046-.454 1.363-2.045 1.818-2.5 1.818-2.045.227-5-.909-6.591-3.864l-3.637 2.046c2.274 4.318 6.365 6.136 9.774 6.136h.909c2.954-.227 5.454-2.273 6.136-4.773.682-2.5 0-4.318-.682-5.454-1.136-2.046-3.409-3.409-6.363-3.864Zm34.773-7.5-4.092 1.137v3.408h-2.954v4.092h2.954v6.59c0 1.137 0 3.182 1.592 4.546.908.682 2.045 1.136 3.863 1.136.682 0 1.591 0 2.273-.227v-3.864c-3.636.909-3.636-.454-3.636-1.591v-6.59h3.863v-4.092h-3.863v-4.545Zm12.045 0-4.091 1.137v3.408h-2.954v4.092h2.954v6.59c0 1.137 0 3.182 1.591 4.546.909.682 2.045 1.136 3.863 1.136.682 0 1.592 0 2.274-.227v-3.864c-3.637.682-3.637-.681-3.637-1.818v-6.591h3.863v-4.091h-3.863v-4.318Z" fill="#fff"/></svg>