<svg width="200" height="200" fill="none" xmlns="http://www.w3.org/2000/svg"><path d="M141.883 25H58.117C39.827 25 25 39.827 25 58.117v81.843c0 18.29 14.827 33.117 33.117 33.117h83.766c18.29 0 33.117-14.827 33.117-33.117V58.117C175 39.827 160.173 25 141.883 25Z" fill="url(#a)"/><path d="M141.883 59.615H58.117C39.827 59.615 25 74.442 25 92.732v45.304c0 18.29 14.827 33.117 33.117 33.117h83.766c18.29 0 33.117-14.827 33.117-33.117V92.732c0-18.29-14.827-33.117-33.117-33.117Z" fill="url(#b)"/><path d="M141.883 96.155H58.117C39.827 96.155 25 110.982 25 129.272v12.611C25 160.173 39.827 175 58.117 175h83.766c18.29 0 33.117-14.827 33.117-33.117v-12.611c0-18.29-14.827-33.117-33.117-33.117Z" fill="url(#c)"/><path d="M106.721 140.761c0 1.488-.166 2.829-.495 4.019-.331 1.188-.807 2.201-1.428 3.041a6.31 6.31 0 0 1-2.291 1.934c-.908.452-1.938.676-3.092.676-.57 0-1.104-.052-1.597-.159a5.478 5.478 0 0 1-1.418-.517 7.785 7.785 0 0 1-1.333-.9c-.479-.404-.927-.843-1.34-1.315v1.822a.566.566 0 0 1-.105.347.757.757 0 0 1-.343.233c-.205.074-.42.119-.637.133-.267.025-.59.039-.97.039-.394 0-.72-.014-.98-.039a2.362 2.362 0 0 1-.627-.131.696.696 0 0 1-.333-.233.608.608 0 0 1-.096-.351v-24.692c0-.122.04-.242.115-.339a.862.862 0 0 1 .39-.253c.183-.068.428-.123.732-.16a9.499 9.499 0 0 1 1.161-.056c.468 0 .855.019 1.16.058.305.035.549.09.732.158.15.047.285.135.39.253a.547.547 0 0 1 .114.339v9.257c.43-.424.863-.787 1.294-1.089.43-.3.863-.545 1.293-.74.43-.195.877-.335 1.333-.423a7.71 7.71 0 0 1 1.445-.132c1.255 0 2.32.247 3.195.74a6.167 6.167 0 0 1 2.143 2.003c.549.838.954 1.817 1.208 2.938.258 1.162.385 2.35.38 3.541v-.002Zm-4.968.337c0-.713-.053-1.402-.16-2.065a5.851 5.851 0 0 0-.561-1.767 3.433 3.433 0 0 0-1.038-1.229c-.425-.306-.96-.46-1.607-.46-.315 0-.629.044-.931.131a3.478 3.478 0 0 0-.943.452 6.449 6.449 0 0 0-.998.826c-.39.393-.753.814-1.085 1.258v5.558c.672.851 1.315 1.5 1.93 1.944.617.444 1.26.666 1.931.666.624 0 1.15-.155 1.58-.467a3.86 3.86 0 0 0 1.076-1.222c.296-.533.505-1.11.617-1.71a9.777 9.777 0 0 0 .191-1.915h-.002Zm13.416 8.264a.5.5 0 0 1-.113.329.843.843 0 0 1-.389.234c-.239.073-.484.12-.733.14-.386.035-.773.052-1.161.049-.469 0-.857-.018-1.161-.049a3.443 3.443 0 0 1-.732-.14.846.846 0 0 1-.39-.234.511.511 0 0 1-.115-.331v-24.692a.549.549 0 0 1 .115-.339.862.862 0 0 1 .39-.253c.237-.081.483-.134.732-.16a9.504 9.504 0 0 1 1.161-.056c.468 0 .857.019 1.161.058.304.035.548.09.733.158a.859.859 0 0 1 .389.253.54.54 0 0 1 .113.339v24.696-.002Zm20.702 0a.575.575 0 0 1-.095.329.703.703 0 0 1-.331.234c-.203.073-.415.12-.63.14a8.424 8.424 0 0 1-.979.049c-.419 0-.758-.018-1.017-.049a2.445 2.445 0 0 1-.62-.14.694.694 0 0 1-.323-.234.574.574 0 0 1-.096-.331v-1.933c-.937 1.002-1.891 1.754-2.863 2.254a6.49 6.49 0 0 1-3.014.75c-1.169 0-2.147-.187-2.94-.563a5.052 5.052 0 0 1-1.92-1.539 6.133 6.133 0 0 1-1.046-2.263c-.211-.857-.314-1.925-.314-3.203v-10.252a.55.55 0 0 1 .103-.332.768.768 0 0 1 .382-.233c.241-.074.489-.121.74-.141.383-.034.767-.05 1.152-.046.469 0 .857.015 1.161.046.304.031.547.078.732.141.149.04.284.121.39.233a.514.514 0 0 1 .115.332v9.463c0 .877.056 1.547.171 2.011.113.463.288.861.522 1.192.234.331.534.588.896.769.361.183.781.273 1.265.273.607 0 1.219-.218 1.835-.657.615-.438 1.272-1.077 1.967-1.916v-11.135c0-.127.037-.234.105-.332a.772.772 0 0 1 .382-.233c.183-.063.429-.11.733-.141.385-.034.772-.05 1.159-.046.469 0 .857.015 1.161.046a3.2 3.2 0 0 1 .722.141.838.838 0 0 1 .38.233.503.503 0 0 1 .117.332v16.751h-.002Zm20.322-8.864c0 .575-.13 1.001-.389 1.276-.261.277-.62.413-1.076.413h-10.332c0 .715.086 1.364.257 1.944.154.552.434 1.06.818 1.485.374.407.855.717 1.446.929.588.214 1.295.319 2.121.319.838 0 1.572-.058 2.205-.179a14.79 14.79 0 0 0 2.798-.789c.304-.117.551-.177.74-.177a.569.569 0 0 1 .286.064.488.488 0 0 1 .191.234c.051.115.086.273.105.481.02.207.028.468.028.779 0 .275-.006.511-.02.704-.011.194-.031.36-.056.498-.02.121-.058.238-.113.347a1.308 1.308 0 0 1-.201.273c-.082.087-.308.206-.676.356-.458.18-.928.327-1.406.443-.647.158-1.301.282-1.96.374a16.48 16.48 0 0 1-2.359.159c-1.51 0-2.831-.187-3.966-.563a7.081 7.081 0 0 1-2.845-1.708c-.759-.764-1.328-1.728-1.702-2.893-.374-1.163-.561-2.529-.561-4.093 0-1.49.195-2.832.59-4.028a8.412 8.412 0 0 1 1.71-3.043 7.355 7.355 0 0 1 2.732-1.905c1.071-.439 2.279-.659 3.623-.659 1.422 0 2.636.207 3.643.62 1.009.413 1.837.985 2.484 1.718a6.9 6.9 0 0 1 1.426 2.602c.313 1.061.467 2.162.457 3.267v.752h.002Zm-4.642-1.352c.039-1.328-.234-2.371-.808-3.128-.579-.756-1.469-1.136-2.673-1.136-.61 0-1.14.113-1.59.339a3.248 3.248 0 0 0-1.122.91 4.14 4.14 0 0 0-.685 1.352 6.648 6.648 0 0 0-.275 1.663h7.153Z" fill="#fff"/><defs><linearGradient id="a" x1="100" y1="29.202" x2="100" y2="173.077" gradientUnits="userSpaceOnUse"><stop stop-color="#174697"/><stop offset="1" stop-color="#0C2550"/></linearGradient><linearGradient id="b" x1="100" y1="59.615" x2="100" y2="168.793" gradientUnits="userSpaceOnUse"><stop stop-color="#3F78DC"/><stop offset="1" stop-color="#2F5FB3"/></linearGradient><linearGradient id="c" x1="100" y1="98.303" x2="100" y2="175" gradientUnits="userSpaceOnUse"><stop stop-color="#8BD7F9"/><stop offset="1" stop-color="#68BBE1"/></linearGradient></defs></svg>