<svg xmlns="http://www.w3.org/2000/svg" viewBox="0 0 200 200"><path fill="url(#a)" d="M141.883 25H58.117C39.827 25 25 39.827 25 58.117v81.843c0 18.29 14.827 33.117 33.117 33.117h83.766c18.29 0 33.117-14.827 33.117-33.117V58.117C175 39.827 160.173 25 141.883 25"/><path fill="url(#b)" d="M141.883 59.615H58.117C39.827 59.615 25 74.442 25 92.732v45.304c0 18.29 14.827 33.117 33.117 33.117h83.766c18.29 0 33.117-14.827 33.117-33.117V92.732c0-18.29-14.827-33.117-33.117-33.117"/><path fill="url(#c)" d="M141.883 96.155H58.117C39.827 96.155 25 110.982 25 129.272v12.611C25 160.173 39.827 175 58.117 175h83.766c18.29 0 33.117-14.827 33.117-33.117v-12.611c0-18.29-14.827-33.117-33.117-33.117"/><path fill="#fff" d="M106.721 140.761q0 2.233-.495 4.019-.496 1.781-1.428 3.041a6.3 6.3 0 0 1-2.291 1.934q-1.362.677-3.092.676-.856 0-1.597-.159a5.5 5.5 0 0 1-1.418-.517 7.8 7.8 0 0 1-1.333-.9 12.4 12.4 0 0 1-1.34-1.315v1.822a.57.57 0 0 1-.105.347.76.76 0 0 1-.343.233q-.31.111-.637.133-.4.038-.97.039-.59 0-.98-.039a2.4 2.4 0 0 1-.627-.131.7.7 0 0 1-.333-.233.6.6 0 0 1-.096-.351v-24.692c0-.122.04-.242.115-.339a.86.86 0 0 1 .39-.253q.275-.103.732-.16a10 10 0 0 1 1.161-.056q.702 0 1.16.058.458.054.732.158c.15.047.285.135.39.253a.55.55 0 0 1 .114.339v9.257q.646-.636 1.294-1.089.647-.449 1.293-.74.647-.292 1.333-.423a7.7 7.7 0 0 1 1.445-.132q1.882 0 3.195.74a6.2 6.2 0 0 1 2.143 2.003q.825 1.257 1.208 2.938c.258 1.162.385 2.35.38 3.541zm-4.968.337q0-1.07-.16-2.065a5.9 5.9 0 0 0-.561-1.767 3.4 3.4 0 0 0-1.038-1.229q-.637-.46-1.607-.46c-.315 0-.629.044-.931.131a3.5 3.5 0 0 0-.943.452 6.5 6.5 0 0 0-.998.826q-.586.59-1.085 1.258v5.558q1.008 1.277 1.93 1.944.925.666 1.931.666.936 0 1.58-.467a3.9 3.9 0 0 0 1.076-1.222c.296-.533.505-1.11.617-1.71a10 10 0 0 0 .191-1.915zm13.416 8.264a.5.5 0 0 1-.113.329.84.84 0 0 1-.389.234q-.359.11-.733.14-.579.053-1.161.049-.704-.001-1.161-.049a3.4 3.4 0 0 1-.732-.14.85.85 0 0 1-.39-.234.5.5 0 0 1-.115-.331v-24.692a.55.55 0 0 1 .115-.339.86.86 0 0 1 .39-.253q.357-.121.732-.16a10 10 0 0 1 1.161-.056q.704 0 1.161.058.456.054.733.158a.86.86 0 0 1 .389.253.54.54 0 0 1 .113.339v24.696zm20.702 0a.57.57 0 0 1-.095.329.7.7 0 0 1-.331.234q-.306.11-.63.14a8 8 0 0 1-.979.049q-.629-.001-1.017-.049a2.4 2.4 0 0 1-.62-.14.7.7 0 0 1-.323-.234.57.57 0 0 1-.096-.331v-1.933q-1.405 1.503-2.863 2.254a6.5 6.5 0 0 1-3.014.75q-1.752 0-2.94-.563a5.05 5.05 0 0 1-1.92-1.539 6.1 6.1 0 0 1-1.046-2.263q-.315-1.286-.314-3.203v-10.252a.55.55 0 0 1 .103-.332.77.77 0 0 1 .382-.233q.362-.111.74-.141.574-.052 1.152-.046.704 0 1.161.046.455.046.732.141c.149.04.284.121.39.233a.5.5 0 0 1 .115.332v9.463q0 1.315.171 2.011.17.695.522 1.192t.896.769q.54.274 1.265.273.91 0 1.835-.657.923-.657 1.967-1.916v-11.135c0-.127.037-.234.105-.332a.77.77 0 0 1 .382-.233q.276-.095.733-.141.578-.052 1.159-.046.704 0 1.161.046a3.2 3.2 0 0 1 .722.141.84.84 0 0 1 .38.233.5.5 0 0 1 .117.332v16.751zm20.322-8.864q0 .863-.389 1.276-.392.414-1.076.413h-10.332q0 1.073.257 1.944c.154.552.434 1.06.818 1.485q.56.61 1.446.929.882.32 2.121.319 1.256.001 2.205-.179a15 15 0 0 0 2.798-.789q.456-.176.74-.177a.6.6 0 0 1 .286.064.5.5 0 0 1 .191.234q.077.17.105.481.029.311.028.779 0 .413-.02.704-.017.291-.056.498-.03.183-.113.347a1.3 1.3 0 0 1-.201.273q-.123.13-.676.356-.688.27-1.406.443-.971.236-1.96.374a16.5 16.5 0 0 1-2.359.159q-2.264 0-3.966-.563a7.1 7.1 0 0 1-2.845-1.708q-1.14-1.146-1.702-2.893-.561-1.746-.561-4.093-.001-2.234.59-4.028a8.4 8.4 0 0 1 1.71-3.043 7.36 7.36 0 0 1 2.732-1.905q1.607-.659 3.623-.659 2.133 0 3.643.62 1.513.619 2.484 1.718a6.9 6.9 0 0 1 1.426 2.602c.313 1.061.467 2.162.457 3.267v.752zm-4.642-1.352c.039-1.328-.234-2.371-.808-3.128q-.868-1.135-2.673-1.136-.915 0-1.59.339a3.25 3.25 0 0 0-1.122.91 4.1 4.1 0 0 0-.685 1.352 6.7 6.7 0 0 0-.275 1.663z"/><defs><linearGradient id="a" x1="100" x2="100" y1="29.202" y2="173.077" gradientUnits="userSpaceOnUse"><stop stop-color="#174697"/><stop offset="1" stop-color="#0C2550"/></linearGradient><linearGradient id="b" x1="100" x2="100" y1="59.615" y2="168.793" gradientUnits="userSpaceOnUse"><stop stop-color="#3F78DC"/><stop offset="1" stop-color="#2F5FB3"/></linearGradient><linearGradient id="c" x1="100" x2="100" y1="98.303" y2="175" gradientUnits="userSpaceOnUse"><stop stop-color="#8BD7F9"/><stop offset="1" stop-color="#68BBE1"/></linearGradient></defs></svg>