<svg xmlns="http://www.w3.org/2000/svg" width="77" height="77"><defs><linearGradient id="a" x1="50%" x2="50%" y1="2.838%" y2="100%"><stop offset="0%" stop-color="#174697"/><stop offset="100%" stop-color="#0C2550"/></linearGradient><linearGradient id="b" x1="50%" x2="50%" y1="0%" y2="97.884%"><stop offset="0%" stop-color="#3F78DC"/><stop offset="100%" stop-color="#2F5FB3"/></linearGradient><linearGradient id="c" x1="50%" x2="50%" y1="2.725%" y2="100%"><stop offset="0%" stop-color="#8BD7F9"/><stop offset="100%" stop-color="#68BBE1"/></linearGradient></defs><g fill="none"><rect width="77" height="76.013" fill="url(#a)" rx="17"/><rect width="77" height="57.256" y="17.769" fill="url(#b)" rx="17"/><rect width="77" height="40.474" y="36.526" fill="url(#c)" rx="17"/><path fill="#FFF" d="M41.95 59.424c0 .764-.085 1.452-.254 2.063-.17.61-.414 1.13-.733 1.561a3.243 3.243 0 0 1-1.176.993c-.466.232-.995.347-1.587.347-.293 0-.567-.027-.82-.082a2.82 2.82 0 0 1-.728-.265 4.002 4.002 0 0 1-.684-.462 6.416 6.416 0 0 1-.688-.675v.935a.29.29 0 0 1-.054.178.392.392 0 0 1-.176.12 1.19 1.19 0 0 1-.327.068c-.137.013-.303.02-.498.02-.202 0-.37-.007-.503-.02a1.215 1.215 0 0 1-.322-.067.357.357 0 0 1-.171-.12.311.311 0 0 1-.049-.18V51.163a.28.28 0 0 1 .059-.174.438.438 0 0 1 .2-.13c.094-.035.22-.063.376-.082.156-.02.355-.029.596-.029.24 0 .439.01.595.03.157.018.282.046.376.081a.438.438 0 0 1 .2.13.28.28 0 0 1 .059.174v4.752c.221-.218.443-.404.664-.559.221-.154.443-.28.664-.38.221-.1.45-.172.684-.217.234-.045.482-.068.742-.068.644 0 1.191.127 1.64.38.45.255.816.597 1.1 1.028.282.43.49.933.62 1.508a8.23 8.23 0 0 1 .195 1.818Zm-2.55.173c0-.366-.027-.72-.082-1.06a3.001 3.001 0 0 0-.288-.907 1.764 1.764 0 0 0-.533-.631c-.218-.157-.493-.236-.825-.236a1.72 1.72 0 0 0-.478.067 1.786 1.786 0 0 0-.484.232c-.166.109-.337.25-.512.424a6.077 6.077 0 0 0-.557.646v2.853c.345.437.675.77.991.998.316.228.646.342.991.342.32 0 .59-.08.811-.24.221-.161.405-.37.552-.627a2.9 2.9 0 0 0 .317-.878c.065-.327.098-.655.098-.983Zm6.887 4.242a.26.26 0 0 1-.058.169.432.432 0 0 1-.2.12 1.78 1.78 0 0 1-.376.072 6.02 6.02 0 0 1-.596.025c-.241 0-.44-.009-.596-.025a1.762 1.762 0 0 1-.376-.072.432.432 0 0 1-.2-.12.26.26 0 0 1-.059-.17V51.163a.28.28 0 0 1 .059-.174.438.438 0 0 1 .2-.13 1.71 1.71 0 0 1 .376-.082c.156-.02.355-.029.596-.029.24 0 .44.01.596.03.156.018.281.046.376.081a.438.438 0 0 1 .2.13.28.28 0 0 1 .058.174V63.84Zm10.627 0c0 .064-.016.12-.049.169a.357.357 0 0 1-.17.12 1.332 1.332 0 0 1-.323.072 4.333 4.333 0 0 1-.503.025c-.215 0-.389-.009-.522-.025a1.252 1.252 0 0 1-.318-.072.357.357 0 0 1-.166-.12.294.294 0 0 1-.049-.17v-.992c-.481.514-.971.9-1.47 1.157a3.334 3.334 0 0 1-1.547.385c-.6 0-1.102-.096-1.509-.289a2.598 2.598 0 0 1-.986-.79 3.16 3.16 0 0 1-.537-1.162c-.108-.44-.161-.988-.161-1.644V55.24a.28.28 0 0 1 .053-.17.396.396 0 0 1 .196-.12 1.76 1.76 0 0 1 .38-.072 6.05 6.05 0 0 1 .591-.024c.241 0 .44.008.596.024.156.016.281.04.376.072a.432.432 0 0 1 .2.12.26.26 0 0 1 .059.17v4.858c0 .45.029.794.088 1.032.058.238.148.442.268.612.12.17.274.302.46.395.185.094.401.14.649.14.312 0 .626-.112.942-.337.316-.225.653-.553 1.01-.984V55.24c0-.065.019-.12.054-.17a.396.396 0 0 1 .196-.12c.094-.032.22-.056.376-.072a6.02 6.02 0 0 1 .595-.024c.241 0 .44.008.596.024.156.016.28.04.371.072a.43.43 0 0 1 .195.12.26.26 0 0 1 .06.17v8.599Zm10.432-4.55c0 .295-.067.514-.2.655-.134.142-.318.212-.552.212H61.29c0 .367.044.7.132.998a1.9 1.9 0 0 0 .42.762c.192.209.439.368.742.477.302.11.665.164 1.089.164.43 0 .807-.03 1.132-.092a7.593 7.593 0 0 0 1.436-.405c.156-.06.283-.091.38-.091a.29.29 0 0 1 .147.033c.04.023.072.063.098.12.026.059.044.14.054.247.01.106.014.24.014.4 0 .141-.003.262-.01.361-.006.1-.016.185-.029.256a.607.607 0 0 1-.058.178.669.669 0 0 1-.103.14c-.042.045-.158.106-.347.183a5.54 5.54 0 0 1-.722.227 10 10 0 0 1-1.006.192 8.466 8.466 0 0 1-1.211.082c-.775 0-1.453-.096-2.036-.289a3.634 3.634 0 0 1-1.46-.877c-.39-.392-.682-.887-.874-1.485-.192-.597-.288-1.298-.288-2.101 0-.765.1-1.454.303-2.068a4.32 4.32 0 0 1 .878-1.562 3.78 3.78 0 0 1 1.402-.978c.55-.225 1.17-.338 1.86-.338.73 0 1.353.106 1.87.318.518.212.943.506 1.275.882.332.376.576.821.732 1.336a5.75 5.75 0 0 1 .235 1.677v.386Zm-2.383-.694c.02-.682-.12-1.217-.415-1.606-.297-.388-.754-.583-1.372-.583-.313 0-.585.058-.816.174a1.665 1.665 0 0 0-.576.467c-.153.196-.27.428-.352.694a3.417 3.417 0 0 0-.141.854h3.672Z"/></g></svg>