<svg xmlns="http://www.w3.org/2000/svg" width="245" height="293"><defs><linearGradient id="a" x1="0%" x2="100%" y1="50.706%" y2="50.706%"><stop offset="0%" stop-color="#F50"/><stop offset="40.988%" stop-color="#F50"/><stop offset="58.198%" stop-color="#FF2000"/><stop offset="100%" stop-color="#FF2000"/></linearGradient><linearGradient id="b" x1="2.148%" x2="100%" y1="50.706%" y2="50.706%"><stop offset="0%" stop-color="#FF452A"/><stop offset="100%" stop-color="#FF2000"/></linearGradient></defs><g fill="none"><path fill="url(#a)" d="m239.386 70.197 6.736-16.845s-8.573-9.358-18.983-19.965c-10.41-10.606-32.455-4.367-32.455-4.367L169.577 0h-88.18L56.288 29.02s-22.045-6.239-32.455 4.367C13.424 43.994 4.851 53.352 4.851 53.352l6.736 16.845-8.573 24.955s25.214 97.299 28.169 109.18C37 227.729 40.98 236.776 57.514 248.63c16.534 11.853 46.54 32.442 51.439 35.561 4.899 3.12 11.022 8.433 16.534 8.433 5.51 0 11.634-5.313 16.533-8.433 4.9-3.12 34.905-23.708 51.439-35.561 16.534-11.854 20.514-20.9 26.332-44.296 2.954-11.882 28.168-109.18 28.168-109.18l-8.573-24.956Z" transform="translate(-3)"/><path fill="#FFF" d="M122.486 182.104c1.679 0 12.433 3.868 21.063 8.418 8.63 4.55 14.884 7.767 16.883 9.042 1.999 1.275.78 3.679-1.04 4.99-1.822 1.312-26.293 20.617-28.667 22.75-2.376 2.135-5.866 5.66-8.239 5.66-2.372 0-5.863-3.525-8.238-5.66-2.375-2.133-26.845-21.438-28.666-22.75-1.821-1.311-3.04-3.715-1.041-4.99 2-1.275 8.253-4.492 16.883-9.042 8.629-4.55 19.384-8.418 21.062-8.418Zm.132-137.502c.824.023 5.467.253 12.116 2.511 7.348 2.496 15.309 5.615 18.983 5.615 3.674 0 30.925-5.303 30.925-5.303s32.293 39.773 32.293 48.273-4.062 10.744-8.147 15.163c-4.084 4.42-21.923 23.718-24.214 26.197-2.29 2.478-7.06 6.236-4.255 13 2.806 6.763 6.944 15.37 2.342 24.099-4.602 8.73-12.487 14.556-17.539 13.593-5.052-.964-16.916-7.281-21.28-10.167-4.362-2.885-18.19-14.504-18.19-18.95 0-4.445 14.294-12.427 16.934-14.241 2.642-1.813 14.687-8.832 14.934-11.588.246-2.755.152-3.563-3.402-10.371-3.555-6.808-9.957-15.894-8.891-21.938 1.065-6.045 11.39-9.188 18.758-12.023 7.366-2.834 21.552-8.188 23.323-9.02 1.773-.833 1.315-1.626-4.053-2.144-5.368-.519-20.601-2.579-27.469-.628-6.867 1.95-18.6 4.917-19.55 6.49-.951 1.574-1.79 1.627-.813 7.055.975 5.428 6 31.472 6.488 36.099.488 4.626 1.442 7.684-3.454 8.824-4.896 1.14-13.138 3.121-15.97 3.121-2.833 0-11.075-1.98-15.97-3.12-4.897-1.141-3.943-4.2-3.455-8.825.488-4.627 5.512-30.671 6.488-36.1.976-5.427.138-5.48-.812-7.053-.95-1.574-12.684-4.541-19.552-6.491-6.867-1.95-22.1.11-27.468.628-5.368.518-5.826 1.311-4.054 2.144 1.772.832 15.958 6.186 23.325 9.02 7.367 2.835 17.692 5.978 18.757 12.023 1.066 6.044-5.336 15.13-8.89 21.938-3.555 6.808-3.65 7.616-3.403 10.371.246 2.756 12.292 9.775 14.933 11.588 2.641 1.814 16.935 9.796 16.935 14.24 0 4.447-13.828 16.066-18.19 18.951-4.364 2.886-16.228 9.203-21.28 10.167-5.052.963-12.936-4.864-17.539-13.593-4.602-8.73-.464-17.336 2.341-24.1 2.805-6.763-1.963-10.52-4.255-13l-24.214-26.196c-4.084-4.419-8.146-6.662-8.146-15.163 0-8.5 32.294-48.273 32.294-48.273s27.25 5.303 30.924 5.303c3.674 0 11.635-3.12 18.983-5.615 6.649-2.258 11.292-2.488 12.116-2.511h.263Z"/><path fill="url(#b)" d="M171.592 29.02 146.485 0h-88.18L33.196 29.02S11.152 22.781.742 33.387c0 0 29.394-2.703 39.498 14.038 0 0 27.25 5.303 30.924 5.303 3.674 0 11.635-3.12 18.983-5.615 7.349-2.496 12.248-2.514 12.248-2.514s4.898.018 12.247 2.514c7.348 2.496 15.309 5.615 18.983 5.615 3.674 0 30.924-5.303 30.924-5.303 10.104-16.74 39.498-14.038 39.498-14.038-10.41-10.606-32.455-4.367-32.455-4.367" transform="translate(20.092)"/></g></svg>