<svg width="200" height="200" fill="none" xmlns="http://www.w3.org/2000/svg"><g clip-path="url(#a)"><path d="m158.016 60.937 3.449-8.624s-4.389-4.79-9.718-10.22c-5.33-5.43-16.616-2.236-16.616-2.236L122.278 25H77.135L64.28 39.857s-11.286-3.194-16.615 2.235a460.97 460.97 0 0 0-9.718 10.221l3.449 8.624-4.39 12.776s12.909 49.811 14.422 55.894c2.978 11.978 5.015 16.609 13.48 22.678 8.464 6.068 23.826 16.609 26.334 18.205 2.508 1.598 5.642 4.318 8.464 4.318 2.821 0 5.956-2.72 8.464-4.318 2.509-1.597 17.87-12.137 26.334-18.205 8.465-6.069 10.502-10.7 13.481-22.677 1.512-6.083 14.42-55.894 14.42-55.894l-4.389-12.776v-.001Z" fill="url(#b)"/><path d="M99.706 118.228c.859 0 6.365 1.98 10.783 4.309 4.418 2.329 7.62 3.976 8.643 4.629 1.023.653.399 1.884-.532 2.555-.933.671-13.461 10.554-14.676 11.646-1.217 1.093-3.003 2.898-4.218 2.898-1.215 0-3.002-1.805-4.218-2.898-1.216-1.092-13.743-10.975-14.675-11.646-.932-.671-1.556-1.902-.533-2.555 1.024-.653 4.225-2.3 8.643-4.629 4.418-2.329 9.924-4.309 10.783-4.309Zm.067-70.394c.422.012 2.799.13 6.203 1.285 3.762 1.278 7.837 2.875 9.718 2.875 1.881 0 15.832-2.715 15.832-2.715s16.532 20.362 16.532 24.713c0 4.352-2.079 5.5-4.17 7.763l-12.397 13.411c-1.172 1.269-3.614 3.193-2.178 6.656 1.437 3.462 3.555 7.868 1.199 12.337-2.356 4.469-6.393 7.452-8.979 6.959-2.586-.494-8.66-3.728-10.894-5.205-2.233-1.477-9.312-7.425-9.312-9.701 0-2.276 7.317-6.362 8.669-7.291 1.352-.928 7.519-4.522 7.645-5.932.126-1.41.078-1.825-1.741-5.31-1.82-3.485-5.098-8.137-4.552-11.23.545-3.096 5.831-4.705 9.603-6.156 3.771-1.45 11.033-4.192 11.94-4.618.908-.426.673-.832-2.075-1.097-2.748-.266-10.546-1.32-14.062-.322s-9.523 2.517-10.009 3.323c-.487.806-.916.833-.416 3.612.499 2.778 3.071 16.111 3.321 18.48.25 2.368.738 3.934-1.768 4.518-2.506.583-6.726 1.597-8.176 1.597-1.45 0-5.67-1.013-8.175-1.597-2.508-.584-2.02-2.15-1.77-4.518.25-2.369 2.823-15.702 3.322-18.481.5-2.778.07-2.805-.415-3.61-.487-.807-6.494-2.326-10.01-3.324-3.516-.998-11.314.056-14.062.322-2.748.265-2.983.67-2.076 1.097.908.426 8.17 3.167 11.942 4.618 3.771 1.451 9.057 3.06 9.602 6.155.546 3.094-2.732 7.746-4.551 11.231-1.82 3.486-1.869 3.9-1.742 5.31.126 1.41 6.293 5.004 7.645 5.932 1.352.929 8.67 5.015 8.67 7.29 0 2.277-7.08 8.225-9.313 9.702-2.234 1.477-8.308 4.711-10.894 5.205-2.586.493-6.623-2.49-8.98-6.959-2.355-4.469-.237-8.875 1.2-12.338 1.435-3.462-1.006-5.385-2.179-6.655L55.524 81.755c-2.091-2.262-4.17-3.41-4.17-7.763 0-4.351 16.532-24.713 16.532-24.713s13.95 2.715 15.832 2.715c1.88 0 5.956-1.597 9.718-2.874 3.404-1.156 5.78-1.274 6.203-1.286h.134Z" fill="#fff"/><path d="M135.132 39.857 122.278 25H77.135L64.281 39.857s-11.286-3.194-16.615 2.235c0 0 15.048-1.383 20.22 7.187 0 0 13.951 2.715 15.832 2.715 1.881 0 5.957-1.597 9.718-2.875 3.763-1.277 6.27-1.287 6.27-1.287s2.508.01 6.271 1.287c3.761 1.278 7.837 2.875 9.718 2.875 1.881 0 15.831-2.715 15.831-2.715 5.173-8.57 20.221-7.187 20.221-7.187-5.329-5.43-16.615-2.235-16.615-2.235" fill="url(#c)"/></g><defs><linearGradient id="b" x1="37.007" y1="100.961" x2="162.405" y2="100.961" gradientUnits="userSpaceOnUse"><stop stop-color="#F50"/><stop offset=".41" stop-color="#F50"/><stop offset=".582" stop-color="#FF2000"/><stop offset="1" stop-color="#FF2000"/></linearGradient><linearGradient id="c" x1="49.902" y1="38.688" x2="151.747" y2="38.688" gradientUnits="userSpaceOnUse"><stop stop-color="#FF452A"/><stop offset="1" stop-color="#FF2000"/></linearGradient><clipPath id="a"><path fill="#fff" transform="translate(37 25)" d="M0 0h125.427v150H0z"/></clipPath></defs></svg>