<svg width="200" height="200" fill="none" xmlns="http://www.w3.org/2000/svg"><path d="M100 175c41.421 0 75-33.579 75-75s-33.579-75-75-75-75 33.579-75 75 33.579 75 75 75Z" fill="url(#a)"/><path d="M134.667 83.333c0-8.666-6-16.666-22-16.666H70A3.343 3.343 0 0 0 66.667 70v60c0 1.833 1.5 3.333 3.333 3.333h43.334c16.666 0 23.333-8.805 23.333-18 0-9.194-8.806-16-18-16 9.194 0 16-7.333 16-16Zm-40 23.334h20c3.333 0 6 2.666 6 6 0 3.333-2.667 6-6 6h-32V81.333h30c3.333 0 6 2 6 5.334 0 3.333-2.667 5.333-6 5.333h-18a3.343 3.343 0 0 0-3.333 3.333v8c0 1.834 1.5 3.334 3.333 3.334Z" fill="#fff"/><defs><linearGradient id="a" x1="46.967" y1="153.033" x2="153.033" y2="46.967" gradientUnits="userSpaceOnUse"><stop stop-color="#FF5193"/><stop offset="1" stop-color="#F9A43A"/></linearGradient></defs></svg>