<svg xmlns="http://www.w3.org/2000/svg" viewBox="0 0 540 540" style="enable-background:new 0 0 540 540" xml:space="preserve"><linearGradient id="a" gradientUnits="userSpaceOnUse" x1="79.081" y1="460.919" x2="460.919" y2="79.081"><stop offset="0" style="stop-color:#ff5193"/><stop offset="1" style="stop-color:#f9a43a"/></linearGradient><circle cx="270" cy="270" r="270" style="fill:url(#a)"/><path d="M394.8 210c0-31.2-21.6-60-79.2-60H162c-6.6 0-12 5.4-12 12v216c0 6.6 5.4 12 12 12h156c60 0 84-31.7 84-64.8s-31.7-57.6-64.8-57.6c33.1 0 57.6-26.4 57.6-57.6zm-144 84h72c12 0 21.6 9.6 21.6 21.6s-9.6 21.6-21.6 21.6H207.6V202.8h108c12 0 21.6 7.2 21.6 19.2s-9.6 19.2-21.6 19.2h-64.8c-6.6 0-12 5.4-12 12V282c0 6.6 5.4 12 12 12z" style="fill:#fff"/></svg>