<svg width="98" height="34" fill="none" xmlns="http://www.w3.org/2000/svg"><path d="M28.24 14.72c1.573.693 2.827 1.733 3.76 3.12.933 1.387 1.4 2.96 1.4 4.72a8.252 8.252 0 0 1-1.16 4.28 8.526 8.526 0 0 1-3.08 3.08c-1.307.747-2.733 1.12-4.28 1.12h-3.6v.92c0 .48-.2.893-.6 1.24-.373.347-.84.52-1.4.52-.48 0-.907-.173-1.28-.52-.373-.347-.56-.76-.56-1.24v-.92h-6.4c-.56 0-1.027-.2-1.4-.6a2.08 2.08 0 0 1-.52-1.52c.107-.453.36-.853.76-1.2s.827-.52 1.28-.52h13.56c.853 0 1.64-.213 2.36-.64.72-.427 1.293-1 1.72-1.72.453-.72.68-1.493.68-2.32a4.348 4.348 0 0 0-1.04-2.88 4.687 4.687 0 0 0-2.6-1.6c-.213-.107-.587-.16-1.12-.16h-3.68c-.533 0-1-.173-1.4-.52-.373-.347-.6-.76-.68-1.24-.053-.56.093-1.027.44-1.4.373-.373.84-.573 1.4-.6h1.64c.96-.08 1.76-.48 2.4-1.2.667-.747 1-1.627 1-2.64 0-1.067-.347-1.947-1.04-2.64-.693-.72-1.56-1.08-2.6-1.08h-7.8c-.48 0-.893-.173-1.24-.52-.347-.373-.52-.8-.52-1.28 0-.507.173-.933.52-1.28.347-.373.76-.56 1.24-.56h3.04v-.84c0-.507.187-.933.56-1.28.373-.347.8-.52 1.28-.52.56 0 1.027.173 1.4.52.4.347.6.773.6 1.28v.84h.92c1.36 0 2.613.333 3.76 1a7.393 7.393 0 0 1 2.72 2.72 7.132 7.132 0 0 1 1.04 3.76c0 1.547-.493 2.987-1.48 4.32Zm-8.12-4.16c0-.533-.2-1-.6-1.4-.4-.427-.853-.64-1.36-.64H9.6c-.533 0-.987.213-1.36.64-.347.4-.52.867-.52 1.4 0 .48.173.92.52 1.32.373.4.827.6 1.36.6h8.56c.507 0 .96-.2 1.36-.6.4-.4.6-.84.6-1.32Zm-6.88 5.56c0-.533-.187-.96-.56-1.28-.347-.347-.813-.52-1.4-.52H2.76c-.56 0-1.027.173-1.4.52a1.68 1.68 0 0 0-.56 1.28c0 .533.187 1 .56 1.4.373.373.84.56 1.4.56h8.52c.587 0 1.053-.187 1.4-.56.373-.373.56-.84.56-1.4Zm7.28 6.44c0-.533-.187-.973-.56-1.32a1.74 1.74 0 0 0-1.28-.52H6.52c-.533 0-.973.173-1.32.52-.347.347-.52.787-.52 1.32s.173 1 .52 1.4c.373.4.813.6 1.32.6h12.16c.507 0 .933-.2 1.28-.6.373-.4.56-.867.56-1.4Zm27.27-9.64c0 .533-.186.973-.56 1.32-.346.347-.8.52-1.36.52h-.84c-.32 0-.626.04-.92.12-.773.107-1.6.573-2.48 1.4-.853 1.2-1.28 2.56-1.28 4.08v8.92c0 .507-.186.947-.56 1.32-.373.373-.826.56-1.36.56-.533 0-.973-.187-1.32-.56a1.876 1.876 0 0 1-.52-1.32V12.92c0-.507.174-.933.52-1.28.374-.347.814-.52 1.32-.52.507 0 .947.173 1.32.52.374.347.574.773.6 1.28.32-.373.614-.64.88-.8.667-.533 1.614-.88 2.84-1.04.987-.053 1.854.04 2.6.28.747.24 1.12.76 1.12 1.56Zm5.418 9.32a.43.43 0 0 0-.24.08c-.054.053-.08.133-.08.24v.52c0 1.36.453 2.44 1.36 3.24.853.827 2.013 1.24 3.48 1.24.426 0 .813-.04 1.16-.12.773-.187 1.44-.493 2-.92.08-.08.227-.173.44-.28.213-.133.453-.2.72-.2h.04c.346 0 .666.107.96.32.293.213.506.493.64.84.053.267.08.453.08.56 0 .267-.067.507-.2.72-.267.533-.827 1.04-1.68 1.52-1.147.667-2.56 1-4.24 1-2.454 0-4.48-.733-6.08-2.2-1.573-1.493-2.36-3.44-2.36-5.84V18.8c0-2.133.747-3.973 2.24-5.52 1.466-1.547 3.253-2.32 5.36-2.32 1.973 0 3.693.72 5.16 2.16 1.173 1.173 1.866 2.613 2.08 4.32l.04.28c.027.187.04.507.04.96l-.04 1.36c0 .587-.213 1.107-.64 1.56-.427.427-.947.64-1.56.64h-8.68Zm-.32-3.88c0 .187.067.36.2.52.16.133.333.2.52.2h6.28a.655.655 0 0 0 .48-.2c.133-.16.2-.333.2-.52v-.24c0-.533-.093-1-.28-1.4-.16-.427-.44-.853-.84-1.28-.72-.827-1.614-1.24-2.68-1.24-1.067 0-1.974.387-2.72 1.16-.773.773-1.16 1.72-1.16 2.84v.16Zm17.625 3.88a.43.43 0 0 0-.24.08c-.054.053-.08.133-.08.24v.52c0 1.36.453 2.44 1.36 3.24.853.827 2.013 1.24 3.48 1.24.426 0 .813-.04 1.16-.12.773-.187 1.44-.493 2-.92.08-.08.226-.173.44-.28.213-.133.453-.2.72-.2h.04c.346 0 .666.107.96.32.293.213.506.493.64.84.053.267.08.453.08.56 0 .267-.067.507-.2.72-.267.533-.827 1.04-1.68 1.52-1.147.667-2.56 1-4.24 1-2.454 0-4.48-.733-6.08-2.2-1.574-1.493-2.36-3.44-2.36-5.84V18.8c0-2.133.746-3.973 2.24-5.52 1.466-1.547 3.253-2.32 5.36-2.32 1.973 0 3.693.72 5.16 2.16 1.173 1.173 1.866 2.613 2.08 4.32l.04.28c.026.187.04.507.04.96l-.04 1.36c0 .587-.214 1.107-.64 1.56-.427.427-.947.64-1.56.64h-8.68Zm-.32-3.88c0 .187.066.36.2.52.16.133.333.2.52.2h6.28a.655.655 0 0 0 .48-.2c.133-.16.2-.333.2-.52v-.24c0-.533-.094-1-.28-1.4-.16-.427-.44-.853-.84-1.28-.72-.827-1.614-1.24-2.68-1.24-1.067 0-1.974.387-2.72 1.16-.774.773-1.16 1.72-1.16 2.84v.16Zm25.064 8.72c.507 0 .92.173 1.24.52.347.32.52.72.52 1.2 0 .507-.173.947-.52 1.32-.32.347-.733.52-1.24.52h-10.44c-.48 0-.906-.173-1.28-.52a1.876 1.876 0 0 1-.52-1.32c0-.16.04-.347.12-.56a4.67 4.67 0 0 1 .24-.44l7.68-12.36c.027-.027.04-.08.04-.16a.271.271 0 0 0-.08-.2.27.27 0 0 0-.24-.12h-5.88c-.48 0-.893-.173-1.24-.52-.32-.347-.48-.773-.48-1.28s.187-.92.56-1.24c.374-.32.8-.48 1.28-.48h9.56c.507 0 .933.173 1.28.52.347.32.52.733.52 1.24 0 .347-.106.667-.32.96l-7.68 12.36a.445.445 0 0 0-.04.2c0 .107.027.2.08.28.053.053.12.08.2.08h6.64Z" fill="#000"/></svg>