<svg width="200" height="200" fill="none" xmlns="http://www.w3.org/2000/svg"><path d="M61.87 96.037c2.888 1.272 5.192 3.183 6.905 5.73 1.714 2.548 2.572 5.437 2.572 8.67a15.157 15.157 0 0 1-2.13 7.861 15.657 15.657 0 0 1-5.658 5.657c-2.4 1.372-5.02 2.057-7.861 2.057h-6.612v1.69c0 .882-.368 1.64-1.102 2.277-.686.638-1.543.956-2.572.956-.882 0-1.666-.318-2.351-.956-.685-.637-1.029-1.395-1.029-2.277v-1.69H30.277c-1.028 0-1.886-.367-2.571-1.102a3.826 3.826 0 0 1-.955-2.792c.196-.832.661-1.566 1.396-2.204.734-.637 1.519-.955 2.35-.955h24.907a8.347 8.347 0 0 0 4.335-1.175 8.889 8.889 0 0 0 3.159-3.16c.832-1.322 1.249-2.742 1.249-4.261a7.989 7.989 0 0 0-1.91-5.29 8.607 8.607 0 0 0-4.776-2.938c-.391-.197-1.078-.294-2.057-.294h-6.76a3.805 3.805 0 0 1-2.57-.955c-.686-.638-1.103-1.396-1.25-2.278-.097-1.029.171-1.886.808-2.571.686-.686 1.543-1.053 2.572-1.102h3.012c1.763-.147 3.233-.882 4.408-2.204 1.225-1.373 1.837-2.989 1.837-4.85 0-1.96-.637-3.576-1.91-4.849-1.273-1.322-2.866-1.983-4.776-1.983H36.45c-.882 0-1.64-.318-2.278-.955-.637-.685-.955-1.47-.955-2.351 0-.931.318-1.714.955-2.351.638-.685 1.396-1.029 2.278-1.029h5.583V72.82c0-.93.344-1.713 1.029-2.35.685-.638 1.47-.956 2.351-.956 1.029 0 1.886.318 2.572.955.734.638 1.102 1.42 1.102 2.351v1.543h1.69c2.497 0 4.799.612 6.905 1.837a13.578 13.578 0 0 1 4.996 4.996 13.1 13.1 0 0 1 1.91 6.906c0 2.841-.905 5.486-2.718 7.935Zm-14.915-7.641c0-.98-.367-1.837-1.102-2.572-.735-.784-1.567-1.175-2.498-1.175H27.632c-.979 0-1.812.391-2.498 1.175a3.802 3.802 0 0 0-.955 2.572c0 .881.318 1.69.956 2.424.685.735 1.518 1.102 2.497 1.102h15.723c.931 0 1.763-.367 2.498-1.102.734-.734 1.102-1.543 1.102-2.424ZM34.318 98.608c0-.979-.343-1.763-1.028-2.351-.638-.637-1.494-.955-2.572-.955H15.07c-1.028 0-1.886.318-2.571.955a3.086 3.086 0 0 0-1.029 2.351c0 .979.344 1.837 1.029 2.571.685.686 1.543 1.029 2.571 1.029h15.65c1.077 0 1.933-.343 2.57-1.029.686-.685 1.03-1.542 1.03-2.571Zm13.372 11.829c0-.979-.344-1.788-1.029-2.425a3.196 3.196 0 0 0-2.351-.955H21.975c-.979 0-1.787.318-2.424.955s-.955 1.446-.955 2.425c0 .979.317 1.836.955 2.571.685.735 1.493 1.102 2.424 1.102H44.31c.931 0 1.714-.367 2.351-1.102.685-.735 1.029-1.592 1.029-2.571Zm50.087-17.706c0 .979-.341 1.787-1.028 2.424-.636.637-1.47.955-2.498.955h-1.543c-.588 0-1.15.073-1.69.22-1.42.197-2.939 1.053-4.555 2.572-1.567 2.204-2.351 4.702-2.351 7.494v16.383c0 .932-.342 1.74-1.028 2.425-.686.685-1.518 1.029-2.499 1.029-.978 0-1.787-.344-2.424-1.029a3.447 3.447 0 0 1-.955-2.425V92.731c0-.932.32-1.714.955-2.352a3.447 3.447 0 0 1 2.424-.955c.932 0 1.74.318 2.425.955a3.326 3.326 0 0 1 1.102 2.352c.588-.686 1.128-1.176 1.616-1.47 1.225-.979 2.965-1.616 5.217-1.91 1.813-.097 3.405.073 4.775.514 1.372.441 2.057 1.396 2.057 2.866Zm9.952 17.118a.792.792 0 0 0-.441.147c-.099.097-.147.244-.147.441v.955c0 2.498.832 4.481 2.498 5.951 1.567 1.519 3.697 2.277 6.392 2.277.782 0 1.493-.073 2.13-.22 1.42-.344 2.645-.906 3.674-1.69.147-.147.417-.318.808-.514a2.448 2.448 0 0 1 1.322-.368h.074c.635 0 1.223.197 1.763.588.538.391.93.906 1.176 1.543.097.49.147.832.147 1.029 0 .49-.123.931-.368 1.322-.49.979-1.519 1.91-3.085 2.792-2.107 1.225-4.702 1.837-7.788 1.837-4.507 0-8.229-1.347-11.167-4.041-2.89-2.742-4.335-6.319-4.335-10.727v-7.641c0-3.917 1.372-7.297 4.114-10.138 2.693-2.842 5.975-4.261 9.845-4.261 3.624 0 6.783 1.322 9.478 3.967 2.154 2.154 3.427 4.8 3.82 7.935l.073.514c.05.343.074.931.074 1.763l-.074 2.498c0 1.078-.391 2.033-1.175 2.865-.784.785-1.739 1.176-2.865 1.176h-15.943Zm-.588-7.127c0 .344.123.662.367.955.294.245.612.368.955.368h11.535a1.196 1.196 0 0 0 .882-.368c.244-.293.367-.611.367-.955v-.44c0-.979-.171-1.837-.514-2.572-.294-.784-.808-1.567-1.543-2.35-1.322-1.52-2.965-2.278-4.922-2.278-1.96 0-3.626.71-4.996 2.13-1.42 1.42-2.131 3.159-2.131 5.216v.294Zm32.372 7.127a.792.792 0 0 0-.44.147c-.1.097-.147.244-.147.441v.955c0 2.498.832 4.481 2.498 5.951 1.566 1.519 3.697 2.277 6.391 2.277a9.5 9.5 0 0 0 2.131-.22c1.42-.344 2.645-.906 3.674-1.69.147-.147.415-.318.808-.514a2.448 2.448 0 0 1 1.322-.368h.074c.635 0 1.223.197 1.763.588a3.36 3.36 0 0 1 1.175 1.543c.098.49.147.832.147 1.029 0 .49-.123.931-.367 1.322-.49.979-1.519 1.91-3.086 2.792-2.106 1.225-4.702 1.837-7.787 1.837-4.508 0-8.229-1.347-11.168-4.041-2.891-2.742-4.334-6.319-4.334-10.727v-7.641c0-3.917 1.37-7.297 4.114-10.138 2.692-2.842 5.975-4.261 9.845-4.261 3.624 0 6.783 1.322 9.477 3.967 2.155 2.154 3.428 4.8 3.821 7.935l.073.514c.048.343.074.931.074 1.763l-.074 2.498c0 1.078-.393 2.033-1.175 2.865-.785.785-1.74 1.176-2.866 1.176h-15.943Zm-.587-7.127c0 .344.121.662.367.955.294.245.612.368.955.368h11.535a1.196 1.196 0 0 0 .881-.368c.245-.293.368-.611.368-.955v-.44c0-.979-.173-1.837-.514-2.572-.294-.784-.809-1.567-1.543-2.35-1.323-1.52-2.965-2.278-4.923-2.278-1.96 0-3.625.71-4.996 2.13-1.421 1.42-2.13 3.159-2.13 5.216v.294Zm46.036 16.017c.931 0 1.689.317 2.277.955.638.588.955 1.322.955 2.204 0 .931-.317 1.739-.955 2.424-.588.638-1.346.955-2.277.955h-19.176c-.882 0-1.664-.317-2.351-.955a3.448 3.448 0 0 1-.955-2.424c0-.294.073-.638.22-1.029.133-.277.28-.547.441-.808l14.106-22.702c.05-.05.074-.147.074-.294a.497.497 0 0 0-.147-.367.5.5 0 0 0-.441-.22h-10.8c-.882 0-1.64-.318-2.278-.956-.587-.637-.881-1.42-.881-2.35 0-.932.343-1.69 1.028-2.278.687-.588 1.47-.882 2.351-.882h17.56c.931 0 1.713.318 2.351.955.637.588.955 1.347.955 2.278 0 .637-.195 1.225-.588 1.763l-14.106 22.702a.816.816 0 0 0-.074.367c0 .197.05.368.147.515a.504.504 0 0 0 .368.147h12.196Z" fill="#000"/></svg>