<svg xmlns="http://www.w3.org/2000/svg" viewBox="0 0 200 200"><path d="M61.87 96.037q4.334 1.909 6.905 5.73t2.572 8.67a15.16 15.16 0 0 1-2.13 7.861 15.66 15.66 0 0 1-5.658 5.657q-3.6 2.058-7.861 2.057h-6.612v1.69q0 1.322-1.102 2.277-1.029.957-2.572.956-1.323 0-2.351-.956-1.028-.955-1.029-2.277v-1.69H30.277q-1.543 0-2.571-1.102a3.83 3.83 0 0 1-.955-2.792q.294-1.247 1.396-2.204 1.102-.955 2.35-.955h24.907a8.35 8.35 0 0 0 4.335-1.175 8.9 8.9 0 0 0 3.159-3.16q1.249-1.983 1.249-4.261a8 8 0 0 0-1.91-5.29 8.6 8.6 0 0 0-4.776-2.938q-.588-.295-2.057-.294h-6.76a3.8 3.8 0 0 1-2.57-.955q-1.03-.956-1.25-2.278-.146-1.543.808-2.571 1.029-1.029 2.572-1.102h3.012q2.645-.22 4.408-2.204 1.837-2.059 1.837-4.85 0-2.94-1.91-4.849-1.91-1.983-4.776-1.983H36.45q-1.322 0-2.278-.955-.955-1.029-.955-2.351 0-1.396.955-2.351.956-1.028 2.278-1.029h5.583V72.82q0-1.395 1.029-2.35 1.029-.957 2.351-.956 1.543 0 2.572.955 1.102.956 1.102 2.351v1.543h1.69q3.746 0 6.905 1.837a13.6 13.6 0 0 1 4.996 4.996 13.1 13.1 0 0 1 1.91 6.906q0 4.261-2.718 7.935m-14.915-7.641q0-1.47-1.102-2.572-1.102-1.175-2.498-1.175H27.632q-1.469 0-2.498 1.175a3.8 3.8 0 0 0-.955 2.572q0 1.322.956 2.424 1.028 1.102 2.497 1.102h15.723q1.396 0 2.498-1.102t1.102-2.424M34.318 98.608q0-1.469-1.028-2.351-.956-.955-2.572-.955H15.07q-1.543 0-2.571.955a3.1 3.1 0 0 0-1.029 2.351q0 1.47 1.029 2.571 1.028 1.029 2.571 1.029h15.65q1.615 0 2.57-1.029 1.03-1.028 1.03-2.571Zm13.372 11.829q0-1.469-1.029-2.425a3.2 3.2 0 0 0-2.351-.955H21.975q-1.468 0-2.424.955c-.956.955-.955 1.446-.955 2.425q-.001 1.469.955 2.571 1.027 1.102 2.424 1.102H44.31q1.396 0 2.351-1.102 1.028-1.102 1.029-2.571m50.087-17.706q.001 1.468-1.028 2.424-.955.955-2.498.955h-1.543q-.881 0-1.69.22-2.13.294-4.555 2.572-2.35 3.306-2.351 7.494v16.383q0 1.398-1.028 2.425-1.028 1.028-2.499 1.029-1.468 0-2.424-1.029a3.45 3.45 0 0 1-.955-2.425V92.731q.001-1.397.955-2.352a3.45 3.45 0 0 1 2.424-.955q1.398 0 2.425.955a3.33 3.33 0 0 1 1.102 2.352q.883-1.029 1.616-1.47 1.838-1.469 5.217-1.91 2.72-.147 4.775.514 2.058.661 2.057 2.866m9.952 17.118a.8.8 0 0 0-.441.147q-.148.145-.147.441v.955q0 3.747 2.498 5.951 2.35 2.278 6.392 2.277 1.174 0 2.13-.22 2.13-.515 3.674-1.69.221-.22.808-.514a2.45 2.45 0 0 1 1.322-.368h.074q.953 0 1.763.588.807.587 1.176 1.543.146.734.147 1.029 0 .735-.368 1.322-.736 1.469-3.085 2.792-3.16 1.837-7.788 1.837-6.76 0-11.167-4.041-4.335-4.114-4.335-10.727v-7.641q0-5.876 4.114-10.138 4.04-4.262 9.845-4.261 5.436 0 9.478 3.967 3.23 3.232 3.82 7.935l.073.514q.075.515.074 1.763l-.074 2.498q0 1.617-1.175 2.865-1.176 1.177-2.865 1.176zm-.588-7.127q0 .516.367.955.44.368.955.368h11.535a1.2 1.2 0 0 0 .882-.368q.367-.44.367-.955v-.44q0-1.469-.514-2.572-.44-1.176-1.543-2.35-1.985-2.279-4.922-2.278-2.94 0-4.996 2.13-2.13 2.13-2.131 5.216zm32.372 7.127a.8.8 0 0 0-.44.147q-.149.145-.147.441v.955q0 3.747 2.498 5.951 2.35 2.278 6.391 2.277a9.5 9.5 0 0 0 2.131-.22q2.13-.515 3.674-1.69.22-.22.808-.514a2.45 2.45 0 0 1 1.322-.368h.074q.953 0 1.763.588a3.36 3.36 0 0 1 1.175 1.543q.147.734.147 1.029 0 .735-.367 1.322-.735 1.469-3.086 2.792-3.16 1.837-7.787 1.837-6.76 0-11.168-4.041-4.335-4.114-4.334-10.727v-7.641q-.001-5.876 4.114-10.138 4.039-4.262 9.845-4.261 5.436 0 9.477 3.967 3.232 3.232 3.821 7.935l.073.514q.073.515.074 1.763l-.074 2.498q-.001 1.617-1.175 2.865-1.177 1.177-2.866 1.176zm-.587-7.127q-.001.516.367.955.44.368.955.368h11.535a1.2 1.2 0 0 0 .881-.368q.368-.44.368-.955v-.44q-.001-1.469-.514-2.572-.441-1.176-1.543-2.35-1.985-2.279-4.923-2.278-2.94 0-4.996 2.13-2.13 2.13-2.13 5.216zm46.036 16.017q1.396-.001 2.277.955.956.882.955 2.204.001 1.397-.955 2.424-.881.956-2.277.955h-19.176q-1.322.001-2.351-.955a3.45 3.45 0 0 1-.955-2.424q0-.442.22-1.029.2-.416.441-.808l14.106-22.702q.075-.074.074-.294a.5.5 0 0 0-.147-.367.5.5 0 0 0-.441-.22h-10.8q-1.322 0-2.278-.956-.88-.955-.881-2.35 0-1.397 1.028-2.278 1.03-.882 2.351-.882h17.56q1.395 0 2.351.955.955.882.955 2.278 0 .956-.588 1.763l-14.106 22.702a.8.8 0 0 0-.074.367q0 .295.147.515a.5.5 0 0 0 .368.147z"/></svg>