<svg xmlns="http://www.w3.org/2000/svg" viewBox="0 0 200 200"><path fill="#1F4079" d="M0 0h200v200H0zm160.938 0H39.063C17.488 0 0 17.489 0 39.063v121.875C0 182.511 17.489 200 39.063 200h121.875C182.511 200 200 182.511 200 160.938V39.063C200 17.488 182.511 0 160.938 0"/><path fill="#26ABE2" d="M77.405 148.351c-1.698-.76-2.712-2.36-2.712-4.214 0-2.615 1.97-4.586 4.566-4.586 4.117 0 6.146 4.937 3.239 7.843-1.288 1.289-3.473 1.699-5.093.957m18.341.175c-3.335-.682-6.497-3.043-8-6.048-.917-1.815-1.306-3.473-1.306-5.561 0-3.356 1.112-6.088 3.453-8.41 2.536-2.516 5.366-3.531 9.444-3.356 2.654.118 4.391.683 6.146 2.01.956.703 2.654 2.537 2.654 2.848 0 .078-.8.742-1.776 1.464-1.639 1.21-1.873 1.327-2.907 1.405-.917.059-1.327-.02-2.497-.527-2.303-1.015-4.059-.722-5.542.917-2.497 2.771-1.19 7.805 2.224 8.625 1.718.409 3.142-.02 4.566-1.406l.82-.78 2.633 1.912c3.064 2.205 3.006 1.932.938 3.981-1.483 1.444-3.278 2.419-5.269 2.848-1.385.293-4.313.332-5.58.078Zm22.928-.214c-5.483-1.405-9.054-5.912-9.054-11.395 0-4.526 2.498-8.526 6.615-10.537 1.97-.975 3.551-1.326 5.951-1.326 3.726 0 6.536 1.112 8.995 3.57 3.765 3.747 4.526 8.899 2.029 13.854-.761 1.522-3.356 4.02-5.014 4.839-2.869 1.405-6.498 1.795-9.522.995m5.658-6.888c2.634-1.307 3.395-5.248 1.503-7.766-1.21-1.619-3.727-2.38-5.483-1.639-1.113.469-2.206 1.62-2.654 2.772-1.678 4.526 2.478 8.702 6.634 6.633m13.854-3.336c0-11.356-.02-11.142 1.249-12.059.546-.39.858-.429 3.687-.488l3.064-.058v3.024l.995-.995c3.473-3.493 9.054-3.317 11.746.371l.566.742 1.151-1.055c.625-.585 1.698-1.326 2.361-1.658 2.283-1.112 5.463-1.21 7.708-.214 1.951.858 3.512 3.043 3.98 5.541.118.664.175 3.844.136 8.059-.058 6.965-.058 6.985-.507 7.628-.819 1.132-1.365 1.289-4.526 1.308h-2.83l-.098-6.927c-.097-6.322-.136-6.984-.468-7.688-.507-1.034-1.326-1.482-2.654-1.482-1.346 0-2.165.468-2.77 1.6-.43.8-.449 1.054-.547 6.692-.058 3.922-.175 5.99-.331 6.244-.742 1.307-1.834 1.639-5.171 1.659h-2.263l-.078-6.869c-.059-6.751-.059-6.907-.508-7.726-.663-1.23-1.424-1.639-2.907-1.561-1.073.058-1.307.156-1.892.722-1.015.975-1.093 1.541-1.093 7.473 0 5.151-.02 5.366-.43 6.205-.721 1.424-1.307 1.619-4.682 1.717l-2.888.078z"/><path fill="#fff" d="M147.317 116.703a29.2 29.2 0 0 1-6.615-1.816c-8.487-3.453-14.322-10.555-16.312-19.824-.507-2.4-.507-9.15.019-11.512 1.386-6.38 4.742-12.02 9.367-15.726 3.746-3.006 7.629-4.8 12.507-5.777 2.75-.565 8.371-.604 11.122-.097 4.117.742 7.492 2.088 10.595 4.214 1.737 1.191 4.8 4.118 5.893 5.62l.604.82-1.21.936c-.663.508-2.361 1.835-3.765 2.927-3.103 2.439-3.805 2.79-5.425 2.79-1.424 0-2.439-.41-5.014-2.049-.918-.585-2.381-1.287-3.239-1.58-1.347-.468-1.893-.546-3.903-.546-1.912-.02-2.595.058-3.707.41-4.586 1.463-7.98 5.541-8.878 10.712-.312 1.736-.156 5.795.274 7.395.175.644.721 2.01 1.228 3.024 2.479 4.937 7.551 7.513 13.132 6.634 3.18-.507 5.444-1.775 8.175-4.565.957-.995 1.718-1.62 1.854-1.542.352.215 10.537 7.493 10.713 7.668.214.176-1.932 2.868-3.61 4.527-4.137 4.078-8.917 6.419-14.888 7.278-2.088.313-7.083.352-8.917.078zm-118.38-.977c-1.328-.39-2.733-1.561-3.396-2.809l-.43-.781-.057-24.721-.04-24.743h15.162c9.014 0 15.726.079 16.546.196 8.604 1.23 13.56 6.069 13.56 13.269 0 5.034-2.302 8.78-6.867 11.218l-1.23.664.644.235c.37.117 1.425.605 2.342 1.053 5.385 2.634 7.687 6.517 7.394 12.566-.33 7.434-5.424 12.136-14.809 13.698-1.854.312-27.824.448-28.82.156zm25.346-12.234c2.517-.819 3.63-2.38 3.473-4.8-.059-1.033-.195-1.444-.664-2.107-.683-.976-2.185-1.814-3.766-2.107-.565-.117-3.941-.195-7.453-.195h-6.42v9.795l6.79-.078c6.283-.078 6.868-.117 8.039-.508Zm-2.44-20.039c2.596-.682 3.805-2.029 3.805-4.273 0-2.263-1.21-3.687-3.61-4.312-.897-.234-2.38-.292-6.867-.292h-5.718v9.17h5.62c4.409 0 5.872-.059 6.77-.292zm38.928 12.313V75.55H74.73l.079-4.332c.058-4.039.097-4.41.507-5.326.586-1.269 1.463-2.186 2.673-2.752l.975-.468h42.654l-.058 4.351c-.059 4.078-.078 4.39-.527 5.367-.273.585-.839 1.346-1.327 1.794-1.483 1.288-1.912 1.366-8.391 1.366H105.6l-.039 18.205-.059 18.185-.43.8c-.663 1.23-1.287 1.893-2.438 2.517l-1.034.586-5.405.058-5.424.059z"/></svg>