<svg xmlns="http://www.w3.org/2000/svg" width="256" height="256"><g fill="none" fill-rule="evenodd"><rect width="256" height="256" fill="#1F4079" rx="50"/><path fill="#26ABE2" fill-rule="nonzero" d="M99.078 189.89c-2.173-.974-3.471-3.022-3.471-5.395 0-3.347 2.522-5.87 5.844-5.87 5.27 0 7.867 6.32 4.146 10.04-1.649 1.65-4.446 2.174-6.519 1.225zm23.477.224c-4.27-.874-8.317-3.896-10.24-7.742-1.174-2.323-1.673-4.446-1.673-7.118 0-4.296 1.424-7.793 4.42-10.765 3.247-3.221 6.869-4.52 12.089-4.295 3.397.15 5.62.874 7.867 2.572 1.224.9 3.397 3.247 3.397 3.646 0 .1-1.024.95-2.273 1.874-2.098 1.548-2.398 1.698-3.721 1.798-1.174.075-1.699-.025-3.197-.674-2.947-1.3-5.195-.925-7.093 1.173-3.197 3.547-1.524 9.99 2.847 11.04 2.198.524 4.021-.025 5.844-1.799l1.05-.999 3.37 2.448c3.922 2.822 3.847 2.473 1.2 5.095-1.898 1.848-4.196 3.097-6.744 3.646-1.773.375-5.52.425-7.143.1zm29.347-.274c-7.018-1.799-11.589-7.568-11.589-14.586 0-5.794 3.197-10.914 8.467-13.487 2.522-1.249 4.545-1.698 7.617-1.698 4.77 0 8.367 1.423 11.514 4.57 4.82 4.796 5.794 11.39 2.597 17.733-.974 1.948-4.295 5.145-6.418 6.194-3.672 1.798-8.317 2.298-12.188 1.274zm7.243-8.817c3.371-1.673 4.345-6.718 1.923-9.94-1.549-2.073-4.77-3.047-7.018-2.098-1.424.6-2.823 2.073-3.397 3.547-2.148 5.794 3.172 11.139 8.492 8.491zm17.732-4.27c0-14.536-.025-14.262 1.599-15.436.699-.499 1.099-.549 4.72-.624l3.921-.075v3.871l1.274-1.273c4.446-4.471 11.589-4.246 15.035.474l.725.95 1.473-1.35c.8-.749 2.173-1.698 3.022-2.122 2.922-1.424 6.993-1.549 9.866-.275 2.497 1.099 4.495 3.896 5.095 7.093.15.85.224 4.92.174 10.315-.074 8.916-.074 8.941-.649 9.765-1.049 1.449-1.748 1.649-5.794 1.674h-3.622l-.125-8.867c-.124-8.092-.174-8.94-.599-9.84-.65-1.324-1.698-1.898-3.397-1.898-1.723 0-2.772.6-3.546 2.048-.55 1.024-.575 1.349-.7 8.566-.074 5.02-.224 7.668-.424 7.993-.95 1.673-2.348 2.098-6.619 2.123h-2.897l-.1-8.792c-.075-8.641-.075-8.841-.65-9.89-.848-1.574-1.822-2.098-3.72-1.998-1.374.075-1.674.2-2.423.924-1.299 1.249-1.399 1.973-1.399 9.566 0 6.593-.025 6.868-.55 7.942-.923 1.823-1.673 2.073-5.993 2.198l-3.697.1v-13.163z"/><path fill="#FFF" fill-rule="nonzero" d="M188.566 149.38c-2.747-.4-5.87-1.25-8.467-2.324-10.864-4.42-18.332-13.511-20.88-25.375-.649-3.072-.649-11.713.025-14.735 1.774-8.167 6.07-15.385 11.989-20.13 4.795-3.847 9.765-6.145 16.01-7.394 3.52-.724 10.714-.774 14.235-.124 5.27.949 9.59 2.672 13.562 5.394 2.223 1.524 6.144 5.27 7.543 7.193l.774 1.05-1.549 1.198c-.849.65-3.022 2.348-4.82 3.746-3.971 3.122-4.87 3.572-6.943 3.572-1.823 0-3.122-.525-6.419-2.623-1.174-.749-3.047-1.648-4.146-2.023-1.723-.599-2.422-.699-4.995-.699-2.448-.025-3.322.075-4.745.525-5.87 1.873-10.215 7.093-11.364 13.711-.4 2.223-.2 7.418.35 9.466.224.824.924 2.572 1.573 3.871 3.172 6.319 9.665 9.616 16.809 8.492 4.07-.65 6.968-2.273 10.464-5.844 1.224-1.274 2.198-2.073 2.373-1.973.45.274 13.487 9.59 13.712 9.815.274.225-2.473 3.671-4.62 5.794-5.296 5.22-11.415 8.217-19.057 9.316-2.673.4-9.066.45-11.414.1zm-151.527-1.25c-1.699-.5-3.497-1.998-4.346-3.596l-.55-1-.074-31.643-.05-31.67h19.406c11.539 0 20.13.1 21.18.25 11.013 1.574 17.357 7.768 17.357 16.984 0 6.444-2.947 11.239-8.791 14.36l-1.574.85.824.3c.475.15 1.824.774 2.998 1.348 6.893 3.372 9.84 8.342 9.465 16.085-.424 9.515-6.943 15.534-18.956 17.533-2.373.4-35.615.574-36.89.2zm32.443-15.66c3.222-1.048 4.646-3.046 4.446-6.143-.075-1.324-.25-1.849-.85-2.698-.874-1.249-2.797-2.322-4.82-2.697-.724-.15-5.045-.25-9.54-.25H50.5v12.538l8.691-.1c8.042-.1 8.792-.15 10.29-.65zm-3.122-25.65c3.322-.873 4.87-2.597 4.87-5.469 0-2.897-1.548-4.72-4.62-5.52-1.149-.3-3.047-.374-8.791-.374H50.5v11.739h7.193c5.644 0 7.517-.076 8.666-.375zm49.827 15.76V96.706h-20.53l.1-5.545c.074-5.17.124-5.645.649-6.818.75-1.624 1.873-2.798 3.422-3.522l1.248-.6h54.597l-.075 5.57c-.075 5.22-.1 5.62-.674 6.869-.35.749-1.074 1.723-1.699 2.297-1.898 1.649-2.447 1.749-10.74 1.749h-7.317l-.05 23.302-.075 23.277-.55 1.024c-.849 1.574-1.648 2.423-3.121 3.222l-1.324.75-6.918.074-6.943.075v-25.85z"/></g></svg>