<svg width="200" height="200" fill="none" xmlns="http://www.w3.org/2000/svg"><path d="M99.915 174.83c41.374 0 74.915-33.541 74.915-74.915C174.83 58.541 141.289 25 99.915 25 58.541 25 25 58.54 25 99.915c0 41.374 33.54 74.915 74.915 74.915Z" fill="url(#a)"/><path d="M91.408 56.61h44.805v10.874h-38.98c-1.499 0-2.997-.024-4.495.024-5.462.024-10.923 1.426-15.684 4.108-5.776 3.215-10.512 8.266-13.389 14.235-2.61 5.389-3.624 11.478-3.02 17.423a32.06 32.06 0 0 0 5.776 15.466c2.707 3.794 6.234 7.033 10.295 9.353 5.026 2.9 10.85 4.398 16.674 4.302h42.823v10.826H89.79c-6.139-.459-12.204-2.199-17.618-5.148-7.322-4.011-13.46-10.198-17.423-17.544-3.142-5.776-4.858-12.252-5.148-18.777v-3.625c.29-6.67 2.078-13.267 5.317-19.115 4.035-7.347 10.27-13.51 17.714-17.425 5.775-3.069 12.251-4.736 18.776-4.978Zm-1.86 19.212c1.015-.146 2.03-.17 3.045-.266h14.088c.965.912 1.9 1.855 2.804 2.827 2.707 2.658 5.365 5.365 8.023 8.072H96.895c-1.692 0-3.408-.049-5.1.072-3.19.266-6.259 1.692-8.482 3.988a13.479 13.479 0 0 0-3.89 8.941c-.097 2.779.676 5.582 2.222 7.902 1.74 2.634 4.423 4.641 7.444 5.534 1.547.484 3.165.58 4.785.556h23.416c-3.6 3.649-7.297 7.201-10.875 10.875H92.278a24.2 24.2 0 0 1-12.18-3.625c-4.518-2.779-8.095-7.105-9.98-12.083-1.764-4.64-2.054-9.812-.846-14.62a24.411 24.411 0 0 1 8.362-13.026c3.407-2.755 7.564-4.568 11.914-5.147Zm27.815-.266h18.849v10.898c-2.658 0-5.316.025-7.974 0-1.209-1.063-2.272-2.295-3.432-3.431-2.489-2.465-4.954-4.978-7.443-7.467ZM88.146 97.232c.943-1.691 2.828-2.779 4.76-2.754h32.577c1.764 1.836 3.577 3.625 5.389 5.437l-5.486 5.486c-10.512-.025-21 0-31.512-.025-.604 0-1.184.049-1.789-.048a5.379 5.379 0 0 1-3.842-2.537c-1.04-1.643-1.063-3.867-.097-5.559Zm29 27.091c3.6-3.649 7.274-7.226 10.898-10.875h8.168v10.875h-19.066Z" fill="#36BBC8"/><defs><radialGradient id="a" cx="0" cy="0" r="1" gradientUnits="userSpaceOnUse" gradientTransform="translate(99.915 99.915) scale(75.7211)"><stop stop-color="#265A7A"/><stop offset="1" stop-color="#162B43"/></radialGradient></defs></svg>