<svg xmlns="http://www.w3.org/2000/svg" width="256" height="256"><defs><radialGradient id="a" cx="50%" cy="50%" r="50.538%" fx="50%" fy="50%"><stop offset="0%" stop-color="#265A7A"/><stop offset="100%" stop-color="#162B43"/></radialGradient></defs><g fill="none" fill-rule="evenodd"><circle cx="127.855" cy="127.855" r="127.855" fill="url(#a)"/><path fill="#36BBC8" fill-rule="nonzero" d="M113.337 53.947h76.466v18.56h-66.526c-2.557 0-5.114-.042-7.671.04-9.321.042-18.642 2.434-26.767 7.012-9.858 5.486-17.941 14.106-22.85 24.293-4.454 9.197-6.186 19.59-5.155 29.736a54.721 54.721 0 0 0 9.858 26.396c4.619 6.475 10.64 12.002 17.57 15.961 8.578 4.95 18.518 7.507 28.457 7.342h73.084v18.477h-79.229c-10.476-.784-20.828-3.753-30.067-8.785-12.496-6.846-22.972-17.405-29.736-29.943-5.362-9.857-8.29-20.91-8.785-32.046v-6.187c.495-11.383 3.547-22.642 9.074-32.623 6.887-12.538 17.528-23.055 30.231-29.737 9.857-5.238 20.91-8.084 32.046-8.496Zm-3.175 32.789c1.732-.248 3.464-.29 5.196-.454h24.045a105.49 105.49 0 0 1 4.785 4.825c4.619 4.537 9.156 9.157 13.692 13.776H122.7c-2.887 0-5.816-.083-8.703.124-5.444.453-10.682 2.887-14.476 6.805-4 4-6.434 9.568-6.64 15.26-.165 4.743 1.154 9.527 3.794 13.486 2.97 4.496 7.548 7.92 12.703 9.445 2.64.825 5.403.99 8.166.949h39.965c-6.145 6.228-12.455 12.29-18.56 18.56h-24.127a41.305 41.305 0 0 1-20.787-6.187c-7.712-4.743-13.816-12.126-17.033-20.622-3.011-7.919-3.506-16.745-1.444-24.952 2.186-8.703 7.26-16.621 14.27-22.23 5.816-4.702 12.91-7.796 20.334-8.785Zm47.47-.454h32.17v18.6c-4.536 0-9.073.042-13.61 0-2.062-1.814-3.876-3.917-5.856-5.856-4.248-4.207-8.455-8.496-12.703-12.744Zm-49.863 36.995c1.609-2.887 4.826-4.743 8.125-4.701h55.597c3.01 3.134 6.104 6.186 9.197 9.28l-9.362 9.362c-17.941-.042-35.84 0-53.782-.042-1.03 0-2.02.083-3.052-.082-2.68-.371-5.155-1.98-6.558-4.33-1.773-2.805-1.814-6.6-.165-9.487Zm49.493 46.234c6.145-6.227 12.414-12.331 18.6-18.56h13.94v18.56h-32.54Z"/></g></svg>