<svg xmlns="http://www.w3.org/2000/svg" width="256" height="256"><g fill="#10D078"><path d="M247.502 10.386c-.965 0-22.404.966-49.057 7.34-36.117 8.498-63.157 22.597-79.767 41.718-3.67 4.249-7.146 8.305-10.236 12.167-6.567 1.739-24.722 6.76-33.027 8.305-4.829.966-8.885 3.67-11.781 7.726-5.988 8.691-16.417 26.46-16.804 27.233l-11.974 20.472 21.825-9.464c9.463-4.249 22.79-7.145 26.653-4.828.193.193.386.193.579 1.352 0 6.18 1.545 12.168 4.442 18.155-5.987 4.636-9.27 11.975-8.884 19.507v26.654h26.653c7.533.386 14.678-3.09 19.507-8.885 5.988 2.897 11.975 4.25 18.155 4.442.966.193 1.16.387 1.16.58 2.317 3.863-.58 17.19-4.83 26.653l-9.463 21.632 20.472-11.975c.773-.386 18.542-10.816 27.233-16.803 4.056-2.704 6.76-6.953 7.726-11.782 1.738-8.305 6.567-26.46 8.305-33.027 3.863-3.09 7.919-6.566 12.168-10.236 44.808-39.594 48.864-125.347 49.057-129.017L256 10l-8.498.386ZM87.003 105.99c-5.021-1.545-10.815-1.352-16.417-.386 2.125-3.477 4.25-6.76 5.988-9.271.386-.773 1.159-1.159 2.124-1.352 3.863-.772 9.85-2.317 15.838-3.67-3.477 5.216-5.795 10.044-7.533 14.68Zm26.267 61.998c-1.545 2.124-4.249 3.283-6.76 3.09H104l16.03-25.108-25.108 16.224v-2.704c-.193-2.704.966-5.215 3.09-6.76l30.71-24.336c1.545-1.351 3.67-2.317 5.6-2.704l8.112-1.93-1.931 8.111c-.58 2.124-1.352 4.056-2.704 5.6l-24.529 30.517Zm57.556 19.507c-.193.772-.58 1.545-1.352 2.124-2.51 1.739-5.794 3.863-9.271 5.988.966-5.6 1.16-11.396-.386-16.417 4.635-1.738 9.464-4.056 14.679-7.34-1.353 5.795-2.898 11.589-3.67 15.645Zm25.494-51.762c-26.653 23.564-41.332 30.517-51.954 30.903h-.386c-3.284 0-5.988-.58-8.692-1.545l14.292-18.155a32.714 32.714 0 0 0 5.795-11.589L163.1 102.9l-32.447 7.726c-4.25.965-8.305 2.896-11.589 5.6L100.91 130.52c-.965-2.704-1.545-5.408-1.545-8.692v-.386c.193-10.43 7.34-25.3 30.903-51.954 28.391-32.254 87.105-40.946 109.123-43.07-2.125 22.21-10.815 80.925-43.07 109.316Z"/><path d="M76.29 224.882c-9.85 1.931-19.893 2.51-29.937 2.704-5.794 0-11.588-.193-17.575-.773 2.317-3.863 4.442-7.725 6.373-11.781 3.67-8.306 6.374-16.61 8.498-25.109 1.932-8.112 4.25-16.03 7.147-23.949a301.217 301.217 0 0 1 9.27-23.756c-3.09 3.09-5.794 6.374-8.305 9.85a212.413 212.413 0 0 0-7.339 10.816c-4.442 7.34-8.305 15.451-11.588 23.37-3.09 7.725-6.374 15.45-10.237 22.404a111.28 111.28 0 0 1-13.713 19.507L0 238.595l13.713 1.931c10.816 1.545 21.825 2.318 32.834 1.931 5.6-.193 11.008-.58 16.61-1.545 5.408-.773 11.008-2.124 16.223-3.67 10.623-3.09 20.86-8.111 29.937-14.485 4.442-3.283 8.691-6.953 12.167-11.202 3.477-4.25 6.76-8.691 8.885-13.713-7.34 7.726-16.224 13.327-25.301 17.769-9.27 4.442-18.928 7.339-28.778 9.27zm114.43-122.559c6.953 0 13.906-2.703 19.314-7.918 10.623-10.623 10.623-27.812 0-38.435-5.215-5.215-11.975-7.919-19.314-7.919-7.34 0-14.099 2.897-19.314 7.919-10.622 10.623-10.622 27.812 0 38.435 5.215 5.215 12.168 7.918 19.314 7.918zm-8.498-35.537c2.317-2.318 5.215-3.477 8.305-3.477s6.18 1.16 8.305 3.477c4.635 4.635 4.635 11.974 0 16.61-4.636 4.635-11.975 4.635-16.61 0-4.442-4.443-4.442-11.975 0-16.61z"/></g></svg>