<svg xmlns="http://www.w3.org/2000/svg" viewBox="0 0 200 200"><path fill="#10D078" d="M170.021 31.085c-.566 0-13.128.567-28.745 4.301-21.162 4.98-37.006 13.24-46.738 24.444-2.15 2.49-4.187 4.867-5.998 7.13-3.848 1.019-14.485 3.96-19.352 4.866-2.829.566-5.206 2.15-6.902 4.527-3.509 5.092-9.62 15.504-9.846 15.957l-7.017 11.995 12.788-5.545c5.545-2.49 13.354-4.187 15.618-2.83.113.114.226.114.339.793 0 3.621.905 7.13 2.602 10.638-3.507 2.716-5.431 7.016-5.205 11.429v15.618h15.617c4.414.226 8.6-1.811 11.43-5.206 3.509 1.697 7.017 2.49 10.638 2.603.566.113.679.226.679.34 1.358 2.263-.34 10.072-2.83 15.617l-5.544 12.675 11.995-7.017c.453-.226 10.864-6.338 15.957-9.846 2.376-1.584 3.961-4.074 4.527-6.903 1.018-4.866 3.847-15.504 4.866-19.352 2.263-1.81 4.64-3.847 7.13-5.998 26.254-23.2 28.631-73.445 28.744-75.595l.226-4.867zm-94.043 56.02c-2.942-.906-6.337-.793-9.619-.227a119 119 0 0 1 3.509-5.432c.226-.453.679-.679 1.244-.792 2.264-.452 5.772-1.358 9.28-2.15a41.5 41.5 0 0 0-4.414 8.601M91.37 123.43c-.905 1.245-2.49 1.924-3.96 1.811h-1.472l9.393-14.712-14.712 9.507v-1.585c-.113-1.584.566-3.055 1.81-3.961l17.995-14.259c.905-.792 2.15-1.358 3.281-1.584l4.753-1.131-1.131 4.752c-.34 1.245-.792 2.377-1.584 3.281L91.369 123.43Zm33.724 11.43c-.113.453-.339.906-.792 1.245a118 118 0 0 1-5.432 3.508c.566-3.281.68-6.677-.226-9.619 2.716-1.018 5.545-2.376 8.601-4.301-.793 3.396-1.698 6.791-2.151 9.167m14.938-30.329c-15.617 13.807-24.218 17.881-30.442 18.107h-.226c-1.924 0-3.508-.34-5.093-.905l8.375-10.638a19.2 19.2 0 0 0 3.395-6.79l4.526-19.012-19.011 4.527c-2.49.565-4.867 1.697-6.79 3.281l-10.638 8.376c-.566-1.585-.905-3.17-.905-5.093v-.227c.113-6.11 4.3-14.824 18.107-30.441 16.635-18.9 51.038-23.992 63.939-25.237-1.245 13.014-6.337 47.417-25.236 64.053zm-70.331 52.236c-5.771 1.131-11.656 1.47-17.541 1.584-3.395 0-6.79-.113-10.298-.453 1.358-2.263 2.603-4.526 3.734-6.903 2.15-4.867 3.735-9.732 4.98-14.712 1.132-4.753 2.49-9.393 4.187-14.033a177 177 0 0 1 5.432-13.919c-1.81 1.81-3.395 3.735-4.866 5.771a125 125 0 0 0-4.3 6.338c-2.603 4.301-4.867 9.053-6.79 13.693-1.81 4.526-3.735 9.053-5.999 13.127a65.2 65.2 0 0 1-8.035 11.43L25 164.802l8.035 1.131c6.338.905 12.788 1.358 19.239 1.132 3.28-.114 6.45-.34 9.732-.906 3.169-.453 6.45-1.244 9.506-2.15 6.224-1.811 12.222-4.753 17.54-8.487 2.604-1.924 5.093-4.074 7.13-6.564s3.961-5.092 5.206-8.035c-4.3 4.527-9.506 7.809-14.825 10.411-5.431 2.603-11.09 4.301-16.862 5.432zm67.049-71.812c4.074 0 8.148-1.584 11.317-4.64 6.224-6.224 6.224-16.296 0-22.52-3.056-3.056-7.017-4.64-11.317-4.64-4.301 0-8.261 1.697-11.317 4.64-6.224 6.224-6.224 16.296 0 22.52 3.056 3.056 7.13 4.64 11.317 4.64m-4.979-20.823c1.357-1.358 3.055-2.037 4.866-2.037s3.621.68 4.866 2.037a6.83 6.83 0 0 1 0 9.733 6.83 6.83 0 0 1-9.732 0c-2.603-2.604-2.603-7.017 0-9.733"/></svg>