<svg xmlns="http://www.w3.org/2000/svg" viewBox="0 0 200 200"><path fill="#033D5C" d="M100 175c41.421 0 75-33.579 75-75s-33.579-75-75-75-75 33.579-75 75 33.579 75 75 75"/><path fill="#FFCD00" d="M98.809 62.484c1.11-.17 2.315-.073 3.304.458.483.265.941.795.724 1.35-.241.604-.868.893-1.447 1.086a5.9 5.9 0 0 1-3.425-.049c-.434-.168-.893-.41-1.158-.82a.905.905 0 0 1 .072-1.109c.483-.579 1.23-.796 1.93-.916m-7.357 3.618c1.206-.217 2.533-.17 3.594.482.483.265.869.868.627 1.423-.313.724-1.157 1.037-1.881 1.23-1.254.266-2.678.24-3.811-.434-.483-.29-.892-.916-.579-1.471.386-.748 1.254-1.061 2.05-1.23m14.521-.049c1.206-.169 2.508-.048 3.57.604.482.313.917.94.603 1.519-.362.675-1.158.94-1.882 1.11-1.254.216-2.653.12-3.762-.555-.483-.314-.917-.917-.627-1.496.41-.772 1.326-1.037 2.097-1.182zM84.095 69.89c1.086-.17 2.268-.097 3.257.458.482.29.916.868.724 1.447-.194.651-.82 1.013-1.4 1.254-1.157.458-2.46.507-3.642.193-.53-.169-1.11-.434-1.423-.917-.29-.458-.169-1.085.217-1.447.603-.603 1.447-.868 2.267-.988m14.714 0c1.254-.17 2.629-.073 3.691.675.482.338.771 1.013.482 1.568-.386.651-1.158.989-1.881 1.157-1.303.29-2.775.194-3.932-.53-.53-.314-.94-.965-.651-1.568.458-.844 1.422-1.158 2.29-1.302Zm14.738 0c1.254-.194 2.605-.049 3.715.627.457.265.867.747.819 1.302-.048.627-.603 1.037-1.133 1.254-1.182.483-2.557.483-3.763.097-.579-.169-1.158-.483-1.52-.965-.313-.386-.337-1.013 0-1.399.483-.555 1.182-.796 1.881-.916zm-37.605 4.076c.99-.145 2.027-.097 2.943.313.53.241 1.037.675 1.086 1.279.048.627-.434 1.158-.941 1.47-1.11.676-2.46.845-3.763.676-.723-.12-1.52-.361-1.978-.964-.361-.434-.313-1.086.048-1.496.627-.796 1.641-1.133 2.605-1.278m15.197 0c1.133-.17 2.364-.073 3.4.482.459.266.917.7.917 1.279.049.579-.41 1.06-.868 1.35-1.11.7-2.508.82-3.787.604-.772-.17-1.64-.459-2.075-1.183-.289-.458-.168-1.085.217-1.495.555-.603 1.4-.892 2.196-1.037m15.364 0c1.255-.193 2.605-.025 3.667.675.579.338 1.013 1.11.699 1.76-.458.821-1.399 1.159-2.243 1.303-1.326.169-2.774.049-3.883-.747-.531-.362-.893-1.11-.555-1.713.482-.82 1.447-1.158 2.315-1.278m15.197 0c1.23-.193 2.532-.025 3.642.554.555.314 1.134.82 1.158 1.52 0 .58-.459 1.013-.966 1.279-.989.506-2.17.53-3.28.361-.868-.169-1.76-.506-2.364-1.182-.385-.433-.458-1.157-.072-1.616.458-.53 1.182-.796 1.881-.916zm-54.683 4.39c1.086-.145 2.22-.145 3.209.337.554.266 1.06.772 1.013 1.424-.048.675-.555 1.181-1.086 1.519-1.182.724-2.653.94-4.028.724-.748-.145-1.592-.459-1.978-1.182-.29-.58-.024-1.279.434-1.688.676-.627 1.544-.965 2.436-1.134m15.824 0c1.326-.194 2.822-.12 3.907.748.507.41.7 1.181.362 1.76-.41.7-1.206 1.086-1.978 1.327-1.133.313-2.364.338-3.473-.048-.579-.217-1.183-.555-1.447-1.158-.194-.482-.073-1.037.264-1.423.604-.7 1.496-1.037 2.365-1.206m15.822 0c1.279-.194 2.654-.097 3.763.603.507.313.965.844.893 1.471 0 .676-.555 1.134-1.109 1.447-1.231.627-2.702.7-4.029.338-.7-.193-1.398-.555-1.785-1.182a1.31 1.31 0 0 1 .049-1.47c.53-.7 1.375-1.038 2.218-1.208Zm15.824 0c1.399-.217 2.894-.049 4.076.748.483.337.892.868.844 1.495-.072.724-.699 1.206-1.326 1.471-1.279.507-2.75.459-4.053 0-.651-.265-1.35-.65-1.664-1.326-.241-.483-.096-1.086.265-1.471.483-.532 1.183-.772 1.858-.917m15.823 0c1.399-.217 2.894-.049 4.1.7.604.385 1.231 1.037 1.086 1.832-.217.82-1.086 1.23-1.833 1.424-1.448.289-3.04.072-4.294-.7-.651-.41-1.278-1.134-1.013-1.954.29-.796 1.182-1.133 1.954-1.302m-72.7 4.703c1.087-.169 2.244-.169 3.233.314.53.29 1.062.796 1.014 1.424 0 .722-.555 1.301-1.11 1.687-1.23.82-2.774 1.11-4.245.893-.724-.12-1.472-.386-1.93-.99-.386-.53-.29-1.278.096-1.76.724-.892 1.858-1.35 2.943-1.568Zm16.451 0c1.23-.193 2.581-.145 3.642.555.531.362.917 1.013.748 1.664-.217.868-1.037 1.4-1.809 1.737-1.278.507-2.75.603-4.076.145-.627-.241-1.279-.651-1.472-1.303s.145-1.326.603-1.737c.652-.579 1.52-.916 2.364-1.06Zm16.45-.024c1.23-.193 2.557-.073 3.642.555.627.386 1.134 1.085.965 1.858-.216.795-.965 1.277-1.664 1.591a5.96 5.96 0 0 1-3.666.217c-.724-.193-1.423-.579-1.858-1.206-.337-.53-.24-1.254.145-1.736.58-.724 1.52-1.11 2.436-1.279m16.45 0c1.255-.193 2.63-.048 3.739.627.579.338 1.11.917 1.134 1.616-.024.627-.458 1.158-.965 1.496-1.085.651-2.412.772-3.642.579-.892-.145-1.833-.507-2.46-1.23-.459-.507-.507-1.375-.049-1.906.531-.7 1.4-1.037 2.243-1.182m16.307.024c1.35-.241 2.797-.048 4.003.652.579.337 1.134.868 1.231 1.567.072.676-.387 1.279-.941 1.592-1.158.676-2.605.7-3.884.386-.892-.217-1.785-.65-2.34-1.399-.361-.506-.41-1.278 0-1.785.459-.579 1.207-.868 1.931-1.013m16.45-.024c1.447-.217 2.966.024 4.221.772.603.386 1.182.917 1.278 1.64.072.651-.386 1.23-.941 1.52-.989.53-2.171.555-3.28.386-.989-.193-2.002-.579-2.75-1.327-.458-.458-.772-1.157-.458-1.785.362-.724 1.182-1.061 1.93-1.206m-92.623 5.162c1.11-.241 2.29-.29 3.352.096.651.242 1.303.797 1.303 1.52.048.796-.531 1.423-1.11 1.881-1.158.844-2.63 1.207-4.076 1.158-.844-.072-1.785-.29-2.364-.965-.482-.53-.41-1.375 0-1.929.65-.965 1.809-1.472 2.894-1.761Zm17.077 0c1.23-.265 2.557-.29 3.69.265.58.29 1.134.82 1.158 1.52.048.748-.483 1.399-1.061 1.809-1.254.916-2.918 1.23-4.438.965-.82-.145-1.737-.507-2.147-1.279-.314-.627-.097-1.374.313-1.857.627-.772 1.568-1.206 2.485-1.423m17.077 0c1.279-.29 2.702-.265 3.883.362.627.337 1.183.965 1.183 1.688-.025.82-.627 1.448-1.279 1.858-1.158.675-2.533.868-3.835.675-.869-.145-1.712-.482-2.268-1.182-.458-.555-.434-1.423 0-2.002.531-.748 1.424-1.182 2.316-1.4zm17.078-.024c1.278-.29 2.701-.217 3.883.386.603.29 1.158.771 1.351 1.447.168.579-.048 1.23-.483 1.664-.747.772-1.881 1.11-2.942 1.158-1.207.073-2.484-.169-3.45-.94-.578-.459-.965-1.254-.675-1.979.362-.964 1.375-1.495 2.316-1.736m17.197-.024c1.472-.29 3.112-.121 4.366.747.555.386 1.062.99 1.062 1.713.023.651-.41 1.206-.941 1.544-1.085.699-2.436.82-3.69.603-.941-.169-1.858-.531-2.533-1.23-.483-.483-.748-1.303-.411-1.954.411-.82 1.304-1.23 2.147-1.423m16.813.048c1.374-.338 2.87-.217 4.148.386.627.313 1.255.748 1.592 1.375.29.53.314 1.206-.048 1.712-.482.652-1.303.965-2.074 1.11-1.52.217-3.16-.097-4.415-.99-.627-.457-1.181-1.253-.988-2.097.217-.797 1.013-1.279 1.785-1.496m17.053 0c1.447-.362 3.015-.17 4.366.483.772.385 1.544.94 1.857 1.808a1.475 1.475 0 0 1-.434 1.592c-.604.531-1.447.724-2.243.772-1.472.049-2.967-.362-4.149-1.254-.579-.458-1.11-1.158-.989-1.954.12-.772.892-1.254 1.592-1.447m-94.77 5.33c1.037-.12 2.123-.072 3.064.41.627.314 1.157.966 1.109 1.69-.048.82-.603 1.47-1.206 1.929-1.134.82-2.581 1.182-3.98 1.134-.989-.049-2.074-.314-2.701-1.158-.483-.652-.314-1.616.192-2.22.845-1.06 2.22-1.592 3.522-1.785m17.56.025c1.181-.17 2.46-.097 3.521.53.58.362 1.086.99 1.062 1.713 0 .868-.652 1.592-1.35 2.026-1.376.869-3.089 1.085-4.656.7-.796-.242-1.617-.676-1.93-1.496-.314-.724 0-1.568.507-2.098.771-.773 1.808-1.207 2.846-1.375m17.704 0c1.23-.193 2.533-.073 3.618.554.676.387 1.254 1.037 1.254 1.834.049.796-.506 1.495-1.157 1.93-1.086.723-2.484.94-3.763.795-1.013-.145-2.05-.506-2.677-1.326-.483-.603-.555-1.496-.12-2.147.602-.965 1.76-1.447 2.845-1.64m17.705 0c1.327-.217 2.798-.049 3.956.7.675.433 1.278 1.157 1.254 2.001-.048.917-.796 1.616-1.568 1.978-1.761.772-3.931.627-5.499-.506-.7-.531-1.206-1.496-.844-2.364.433-1.086 1.615-1.616 2.701-1.81Zm17.729 0c1.495-.241 3.087.024 4.342.916.602.41 1.109 1.038 1.181 1.761.072.627-.265 1.23-.747 1.616-.797.651-1.834.844-2.847.869-1.35-.024-2.75-.434-3.738-1.375-.604-.58-.965-1.496-.58-2.291.435-.894 1.448-1.328 2.389-1.496m17.68 0a6.4 6.4 0 0 1 4.535.94c.65.434 1.254 1.086 1.375 1.906.096.627-.266 1.254-.772 1.616-.7.506-1.568.676-2.412.7-1.448 0-2.943-.434-4.053-1.375-.627-.555-1.11-1.423-.844-2.268.313-.916 1.302-1.35 2.171-1.52Zm-81.31 5.933c1.157-.193 2.436-.168 3.497.41.579.314 1.085.844 1.206 1.52.169.772-.241 1.568-.796 2.099-1.134 1.109-2.75 1.592-4.293 1.543-1.11-.048-2.316-.362-2.992-1.278-.506-.675-.434-1.664.048-2.34.748-1.085 2.051-1.712 3.33-1.954m18.476 0c1.254-.216 2.605-.12 3.714.507.675.41 1.279 1.085 1.279 1.906.048.916-.555 1.736-1.279 2.219-1.399.94-3.232 1.181-4.848.723-.796-.241-1.592-.699-2.002-1.447-.41-.724-.265-1.641.241-2.291.676-.917 1.785-1.4 2.895-1.617m18.476 0c1.471-.265 3.088-.048 4.294.869.675.507 1.134 1.326.989 2.171-.121.771-.7 1.399-1.351 1.808-1.231.749-2.774.893-4.173.579-.989-.241-1.954-.723-2.484-1.616-.459-.675-.41-1.616.072-2.291.603-.868 1.64-1.327 2.653-1.52m18.332.024c1.423-.29 2.943-.096 4.197.627.723.435 1.35 1.086 1.544 1.906.168.724-.145 1.496-.7 1.978-.868.796-2.074 1.062-3.232 1.037-1.375-.023-2.846-.482-3.787-1.543-.555-.604-.82-1.52-.483-2.292.434-.989 1.472-1.52 2.461-1.713m18.5-.023c1.664-.314 3.498.047 4.873 1.085.579.434 1.085 1.061 1.206 1.785.144.699-.193 1.423-.724 1.857-.772.627-1.785.844-2.75.869-1.471-.025-2.967-.483-4.052-1.496-.675-.603-1.133-1.544-.82-2.436.362-.941 1.327-1.472 2.268-1.664zm-65.8 6.439c1.23-.216 2.58-.168 3.714.459.675.386 1.278 1.085 1.35 1.906.073.988-.53 1.905-1.278 2.484-1.447 1.109-3.4 1.495-5.162 1.037-.82-.217-1.591-.675-2.05-1.399-.482-.748-.362-1.785.145-2.508.724-1.086 2.002-1.737 3.28-1.979Zm19.417-.048c1.35-.193 2.822-.048 3.98.748.675.458 1.205 1.158 1.253 2.002.049.844-.41 1.664-1.06 2.195-1.279 1.061-3.064 1.375-4.68 1.061-1.013-.217-2.026-.699-2.605-1.592-.555-.82-.483-1.953.12-2.725.7-.941 1.858-1.471 2.992-1.689m19.103.024c1.447-.265 3.039-.048 4.269.748.724.507 1.375 1.23 1.471 2.147.097.844-.361 1.713-1.037 2.219-.989.772-2.267 1.037-3.497.965-1.375-.073-2.798-.604-3.666-1.737-.604-.772-.7-1.929-.145-2.75.579-.892 1.616-1.374 2.605-1.592m19.561-.048c1.592-.193 3.281.169 4.559 1.158.652.506 1.207 1.254 1.279 2.098.072.797-.362 1.592-.989 2.051-1.037.772-2.388.941-3.618.796-1.423-.194-2.823-.82-3.69-1.978-.579-.796-.676-1.954-.073-2.75.579-.82 1.568-1.231 2.532-1.375m-49.47 7.092c1.374-.266 2.918-.169 4.124.579.796.482 1.399 1.35 1.399 2.315.024 1.158-.748 2.195-1.688 2.798-1.761 1.134-4.173 1.327-6.006.241-1.014-.603-1.713-1.833-1.375-3.039.458-1.568 2.026-2.557 3.545-2.894Zm20.333-.049c1.375-.217 2.894-.072 4.1.7.893.531 1.592 1.495 1.616 2.557 0 1.182-.795 2.195-1.76 2.725-1.881 1.037-4.366.965-6.078-.337-.965-.676-1.568-1.979-1.158-3.136.458-1.399 1.905-2.243 3.28-2.509m19.924.049c1.399-.29 2.918-.145 4.173.554.868.434 1.64 1.134 2.002 2.074.313.821.169 1.81-.387 2.509-.796 1.013-2.098 1.448-3.352 1.496-1.713.072-3.522-.555-4.631-1.93-.627-.796-.821-1.953-.362-2.894.482-.989 1.519-1.568 2.557-1.809m-30.706 7.694c1.423-.338 2.991-.169 4.245.579.869.531 1.592 1.424 1.689 2.461.145 1.206-.507 2.387-1.471 3.087-1.906 1.471-4.849 1.592-6.778.096-1.038-.748-1.569-2.122-1.182-3.353.482-1.543 1.978-2.532 3.497-2.87m21.274-.048c1.689-.338 3.546.024 4.873 1.158.748.627 1.327 1.544 1.327 2.533.048 1.181-.676 2.267-1.665 2.87-2.074 1.253-4.968.965-6.754-.675-.94-.845-1.423-2.244-.965-3.474.483-1.326 1.834-2.147 3.184-2.412m-10.637 8.442c2.244-.482 4.969.362 6.006 2.533.579 1.254.314 2.798-.603 3.811-1.713 1.953-4.824 2.268-7.019.989-.989-.555-1.809-1.52-2.026-2.654a3.44 3.44 0 0 1 .772-2.99c.723-.869 1.76-1.448 2.87-1.689"/></svg>