<svg xmlns="http://www.w3.org/2000/svg" viewBox="0 0 200 200"><g clip-path="url(#a)"><path fill="#D8D8D8" d="M100 25a75 75 0 1 0 0 150 75 75 0 0 0 0-150m0 142.814A67.943 67.943 0 0 1 51.956 51.826a67.945 67.945 0 0 1 115.988 48.043A67.974 67.974 0 0 1 100 167.814"/><path fill="#AAA" d="M100 30.75a69.37 69.37 0 1 1-48.998 20.382A68.83 68.83 0 0 1 100 30.75"/><path fill="#fff" d="M147.038 52.831A65.82 65.82 0 0 0 100 33.231 66.69 66.69 0 0 0 33.232 100a65.82 65.82 0 0 0 19.599 47.038 66.63 66.63 0 0 0 34.142 18.281 66.634 66.634 0 0 0 79.665-65.45 65.82 65.82 0 0 0-19.6-47.038"/><path fill="url(#b)" d="m67.335 115.418 2.22-1.307 14.243 24.695-2.221 1.307z"/><path fill="url(#c)" d="M61.716 68.772H64.2v25.61h-2.483v-25.61Z"/><path fill="url(#d)" d="m71.646 98.432-1.829-1.83 17.248-17.116 1.698 1.698z"/><path fill="url(#e)" d="M73.998 104.05h32.666v2.483H73.998z"/><path fill="url(#f)" d="m71.908 111.89 1.176-2.221 37.892 21.82-1.307 2.222z"/><path fill="url(#g)" d="m92.29 143.902-.914-2.352 18.293-6.663.784 2.352-18.162 6.663Z"/><path fill="url(#h)" d="m137.239 128.876.392 2.483-19.73 3.789-.392-2.482z"/><path fill="url(#i)" d="m90.2 52.831.915 2.352-23.911 9.277-.915-2.352z"/><path fill="url(#j)" d="m94.25 69.556-2.482-.261 1.046-12.805 2.482.261-1.045 12.805Z"/><path fill="url(#k)" d="m136.193 69.817-.914 2.221-37.63-16.594.914-2.352z"/><path fill="url(#l)" d="m135.148 72.561.131 2.613-36.455 1.699-.13-2.613z"/><path fill="url(#m)" d="m109.8 109.408 2.613-.262 2.221 21.56-2.483.261z"/><path fill="url(#n)" d="m94.643 81.969 2.221-1.438 12.805 20.645-2.221 1.437z"/><path fill="url(#o)" d="m139.329 79.617 2.483.392-2.613 17.378-2.483-.392z"/><path fill="url(#p)" d="m130.444 102.613.261 2.614-15.81 1.045-.261-2.483z"/><path fill="url(#q)" d="m136.716 109.93 2.483-.392 2.744 15.68-2.483.392z"/><path fill="#F89200" d="M64.068 93.859a11.486 11.486 0 1 1-12.543 10.322 11.46 11.46 0 0 1 8.08-9.884 11.5 11.5 0 0 1 4.463-.438"/><path fill="#00BC9B" d="M137.631 96.603a6.883 6.883 0 0 1 3.846 12.125 6.9 6.9 0 0 1-3.673 1.577 6.886 6.886 0 0 1-7.621-7.43 6.89 6.89 0 0 1 7.448-6.272"/><path fill="#F8BF00" d="M142.204 66.681a6.883 6.883 0 0 1 3.846 12.126 6.884 6.884 0 0 1-11.294-5.854 6.805 6.805 0 0 1 7.448-6.272"/><path fill="#5CD551" d="M94.773 47.996a4.59 4.59 0 1 1-4.965 4.181 4.74 4.74 0 0 1 4.965-4.18Z"/><path fill="#FF4C9F" d="M141.681 124.826a4.585 4.585 0 0 1 3.984 3.185 4.591 4.591 0 0 1-8.396 3.603 4.6 4.6 0 0 1-.553-2.607 4.54 4.54 0 0 1 3.18-3.994 4.5 4.5 0 0 1 1.785-.187"/><path fill="#00BEF2" d="M79.094 146.124a6.897 6.897 0 0 1 6.967-8.069 6.89 6.89 0 0 1 6.261 4.414 6.897 6.897 0 0 1-5.258 9.273 6.85 6.85 0 0 1-7.97-5.618"/><path fill="#CE0003" d="M67.335 66.29a4.716 4.716 0 0 1-5.88 2.743 4.497 4.497 0 0 1-2.744-5.88 4.589 4.589 0 0 1 8.624 3.136Z"/><path fill="#AAA" d="M95.296 82.1a6.9 6.9 0 1 1 3.397-9.147 6.99 6.99 0 0 1-3.397 9.146Z"/><path fill="#3273E2" d="M109.146 109.538a4.6 4.6 0 0 1-2.131-1.597 4.59 4.59 0 0 1 1.759-6.871 4.585 4.585 0 0 1 5.039.774 4.59 4.59 0 0 1 1.213 4.95 4.49 4.49 0 0 1-4.105 3.045 4.5 4.5 0 0 1-1.775-.301"/><path fill="#A680D0" d="M110.322 137.5a4.553 4.553 0 0 1 1.397-6.896 4.55 4.55 0 0 1 6.491 2.716 4.552 4.552 0 0 1-7.888 4.18"/></g><defs><linearGradient id="b" x1="69.03" x2="88.695" y1="742.911" y2="756.554" gradientUnits="userSpaceOnUse"><stop stop-color="#F89200"/><stop offset="1" stop-color="#00BEF2"/></linearGradient><linearGradient id="c" x1="63.014" x2="63.014" y1="721.488" y2="695.955" gradientUnits="userSpaceOnUse"><stop stop-color="#F89200"/><stop offset="1" stop-color="#CC1F25"/></linearGradient><linearGradient id="d" x1="71.617" x2="87.172" y1="723.896" y2="708.341" gradientUnits="userSpaceOnUse"><stop stop-color="#F89200"/><stop offset="1" stop-color="#AAA"/></linearGradient><linearGradient id="e" x1="74.064" x2="106.794" y1="732.503" y2="732.503" gradientUnits="userSpaceOnUse"><stop stop-color="#F89200"/><stop offset="1" stop-color="#3273E2"/></linearGradient><linearGradient id="f" x1="73.47" x2="93.844" y1="738.507" y2="769.566" gradientUnits="userSpaceOnUse"><stop stop-color="#F89200"/><stop offset="1" stop-color="#A680D0"/></linearGradient><linearGradient id="g" x1="92.635" x2="99.824" y1="769.708" y2="757.737" gradientUnits="userSpaceOnUse"><stop stop-color="#00BEF2"/><stop offset="1" stop-color="#A680D0"/></linearGradient><linearGradient id="h" x1="137.047" x2="131.738" y1="757.422" y2="767.879" gradientUnits="userSpaceOnUse"><stop stop-color="#FF4C9F"/><stop offset="1" stop-color="#A680D0"/></linearGradient><linearGradient id="i" x1="89.948" x2="80.772" y1="681.549" y2="697.655" gradientUnits="userSpaceOnUse"><stop stop-color="#5CD551"/><stop offset="1" stop-color="#CE0003"/></linearGradient><linearGradient id="j" x1="93.074" x2="99.831" y1="696.459" y2="690.525" gradientUnits="userSpaceOnUse"><stop stop-color="#AAA"/><stop offset=".184" stop-color="#A2AEA1"/><stop offset=".484" stop-color="#8DBA89"/><stop offset=".861" stop-color="#6ACD61"/><stop offset="1" stop-color="#5CD551"/></linearGradient><linearGradient id="k" x1="134.96" x2="120.017" y1="697.805" y2="670.366" gradientUnits="userSpaceOnUse"><stop stop-color="#F8BF00"/><stop offset="1" stop-color="#5CD551"/></linearGradient><linearGradient id="l" x1="135.169" x2="131.773" y1="701.082" y2="712.521" gradientUnits="userSpaceOnUse"><stop stop-color="#F8BF00"/><stop offset=".6" stop-color="#B6AD91"/><stop offset="1" stop-color="#AAA"/></linearGradient><linearGradient id="m" x1="111.187" x2="121.068" y1="736.727" y2="741.275" gradientUnits="userSpaceOnUse"><stop stop-color="#3273E2"/><stop offset=".99" stop-color="#A680D0"/></linearGradient><linearGradient id="n" x1="96.356" x2="112.927" y1="709.357" y2="721.703" gradientUnits="userSpaceOnUse"><stop stop-color="#AAA"/><stop offset="1" stop-color="#3273E2"/></linearGradient><linearGradient id="o" x1="140.579" x2="131.656" y1="707.396" y2="712.254" gradientUnits="userSpaceOnUse"><stop stop-color="#F8BF00"/><stop offset="1" stop-color="#00BC9B"/></linearGradient><linearGradient id="p" x1="130.48" x2="124.494" y1="731.143" y2="739.235" gradientUnits="userSpaceOnUse"><stop stop-color="#00BC9B"/><stop offset=".99" stop-color="#3273E2"/></linearGradient><linearGradient id="q" x1="138.127" x2="146.608" y1="737.368" y2="742.655" gradientUnits="userSpaceOnUse"><stop stop-color="#00BC9B"/><stop offset="1" stop-color="#FF4C9F"/></linearGradient><clipPath id="a"><path fill="#fff" d="M25 25h150v150H25z"/></clipPath></defs></svg>