<svg xmlns="http://www.w3.org/2000/svg" width="256" height="256"><g fill="none"><path fill="#13181E" d="M128 256C57.387 256 0 198.613 0 128S57.387 0 128 0s128 57.387 128 128-57.387 128-128 128Z"/><path fill="#FFF" d="M157.227 153.387c-6.614 6.613-15.574 10.453-25.387 10.453-19.84 0-36.053-16.213-36.053-36.053 0-19.84 16.213-36.054 36.053-36.054 10.027 0 18.987 4.054 25.387 10.454l19.84-19.84C165.547 71.04 149.547 64 131.84 64c-35.413 0-64 28.587-64 64s28.587 64 64 64c17.707 0 33.707-7.253 45.227-18.773l-19.84-19.84Z"/></g></svg>