<svg xmlns="http://www.w3.org/2000/svg" width="25" height="25"><defs><linearGradient id="a" x1="50%" x2="50%" y1="0%" y2="100%"><stop offset="0%" stop-color="#2E66F8"/><stop offset="100%" stop-color="#124ADB"/></linearGradient></defs><g fill="none" fill-rule="evenodd"><path fill="#FFF" d="M3.125 12.5a9.375 9.375 0 1 0 18.75 0 9.375 9.375 0 0 0-18.75 0Zm6.98-3.02a.625.625 0 0 0-.626.624v4.792c0 .345.28.625.625.625h4.792c.345 0 .625-.28.625-.625v-4.792a.625.625 0 0 0-.625-.625h-4.792Z"/><path d="M0 0h24.97v24.97H0z"/><rect width="24.97" height="24.97" fill="url(#a)" fill-rule="nonzero" rx="12.485"/><path fill="#FFF" d="M5.202 12.485a7.283 7.283 0 1 0 14.566 0 7.283 7.283 0 0 0-14.566 0Zm5.422-2.347a.485.485 0 0 0-.486.486v3.722c0 .268.218.486.486.486h3.722a.485.485 0 0 0 .486-.486v-3.722a.485.485 0 0 0-.486-.486h-3.722Z"/></g></svg>