<svg width="200" height="200" fill="none" xmlns="http://www.w3.org/2000/svg"><g fill="#4CC845"><path d="M91.814 82.641v20.754c6.412 0 26.463 1.314 26.463-10.377.09-12.212-20.051-10.377-26.463-10.377Zm22.022-18.897c0-11.102-16.743-9.425-22.067-9.425v18.828c5.392 0 22.067 1.246 22.067-9.403Z"/><path d="M180.923 5.019H19.267A19.077 19.077 0 0 0 .19 24.073v110.134a19.078 19.078 0 0 0 19.077 19.077h34.37v41.417l41.394-41.417h85.892A19.074 19.074 0 0 0 200 134.207V24.073a19.077 19.077 0 0 0-19.077-19.054Zm-44.022 89.856c-1.382 14.863-12.484 18.851-28.321 19.78v15.633h-9.425v-15.429H91.61v15.497h-9.493V114.7H63.04l1.858-11.328s7 .113 6.797 0a3.357 3.357 0 0 0 3.557-3.127V57.786a4.871 4.871 0 0 0-5.438-4.146c.113-.113-6.797 0-6.797 0V43.58h19.009V28.106h9.425v15.248h7.545V28.287h9.425v15.475c12.167 1.065 21.819 4.803 22.884 15.973.793 8.156-2.629 13.073-8.089 15.86 9.153 1.948 14.795 7.295 13.685 19.28Z"/></g></svg>