<svg width="200" height="200" fill="none" xmlns="http://www.w3.org/2000/svg"><path d="M168.746 132.742a3.179 3.179 0 1 0 0-6.358 3.18 3.18 0 1 0 0 6.358Z" fill="url(#a)"/><path d="M160.905 146.054a3.18 3.18 0 1 0 0-6.359 3.18 3.18 0 0 0 0 6.359Z" fill="url(#b)"/><path d="M150.479 157.328a3.179 3.179 0 1 0 0-6.357 3.179 3.179 0 0 0 0 6.357Z" fill="url(#c)"/><path d="M137.871 166.166a3.18 3.18 0 1 0 .001-6.359 3.18 3.18 0 0 0-.001 6.359Z" fill="url(#d)"/><path d="M123.475 172.171a3.18 3.18 0 1 0-.001-6.359 3.18 3.18 0 0 0 .001 6.359Z" fill="url(#e)"/><path d="M107.696 174.939a3.18 3.18 0 1 0 .001-6.359 3.18 3.18 0 0 0-.001 6.359Z" fill="url(#f)"/><path d="M91.463 174.13a3.179 3.179 0 1 0 0-6.358 3.179 3.179 0 0 0 0 6.358Z" fill="url(#g)"/><path d="M76.336 169.905a3.179 3.179 0 1 0 .001-6.358 3.179 3.179 0 0 0 0 6.358Z" fill="url(#h)"/><path d="M62.753 162.659a3.18 3.18 0 1 0 0-6.36 3.18 3.18 0 0 0 0 6.36Z" fill="url(#i)"/><path d="M51.108 152.78a3.179 3.179 0 1 0 0-6.358 3.179 3.179 0 0 0 0 6.358Z" fill="url(#j)"/><path d="M41.783 140.662a3.18 3.18 0 1 0 0-6.36 3.18 3.18 0 0 0 0 6.36Z" fill="url(#k)"/><path d="M35.18 126.698a3.179 3.179 0 1 0 0-6.358 3.179 3.179 0 0 0 0 6.358Z" fill="url(#l)"/><path d="M31.695 111.279a3.18 3.18 0 1 0-.001-6.36 3.18 3.18 0 0 0 0 6.36Z" fill="url(#m)"/><path d="M31.695 95.015a3.18 3.18 0 1 0 0-6.359 3.18 3.18 0 0 0 0 6.359Z" fill="url(#n)"/><path d="M35.18 79.6a3.18 3.18 0 1 0 0-6.36 3.18 3.18 0 0 0 0 6.36Z" fill="url(#o)"/><path d="M41.783 65.631a3.18 3.18 0 1 0 0-6.359 3.18 3.18 0 0 0 0 6.36Z" fill="url(#p)"/><path d="M51.108 53.513a3.18 3.18 0 1 0 0-6.359 3.18 3.18 0 0 0 0 6.359Z" fill="url(#q)"/><path d="M62.753 43.634a3.18 3.18 0 1 0 0-6.359 3.18 3.18 0 0 0 0 6.359Z" fill="url(#r)"/><path d="M76.336 36.388a3.18 3.18 0 1 0 0-6.359 3.18 3.18 0 0 0 0 6.359Z" fill="url(#s)"/><path d="M91.463 32.163a3.18 3.18 0 1 0 0-6.358 3.18 3.18 0 0 0 0 6.358Z" fill="url(#t)"/><path d="M107.696 31.359a3.18 3.18 0 1 0 0-6.36 3.18 3.18 0 0 0 0 6.36Z" fill="url(#u)"/><path d="M123.475 34.122a3.179 3.179 0 1 0 0-6.358 3.179 3.179 0 0 0 0 6.358Z" fill="url(#v)"/><path d="M137.871 40.127a3.18 3.18 0 1 0 0-6.36 3.18 3.18 0 0 0 0 6.36Z" fill="url(#w)"/><path d="M150.479 48.965a3.179 3.179 0 1 0 0-6.358 3.179 3.179 0 0 0 0 6.358Z" fill="url(#x)"/><path d="M160.905 60.239a3.179 3.179 0 1 0 0-6.358 3.179 3.179 0 0 0 0 6.358Z" fill="url(#y)"/><path d="M168.746 73.551a3.179 3.179 0 1 0 0-6.358 3.179 3.179 0 0 0 0 6.358Z" fill="url(#z)"/><path d="M125.543 77.237a4.285 4.285 0 1 1 .293-8.564 4.285 4.285 0 0 1-.293 8.564Z" fill="url(#A)"/><path d="M112.918 138.445a4.293 4.293 0 0 1-3.868-2.785 4.283 4.283 0 0 1 3.337-5.73 4.291 4.291 0 0 1 2.468.337 4.292 4.292 0 0 1 2.493 4.062 4.292 4.292 0 0 1-4.43 4.116Z" fill="url(#B)"/><path d="M125.543 130.87a4.283 4.283 0 0 1-2.776-7.416 4.277 4.277 0 0 1 2.234-1.096 4.286 4.286 0 0 1 4.972 4.38 4.287 4.287 0 0 1-4.43 4.132Z" fill="url(#C)"/><path d="M98.268 139.696a4.293 4.293 0 0 1-3.867-2.781 4.285 4.285 0 1 1 3.867 2.781Z" fill="url(#D)"/><path d="M84.466 134.899a4.285 4.285 0 1 1 4.43-4.134 4.29 4.29 0 0 1-4.43 4.133v.001Z" fill="url(#E)"/><path d="M73.997 125.246a4.284 4.284 0 0 1-.543-8.512 4.282 4.282 0 0 1 3.612 7.361 4.288 4.288 0 0 1-3.07 1.151Z" fill="url(#F)"/><path d="M68.097 112.101a4.285 4.285 0 1 1 .295-8.565 4.285 4.285 0 0 1-.294 8.565Z" fill="url(#G)"/><path d="M68.049 97.096a4.285 4.285 0 1 1 .293-8.565 4.285 4.285 0 0 1-.293 8.565Z" fill="url(#H)"/><path d="M73.892 83.837a4.286 4.286 0 1 1 .293-8.566 4.286 4.286 0 0 1-.293 8.566Z" fill="url(#I)"/><path d="M84.33 74.146a4.285 4.285 0 1 1 .294-8.566 4.285 4.285 0 0 1-.293 8.566Z" fill="url(#J)"/><path d="M97.993 69.296a4.285 4.285 0 1 1 .293-8.566 4.285 4.285 0 0 1-.293 8.566Z" fill="url(#K)"/><path d="M112.918 70.446a4.285 4.285 0 1 1 .293-8.565 4.285 4.285 0 0 1-.293 8.565Z" fill="url(#L)"/><path d="M148.883 73.205a4.032 4.032 0 1 0 0-8.063 4.032 4.032 0 0 0 0 8.063Z" fill="url(#M)"/><path d="M137.994 61.298a4.033 4.033 0 1 1 0-8.067 4.033 4.033 0 0 1 0 8.067Z" fill="url(#N)"/><path d="M124.039 52.989a4.031 4.031 0 1 1 0-8.062 4.031 4.031 0 0 1 0 8.062Z" fill="url(#O)"/><path d="M107.811 49.114a4.034 4.034 0 0 1-3.956-4.819 4.035 4.035 0 0 1 5.498-2.938 4.034 4.034 0 0 1 2.489 3.725 4.038 4.038 0 0 1-4.031 4.032Z" fill="url(#P)"/><path d="M90.838 50.325a4.032 4.032 0 1 1 0-8.063 4.032 4.032 0 0 1 0 8.063Z" fill="url(#Q)"/><path d="M75.628 56.325a4.032 4.032 0 1 1 .044-8.064 4.032 4.032 0 0 1-.045 8.064Z" fill="url(#R)"/><path d="M63.037 66.34a4.033 4.033 0 1 1 4.033-4.032 4.037 4.037 0 0 1-4.033 4.032Z" fill="url(#S)"/><path d="M53.845 79.577a4.032 4.032 0 1 1 0-8.063 4.032 4.032 0 0 1 0 8.063Z" fill="url(#T)"/><path d="M48.838 95.26a4.032 4.032 0 1 1 .001-8.064 4.032 4.032 0 0 1-.001 8.064Z" fill="url(#U)"/><path d="M48.768 112.302a4.032 4.032 0 1 1 4.032-4.032 4.038 4.038 0 0 1-4.032 4.032Z" fill="url(#V)"/><path d="M53.657 128.036a4.031 4.031 0 1 1-.002-8.063 4.031 4.031 0 0 1 .002 8.063Z" fill="url(#W)"/><path d="M62.75 141.348a4.032 4.032 0 1 0 0-8.063 4.032 4.032 0 0 0 0 8.063Z" fill="url(#X)"/><path d="M75.265 151.455a4.032 4.032 0 1 1 .002-8.065 4.032 4.032 0 0 1-.002 8.065Z" fill="url(#Y)"/><path d="M90.413 157.572a4.032 4.032 0 1 0 0-8.063 4.032 4.032 0 0 0 0 8.063Z" fill="url(#Z)"/><path d="M107.359 158.915a4.028 4.028 0 0 1-3.953-4.819 4.026 4.026 0 0 1 3.168-3.167 4.02 4.02 0 0 1 2.329.23 4.026 4.026 0 0 1 2.489 3.724 4.037 4.037 0 0 1-4.033 4.032Z" fill="url(#aa)"/><path d="M123.637 155.159a4.031 4.031 0 1 1 .001-8.062 4.031 4.031 0 0 1-.001 8.062Z" fill="url(#ab)"/><path d="M137.661 146.972a4.032 4.032 0 1 0 0-8.063 4.032 4.032 0 0 0 0 8.063Z" fill="url(#ac)"/><path d="M148.642 135.143a4.034 4.034 0 0 1-3.954-4.819 4.035 4.035 0 0 1 5.498-2.938 4.034 4.034 0 0 1 2.489 3.725 4.04 4.04 0 0 1-4.033 4.032Z" fill="url(#ad)"/><defs><linearGradient id="a" x1="220.231" y1="47.4" x2="121.174" y2="205.481" gradientUnits="userSpaceOnUse"><stop stop-color="#00D57C"/><stop offset="1" stop-color="#4A65D1"/></linearGradient><linearGradient id="b" x1="220.59" y1="47.623" x2="121.533" y2="205.708" gradientUnits="userSpaceOnUse"><stop stop-color="#00D57C"/><stop offset="1" stop-color="#4A65D1"/></linearGradient><linearGradient id="c" x1="218.176" y1="46.114" x2="119.124" y2="204.196" gradientUnits="userSpaceOnUse"><stop stop-color="#00D57C"/><stop offset="1" stop-color="#4A65D1"/></linearGradient><linearGradient id="d" x1="213.099" y1="42.93" x2="114.042" y2="201.012" gradientUnits="userSpaceOnUse"><stop stop-color="#00D57C"/><stop offset="1" stop-color="#4A65D1"/></linearGradient><linearGradient id="e" x1="205.463" y1="38.146" x2="106.411" y2="196.227" gradientUnits="userSpaceOnUse"><stop stop-color="#00D57C"/><stop offset="1" stop-color="#4A65D1"/></linearGradient><linearGradient id="f" x1="195.379" y1="31.827" x2="96.322" y2="189.909" gradientUnits="userSpaceOnUse"><stop stop-color="#00D57C"/><stop offset="1" stop-color="#4A65D1"/></linearGradient><linearGradient id="g" x1="183.357" y1="24.296" x2="84.304" y2="182.378" gradientUnits="userSpaceOnUse"><stop stop-color="#00D57C"/><stop offset="1" stop-color="#4A65D1"/></linearGradient><linearGradient id="h" x1="170.596" y1="16.298" x2="71.543" y2="174.379" gradientUnits="userSpaceOnUse"><stop stop-color="#00D57C"/><stop offset="1" stop-color="#4A65D1"/></linearGradient><linearGradient id="i" x1="157.581" y1="8.141" x2="58.529" y2="166.227" gradientUnits="userSpaceOnUse"><stop stop-color="#00D57C"/><stop offset="1" stop-color="#4A65D1"/></linearGradient><linearGradient id="j" x1="144.772" y1=".117" x2="45.715" y2="158.198" gradientUnits="userSpaceOnUse"><stop stop-color="#00D57C"/><stop offset="1" stop-color="#4A65D1"/></linearGradient><linearGradient id="k" x1="132.627" y1="-7.492" x2="33.571" y2="150.589" gradientUnits="userSpaceOnUse"><stop stop-color="#00D57C"/><stop offset="1" stop-color="#4A65D1"/></linearGradient><linearGradient id="l" x1="121.603" y1="-14.402" x2="22.546" y2="143.679" gradientUnits="userSpaceOnUse"><stop stop-color="#00D57C"/><stop offset="1" stop-color="#4A65D1"/></linearGradient><linearGradient id="m" x1="112.161" y1="-20.319" x2="13.105" y2="137.762" gradientUnits="userSpaceOnUse"><stop stop-color="#00D57C"/><stop offset="1" stop-color="#4A65D1"/></linearGradient><linearGradient id="n" x1="104.845" y1="-24.902" x2="5.788" y2="133.18" gradientUnits="userSpaceOnUse"><stop stop-color="#00D57C"/><stop offset="1" stop-color="#4A65D1"/></linearGradient><linearGradient id="o" x1="100.41" y1="-27.679" x2="1.354" y2="130.402" gradientUnits="userSpaceOnUse"><stop stop-color="#00D57C"/><stop offset="1" stop-color="#4A65D1"/></linearGradient><linearGradient id="p" x1="98.871" y1="-28.65" x2="-.186" y2="129.436" gradientUnits="userSpaceOnUse"><stop stop-color="#00D57C"/><stop offset="1" stop-color="#4A65D1"/></linearGradient><linearGradient id="q" x1="100.109" y1="-27.872" x2="1.052" y2="130.214" gradientUnits="userSpaceOnUse"><stop stop-color="#00D57C"/><stop offset="1" stop-color="#4A65D1"/></linearGradient><linearGradient id="r" x1="104.031" y1="-25.414" x2="4.975" y2="132.667" gradientUnits="userSpaceOnUse"><stop stop-color="#00D57C"/><stop offset="1" stop-color="#4A65D1"/></linearGradient><linearGradient id="s" x1="110.521" y1="-21.347" x2="11.465" y2="136.735" gradientUnits="userSpaceOnUse"><stop stop-color="#00D57C"/><stop offset="1" stop-color="#4A65D1"/></linearGradient><linearGradient id="t" x1="119.482" y1="-15.732" x2="20.425" y2="142.35" gradientUnits="userSpaceOnUse"><stop stop-color="#00D57C"/><stop offset="1" stop-color="#4A65D1"/></linearGradient><linearGradient id="u" x1="130.778" y1="-8.656" x2="31.721" y2="149.43" gradientUnits="userSpaceOnUse"><stop stop-color="#00D57C"/><stop offset="1" stop-color="#4A65D1"/></linearGradient><linearGradient id="v" x1="143.351" y1="-.776" x2="44.294" y2="157.306" gradientUnits="userSpaceOnUse"><stop stop-color="#00D57C"/><stop offset="1" stop-color="#4A65D1"/></linearGradient><linearGradient id="w" x1="156.387" y1="7.393" x2="57.331" y2="165.475" gradientUnits="userSpaceOnUse"><stop stop-color="#00D57C"/><stop offset="1" stop-color="#4A65D1"/></linearGradient><linearGradient id="x" x1="169.419" y1="15.558" x2="70.362" y2="173.644" gradientUnits="userSpaceOnUse"><stop stop-color="#00D57C"/><stop offset="1" stop-color="#4A65D1"/></linearGradient><linearGradient id="y" x1="181.979" y1="23.43" x2="82.922" y2="181.511" gradientUnits="userSpaceOnUse"><stop stop-color="#00D57C"/><stop offset="1" stop-color="#4A65D1"/></linearGradient><linearGradient id="z" x1="193.598" y1="30.711" x2="94.542" y2="188.793" gradientUnits="userSpaceOnUse"><stop stop-color="#00D57C"/><stop offset="1" stop-color="#4A65D1"/></linearGradient><linearGradient id="A" x1="165.742" y1="13.712" x2="61.269" y2="168.249" gradientUnits="userSpaceOnUse"><stop stop-color="#00D57C"/><stop offset="1" stop-color="#4A65D1"/></linearGradient><linearGradient id="B" x1="185.406" y1="27.164" x2="80.929" y2="181.697" gradientUnits="userSpaceOnUse"><stop stop-color="#00D57C"/><stop offset="1" stop-color="#4A65D1"/></linearGradient><linearGradient id="C" x1="198.035" y1="19.591" x2="93.558" y2="174.124" gradientUnits="userSpaceOnUse"><stop stop-color="#00D57C"/><stop offset="1" stop-color="#4A65D1"/></linearGradient><linearGradient id="D" x1="176.005" y1="20.655" x2="71.528" y2="175.193" gradientUnits="userSpaceOnUse"><stop stop-color="#00D57C"/><stop offset="1" stop-color="#4A65D1"/></linearGradient><linearGradient id="E" x1="164.308" y1="12.757" x2="59.84" y2="167.286" gradientUnits="userSpaceOnUse"><stop stop-color="#00D57C"/><stop offset="1" stop-color="#4A65D1"/></linearGradient><linearGradient id="F" x1="152.632" y1="4.856" x2="48.154" y2="159.389" gradientUnits="userSpaceOnUse"><stop stop-color="#00D57C"/><stop offset="1" stop-color="#4A65D1"/></linearGradient><linearGradient id="G" x1="142.495" y1="-1.999" x2="38.017" y2="152.534" gradientUnits="userSpaceOnUse"><stop stop-color="#00D57C"/><stop offset="1" stop-color="#4A65D1"/></linearGradient><linearGradient id="H" x1="135.497" y1="-6.729" x2="31.024" y2="147.804" gradientUnits="userSpaceOnUse"><stop stop-color="#00D57C"/><stop offset="1" stop-color="#4A65D1"/></linearGradient><linearGradient id="I" x1="133.359" y1="-8.178" x2="28.882" y2="146.355" gradientUnits="userSpaceOnUse"><stop stop-color="#00D57C"/><stop offset="1" stop-color="#4A65D1"/></linearGradient><linearGradient id="J" x1="136.024" y1="-6.376" x2="31.546" y2="148.157" gradientUnits="userSpaceOnUse"><stop stop-color="#00D57C"/><stop offset="1" stop-color="#4A65D1"/></linearGradient><linearGradient id="K" x1="143.151" y1="-1.561" x2="38.673" y2="152.972" gradientUnits="userSpaceOnUse"><stop stop-color="#00D57C"/><stop offset="1" stop-color="#4A65D1"/></linearGradient><linearGradient id="L" x1="153.925" y1="5.722" x2="49.452" y2="160.26" gradientUnits="userSpaceOnUse"><stop stop-color="#00D57C"/><stop offset="1" stop-color="#4A65D1"/></linearGradient><linearGradient id="M" x1="178.794" y1="21.439" x2="79.747" y2="179.511" gradientUnits="userSpaceOnUse"><stop stop-color="#00D57C"/><stop offset="1" stop-color="#4A65D1"/></linearGradient><linearGradient id="N" x1="165.618" y1="13.178" x2="66.567" y2="171.255" gradientUnits="userSpaceOnUse"><stop stop-color="#00D57C"/><stop offset="1" stop-color="#4A65D1"/></linearGradient><linearGradient id="O" x1="151.864" y1="4.558" x2="52.813" y2="162.631" gradientUnits="userSpaceOnUse"><stop stop-color="#00D57C"/><stop offset="1" stop-color="#4A65D1"/></linearGradient><linearGradient id="P" x1="138.46" y1="-3.834" x2="39.413" y2="154.239" gradientUnits="userSpaceOnUse"><stop stop-color="#00D57C"/><stop offset="1" stop-color="#4A65D1"/></linearGradient><linearGradient id="Q" x1="126.818" y1="-11.127" x2="27.769" y2="146.943" gradientUnits="userSpaceOnUse"><stop stop-color="#00D57C"/><stop offset="1" stop-color="#4A65D1"/></linearGradient><linearGradient id="R" x1="118.602" y1="-16.289" x2="19.541" y2="141.807" gradientUnits="userSpaceOnUse"><stop stop-color="#00D57C"/><stop offset="1" stop-color="#4A65D1"/></linearGradient><linearGradient id="S" x1="114.061" y1="-19.121" x2="15.01" y2="138.952" gradientUnits="userSpaceOnUse"><stop stop-color="#00D57C"/><stop offset="1" stop-color="#4A65D1"/></linearGradient><linearGradient id="T" x1="113.417" y1="-19.525" x2="14.367" y2="138.55" gradientUnits="userSpaceOnUse"><stop stop-color="#00D57C"/><stop offset="1" stop-color="#4A65D1"/></linearGradient><linearGradient id="U" x1="116.877" y1="-17.356" x2="17.825" y2="140.716" gradientUnits="userSpaceOnUse"><stop stop-color="#00D57C"/><stop offset="1" stop-color="#4A65D1"/></linearGradient><linearGradient id="V" x1="124.494" y1="-12.58" x2="25.443" y2="145.492" gradientUnits="userSpaceOnUse"><stop stop-color="#00D57C"/><stop offset="1" stop-color="#4A65D1"/></linearGradient><linearGradient id="W" x1="135.085" y1="-5.946" x2="36.034" y2="152.127" gradientUnits="userSpaceOnUse"><stop stop-color="#00D57C"/><stop offset="1" stop-color="#4A65D1"/></linearGradient><linearGradient id="X" x1="147.601" y1="1.9" x2="48.55" y2="159.973" gradientUnits="userSpaceOnUse"><stop stop-color="#00D57C"/><stop offset="1" stop-color="#4A65D1"/></linearGradient><linearGradient id="Y" x1="161.136" y1="10.38" x2="62.085" y2="168.452" gradientUnits="userSpaceOnUse"><stop stop-color="#00D57C"/><stop offset="1" stop-color="#4A65D1"/></linearGradient><linearGradient id="Z" x1="174.767" y1="18.92" x2="75.716" y2="176.993" gradientUnits="userSpaceOnUse"><stop stop-color="#00D57C"/><stop offset="1" stop-color="#4A65D1"/></linearGradient><linearGradient id="aa" x1="187.542" y1="26.923" x2="88.491" y2="185" gradientUnits="userSpaceOnUse"><stop stop-color="#00D57C"/><stop offset="1" stop-color="#4A65D1"/></linearGradient><linearGradient id="ab" x1="197.539" y1="33.189" x2="98.488" y2="191.262" gradientUnits="userSpaceOnUse"><stop stop-color="#00D57C"/><stop offset="1" stop-color="#4A65D1"/></linearGradient><linearGradient id="ac" x1="203.924" y1="37.19" x2="104.873" y2="195.263" gradientUnits="userSpaceOnUse"><stop stop-color="#00D57C"/><stop offset="1" stop-color="#4A65D1"/></linearGradient><linearGradient id="ad" x1="206.488" y1="38.794" x2="107.436" y2="196.867" gradientUnits="userSpaceOnUse"><stop stop-color="#00D57C"/><stop offset="1" stop-color="#4A65D1"/></linearGradient></defs></svg>