<svg xmlns="http://www.w3.org/2000/svg" viewBox="0 0 200 200"><path fill="url(#a)" d="M168.746 132.742a3.179 3.179 0 1 0 0-6.358 3.18 3.18 0 1 0 0 6.358"/><path fill="url(#b)" d="M160.905 146.054a3.18 3.18 0 1 0 0-6.359 3.18 3.18 0 0 0 0 6.359"/><path fill="url(#c)" d="M150.479 157.328a3.179 3.179 0 1 0 0-6.357 3.179 3.179 0 0 0 0 6.357"/><path fill="url(#d)" d="M137.871 166.166a3.18 3.18 0 1 0 .001-6.359 3.18 3.18 0 0 0-.001 6.359"/><path fill="url(#e)" d="M123.475 172.171a3.18 3.18 0 1 0-.001-6.359 3.18 3.18 0 0 0 .001 6.359"/><path fill="url(#f)" d="M107.696 174.939a3.18 3.18 0 1 0 .001-6.359 3.18 3.18 0 0 0-.001 6.359"/><path fill="url(#g)" d="M91.463 174.13a3.179 3.179 0 1 0 0-6.358 3.179 3.179 0 0 0 0 6.358"/><path fill="url(#h)" d="M76.336 169.905a3.179 3.179 0 1 0 .001-6.358 3.179 3.179 0 0 0 0 6.358Z"/><path fill="url(#i)" d="M62.753 162.659a3.18 3.18 0 1 0 0-6.36 3.18 3.18 0 0 0 0 6.36"/><path fill="url(#j)" d="M51.108 152.78a3.179 3.179 0 1 0 0-6.358 3.179 3.179 0 0 0 0 6.358"/><path fill="url(#k)" d="M41.783 140.662a3.18 3.18 0 1 0 0-6.36 3.18 3.18 0 0 0 0 6.36"/><path fill="url(#l)" d="M35.18 126.698a3.179 3.179 0 1 0 0-6.358 3.179 3.179 0 0 0 0 6.358"/><path fill="url(#m)" d="M31.695 111.279a3.18 3.18 0 1 0-.001-6.36 3.18 3.18 0 0 0 0 6.36Z"/><path fill="url(#n)" d="M31.695 95.015a3.18 3.18 0 1 0 0-6.359 3.18 3.18 0 0 0 0 6.359"/><path fill="url(#o)" d="M35.18 79.6a3.18 3.18 0 1 0 0-6.36 3.18 3.18 0 0 0 0 6.36"/><path fill="url(#p)" d="M41.783 65.631a3.18 3.18 0 1 0 0-6.359 3.18 3.18 0 0 0 0 6.36Z"/><path fill="url(#q)" d="M51.108 53.513a3.18 3.18 0 1 0 0-6.359 3.18 3.18 0 0 0 0 6.359"/><path fill="url(#r)" d="M62.753 43.634a3.18 3.18 0 1 0 0-6.359 3.18 3.18 0 0 0 0 6.359"/><path fill="url(#s)" d="M76.336 36.388a3.18 3.18 0 1 0 0-6.359 3.18 3.18 0 0 0 0 6.359"/><path fill="url(#t)" d="M91.463 32.163a3.18 3.18 0 1 0 0-6.358 3.18 3.18 0 0 0 0 6.358"/><path fill="url(#u)" d="M107.696 31.359a3.18 3.18 0 1 0 0-6.36 3.18 3.18 0 0 0 0 6.36"/><path fill="url(#v)" d="M123.475 34.122a3.179 3.179 0 1 0 0-6.358 3.179 3.179 0 0 0 0 6.358"/><path fill="url(#w)" d="M137.871 40.127a3.18 3.18 0 1 0 0-6.36 3.18 3.18 0 0 0 0 6.36"/><path fill="url(#x)" d="M150.479 48.965a3.179 3.179 0 1 0 0-6.358 3.179 3.179 0 0 0 0 6.358"/><path fill="url(#y)" d="M160.905 60.239a3.179 3.179 0 1 0 0-6.358 3.179 3.179 0 0 0 0 6.358"/><path fill="url(#z)" d="M168.746 73.551a3.179 3.179 0 1 0 0-6.358 3.179 3.179 0 0 0 0 6.358"/><path fill="url(#A)" d="M125.543 77.237a4.285 4.285 0 1 1 .293-8.564 4.285 4.285 0 0 1-.293 8.564"/><path fill="url(#B)" d="M112.918 138.445a4.29 4.29 0 0 1-3.868-2.785 4.283 4.283 0 0 1 3.337-5.73 4.3 4.3 0 0 1 2.468.337 4.29 4.29 0 0 1 2.493 4.062 4.29 4.29 0 0 1-4.43 4.116"/><path fill="url(#C)" d="M125.543 130.87a4.283 4.283 0 0 1-2.776-7.416 4.3 4.3 0 0 1 2.234-1.096 4.286 4.286 0 0 1 4.972 4.38 4.287 4.287 0 0 1-4.43 4.132"/><path fill="url(#D)" d="M98.268 139.696a4.29 4.29 0 0 1-3.867-2.781 4.285 4.285 0 1 1 3.867 2.781"/><path fill="url(#E)" d="M84.466 134.899a4.285 4.285 0 1 1 4.43-4.134 4.29 4.29 0 0 1-4.43 4.133z"/><path fill="url(#F)" d="M73.997 125.246a4.284 4.284 0 0 1-.543-8.512 4.282 4.282 0 0 1 3.612 7.361 4.3 4.3 0 0 1-3.07 1.151Z"/><path fill="url(#G)" d="M68.097 112.101a4.285 4.285 0 1 1 .295-8.565 4.285 4.285 0 0 1-.294 8.565Z"/><path fill="url(#H)" d="M68.049 97.096a4.285 4.285 0 1 1 .293-8.565 4.285 4.285 0 0 1-.293 8.565"/><path fill="url(#I)" d="M73.892 83.837a4.286 4.286 0 1 1 .293-8.566 4.286 4.286 0 0 1-.293 8.566"/><path fill="url(#J)" d="M84.33 74.146a4.285 4.285 0 1 1 .294-8.566 4.285 4.285 0 0 1-.293 8.566Z"/><path fill="url(#K)" d="M97.993 69.296a4.285 4.285 0 1 1 .293-8.566 4.285 4.285 0 0 1-.293 8.566"/><path fill="url(#L)" d="M112.918 70.446a4.285 4.285 0 1 1 .293-8.565 4.285 4.285 0 0 1-.293 8.565"/><path fill="url(#M)" d="M148.883 73.205a4.032 4.032 0 1 0 0-8.063 4.032 4.032 0 0 0 0 8.063"/><path fill="url(#N)" d="M137.994 61.298a4.033 4.033 0 1 1 0-8.067 4.033 4.033 0 0 1 0 8.067"/><path fill="url(#O)" d="M124.039 52.989a4.031 4.031 0 1 1 0-8.062 4.031 4.031 0 0 1 0 8.062"/><path fill="url(#P)" d="M107.811 49.114a4.034 4.034 0 0 1-3.956-4.819 4.035 4.035 0 0 1 5.498-2.938 4.03 4.03 0 0 1 2.489 3.725 4.04 4.04 0 0 1-4.031 4.032"/><path fill="url(#Q)" d="M90.838 50.325a4.032 4.032 0 1 1 0-8.063 4.032 4.032 0 0 1 0 8.063"/><path fill="url(#R)" d="M75.628 56.325a4.032 4.032 0 1 1 .044-8.064 4.032 4.032 0 0 1-.045 8.064Z"/><path fill="url(#S)" d="M63.037 66.34a4.033 4.033 0 1 1 4.033-4.032 4.037 4.037 0 0 1-4.033 4.032"/><path fill="url(#T)" d="M53.845 79.577a4.032 4.032 0 1 1 0-8.063 4.032 4.032 0 0 1 0 8.063"/><path fill="url(#U)" d="M48.838 95.26a4.032 4.032 0 1 1 .001-8.064 4.032 4.032 0 0 1-.001 8.064"/><path fill="url(#V)" d="M48.768 112.302a4.032 4.032 0 1 1 4.032-4.032 4.04 4.04 0 0 1-4.032 4.032"/><path fill="url(#W)" d="M53.657 128.036a4.031 4.031 0 1 1-.002-8.063 4.031 4.031 0 0 1 .002 8.063"/><path fill="url(#X)" d="M62.75 141.348a4.032 4.032 0 1 0 0-8.063 4.032 4.032 0 0 0 0 8.063"/><path fill="url(#Y)" d="M75.265 151.455a4.032 4.032 0 1 1 .002-8.065 4.032 4.032 0 0 1-.002 8.065"/><path fill="url(#Z)" d="M90.413 157.572a4.032 4.032 0 1 0 0-8.063 4.032 4.032 0 0 0 0 8.063"/><path fill="url(#aa)" d="M107.359 158.915a4.028 4.028 0 0 1-3.953-4.819 4.03 4.03 0 0 1 3.168-3.167 4 4 0 0 1 2.329.23 4.03 4.03 0 0 1 2.489 3.724 4.037 4.037 0 0 1-4.033 4.032"/><path fill="url(#ab)" d="M123.637 155.159a4.031 4.031 0 1 1 .001-8.062 4.031 4.031 0 0 1-.001 8.062"/><path fill="url(#ac)" d="M137.661 146.972a4.032 4.032 0 1 0 0-8.063 4.032 4.032 0 0 0 0 8.063"/><path fill="url(#ad)" d="M148.642 135.143a4.034 4.034 0 0 1-3.954-4.819 4.035 4.035 0 0 1 5.498-2.938 4.03 4.03 0 0 1 2.489 3.725 4.04 4.04 0 0 1-4.033 4.032"/><defs><linearGradient id="a" x1="220.231" x2="121.174" y1="47.4" y2="205.481" gradientUnits="userSpaceOnUse"><stop stop-color="#00D57C"/><stop offset="1" stop-color="#4A65D1"/></linearGradient><linearGradient id="b" x1="220.59" x2="121.533" y1="47.623" y2="205.708" gradientUnits="userSpaceOnUse"><stop stop-color="#00D57C"/><stop offset="1" stop-color="#4A65D1"/></linearGradient><linearGradient id="c" x1="218.176" x2="119.124" y1="46.114" y2="204.196" gradientUnits="userSpaceOnUse"><stop stop-color="#00D57C"/><stop offset="1" stop-color="#4A65D1"/></linearGradient><linearGradient id="d" x1="213.099" x2="114.042" y1="42.93" y2="201.012" gradientUnits="userSpaceOnUse"><stop stop-color="#00D57C"/><stop offset="1" stop-color="#4A65D1"/></linearGradient><linearGradient id="e" x1="205.463" x2="106.411" y1="38.146" y2="196.227" gradientUnits="userSpaceOnUse"><stop stop-color="#00D57C"/><stop offset="1" stop-color="#4A65D1"/></linearGradient><linearGradient id="f" x1="195.379" x2="96.322" y1="31.827" y2="189.909" gradientUnits="userSpaceOnUse"><stop stop-color="#00D57C"/><stop offset="1" stop-color="#4A65D1"/></linearGradient><linearGradient id="g" x1="183.357" x2="84.304" y1="24.296" y2="182.378" gradientUnits="userSpaceOnUse"><stop stop-color="#00D57C"/><stop offset="1" stop-color="#4A65D1"/></linearGradient><linearGradient id="h" x1="170.596" x2="71.543" y1="16.298" y2="174.379" gradientUnits="userSpaceOnUse"><stop stop-color="#00D57C"/><stop offset="1" stop-color="#4A65D1"/></linearGradient><linearGradient id="i" x1="157.581" x2="58.529" y1="8.141" y2="166.227" gradientUnits="userSpaceOnUse"><stop stop-color="#00D57C"/><stop offset="1" stop-color="#4A65D1"/></linearGradient><linearGradient id="j" x1="144.772" x2="45.715" y1=".117" y2="158.198" gradientUnits="userSpaceOnUse"><stop stop-color="#00D57C"/><stop offset="1" stop-color="#4A65D1"/></linearGradient><linearGradient id="k" x1="132.627" x2="33.571" y1="-7.492" y2="150.589" gradientUnits="userSpaceOnUse"><stop stop-color="#00D57C"/><stop offset="1" stop-color="#4A65D1"/></linearGradient><linearGradient id="l" x1="121.603" x2="22.546" y1="-14.402" y2="143.679" gradientUnits="userSpaceOnUse"><stop stop-color="#00D57C"/><stop offset="1" stop-color="#4A65D1"/></linearGradient><linearGradient id="m" x1="112.161" x2="13.105" y1="-20.319" y2="137.762" gradientUnits="userSpaceOnUse"><stop stop-color="#00D57C"/><stop offset="1" stop-color="#4A65D1"/></linearGradient><linearGradient id="n" x1="104.845" x2="5.788" y1="-24.902" y2="133.18" gradientUnits="userSpaceOnUse"><stop stop-color="#00D57C"/><stop offset="1" stop-color="#4A65D1"/></linearGradient><linearGradient id="o" x1="100.41" x2="1.354" y1="-27.679" y2="130.402" gradientUnits="userSpaceOnUse"><stop stop-color="#00D57C"/><stop offset="1" stop-color="#4A65D1"/></linearGradient><linearGradient id="p" x1="98.871" x2="-.186" y1="-28.65" y2="129.436" gradientUnits="userSpaceOnUse"><stop stop-color="#00D57C"/><stop offset="1" stop-color="#4A65D1"/></linearGradient><linearGradient id="q" x1="100.109" x2="1.052" y1="-27.872" y2="130.214" gradientUnits="userSpaceOnUse"><stop stop-color="#00D57C"/><stop offset="1" stop-color="#4A65D1"/></linearGradient><linearGradient id="r" x1="104.031" x2="4.975" y1="-25.414" y2="132.667" gradientUnits="userSpaceOnUse"><stop stop-color="#00D57C"/><stop offset="1" stop-color="#4A65D1"/></linearGradient><linearGradient id="s" x1="110.521" x2="11.465" y1="-21.347" y2="136.735" gradientUnits="userSpaceOnUse"><stop stop-color="#00D57C"/><stop offset="1" stop-color="#4A65D1"/></linearGradient><linearGradient id="t" x1="119.482" x2="20.425" y1="-15.732" y2="142.35" gradientUnits="userSpaceOnUse"><stop stop-color="#00D57C"/><stop offset="1" stop-color="#4A65D1"/></linearGradient><linearGradient id="u" x1="130.778" x2="31.721" y1="-8.656" y2="149.43" gradientUnits="userSpaceOnUse"><stop stop-color="#00D57C"/><stop offset="1" stop-color="#4A65D1"/></linearGradient><linearGradient id="v" x1="143.351" x2="44.294" y1="-.776" y2="157.306" gradientUnits="userSpaceOnUse"><stop stop-color="#00D57C"/><stop offset="1" stop-color="#4A65D1"/></linearGradient><linearGradient id="w" x1="156.387" x2="57.331" y1="7.393" y2="165.475" gradientUnits="userSpaceOnUse"><stop stop-color="#00D57C"/><stop offset="1" stop-color="#4A65D1"/></linearGradient><linearGradient id="x" x1="169.419" x2="70.362" y1="15.558" y2="173.644" gradientUnits="userSpaceOnUse"><stop stop-color="#00D57C"/><stop offset="1" stop-color="#4A65D1"/></linearGradient><linearGradient id="y" x1="181.979" x2="82.922" y1="23.43" y2="181.511" gradientUnits="userSpaceOnUse"><stop stop-color="#00D57C"/><stop offset="1" stop-color="#4A65D1"/></linearGradient><linearGradient id="z" x1="193.598" x2="94.542" y1="30.711" y2="188.793" gradientUnits="userSpaceOnUse"><stop stop-color="#00D57C"/><stop offset="1" stop-color="#4A65D1"/></linearGradient><linearGradient id="A" x1="165.742" x2="61.269" y1="13.712" y2="168.249" gradientUnits="userSpaceOnUse"><stop stop-color="#00D57C"/><stop offset="1" stop-color="#4A65D1"/></linearGradient><linearGradient id="B" x1="185.406" x2="80.929" y1="27.164" y2="181.697" gradientUnits="userSpaceOnUse"><stop stop-color="#00D57C"/><stop offset="1" stop-color="#4A65D1"/></linearGradient><linearGradient id="C" x1="198.035" x2="93.558" y1="19.591" y2="174.124" gradientUnits="userSpaceOnUse"><stop stop-color="#00D57C"/><stop offset="1" stop-color="#4A65D1"/></linearGradient><linearGradient id="D" x1="176.005" x2="71.528" y1="20.655" y2="175.193" gradientUnits="userSpaceOnUse"><stop stop-color="#00D57C"/><stop offset="1" stop-color="#4A65D1"/></linearGradient><linearGradient id="E" x1="164.308" x2="59.84" y1="12.757" y2="167.286" gradientUnits="userSpaceOnUse"><stop stop-color="#00D57C"/><stop offset="1" stop-color="#4A65D1"/></linearGradient><linearGradient id="F" x1="152.632" x2="48.154" y1="4.856" y2="159.389" gradientUnits="userSpaceOnUse"><stop stop-color="#00D57C"/><stop offset="1" stop-color="#4A65D1"/></linearGradient><linearGradient id="G" x1="142.495" x2="38.017" y1="-1.999" y2="152.534" gradientUnits="userSpaceOnUse"><stop stop-color="#00D57C"/><stop offset="1" stop-color="#4A65D1"/></linearGradient><linearGradient id="H" x1="135.497" x2="31.024" y1="-6.729" y2="147.804" gradientUnits="userSpaceOnUse"><stop stop-color="#00D57C"/><stop offset="1" stop-color="#4A65D1"/></linearGradient><linearGradient id="I" x1="133.359" x2="28.882" y1="-8.178" y2="146.355" gradientUnits="userSpaceOnUse"><stop stop-color="#00D57C"/><stop offset="1" stop-color="#4A65D1"/></linearGradient><linearGradient id="J" x1="136.024" x2="31.546" y1="-6.376" y2="148.157" gradientUnits="userSpaceOnUse"><stop stop-color="#00D57C"/><stop offset="1" stop-color="#4A65D1"/></linearGradient><linearGradient id="K" x1="143.151" x2="38.673" y1="-1.561" y2="152.972" gradientUnits="userSpaceOnUse"><stop stop-color="#00D57C"/><stop offset="1" stop-color="#4A65D1"/></linearGradient><linearGradient id="L" x1="153.925" x2="49.452" y1="5.722" y2="160.26" gradientUnits="userSpaceOnUse"><stop stop-color="#00D57C"/><stop offset="1" stop-color="#4A65D1"/></linearGradient><linearGradient id="M" x1="178.794" x2="79.747" y1="21.439" y2="179.511" gradientUnits="userSpaceOnUse"><stop stop-color="#00D57C"/><stop offset="1" stop-color="#4A65D1"/></linearGradient><linearGradient id="N" x1="165.618" x2="66.567" y1="13.178" y2="171.255" gradientUnits="userSpaceOnUse"><stop stop-color="#00D57C"/><stop offset="1" stop-color="#4A65D1"/></linearGradient><linearGradient id="O" x1="151.864" x2="52.813" y1="4.558" y2="162.631" gradientUnits="userSpaceOnUse"><stop stop-color="#00D57C"/><stop offset="1" stop-color="#4A65D1"/></linearGradient><linearGradient id="P" x1="138.46" x2="39.413" y1="-3.834" y2="154.239" gradientUnits="userSpaceOnUse"><stop stop-color="#00D57C"/><stop offset="1" stop-color="#4A65D1"/></linearGradient><linearGradient id="Q" x1="126.818" x2="27.769" y1="-11.127" y2="146.943" gradientUnits="userSpaceOnUse"><stop stop-color="#00D57C"/><stop offset="1" stop-color="#4A65D1"/></linearGradient><linearGradient id="R" x1="118.602" x2="19.541" y1="-16.289" y2="141.807" gradientUnits="userSpaceOnUse"><stop stop-color="#00D57C"/><stop offset="1" stop-color="#4A65D1"/></linearGradient><linearGradient id="S" x1="114.061" x2="15.01" y1="-19.121" y2="138.952" gradientUnits="userSpaceOnUse"><stop stop-color="#00D57C"/><stop offset="1" stop-color="#4A65D1"/></linearGradient><linearGradient id="T" x1="113.417" x2="14.367" y1="-19.525" y2="138.55" gradientUnits="userSpaceOnUse"><stop stop-color="#00D57C"/><stop offset="1" stop-color="#4A65D1"/></linearGradient><linearGradient id="U" x1="116.877" x2="17.825" y1="-17.356" y2="140.716" gradientUnits="userSpaceOnUse"><stop stop-color="#00D57C"/><stop offset="1" stop-color="#4A65D1"/></linearGradient><linearGradient id="V" x1="124.494" x2="25.443" y1="-12.58" y2="145.492" gradientUnits="userSpaceOnUse"><stop stop-color="#00D57C"/><stop offset="1" stop-color="#4A65D1"/></linearGradient><linearGradient id="W" x1="135.085" x2="36.034" y1="-5.946" y2="152.127" gradientUnits="userSpaceOnUse"><stop stop-color="#00D57C"/><stop offset="1" stop-color="#4A65D1"/></linearGradient><linearGradient id="X" x1="147.601" x2="48.55" y1="1.9" y2="159.973" gradientUnits="userSpaceOnUse"><stop stop-color="#00D57C"/><stop offset="1" stop-color="#4A65D1"/></linearGradient><linearGradient id="Y" x1="161.136" x2="62.085" y1="10.38" y2="168.452" gradientUnits="userSpaceOnUse"><stop stop-color="#00D57C"/><stop offset="1" stop-color="#4A65D1"/></linearGradient><linearGradient id="Z" x1="174.767" x2="75.716" y1="18.92" y2="176.993" gradientUnits="userSpaceOnUse"><stop stop-color="#00D57C"/><stop offset="1" stop-color="#4A65D1"/></linearGradient><linearGradient id="aa" x1="187.542" x2="88.491" y1="26.923" y2="185" gradientUnits="userSpaceOnUse"><stop stop-color="#00D57C"/><stop offset="1" stop-color="#4A65D1"/></linearGradient><linearGradient id="ab" x1="197.539" x2="98.488" y1="33.189" y2="191.262" gradientUnits="userSpaceOnUse"><stop stop-color="#00D57C"/><stop offset="1" stop-color="#4A65D1"/></linearGradient><linearGradient id="ac" x1="203.924" x2="104.873" y1="37.19" y2="195.263" gradientUnits="userSpaceOnUse"><stop stop-color="#00D57C"/><stop offset="1" stop-color="#4A65D1"/></linearGradient><linearGradient id="ad" x1="206.488" x2="107.436" y1="38.794" y2="196.867" gradientUnits="userSpaceOnUse"><stop stop-color="#00D57C"/><stop offset="1" stop-color="#4A65D1"/></linearGradient></defs></svg>