<svg xmlns="http://www.w3.org/2000/svg" width="114.8" height="114.8"><defs><linearGradient id="a" x1=".103" y1="24.183" x2=".907" y2="25.064" gradientUnits="objectBoundingBox"><stop offset="0" stop-color="#f89200"/><stop offset="1" stop-color="#00bef2"/></linearGradient><linearGradient id="b" x1=".523" y1="25.487" x2=".523" y2="24.49" gradientUnits="objectBoundingBox"><stop offset="0" stop-color="#f89200"/><stop offset="1" stop-color="#cc1f25"/></linearGradient><linearGradient id="c" x1=".095" y1="34.013" x2=".916" y2="33.192" gradientUnits="objectBoundingBox"><stop offset="0" stop-color="#f89200"/><stop offset="1" stop-color="#aaa"/></linearGradient><linearGradient id="d" x1=".002" y1="253.145" x2="1.004" y2="253.145" gradientUnits="objectBoundingBox"><stop offset="0" stop-color="#f89200"/><stop offset="1" stop-color="#3273e2"/></linearGradient><linearGradient id="e" x1=".04" y1="26.156" x2=".962" y2="27.021" gradientUnits="objectBoundingBox"><stop offset="0" stop-color="#f89200"/><stop offset="1" stop-color="#a680d0"/></linearGradient><linearGradient id="f" x1=".066" y1="70.413" x2=".944" y2="69.722" gradientUnits="objectBoundingBox"><stop offset="0" stop-color="#00bef2"/><stop offset="1" stop-color="#a680d0"/></linearGradient><linearGradient id="g" x1=".971" y1="100.218" x2=".036" y2="100.792" gradientUnits="objectBoundingBox"><stop offset="0" stop-color="#ff4c9f"/><stop offset="1" stop-color="#a680d0"/></linearGradient><linearGradient id="h" x1=".953" y1="54.065" x2=".053" y2="54.805" gradientUnits="objectBoundingBox"><stop offset="0" stop-color="#5cd551"/><stop offset="1" stop-color="#ce0003"/></linearGradient><linearGradient id="i" x1=".37" y1="48.979" x2=".663" y2="48.026" gradientUnits="objectBoundingBox"><stop offset="0" stop-color="#aaa"/><stop offset=".184" stop-color="#a2aea1"/><stop offset=".484" stop-color="#8dba89"/><stop offset=".861" stop-color="#6acd61"/><stop offset="1" stop-color="#5cd551"/></linearGradient><linearGradient id="j" x1=".968" y1="34.029" x2=".034" y2="33.186" gradientUnits="objectBoundingBox"><stop offset="0" stop-color="#f8bf00"/><stop offset="1" stop-color="#5cd551"/></linearGradient><linearGradient id="k" x1=".997" y1="145.766" x2=".007" y2="146.159" gradientUnits="objectBoundingBox"><stop offset="0" stop-color="#f8bf00"/><stop offset=".6" stop-color="#b6ad91"/><stop offset="1" stop-color="#aaa"/></linearGradient><linearGradient id="l" x1=".287" y1="28.761" x2=".753" y2="29.729" gradientUnits="objectBoundingBox"><stop offset="0" stop-color="#3273e2"/><stop offset=".99" stop-color="#a680d0"/></linearGradient><linearGradient id="m" x1=".114" y1="28.477" x2=".894" y2="29.331" gradientUnits="objectBoundingBox"><stop offset="0" stop-color="#aaa"/><stop offset="1" stop-color="#3273e2"/></linearGradient><linearGradient id="n" x1=".758" y1="35.328" x2=".265" y2="36.264" gradientUnits="objectBoundingBox"><stop offset="0" stop-color="#f8bf00"/><stop offset="1" stop-color="#00bc9b"/></linearGradient><linearGradient id="o" x1=".986" y1="171.798" x2=".024" y2="172.094" gradientUnits="objectBoundingBox"><stop offset="0" stop-color="#00bc9b"/><stop offset=".99" stop-color="#3273e2"/></linearGradient><linearGradient id="p" x1=".27" y1="39.065" x2=".752" y2="39.989" gradientUnits="objectBoundingBox"><stop offset="0" stop-color="#00bc9b"/><stop offset="1" stop-color="#ff4c9f"/></linearGradient><style>.b{fill:#aaa}</style></defs><path d="M59.7 2.1a57.4 57.4 0 1 0 57.4 57.4A57.4 57.4 0 0 0 59.7 2.1Zm0 109.3a52 52 0 1 1 52-52 52.024 52.024 0 0 1-52 52Z" style="fill:#d8d8d8" transform="translate(-2.3 -2.1)"/><path class="b" d="M57.4 4.4A53.091 53.091 0 1 1 19.9 20 52.675 52.675 0 0 1 57.4 4.4Z"/><path d="M95.7 23.4a50.376 50.376 0 0 0-36-15A51.042 51.042 0 0 0 8.6 59.5a50.376 50.376 0 0 0 15 36 51 51 0 0 0 87.1-36.1 50.376 50.376 0 0 0-15-36Z" style="fill:#fff" transform="translate(-2.3 -2.1)"/><path d="m34.7 71.3 1.7-1 10.9 18.9-1.7 1Z" style="fill:url(#a)" transform="translate(-2.3 -2.1)"/><path d="M30.4 35.6h1.9v19.6h-1.9Z" style="fill:url(#b)" transform="translate(-2.3 -2.1)"/><path d="m38 58.3-1.4-1.4 13.2-13.1 1.3 1.3Z" style="fill:url(#c)" transform="translate(-2.3 -2.1)"/><path d="M39.8 62.6h25v1.9h-25v-1.9Z" style="fill:url(#d)" transform="translate(-2.3 -2.1)"/><path d="m38.2 68.6.9-1.7 29 16.7-1 1.7Z" style="fill:url(#e)" transform="translate(-2.3 -2.1)"/><path d="m53.8 93.1-.7-1.8 14-5.1.6 1.8Z" style="fill:url(#f)" transform="translate(-2.3 -2.1)"/><path d="m88.2 81.6.3 1.9-15.1 2.9-.3-1.9Z" style="fill:url(#g)" transform="translate(-2.3 -2.1)"/><path d="m52.2 23.4.7 1.8-18.3 7.1-.7-1.8Z" style="fill:url(#h)" transform="translate(-2.3 -2.1)"/><path d="m55.3 36.2-1.9-.2.8-9.8 1.9.2Z" style="fill:url(#i)" transform="translate(-2.3 -2.1)"/><path d="m87.4 36.4-.7 1.7-28.8-12.7.7-1.8Z" style="fill:url(#j)" transform="translate(-2.3 -2.1)"/><path d="m86.6 38.5.1 2-27.9 1.3-.1-2Z" style="fill:url(#k)" transform="translate(-2.3 -2.1)"/><path d="m67.2 66.7 2-.2L70.9 83l-1.9.2Z" style="fill:url(#l)" transform="translate(-2.3 -2.1)"/><path d="m55.6 45.7 1.7-1.1 9.8 15.8-1.7 1.1Z" style="fill:url(#m)" transform="translate(-2.3 -2.1)"/><path d="m89.8 43.9 1.9.3-2 13.3-1.9-.3Z" style="fill:url(#n)" transform="translate(-2.3 -2.1)"/><path d="m83 61.5.2 2-12.1.8-.2-1.9Z" style="fill:url(#o)" transform="translate(-2.3 -2.1)"/><path d="m87.8 67.1 1.9-.3 2.1 12-1.9.3Z" style="fill:url(#p)" transform="translate(-2.3 -2.1)"/><path d="M32.2 54.8a8.791 8.791 0 1 1-9.6 7.9 8.771 8.771 0 0 1 9.6-7.9Z" style="fill:#f89200" transform="translate(-2.3 -2.1)"/><path d="M88.5 56.9a5.269 5.269 0 1 1-5.7 4.8 5.274 5.274 0 0 1 5.7-4.8Z" style="fill:#00bc9b" transform="translate(-2.3 -2.1)"/><path d="M92 34a5.269 5.269 0 1 1-5.7 4.8A5.206 5.206 0 0 1 92 34Z" style="fill:#f8bf00" transform="translate(-2.3 -2.1)"/><path d="M55.7 19.7a3.513 3.513 0 1 1-3.8 3.2 3.626 3.626 0 0 1 3.8-3.2Z" style="fill:#5cd551" transform="translate(-2.3 -2.1)"/><path d="M91.6 78.5a3.513 3.513 0 1 1-3.8 3.2 3.482 3.482 0 0 1 3.8-3.2Z" style="fill:#ff4c9f" transform="translate(-2.3 -2.1)"/><path d="M43.7 94.8a5.277 5.277 0 1 1 6.1 4.3 5.242 5.242 0 0 1-6.1-4.3Z" style="fill:#00bef2" transform="translate(-2.3 -2.1)"/><path d="M34.7 33.7a3.609 3.609 0 0 1-4.5 2.1 3.442 3.442 0 0 1-2.1-4.5 3.511 3.511 0 0 1 6.6 2.4Z" style="fill:#ce0003" transform="translate(-2.3 -2.1)"/><path class="b" d="M53.8 43.7a5.28 5.28 0 1 1 2.6-7 5.349 5.349 0 0 1-2.6 7Z"/><path d="M66.7 66.8a3.511 3.511 0 1 1 4.5-2.1 3.442 3.442 0 0 1-4.5 2.1Z" style="fill:#3273e2" transform="translate(-2.3 -2.1)"/><path d="M67.6 88.2a3.483 3.483 0 1 1 4.9.5 3.486 3.486 0 0 1-4.9-.5Z" style="fill:#a680d0" transform="translate(-2.3 -2.1)"/></svg>