<svg xmlns="http://www.w3.org/2000/svg" width="256" height="256"><defs><linearGradient id="a" x1="859.697%" x2="-698.143%" y1="-1242.16%" y2="1243.948%"><stop offset="0%" stop-color="#00D57C"/><stop offset="100%" stop-color="#4A65D1"/></linearGradient><linearGradient id="b" x1="988.652%" x2="-569.188%" y1="-1448.005%" y2="1038.171%"><stop offset="0%" stop-color="#00D57C"/><stop offset="100%" stop-color="#4A65D1"/></linearGradient><linearGradient id="c" x1="1114.649%" x2="-443.122%" y1="-1649.037%" y2="837.07%"><stop offset="0%" stop-color="#00D57C"/><stop offset="100%" stop-color="#4A65D1"/></linearGradient><linearGradient id="d" x1="1233.081%" x2="-324.759%" y1="-1838.102%" y2="648.006%"><stop offset="0%" stop-color="#00D57C"/><stop offset="100%" stop-color="#4A65D1"/></linearGradient><linearGradient id="e" x1="1339.409%" x2="-218.363%" y1="-2007.772%" y2="478.336%"><stop offset="0%" stop-color="#00D57C"/><stop offset="100%" stop-color="#4A65D1"/></linearGradient><linearGradient id="f" x1="1428.955%" x2="-128.886%" y1="-2150.688%" y2="335.42%"><stop offset="0%" stop-color="#00D57C"/><stop offset="100%" stop-color="#4A65D1"/></linearGradient><linearGradient id="g" x1="1495.186%" x2="-62.586%" y1="-2256.396%" y2="229.711%"><stop offset="0%" stop-color="#00D57C"/><stop offset="100%" stop-color="#4A65D1"/></linearGradient><linearGradient id="h" x1="1532.393%" x2="-25.378%" y1="-2315.75%" y2="170.358%"><stop offset="0%" stop-color="#00D57C"/><stop offset="100%" stop-color="#4A65D1"/></linearGradient><linearGradient id="i" x1="1541.334%" x2="-16.437%" y1="-2330.055%" y2="156.121%"><stop offset="0%" stop-color="#00D57C"/><stop offset="100%" stop-color="#4A65D1"/></linearGradient><linearGradient id="j" x1="1523.04%" x2="-34.801%" y1="-2300.894%" y2="185.213%"><stop offset="0%" stop-color="#00D57C"/><stop offset="100%" stop-color="#4A65D1"/></linearGradient><linearGradient id="k" x1="1478.679%" x2="-79.161%" y1="-2229.986%" y2="256.121%"><stop offset="0%" stop-color="#00D57C"/><stop offset="100%" stop-color="#4A65D1"/></linearGradient><linearGradient id="l" x1="1409.147%" x2="-148.693%" y1="-2119.051%" y2="367.056%"><stop offset="0%" stop-color="#00D57C"/><stop offset="100%" stop-color="#4A65D1"/></linearGradient><linearGradient id="m" x1="1315.475%" x2="-242.366%" y1="-1969.601%" y2="516.506%"><stop offset="0%" stop-color="#00D57C"/><stop offset="100%" stop-color="#4A65D1"/></linearGradient><linearGradient id="n" x1="1200.413%" x2="-357.428%" y1="-1785.901%" y2="700.206%"><stop offset="0%" stop-color="#00D57C"/><stop offset="100%" stop-color="#4A65D1"/></linearGradient><linearGradient id="o" x1="1075.86%" x2="-481.981%" y1="-1587.139%" y2="898.968%"><stop offset="0%" stop-color="#00D57C"/><stop offset="100%" stop-color="#4A65D1"/></linearGradient><linearGradient id="p" x1="947.799%" x2="-610.041%" y1="-1382.737%" y2="1103.439%"><stop offset="0%" stop-color="#00D57C"/><stop offset="100%" stop-color="#4A65D1"/></linearGradient><linearGradient id="q" x1="820.633%" x2="-737.208%" y1="-1179.917%" y2="1306.259%"><stop offset="0%" stop-color="#00D57C"/><stop offset="100%" stop-color="#4A65D1"/></linearGradient><linearGradient id="r" x1="699.175%" x2="-858.666%" y1="-985.901%" y2="1500.206%"><stop offset="0%" stop-color="#00D57C"/><stop offset="100%" stop-color="#4A65D1"/></linearGradient><linearGradient id="s" x1="587.62%" x2="-970.22%" y1="-807.978%" y2="1678.129%"><stop offset="0%" stop-color="#00D57C"/><stop offset="100%" stop-color="#4A65D1"/></linearGradient><linearGradient id="t" x1="490.646%" x2="-1067.194%" y1="-653.232%" y2="1832.875%"><stop offset="0%" stop-color="#00D57C"/><stop offset="100%" stop-color="#4A65D1"/></linearGradient><linearGradient id="u" x1="412.999%" x2="-1144.842%" y1="-529.298%" y2="1956.878%"><stop offset="0%" stop-color="#00D57C"/><stop offset="100%" stop-color="#4A65D1"/></linearGradient><linearGradient id="v" x1="362.586%" x2="-1195.254%" y1="-448.831%" y2="2037.276%"><stop offset="0%" stop-color="#00D57C"/><stop offset="100%" stop-color="#4A65D1"/></linearGradient><linearGradient id="w" x1="341.197%" x2="-1216.644%" y1="-414.787%" y2="2071.32%"><stop offset="0%" stop-color="#00D57C"/><stop offset="100%" stop-color="#4A65D1"/></linearGradient><linearGradient id="x" x1="347.868%" x2="-1209.972%" y1="-425.378%" y2="2060.798%"><stop offset="0%" stop-color="#00D57C"/><stop offset="100%" stop-color="#4A65D1"/></linearGradient><linearGradient id="y" x1="381.431%" x2="-1176.41%" y1="-478.886%" y2="2007.221%"><stop offset="0%" stop-color="#00D57C"/><stop offset="100%" stop-color="#4A65D1"/></linearGradient><linearGradient id="z" x1="440.853%" x2="-1116.988%" y1="-573.728%" y2="1912.38%"><stop offset="0%" stop-color="#00D57C"/><stop offset="100%" stop-color="#4A65D1"/></linearGradient><linearGradient id="A" x1="517.294%" x2="-701.642%" y1="-641.205%" y2="1161.817%"><stop offset="0%" stop-color="#00D57C"/><stop offset="100%" stop-color="#4A65D1"/></linearGradient><linearGradient id="B" x1="894.009%" x2="-324.975%" y1="-1198.374%" y2="604.593%"><stop offset="0%" stop-color="#00D57C"/><stop offset="100%" stop-color="#4A65D1"/></linearGradient><linearGradient id="C" x1="894.062%" x2="-324.922%" y1="-1198.363%" y2="604.606%"><stop offset="0%" stop-color="#00D57C"/><stop offset="100%" stop-color="#4A65D1"/></linearGradient><linearGradient id="D" x1="955.261%" x2="-263.726%" y1="-1288.909%" y2="514.11%"><stop offset="0%" stop-color="#00D57C"/><stop offset="100%" stop-color="#4A65D1"/></linearGradient><linearGradient id="E" x1="979.81%" x2="-239.175%" y1="-1325.182%" y2="477.787%"><stop offset="0%" stop-color="#00D57C"/><stop offset="100%" stop-color="#4A65D1"/></linearGradient><linearGradient id="F" x1="965.732%" x2="-253.253%" y1="-1304.663%" y2="498.306%"><stop offset="0%" stop-color="#00D57C"/><stop offset="100%" stop-color="#4A65D1"/></linearGradient><linearGradient id="G" x1="916.295%" x2="-302.689%" y1="-1231.27%" y2="571.699%"><stop offset="0%" stop-color="#00D57C"/><stop offset="100%" stop-color="#4A65D1"/></linearGradient><linearGradient id="H" x1="835.204%" x2="-383.73%" y1="-1111.388%" y2="691.583%"><stop offset="0%" stop-color="#00D57C"/><stop offset="100%" stop-color="#4A65D1"/></linearGradient><linearGradient id="I" x1="742.104%" x2="-476.88%" y1="-973.597%" y2="829.372%"><stop offset="0%" stop-color="#00D57C"/><stop offset="100%" stop-color="#4A65D1"/></linearGradient><linearGradient id="J" x1="651.394%" x2="-567.591%" y1="-839.5%" y2="963.469%"><stop offset="0%" stop-color="#00D57C"/><stop offset="100%" stop-color="#4A65D1"/></linearGradient><linearGradient id="K" x1="575.158%" x2="-643.827%" y1="-726.737%" y2="1076.232%"><stop offset="0%" stop-color="#00D57C"/><stop offset="100%" stop-color="#4A65D1"/></linearGradient><linearGradient id="L" x1="526.723%" x2="-692.213%" y1="-655.181%" y2="1147.841%"><stop offset="0%" stop-color="#00D57C"/><stop offset="100%" stop-color="#4A65D1"/></linearGradient><linearGradient id="M" x1="420.933%" x2="-807.375%" y1="-541.974%" y2="1418.33%"><stop offset="0%" stop-color="#00D57C"/><stop offset="100%" stop-color="#4A65D1"/></linearGradient><linearGradient id="N" x1="392.57%" x2="-835.792%" y1="-496.746%" y2="1463.612%"><stop offset="0%" stop-color="#00D57C"/><stop offset="100%" stop-color="#4A65D1"/></linearGradient><linearGradient id="O" x1="395.065%" x2="-833.297%" y1="-500.597%" y2="1459.707%"><stop offset="0%" stop-color="#00D57C"/><stop offset="100%" stop-color="#4A65D1"/></linearGradient><linearGradient id="P" x1="430.098%" x2="-798.21%" y1="-556.616%" y2="1403.688%"><stop offset="0%" stop-color="#00D57C"/><stop offset="100%" stop-color="#4A65D1"/></linearGradient><linearGradient id="Q" x1="496.198%" x2="-732.146%" y1="-662.082%" y2="1298.193%"><stop offset="0%" stop-color="#00D57C"/><stop offset="100%" stop-color="#4A65D1"/></linearGradient><linearGradient id="R" x1="582.592%" x2="-645.716%" y1="-800.382%" y2="1159.926%"><stop offset="0%" stop-color="#00D57C"/><stop offset="100%" stop-color="#4A65D1"/></linearGradient><linearGradient id="S" x1="682.755%" x2="-545.607%" y1="-959.816%" y2="1000.488%"><stop offset="0%" stop-color="#00D57C"/><stop offset="100%" stop-color="#4A65D1"/></linearGradient><linearGradient id="T" x1="788.764%" x2="-439.58%" y1="-1128.995%" y2="831.334%"><stop offset="0%" stop-color="#00D57C"/><stop offset="100%" stop-color="#4A65D1"/></linearGradient><linearGradient id="U" x1="893.764%" x2="-334.599%" y1="-1296.584%" y2="663.72%"><stop offset="0%" stop-color="#00D57C"/><stop offset="100%" stop-color="#4A65D1"/></linearGradient><linearGradient id="V" x1="989.1%" x2="-239.262%" y1="-1448.698%" y2="511.605%"><stop offset="0%" stop-color="#00D57C"/><stop offset="100%" stop-color="#4A65D1"/></linearGradient><linearGradient id="W" x1="1059.816%" x2="-168.547%" y1="-1561.551%" y2="398.753%"><stop offset="0%" stop-color="#00D57C"/><stop offset="100%" stop-color="#4A65D1"/></linearGradient><linearGradient id="X" x1="1102.278%" x2="-126.085%" y1="-1629.338%" y2="330.965%"><stop offset="0%" stop-color="#00D57C"/><stop offset="100%" stop-color="#4A65D1"/></linearGradient><linearGradient id="Y" x1="1114.913%" x2="-113.449%" y1="-1649.512%" y2="310.792%"><stop offset="0%" stop-color="#00D57C"/><stop offset="100%" stop-color="#4A65D1"/></linearGradient><linearGradient id="Z" x1="1096.095%" x2="-132.267%" y1="-1619.469%" y2="340.835%"><stop offset="0%" stop-color="#00D57C"/><stop offset="100%" stop-color="#4A65D1"/></linearGradient><linearGradient id="aa" x1="1044.36%" x2="-184.002%" y1="-1536.876%" y2="423.482%"><stop offset="0%" stop-color="#00D57C"/><stop offset="100%" stop-color="#4A65D1"/></linearGradient><linearGradient id="ab" x1="966.486%" x2="-261.876%" y1="-1412.581%" y2="547.722%"><stop offset="0%" stop-color="#00D57C"/><stop offset="100%" stop-color="#4A65D1"/></linearGradient><linearGradient id="ac" x1="871.746%" x2="-356.616%" y1="-1261.443%" y2="698.861%"><stop offset="0%" stop-color="#00D57C"/><stop offset="100%" stop-color="#4A65D1"/></linearGradient><linearGradient id="ad" x1="767.354%" x2="-461.009%" y1="-1094.848%" y2="865.456%"><stop offset="0%" stop-color="#00D57C"/><stop offset="100%" stop-color="#4A65D1"/></linearGradient></defs><g fill="none" transform="translate(6)"><circle cx="239.326" cy="178.454" r="5.426" fill="url(#a)"/><circle cx="225.944" cy="201.173" r="5.426" fill="url(#b)"/><circle cx="208.151" cy="220.414" r="5.426" fill="url(#c)"/><circle cx="186.634" cy="235.498" r="5.426" fill="url(#d)"/><circle cx="162.064" cy="245.745" r="5.426" fill="url(#e)"/><circle cx="135.135" cy="250.47" r="5.426" fill="url(#f)"/><circle cx="107.43" cy="249.089" r="5.426" fill="url(#g)"/><circle cx="81.614" cy="241.879" r="5.426" fill="url(#h)"/><circle cx="58.432" cy="229.512" r="5.426" fill="url(#i)"/><circle cx="38.557" cy="212.652" r="5.426" fill="url(#j)"/><circle cx="22.644" cy="191.97" r="5.426" fill="url(#k)"/><circle cx="11.374" cy="168.139" r="5.426" fill="url(#l)"/><circle cx="5.426" cy="141.823" r="5.426" fill="url(#m)"/><circle cx="5.426" cy="114.066" r="5.426" fill="url(#n)"/><circle cx="11.374" cy="87.757" r="5.426" fill="url(#o)"/><circle cx="22.644" cy="63.918" r="5.426" fill="url(#p)"/><circle cx="38.557" cy="43.236" r="5.426" fill="url(#q)"/><circle cx="58.432" cy="26.376" r="5.426" fill="url(#r)"/><circle cx="81.614" cy="14.009" r="5.426" fill="url(#s)"/><circle cx="107.43" cy="6.799" r="5.426" fill="url(#t)"/><circle cx="135.135" cy="5.426" r="5.426" fill="url(#u)"/><circle cx="162.064" cy="10.143" r="5.426" fill="url(#v)"/><circle cx="186.634" cy="20.39" r="5.426" fill="url(#w)"/><circle cx="208.151" cy="35.474" r="5.426" fill="url(#x)"/><circle cx="225.944" cy="54.715" r="5.426" fill="url(#y)"/><circle cx="239.326" cy="77.434" r="5.426" fill="url(#z)"/><path fill="url(#A)" d="M165.594 89.152a7.314 7.314 0 1 1 7.56-7.053 7.322 7.322 0 0 1-7.56 7.053Z"/><path fill="url(#B)" d="M144.047 193.612a7.314 7.314 0 1 1 7.56-7.023 7.322 7.322 0 0 1-7.56 7.023Z"/><path fill="url(#C)" d="M165.594 180.685a7.314 7.314 0 1 1 7.56-7.053 7.322 7.322 0 0 1-7.56 7.053Z"/><path fill="url(#D)" d="M119.044 195.747a7.314 7.314 0 1 1 7.56-7.053 7.322 7.322 0 0 1-7.56 7.053Z"/><path fill="url(#E)" d="M95.489 187.56a7.314 7.314 0 1 1 7.56-7.054 7.322 7.322 0 0 1-7.56 7.053Z"/><path fill="url(#F)" d="M77.621 171.087a7.314 7.314 0 1 1 7.56-7.053 7.322 7.322 0 0 1-7.56 7.053Z"/><path fill="url(#G)" d="M67.553 148.652a7.314 7.314 0 1 1 7.56-7.053 7.322 7.322 0 0 1-7.56 7.053Z"/><path fill="url(#H)" d="M67.47 123.044a7.314 7.314 0 1 1 7.561-7.053 7.322 7.322 0 0 1-7.56 7.053Z"/><path fill="url(#I)" d="M77.442 100.415a7.314 7.314 0 1 1 7.56-7.053 7.322 7.322 0 0 1-7.56 7.053Z"/><path fill="url(#J)" d="M95.257 83.875a7.314 7.314 0 1 1 7.561-7.053 7.322 7.322 0 0 1-7.56 7.053Z"/><path fill="url(#K)" d="M118.574 75.598a7.314 7.314 0 1 1 7.56-7.053 7.322 7.322 0 0 1-7.56 7.053Z"/><path fill="url(#L)" d="M144.047 77.561a7.314 7.314 0 1 1 7.56-7.053 7.322 7.322 0 0 1-7.56 7.053Z"/><circle cx="205.427" cy="75.389" r="6.881" fill="url(#M)"/><path fill="url(#N)" d="M186.843 61.948a6.881 6.881 0 1 1 6.881-6.882 6.889 6.889 0 0 1-6.881 6.882Z"/><path fill="url(#O)" d="M163.026 47.767a6.881 6.881 0 1 1 6.882-6.882 6.889 6.889 0 0 1-6.882 6.882Z"/><path fill="url(#P)" d="M135.33 41.154a6.881 6.881 0 1 1 6.88-6.881 6.889 6.889 0 0 1-6.88 6.881Z"/><path fill="url(#Q)" d="M106.363 43.221a6.881 6.881 0 1 1 6.882-6.88 6.889 6.889 0 0 1-6.882 6.88Z"/><path fill="url(#R)" d="M80.405 53.462a6.882 6.882 0 1 1 6.919-6.882 6.889 6.889 0 0 1-6.92 6.882Z"/><path fill="url(#S)" d="M58.917 70.553a6.881 6.881 0 1 1 6.882-6.881 6.889 6.889 0 0 1-6.882 6.881Z"/><path fill="url(#T)" d="M43.229 93.145a6.881 6.881 0 1 1 6.881-6.881 6.889 6.889 0 0 1-6.881 6.881Z"/><path fill="url(#U)" d="M34.683 119.91a6.881 6.881 0 1 1 6.882-6.882 6.889 6.889 0 0 1-6.882 6.882Z"/><path fill="url(#V)" d="M34.564 148.995a6.881 6.881 0 1 1 6.881-6.881 6.889 6.889 0 0 1-6.881 6.881Z"/><path fill="url(#W)" d="M42.908 175.849a6.881 6.881 0 1 1 6.881-6.882 6.889 6.889 0 0 1-6.881 6.882Z"/><circle cx="58.425" cy="191.687" r="6.881" fill="url(#X)"/><path fill="url(#Y)" d="M79.785 215.816a6.881 6.881 0 1 1 6.882-6.881 6.889 6.889 0 0 1-6.882 6.881Z"/><circle cx="105.639" cy="219.376" r="6.881" fill="url(#Z)"/><path fill="url(#aa)" d="M134.56 228.549a6.881 6.881 0 1 1 6.882-6.881 6.889 6.889 0 0 1-6.882 6.881Z"/><path fill="url(#ab)" d="M162.34 222.138a6.881 6.881 0 1 1 6.881-6.882 6.889 6.889 0 0 1-6.881 6.882Z"/><circle cx="186.275" cy="201.285" r="6.881" fill="url(#ac)"/><path fill="url(#ad)" d="M205.016 187.977a6.881 6.881 0 1 1 6.882-6.881 6.889 6.889 0 0 1-6.882 6.881Z"/></g></svg>