<svg width="200" height="200" fill="none" xmlns="http://www.w3.org/2000/svg"><path fill-rule="evenodd" clip-rule="evenodd" d="M43.75 100a56.251 56.251 0 0 0 96.025 39.775A56.25 56.25 0 1 0 43.75 100Zm41.88-18.12a3.748 3.748 0 0 0-3.756 3.744v28.752c0 2.07 1.68 3.75 3.75 3.75h28.752c2.07 0 3.75-1.68 3.75-3.75V85.624a3.75 3.75 0 0 0-3.75-3.75H85.624l.006.006Z" fill="#fff"/><path d="M174.82 99.91c0-41.372-33.538-74.91-74.91-74.91S25 58.538 25 99.91s33.538 74.91 74.91 74.91 74.91-33.538 74.91-74.91Z" fill="url(#a)"/><path fill-rule="evenodd" clip-rule="evenodd" d="M56.212 99.91a43.698 43.698 0 1 0 87.397 0 43.698 43.698 0 0 0-87.397 0Zm32.532-14.082a2.909 2.909 0 0 0-2.916 2.916v22.332a2.92 2.92 0 0 0 2.916 2.916h22.332a2.911 2.911 0 0 0 2.916-2.916V88.744a2.91 2.91 0 0 0-2.916-2.916H88.744Z" fill="#fff"/><defs><linearGradient id="a" x1="99.91" y1="25" x2="99.91" y2="174.82" gradientUnits="userSpaceOnUse"><stop stop-color="#2E66F8"/><stop offset="1" stop-color="#124ADB"/></linearGradient></defs></svg>