<svg xmlns="http://www.w3.org/2000/svg" width="256" height="256"><g fill="none" fill-rule="evenodd"><circle cx="128" cy="128" r="128" fill="#033D5C"/><path fill="#FFCD00" fill-rule="nonzero" d="M125.967 63.972c1.894-.288 3.952-.124 5.64.782.823.453 1.606 1.358 1.235 2.305-.412 1.03-1.482 1.523-2.47 1.853-1.893.535-3.952.535-5.845-.083-.741-.288-1.524-.7-1.976-1.4-.412-.576-.33-1.399.123-1.893.823-.988 2.1-1.358 3.293-1.564Zm-12.555 6.175c2.058-.37 4.322-.289 6.134.823.823.453 1.482 1.482 1.07 2.429-.535 1.235-1.976 1.77-3.211 2.1-2.14.452-4.57.41-6.504-.742-.824-.494-1.523-1.564-.988-2.511.658-1.276 2.14-1.811 3.499-2.1Zm24.782-.083c2.058-.288 4.28-.082 6.092 1.03.824.535 1.565 1.605 1.03 2.593-.618 1.152-1.977 1.605-3.212 1.893-2.14.371-4.528.206-6.421-.946-.824-.536-1.565-1.565-1.07-2.553.7-1.317 2.263-1.77 3.58-2.017Zm-37.338 6.546c1.853-.289 3.87-.165 5.558.782.823.494 1.564 1.482 1.235 2.47-.33 1.111-1.4 1.729-2.388 2.14-1.976.782-4.199.865-6.216.33-.906-.289-1.894-.741-2.429-1.565-.494-.782-.288-1.852.37-2.47 1.03-1.029 2.47-1.482 3.87-1.687Zm25.111 0c2.141-.289 4.488-.124 6.299 1.152.823.577 1.317 1.73.823 2.676-.659 1.112-1.976 1.688-3.21 1.976-2.224.494-4.735.33-6.71-.906-.906-.535-1.606-1.646-1.112-2.675.782-1.441 2.428-1.976 3.91-2.223Zm25.153 0c2.14-.33 4.446-.083 6.34 1.07.781.453 1.481 1.276 1.399 2.223-.082 1.07-1.03 1.77-1.935 2.14-2.017.824-4.363.824-6.422.165-.988-.288-1.976-.823-2.593-1.646-.535-.66-.576-1.73 0-2.388.823-.947 2.017-1.359 3.21-1.564Zm-64.178 6.957c1.688-.247 3.458-.165 5.022.535.906.411 1.77 1.152 1.853 2.182.082 1.07-.741 1.976-1.606 2.51-1.893 1.153-4.198 1.441-6.421 1.153-1.235-.205-2.594-.617-3.376-1.646-.617-.741-.535-1.853.082-2.553 1.07-1.358 2.8-1.934 4.446-2.181Zm25.935 0c1.934-.289 4.034-.124 5.804.823.782.453 1.564 1.194 1.564 2.182.083.988-.7 1.811-1.482 2.305-1.893 1.194-4.28 1.4-6.463 1.03-1.317-.289-2.799-.783-3.54-2.018-.494-.782-.288-1.852.37-2.552.947-1.03 2.388-1.523 3.747-1.77Zm26.222 0c2.141-.33 4.446-.042 6.258 1.152.988.577 1.729 1.894 1.193 3.005-.782 1.4-2.387 1.976-3.828 2.223-2.264.288-4.734.083-6.628-1.276-.905-.617-1.523-1.893-.947-2.923.824-1.4 2.47-1.976 3.952-2.181Zm25.935 0c2.1-.33 4.322-.042 6.216.946.947.536 1.935 1.4 1.976 2.594 0 .988-.782 1.729-1.647 2.182-1.688.864-3.705.905-5.598.617-1.482-.288-3.005-.864-4.035-2.017-.658-.74-.782-1.976-.123-2.758.782-.906 2.017-1.359 3.21-1.564ZM71.71 91.059c1.852-.247 3.787-.247 5.475.576.947.453 1.811 1.317 1.729 2.429-.082 1.153-.947 2.017-1.853 2.593-2.017 1.235-4.528 1.606-6.874 1.235-1.276-.247-2.717-.782-3.376-2.017-.494-.988-.041-2.182.741-2.881 1.153-1.07 2.635-1.647 4.158-1.935Zm27.005 0c2.264-.33 4.816-.206 6.669 1.276.864.7 1.193 2.017.617 3.005-.7 1.194-2.058 1.853-3.376 2.264-1.934.535-4.034.577-5.927-.082-.988-.37-2.018-.947-2.47-1.976-.33-.823-.124-1.77.452-2.429 1.03-1.194 2.553-1.77 4.035-2.058Zm27.004 0c2.182-.33 4.529-.165 6.422 1.029.865.535 1.647 1.44 1.523 2.511 0 1.153-.946 1.935-1.893 2.47-2.1 1.07-4.61 1.194-6.875.576-1.194-.329-2.387-.946-3.046-2.017-.494-.74-.453-1.811.082-2.51.906-1.195 2.347-1.771 3.787-2.06Zm27.005 0c2.388-.37 4.94-.083 6.957 1.276.824.576 1.523 1.482 1.441 2.552-.123 1.235-1.194 2.059-2.264 2.511-2.182.865-4.693.783-6.916 0-1.111-.452-2.305-1.111-2.84-2.264-.412-.823-.165-1.852.452-2.51.824-.907 2.018-1.318 3.17-1.565Zm27.005 0c2.388-.37 4.94-.083 6.998 1.194 1.03.658 2.1 1.77 1.853 3.128-.37 1.4-1.853 2.1-3.129 2.429-2.47.494-5.187.124-7.327-1.194-1.112-.7-2.182-1.935-1.73-3.334.495-1.359 2.018-1.935 3.335-2.223ZM55.656 99.086c1.853-.288 3.829-.288 5.516.535.906.494 1.812 1.359 1.73 2.43 0 1.234-.947 2.222-1.894 2.88-2.1 1.4-4.734 1.894-7.245 1.524-1.235-.206-2.512-.659-3.294-1.688-.658-.906-.494-2.182.165-3.005 1.235-1.523 3.17-2.305 5.022-2.676Zm28.075 0c2.1-.33 4.405-.247 6.216.947.906.617 1.565 1.729 1.276 2.84-.37 1.482-1.77 2.388-3.087 2.964-2.182.865-4.693 1.03-6.957.247-1.07-.411-2.182-1.111-2.511-2.223-.33-1.111.247-2.264 1.029-2.964 1.112-.988 2.593-1.564 4.034-1.81Zm28.075-.041c2.1-.33 4.364-.124 6.216.947 1.07.658 1.935 1.852 1.647 3.17-.37 1.358-1.647 2.181-2.84 2.717a10.17 10.17 0 0 1-6.258.37c-1.235-.33-2.428-.988-3.17-2.058-.576-.906-.411-2.14.248-2.964.988-1.235 2.593-1.894 4.157-2.182Zm28.075 0c2.141-.33 4.488-.082 6.381 1.07.988.577 1.894 1.565 1.935 2.758-.041 1.07-.782 1.976-1.647 2.553-1.852 1.111-4.116 1.317-6.216.988-1.523-.247-3.128-.865-4.199-2.1-.782-.864-.864-2.346-.082-3.252.906-1.194 2.388-1.77 3.828-2.017Zm27.829.041c2.305-.412 4.775-.082 6.833 1.112.988.576 1.935 1.482 2.1 2.675.123 1.153-.66 2.182-1.606 2.717-1.976 1.153-4.446 1.194-6.628.659-1.523-.37-3.046-1.111-3.993-2.388-.617-.864-.7-2.181 0-3.046.782-.988 2.059-1.482 3.294-1.729Zm28.075-.041c2.47-.37 5.063.041 7.204 1.317 1.029.659 2.017 1.565 2.181 2.8.124 1.111-.658 2.099-1.605 2.593-1.688.906-3.705.947-5.599.659-1.687-.33-3.416-.988-4.692-2.264-.783-.783-1.318-1.976-.783-3.047.618-1.235 2.018-1.811 3.294-2.058Zm-158.077 8.81c1.894-.412 3.91-.495 5.722.164 1.111.412 2.223 1.359 2.223 2.594.082 1.358-.906 2.428-1.894 3.21-1.976 1.441-4.487 2.059-6.957 1.976-1.44-.123-3.046-.494-4.034-1.646-.823-.906-.7-2.347 0-3.293 1.111-1.647 3.087-2.512 4.94-3.006Zm29.145 0c2.1-.453 4.364-.495 6.299.452.988.494 1.934 1.4 1.976 2.594.082 1.276-.824 2.387-1.812 3.087-2.14 1.564-4.98 2.1-7.574 1.647-1.4-.247-2.964-.865-3.664-2.182-.535-1.07-.165-2.346.535-3.17 1.07-1.317 2.676-2.058 4.24-2.429Zm29.146 0c2.182-.495 4.61-.453 6.627.617 1.07.576 2.018 1.647 2.018 2.882-.042 1.4-1.07 2.47-2.182 3.17-1.976 1.152-4.323 1.481-6.546 1.152-1.482-.247-2.922-.823-3.87-2.017-.781-.947-.74-2.429 0-3.417.906-1.276 2.43-2.017 3.953-2.388Zm29.145-.042c2.182-.494 4.61-.37 6.628.659 1.029.494 1.976 1.317 2.305 2.47.288.988-.082 2.1-.823 2.84-1.276 1.318-3.211 1.894-5.022 1.976-2.059.124-4.24-.288-5.887-1.605-.988-.782-1.647-2.14-1.153-3.376.618-1.646 2.347-2.552 3.952-2.964Zm29.351-.04c2.511-.495 5.31-.207 7.451 1.275.947.659 1.812 1.688 1.812 2.923.04 1.112-.7 2.058-1.606 2.635-1.852 1.193-4.158 1.4-6.298 1.029-1.606-.288-3.17-.906-4.323-2.1-.823-.823-1.276-2.223-.7-3.334.7-1.4 2.224-2.1 3.664-2.429Zm28.693.081c2.346-.576 4.899-.37 7.08.66 1.07.534 2.141 1.275 2.717 2.346.494.905.536 2.058-.082 2.922-.823 1.112-2.223 1.647-3.54 1.894-2.594.37-5.393-.165-7.534-1.688-1.07-.782-2.017-2.14-1.687-3.581.37-1.359 1.729-2.182 3.046-2.553Zm29.104 0c2.47-.617 5.146-.288 7.451.824 1.318.658 2.635 1.605 3.17 3.087.33.947.041 2.059-.741 2.717-1.03.906-2.47 1.235-3.828 1.317-2.512.083-5.064-.617-7.081-2.14-.988-.782-1.894-1.976-1.688-3.335.206-1.317 1.523-2.14 2.717-2.47Zm-161.74 9.098c1.77-.206 3.622-.123 5.228.7 1.07.535 1.976 1.647 1.893 2.882-.082 1.4-1.029 2.51-2.058 3.293-1.935 1.4-4.405 2.017-6.792 1.935-1.688-.083-3.54-.536-4.61-1.976-.824-1.112-.536-2.758.328-3.788 1.441-1.81 3.788-2.717 6.01-3.046Zm29.968.041c2.017-.288 4.2-.164 6.01.906.989.617 1.853 1.688 1.812 2.923 0 1.482-1.112 2.717-2.305 3.458-2.347 1.482-5.27 1.852-7.945 1.193-1.359-.411-2.759-1.152-3.294-2.552-.535-1.235 0-2.676.865-3.581 1.317-1.318 3.087-2.059 4.857-2.347Zm30.216 0c2.1-.329 4.322-.123 6.175.947 1.153.659 2.14 1.77 2.14 3.129.083 1.358-.864 2.552-1.975 3.293-1.853 1.235-4.24 1.605-6.422 1.358-1.73-.247-3.5-.864-4.57-2.264-.823-1.029-.946-2.552-.205-3.663 1.029-1.647 3.005-2.47 4.857-2.8Zm30.216 0c2.264-.37 4.775-.082 6.751 1.194 1.153.741 2.182 1.976 2.14 3.417-.082 1.564-1.358 2.758-2.675 3.375-3.005 1.318-6.71 1.07-9.386-.864-1.194-.906-2.058-2.552-1.44-4.034.74-1.853 2.757-2.758 4.61-3.088Zm30.257 0c2.552-.411 5.269.041 7.41 1.565 1.029.7 1.893 1.77 2.017 3.005.123 1.07-.453 2.1-1.276 2.758-1.359 1.111-3.13 1.44-4.858 1.482-2.305-.041-4.693-.741-6.38-2.347-1.03-.988-1.647-2.552-.989-3.91.741-1.524 2.47-2.265 4.076-2.553Zm30.174 0a10.898 10.898 0 0 1 7.74 1.606c1.11.74 2.14 1.852 2.346 3.252.165 1.07-.453 2.14-1.317 2.758-1.194.864-2.676 1.153-4.117 1.194-2.47 0-5.022-.741-6.916-2.347-1.07-.946-1.894-2.428-1.44-3.87.534-1.564 2.222-2.305 3.704-2.593ZM62.613 127.12c1.976-.33 4.158-.288 5.97.7.987.535 1.852 1.44 2.058 2.593.288 1.318-.412 2.676-1.359 3.582-1.935 1.893-4.693 2.717-7.327 2.634-1.894-.082-3.952-.617-5.105-2.181-.864-1.153-.741-2.84.082-3.993 1.276-1.853 3.5-2.923 5.681-3.335Zm31.533 0c2.14-.37 4.446-.206 6.34.865 1.152.7 2.182 1.852 2.182 3.252.082 1.564-.947 2.964-2.182 3.787-2.388 1.605-5.516 2.017-8.275 1.235-1.358-.412-2.716-1.194-3.416-2.47-.7-1.235-.453-2.8.411-3.91 1.153-1.565 3.047-2.388 4.94-2.759Zm31.533 0c2.511-.453 5.27-.082 7.328 1.482 1.152.865 1.935 2.264 1.688 3.705-.206 1.317-1.194 2.388-2.306 3.087-2.1 1.277-4.734 1.524-7.121.988-1.688-.411-3.335-1.235-4.24-2.758-.783-1.152-.7-2.758.123-3.91 1.03-1.482 2.8-2.265 4.528-2.594Zm31.286.041c2.43-.494 5.023-.164 7.163 1.07 1.235.742 2.305 1.853 2.635 3.253.288 1.235-.247 2.552-1.194 3.375-1.482 1.359-3.54 1.812-5.516 1.77-2.347-.04-4.858-.823-6.463-2.634-.947-1.03-1.4-2.594-.824-3.911.741-1.688 2.512-2.593 4.2-2.923Zm31.574-.04c2.84-.536 5.97.081 8.316 1.852.988.74 1.852 1.81 2.058 3.046.247 1.194-.329 2.429-1.235 3.17-1.317 1.07-3.046 1.44-4.693 1.482-2.51-.042-5.063-.824-6.915-2.553-1.153-1.029-1.935-2.634-1.4-4.157.617-1.606 2.264-2.512 3.87-2.84Zm-112.3 10.99c2.1-.37 4.405-.288 6.34.783 1.152.658 2.181 1.852 2.305 3.252.123 1.687-.906 3.252-2.182 4.24-2.47 1.893-5.804 2.552-8.81 1.77-1.399-.37-2.716-1.153-3.498-2.388-.824-1.276-.618-3.046.247-4.281 1.235-1.853 3.416-2.964 5.598-3.376Zm33.139-.082c2.305-.33 4.816-.082 6.792 1.276 1.153.782 2.058 1.976 2.14 3.417.083 1.44-.7 2.84-1.81 3.746-2.182 1.811-5.229 2.346-7.987 1.811-1.729-.37-3.458-1.193-4.446-2.717-.947-1.4-.823-3.334.206-4.651 1.194-1.606 3.17-2.511 5.105-2.882Zm32.603.041c2.47-.453 5.187-.082 7.286 1.276 1.235.865 2.347 2.1 2.511 3.664.165 1.44-.617 2.923-1.77 3.787-1.688 1.318-3.87 1.77-5.969 1.647-2.346-.124-4.775-1.03-6.257-2.964-1.03-1.317-1.194-3.293-.247-4.693.988-1.523 2.758-2.346 4.446-2.717Zm33.385-.082c2.717-.33 5.599.288 7.78 1.976 1.112.864 2.06 2.14 2.183 3.581.123 1.359-.618 2.717-1.688 3.5-1.77 1.317-4.076 1.605-6.175 1.358-2.429-.33-4.817-1.4-6.298-3.376-.988-1.358-1.153-3.334-.124-4.693.988-1.4 2.676-2.1 4.322-2.346Zm-84.43 12.103c2.346-.453 4.98-.289 7.039.988 1.358.823 2.387 2.305 2.387 3.952.041 1.975-1.276 3.746-2.881 4.775-3.005 1.935-7.122 2.264-10.25.411-1.73-1.029-2.923-3.128-2.347-5.186.782-2.676 3.458-4.364 6.051-4.94Zm34.702-.083c2.347-.37 4.94-.123 6.998 1.194 1.523.906 2.717 2.552 2.758 4.364 0 2.017-1.358 3.746-3.005 4.651-3.21 1.77-7.45 1.647-10.373-.576-1.647-1.153-2.676-3.376-1.976-5.351.782-2.388 3.252-3.829 5.598-4.282Zm34.003.083c2.388-.494 4.981-.247 7.122.946 1.482.741 2.799 1.935 3.417 3.54.535 1.4.288 3.088-.66 4.282-1.358 1.729-3.58 2.47-5.721 2.552-2.923.124-6.01-.947-7.904-3.293-1.07-1.359-1.4-3.334-.617-4.94.823-1.688 2.593-2.676 4.363-3.087Zm-52.404 13.132c2.429-.577 5.105-.289 7.245.987 1.482.906 2.717 2.43 2.882 4.2.247 2.058-.865 4.075-2.511 5.269-3.252 2.51-8.275 2.717-11.568.164-1.77-1.276-2.676-3.622-2.017-5.722.823-2.634 3.376-4.322 5.969-4.898Zm36.308-.083c2.882-.576 6.052.041 8.316 1.976 1.276 1.07 2.264 2.635 2.264 4.323.082 2.017-1.153 3.87-2.84 4.898-3.54 2.14-8.48 1.647-11.527-1.152-1.605-1.441-2.429-3.829-1.647-5.928.824-2.264 3.129-3.664 5.434-4.117Zm-18.154 14.408c3.829-.823 8.48.618 10.25 4.323.988 2.14.536 4.775-1.029 6.504-2.923 3.334-8.233 3.87-11.979 1.688-1.688-.947-3.087-2.594-3.458-4.529-.412-1.81.124-3.746 1.317-5.104 1.235-1.482 3.005-2.47 4.9-2.882Z"/></g></svg>