<svg width="200" height="200" fill="none" xmlns="http://www.w3.org/2000/svg"><g clip-path="url(#a)" fill="#4CC845"><path d="M93.783 87.272v15.58c4.814 0 19.866.987 19.866-7.79.068-9.167-15.052-7.79-19.866-7.79ZM110.316 73.086c0-8.334-12.57-7.075-16.567-7.075v14.134c4.048 0 16.567.935 16.567-7.059Z"/><path d="M160.679 29H39.321A14.322 14.322 0 0 0 25 43.304v82.68a14.323 14.323 0 0 0 14.321 14.321h25.803v31.092l31.075-31.092h64.48A14.321 14.321 0 0 0 175 125.984v-82.68A14.32 14.32 0 0 0 160.679 29Zm-33.048 67.457c-1.038 11.157-9.372 14.151-21.261 14.848v11.736h-7.076v-11.583H93.63v11.634h-7.126v-11.753H72.181l1.395-8.504s5.256.085 5.103 0a2.517 2.517 0 0 0 2.67-2.347V68.613a3.657 3.657 0 0 0-4.082-3.112c.085-.085-5.103 0-5.103 0v-7.552h14.271V46.332h7.075v11.447h5.664V46.468h7.076v11.617c9.133.8 16.379 3.606 17.179 11.991.595 6.123-1.974 9.814-6.073 11.906 6.872 1.463 11.107 5.477 10.274 14.475Z"/></g><defs><clipPath id="a"><path fill="#fff" transform="translate(25 29)" d="M0 0h150v142.397H0z"/></clipPath></defs></svg>