<svg width="200" height="200" fill="none" xmlns="http://www.w3.org/2000/svg"><path d="M100 175c-41.375 0-75-33.625-75-75s33.625-75 75-75 75 33.625 75 75-33.625 75-75 75Z" fill="#1652F0"/><path d="M117.125 114.875C113.25 118.75 108 121 102.25 121c-11.625 0-21.125-9.5-21.125-21.125s9.5-21.125 21.125-21.125c5.875 0 11.125 2.375 14.875 6.125L128.75 73.25c-6.75-6.625-16.125-10.75-26.5-10.75-20.75 0-37.5 16.75-37.5 37.5s16.75 37.5 37.5 37.5c10.375 0 19.75-4.25 26.5-11l-11.625-11.625Z" fill="#fff"/></svg>