<svg width="200" height="200" fill="none" xmlns="http://www.w3.org/2000/svg"><path d="M99.912 25h-.003C58.538 25 25 58.538 25 99.909v.003c0 41.371 33.538 74.909 74.909 74.909h.003c41.371 0 74.909-33.538 74.909-74.91v-.002c0-41.371-33.538-74.909-74.91-74.909Z" fill="#222"/><path d="M103.49 57.25v5.858L71.813 72.25v36.193c-.018.281-.254 4.468 2.647 9.889 3.396 6.346 11.759 15.153 29.027 21.911v7.004c-13.76-5.346-31.398-15.198-36.97-29.134a24.059 24.059 0 0 1-1.75-9.917h-.004V68.235l2.813-.748L103.49 57.25Zm1.031 9.037 6.362 1.934v48.033l-.212 18.688a105.807 105.807 0 0 1-6.15 3.268V66.287Zm12.247 2.692 6.361 1.934v54.199s-3.913 3.704-6.361 4.936V68.977v.002Zm12.161 4.123 6.358 1.934-.179 26.41v4.811c-.019.281-.364 4.768-4.706 11.033a43.404 43.404 0 0 1-1.123 1.538l-.174.198v-17.914l-.179-28.01h.003Z" fill="#FEBA11"/></svg>