<svg xmlns="http://www.w3.org/2000/svg" width="56" height="56"><g fill="none"><rect width="55.933" height="55.933" fill="#222" rx="27.966"/><path fill="#FEBA11" d="M29.303 12.04v2.187L17.477 17.64v13.512c-.007.105-.095 1.668.988 3.692 1.268 2.369 4.39 5.657 10.837 8.18v2.615C24.165 43.643 17.58 39.965 15.5 34.762a8.981 8.981 0 0 1-.654-3.702h-.001V16.141l1.05-.279 13.408-3.822Zm.385 3.374 2.375.722v17.932l-.079 6.977c-.71.409-1.474.816-2.296 1.22v-26.85Zm4.572 1.005 2.375.722v20.234s-1.461 1.383-2.375 1.843v-22.8Zm4.54 1.539 2.374.722-.067 9.86v1.796c-.007.105-.136 1.78-1.757 4.119-.13.187-.27.378-.419.574l-.065.074v-6.688l-.067-10.457Z"/></g></svg>