<svg xmlns="http://www.w3.org/2000/svg" width="25" height="25"><g fill="none" fill-rule="evenodd"><circle cx="12.5" cy="12.5" r="12.5" fill="#2C3E50"/><path fill="#FFF" d="M17.926 12.21c-.08-.522-.195-1.017-.434-.604-.6.887-.675 1.246-1.729 2.206-1.053.96-2.353 1.745-3.54 1.864-1.903.189-3.002-.443-3.227-2.362-.145-1.24.095-2.692.653-3.963.559-1.272 1.373-2.25 2.424-3.118 1.051-.868 2.034-1.197 3.232-1.316.905-.09 1.356.344 1.356.923 0 .546-.507 1.637-2.097 1.46-.145.177-.308.773.253.996.072.035.361.142.831.035.506-.035 1.983-.772 2.17-2.028.121-.821-.498-1.498-1.001-1.732-.503-.235-1.156-.44-2.266-.35a6.973 6.973 0 0 0-3.203 1.059c-1.048.65-1.892 1.429-2.534 2.338A10.398 10.398 0 0 0 7.37 10.51c-.32 1.019-.429 1.976-.324 2.87.277 2.362 1.796 3.405 4.557 3.13 1.186-.118 2.635-.669 3.105-.918 2.28-1.136 3.258-3.123 3.218-3.381zm.278 3.651c-3.947.692-7.729 1.634-10.392 2.692-1.11.44-1.378 1.287-1.012 2.075 4.52-1.99 6.766-2.569 10.077-3.387.587-.145 1.049-.56 1.23-1.095l.097-.285"/></g></svg>