<svg width="200" height="200" fill="none" xmlns="http://www.w3.org/2000/svg"><path d="M100 175c41.421 0 75-33.579 75-75s-33.579-75-75-75-75 33.579-75 75 33.579 75 75 75Z" fill="#2C3E50"/><path fill-rule="evenodd" clip-rule="evenodd" d="M132.556 98.26c-.48-3.132-1.17-6.102-2.604-3.624-3.6 5.322-4.05 7.476-10.374 13.236-6.318 5.76-14.118 10.47-21.24 11.184-11.418 1.134-18.012-2.658-19.362-14.172-.87-7.44.57-16.152 3.918-23.778 3.354-7.632 8.238-13.5 14.544-18.708 6.306-5.208 12.204-7.182 19.392-7.896 5.43-.54 8.136 2.064 8.136 5.538 0 3.276-3.042 9.822-12.582 8.76-.87 1.062-1.848 4.638 1.518 5.976.432.21 2.166.852 4.986.21 3.036-.21 11.898-4.632 13.02-12.168.726-4.926-2.988-8.988-6.006-10.392-3.018-1.41-6.936-2.64-13.596-2.1a41.836 41.836 0 0 0-19.218 6.354c-6.288 3.9-11.352 8.574-15.204 14.028A62.387 62.387 0 0 0 69.22 88.06c-1.92 6.114-2.574 11.856-1.944 17.22 1.662 14.172 10.776 20.43 27.342 18.78 7.116-.708 15.81-4.014 18.63-5.508 13.68-6.816 19.548-18.738 19.308-20.286v-.006Zm1.668 21.906c-23.682 4.152-46.374 9.804-62.352 16.152-6.66 2.64-8.268 7.722-6.072 12.45 27.12-11.94 40.596-15.414 60.462-20.322 3.522-.87 6.294-3.36 7.38-6.57l.582-1.71Z" fill="#fff"/></svg>