<svg xmlns="http://www.w3.org/2000/svg" width="256" height="256"><defs><linearGradient id="a" x1="0%" x2="68.15%" y1="24.098%" y2="100%"><stop offset="0%" stop-color="#1B65B0"/><stop offset="100%" stop-color="#05215B"/></linearGradient></defs><g fill="none"><rect width="256" height="256" fill="url(#a)" rx="56.889"/><g fill="#FFF"><path d="M217.6 179.2V76.8l-89.89-51.2L38.4 76.8v102.4l89.31 51.2 89.89-51.2Zm-171.729-4.701V81.043l81.84-46.67 81.665 46.67v93.456l-81.666 46.727L45.871 174.5Z"/><path d="M162.644 69.818H92.956l-8.011 37.177 86.11.06zm-56.315 61.918-20.964-13.045-23.692 17.242 32.345 54.903h12.891l15.273-13.952v-6.92l-15.853-14.86zm66.554-13.045-20.851 13.215v23.368l-15.887 14.804.059 7.033 15.361 13.725h12.791l32.299-54.733z"/><path d="m105.891 111.709 7.836 19.804-2.416 22.087 35.705-.057-2.239-22.03 7.659-19.804z"/></g></g></svg>