<svg width="200" height="200" fill="none" xmlns="http://www.w3.org/2000/svg"><g clip-path="url(#a)"><path d="M169.444-25H30.556C-.127-25-25-.127-25 30.556v138.888C-25 200.127-.127 225 30.556 225h138.888C200.127 225 225 200.127 225 169.444V30.556C225-.127 200.127-25 169.444-25Z" fill="url(#b)"/><path d="M152.5 130V70L99.83 40 47.5 70v60l52.33 30 52.67-30Zm-100.623-2.754v-54.76L99.832 45.14l47.85 27.346v54.76l-47.85 27.379-47.954-27.379Z" fill="#fff"/><path d="M120.299 65.91H79.466l-4.694 21.783 50.455.035-4.928-21.819Zm-32.997 36.279-12.284-7.643-13.882 10.102 18.953 32.17h7.553l8.949-8.175v-4.055l-9.289-8.707v-13.692Zm38.997-7.643-12.218 7.743v13.692l-9.309 8.674.035 4.121 9.001 8.042h7.494l18.925-32.07-13.928-10.202Z" fill="#fff"/><path d="m87.045 90.455 4.592 11.603L90.22 115l20.921-.033-1.312-12.909 4.488-11.603H87.045Z" fill="#fff"/></g><defs><linearGradient id="b" x1="-25" y1="35.245" x2="145.375" y2="225" gradientUnits="userSpaceOnUse"><stop stop-color="#1B65B0"/><stop offset="1" stop-color="#05215B"/></linearGradient><clipPath id="a"/></defs></svg>