<svg width="200" height="200" fill="none" xmlns="http://www.w3.org/2000/svg"><path d="M99.649 1.806A100.352 100.352 0 0 1 200 102.157v51.041a44.36 44.36 0 0 1-12.994 31.381 44.363 44.363 0 0 1-31.379 12.999H44.7a44.38 44.38 0 0 1-31.379-12.999A44.375 44.375 0 0 1 .327 153.198v-52.071A99.321 99.321 0 0 1 99.65 1.806Z" fill="#F1E9EC"/><path d="M89.096 20.015h21.301a73.642 73.642 0 0 1 68.039 45.462 73.645 73.645 0 0 1 5.606 28.182v37.954a55.87 55.87 0 0 1-55.87 55.869h-56.01a55.867 55.867 0 0 1-55.869-55.869V92.817a72.803 72.803 0 0 1 72.803-72.802Z" fill="url(#a)"/><path d="M136.713 62.618a38.47 38.47 0 0 0-36.55 26.52 38.46 38.46 0 1 0-65.811 36.923 38.463 38.463 0 0 0 49.302 7.861 38.458 38.458 0 0 0 16.509-20.863 38.451 38.451 0 0 0 67.677 10.614 38.447 38.447 0 0 0 3.123-40.044 38.455 38.455 0 0 0-34.25-20.98v-.03Z" fill="#fff"/><path d="M85.601 86.306a11.7 11.7 0 1 1-19.78-12.168 28.302 28.302 0 0 0-2.005-.085 25.466 25.466 0 1 0 21.785 12.253Zm72.234-.003a11.7 11.7 0 1 1-19.764-12.152 28.284 28.284 0 0 0-1.997-.086 25.465 25.465 0 1 0 21.777 12.254l-.016-.016Z" fill="#7320D3"/><defs><linearGradient id="a" x1="100.163" y1="187.482" x2="100.163" y2="20.015" gradientUnits="userSpaceOnUse"><stop stop-color="#F7A9F2"/><stop offset="1" stop-color="#F03C7D"/></linearGradient></defs></svg>