<svg width="200" height="200" fill="none" xmlns="http://www.w3.org/2000/svg"><path d="M99.613 26A75.388 75.388 0 0 1 175 101.387v38.343a33.331 33.331 0 0 1-33.334 33.34H58.334a33.325 33.325 0 0 1-23.573-9.765 33.334 33.334 0 0 1-9.76-23.575v-39.117A74.613 74.613 0 0 1 99.612 26Z" fill="#F1E9EC"/><path d="M91.686 39.679h16.001a55.322 55.322 0 0 1 55.325 55.324v28.512a41.97 41.97 0 0 1-41.971 41.97H78.965a41.97 41.97 0 0 1-41.97-41.97V94.37a54.691 54.691 0 0 1 54.69-54.691Z" fill="url(#a)"/><path d="M127.457 71.684A28.896 28.896 0 0 0 100 91.606a28.892 28.892 0 1 0 0 17.971 28.894 28.894 0 0 0 22.979 19.555 28.884 28.884 0 0 0 27.862-11.581 28.894 28.894 0 0 0 2.346-30.083 28.889 28.889 0 0 0-25.73-15.76v-.024Z" fill="#fff"/><path d="M89.06 89.48a8.79 8.79 0 1 1-14.86-9.141 21.235 21.235 0 0 0-1.505-.065A19.132 19.132 0 1 0 89.06 89.48ZM143.325 89.477a8.784 8.784 0 0 1-9.126 5.126 8.787 8.787 0 0 1-7.398-10.946 8.787 8.787 0 0 1 1.676-3.31 21.277 21.277 0 0 0-1.5-.064 19.13 19.13 0 1 0 16.359 9.205l-.011-.011Z" fill="#7320D3"/><defs><linearGradient id="a" x1="100" y1="165.485" x2="100" y2="39.679" gradientUnits="userSpaceOnUse"><stop stop-color="#F7A9F2"/><stop offset="1" stop-color="#F03C7D"/></linearGradient></defs></svg>