<svg xmlns="http://www.w3.org/2000/svg" viewBox="0 0 200 200"><path fill="#988430" d="M100 175c41.421 0 75-33.579 75-75s-33.579-75-75-75-75 33.579-75 75 33.579 75 75 75"/><path fill="#7A6A2A" d="M100 172.598c40.094 0 72.598-32.504 72.598-72.598S140.094 27.402 100 27.402 27.402 59.905 27.402 100 59.905 172.598 100 172.598"/><path fill="#BA9F33" d="M100 171.068c39.25 0 71.068-31.818 71.068-71.068S139.25 28.932 100 28.932 28.932 60.75 28.932 100 60.75 171.068 100 171.068"/><path fill="#CFB66C" fill-rule="evenodd" d="M57.791 91.99c-.425-.388-.873-.777-1.286-1.165s-.837-.776-1.262-1.164l-1.262-1.2c-.207-.207-.425-.388-.631-.596-.207-.181-.45-.388-.656-.57-1.675-1.59-3.36-3.18-5.012-4.77a942 942 0 0 1 5.098 4.71l.594.594c.207.206.425.388.632.595l1.261 1.165c.425.388.838.776 1.263 1.2s.837.812 1.262 1.2zm-22.233-.24s6.092.63 9.066 1.055c2.754.39 11.371 1.712 11.371 1.712zm0 0c1.712.146 3.423.327 5.134.51.874.085 1.711.181 2.549.266l1.285.147 1.263.181 5.097.813 2.548.425c.838.145 1.676.304 2.55.45a60 60 0 0 1-2.55-.329l-2.548-.364-5.097-.752c-.425-.06-.838-.146-1.263-.206l-1.286-.148c-.838-.085-1.711-.206-2.549-.304a148 148 0 0 1-5.133-.691zm19.83 4.354s-6.504 1.651-8.7 2.282c-2.16.595-8.702 2.585-8.702 2.585zm0 0c-1.444.425-2.88.838-4.345 1.226l-4.345 1.165c-1.444.425-2.88.838-4.32 1.263l-2.16.594c-.716.206-1.444.388-2.184.595.716-.24 1.444-.485 2.16-.692l2.16-.691c1.444-.45 2.88-.874 4.32-1.323 1.468-.364 2.913-.753 4.381-1.105 1.395-.352 2.864-.703 4.333-1.031zm-16.492 8.872c.715-.267 8.968-4.114 10.886-5.012.96-.45 3.75-1.44 3.75-1.44zm0 0c.63-.24 1.226-.534 1.832-.813l1.796-.837 3.605-1.736c1.2-.57 2.366-1.2 3.604-1.736a24 24 0 0 1 1.893-.69l.96-.304c.327-.085.63-.182.96-.267-1.2.57-2.463 1.056-3.665 1.613-1.2.596-2.427 1.081-3.666 1.615l-3.665 1.613c-1.23.499-2.43 1.032-3.655 1.542zm.8 3.36s7.475-4.381 10.048-5.789c1.347-.752 5.704-2.913 5.704-2.913zm.001.001c1.261-.776 2.548-1.565 3.834-2.366l1.92-1.166c.655-.388 1.287-.752 1.955-1.14.655-.388 1.286-.776 1.953-1.14q.477-.296.995-.51l1.02-.51c1.347-.655 2.694-1.323 4.114-1.893-1.286.813-2.61 1.505-3.932 2.221-.655.364-1.323.692-1.978 1.056-.656.364-1.287.752-1.955 1.104-.655.388-1.286.752-1.953 1.104l-1.979 1.08zm15.691-7.743s-4.648 3.568-6.153 4.709-5.934 4.345-5.934 4.345z" clip-rule="evenodd"/><path fill="#E2CC85" fill-rule="evenodd" d="m82.063 129.369-2.378-4.503 1.383-5.631 9.866-3.81-4.199-8.616 2.075-8.702 3.896-7.792 12.04-1.893 8.846-8.434 19.102 1.444 3.75 20.425-7.221 25.716-4.113 13.313-16.676.631-7.742-5.364-9.066-3.787z" clip-rule="evenodd"/><path fill="#F1D789" fill-rule="evenodd" d="M111.311 129.223s-2.306 1.056-6.24.813c-1.138-1.529-9.11-2.245-9.11-2.245s-.996-.303-2.756.425c-1.771.72-3.447.631-5.012 1.019-1.566.388-3.12-1.65-4.32-2.075-1.2-.449-2.791-1.529-2.791-1.529l-3.36-.328-6.747-2.852-10.72-10.679-2.913 4.56-.898 5.643 3.24 6.687 8.727 7.949 17.014 4.32 10.085-2.971 12.633-5.34 3.168-3.398z" clip-rule="evenodd"/><path fill="#F4ECB4" fill-rule="evenodd" d="m50.862 91.48 2.16-6.54 2.573-4.224 8.288-.692-2.488 7.257-6.929 12.33 2.876 11.008-5.096 2.548-1.567-2.402-1.261-5.51-.085-6.19z" clip-rule="evenodd"/><path fill="#F3E19D" fill-rule="evenodd" d="m60.157 128.774-1.59-2.221s-.424-1.056-.18-1.978c.24-.934.205-.995.084-1.347s-1.14-1.566-1.08-2.61c.06-1.056-.085-1.408.691-2.245.813-.812.57-2.22.57-2.22l1.057.655.24-.364s.388.303.388.777c.084-.656-.268-3.69.533-4.381s2.221 3.24 2.221 3.24l-.873-5.704-2.246-5.849-3.993-5.34-.24-5.886v-.51s-1.833 2.816-2.342 5.04c-.364 1.529.51 3.386.328 5.582-.147 2.185-.328 2.015.205 2.88.534.866 1.833 2.646 1.324 3.932-.45 1.105-1.979.328-1.979.328s-.303.898-.716 1.226c-.145-.534-.303-.874-.594-1.2a7 7 0 0 1-.085.486s-.267-.838-.535-1.894c-.363-1.407-.752-3.264-1.103-4.259-.146.57-.51 2.305-.51 2.305l.206 2.671.995 3.665.96 2.4.935 2.936.812 1.973.655 1.505.57 3.386 2.755 2.912 1.469.656 1.067-.546.002-.001Z" clip-rule="evenodd"/><path fill="#F2E8B0" fill-rule="evenodd" d="M52.306 86.14s-1.979 3.36-2.548 6.748c-.57 3.387-1.08 6.966-.72 11.578.364 4.649 1.056 7.5 1.614 9.539.96 3.386 3.446 8.095 3.446 8.095l.085-.182a12.8 12.8 0 0 1-.995-2.488c-.328-1.287-.45-2.815-.753-3.507-.267-.692-.716-1.287-.934-2.137-.207-.812-.24-2.099-.874-3.057-.267-.389-.595-1.408-.692-2.427-.121-1.53.061-3.241-.085-4.648-.267-2.343-.448-3.932-.206-5.159s1.506-4.708 2.282-7.475c.51-1.772.206-3.265 1.14-4.806.935-1.53 1.506-2.876 1.712-3.81.24-.85-2.476 3.737-2.476 3.737z" clip-rule="evenodd"/><path fill="#F5EEC0" fill-rule="evenodd" d="M61.687 84.793s-1.019.304-1.505.838c-.485.51-.692.934-1.347 1.796s-.692 1.566-1.226 2.646c-.534 1.056-1.711 2.645-1.857 3.216-.146.57-.388 3.24-.691 4.502-.267 1.263.303 2.816.303 2.816l.691-.146s0 .898.692 1.505c.691.595.813-2.015.813-2.015l2.585-8.725 3.895-2.646.425-2.136-2.78-1.65z" clip-rule="evenodd"/><path fill="#E6DB9D" fill-rule="evenodd" d="M63.58 88.75s-1.833.121-2.73.777c-.364.266-.51.485-.898.813-.716.594-1.445 1.14-1.796 1.92-.389.776-.813 1.953-1.105 4.174-.121.935-.121 1.796-.206 2.549-.122 1.019-.303 1.832-.206 2.4.121 1.165 1.323 1.772 1.44 3.094l2.487-1.261 2.343-9.236 4.976-3.12-2.816-3.155-1.492 1.04z" clip-rule="evenodd"/><path fill="#E5CB7A" fill-rule="evenodd" d="m50.454 150.943.032-.276c.363-3.12.424-5.485.69-6.965.389-2.1.656-2.88.595-3.666-.085-1.262-.181-2.184-.06-3.155.182-1.287 1.444-2.815 1.408-3.871-.025-.838-.45-1.384-.813-1.893-.364-.51-.656-.935-.656-.935s2.488-1.711 2.464-8.604q.077.021.146.06l1.226 3.483.837 1.019 3.216 5.995 4.139 4.018 6.116 4.113 3.835 4.174.388 11.129-5.012 6.505-.821 1.486a71.3 71.3 0 0 1-17.73-12.618z" clip-rule="evenodd"/><path fill="#D8C173" fill-rule="evenodd" d="M65.765 161.589s.085-1.383 1.225-2.281c.183.303.304.595.268.813.206-.364 1.65-2.694 4.915-3.301 3.265-.595 4.053-2.973 4.053-2.973l6.93-6.298 7.924-7.294 9.636-3.386 4.503-1.105s.085.328-.085 1.056c.837-.06 2.694-.485 4.624-1.165.776-.303 1.505-.425 1.893-.024.571.534.655 1.796.691 2.548.935-.206 2.015-1.104 2.88-1.019 1.384.145 2.61 1.772 4.018 1.772 1.857 0 2.694-1.141 3.993-2.039.777-.534 1.893-1.2 2.524-1.651 1.505-1.105 17.427-5.971 17.427-5.971l5.582.364.899 5.995-.48 15.672-.179.173-25.382 13.257-35.184 5.393a70.6 70.6 0 0 1-22.493-7.736l-.18-.8z" clip-rule="evenodd"/><path fill="#F1D789" fill-rule="evenodd" d="M52.588 152.937c.5-1.046.95-1.92 1.029-2.233.062.631.177 2.014.407 3.484a74 74 0 0 1-1.436-1.252z" clip-rule="evenodd"/><path fill="#E0CD81" fill-rule="evenodd" d="m78.29 167.686 4.55-1.266.388.122s.206.121.206.533c.57-.327 1.056-.267 1.408-.484.182.388.364 1.674 1.165 1.832.837.182 1.735-.364 2.646-1.056.897-.716 1.92-1.614 2.693-1.978q.427.784.753 1.614c1.02-.813 2.791-4.114 5.315-4.054a9.6 9.6 0 0 1 3.506-4.235c2.342-1.59 3.81-1.711 5.643-1.566a9.7 9.7 0 0 1 2.646-2.366c.303.121 1.141.631 2.185.145 1.056-.484 2.244-2.366 3.81-2.608a3.68 3.68 0 0 1 2.427.509s4.56-4.527 7.707-6.032c-.122-.364-.364-1.735 3.324-4.769.207.182.061.692.207.72.06 0 .96-.388 2.099-1.263 1.408-1.055 3.094-2.16 4.114-2.463 1.92-.57 3.956.594 3.956.594q.263-.182.571-.267c.485-.085.837-.145 1.104-.24-.024.631.328 1.711 0 2.646q.572.321 1.2.509c-.206.449-.655 1.59-1.407 2.136.63.304.715.656 1.613.96-.364.51-.96 1.384-1.225 1.92-.268.571-1.227 2.937-1.652 3.835-.448.898-1.055 2.549-1.347 2.88s-1.347 1.735-2.16 2.426c.72-.267 3.666-1.165 4.915-1.505-.372.546-2.257 3.344-4.07 6.034a71.22 71.22 0 0 1-58.296 6.749z" clip-rule="evenodd"/><path fill="#DFC57C" fill-rule="evenodd" d="M63.88 88.422s-1.055 0-1.262.146c-.206.145 1.056.45 1.444.595.388.146 1.226.813 1.444 1.347.207.51 7.585 3.483 7.585 3.483l5.219-.268 1.799-2.485-3.423-2.998 2.4-7.075-3.179.51-7.645 4.56-3.836 1.468z" clip-rule="evenodd"/><path fill="#E5CC7C" fill-rule="evenodd" d="M75.34 90.765a.82.82 0 0 0 .72.388c1.08 0 2.074.267 2.487.813.692.874 2.61 3.665 2.61 3.665l4.587 1.65.296-5.401-5.012-3.483-5.704 2.1v.267z" clip-rule="evenodd"/><path fill="#D2C281" fill-rule="evenodd" d="M74.44 92.767s.837.06 1.893-.328c1.056-.389 2.791-1.226 3.544-.898 1.055.45.837 1.857 1.978 3.12.691.777 1.954.753 2.67 1.59s3.18.45 3.18.45l.933 5.04-3.75 4.806-1.226 5.97h-5.07l-4.632-1.837-2.281-5.52 1.14-5.583z" clip-rule="evenodd"/><path fill="#E2C270" fill-rule="evenodd" d="M84.248 93.01q.19.059.388.06c-.146.122-.45.389-.328 1.08.122.693.51 1.566.182 2.1a2.6 2.6 0 0 1 .57.995c.207.595.268 1.14 1.614 1.226a2.8 2.8 0 0 0-.533.425s.934.813 1.408 1.565c.485-.021 1.771-.421 1.771-.421l.267.183.57-.24s-.533-.207-.145-1.505c.364-1.141.692-1.08.72-1.165s.267-1.286.267-1.772c.182-.63.327-2.548.327-2.548l-.388-4.235-2.184-1.323-1.776-1.715-1.675 3.155-1.103 1.1-.085 2.73z" clip-rule="evenodd"/><path fill="#CCB360" fill-rule="evenodd" d="M89.502 89.466s.388 1.104.535 1.954q.077-.249.085-.51s.303 1.676.363 2.368c.121-.025.24-.061.267.06.027.12.304 1.468.24 2.22a6.05 6.05 0 0 1 2.038-2.038c.486-.304 1.056-.631 1.652-.656.934-.024 1.613.595 2.73.595 2.694 0 5.134-1.978 6.93-2.585 1.322-.45 2.463-.776 3.264-1.505.388-.327 1.08-1.055 1.711-2.136.837-1.44 1.711-2.694 2.585-2.851a5.4 5.4 0 0 1-1.2.084s.268-.267.72-.63c.453-.365.996-.814 1.772-.814 1.384 0 2.075.206 2.852.206.776-.024 1.225-.206 1.225-.206s.814.57 2.646.57c1.833.025 3.058.182 4.017.268s4.175-.267 5.097-.24a4.5 4.5 0 0 1 1.736.425l-2.973-8.64-10.682-9.336-6.359 4.502-9.783 9.782-9.465 3.507-1.979 2.22v3.386z" clip-rule="evenodd"/><path fill="#D5B457" fill-rule="evenodd" d="M110.741 84.515s.267-.267.715-.63c.448-.365.996-.814 1.772-.814 1.383 0 2.075.206 2.852.206.777-.024 1.226-.206 1.226-.206s.814.57 2.645.57c1.833.023 3.059.18 4.018.266.959.084 4.174-.267 5.097-.24a4.4 4.4 0 0 1 1.735.424l-1.347-3.896-1.565-2.972-4.467-4.892-5.4-3.179c-.024-.024-1.857-.51-1.857-.51l-4.855 2.937-4.404 11.396-.085 2.4 2.851 1.348c.716-1.2 1.506-2.16 2.246-2.282-.668.073-1.178.073-1.178.073z" clip-rule="evenodd"/><path fill="#D2B257" fill-rule="evenodd" d="M110.68 85.328c-.425.024-.776-.061-.874-.364-.364-1.02-.655-1.165-.96-1.165s-.716.655-.96.715-.533-.752-.533-.752l-.267-.121s-1.566 1.019-2.67 2.22-2.913 3.241-3.726 3.604c-.813.364-3.605.486-4.56.692-.955.207-2.014.899-2.16 1.056-.145.158.426.328.51.485.085.146-.934.085-1.02.24-.06.122.24.813.39 1.165.26-.13.546-.2.836-.206.935-.024 1.615.595 2.73.595 2.695 0 5.134-1.979 6.93-2.586 1.324-.449 2.464-.777 3.265-1.505.388-.327 1.08-1.056 1.711-2.136.461-.74.911-1.432 1.36-1.941z" clip-rule="evenodd"/><path fill="#D2B159" fill-rule="evenodd" d="M72.04 145.389s-.24-.899-2.464-3.216c-.631-.656-1.02-1.2-1.444-1.59-1.056-.996-1.675-1.262-2.427-1.833-1.65-1.225-3.447-1.225-4.83-2.73s-2.995-4.38-4.115-7.319c-1.104-2.936-1.408-3.871-1.408-3.956s.304-.655.692-.57.388.837.486 1.019q.29.448.655.837c.57.656 1.383 1.44 1.796 2.61-.085-.996-.425-2.1-.425-2.1s2.136 1.348 3.956 2.755c1.833 1.408 2.585 1.893 3.12 2.791s1.796 3.265 2.4 3.957 8.88 3.301 8.88 3.301l3.937 2.935 1.954 4.284-1.53 2.4-2.936.631-4.77-2.136z" clip-rule="evenodd"/><path fill="#C2A44D" fill-rule="evenodd" d="M61.444 130.631s.995 1.59 3.422 3.095c2.185 1.323 5.644 2.525 8.727 3.241 1.771.424 3.543.752 5.133.776 4.284.06 7.233-1.164 10.886-1.565 1.979-.207 4.406-.364 6.93-.96 3.24-.777 5.157-1.651 7.767-2.88 1.893-.874 3.629-1.529 5.036-2.367 1.978-1.164 3.422-2.463 5.097-2.851-.206.571-.424 1.59-2.075 2.646.874-.025 2.075-.085 2.075-.085s-1.164.691-3.216 2.245c-1.262.96-2.936 2.585-4.648 3.665-1.104.692-2.306 1.2-3.095 1.614-1.92 1.056-2.694 1.59-3.956 2.88.45-.024.486 0 .486 0s-1.59.206-2.73.813c-.24 0-.657-.085-1.385.121-.57.182-1.323.596-2.099.813-1.105.328-1.468.183-1.468.183l.182.364s-1.44-.025-1.92.024c.085.024.06.06.06.06a.7.7 0 0 0-.24.085c-.23.15-.484.26-.751.327-.146.024-.268.024-.45.061.06.146.534.96.753 1.44-.182.122-2.913 2.185-2.913 2.185q.128.2.206.425c.085.266.122.655.207.837.206.364.327.424.327.424s-.327.061-.898.207c-.485.121-1.08.327-1.92.449a8 8 0 0 1-.777.06c.121.268.655 1.287-.328 2.464-.983 1.176-1.287 1.348-1.59 2.1a3 3 0 0 0-.485-.304c-.328-.146-.777-.364-.935-.656a8 8 0 0 1-.364 1.141c-.303.813-.752 1.615-.837 2.221-.328-.364-.934-1.08-1.772-.934-.837.145-1.504 1.286-1.65 1.614 0-.206-.145-.364-.181-.122-.025.268-.486 3.058-3.059 5.316-.024-.571-.024-1.833-.085-2.245-.24.24-.533.594-2.281 1.347-1.712.752-1.44 1.505-1.44 1.505s-.146-1.2.776-2.464c.935-1.262 1.505-1.857 1.505-1.954a.54.54 0 0 0-.121-.267c-.122-.122-.364-.267-.364-.364.145-.06 1.59-.752 1.504-2.185-.084-1.285-.63-1.953-1.019-2.426-.06-.061.572-.51.486-.655-.06-.085-.837-.656-.934-.96a2.7 2.7 0 0 1 .121-.534c.085-.267.146-.45.122-.631-.061-.303-.39-1.141-.486-1.226.085.024.691 0 .691 0s-.484-.777-.57-1.141-.267-1.323-.364-1.504c.206.024.716.06.716 0 .025-.183-.449-.486-.24-.72.145.024.425.145.691.485-.145-.389-.388-1.141-.898-1.444.24-.085 1.056-.304 1.772.121s.96 1.019.96 1.019.425.328 1.08.814c.753.594 1.71 1.44 3.24 2.038.328.183 1.165.183 1.772.061q.4-.095.752-.303.128-.075.268-.122a6 6 0 0 0-.45-.753c.207 0 .45.025.45.025s.145-.328-.51-.96c.146-.145.328-.24.328-.485-.206-.024-.57-.328-.655-.449.12-.085.303-.364.51-.449-.183-.146-.632-.753-.838-.813q.296-.11.57-.267s-1.019-.267-1.347-.486c-.328-.24-.813-.655-1.104-.776-.304-.122-.838-.182-1.056-.425.206.061.534 0 .777 0 .181 0 .267.024.327.024-.024-.085-.024-.267.45-.327q.343-.053.655-.207s-.45-.024-.96-.509c-.51-.486-.934-.874-1.226-.935-.303-.061-.873.207-1.225.182-.486-.06-.692-.303-.692-.303s-1.614.145-5.194-2.039c-3.095-1.893-4.442-3.568-4.442-3.568a5.3 5.3 0 0 1-.837-.389c-1.165-.606-2.78-1.868-2.73-3.52z" clip-rule="evenodd"/><path fill="#CAA13E" fill-rule="evenodd" d="M106.092 57.791c.281.091.53.26.72.486.57.655.934 1.892-.364 3.216.51.181.72.24 1.165.181-.449.535-1.468 1.675-1.529 2.67-.061.813.449 1.057.449 1.057s-.777.897-.813 2.4a9.7 9.7 0 0 1 1.2-1.141c.898-.716 2.136-1.529 2.974-2.039a1.7 1.7 0 0 0 .084.63s1.565-1.286 2.88-.714c.595.267.328 1.104.328 1.104s.813-.304 1.384.267c.57.57 1.376 2.041 1.79 2.612.182.267.655.777 1.14 1.565a20 20 0 0 1 1.651 3.483c.024-.631.182-1.614 1.979-.995 1.796.63 3.834 1.954 5.545 4.56s2.135 5.547 2.997 6.667c.874 1.08 1.772 2.876 1.833 3.629.061.752-.267 3.179 1.529 9.744.509-2.038 1.286-6.565 1.286-6.565l.425-3.993.485-12.354-12.9-10.718-10.085-7.318-6.566.63z" clip-rule="evenodd"/><path fill="#B59544" fill-rule="evenodd" d="M130.061 76.177s-.183-1.2-3.216-3.24c-3.035-2.015-5.401-2.015-7.585-3.726-1.675-1.347-3.422-4.442-4.56-5.462-1.105-1.007-1.286-3.92-1.286-3.92l3.725-3.12 5.541-8.008 4.684-5.158 2.245 3.12 3.12 3.665 1.735 7.354.631 10.765-5.04 7.73z" clip-rule="evenodd"/><path fill="#C89D3A" fill-rule="evenodd" d="M133.811 89.08a13.7 13.7 0 0 0-.595-4.83c-.8-2.488-2.548-6.905-3.36-8.56-.328-1.832-.085-1.978.267-2.184s1.675-.96 2.4-3.605 2.974-2.73 2.974-2.73l1.383-1.02 2.1 5.255 1.832 4.746.57 3.629.425 3.094-.995 6.542-4.914 4.441-2.088-4.778z" clip-rule="evenodd"/><path fill="#CEB052" fill-rule="evenodd" d="M65.231 161.991v-.134q.155-.097.267-.24c.084-.122.146-.268.206-.304.122-.06.692-.24.995-.182s1.105.388 1.53.364c.873-.024 1.893-.692 3.507-.388 2.427.449 2.998 2.099 4.406 3.034.96.656 1.953.364 2.099.364h.327c.06 0 .51-.51.753-.485.485.024.533.425.837.449.716.084 2.1-.364 2.792-.182a1.33 1.33 0 0 1 .873.873c.146.449.024 1.019-.328 1.347-.752.691-1.468 1.347-1.613 1.92q.278.212.532.451a70.7 70.7 0 0 1-17.183-6.88z" clip-rule="evenodd"/><path fill="#CCA847" fill-rule="evenodd" d="M129.854 137.743s1.893-2.524 2.549-3.774c.655-1.289-2.075-17.609-2.075-17.609l5.486-17.973-.147-5.85s.267-5.4.899-7.743c.752 1.347 3.095 2.974 3.604 3.835.24-1.65 1.056-5.133.935-8.847.449.691 1.529 7.646 1.529 7.646l1.08 4.684 1.408 4.976 1.565 5.255.935 3.629.533.873.45 1.529.425 1.651 1.225 3.872.72 3.179.571 5.765q.186.662.267 1.347c.024.631-.085.995-.085 1.105s.206 1.383.122 2.342c-.122.96-.122 1.711-.875 2.4s-1.225 4.806-1.225 4.806l-1.348-.898s.268-1.226-.364-2.342c-.631-1.116-1.856-1.348-2.548-1.165-.692.145-2.075.363-2.524.752-.425.388-1.468 1.589-2.428 2.136-1.2.72-3.155.777-4.198 1.019-1.056.24-2.221.96-3.447 1.796a19 19 0 0 1-3.034 1.6z" clip-rule="evenodd"/><path fill="#C39D3C" fill-rule="evenodd" d="M129.854 164.26s.08.052.235.137a71.3 71.3 0 0 0 22.72-16.84c-.07-2.456-.16-4.974-.259-5.907-.206-1.978-.06-3.992-.121-5.157s-.716-5.911-1.019-7.136c-.328-1.226-.96-1.833-1.056-1.833-.085.025-.596 2.306-.596 2.88s-.121 1.954-.121 2.306c-.085-.024-.121-.24-.121-.328-.122.304-.267.838-.328.899s.085-.51 0-.631c-.085-.122-.24-.061-.206-.364a3.4 3.4 0 0 1 .084-.534s-.364.534-.63 1.893c-.267 1.347-.267 1.384-.364 1.505-.085.146-.57.631-.595.813-.024.327.449.655.485.837.024.304-.424 1.711-.57 2.4s-.085 2.038-.24 2.73c-.122.632-.24.996-.655 1.262.303.061.594.146.594.146s.425 1.796-.655 3.325c-.388.534-.485.777-.898 1.263-.813.897-1.444 1.92-1.505 2.584a4.4 4.4 0 0 1-.085-.595s-1.262 1.469-1.796 2.307c-.691 1.08-1.65 1.019-1.92 1.286s-.328.752-.24 1.141c-.24.06-.691.145-.995 1.08-.146.485-.51.96-1.08 1.286s-1.263.425-1.615.51c.304.085.425.085.571.181-.182.304-1.019.777-1.954 1.384-.934.571-1.384 1.408-1.614 1.954-.24.51-.595.838-1.165.898.24.146.595.485.777.595-.267.061-.72.061-1.529.753-.85.704-1.141.91-1.53.971z" clip-rule="evenodd"/><path fill="#D2BA6B" fill-rule="evenodd" d="M112.968 169.884a6.8 6.8 0 0 1 1.499-.794c1.892-.752 3.895-.898 4.684-1.14.752-.24 1.347-.572 2.281-.753-.025.213-.045.413-.068.601a71 71 0 0 1-8.4 2.086z" clip-rule="evenodd"/><path fill="#C0993A" fill-rule="evenodd" d="M147.88 120.098s-.388 2.099-1.08 3.422-1.44 3.155-1.44 3.155q.007-.621.146-1.226c-.874.509-2.998 1.736-3.6 2.281-.571.51-1.53 1.408-1.772 1.833.57-1.674 1.165-3.179 1.262-3.871-.873.631-4.952 3.993-7.075 6.214l-6.614 5.352a23 23 0 0 1-2.355 1.102c-1.14.485-2.487.898-3.482 1.286.267-.716.691-1.348 1.286-1.954.631-.594 2.524-2.646 2.815-3.6.268-.995.328-1.59-.024-2.427-.328.085-1.08.121-1.589.267-.51.146-1.056.691-1.056.691s.388-2.221 1.225-4.32c-.631.024-1.711.206-1.711.206s1.505-2.524 4.08-4.283c-.789.167-1.56.407-2.305.715-1.505.631-3.156 1.565-4.381 2.075.691-.96 5.545-7.888 8.434-14.345 2.88-6.444 3.956-8.094 4.587-11.553.328-1.71.24-4.24.328-6.504.084-2.246.364-4.26.182-5.608.752.935 3.568 3.568 3.665 9.455.085 5.885-2.694 13.835-5.643 18.118.72.207 2.585.45 4.502-2.88s1.894-4.259 2.586-5.643c.084.692.06.934.06.934s2.792-3.385 4.114-7.645c.267 1.833 1.056 3.447-.182 6.809-1.104 3.033-2.548 3.774-2.548 3.774s.716-.122 1.771-.753c.182.449.146.96.449 1.141s.716.486.777.777c.327-.486.837-1.105.995-1.566-.121.96-.206 5.158.24 7.294.936-.085 1.894-.146 2.549-1.833-.449 1.651-.449 2.646-.145 4.054.497-.34.946-.947.946-.947z" clip-rule="evenodd"/><path fill="#A88F33" fill-rule="evenodd" d="M116.347 53.204s-.934.388-2.524.388c-1.383 0-.995-.533-3.155-.533-3.325 0-14.94 1.92-16.979 1.892-1.323-.024 4.466.57 4.466.57l14.795.207 2.972-.24 1.105-2.248z" clip-rule="evenodd"/><path fill="#E3C571" fill-rule="evenodd" d="M77.986 82.124s-1.894 1.444-2.695 2.549-1.225 1.832-2.136 2.73q.323.012.632-.085s0 .24-.146.304a.85.85 0 0 1 .691.24c-.267.145-.995.874-.425 1.736.425.655 1.324.715 1.324.715s-.207.595.655.534c1.857-.084 3.932-.898 4.89-.692.96.24 1.506.328 2.185 1.506.72 1.165 1.347 1.347 1.347 1.347s.425-1.08.328-2.694a8 8 0 0 0 .57-2.73l-.63-4.649-2.755-3.483-3.568 1.978-.267.692z" clip-rule="evenodd"/><path fill="#D8B65B" fill-rule="evenodd" d="M81.371 81.432s.267.631 1.384.691c-.121.268-.121.304-.085.51l.06.51q.186-.09.328-.24c.061.267-.06.69 0 .995q.057.279.182.533.027-.062.06-.12c.025-.061.24.655.838 1.2a.5.5 0 0 1 .06-.24c.01.152.06.299.146.424a.4.4 0 0 1-.12-.084s.06 1.92.387 2.912a1.4 1.4 0 0 0 .146-.206c0-.06-.024.534-.085.96-.085.425-.024 1.02-.024 1.02.219-.173.46-.316.715-.426.364-.146.96-.595 1.323-1.59q.316-.847.486-1.735c.117.226.198.469.24.72.025.303.595.145.595.145l.122-1.323.72-2.997.655-1.857 3.155-4.915 5.7-4.39 4.977 1.14 4.198-5.703-7.233-4.345-6.844.716-6.212 8.604-4.976 7.804z" clip-rule="evenodd"/><path fill="#D3AE4D" fill-rule="evenodd" d="M117.221 68.981s-.425.085-1.65.72c-1.226.635-2.076.837-2.549 1.771-.474.935-.51 1.675-.51 1.675s.838-.364 1.323-.485c.51-.121 1.08-.085 1.02.121q-.09.214-.24.388s.96-.024.934.45-.182.995-.363 1.226c-.183.24-.935.595-1.019.874-.207.57.084.594-.025 1.055-.085.45-.485 1.323-1.796 2.852-1.347 1.53-1.92 2.61-1.92 2.61s-.655-1.226-.995-2.282c-.24.121-1.529.837-1.529.837l-2.986-10.4.06-.692s.267-.327.328-.934c-.449-.146-.509-.268-1.105-.837-.595-.57-1.08-1.263-2.074-1.736-.146-.267-.328-.63-1.056-.777a19 19 0 0 1-1.165-.266s.388-.147.571-.45c-.45.06-.813.206-1.796.182-.996-.024-1.105-.06-1.65.024-.546.085-1.2.328-1.445-.51-.267-.206-.838-.023-1.323.692-.486.715-.655 1.286-1.59 1.566-.065.412-.21.807-.425 1.164-.267.45-.691.899-1.262 1.566-.898 1.056-.753 2.791-2.185 4.114-1.444 1.323.24-3.665.24-3.665l2.306-5.52 6.566-6.42 10.194-.691.995 5.28 4.976 1.71 3.143 4.794z" clip-rule="evenodd"/><path fill="#CAA13E" fill-rule="evenodd" d="m118.835 70.146-4.284-6.177-2.997-2.306s-2.136-3.932-2.282-4.053c-.122-.085-2.136-.303-3.422-.388l.24.594c.28.091.53.26.72.486.57.655.934 1.892-.364 3.216.509.181.72.24 1.164.181-.448.535-1.468 1.675-1.528 2.67-.061.814.448 1.056.448 1.056s-.776.898-.812 2.4a9.6 9.6 0 0 1 1.2-1.14c.898-.72 2.136-1.53 2.973-2.04a1.7 1.7 0 0 0 .085.631s1.565-1.286 2.88-.716c.594.267.327 1.105.327 1.105s.814-.303 1.384.267c.571.57 1.383 2.038 1.796 2.61.182.267.655.776 1.14 1.564a19.7 19.7 0 0 1 1.651 3.484c.024-.486.122-1.165.96-1.165l-1.274-2.282z" clip-rule="evenodd"/><path fill="#F4EFC8" fill-rule="evenodd" d="M54.612 87.694s-.303-.753 0-2.22c.303-1.469.777-2.16.934-4.32s1.566-4.855 1.566-4.855l3.895-1.771 2.756.752.812 3.69-3.483 1.92s-.181.812-1.165 1.467c-.983.656-2.342 1.165-2.67 1.833q-.294.616-.424 1.287s-.995-.207-1.59.448c-.63.668-.607 1.263-.63 1.772z" clip-rule="evenodd"/><path fill="#EBCC73" fill-rule="evenodd" d="M62.476 86.711s-.328.207-.57.72c-.24-.388-.814-2.694-.838-4.77s-.148-2.589.332-3.304 2.362-1.469 2.095-2.757c-.267-1.226-1.384-1.735-2.755-1.383-.96.24-1.674 2.281-2.67 3.3-.752.777-1.65.656-1.892 1.08-.328.571-.025 1.141-.122 1.505-.025.122-.328.777-.874 1.566-1.104 1.59-2.973 3.835-3.216 5.85.084-1.141.024-1.165.328-2.428l-.183-.303 1.2-3.932.777-3.24 1.736-5.425 3.058-5.546 2.973-3.326 3.095.207.364 4.648 1.772 8.726 3.725 4.587-5.971 4.019-2.366.206z" clip-rule="evenodd"/><path fill="#E5C66B" fill-rule="evenodd" d="M64.333 88.36s-.51.122-.692.025c-.183-.097-.363-.207-.303-.328s.387-.327.387-.425a.34.34 0 0 0-.303-.364c-.279-.036-.364.146-.364.146s-.267-.206-.484-.24a3 3 0 0 1 .388-.025 3.8 3.8 0 0 0-1.056-.303c.303-.182.898-.716 1.286-.716s.631-.06.57-.267c-.06-.206-.364-.51-.69-.63.12-.147.206-.365-.086-.96-.304-.595-.182-.996-.084-1.14.084-.183.387-.51.533-.717s.267-.486.51-.631c.121-.085.51-.24.898-.388.425-.146.777-.328 1.02-.146.266.182.145.425.145.425s.838-.304 1.59.085c.752.363 2.585.594 2.585.594l.657 1.323-4.345 3.726-1.796.898-.364.06z" clip-rule="evenodd"/><path fill="#E6BD62" fill-rule="evenodd" d="M70.364 82.27s-1.347.898-1.65 1.225c.181.025.484.147.363.328-.146.182-1.02.813-1.505 1.408-.51.595-.995 1.347-1.165 1.711-.181.328-1.565 1.287-2.038 1.408.995 0 2.998-1.226 3.75-1.226-.025.364.206.777.63.813s1.651.267 3.302-.752c1.65-.995 1.104-1.736 1.796-2.221 1.323-.874 1.856-1.651 2.584-2.136s1.105-.595 1.105-.595.024-.364.24-.327a.33.33 0 0 1 .267.206s1.263-.898 2.88-1.14a.17.17 0 0 1-.085-.086s.121-.06.146-.121c0 0 .085-.122.146-.061.06.06.145.51.267.692.267-.122.777-1.262.777-1.262l1.226-3.508v-3.204l-.96.183-7.2 3.057-4.37 4.528-.51 1.08z" clip-rule="evenodd"/><path fill="#B6933F" fill-rule="evenodd" d="M91.092 66.554a4 4 0 0 0 1.108-.45c-.146.389-.146.814-.777 1.736-.631.923-.655 1.056-1.165 2.015-.51.995-.57 2.427-1.056 3.057q.329-.16.692-.205s-.485.424-.692.873-.57 1.383-1.468 1.955c-.897.57-2.039.934-3.264 2.281-1.227 1.323-2.488 2.998-3.12 3.6.328-.57.776-1.711.898-2.463s-.025-1.651.182-2.646c.206-.994.206-1.71 1.2-3.447.993-1.736 2.694-7.767 2.694-7.767l3.665-1.165 1.105 2.622z" clip-rule="evenodd"/><path fill="#C49937" fill-rule="evenodd" d="M88.446 64.333s-1.104 1.59-1.407 2.998-.025 1.286-.206 1.978a2.6 2.6 0 0 0 0 1.286 4.6 4.6 0 0 1 1.527-1.505c1.044-.63 1.894-1.08 2.4-1.614.51-.57.934-1.505 2.038-2.22-.448-.061-1.08-.268-1.2-.24.45-.51 1.796-1.287 3.156-2.221 1.347-.96 1.262-1.348 3.447-2.306-.716.122-1.056-.06-1.651 0 .24-.51 1.08-.753 1.92-1.59.84-.836-.534-2.075-.534-2.075l-6.4 3.871-3.094 3.641z" clip-rule="evenodd"/><path fill="#DFC068" fill-rule="evenodd" d="m71.08 61.444.146-1.165 1.832-2.936 1.918-5.158v-7.051l-.145-4.078.303-2.67.23-.849.243-.328 1.565.813 2.16 2.937.207 5.668-2.1 8.944-5.995 6.541z" clip-rule="evenodd"/><path fill="#A88F33" fill-rule="evenodd" d="M75.85 36.88s-.96.026-1.165 4.018-.304 6.092-.45 8.07c-.145 1.98-.485 3.18-.655 4.345-.17 1.166-.267 2.755-.813 3.726-.24.449-.753 1.857-1.954 2.913-1.347 1.165-3.36 1.978-3.665 2.04-.534.12-3.24.387-4.345.994-.388.207-1.056.45-1.796 1.141-1.469 1.323-3.422 3.689-4.83 6.54-2.16 4.26-4.32 16.287-4.32 16.287l.485-.813s.061-1.08 1.141-2.973c1.056-1.893.753-4.017 2.22-7.646.571-1.383 1.287-3.179 2.16-4.709 1.385-2.487 3.06-4.624 4.746-5.788 2.755-1.893 5.79-2.306 5.79-2.306l3.264-2.16s.57-1.104 1.323-2.366c1.055-1.771 2.4-3.75 2.694-6.626.45-4.26-.631-7.051-.57-9.575.06-2.524.084-4.38.595-4.83.51-.45.145-.28.145-.28v-.001Z" clip-rule="evenodd"/><path fill="#C99E3D" fill-rule="evenodd" d="M75.85 55.935s1.44-3.544 2.099-6.688c.121-.63.364-1.261.425-1.77.303-2.974.388-4.2 0-5.826-.304-1.2-1.468-2.282-2.076-3.12-.594-.875-.873-1.2-.752-1.384.122-.184.595-.485 1.055-.45a3.6 3.6 0 0 1 2.586 1.2c.934 1.08 1.675 4.746 1.675 4.746l.778 4.837 1.978 6.092-7.767 2.367z" clip-rule="evenodd"/><path fill="#B58634" fill-rule="evenodd" d="M89.38 52.245s-.266.121-.751 0a1.08 1.08 0 0 1-.486 1.02c-.51-.207-5.28.206-5.28.206s-2.22-.389-2.913-3.326c-.484-1.954.364-4.648.085-6.42-.425-2.61-1.019-3.12-1.08-3.932-.06-.812-.121-1.019-.121-1.528-.268-.061-.425-.146-.692-.146-.06-.24.06-.45-.206-.874.146.06 1.14.182 2.306 1.286.96.898.96 1.226 1.104 1.408.182.182 1.65 1.44 2.282 2.694.631 1.255 1.857 5.255 2.136 5.91.085.267.267.534.72 1.14.704.875 1.735 2.32 2.9 2.56z" clip-rule="evenodd"/><path fill="#A88F33" fill-rule="evenodd" d="M81.518 40a34 34 0 0 1 1.977 3.69c.716 1.613 1.141 2.936 2.04 4.016-.486-1.407-1.348-4.174-1.857-5.157-.57-1.04-1.736-2.16-2.16-2.548z" clip-rule="evenodd"/><path fill="#E6C367" fill-rule="evenodd" d="M73.265 59.952s-1.226.303-3.508 1.505a38 38 0 0 1-2.16 1.019c-1.797.813-3.725 1.564-5.255 1.978.122.146.182.206.182.206s0 .595.328.934c-.182.183-2.61 1.833-1.893 7.355.485-.182 1.055-.425 1.14-.425.147.025.183.425.364.425.182 0 .777-.24 1.408-1.056-.024.328-.388 3.629 1.566 5.85.364-.425 1.286-1.833 1.286-1.833l.024-.45s.085-1.565.595-2.997 1.505-2.488 1.505-2.488l5.193-7.415-.777-2.609z" clip-rule="evenodd"/><path fill="#DCBA5A" fill-rule="evenodd" d="M68.41 70.84a2.9 2.9 0 0 1-.776.388c-.085-.303-.207-1.347.51-2.366.837-1.227 2.669-2.816 3.178-4.08.328-.814.183-2.852 3.096-5.462 2.912-2.61 4.052-3.507 4.052-3.507l4.71-2.367 5.788 2.282L86.092 67l-2.233 5.28-8.88-1.674-6.57.234z" clip-rule="evenodd"/><path fill="#E9CE77" fill-rule="evenodd" d="m71.8 67.78 1.105-1.384v-.983s1.225-.328 2.548-1.675 3.155-3.932 4.77-3.775c1.614.183 1.771 3.508 1.832 4.443s.267 3.057.595 4.199c.364 1.14-3.932 5.46-3.932 5.46L75.8 76.288z" clip-rule="evenodd"/><path fill="#CDAE50" fill-rule="evenodd" d="M75.219 79.296s.898-1.408.24-1.711c.388-.874 1.103-1.796 1.103-1.796s.51-1.262 2.16-2.816 2.67-2.585 2.938-3.628c.165-.68.254-1.376.267-2.076q.27.22.57.388c.268.122 1.53 1.165 1.348 3.265s-.96 2.974-.96 2.974-.752.752-1.286 1.14c-.57.389-.776.838-1.736.874q.15-.118.328-.182s-.995-.12-1.53.364c-.534.485-1.67 1.978-2.24 2.428-.57.364-1.2.777-1.2.777z" clip-rule="evenodd"/><path fill="#D2A83E" fill-rule="evenodd" d="M115.57 55.691a14.6 14.6 0 0 0-4.465-.873c-2.549-.085-6.275.06-9.927.084-3.932.024-7.5-1.347-12.452-1.59-.812-.485-2.88-2.609-9.332 1.894.388-.024 4.684-.996 6.176.874 1.505 1.857 1.08 5.012.875 5.764-.389 1.675-1.651 4.114-2.16 5.826-.509 1.71-.389 2.61-.753 3.81s-1.165 1.796-.692 3.18c.631-.389.96-.389 2.014-2.755 1.055-2.367.838-4.054 2.586-6.056 1.711-2.015 4.56-4.77 5.643-5.462s9.684-5.157 18.69-.897c2.172-.23 3.798-3.8 3.798-3.8z" clip-rule="evenodd"/><path fill="#C29637" fill-rule="evenodd" d="M83.022 54.04a1 1 0 0 0-.06-.267 2 2 0 0 0-.328-.486s-2.136-.388-3.216-.267c-1.894.206-3.605 2.549-4.406 3.75s-1.796 3.058-2.876 4.017a.4.4 0 0 0-.06-.267s.06.085-.06.206c-.122.122-.122.182-.062.24l.183.182c.06 0 1.735-.753 4.017-2.88 2.427-2.22 4.284-3.36 5.255-3.75.518-.22 1.06-.38 1.613-.478" clip-rule="evenodd"/><path fill="#AC8132" fill-rule="evenodd" d="M124.454 44.915s-.388.485-.874 1.02c-1.08 1.14-2.488 2.426-3.69 3.749-1.14 1.262-2.426 2.245-3.871 3.896s-3.12 3.482-3.544 4.017c-.388.534-.691 1.408-.691 1.856-.206-.145-.449-.303-.449-.303q.154.286.364.535c.303.424.776.96 1.019 1.286.299.416.513.886.631 1.383.145.024 1.08.207 2.245-1.711s2.694-4.017 2.694-4.017l2.427-3.605 1.53-3.057 1.92-3.423.292-1.626z" clip-rule="evenodd"/><path fill="#A88F33" fill-rule="evenodd" d="M126.942 42.464s-1.468 1.2-2.039 1.92c-.57.72-1.92 2.61-1.92 2.61l.486-.061 2.464-2.184.96-1.712.049-.57z" clip-rule="evenodd"/><path fill="#A67A2E" fill-rule="evenodd" d="M126.493 138.908s-.024-.995.534-1.589c.571-.596 2.015-1.469 3.423-4.746s1.564-4.017 1.564-4.017-2.524 2.16-4.08 2.67c.364-.753.571-1.287.753-1.675-.206-.182-1.08-.388-1.165-.485.485-.486.752-1.675 1.736-2.464 1.262-.96 3.568-2.61 5.36-4.08s5.315-4.891 5.764-5.886c.268.388.328.631.328.631s-1.772 2.306-2.694 3.774c-.814 1.262-.753 1.978-.753 1.978l1.675-.72s.485 1.796-1.711 4.528c.96-.364 1.347-.146 1.893-.45-.898.571-2.136 1.348-3.301 3.483-1.141 2.136-2.694 4.624-5.315 6.177-2.549 1.638-4.018 2.864-4.018 2.864z" clip-rule="evenodd"/><path fill="#8C6228" fill-rule="evenodd" d="M119.915 56.954s-.995 2.075-1.141 3.689c-.024.389-.121.692-.121 1.14-.024 1.445.085 3.06-.24 3.811-.122-.303-.183-.51-.304-.63-.182.51-.51 2.099-.777 2.693-.121-.388-.388-1.735-.363-3.324.025-1.59.06-1.894.06-2.221-.06.485-.388 1.14-.51 1.529-.181-.328-.388-.752-.631-1.104-.146.24-.327.594-.485.776a11 11 0 0 1-.121-1.08c-.024-.63-.061-1.444-.024-1.614.06-.327.57-1.614 1.65-2.791 1.286-1.408 2.61-4.114 2.998-4.951.388-.838 2.038-4.32 2.038-4.32h1.262l-1.832 4.174s-1.104 2.282-1.675 3.12c-.57.838-1.772 3.24-2.306 4.175.388-.51.716-.777 1.105-1.262.376-.34 1.419-1.808 1.419-1.808z" clip-rule="evenodd"/><path fill="#CBA94C" fill-rule="evenodd" d="M126.966 42.306a5.2 5.2 0 0 1-.96 1.736c-.752.898-2.367 2.099-3.155 3.057-.72.935-2.16 3.484-1.505 6.505.24-.655.692-1.953 1.893-3.422s2.488-3.156 3.12-4.466c.631-1.323.715-2.366.715-2.366l.24-.303-.145-.692-.207-.05z" clip-rule="evenodd"/><path fill="#A88F33" fill-rule="evenodd" d="M151.541 122.803s-.485-1.322-.631-2.524c-.145-1.201.24-1.44-.206-2.815-.267-.837-.752-.72-.874-.837-.121-.118-.206-1.384-.182-2.076s-.024-1.589-.146-1.978c-.181-.146-.303-.267-.57-1.165-.303-.898-.449-1.347-.595-1.613-.145-.267-.571-.51-.571-.777 0-.535.486-.813.486-.96-.024-.303-.388-.06-.486-.146-.121-.145.304-1.019.147-1.141-.061-.06-.486.45-.596.304-.121-.146-.267-1.59-.485-2.548-.206-.935-.425-1.614-.449-1.893-.024-.267-1.675-4.976-2.075-6.117a29 29 0 0 1-.813-2.937c-.122-.57-.206-1.736-.267-1.614s-.024.716-.122.692c-.085-.025-.388-2.1-.485-2.427-.084-.328-.595-1.44-.72-2.245-.121-.814-.388-2.938-.57-4.382s-.267-2.038-.267-2.4c.03-.884-.019-1.77-.146-2.645-.24-1.53-.72-3.387-1.141-4.466-.812-2.04-2.973-7.258-3.36-8.556 0-.328.425-.146.425-.146s1.055 2.646 1.832 4.684c.753 2.04 1.469 3.836 1.651 4.018.146.182 1.287 2.184 1.796 5.46.51 3.278.692 6.3.996 8.314.145.96.267 1.978.57 2.997.327 1.105.837 2.246 1.505 3.993.57 1.469.995 2.694 1.225 3.75.268 1.348.268 2.367.425 3.035.147.57.364 1.71.875 3.36a91 91 0 0 0 1.771 5.097c.996 2.645 1.44 4.854 1.59 6.032.133 1.213.583 5.412.461 6.674z" clip-rule="evenodd"/><path fill="#BE9C44" fill-rule="evenodd" d="m127.027 42.16-.061.146s.182.06.146.304q.004.499-.061.995c-.06.425-.181.752-.205 1.019 0 .57.084 1.226-.72 2.852-.24.449-.388.837-.51 1.104-.303.655-.364.753-.631 1.056.425-.24 1.954-1.2 2.73-1.056-.533.303-1.347.898-1.857 1.675.122.024.632.122 1.44 0 1.348-.206 2.852-.692 4.175-.595 1.445.085.874-1.735.874-1.735l-1.667-3.665-3.155-2.22z" clip-rule="evenodd"/><path fill="#A17C34" fill-rule="evenodd" d="M135.255 69.612s-1.408-1.408-1.978-6.24c-.57-4.854-.449-12-.449-12l-1.141-2.791s-.24-1.857-.837-2.548c-.598-.691-1.771-1.857-2.306-2.427-.534-.57-1.141-1.348-1.505-1.47.182-.302.996-2.014 4.114-2.038s4.08 1.712 4.406 2.343 1.796 3.36 2.341 8.56c.51 5.193.535 5.582.45 7.378-.061.995-.389 3.301-.96 5.764-.522 2.088-1.092 4.419-2.136 5.474z" clip-rule="evenodd"/><path fill="#8C6228" fill-rule="evenodd" d="M130.84 73.75c.469.034.938-.072 1.347-.304.449-.024 2.076.183 3.325-1.407.085.363.304 1.347-.267 2.22.304-.303.753-.424.814-.509.024.45.448 1.832-1.348 5.194.485-.534 1.056-.51 1.565-.57.025.63.364 2.754-.533 3.895-.595.777-1.566.534-1.566.534q.021-.255 0-.51c-.024-.328-.146-.655-.06-.873a4.4 4.4 0 0 1-1.262-.874c-1.056-.996-2.428-2.694-2.524-3.957-.122-1.407 1.14-1.71 1.14-1.71a1.4 1.4 0 0 1-.267-.329c-.061-.205-.121-.533-.364-.8" clip-rule="evenodd"/><path fill="#92723A" fill-rule="evenodd" d="M121.48 58.483s-.061-.085-.388.303c.061-.388.122-.753.146-1.105.155-.325.355-.628.595-.897-.183.363-.304.691-.304.691s.449-.838 1.105-1.347c.448-.364 1.019-.534 1.261-.874.267-.364.207-.425.267-.485 0 0 .596-.388 1.506-1.53.121-.146.303-.303.425-.449.205-.085.691-.303 1.261-.595.596-.327 1.263-.776 1.676-.96.812-.364 1.675-.327 2.075-.898.303-.085.63-.996.57-1.772.449.182 2.755 1.614 3.544 4.745.571 2.221-.449 5.643-.874 7.295-.425 1.65-.485 2.876-1.08 3.628-.753.996-3.179 2.4-3.775 3.095-.509.57-2.038 2.014-1.978 3.057.061.777 1.019 1.2 1.226 1.348.208.147.206.328.595.24s.533-.268.692-.268c.181.024.181.061.266.061a1 1 0 0 0 .183-.025s-.061 1.105-2.646 1.44c-.182.025-.364.085-.595.122.304-.146.485-.146.813-.594-.364-.061-1.408-.122-1.675-.207.085-.145.364-.534.595-.716.206-.181-.024-.24-.206-.145a10 10 0 0 0-.898.69c-.304.268-.571.632-1.056.96-.146-.485-.122-1.407.449-2.074-.146.024-.425.448-.692.364a3.9 3.9 0 0 1 .085-1.324c.146-.546.934-1.504.934-1.504l3.811-6.81.813-5.157-8.726 1.695z" clip-rule="evenodd"/><path fill="#B18E3E" fill-rule="evenodd" d="M121.275 58.774s-.207.146.206.425c-.061.085-.206.388-.389.594-.205.24-.425.39-.509.596-.182.424-.328.716-.328.898s-.06 1.347-.57 2.1c-.182.266-.389.715-.534 1.018-.304.534-.571.96-.632 1.2-.12.425-.205 1.59-.205 1.59l.364-.449c-.147.303-.304.63-.535.874.146-.122.571-.425 1.287-1.056.995-.837 2.549-2.245 4.442-3.36-.571.206-1.056.206-1.444.267.303-.303 3.034-3.507 4.466-3.81a.57.57 0 0 0 .121-.39l-1.226-.12-2.488.534-.363-1.92-1.663 1.007z" clip-rule="evenodd"/><path fill="#543E26" fill-rule="evenodd" d="M125.231 69.697s-.328.327-.631 1.14a3.8 3.8 0 0 1-.595-.813c-.449-.752-1.14-1.711-2.755-1.165-.024-.51-.06-.776 0-1.14.268-.06 1.08-.716 1.893-1.675.571-.655 1.105-1.408 1.469-2.366.24-.183.655-.486 1.2-.838.777-.533 1.711-1.262 1.857-2.075-.364.146-1.141.51-2.307.45.45-.207 1.141-.425 1.056-1.324.183-.121.328-.206.328-.206a1.2 1.2 0 0 0-.424-.06c-.025-.086-.061-.206-.268-.146-.206.06-.24.06-.267.145-.085.025-.364 0-.57.147-.207.146-.777.63-.995.715.084-.146.205-.363.205-.363s-.594.06-1.019.24c-.777.267-1.674.752-2.585 1.225.085-.145.122-.24.182-.267s.206-.06.206-.085-.06-.24-.024-.327q.41-.867.96-1.65c.425-.572.51-1.384.51-1.384l1.857-.935 5.218-1.2 3.386.207-.424 2.342-2 4.09-1.712 3.725-1.954 2.283-1.796 1.31z" clip-rule="evenodd"/><path fill="#806031" fill-rule="evenodd" d="M133.69 59.56s-2.04 2.524-2.61 2.913c.364-.777 2.61-5.4 3.422-6.687-.181-.146-.424-.146.146-2.4-.485 1.14-.655 1.735-1.055 2.038s-.45.206-.72.206a.5.5 0 0 0 .06-.303s-1.711-.206-2.88-.206-3.483.631-4.77 1.14c-1.019.425-1.589.425-1.953.692-.364.303-.571.631-.753.716-.146.085-.837.303-.995.534-.146.24-.388.51-.388.57s-.061.146.121.085c.06-.024.51-.267 1.019-.57.692-.389 1.529-.837 2.136-1.105 1.736-.692 2.282-.57 3.058-.716.813-.145 1.978-.485 2.754-.485.777-.024 2.246 0 2.586.06-.146.122-.267.268-.206.777 0 .146-.122.303-.24.655a60 60 0 0 1-1.44 3.484c-.534 1.14-1.14 2.099-1.44 2.693-.3.595-.96 2.16-1.614 2.998s-.995 1.347-1.2 1.53c-.205.182-1.675 1.261-1.566 1.65.268-.085 1.955-.72 3.18-2.1 1.224-1.379 1.468-2.22 2.427-2.973.958-.753 1.711-2.014 2.16-3.057.376-.972.291-1.275.764-2.136z" clip-rule="evenodd"/><path fill="#B6903C" fill-rule="evenodd" d="M89.746 78.398s-.268 1.104-.875 1.65c-.594.535-1.65.996-1.771 1.894-.146.898 1.056 1.348 1.056 1.348s-.656 1.08-.656 1.892c0 .838-.024.996.06 1.796a.8.8 0 0 0-.24.24s.06.777.656 1.262c.595.485 1.104.777 1.407.655q.07.149.122.304s.45-1.14.752-2.136c.304-1.019.57-.874.692-2.245.12-1.372 1.44-3.726 1.44-3.726l.9-2.012-1.468-1.14z" clip-rule="evenodd"/><path fill="#685026" fill-rule="evenodd" d="M92.476 80.376q-.455.466-.836.995c-.388.535-.691 1.02-1.262 1.227-.57.207-.934.205-.898.776s.57.813.874 1.104c.328.304.595.813.45 1.384.18-.084.509-.182.812-.837s2.424-4.648 2.424-4.648h-1.564z" clip-rule="evenodd"/><path fill="#D4B968" fill-rule="evenodd" d="M100.84 71.165s.182-.485 0-.837c-.182-.364-1.286-.486-1.833-.898-.57-.425-1.262-.72-1.833-.534.085-.206.425-.656.146-.753-.267-.085-1.261.364-1.529.57-.267.207-.874.45-.995.596-.12.146-.328.425-.45.303-.121-.085-.181-.303-.388-.182-.206.12-1.2.934-1.383 1.408s-.595 1.53-1.832 2.73-1.772 1.978-1.408 2.427.534.122.595.51c.046.38.026.767-.061 1.14-.146.632-.388 1.226-.06 1.348.837.267 1.65-.24 1.832-.085.364.327-.207 1.505.655 1.735.874.24 1.736-.206 1.736-.206l3.18-1.711 3.058-1.614 1.564-3.095-.839-2.585-.16-.267z" clip-rule="evenodd"/><path fill="#CCA849" fill-rule="evenodd" d="M97.84 78.556s-.534-.813.122-1.53c.656-.716 1.59-1.019 1.953-1.468a.56.56 0 0 0-.267-.181 2.4 2.4 0 0 1 1.056-.996c-.182-.182-.425-.327-.691-.327-.595 0-.96.364-1.506.364-.533 0-.594-.268-.594-.268s.898-.084.813-.485c-.085-.425-.24-.425-.24-.425s1.735-.72 2.038-1.104.267-.837.328-1.02c.206 0 1.407-.63 1.893-.363.485.267.145.995.145.995s1.47-1.105 2.219-2.188c.655.06.96-.449 1.44-.449.595 0 1.529.813 1.711 2.548.122.995.303 1.566.122 3.326-.085.995-.061 3.12.24 4.174.205.838.691.753.691.753a1.36 1.36 0 0 1-.425.655c-.328.304-.364 1.105-.328 1.408q.072.332.182.656s-.388.448-.485.752c-.085.303-.485.51-.777.51s-.146-.025-.534 0-.509.085-.752 0c-.244-.085-.425-.183-.328-.96.085-.777-2.997-2.585-2.997-2.585l-5.04-1.796z" clip-rule="evenodd"/><path fill="#585136" fill-rule="evenodd" d="M92.051 86.226s1.104 1.468 5.643 1.468c2.16 0 2.913-.206 3.36-.328.486-.121 2.306-.837 4.139-2.997 1.65-1.954 1.286-2.755 1.286-2.755l-.96-.145-3.12.425-9.232 3.932-1.12.4z" clip-rule="evenodd"/><path fill="#252211" fill-rule="evenodd" d="M95.437 86.59s-3.932.874-3.932-1.614c0-2.427 2.427-4.976 3.034-5.425.632-.45 2.136-.96 2.136-.96h3.629l.691 1.833-.303 3.956z" clip-rule="evenodd"/><path fill="#C3B378" fill-rule="evenodd" d="M99.066 79.333s-.752-.692-2.464.24c-1.71.932-3.095 2.88-3.18 4.648-.084 1.565 1.287 2.73 3.423 2.792 1.59.06 2.549-.122 3.034-.24-.121-.146-.753-.935-.753-.935z" clip-rule="evenodd"/><path fill="#E6D89C" fill-rule="evenodd" d="M98.326 79.72s-.182-.146-.72.146c-.45.24-1.104.874-1.614 1.323-.328.267-.534.388-.72.594-.753.899-1.384 2.367-1.02 3.095.366.728 1.566 1.566 4.625.996l-.56-6.153z" clip-rule="evenodd"/><path fill="#252211" fill-rule="evenodd" d="M97.33 81.226s-.485.753-.485 1.954c0 1.226.692 3.18 3.241 3.325 1.953.122 3.264-2.815 4.684-3.956 1.08-.874 1.735-.898 1.735-.898s-1.104-1.2-4.053-2.755c-2.913-1.565-6.178-1.772-7.95.631.838-.06 3.544-.752 3.544-.752l1.324.424-2.04 2.028z" clip-rule="evenodd"/><path fill="#6F674D" fill-rule="evenodd" d="M101.141 82.815c-.085-.181-.146-.425.206-.485s.51-.025.631.24c.122.265.24.486.06.596-.181.096-.655 0-.898-.352zm-.57-1.711s-.122.085-.061-.085c.024-.206.182-.57.57-.485.388.086.304.51.24.631-.064.122-.388.328-.631.24a.2.2 0 0 1-.138-.12.2.2 0 0 1 .016-.182h.004Z" clip-rule="evenodd"/><path fill="#AC924C" fill-rule="evenodd" d="M67.72 81.88s.96.72 2.075.692c1.104-.025 2.524-1.165 3.18-1.894.387-.424.72-.873 1.08-1.225.303-.303.509-.449.655-.655.206-.24.424-.692.534-.838-.267.206-.655.571-1.056.814-.388.24-1.226.69-1.566.812-.327.122-3.725 1.92-3.725 1.92z" clip-rule="evenodd"/><path fill="#9F8E57" fill-rule="evenodd" d="M69.187 72.913s.534-.364 1.566-.596c.995-.24 2.998-.424 2.998-.424l1.65.72.655 2.488-1.2 2.585-1.529.96-1.736-2.791-2.4-2.938z" clip-rule="evenodd"/><path fill="#EAC970" fill-rule="evenodd" d="m67.027 75.133-.57.427s.146-.267.266-1.08.753-2.791 1.675-3.932c.923-1.14.899-1.08.899-1.08a.6.6 0 0 0-.486.12c.122-.268.899-1.228 1.675-1.708.777-.48 1.08-.631 1.893-.24s1.02.594 1.615.57 1.104-.655 1.104-.655.121.388-.328 1.286c-.448.899-2.22 2.73-2.22 2.73l-3.69 2.525-1.833 1.04v-.002Z" clip-rule="evenodd"/><path fill="#D7BC6B" fill-rule="evenodd" d="M69.757 72.61s2.67.364 3.483-.388c.024.084.122.084.122.145a.2.2 0 0 1-.061.12 2 2 0 0 1 .267-.023q.161.048.328.06a2 2 0 0 0 .267-.024.46.46 0 0 1-.182.304c.122 0 .24.024.24.12 0 .097.024.39-.122.45a.55.55 0 0 1-.364-.024c.01.23.072.454.183.656.24.448.752.96 1.44.812 0 0 .363.874-1.166 2.816-.205.267-.425.63-.691.934q-.158.346-.24.716s2.586-.995 3.326-3.265c.752-2.282.898-4.526.752-6.626-.025-.595-.121-1.019-.267-1.323-.364-.752-1.384-.63-1.796-.206-.595.595-1.59 2.075-2.974 3.094-1.408 1.02-1.468 1.2-2.548 1.651h.003Z" clip-rule="evenodd"/><path fill="#585136" fill-rule="evenodd" d="M66.553 75.886s-.51.304-.776 1.44c-.267 1.165.24 2.585.533 3.034s.96 1.675 2.343 1.736a2.6 2.6 0 0 0 .995-.206 6.3 6.3 0 0 0 1.347-.838c.595-.449 1.08-.837 1.02-.874-.146-.06-3.665-2.973-3.665-2.973l-1.324-1.477-.473.16z" clip-rule="evenodd"/><path fill="#453A25" fill-rule="evenodd" d="M69.88 80.716s.716-.06 1.14-.327c.425-.268-2.487-3.156-2.487-3.156l.206 3.12z" clip-rule="evenodd"/><path fill="#84754B" fill-rule="evenodd" d="M66.784 75.667s-.364.692-.364.875c-.06.594.122 2.463.267 3.057.146.631.935 1.59 1.955 1.59.63 0 1.504-.388 1.504-.485 0-.122-.898-.24-1.14-.692-.146-.24-.207-.837-.24-1.44-.024-.388-.024-.813.121-.96.328-.364.388-1.408.388-1.408l1.165-2.164h-1.532l-1.833 1.14z" clip-rule="evenodd"/><path fill="#252211" fill-rule="evenodd" d="M66.335 76.335s1.2-1.59 2.282-1.954c1.081-.365 1.565-.146 1.565-.146l-.63 1.615-.9.995.062.51s-.147 1.347.752 2.281c.898.935 1.565.899 1.954.899s1.505-.328 2.075-1.676c.51-1.261.935-2.88-.085-4.502-.996-1.614-2.755-1.677-3.095-1.677s-3.01.134-3.98 3.653z" clip-rule="evenodd"/><path fill="#F7F7E7" fill-rule="evenodd" d="M97.148 81.735c-.449-.206-.024-1.468.425-1.856.449-.39 1.019-.837 2.015-.899.363-.024.715.207.655.45-.085.449-.716 1.08-1.286 1.529-.789.619-1.3 1.007-1.809.776" clip-rule="evenodd"/><path fill="#F8F6DE" fill-rule="evenodd" d="M72.876 74.855c.328-.025.753.24.837.595.085.388-.206 1.165-.837 1.165-.51 0-.777-.632-.777-.813a.9.9 0 0 1 .122-.425c.024-.037.084-.462.655-.522" clip-rule="evenodd"/><path fill="#D4C38B" fill-rule="evenodd" d="M68.143 75.134s-.838.388-1.225 1.2c-.278.6-.362 1.27-.24 1.92.06.303.364 1.055.57 1.322s.486.45.692.425.63-.57.63-.898c0-.327.025-1.71.425-2.464.352-.752-.85-1.504-.85-1.504z" clip-rule="evenodd"/><path fill="#E2D59D" fill-rule="evenodd" d="M68.265 75.073c-.146.085-.388.206-.328.364.06.145.57.24.753.595.206.364.206.752.145.934a1.5 1.5 0 0 0 .425-.303c.267-.304.594-.716.874-.716.182 0 .364.085.534.085.267 0 .534-.085.57-.364.06-.364-.51-.692-.837-.631.06-.24.145-.595-.122-.838s-1.104.183-1.286.304c-.183.122-.728.57-.728.57" clip-rule="evenodd"/><path fill="#CBAC5A" fill-rule="evenodd" d="m87.549 100.57 1.796-.53.51.364s.363.777.934.874c-.183.388-.656.72-.631.995s.267.485.267.485-1.614 2.67 1.566 5.36c-.753.304-1.712.72-2.221.96.363.085 1.14.24 1.468.535.328.294.328.388.63.57.304.183.486.425.426.534-.207-.122-.899-.485-1.02-.146-.12.339-2.997.207-2.997.207l-4.855.934s.182-.486-.328-.934c-.594-.534-1.322.024-2.099-.571-1.019-.777-1.056-1.675-1.383-2.014.327-.207.995-.51 2.585-.72-.06-.122-.267-.486-.146-.813.146-.425.752-.692.57-1.2.268-.061.389-.061 1.057-.898.63-.838 1.019-1.02 1.505-1.08.485-.061.776 0 1.675-.838.63-.594.424-1.104.424-1.104s.413-.134.268-.971z" clip-rule="evenodd"/><path fill="#D6BC6F" fill-rule="evenodd" d="M82.246 100.84c.023-.122.121-.182.776-.122.655.061 4.806-.388 5.935-.448 1.14-.085 5.157-.025 7.112.388 1.954.412 3.932.898 4.89 1.14.96.268 1.262.364 1.226.485-.024.122-.24.24-.364.207-.121-.024-3.301-.996-4.284-1.2-.982-.205-4.381-.753-6.24-.72-1.735.024-2.427-.024-3.895.145-1.469.183-3.896.425-4.624.328-.72-.085-.57-.085-.534-.206z" clip-rule="evenodd"/><path fill="#DFC677" fill-rule="evenodd" d="M92.014 110.352s2.488 1.347 3.387 2.998c.655 1.225-.388 1.832-.388 1.832s1.408 0 1.225.777c-.085.485-2.427 1.795-3.992 2.487-1.59.692-1.53.656-2.306.777-.753.122-2.816-.24-3.24.364-.426.604-.24 1.227-.123 1.323.122.085 1.105.207 1.105.207s-.206.57-2.245.631c-2.038.061-2.548.206-2.67.425-.121.205.388.085 1.323.24.935.145 2.245.24 2.245.24s-.425.364-1.529.655c-1.262.327-3.24.631-3.835.995.303.207.753.51.96.534-.51.121-1.226.389-1.347.485.181.122.425.268.425.268s-1.02 1.225-1.615 1.529c-.594.304-4.017 1.893-5.194 1.59-2.937-.777-3.3-3.993-4.017-4.235-1.08-.364-1.59.363-2.549-.147.425-.303.656-.485 1.105-.691-.486-.24-2.998-1.833-2.998-1.833a19 19 0 0 0-.873-1.674c-.486-.838-1.2-1.955-1.736-2.938-1.165-2.16-1.226-3.155-2.282-4.381.183-.24.813-.206.813-.206l8.848 2.913 15.689.454 4.08-5.825z" clip-rule="evenodd"/><path fill="#C4A859" fill-rule="evenodd" d="M68.774 119.235q.144.159.328.267c.304.207.752.45 1.056.813.121-.182.424-.51.96 0 .535.51 1.2.146 1.613.267.425.147.449.207.449.207s.24-.207.777-.425c.328-.122.716-.207 1.14-.327.389-.085.813-.207 1.105-.207.268.182 1.226 1.2 5.073-.303 3.629-1.408 4.466-1.566 5.073-1.348.06-.146.122-.425 1.056-.388 0-.388-.777-1.711-.777-1.711l-4.284-1.468H80l-7.026 1.286-3.894 2.222-.303 1.12z" clip-rule="evenodd"/><path fill="#927D49" fill-rule="evenodd" d="M66.432 116.772s.085.655 1.056 1.347c.96.692 1.261 1.104 1.261 1.104s.183-.24.329-.484c.145-.268.267-.571.51-.656.485-.206 1.589.182 1.832.121.206-.06.145-.485.364-.485.51-.024.837.328 1.02.328.181 0 .63-.024.69-.121.061-.097.085-1.105.777-1.591.753-.533 1.675-.303 1.92-.181 0 .181.024.631.51.655.485.024.533-.061.96.085.426.145.934-.024 1.165.691.206-.06.692-.121.57-.813.24-.181.45-.303.96-1.019.122-.182.327-.388.486-.655.424 0 .934-.085 1.613.509-.206.146-.328.24-.388.388q.267.264.485.571c.182.24.304.534.534.595.51.146 1.347-.061 2.282 0 .898.061 1.65.388 1.978.594.122-.06.122-.084.425-.024s.534.085.207-.303c.181.085.388.267.57.085s.327-.449.837-.51c.51-.06.692.024.898-.509.267-.655-.655-.655-.655-.655s.425-.389.898-.899c.57-.533 1.226-1.225 1.383-2.075.268-1.566-1.261-1.771-1.261-1.771l-7.415 2.281-9.066-.449-7.73 3.847z" clip-rule="evenodd"/><path fill="#6E6342" fill-rule="evenodd" d="M59.77 95.352s-.24.303-.388 1.02c-.148.715-.085.63-.207 1.14s-1.615 5.583-1.055 7.294 1.53 2.342 2.136 3.725c.122.304.24.486.303.753.207.898.025 1.59.267 2.488.085.303.304.655.632 1.019.72.752 1.893 1.468 2.4 1.978.715.753 1.735 2.282 3.033 2.427.692.085 1.675-.206 2.488-.691.72-.45 1.165-1.08 1.92-1.44.534-.267 1.104-.364 1.614-.486 1.056-.206 2.015-.24 2.585-.121.874.182 2.937.813 4.08.813a11 11 0 0 0 2.646-.364c1.735-.509 3.834-1.384 5.218-1.772.813-.24 1.468-.303 2.136-.448 1.141-.268 2.1-.632 2.646-1.324-.364-.424-.813-1.08-3.24-1.056-2.755.061-5.935 1.59-7.5 1.833s-2.246.449-3.994-.182c-1.713-.638-1.77-1.059-1.77-1.059s-1.8-1.259-2.552-4.467c-.753-3.208 0-5.545 1.954-7.767.51-.57.388-1.08.388-1.08s1.287-1.735.935-3.36c-.388-1.614-2.876-1.286-2.876-1.286z" clip-rule="evenodd"/><path fill="#39331F" fill-rule="evenodd" d="M61.845 100.753a1.26 1.26 0 0 0-.146.655c.024.327.122.752 1.104 1.711.838.837.655 1.772.655 1.772s.422.084 1.566-.451c.898-.425 1.2.328 1.2.328.261-.137.545-.227.838-.267.265-.024.521-.106.752-.24 0 0 1.056 1.08 1.978 1.59.838.449 1.323.752 1.736.449.388-.267.388-.813.363-1.056a3.2 3.2 0 0 0-.363-.631c-.267-.388-.692-.838-.72-1.2-.06-.837.631-1.833.485-2.075s-.691-.303-2.039.182c-1.395.461-7.415-.765-7.415-.765z" clip-rule="evenodd"/><path fill="#292311" fill-rule="evenodd" d="M65.024 106.177s-.691-.655-.449-3.835q.442-.006.874.085s.377 2.464-.425 3.75" clip-rule="evenodd"/><path fill="#252211" fill-rule="evenodd" d="M60.098 92.925q.144-.108.267-.24c-.24.448-1.348 2.244-.45 5.072.899 2.816 3.155 4.915 5.935 5.012 2.779.098 4.24-1.262 5.91-3.3.655-.813 1.408-1.833 2.075-2.524.995-1.081 1.772-1.384 1.772-2.428 0-2.136-2.185-3.095-5.4-4.053-3.217-.959-6.117-.84-7.622-.184-1.468.715-2.1 1.468-2.488 2.645Z" clip-rule="evenodd"/><path fill="#3F3824" fill-rule="evenodd" d="m70.425 107.136.24-.122s.06-.96.449-.934c.388.061.57.571.533.753-.024.181-.12.485-.51.449-.509.012-.715-.146-.715-.146z" clip-rule="evenodd"/><path fill="#2D2815" fill-rule="evenodd" d="M69.345 103.058s.24-.084.533.207c.24 0 1.287-.122 1.615.085.328.206.425.388.425.388s-1.226.267-1.894 0c-.68-.231-.68-.68-.68-.68Z" clip-rule="evenodd"/><path fill="#82764F" fill-rule="evenodd" d="M74.746 103.24c0-.061-.656-.51-1.348-.656-.121-.024-.146.061-.24.061-.06-.024-.084-.207-.084-.207l-.394.208s-.06.084.146.24c.181.145.485.267.57.509.085.243.085.327.122.364.024.024.448 0 .655-.121.206-.122.595-.32.57-.4z" clip-rule="evenodd"/><path fill="#2D2816" fill-rule="evenodd" d="M68.617 105.704s.12-.837.934-.874c.837-.06.995.752.995.752l-.485.486c0-.012-.364-.522-1.44-.364z" clip-rule="evenodd"/><path fill="#574F35" fill-rule="evenodd" d="M73.896 102.099s-.45.486-1.444.632c-.085-.122-.267-.364 0-.752s.57-.51.874-.389a.71.71 0 0 1 .57.509" clip-rule="evenodd"/><path fill="#82764F" fill-rule="evenodd" d="M75.728 102.694c.025-.121-.06-.145 0-.206s.389-.182.45-.122c.024.025 0 .122 0 .24 0 .119 0 .24-.061.328-.085.121-.327.182-.449.146s-.146-.206-.146-.24c.06-.024.206-.085.206-.146m2.072-1.31c0-.061.207-.182.328-.182.182 0 .182.145.207.182.06.024.06-.025.12.085.061.109.147.303.085.425-.062.121-.303.205-.363.181-.085-.061-.352-.606-.377-.691" clip-rule="evenodd"/><path fill="#6E6342" fill-rule="evenodd" d="M73.629 102.973s.267.06.631.364c-.122.085-.304.182-.304.182s-.024-.279-.327-.546" clip-rule="evenodd"/><path fill="#585136" fill-rule="evenodd" d="M73.034 100.303c-.06-.06.182-.205.328-.181.145.024.206.121.364.145.157.024.182-.061.24-.121.057-.061.267-.024.303 0a1 1 0 0 1 .06.084.33.33 0 0 1 .122-.24.38.38 0 0 1 .328-.06c.023.084.145.388.121.448-.024.061-.388.147-.45.085.061.147.328.45.364.51.037.06-.267.206-.387.182-.17-.012-1.214-.619-1.396-.849zm1.59-2.014a.28.28 0 0 0-.121-.146c-.085-.024-.365 0-.365.146 0 .145.24.96.51 1.384.304.425.51.776.716.873a.28.28 0 0 0 .364-.121c.024-.061.085-.51.06-1.566-.023-1.056-.06-2.075-.12-2.136-.062-.06-.304-.06-.389.061-.084.12-.63 1.323-.656 1.505z" clip-rule="evenodd"/><path fill="#574F35" fill-rule="evenodd" d="M73.544 104.503s-.425-.268-.838-.085c-.388.182-.364.898-.364.898a.57.57 0 0 0 .535-.061c.267-.181.606-.484.667-.752" clip-rule="evenodd"/><path fill="#82764F" fill-rule="evenodd" d="M74.345 105.462c-.024-.24-.24-.24-.24-.364a.27.27 0 0 1 .266-.207c.122 0 .24.146.389.24.145.085.364.24.388.425s-.24.691-.534.691c-.293 0-.206-.546-.267-.788zm2.342-.328s-.486.145-.45 0c.037-.146.147-.182.305-.182a.48.48 0 0 1 .303-.146.26.26 0 0 1 .181.061s.328-.146.425-.061.025.085.085.182a.85.85 0 0 1 .146.364c0 .097-.364.303-.656.267-.339-.072-.279-.424-.339-.485m2.827-.547s.146.085.025.183c-.085.085-.51.24-.874.267-.364 0-.692.06-.692-.061s.304-.364.485-.425a.39.39 0 0 1 .304-.145c.146 0 .716-.061.874-.085.145-.025.267.06.181.182-.035.084-.303.084-.303.084m.838-3.747s-.183.388-.388.388c-.207-.024-.207-.085-.207-.145 0-.085.207-.304.182-.364-.06 0-.206 0-.181-.146 0-.122.206-.267.388-.24a.8.8 0 0 1 .485-.182c.207 0 .388.06.388.182s-.24.388-.328.45c-.097.096-.218.16-.34.06v-.003Zm-2.767 7.172s-.24.025-.24.146c0 .061.06.061.145.025a.7.7 0 0 0 .146-.025c.024.025.024.145.206.145q.227-.03.425-.145c.146-.06.267-.122.267-.24-.06-.207-.182-.304-.364-.304a.5.5 0 0 0-.267.061s-.06-.122-.267 0c-.206.121-.182.121-.122.182.11.097.073.16.073.16zm-1.371 1.263c0-.061.303-.183.388-.146.084.024.327.485.327.534 0 .06-.303.206-.425.206s-.327-.206-.327-.24c0-.024.145-.06.145-.085.036-.06-.109-.206-.109-.267zm-.96-1.772c.06-.024.06-.085.145-.146a.21.21 0 0 1 .182-.024.3.3 0 0 1 .207-.146c.145-.024.267 0 .24.06 0 .183.121.304.121.449s-.084.328-.388.45c-.303.085-.715.085-.776.061s-.122-.268-.061-.389c.06-.122.23-.255.328-.315z" clip-rule="evenodd"/><path fill="#6E6342" fill-rule="evenodd" d="M75.64 107.585s-.206.122-.206.182a.5.5 0 0 0-.024.182c0 .036.267-.024.303-.061.012-.024-.073-.24-.073-.303" clip-rule="evenodd"/><path fill="#585136" fill-rule="evenodd" d="M73.835 107.015c.121.024.327 0 .485.06.122.061.206.183.085.328-.122.146-.24.364-.51.328-.303-.024-.594-.182-.594-.304a.58.58 0 0 1 .145-.424c.122-.097.182-.036.388.012z" clip-rule="evenodd"/><path fill="#574F35" fill-rule="evenodd" d="M73.69 107.136s-.388.303-.486.45c-.122.145-.716.897-.898 1.055q.091-.16.206-.303c-.24.153-.42.385-.51.655-.145.45.814.692 1.444.874s.875.24.875.24a6.7 6.7 0 0 1-.595-1.104c-.24-.57-.364-.631-.207-.898.122-.267.304-.449.304-.655a4 4 0 0 0-.133-.314" clip-rule="evenodd"/><path fill="#252211" fill-rule="evenodd" d="M59.854 108.095a.8.8 0 0 0 .268 0c.181-.025 2.075-.72 4.053-.595a21.7 21.7 0 0 1 4.381.72c2.488.655 5.582 1.953 7.585 2.694.533.206 1.056.571 1.44.715 1.53.596 1.59.596 2.488.753 1.056.146 2.136-.206 3.265-.449 1.383-.304 3.75-.449 5.824-.752a12 12 0 0 0 1.979-.449s-1.65 1.65-5.607 2.245a17.5 17.5 0 0 1-4.83.06c-1.262-.121-2.1-.304-2.73-.485-.716-.207-2.185-.753-3.993-1.2-1.263-.328-2.67-.571-4.284-.874-3.981-.729-8.301-1.565-9.84-2.378z" clip-rule="evenodd"/><path fill="#CFB66C" fill-rule="evenodd" d="M55.388 100.595c-.96.813-1.978 1.59-2.973 2.342l-2.997 2.303c-1.02.752-2.015 1.529-3.035 2.282a57 57 0 0 1-3.12 2.16c.96-.813 1.979-1.566 2.998-2.306s2.076-1.466 3.059-2.216l2.998-2.306c1.03-.752 2.026-1.529 3.07-2.257zm-5.303 8.495s1.08-.898 2.427-2.16c1.674-1.564 3.726-3.568 4.38-3.931l-6.808 6.092zm0-.001a42 42 0 0 1 1.675-1.565l.873-.752c.268-.24.572-.51.838-.777.534-.534 1.056-1.105 1.59-1.65q.397-.412.837-.777.221-.195.485-.328c.146-.085.304-.24.51-.267-.121.182-.267.267-.388.424-.146.122-.268.268-.388.388-.267.268-.57.51-.838.753-.57.486-1.165.96-1.735 1.468s-1.104 1.056-1.675 1.566c-.619.522-1.19 1.032-1.784 1.52zm7.257-4.854s-3.956 3.872-4.77 4.502zm0 0A13 13 0 0 1 56.2 105.4l-1.2 1.141c-.388.388-.753.777-1.165 1.165-.425.364-.813.72-1.262 1.056l1.165-1.141c.388-.388.813-.715 1.226-1.104l1.165-1.141c.4-.4.789-.789 1.213-1.141m.182 2.1a25 25 0 0 1-1.286 2.973c-1.02 2.039-2.548 4.587-3.216 5.887zm0 0c0 .449-.121.838-.267 1.226q-.213.583-.485 1.14a20 20 0 0 1-.595 1.105c-.206.352-.449.715-.631 1.08l-1.226 2.16c-.425.72-.837 1.444-1.286 2.136.303-.777.716-1.505 1.105-2.221.424-.72.812-1.44 1.2-2.184q.284-.558.51-1.14c.18-.389.362-.753.509-1.105.181-.388.327-.753.51-1.104.205-.377.375-.741.654-1.093z" clip-rule="evenodd"/><path fill="#DEC270" fill-rule="evenodd" d="M61.845 116.287s-1.2 1.589-1.08 3.604c.327-1.056.74-2.67 1.08-3.604m1.14 1.593s-.424 4.32-.776 6.444c.497-2.455.594-2.249.777-6.444Zm7.95 6.699s-1.797 5.28-1.833 6.748c.388-1.509 1.14-4.592 1.832-6.752v.004Z" clip-rule="evenodd"/><path fill="#CBAF59" fill-rule="evenodd" d="M75.133 115.96s2.913 4.806 5.098 8.907c-.591-2.064-1.951-5.849-5.097-8.907Z" clip-rule="evenodd"/><path fill="#E3C677" fill-rule="evenodd" d="M82.962 123.034a88 88 0 0 1 4.32 8.726c-.243-2.063-.899-5.595-4.32-8.726" clip-rule="evenodd"/><path fill="#ECD592" fill-rule="evenodd" d="M105.971 130.12c.485-.303 1.444-1.954 2.282-2.366.837-.425 1.468-.51 2.221-1.348.752-.874.96-1.408 2.608-2.099 2.307-.996.72-2.282.72-2.282q.382-.375.813-.691c.595-.449 1.287-.996 1.227-1.955-.085-1.613-.388-3.956-1.712-5.315 1.287-.267 3.75-.449 5.28-.837 1.772-.449 2.585-1.081 2.585-1.081s-1.019-1.735.631-3.482c1.651-1.747 2.998-2.791 3.993-4.746-1.141-.145-2.88-.752-7.318.935q.36.17.692.388s-2.731.753-3.726 1.59c-1.736 1.468-1.954 2.67-3.835 3.568s-3.774.655-5.339 1.383-1.796 1.348-2.367 1.615c.121.145-.024.388.206.594-.146.207-.995 1.59-1.857 1.59.085.328.813.57.813.57s-.534.389-1.893.486c.691.72 1.347 1.505 3.155 2.645-.145.304-.752.753-.509 1.324.267.57.96 1.347 3.725 1.978-1.408.06-3.057.388-5.28.085-2.22-.267-2.584-.425-3.956-.085.146.146.534.146.874.534-.364.024-2.646-.268-3.422.752-.813 1.056-1.165 2.792-1.104 3.956-.425.207-.838.571-.632 1.324.207.752 1.287.995 1.979 1.468.69.509.752.691 1.408.57.69-.146 1.71-.837 2.305-.837s1.02.449 1.02.449 1.614-.777 1.772-.631c.145.145.024 1.08.181 1.225.16.11 1.979-.97 2.464-1.274z" clip-rule="evenodd"/><path fill="#fff" fill-opacity=".8" fill-rule="evenodd" d="M141.25 81.553c-7.584-19.587-26.335-23.216-26.335-23.216H61.42l.206 19.952H72.28v44.551H61.42v19.915h52.014c12.536 0 22.585-12.598 22.585-12.598 16.092-22.839 5.231-48.604 5.231-48.604m-27.536 35.182s-4.08 5.886-8.52 5.886h-8.88l-.21-44.284H107.5s5.28 1.104 8.969 11.553c0 0 4.89 14.96-2.755 26.845" clip-rule="evenodd"/></svg>