<svg width="200" height="200" fill="none" xmlns="http://www.w3.org/2000/svg"><g clip-path="url(#a)"><path d="m68.45 67.98-8.774-3.956L42.831 85.17l25.62-17.19Z" fill="#39AFFF"/><path d="m68.278 47-8.602 17.024 8.774 3.956L68.278 47Z" fill="#A2D7FB"/><path d="M33.792 81.294 68.278 47l-8.602 17.024-25.884 17.27Z" fill="#B5D7F3"/><path d="m68.45 67.98-.172 20.8-25.447-3.61 25.62-17.19Z" fill="#2880BF"/><path d="m68.278 47 .172 20.98 16.162 4.122L68.278 47Z" fill="#8EC5F8"/><path d="m97.76 76.322-13.148-4.22L68.278 47 97.76 76.322Z" fill="#B5DFFF"/><path d="M68.45 67.98 80.83 80.358l3.783-8.257L68.45 67.98Z" fill="#4184B7"/><path d="m68.278 88.78 12.55-8.422L68.45 67.979l-.172 20.802Z" fill="#306892"/><path d="m84.612 72.102 13.148 4.22-3.518 16.587-9.63-20.807Z" fill="#3D76A8"/><path d="m80.829 80.358 3.783-8.256 9.63 20.807L80.83 80.358Z" fill="#498FCD"/><path d="M80.829 92.909h13.413L80.83 80.358v12.55Z" fill="#1A638D"/><path d="m68.278 88.78 12.55-8.422v12.55l-12.55-4.127Z" fill="#204E6A"/><path d="M90.2 110.703 80.83 92.908 68.278 88.78 90.2 110.703Z" fill="#0065BC"/><path d="M94.242 92.909 90.2 110.703 80.83 92.909h13.413Z" fill="#1C4F84"/><path d="m97.76 76.322 12.527 12.459-16.045 4.128 3.518-16.587Z" fill="#2F5EA2"/><path d="m119.861 118.7-9.574-29.92-16.045 4.128 25.619 25.792Z" fill="#1A4281"/><path d="m90.2 110.703 16.075 3.697-12.033-21.491-4.042 17.794Z" fill="#183A6E"/><path d="m119.861 118.7-13.586-4.3-12.033-21.491 25.619 25.791Z" fill="#1F5EAB"/><path d="m119.861 118.7 12.379-8.077-21.954-21.843 9.575 29.92Z" fill="#212762"/><path d="M132.24 131.251v-20.628l-12.379 8.077 12.379 12.551Z" fill="#2D0062"/><path d="m106.276 114.399 13.585 16.852V118.7l-13.585-4.301Z" fill="#041035"/><path d="M119.861 131.252h12.379l-12.379-12.551v12.551Z" fill="#35165E"/><path d="m106.276 114.399 4.011 16.852h9.574l-13.585-16.852Z" fill="#193471"/><path d="m90.2 110.703 16.075 3.696 4.012 16.852L90.2 110.703Z" fill="#022369"/><path d="m132.24 131.251.172 21.67-22.126-21.67h21.954Z" fill="#100339"/><path d="m132.24 110.623 25.101 3.777-25.101 16.851v-20.628Z" fill="#9F0566"/><path d="M157.341 102.089V114.4l-25.101-3.777 25.101-8.534Z" fill="#BE63AA"/><path d="m132.412 152.921 24.929-38.522-25.101 16.852.172 21.67Z" fill="#852883"/><path d="M157.341 102.089 195 89.299 157.341 114.4v-12.311Z" fill="#F0C2E6"/><path d="m132.412 152.921 33.66-34.221-8.731-4.301-24.929 38.522Z" fill="#CF83C1"/><path d="m195 89.298-28.928 29.403-8.731-4.301L195 89.298Z" fill="#D082C2"/><path d="M5 109.933 42.831 85.17l-9.039-3.876L5 109.933Z" fill="#91D3F8"/><path d="m68.278 88.781-25.447-3.61L5 109.932l63.278-21.152Z" fill="#6BC2E5"/><path d="m59.676 64.024-25.884 17.27 9.04 3.876 16.844-21.146Z" fill="#71BCEF"/><path d="M118.913 77.95H81.088c-9.593 0-17.37 7.776-17.37 17.368v9.279c0 9.593 7.777 17.369 17.37 17.369h37.825c9.592 0 17.369-7.776 17.369-17.369v-9.279c0-9.592-7.777-17.369-17.369-17.369Z" fill="#000"/><path d="M72.27 109.958h-.788a1.279 1.279 0 0 1-.924-.309 1.226 1.226 0 0 1-.309-.905 1.037 1.037 0 0 1 .364-.924 3.555 3.555 0 0 1 1.657-.241h1.085V92.404H72.27a3.34 3.34 0 0 1-1.645-.265 1.079 1.079 0 0 1-.376-.955 1.232 1.232 0 0 1 .309-.918c.269-.217.61-.323.955-.296h14.67a1.09 1.09 0 0 1 .869.345c.214.289.32.645.295 1.004v3.987c.04.426-.047.855-.252 1.232a1.078 1.078 0 0 1-.912.333 1.096 1.096 0 0 1-.955-.37 3.394 3.394 0 0 1-.259-1.67v-2.409h-8.952v5.681h4.424v-.893c-.032-.425.051-.85.24-1.233a.98.98 0 0 1 .856-.357.87.87 0 0 1 .813.382c.198.518.275 1.074.229 1.627v3.086a3.433 3.433 0 0 1-.235 1.621.938.938 0 0 1-.844.357.856.856 0 0 1-.832-.406 3.595 3.595 0 0 1-.228-1.572v-.585h-4.423v7.474h8.977v-2.736a3.409 3.409 0 0 1 .259-1.67 1.098 1.098 0 0 1 .955-.369 1.085 1.085 0 0 1 .906.345c.212.401.302.855.258 1.306v4.245c.024.338-.084.672-.302.931a1.125 1.125 0 0 1-.862.32l-13.938-.018ZM109.356 99.957c0 3.085-.854 5.613-2.563 7.585a8.726 8.726 0 0 1-2.954 2.191 8.728 8.728 0 0 1-7.19 0 8.718 8.718 0 0 1-2.955-2.191c-1.72-1.984-2.576-4.504-2.576-7.579 0-3.074.85-5.637 2.545-7.597a8.766 8.766 0 0 1 13.13 0 11.178 11.178 0 0 1 2.563 7.591Zm-9.125 8.152a5.275 5.275 0 0 0 4.436-2.157c1.085-1.45 1.627-3.448 1.627-5.995 0-2.546-.542-4.543-1.627-5.989a5.669 5.669 0 0 0-4.464-2.167 5.68 5.68 0 0 0-4.464 2.167c-1.072 1.438-1.608 3.44-1.608 6.008 0 2.567.542 4.565 1.627 5.995a5.267 5.267 0 0 0 4.473 2.138ZM127.323 103.18a3.382 3.382 0 0 1 .252-1.633 1.103 1.103 0 0 1 .962-.376 1.246 1.246 0 0 1 .912.315c.224.272.333.622.301.973v6.266a1.227 1.227 0 0 1-.32.918 1.17 1.17 0 0 1-.893.333h-15.755a1.236 1.236 0 0 1-.912-.308 1.235 1.235 0 0 1-.302-.906c-.022-.172 0-.347.064-.508a1.02 1.02 0 0 1 .3-.416 3.502 3.502 0 0 1 1.645-.24h2.107V92.404h-2.107a3.298 3.298 0 0 1-1.633-.265 1.083 1.083 0 0 1-.376-.955 1.237 1.237 0 0 1 .308-.918c.275-.219.623-.325.974-.296h9.125c.338-.022.672.088.93.308a1.238 1.238 0 0 1 .321.906 1.083 1.083 0 0 1-.382.955 3.398 3.398 0 0 1-1.664.265h-2.834v15.2h8.977v-4.424Z" fill="#fff"/></g><defs><clipPath id="a"><path fill="#fff" transform="translate(5 47)" d="M0 0h190v105.921H0z"/></clipPath></defs></svg>