<svg xmlns="http://www.w3.org/2000/svg" viewBox="0 0 200 200"><g clip-path="url(#a)"><path fill="#39AFFF" d="m68.45 67.98-8.774-3.956L42.831 85.17l25.62-17.19Z"/><path fill="#A2D7FB" d="m68.278 47-8.602 17.024 8.774 3.956z"/><path fill="#B5D7F3" d="M33.792 81.294 68.278 47l-8.602 17.024z"/><path fill="#2880BF" d="m68.45 67.98-.172 20.8-25.447-3.61 25.62-17.19Z"/><path fill="#8EC5F8" d="m68.278 47 .172 20.98 16.162 4.122z"/><path fill="#B5DFFF" d="m97.76 76.322-13.148-4.22L68.278 47z"/><path fill="#4184B7" d="m68.45 67.98 12.38 12.378 3.783-8.257z"/><path fill="#306892" d="m68.278 88.78 12.55-8.422L68.45 67.979l-.172 20.802Z"/><path fill="#3D76A8" d="m84.612 72.102 13.148 4.22-3.518 16.587z"/><path fill="#498FCD" d="m80.829 80.358 3.783-8.256 9.63 20.807L80.83 80.358Z"/><path fill="#1A638D" d="M80.829 92.909h13.413L80.83 80.358v12.55Z"/><path fill="#204E6A" d="m68.278 88.78 12.55-8.422v12.55l-12.55-4.127Z"/><path fill="#0065BC" d="m90.2 110.703-9.37-17.795-12.552-4.128z"/><path fill="#1C4F84" d="M94.242 92.909 90.2 110.703l-9.37-17.794z"/><path fill="#2F5EA2" d="m97.76 76.322 12.527 12.459-16.045 4.128z"/><path fill="#1A4281" d="m119.861 118.7-9.574-29.92-16.045 4.128z"/><path fill="#183A6E" d="m90.2 110.703 16.075 3.697-12.033-21.491z"/><path fill="#1F5EAB" d="m119.861 118.7-13.586-4.3-12.033-21.491z"/><path fill="#212762" d="m119.861 118.7 12.379-8.077-21.954-21.843z"/><path fill="#2D0062" d="M132.24 131.251v-20.628l-12.379 8.077z"/><path fill="#041035" d="m106.276 114.399 13.585 16.852V118.7z"/><path fill="#35165E" d="M119.861 131.252h12.379l-12.379-12.551z"/><path fill="#193471" d="m106.276 114.399 4.011 16.852h9.574z"/><path fill="#022369" d="m90.2 110.703 16.075 3.696 4.012 16.852z"/><path fill="#100339" d="m132.24 131.251.172 21.67-22.126-21.67z"/><path fill="#9F0566" d="m132.24 110.623 25.101 3.777-25.101 16.851z"/><path fill="#BE63AA" d="M157.341 102.089V114.4l-25.101-3.777z"/><path fill="#852883" d="m132.412 152.921 24.929-38.522-25.101 16.852z"/><path fill="#F0C2E6" d="M157.341 102.089 195 89.299 157.341 114.4z"/><path fill="#CF83C1" d="m132.412 152.921 33.66-34.221-8.731-4.301z"/><path fill="#D082C2" d="m195 89.298-28.928 29.403-8.731-4.301z"/><path fill="#91D3F8" d="M5 109.933 42.831 85.17l-9.039-3.876z"/><path fill="#6BC2E5" d="m68.278 88.781-25.447-3.61L5 109.932 68.278 88.78Z"/><path fill="#71BCEF" d="m59.676 64.024-25.884 17.27 9.04 3.876z"/><path d="M118.913 77.95H81.088c-9.593 0-17.37 7.776-17.37 17.368v9.279c0 9.593 7.777 17.369 17.37 17.369h37.825c9.592 0 17.369-7.776 17.369-17.369v-9.279c0-9.592-7.777-17.369-17.369-17.369Z"/><path fill="#fff" d="M72.27 109.958h-.788a1.28 1.28 0 0 1-.924-.309 1.23 1.23 0 0 1-.309-.905 1.04 1.04 0 0 1 .364-.924 3.56 3.56 0 0 1 1.657-.241h1.085V92.404H72.27a3.34 3.34 0 0 1-1.645-.265 1.08 1.08 0 0 1-.376-.955 1.23 1.23 0 0 1 .309-.918c.269-.217.61-.323.955-.296h14.67a1.09 1.09 0 0 1 .869.345c.214.289.32.645.295 1.004v3.987c.04.426-.047.855-.252 1.232a1.08 1.08 0 0 1-.912.333 1.1 1.1 0 0 1-.955-.37 3.4 3.4 0 0 1-.259-1.67v-2.409h-8.952v5.681h4.424v-.893a2.4 2.4 0 0 1 .24-1.233.98.98 0 0 1 .856-.357.87.87 0 0 1 .813.382c.198.518.275 1.074.229 1.627v3.086a3.4 3.4 0 0 1-.235 1.621.94.94 0 0 1-.844.357.86.86 0 0 1-.832-.406 3.6 3.6 0 0 1-.228-1.572v-.585h-4.423v7.474h8.977v-2.736a3.4 3.4 0 0 1 .259-1.67 1.1 1.1 0 0 1 .955-.369 1.09 1.09 0 0 1 .906.345c.212.401.302.855.258 1.306v4.245c.024.338-.084.672-.302.931a1.13 1.13 0 0 1-.862.32zm37.086-10.001q0 4.627-2.563 7.585a8.7 8.7 0 0 1-2.954 2.191 8.73 8.73 0 0 1-7.19 0 8.7 8.7 0 0 1-2.955-2.191c-1.72-1.984-2.576-4.504-2.576-7.579 0-3.074.85-5.637 2.545-7.597a8.766 8.766 0 0 1 13.13 0 11.18 11.18 0 0 1 2.563 7.591m-9.125 8.152a5.28 5.28 0 0 0 4.436-2.157q1.627-2.175 1.627-5.995t-1.627-5.989a5.67 5.67 0 0 0-4.464-2.167 5.68 5.68 0 0 0-4.464 2.167q-1.608 2.156-1.608 6.008 0 3.85 1.627 5.995a5.27 5.27 0 0 0 4.473 2.138m27.092-4.929a3.4 3.4 0 0 1 .252-1.633 1.1 1.1 0 0 1 .962-.376 1.25 1.25 0 0 1 .912.315c.224.272.333.622.301.973v6.266a1.23 1.23 0 0 1-.32.918 1.17 1.17 0 0 1-.893.333h-15.755a1.24 1.24 0 0 1-.912-.308 1.24 1.24 0 0 1-.302-.906c-.022-.172 0-.347.064-.508a1 1 0 0 1 .3-.416 3.5 3.5 0 0 1 1.645-.24h2.107V92.404h-2.107a3.3 3.3 0 0 1-1.633-.265 1.08 1.08 0 0 1-.376-.955 1.24 1.24 0 0 1 .308-.918 1.38 1.38 0 0 1 .974-.296h9.125c.338-.022.672.088.93.308a1.24 1.24 0 0 1 .321.906 1.08 1.08 0 0 1-.382.955 3.4 3.4 0 0 1-1.664.265h-2.834v15.2h8.977z"/></g><defs><clipPath id="a"><path fill="#fff" d="M5 47h190v105.921H5z"/></clipPath></defs></svg>