<svg width="200" height="200" fill="none" xmlns="http://www.w3.org/2000/svg"><path d="m67.038 66.166-9.27-4.18L39.97 84.328l27.068-18.162Z" fill="#39AFFF"/><path d="m66.856 44-9.088 17.987 9.27 4.179L66.856 44Z" fill="#A2D7FB"/><path d="M30.42 80.234 66.856 44l-9.088 17.987L30.42 80.234Z" fill="#B5D7F3"/><path d="m67.038 66.166-.182 21.977-26.886-3.815 27.068-18.162Z" fill="#2880BF"/><path d="m66.856 44 .182 22.166 17.075 4.355L66.856 44Z" fill="#8EC5F8"/><path d="m98.005 74.98-13.892-4.46L66.856 44l31.15 30.98Z" fill="#B5DFFF"/><path d="m67.038 66.166 13.078 13.078 3.997-8.723-17.075-4.355Z" fill="#4184B7"/><path d="m66.856 88.143 13.26-8.899-13.078-13.078-.182 21.977Z" fill="#306892"/><path d="m84.113 70.522 13.892 4.459-3.717 17.524-10.175-21.983Z" fill="#3D76A8"/><path d="m80.116 79.245 3.997-8.724 10.175 21.984-14.172-13.26Z" fill="#498FCD"/><path d="M80.116 92.505h14.172l-14.172-13.26v13.26Z" fill="#1A638D"/><path d="m66.856 88.143 13.26-8.899v13.26l-13.26-4.361Z" fill="#204E6A"/><path d="m90.018 111.304-9.902-18.8-13.26-4.361 23.162 23.161Z" fill="#0065BC"/><path d="m94.288 92.504-4.27 18.8-9.902-18.8h14.172Z" fill="#1C4F84"/><path d="m98.005 74.98 13.235 13.163-16.952 4.362 3.717-17.524Z" fill="#2F5EA2"/><path d="M121.356 119.754 111.24 88.143l-16.952 4.361 27.068 27.25Z" fill="#1A4281"/><path d="m90.018 111.304 16.984 3.906-12.714-22.706-4.27 18.8Z" fill="#183A6E"/><path d="m121.356 119.754-14.354-4.544-12.714-22.706 27.068 27.25Z" fill="#1F5EAB"/><path d="m121.356 119.754 13.078-8.534-23.194-23.077 10.116 31.611Z" fill="#212762"/><path d="M134.434 133.015V111.22l-13.078 8.534 13.078 13.261Z" fill="#2D0062"/><path d="m107.002 115.211 14.354 17.804v-13.26l-14.354-4.544Z" fill="#041035"/><path d="M121.356 133.015h13.078l-13.078-13.26v13.26Z" fill="#35165E"/><path d="m107.002 115.211 4.238 17.804h10.116l-14.354-17.804Z" fill="#193471"/><path d="m90.018 111.305 16.984 3.906 4.238 17.804-21.222-21.71Z" fill="#022369"/><path d="m134.434 133.016.182 22.895-23.376-22.895h23.194Z" fill="#100339"/><path d="m134.434 111.22 26.521 3.99-26.521 17.805V111.22Z" fill="#9F0566"/><path d="M160.955 102.204v13.007l-26.521-3.991 26.521-9.016Z" fill="#BE63AA"/><path d="m134.616 155.91 26.339-40.699-26.521 17.804.182 22.895Z" fill="#852883"/><path d="m160.955 102.205 39.788-13.515-39.788 26.521v-13.006Z" fill="#F0C2E6"/><path d="m134.616 155.91 35.563-36.155-9.224-4.544-26.339 40.699Z" fill="#CF83C1"/><path d="m200.743 88.69-30.564 31.065-9.224-4.544 39.788-26.52Z" fill="#D082C2"/><path d="m0 110.491 39.97-26.163-9.55-4.095L0 110.491Z" fill="#91D3F8"/><path d="M66.856 88.143 39.97 84.328 0 110.491l66.856-22.348Z" fill="#6BC2E5"/><path d="M57.768 61.986 30.42 80.233l9.55 4.095 17.798-22.342Z" fill="#71BCEF"/><path d="M120.353 76.7H80.39c-10.136 0-18.352 8.215-18.352 18.35v9.804c0 10.135 8.216 18.351 18.352 18.351h39.963c10.135 0 18.351-8.216 18.351-18.351V95.05c0-10.135-8.216-18.35-18.351-18.35Z" fill="#000"/><path d="M71.074 110.518h-.833a1.345 1.345 0 0 1-.977-.326 1.305 1.305 0 0 1-.325-.957 1.09 1.09 0 0 1 .384-.976 3.755 3.755 0 0 1 1.751-.254h1.146V91.971h-1.146a3.529 3.529 0 0 1-1.738-.28 1.138 1.138 0 0 1-.397-1.009 1.3 1.3 0 0 1 .325-.97c.285-.229.645-.34 1.01-.312h15.5a1.152 1.152 0 0 1 .917.364c.227.306.338.682.313 1.061v4.212c.042.451-.051.904-.267 1.302a1.14 1.14 0 0 1-.964.352 1.16 1.16 0 0 1-1.009-.39 3.588 3.588 0 0 1-.273-1.765v-2.545h-9.459v6.002h4.674v-.944a2.52 2.52 0 0 1 .254-1.302 1.034 1.034 0 0 1 .905-.378.918.918 0 0 1 .859.404c.208.547.29 1.135.24 1.719v3.261a3.625 3.625 0 0 1-.246 1.712.977.977 0 0 1-.892.378.915.915 0 0 1-.88-.43 3.799 3.799 0 0 1-.24-1.66v-.619h-4.674v7.897h9.485v-2.891a3.601 3.601 0 0 1 .273-1.764 1.16 1.16 0 0 1 1.01-.39 1.144 1.144 0 0 1 .956.364c.224.424.32.904.273 1.38v4.486a1.37 1.37 0 0 1-.319.983 1.19 1.19 0 0 1-.91.338l-14.726-.019Zm39.183-10.566c0 3.259-.903 5.93-2.709 8.014a9.2 9.2 0 0 1-6.919 3.135 9.2 9.2 0 0 1-6.92-3.135c-1.817-2.097-2.722-4.759-2.722-8.007 0-3.249.899-5.957 2.69-8.027a9.265 9.265 0 0 1 13.871 0 11.816 11.816 0 0 1 2.709 8.02Zm-9.641 8.612a5.577 5.577 0 0 0 4.687-2.278c1.145-1.532 1.718-3.643 1.718-6.334 0-2.69-.573-4.8-1.718-6.328a6.004 6.004 0 0 0-9.433 0c-1.133 1.52-1.7 3.635-1.7 6.348 0 2.712.574 4.823 1.72 6.334a5.557 5.557 0 0 0 4.727 2.258Zm28.623-5.208a3.576 3.576 0 0 1 .267-1.725 1.162 1.162 0 0 1 1.016-.397 1.306 1.306 0 0 1 .963.332c.237.288.352.657.319 1.029v6.62a1.296 1.296 0 0 1-.339.97 1.255 1.255 0 0 1-.434.276c-.163.06-.336.086-.509.076h-16.646a1.306 1.306 0 0 1-.963-.326 1.275 1.275 0 0 1-.256-.446 1.283 1.283 0 0 1-.063-.511 1.094 1.094 0 0 1 .384-.976 3.698 3.698 0 0 1 1.738-.254h2.226V91.971h-2.226a3.482 3.482 0 0 1-1.725-.28 1.141 1.141 0 0 1-.397-1.01 1.301 1.301 0 0 1 .325-.97 1.47 1.47 0 0 1 1.029-.312h9.641c.357-.023.71.094.983.326a1.31 1.31 0 0 1 .338.957 1.135 1.135 0 0 1-.403 1.009 3.592 3.592 0 0 1-1.758.28h-2.995v16.059h9.485v-4.674Z" fill="#fff"/></svg>