<svg xmlns="http://www.w3.org/2000/svg" viewBox="0 0 200 200"><path fill="#12B29E" d="m103.328 28.723 16.318 16.318c1 1 1 2.632-.005 3.636l-17.945 17.946a2.57 2.57 0 0 1-2.805.562 2.6 2.6 0 0 1-.836-.558l-17.91-17.909a2.573 2.573 0 0 1 .005-3.636l16.355-16.355a4.827 4.827 0 0 1 6.823 0z"/><path fill="#234858" d="m75.145 53.723 17.91 17.909c1 1 1 2.632-.005 3.636l-44.536 44.537a2.576 2.576 0 0 1-3.637 0L28.56 103.486a4.824 4.824 0 0 1 .005-6.818l42.94-42.94a2.573 2.573 0 0 1 3.641-.005Zm79.651 26.472 16.318 16.319a4.83 4.83 0 0 1 1.405 3.41 4.83 4.83 0 0 1-1.414 3.408l-42.941 42.945a2.575 2.575 0 0 1-3.637 0l-17.909-17.904a2.574 2.574 0 0 1 0-3.637L151.159 80.2a2.574 2.574 0 0 1 3.637-.005"/><path fill="#12B29E" d="m101.618 133.373 17.909 17.909c1 1 1 2.632-.009 3.636l-16.35 16.35a4.826 4.826 0 0 1-6.823.009l-16.318-16.318a2.57 2.57 0 0 1 .005-3.636l17.945-17.946a2.57 2.57 0 0 1 3.636-.004z"/><path fill="#234858" d="m128.264 53.664 17.909 17.909c1 1 1 2.632-.005 3.636l-17.945 17.946a2.58 2.58 0 0 1-2.806.562 2.6 2.6 0 0 1-.835-.558L106.673 75.25a2.574 2.574 0 0 1 .004-3.636l17.946-17.946a2.57 2.57 0 0 1 2.805-.562c.312.13.596.319.836.558"/><path fill="#12B29E" d="m101.677 80.25 17.909 17.909c1 1 1 2.636-.004 3.636l-17.95 17.95a2.575 2.575 0 0 1-3.637 0l-17.909-17.909a2.57 2.57 0 0 1 .005-3.636l17.945-17.946a2.57 2.57 0 0 1 3.641 0z"/><path fill="#234858" d="m75.091 106.841 17.905 17.909c1 1 1 2.636 0 3.636l-17.95 17.95a2.57 2.57 0 0 1-3.637 0L53.5 128.427a2.57 2.57 0 0 1 0-3.636l17.95-17.946a2.57 2.57 0 0 1 3.636 0z"/></svg>