<svg xmlns="http://www.w3.org/2000/svg" width="33" height="33"><g fill="none"><path fill="#12B29E" d="m17.232.819 3.59 3.59c.22.22.22.579-.001.8l-3.948 3.948a.566.566 0 0 1-.801.001l-3.94-3.94a.566.566 0 0 1 .001-.8L15.731.82a1.062 1.062 0 0 1 1.501 0Z"/><path fill="#234858" d="m11.032 6.319 3.94 3.94c.22.22.22.579-.001.8l-9.798 9.798a.566.566 0 0 1-.8 0l-3.59-3.59a1.062 1.062 0 0 1 .001-1.5l9.447-9.447a.566.566 0 0 1 .801-.001Zm17.523 5.824 3.59 3.59a1.062 1.062 0 0 1-.002 1.5l-9.447 9.448a.566.566 0 0 1-.8 0l-3.94-3.939a.566.566 0 0 1 0-.8l9.799-9.798a.566.566 0 0 1 .8-.001Z"/><path fill="#12B29E" d="m16.856 23.842 3.94 3.94c.22.22.22.579-.002.8l-3.597 3.597a1.062 1.062 0 0 1-1.501.002l-3.59-3.59a.566.566 0 0 1 .001-.8l3.948-3.948a.566.566 0 0 1 .8-.001Z"/><path fill="#234858" d="m22.718 6.306 3.94 3.94c.22.22.22.579-.001.8l-3.948 3.948a.566.566 0 0 1-.801.001l-3.94-3.94a.566.566 0 0 1 .001-.8l3.948-3.948a.566.566 0 0 1 .801-.001Z"/><path fill="#12B29E" d="m16.869 12.155 3.94 3.94c.22.22.22.58-.001.8l-3.949 3.949a.566.566 0 0 1-.8 0l-3.94-3.94a.566.566 0 0 1 .001-.8l3.948-3.948a.566.566 0 0 1 .801 0Z"/><path fill="#234858" d="m11.02 18.005 3.939 3.94c.22.22.22.58 0 .8l-3.949 3.949a.566.566 0 0 1-.8 0l-3.94-3.94a.566.566 0 0 1 0-.8l3.949-3.948a.566.566 0 0 1 .8 0Z"/></g></svg>