<svg xmlns="http://www.w3.org/2000/svg" viewBox="0 0 200 200"><g clip-path="url(#a)"><path fill="#0056BF" d="M143.306 161.555c19.438-13.638 32.141-36.216 32.141-61.767S162.744 51.638 143.306 38H200v123.555zM24.616 99.767c0 25.551 12.702 48.129 32.14 61.767H0V38h56.757C37.318 51.638 24.615 74.216 24.615 99.767ZM100 161.472c34.09 0 61.726-27.635 61.726-61.725S134.09 38.02 100 38.02 38.274 65.656 38.274 99.747 65.91 161.472 100 161.472"/><path fill="#fff" d="M119.314 78.977c-3.119-7.069-10.25-8.545-19.002-7.09l-2.807-10.893-6.632 1.704 2.765 10.874c-1.746.457-3.534.81-5.301 1.31L85.572 64.07l-6.632 1.704 2.806 10.894c-1.434.395-13.368 3.472-13.368 3.472l1.83 7.09s4.865-1.352 4.823-1.248c2.682-.686 3.971.645 4.574 1.913l7.713 29.854c.104.874-.041 2.35-1.933 2.849.104.062-4.824 1.247-4.824 1.247l.728 8.254s11.83-3.015 13.389-3.41l2.848 11.019 6.632-1.705-2.848-11.102c1.829-.436 3.596-.873 5.322-1.31l2.828 11.04 6.632-1.705-2.849-10.998c10.208-2.474 17.422-8.919 15.925-18.752-.935-5.926-7.422-10.811-12.806-11.352 3.326-2.952 5.01-7.255 2.952-12.848Zm-3.181 25.967c1.31 9.75-12.224 10.935-16.715 12.1l-3.888-14.595c4.491-1.143 18.379-6.091 20.603 2.495m-8.17-19.834c1.393 8.67-10.188 9.667-13.93 10.645l-3.555-13.223c3.763-.977 14.636-5.468 17.485 2.578"/></g><defs><clipPath id="a"><path fill="#fff" d="M0 38h200v123.555H0z"/></clipPath></defs></svg>