<svg xmlns="http://www.w3.org/2000/svg" viewBox="0 0 200 200"><g fill="#37F" clip-path="url(#a)"><path d="M152.28 73.252a72 72 0 0 0-3.792-1.646q.287-2.083.464-4.114c1.386-16.114-2.679-27.777-11.452-32.843s-20.909-2.755-34.172 6.505A81 81 0 0 0 100 43.61a90 90 0 0 0-3.331-2.456c-13.263-9.26-25.396-11.57-34.169-6.505s-12.838 16.73-11.455 32.843q.177 2.03.464 4.114a94 94 0 0 0-3.792 1.646c-14.652 6.854-22.714 16.209-22.714 26.334s8.065 19.484 22.714 26.335a70 70 0 0 0 3.792 1.646 84 84 0 0 0-.464 4.114c-1.386 16.13 2.68 27.776 11.455 32.842a20.2 20.2 0 0 0 10.248 2.634c7.077 0 15.26-3.085 23.92-9.132A81 81 0 0 0 100 155.57a73 73 0 0 0 3.328 2.455c8.664 6.051 16.844 9.132 23.922 9.132 3.59.049 7.128-.86 10.25-2.634 8.773-5.066 12.838-16.728 11.452-32.842a84 84 0 0 0-.464-4.114 90 90 0 0 0 3.792-1.646c14.652-6.854 22.714-16.209 22.714-26.335 0-10.125-8.069-19.494-22.714-26.334m-45.923-27.78c7.683-5.365 14.938-8.14 20.929-8.14a14.93 14.93 0 0 1 7.571 1.88c6.794 3.92 10.01 14.056 8.825 27.802a87 87 0 0 1-.276 2.666 122 122 0 0 0-23.089-5.266 121.6 121.6 0 0 0-16.13-17.355 63 63 0 0 1 2.17-1.586Zm20.672 69.711a150 150 0 0 1-9.589 14.606 152.5 152.5 0 0 1-34.893 0 150 150 0 0 1-9.589-14.606 151 151 0 0 1-7.844-15.597A152.4 152.4 0 0 1 82.56 69.374a152.5 152.5 0 0 1 34.893 0A152.4 152.4 0 0 1 134.9 99.586a150 150 0 0 1-7.871 15.597m10.576-8.779a110.3 110.3 0 0 1 4.961 17.756 111 111 0 0 1-17.861 4.575 163 163 0 0 0 6.913-10.902 152 152 0 0 0 5.987-11.429m-24.714 29.155A110.6 110.6 0 0 1 100 148.743a110.3 110.3 0 0 1-12.894-13.184c4.217.349 8.526.527 12.894.527s8.661-.178 12.891-.527m-37.609-6.824a111 111 0 0 1-17.861-4.575 110.7 110.7 0 0 1 4.97-17.756 158 158 0 0 0 5.992 11.429 155 155 0 0 0 6.9 10.902Zm-12.89-35.982a111 111 0 0 1-4.971-17.756c5.816-2.02 11.79-3.55 17.861-4.573a163 163 0 0 0-6.913 10.9 152 152 0 0 0-5.977 11.429m24.714-29.156A110.3 110.3 0 0 1 100 50.43a110.5 110.5 0 0 1 12.891 13.167A157 157 0 0 0 100 63.071c-4.365 0-8.677.177-12.894.526m44.508 17.727a152 152 0 0 0-6.912-10.9 110.3 110.3 0 0 1 17.864 4.573 110.4 110.4 0 0 1-4.97 17.756 153 153 0 0 0-5.982-11.43Zm-75.293-14.31c-1.185-13.746 2.032-23.882 8.826-27.802a14.93 14.93 0 0 1 7.57-1.88c5.992 0 13.247 2.775 20.93 8.14a81 81 0 0 1 2.17 1.57 122 122 0 0 0-16.13 17.355 122 122 0 0 0-23.089 5.267q-.162-1.326-.276-2.65Zm-6.363 54.107c-12.508-5.846-19.665-13.7-19.665-21.541s7.17-15.699 19.665-21.545q1.2-.56 2.45-1.093a121.6 121.6 0 0 0 6.965 22.644 121.6 121.6 0 0 0-6.965 22.635 74 74 0 0 1-2.45-1.1m43.68 32.566c-11.315 7.9-21.7 10.178-28.491 6.254s-10.01-14.052-8.826-27.799q.116-1.316.277-2.666a121.4 121.4 0 0 0 23.095 5.283 122 122 0 0 0 16.13 17.354 127 127 0 0 1-2.186 1.574Zm50.034-21.545c1.185 13.747-2.031 23.882-8.825 27.803s-17.177 1.645-28.49-6.255a88 88 0 0 1-2.17-1.573 121.6 121.6 0 0 0 16.13-17.355 121.4 121.4 0 0 0 23.089-5.283q.147 1.34.27 2.663zm6.363-11.021q-1.201.564-2.449 1.093a121.7 121.7 0 0 0-6.962-22.628c3.053-7.3 5.386-14.88 6.965-22.634.833.356 1.646.718 2.45 1.093 12.508 5.846 19.665 13.7 19.665 21.545 0 7.844-7.167 15.685-19.665 21.531zm-40.499-23.097c2.239-1.14 3.641-3.15 3.315-6.495-.441-4.572-4.394-6.106-9.381-6.544v-6.343h-3.868v6.178c-1.017 0-2.054.02-3.085.04v-6.215h-3.864v6.343c-.836.017-1.646.033-2.463.033v-.02h-5.329v4.118s2.854-.052 2.808 0c1.564 0 2.074.909 2.222 1.692v17.378a1.366 1.366 0 0 1-1.452 1.277c.05.046-2.81 0-2.81 0l-.768 4.608h5.036c.935 0 1.857.017 2.759.023v6.413h3.858v-6.343c1.063.023 2.087.032 3.088.029v6.32h3.864v-6.405c6.511-.369 11.047-2.015 11.614-8.105.457-4.908-1.857-7.097-5.544-7.982m-12.927-8.625c2.18 0 9.036-.694 9.036 3.855 0 4.361-6.853 3.855-9.035 3.855v-7.71Zm0 20.1v-8.5c2.634 0 10.834-.753 10.834 4.247.003 4.796-8.217 4.249-10.837 4.253h.004Z"/></g><defs><clipPath id="a"><path fill="#fff" d="M25 32h150v135.157H25z"/></clipPath></defs></svg>