<svg xmlns="http://www.w3.org/2000/svg" width="142" height="142"><g fill="none"><circle cx="70.87" cy="70.87" r="70.87" fill="#7866D5"/><path fill="#FFF" d="M99.6 36.37c2.42.29 4.87.45 7.26.91 4.74.92 6.31 3.28 5.5 8.07a3.97 3.97 0 0 1-3.43 3.46c-1.13.18-2.27.26-3.41.24-15.56.05-31.11.09-46.68.12-2.34.02-4.67.23-6.97.62-7.7 1.26-10.63 4.45-11.24 12.22-.29 3.64-.29 3.64 3.36 3.64h63.81c.99 0 1.95.27 2.8.77 2.82 1.8 2.12 4.66 1.96 7.25-.13 2.1-1.4 3.25-3.56 3.67-.91.15-1.83.21-2.75.19H42.63c-2.35 0-2.31 0-2.14 2.33.08 2.12.35 4.23.8 6.31.96 3.83 3.33 6.23 7.15 7.29 4.23 1.19 8.58 1.45 12.92 1.48 15.17.1 30.34.06 45.52.06 1.92 0 3.73.24 4.87 2.03 1.86 3 .94 6.94-2.06 8.81-.41.25-.85.46-1.3.62-3.3 1.06-6.73 1.31-10.15 1.37-14.25.26-28.49.26-42.74 0-4.4-.11-8.79-.62-13.09-1.53-10.14-2.1-15.21-7.25-16.94-17.46-.4-2.35-.6-4.73-.89-7.1V63.13c.19-1.83.37-3.66.58-5.47C26.48 46.13 31.66 40.42 43 37.9c4.04-.9 8.15-1.1 12.23-1.53H99.6Z"/><path fill="#FFF" d="M76.85 109.8c-7.15 0-14.3-.06-21.4-.19-4.51-.11-9.03-.63-13.43-1.56-10.85-2.25-16.51-8.08-18.34-18.92-.28-1.67-.47-3.37-.65-5-.08-.73-.16-1.45-.25-2.18l-.01-.22.01-18.78.18-1.76c.13-1.25.26-2.49.4-3.72 1.43-12.25 7.19-18.63 19.25-21.31 3.16-.7 6.35-.99 9.44-1.27 1-.09 2-.18 3-.29l.19-.01h44.48l.11.01c.74.09 1.49.17 2.24.24 1.68.17 3.42.35 5.15.69 5.71 1.11 7.91 4.33 6.93 10.13-.3 2.54-2.35 4.61-4.97 4.95-1.17.19-2.43.28-3.67.25-15.52.05-31.08.09-46.64.12-2.22.02-4.47.22-6.67.6-6.92 1.14-9.2 3.61-9.75 10.59-.05.62-.1 1.24-.11 1.67.43.03 1.06.03 1.68.03h63.8c1.31 0 2.59.35 3.72 1.02 3.42 2.19 3.13 5.5 2.92 7.92-.03.33-.06.65-.08.98-.17 2.84-1.95 4.74-5.01 5.33-1.07.17-2.11.24-3.14.22H42.29c.01.09.01.19.02.28l.01.12c.08 2.08.34 4.1.76 6.06.79 3.14 2.66 5.04 5.87 5.94 4.29 1.2 8.7 1.39 12.45 1.41 11.82.08 23.85.07 35.48.06h10.03c1.48 0 4.56 0 6.38 2.86a8.14 8.14 0 0 1 1.03 6.21 8.13 8.13 0 0 1-3.66 5.09c-.52.32-1.08.59-1.67.79-3.7 1.19-7.48 1.41-10.7 1.47-7.14.11-14.29.17-21.44.17ZM26.36 81.62c.09.7.16 1.41.24 2.11.18 1.59.36 3.23.62 4.8 1.59 9.41 6.09 14.04 15.53 16 4.2.89 8.49 1.39 12.77 1.49 14.15.25 28.51.25 42.66 0 2.95-.05 6.41-.25 9.63-1.28a4.575 4.575 0 0 0 2.95-3.29c.28-1.2.08-2.43-.57-3.47-.56-.88-1.41-1.18-3.34-1.18H96.83c-11.63.01-23.67.01-35.5-.06-3.99-.03-8.7-.23-13.39-1.55-4.46-1.24-7.29-4.13-8.41-8.58a39.28 39.28 0 0 1-.85-6.67l-.01-.06c-.11-1.41-.18-2.43.61-3.29.8-.86 1.86-.86 3.33-.86h63.62c.85.02 1.67-.03 2.47-.16 1.62-.31 1.99-1 2.05-2 .02-.36.05-.71.08-1.07.22-2.54.17-3.66-1.22-4.55-.52-.31-1.17-.49-1.83-.49h-63.8c-2.2 0-3.53 0-4.49-1.03-.95-1.03-.85-2.36-.67-4.55.68-8.57 4.26-12.45 12.75-13.84 2.38-.41 4.82-.63 7.25-.65 15.57-.03 31.13-.07 46.69-.12 1.07.02 2.11-.05 3.13-.22 1.04-.14 1.81-.92 1.93-1.9.67-3.95-.28-5.35-4.05-6.09-1.57-.3-3.15-.47-4.83-.64-.73-.08-1.46-.15-2.19-.24H55.34c-.98.1-1.97.19-2.95.28-3.11.28-6.05.55-8.98 1.2-10.59 2.36-15.21 7.47-16.46 18.22-.14 1.22-.27 2.44-.39 3.67l-.17 1.68v18.39h-.03Z"/></g></svg>