<svg width="200" height="200" fill="none" xmlns="http://www.w3.org/2000/svg"><path d="M99.863 174.725c41.345 0 74.862-33.517 74.862-74.862C174.725 58.517 141.208 25 99.863 25 58.517 25 25 58.517 25 99.863c0 41.345 33.517 74.862 74.863 74.862Z" fill="#7866D5"/><path d="M130.211 63.419c2.557.306 5.145.475 7.669.961 5.007.972 6.666 3.465 5.81 8.525a4.195 4.195 0 0 1-3.623 3.655 20.6 20.6 0 0 1-3.602.253c-16.437.053-32.863.095-49.31.127a46.405 46.405 0 0 0-7.363.655c-8.133 1.331-11.229 4.7-11.873 12.909-.306 3.844-.306 3.844 3.55 3.844h67.404c1.046 0 2.06.286 2.958.814 2.979 1.901 2.239 4.922 2.07 7.658-.137 2.219-1.478 3.433-3.76 3.877-.961.159-1.933.222-2.905.201H70.032c-2.483 0-2.44 0-2.26 2.461.084 2.24.369 4.468.844 6.666 1.014 4.045 3.518 6.581 7.553 7.7 4.468 1.257 9.063 1.532 13.648 1.564 16.025.105 32.049.063 48.084.063 2.029 0 3.941.254 5.145 2.144a6.766 6.766 0 0 1-2.176 9.307 7.449 7.449 0 0 1-1.373.655c-3.486 1.119-7.11 1.383-10.722 1.447-15.053.275-30.095.275-45.148 0a76.024 76.024 0 0 1-13.828-1.616c-10.71-2.219-16.067-7.659-17.894-18.444-.423-2.482-.634-4.996-.94-7.5V91.687c.2-1.933.39-3.867.612-5.779 1.395-12.18 6.867-18.21 18.846-20.873 4.267-.95 8.609-1.162 12.919-1.616h46.869Z" fill="#fff"/><path d="M106.179 140.986c-7.552 0-15.105-.064-22.605-.201a77.904 77.904 0 0 1-14.187-1.648c-11.461-2.377-17.44-8.535-19.373-19.986-.296-1.764-.497-3.56-.687-5.281-.084-.772-.169-1.532-.264-2.303l-.01-.233.01-19.838.19-1.859c.138-1.32.275-2.63.423-3.93 1.51-12.94 7.595-19.679 20.334-22.51 3.338-.74 6.708-1.046 9.972-1.342 1.057-.095 2.113-.19 3.17-.306l.2-.01h46.986l.116.01c.782.095 1.574.18 2.366.254 1.775.18 3.613.37 5.44.729 6.032 1.172 8.356 4.574 7.321 10.7-.317 2.683-2.482 4.87-5.25 5.23a21.29 21.29 0 0 1-3.877.263c-16.394.053-32.831.095-49.268.127a43.893 43.893 0 0 0-7.045.634c-7.31 1.204-9.719 3.813-10.3 11.186-.052.655-.105 1.31-.116 1.764.455.032 1.12.032 1.775.032h67.394c1.384 0 2.736.37 3.93 1.078 3.613 2.313 3.306 5.81 3.084 8.366-.031.348-.063.686-.084 1.035-.18 3-2.06 5.007-5.292 5.63-1.131.18-2.229.254-3.317.233H69.672c.011.095.011.2.022.295l.01.127a37.36 37.36 0 0 0 .803 6.402c.834 3.317 2.81 5.324 6.2 6.274 4.532 1.268 9.19 1.469 13.152 1.49 12.486.084 25.194.074 37.479.063h10.595c1.563 0 4.817 0 6.739 3.021a8.6 8.6 0 0 1 1.088 6.56 8.585 8.585 0 0 1-3.866 5.377 8.693 8.693 0 0 1-1.764.834c-3.908 1.257-7.901 1.49-11.303 1.553-7.542.116-15.095.18-22.648.18Zm-53.334-29.768c.095.74.169 1.49.254 2.229.19 1.68.38 3.412.654 5.07 1.68 9.941 6.434 14.831 16.405 16.902a73.508 73.508 0 0 0 13.49 1.574c14.947.264 30.116.264 45.063 0 3.116-.053 6.771-.264 10.173-1.352a4.834 4.834 0 0 0 3.116-3.476 4.802 4.802 0 0 0-.602-3.665c-.592-.93-1.49-1.247-3.528-1.247h-10.585c-12.285.011-25.003.011-37.5-.063-4.215-.032-9.19-.243-14.144-1.637-4.712-1.31-7.7-4.363-8.884-9.064-.5-2.318-.8-4.676-.898-7.045l-.01-.064c-.117-1.489-.19-2.567.644-3.475.845-.909 1.965-.909 3.517-.909h67.205c.898.021 1.764-.031 2.609-.169 1.711-.327 2.102-1.056 2.165-2.112.021-.381.053-.75.085-1.131.232-2.683.179-3.866-1.289-4.806a3.829 3.829 0 0 0-1.933-.518H71.458c-2.324 0-3.73 0-4.743-1.088-1.004-1.088-.898-2.493-.708-4.806.718-9.053 4.5-13.151 13.468-14.62a47.558 47.558 0 0 1 7.659-.686c16.447-.032 32.884-.074 49.32-.127 1.13.021 2.229-.053 3.306-.233 1.099-.147 1.912-.971 2.039-2.007.708-4.172-.296-5.65-4.278-6.433-1.658-.317-3.327-.496-5.102-.676-.771-.084-1.542-.158-2.313-.253H83.458c-1.035.105-2.081.2-3.117.296-3.285.295-6.39.58-9.485 1.267-11.187 2.493-16.067 7.891-17.388 19.247a228.304 228.304 0 0 0-.412 3.876l-.18 1.775v19.426h-.031Z" fill="#fff"/></svg>