<svg xmlns="http://www.w3.org/2000/svg" viewBox="0 0 200 200"><g clip-path="url(#a)"><path fill="#7055E9" d="M174.512 110.342c-.176-2.236-.337-4.532-.542-6.818a19 19 0 0 0-.384-2.566c-.632-2.691-1.26-5.383-1.992-8.045-.592-2.153-1.248-4.307-2.027-6.417s-1.748-4.252-2.688-6.348c-1.317-2.939-2.598-5.903-4.066-8.77a193 193 0 0 0-5.537-10.077c-1.959-3.362-3.947-6.717-6.15-9.93a98 98 0 0 0-6.424-8.325 84 84 0 0 0-6.38-6.548 39 39 0 0 0-5.29-4.264 40.7 40.7 0 0 0-10.489-5.095c-2.207-.671-4.453-1.414-6.725-1.608-2.892-.24-5.81-.52-8.756-.223-2.566.259-5.146.32-7.672.933-1.317.32-2.68.453-3.976.83-2.397.7-4.773 1.47-7.13 2.292-2.538.883-5.093 1.745-7.537 2.821-2.981 1.306-5.877 2.803-8.795 4.256-2.336 1.163-4.704 2.282-6.958 3.589-3.786 2.21-7.504 4.54-11.228 6.85a87.6 87.6 0 0 0-11.408 8.523 60.1 60.1 0 0 0-11.642 13.521c-.635 1.02-1.374 2.003-1.833 3.097a58 58 0 0 0-2.243 6.208 33.6 33.6 0 0 0-1.281 6.122 59 59 0 0 0-.108 7.454c.072 2.336.337 4.665.524 6.994q.03.192.09.376c.337 1.375.65 2.757 1.026 4.12.589 2.132 1.163 4.274 1.859 6.373.499 1.508 1.21 2.939 1.794 4.425.477 1.252.815 2.562 1.335 3.793.826 1.959 1.73 3.886 2.641 5.81 1.436 3.057 2.871 6.136 4.432 9.136 1.331 2.548 2.824 5.024 4.306 7.479 2.871 4.726 5.846 9.362 9.284 13.697a72 72 0 0 0 8.523 9.248c4.794 4.256 10.047 7.672 16.245 9.606 2.92.912 5.885 1.364 8.87 1.741 1.818.177 3.647.185 5.466.025 3.356-.15 6.69-.631 9.951-1.436 1.46-.384 3-.481 4.439-.922 2.074-.639 4.091-1.478 6.133-2.225 2.221-.811 4.46-1.568 6.653-2.44 1.482-.589 2.91-1.31 4.338-2.02 3.912-1.956 7.895-3.779 11.688-5.947a251 251 0 0 0 13.758-8.515 75.7 75.7 0 0 0 11.965-9.757c4.306-4.35 8.009-9.147 10.546-14.785a40.5 40.5 0 0 0 2.785-9.082c.416-2.322.413-4.716.61-7.156"/><path fill="#fff" d="M144.856 114.53c-.287 3.154-1.539 5.498-4.306 7.037-3.459 1.927-6.865 3.947-10.295 5.925l-17.25 9.933c-5.871 3.376-11.688 6.847-17.627 10.105-4.18 2.293-9.205.689-11.1-3.915-1.456-3.546-.15-7.644 3.543-9.711 4.618-2.591 9.14-5.354 13.729-7.995 4.945-2.842 9.94-5.594 14.871-8.454 3.65-2.114 7.22-4.364 10.859-6.499 2.171-1.278 4.306-2.674 6.624-3.632 3.643-1.503 8.143-.158 9.948 3.883.466 1.048.678 2.21 1.004 3.323m-23.479-34.884c3.484-.075 6.635 2.795 7.457 5.57a7.9 7.9 0 0 1-3.722 9.16c-4.665 2.584-9.201 5.384-13.815 8.039-5.035 2.928-10.106 5.799-15.162 8.67q-4.74 2.721-9.463 5.469c-2.113 1.231-4.224 2.469-6.301 3.764a7.7 7.7 0 0 1-6.072.969 7.68 7.68 0 0 1-4.837-3.797c-1.956-3.714-1.156-8.415 3.143-10.812 3.976-2.217 7.86-4.597 11.803-6.875 4.78-2.767 9.578-5.502 14.354-8.254l12.987-7.453c2.192-1.256 4.338-2.595 6.581-3.743.919-.441 2.035-.488 3.047-.707m-10.07-19.073c-.29 2.95-1.561 5.07-4.087 6.517-4.389 2.512-8.724 5.11-13.102 7.64-3.947 2.293-7.959 4.535-11.935 6.818a4225 4225 0 0 0-11.666 6.71c-2.275 1.303-4.504 2.692-6.847 3.854-3.154 1.565-7.217.438-9.276-2.712a7.3 7.3 0 0 1-1.045-5.523 7.13 7.13 0 0 1 3.567-4.927c5.308-3.061 10.59-6.169 15.901-9.22 5.311-3.05 10.719-6.067 16.059-9.132 3.714-2.131 7.37-4.364 11.099-6.46 3.642-2.055 8.587-.796 10.374 3.28.442.988.646 2.093.958 3.155"/></g><defs><clipPath id="a"><path fill="#fff" d="M25 25h149.641v150H25z"/></clipPath></defs></svg>