<svg xmlns="http://www.w3.org/2000/svg" width="256" height="256"><defs><linearGradient id="a" x1="0%" x2="100%" y1="50%" y2="50%"><stop offset="0%" stop-color="#00BFFF"/><stop offset="100%" stop-color="#6619FF"/></linearGradient></defs><g fill="none" fill-rule="evenodd"><circle cx="128" cy="128" r="128" fill="#1F1B35"/><path fill="url(#a)" fill-rule="nonzero" d="M158.952 128 205 174.002h-16.217a10.5 10.5 0 0 1-7.431-3.069L138.395 128l42.957-42.968a10.5 10.5 0 0 1 7.431-3.069H205L158.952 128ZM74.637 85.032a10.503 10.503 0 0 0-7.42-3.069H51L97.037 128 51 174.002h16.217c2.782 0 5.45-1.103 7.42-3.069L117.605 128 74.637 85.032ZM128 138.395l-42.968 42.968a10.503 10.503 0 0 0-3.069 7.42V205L128 158.963 174.037 205v-16.217a10.5 10.5 0 0 0-3.08-7.42L128 138.395Zm0-20.79 42.957-42.968a10.5 10.5 0 0 0 3.08-7.42V51L128 97.037 81.963 51v16.217c0 2.782 1.103 5.45 3.069 7.42L128 117.605Z"/></g></svg>