<svg width="200" height="200" fill="none" xmlns="http://www.w3.org/2000/svg"><path d="M100 175c41.421 0 75-33.579 75-75s-33.579-75-75-75-75 33.579-75 75 33.579 75 75 75Z" fill="#1F1B35"/><path d="m118.136 100 26.981 26.954h-9.502a6.145 6.145 0 0 1-4.354-1.798L106.091 100l25.17-25.177a6.152 6.152 0 0 1 4.354-1.798h9.502L118.136 100ZM68.733 74.823a6.154 6.154 0 0 0-4.348-1.798h-9.502L81.858 100l-26.975 26.954h9.502c1.63 0 3.193-.646 4.348-1.798L93.909 100 68.733 74.823ZM100 106.091l-25.177 25.176a6.155 6.155 0 0 0-1.798 4.348v9.502L100 118.142l26.975 26.975v-9.502a6.157 6.157 0 0 0-1.805-4.348L100 106.091Zm0-12.182 25.17-25.176a6.156 6.156 0 0 0 1.805-4.348v-9.502L100 81.858 73.025 54.883v9.502c0 1.63.646 3.193 1.798 4.348L100 93.909Z" fill="url(#a)"/><defs><linearGradient id="a" x1="54.883" y1="100" x2="145.117" y2="100" gradientUnits="userSpaceOnUse"><stop stop-color="#00BFFF"/><stop offset="1" stop-color="#6619FF"/></linearGradient></defs></svg>