<svg xmlns="http://www.w3.org/2000/svg" xmlns:xlink="http://www.w3.org/1999/xlink" width="256" height="256"><defs><path id="a" d="M0 1.624h93.741v103.99H0z"/><path id="c" d="M.75.283h93.742v121.851H.75z"/></defs><g fill="none" fill-rule="evenodd"><circle cx="128" cy="128" r="128" fill="#12161D" fill-rule="nonzero"/><g transform="translate(66.783 61.7)"><mask id="b" fill="#fff"><use xlink:href="#a"/></mask><path fill="#00B35A" fill-rule="nonzero" d="M14.236 84.428V15.88h79.505V1.623H0v68.726c0 13.799 9.729 24.993 22.378 35.265-5.007-6.404-8.14-13.361-8.14-21.186" mask="url(#b)"/></g><g transform="translate(94.158 91.18)"><mask id="d" fill="#fff"><use xlink:href="#c"/></mask><path fill="#FFF" fill-rule="nonzero" d="M80.466 69.011c0 12.287-16.282 24.288-32.808 35.92-16.524-11.632-32.807-23.633-32.807-35.92V14.345h65.615v54.666ZM47.991.283H.751v68.728c0 22.08 24.921 37.497 46.87 53.124 21.969-15.627 46.872-31.043 46.872-53.124V.283H47.99Z" mask="url(#d)"/></g></g></svg>