<svg xmlns="http://www.w3.org/2000/svg" viewBox="0 0 200 200"><path fill="#12161D" d="M100 175c41.421 0 75-33.579 75-75s-33.579-75-75-75-75 33.579-75 75 33.579 75 75 75"/><mask id="a" width="56" height="62" x="64" y="62" maskUnits="userSpaceOnUse" style="mask-type:alpha"><path fill="#fff" d="M64.13 62.104h54.927v60.932H64.131V62.104Z"/></mask><g mask="url(#a)"><path fill="#00B35A" d="M72.472 110.622V70.457h46.585v-8.353H64.131v40.269c0 8.085 5.7 14.644 13.112 20.663-2.934-3.753-4.77-7.829-4.77-12.414"/></g><mask id="b" width="56" height="72" x="80" y="78" maskUnits="userSpaceOnUse" style="mask-type:alpha"><path fill="#fff" d="M80.61 78.592h54.927v71.397H80.61z"/></mask><g mask="url(#b)"><path fill="#fff" d="M127.319 118.862c0 7.2-9.54 14.231-19.224 21.047-9.682-6.816-19.222-13.847-19.222-21.047v-32.03h38.446zm-19.028-40.27h-27.68v40.27c0 12.938 14.602 21.971 27.463 31.127 12.872-9.156 27.464-18.189 27.464-31.127v-40.27z"/></g></svg>