<svg xmlns="http://www.w3.org/2000/svg" width="256" height="256"><defs><linearGradient id="a" x1=".023%" x2="100.072%" y1="49.973%" y2="49.973%"><stop offset="0%" stop-color="#B06AB3"/><stop offset="100%" stop-color="#6699F8"/></linearGradient></defs><g fill="none" fill-rule="evenodd"><circle cx="128" cy="128" r="128" fill="url(#a)"/><g fill="#FFF" fill-rule="nonzero"><path d="m127.025 91.24-35.632 8.732a.587.587 0 0 1 .517 0c-.045.6-4.37 60.009 36.02 73.843 40.39-13.834 36.068-73.246 36.02-73.843a.577.577 0 0 1-.517 0l-35.632-8.733"/><path d="M195.394 74.155c.093 1.107 8.16 111.095-67.201 136.707C52.136 185.253 60.202 75.265 60.288 74.158l67.298-17.126 66.477 16.17c.45.11.783.49.818.956l.513-.003ZM183.36 84.807a.882.882 0 0 1-.783 0l-54.522-14.072-55.062 13.289a.876.876 0 0 1 .783 0c-.074.914-6.705 91.306 55.232 112.356 61.057-20.267 54.426-110.66 54.352-111.573Z"/></g></g></svg>