<svg xmlns="http://www.w3.org/2000/svg" viewBox="0 0 200 200"><path fill="url(#a)" d="M100 175c41.421 0 75-33.579 75-75s-33.579-75-75-75-75 33.579-75 75 33.579 75 75 75"/><path fill="#fff" d="M99.429 78.46 78.55 83.578a.34.34 0 0 1 .303 0c-.027.352-2.56 35.161 21.105 43.267 23.666-8.106 21.134-42.917 21.106-43.267a.34.34 0 0 1-.303 0L99.884 78.46m39.605-10.01c.054.649 4.781 65.095-39.376 80.102-44.564-15.006-39.838-79.452-39.788-80.1l39.433-10.035 38.951 9.475a.62.62 0 0 1 .479.56zm-7.051 6.241a.52.52 0 0 1-.459 0l-31.947-8.245-32.263 7.787a.51.51 0 0 1 .46 0c-.044.535-3.93 53.499 32.362 65.833 35.775-11.875 31.89-64.84 31.847-65.375"/><defs><linearGradient id="a" x1="25.035" x2="175.108" y1="99.96" y2="99.96" gradientUnits="userSpaceOnUse"><stop stop-color="#B06AB3"/><stop offset="1" stop-color="#6699F8"/></linearGradient></defs></svg>