<svg xmlns="http://www.w3.org/2000/svg" viewBox="0 0 200 200"><g clip-path="url(#a)"><path fill="url(#b)" d="m151.275 42.962-68.57-17.757a6.41 6.41 0 0 0-6.194 1.716L26.843 77.423a6.43 6.43 0 0 0-1.61 6.222l18.873 68.273a6.43 6.43 0 0 0 4.584 4.513l68.569 17.757a6.42 6.42 0 0 0 6.201-1.717l49.668-50.501a6.43 6.43 0 0 0 1.611-6.223l-18.901-68.265a6.44 6.44 0 0 0-4.563-4.52"/><path fill="#fff" d="M66.793 91.359a7.6 7.6 0 0 1 5.728 2.203 8.15 8.15 0 0 1 2.119 5.891v12.572h-2.063V99.453a6.3 6.3 0 0 0-1.554-4.492 5.7 5.7 0 0 0-4.386-1.667 6.78 6.78 0 0 0-5.1 2.062c-1.32 1.378-1.977 3.37-1.977 5.99v10.672h-2.034V83.716h2.027v11.93q2.21-4.281 7.24-4.287m22.651-.001a9.18 9.18 0 0 1 7.219 3.158 10.98 10.98 0 0 1 2.768 7.48v.974H81.074a8.2 8.2 0 0 0 2.727 5.481 9.34 9.34 0 0 0 10.093 1.088 6.86 6.86 0 0 0 2.747-2.67l1.78 1.053a8.94 8.94 0 0 1-3.531 3.34 11 11 0 0 1-5.255 1.229 10.37 10.37 0 0 1-7.642-2.973 10.2 10.2 0 0 1-2.995-7.579 10.37 10.37 0 0 1 2.93-7.543 10.1 10.1 0 0 1 7.516-3.038m0 1.943a8.08 8.08 0 0 0-5.742 2.119 8.3 8.3 0 0 0-2.628 5.537H97.32a8.3 8.3 0 0 0-2.564-5.65 7.66 7.66 0 0 0-5.312-2.013zm30.329 18.724h-2.465l-6.809-8.843-6.83 8.815h-2.472l8.094-10.39-7.607-9.832h2.458l6.357 8.215 6.357-8.215h2.423l-7.558 9.79zm20.625-20.221h2.062v20.222h-2.062v-4.57a9.5 9.5 0 0 1-3.532 3.68 9.9 9.9 0 0 1-5.135 1.335 10.561 10.561 0 0 1-7.289-17.926 10.56 10.56 0 0 1 7.289-3.186 9.9 9.9 0 0 1 5.135 1.335 9.54 9.54 0 0 1 3.532 3.68zm-14.621 16.245a8.617 8.617 0 0 0 12.156 0 8.795 8.795 0 0 0 0-12.212 8.62 8.62 0 0 0-12.156 0 8.745 8.745 0 0 0 0 12.212"/></g><defs><linearGradient id="b" x1="25" x2="175" y1="99.693" y2="99.693" gradientUnits="userSpaceOnUse"><stop stop-color="#1F90D1"/><stop offset="1" stop-color="#0062A8"/></linearGradient><clipPath id="a"><path fill="#fff" d="M25 25h150v149.393H25z"/></clipPath></defs></svg>