<svg width="200" height="200" fill="none" xmlns="http://www.w3.org/2000/svg"><path d="M168.425 24.249 77.169.617A8.535 8.535 0 0 0 68.925 2.9L2.824 70.111A8.554 8.554 0 0 0 .68 78.394l25.117 90.862a8.562 8.562 0 0 0 6.101 6.006l91.256 23.632a8.555 8.555 0 0 0 8.254-2.284l66.101-67.211a8.546 8.546 0 0 0 2.143-8.281l-25.154-90.852a8.577 8.577 0 0 0-6.073-6.016Z" fill="url(#a)"/><path d="M55.99 88.658a10.105 10.105 0 0 1 7.624 2.933 10.846 10.846 0 0 1 2.82 7.84v16.732h-2.745V99.431a8.375 8.375 0 0 0-2.068-5.979 7.604 7.604 0 0 0-5.838-2.218 9.024 9.024 0 0 0-6.787 2.745c-1.757 1.833-2.632 4.484-2.632 7.971v14.204h-2.707V78.487h2.698v15.877c1.962-3.798 5.173-5.7 9.635-5.706Zm30.146 0a12.219 12.219 0 0 1 9.607 4.202 14.617 14.617 0 0 1 3.685 9.955v1.297h-24.43a10.892 10.892 0 0 0 3.628 7.294 12.421 12.421 0 0 0 13.432 1.448 9.125 9.125 0 0 0 3.657-3.553l2.369 1.4a11.903 11.903 0 0 1-4.7 4.447 14.62 14.62 0 0 1-6.994 1.635 13.8 13.8 0 0 1-10.17-3.957 13.582 13.582 0 0 1-3.986-10.086 13.8 13.8 0 0 1 3.9-10.04 13.424 13.424 0 0 1 10.002-4.042Zm0 2.585a10.754 10.754 0 0 0-7.642 2.82 11.064 11.064 0 0 0-3.497 7.37h21.62a11.027 11.027 0 0 0-3.412-7.52 10.199 10.199 0 0 0-7.069-2.68v.01Zm40.365 24.92h-3.281l-9.062-11.769-9.09 11.731h-3.29l10.773-13.827-10.124-13.085h3.271l8.46 10.932 8.46-10.932h3.225l-10.059 13.028 10.717 13.922Zm27.448-26.913h2.745v26.913h-2.745v-6.082a12.621 12.621 0 0 1-4.7 4.898 13.167 13.167 0 0 1-6.834 1.776 14.05 14.05 0 0 1-13.689-14.048 14.054 14.054 0 0 1 13.689-14.049 13.157 13.157 0 0 1 6.834 1.777 12.693 12.693 0 0 1 4.7 4.897V89.25Zm-19.458 21.621a11.468 11.468 0 0 0 16.178 0 11.704 11.704 0 0 0 0-16.253 11.47 11.47 0 0 0-16.178 0 11.639 11.639 0 0 0 0 16.253Z" fill="#fff"/><defs><linearGradient id="a" x1=".37" y1="99.75" x2="200" y2="99.75" gradientUnits="userSpaceOnUse"><stop stop-color="#1F90D1"/><stop offset="1" stop-color="#0062A8"/></linearGradient></defs></svg>