<svg width="200" height="200" fill="none" xmlns="http://www.w3.org/2000/svg"><g clip-path="url(#a)"><path d="m151.275 42.962-68.57-17.757a6.412 6.412 0 0 0-6.194 1.716L26.843 77.423a6.428 6.428 0 0 0-1.61 6.222l18.873 68.273a6.434 6.434 0 0 0 4.584 4.513l68.569 17.757a6.422 6.422 0 0 0 6.201-1.717l49.668-50.501a6.43 6.43 0 0 0 1.611-6.223l-18.901-68.265a6.443 6.443 0 0 0-4.563-4.52Z" fill="url(#b)"/><path d="M66.793 91.359a7.593 7.593 0 0 1 5.728 2.203 8.152 8.152 0 0 1 2.119 5.891v12.572h-2.063V99.453a6.293 6.293 0 0 0-1.554-4.492 5.713 5.713 0 0 0-4.386-1.667 6.78 6.78 0 0 0-5.1 2.062c-1.32 1.378-1.977 3.37-1.977 5.99v10.672h-2.034V83.716h2.027v11.93c1.474-2.854 3.887-4.283 7.24-4.287ZM89.444 91.358a9.183 9.183 0 0 1 7.219 3.158 10.983 10.983 0 0 1 2.768 7.48v.974H81.074a8.185 8.185 0 0 0 2.727 5.481 9.335 9.335 0 0 0 10.093 1.088 6.859 6.859 0 0 0 2.747-2.67l1.78 1.053a8.942 8.942 0 0 1-3.531 3.34 10.985 10.985 0 0 1-5.255 1.229 10.374 10.374 0 0 1-7.642-2.973 10.208 10.208 0 0 1-2.995-7.579 10.367 10.367 0 0 1 2.93-7.543 10.085 10.085 0 0 1 7.516-3.038Zm0 1.943a8.08 8.08 0 0 0-5.742 2.119 8.313 8.313 0 0 0-2.628 5.537H97.32a8.285 8.285 0 0 0-2.564-5.65 7.664 7.664 0 0 0-5.312-2.013v.007ZM119.773 112.025h-2.465l-6.809-8.843-6.83 8.815h-2.472l8.094-10.39-7.607-9.832h2.458l6.357 8.215 6.357-8.215h2.423l-7.558 9.79 8.052 10.46ZM140.398 91.804h2.062v20.222h-2.062v-4.57a9.5 9.5 0 0 1-3.532 3.68 9.894 9.894 0 0 1-5.135 1.335 10.561 10.561 0 0 1-7.289-17.926 10.558 10.558 0 0 1 7.289-3.186 9.89 9.89 0 0 1 5.135 1.335 9.539 9.539 0 0 1 3.532 3.68v-4.57Zm-14.621 16.245a8.617 8.617 0 0 0 12.156 0 8.795 8.795 0 0 0 0-12.212 8.618 8.618 0 0 0-12.156 0 8.745 8.745 0 0 0 0 12.212Z" fill="#fff"/></g><defs><linearGradient id="b" x1="25" y1="99.693" x2="175" y2="99.693" gradientUnits="userSpaceOnUse"><stop stop-color="#1F90D1"/><stop offset="1" stop-color="#0062A8"/></linearGradient><clipPath id="a"><path fill="#fff" transform="translate(25 25)" d="M0 0h150v149.393H0z"/></clipPath></defs></svg>