<svg width="200" height="200" fill="none" xmlns="http://www.w3.org/2000/svg"><path d="M100 175c41.421 0 75-33.579 75-75s-33.579-75-75-75-75 33.579-75 75 33.579 75 75 75Z" fill="#131313"/><path d="M158.594 105.603h-30.877l-27.7-27.536L84.944 93.05l-8.01-7.982 23.083-22.946 32.396 32.223h26.181v11.258Zm-58.431 32.345-32.384-32.223H41.406V94.467H72.47l27.693 27.536 14.881-14.827 8.023 7.983-22.904 22.789Z" fill="#fff"/><path d="m92.033 99.869 7.981-7.951 7.98 7.95-7.98 7.951-7.98-7.95Z" fill="#fff"/></svg>