<svg width="200" height="200" fill="none" xmlns="http://www.w3.org/2000/svg"><path d="M99.912 174.824c41.373 0 74.912-33.539 74.912-74.912C174.824 58.54 141.285 25 99.912 25 58.54 25 25 58.54 25 99.912c0 41.373 33.54 74.912 74.912 74.912Z" fill="#0F0F47"/><path d="M97.141 44.336c1.63.3 4.978 4.87 5.922 6.287 9.44 14.503 11.543 29.671 1.695 44.025-5.707 8.217-13.41 16.284-17.143 25.639-3.733 9.204-1.845 18.172 2.575 26.818 1.03 2.104 2.317 4.099 3.325 6.201.215.536.558 1.159.236 1.717-.6.472-1.459.236-2.145.15-16.52-3.411-28.75-21.541-27.892-38.04.322-7.166 2.983-14.096 7.037-19.975 4.87-7.187 12.058-12.637 17.122-20.06 4.591-6.63 7.337-14.396 8.453-22.335.536-3.454.665-6.951.815-10.427Z" fill="#fff"/><path d="M121.128 88.985c.021-.044.021-.087.064-.13.043-.021.086 0 .15-.021.494.236.88.643 1.288 1.008 11.092 9.848 16.199 25.06 11.822 39.413-1.567 5.171-4.463 9.913-8.218 13.817-3.089 3.24-5.492 4.721-9.29 6.952-1.587.922-3.068 1.866-4.119 3.004-.687.686-1.18 1.544-1.759 2.317-2.017-.558-7.037-8.432-7.982-10.492-3.797-8.282-2.102-17.057 1.588-25.038 3.561-7.702 8.968-13.945 12.894-21.477 1.502-2.982 3.047-6.029 3.562-9.354Z" fill="#357BE1"/></svg>