<svg xmlns="http://www.w3.org/2000/svg" width="256" height="256"><g fill="none" fill-rule="evenodd"><circle cx="127.85" cy="127.85" r="127.85" fill="#0F0F47"/><g fill-rule="nonzero"><path fill="#FFF" d="M123.121 33c2.783.513 8.495 8.312 10.107 10.729 16.11 24.753 19.7 50.64 2.892 75.137-9.74 14.024-22.885 27.792-29.256 43.757-6.372 15.709-3.15 31.014 4.394 45.77 1.757 3.59 3.954 6.995 5.675 10.583.366.915.952 1.977.403 2.93-1.025.805-2.49.402-3.662.256-28.195-5.822-49.066-36.763-47.601-64.922.549-12.23 5.09-24.057 12.01-34.09 8.312-12.266 20.578-21.567 29.22-34.236 7.836-11.315 12.523-24.57 14.427-38.118.915-5.896 1.135-11.864 1.391-17.796Z"/><path fill="#357BE1" d="M164.059 109.2c.036-.074.036-.147.11-.22.073-.037.146 0 .256-.037.842.403 1.501 1.098 2.197 1.72 18.93 16.808 27.646 42.77 20.176 67.266-2.673 8.824-7.617 16.917-14.024 23.58-5.273 5.53-9.374 8.057-15.855 11.865-2.71 1.574-5.237 3.185-7.03 5.126-1.173 1.172-2.015 2.636-3.003 3.955-3.442-.952-12.01-14.39-13.622-17.906-6.481-14.134-3.588-29.11 2.71-42.732 6.078-13.145 15.306-23.8 22.006-36.653 2.564-5.09 5.2-10.29 6.079-15.965Z"/></g></g></svg>