<svg width="200" height="200" fill="none" xmlns="http://www.w3.org/2000/svg"><g clip-path="url(#a)"><path d="M158.667 187.718 13.142 162.097a14.752 14.752 0 0 1-10.319-21.675L69.456 20.585a14.729 14.729 0 0 1 25.82.133l78.979 145.524a14.726 14.726 0 0 1-7.477 20.649 14.733 14.733 0 0 1-8.111.827Z" fill="#48555A"/><path d="m130.509 71.034-2.205 13.957c3.969.618 16.228 3.462 17.463-4.41 1.301-8.246-11.311-8.93-15.258-9.547Zm-3.263 20.989-2.403 15.435c4.74.75 19.469 4.035 20.814-4.63 1.411-9.107-13.67-10.055-18.411-10.805Z" fill="#CD7B01"/><path d="M131.105 20.077a69.809 69.809 0 0 0-13.703 138.262 69.806 69.806 0 0 0 83.488-68.366 69.786 69.786 0 0 0-69.785-69.896Zm4.873 97.634-1.808 11.598-7.012-1.103 1.786-11.421-5.579-.926-1.786 11.487-6.989-1.08 1.786-11.62-4.983-.816-9.107-1.433 2.69-8.114s5.16.882 5.094.794a2.517 2.517 0 0 0 2.976-1.919l2.867-18.389 2.028-13.075a3.64 3.64 0 0 0-3.55-3.682l-5.071-.794 1.147-7.474 9.745 1.565 4.41.64 1.786-11.488 6.99 1.08-1.742 11.268c1.874.242 3.77.507 5.6.793l1.742-11.179 6.99 1.08-1.764 11.488c8.82 2.205 15.633 6.086 15.126 14.487a11.025 11.025 0 0 1-7.828 10.826c6.439 2.646 10.01 7.254 7.806 16.03-2.801 10.848-11.488 12.523-23.35 11.377Zm23.283 19.844-.882-1.477a53.632 53.632 0 0 0 19.657-73.258 53.632 53.632 0 0 0-73.258-19.657l-.86-1.5a55.366 55.366 0 0 1 55.365 95.87l-.022.022Z" fill="#CD7B01"/><path d="M134.566 158.327H11.091a11.03 11.03 0 0 1-9.363-5.43 11.02 11.02 0 0 1-.207-10.82L65.464 27.024a11.025 11.025 0 0 1 19.293.287l59.533 115.03a11.027 11.027 0 0 1-9.724 15.986Z" fill="#3C464A"/></g><defs><clipPath id="a"><path fill="#fff" transform="translate(0 13)" d="M0 0h200.89v174.938H0z"/></clipPath></defs></svg>