<svg width="200" height="200" fill="none" xmlns="http://www.w3.org/2000/svg"><g clip-path="url(#a)"><path d="m143.473 165.458-108.66-19.131a11.005 11.005 0 0 1-9.08-11.184 11.013 11.013 0 0 1 1.375-4.999l49.753-89.48a10.997 10.997 0 0 1 19.279.099l58.973 108.66a10.992 10.992 0 0 1-.784 11.673 11 11 0 0 1-10.856 4.362Z" fill="#48555A"/><path d="m122.448 78.332-1.646 10.422c2.963.46 12.117 2.585 13.039-3.293.972-6.157-8.446-6.668-11.393-7.129ZM120.012 94.005l-1.794 11.525c3.539.56 14.537 3.013 15.541-3.457 1.054-6.8-10.207-7.508-13.747-8.068Z" fill="#CD7B01"/><path d="M122.893 40.284A52.123 52.123 0 1 0 175 92.474a52.1 52.1 0 0 0-15.232-36.899 52.114 52.114 0 0 0-36.875-15.29Zm3.638 72.901-1.35 8.66-5.235-.823 1.334-8.528-4.166-.692-1.333 8.578-5.219-.807 1.333-8.676-3.721-.609-6.799-1.071 2.009-6.058s3.852.658 3.803.592a1.877 1.877 0 0 0 2.222-1.432l2.141-13.73 1.514-9.763a2.716 2.716 0 0 0-2.65-2.75l-3.787-.593.856-5.58 7.277 1.168 3.293.478 1.333-8.578 5.219.807-1.3 8.413c1.399.18 2.815.378 4.181.592l1.301-8.347 5.219.807-1.317 8.578c6.585 1.646 11.673 4.544 11.294 10.816a8.23 8.23 0 0 1-5.845 8.084c4.808 1.975 7.475 5.416 5.828 11.969-2.091 8.1-8.577 9.351-17.435 8.495Zm17.386 14.817-.659-1.103a40.049 40.049 0 0 0 14.678-54.7 40.049 40.049 0 0 0-54.701-14.677l-.642-1.12a41.34 41.34 0 0 1 41.34 71.584l-.016.016Z" fill="#CD7B01"/><path d="M125.478 143.512H33.282a8.226 8.226 0 0 1-6.991-4.054 8.23 8.23 0 0 1-.155-8.079l47.745-85.907a8.23 8.23 0 0 1 14.405.213l44.452 85.891a8.229 8.229 0 0 1-.318 7.983 8.227 8.227 0 0 1-6.942 3.953Z" fill="#3C464A"/></g><defs><clipPath id="a"><path fill="#fff" transform="translate(25 35)" d="M0 0h150v130.622H0z"/></clipPath></defs></svg>