<svg xmlns="http://www.w3.org/2000/svg" width="256" height="256"><defs><linearGradient id="a" x1="97.185%" x2="-.038%" y1="3.105%" y2="99.699%"><stop offset="0%" stop-color="#11C4D1"/><stop offset="100%" stop-color="#0062AD"/></linearGradient></defs><g fill="none"><path fill="url(#a)" d="M255.326 175.633s0 26.535-2.83 37.932c-2.83 11.525-8.217 19.434-14.011 25.33-5.93 5.896-13.745 11.258-25.6 14.072-11.991 2.816-37.86 2.682-37.86 2.682h-94.05s-26.54 0-37.995-2.815c-11.45-2.948-19.535-8.175-25.462-14.074-5.932-5.896-11.319-13.67-14.014-25.6C.674 201.233.806 175.498.806 175.498V81.675s0-26.536 2.833-37.932c2.827-11.526 8.217-19.434 14.011-25.33 5.93-5.897 13.744-11.259 25.6-14.075 11.99-2.813 37.86-2.68 37.86-2.68h94.05s26.54 0 37.994 2.815c11.452 2.948 19.536 8.176 25.463 14.075 5.93 5.896 11.319 13.67 14.014 25.6 2.697 11.927 2.697 37.662 2.697 37.662v93.823h-.002Z"/><path fill="#FFF" d="M215.445 79.264c5.255 72.241-42.98 106.556-86.231 110.308-40.154 3.482-77.88-20.106-81.114-56.697-2.694-30.156 16.71-43.157 31.932-44.365 15.632-1.338 28.702 8.982 29.913 21.581 1.08 12.062-6.736 17.692-12.26 18.093-4.311.402-9.7-2.147-10.24-7.506-.405-4.69 1.48-5.228.941-10.185-.806-8.847-8.756-9.786-13.067-9.384-5.258.402-14.823 6.436-13.61 21.18 1.35 14.875 16.17 26.673 35.571 24.928 21.02-1.878 35.705-17.557 36.784-39.672 0-1.209.27-2.28.807-3.353.27-.402.404-.804.809-1.206.54-.803 1.08-1.475 1.75-2.144l1.89-1.877c9.16-8.31 42.308-28.147 73.43-21.98.27 0 .54.134.674.266 1.211 0 1.886.94 2.02 2.01"/></g></svg>