<svg width="200" height="200" fill="none" xmlns="http://www.w3.org/2000/svg"><path d="M174.605 127.91s0 15.548-1.658 22.226c-1.658 6.752-4.815 11.387-8.21 14.841-3.474 3.455-8.053 6.597-15 8.246-7.026 1.65-22.183 1.571-22.183 1.571H72.446s-15.55 0-22.262-1.649c-6.71-1.728-11.447-4.79-14.92-8.247-3.475-3.454-6.632-8.01-8.21-15-1.66-6.988-1.582-22.067-1.582-22.067V72.856s0-15.548 1.66-22.225c1.657-6.754 4.815-11.388 8.21-14.842 3.474-3.456 8.053-6.597 15-8.247 7.025-1.649 22.183-1.57 22.183-1.57h55.108s15.551 0 22.262 1.649c6.71 1.727 11.447 4.79 14.92 8.247 3.474 3.454 6.632 8.01 8.211 15 1.58 6.988 1.58 22.067 1.58 22.067v54.975h-.001Z" fill="url(#a)"/><path d="M151.237 71.444c3.079 42.328-25.183 62.435-50.526 64.633-23.527 2.041-45.632-11.78-47.527-33.221-1.579-17.669 9.79-25.287 18.71-25.995 9.16-.784 16.817 5.263 17.527 12.645.633 7.068-3.947 10.367-7.184 10.602-2.526.235-5.683-1.258-6-4.398-.237-2.748.868-3.063.552-5.968-.472-5.184-5.13-5.734-7.657-5.498-3.08.235-8.685 3.77-7.974 12.41.79 8.716 9.474 15.628 20.842 14.606 12.317-1.1 20.921-10.287 21.553-23.245 0-.709.158-1.336.473-1.965.158-.236.237-.471.474-.707a8.09 8.09 0 0 1 1.025-1.256l1.108-1.1c5.367-4.869 24.79-16.492 43.025-12.879.158 0 .317.079.395.156.71 0 1.105.551 1.184 1.178" fill="#fff"/><defs><linearGradient id="a" x1="170.408" y1="30.592" x2="25.715" y2="174.648" gradientUnits="userSpaceOnUse"><stop stop-color="#11C4D1"/><stop offset="1" stop-color="#0062AD"/></linearGradient></defs></svg>