<svg width="200" height="200" fill="none" xmlns="http://www.w3.org/2000/svg"><g clip-path="url(#a)"><path d="M37.793 48.451c-15.111 12.84-17.118 35.715-4.507 51.091l39.35 47.872a35.237 35.237 0 0 0 49.539 5.151l.682-.568c15.111-12.839 17.119-35.715 4.507-51.091l-39.35-47.872a35.243 35.243 0 0 0-49.577-5.151c-.227.19-.416.379-.644.568Z" fill="#FF6901"/><path d="M127.667 147.035a36.699 36.699 0 0 0-.341-46.091L99.981 67.615l11.968-14.581a35.236 35.236 0 0 1 23.722-12.844 35.24 35.24 0 0 1 25.855 7.693l.681.568c15.112 12.84 17.119 35.715 4.507 51.091l-39.047 47.493Z" fill="#264176"/></g><defs><clipPath id="a"><path fill="#fff" transform="translate(25 40)" d="M0 0h150v120.432H0z"/></clipPath></defs></svg>