<svg xmlns="http://www.w3.org/2000/svg" width="396.057" height="317.987"><path d="M33.8 60.7C-6.1 94.6-11.4 155 21.9 195.6L125.8 322a93.034 93.034 0 0 0 130.8 13.6l1.8-1.5c39.9-33.9 45.2-94.3 11.9-134.9L166.4 72.8A93.054 93.054 0 0 0 35.5 59.2c-.6.5-1.1 1-1.7 1.5Z" style="fill:#ff6901" transform="translate(-.021 -38.386)"/><path d="M271.1 321a96.907 96.907 0 0 0-.9-121.7l-72.2-88 31.6-38.5a93.054 93.054 0 0 1 130.9-13.6l1.8 1.5c39.9 33.9 45.2 94.3 11.9 134.9Z" style="fill:#264176" transform="translate(-.021 -38.386)"/></svg>