<svg xmlns="http://www.w3.org/2000/svg" viewBox="0 0 200 200"><path fill="#5848D5" d="M100 175c41.421 0 75-33.579 75-75s-33.579-75-75-75-75 33.579-75 75 33.579 75 75 75"/><path fill="#fff" d="M97.293 61.417c8.103-.526 16.343 1.288 23.446 5.227 9.535 5.245 16.932 14.216 20.131 24.571a42 42 0 0 1 1.687 8.112c.295 2.887.196 5.812.217 8.698-.021 4.816.018 9.633-.021 14.45-.098 3.101-2.982 5.792-6.121 5.636-3.199.136-6.044-2.711-6.063-5.87-.02-6.064 0-12.11 0-18.175a6.02 6.02 0 0 0-2.06-4.582c-1.688-1.522-4.238-1.97-6.338-1.112-2.217.858-3.806 3.12-3.826 5.479-.02 5.617 0 11.233-.02 16.85 0 .975.079 1.989-.195 2.944-.471 1.775-1.806 3.296-3.512 4.017-1.139.488-2.434.527-3.65.332-2.688-.507-4.807-3.023-4.827-5.734-.02-5.674-.02-11.349-.02-17.024 0-.858.059-1.716-.117-2.574-.353-1.814-1.609-3.432-3.277-4.251-1.805-.897-4.061-.838-5.788.195-1.864 1.053-3.06 3.12-3.04 5.245v16.83c-.02 1.014.058 2.028-.217 3.003-.51 1.853-1.962 3.433-3.786 4.096-2.159.74-4.768.292-6.377-1.365-1.178-1.132-1.864-2.731-1.845-4.349-.019-6.065 0-12.13-.019-18.195a6.05 6.05 0 0 0-1.982-4.504c-1.412-1.288-3.453-1.853-5.317-1.464-2.727.488-4.866 3.024-4.905 5.773-.02 5.597 0 11.194 0 16.81-.02 1.112.078 2.282-.275 3.373a6.06 6.06 0 0 1-3.61 3.862c-2.237.858-4.984.331-6.632-1.443a6 6 0 0 1-1.707-4.232v-18.37c.02-7.254 1.943-14.49 5.553-20.788 3.316-5.83 8.064-10.843 13.675-14.548a42.9 42.9 0 0 1 20.838-6.923"/></svg>