<svg xmlns="http://www.w3.org/2000/svg" width="256" height="256"><g fill="none" fill-rule="evenodd"><circle cx="128" cy="128" r="128" fill="#5848D5"/><path fill="#FFF" fill-rule="nonzero" d="M123.379 62.152c13.83-.898 27.893 2.197 40.015 8.92 16.274 8.952 28.898 24.262 34.357 41.935a72.175 72.175 0 0 1 2.88 13.845c.502 4.926.334 9.918.369 14.844-.035 8.22.032 16.44-.035 24.661-.167 5.292-5.09 9.885-10.447 9.619-5.459.233-10.314-4.626-10.347-10.018-.034-10.35 0-20.668 0-31.019.033-2.962-1.273-5.89-3.516-7.82-2.88-2.597-7.233-3.362-10.816-1.898-3.784 1.465-6.497 5.325-6.53 9.352-.034 9.586 0 19.17-.034 28.756 0 1.664.134 3.395-.334 5.025-.804 3.029-3.081 5.625-5.994 6.856-1.943.832-4.153.899-6.229.566-4.587-.865-8.204-5.158-8.237-9.785-.034-9.685-.034-19.37-.034-29.055 0-1.464.1-2.928-.2-4.393-.603-3.095-2.746-5.857-5.593-7.255-3.08-1.531-6.931-1.431-9.878.333-3.181 1.797-5.224 5.325-5.19 8.952v28.723c-.034 1.73.1 3.46-.369 5.125-.87 3.162-3.348 5.858-6.462 6.99-3.684 1.264-8.137.498-10.883-2.33-2.01-1.931-3.181-4.66-3.148-7.422-.033-10.351 0-20.702-.033-31.052.033-2.896-1.24-5.758-3.383-7.688-2.41-2.197-5.893-3.162-9.074-2.497-4.655.832-8.305 5.16-8.372 9.852-.033 9.552 0 19.104 0 28.689-.033 1.897.134 3.894-.468 5.757-.905 2.996-3.249 5.492-6.162 6.59-3.817 1.465-8.505.566-11.318-2.463A10.22 10.22 0 0 1 55 165.625v-31.351c.034-12.381 3.316-24.729 9.477-35.479 5.66-9.95 13.763-18.504 23.34-24.828 10.548-6.922 22.938-11.05 35.562-11.815Z"/></g></svg>