<svg width="200" height="200" fill="none" xmlns="http://www.w3.org/2000/svg"><path d="M100 175c41.421 0 75-33.579 75-75s-33.579-75-75-75-75 33.579-75 75 33.579 75 75 75Z" fill="#0AC7A9"/><path d="m88.469 100 24.253 24.985 15.305-15.764a6.76 6.76 0 0 1 4.893-2.089 6.777 6.777 0 0 1 4.894 2.089 7.283 7.283 0 0 1 0 10.087l-20.198 20.813a6.823 6.823 0 0 1-7.55 1.529 6.823 6.823 0 0 1-2.238-1.529l-29.137-30.029v17.85c0 3.919-3.122 7.135-6.924 7.135-3.825 0-6.923-3.197-6.923-7.135v-55.88c0-3.937 3.098-7.134 6.923-7.134 3.82 0 6.924 3.197 6.924 7.135v17.85l29.137-30.028a6.823 6.823 0 0 1 9.788 0l20.203 20.812a7.286 7.286 0 0 1 0 10.088 6.78 6.78 0 0 1-9.797 0l-15.3-15.77L88.469 100Zm24.262-7.139c3.825 0 6.928 3.197 6.928 7.139s-3.103 7.139-6.928 7.139c-3.825 0-6.928-3.197-6.928-7.139s3.103-7.139 6.928-7.139Z" fill="#fff"/></svg>