<svg xmlns="http://www.w3.org/2000/svg" width="256" height="256"><g fill="none"><circle cx="128" cy="128" r="128" fill="#0AC7A9"/><path fill="#FFF" d="m108.32 128 41.392 42.64 26.12-26.904a11.568 11.568 0 0 1 16.704 0c4.616 4.81 4.616 12.406 0 17.216l-34.472 35.52a11.648 11.648 0 0 1-16.704 0l-49.728-51.248v30.464c0 6.688-5.328 12.176-11.816 12.176-6.528 0-11.816-5.456-11.816-12.176V80.32c0-6.72 5.288-12.176 11.816-12.176 6.52 0 11.816 5.456 11.816 12.176v30.464l49.728-51.248a11.648 11.648 0 0 1 16.704 0l34.48 35.52c4.616 4.81 4.616 12.406 0 17.216a11.568 11.568 0 0 1-16.72 0L149.712 85.36 108.32 128Zm41.408-12.184c6.528 0 11.824 5.456 11.824 12.184 0 6.728-5.296 12.184-11.824 12.184s-11.824-5.456-11.824-12.184c0-6.728 5.296-12.184 11.824-12.184Z"/></g></svg>