<svg width="200" height="200" fill="none" xmlns="http://www.w3.org/2000/svg"><path d="M72.665 25a5.23 5.23 0 0 0-3.715 1.534 5.284 5.284 0 0 0-1.546 3.726v22.078a8.13 8.13 0 0 0 2.379 5.73 8.047 8.047 0 0 0 5.713 2.36h15.788a8.056 8.056 0 0 1 5.718 2.363 8.137 8.137 0 0 1 2.382 5.732v23.995a8.136 8.136 0 0 0 2.376 5.739 8.046 8.046 0 0 0 5.72 2.366h24.004c4.455-.01 8.077 3.609 8.092 8.087v15.778a8.129 8.129 0 0 0 2.377 5.736 8.053 8.053 0 0 0 5.719 2.362h22.064a5.24 5.24 0 0 0 3.718-1.535 5.286 5.286 0 0 0 1.546-3.728V30.271c0-1.398-.554-2.74-1.541-3.73A5.23 5.23 0 0 0 169.743 25H72.665ZM66.86 127.536V77.188a8.13 8.13 0 0 0-2.37-5.736 8.05 8.05 0 0 0-5.71-2.37H30.263a5.236 5.236 0 0 0-3.72 1.538A5.284 5.284 0 0 0 25 74.353v95.384c.01 2.913 2.365 5.267 5.264 5.263h97.076a5.236 5.236 0 0 0 3.715-1.535 5.282 5.282 0 0 0 1.544-3.728v-26.009a8.134 8.134 0 0 0-2.379-5.732 8.06 8.06 0 0 0-5.717-2.362H74.967c-4.459.011-8.083-3.612-8.096-8.094" fill="#0090FF"/></svg>