<svg xmlns="http://www.w3.org/2000/svg" width="256" height="256"><path fill="#0090FF" d="M87.908 18a7.673 7.673 0 0 0-5.448 2.25 7.75 7.75 0 0 0-2.267 5.464v32.382a11.924 11.924 0 0 0 3.488 8.404 11.805 11.805 0 0 0 8.38 3.462h23.155a11.816 11.816 0 0 1 8.387 3.464 11.935 11.935 0 0 1 3.493 8.408v35.192a11.935 11.935 0 0 0 3.485 8.417 11.816 11.816 0 0 0 8.39 3.471h35.205c6.535-.015 11.847 5.293 11.869 11.86v23.142a11.924 11.924 0 0 0 3.486 8.413 11.806 11.806 0 0 0 8.388 3.464h32.36a7.679 7.679 0 0 0 5.453-2.252 7.755 7.755 0 0 0 2.268-5.467V25.731a7.75 7.75 0 0 0-2.26-5.471 7.679 7.679 0 0 0-5.45-2.26H87.908Zm-8.513 150.386V94.542a11.924 11.924 0 0 0-3.475-8.413 11.806 11.806 0 0 0-8.377-3.476H25.72a7.679 7.679 0 0 0-5.456 2.256A7.75 7.75 0 0 0 18 90.384v139.897c.015 4.272 3.469 7.725 7.72 7.719h142.378a7.673 7.673 0 0 0 5.45-2.252 7.75 7.75 0 0 0 2.264-5.467v-38.146a11.93 11.93 0 0 0-3.49-8.408 11.81 11.81 0 0 0-8.384-3.464H91.285c-6.54.016-11.855-5.298-11.874-11.871"/></svg>