<svg xmlns="http://www.w3.org/2000/svg" viewBox="0 0 200 200"><g clip-path="url(#a)"><path fill="#F47116" d="M99.85 25c4.179.013 8.346.45 12.437 1.302l-3.229 12.022a48.2 48.2 0 0 0-18.403 0l-3.243-12.021A62 62 0 0 1 99.85 25m18.402 2.919a59.3 59.3 0 0 1 21.512 12.437l-8.789 8.789a47.1 47.1 0 0 0-15.956-9.234zm25.888 16.814a59.1 59.1 0 0 1 12.438 21.529l-12 3.205a47.7 47.7 0 0 0-9.226-15.947zm14.022 27.477a60 60 0 0 1 0 24.875l-12-3.237a48.2 48.2 0 0 0 0-18.433zm-1.584 30.839a59.4 59.4 0 0 1-12.438 21.509l-8.788-8.789a47.2 47.2 0 0 0 9.201-15.945zm-16.814 25.889a60.3 60.3 0 0 1-21.509 12.437l-3.236-12.024a46.7 46.7 0 0 0 15.956-9.233zM112.29 142.96a60.05 60.05 0 0 1-24.874 0l3.236-12.025a46.4 46.4 0 0 0 18.402 0zm-30.84-1.585a59.85 59.85 0 0 1-21.511-12.437l8.788-8.824a46.8 46.8 0 0 0 15.96 9.233l-3.236 12.028Zm-25.89-16.817a59.3 59.3 0 0 1-12.438-21.509l12-3.236a47.7 47.7 0 0 0 9.233 15.956zM41.537 97.085a60.05 60.05 0 0 1 0-24.875l12 3.205a48.4 48.4 0 0 0 0 18.433zm1.584-30.84a59.5 59.5 0 0 1 12.438-21.53l8.788 8.824a46.9 46.9 0 0 0-9.201 15.928L43.12 66.245Zm16.814-25.889a59.35 59.35 0 0 1 21.53-12.437l3.236 12a47.2 47.2 0 0 0-15.977 9.226z"/><path fill="#196BBF" d="M95.12 43.53c9.837-1.144 20.086 1.33 28.207 7.009 11.008 7.49 18.085 20.527 17.863 33.882.317 13.102-6.378 26.016-16.973 33.628a41 41 0 0 1-17.009 7.236c-3.426.73-6.914.603-10.34.54-12.502-.827-24.354-7.807-31.285-18.212a41.13 41.13 0 0 1-1.701-43.27C70.234 52.984 82.178 44.986 95.12 43.53m1.765 12.31c-.032 2.506-.19 4.98-.127 7.454-4.853 0-9.709 0-14.562.032.031 2.664 0 5.33.031 7.994h5.655c.031 8.852 0 17.704.031 26.587H82.21c-.032 2.665 0 5.294 0 7.966 4.853.064 9.706.031 14.53.031.318 2.471-.158 4.981.128 7.455h6.091c.032-2.471 0-4.981.064-7.455 4.312-.19 8.756-1.715 11.707-5.015 2.823-3.014 3.49-7.581 2.379-11.452-.826-2.983-3.237-5.234-5.965-6.505 1.617-1.363 3.176-2.919 3.935-4.942 1.33-3.458.982-7.764-1.683-10.531-2.633-2.887-6.632-3.935-10.373-4.19-.064-2.47-.032-4.94-.032-7.412zm.353 15.48c2.315.095 4.789-.353 7.01.54 2.855 1.207 2.442 5.71.031 7.172-2.117 1.235-4.694.822-7.059.917.029-2.887.029-5.774-.003-8.629zm.032 16.658c2.792 0 5.742-.317 8.375.855 3.237 1.493 3.046 6.886-.127 8.315-2.602 1.172-5.52.663-8.248.759v-9.928Zm-28.895 52.698c6.409 3.428 13.326 6.029 20.53 7.232a64.3 64.3 0 0 0 36.515-4.32c1.934-.762 3.713-1.874 5.648-2.601-1.49 2.283-3.396 4.235-5.107 6.378-6.505 7.676-13.042 15.353-20.051 22.588-1.716 1.585-3.332 3.363-5.361 4.535-.858.509-1.684-.254-2.351-.706a61 61 0 0 1-5.52-5.135c-8.502-8.968-16.528-18.388-24.303-27.971"/></g><defs><clipPath id="a"><path fill="#fff" d="M25 25h150v150H25z"/></clipPath></defs></svg>