<svg xmlns="http://www.w3.org/2000/svg" width="256" height="256"><g fill="none"><path fill="#F47116" d="M127.743 0c7.133.022 14.245.767 21.227 2.223l-5.511 20.516a82.306 82.306 0 0 0-31.407 0l-5.535-20.516A105.61 105.61 0 0 1 127.743 0Zm31.407 4.981a101.268 101.268 0 0 1 36.714 21.227l-15 14.999a80.414 80.414 0 0 0-27.231-15.758l5.517-20.468Zm44.183 28.697A100.93 100.93 0 0 1 224.56 70.42l-20.48 5.47a81.36 81.36 0 0 0-15.746-27.215l14.999-14.998Zm23.931 46.893a102.472 102.472 0 0 1 0 42.454l-20.48-5.524a82.27 82.27 0 0 0 0-31.46l20.48-5.47Zm-2.704 52.633a101.352 101.352 0 0 1-21.227 36.708l-14.999-14.999a80.48 80.48 0 0 0 15.703-27.214l20.523 5.505Zm-28.696 44.183a102.93 102.93 0 0 1-36.708 21.227l-5.523-20.522a79.721 79.721 0 0 0 27.232-15.758l14.999 15.053Zm-46.888 23.931a102.472 102.472 0 0 1-42.453 0l5.523-20.522a79.215 79.215 0 0 0 31.407 0l5.523 20.522Zm-52.633-2.704a102.16 102.16 0 0 1-36.714-21.227l14.999-15.059a79.806 79.806 0 0 0 27.238 15.758l-5.523 20.528Zm-44.189-28.702a101.268 101.268 0 0 1-21.227-36.708l20.48-5.523a81.318 81.318 0 0 0 15.758 27.232l-15.01 14.999Zm-23.931-46.887a102.472 102.472 0 0 1 0-42.454l20.48 5.47a82.589 82.589 0 0 0 0 31.46l-20.48 5.524Zm2.704-52.634a101.515 101.515 0 0 1 21.227-36.744l14.999 15.06A80.113 80.113 0 0 0 51.449 75.89l-20.522-5.499Zm28.696-44.183A101.292 101.292 0 0 1 96.367 4.981l5.523 20.48a80.498 80.498 0 0 0-27.268 15.746L59.623 26.208Z"/><path fill="#196BBF" d="M119.672 31.624c16.787-1.952 34.28 2.27 48.14 11.962 18.787 12.782 30.865 35.033 30.485 57.826.542 22.36-10.884 44.4-28.967 57.392a69.94 69.94 0 0 1-29.028 12.349c-5.848 1.246-11.8 1.03-17.648.921-21.336-1.41-41.563-13.324-53.393-31.081a70.198 70.198 0 0 1-2.903-73.849c10.842-19.383 31.226-33.033 53.314-35.52Zm3.012 21.01c-.055 4.276-.326 8.499-.217 12.721-8.283 0-16.57 0-24.853.055.054 4.547 0 9.095.054 13.643h9.65c.054 15.107 0 30.214.054 45.375h-9.734c-.054 4.548 0 9.035 0 13.595 8.282.109 16.565.054 24.799.054.542 4.217-.271 8.5.217 12.722h10.396c.054-4.216 0-8.5.109-12.722 7.36-.325 14.944-2.927 19.98-8.56 4.818-5.143 5.957-12.938 4.06-19.545-1.41-5.09-5.524-8.933-10.18-11.102 2.759-2.325 5.42-4.981 6.716-8.433 2.27-5.903 1.675-13.251-2.873-17.974-4.494-4.927-11.318-6.716-17.703-7.15-.109-4.216-.055-8.433-.055-12.65l-10.42-.03Zm.602 26.419c3.951.162 8.174-.603 11.963.921 4.873 2.06 4.168 9.746.054 12.24-3.614 2.108-8.011 1.404-12.047 1.566.048-4.927.048-9.854-.006-14.727h.036Zm.054 28.43c4.765 0 9.8-.541 14.294 1.459 5.524 2.548 5.198 11.751-.217 14.191-4.44 2-9.42 1.132-14.077 1.295v-16.944Zm-49.314 89.938c10.938 5.849 22.744 10.288 35.038 12.342a109.773 109.773 0 0 0 62.32-7.372c3.3-1.301 6.337-3.199 9.638-4.44-2.542 3.897-5.795 7.228-8.716 10.885-11.102 13.1-22.257 26.202-34.22 38.55-2.928 2.705-5.686 5.74-9.15 7.74-1.464.868-2.873-.433-4.012-1.204a103.924 103.924 0 0 1-9.42-8.764c-14.511-15.306-28.209-31.383-41.478-47.737Z"/></g></svg>