<svg width="200" height="200" fill="none" xmlns="http://www.w3.org/2000/svg"><g clip-path="url(#a)"><path d="M99.85 25c4.179.013 8.346.45 12.437 1.302l-3.229 12.022a48.228 48.228 0 0 0-18.403 0l-3.243-12.021A61.883 61.883 0 0 1 99.85 25Zm18.402 2.919a59.34 59.34 0 0 1 21.512 12.437l-8.789 8.789a47.12 47.12 0 0 0-15.956-9.234l3.233-11.992Zm25.888 16.814a59.14 59.14 0 0 1 12.438 21.529l-12 3.205a47.667 47.667 0 0 0-9.226-15.947l8.788-8.787Zm14.022 27.477a60.024 60.024 0 0 1 0 24.875l-12-3.237a48.196 48.196 0 0 0 0-18.433l12-3.205Zm-1.584 30.839a59.39 59.39 0 0 1-12.438 21.509l-8.788-8.789a47.155 47.155 0 0 0 9.201-15.945l12.025 3.225Zm-16.814 25.889a60.324 60.324 0 0 1-21.509 12.437l-3.236-12.024a46.706 46.706 0 0 0 15.956-9.233l8.789 8.82ZM112.29 142.96a60.053 60.053 0 0 1-24.874 0l3.236-12.025a46.422 46.422 0 0 0 18.402 0l3.236 12.025Zm-30.84-1.585a59.85 59.85 0 0 1-21.511-12.437l8.788-8.824a46.752 46.752 0 0 0 15.96 9.233l-3.236 12.028ZM55.56 124.558a59.342 59.342 0 0 1-12.438-21.509l12-3.236a47.648 47.648 0 0 0 9.233 15.956l-8.795 8.789ZM41.537 97.085a60.045 60.045 0 0 1 0-24.875l12 3.205a48.392 48.392 0 0 0 0 18.433l-12 3.237Zm1.584-30.84a59.482 59.482 0 0 1 12.438-21.53l8.788 8.824a46.94 46.94 0 0 0-9.201 15.928L43.12 66.245Zm16.814-25.889a59.348 59.348 0 0 1 21.53-12.437l3.236 12a47.166 47.166 0 0 0-15.977 9.226l-8.789-8.789Z" fill="#F47116"/><path d="M95.12 43.53c9.837-1.144 20.086 1.33 28.207 7.009 11.008 7.49 18.085 20.527 17.863 33.882.317 13.102-6.378 26.016-16.973 33.628a40.977 40.977 0 0 1-17.009 7.236c-3.426.73-6.914.603-10.34.54-12.502-.827-24.354-7.807-31.285-18.212a41.132 41.132 0 0 1-1.701-43.27C70.234 52.984 82.178 44.986 95.12 43.53Zm1.765 12.31c-.032 2.506-.19 4.98-.127 7.454-4.853 0-9.709 0-14.562.032.031 2.664 0 5.33.031 7.994h5.655c.031 8.852 0 17.704.031 26.587H82.21c-.032 2.665 0 5.294 0 7.966 4.853.064 9.706.031 14.53.031.318 2.471-.158 4.981.128 7.455h6.091c.032-2.471 0-4.981.064-7.455 4.312-.19 8.756-1.715 11.707-5.015 2.823-3.014 3.49-7.581 2.379-11.452-.826-2.983-3.237-5.234-5.965-6.505 1.617-1.363 3.176-2.919 3.935-4.942 1.33-3.458.982-7.764-1.683-10.531-2.633-2.887-6.632-3.935-10.373-4.19-.064-2.47-.032-4.94-.032-7.412l-6.106-.017Zm.353 15.48c2.315.095 4.789-.353 7.01.54 2.855 1.207 2.442 5.71.031 7.172-2.117 1.235-4.694.822-7.059.917.029-2.887.029-5.774-.003-8.629h.021Zm.032 16.658c2.792 0 5.742-.317 8.375.855 3.237 1.493 3.046 6.886-.127 8.315-2.602 1.172-5.52.663-8.248.759v-9.928Zm-28.895 52.698c6.409 3.428 13.326 6.029 20.53 7.232a64.315 64.315 0 0 0 36.515-4.32c1.934-.762 3.713-1.874 5.648-2.601-1.49 2.283-3.396 4.235-5.107 6.378-6.505 7.676-13.042 15.353-20.051 22.588-1.716 1.585-3.332 3.363-5.361 4.535-.858.509-1.684-.254-2.351-.706a60.894 60.894 0 0 1-5.52-5.135c-8.502-8.968-16.528-18.388-24.303-27.971Z" fill="#196BBF"/></g><defs><clipPath id="a"><path fill="#fff" transform="translate(25 25)" d="M0 0h150v150H0z"/></clipPath></defs></svg>