<svg width="50" height="50" fill="none" xmlns="http://www.w3.org/2000/svg"><path d="M25 47.294c12.313 0 22.294-9.981 22.294-22.294S37.313 2.706 25 2.706 2.706 12.687 2.706 25 12.687 47.294 25 47.294Z" fill="#fff"/><path d="M25 0a25 25 0 1 0 25 25A24.928 24.928 0 0 0 25.145 0H25Zm.424 25.847-2.603 8.778h13.922a.704.704 0 0 1 .727.678v.23l-1.211 4.176a.902.902 0 0 1-.908.666H14.044l3.571-12.167-3.995 1.21.908-2.784 3.995-1.21 5.024-17.07a.914.914 0 0 1 .908-.666h5.388a.702.702 0 0 1 .726.678v.23l-4.237 14.406 3.995-1.21-.848 2.905-4.055 1.15Z" fill="#A6A9AA"/></svg>