<svg xmlns="http://www.w3.org/2000/svg" viewBox="0 0 200 200"><g clip-path="url(#a)"><path fill="#fff" d="M100 166.882c36.939 0 66.882-29.943 66.882-66.882S136.939 33.118 100 33.118 33.118 63.061 33.118 100 63.061 166.882 100 166.882"/><path fill="#A6A9AA" d="M100 25a75 75 0 1 0 75 75 74.784 74.784 0 0 0-74.565-75zm1.272 77.541-7.809 26.334h41.766a2.11 2.11 0 0 1 2.181 2.034v.69l-3.633 12.528a2.7 2.7 0 0 1-2.724 1.998H67.132l10.713-36.501-11.985 3.63 2.724-8.352 11.985-3.63 15.072-51.21a2.74 2.74 0 0 1 2.724-1.998h16.164a2.1 2.1 0 0 1 1.511.566 2.1 2.1 0 0 1 .667 1.468v.69l-12.711 43.218 11.985-3.63-2.544 8.715z"/></g><defs><clipPath id="a"><path fill="#fff" d="M25 25h150v150H25z"/></clipPath></defs></svg>