<svg width="200" height="200" fill="none" xmlns="http://www.w3.org/2000/svg"><g clip-path="url(#a)"><path d="M100 166.882c36.939 0 66.882-29.943 66.882-66.882 0-36.939-29.943-66.882-66.882-66.882-36.939 0-66.882 29.943-66.882 66.882 0 36.939 29.943 66.882 66.882 66.882Z" fill="#fff"/><path d="M100 25a75 75 0 1 0 75 75 74.784 74.784 0 0 0-74.565-75H100Zm1.272 77.541-7.809 26.334h41.766a2.112 2.112 0 0 1 2.181 2.034v.69l-3.633 12.528a2.703 2.703 0 0 1-2.724 1.998H67.132l10.713-36.501-11.985 3.63 2.724-8.352 11.985-3.63 15.072-51.21a2.742 2.742 0 0 1 2.724-1.998h16.164a2.11 2.11 0 0 1 1.511.566 2.102 2.102 0 0 1 .667 1.468v.69l-12.711 43.218 11.985-3.63-2.544 8.715-12.165 3.45Z" fill="#A6A9AA"/></g><defs><clipPath id="a"><path fill="#fff" transform="translate(25 25)" d="M0 0h150v150H0z"/></clipPath></defs></svg>