<svg xmlns="http://www.w3.org/2000/svg" width="256" height="256"><defs><linearGradient id="a" x1="100%" x2="0%" y1="73.6%" y2="26.4%"><stop offset="1.105%" stop-color="#417DAA"/><stop offset="97.79%" stop-color="#05538B"/></linearGradient></defs><g fill="none"><rect width="256" height="256" fill="url(#a)" rx="128"/><path fill="#FFF" d="M100.11 138.686c-9.416 0-17.344-7.97-17.344-17.434 0-9.464 7.928-17.434 17.344-17.434 9.415 0 17.344 7.97 17.344 17.434 0 9.464-7.93 17.434-17.344 17.434zm0-26.898c-4.956 0-8.92 3.985-8.92 8.966 0 4.98 3.964 8.965 8.92 8.965 4.955 0 8.919-3.985 8.919-8.965 0-4.981-3.964-8.966-8.92-8.966zm55.5 26.898c-9.416 0-17.344-7.97-17.344-17.434 0-9.464 7.928-17.434 17.344-17.434 9.415 0 17.344 7.97 17.344 17.434 0 9.464-7.93 17.434-17.344 17.434zm0-26.898c-4.956 0-8.92 3.985-8.92 8.966 0 4.98 3.964 8.965 8.92 8.965 4.955 0 8.919-3.985 8.919-8.965 0-4.981-3.964-8.966-8.92-8.966zm-27.75-19.923c-9.416 0-17.344-7.97-17.344-17.433 0-9.962 7.433-17.932 17.343-17.932 9.415 0 17.344 7.97 17.344 17.433 0 9.962-7.929 17.932-17.344 17.932zm0-26.897c-4.956 0-8.92 3.984-8.92 8.965s3.964 8.966 8.92 8.966c4.955 0 8.92-3.985 8.92-8.966 0-4.98-3.965-8.965-8.92-8.965zm0 122.533c-9.416 0-17.344-7.97-17.344-17.434 0-9.464 7.928-17.433 17.343-17.433s17.344 7.97 17.344 17.433c0 9.464-7.929 17.434-17.344 17.434zm0-26.898c-4.956 0-8.92 3.985-8.92 8.966s3.964 8.966 8.92 8.966c4.955 0 8.92-3.985 8.92-8.966 0-4.483-3.965-8.966-8.92-8.966zm-54.016 26.898c-9.415 0-17.344-7.97-17.344-17.434 0-9.464 7.929-17.433 17.344-17.433 9.415 0 17.344 7.97 17.344 17.433 0 9.464-7.434 17.434-17.344 17.434zm0-26.898c-4.956 0-8.92 3.985-8.92 8.966s3.964 8.966 8.92 8.966c4.955 0 8.92-3.985 8.92-8.966 0-4.483-3.965-8.966-8.92-8.966zm107.531 26.898c-9.415 0-17.344-7.97-17.344-17.434 0-9.464 7.929-17.433 17.344-17.433 9.415 0 17.344 7.97 17.344 17.433 0 9.464-7.433 17.434-17.344 17.434zm0-26.898c-4.955 0-8.92 3.985-8.92 8.966s3.965 8.966 8.92 8.966 8.92-3.985 8.92-8.966c0-4.483-3.965-8.966-8.92-8.966z"/></g></svg>