<svg xmlns="http://www.w3.org/2000/svg" viewBox="0 0 200 200"><path fill="url(#a)" d="M175 100c0-41.421-33.579-75-75-75s-75 33.579-75 75 33.579 75 75 75 75-33.579 75-75"/><path fill="#fff" d="M83.658 106.261c-5.517 0-10.162-4.67-10.162-10.215s4.645-10.215 10.162-10.215 10.163 4.67 10.163 10.215-4.647 10.215-10.163 10.215m0-15.76c-2.904 0-5.226 2.335-5.226 5.253s2.322 5.253 5.226 5.253 5.226-2.335 5.226-5.253-2.323-5.253-5.226-5.253m32.52 15.76c-5.517 0-10.163-4.67-10.163-10.215s4.646-10.215 10.163-10.215c5.516 0 10.162 4.67 10.162 10.215s-4.646 10.215-10.162 10.215m0-15.76c-2.904 0-5.227 2.335-5.227 5.253s2.323 5.253 5.227 5.253c2.903 0 5.226-2.335 5.226-5.253s-2.323-5.253-5.227-5.253zm-16.26-11.674c-5.517 0-10.163-4.67-10.163-10.215 0-5.837 4.356-10.506 10.162-10.506 5.517 0 10.163 4.67 10.163 10.214 0 5.837-4.646 10.507-10.163 10.507zm0-15.76c-2.904 0-5.227 2.335-5.227 5.253s2.323 5.254 5.227 5.254c2.903 0 5.227-2.335 5.227-5.254s-2.324-5.253-5.227-5.253m0 71.797c-5.517 0-10.163-4.67-10.163-10.215 0-5.546 4.646-10.215 10.162-10.215s10.163 4.67 10.163 10.215-4.646 10.215-10.163 10.215zm0-15.761c-2.904 0-5.227 2.335-5.227 5.254s2.323 5.253 5.227 5.253c2.903 0 5.227-2.335 5.227-5.253 0-2.627-2.324-5.254-5.227-5.254m-31.65 15.761c-5.517 0-10.163-4.67-10.163-10.215 0-5.546 4.646-10.215 10.163-10.215s10.162 4.67 10.162 10.215-4.355 10.215-10.162 10.215m0-15.761c-2.904 0-5.227 2.335-5.227 5.254s2.323 5.253 5.227 5.253c2.903 0 5.227-2.335 5.227-5.253 0-2.627-2.324-5.254-5.227-5.254m63.006 15.761c-5.516 0-10.162-4.67-10.162-10.215 0-5.546 4.646-10.215 10.162-10.215s10.163 4.67 10.163 10.215-4.355 10.215-10.163 10.215m0-15.761c-2.903 0-5.226 2.335-5.226 5.254s2.323 5.253 5.226 5.253 5.227-2.335 5.227-5.253c0-2.627-2.323-5.254-5.227-5.254"/><defs><linearGradient id="a" x1="175" x2="25" y1="135.4" y2="64.6" gradientUnits="userSpaceOnUse"><stop offset=".011" stop-color="#417DAA"/><stop offset=".978" stop-color="#05538B"/></linearGradient></defs></svg>