<svg width="200" height="200" fill="none" xmlns="http://www.w3.org/2000/svg"><path d="M175 100c0-41.421-33.579-75-75-75s-75 33.579-75 75 33.579 75 75 75 75-33.579 75-75Z" fill="url(#a)"/><path d="M83.658 106.261c-5.517 0-10.162-4.67-10.162-10.215s4.645-10.215 10.162-10.215c5.517 0 10.163 4.67 10.163 10.215s-4.647 10.215-10.163 10.215Zm0-15.76c-2.904 0-5.226 2.335-5.226 5.253s2.322 5.253 5.226 5.253c2.903 0 5.226-2.335 5.226-5.253s-2.323-5.253-5.226-5.253Zm32.52 15.76c-5.517 0-10.163-4.67-10.163-10.215s4.646-10.215 10.163-10.215c5.516 0 10.162 4.67 10.162 10.215s-4.646 10.215-10.162 10.215Zm0-15.76c-2.904 0-5.227 2.335-5.227 5.253s2.323 5.253 5.227 5.253c2.903 0 5.226-2.335 5.226-5.253s-2.323-5.253-5.227-5.253h.001Zm-16.26-11.674c-5.517 0-10.163-4.67-10.163-10.215 0-5.837 4.356-10.506 10.162-10.506 5.517 0 10.163 4.67 10.163 10.214 0 5.837-4.646 10.507-10.163 10.507h.001Zm0-15.76c-2.904 0-5.227 2.335-5.227 5.253 0 2.919 2.323 5.254 5.227 5.254 2.903 0 5.227-2.335 5.227-5.254 0-2.918-2.324-5.253-5.227-5.253Zm0 71.797c-5.517 0-10.163-4.67-10.163-10.215 0-5.546 4.646-10.215 10.162-10.215 5.517 0 10.163 4.67 10.163 10.215s-4.646 10.215-10.163 10.215h.001Zm0-15.761c-2.904 0-5.227 2.335-5.227 5.254 0 2.918 2.323 5.253 5.227 5.253 2.903 0 5.227-2.335 5.227-5.253 0-2.627-2.324-5.254-5.227-5.254Zm-31.65 15.761c-5.517 0-10.163-4.67-10.163-10.215 0-5.546 4.646-10.215 10.163-10.215s10.162 4.67 10.162 10.215-4.355 10.215-10.162 10.215Zm0-15.761c-2.904 0-5.227 2.335-5.227 5.254 0 2.918 2.323 5.253 5.227 5.253 2.903 0 5.227-2.335 5.227-5.253 0-2.627-2.324-5.254-5.227-5.254Zm63.006 15.761c-5.516 0-10.162-4.67-10.162-10.215 0-5.546 4.646-10.215 10.162-10.215 5.517 0 10.163 4.67 10.163 10.215s-4.355 10.215-10.163 10.215Zm0-15.761c-2.903 0-5.226 2.335-5.226 5.254 0 2.918 2.323 5.253 5.226 5.253 2.904 0 5.227-2.335 5.227-5.253 0-2.627-2.323-5.254-5.227-5.254Z" fill="#fff"/><defs><linearGradient id="a" x1="175" y1="135.4" x2="25" y2="64.6" gradientUnits="userSpaceOnUse"><stop offset=".011" stop-color="#417DAA"/><stop offset=".978" stop-color="#05538B"/></linearGradient></defs></svg>