<svg width="200" height="200" fill="none" xmlns="http://www.w3.org/2000/svg"><path d="M100 175c41.421 0 75-33.579 75-75s-33.579-75-75-75-75 33.579-75 75 33.579 75 75 75Z" fill="#11326A"/><path d="M100 48.438c-28.477 0-51.563 23.085-51.563 51.562 0 28.477 23.086 51.562 51.563 51.562 28.477 0 51.562-23.085 51.562-51.562 0-28.477-23.085-51.563-51.562-51.563Zm0 88.9c-20.621 0-37.338-16.717-37.338-37.338 0-20.621 16.717-37.338 37.338-37.338 20.621 0 37.338 16.717 37.338 37.338 0 20.621-16.717 37.338-37.338 37.338Z" fill="#fff"/></svg>