<svg xmlns="http://www.w3.org/2000/svg" width="259.8" height="241"><defs><style>.b,.g{stroke-linecap:round;stroke-linejoin:round}.b{fill:#e27625;stroke:#e27625}.g{fill:#f5841f;stroke:#f5841f}</style></defs><path d="M243.9 0 142.8 75l18.8-44.2Z" style="stroke-linecap:round;stroke-linejoin:round;fill:#e17726;stroke:#e17726" transform="translate(2.6 .5)"/><path class="b" d="m13.3.5 100.2 75.7-17.9-44.9Zm196.8 173.9-26.9 41.2 57.6 15.9 16.5-56.2Zm-207.5.9L19 231.5l57.5-15.9-26.8-41.2Z"/><path class="b" d="m73.4 104.8-16 24.2 57 2.6-1.9-61.5Zm113 0-39.7-35.4-1.3 62.2 57-2.6ZM76.5 215.6l34.5-16.7-29.7-23.2Zm72.3-16.7 34.4 16.7-4.7-39.9Z"/><path d="m183.2 215.6-34.4-16.7 2.8 22.4-.3 9.5Zm-106.7 0 32 15.2-.2-9.5 2.7-22.4Z" style="fill:#d5bfb2;stroke:#d5bfb2;stroke-linecap:round;stroke-linejoin:round"/><path d="m109.1 160.9-28.6-8.4 20.2-9.3Zm41.6 0 8.4-17.7 20.3 9.3Z" style="fill:#233447;stroke:#233447;stroke-linecap:round;stroke-linejoin:round"/><path d="m76.5 215.6 5-41.2-31.8.9Zm101.8-41.2 4.9 41.2 26.9-40.3Zm24.1-45.4-57 2.6 5.3 29.3 8.4-17.7 20.3 9.3ZM80.5 152.5l20.2-9.3 8.4 17.7 5.3-29.3-57-2.6Z" style="fill:#cc6228;stroke:#cc6228;stroke-linecap:round;stroke-linejoin:round"/><path d="m57.4 129 23.9 46.7-.8-23.2Zm122 23.5-.9 23.2 23.9-46.7Zm-65-20.9-5.3 29.3 6.7 34.6 1.5-45.6Zm31 0-2.8 18.2 1.4 45.7 6.7-34.6Z" style="fill:#e27525;stroke:#e27525;stroke-linecap:round;stroke-linejoin:round"/><path class="g" d="m150.7 160.9-6.7 34.6 4.8 3.4 29.7-23.2.9-23.2Zm-70.2-8.4.8 23.2 29.7 23.2 4.8-3.4-6.7-34.6Z"/><path d="m148.7 230.3.3-9.5-2.6-2.2h-38.2l-2.5 2.2.2 9.5-32-15.2 11.2 9.2 22.7 15.7h38.9l22.8-15.7 11.1-9.2Z" style="fill:#c0ac9d;stroke:#c0ac9d;stroke-linecap:round;stroke-linejoin:round" transform="translate(2.6 .5)"/><path d="m146.2 198.4-4.8-3.4h-28.2l-4.8 3.4-2.7 22.4 2.5-2.2h38.2l2.6 2.2Z" style="fill:#161616;stroke:#161616;stroke-linecap:round;stroke-linejoin:round" transform="translate(2.6 .5)"/><path d="m250.8 80.4 8.5-41.4L246.5.5 148.8 73l37.6 31.8 53.1 15.5 11.7-13.7-5.1-3.7 8.1-7.4-6.2-4.8 8.1-6.2ZM.5 39l8.6 41.4-5.5 4.1 8.2 6.2-6.2 4.8 8.1 7.4-5.1 3.7 11.7 13.7 53.1-15.5L111 73 13.3.5Z" style="fill:#763e1a;stroke:#763e1a;stroke-linecap:round;stroke-linejoin:round"/><path class="g" d="m239.5 120.3-53.1-15.5 16 24.2-23.9 46.7 31.6-.4h47.2ZM73.4 104.8l-53.1 15.5-17.7 55h47.1l31.6.4L57.4 129Zm72 26.8 3.4-58.6 15.4-41.7H95.6L111 73l3.4 58.6 1.3 18.4.1 45.5H144l.1-45.5Z"/></svg>