<svg width="200" height="200" fill="none" xmlns="http://www.w3.org/2000/svg"><g clip-path="url(#a)" stroke-linecap="round" stroke-linejoin="round"><path d="M167.321 30.289 108.949 73.59l10.855-25.52 47.517-17.782Z" fill="#E17726" stroke="#E17726"/><path d="M32.679 30.289 90.53 73.995 80.196 48.071 32.68 30.29Zm113.626 100.404-15.532 23.787 33.257 9.18 9.526-32.448-27.251-.519Zm-119.804.519 9.469 32.448 33.198-9.18-15.473-23.787-27.194.519Z" fill="#E27625" stroke="#E27625"/><path d="M67.379 90.508 58.14 104.48l32.91 1.502-1.097-35.508-22.575 20.034Zm65.242 0L109.7 70.07l-.751 35.913 32.91-1.502-9.238-13.972ZM69.168 154.48l19.92-9.642-17.148-13.395-2.772 23.037Zm41.744-9.642 19.861 9.642-2.713-23.037-17.148 13.395Z" fill="#E27625" stroke="#E27625"/><path d="m130.774 154.48-19.861-9.642 1.616 12.933-.173 5.485 18.418-8.776Zm-61.605 0 18.476 8.776-.116-5.485 1.56-12.933-19.92 9.642Z" fill="#D5BFB2" stroke="#D5BFB2"/><path d="m87.991 122.899-16.513-4.85 11.663-5.37 4.85 10.22Zm24.019 0 4.85-10.22 11.72 5.37-16.57 4.85Z" fill="#233447" stroke="#233447"/><path d="m69.169 154.48 2.887-23.787-18.36.52 15.473 23.267Zm58.776-23.787 2.829 23.787 15.531-23.267-18.36-.52Zm13.914-26.213-32.91 1.502 3.06 16.916 4.85-10.219 11.721 5.37 13.279-13.569Zm-70.38 13.569 11.662-5.37 4.85 10.219 3.06-16.916-32.91-1.502 13.337 13.569Z" fill="#CC6228" stroke="#CC6228"/><path d="m58.14 104.48 13.8 26.964-.462-13.395L58.14 104.48Zm70.439 13.569-.519 13.395 13.799-26.964-13.28 13.569Zm-37.528-12.067-3.06 16.916 3.868 19.977.866-26.328-1.674-10.565Zm17.898 0-1.617 10.508.809 26.385 3.868-19.977-3.06-16.916Z" fill="#E27525" stroke="#E27525"/><path d="m112.01 122.898-3.869 19.977 2.772 1.963 17.148-13.395.519-13.395-16.57 4.85Zm-40.532-4.85.462 13.395 17.148 13.395 2.772-1.963-3.869-19.977-16.513-4.85Z" fill="#F5841F" stroke="#F5841F"/><path d="m112.356 163.256.173-5.485-1.501-1.27H88.973l-1.444 1.27.116 5.485-18.476-8.776 6.466 5.312 13.107 9.065H111.2l13.164-9.065 6.409-5.312-18.418 8.776Z" fill="#C0AC9D" stroke="#C0AC9D"/><path d="m110.913 144.839-2.772-1.964H91.86l-2.772 1.964-1.559 12.933 1.444-1.271h22.055l1.501 1.271-1.616-12.933Z" fill="#161616" stroke="#161616"/><path d="m169.804 76.42 4.908-23.903-7.391-22.228-56.408 41.859 21.709 18.36 30.658 8.95 6.755-7.91-2.945-2.137 4.677-4.273-3.58-2.77 4.677-3.58-3.06-2.368ZM25.289 52.517l4.965 23.903-3.175 2.367 4.734 3.58-3.58 2.771 4.677 4.273-2.944 2.136 6.755 7.91 30.658-8.949 21.71-18.36-56.41-41.86-7.39 22.23Z" fill="#763E1A" stroke="#763E1A"/><path d="m163.279 99.457-30.658-8.949 9.238 13.973-13.799 26.963 18.245-.231h27.251l-10.277-31.755Zm-95.9-8.949-30.659 8.95-10.219 31.755h27.194l18.245.231-13.8-26.963 9.239-13.973Zm41.57 15.474 1.963-33.834 8.892-24.076H80.196l8.892 24.076 1.963 33.834.75 10.623.058 26.27h16.282l.057-26.27.751-10.623Z" fill="#F5841F" stroke="#F5841F"/></g><defs><clipPath id="a"><path fill="#fff" transform="translate(25 30)" d="M0 0h150v139.146H0z"/></clipPath></defs></svg>