<svg width="200" height="200" fill="none" xmlns="http://www.w3.org/2000/svg"><path d="M17.942 115.598v-25.09s2.253-1.121 6.56-1.121c4.307 0 6.227 1.602 6.227 6.106v20.105h6.182V95.493c0-2.035 0-3.59-.021-4.78.98-.549 2.9-1.326 6.07-1.326 4.91 0 6.741 1.602 6.741 6.106v20.105h6.673V95.493c0-3.042-.626-6.22-2.857-8.532-2.254-2.308-5.467-3.842-10.49-3.842-4.508 0-8.48 1.58-9.263 1.921-2.52-1.211-6.07-1.92-9.218-1.92-6.114 0-13.256 1.99-13.256 1.99v30.488h6.652Zm82.4-32.479v30.489s-.763.21-2.036.493c-2.645.589-7.49 1.497-12.243 1.497-5.09 0-9.145-1.555-11.41-3.842-2.265-2.311-2.871-5.49-2.871-8.532V83.119h6.703v20.082c0 4.507 2.69 6.107 7.623 6.107 4.93 0 7.555-1.121 7.555-1.121V83.119h6.679Zm43.98 0v30.489s-7.242 1.99-14.28 1.99c-5.089 0-9.146-1.555-11.41-3.842-2.265-2.311-2.871-5.49-2.871-8.532V83.119h6.703v20.082c0 4.507 2.691 6.107 7.623 6.107 4.93 0 7.555-1.121 7.555-1.121V83.119H144.322Zm15.368 32.479V85.109s7.24-1.99 14.279-1.99c5.089 0 9.147 1.557 11.41 3.844 2.264 2.31 2.869 5.488 2.869 8.532v20.102h-6.702V95.516c0-4.507-2.69-6.108-7.622-6.108-4.931 0-7.553 1.12-7.553 1.12v25.069h-6.681v.001Z" fill="#3970DB"/></svg>