<svg width="124" height="48" fill="none" xmlns="http://www.w3.org/2000/svg"><path d="M11.124 33.851V18.295s1.397-.695 4.068-.695c2.67 0 3.86.993 3.86 3.786v12.465h3.833V21.386c0-1.262 0-2.226-.013-2.964.608-.34 1.798-.822 3.763-.822 3.045 0 4.18.993 4.18 3.786v12.465h4.137V21.386c0-1.886-.388-3.857-1.771-5.29-1.398-1.431-3.39-2.382-6.504-2.382-2.795 0-5.258.979-5.743 1.191-1.563-.751-3.764-1.19-5.715-1.19-3.791 0-8.219 1.233-8.219 1.233v18.903h4.124Zm51.088-20.137v18.903s-.473.13-1.262.306c-1.64.365-4.644.928-7.591.928-3.155 0-5.67-.964-7.074-2.382-1.404-1.433-1.78-3.404-1.78-5.29V13.714h4.156v12.451c0 2.794 1.668 3.786 4.726 3.786 3.057 0 4.684-.695 4.684-.695V13.714h4.141Zm27.268 0v18.903s-4.49 1.234-8.854 1.234c-3.155 0-5.67-.964-7.074-2.382-1.404-1.433-1.78-3.404-1.78-5.29V13.714h4.156v12.451c0 2.794 1.668 3.786 4.726 3.786 3.057 0 4.684-.695 4.684-.695V13.714h4.141Zm9.528 20.137V14.948s4.489-1.234 8.853-1.234c3.155 0 5.671.965 7.074 2.383 1.404 1.432 1.779 3.403 1.779 5.29V33.85h-4.155V21.4c0-2.794-1.668-3.787-4.726-3.787-3.057 0-4.683.695-4.683.695V33.85h-4.142Z" fill="#3970DB"/></svg>