<svg width="200" height="200" fill="none" xmlns="http://www.w3.org/2000/svg"><g clip-path="url(#a)"><path d="M194.167 166.16a11.644 11.644 0 0 0-9.699-.901 9.412 9.412 0 0 1-7.662-1.385l-19.509-11.265a18.022 18.022 0 0 1-8.134-14.077v-22.668a9.527 9.527 0 0 1 2.605-7.344 11.646 11.646 0 0 0 2.051-2.314 17.693 17.693 0 0 1-18.885.485c.443.598.944 1.15 1.496 1.649a9.544 9.544 0 0 1 2.771 7.551v22.641a18.008 18.008 0 0 1-8.133 14.077l-19.689 11.376a9.365 9.365 0 0 1-7.468 1.302 12.445 12.445 0 0 0-3.492-.651 15.055 15.055 0 0 1 10.613 13.994c-.003.649-.05 1.297-.138 1.94.237-.603.427-1.224.568-1.857a9.53 9.53 0 0 1 5.14-6.193l19.468-11.251a18.01 18.01 0 0 1 16.266 0s13.856 7.995 19.482 11.251a9.609 9.609 0 0 1 5.14 6.193 11.646 11.646 0 0 0 7.199 8.468 11.645 11.645 0 0 0 11.021-1.433 11.64 11.64 0 0 0-1.011-19.505v-.083Zm-2.037 12.359a4.436 4.436 0 0 1-6.764 1.117 4.435 4.435 0 0 1 5.143-7.172 4.444 4.444 0 0 1 2.077 2.704 4.433 4.433 0 0 1-.456 3.379v-.028Z" fill="#0190FD"/><path d="M88.85 178.338c0-6.664 5.666-12.22 13.204-13.537a11.782 11.782 0 0 0-5.806.485 9.412 9.412 0 0 1-7.662-1.385l-19.509-11.265a18.02 18.02 0 0 1-8.133-14.078v-22.695a9.476 9.476 0 0 1 2.244-6.928 20.146 20.146 0 0 1-5.403.748 18.4 18.4 0 0 1-11.86-4.157 11.977 11.977 0 0 0 2.285 2.772 9.544 9.544 0 0 1 2.771 7.551v22.64a18.017 18.017 0 0 1-8.133 14.078L23.16 163.942a9.39 9.39 0 0 1-7.468 1.303 11.664 11.664 0 0 0-15.526 9.892 11.666 11.666 0 0 0 6.509 11.589 11.664 11.664 0 0 0 16.527-8.111 9.598 9.598 0 0 1 5.154-6.193l19.398-11.251a18.012 18.012 0 0 1 16.267 0l19.523 11.293a9.53 9.53 0 0 1 5.14 6.193c0 .194.11.388.152.568.014-.291.014-.596.014-.887Zm-74.739 1.829a4.433 4.433 0 1 1-4.438-7.676 4.433 4.433 0 0 1 4.438 7.676Z" fill="#FBE700"/><path d="M142.499 88.18a11.28 11.28 0 0 0-2.245.54 9.494 9.494 0 0 1-7.662-1.386l-19.523-11.237a18.016 18.016 0 0 1-8.12-14.091V39.282a9.465 9.465 0 0 1 2.605-7.343 11.639 11.639 0 1 0-15.338-.18 9.546 9.546 0 0 1 2.771 7.55v22.627a18.012 18.012 0 0 1-8.105 14.161L67.178 87.459a9.45 9.45 0 0 1-7.469 1.385 10.66 10.66 0 0 0-1.648-.43c3.824 2.62 6.429 7.843 6.429 13.857a19.67 19.67 0 0 1-1.04 6.359 11.664 11.664 0 0 0 3.783-6.415 9.53 9.53 0 0 1 5.14-6.193l19.482-11.376a18.012 18.012 0 0 1 16.266 0l19.482 11.25a9.54 9.54 0 0 1 5.14 6.194c.13.616.315 1.219.554 1.802a19.475 19.475 0 0 1 9.201-15.713ZM99.906 27.601a4.434 4.434 0 1 1 0-8.868 4.434 4.434 0 0 1 0 8.868Z" fill="#04D9FF"/><path d="M154.373 93.845a11.64 11.64 0 0 0-21.477 3.436 9.524 9.524 0 0 1-5.14 6.194l-19.467 11.251a18.016 18.016 0 0 1-16.267 0L72.54 103.475a9.533 9.533 0 0 1-5.14-6.194 11.653 11.653 0 1 0-7.524 13.371 9.488 9.488 0 0 1 7.662 1.386l19.509 11.251a18.012 18.012 0 0 1 8.133 14.091v22.668a9.476 9.476 0 0 1-2.605 7.344 11.663 11.663 0 0 0-3.405 12.847 11.66 11.66 0 0 0 10.834 7.699 11.667 11.667 0 0 0 7.909-20.366 9.615 9.615 0 0 1-2.771-7.566v-22.584a18.029 18.029 0 0 1 2.379-8.015 18.028 18.028 0 0 1 5.741-6.077l19.689-11.361a9.466 9.466 0 0 1 7.482-1.317 11.636 11.636 0 0 0 12.837-3.538 11.64 11.64 0 0 0 1.116-13.269h-.014Zm-94.469 7.981a4.433 4.433 0 1 1-1.635-6.041 4.448 4.448 0 0 1 1.635 6.041Zm40.265 78.867a4.435 4.435 0 0 1-3.135-7.569 4.433 4.433 0 1 1 3.135 7.569Zm46.223-77.232a4.433 4.433 0 1 1 1.635-6.055 4.428 4.428 0 0 1 .466 3.355 4.42 4.42 0 0 1-2.046 2.7h-.055Z" fill="#FD2400"/></g><defs><clipPath id="a"><path fill="#fff" transform="translate(.2 11.446)" d="M0 0h199.8v176.467H0z"/></clipPath></defs></svg>