<svg width="200" height="200" fill="none" xmlns="http://www.w3.org/2000/svg"><g clip-path="url(#a)"><path d="M170.62 150.151a8.736 8.736 0 0 0-7.281-.677 7.063 7.063 0 0 1-5.753-1.04l-14.646-8.457a13.518 13.518 0 0 1-6.106-10.568V112.39a7.15 7.15 0 0 1 1.956-5.513 8.717 8.717 0 0 0 1.539-1.737 13.288 13.288 0 0 1-14.178.364c.333.449.709.864 1.123 1.238a7.162 7.162 0 0 1 2.081 5.669v16.998a13.522 13.522 0 0 1-6.106 10.568l-14.782 8.54a7.02 7.02 0 0 1-5.607.978 9.363 9.363 0 0 0-2.621-.489 11.307 11.307 0 0 1 7.968 10.507c-.003.487-.037.973-.104 1.456.178-.453.321-.919.427-1.394a7.156 7.156 0 0 1 3.859-4.65l14.615-8.446a13.524 13.524 0 0 1 12.212 0s10.402 6.002 14.626 8.446a7.21 7.21 0 0 1 3.859 4.65 8.732 8.732 0 0 0 5.404 6.357 8.737 8.737 0 0 0 7.515-15.719v-.062Zm-1.529 9.278a3.331 3.331 0 0 1-3.317 1.637 3.332 3.332 0 0 1-2.781-2.44 3.327 3.327 0 0 1 4.881-3.742 3.316 3.316 0 0 1 1.56 2.029 3.33 3.33 0 0 1-.343 2.537v-.021Z" fill="#0190FD"/><path d="M91.553 159.294c0-5.003 4.255-9.175 9.914-10.163a8.854 8.854 0 0 0-4.359.364 7.073 7.073 0 0 1-5.752-1.04l-14.647-8.457a13.525 13.525 0 0 1-6.106-10.569V112.39a7.11 7.11 0 0 1 1.685-5.201 15.08 15.08 0 0 1-4.056.562 13.815 13.815 0 0 1-8.905-3.121 8.983 8.983 0 0 0 1.717 2.081 7.155 7.155 0 0 1 2.08 5.669v16.997a13.525 13.525 0 0 1-6.106 10.569l-14.782 8.54a7.05 7.05 0 0 1-5.607.978 8.755 8.755 0 0 0-9.632 2.606 8.757 8.757 0 0 0 2.863 13.521 8.755 8.755 0 0 0 9.862-1.522 8.762 8.762 0 0 0 2.546-4.567 7.202 7.202 0 0 1 3.87-4.65l14.562-8.446a13.522 13.522 0 0 1 12.212 0l14.657 8.477a7.164 7.164 0 0 1 3.86 4.65c0 .146.083.292.114.427.01-.219.01-.448.01-.666Zm-56.11 1.373a3.323 3.323 0 0 1-3.69-.24 3.329 3.329 0 1 1 3.69.24Z" fill="#FBE700"/><path d="M131.83 91.607a8.478 8.478 0 0 0-1.685.406 7.127 7.127 0 0 1-5.752-1.04l-14.657-8.437a13.53 13.53 0 0 1-6.096-10.579v-17.06a7.108 7.108 0 0 1 1.956-5.513 8.743 8.743 0 0 0 2.534-9.619 8.74 8.74 0 0 0-13.103-4.263 8.737 8.737 0 0 0-.946 13.747 7.168 7.168 0 0 1 2.08 5.67v16.986a13.523 13.523 0 0 1-6.085 10.631l-14.792 8.53a7.094 7.094 0 0 1-5.607 1.04 7.999 7.999 0 0 0-1.238-.322c2.871 1.966 4.827 5.887 4.827 10.402a14.767 14.767 0 0 1-.78 4.774 8.757 8.757 0 0 0 2.84-4.816 7.156 7.156 0 0 1 3.859-4.65l14.625-8.54a13.523 13.523 0 0 1 12.212 0l14.626 8.447a7.153 7.153 0 0 1 3.859 4.65c.098.462.237.915.416 1.352a14.63 14.63 0 0 1 6.907-11.796ZM99.854 46.128a3.328 3.328 0 1 1 0-6.657 3.328 3.328 0 0 1 0 6.657Z" fill="#04D9FF"/><path d="M140.745 95.86a8.732 8.732 0 0 0-8.95-4.263 8.738 8.738 0 0 0-7.173 6.843 7.156 7.156 0 0 1-3.859 4.65l-14.615 8.447a13.523 13.523 0 0 1-12.213 0L79.31 103.09a7.148 7.148 0 0 1-3.86-4.65 8.749 8.749 0 1 0-5.648 10.039 7.125 7.125 0 0 1 5.752 1.04l14.647 8.446a13.525 13.525 0 0 1 6.106 10.579v17.019a7.11 7.11 0 0 1-1.956 5.513 8.755 8.755 0 0 0-2.556 9.645 8.759 8.759 0 1 0 14.072-9.51 7.201 7.201 0 0 1-2.081-5.68v-16.955a13.518 13.518 0 0 1 6.096-10.579l14.782-8.53a7.113 7.113 0 0 1 5.617-.988 8.74 8.74 0 0 0 10.475-12.618h-.011Zm-70.922 5.992a3.325 3.325 0 0 1-3.313 1.65 3.322 3.322 0 0 1-2.79-2.432 3.328 3.328 0 0 1 4.876-3.753 3.339 3.339 0 0 1 1.227 4.535Zm30.229 59.21a3.327 3.327 0 0 1-3.265-3.978 3.33 3.33 0 0 1 4.539-2.426 3.328 3.328 0 0 1-1.274 6.404Zm34.702-57.982a3.332 3.332 0 0 1-3.69-.25 3.33 3.33 0 0 1-1.182-3.504 3.33 3.33 0 0 1 4.691-2.115c.59.292 1.08.752 1.408 1.323a3.319 3.319 0 0 1-1.186 4.546h-.041Z" fill="#FD2400"/></g><defs><clipPath id="a"><path fill="#fff" transform="translate(25 34)" d="M0 0h150v132.483H0z"/></clipPath></defs></svg>