<svg xmlns="http://www.w3.org/2000/svg" viewBox="0 0 200 200"><g clip-path="url(#a)"><path fill="#0190FD" d="M170.62 150.151a8.74 8.74 0 0 0-7.281-.677 7.06 7.06 0 0 1-5.753-1.04l-14.646-8.457a13.52 13.52 0 0 1-6.106-10.568V112.39a7.15 7.15 0 0 1 1.956-5.513 8.7 8.7 0 0 0 1.539-1.737 13.29 13.29 0 0 1-14.178.364q.5.675 1.123 1.238a7.16 7.16 0 0 1 2.081 5.669v16.998a13.52 13.52 0 0 1-6.106 10.568l-14.782 8.54a7.02 7.02 0 0 1-5.607.978 9.4 9.4 0 0 0-2.621-.489 11.31 11.31 0 0 1 7.968 10.507q-.004.731-.104 1.456.267-.68.427-1.394a7.16 7.16 0 0 1 3.859-4.65l14.615-8.446a13.52 13.52 0 0 1 12.212 0s10.402 6.002 14.626 8.446a7.21 7.21 0 0 1 3.859 4.65 8.73 8.73 0 0 0 5.404 6.357 8.737 8.737 0 0 0 7.515-15.719zm-1.529 9.278a3.33 3.33 0 0 1-3.317 1.637 3.33 3.33 0 0 1-2.781-2.44 3.327 3.327 0 0 1 4.881-3.742 3.32 3.32 0 0 1 1.56 2.029 3.33 3.33 0 0 1-.343 2.537z"/><path fill="#FBE700" d="M91.553 159.294c0-5.003 4.255-9.175 9.914-10.163a8.85 8.85 0 0 0-4.359.364 7.07 7.07 0 0 1-5.752-1.04l-14.647-8.457a13.53 13.53 0 0 1-6.106-10.569V112.39a7.1 7.1 0 0 1 1.685-5.201 15 15 0 0 1-4.056.562 13.8 13.8 0 0 1-8.905-3.121 9 9 0 0 0 1.717 2.081 7.16 7.16 0 0 1 2.08 5.669v16.997a13.53 13.53 0 0 1-6.106 10.569l-14.782 8.54a7.05 7.05 0 0 1-5.607.978 8.755 8.755 0 0 0-9.632 2.606 8.757 8.757 0 0 0 2.863 13.521 8.755 8.755 0 0 0 9.862-1.522 8.76 8.76 0 0 0 2.546-4.567 7.2 7.2 0 0 1 3.87-4.65l14.562-8.446a13.52 13.52 0 0 1 12.212 0l14.657 8.477a7.16 7.16 0 0 1 3.86 4.65c0 .146.083.292.114.427.01-.219.01-.448.01-.666m-56.11 1.373a3.32 3.32 0 0 1-3.69-.24 3.329 3.329 0 1 1 3.69.24"/><path fill="#04D9FF" d="M131.83 91.607a8.5 8.5 0 0 0-1.685.406 7.13 7.13 0 0 1-5.752-1.04l-14.657-8.437a13.53 13.53 0 0 1-6.096-10.579v-17.06a7.1 7.1 0 0 1 1.956-5.513 8.74 8.74 0 0 0 2.534-9.619 8.74 8.74 0 0 0-13.103-4.263 8.737 8.737 0 0 0-.946 13.747 7.17 7.17 0 0 1 2.08 5.67v16.986a13.52 13.52 0 0 1-6.085 10.631l-14.792 8.53a7.1 7.1 0 0 1-5.607 1.04 8 8 0 0 0-1.238-.322c2.871 1.966 4.827 5.887 4.827 10.402a14.8 14.8 0 0 1-.78 4.774 8.76 8.76 0 0 0 2.84-4.816 7.16 7.16 0 0 1 3.859-4.65l14.625-8.54a13.52 13.52 0 0 1 12.212 0l14.626 8.447a7.15 7.15 0 0 1 3.859 4.65q.147.695.416 1.352a14.63 14.63 0 0 1 6.907-11.796M99.854 46.128a3.328 3.328 0 1 1 0-6.657 3.328 3.328 0 0 1 0 6.657"/><path fill="#FD2400" d="M140.745 95.86a8.73 8.73 0 0 0-8.95-4.263 8.74 8.74 0 0 0-7.173 6.843 7.16 7.16 0 0 1-3.859 4.65l-14.615 8.447a13.52 13.52 0 0 1-12.213 0L79.31 103.09a7.15 7.15 0 0 1-3.86-4.65 8.749 8.749 0 1 0-5.648 10.039 7.13 7.13 0 0 1 5.752 1.04l14.647 8.446a13.53 13.53 0 0 1 6.106 10.579v17.019a7.1 7.1 0 0 1-1.956 5.513 8.755 8.755 0 0 0-2.556 9.645 8.759 8.759 0 1 0 14.072-9.51 7.2 7.2 0 0 1-2.081-5.68v-16.955a13.52 13.52 0 0 1 6.096-10.579l14.782-8.53a7.1 7.1 0 0 1 5.617-.988 8.74 8.74 0 0 0 10.475-12.618h-.011Zm-70.922 5.992a3.325 3.325 0 0 1-3.313 1.65 3.32 3.32 0 0 1-2.79-2.432 3.328 3.328 0 0 1 4.876-3.753 3.34 3.34 0 0 1 1.227 4.535m30.229 59.21a3.327 3.327 0 0 1-3.265-3.978 3.33 3.33 0 0 1 4.539-2.426 3.328 3.328 0 0 1-1.274 6.404m34.702-57.982a3.33 3.33 0 0 1-3.69-.25 3.33 3.33 0 0 1-1.182-3.504 3.33 3.33 0 0 1 4.691-2.115c.59.292 1.08.752 1.408 1.323a3.32 3.32 0 0 1-1.186 4.546z"/></g><defs><clipPath id="a"><path fill="#fff" d="M25 34h150v132.483H25z"/></clipPath></defs></svg>