<svg xmlns="http://www.w3.org/2000/svg" viewBox="0 0 256 256"><path fill="#eef0f2" d="M0 0h256v256H0z"/><path fill="#c8ced5" d="M136.5 98.2c5.5 0 10 1.6 13.5 5 2.5 2.3 4.3 5.4 5.7 9.3h27.9c-2.6-11.5-8-20.3-16.1-26.4-2.8-2.1-6-3.7-9.3-5V65.2h-17.9v12c-1.3-.1-2.5-.2-3.8-.2-2.2 0-4.3.1-6.3.4V65.2h-17.9v17.4c-.5.3-1.1.5-1.7.8-7.5 4.3-13.3 10.3-17.5 18-.6 1.2-1.1 2.4-1.7 3.7h-19V123h14.7c-.1 1.7-.3 3.3-.3 5.1s.3 3.4.4 5.1H72.4v17.9h18.8c2.2 5.3 4.9 10 8.6 14 3.4 3.7 7.7 6.5 12.5 8.8V191h17.9v-12.1q3.15.3 6.3.3c1.3 0 2.5-.2 3.8-.2v12h17.9v-16c3.5-1.4 6.7-3.1 9.7-5.3 8.1-6.1 13.2-14.8 15.4-26.2h-27.4c-1.2 3.8-3 6.9-5.4 9.2-3.5 3.4-8.1 5-13.9 5-7.4 0-12.9-2.6-16.8-7.7s-5.8-12.5-5.8-22.1c0-9.7 1.9-17 5.8-22.1 3.7-5 9.4-7.6 16.7-7.6"/></svg>