<svg width="200" height="200" fill="none" xmlns="http://www.w3.org/2000/svg"><path d="M67.586 114.892c23.52 0 42.586-19.067 42.586-42.586 0-23.52-19.066-42.586-42.586-42.586S25 48.786 25 72.306s19.066 42.586 42.586 42.586Z" fill="#3075EE"/><path d="M131.113 170.306c17.936 0 32.476-14.54 32.476-32.476s-14.54-32.476-32.476-32.476c-17.935 0-32.475 14.54-32.475 32.476s14.54 32.476 32.475 32.476Z" fill="#205FEC"/><path d="M146.672 97.528c15.547 0 28.149-12.603 28.149-28.15 0-15.546-12.602-28.148-28.149-28.148-15.546 0-28.149 12.602-28.149 28.149 0 15.546 12.603 28.148 28.149 28.148Z" fill="#5795F1"/><path d="M67.592 165.41c11.486 0 20.797-9.311 20.797-20.797s-9.31-20.797-20.797-20.797c-11.486 0-20.797 9.311-20.797 20.797s9.311 20.797 20.797 20.797Z" fill="#88BDF3"/></svg>