<svg xmlns="http://www.w3.org/2000/svg" width="256" height="256"><g fill="none"><path fill="#DBD9D9" d="M.637 255.789V0"/><path fill="#7ABDF7" d="M114.48 114.127a57.613 57.613 0 0 0 27.473 0c5.14-20.953 21.46-37.313 42.36-42.466 5.693-23.341-3.587-47.782-23.322-61.42a57.635 57.635 0 0 0-65.555 0C75.7 23.88 66.42 48.32 72.113 71.661c20.906 5.147 37.23 21.509 42.367 42.466Z"/><path fill="#0D74F5" d="M141.953 141.655a57.613 57.613 0 0 0-27.473 0c-5.14 20.954-21.459 37.314-42.36 42.467-5.693 23.341 3.587 47.782 23.322 61.42a57.635 57.635 0 0 0 65.556 0c19.734-13.638 29.015-38.079 23.322-61.42-20.906-5.147-37.23-21.509-42.367-42.467Z"/><path fill="#4494F7" d="M198.05 69.995a57.493 57.493 0 0 0-13.73 1.66c-5.134 20.953-21.454 37.313-42.355 42.46a58.037 58.037 0 0 0 0 27.54c20.902 5.151 37.22 21.513 42.355 42.467 21.65 5.301 44.411-2.359 58.485-19.683 14.073-17.324 16.948-41.22 7.386-61.401-9.563-20.181-29.855-33.046-52.141-33.056v.013Z"/><path fill="#005CF4" d="M114.48 141.655a58.037 58.037 0 0 0 0-27.54c-20.902-5.148-37.223-21.507-42.36-42.46-23.284-5.708-47.664 3.596-61.267 23.38-13.604 19.784-13.604 45.935 0 65.72 13.603 19.783 37.983 29.087 61.266 23.38 5.134-20.96 21.455-37.327 42.361-42.48Z"/><path fill="#186EF9" d="M141.953 114.127c20.901-5.152 37.22-21.512 42.36-42.466-20.9 5.153-37.22 21.513-42.36 42.466Z"/><path fill="#0246F2" d="M141.953 141.655c5.136 20.956 21.457 37.318 42.36 42.467-5.14-20.954-21.459-37.314-42.36-42.467Z"/><path fill="#0046F8" d="M114.48 114.127c-5.14-20.953-21.459-37.313-42.36-42.466 5.14 20.954 21.459 37.314 42.36 42.466Z"/><path fill="#0729F1" d="M114.48 141.655c-20.901 5.153-37.22 21.513-42.36 42.467 20.901-5.153 37.22-21.513 42.36-42.467Z"/><path fill="#7ABDF7" d="M114.48 114.127a57.613 57.613 0 0 0 27.473 0c5.14-20.953 21.46-37.313 42.36-42.466 5.693-23.341-3.587-47.782-23.322-61.42a57.635 57.635 0 0 0-65.555 0C75.7 23.88 66.42 48.32 72.113 71.661c20.906 5.147 37.23 21.509 42.367 42.466Z"/><path fill="#0D74F5" d="M141.953 141.655a57.613 57.613 0 0 0-27.473 0c-5.14 20.954-21.459 37.314-42.36 42.467-5.693 23.341 3.587 47.782 23.322 61.42a57.635 57.635 0 0 0 65.556 0c19.734-13.638 29.015-38.079 23.322-61.42-20.906-5.147-37.23-21.509-42.367-42.467Z"/><path fill="#4494F7" d="M198.05 69.995a57.493 57.493 0 0 0-13.73 1.66c-5.134 20.953-21.454 37.313-42.355 42.46a58.037 58.037 0 0 0 0 27.54c20.902 5.151 37.22 21.513 42.355 42.467 21.65 5.301 44.411-2.359 58.485-19.683 14.073-17.324 16.948-41.22 7.386-61.401-9.563-20.181-29.855-33.046-52.141-33.056v.013Z"/><path fill="#005CF4" d="M114.48 141.655a58.037 58.037 0 0 0 0-27.54c-20.902-5.148-37.223-21.507-42.36-42.46-23.284-5.708-47.664 3.596-61.267 23.38-13.604 19.784-13.604 45.935 0 65.72 13.603 19.783 37.983 29.087 61.266 23.38 5.134-20.96 21.455-37.327 42.361-42.48Z"/><path fill="#186EF9" d="M141.953 114.127c20.901-5.152 37.22-21.512 42.36-42.466-20.9 5.153-37.22 21.513-42.36 42.466Z"/><path fill="#0246F2" d="M141.953 141.655c5.136 20.956 21.457 37.318 42.36 42.467-5.14-20.954-21.459-37.314-42.36-42.467Z"/><path fill="#0046F8" d="M114.48 114.127c-5.14-20.953-21.459-37.313-42.36-42.466 5.14 20.954 21.459 37.314 42.36 42.466Z"/><path fill="#0729F1" d="M114.48 141.655c-20.901 5.153-37.22 21.513-42.36 42.467 20.901-5.153 37.22-21.513 42.36-42.467Z"/></g></svg>