<svg xmlns="http://www.w3.org/2000/svg" viewBox="0 0 200 200"><path fill="#7ABDF7" d="M92.078 91.871a33.76 33.76 0 0 0 16.097 0c3.012-12.277 12.575-21.863 24.821-24.882 3.335-13.676-2.102-27.997-13.666-35.988a33.77 33.77 0 0 0-38.41 0c-11.565 7.991-17.002 22.312-13.667 35.988 12.25 3.016 21.815 12.603 24.825 24.882"/><path fill="#0D74F5" d="M108.175 108.001a33.76 33.76 0 0 0-16.097 0c-3.012 12.278-12.574 21.864-24.82 24.883-3.336 13.676 2.101 27.997 13.665 35.988a33.77 33.77 0 0 0 38.411 0c11.563-7.991 17.001-22.312 13.666-35.988-12.25-3.016-21.815-12.603-24.825-24.883"/><path fill="#4494F7" d="M141.044 66.013a33.7 33.7 0 0 0-8.045.972c-3.008 12.277-12.57 21.863-24.817 24.88a34 34 0 0 0 0 16.136c12.247 3.018 21.809 12.605 24.817 24.883 12.686 3.106 26.022-1.382 34.269-11.533a34 34 0 0 0 4.328-35.977c-5.604-11.825-17.494-19.363-30.552-19.37v.008Z"/><path fill="#005CF4" d="M92.078 108.001a34 34 0 0 0 0-16.137c-12.247-3.016-21.81-12.601-24.82-24.879-13.643-3.344-27.928 2.108-35.899 13.7a33.995 33.995 0 0 0 0 38.508c7.97 11.591 22.256 17.043 35.898 13.699 3.008-12.281 12.572-21.871 24.821-24.891"/><path fill="#186EF9" d="M108.176 91.871c12.246-3.019 21.808-12.605 24.82-24.882-12.246 3.02-21.809 12.605-24.82 24.882"/><path fill="#0246F2" d="M108.176 108.001c3.009 12.279 12.572 21.866 24.82 24.883-3.012-12.278-12.574-21.864-24.82-24.883"/><path fill="#0046F8" d="M92.078 91.871c-3.012-12.277-12.574-21.863-24.82-24.882 3.011 12.277 12.573 21.863 24.82 24.882"/><path fill="#0729F1" d="M92.078 108.001c-12.247 3.019-21.809 12.605-24.82 24.883 12.246-3.019 21.808-12.605 24.82-24.883"/><path fill="#7ABDF7" d="M92.078 91.871a33.76 33.76 0 0 0 16.097 0c3.012-12.277 12.575-21.863 24.821-24.882 3.335-13.676-2.102-27.997-13.666-35.988a33.77 33.77 0 0 0-38.41 0c-11.565 7.991-17.002 22.312-13.667 35.988 12.25 3.016 21.815 12.603 24.825 24.882"/><path fill="#0D74F5" d="M108.175 108.001a33.76 33.76 0 0 0-16.097 0c-3.012 12.278-12.574 21.864-24.82 24.883-3.336 13.676 2.101 27.997 13.665 35.988a33.77 33.77 0 0 0 38.411 0c11.563-7.991 17.001-22.312 13.666-35.988-12.25-3.016-21.815-12.603-24.825-24.883"/><path fill="#4494F7" d="M141.044 66.013a33.7 33.7 0 0 0-8.045.972c-3.008 12.277-12.57 21.863-24.817 24.88a34 34 0 0 0 0 16.136c12.247 3.018 21.809 12.605 24.817 24.883 12.686 3.106 26.022-1.382 34.269-11.533a34 34 0 0 0 4.328-35.977c-5.604-11.825-17.494-19.363-30.552-19.37v.008Z"/><path fill="#005CF4" d="M92.078 108.001a34 34 0 0 0 0-16.137c-12.247-3.016-21.81-12.601-24.82-24.879-13.643-3.344-27.928 2.108-35.899 13.7a33.995 33.995 0 0 0 0 38.508c7.97 11.591 22.256 17.043 35.898 13.699 3.008-12.281 12.572-21.871 24.821-24.891"/><path fill="#186EF9" d="M108.176 91.871c12.246-3.019 21.808-12.605 24.82-24.882-12.246 3.02-21.809 12.605-24.82 24.882"/><path fill="#0246F2" d="M108.176 108.001c3.009 12.279 12.572 21.866 24.82 24.883-3.012-12.278-12.574-21.864-24.82-24.883"/><path fill="#0046F8" d="M92.078 91.871c-3.012-12.277-12.574-21.863-24.82-24.882 3.011 12.277 12.573 21.863 24.82 24.882"/><path fill="#0729F1" d="M92.078 108.001c-12.247 3.019-21.809 12.605-24.82 24.883 12.246-3.019 21.808-12.605 24.82-24.883"/></svg>