<svg xmlns="http://www.w3.org/2000/svg" viewBox="0 0 200 200"><g clip-path="url(#a)"><path fill="url(#b)" d="M75 141.389c-8.222-9.723-13.556-24.074-13.926-40.204v-3.5c.37-16.111 5.685-30.481 13.925-40.204C85.611 43.63 101.5 34.833 119.222 34.833a53.7 53.7 0 0 1 29.852 9.111A74.08 74.08 0 0 0 99.722 25h-.278c-40.36.093-73.294 32.327-74.253 72.675-.958 40.348 30.408 74.111 70.716 76.121h3.537a74.08 74.08 0 0 0 49.63-18.851 53.7 53.7 0 0 1-29.833 9.111c-17.741 0-33.63-8.797-44.242-22.667Z"/><path fill="url(#c)" d="M75 57.5c6.833-8.055 15.648-12.963 25.296-12.963 21.666 0 39.24 24.574 39.24 54.87 0 30.297-17.629 54.908-39.296 54.908-9.63 0-18.518-4.87-25.296-12.963 10.685 13.87 26.556 22.667 44.278 22.667a53.7 53.7 0 0 0 29.852-9.074 74.433 74.433 0 0 0 0-110.982 53.7 53.7 0 0 0-29.852-9.129c-17.722 0-33.611 8.796-44.223 22.666Z"/></g><defs><linearGradient id="b" x1="87.036" x2="87.036" y1="27.425" y2="171.723" gradientUnits="userSpaceOnUse"><stop offset=".3" stop-color="#FF1B2D"/><stop offset=".44" stop-color="#FA1A2C"/><stop offset=".59" stop-color="#ED1528"/><stop offset=".76" stop-color="#D60E21"/><stop offset=".93" stop-color="#B70519"/><stop offset="1" stop-color="#A70014"/></linearGradient><linearGradient id="c" x1="124.407" x2="124.407" y1="35.927" y2="163.556" gradientUnits="userSpaceOnUse"><stop stop-color="#9C0000"/><stop offset=".7" stop-color="#FF4B4B"/></linearGradient><clipPath id="a"><path fill="#fff" d="M25 25h150v150H25z"/></clipPath></defs></svg>