<svg xmlns="http://www.w3.org/2000/svg" viewBox="0 0 200 200"><path fill="url(#a)" d="M100 175c41.421 0 75-33.579 75-75s-33.579-75-75-75-75 33.579-75 75 33.579 75 75 75"/><path fill="#fff" d="m110.699 101.446 23.379 32.285h-15.216c-2.226 0-4.453-.743-5.937-2.598l-.371-.371-8.536-11.875a9.06 9.06 0 0 1 0-9.648l.372-.743zm-30.43-36.739c2.597 0 4.453.742 5.937 2.598l.371.37 4.454 6.31c1.854 2.597 1.854 6.308.37 8.906l-.37.37-6.31 8.907-20.038-27.832z"/><path fill="#00A5EF" d="M140.386 58.398 60.23 144.492c-.742 1.113-2.598-.371-1.484-1.484l57.89-81.64c1.484-1.856 3.711-2.97 6.308-2.97z"/><defs><linearGradient id="a" x1="25" x2="175" y1="175" y2="25" gradientUnits="userSpaceOnUse"><stop stop-color="#43117A"/><stop offset="1" stop-color="#623598"/></linearGradient></defs></svg>