<svg xmlns="http://www.w3.org/2000/svg" width="256" height="256"><defs><linearGradient id="a" x1="0%" x2="100%" y1="100%" y2="0%"><stop offset="0%" stop-color="#43117A"/><stop offset="100%" stop-color="#623598"/></linearGradient></defs><g fill="none" fill-rule="evenodd"><circle cx="128" cy="128" r="128" fill="url(#a)"/><g fill-rule="nonzero"><path fill="#FFF" d="m146.26 130.467 39.9 55.1h-25.967c-3.8 0-7.6-1.267-10.134-4.434l-.633-.633-14.567-20.267a15.459 15.459 0 0 1 0-16.466l.634-1.267 10.766-12.033zm-51.934-62.7c4.433 0 7.6 1.266 10.133 4.433l.634.633 7.6 10.767c3.166 4.433 3.166 10.767.633 15.2l-.633.633-10.767 15.2-34.2-47.5 26.6.634z"/><path fill="#00A5EF" d="m196.926 57-136.8 146.933c-1.267 1.9-4.433-.633-2.533-2.533l98.8-139.333C158.926 58.9 162.726 57 167.159 57h29.767Z"/></g></g></svg>