<svg width="200" height="200" fill="none" xmlns="http://www.w3.org/2000/svg"><path d="M186.314 67.593c10.803 7.515 15.529 17.663 13.045 30.492-2.58 13.395-12.869 18.729-24.678 21.93 3.375 12.342-1.135 21.437-10.689 28.526-11.282 8.366-24.151 12.903-37.918 14.632a219.612 219.612 0 0 1-29.08 1.958c-9.116-.081-18.23-1.533-27.319-2.451-6.407-.675-11.174 2.559-15.53 6.563-4.806 4.402-9.242 9.23-14.225 13.409-7.69 6.441-16.61 8.008-26.09 4.726-8.96-3.079-12.234-10.553-13.557-19.121-2.026-13.247-.676-26.474 2.241-39.33a1027.308 1027.308 0 0 1 15.422-60.024c3.95-13.7 10.438-26.332 20.438-36.879 9.452-9.979 21.032-15.576 34.32-18.081 16.683-3.147 33.563-2.303 50.348-1.817 14.908.44 29.783 2.337 43.82 7.995 9.885 3.99 18.453 9.716 23.058 19.843 4.422 9.804 3.895 19.102-3.606 27.63Zm-47.054 39.161c7.319-.344 13.504-.216 19.581-1.046a83.558 83.558 0 0 0 17.757-4.099c7.083-2.626 9.021-9.891 4.396-15.887-2.222-2.883-5.557-5.206-8.839-6.92-10.202-5.321-21.491-6.996-32.692-8.677-9.149-1.35-18.352-2.39-27.548-3.376-2.701-.277-3.936-1.29-3.666-3.97s2.316-3.011 4.442-2.883c2.904.182 5.787.608 8.69.736 10.634.466 21.282 1.256 31.91 1.094 5.469-.081 11.046-1.445 16.319-3.072 6.583-2.026 8.102-6.563 4.686-12.606-3.012-5.402-8.177-8.19-13.626-10.378-15.407-6.178-31.733-6.853-47.999-7.36-10.384-.317-20.823.561-31.214 1.263a47.21 47.21 0 0 0-23.692 8.103C46.875 45.069 40.83 56 36.09 67.72c-6.684 16.522-11.16 33.76-14.854 51.146-2.592 12.309-4.996 24.705-3.524 37.466.587 5.111 2.7 8.94 5.8 9.595 5.347 1.127 10.127-.142 14.496-3.235a86.883 86.883 0 0 0 6.887-5.401c8.176-7.117 17.366-11.363 28.472-10.276 6.449.627 12.883 1.823 19.324 1.883 7.812.081 15.645-.675 23.45-1.222a97.885 97.885 0 0 0 27.547-6.124c5.071-1.89 9.811-4.375 13.383-8.629 3.166-3.767 2.538-7.67-1.736-9.986-1.951-1.06-3.956-2.295-6.076-2.7a1748.81 1748.81 0 0 0-37.325-6.914c-4.28-.743-8.656-.885-12.957-1.52-2.282-.337-4.091-1.552-3.551-4.314.452-2.309 2.235-2.93 4.314-2.822 13.585.702 27.123 1.418 39.519 2.073v.013Z" fill="#54AF39"/></svg>