<svg width="200" height="200" fill="none" xmlns="http://www.w3.org/2000/svg"><g clip-path="url(#a)"><path d="M164.772 75.794c8.074 5.616 11.606 13.2 9.749 22.787-1.928 10.01-9.617 13.996-18.442 16.388 2.522 9.224-.848 16.02-7.988 21.318-8.431 6.252-18.049 9.643-28.337 10.934a164.013 164.013 0 0 1-21.732 1.464c-6.812-.061-13.623-1.146-20.415-1.832-4.788-.504-8.35 1.912-11.605 4.905-3.593 3.289-6.908 6.897-10.632 10.02-5.747 4.814-12.412 5.985-19.496 3.532-6.696-2.3-9.143-7.886-10.132-14.289-1.514-9.9-.505-19.784 1.675-29.392a767.649 767.649 0 0 1 11.524-44.856c2.952-10.238 7.801-19.679 15.274-27.56 7.064-7.458 15.717-11.64 25.647-13.513 12.469-2.351 25.083-1.72 37.627-1.357 11.141.328 22.256 1.746 32.747 5.974 7.387 2.982 13.79 7.261 17.231 14.83 3.305 7.326 2.911 14.274-2.695 20.647Zm-35.163 29.265c5.469-.257 10.091-.161 14.632-.782a62.41 62.41 0 0 0 13.27-3.063c5.293-1.962 6.742-7.392 3.285-11.872-1.66-2.155-4.152-3.89-6.605-5.172-7.624-3.976-16.06-5.228-24.431-6.484-6.837-1.01-13.714-1.786-20.587-2.523-2.018-.207-2.941-.964-2.74-2.967.202-2.003 1.731-2.25 3.32-2.154 2.17.136 4.325.454 6.494.55 7.947.348 15.905.938 23.847.817 4.087-.06 8.254-1.08 12.195-2.296 4.92-1.513 6.055-4.904 3.502-9.42-2.25-4.037-6.11-6.12-10.182-7.755-11.515-4.617-23.715-5.122-35.871-5.5-7.76-.237-15.56.418-23.326.943a35.28 35.28 0 0 0-17.706 6.055C60.567 58.961 56.052 67.13 52.51 75.89c-4.995 12.347-8.34 25.228-11.1 38.221-1.938 9.199-3.734 18.463-2.634 27.999.439 3.82 2.018 6.681 4.334 7.17 3.996.843 7.569-.106 10.834-2.417a64.783 64.783 0 0 0 5.146-4.036c6.11-5.319 12.978-8.492 21.278-7.68 4.819.469 9.627 1.362 14.441 1.408 5.838.06 11.691-.505 17.524-.914a73.152 73.152 0 0 0 20.587-4.576c3.789-1.413 7.331-3.27 10-6.448 2.367-2.816 1.897-5.732-1.297-7.463-1.458-.792-2.956-1.716-4.541-2.018a1303.454 1303.454 0 0 0-27.893-5.167c-3.199-.555-6.468-.661-9.682-1.136-1.706-.252-3.058-1.16-2.654-3.224.338-1.725 1.67-2.19 3.224-2.109 10.152.525 20.269 1.06 29.533 1.549v.01Z" fill="#54AF39"/></g><defs><clipPath id="a"><path fill="#fff" transform="translate(25 34)" d="M0 0h150v132.562H0z"/></clipPath></defs></svg>