<svg xmlns="http://www.w3.org/2000/svg" viewBox="0 0 200 200"><path fill="url(#a)" d="M100 175c41.421 0 75-33.579 75-75s-33.579-75-75-75-75 33.579-75 75 33.579 75 75 75"/><path fill="url(#b)" fill-rule="evenodd" d="M50.375 64.56h20.759L95.25 99.915 83.627 102.5l-9.666-2.586z" clip-rule="evenodd"/><path fill="url(#c)" fill-rule="evenodd" d="M49.287 135.27h20.759L95.25 99.915H73.96z" clip-rule="evenodd"/><path fill="url(#d)" fill-rule="evenodd" d="M80.848 64.56h20.758l24.118 35.355-11.406 2.731-9.909-2.731z" clip-rule="evenodd"/><path fill="url(#e)" fill-rule="evenodd" d="M128.576 64.56h20.759l-18.898 28.516-10.658-15.611z" clip-rule="evenodd"/><path fill="url(#f)" fill-rule="evenodd" d="M110.983 64.56h7.999l-3.939 5.945z" clip-rule="evenodd"/><path fill="url(#g)" fill-rule="evenodd" d="M129.784 135.27h20.759l-20.034-28.854-10.73 14.91z" clip-rule="evenodd"/><path fill="url(#h)" fill-rule="evenodd" d="M109.751 135.27h10.416l-5.148-7.322z" clip-rule="evenodd"/><path fill="url(#i)" fill-rule="evenodd" d="M79.76 135.27h20.542l25.423-35.355H104.41z" clip-rule="evenodd"/><defs><linearGradient id="a" x1="100" x2="100" y1="175" y2="25" gradientUnits="userSpaceOnUse"><stop stop-color="#D1D5D8"/><stop offset="1" stop-color="#FDFCFD"/></linearGradient><linearGradient id="b" x1="62.319" x2="78.643" y1="69.407" y2="100.131" gradientUnits="userSpaceOnUse"><stop stop-color="#73A2A8"/><stop offset="1" stop-color="#71B5BF"/></linearGradient><linearGradient id="c" x1="61.911" x2="76.094" y1="128.894" y2="102.747" gradientUnits="userSpaceOnUse"><stop stop-color="#699699"/><stop offset="1" stop-color="#73A4A6"/></linearGradient><linearGradient id="d" x1="93.493" x2="108.801" y1="70.383" y2="99.085" gradientUnits="userSpaceOnUse"><stop stop-color="#005661"/><stop offset="1" stop-color="#048293"/></linearGradient><linearGradient id="e" x1="134.568" x2="134.568" y1="93.086" y2="64.556" gradientUnits="userSpaceOnUse"><stop stop-color="#676F74"/><stop offset="1" stop-color="#3B444A"/></linearGradient><linearGradient id="f" x1="114.977" x2="114.977" y1="64.556" y2="70.499" gradientUnits="userSpaceOnUse"><stop stop-color="#93989C"/><stop offset="1" stop-color="#AAAFB2"/></linearGradient><linearGradient id="g" x1="141.027" x2="130.287" y1="128.683" y2="112.367" gradientUnits="userSpaceOnUse"><stop stop-color="#3B444A"/><stop offset="1" stop-color="#3B444A"/></linearGradient><linearGradient id="h" x1="114.966" x2="114.966" y1="135.274" y2="127.947" gradientUnits="userSpaceOnUse"><stop stop-color="#858B8F"/><stop offset="1" stop-color="#868D90"/></linearGradient><linearGradient id="i" x1="92.915" x2="106.348" y1="128.345" y2="103.488" gradientUnits="userSpaceOnUse"><stop stop-color="#08575C"/><stop offset="1" stop-color="#096166"/></linearGradient></defs></svg>