<svg xmlns="http://www.w3.org/2000/svg" width="256" height="256"><defs><linearGradient id="a" x1="50%" x2="50%" y1="100%" y2="0%"><stop offset="0%" stop-color="#D1D5D8"/><stop offset="100%" stop-color="#FDFCFD"/></linearGradient><linearGradient id="b" x1="26.616%" x2="73.396%" y1="12.775%" y2="87.214%"><stop offset="0%" stop-color="#73A2A8"/><stop offset="100%" stop-color="#71B5BF"/></linearGradient><linearGradient id="c" x1="27.466%" x2="72.545%" y1="81.967%" y2="18.04%"><stop offset="0%" stop-color="#699699"/><stop offset="100%" stop-color="#73A4A6"/></linearGradient><linearGradient id="d" x1="28.179%" x2="71.787%" y1="15.29%" y2="84.683%"><stop offset="0%" stop-color="#005661"/><stop offset="100%" stop-color="#048293"/></linearGradient><linearGradient id="e" x1="50.036%" x2="50.036%" y1="100.035%" y2="-.014%"><stop offset="0%" stop-color="#676F74"/><stop offset="100%" stop-color="#3B444A"/></linearGradient><linearGradient id="f" x1="49.934%" x2="49.934%" y1="-.069%" y2="99.894%"><stop offset="0%" stop-color="#93989C"/><stop offset="100%" stop-color="#AAAFB2"/></linearGradient><linearGradient id="g" x1="69.068%" x2="30.957%" y1="77.172%" y2="22.87%"><stop offset="0%" stop-color="#3B444A"/><stop offset="100%" stop-color="#3B444A"/></linearGradient><linearGradient id="h" x1="50.067%" x2="50.067%" y1="100.056%" y2="-.02%"><stop offset="0%" stop-color="#858B8F"/><stop offset="100%" stop-color="#868D90"/></linearGradient><linearGradient id="i" x1="28.618%" x2="71.349%" y1="80.412%" y2="19.594%"><stop offset="0%" stop-color="#08575C"/><stop offset="100%" stop-color="#096166"/></linearGradient></defs><g fill="none" fill-rule="evenodd"><circle cx="128" cy="128" r="128" fill="url(#a)"/><path fill="url(#b)" d="M43.306 67.516h35.428l41.161 60.339-19.838 4.413-16.498-4.413z"/><path fill="url(#c)" d="M41.45 188.194h35.428l43.017-60.339H83.559z"/><path fill="url(#d)" d="M95.314 67.516h35.428l41.161 60.339-19.467 4.661-16.91-4.661z"/><path fill="url(#e)" d="M176.77 67.516h35.428l-32.252 48.667-18.189-26.643z"/><path fill="url(#f)" d="M146.745 67.516h13.651l-6.723 10.146z"/><path fill="url(#g)" d="M178.832 188.194h35.428l-34.191-49.244-18.312 25.447z"/><path fill="url(#h)" d="M144.641 188.194h17.776l-8.785-12.496z"/><path fill="url(#i)" d="M93.458 188.194h35.057l43.388-60.339h-36.377z"/></g></svg>