<svg width="200" height="200" fill="none" xmlns="http://www.w3.org/2000/svg"><path d="M100 175c41.421 0 75-33.579 75-75s-33.579-75-75-75-75 33.579-75 75 33.579 75 75 75Z" fill="url(#a)"/><path fill-rule="evenodd" clip-rule="evenodd" d="M50.375 64.56h20.759L95.25 99.915 83.627 102.5l-9.666-2.586L50.375 64.56Z" fill="url(#b)"/><path fill-rule="evenodd" clip-rule="evenodd" d="M49.287 135.27h20.759L95.25 99.915h-21.29L49.286 135.27Z" fill="url(#c)"/><path fill-rule="evenodd" clip-rule="evenodd" d="M80.848 64.56h20.758l24.118 35.355-11.406 2.731-9.909-2.731L80.848 64.56Z" fill="url(#d)"/><path fill-rule="evenodd" clip-rule="evenodd" d="M128.576 64.56h20.759l-18.898 28.516-10.658-15.611 8.797-12.905Z" fill="url(#e)"/><path fill-rule="evenodd" clip-rule="evenodd" d="M110.983 64.56h7.999l-3.939 5.945-4.06-5.945Z" fill="url(#f)"/><path fill-rule="evenodd" clip-rule="evenodd" d="M129.784 135.27h20.759l-20.034-28.854-10.73 14.91 10.005 13.944Z" fill="url(#g)"/><path fill-rule="evenodd" clip-rule="evenodd" d="M109.751 135.27h10.416l-5.148-7.322-5.268 7.322Z" fill="url(#h)"/><path fill-rule="evenodd" clip-rule="evenodd" d="M79.76 135.27h20.542l25.423-35.355H104.41L79.76 135.27Z" fill="url(#i)"/><defs><linearGradient id="a" x1="100" y1="175" x2="100" y2="25" gradientUnits="userSpaceOnUse"><stop stop-color="#D1D5D8"/><stop offset="1" stop-color="#FDFCFD"/></linearGradient><linearGradient id="b" x1="62.319" y1="69.407" x2="78.643" y2="100.131" gradientUnits="userSpaceOnUse"><stop stop-color="#73A2A8"/><stop offset="1" stop-color="#71B5BF"/></linearGradient><linearGradient id="c" x1="61.911" y1="128.894" x2="76.094" y2="102.747" gradientUnits="userSpaceOnUse"><stop stop-color="#699699"/><stop offset="1" stop-color="#73A4A6"/></linearGradient><linearGradient id="d" x1="93.493" y1="70.383" x2="108.801" y2="99.085" gradientUnits="userSpaceOnUse"><stop stop-color="#005661"/><stop offset="1" stop-color="#048293"/></linearGradient><linearGradient id="e" x1="134.568" y1="93.086" x2="134.568" y2="64.556" gradientUnits="userSpaceOnUse"><stop stop-color="#676F74"/><stop offset="1" stop-color="#3B444A"/></linearGradient><linearGradient id="f" x1="114.977" y1="64.556" x2="114.977" y2="70.499" gradientUnits="userSpaceOnUse"><stop stop-color="#93989C"/><stop offset="1" stop-color="#AAAFB2"/></linearGradient><linearGradient id="g" x1="141.027" y1="128.683" x2="130.287" y2="112.367" gradientUnits="userSpaceOnUse"><stop stop-color="#3B444A"/><stop offset="1" stop-color="#3B444A"/></linearGradient><linearGradient id="h" x1="114.966" y1="135.274" x2="114.966" y2="127.947" gradientUnits="userSpaceOnUse"><stop stop-color="#858B8F"/><stop offset="1" stop-color="#868D90"/></linearGradient><linearGradient id="i" x1="92.915" y1="128.345" x2="106.348" y2="103.488" gradientUnits="userSpaceOnUse"><stop stop-color="#08575C"/><stop offset="1" stop-color="#096166"/></linearGradient></defs></svg>