<svg xmlns="http://www.w3.org/2000/svg" viewBox="0 0 200 200"><path fill="url(#a)" d="M200 0H0v200h200z"/><path fill="url(#b)" d="M33.333 63.333h10a93.334 93.334 0 0 1 93.334 93.333v10h20a10 10 0 0 0 10-10A123.33 123.33 0 0 0 43.333 33.333a10 10 0 0 0-10 10z"/><path fill="url(#c)" d="M140 156.667h26.667a10.003 10.003 0 0 1-10 10H140z"/><path fill="url(#d)" d="M43.333 33.333V60h-10V43.333a10 10 0 0 1 10-10"/><path fill="url(#e)" d="M33.333 60h10A96.667 96.667 0 0 1 140 156.667v10h-30v-10a66.66 66.66 0 0 0-19.526-47.141A66.68 66.68 0 0 0 43.334 90h-10V60Z"/><path fill="url(#f)" d="M113.333 156.667H140v10h-26.667z"/><path fill="url(#g)" d="M33.333 86.667V60h10v26.667z"/><path fill="url(#h)" d="M33.333 103.333a10 10 0 0 0 10 10 43.335 43.335 0 0 1 43.334 43.334 10 10 0 0 0 10 10h16.666v-10a70 70 0 0 0-70-70h-10z"/><path fill="url(#i)" d="M86.667 156.667h26.666v10H96.667a10 10 0 0 1-10-10"/><path fill="url(#j)" d="M43.333 113.333a9.997 9.997 0 0 1-10-10V86.667h10z"/><defs><radialGradient id="b" cx="0" cy="0" r="1" gradientTransform="rotate(-90 99.942 56.858)scale(123.333)" gradientUnits="userSpaceOnUse"><stop offset=".77" stop-color="#FF4000"/><stop offset="1" stop-color="#8754C9"/></radialGradient><radialGradient id="e" cx="0" cy="0" r="1" gradientTransform="rotate(-90 100.342 56.725)scale(96.6667)" gradientUnits="userSpaceOnUse"><stop offset=".72" stop-color="#FFF700"/><stop offset="1" stop-color="#FF9901"/></radialGradient><radialGradient id="h" cx="0" cy="0" r="1" gradientTransform="matrix(0 -70 70 0 43.633 156.9)" gradientUnits="userSpaceOnUse"><stop offset=".6" stop-color="#0AF"/><stop offset="1" stop-color="#01DA40"/></radialGradient><radialGradient id="i" cx="0" cy="0" r="1" gradientTransform="matrix(28.3333 0 0 75.55 84.983 164.619)" gradientUnits="userSpaceOnUse"><stop stop-color="#0AF"/><stop offset="1" stop-color="#01DA40"/></radialGradient><radialGradient id="j" cx="0" cy="0" r="1" gradientTransform="matrix(0 -14.1667 268.642 0 39.987 114.95)" gradientUnits="userSpaceOnUse"><stop stop-color="#0AF"/><stop offset="1" stop-color="#01DA40"/></radialGradient><linearGradient id="a" x1="100" x2="100" y1="0" y2="200" gradientUnits="userSpaceOnUse"><stop stop-color="#174299"/><stop offset="1" stop-color="#001E59"/></linearGradient><linearGradient id="c" x1="138.333" x2="166.667" y1="161.667" y2="161.667" gradientUnits="userSpaceOnUse"><stop stop-color="#FF4000"/><stop offset="1" stop-color="#8754C9"/></linearGradient><linearGradient id="d" x1="38.333" x2="38.333" y1="33.333" y2="61.666" gradientUnits="userSpaceOnUse"><stop stop-color="#8754C9"/><stop offset="1" stop-color="#FF4000"/></linearGradient><linearGradient id="f" x1="113.333" x2="140" y1="161.667" y2="161.667" gradientUnits="userSpaceOnUse"><stop stop-color="#FFF700"/><stop offset="1" stop-color="#FF9901"/></linearGradient><linearGradient id="g" x1="38.333" x2="38.333" y1="86.667" y2="60" gradientUnits="userSpaceOnUse"><stop stop-color="#FFF700"/><stop offset="1" stop-color="#FF9901"/></linearGradient></defs></svg>