<svg width="200" height="200" fill="none" xmlns="http://www.w3.org/2000/svg"><path d="M200 0H0v200h200V0Z" fill="url(#a)"/><path d="M33.333 63.333h10a93.334 93.334 0 0 1 93.334 93.333v10h20a9.999 9.999 0 0 0 10-10A123.331 123.331 0 0 0 43.333 33.333a10 10 0 0 0-10 10v20Z" fill="url(#b)"/><path d="M140 156.667h26.667a10.003 10.003 0 0 1-10 10H140v-10Z" fill="url(#c)"/><path d="M43.333 33.333V60h-10V43.333a10 10 0 0 1 10-10Z" fill="url(#d)"/><path d="M33.333 60h10A96.667 96.667 0 0 1 140 156.667v10h-30v-10a66.66 66.66 0 0 0-19.526-47.141A66.675 66.675 0 0 0 43.334 90h-10V60Z" fill="url(#e)"/><path d="M113.333 156.667H140v10h-26.667v-10Z" fill="url(#f)"/><path d="M33.333 86.667V60h10v26.667h-10Z" fill="url(#g)"/><path d="M33.333 103.333a10 10 0 0 0 10 10 43.335 43.335 0 0 1 43.334 43.334 10.001 10.001 0 0 0 10 10h16.666v-10a70.001 70.001 0 0 0-70-70h-10v16.666Z" fill="url(#h)"/><path d="M86.667 156.667h26.666v10H96.667a10.001 10.001 0 0 1-10-10Z" fill="url(#i)"/><path d="M43.333 113.333a9.997 9.997 0 0 1-10-10V86.667h10v26.666Z" fill="url(#j)"/><defs><radialGradient id="b" cx="0" cy="0" r="1" gradientUnits="userSpaceOnUse" gradientTransform="rotate(-90 99.942 56.858) scale(123.333)"><stop offset=".77" stop-color="#FF4000"/><stop offset="1" stop-color="#8754C9"/></radialGradient><radialGradient id="e" cx="0" cy="0" r="1" gradientUnits="userSpaceOnUse" gradientTransform="rotate(-90 100.342 56.725) scale(96.6667)"><stop offset=".72" stop-color="#FFF700"/><stop offset="1" stop-color="#FF9901"/></radialGradient><radialGradient id="h" cx="0" cy="0" r="1" gradientUnits="userSpaceOnUse" gradientTransform="matrix(0 -70 70 0 43.633 156.9)"><stop offset=".6" stop-color="#0AF"/><stop offset="1" stop-color="#01DA40"/></radialGradient><radialGradient id="i" cx="0" cy="0" r="1" gradientUnits="userSpaceOnUse" gradientTransform="matrix(28.3333 0 0 75.55 84.983 164.619)"><stop stop-color="#0AF"/><stop offset="1" stop-color="#01DA40"/></radialGradient><radialGradient id="j" cx="0" cy="0" r="1" gradientUnits="userSpaceOnUse" gradientTransform="matrix(0 -14.1667 268.642 0 39.987 114.95)"><stop stop-color="#0AF"/><stop offset="1" stop-color="#01DA40"/></radialGradient><linearGradient id="a" x1="100" y1="0" x2="100" y2="200" gradientUnits="userSpaceOnUse"><stop stop-color="#174299"/><stop offset="1" stop-color="#001E59"/></linearGradient><linearGradient id="c" x1="138.333" y1="161.667" x2="166.667" y2="161.667" gradientUnits="userSpaceOnUse"><stop stop-color="#FF4000"/><stop offset="1" stop-color="#8754C9"/></linearGradient><linearGradient id="d" x1="38.333" y1="33.333" x2="38.333" y2="61.666" gradientUnits="userSpaceOnUse"><stop stop-color="#8754C9"/><stop offset="1" stop-color="#FF4000"/></linearGradient><linearGradient id="f" x1="113.333" y1="161.667" x2="140" y2="161.667" gradientUnits="userSpaceOnUse"><stop stop-color="#FFF700"/><stop offset="1" stop-color="#FF9901"/></linearGradient><linearGradient id="g" x1="38.333" y1="86.667" x2="38.333" y2="60" gradientUnits="userSpaceOnUse"><stop stop-color="#FFF700"/><stop offset="1" stop-color="#FF9901"/></linearGradient></defs></svg>