<svg xmlns="http://www.w3.org/2000/svg" width="256" height="256"><path fill="none" stroke="#E98176" stroke-linecap="round" stroke-linejoin="round" stroke-width="14" d="M128 28.588a69.885 69.885 0 0 0-18.185 31.502m67.89 88.498c6.124 0 12.247-.815 18.202-2.41M109.815 60.09a70.534 70.534 0 0 0-2.406 18.196m88.498 67.893A69.967 69.967 0 0 0 227.412 128m0 0c13.726-13.726 20.591-31.721 20.591-49.714M177.705 8c-17.99 0-35.982 6.862-49.705 20.588m0 198.821a69.985 69.985 0 0 0 18.182-31.499M28.585 128C14.862 141.72 8 159.715 8 177.705m138.182 18.205a70.764 70.764 0 0 0 2.406-18.205m-70.296-70.299c-6.126 0-12.244.815-18.202 2.412M78.292 248c17.993 0 35.979-6.865 49.708-20.59M60.09 109.817A69.93 69.93 0 0 0 28.585 128M128 28.588C114.271 14.862 96.285 8 78.292 8m70.296 70.286c0-6.12-.818-12.241-2.406-18.196M8 78.286C8 96.28 14.862 114.274 28.585 128m117.597-67.91A69.933 69.933 0 0 0 128 28.588m-67.91 117.59a70.437 70.437 0 0 0 18.202 2.41M28.585 128c9.054 9.048 19.965 15.1 31.505 18.179m187.913 31.526c0-17.99-6.865-35.985-20.59-49.705m-120.004 49.705c0 6.12.815 12.244 2.406 18.205M128 227.41c13.723 13.725 31.715 20.59 49.705 20.59m-67.89-52.09A69.937 69.937 0 0 0 128 227.41M227.412 128a69.946 69.946 0 0 0-31.505-18.182m0 0a70.312 70.312 0 0 0-18.202-2.412m20.59-49.707c0-19.409-7.869-36.98-20.59-49.699M78.292 8c-12.718 12.719-20.59 30.29-20.59 49.699m20.59 49.707C91.014 120.128 108.586 128 128 128m0 0c19.411 0 36.983-7.872 49.705-20.594m11.16-14.555a69.954 69.954 0 0 0 9.43-35.152M67.13 92.85a70.59 70.59 0 0 0 11.163 14.555m99.413 0a70.473 70.473 0 0 0 11.16-14.555M57.702 57.699a70.012 70.012 0 0 0 9.427 35.152m131.166 105.447a69.938 69.938 0 0 0-9.43-35.152M57.702 198.298c0 19.409 7.872 36.977 20.59 49.702m99.413-99.412C164.983 135.863 147.41 128 128 128m49.705 120c12.721-12.725 20.59-30.293 20.59-49.702m-120.003-49.71a70.45 70.45 0 0 0-11.163 14.558M128 128c-19.414 0-36.986 7.863-49.708 20.588M67.13 163.146a69.996 69.996 0 0 0-9.427 35.152m131.163-35.152a70.334 70.334 0 0 0-11.16-14.558m-70.296 29.117C120.13 164.986 128 147.41 128 128m-35.152 60.862a70.11 70.11 0 0 0 14.561-11.157m-99.409 0c12.719 12.718 30.293 20.593 49.702 20.593M128 128c0-19.414-7.872-36.983-20.59-49.714m0 0a70.506 70.506 0 0 0-14.562-11.154M57.702 198.298c12.81 0 24.81-3.448 35.146-9.436M57.702 57.7C38.293 57.7 20.719 65.569 8 78.287m84.848-11.154A69.926 69.926 0 0 0 57.702 57.7m105.447 131.163a69.906 69.906 0 0 0 35.146 9.436m49.708-120.012c-12.725-12.718-30.3-20.587-49.708-20.587m-49.707 20.587C135.866 91.017 128 108.586 128 128m70.295-70.301a69.934 69.934 0 0 0-35.146 9.433m0 0a70.428 70.428 0 0 0-14.561 11.154m0 99.419a70.033 70.033 0 0 0 14.561 11.157m35.146 9.436c19.409 0 36.983-7.875 49.708-20.593M128 128c0 19.411 7.866 36.986 20.588 49.705"/></svg>