<svg width="200" height="200" fill="none" xmlns="http://www.w3.org/2000/svg"><path d="M100 38.696a43.095 43.095 0 0 0-11.215 19.426 43.501 43.501 0 0 0-1.484 11.22M100 38.697C108.461 30.232 119.556 26 130.65 26c7.845 7.843 12.697 18.679 12.697 30.647M99.999 38.696C91.533 30.232 80.442 26 69.346 26 61.503 33.843 56.65 44.679 56.65 56.647M100 38.696a43.123 43.123 0 0 1 11.212 19.426 43.585 43.585 0 0 1 1.484 11.22m17.955 43.353c3.777 0 7.552-.503 11.225-1.486m-11.225 1.486c-7.845-7.847-18.682-12.696-30.65-12.696m30.65 12.696a43.36 43.36 0 0 1 6.882 8.977 43.13 43.13 0 0 1 5.815 21.677m-1.472-32.14a43.137 43.137 0 0 0 19.427-11.21m0 0C169.767 91.535 174 80.438 174 69.343c-7.847-7.843-18.685-12.696-30.653-12.696M161.302 100C169.766 108.46 174 119.556 174 130.65c-7.847 7.843-18.684 12.699-30.653 12.699m17.955-43.35a43.128 43.128 0 0 0-19.427-11.212A43.36 43.36 0 0 0 130.65 87.3C122.805 95.145 111.969 100 100 100m0 61.301a43.157 43.157 0 0 0 11.211-19.425 43.638 43.638 0 0 0 1.484-11.226M38.694 100C30.23 108.46 26 119.555 26 130.65c7.843 7.843 18.68 12.699 30.65 12.699m-17.956-43.35a43.122 43.122 0 0 1 19.428-11.212A43.355 43.355 0 0 1 69.346 87.3C77.191 95.145 88.027 100 100 100m-61.305 0C30.23 91.534 26 80.438 26 69.342c7.843-7.843 18.68-12.696 30.65-12.696M38.693 100a43.13 43.13 0 0 0 19.428 11.21m54.573 19.441a43.18 43.18 0 0 0 8.979 6.88m-8.979-6.88c-7.845-7.843-12.696-18.681-12.696-30.65m0 61.301c-8.466 8.464-19.557 12.697-30.653 12.697-7.843-7.847-12.697-18.68-12.697-30.649M100 161.301c8.462 8.464 19.557 12.697 30.651 12.697 7.845-7.847 12.697-18.68 12.697-30.649m-43.348 17.952a43.123 43.123 0 0 1-11.214-19.425 43.556 43.556 0 0 1-1.484-11.226 43.217 43.217 0 0 1-8.979 6.88 43.096 43.096 0 0 1-21.673 5.819m56.046-74.006c-7.845 7.85-12.696 18.684-12.696 30.656m12.696-30.656a43.418 43.418 0 0 1 8.979-6.879 43.124 43.124 0 0 1 21.673-5.817M58.122 111.21a43.455 43.455 0 0 0 11.224 1.486m0 0a43.416 43.416 0 0 0-6.884 8.977 43.165 43.165 0 0 0-5.813 21.677m12.697-30.654c7.845-7.847 18.681-12.696 30.653-12.696m43.348-43.352a43.139 43.139 0 0 1-5.815 21.677M56.649 56.647a43.174 43.174 0 0 0 5.813 21.677M56.65 56.647a43.12 43.12 0 0 1 21.673 5.817 43.477 43.477 0 0 1 8.98 6.879C95.145 77.192 100 88.026 100 99.999m0 0c0 11.969-4.853 22.808-12.697 30.651M62.463 78.323a43.531 43.531 0 0 0 6.884 8.976m61.304 0a43.494 43.494 0 0 0 6.882-8.976m5.814 65.026a43.105 43.105 0 0 1-21.673-5.818" stroke="#E98176" stroke-width="8.633" stroke-linecap="round" stroke-linejoin="round"/></svg>