<svg xmlns="http://www.w3.org/2000/svg" viewBox="0 0 200 200"><g clip-path="url(#a)"><path fill="#C21F20" d="M100 25c-41.422 0-75 33.578-75 75.007s33.578 74.999 75 74.999 75.006-33.585 75.006-75.007C175.006 58.578 141.421 25 99.999 25Zm38.528 116.685-21.788-16.683.109 1.266c5.38 5.763 10.264 20.747 10.264 20.747H75.41c5.654-16.685 8.947-16.141 8.947-16.141l5.38-12.129v-3.406c-2.69-.158-5.159-11.195-5.159-11.195-16.41-1.425-20.764-9.99-20.764-9.99l2.734-10.017c-6.23-6.12-6.668-6.915-6.668-8.836s1.266-2.224 1.266-2.224c.329-.658 1.152-.493 1.152-.493.329-.659 1.098-.502 1.098-.502a2.06 2.06 0 0 1 1.696-1.041c2.415 2.635 4.995-.385 5.982-2.141s2.635-.988 2.635-.988c.11-.878 1.098-1.098 1.098-1.098 1.266-1.866 2.744 0 2.744 0h2.035l45.61-13.83 5.38.316-2.365 1.885c-24.04 5.708-50.66 15.148-50.66 15.148-2.434 2.819-4.189 9.661-4.189 9.661l12.147 1.06c-.731-7.754.293-14.928 7.94-14.928s7.794 8.49 7.794 8.49v7.133l3.257 2.05c2.012-.366 3.797 3.038 3.797 3.038s3.732 6.878 2.928 8.671.585 3.879.585 3.879v16.099c3.439 6.221 28.302 24.496 28.302 24.496z"/></g><defs><clipPath id="a"><path fill="#fff" d="M25 25h150v149.998H25z"/></clipPath></defs></svg>