<svg width="200" height="200" fill="none" xmlns="http://www.w3.org/2000/svg"><path d="M200 0H0v200h200V0Z" fill="#0098FD"/><path d="M98.24 156.949c1.215-4.91 2.398-9.661 3.714-14.95 2.265.565 4.518 1.097 6.75 1.701 8.638 2.306 15.515-.452 18.871-7.568a14.358 14.358 0 0 0 .236-12.258 14.356 14.356 0 0 0-9.319-7.968c-2.911-.864-5.881-1.548-9.336-2.452 1.376-5.661 2.724-11.196 4.1-16.843 3.561.77 6.704 1.68 9.914 2.093 8.166 1.036 14.312-3.987 16.146-12.95 1.262-6.167-4.047-13.855-10.838-15.675-2.604-.664-5.215-1.329-8.053-2.106 1.329-5.25 2.552-10.186 3.748-14.95 15.614 2.278 27.202 9.435 30.272 25.508 2.698 14.1-3.322 24.957-15.408 32.844 8.677 14.618 8.425 28.764-3.987 40.91-10.611 10.365-23.469 9.615-36.81 4.664ZM67.774 54.817c1.063-4.2 2.266-8.385 3.13-12.624.359-1.735 1.01-2.34 2.657-1.96 5.416 1.242 10.818 2.511 16.612 3.86 1.023-3.701 2.053-7.435 3.176-11.489l8.312 2.34-32.006 127.435-8.187-2.373c.917-3.82 1.801-7.501 2.758-11.501l-19.309-4.465c1.25-5.017 2.472-9.967 3.74-15.037 4.592.472 9.03.472 11.762-3.681a23.723 23.723 0 0 0 2.97-7.169c4.153-16.299 8.18-32.632 12.219-48.957 1.807-7.296-.525-11.568-7.834-14.379ZM113.894 37.815c2.511.664 4.93 1.162 7.309 1.92a2.107 2.107 0 0 1 .85 1.834c-1.993 8.345-4.133 16.67-6.306 25.328l-15.8-3.887c1.249-5.133 2.474-10.177 3.674-15.13.319-.125.525-.285.665-.252 6.545 1.681 6.551 1.688 8.325-4.704.419-1.555.784-3.136 1.283-5.11ZM84.592 154.047l-6.99-1.901c1.136-4.578 2.16-9.109 3.468-13.554.18-.632 1.854-1.329 2.658-1.19 4.578.984 9.096 2.226 13.648 3.382-2.253 8.745-4.512 17.489-6.87 26.632-2.426-.605-4.772-.984-6.924-1.854-.665-.259-1.143-1.994-.99-2.877.465-2.857 1.275-5.622 2-8.638ZM93.023 91.436l15.681 3.913c-1.388 5.595-2.704 10.871-4.179 16.804l-15.774-3.668a5820.94 5820.94 0 0 1 4.272-17.05Z" fill="#fff"/></svg>