<svg xmlns="http://www.w3.org/2000/svg" viewBox="0 0 200 200"><path fill="#30768C" stroke="#fff" stroke-width="8" d="M87.801 50.173h24.421L148.167 29 175 45.447v87.539l-62.072 37.018H87.092L25 132.986V45.442L52.217 29l35.584 21.172Z"/><path fill="#3CA2E0" d="M30.107 88.773v27.335l46.44-26.773 10.82 6.29v29.467h25.137V95.625l10.969-6.29 46.441 26.966.322-28.752-56.343-32.683H87.368z"/><path fill="#fff" d="M30.107 115.583v14.323l10.65 6.462v-12.059l35.79-20.56 10.806 6.418.094-14.479-10.9-6.352zm139.807.719v14.715l-10.651 6.639v-12.389l-35.79-21.123-10.9 6.636-.069-15.154 10.969-6.29zm-57.341 8.791 22.954 13.717v12.033l-22.954 13.956H87.447l-23.299-13.956V138.81l23.22-13.718h25.205zm0 17.824H87.82v5.584l12.351 7.569 12.402-7.569zm-71.836-60.22v-28.66l12.032-6.901 23.546 14.426zm119.656-.967V53.072l-12.032-6.903-23.991 14.714z"/><path fill="#0A4654" d="m112.573 110.78 11.495 7.239 11.03-6.938-11.625-6.937zm-46.975-.757 11.438 7.361 10.264-7.239-10.86-6.636z"/></svg>