<svg xmlns="http://www.w3.org/2000/svg" width="256" height="256"><g fill="none"><path fill="#30768C" stroke="#FFF" stroke-width="8" d="M108.986 49.881h38.881l57.228-33.71 42.721 26.186v139.371l-98.825 58.936h-41.134L9 181.728V42.348l43.333-26.176z"/><path fill="#3CA2E0" d="M17.13 111.337v43.52l73.938-42.626 17.228 10.015v46.914h40.02v-46.914l17.463-10.015 73.939 42.934.513-45.776-89.704-52.036h-42.231z"/><path fill="#FFF" d="M17.13 154.02v22.803l16.957 10.288v-19.199l56.981-32.733 17.205 10.217.149-23.051-17.354-10.114zm222.588 1.145v23.427l-16.957 10.57v-19.724l-56.981-33.63-17.354 10.565-.11-24.127 17.464-10.015zm-91.292 13.995L184.97 191v19.158l-36.544 22.218h-40.004l-37.094-22.218V191l36.968-21.841h40.13Zm0 28.378h-39.41v8.891l19.664 12.05 19.746-12.05v-8.89ZM34.055 101.661V56.033l19.156-10.989 37.487 22.969zm190.504-1.539V54.495l-19.156-10.99-38.196 23.427z"/><path fill="#0A4654" d="m148.426 146.373 18.3 11.526 17.562-11.046-18.509-11.045zm-74.79-1.204 18.21 11.719 16.342-11.525-17.289-10.566z"/></g></svg>