<svg xmlns="http://www.w3.org/2000/svg" viewBox="0 0 200 200"><path fill="#344A65" d="M100 175c41.421 0 75-33.579 75-75s-33.579-75-75-75-75 33.579-75 75 33.579 75 75 75"/><path fill="#FFFFFE" fill-rule="evenodd" d="m134.495 67.612-3.946 23.658-14.027-16.512zm-3.86 33.832 3.511 12.967-26.851 7.396zm-58.454-6.515 14.397-18.81h25.001l15.98 18.81H72.182Zm53.528 4.647-26.031 22.705-26.515-22.705zM81.757 74.771 68.893 91.578 64.943 67.7zm10.21 47.028-27.108-7.383 3.715-12.652zm5.005 6.18-5.116 5.63a85.3 85.3 0 0 0-14.194-10.889zm24.821-5.345a85 85 0 0 0-14.155 11.027l-5.225-5.69zm18.643-62.386-28.227 11.224h-26.31L58.984 60.156l6.115 36.95-5.873 20.003 15.32 9.159a80.3 80.3 0 0 1 19.308 16.125l5.966 6.826 6.26-7.179a80.3 80.3 0 0 1 18.591-15.719l15.022-9.213-5.409-19.973z" clip-rule="evenodd"/></svg>