<svg xmlns="http://www.w3.org/2000/svg" width="256" height="256"><g fill="none" fill-rule="evenodd"><circle cx="128" cy="128" r="128" fill="#344A65"/><path fill="#FFFFFE" d="m186.872 72.724-6.735 40.377-23.94-28.18 30.675-12.197Zm-6.589 57.741 5.992 22.13-45.825 12.622 39.833-34.752Zm-99.76-11.12 24.57-32.102h42.668l27.273 32.101h-94.51v.001Zm91.353 7.932-44.426 38.75-45.252-38.75h89.677Zm-75.01-42.334-21.955 28.683-6.742-40.749 28.698 12.066Zm17.425 80.26-46.265-12.6 6.34-21.592 39.925 34.192Zm8.542 10.547-8.732 9.61a145.426 145.426 0 0 0-24.224-18.585l32.956 8.976v-.001Zm42.36-9.122a145.325 145.325 0 0 0-24.157 18.82l-8.918-9.71 33.075-9.109ZM197.01 60.156l-48.174 19.157h-44.901L58 60l10.435 63.061L58.413 157.2l26.144 15.63a137.119 137.119 0 0 1 32.954 27.52L127.692 212l10.684-12.251a137.123 137.123 0 0 1 31.729-26.828l25.638-15.723-9.232-34.088 10.5-62.954Z"/></g></svg>