<svg width="200" height="200" fill="none" xmlns="http://www.w3.org/2000/svg"><path d="M100 175c41.421 0 75-33.579 75-75s-33.579-75-75-75-75 33.579-75 75 33.579 75 75 75Z" fill="#344A65"/><path fill-rule="evenodd" clip-rule="evenodd" d="m134.495 67.612-3.946 23.658-14.027-16.512 17.973-7.146Zm-3.86 33.832 3.511 12.967-26.851 7.396 23.34-20.363Zm-58.454-6.515 14.397-18.81h25.001l15.98 18.81H72.182Zm53.528 4.647-26.031 22.705-26.515-22.705h52.546ZM81.757 74.771 68.893 91.578 64.943 67.7l16.815 7.07Zm10.21 47.028-27.108-7.383 3.715-12.652 23.393 20.035Zm5.005 6.18-5.116 5.63a85.269 85.269 0 0 0-14.194-10.889l19.31 5.259Zm24.821-5.345a85.14 85.14 0 0 0-14.155 11.027l-5.225-5.69 19.38-5.337Zm18.643-62.386-28.227 11.224h-26.31L58.984 60.156l6.115 36.95-5.873 20.003 15.32 9.159a80.316 80.316 0 0 1 19.308 16.125l5.966 6.826 6.26-7.179a80.34 80.34 0 0 1 18.591-15.719l15.022-9.213-5.409-19.973 6.152-36.887Z" fill="#FFFFFE"/></svg>