<svg width="200" height="200" fill="none" xmlns="http://www.w3.org/2000/svg"><path fill="#00D632" d="M0 0h200v200H0z"/><path d="M130.313 0c20 0 29.999 0 40.937 3.438a42.504 42.504 0 0 1 25.313 25.312C200 39.688 200 49.688 200 69.719v60.531c0 20.063 0 30.125-3.437 40.937A42.511 42.511 0 0 1 171.25 196.5c-10.938 3.5-20.937 3.5-40.937 3.5H69.688c-20.063 0-30.126 0-40.938-3.437A42.513 42.513 0 0 1 3.437 171.25C0 160.312 0 150.312 0 130.281V69.687C0 49.626 0 39.564 3.438 28.75A42.5 42.5 0 0 1 28.75 3.437C39.688 0 49.688 0 69.688 0h60.625Z" fill="#00D632"/><path d="M132.719 74.375c1.562 1.563 4.156 1.563 5.625 0l7.812-8.125c1.656-1.563 1.563-4.375-.187-6.063a61.662 61.662 0 0 0-21-12l2.468-11.874c.532-2.594-1.406-5.032-4-5.032h-15.125a4.124 4.124 0 0 0-4 3.313l-2.187 10.562C82 46.188 64.937 56.406 64.937 77.344c0 18.125 14.094 25.906 29 31.25 14.094 5.375 21.563 7.375 21.563 14.937 0 7.781-7.438 12.344-18.438 12.344-10 0-20.5-3.344-28.624-11.5a4.051 4.051 0 0 0-2.876-1.192 4.055 4.055 0 0 0-2.874 1.192l-8.438 8.437a4.252 4.252 0 0 0 0 6c6.563 6.469 14.875 11.157 24.35 13.75l-2.313 11.157c-.53 2.593 1.375 5 3.97 5.031l15.155.125a4.127 4.127 0 0 0 4.063-3.312l2.187-10.594c24.213-1.625 38.963-14.969 38.963-34.438 0-17.937-14.688-25.5-32.5-31.656-10.188-3.781-19-6.375-19-14.156 0-7.563 8.219-10.563 16.469-10.563 10.5 0 20.593 4.344 27.187 10.281l-.062-.062Z" fill="#fff"/></svg>