<svg xmlns="http://www.w3.org/2000/svg" viewBox="0 0 200 200"><path fill="#4360DF" fill-rule="evenodd" d="M99.92 25C58.543 25 25 58.58 25 100s33.543 75 74.92 75 74.92-33.58 74.92-75-33.54-75-74.92-75" clip-rule="evenodd"/><path fill="#fff" fill-rule="evenodd" d="M102.433 96.714c3.767.39 7.527.783 12.154.526 12.533-.7 20.123-7.14 19.583-16.766-.55-9.79-10.647-15.824-20.753-15.257-16.467.917-28.577 15.39-29.94 31.933 2.233-.526 4.59-.84 6.81-.963 4.626-.257 8.386.133 12.15.527zm-32.28 21.406c.52 8.977 10.09 14.507 19.664 13.99 15.6-.843 27.073-14.11 28.363-29.273a39.7 39.7 0 0 1-6.453.883c-4.38.234-7.944-.123-11.51-.483-3.564-.36-7.127-.72-11.51-.483-11.87.643-19.064 6.543-18.55 15.366z" clip-rule="evenodd"/></svg>