<svg xmlns="http://www.w3.org/2000/svg" width="45" height="45"><g fill="none" fill-rule="evenodd"><path fill="#4360DF" d="M22.476 0C10.063 0 0 10.074 0 22.5S10.063 45 22.476 45c12.413 0 22.476-10.074 22.476-22.5S34.89 0 22.476 0Z"/><path fill="#FFF" d="M23.23 21.514c1.13.117 2.258.235 3.646.158 3.76-.21 6.037-2.142 5.875-5.03-.165-2.937-3.194-4.747-6.226-4.577-4.94.275-8.573 4.617-8.982 9.58.67-.158 1.377-.252 2.043-.289 1.388-.077 2.516.04 3.645.158Zm-9.684 6.422c.156 2.693 3.027 4.352 5.899 4.197 4.68-.253 8.122-4.233 8.509-8.782a11.88 11.88 0 0 1-1.936.265c-1.314.07-2.383-.037-3.453-.145-1.069-.108-2.138-.216-3.453-.145-3.561.193-5.719 1.963-5.565 4.61Z"/></g></svg>