<svg width="200" height="200" fill="none" xmlns="http://www.w3.org/2000/svg"><g clip-path="url(#a)"><path d="M100.002 175.003c41.422 0 75.001-33.579 75.001-75.001 0-41.423-33.579-75.002-75.001-75.002C58.579 25 25 58.58 25 100.002s33.58 75.001 75.002 75.001Z" fill="#000"/><path d="M101.183 116.232c-.159-3.84-.423-7.524-.41-11.217 0-1.323-.787-1.367-1.543-1.643-13.138-4.788-26.281-9.57-39.43-14.343-4.65-1.693-9.315-3.352-13.936-5.117-3.207-1.223-4.674-4.135-3.746-7.098 1.06-3.373 4.273-4.83 7.928-3.517a3479.449 3479.449 0 0 1 21.285 7.722c10.58 3.85 21.171 7.674 31.724 11.6 1.392.517 1.944.16 2.822-.91 2.194-2.643 4.646-5.082 7.044-7.659-.266-.11-.805-.36-1.357-.561-8.151-2.969-16.28-5.916-24.41-8.907-3.176-1.17-4.762-3.734-4.189-6.562.768-3.784 4.239-5.58 8.18-4.157a5845.29 5845.29 0 0 1 25.639 9.324c7.324 2.671 14.65 5.33 21.965 8.029 11.355 4.195 18.901 14.629 19.07 26.319.295 20.36-19.302 34.314-38.725 27.426-15.857-5.643-31.636-11.474-47.443-17.243-3.926-1.436-5.493-4.878-3.819-8.214 1.36-2.709 4.254-3.762 7.468-2.621 8.095 2.91 16.168 5.872 24.25 8.81.643.226 1.279.417 1.633.539Zm45.56-8.327a17.288 17.288 0 0 0-20.616-17.016 17.28 17.28 0 0 0-13.614 13.559 17.279 17.279 0 0 0 7.329 17.762 17.289 17.289 0 0 0 9.605 2.923 17.317 17.317 0 0 0 17.293-17.231l.003.003Z" fill="#fff"/></g><defs><clipPath id="a"><path fill="#fff" transform="translate(25 25)" d="M0 0h150v150H0z"/></clipPath></defs></svg>