<svg xmlns="http://www.w3.org/2000/svg" viewBox="0 0 478.45 478.45"><g data-name="Layer 2"><g data-name="Layer 1"><circle cx="239.23" cy="239.23" r="239.23"/><path d="M243 291c-.51-12.25-1.35-24-1.31-35.78 0-4.22-2.51-4.36-4.92-5.24Q173.91 227.07 111 204.23c-14.83-5.4-29.71-10.69-44.45-16.32-10.23-3.9-14.91-13.19-11.95-22.64 3.38-10.76 13.63-15.41 25.29-11.22q34 12.21 67.89 24.63c33.75 12.28 67.53 24.48 101.19 37 4.44 1.65 6.2.51 9-2.9 7-8.43 14.82-16.21 22.47-24.43-.85-.35-2.57-1.15-4.33-1.79-26-9.47-51.93-18.87-77.86-28.41-10.13-3.73-15.19-11.91-13.36-20.93 2.45-12.07 13.52-17.8 26.09-13.26q40.94 14.78 81.78 29.74c23.36 8.52 46.73 17 70.06 25.61 36.22 13.38 60.29 46.66 60.83 83.95.94 64.94-61.57 109.45-123.52 87.48-50.58-18-100.91-36.6-151.33-55-12.52-4.58-17.52-15.56-12.18-26.2 4.34-8.64 13.57-12 23.82-8.36 25.82 9.28 51.57 18.73 77.35 28.1 2.05.72 4.08 1.33 5.21 1.72Zm145.32-26.56a55.13 55.13 0 1 0-55.17 54.95 55.23 55.23 0 0 0 55.16-54.96Z" style="fill:#fff"/></g></g></svg>