<svg width="200" height="200" fill="none" xmlns="http://www.w3.org/2000/svg"><path d="M100 175c41.421 0 75-33.579 75-75s-33.579-75-75-75-75 33.579-75 75 33.579 75 75 75Z" fill="#000"/><path d="M122.154 75.508c0-11.59-10.06-21.211-22.305-21.211-12.246 0-22.305 9.622-22.305 21.211v6.78h-9.185v48.764l31.49 14.651 31.489-14.651V82.506h-9.184v-6.998Zm-33.24 0c0-5.466 4.811-9.84 10.934-9.84 6.123 0 10.934 4.374 10.934 9.84v6.78H88.915v-6.78Zm29.74 47.672-18.805 8.747-18.806-8.747V93.877h37.611v29.303Z" fill="#fff"/></svg>