<svg xmlns="http://www.w3.org/2000/svg" width="256" height="256"><g fill="none" fill-rule="evenodd"><path fill="#3375BB" fill-rule="nonzero" d="M128 256c70.692 0 128-57.308 128-128C256 57.308 198.692 0 128 0 57.308 0 0 57.308 0 128c0 70.692 57.308 128 128 128Z"/><path fill="#FFF" d="M122.835 207.29c1.721.855 3.444 1.71 5.165 1.71s3.443 0 4.304-.855c7.746-5.126 13.771-8.543 19.797-11.961 32.708-17.942 42.177-27.34 43.899-115.34 0-2.562-.862-4.271-2.583-5.98-1.721-1.709-3.443-2.563-6.025-2.563h-1.721c-8.608 0-31.848 0-52.507-15.379-2.582-2.563-6.885-2.563-10.329 0-20.658 15.379-43.898 15.379-52.506 15.379h-1.721c-1.722 0-4.304.854-6.026 1.709C60.861 75.718 60 77.427 60 79.99c.86 88 10.33 97.398 43.038 115.34a358.89 358.89 0 0 0 4.035 2.242c4.979 2.739 10.37 5.706 15.762 9.719Zm-11.594-25.825C86.433 167.059 78.719 162.579 77 89.372c12.069-.854 33.62-3.416 50.862-15.372 18.966 12.81 37.07 14.518 49.138 15.372-1.724 73.445-8.621 77.715-34.482 92.234a310.29 310.29 0 0 0-5.173 3.172c-3.11 1.933-6.557 4.077-10.345 6.222-3.952-2.61-8.406-5.22-12.21-7.449-1.176-.689-2.29-1.34-3.307-1.945l-.242-.141Z"/></g></svg>