<svg xmlns="http://www.w3.org/2000/svg" viewBox="0 0 200 200"><path fill="#3375BB" d="M100 175c41.421 0 75-33.579 75-75s-33.579-75-75-75-75 33.579-75 75 33.579 75 75 75"/><path fill="#fff" fill-rule="evenodd" d="M96.974 146.459c1.008.501 2.018 1.002 3.026 1.002s2.017 0 2.522-.501c4.539-3.003 8.069-5.006 11.6-7.008 19.165-10.513 24.713-16.02 25.722-67.582 0-1.502-.505-2.503-1.514-3.504-1.008-1.002-2.017-1.502-3.53-1.502h-1.008c-5.044 0-18.661 0-30.766-9.011-1.513-1.502-4.034-1.502-6.052 0-12.105 9.011-25.722 9.011-30.766 9.011H65.2c-1.009 0-2.522.5-3.53 1.001-1.01 1.001-1.514 2.003-1.514 3.504.504 51.563 6.053 57.069 25.218 67.582q1.177.665 2.364 1.314c2.918 1.605 6.076 3.343 9.236 5.695zm-6.794-15.132c-14.536-8.441-19.056-11.066-20.063-53.96 7.072-.5 19.7-2.002 29.802-9.008 11.113 7.506 21.721 8.507 28.792 9.008-1.01 43.034-5.051 45.536-20.204 54.043q-1.525.915-3.031 1.859c-1.823 1.132-3.842 2.388-6.062 3.645-2.316-1.529-4.925-3.058-7.154-4.364-.69-.404-1.342-.786-1.938-1.14z" clip-rule="evenodd"/></svg>