<svg width="200" height="200" fill="none" xmlns="http://www.w3.org/2000/svg"><path d="M100 175c41.421 0 75-33.579 75-75s-33.579-75-75-75-75 33.579-75 75 33.579 75 75 75Z" fill="#54CF70"/><path d="M108.59 140.848c-2.951.872-5.893 1.314-8.746 1.314h-.415c-2.872 0-5.833-.447-8.803-1.331a2.629 2.629 0 0 0-2.404 4.558c.268.218.576.38.907.478 3.456 1.028 6.92 1.55 10.3 1.55h.415c3.358 0 6.801-.515 10.235-1.53a2.625 2.625 0 0 0 1.749-3.257 2.627 2.627 0 0 0-3.238-1.782" fill="#fff"/><mask id="a" style="mask-type:alpha" maskUnits="userSpaceOnUse" x="66" y="52" width="68" height="81"><path d="M66.016 52.967h67.181v79.705H66.016V52.967Z" fill="#fff"/></mask><g mask="url(#a)"><path d="M123.849 105.365c-2.05 4.666-4.701 8.851-7.64 12.296 2.124-8.335 1.1-19.099-3.496-29.551-2.401-5.461-5.585-10.375-9.283-14.38 5.784-4.674 11.807-6.198 16.461-4.047 2.982 1.377 5.283 4.198 6.652 8.16 2.594 7.5 1.588 17.788-2.694 27.523m-48.488 0c-4.28-9.734-5.288-20.024-2.693-27.523 1.37-3.962 3.67-6.783 6.652-8.16 4.654-2.152 10.677-.627 16.46 4.046-3.696 4.006-6.88 8.92-9.28 14.38-4.597 10.453-5.62 21.216-3.499 29.551-2.938-3.445-5.588-7.63-7.64-12.294m28.583 21.088a10.594 10.594 0 0 1-4.338.961 10.6 10.6 0 0 1-4.34-.961c-8.962-4.14-10.774-20.731-3.957-36.23 2.161-4.917 5.003-9.33 8.29-12.9 3.292 3.574 6.14 7.98 8.304 12.902 6.816 15.497 5.003 32.088-3.959 36.228Zm12.169-62.956c-5.311-.221-11.097 2.05-16.505 6.577-5.41-4.528-11.198-6.802-16.51-6.582a28.312 28.312 0 0 1 16.505-5.272 28.316 28.316 0 0 1 16.51 5.277m15.418 12.697-.004-.016-.011-.03-.007-.025c-.006-.019-.015-.035-.021-.053-4.485-13.822-17.282-23.103-31.885-23.103-14.643 0-27.472 9.328-31.924 23.212-.006.021-.008.046-.014.069-2.965 8.705-1.89 20.368 2.886 31.233 6.537 14.864 18.399 25.19 28.904 25.19l.15-.001.15.001c10.505-.001 22.367-10.326 28.904-25.19 4.787-10.887 5.858-22.574 2.871-31.287" fill="#fff"/></g></svg>