<svg xmlns="http://www.w3.org/2000/svg" xmlns:xlink="http://www.w3.org/1999/xlink" width="256" height="256"><defs><path id="a" d="M0 .214h114.656v136.03H0z"/></defs><g fill="none" fill-rule="evenodd"><circle cx="128" cy="128" r="128" fill="#54CF70"/><path fill="#FFF" fill-rule="nonzero" d="M142.66 197.713c-5.036 1.489-10.057 2.244-14.926 2.244h-.709c-4.901 0-9.955-.764-15.023-2.272a4.487 4.487 0 0 0-5.576 3.02 4.482 4.482 0 0 0 3.02 5.575c5.899 1.754 11.812 2.644 17.58 2.644h.708c5.73 0 11.606-.879 17.467-2.611a4.484 4.484 0 0 0-2.541-8.6"/><g transform="translate(70 47.517)"><mask id="b" fill="#fff"><use xlink:href="#a"/></mask><path fill="#FFF" fill-rule="nonzero" d="M98.703 89.64c-3.5 7.963-8.024 15.105-13.04 20.985 3.625-14.225 1.878-32.595-5.967-50.434-4.097-9.32-9.531-17.706-15.842-24.543 9.872-7.975 20.15-10.577 28.093-6.906 5.09 2.351 9.016 7.166 11.353 13.926 4.427 12.8 2.71 30.36-4.597 46.973m-82.753 0c-7.306-16.613-9.025-34.174-4.597-46.973 2.339-6.76 6.265-11.575 11.353-13.926 7.943-3.673 18.222-1.069 28.093 6.906-6.309 6.837-11.743 15.223-15.84 24.541-7.845 17.84-9.592 36.21-5.97 50.434-5.014-5.88-9.537-13.022-13.04-20.982m48.782 35.991c-2.276 1.053-4.77 1.606-7.404 1.64-2.636-.034-5.127-.587-7.406-1.64-15.295-7.066-18.388-35.382-6.754-61.833 3.689-8.391 8.538-15.922 14.15-22.017 5.617 6.1 10.478 13.62 14.171 22.02 11.632 26.448 8.538 54.764-6.757 61.83M85.5 18.186c-9.064-.377-18.94 3.499-28.17 11.225-9.232-7.728-19.11-11.609-28.175-11.232 7.996-5.716 17.76-8.998 28.167-8.998 10.412 0 20.18 3.286 28.178 9.005m26.313 21.67c-.004-.01-.004-.02-.007-.027l-.018-.05c-.006-.015-.007-.03-.013-.044-.01-.032-.025-.059-.036-.09C104.085 16.056 82.245.216 57.322.216c-24.99 0-46.885 15.92-54.484 39.614-.01.037-.012.079-.023.118C-2.246 54.805-.411 74.71 7.74 93.252c11.157 25.368 31.401 42.992 49.33 42.992l.256-.002.255.002c17.929-.002 38.173-17.624 49.33-42.992 8.17-18.58 9.998-38.525 4.9-53.396" mask="url(#b)"/></g></g></svg>