<svg width="200" height="200" fill="none" xmlns="http://www.w3.org/2000/svg"><path d="M46.863 65.754c29.346-28.733 76.928-28.733 106.274 0l3.532 3.458a3.628 3.628 0 0 1 .814 4.013 3.628 3.628 0 0 1-.814 1.19l-12.082 11.829a1.907 1.907 0 0 1-2.657 0l-4.86-4.759c-20.473-20.045-53.667-20.045-74.14 0l-5.205 5.097a1.907 1.907 0 0 1-2.657 0l-12.081-11.83a3.626 3.626 0 0 1 0-5.202l3.876-3.796Zm131.261 24.464 10.753 10.528a3.626 3.626 0 0 1 0 5.202l-48.486 47.474a3.816 3.816 0 0 1-5.314 0l-34.412-33.693a.953.953 0 0 0-1.329 0l-34.412 33.693a3.814 3.814 0 0 1-5.314 0l-48.487-47.474a3.623 3.623 0 0 1 0-5.202l10.753-10.528a3.815 3.815 0 0 1 5.314 0l34.413 33.693a.957.957 0 0 0 1.328 0l34.411-33.693a3.815 3.815 0 0 1 5.314 0l34.413 33.693a.952.952 0 0 0 1.328 0l34.413-33.693a3.815 3.815 0 0 1 5.314 0Z" fill="#3B99FC"/></svg>