<svg xmlns="http://www.w3.org/2000/svg" viewBox="0 0 200 200"><g clip-path="url(#a)"><path fill="#FAD228" d="M73.509 103.755h6.053c.483 0 .702-.368.518-.851L69.962 78.759a1.15 1.15 0 0 0-1.196-.76h-8.388a1.15 1.15 0 0 0-1.15.771l-11.285 26.888c-.184.483.035.851.477.851h7.876a.81.81 0 0 1 .671.355.82.82 0 0 1 .088.754l-5.576 14.258 17.563-18.759a.577.577 0 0 0-.091-.871.6.6 0 0 0-.312-.101h-9.928a.81.81 0 0 1-.695-.366.82.82 0 0 1-.064-.783l2.909-7.422 3.944-10.044 3.898 10.067h-4.335a.82.82 0 0 0-.759.517l-1.627 4.15a.815.815 0 0 0 .759 1.11h7.623a.82.82 0 0 1 .765.524l1.195 3.081a1.1 1.1 0 0 0 1.185.776m36.017 0h21.513a.74.74 0 0 0 .614-.204.74.74 0 0 0 .225-.606v-4.306a.745.745 0 0 0-.513-.781.75.75 0 0 0-.332-.03h-14.947V78.81a.78.78 0 0 0-.88-.81h-5.703a.747.747 0 0 0-.845.81v24.146a.747.747 0 0 0 .868.799m26.077 0h24.146a.74.74 0 0 0 .638-.188.75.75 0 0 0 .236-.622v-4.306a.754.754 0 0 0-.845-.811h-17.586v-4.231h14.711a.763.763 0 0 0 .851-.805v-4.024a.77.77 0 0 0-.52-.776.8.8 0 0 0-.331-.035h-14.711v-4.024h17.586a.747.747 0 0 0 .845-.822v-4.3a.76.76 0 0 0-.227-.61.75.75 0 0 0-.618-.201h-24.146a.746.746 0 0 0-.88.81v24.146a.8.8 0 0 0 .048.329.76.76 0 0 0 .472.443c.107.034.22.043.331.027M51.272 78h-5.853a.984.984 0 0 0-1.063.81L39.94 97.72l-4.12-18.91a.95.95 0 0 0-1.03-.81h-7.324a.984.984 0 0 0-1.063.81L22.28 97.72l-4.416-18.91a.95.95 0 0 0-1.029-.81h-6.18c-.517 0-.736.293-.626.81l6.255 24.146a.964.964 0 0 0 1.029.811h9.014a.95.95 0 0 0 1.029-.811l3.605-16.275 3.645 16.264a.95.95 0 0 0 1.029.81h8.974a.955.955 0 0 0 1.035-.81l6.249-24.146c.115-.506-.11-.8-.621-.8Zm137.883 0h-25.02a.748.748 0 0 0-.845.81v4.3a.76.76 0 0 0 .227.61.75.75 0 0 0 .618.201h8.791v19.024a.75.75 0 0 0 .228.612.75.75 0 0 0 .622.198h5.749a.766.766 0 0 0 .845-.81V83.921h8.796a.75.75 0 0 0 .802-.48.74.74 0 0 0 .043-.33v-4.3a.745.745 0 0 0-.52-.786.75.75 0 0 0-.336-.025M83.449 103.755h21.512a.747.747 0 0 0 .845-.81v-4.306a.744.744 0 0 0-.845-.811H90.014V78.81a.776.776 0 0 0-.862-.81h-5.703a.748.748 0 0 0-.845.81v24.146a.746.746 0 0 0 .845.799m-2.208 5.519h-6.629c-1.799 0-2.604.753-2.604 2.507v5.961c0 1.754.805 2.507 2.605 2.507h6.628c1.817 0 2.593-.753 2.593-2.507v-5.961c0-1.754-.776-2.507-2.593-2.507m-.575 7.445c0 .851-.167 1.006-1.19 1.006h-3.168c-1.011 0-1.195-.155-1.195-1.006v-3.915c0-.845.184-1.006 1.195-1.006h3.168c1.023 0 1.19.161 1.19 1.006zm29.82-3.214h-5.03c-.512 0-.667-.155-.667-.546v-.609c0-.391.155-.575.667-.575h3.851c.374 0 .512.161.512.489v.092a.31.31 0 0 0 .216.331.3.3 0 0 0 .141.014h2.299a.32.32 0 0 0 .339-.205.3.3 0 0 0 .018-.14v-.621c0-1.846-.639-2.461-2.53-2.461h-6.019c-1.834 0-2.593.753-2.593 2.507v1.632c0 1.76.759 2.507 2.593 2.507h5.024c.518 0 .673.161.673.575v.707c0 .391-.155.546-.673.546h-4.219c-.357 0-.495-.155-.495-.489v-.092a.32.32 0 0 0-.097-.256.3.3 0 0 0-.12-.073.3.3 0 0 0-.139-.015h-2.3a.31.31 0 0 0-.338.204.3.3 0 0 0-.018.14v.644c0 1.852.621 2.461 2.529 2.461h6.439c1.834 0 2.593-.753 2.593-2.507v-1.724c-.034-1.783-.811-2.536-2.627-2.536zm49.113 0h-5.03c-.512 0-.667-.155-.667-.546v-.609c0-.391.155-.575.667-.575h3.852c.368 0 .512.161.512.489v.092a.32.32 0 0 0 .094.258.32.32 0 0 0 .262.087h2.3a.32.32 0 0 0 .261-.087.3.3 0 0 0 .077-.118.3.3 0 0 0 .018-.14v-.621c0-1.846-.638-2.461-2.53-2.461h-6.024c-1.834 0-2.593.753-2.593 2.507v1.632c0 1.76.759 2.507 2.593 2.507h5.024c.512 0 .667.161.667.575v.707c0 .391-.155.546-.667.546h-4.22c-.356 0-.494-.155-.494-.489v-.092a.327.327 0 0 0-.356-.344h-2.329a.3.3 0 0 0-.261.086.31.31 0 0 0-.095.258v.644c0 1.852.621 2.461 2.529 2.461h6.439c1.828 0 2.593-.753 2.593-2.507v-1.724c0-1.783-.765-2.536-2.593-2.536zm15.321-4.231h-2.42a.323.323 0 0 0-.362.345v3.829h-5.289v-3.829a.33.33 0 0 0-.23-.333.3.3 0 0 0-.144-.012h-2.403a.32.32 0 0 0-.262.086.32.32 0 0 0-.094.259v10.285a.32.32 0 0 0 .094.259.32.32 0 0 0 .262.086h2.403a.3.3 0 0 0 .144-.012.32.32 0 0 0 .207-.191.3.3 0 0 0 .023-.142v-3.932h5.289v3.932a.323.323 0 0 0 .362.345h2.42a.32.32 0 0 0 .262-.086.31.31 0 0 0 .095-.259v-10.285a.3.3 0 0 0-.016-.133.32.32 0 0 0-.312-.212zm-79.117 0H85.99a.32.32 0 0 0-.262.086.32.32 0 0 0-.095.259v10.285a.316.316 0 0 0 .357.345h2.409a.33.33 0 0 0 .266-.086.33.33 0 0 0 .107-.259v-3.748h5.835a.33.33 0 0 0 .265-.086.34.34 0 0 0 .103-.259v-1.834a.33.33 0 0 0-.368-.345h-5.846v-1.834h7.07a.32.32 0 0 0 .263-.086.32.32 0 0 0 .094-.259v-1.834a.317.317 0 0 0-.356-.345zm84.205 0h-2.403a.32.32 0 0 0-.262.086.32.32 0 0 0-.094.259v10.285a.32.32 0 0 0 .094.259.32.32 0 0 0 .262.086h2.403a.3.3 0 0 0 .144-.012.32.32 0 0 0 .207-.191.3.3 0 0 0 .023-.142v-10.285a.32.32 0 0 0-.096-.249.32.32 0 0 0-.249-.096zm-57.65.345a.48.48 0 0 0-.495-.328h-3.541a.48.48 0 0 0-.512.328l-4.266 10.285c-.08.207 0 .362.219.362h2.558a.456.456 0 0 0 .495-.328l.575-1.54h5.231l.575 1.54a.46.46 0 0 0 .5.328h2.696c.19 0 .282-.155.202-.362zm-4.025 6.324 1.662-4.323 1.679 4.323zm17.765-6.669h-10.544a.32.32 0 0 0-.262.086.32.32 0 0 0-.094.259v1.834a.32.32 0 0 0 .094.259.32.32 0 0 0 .262.086h3.708v8.106a.314.314 0 0 0 .357.345h2.42a.33.33 0 0 0 .259-.089.31.31 0 0 0 .097-.256v-8.106h3.714a.32.32 0 0 0 .262-.086.33.33 0 0 0 .095-.259v-1.834a.314.314 0 0 0-.224-.336.3.3 0 0 0-.144-.009m10.612 0h-6.623c-1.799 0-2.61.753-2.61 2.507v5.961c0 1.754.811 2.507 2.61 2.507h6.623c1.817 0 2.593-.753 2.593-2.507v-5.961c0-1.754-.753-2.507-2.593-2.507m-.54 7.445c0 .851-.173 1.006-1.196 1.006h-3.168c-1.006 0-1.19-.155-1.19-1.006v-3.915c0-.845.184-1.006 1.19-1.006h3.168c1.023 0 1.196.161 1.196 1.006z"/></g><defs><clipPath id="a"><path fill="#fff" d="M10 78h180v43.876H10z"/></clipPath></defs></svg>