<svg xmlns="http://www.w3.org/2000/svg" width="256" height="256"><defs><linearGradient id="a" x1="49.999%" x2="49.999%" y1="85.215%" y2="-21.429%"><stop offset="0%" stop-color="#8BC53F"/><stop offset="17%" stop-color="#91BF3E"/><stop offset="40%" stop-color="#A2AF3C"/><stop offset="66%" stop-color="#BD9538"/><stop offset="95%" stop-color="#E47133"/><stop offset="97%" stop-color="#E76E33"/></linearGradient></defs><g fill="none" fill-rule="evenodd"><circle cx="128" cy="128" r="128" fill="#211A23"/><path fill="url(#a)" fill-rule="nonzero" d="m208.618 86.897-.273-1.36-1.092-1.084C188.93 66.79 159.933 60 135.18 60l-.138 23.093c-5.06-.137-9.708-.137-14.084 0L120.82 60c-24.752 0-53.75 6.79-72.073 24.453l-1.092 1.085-.273 1.36c-6.84 26.755 3.145 85.45 60.45 120.095-59.5-55.834-52.402-106.917-50.611-116.02 16.413-14.945 42.396-19.562 53.2-20.249l-.135 13.042c-14.36 1.63-29.543 5.568-41.577 14.264-2.723 19.843 5.605 42.936 17.661 62.635 9.574 15.909 21.608 28.528 35.422 40.756l6.199-67.4-17.836 41.316c-10.939-12.77-30.497-39.805-31.181-71.323 14.771-7.47 31.454-9.78 47.867-9.918 16.686-.134 35.148 2.31 50.192 9.918-.684 31.518-20.242 58.553-31.18 71.323l-17.837-41.316 6.203 67.396c13.814-12.228 25.844-24.861 35.422-40.756 12.034-19.698 20.384-42.792 17.643-62.627-11.9-8.703-27.217-12.225-41.58-13.99l-.135-13.313c10.803.68 36.786 5.297 53.2 20.248 1.78 9.105 8.888 60.184-50.598 116.021 57.302-34.653 67.287-93.34 60.447-120.103Z"/></g></svg>