<svg xmlns="http://www.w3.org/2000/svg" viewBox="0 0 200 200"><path fill="#211A23" d="M100 175c41.421 0 75-33.579 75-75s-33.579-75-75-75-75 33.579-75 75 33.579 75 75 75"/><path fill="url(#a)" d="m147.237 75.916-.16-.797-.64-.635c-10.736-10.35-27.726-14.328-42.23-14.328l-.081 13.531c-2.965-.08-5.688-.08-8.252 0l-.08-13.53c-14.504 0-31.495 3.978-42.231 14.327l-.64.636-.16.797c-4.008 15.677 1.843 50.068 35.42 70.368-34.863-32.715-30.704-62.647-29.655-67.98C68.145 69.547 83.369 66.842 89.7 66.44l-.08 7.642c-8.413.955-17.31 3.262-24.36 8.358-1.596 11.626 3.283 25.157 10.347 36.7 5.61 9.321 12.662 16.715 20.756 23.88l3.632-39.492-10.45 24.209c-6.41-7.483-17.87-23.324-18.271-41.791 8.655-4.377 18.43-5.73 28.047-5.812 9.777-.078 20.595 1.354 29.409 5.812-.4 18.467-11.86 34.308-18.269 41.791l-10.452-24.209 3.635 39.49c8.094-7.165 15.143-14.567 20.755-23.881 7.051-11.541 11.944-25.073 10.338-36.695-6.973-5.1-15.948-7.163-24.363-8.197l-.08-7.801c6.33.398 21.555 3.104 31.172 11.864 1.043 5.335 5.208 35.264-29.647 67.981 33.575-20.304 39.426-54.691 35.418-70.373"/><defs><linearGradient id="a" x1="99.999" x2="99.999" y1="133.554" y2="41.699" gradientUnits="userSpaceOnUse"><stop stop-color="#8BC53F"/><stop offset=".17" stop-color="#91BF3E"/><stop offset=".4" stop-color="#A2AF3C"/><stop offset=".66" stop-color="#BD9538"/><stop offset=".95" stop-color="#E47133"/><stop offset=".97" stop-color="#E76E33"/></linearGradient></defs></svg>