<svg xmlns="http://www.w3.org/2000/svg" width="256" height="256"><g fill="none"><path fill="#E63F0C" d="M221.082 34.528C212.73 26.176 201.783 22 190.836 22s-21.893 4.176-30.245 12.528l-32.786 32.786v.002L95.019 34.528C86.664 26.176 75.717 22 64.773 22c-10.947 0-21.893 4.176-30.245 12.528-16.704 16.703-16.704 43.787 0 60.488l32.786 32.789 15.247-15.248-32.786-32.786a21.07 21.07 0 0 1-6.213-14.998 21.078 21.078 0 0 1 6.211-14.998 21.08 21.08 0 0 1 15-6.213 21.07 21.07 0 0 1 14.998 6.213l48.034 48.031 48.033-48.03a21.072 21.072 0 0 1 14.998-6.214 21.07 21.07 0 0 1 14.998 6.213 21.07 21.07 0 0 1 6.214 14.998 21.07 21.07 0 0 1-6.214 14.998l-78.03 78.03 15.246 15.245 78.032-78.03c16.704-16.701 16.704-43.785 0-60.488Z"/><path fill="#E63F0C" d="m127.805 157.801-29.996-29.996-15.248 15.245 29.996 29.996z"/><path fill="#F48026" d="M34.528 221.08c8.352 8.351 19.298 12.53 30.245 12.53 10.944 0 21.891-4.179 30.246-12.53l32.786-32.787 32.786 32.787c8.352 8.351 19.3 12.53 30.245 12.53 10.947 0 21.894-4.179 30.246-12.53 16.704-16.704 16.704-43.788 0-60.489l-32.789-32.786-15.247 15.245 32.788 32.788a21.063 21.063 0 0 1 6.214 14.998 21.061 21.061 0 0 1-6.214 14.996 21.073 21.073 0 0 1-14.998 6.216 21.082 21.082 0 0 1-14.998-6.214l-48.033-48.033-48.034 48.033a21.08 21.08 0 0 1-14.998 6.214c-5.665 0-10.991-2.21-15-6.216a21.069 21.069 0 0 1-6.211-14.996 21.063 21.063 0 0 1 6.213-14.998l78.03-78.032-15.248-15.245-78.03 78.03c-16.703 16.701-16.703 43.785 0 60.489Z"/><path fill="#F48026" d="m127.805 97.806 29.996 29.999 15.245-15.248-29.996-29.996z"/></g></svg>