<svg width="200" height="200" fill="none" xmlns="http://www.w3.org/2000/svg"><path d="M166.12 33.88c-5.921-5.92-13.68-8.88-21.44-8.88-7.76 0-15.519 2.96-21.439 8.88L100 57.12v.002L76.76 33.88C70.837 27.96 63.078 25 55.32 25c-7.76 0-15.519 2.96-21.44 8.88-11.84 11.84-11.84 31.039 0 42.877L57.122 100 67.93 89.191l-23.24-23.24a14.935 14.935 0 0 1-4.404-10.631 14.94 14.94 0 0 1 4.402-10.632 14.943 14.943 0 0 1 10.633-4.404 14.937 14.937 0 0 1 10.631 4.404L100 78.735l34.048-34.046a14.94 14.94 0 0 1 10.632-4.405 14.939 14.939 0 0 1 10.631 4.404 14.933 14.933 0 0 1 4.405 10.632 14.942 14.942 0 0 1-4.405 10.631l-55.312 55.312 10.808 10.806 55.313-55.311c11.84-11.84 11.84-31.038 0-42.877Z" fill="#E63F0C"/><path d="M100 121.263 78.737 100 67.93 110.806l21.263 21.263L100 121.263Z" fill="#E63F0C"/><path d="M33.88 166.118c5.921 5.92 13.68 8.882 21.44 8.882a30.236 30.236 0 0 0 21.44-8.882L100 142.877l23.241 23.241c5.92 5.92 13.68 8.882 21.439 8.882a30.23 30.23 0 0 0 21.44-8.882c11.84-11.841 11.84-31.039 0-42.878L142.877 100l-10.808 10.806 23.242 23.242a14.942 14.942 0 0 1 4.405 10.632 14.94 14.94 0 0 1-4.405 10.63 14.945 14.945 0 0 1-10.631 4.406 14.945 14.945 0 0 1-10.632-4.405L100 121.263l-34.049 34.048a14.95 14.95 0 0 1-10.631 4.405 14.95 14.95 0 0 1-10.633-4.406 14.946 14.946 0 0 1-4.403-10.63 14.926 14.926 0 0 1 4.404-10.632L100 78.735 89.192 67.93 33.88 123.24c-11.84 11.839-11.84 31.037 0 42.878Z" fill="#F48026"/><path d="M100 78.735 121.263 100l10.806-10.809-21.262-21.262L100 78.735Z" fill="#F48026"/></svg>