<svg xmlns="http://www.w3.org/2000/svg" width="256" height="256"><g fill="none" fill-rule="evenodd"><circle cx="128" cy="128" r="128" fill="#242633"/><g fill-rule="nonzero"><path fill="#FFF" d="M165.13 95.979c17.376-.018 31.968 13.11 33.723 30.41 1.756 17.315-9.924 33.108-26.967 36.555-1.582.32-3.117-.74-3.428-2.365-.311-1.625.719-3.203 2.3-3.523 14.114-2.854 23.728-15.853 22.288-30.045-1.44-14.205-13.492-25.047-27.912-25.032h-7.798c-1.322 0-2.48-.914-2.82-2.228C149.215 79.31 130.667 65 109.403 65S69.591 79.309 64.29 99.751c-5.294 20.415 3.952 41.822 22.518 52.058 1.42.783 1.954 2.602 1.192 4.062-.762 1.46-2.531 2.008-3.952 1.225-20.933-11.54-31.395-35.766-25.399-58.89C64.64 75.11 85.52 59 109.403 59c23.107 0 43.405 15.08 50.124 36.979h5.604Z"/><path fill="#FD9800" d="M112.432 164c-2.347 0-3.734-2.704-2.408-4.695l24.649-37c.91-1.367 2.727-1.716 4.057-.78 1.33.936 1.67 2.803.76 4.17L117.969 158h31.436c2.348 0 3.735 2.704 2.409 4.695l-24.649 37c-.91 1.367-2.727 1.716-4.057.78-1.33-.936-1.67-2.803-.76-4.17L143.87 164h-31.437Z"/></g></g></svg>