<svg width="200" height="200" fill="none" xmlns="http://www.w3.org/2000/svg"><path d="M100 175c41.421 0 75-33.579 75-75s-33.579-75-75-75-75 33.579-75 75 33.579 75 75 75Z" fill="#242633"/><path d="M121.756 81.238c10.181-.01 18.731 7.681 19.759 17.818 1.029 10.146-5.814 19.399-15.801 21.419-.927.188-1.826-.434-2.008-1.386-.182-.952.421-1.877 1.347-2.064 8.27-1.672 13.904-9.289 13.06-17.605-.844-8.323-7.906-14.675-16.355-14.667h-4.569a1.718 1.718 0 0 1-1.652-1.305c-3.106-11.977-13.974-20.362-26.434-20.362S65.776 71.47 62.67 83.448c-3.102 11.962 2.316 24.505 13.194 30.503.832.458 1.145 1.524.698 2.38a1.687 1.687 0 0 1-2.315.717C61.98 110.287 55.85 96.092 59.365 82.543 62.875 69.01 75.109 59.57 89.103 59.57c13.54 0 25.433 8.836 29.37 21.668h3.283Z" fill="#fff"/><path d="M90.878 121.094c-1.375 0-2.188-1.585-1.411-2.751l14.443-21.68a1.681 1.681 0 0 1 2.377-.457c.779.548.978 1.642.445 2.443l-12.61 18.929h18.42c1.376 0 2.188 1.585 1.411 2.751l-14.443 21.68a1.681 1.681 0 0 1-2.377.457 1.79 1.79 0 0 1-.445-2.444l12.611-18.928H90.878Z" fill="#FD9800"/></svg>