<svg width="200" height="200" fill="none" xmlns="http://www.w3.org/2000/svg"><path d="M99.943 174.858c41.374 0 74.915-33.541 74.915-74.915 0-41.374-33.541-74.914-74.915-74.914-41.374 0-74.914 33.54-74.914 74.914s33.54 74.915 74.914 74.915Z" fill="#232220"/><path fill-rule="evenodd" clip-rule="evenodd" d="M43.736 97.793 66.54 84.587l22.73 13.207v26.415l-22.73 13.207-22.805-13.207V97.793Zm66.957 0 22.806-13.207 22.729 13.207v26.415l-22.729 13.207-22.806-13.207V97.793Z" fill="#fff"/><path fill-rule="evenodd" clip-rule="evenodd" d="m71.148 74.681 28.795-16.816 28.872 16.816v9.445l-20.656 11.978v24.188l-8.216 4.76-8.14-4.76V96.104L71.149 84.126V74.68Z" fill="#fff"/></svg>