<svg width="200" height="200" fill="none" xmlns="http://www.w3.org/2000/svg"><path fill-rule="evenodd" clip-rule="evenodd" d="M136.704 25.025a25.106 25.106 0 0 1 26.147 23.144 27.97 27.97 0 0 1-.22 6.655 65.043 65.043 0 0 1-20.663 36.365 76.31 76.31 0 0 1-27.184 15.717l-.171.057c-4.244 1.739-6.007-1.126-3.395-4.488 6.728-8.638 17.137-26.874 4.007-35.006-7.777-4.815-20.655 1.424-28.608 3.575-10.43 2.81-21.426 5.492-32.235 3.219a25.155 25.155 0 0 1-19.178-27.681 25.323 25.323 0 0 1 25.299-21.565h76.201v.008ZM37.644 151.83a28.28 28.28 0 0 1 .212-6.655 65.104 65.104 0 0 1 20.68-36.372 76.292 76.292 0 0 1 27.163-15.722l.171-.057c4.244-1.739 6.007 1.126 3.395 4.488-6.728 8.638-17.137 26.874-4.007 35.006 7.778 4.815 20.655-1.424 28.608-3.575 10.429-2.811 21.43-5.492 32.235-3.219a24.943 24.943 0 0 1 19.217 27.4 24.94 24.94 0 0 1-25.35 21.85H63.783a25.106 25.106 0 0 1-26.147-23.144h.008Z" fill="url(#a)"/><defs><linearGradient id="a" x1="53.924" y1="25" x2="220.19" y2="219.049" gradientUnits="userSpaceOnUse"><stop stop-color="#4FF4BA"/><stop offset="1" stop-color="#38ABD5"/></linearGradient></defs></svg>