<svg xmlns="http://www.w3.org/2000/svg" width="40" height="40"><defs><linearGradient id="a" x1="14.5%" x2="122%" y1="0%" y2="144.2%"><stop offset="0%" stop-color="#4FF4BA"/><stop offset="100%" stop-color="#38ABD5"/></linearGradient></defs><g fill="none" fill-rule="evenodd"><path d="M11.392 0h17.216c3.961 0 5.4.412 6.846 1.187a8.075 8.075 0 0 1 3.359 3.36C39.588 5.993 40 7.43 40 11.391v17.216c0 3.961-.412 5.4-1.187 6.846a8.075 8.075 0 0 1-3.36 3.359C34.007 39.588 32.57 40 28.609 40H11.392c-3.961 0-5.4-.412-6.846-1.187a8.075 8.075 0 0 1-3.359-3.36C.412 34.007 0 32.57 0 28.609V11.392c0-3.961.412-5.4 1.187-6.846a8.075 8.075 0 0 1 3.36-3.359C5.993.412 7.43 0 11.391 0h.001Z"/><path fill="url(#a)" d="M28.973 1.625a6.153 6.153 0 0 1 6.408 5.672 6.854 6.854 0 0 1-.054 1.631 15.939 15.939 0 0 1-5.064 8.912 18.7 18.7 0 0 1-6.662 3.852l-.042.014c-1.04.426-1.472-.276-.832-1.1 1.649-2.117 4.2-6.586.982-8.579-1.906-1.18-5.062.349-7.011.876-2.556.689-5.251 1.346-7.9.789a6.165 6.165 0 0 1-4.7-6.784 6.206 6.206 0 0 1 6.2-5.285h18.675v.002ZM4.696 32.702a6.932 6.932 0 0 1 .052-1.631 15.956 15.956 0 0 1 5.068-8.914 18.7 18.7 0 0 1 6.657-3.853l.042-.014c1.04-.426 1.472.276.832 1.1-1.649 2.117-4.2 6.586-.982 8.579 1.906 1.18 5.062-.349 7.011-.876 2.556-.689 5.252-1.346 7.9-.789a6.112 6.112 0 0 1-1.503 12.07H11.102a6.154 6.154 0 0 1-6.408-5.672h.002Z"/></g></svg>