<svg xmlns="http://www.w3.org/2000/svg" viewBox="0 0 200 200"><g fill="#FFD93F" clip-path="url(#a)"><path d="M129.698 102.174s5.841-25.867 18.171-42.415L190 58s-20.532 19.265-26.478 29.717l24.589-1.83s-38.808 27.749-51.855 56.002c0 0-2.833-23.254 10.476-41.474zM77.353 69.061s-7.24 3.118-15.548 9.493-12.907 13.604-12.907 13.604 2.519.21 1.714 1.446c-.804 1.237-3.095 3.431-3.095 3.431s4.215 2.753 16.666 8.17c12.453 5.417 14.254 6.358 14.394 5.87.157-.488 5.876.976 5.876.976s-14.9-8.484-22.386-15.173c0 0 1.802-1.567 6.331-3.135 4.53-1.567 6.926-2.003 7.014-2.56.087-.558-1.382-.802-1.382-.802l5.247-1.62s-10.04-.383-20.708 2.021c0 0 5.038-7.995 10.337-12.001 5.299-4.007 7.572-5.07 7.66-5.836.087-.767-1.154-1.237-1.154-1.237s.297-1.498 1.94-2.647ZM42.182 81.915s-6.26 6.76-12.644 16.635c-6.384 9.878-14.709 22.505-12.715 23.778 1.994 1.271 5.142.801 5.142.801s-.42 1.411.507 1.533 7.608-5.504 15.548-8.535c7.94-3.049 14.271-4.756 14.446-5.574.175-.836-2.43-1.324-2.274-1.324.14 0 2.974-.714 3.184-1.637.227-.924-1.837-1.324-4.95-.958-3.113.365-17.07 4.528-17.07 4.528s10.232-18.36 15.916-25.867 7.538-8.97 7.52-10.103c-.017-1.132-4.687-.993-4.687-.993s-.612-1.289-1.294-1.306-18.014.784-30.064 3.135-8.57 2.49-7.258 3.588c1.294 1.115-.717 3.362-.717 3.362s5.911-.244 5.824.976c-.088 1.22-1.924 2.595-1.924 2.595s14.026-3.832 27.51-4.633Zm40.365-11.757s1.994 10.556 2.64 19.77c.648 9.215.036 17.419.508 17.698.455.279 4.495-1.411 9.759-.836 5.264.574 9.164.749 9.602.226.437-.522.017-1.742.017-1.742s1.014.157 1.207-.557c.192-.714-.787-1.48-.787-1.48s0-7.247-.42-16.043c-.402-8.78-3.113-16.478-3.113-16.478s-1.784 29.577-2.291 31.353c0 0-4.862-1.672-8.605-1.341 0 0-2.116-12.001-3.864-20.258-1.75-8.256-2.24-9.894-2.659-9.807-.367.07-.7 1.602-.7 1.602zm62.454 14.492s-13.921-7.855-22.894-9.98c-8.971-2.126-10.668-1.655-9.986-1.15.682.488 2.326 1.428 2.326 1.428s-6.069-.138-5.526.61c.542.75 2.274 6.428 2.239 12.385s-.035 10.033.314 10.19c.35.157 3.446-.105 3.446-.105s-.77 1.202-.035 1.324c.734.123 4.285-.627 8.045-.383s5.491.714 5.491.714.367 8.204-1.959 14.266c0 0-17.664-7.055-18.259-6.288-.594.749.455 2.438.455 2.438l-6.82 2.77s9.304 1.812 16.982 4.86 12.085 5.661 12.802 5.4c.716-.262 1.923-3.571 3.847-13.57 1.924-9.998.839-14.927.088-15.52-1.679-1.306-19.029-.557-19.029-.557s.788-7.072.158-11.34c.017-.017.752-2.647 28.315 2.509Z"/></g><defs><clipPath id="a"><path fill="#fff" d="M10 58h180v83.889H10z"/></clipPath></defs></svg>