<svg width="324" height="151" fill="none" xmlns="http://www.w3.org/2000/svg">
    <path d="M215.456 79.513s10.514-46.56 32.708-76.346L324 0s-36.958 34.677-47.661 53.49l44.261-3.293S250.745 100.144 227.261 151c0 0-5.1-41.857 18.857-74.653l-30.662 3.166Z"
          fill="#FFD93F"/>
    <path d="M121.235 19.91s-13.033 5.612-27.986 17.087C78.296 48.473 70.017 61.485 70.017 61.485s4.533.376 3.085 2.602c-1.448 2.226-5.572 6.177-5.572 6.177s7.587 4.954 30 14.705c22.415 9.75 25.657 11.444 25.909 10.566.283-.878 10.577 1.756 10.577 1.756s-26.821-15.27-40.295-27.31c0 0 3.243-2.821 11.396-5.643 8.154-2.822 12.466-3.606 12.624-4.61.157-1.003-2.487-1.442-2.487-1.442l9.444-2.915s-18.07-.69-37.273 3.637c0 0 9.067-14.392 18.605-21.603 9.539-7.212 13.631-9.124 13.789-10.504.157-1.38-2.078-2.226-2.078-2.226s.535-2.696 3.494-4.766Z"
          fill="#FFD93F"/>
    <path d="M57.928 43.048s-11.27 12.166-22.76 29.943C23.678 90.77 8.693 113.5 12.282 115.79c3.589 2.289 9.255 1.443 9.255 1.443s-.755 2.539.913 2.759c1.669.219 13.694-9.908 27.986-15.364 14.292-5.487 25.688-8.56 26.003-10.033.315-1.505-4.376-2.383-4.093-2.383.252 0 5.352-1.285 5.73-2.947.409-1.662-3.306-2.383-8.91-1.724-5.603.658-30.724 8.151-30.724 8.151s18.416-33.047 28.647-46.56C77.32 35.617 80.657 32.984 80.626 30.946c-.032-2.038-8.437-1.787-8.437-1.787s-1.102-2.32-2.33-2.352c-1.227-.031-32.424 1.411-54.114 5.644C-5.945 36.684.319 36.934 2.68 38.91c2.33 2.006-1.29 6.051-1.29 6.051s10.64-.439 10.483 1.756c-.158 2.195-3.463 4.672-3.463 4.672s25.247-6.898 49.518-8.34Zm72.657-21.163s3.589 19 4.753 35.586c1.165 16.587.063 31.354.913 31.856.819.502 8.091-2.54 17.566-1.505 9.476 1.034 16.496 1.348 17.283.407.787-.94.032-3.135.032-3.135s1.825.282 2.172-1.003c.346-1.286-1.417-2.665-1.417-2.665s0-13.044-.755-28.877c-.724-15.803-5.604-29.66-5.604-29.66s-3.211 53.238-4.124 56.436c0 0-8.751-3.01-15.488-2.414 0 0-3.809-21.603-6.957-36.465-3.148-14.861-4.03-17.809-4.785-17.652-.661.125-1.26 2.884-1.26 2.884l-2.329-3.793Z"
          fill="#FFD93F"/>
    <path d="M243.001 47.971s-25.058-14.14-41.208-17.966c-16.149-3.825-19.203-2.978-17.975-2.069 1.228.878 4.187 2.571 4.187 2.571s-10.924-.25-9.948 1.098c.976 1.348 4.093 11.569 4.03 22.292-.063 10.723-.063 18.06.566 18.342.63.282 6.202-.188 6.202-.188s-1.385 2.163-.063 2.383c1.322.22 7.713-1.129 14.481-.69 6.768.439 9.885 1.285 9.885 1.285s.661 14.768-3.526 25.679c0 0-31.795-12.698-32.866-11.319-1.07 1.349.819 4.39.819 4.39l-12.277 4.985s16.747 3.261 30.567 8.748c13.82 5.487 21.753 10.19 23.044 9.72 1.29-.471 3.462-6.428 6.925-24.425 3.463-17.997 1.511-26.87.158-27.936-3.022-2.352-34.251-1.003-34.251-1.003s1.417-12.73.283-20.412c.032-.031 1.354-4.766 50.967 4.515Z"
          fill="#FFD93F"/>
</svg>