<?xml version="1.0" encoding="UTF-8" standalone="no"?>
<!-- Generator: Gravit.io -->
<svg xmlns="http://www.w3.org/2000/svg" xmlns:xlink="http://www.w3.org/1999/xlink" style="isolation:isolate" viewBox="598.9 365 81.729 82.824" width="81.729pt" height="82.824pt"><defs><clipPath id="_clipPath_Nfg0Ry25dpCsiUUwWsjhQxpQJcQsklYA"><rect x="598.9" y="365" width="81.729" height="82.824"/></clipPath></defs><g clip-path="url(#_clipPath_Nfg0Ry25dpCsiUUwWsjhQxpQJcQsklYA)"><g><path d=" M 639.414 365 L 638.212 365.723 L 624.488 374.035 L 623.418 374.726 L 623.418 389.391 L 612.27 396.128 L 611.16 396.82 L 611.16 411.485 L 600.01 418.221 L 598.9 418.912 L 598.9 438.082 L 599.896 438.774 L 613.622 447.085 L 614.772 447.799 L 615.947 447.097 L 627.377 440.367 L 638.667 447.091 L 639.86 447.801 L 641.051 447.088 L 652.231 440.394 L 662.801 447.06 L 664.015 447.824 L 665.244 447.086 L 679.281 438.775 L 680.629 438.083 L 680.629 418.911 L 679.519 418.22 L 668.37 411.484 L 668.37 396.82 L 667.259 396.128 L 656.111 389.391 L 656.111 374.726 L 654.691 374.036 L 640.75 365.722 L 639.414 365 Z  M 639.764 367.767 L 653.658 376.079 L 653.658 390.743 L 665.918 398.17 L 665.918 412.836 L 678.178 420.263 L 678.178 436.729 L 664.192 445.04 L 652.335 437.614 L 639.891 445.04 L 627.394 437.614 L 614.96 445.04 L 601.352 436.73 L 601.352 420.262 L 613.61 412.835 L 613.61 398.17 L 625.87 390.743 L 625.87 376.079 L 639.763 367.767 L 639.764 367.767 Z " fill-rule="evenodd" fill="rgb(61,61,61)"/><path d=" M 650.39 390.855 L 639.763 397.399 L 629.14 390.854 L 629.14 377.769 L 639.763 371.225 L 650.389 377.768 L 650.39 390.855 Z " fill-rule="evenodd" fill="rgb(89,195,65)"/><path d=" M 650.39 435.038 L 639.763 441.582 L 629.14 435.038 L 629.14 421.953 L 639.763 415.41 L 650.389 421.953 L 650.39 435.038 Z  M 674.908 435.038 L 664.283 441.582 L 653.658 435.038 L 653.658 421.953 L 664.283 415.41 L 674.908 421.953 L 674.908 435.038 Z  M 625.87 435.038 L 614.836 441.582 L 603.804 435.038 L 603.804 421.953 L 614.836 415.41 L 625.87 421.953 L 625.87 435.038 Z  M 638.13 412.948 L 627.505 419.49 L 616.88 412.948 L 616.88 399.861 L 627.505 393.317 L 638.13 399.861 L 638.13 412.948 Z  M 662.649 412.948 L 652.024 419.49 L 641.4 412.948 L 641.4 399.861 L 652.025 393.317 L 662.65 399.861 L 662.65 412.948 L 662.649 412.948 Z " fill-rule="evenodd" fill="rgb(61,61,61)"/></g></g></svg>