<svg xmlns="http://www.w3.org/2000/svg" width="31" height="32" viewBox="0 0 31 32">
  <defs>
    <radialGradient id="amex-a" cx="35.082%" cy="34.932%" r="93.287%" fx="35.082%" fy="34.932%" gradientTransform="matrix(1 0 0 .9632 0 .013)">
      <stop offset="0%" stop-color="#9DD5F6"/>
      <stop offset="7.11%" stop-color="#98D3F5"/>
      <stop offset="15.75%" stop-color="#89CEF3"/>
      <stop offset="25.16%" stop-color="#70C6EF"/>
      <stop offset="35.14%" stop-color="#4EBBEA"/>
      <stop offset="45.46%" stop-color="#23ADE3"/>
      <stop offset="50%" stop-color="#0DA6E0"/>
      <stop offset="100%" stop-color="#2E77BC"/>
    </radialGradient>
  </defs>
  <g fill="none" fill-rule="evenodd" transform="translate(-20 -20)">
    <rect width="70" height="70"/>
    <path fill="url(#amex-a)" fill-rule="nonzero" d="M50.4073771,20.0659347 L20.5330581,20.0659347 L20.5330581,51.2653757 L50.4073771,51.2653757 L50.4073771,40.968764 C50.52605,40.7902554 50.5846448,40.5619098 50.5846448,40.2827349 C50.5846448,39.9632055 50.52605,39.7652913 50.4073771,39.5985803"/>
    <path fill="#FFF" fill-rule="nonzero" d="M23.2258739 33.5664413L22.6511579 32.1091531 22.0797266 33.5664413 23.2258739 33.5664413zM35.8867913 32.9861502C35.7714032 33.0590311 35.6349293 33.0614568 35.4714362 33.0614568L34.4513788 33.0614568 34.4513788 32.2495123 35.4853166 32.2495123C35.6316446 32.2495123 35.78433 32.2563483 35.8835067 32.315447 35.9924315 32.3687019 36.0598208 32.4820477 36.0598208 32.638615 36.0598208 32.7983797 35.9957162 32.9269413 35.8867913 32.9861502zM43.1637726 33.5664413L42.5826992 32.1091531 42.0048044 33.5664413 43.1637726 33.5664413zM29.5990337 35.1438011L28.7382312 35.1438011 28.7350524 32.2808258 27.5174894 35.1438011 26.7802339 35.1438011 25.5594922 32.2782898 25.5594922 35.1438011 23.8516617 35.1438011 23.5290197 34.3284386 21.7807132 34.3284386 21.4547865 35.1438011 20.5428063 35.1438011 22.0464558 31.4882868 23.2940049 31.4882868 24.7221064 34.9493049 24.7221064 31.4882868 26.0925667 31.4882868 27.1914568 33.9681134 28.2009183 31.4882868 29.5989277 31.4882868 29.5989277 35.1438011 29.5990337 35.1438011zM33.0298467 35.1438011L30.2248215 35.1438011 30.2248215 31.4882868 33.0298467 31.4882868 33.0298467 32.2495123 31.0645383 32.2495123 31.0645383 32.9084178 32.9826954 32.9084178 32.9826954 33.6577354 31.0645383 33.6577354 31.0645383 34.3877578 33.0298467 34.3877578 33.0298467 35.1438011 33.0298467 35.1438011zM36.9848337 32.472786C36.9848337 33.0556131 36.6110141 33.3567294 36.3931644 33.4471415 36.5768955 33.5199122 36.7338194 33.6484737 36.8085197 33.7549835 36.9270867 33.9368 36.9475365 34.0992109 36.9475365 34.4256867L36.9475365 35.1438011 36.1006145 35.1438011 36.0974358 34.6828098C36.0974358 34.4628439 36.1176738 34.1465119 35.9648823 33.9706494 35.8421831 33.8420878 35.6551673 33.8141924 35.3528692 33.8141924L34.4514848 33.8141924 34.4514848 35.1438011 33.6118738 35.1438011 33.6118738 31.4882868 35.5431696 31.4882868C35.9722994 31.4882868 36.2884781 31.5000845 36.5599424 31.6633775 36.8255789 31.8266705 36.9848337 32.0650496 36.9848337 32.472786zM38.3285927 35.1438011L37.4718165 35.1438011 37.4718165 31.4882868 38.3285927 31.4882868 38.3285927 35.1438011zM48.2682977 35.1438011L47.0783897 35.1438011 45.486795 32.4001256 45.486795 35.1438011 43.7767394 35.1438011 43.4499651 34.3284386 41.705685 34.3284386 41.3886588 35.1438011 40.4061105 35.1438011C39.9979605 35.1438011 39.4812035 35.0498608 39.1885476 34.7394828 38.8934546 34.4291047 38.7399215 34.0086886 38.7399215 33.3439394 38.7399215 32.8017977 38.8316811 32.3061852 39.1925739 31.9145466 39.4640382 31.6228023 39.8891417 31.4882868 40.4677781 31.4882868L41.2806876 31.4882868 41.2806876 32.271564 40.4848373 32.271564C40.1784069 32.271564 40.0053776 32.3189752 39.8387057 32.488112 39.6955565 32.642033 39.5973333 32.9330055 39.5973333 33.3161542 39.5973333 33.7077928 39.6721397 33.9901652 39.8282159 34.1746278 39.9574845 34.3192871 40.1923934 34.3631701 40.4134217 34.3631701L40.790526 34.3631701 41.9739705 31.488397 43.2321155 31.488397 44.6537535 34.9459972 44.6537535 31.488397 45.9322424 31.488397 47.4082368 34.0342686 47.4082368 31.488397 48.2682977 31.488397 48.2682977 35.1438011zM20.5330581 35.8618053L21.967729 35.8618053 22.2912187 35.0498608 23.0154414 35.0498608 23.3380834 35.8618053 26.1609096 35.8618053 26.1609096 35.2410493 26.4128776 35.8644515 27.8782763 35.8644515 28.1302444 35.2317875 28.1302444 35.8618053 35.1455094 35.8618053 35.1422247 34.5289991 35.2779569 34.5289991C35.3730012 34.5324171 35.4007622 34.5415685 35.4007622 34.7048615L35.4007622 35.8618053 39.0290808 35.8618053 39.0290808 35.5515375C39.3217367 35.7147203 39.7769321 35.8618053 40.3759125 35.8618053L41.902343 35.8618053 42.2290115 35.0498608 42.9532341 35.0498608 43.2726974 35.8618053 46.2141965 35.8618053 46.2141965 35.0905462 46.6596438 35.8618053 49.0167848 35.8618053 49.0167848 30.7634466 46.6840142 30.7634466 46.6840142 31.3655689 46.3573457 30.7634466 43.9636493 30.7634466 43.9636493 31.3655689 43.6636823 30.7634466 40.430375 30.7634466C39.8891417 30.7634466 39.4133904 30.842061 39.0290808 31.0611449L39.0290808 30.7634466 36.7978179 30.7634466 36.7978179 31.0611449C36.5532669 30.8353352 36.2200292 30.7634466 35.8494941 30.7634466L27.6978299 30.7634466 27.1508749 32.0802653 26.5891917 30.7634466 24.0216182 30.7634466 24.0216182 31.3655689 23.7395581 30.7634466 21.5498308 30.7634466 20.5329522 33.1874824 20.5329522 35.8618053 20.5330581 35.8618053zM50.4073771 38.5581798L48.8770262 38.5581798C48.7242349 38.5581798 48.6227271 38.5641338 48.5372191 38.6242248 48.4486382 38.6834336 48.4145197 38.7713097 48.4145197 38.8873018 48.4145197 39.0252354 48.489326 39.1190654 48.5981448 39.1596407 48.6867257 39.1917259 48.7818759 39.2010979 48.9217405 39.2010979L49.37683 39.2137777C49.8360518 39.2255753 50.1425882 39.3077179 50.329498 39.5080579 50.3635104 39.5359534 50.3839604 39.5672667 50.4073771 39.5985803L50.4073771 38.5581798zM50.407377 40.968764C50.2034081 41.2791421 49.8059597 41.4364812 49.2679052 41.4364812L47.6463243 41.4364812 47.6463243 40.6524322 49.2613358 40.6524322C49.4215442 40.6524322 49.5336477 40.6304907 49.6011429 40.5619098 49.6596317 40.505347 49.7004255 40.4232044 49.7004255 40.3234203 49.7004255 40.2169105 49.6596317 40.1323422 49.5978582 40.0816232 49.5369324 40.0258324 49.4482455 40.0004728 49.3020236 40.0004728 48.5135903 39.9725774 47.5299825 40.0258324 47.5299825 38.8687784 47.5299825 38.3384344 47.8535781 37.780195 48.7347246 37.780195L50.4072711 37.780195 50.4072711 37.0527086 48.8532915 37.0527086C48.3843216 37.0527086 48.0436668 37.1695828 47.8024005 37.351289L47.8024005 37.0527086 45.5038542 37.0527086C45.1362861 37.0527086 44.7048252 37.147531 44.5007502 37.351289L44.5007502 37.0527086 40.3961506 37.0527086 40.3961506 37.351289C40.069482 37.1060738 39.5182887 37.0527086 39.2638836 37.0527086L36.5564458 37.0527086 36.5564458 37.351289C36.2980142 37.0908581 35.7232982 37.0527086 35.3730012 37.0527086L32.3429212 37.0527086 31.6495323 37.8335602 31.0001159 37.0527086 26.4738035 37.0527086 26.4738035 42.1545955 30.9149257 42.1545955 31.6294003 41.361395 32.3024453 42.1545955 35.0399753 42.1571316 35.0399753 40.9569664 35.3091085 40.9569664C35.6723324 40.9628101 36.1007205 40.9475944 36.4786725 40.7775756L36.4786725 42.1544853 38.7366368 42.1544853 38.7366368 40.8247663 38.8455617 40.8247663C38.9845786 40.8247663 38.998247 40.8307203 38.998247 40.9752693L38.998247 42.154375 45.8575419 42.154375C46.2930293 42.154375 46.7482247 42.0383829 47.0002986 41.8278993L47.0002986 42.154375 49.1760396 42.154375C49.628798 42.154375 50.0709605 42.0883301 50.407377 41.9191934L50.407377 40.968764zM47.0579398 39.5080579C47.221433 39.684141 47.3090601 39.9064222 47.3090601 40.2827349 47.3090601 41.0693199 46.8368055 41.4364812 45.9899894 41.4364812L44.3545283 41.4364812 44.3545283 40.6524322 45.9834202 40.6524322C46.1426748 40.6524322 46.255626 40.6304907 46.3264059 40.5619098 46.3841531 40.505347 46.4255826 40.4232044 46.4255826 40.3234203 46.4255826 40.2169105 46.3807625 40.1323422 46.3231212 40.0816232 46.2589107 40.0258324 46.1703299 40.0004728 46.024108 40.0004728 45.2388535 39.9725774 44.2554575 40.0258324 44.2554575 38.8687784 44.2554575 38.3384344 44.5756625 37.780195 45.4559613 37.780195L47.1393155 37.780195 47.1393155 38.5584003 45.5990046 38.5584003C45.4463192 38.5584003 45.3470366 38.5643543 45.2625881 38.6244453 45.1706165 38.6836541 45.1364981 38.7715302 45.1364981 38.8875223 45.1364981 39.0254558 45.214589 39.1192859 45.3202292 39.1598612 45.40881 39.1919464 45.5039603 39.2013184 45.6470036 39.2013184L46.0990202 39.2139982C46.5548515 39.2255753 46.8677453 39.3076078 47.0579398 39.5080579zM39.4810976 39.2822482C39.3687821 39.3516009 39.2298712 39.3575549 39.0664839 39.3575549L38.0464267 39.3575549 38.0464267 38.5363486 39.0803645 38.5363486C39.2298712 38.5363486 39.3794838 38.5396564 39.4810976 38.6023936 39.5899163 38.6616024 39.6549746 38.7748381 39.6549746 38.9312951 39.6549746 39.0877521 39.5899163 39.2137777 39.4810976 39.2822482zM39.9882123 39.7372855C40.1751223 39.8090639 40.3279136 39.9377358 40.3995411 40.0442455 40.5181082 40.2227543 40.5352733 40.389355 40.538664 40.711641L40.538664 41.4364812 39.6956624 41.4364812 39.6956624 40.9790182C39.6956624 40.7590522 39.7160063 40.4333483 39.5599303 40.2633294 39.437231 40.1323422 39.2502151 40.1010287 38.9438906 40.1010287L38.0465326 40.1010287 38.0465326 41.4364812 37.2027893 41.4364812 37.2027893 37.7800847 39.1413964 37.7800847C39.5664996 37.7800847 39.8761088 37.7996006 40.1517054 37.9526395 40.4167064 38.1192402 40.5833783 38.3474757 40.5833783 38.7645839 40.5832723 39.3481829 40.2092406 39.6459915 39.9882123 39.7372855zM41.0489576 37.7800847L43.8514398 37.7800847 43.8514398 38.5362383 41.8851779 38.5362383 41.8851779 39.2009876 43.8034409 39.2009876 43.8034409 39.9469975 41.8851779 39.9469975 41.8851779 40.6744838 43.8514398 40.6777915 43.8514398 41.4364812 41.0489576 41.4364812 41.0489576 37.7800847 41.0489576 37.7800847zM35.3837029 39.4674827L34.2985874 39.4674827 34.2985874 38.5363486 35.3934511 38.5363486C35.6965968 38.5363486 35.9070293 38.6649102 35.9070293 38.9846603 35.9070293 39.300882 35.7063449 39.4674827 35.3837029 39.4674827zM33.4622612 41.1039412L32.1730706 39.6145678 33.4622612 38.1724952 33.4622612 41.1039412zM30.1329559 40.6744838L28.0684709 40.6744838 28.0684709 39.9469975 29.9119276 39.9469975 29.9119276 39.2009876 28.0684709 39.2009876 28.0684709 38.5362383 30.1736438 38.5362383 31.0920874 39.6017777 30.1329559 40.6744838zM36.8085197 38.9846603C36.8085197 40.0003627 36.0802706 40.2100745 35.3462998 40.2100745L34.2985874 40.2100745 34.2985874 41.4364812 32.6665168 41.4364812 31.632579 40.226062 30.5580593 41.4364812 27.2320387 41.4364812 27.2320387 37.7800847 30.609237 37.7800847 31.6423271 38.978596 32.7103834 37.7800847 35.3934511 37.7800847C36.0598208 37.7800847 36.8085197 37.972045 36.8085197 38.9846603z"/>
  </g>
</svg>
