<svg xmlns="http://www.w3.org/2000/svg" width="28" height="18" viewBox="0 0 28 18">
  <g fill="none" fill-rule="evenodd" transform="translate(-21 -26)">
    <rect width="70" height="70"/>
    <path fill="#3D3D3D" fill-rule="nonzero" d="M21,27 L49,27 L49,43 L21,43 L21,27 Z M22.5555556,28.5238095 L22.5555556,41.4761905 L47.4444444,41.4761905 L47.4444444,28.5238095 L22.5555556,28.5238095 Z"/>
    <path fill="#3D3D3D" fill-rule="nonzero" d="M21,32.8351151 C21.486545,33.0035745 22.0101227,33.0952381 22.5555556,33.0952381 C25.1328844,33.0952381 27.2222222,31.0485398 27.2222222,28.5238095 C27.2222222,27.9895079 27.128649,27.4766155 26.95668,27 L25.2504554,27 C25.5151644,27.4482642 25.6666667,27.9687053 25.6666667,28.5238095 C25.6666667,30.206963 24.2737748,31.5714286 22.5555556,31.5714286 C21.9888867,31.5714286 21.457603,31.4230182 21,31.1637114 L21,32.8351151 L21,32.8351151 Z"/>
    <path fill="#3D3D3D" fill-rule="nonzero" d="M42.7777779,32.835115 C43.2643229,33.0035744 43.7879006,33.0952379 44.3333334,33.0952379 C46.9106623,33.0952379 49.0000001,31.0485397 49.0000001,28.5238094 C49.0000001,27.9895078 48.9064269,27.4766153 48.7344579,26.9999998 L47.0282333,26.9999998 C47.2929423,27.448264 47.4444445,27.9687052 47.4444445,28.5238094 C47.4444445,30.2069629 46.0515527,31.5714284 44.3333334,31.5714284 C43.7666645,31.5714284 43.2353809,31.4230181 42.7777779,31.1637112 L42.7777779,32.835115 Z" transform="rotate(90 45.889 30.048)"/>
    <path fill="#3D3D3D" fill-rule="nonzero" d="M42.777778,42.7398771 C43.264323,42.9083365 43.7879007,43.0000001 44.3333335,43.0000001 C46.9106624,43.0000001 49.0000002,40.9533018 49.0000002,38.4285715 C49.0000002,37.8942699 48.906427,37.3813775 48.734458,36.904762 L47.0282334,36.904762 C47.2929424,37.3530262 47.4444446,37.8734673 47.4444446,38.4285715 C47.4444446,40.1117251 46.0515528,41.4761906 44.3333335,41.4761906 C43.7666646,41.4761906 43.235381,41.3277802 42.777778,41.0684734 L42.777778,42.7398771 Z" transform="rotate(-180 45.889 39.952)"/>
    <path fill="#3D3D3D" fill-rule="nonzero" d="M20.9999998,42.7398769 C21.4865448,42.9083363 22.0101225,42.9999999 22.5555554,42.9999999 C25.1328842,42.9999999 27.2222221,40.9533016 27.2222221,38.4285713 C27.2222221,37.8942697 27.1286488,37.3813773 26.9566799,36.9047618 L25.2504552,36.9047618 C25.5151643,37.353026 25.6666665,37.8734671 25.6666665,38.4285713 C25.6666665,40.1117249 24.2737746,41.4761904 22.5555554,41.4761904 C21.9888865,41.4761904 21.4576029,41.32778 20.9999998,41.0684732 L20.9999998,42.7398769 L20.9999998,42.7398769 Z" transform="rotate(-90 24.111 39.952)"/>
    <path fill="#3D3D3D" fill-rule="nonzero" d="M35.2151421,37.8463542 L34.6553548,37.8463542 L34.6553548,37.2979911 C34.0927797,37.2570682 33.6402198,37.0892872 33.2976617,36.7946429 C32.9551035,36.4999985 32.7824345,36.1248783 32.7796495,35.6692708 L33.494005,35.6692708 C33.5162852,35.9420897 33.629077,36.1657977 33.8323839,36.3404018 C34.0356908,36.5150058 34.3100117,36.6227677 34.6553548,36.6636905 L34.6553548,34.5357143 L34.3211534,34.4456845 C33.8755493,34.3311006 33.5316039,34.1428585 33.2893066,33.8809524 C33.0470094,33.6190463 32.9258626,33.298489 32.9258626,32.9192708 C32.9258626,32.471848 33.0811255,32.1049122 33.3916558,31.8184524 C33.7021862,31.5319926 34.1234149,31.3628475 34.6553548,31.3110119 L34.6553548,30.7380952 L35.2151421,30.7380952 L35.2151421,31.3069196 C35.7387269,31.3505707 36.1592595,31.5183517 36.4767524,31.8102679 C36.7942453,32.102184 36.9599518,32.4691198 36.973877,32.9110863 L36.263699,32.9110863 C36.2553439,32.6573648 36.1557808,32.4411591 35.9650065,32.2624628 C35.7742323,32.0837665 35.52428,31.9766867 35.2151421,31.9412202 L35.2151421,33.9423363 L35.5702311,34.0282738 C36.0798908,34.161955 36.4586486,34.3563355 36.7065158,34.6114211 C36.9543831,34.8665067 37.0783149,35.2013868 37.0783149,35.6160714 C37.0783149,36.1016889 36.9146971,36.491132 36.5874566,36.7844122 C36.2602161,37.0776924 35.8027825,37.2475196 35.2151421,37.2938988 L35.2151421,37.8463542 Z M36.3556044,35.6733631 C36.3556044,35.4032725 36.2643962,35.1850207 36.081977,35.0186012 C35.8995578,34.8521817 35.6106158,34.728051 35.2151421,34.6462054 L35.2151421,36.6759673 C35.5799805,36.6568699 35.8612638,36.5593387 36.0590007,36.3833705 C36.2567375,36.2074024 36.3556044,35.9707356 36.3556044,35.6733631 Z M33.6443956,32.8783482 C33.6443956,33.121157 33.7307301,33.3223578 33.9034017,33.4819569 C34.0760733,33.6415559 34.3267218,33.755456 34.6553548,33.8236607 L34.6553548,31.9412202 C34.3629271,31.9575894 34.1213298,32.0530745 33.9305556,32.2276786 C33.7397813,32.4022826 33.6443956,32.6191703 33.6443956,32.8783482 Z"/>
  </g>
</svg>
