<svg xmlns="http://www.w3.org/2000/svg" width="31" height="10" viewBox="0 0 31 10">
  <g fill="none" fill-rule="evenodd" transform="translate(-20 -30)">
    <rect width="70" height="70"/>
    <path fill="#3D3D3D" d="M20.1453398,39.8767967 L21.3495834,39.8767967 L21.3495834,32.7583847 L20.1453398,32.7583847 L20.1453398,39.8767967 Z M20.7474616,31.5605749 C21.162718,31.5605749 21.5018441,31.2251882 21.5018441,30.8213552 C21.5018441,30.4106776 21.162718,30.0821355 20.7474616,30.0821355 C20.3391261,30.0821355 20,30.4106776 20,30.8213552 C20,31.2251882 20.3391261,31.5605749 20.7474616,31.5605749 Z M26.6513007,39.8767967 L22.8793881,39.8767967 L22.8793881,30 L26.6651426,30 C28.3746149,30 29.530412,30.9856263 29.530412,32.4640657 C29.530412,33.4907598 28.7691085,34.4490075 27.8070978,34.6201232 L27.8070978,34.6748802 C29.1636021,34.8459959 30.0356406,35.7905544 30.0356406,37.1047228 C30.0356406,38.843258 28.7760294,39.8767967 26.6513007,39.8767967 Z M24.1251574,31.0882957 L24.1251574,34.257358 L25.9938113,34.257358 C27.4679717,34.257358 28.2708008,33.6755647 28.2708008,32.6078029 C28.2708008,31.6290212 27.5925486,31.0882957 26.381384,31.0882957 L24.1251574,31.0882957 Z M24.1251574,38.788501 L26.4644353,38.788501 C27.9662794,38.788501 28.7552666,38.1861739 28.7552666,37.0431211 C28.7552666,35.9000684 27.9385956,35.3182752 26.3467793,35.3182752 L24.1251574,35.3182752 L24.1251574,38.788501 Z M33.351048,38.9869952 C34.4860822,38.9869952 35.3581207,38.1998631 35.3581207,37.1731691 L35.3581207,36.5913758 L33.4340992,36.7077344 C32.4651676,36.7693361 31.9114923,37.1937029 31.9114923,37.8644764 C31.9114923,38.5420945 32.4859304,38.9869952 33.351048,38.9869952 Z M33.0811313,40 C31.6484966,40 30.6864859,39.1444216 30.6864859,37.8644764 C30.6864859,36.6461328 31.6346547,35.8795346 33.2956804,35.7837098 L35.3581207,35.6673511 L35.3581207,35.0718686 C35.3581207,34.202601 34.7767617,33.6824093 33.7801463,33.6824093 C32.8527402,33.6824093 32.2713812,34.1136208 32.1191205,34.8117728 L30.9564025,34.8117728 C31.0394538,33.5797399 32.1052787,32.6351814 33.80783,32.6351814 C35.4965395,32.6351814 36.5623644,33.5386721 36.5623644,34.9555099 L36.5623644,39.8767967 L35.4204092,39.8767967 L35.4204092,38.6516085 L35.3927254,38.6516085 C34.9636271,39.4661191 34.050063,40 33.0811313,40 Z M37.8084105,39.8767967 L39.0126542,39.8767967 L39.0126542,35.687885 C39.0126542,34.4832307 39.7531948,33.6892539 40.888229,33.6892539 C41.9955795,33.6892539 42.5423338,34.3189596 42.5423338,35.4688569 L42.5423338,39.8767967 L43.7465775,39.8767967 L43.7465775,35.2566735 C43.7465775,33.6413415 42.8330133,32.6351814 41.2550389,32.6351814 C40.1407675,32.6351814 39.3725431,33.1279945 38.9711285,33.8945927 L38.9434448,33.8945927 L38.9434448,32.7583847 L37.8084105,32.7583847 L37.8084105,39.8767967 Z M46.2591557,35.9206023 L46.2591557,30 L45.0549121,30 L45.0549121,39.8767967 L46.2591557,39.8767967 L46.2591557,37.1937029 L46.930487,36.5639973 L49.60197,39.8767967 L51,39.8767967 L47.7817627,35.8316222 L50.9031068,32.7583847 L49.4427884,32.7583847 L46.2591557,35.9206023 Z"/>
  </g>
</svg>
