<svg xmlns="http://www.w3.org/2000/svg" width="55" height="21" viewBox="0 0 55 21">
  <g fill="none" fill-rule="evenodd" transform="translate(-7 -25)">
    <rect width="70" height="70"/>
    <polygon fill="#7AB72B" fill-rule="nonzero" points="51.884 25.886 55.616 30.17 51.884 34.455 52.919 35.34 57.422 30.17 52.919 25"/>
    <polygon fill="#7AB72B" fill-rule="nonzero" points="56.423 25.886 60.155 30.17 56.423 34.455 57.458 35.34 61.962 30.17 57.458 25"/>
    <path fill="#7AB72B" fill-rule="nonzero" d="M12.666047 34.1351359C12.666047 34.226693 12.6614357 34.303425 12.6522132 34.3651689 12.642826 34.4270758 12.6278393 34.4796967 12.6070887 34.5231945 12.5861733 34.5668551 12.5608113 34.598786 12.5306734 34.6193131 12.5005355 34.640003 12.4647982 34.6502665 12.4231321 34.6502665L8.45167972 34.6502665C8.34512655 34.6502665 8.24450215 34.6149144 8.14964183 34.5438844 8.05461682 34.4728543 8.00718666 34.348063 8.00718666 34.1695105L8.00718666 25.9414309C8.00718666 25.9047755 8.01640919 25.8726817 8.03501894 25.8453123 8.05346401 25.81778 8.08590755 25.7961126 8.1321849 25.7799842 8.17846224 25.7640188 8.24087901 25.7503341 8.3195999 25.7387673 8.39832079 25.7275263 8.49318111 25.7216614 8.60434554 25.7216614 8.71995656 25.7216614 8.81596969 25.7275263 8.89238495 25.7387673 8.96880021 25.7503341 9.03006416 25.7640188 9.07650619 25.7799842 9.12261884 25.7961126 9.15522708 25.81778 9.17367214 25.8453123 9.19211721 25.8728446 9.20150442 25.9047755 9.20150442 25.9414309L9.20150442 33.6270105 12.4231321 33.6270105C12.4647982 33.6270105 12.5005355 33.637274 12.5306734 33.6579639 12.5606466 33.6786539 12.5861733 33.7083041 12.6070887 33.7470773 12.6280041 33.7860136 12.6429906 33.837494 12.6522132 33.9016817 12.6614357 33.9658693 12.666047 34.0435788 12.666047 34.1351359L12.666047 34.1351359 12.666047 34.1351359zM15.1793514 34.471714C15.1793514 34.5085323 15.1699642 34.5404632 15.1515191 34.5678325 15.1329093 34.5953648 15.1004658 34.6170323 15.0543531 34.6331607 15.0079111 34.649289 14.9468118 34.6628108 14.8702319 34.6743776 14.7938166 34.6856186 14.6978034 34.6914835 14.5821925 34.6914835 14.471028 34.6914835 14.376003 34.6856186 14.2974468 34.6743776 14.2187259 34.6628108 14.1563092 34.6491261 14.1100318 34.6331607 14.0637545 34.6170323 14.031311 34.5953648 14.0128659 34.5678325 13.9942561 34.5403003 13.9850336 34.5085323 13.9850336 34.471714L13.9850336 25.9414309C13.9850336 25.9047755 13.9954089 25.8726817 14.0163243 25.8453123 14.0372397 25.81778 14.0718242 25.7961126 14.1204072 25.7799842 14.1689901 25.7640188 14.2315716 25.7503341 14.3078222 25.7387673 14.3842375 25.7275263 14.4754746 25.7216614 14.5821925 25.7216614 14.6978034 25.7216614 14.7938166 25.7275263 14.8702319 25.7387673 14.9466471 25.7503341 15.0079111 25.7640188 15.0543531 25.7799842 15.1004658 25.7961126 15.133074 25.81778 15.1515191 25.8453123 15.1699642 25.8728446 15.1793514 25.9047755 15.1793514 25.9414309L15.1793514 34.471714 15.1793514 34.471714 15.1793514 34.471714zM26.1981349 35.433226C26.1981349 35.5384677 26.1923708 35.6266036 26.1808427 35.6974707 26.1691498 35.7685007 26.1518576 35.8234024 26.1288012 35.8623386 26.1055802 35.9011119 26.0802182 35.9276667 26.0523859 35.9413514 26.0245537 35.9550361 25.9967214 35.9620413 25.9690538 35.9620413 25.8764991 35.9620413 25.727127 35.9242455 25.521267 35.8488168 25.315407 35.7733882 25.0780914 35.663259 24.8096499 35.519244 24.5412084 35.3749031 24.2541571 35.1997717 23.9486608 34.9936869 23.6431644 34.7876021 23.3468906 34.5473056 23.060004 34.2724714 22.8332286 34.4098071 22.5461773 34.5288964 22.1990149 34.6295765 21.8518525 34.7302567 21.4491902 34.7807597 20.9908634 34.7807597 20.3149836 34.7807597 19.7306704 34.6821975 19.237759 34.4853987 18.7448477 34.2885999 18.3374094 34.0000811 18.0157737 33.6200053 17.6939733 33.2399294 17.4545169 32.7673191 17.297075 32.2018484 17.1396332 31.6363777 17.061077 30.9873326 17.061077 30.2547132 17.061077 29.5496261 17.1467148 28.911985 17.3179904 28.3419527 17.489266 27.7719204 17.7461793 27.2866029 18.0887305 26.8858371 18.4312816 26.4852342 18.8594706 26.1761884 19.3731326 25.9586997 19.8869593 25.741211 20.4862592 25.6323851 21.1713615 25.6323851 21.814633 25.6323851 22.3806658 25.7309474 22.8689659 25.9277462 23.357266 26.124708 23.7668452 26.4120863 24.0978681 26.7897185 24.4287265 27.1675135 24.6775701 27.6334444 24.8442344 28.1873483 25.0108987 28.7414152 25.0942309 29.3779159 25.0942309 30.0966877 25.0942309 30.4676404 25.0721627 30.8224647 25.028191 31.1613236 24.9842192 31.5003453 24.9147209 31.8207951 24.8200253 32.1229985 24.7250003 32.4252019 24.6057661 32.7044347 24.4624875 32.9608596 24.3188795 33.2174474 24.1499095 33.448458 23.9555777 33.6545428 24.2933529 33.929214 24.5896266 34.1434445 24.8442344 34.2967455 25.0986775 34.4502094 25.3094782 34.5658776 25.4759778 34.6435871 25.6426421 34.7214595 25.7720869 34.7775015 25.8648063 34.8117132 25.9571963 34.8460878 26.0266946 34.885024 26.0731366 34.9285218 26.1192493 34.9718566 26.1518576 35.0337635 26.1703026 35.1139167 26.1887477 35.1939069 26.1981349 35.300452 26.1981349 35.433226L26.1981349 35.433226 26.1981349 35.433226zM23.8374963 30.1791216C23.8374963 29.6753949 23.7923718 29.2084865 23.7021228 28.7779077 23.6118737 28.3474917 23.4613489 27.9732808 23.2507128 27.654949 23.0400768 27.33678 22.7587896 27.0883378 22.4071806 26.9097853 22.0554069 26.7312327 21.6203011 26.6419565 21.1018631 26.6419565 20.5834251 26.6419565 20.1483193 26.7369347 19.7965456 26.9270541 19.4447719 27.1171734 19.1588735 27.3734354 18.9390149 27.6963288 18.7191563 28.0190593 18.5617146 28.3934332 18.4668543 28.8192875 18.3719939 29.2451419 18.3243991 29.6960848 18.3243991 30.1724422 18.3243991 30.6944152 18.3683708 31.1740308 18.4563142 31.6112891 18.5442576 32.0485473 18.6923122 32.4276456 18.9006426 32.7480954 19.108973 33.068708 19.3877899 33.3171501 19.7372579 33.493259 20.086726 33.6695307 20.5252902 33.7576667 21.0529508 33.7576667 21.576 33.7576667 22.0157171 33.661548 22.3721021 33.4693108 22.728487 33.2770735 23.0153736 33.0172275 23.2330912 32.6897725 23.4506441 32.3624805 23.6056155 31.9822417 23.6983349 31.549708 23.791219 31.1166854 23.8374963 30.6598777 23.8374963 30.1791216L23.8374963 30.1791216 23.8374963 30.1791216zM32.655224 28.3659009C32.655224 28.8101644 32.5811145 29.2107673 32.4330599 29.5678724 32.2848406 29.9251404 32.0732165 30.2296246 31.7978581 30.4813251 31.5224997 30.7331885 31.1843951 30.9277064 30.7840384 31.0650421 30.3836817 31.2023776 29.905757 31.2711269 29.3504289 31.2711269L28.3296924 31.2711269 28.3296924 34.471714C28.3296924 34.5085323 28.319317 34.5404632 28.2984016 34.5678325 28.2774862 34.5953648 28.2452074 34.6170323 28.2012357 34.6331607 28.157264 34.649289 28.0971529 34.6628108 28.0207375 34.6743776 27.9443223 34.6856186 27.8483092 34.6914835 27.7326982 34.6914835 27.6169224 34.6914835 27.5209093 34.6856186 27.4444941 34.6743776 27.3680788 34.6628108 27.3066502 34.6491261 27.2603729 34.6331607 27.2140955 34.6170323 27.1816519 34.5953648 27.1632069 34.5678325 27.1445971 34.5403003 27.1353746 34.5085323 27.1353746 34.471714L27.1353746 26.2710038C27.1353746 26.0878896 27.1839575 25.9573964 27.2811235 25.879524 27.3782894 25.8016516 27.4869836 25.7627155 27.6075352 25.7627155L29.5307623 25.7627155C29.7252589 25.7627155 29.9115211 25.7706982 30.0897136 25.7868266 30.2679061 25.802955 30.4783774 25.8371667 30.7214569 25.8897875 30.9643719 25.9425713 31.2120626 26.0409707 31.4643647 26.1851486 31.7165022 26.3293266 31.9305967 26.5069017 32.1066482 26.7173851 32.282535 26.9280315 32.4179086 27.1719122 32.5127689 27.4488641 32.6076292 27.7261419 32.655224 28.0317665 32.655224 28.3659009L32.655224 28.3659009 32.655224 28.3659009zM31.3984895 28.4620195C31.3984895 28.1003529 31.330144 27.7981494 31.1936176 27.5552462 31.0570912 27.3126689 30.8881213 27.1318356 30.6867078 27.0127462 30.485459 26.8936569 30.2771286 26.8182282 30.0618813 26.7861344 29.846634 26.7542035 29.6371508 26.7380751 29.4334317 26.7380751L28.3295277 26.7380751 28.3295277 30.3026096 29.4057641 30.3026096C29.766925 30.3026096 30.0664926 30.256994 30.3049609 30.165274 30.5432645 30.0738799 30.7435252 29.9468078 30.9055782 29.7840578 31.0676312 29.6216336 31.1901591 29.4269527 31.2736559 29.2003408 31.3568234 28.973729 31.3984895 28.7275676 31.3984895 28.4620195L31.3984895 28.4620195 31.3984895 28.4620195zM41.2089568 34.2314174C41.2458469 34.3322605 41.2656095 34.4133911 41.2679151 34.475298 41.2700561 34.5372049 41.2527638 34.5841239 41.2158737 34.6162177 41.1788189 34.6481487 41.1175549 34.6686756 41.0319171 34.6779617 40.9461147 34.6870848 40.8316565 34.6918093 40.6882132 34.6918093 40.5447699 34.6918093 40.430147 34.6883881 40.3445092 34.6815458 40.2588714 34.6747034 40.1939843 34.6631367 40.1501773 34.6471711 40.1060409 34.6312057 40.0737621 34.6093754 40.0530114 34.582006 40.032096 34.5544738 40.0124981 34.5200991 39.9940531 34.4790451L39.2233129 32.3155615 35.4878586 32.3155615 34.7518676 34.4515128C34.7378691 34.4927297 34.7194241 34.5284076 34.6962031 34.5578949 34.672982 34.5877079 34.6395504 34.6129595 34.5955787 34.6334864 34.551607 34.6540135 34.4890255 34.6688386 34.4081637 34.6781246 34.3271371 34.6872478 34.2217368 34.6919723 34.092292 34.6919723 33.9580713 34.6919723 33.8480596 34.6861073 33.7625865 34.6748664 33.6769487 34.6632995 33.6168376 34.6416321 33.5820884 34.6095383 33.5475039 34.5776073 33.5310351 34.5305255 33.5335054 34.4687816 33.535811 34.4068746 33.5554089 34.3255811 33.5924638 34.2249009L36.605761 25.969289C36.6242062 25.918949 36.64858 25.877732 36.6785532 25.8456381 36.7085264 25.8135443 36.7526628 25.7882928 36.8104683 25.7700465 36.8682738 25.7518003 36.9423834 25.7390931 37.0326324 25.7322507 37.1227169 25.7254084 37.2375044 25.7219872 37.3763365 25.7219872 37.524391 25.7219872 37.6470836 25.7254084 37.7444142 25.7322507 37.8415802 25.7390931 37.9203011 25.7518003 37.9804122 25.7700465 38.0405234 25.7884557 38.0868007 25.8146847 38.1192442 25.8490593 38.1515231 25.8834339 38.1770497 25.9257913 38.1956595 25.9761314L41.2089568 34.2314174 41.2089568 34.2314174 41.2089568 34.2314174zM37.3415873 26.9441599L37.3346704 26.9441599 35.786438 31.3740879 38.9107351 31.3740879 37.3415873 26.9441599 37.3415873 26.9441599 37.3415873 26.9441599zM45.569073 31.1955353L45.569073 34.471551C45.569073 34.5083694 45.5598504 34.5403003 45.5414054 34.5676697 45.5229603 34.595202 45.4906815 34.6168694 45.4447336 34.6329978 45.3987855 34.6491261 45.3365335 34.6626479 45.2583066 34.6742148 45.1800798 34.6854557 45.0857136 34.6913206 44.9753726 34.6913206 44.8602556 34.6913206 44.7649012 34.6854557 44.6888154 34.6742148 44.6128942 34.6626479 44.550642 34.6489632 44.5023885 34.6329978 44.4539702 34.6168694 44.4207032 34.595202 44.4022582 34.5676697 44.3838131 34.5401373 44.3747552 34.5083694 44.3747552 34.471551L44.3747552 31.1955353 41.8336186 26.1817275C41.7825653 26.0764857 41.7512745 25.9940518 41.7399111 25.9344257 41.7282183 25.8749625 41.7399111 25.8291839 41.7746603 25.7970901 41.8092447 25.7651592 41.8718262 25.7446321 41.9620753 25.7353461 42.0523243 25.726223 42.1736994 25.7214985 42.3265299 25.7214985 42.465362 25.7214985 42.5775145 25.726223 42.663317 25.7353461 42.7489548 25.7446321 42.8171357 25.7571764 42.8681889 25.7731419 42.9190776 25.7892703 42.9572852 25.8120781 42.9826471 25.8418911 43.0081738 25.8717042 43.0323829 25.9095 43.0556039 25.9551156L44.29834 28.5100788C44.4136216 28.7528191 44.5289033 29.0069632 44.6438556 29.2725113 44.7588078 29.5380593 44.8762303 29.8058881 44.9959586 30.0759977L45.0097923 30.0759977C45.1155222 29.8150113 45.2247103 29.5553281 45.3376863 29.2964594 45.4503329 29.0379167 45.5644617 28.7826321 45.6800727 28.5307688L46.9297258 25.9621209C46.9437241 25.9163423 46.9633221 25.8774062 46.9888489 25.8453123 47.0142107 25.8133814 47.0487952 25.7892703 47.0929316 25.7731419 47.1369035 25.7571764 47.1981673 25.7446321 47.2768882 25.7353461 47.3556092 25.726223 47.4550806 25.7214985 47.5754675 25.7214985 47.7421317 25.7214985 47.8728941 25.7273634 47.9677547 25.7386044 48.0626147 25.7501712 48.12849 25.7718386 48.1657095 25.8039324 48.2029291 25.8360263 48.2154452 25.8818048 48.203917 25.941268 48.1923889 26.0008941 48.1610982 26.0808844 48.1102096 26.1815646L45.569073 31.1955353 45.569073 31.1955353 45.569073 31.1955353z"/>
    <path fill="#3D3D3D" d="M10.5839844,45.1171875 C12.1416016,45.1171875 13.1865234,44.3408203 13.5087891,42.9492188 L12.6201172,42.9492188 C12.3662109,43.8085938 11.6240234,44.3066406 10.5888672,44.3066406 C9.19726562,44.3066406 8.31347656,43.203125 8.31347656,41.4746094 C8.31347656,39.7607422 9.20703125,38.6474609 10.5839844,38.6474609 C11.5898438,38.6474609 12.3955078,39.2529297 12.6201172,40.1757812 L13.5087891,40.1757812 C13.2841797,38.7695312 12.1171875,37.8369141 10.5839844,37.8369141 C8.65527344,37.8369141 7.41015625,39.2626953 7.41015625,41.4746094 C7.41015625,43.7060547 8.640625,45.1171875 10.5839844,45.1171875 Z M18.9240234,45 L18.2160156,42.9833984 L15.4132812,42.9833984 L14.7052734,45 L13.7824219,45 L16.3800781,37.9541016 L17.2492187,37.9541016 L19.846875,45 L18.9240234,45 Z M16.8,39.0234375 L15.6720703,42.2363281 L17.9572266,42.2363281 L16.8292969,39.0234375 L16.8,39.0234375 Z M20.115625,43.0615234 C20.1986328,44.3066406 21.2337891,45.1171875 22.7279297,45.1171875 C24.3490234,45.1171875 25.3646484,44.3115234 25.3646484,43.0224609 C25.3646484,42.0117188 24.7738281,41.4501953 23.3138672,41.0839844 L22.5765625,40.8886719 C21.6195312,40.6396484 21.2289062,40.3222656 21.2289062,39.7900391 C21.2289062,39.1015625 21.8636719,38.6279297 22.7767578,38.6279297 C23.6947266,38.6279297 24.3050781,39.0917969 24.3832031,39.8486328 L25.2621094,39.8486328 C25.2230469,38.6669922 24.2074219,37.8369141 22.8060547,37.8369141 C21.3412109,37.8369141 20.3158203,38.6572266 20.3158203,39.8291016 C20.3158203,40.7861328 20.8919922,41.3574219 22.1908203,41.6894531 L23.0941406,41.9238281 C24.0414062,42.1679688 24.4564453,42.5341797 24.4564453,43.1298828 C24.4564453,43.8232422 23.7630859,44.3261719 22.8109375,44.3261719 C21.8050781,44.3261719 21.0824219,43.8232422 20.9994141,43.0615234 L20.115625,43.0615234 Z M31.8150391,45 L31.8150391,37.9541016 L30.9361328,37.9541016 L30.9361328,41.0009766 L27.0689453,41.0009766 L27.0689453,37.9541016 L26.1900391,37.9541016 L26.1900391,45 L27.0689453,45 L27.0689453,41.7919922 L30.9361328,41.7919922 L30.9361328,45 L31.8150391,45 Z"/>
  </g>
</svg>
