<svg xmlns="http://www.w3.org/2000/svg" width="54" height="11" viewBox="0 0 54 11">
  <g fill="none" fill-rule="evenodd" transform="translate(-8 -30)">
    <rect width="70" height="70"/>
    <polygon fill="#7AB72B" fill-rule="nonzero" points="51.884 30.886 55.616 35.17 51.884 39.455 52.919 40.34 57.422 35.17 52.919 30"/>
    <polygon fill="#7AB72B" fill-rule="nonzero" points="56.423 30.886 60.155 35.17 56.423 39.455 57.458 40.34 61.962 35.17 57.458 30"/>
    <path fill="#7AB72B" fill-rule="nonzero" d="M12.666047 39.1351359C12.666047 39.226693 12.6614357 39.303425 12.6522132 39.3651689 12.642826 39.4270758 12.6278393 39.4796967 12.6070887 39.5231944 12.5861733 39.5668551 12.5608113 39.598786 12.5306734 39.6193131 12.5005355 39.640003 12.4647982 39.6502665 12.4231321 39.6502665L8.45167972 39.6502665C8.34512655 39.6502665 8.24450215 39.6149144 8.14964183 39.5438844 8.05461682 39.4728543 8.00718666 39.348063 8.00718666 39.1695105L8.00718666 30.9414309C8.00718666 30.9047755 8.01640919 30.8726817 8.03501894 30.8453123 8.05346401 30.81778 8.08590755 30.7961126 8.1321849 30.7799842 8.17846224 30.7640188 8.24087901 30.7503341 8.3195999 30.7387673 8.39832079 30.7275263 8.49318111 30.7216614 8.60434554 30.7216614 8.71995656 30.7216614 8.81596969 30.7275263 8.89238495 30.7387673 8.96880021 30.7503341 9.03006416 30.7640188 9.07650619 30.7799842 9.12261884 30.7961126 9.15522708 30.81778 9.17367214 30.8453123 9.19211721 30.8728446 9.20150442 30.9047755 9.20150442 30.9414309L9.20150442 38.6270105 12.4231321 38.6270105C12.4647982 38.6270105 12.5005355 38.637274 12.5306734 38.6579639 12.5606466 38.6786539 12.5861733 38.7083041 12.6070887 38.7470773 12.6280041 38.7860136 12.6429906 38.837494 12.6522132 38.9016817 12.6614357 38.9658693 12.666047 39.0435788 12.666047 39.1351359L12.666047 39.1351359 12.666047 39.1351359zM15.1793514 39.471714C15.1793514 39.5085323 15.1699642 39.5404632 15.1515191 39.5678325 15.1329093 39.5953648 15.1004658 39.6170323 15.0543531 39.6331607 15.0079111 39.649289 14.9468118 39.6628108 14.8702319 39.6743776 14.7938166 39.6856186 14.6978034 39.6914834 14.5821925 39.6914834 14.471028 39.6914834 14.376003 39.6856186 14.2974468 39.6743776 14.2187259 39.6628108 14.1563092 39.6491261 14.1100318 39.6331607 14.0637545 39.6170323 14.031311 39.5953648 14.0128659 39.5678325 13.9942561 39.5403003 13.9850336 39.5085323 13.9850336 39.471714L13.9850336 30.9414309C13.9850336 30.9047755 13.9954089 30.8726817 14.0163243 30.8453123 14.0372397 30.81778 14.0718242 30.7961126 14.1204072 30.7799842 14.1689901 30.7640188 14.2315716 30.7503341 14.3078222 30.7387673 14.3842375 30.7275263 14.4754746 30.7216614 14.5821925 30.7216614 14.6978034 30.7216614 14.7938166 30.7275263 14.8702319 30.7387673 14.9466471 30.7503341 15.0079111 30.7640188 15.0543531 30.7799842 15.1004658 30.7961126 15.133074 30.81778 15.1515191 30.8453123 15.1699642 30.8728446 15.1793514 30.9047755 15.1793514 30.9414309L15.1793514 39.471714 15.1793514 39.471714 15.1793514 39.471714zM26.1981349 40.433226C26.1981349 40.5384677 26.1923708 40.6266036 26.1808427 40.6974707 26.1691498 40.7685007 26.1518576 40.8234024 26.1288012 40.8623386 26.1055802 40.9011119 26.0802182 40.9276667 26.0523859 40.9413514 26.0245537 40.9550361 25.9967214 40.9620413 25.9690538 40.9620413 25.8764991 40.9620413 25.727127 40.9242455 25.521267 40.8488168 25.315407 40.7733882 25.0780914 40.663259 24.8096499 40.519244 24.5412084 40.3749031 24.2541571 40.1997717 23.9486608 39.9936869 23.6431644 39.7876021 23.3468906 39.5473056 23.060004 39.2724714 22.8332286 39.4098071 22.5461773 39.5288964 22.1990149 39.6295765 21.8518525 39.7302567 21.4491902 39.7807597 20.9908634 39.7807597 20.3149836 39.7807597 19.7306704 39.6821975 19.237759 39.4853987 18.7448477 39.2885999 18.3374094 39.0000811 18.0157737 38.6200053 17.6939733 38.2399294 17.4545169 37.7673191 17.297075 37.2018484 17.1396332 36.6363777 17.061077 35.9873326 17.061077 35.2547132 17.061077 34.5496261 17.1467148 33.911985 17.3179904 33.3419527 17.489266 32.7719204 17.7461793 32.2866029 18.0887305 31.8858371 18.4312816 31.4852342 18.8594706 31.1761884 19.3731326 30.9586997 19.8869593 30.741211 20.4862592 30.6323851 21.1713615 30.6323851 21.814633 30.6323851 22.3806658 30.7309474 22.8689659 30.9277462 23.357266 31.124708 23.7668452 31.4120863 24.0978681 31.7897185 24.4287265 32.1675135 24.6775701 32.6334444 24.8442344 33.1873483 25.0108987 33.7414152 25.0942309 34.3779159 25.0942309 35.0966877 25.0942309 35.4676404 25.0721627 35.8224647 25.028191 36.1613236 24.9842192 36.5003453 24.9147209 36.8207951 24.8200253 37.1229985 24.7250003 37.4252019 24.6057661 37.7044347 24.4624875 37.9608596 24.3188795 38.2174474 24.1499095 38.448458 23.9555777 38.6545428 24.2933529 38.929214 24.5896266 39.1434445 24.8442344 39.2967455 25.0986775 39.4502094 25.3094782 39.5658776 25.4759778 39.6435871 25.6426421 39.7214595 25.7720869 39.7775015 25.8648063 39.8117132 25.9571963 39.8460878 26.0266946 39.885024 26.0731366 39.9285218 26.1192493 39.9718566 26.1518576 40.0337635 26.1703026 40.1139167 26.1887477 40.1939069 26.1981349 40.300452 26.1981349 40.433226L26.1981349 40.433226 26.1981349 40.433226zM23.8374963 35.1791216C23.8374963 34.6753949 23.7923718 34.2084865 23.7021228 33.7779077 23.6118737 33.3474917 23.4613489 32.9732808 23.2507128 32.654949 23.0400768 32.33678 22.7587896 32.0883378 22.4071806 31.9097853 22.0554069 31.7312327 21.6203011 31.6419565 21.1018631 31.6419565 20.5834251 31.6419565 20.1483193 31.7369347 19.7965456 31.9270541 19.4447719 32.1171734 19.1588735 32.3734354 18.9390149 32.6963288 18.7191563 33.0190593 18.5617146 33.3934332 18.4668543 33.8192875 18.3719939 34.2451419 18.3243991 34.6960848 18.3243991 35.1724422 18.3243991 35.6944152 18.3683708 36.1740308 18.4563142 36.6112891 18.5442576 37.0485473 18.6923122 37.4276456 18.9006426 37.7480954 19.108973 38.068708 19.3877899 38.3171501 19.7372579 38.493259 20.086726 38.6695307 20.5252902 38.7576667 21.0529508 38.7576667 21.576 38.7576667 22.0157171 38.661548 22.3721021 38.4693108 22.728487 38.2770735 23.0153736 38.0172275 23.2330912 37.6897725 23.4506441 37.3624805 23.6056155 36.9822417 23.6983349 36.549708 23.791219 36.1166854 23.8374963 35.6598777 23.8374963 35.1791216L23.8374963 35.1791216 23.8374963 35.1791216zM32.655224 33.3659009C32.655224 33.8101644 32.5811145 34.2107673 32.4330599 34.5678724 32.2848406 34.9251404 32.0732165 35.2296246 31.7978581 35.4813251 31.5224997 35.7331885 31.1843951 35.9277064 30.7840384 36.0650421 30.3836817 36.2023776 29.905757 36.2711269 29.3504289 36.2711269L28.3296924 36.2711269 28.3296924 39.471714C28.3296924 39.5085323 28.319317 39.5404632 28.2984016 39.5678325 28.2774862 39.5953648 28.2452074 39.6170323 28.2012357 39.6331607 28.157264 39.649289 28.0971529 39.6628108 28.0207375 39.6743776 27.9443223 39.6856186 27.8483092 39.6914835 27.7326982 39.6914835 27.6169224 39.6914835 27.5209093 39.6856186 27.4444941 39.6743776 27.3680788 39.6628108 27.3066502 39.6491261 27.2603729 39.6331607 27.2140955 39.6170323 27.1816519 39.5953648 27.1632069 39.5678325 27.1445971 39.5403003 27.1353746 39.5085323 27.1353746 39.471714L27.1353746 31.2710038C27.1353746 31.0878896 27.1839575 30.9573964 27.2811235 30.879524 27.3782894 30.8016516 27.4869836 30.7627155 27.6075352 30.7627155L29.5307623 30.7627155C29.7252589 30.7627155 29.9115211 30.7706982 30.0897136 30.7868266 30.2679061 30.802955 30.4783774 30.8371667 30.7214569 30.8897875 30.9643719 30.9425713 31.2120626 31.0409707 31.4643647 31.1851486 31.7165022 31.3293266 31.9305967 31.5069017 32.1066482 31.7173851 32.282535 31.9280315 32.4179086 32.1719122 32.5127689 32.4488641 32.6076292 32.7261419 32.655224 33.0317665 32.655224 33.3659009L32.655224 33.3659009 32.655224 33.3659009zM31.3984895 33.4620195C31.3984895 33.1003529 31.330144 32.7981494 31.1936176 32.5552462 31.0570912 32.3126689 30.8881213 32.1318356 30.6867078 32.0127462 30.485459 31.8936569 30.2771286 31.8182282 30.0618813 31.7861344 29.846634 31.7542035 29.6371508 31.7380751 29.4334317 31.7380751L28.3295277 31.7380751 28.3295277 35.3026096 29.4057641 35.3026096C29.766925 35.3026096 30.0664926 35.256994 30.3049609 35.165274 30.5432645 35.0738799 30.7435252 34.9468078 30.9055782 34.7840578 31.0676312 34.6216336 31.1901591 34.4269527 31.2736559 34.2003408 31.3568234 33.973729 31.3984895 33.7275676 31.3984895 33.4620195L31.3984895 33.4620195 31.3984895 33.4620195zM41.2089568 39.2314174C41.2458469 39.3322605 41.2656095 39.4133911 41.2679151 39.475298 41.2700561 39.5372049 41.2527638 39.5841239 41.2158737 39.6162177 41.1788189 39.6481487 41.1175549 39.6686756 41.0319171 39.6779617 40.9461147 39.6870848 40.8316565 39.6918093 40.6882132 39.6918093 40.5447699 39.6918093 40.430147 39.6883881 40.3445092 39.6815458 40.2588714 39.6747034 40.1939843 39.6631367 40.1501773 39.6471711 40.1060409 39.6312057 40.0737621 39.6093754 40.0530114 39.582006 40.032096 39.5544738 40.0124981 39.5200991 39.9940531 39.4790451L39.2233129 37.3155616 35.4878586 37.3155616 34.7518676 39.4515128C34.7378691 39.4927297 34.7194241 39.5284076 34.6962031 39.5578949 34.672982 39.5877079 34.6395504 39.6129595 34.5955787 39.6334864 34.551607 39.6540135 34.4890255 39.6688386 34.4081637 39.6781246 34.3271371 39.6872478 34.2217368 39.6919723 34.092292 39.6919723 33.9580713 39.6919723 33.8480596 39.6861073 33.7625865 39.6748664 33.6769487 39.6632995 33.6168376 39.6416321 33.5820884 39.6095383 33.5475039 39.5776073 33.5310351 39.5305255 33.5335054 39.4687816 33.535811 39.4068746 33.5554089 39.3255811 33.5924638 39.2249009L36.605761 30.969289C36.6242062 30.918949 36.64858 30.877732 36.6785532 30.8456381 36.7085264 30.8135443 36.7526628 30.7882928 36.8104683 30.7700465 36.8682738 30.7518003 36.9423834 30.7390931 37.0326324 30.7322508 37.1227169 30.7254084 37.2375044 30.7219872 37.3763365 30.7219872 37.524391 30.7219872 37.6470836 30.7254084 37.7444142 30.7322508 37.8415802 30.7390931 37.9203011 30.7518003 37.9804122 30.7700465 38.0405234 30.7884557 38.0868007 30.8146847 38.1192442 30.8490593 38.1515231 30.8834339 38.1770497 30.9257913 38.1956595 30.9761314L41.2089568 39.2314174 41.2089568 39.2314174 41.2089568 39.2314174zM37.3415873 31.9441599L37.3346704 31.9441599 35.786438 36.3740879 38.9107351 36.3740879 37.3415873 31.9441599 37.3415873 31.9441599 37.3415873 31.9441599zM45.569073 36.1955353L45.569073 39.471551C45.569073 39.5083694 45.5598504 39.5403003 45.5414054 39.5676697 45.5229603 39.595202 45.4906815 39.6168694 45.4447336 39.6329978 45.3987855 39.6491261 45.3365335 39.6626479 45.2583066 39.6742148 45.1800798 39.6854557 45.0857136 39.6913206 44.9753726 39.6913206 44.8602556 39.6913206 44.7649012 39.6854557 44.6888154 39.6742148 44.6128942 39.6626479 44.550642 39.6489632 44.5023885 39.6329978 44.4539702 39.6168694 44.4207032 39.595202 44.4022582 39.5676697 44.3838131 39.5401373 44.3747552 39.5083694 44.3747552 39.471551L44.3747552 36.1955353 41.8336186 31.1817275C41.7825653 31.0764857 41.7512745 30.9940518 41.7399111 30.9344257 41.7282183 30.8749625 41.7399111 30.8291839 41.7746603 30.7970901 41.8092447 30.7651592 41.8718262 30.7446321 41.9620753 30.7353461 42.0523243 30.726223 42.1736994 30.7214985 42.3265299 30.7214985 42.465362 30.7214985 42.5775145 30.726223 42.663317 30.7353461 42.7489548 30.7446321 42.8171357 30.7571764 42.8681889 30.7731419 42.9190776 30.7892703 42.9572852 30.8120781 42.9826471 30.8418911 43.0081738 30.8717042 43.0323829 30.9095 43.0556039 30.9551156L44.29834 33.5100788C44.4136216 33.7528191 44.5289033 34.0069632 44.6438556 34.2725113 44.7588078 34.5380593 44.8762303 34.8058881 44.9959586 35.0759977L45.0097923 35.0759977C45.1155222 34.8150113 45.2247103 34.5553281 45.3376863 34.2964594 45.4503329 34.0379167 45.5644617 33.7826321 45.6800727 33.5307688L46.9297258 30.9621209C46.9437241 30.9163423 46.9633221 30.8774062 46.9888489 30.8453123 47.0142107 30.8133814 47.0487952 30.7892703 47.0929316 30.7731419 47.1369035 30.7571764 47.1981673 30.7446321 47.2768882 30.7353461 47.3556092 30.726223 47.4550806 30.7214985 47.5754675 30.7214985 47.7421317 30.7214985 47.8728941 30.7273634 47.9677547 30.7386044 48.0626147 30.7501712 48.12849 30.7718386 48.1657095 30.8039324 48.2029291 30.8360263 48.2154452 30.8818048 48.203917 30.941268 48.1923889 31.0008941 48.1610982 31.0808844 48.1102096 31.1815646L45.569073 36.1955353 45.569073 36.1955353 45.569073 36.1955353z"/>
  </g>
</svg>
