<svg xmlns="http://www.w3.org/2000/svg" width="39" height="31" viewBox="0 0 39 31">
  <g fill="none" fill-rule="evenodd" transform="translate(-16 -19)">
    <rect width="70" height="70"/>
    <rect width="47.935" height="38.81" x="12" y="15"/>
    <path fill="#231F20" fill-rule="nonzero" d="M23.8693878,48.9267769 L23.8693878,46.9928926 C23.8924866,46.6638728 23.7710406,46.3409509 23.536033,46.1065102 C23.3010254,45.8720696 22.9751824,45.7487815 22.6416327,45.7680992 C22.2020683,45.7396543 21.7816586,45.9496148 21.5444898,46.3160331 C21.3282599,45.9605398 20.9323358,45.7502931 20.5126531,45.7680992 C20.1472383,45.7498649 19.799367,45.9240072 19.5983673,46.2257851 L19.5983673,45.8454545 L18.9191837,45.8454545 L18.9191837,48.9267769 L19.604898,48.9267769 L19.604898,47.231405 C19.575366,47.0180621 19.6438458,46.8028424 19.7916497,46.6444774 C19.9394537,46.4861124 20.151154,46.4011322 20.3689796,46.4127273 C20.8195918,46.4127273 21.0481633,46.7028099 21.0481633,47.2249587 L21.0481633,48.9396694 L21.7338776,48.9396694 L21.7338776,47.231405 C21.7055574,47.0183047 21.7744559,46.8037823 21.9219858,46.645711 C22.0695157,46.4876396 22.2804777,46.4023045 22.4979592,46.4127273 C22.9616327,46.4127273 23.1836735,46.7028099 23.1836735,47.2249587 L23.1836735,48.9396694 L23.8693878,48.9267769 Z M34.0146939,45.8454545 L32.8979592,45.8454545 L32.8979592,44.9107438 L32.2122449,44.9107438 L32.2122449,45.8454545 L31.5918367,45.8454545 L31.5918367,46.4578512 L32.2253061,46.4578512 L32.2253061,47.8760331 C32.2253061,48.5915702 32.5061224,49.0170248 33.3093878,49.0170248 C33.6094885,49.0180199 33.9037739,48.9353433 34.1583673,48.7785124 L33.962449,48.2047934 C33.7803113,48.3120304 33.5735937,48.3719141 33.3616327,48.378843 C33.035102,48.378843 32.9110204,48.172562 32.9110204,47.8631405 L32.9110204,46.4578512 L34.0212245,46.4578512 L34.0146939,45.8454545 Z M39.8073469,45.7680992 C39.4700138,45.7583064 39.1542802,45.931449 38.9844898,46.2193388 L38.9844898,45.8454545 L38.3118367,45.8454545 L38.3118367,48.9267769 L38.9910204,48.9267769 L38.9910204,47.1991736 C38.9910204,46.6899174 39.2130612,46.406281 39.6440816,46.406281 C39.7893499,46.4043196 39.9335886,46.4306044 40.0685714,46.4836364 L40.277551,45.8390083 C40.1224398,45.7842355 39.959022,45.7558977 39.7942857,45.7552066 L39.8073469,45.7680992 Z M31.0497959,46.0904132 C30.6653469,45.864786 30.2233306,45.752912 29.7763265,45.7680992 C28.9861224,45.7680992 28.4702041,46.1419835 28.4702041,46.7543802 C28.4702041,47.2571901 28.8489796,47.5666116 29.5477551,47.6633058 L29.8742857,47.7084298 C30.2465306,47.76 30.4228571,47.8566942 30.4228571,48.0307438 C30.4228571,48.2692562 30.1746939,48.4046281 29.7110204,48.4046281 C29.338058,48.4152845 28.9723113,48.301755 28.6726531,48.082314 L28.3461224,48.6044628 C28.7417515,48.8771375 29.2156153,49.0172349 29.6979592,49.0041322 C30.5991837,49.0041322 31.1216327,48.585124 31.1216327,47.9985124 C31.1216327,47.4119008 30.7102041,47.1733884 30.0310204,47.0766942 L29.7044898,47.0315702 C29.4106122,46.9928926 29.1755102,46.934876 29.1755102,46.728595 C29.1755102,46.522314 29.397551,46.3676033 29.7697959,46.3676033 C30.1138533,46.3715485 30.4511333,46.4625479 30.7493878,46.6319008 L31.0497959,46.0904132 Z M49.2408163,45.7680992 C48.9034832,45.7583064 48.5877495,45.931449 48.4179592,46.2193388 L48.4179592,45.8454545 L47.7453061,45.8454545 L47.7453061,48.9267769 L48.4244898,48.9267769 L48.4244898,47.1991736 C48.4244898,46.6899174 48.6465306,46.406281 49.077551,46.406281 C49.2228193,46.4043196 49.367058,46.4306044 49.5020408,46.4836364 L49.7110204,45.8390083 C49.5559092,45.7842355 49.3924914,45.7558977 49.2277551,45.7552066 L49.2408163,45.7680992 Z M40.4897959,47.3796694 C40.4734621,47.8175121 40.6448016,48.2418797 40.961758,48.5486085 C41.2787143,48.8553374 41.7119418,49.0160287 42.155102,48.9912397 C42.5628991,49.0117195 42.9636682,48.8806215 43.2783673,48.6238017 L42.9518367,48.082314 C42.7170517,48.2590424 42.4307535,48.3562572 42.1355102,48.3595041 C41.6149227,48.3179267 41.2139064,47.8887675 41.2139064,47.3732231 C41.2139064,46.8576788 41.6149227,46.4285196 42.1355102,46.3869421 C42.4307535,46.3901891 42.7170517,46.4874039 42.9518367,46.6641322 L43.2783673,46.1226446 C42.9636682,45.8658248 42.5628991,45.7347268 42.155102,45.7552066 C41.7119418,45.7304176 41.2787143,45.8911089 40.961758,46.1978377 C40.6448016,46.5045666 40.4734621,46.9289342 40.4897959,47.3667769 L40.4897959,47.3796694 Z M46.8506122,47.3796694 L46.8506122,45.8454545 L46.1714286,45.8454545 L46.1714286,46.2193388 C45.9374378,45.9221492 45.5728902,45.7542238 45.1918367,45.7680992 C44.2901473,45.7680992 43.5591837,46.4896238 43.5591837,47.3796694 C43.5591837,48.2697151 44.2901473,48.9912397 45.1918367,48.9912397 C45.5728902,49.005115 45.9374378,48.8371897 46.1714286,48.54 L46.1714286,48.9138843 L46.8506122,48.9138843 L46.8506122,47.3796694 Z M44.3232653,47.3796694 C44.3534678,46.8738519 44.7877361,46.4846383 45.3006989,46.5036432 C45.8136618,46.5226482 46.2171501,46.9429002 46.2088542,47.4495293 C46.2005582,47.9561585 45.7835212,48.3633193 45.2702041,48.3659504 C45.0088291,48.3692149 44.7579508,48.2645755 44.5781428,48.0772971 C44.3983347,47.8900186 44.3059394,47.6371225 44.3232653,47.3796694 L44.3232653,47.3796694 Z M36.1273469,45.7680992 C35.2256576,45.7805598 34.5049274,46.5121857 34.517551,47.4022314 C34.5301747,48.2922771 35.2713718,49.0037003 36.1730612,48.9912397 C36.6428537,49.0150422 37.1048508,48.8657121 37.4693878,48.5722314 L37.1428571,48.0758678 C36.8850162,48.2799824 36.5655843,48.3934022 36.235102,48.3981818 C35.7682829,48.4378104 35.3543119,48.1034806 35.3012245,47.6439669 L37.6195918,47.6439669 C37.6195918,47.5601653 37.6195918,47.4763636 37.6195918,47.3861157 C37.6195918,46.4191736 37.0122449,45.7745455 36.1371429,45.7745455 L36.1273469,45.7680992 Z M36.1273469,46.3676033 C36.3326051,46.3632838 36.5311902,46.4396501 36.6793923,46.5798935 C36.8275944,46.7201369 36.9132663,46.9127624 36.917551,47.1153719 L35.284898,47.1153719 C35.309495,46.6850257 35.6778704,46.3529017 36.1142857,46.3676033 L36.1273469,46.3676033 Z M53.1428571,47.3861157 L53.1428571,44.6077686 L52.4897959,44.6077686 L52.4897959,46.2193388 C52.2558052,45.9221492 51.8912576,45.7542238 51.5102041,45.7680992 C50.6085147,45.7680992 49.877551,46.4896238 49.877551,47.3796694 C49.877551,48.2697151 50.6085147,48.9912397 51.5102041,48.9912397 C51.8912576,49.005115 52.2558052,48.8371897 52.4897959,48.54 L52.4897959,48.9138843 L53.1428571,48.9138843 L53.1428571,47.3861157 Z M54.2759184,48.4787603 C54.3183716,48.4782469 54.3605188,48.4859106 54.4,48.5013223 C54.4374997,48.5164273 54.4718252,48.5382868 54.5012245,48.5657851 C54.5299165,48.5935755 54.5531633,48.6263564 54.5697959,48.6624793 C54.60322,48.7385607 54.60322,48.8249104 54.5697959,48.9009917 C54.5531633,48.9371147 54.5299165,48.9698956 54.5012245,48.997686 C54.4718252,49.0251843 54.4374997,49.0470438 54.4,49.0621488 C54.3609085,49.0791751 54.3186463,49.0879575 54.2759184,49.0879339 C54.1495672,49.0869938 54.0351062,49.0141826 53.9820408,48.9009917 C53.9490038,48.8248316 53.9490038,48.7386395 53.9820408,48.6624793 C53.9986734,48.6263564 54.0219203,48.5935755 54.0506122,48.5657851 C54.0800116,48.5382868 54.1143371,48.5164273 54.1518367,48.5013223 C54.1943673,48.4846227 54.2399797,48.4769358 54.2857143,48.4787603 L54.2759184,48.4787603 Z M54.2759184,49.0234711 C54.3085092,49.0236665 54.3407756,49.0170769 54.3706122,49.0041322 C54.3987058,48.9917513 54.4241843,48.974256 54.4457143,48.952562 C54.5303827,48.861377 54.5303827,48.7214329 54.4457143,48.6302479 C54.4242356,48.608494 54.3987448,48.5909903 54.3706122,48.5786777 C54.3407462,48.5658243 54.3084996,48.5592387 54.2759184,48.5593388 C54.2433653,48.5595086 54.2111733,48.5660831 54.1812245,48.5786777 C54.1518872,48.5905517 54.1252448,48.608084 54.1028571,48.6302479 C54.0181887,48.7214329 54.0181887,48.861377 54.1028571,48.952562 C54.1252998,48.9746597 54.151928,48.9921826 54.1812245,49.0041322 C54.2141681,49.0181554 54.2498618,49.0247616 54.2857143,49.0234711 L54.2759184,49.0234711 Z M54.2955102,48.6399174 C54.3259923,48.6384582 54.3560297,48.6475811 54.3804082,48.6657025 C54.4006865,48.6822681 54.4116282,48.7074692 54.4097959,48.7333884 C54.4107438,48.7550335 54.4024524,48.7760789 54.3869388,48.791405 C54.3680124,48.8083735 54.3438683,48.8185874 54.3183673,48.8204132 L54.4130612,48.9267769 L54.3379592,48.9267769 L54.2497959,48.8204132 L54.2204082,48.8204132 L54.2204082,48.9267769 L54.1583673,48.9267769 L54.1583673,48.6431405 L54.2955102,48.6399174 Z M54.2236735,48.6947107 L54.2236735,48.7720661 L54.2955102,48.7720661 C54.3082934,48.7758281 54.3219107,48.7758281 54.3346939,48.7720661 C54.3393511,48.7629431 54.3393511,48.7521809 54.3346939,48.7430579 C54.3393511,48.7339348 54.3393511,48.7231726 54.3346939,48.7140496 C54.3219107,48.7102876 54.3082934,48.7102876 54.2955102,48.7140496 L54.2236735,48.6947107 Z M50.6318367,47.3861157 C50.6620392,46.8802981 51.0963076,46.4910845 51.6092704,46.5100895 C52.1222332,46.5290945 52.5257216,46.9493464 52.5174256,47.4559756 C52.5091297,47.9626048 52.0920926,48.3697656 51.5787755,48.3723967 C51.3174005,48.3756612 51.0665222,48.2710218 50.8867142,48.0837433 C50.7069062,47.8964649 50.6145109,47.6435687 50.6318367,47.3861157 L50.6318367,47.3861157 Z M27.6995918,47.3861157 L27.6995918,45.8454545 L27.0204082,45.8454545 L27.0204082,46.2193388 C26.7864174,45.9221492 26.4218698,45.7542238 26.0408163,45.7680992 C25.1391269,45.7680992 24.4081633,46.4896238 24.4081633,47.3796694 C24.4081633,48.2697151 25.1391269,48.9912397 26.0408163,48.9912397 C26.4218698,49.005115 26.7864174,48.8371897 27.0204082,48.54 L27.0204082,48.9138843 L27.6995918,48.9138843 L27.6995918,47.3861157 Z M25.1722449,47.3861157 C25.2024473,46.8802981 25.6367157,46.4910845 26.1496785,46.5100895 C26.6626414,46.5290945 27.0661297,46.9493464 27.0578338,47.4559756 C27.0495378,47.9626048 26.6325008,48.3697656 26.1191837,48.3723967 C25.8566823,48.3774836 25.6040574,48.2736419 25.4228012,48.0861481 C25.241545,47.8986544 25.1482822,47.6447054 25.1657143,47.3861157 L25.1722449,47.3861157 Z"/>
    <g fill-rule="nonzero" transform="translate(16.898 19.835)">
      <rect width="10.286" height="18.246" x="13.927" y="2.53" fill="#FF5F00"/>
      <path fill="#EB001B" d="M14.5795918,11.654876 C14.5757462,8.09378676 16.2314592,4.72884484 19.0693878,2.53016529 C14.2497275,-1.208661 7.32850198,-0.664068615 3.16976258,3.78121754 C-0.988976826,8.2265037 -0.988976826,15.0800252 3.16976258,19.5253114 C7.32850198,23.9705975 14.2497275,24.5151899 19.0693878,20.7763636 C16.232362,18.5783821 14.5767501,15.2148342 14.5795918,11.654876 L14.5795918,11.654876 Z"/>
      <path fill="#F79E1B" d="M38.0897959,11.654876 C38.089691,16.0974532 35.5198109,20.1499947 31.4715936,22.0913708 C27.4233762,24.0327468 22.6075395,23.5221231 19.0693878,20.7763636 C21.9051756,18.576516 23.5609121,15.2134154 23.5609121,11.6532645 C23.5609121,8.09311352 21.9051756,4.73001288 19.0693878,2.53016529 C22.6075395,-0.2155942 27.4233762,-0.726217847 31.4715936,1.21515817 C35.5198109,3.15653419 38.089691,7.20907574 38.0897959,11.6516529 L38.0897959,11.654876 Z"/>
    </g>
  </g>
</svg>
