<svg xmlns="http://www.w3.org/2000/svg" width="62" height="8" viewBox="0 0 62 8">
  <g fill="none" fill-rule="evenodd" transform="translate(-4 -31)">
    <rect width="70" height="70"/>
    <path fill="#075899" fill-rule="nonzero" d="M34.5127131 34.1587746C34.9834491 34.1606159 35.4559089 34.1685524 35.8927603 34.1166794 36.2532223 34.0738222 36.4256287 33.7724254 36.4144885 33.4077905 36.4039452 33.0641079 36.213834 32.7975048 35.8562897 32.763981 35.4140671 32.7225841 34.964418 32.7540762 34.5127131 32.7540762L34.5127131 34.1587746zM34.5107902 37.3543936C35.0335131 37.3543936 35.5281206 37.3761714 36.0195452 37.3481714 36.4994318 37.3209968 36.7852287 37.0142667 36.8122832 36.5697587 36.8404649 36.1047429 36.5891496 35.7585841 36.1110532 35.6808698 35.5823622 35.5947746 35.0473056 35.6569968 34.5107902 35.6420127L34.5107902 37.3543936zM32.4475496 38.8906476L32.4475496 31.2288698C32.5283153 31.2221397 32.612463 31.2093143 32.6965442 31.2091873 33.6789956 31.207727 34.6614469 31.2065206 35.6438982 31.2089968 36.1527622 31.2102667 36.6575153 31.2551556 37.1434362 31.4096317 38.1795323 31.7390286 38.714987 32.619219 38.4871452 33.6148381 38.3609569 34.1658222 38.0002296 34.5227111 37.4353335 34.7328698 37.5198126 34.7637905 37.5859238 34.7905206 37.6413591 34.8061397 39.2048201 35.4074095 39.3313399 36.9695048 38.5283238 37.9304571 38.1273464 38.4103936 37.5865206 38.6578857 36.9736158 38.7554095 36.5185956 38.827854 36.0550211 38.8764889 35.5942982 38.8848698 34.5580693 38.9035365 33.5211773 38.8906476 32.4475496 38.8906476L32.4475496 38.8906476zM55.7861001 36.7963619C56.2057108 36.5224571 56.6170989 36.2790921 56.9993108 35.9991556 57.825005 35.3945206 58.3670904 34.6211238 58.4023675 33.5956635 58.4343291 32.6695048 58.1132551 31.8957905 57.246515 31.3971238 56.6777729 31.0698857 56.0507439 30.9950286 55.3998435 31.0131238 54.8053065 31.0296952 54.2301984 31.1208063 53.7312809 31.4446794 52.7280082 32.0957905 52.5514904 33.0771873 52.5640894 34.1556635L54.4393408 34.1556635C54.4616211 33.9926794 54.4700422 33.8345206 54.5075739 33.6829651 54.5453043 33.5305206 54.5980873 33.3782667 54.6695033 33.2376317 54.753452 33.0725524 54.8807011 32.9431556 55.0906391 32.9162984 55.493606 32.8646794 55.7479055 33.0500127 55.8011525 33.4428381 55.8636831 33.9039809 55.6829216 34.3019492 55.3987824 34.6475365 55.133807 34.9698222 54.8438327 35.2815683 54.5220958 35.5511556 53.8919503 36.0792191 53.2319654 36.5747746 52.559315 37.103473L52.559315 38.8161714 58.5280916 38.8161714 58.5280916 36.7955365 55.7861001 36.7963619zM22.3214841 35.8179365C22.076468 34.9818095 21.8431889 34.1824444 21.609976 33.3866349 21.5878284 33.3863809 21.5662113 33.3863809 21.54413 33.3863809 21.3055461 34.1890476 21.0668958 34.9916508 20.821283 35.8179365L22.3214841 35.8179365zM23.3758156 38.8728571C23.2012873 38.3759048 23.0296766 37.8874603 22.8532916 37.3851746L20.2917964 37.3851746C20.1179311 37.8836508 19.94453 38.3807936 19.7699354 38.8814921L17.5493408 38.8814921C18.5479718 36.3226984 19.5391097 33.7831429 20.5366798 31.2268889L22.6039654 31.2268889C23.5974905 33.7612381 24.5945964 36.3047936 25.6013835 38.8728571L23.3758156 38.8728571zM42.3789483 35.8189333L43.8790167 35.8189333C43.6362551 34.9850921 43.4002573 34.1742984 43.1642595 33.3635048 43.1470851 33.3623619 43.1298444 33.3611556 43.1126702 33.3600127 42.872097 34.1664254 42.6314573 34.9728381 42.3789483 35.8189333M41.3291257 38.8805206L39.1095257 38.8805206C40.1111408 36.3145524 41.1037376 33.7716952 42.0993184 31.2210921L44.1615644 31.2210921C45.1564819 33.7593143 46.1563729 36.3102349 47.1634916 38.8797587L44.9436264 38.8797587C44.7657824 38.3805841 44.5892649 37.8849651 44.4095644 37.3806476L41.8544349 37.3806476C41.6842167 37.8665524 41.5101525 38.3635683 41.3291257 38.8805206M6.1302139 34.5812698C6.63582888 34.5865397 7.1359401 34.5944762 7.59944813 34.5272381 8.04803637 34.4622222 8.25220535 34.1358095 8.25266951 33.6986667 8.2531337 33.2274286 8.05300963 32.9415238 7.60554866 32.823746 7.12334117 32.6968889 6.63059037 32.7455873 6.13134118 32.7483175 6.13134118 33.3834286 6.1302139 33.9013968 6.1302139 34.5812698L6.1302139 34.5812698zM7.37750803 31.2163175C7.8250353 31.2270476 8.28032085 31.2874921 8.71458611 31.392127 9.68417326 31.6259048 10.3607358 32.4204444 10.4159059 33.3805079 10.4362631 33.7340317 10.414646 34.1039365 10.3266524 34.4462857 10.0979487 35.335873 9.45918289 35.8547302 8.53806844 36.0210159 8.02177754 36.1142222 7.48824599 36.1240635 6.9616107 36.1577778 6.69842567 36.1746667 6.43311871 36.1607619 6.13850267 36.1607619L6.13850267 38.8696508 4.00895187 38.8696508 4.00895187 31.2300952 7.37750803 31.2163175zM62.7365587 35.6458159L62.7365587 32.9469587C62.1860517 33.8823238 61.6753972 34.7501333 61.1482315 35.6458159L62.7365587 35.6458159zM62.4172091 31.0357206L64.7196967 31.0357206 64.7196967 35.6554032 65.9815789 35.6554032 65.9815789 37.3512762 64.7477458 37.3512762 64.7477458 38.9392127 62.6518144 38.9392127 62.6518144 37.3710857 59.1751064 37.3710857 59.1751064 35.7071492C60.2472091 34.1623873 61.3332368 32.5975619 62.4172091 31.0357206L62.4172091 31.0357206z"/>
    <polygon fill="#075899" fill-rule="nonzero" points="31.345 31.234 31.345 32.783 29.137 32.783 29.137 38.873 26.977 38.873 26.977 32.797 24.787 32.797 24.787 31.234"/>
    <polygon fill="#075899" fill-rule="nonzero" points="13.404 37.305 17.044 37.305 17.044 38.875 11.304 38.875 11.304 31.227 13.404 31.227"/>
    <path fill="#E53624" fill-rule="nonzero" d="M47.7592022,35.1465587 C47.7798246,34.1228127 48.6344963,33.3515111 49.7213197,33.3758286 C50.7332791,33.3984952 51.5707102,34.2490984 51.5323165,35.2344952 C51.488817,36.3517651 50.5016577,37.0353206 49.5469241,36.9913841 C48.5449776,36.9451619 47.739309,36.1347492 47.7592022,35.1465587"/>
  </g>
</svg>
