<svg xmlns="http://www.w3.org/2000/svg" width="34" height="34" viewBox="0 0 34 34">
  <g fill="none" fill-rule="evenodd" transform="translate(-18 -18)">
    <rect width="70" height="70"/>
    <path fill="#2FAB33" fill-rule="nonzero" d="M35.2984055,52.0000005 C35.2997017,51.2981061 35.3084395,46.55173 35.3084395,46.15625 C35.3084395,40.0617393 30.3189316,34.5811746 24.2244209,34.5811746 L18.0093202,34.5811746 L18.0093202,52 L18,52 L18,18 L52,18 L52,52 L35.2984055,52 L35.2984055,52.0000005 Z M25.1578947,25.1578947 L25.1578947,27.7171566 C25.1578947,27.7171566 31.9740012,28.1404965 36.7888912,33.0034436 C41.6037812,37.8663908 42.2047869,44.8421053 42.2047869,44.8421053 L44.8421053,44.8421053 L44.8421053,25.1578947 L25.1578947,25.1578947 Z"/>
    <rect width="13.123" height="13.123" x="18" y="38.877" fill="#000" fill-rule="nonzero"/>
  </g>
</svg>
