<svg xmlns="http://www.w3.org/2000/svg" width="58" height="12" viewBox="0 0 58 12">
  <g fill="none" fill-rule="evenodd" transform="translate(-6 -29)">
    <rect width="70" height="70"/>
    <polyline fill="#054279" fill-rule="nonzero" points="48.834 31.563 48.834 39.671 46.883 39.671 46.883 31.554 44.721 31.554 44.721 29.832 51.011 29.832 51.011 31.563 48.834 31.563"/>
    <polyline fill="#054279" fill-rule="nonzero" points="14.292 29.826 14.292 39.677 12.339 39.677 12.339 31.556 8.436 31.556 8.436 39.677 6.477 39.677 6.477 29.826 14.292 29.826"/>
    <path fill="#054279" fill-rule="nonzero" d="M18.1823816 34.3750992L18.9113848 34.3750992C19.2773104 34.3750992 19.7460967 34.3750992 20.1560745 34.064739 20.5075964 33.7840879 20.6830725 33.3409662 20.6830725 32.9127812 20.6830725 32.3663611 20.4195735 31.9971022 20.1414266 31.790478 19.7460967 31.5096081 19.2482859 31.4803366 18.7943373 31.4803366L18.1823816 31.4803366 18.1823816 34.3750992zM19.07243 29.8263312C20.170858 29.8263312 20.9321678 29.9445662 21.6496425 30.5795943 22.4403566 31.2884576 22.6454268 32.248509 22.6454268 32.9573724 22.6454268 33.3409662 22.5868082 34.4043707 21.8401191 35.1576065 21.2982833 35.7040266 20.4928129 36.0290773 19.3653333 36.0290773L18.1823816 36.0290773 18.1823816 39.6766653 16.2315286 39.6766653 16.2315286 29.8263312 19.07243 29.8263312 19.07243 29.8263312zM42.7686797 39.3221242C42.1833071 39.6320741 41.4069697 39.8982261 40.3525938 39.8982261 38.6390635 39.8982261 37.5996068 39.3075979 36.7795969 38.5247076 35.6519817 37.4316486 35.2128167 36.2062111 35.2128167 34.7586657 35.2128167 32.9718988 35.9449393 31.6871523 36.7795969 30.9044535 37.7607334 29.9738378 38.9759647 29.6047977 40.3669705 29.6047977 41.0554206 29.6047977 41.8757018 29.7230328 42.7686797 30.210308L42.7686797 32.4551332C41.8757018 31.4212191 40.7624631 31.3473563 40.4111853 31.3473563 38.4486411 31.3473563 37.1748184 32.9718988 37.1748184 34.7883202 37.1748184 36.9740006 38.8444051 38.1556401 40.4844247 38.1556401 41.3925931 38.1556401 42.1976837 37.7569181 42.7686797 37.0775178L42.7686797 39.3221242"/>
    <polygon fill="#054279" fill-rule="nonzero" points="52.964 39.677 54.914 39.677 54.914 29.826 52.964 29.826"/>
    <path fill="#054279" fill-rule="nonzero" d="M58.8178697,34.3750992 L59.5467372,34.3750992 C59.9129341,34.3750992 60.381395,34.3750992 60.7915355,34.064739 C61.1430845,33.7840879 61.3185878,33.3409662 61.3185878,32.9127812 C61.3185878,32.3663611 61.0551972,31.9971022 60.7768876,31.790478 C60.381395,31.5096081 59.8839097,31.4803366 59.4295542,31.4803366 L58.8178697,31.4803366 L58.8178697,34.3750992 Z M59.7078639,29.8263312 C60.8061834,29.8263312 61.5676017,29.9445662 62.2850764,30.5795943 C63.0757905,31.2884576 63.2808607,32.248509 63.2808607,32.9573724 C63.2808607,33.3409662 63.2222692,34.4043707 62.4754988,35.1576065 C61.9335274,35.7040266 61.1284366,36.0290773 60.0008214,36.0290773 L58.8178697,36.0290773 L58.8178697,39.6766653 L56.8669896,39.6766653 L56.8669896,29.8263312 L59.7078639,29.8263312 L59.7078639,29.8263312 Z"/>
    <path fill="#F9C626" fill-rule="nonzero" d="M27.948365,34.7640823 C27.948365,34.7599514 27.9477683,34.7558206 27.9477683,34.7517171 C27.9477683,34.2017406 28.3898629,33.755473 28.9353607,33.755473 C29.4806957,33.755473 29.9227632,34.2017406 29.9227632,34.7517171 C29.9227632,35.2992862 29.484005,35.7437757 28.9415996,35.7471132 L28.9415996,37.0917705 C30.2203321,37.0882416 31.2559912,36.0421264 31.2559912,34.7517171 C31.2559912,33.4590919 30.2168058,32.4112533 28.9353607,32.4112533 C27.6536986,32.4112533 26.6146759,33.4590919 26.6146759,34.7517171 C26.6146759,34.7558206 26.6152455,34.7599514 26.6152455,34.7640823 L27.948365,34.7640823"/>
    <path fill="#054279" fill-rule="nonzero" d="M32.354582,33.0597954 C32.6033246,33.5704605 32.7432932,34.1444013 32.7432932,34.7516897 C32.7432932,36.8758999 31.0354593,38.5980506 28.9291489,38.5980506 C26.8226757,38.5980506 25.1150317,36.8758999 25.1150317,34.7516897 C25.1150317,32.7038865 26.7022919,31.0300475 28.7034088,30.9124143 L29.6545985,29.4436128 C29.4171944,29.4108122 29.1753146,29.3923466 28.9291489,29.3923466 C25.9941756,29.3923466 23.6152248,31.7917364 23.6152248,34.7516897 C23.6152248,37.71126 25.9941756,40.1106499 28.9291489,40.1106499 C31.8641494,40.1106499 34.243073,37.71126 34.243073,34.7516897 C34.243073,33.5975708 33.8801312,32.5294884 33.2646491,31.6546527 L32.354582,33.0597954"/>
  </g>
</svg>
