<svg xmlns="http://www.w3.org/2000/svg" width="57" height="15" viewBox="0 0 57 15">
  <g fill="none" fill-rule="evenodd" transform="translate(-7 -28)">
    <rect width="70" height="70"/>
    <polygon fill="#000" fill-rule="nonzero" points="7 28.256 21.96 28.256 21.96 42.998 7 42.998"/>
    <polygon fill="#FFF200" fill-rule="nonzero" points="7.433 28.682 21.527 28.682 21.527 42.572 7.433 42.572"/>
    <path fill="#000" fill-rule="nonzero" d="M8.18048295 39.7654255L10.0190568 41.6123404 14.326767 37.3054255 18.7785966 41.7010638 20.6440512 39.8806383 16.2369148 35.5382979 17.084142 34.7302128 17.084142 33.0074468 17.6159262 32.5635106 17.6159262 33.9131915 18.3008977 34.4637234 20.3464205 32.4479787 21.0041875 32.9452128C21.3918523 31.5332979 19.1478012 28.3274468 17.2914148 30.1035106L15.1283295 32.2169149 15.5700795 32.7409574 14.4705625 33.7976596 13.4073182 32.7674468 13.965983 32.2698936 11.5959489 30.0144681C9.81178409 28.5668085 7.98227841 30.7695745 7.919125 32.9184043L8.56782387 32.3857447 10.5592614 34.4994681 11.2711137 33.9135106 11.2711137 32.6168085 11.7125398 32.9452128 11.7125398 34.6414894 12.5775795 35.4939362 8.18048295 39.7654255 8.18048295 39.7654255zM24.1945682 28.7535106L24.1945682 28.7538298 26.5199091 28.7538298C28.5476193 28.7803191 29.2685398 31.3025532 27.3399318 32.2261702L29.006858 34.5438298 27.1323352 34.5438298 25.7805284 32.6611702 25.7805284 34.5438298 24.1945682 34.5438298 24.1945682 28.7535106zM25.7805284 30.0234043L25.7805284 31.302234 26.3391932 31.302234C27.1051307 31.1602128 26.897858 30.0767021 26.3391932 30.0234043L25.7805284 30.0234043zM31.1965 30.3696809C31.6291818 30.3696809 32.0346591 30.5117021 32.3679148 30.7424468L32.3679148 30.5206383 33.9179261 30.5206383 33.9269943 34.5435106 32.3588466 34.5435106 32.3679148 34.2948936C32.0346591 34.5256383 31.6291818 34.6590425 31.1965 34.6590425 30.0428977 34.6590425 29.096892 33.7 29.096892 32.5188298 29.096892 31.3376596 30.0432216 30.3696809 31.1965 30.3696809zM31.5300795 31.6485106C31.0164318 31.6485106 30.5928182 32.0391489 30.5928182 32.5188298 30.5928182 32.9981915 31.0164318 33.3891489 31.5300795 33.3891489 32.0524716 33.3891489 32.4760852 32.9981915 32.4760852 32.5188298 32.4760852 32.0391489 32.0527955 31.6485106 31.5300795 31.6485106zM34.7473409 30.5206383L36.3964545 30.5206383 36.3964545 34.5435106 34.7473409 34.5435106 34.7473409 30.5206383 34.7473409 30.5206383zM35.576108 28.2205319C36.0541307 28.2205319 36.4414716 28.6111702 36.4414716 29.0819149 36.4414716 29.5526596 36.0541307 29.9432979 35.576108 29.9432979 35.0896648 29.9432979 34.702 29.5523404 34.702 29.0819149 34.7023238 28.6114894 35.0896648 28.2205319 35.576108 28.2205319L35.576108 28.2205319zM48.0937615 30.5206383L49.742875 30.5206383 49.742875 34.5435106 48.0937615 34.5435106 48.0937615 30.5206383 48.0937615 30.5206383zM48.9137842 28.2205319C49.400551 28.2205319 49.7878921 28.6111702 49.7878921 29.0819149 49.7878921 29.5526596 49.400551 29.9432979 48.9137842 29.9432979 48.4360852 29.9432979 48.0487444 29.5523404 48.0487444 29.0819149 48.0487444 28.6114894 48.4360852 28.2205319 48.9137842 28.2205319L48.9137842 28.2205319zM36.7028295 30.5206383L36.7028295 31.7994681 37.2705625 31.7994681 37.2705625 34.5435106 38.8659148 34.5435106 38.8659148 31.7994681 40.3618408 31.7994681 40.3618408 34.5435106 42.0109546 34.5435106 42.0109546 31.7819149 43.03825 31.7819149 43.03825 30.5385106 41.9656135 30.5385106 41.9656135 29.6417021C41.9387329 29.3132979 42.7228069 29.1798936 42.9932329 29.446383L42.9932329 28.1318085C41.4791704 27.6610638 40.2536704 28.5048936 40.2624148 29.8102128L40.2624148 30.5206383 38.8565227 30.5206383 38.8565227 29.6417021C38.8383865 29.3132979 39.5236819 29.1798936 39.9197671 29.446383L39.9197671 28.1318085C38.6039092 27.7501064 37.1983408 28.3804255 37.2074092 29.8012766L37.2074092 30.5117021 36.7028295 30.5206383 36.7028295 30.5206383zM45.3901477 34.6590425C46.8051079 34.6501064 47.3275 34.0730851 47.634199 33.2292553L46.201426 33.2292553C45.5524033 34.0462766 44.606074 33.451383 44.6514148 32.7853191L47.6795398 32.7853191C47.6795398 31.1512766 46.7960398 30.378617 45.3904717 30.378617 43.9849033 30.378617 43.1017273 31.3555319 43.1017273 32.5456383 43.1017273 33.7357447 44.128699 34.6679787 45.3901477 34.6590425L45.3901477 34.6590425zM44.8583635 31.8352128C44.8765 31.3465957 45.9578806 31.3465957 46.0297783 31.8352128L44.8583635 31.8352128 44.8583635 31.8352128zM56.618824 34.6590425C58.0425283 34.6501064 58.5655681 34.0730851 58.8716194 33.2292553L57.4297783 33.2292553C56.7810796 34.0462766 55.83475 33.451383 55.8800908 32.7853191L58.9082158 32.7853191C58.9082158 31.1512766 58.0341079 30.378617 56.6191477 30.378617 55.2132556 30.378617 54.3304033 31.3555319 54.3304033 32.5456383 54.3304033 33.7357447 55.357051 34.6679787 56.618824 34.6590425L56.618824 34.6590425zM56.0870398 31.8352128C56.105176 31.3465957 57.1865569 31.3465957 57.2584546 31.8352128L56.0870398 31.8352128 56.0870398 31.8352128zM53.8973977 30.6007447L53.4106306 31.5776596C52.7978806 31.3909574 52.2029431 31.4267021 52.2210796 31.5952128 52.2392158 31.7018085 52.1401135 31.8881915 53.0951875 32.0215957 54.5188921 32.2434043 54.4019773 34.8543617 52.0138069 34.6590425 51.3560398 34.6146809 50.8242556 34.4458511 50.3828296 34.1882979L50.9146135 33.1402128C51.6627385 33.5043617 52.3833352 33.7175532 52.4374204 33.3534043 52.500574 32.9005319 51.6533467 33.0604255 51.139699 32.6784043 50.220574 32.1189362 50.7429658 30.387234 52.2482842 30.3693617 52.7797444 30.3342553 53.3296648 30.4229787 53.8973977 30.6007447L53.8973977 30.6007447zM59.5387783 30.5206383L59.5387783 34.5435106 61.0800454 34.5435106 61.0800454 32.0835106C61.1250625 31.4707447 62.3505625 31.3641489 62.3596306 32.0835106L62.3596306 34.5435106 63.9183865 34.5435106 63.9183865 32.0215957C63.8824375 30.6096809 62.3774431 29.9257447 61.0165681 30.8225532L61.0165681 30.5206383 59.5387783 30.5206383 59.5387783 30.5206383zM25.104625 37.0035106L27.6641193 36.9770213C28.9527727 36.9948936 29.5655227 38.6375532 28.3669034 39.73 29.7727955 40.5559574 28.9618409 42.9712766 26.9882159 42.9712766L24.0773295 42.9712766 25.104625 37.0035106zM26.285108 40.5645745L26.0778352 41.5504255 26.7537386 41.5504255C27.5196761 41.5858511 27.429642 40.5645745 26.9882159 40.5645745L26.285108 40.5645745zM26.6274318 38.4243617L26.4564318 39.2238298 26.6637045 39.2324468C27.2855227 39.2678723 27.645983 38.4243617 26.897858 38.4243617L26.6274318 38.4243617zM29.0246705 42.9802128L32.1697102 37.0389362 33.8369602 37.0389362 35.2515966 42.9980851 33.6206193 42.9980851 33.3233125 41.9321276 31.3228068 41.9321276 30.7910227 42.9802128 29.0246705 42.9802128zM31.899608 40.6801064L32.999125 40.6801064 32.647733 39.1079787 31.899608 40.6801064zM35.8105852 42.9980851L37.4418865 42.9980851 37.8561079 39.2592553 40.1901931 42.9802128 41.9384092 42.9802128 42.6683977 37.0031915 41.0374204 37.0031915 40.5778579 40.7420213 38.243449 36.9853191 36.5583863 36.9853191 35.8105852 42.9980851 35.8105852 42.9980851zM43.8401365 36.9856383L42.6956023 42.9802128 44.4169375 42.9802128 44.8765 40.7420213 46.4174431 42.9802128 48.6793069 42.9802128 46.4715283 39.8362766 49.2923806 36.9767021 47.1024148 36.9767021 45.1738069 39.0901064 45.4801819 36.9767021 43.8401365 36.9856383 43.8401365 36.9856383z"/>
  </g>
</svg>
