<svg xmlns="http://www.w3.org/2000/svg" width="53" height="19" viewBox="0 0 53 19">
  <g fill="none" fill-rule="evenodd" transform="translate(-9 -26)">
    <rect width="70" height="70"/>
    <path fill="#0B4A8E" fill-rule="nonzero" d="M9.03000993 43.231954L9.57299669 43.1775688C9.60563907 43.3593761 9.67197682 43.4927248 9.77183444 43.5781377 9.87186755 43.6633761 10.006649 43.7059083 10.1763543 43.7059083 10.3560629 43.7059083 10.4913709 43.6680826 10.5826291 43.5924312 10.6737119 43.5166056 10.7191656 43.4280551 10.7191656 43.3266056 10.7191656 43.2615871 10.7000364 43.2063303 10.6619536 43.1604862 10.6236954 43.1148165 10.5570066 43.0752477 10.4617119 43.0412569 10.3964272 43.0191192 10.247957 42.9793761 10.0161258 42.9222018 9.71760596 42.8489908 9.50841391 42.7586973 9.38802318 42.6514953 9.21884437 42.5008899 9.13425497 42.3171652 9.13425497 42.1003212 9.13425497 41.9610459 9.17409272 41.8304862 9.25394371 41.7091651 9.33361921 41.5876697 9.44874503 41.4951101 9.5987947 41.4316606 9.74901987 41.368211 9.93030795 41.3363119 10.1426589 41.3363119 10.4894404 41.3363119 10.750404 41.4121376 10.9257252 41.5634404 11.1010464 41.7149174 11.1930066 41.9169449 11.2017815 42.1696973L10.6424735 42.1914862C10.618606 42.0502935 10.5673609 41.948844 10.4887384 41.886789 10.4102914 41.8249083 10.2925331 41.7938807 10.1354636 41.7938807 9.97330464 41.7938807 9.84659603 41.827 9.75481126 41.8932386 9.69566887 41.9355964 9.66618543 41.9924221 9.66618543 42.0635413 9.66618543 42.1285596 9.69391391 42.1839908 9.74919536 42.2303578 9.81939404 42.2889266 9.99015232 42.3501101 10.2614702 42.4133853 10.5326126 42.4768348 10.7332053 42.5425505 10.8632483 42.6108808 10.9931159 42.6790366 11.094904 42.7722935 11.1684371 42.890477 11.2417947 43.0090092 11.278649 43.1550826 11.278649 43.3290459 11.278649 43.4869725 11.2345993 43.6346147 11.1465 43.7723212 11.0584007 43.9100275 10.9339735 44.0123486 10.773043 44.0792844 10.6121126 44.1462201 10.4115199 44.1798623 10.1712649 44.1798623 9.8216755 44.1798623 9.55316556 44.099156 9.3657351 43.9377431 9.17848013 43.7763303 9.06651325 43.5411835 9.03000993 43.231954M11.8583146 44.1307065L12.3942378 44.1307065 12.3942378 42.1425047 11.8583146 42.1425047 11.8583146 44.1307065zM11.8583146 41.8702294L12.3942378 41.8702294 12.3942378 41.3852936 11.8583146 41.3852936 11.8583146 41.8702294zM14.8729967 44.1307065L14.3410662 44.1307065 14.3410662 43.1137706C14.3410662 42.8986697 14.3296589 42.7595688 14.3071954 42.6964679 14.2845563 42.633367 14.248053 42.5840366 14.1973344 42.549 14.1466159 42.5141377 14.085543 42.4965321 14.0142914 42.4965321 13.9228576 42.4965321 13.8409007 42.521633 13.768245 42.5716605 13.6955894 42.6216881 13.6459238 42.6879266 13.6190728 42.7705504 13.5920464 42.853 13.5787086 43.005523 13.5787086 43.2282935L13.5787086 44.1307065 13.0467781 44.1307065 13.0467781 42.1425047 13.5402748 42.1425047 13.5402748 42.4346513C13.714894 42.2071743 13.9349669 42.093523 14.1999669 42.093523 14.3168477 42.093523 14.4237252 42.1146147 14.5204238 42.1564495 14.6171225 42.1982844 14.6903046 42.2517982 14.7399702 42.3168165 14.7896358 42.3818348 14.8242086 42.4555688 14.8436887 42.5381926 14.8631689 42.6206422 14.8729967 42.7388257 14.8729967 42.8925688L14.8729967 44.1307065M15.9487914 43.0937248C15.9487914 43.3053395 15.9895066 43.4603027 16.0712881 43.5584404 16.152894 43.6569266 16.2536291 43.7059083 16.3734934 43.7059083 16.5017815 43.7059083 16.6102384 43.6555321 16.6988642 43.5547799 16.7873146 43.4540275 16.8317152 43.3046422 16.8317152 43.1067982 16.8317152 42.9004129 16.789245 42.7470183 16.7044801 42.646789 16.6195397 42.5467339 16.5124868 42.4965321 16.3827947 42.4965321 16.2567881 42.4965321 16.152894 42.5458623 16.0712881 42.644 15.9895066 42.7424862 15.9487914 42.8922201 15.9487914 43.0937248zM15.4716159 44.2614404L16.074798 44.3268074C16.0849768 44.4008899 16.1083179 44.451789 16.1448212 44.4796788 16.1953642 44.5194221 16.2748642 44.5392935 16.3833212 44.5392935 16.5221391 44.5392935 16.6262086 44.5187248 16.6957053 44.4775871 16.7422119 44.4500459 16.7776622 44.4057706 16.8017053 44.3445871 16.8180265 44.3006605 16.8262748 44.2203027 16.8262748 44.1028165L16.8278543 43.8125871C16.6709603 44.0247248 16.471947 44.1307065 16.2304636 44.1307065 15.9610762 44.1307065 15.7480232 44.0177522 15.5907781 43.7913212 15.467404 43.612477 15.4058046 43.3897065 15.4058046 43.1233578 15.4058046 42.7893761 15.4865331 42.5343578 15.6481656 42.357954 15.809798 42.1817248 16.0109172 42.093523 16.2511722 42.093523 16.4989735 42.093523 16.7034272 42.2017706 16.8645331 42.4179174L16.8645331 42.1425047 17.3582053 42.1425047 17.3582053 43.9297248C17.3582053 44.1648716 17.3387252 44.3405779 17.2995894 44.4566697 17.2606291 44.5731101 17.2058742 44.6642752 17.1353245 44.7305138 17.0647748 44.7967522 16.9707086 44.8486973 16.8529503 44.8861743 16.7351921 44.9236513 16.5863709 44.942477 16.4064868 44.942477 16.0665497 44.942477 15.8254172 44.8842569 15.6830894 44.7679908 15.5407616 44.6517248 15.4696854 44.5042569 15.4696854 44.3255871 15.4696854 44.3079817 15.4703874 44.2867156 15.4716159 44.2614404L15.4716159 44.2614404z"/>
    <polygon fill="#0B4A8E" fill-rule="nonzero" points="17.995 44.131 18.531 44.131 18.531 41.385 17.995 41.385"/>
    <path fill="#0B4A8E" fill-rule="nonzero" d="M20.3792053,42.9704862 C20.3755199,42.8156973 20.3356821,42.698211 20.2596921,42.6175047 C20.1838775,42.5369725 20.0915662,42.4965321 19.9827583,42.4965321 C19.866404,42.4965321 19.7702318,42.5392386 19.6944172,42.6241284 C19.6184272,42.7090183 19.5812219,42.8245871 19.5824503,42.9704862 L20.3792053,42.9704862 Z M20.3518278,43.5044036 L20.8783179,43.5915596 C20.8102252,43.7831284 20.7026457,43.9292018 20.555755,44.0294312 C20.4088642,44.1298348 20.2249437,44.1798623 20.0043444,44.1798623 C19.6549305,44.1798623 19.3964238,44.0663853 19.2288245,43.8396056 C19.0963245,43.6579725 19.0301622,43.4287522 19.0301622,43.1515964 C19.0301622,42.8211009 19.1170331,42.5618991 19.2911258,42.3745138 C19.465043,42.1871284 19.6849404,42.093523 19.9508179,42.093523 C20.2496887,42.093523 20.4853808,42.1918348 20.6580695,42.3882844 C20.8307583,42.5850826 20.9132417,42.8861192 20.9056954,43.2919174 L19.573149,43.2919174 C19.5768344,43.4484495 19.6200066,43.5701192 19.7024901,43.6572752 C19.7849735,43.7440826 19.8878146,43.7876605 20.0110132,43.7876605 C20.0947252,43.7876605 20.1652748,43.7653486 20.2223113,43.7205504 C20.2793477,43.6759266 20.3226954,43.6037614 20.3518278,43.5044036 L20.3518278,43.5044036 Z"/>
    <polyline fill="#0B4A8E" fill-rule="nonzero" points="22.646 44.131 22.646 41.385 24.692 41.385 24.692 41.848 23.206 41.848 23.206 42.459 24.588 42.459 24.588 42.922 23.206 42.922 23.206 43.668 24.747 43.668 24.747 44.131 22.646 44.131"/>
    <path fill="#0B4A8E" fill-rule="nonzero" d="M26.6481224 44.1307065L26.6481224 43.8329817C26.5749404 43.9391377 26.4789437 44.0235047 26.3597814 44.0860826 26.2406193 44.1484862 26.1149636 44.1798623 25.982639 44.1798623 25.8476821 44.1798623 25.7269404 44.1504036 25.6197119 44.0916605 25.512659 44.0329174 25.4350894 43.9502935 25.3871787 43.8441377 25.3392682 43.7378074 25.3154007 43.5908623 25.3154007 43.4033027L25.3154007 42.1425047 25.8473312 42.1425047 25.8473312 43.0569449C25.8473312 43.3368899 25.8569834 43.5084129 25.876639 43.5713395 25.8961193 43.634789 25.9315695 43.6846422 25.9831655 43.7215964 26.0347616 43.7583761 26.1000464 43.7766788 26.1793709 43.7766788 26.2699271 43.7766788 26.3511821 43.7522752 26.4227848 43.7027706 26.494563 43.6534404 26.5435265 43.5922569 26.5700265 43.519046 26.5963509 43.4460092 26.6096888 43.2669908 26.6096888 42.9821652L26.6096888 42.1425047 27.1416193 42.1425047 27.1416193 44.1307065 26.6481224 44.1307065M28.3106027 44.1307065L27.7786722 44.1307065 27.7786722 42.1425047 28.2721688 42.1425047 28.2721688 42.4252386C28.3565827 42.2917156 28.4323973 42.2031652 28.4997881 42.1592386 28.5671787 42.1154862 28.6435199 42.093523 28.7291623 42.093523 28.849904 42.093523 28.9664338 42.1268165 29.0784007 42.1932294L28.9165928 42.6535871C28.8270894 42.5962386 28.7435529 42.567477 28.6666854 42.567477 28.5920993 42.567477 28.529096 42.5878716 28.4773245 42.6283119 28.4255529 42.6691009 28.3848377 42.7424862 28.3551787 42.8486422 28.3255199 42.9547982 28.3106027 43.1773944 28.3106027 43.5159083L28.3106027 44.1307065M29.8358444 43.1366056C29.8358444 43.3347982 29.8830529 43.4862752 29.9776457 43.5915596 30.0722384 43.696844 30.1887682 43.7494862 30.3275861 43.7494862 30.4662285 43.7494862 30.5825827 43.696844 30.6764735 43.5915596 30.7703643 43.4862752 30.8173973 43.3334036 30.8173973 43.1329449 30.8173973 42.9375413 30.7703643 42.7869357 30.6764735 42.6818257 30.5825827 42.5765413 30.4662285 42.5238991 30.3275861 42.5238991 30.1887682 42.5238991 30.0722384 42.5765413 29.9776457 42.6818257 29.8830529 42.7869357 29.8358444 42.9387614 29.8358444 43.1366056zM29.2928576 43.108367C29.2928576 42.9330092 29.3362054 42.7632294 29.4230762 42.5990275 29.5097715 42.435 29.6326193 42.3096697 29.7917946 42.223211 29.9507946 42.1367522 30.1285729 42.093523 30.3247782 42.093523 30.627861 42.093523 30.8761888 42.1914862 31.069937 42.3875871 31.2635099 42.5836881 31.3603841 42.8315596 31.3603841 43.1310275 31.3603841 43.4329357 31.262457 43.6834221 31.0669536 43.8819634 30.8714503 44.0805047 30.6252285 44.1798623 30.3284636 44.1798623 30.144894 44.1798623 29.9697484 44.1383761 29.803202 44.0559266 29.6364801 43.9731284 29.5097715 43.8519817 29.4230762 43.6921377 29.3362054 43.5322935 29.2928576 43.3379357 29.2928576 43.108367L29.2928576 43.108367zM33.6520199 41.8484404L33.6520199 42.632844 33.9566821 42.632844C34.1760529 42.632844 34.3227682 42.6185505 34.3968278 42.5896147 34.4707119 42.5606788 34.5288013 42.5153578 34.5707451 42.4536514 34.6126888 42.3921192 34.6337484 42.320477 34.6337484 42.2387248 34.6337484 42.1381469 34.6042648 42.0551743 34.545298 41.9898074 34.4863312 41.9244404 34.4117451 41.8836514 34.3215397 41.8672661 34.2550265 41.8547156 34.1216491 41.8484404 33.9208807 41.8484404L33.6520199 41.8484404zM33.0927119 44.1307065L33.0927119 41.3852936 33.988096 41.3852936C34.3273312 41.3852936 34.5486325 41.3992385 34.6516491 41.4266055 34.8099471 41.4677431 34.9424471 41.5575138 35.0493245 41.6955688 35.156202 41.8334496 35.2095529 42.0117706 35.2095529 42.2303578 35.2095529 42.3989174 35.178841 42.5404587 35.1172417 42.6556788 35.0558179 42.7703761 34.9775464 42.8606697 34.8827782 42.926211 34.7880099 42.9919266 34.6916623 43.035156 34.5937352 43.0564221 34.4605332 43.0827431 34.2678377 43.0958165 34.0156491 43.0958165L33.6520199 43.0958165 33.6520199 44.1307065 33.0927119 44.1307065 33.0927119 44.1307065zM36.8806325 43.1775688C36.8127152 43.2002294 36.7054868 43.2270734 36.5587715 43.2584495 36.4120563 43.2896513 36.3160596 43.3205047 36.2711325 43.3504862 36.2019868 43.3994679 36.1677648 43.461523 36.1677648 43.5366513 36.1677648 43.6107339 36.1951424 43.6745321 36.2502484 43.7285688 36.3055298 43.7824312 36.3757285 43.8094495 36.4611953 43.8094495 36.5564901 43.8094495 36.6472218 43.7780734 36.7339173 43.7154953 36.797798 43.6677339 36.8399173 43.6095138 36.8599238 43.5404862 36.8736126 43.4953395 36.8806325 43.4094036 36.8806325 43.2826788L36.8806325 43.1775688zM36.1677648 42.7471926L35.6905894 42.6600366C35.7446424 42.4674221 35.8376556 42.3250092 35.9696291 42.2324495 36.1017782 42.1398899 36.2979834 42.093523 36.5582451 42.093523 36.794639 42.093523 36.9708377 42.1214129 37.0864901 42.176844 37.2021424 42.2327982 37.2837484 42.3033944 37.3307814 42.3889817 37.3779901 42.4745688 37.4016821 42.6319725 37.4016821 42.860844L37.3962417 43.4761652C37.3962417 43.6511743 37.4046655 43.7805138 37.4215132 43.8634862 37.4385364 43.946633 37.4703013 44.0357065 37.5168079 44.1307065L36.9903179 44.1307065C36.9762782 44.096367 36.9594305 44.0452935 36.9392484 43.9776605 36.9304735 43.9468074 36.9241556 43.9265871 36.9206457 43.9166513 36.8300894 44.0043303 36.7333908 44.0702201 36.6303742 44.1141468 36.5273576 44.1578991 36.4176722 44.1798623 36.3007915 44.1798623 36.0947583 44.1798623 35.9322484 44.1240826 35.8136126 44.0128716 35.6949769 43.9014862 35.635659 43.7606422 35.635659 43.5905138 35.635659 43.4780826 35.6626854 43.3776788 35.716563 43.289477 35.7707915 43.2012752 35.846606 43.1336422 35.9440067 43.0867522 36.0415827 43.0400366 36.1821556 42.9987248 36.3657251 42.9636881 36.6133509 42.9174953 36.7849868 42.8744404 36.8806325 42.8343486L36.8806325 42.7811835C36.8806325 42.6786881 36.855361 42.6056513 36.8048179 42.5618991 36.7540993 42.5183212 36.6588047 42.4965321 36.5184072 42.4965321 36.423639 42.4965321 36.3497549 42.5151835 36.2965794 42.5521377 36.243404 42.5892661 36.2004072 42.6542844 36.1677648 42.7471926L36.1677648 42.7471926zM37.783563 42.1425047L38.3483112 42.1425047 38.8282946 43.5540826 39.2972218 42.1425047 39.8456491 42.1425047 39.0113377 44.4055964C38.9646556 44.5220366 38.9202549 44.6107614 38.8781357 44.6721192 38.8360166 44.7333027 38.787404 44.783156 38.7326491 44.821156 38.6777186 44.8593303 38.6106787 44.8893119 38.5306523 44.9104036 38.4506258 44.931844 38.3602451 44.942477 38.2595099 44.942477 38.1575464 44.942477 38.0571623 44.931844 37.9590596 44.9105779L37.9095695 44.4983303C37.9929305 44.5148899 38.068394 44.5229083 38.1352583 44.5229083 38.2593345 44.5229083 38.3507682 44.486477 38.4102616 44.4139634 38.4697549 44.3411009 38.5152085 44.2485413 38.546798 44.1362844L37.783563 42.1425047M40.2605231 42.1425047L40.7485794 42.1425047 40.7485794 42.4140826C40.9239007 42.2003761 41.1325662 42.093523 41.3747516 42.093523 41.5032152 42.093523 41.6148312 42.1196697 41.7094238 42.1721377 41.8040166 42.2247799 41.8815861 42.3042661 41.941957 42.4104221 42.0300563 42.3042661 42.1253509 42.2247799 42.227139 42.1721377 42.3292782 42.1196697 42.4379106 42.093523 42.5537384 42.093523 42.7011556 42.093523 42.8257583 42.123156 42.9277218 42.1827706 43.0296854 42.2418623 43.1060265 42.3291926 43.156394 42.4444129 43.1927218 42.5293027 43.2109735 42.6668348 43.2109735 42.8570092L43.2109735 44.1307065 42.679043 44.1307065 42.679043 42.9919266C42.679043 42.7942569 42.6607915 42.6668348 42.6244636 42.6093119 42.5753245 42.5340092 42.5000364 42.4965321 42.3984238 42.4965321 42.3241888 42.4965321 42.254341 42.5190183 42.1890563 42.5641652 42.1237715 42.6093119 42.0767384 42.6752018 42.047957 42.7621835 42.019 42.8489908 42.0044338 42.9863486 42.0044338 43.1739083L42.0044338 44.1307065 41.4725033 44.1307065 41.4725033 43.0389908C41.4725033 42.8448074 41.463202 42.72 41.4442484 42.663523 41.4254702 42.6072201 41.3963377 42.5653853 41.3566755 42.537844 41.3170132 42.510477 41.2634868 42.4965321 41.1955695 42.4965321 41.1139636 42.4965321 41.0404305 42.5184953 40.9751457 42.5622477 40.909861 42.606 40.8631787 42.6692752 40.8347484 42.7517248 40.8064933 42.8343486 40.7924536 42.9711835 40.7924536 43.1625779L40.7924536 44.1307065 40.2605231 44.1307065 40.2605231 42.1425047M45.0433345 42.9704862C45.0394735 42.8156973 44.9998112 42.698211 44.9236457 42.6175047 44.8480067 42.5369725 44.7555199 42.4965321 44.6467119 42.4965321 44.5305332 42.4965321 44.4341854 42.5392386 44.3585464 42.6241284 44.2825563 42.7090183 44.2453509 42.8245871 44.2465794 42.9704862L45.0433345 42.9704862zM45.015957 43.5044036L45.5424471 43.5915596C45.4741787 43.7831284 45.3667749 43.9292018 45.2198841 44.0294312 45.0728179 44.1298348 44.8890729 44.1798623 44.668298 44.1798623 44.3190596 44.1798623 44.0605529 44.0663853 43.8927782 43.8396056 43.7602782 43.6579725 43.6941159 43.4287522 43.6941159 43.1515964 43.6941159 42.8211009 43.7813377 42.5618991 43.9550794 42.3745138 44.1291722 42.1871284 44.348894 42.093523 44.6149471 42.093523 44.9138179 42.093523 45.1493345 42.1918348 45.3220231 42.3882844 45.4947119 42.5850826 45.5773709 42.8861192 45.5698245 43.2919174L44.2371027 43.2919174C44.2409636 43.4484495 44.2841357 43.5701192 44.3666193 43.6572752 44.4489271 43.7440826 44.5517682 43.7876605 44.6751424 43.7876605 44.7588543 43.7876605 44.8292285 43.7653486 44.8862648 43.7205504 44.9436523 43.6759266 44.9868245 43.6037614 45.015957 43.5044036L45.015957 43.5044036zM47.9370993 44.1307065L47.4051688 44.1307065 47.4051688 43.1137706C47.4051688 42.8986697 47.3937616 42.7595688 47.3714735 42.6964679 47.3488345 42.633367 47.3121556 42.5840366 47.261437 42.549 47.2107186 42.5141377 47.1496457 42.4965321 47.078394 42.4965321 46.9871357 42.4965321 46.9050033 42.521633 46.8325231 42.5716605 46.7598675 42.6216881 46.710202 42.6879266 46.6831755 42.7705504 46.6563245 42.853 46.6428112 43.005523 46.6428112 43.2282935L46.6428112 44.1307065 46.1108807 44.1307065 46.1108807 42.1425047 46.6043776 42.1425047 46.6043776 42.4346513C46.7791722 42.2071743 46.9990695 42.093523 47.2640695 42.093523 47.3809503 42.093523 47.4880033 42.1146147 47.5845265 42.1564495 47.6812251 42.1982844 47.7545827 42.2517982 47.8042484 42.3168165 47.8539139 42.3818348 47.8883112 42.4555688 47.9077915 42.5381926 47.9274471 42.6206422 47.9370993 42.7388257 47.9370993 42.8925688L47.9370993 44.1307065M49.5065662 42.1425047L49.5065662 42.5618991 49.1445166 42.5618991 49.1445166 43.3663487C49.1445166 43.529156 49.1478509 43.624156 49.1546953 43.651 49.1613643 43.6780183 49.1768079 43.700156 49.2008509 43.7177614 49.2250695 43.7351926 49.254202 43.7440826 49.2887749 43.7440826 49.3372119 43.7440826 49.4067085 43.7271743 49.4983179 43.6935321L49.5448245 44.1010734C49.4221523 44.1535413 49.2833345 44.1798623 49.1283709 44.1798623 49.0330762 44.1798623 48.9476092 44.1638257 48.8712682 44.1319266 48.7951027 44.1002018 48.7391193 44.0587156 48.7033179 44.0079908 48.6676921 43.9574404 48.6431224 43.8889357 48.6294338 43.8026514 48.6180265 43.7412935 48.6125861 43.6173578 48.6125861 43.4310183L48.6125861 42.5618991 48.3712782 42.5618991 48.3712782 42.1425047 48.6125861 42.1425047 48.6125861 41.7448991 49.1445166 41.4344495 49.1445166 42.1425047 49.5065662 42.1425047M49.8057881 43.5697706L50.3377186 43.4880183C50.3603576 43.5896422 50.4061623 43.6666881 50.4751325 43.7195047 50.5442782 43.7723212 50.6408013 43.7984679 50.7650529 43.7984679 50.9021159 43.7984679 51.0051325 43.773367 51.0741027 43.7231652 51.1206092 43.6877799 51.1439503 43.6408899 51.1439503 43.5816239 51.1439503 43.5415321 51.131139 43.5080643 51.1058675 43.4819174 51.0791921 43.4566422 51.0198742 43.4334587 50.927563 43.4120183 50.4977715 43.3177156 50.2252251 43.2317799 50.1104503 43.154211 49.9510993 43.0466605 49.8715993 42.8969266 49.8715993 42.7057065 49.8715993 42.532789 49.9402186 42.3875871 50.0779834 42.2701009 50.2159238 42.1524404 50.4295033 42.093523 50.7188973 42.093523 50.9944271 42.093523 51.1990563 42.1376239 51.3331357 42.2256513 51.4670397 42.3138531 51.5593509 42.4440643 51.6100695 42.6164587L51.110957 42.7090183C51.0893709 42.6317982 51.0483047 42.5723578 50.9879338 42.5312201 50.9273874 42.4899083 50.8412186 42.4693395 50.7294271 42.4693395 50.5883278 42.4693395 50.4870662 42.4886881 50.4261688 42.5279083 50.3852782 42.5554495 50.365096 42.5911835 50.365096 42.6351101 50.365096 42.6729357 50.3826457 42.7050092 50.418096 42.7315047 50.4660067 42.7665413 50.6318509 42.8162201 50.9152782 42.880367 51.1987054 42.9445138 51.3966655 43.022954 51.509159 43.1158623 51.6200729 43.2099908 51.6758807 43.3412477 51.6758807 43.5094587 51.6758807 43.6926605 51.5990132 43.8502386 51.4458047 43.9820183 51.2922451 44.1139725 51.0655033 44.1798623 50.7650529 44.1798623 50.4925067 44.1798623 50.2766457 44.124954 50.1176457 44.0156605 49.9586457 43.9060183 49.8547516 43.7576788 49.8057881 43.5697706M54.9132682 43.0468348L54.5268245 42.028156 54.1533675 43.0468348 54.9132682 43.0468348zM55.9390464 44.1307065L55.3367417 44.1307065 55.0977152 43.5098074 53.9836623 43.5098074 53.7558675 44.1307065 53.1639173 44.1307065 54.2346224 41.3852936 54.8228874 41.3852936 55.9390464 44.1307065 55.9390464 44.1307065zM56.8523312 44.1307065L56.3204007 44.1307065 56.3204007 42.1425047 56.8138973 42.1425047 56.8138973 42.4252386C56.8983112 42.2917156 56.9739503 42.2031652 57.0415166 42.1592386 57.1087318 42.1154862 57.1850729 42.093523 57.2708908 42.093523 57.3916325 42.093523 57.5079868 42.1268165 57.6201291 42.1932294L57.4583213 42.6535871C57.3686424 42.5962386 57.2852814 42.567477 57.2084139 42.567477 57.1336523 42.567477 57.0706491 42.5878716 57.0188776 42.6283119 56.967106 42.6691009 56.9263908 42.7424862 56.8969072 42.8486422 56.8670729 42.9547982 56.8523312 43.1773944 56.8523312 43.5159083L56.8523312 44.1307065M59.1562516 42.9704862C59.1523908 42.8156973 59.1125529 42.698211 59.0367384 42.6175047 58.9607484 42.5369725 58.868437 42.4965321 58.7598047 42.4965321 58.6432749 42.4965321 58.5472782 42.5392386 58.4714636 42.6241284 58.3954735 42.7090183 58.3580928 42.8245871 58.3594967 42.9704862L59.1562516 42.9704862zM59.1288742 43.5044036L59.6553643 43.5915596C59.5872715 43.7831284 59.4796921 43.9292018 59.3328013 44.0294312 59.1859106 44.1298348 59.0019901 44.1798623 58.7813908 44.1798623 58.4319769 44.1798623 58.1732946 44.0663853 58.0056953 43.8396056 57.8731953 43.6579725 57.8070332 43.4287522 57.8070332 43.1515964 57.8070332 42.8211009 57.8940794 42.5618991 58.0681722 42.3745138 58.2419139 42.1871284 58.4619868 42.093523 58.7278643 42.093523 59.0265596 42.093523 59.2622516 42.1918348 59.4351159 42.3882844 59.6076291 42.5850826 59.6902881 42.8861192 59.6827417 43.2919174L58.3500199 43.2919174C58.3538807 43.4484495 58.3970529 43.5701192 58.479361 43.6572752 58.5620199 43.7440826 58.664861 43.7876605 58.7878841 43.7876605 58.8717715 43.7876605 58.9421457 43.7653486 58.9993576 43.7205504 59.056394 43.6759266 59.0995662 43.6037614 59.1288742 43.5044036L59.1288742 43.5044036zM61.3315332 43.1775688C61.2637915 43.2002294 61.1563874 43.2270734 61.0096722 43.2584495 60.862957 43.2896513 60.7671357 43.3205047 60.7220332 43.3504862 60.6528874 43.3994679 60.6186655 43.461523 60.6186655 43.5366513 60.6186655 43.6107339 60.646043 43.6745321 60.7013245 43.7285688 60.7564305 43.7824312 60.8266291 43.8094495 60.912096 43.8094495 61.0073908 43.8094495 61.0981224 43.7780734 61.1848179 43.7154953 61.2486987 43.6677339 61.2908179 43.6095138 61.3108245 43.5404862 61.3245132 43.4953395 61.3315332 43.4094036 61.3315332 43.2826788L61.3315332 43.1775688zM60.6186655 42.7471926L60.1414901 42.6600366C60.195543 42.4674221 60.2885563 42.3250092 60.4205298 42.2324495 60.5526787 42.1398899 60.7488841 42.093523 61.0091457 42.093523 61.2455397 42.093523 61.4217384 42.1214129 61.5373908 42.176844 61.653043 42.2327982 61.7346491 42.3033944 61.7816821 42.3889817 61.8288908 42.4745688 61.8525827 42.6319725 61.8525827 42.860844L61.8471424 43.4761652C61.8471424 43.6511743 61.8555662 43.7805138 61.8724139 43.8634862 61.889437 43.946633 61.921202 44.0357065 61.9675332 44.1307065L61.4412186 44.1307065C61.4271787 44.096367 61.4105067 44.0452935 61.3901491 43.9776605 61.3815497 43.9468074 61.3750563 43.9265871 61.3715464 43.9166513 61.2809901 44.0043303 61.1844668 44.0702201 61.0814503 44.1141468 60.9784338 44.1578991 60.8685729 44.1798623 60.7516921 44.1798623 60.545659 44.1798623 60.3831491 44.1240826 60.2645132 44.0128716 60.1460529 43.9014862 60.0867352 43.7606422 60.0867352 43.5905138 60.0867352 43.4780826 60.1135861 43.3776788 60.167639 43.289477 60.2216921 43.2012752 60.2975067 43.1336422 60.3949072 43.0867522 60.4924834 43.0400366 60.6330563 42.9987248 60.8166258 42.9636881 61.0642516 42.9174953 61.2358874 42.8744404 61.3315332 42.8343486L61.3315332 42.7811835C61.3315332 42.6786881 61.3062616 42.6056513 61.2557186 42.5618991 61.2051755 42.5183212 61.1097054 42.4965321 60.9693079 42.4965321 60.8745397 42.4965321 60.8006556 42.5151835 60.7474801 42.5521377 60.6944801 42.5892661 60.6513079 42.6542844 60.6186655 42.7471926L60.6186655 42.7471926zM20.7767053 30.5976514L17.1548046 30.5976514C17.1548046 30.0072569 17.084957 29.6110459 16.9459636 29.409367 16.7304536 29.110945 16.1355199 28.9615596 15.1618642 28.9615596 14.2162881 28.9615596 13.5894139 29.0474954 13.2835232 29.2195413 12.9778079 29.3921101 12.8247748 29.7674037 12.8247748 30.3452477 12.8247748 30.8683578 12.9602583 31.2127982 13.2319272 31.3778716 13.426553 31.4950092 13.6836556 31.5638624 14.0042881 31.5844312L14.7347053 31.6356789C16.3001358 31.7388716 17.2778278 31.8115596 17.6677815 31.8528716 18.9057351 31.9768073 19.8032252 32.3038165 20.3600762 32.8337248 20.7982914 33.2471927 21.059606 33.7875596 21.1429669 34.4548257 21.191755 34.854 21.2159735 35.3056422 21.2159735 35.8074862 21.2159735 36.9642202 21.1048841 37.8113761 20.8823543 38.3482569 20.4790629 39.3332936 19.573149 39.9554128 18.1635596 40.2167064 17.5730132 40.3272202 16.6695563 40.3824771 15.4544172 40.3824771 13.4260265 40.3824771 12.0124007 40.2625505 11.2142417 40.0214771 10.2346192 39.7261927 9.58879139 39.1279541 9.27623179 38.2271101 9.10213907 37.7256147 9.0159702 36.8904862 9.0159702 35.7213761L12.6378709 35.7213761C12.6378709 35.8517615 12.6382219 35.9514679 12.6382219 36.0201468 12.6382219 36.6440092 12.8188079 37.0452752 13.1791026 37.223945 13.4288344 37.3471835 13.7303378 37.4118532 14.0848411 37.4195229L15.4163344 37.4195229C16.0958576 37.4195229 16.5295099 37.3850092 16.7165894 37.315633 17.0495066 37.1855963 17.268 36.9762477 17.3724205 36.6865413 17.4278775 36.5082202 17.4554305 36.2774312 17.4554305 35.9950459 17.4554305 35.3624679 17.2228974 34.9775872 16.7587086 34.8395321 16.5851424 34.7849725 15.7775066 34.7089725 14.3359768 34.612578 13.1784007 34.5304771 12.3742748 34.4515138 11.9239503 34.3749908 10.7381192 34.1546606 9.94785762 33.7016239 9.55351656 33.013789 9.2069106 32.4293211 9.03351987 31.5450367 9.03351987 30.362156 9.03351987 29.4613119 9.1272351 28.7389633 9.31449007 28.195633 9.50192053 27.6521284 9.80395033 27.2395321 10.220755 26.9573211 10.8313079 26.524156 11.6126192 26.2698349 12.5636358 26.1938349 13.3549503 26.1253303 14.2327848 26.0902936 15.1983676 26.0902936 16.7185199 26.0902936 17.8018609 26.1771009 18.4476887 26.3491468 20.0238245 26.7697615 20.8118046 27.9479358 20.8118046 29.8840183 20.8118046 30.0428165 20.8000464 30.2802294 20.7767053 30.5976514M40.5973013 33.3397523L43.0244206 33.3397523C43.7939735 33.312211 44.2620231 33.2534679 44.4305 33.1614312 44.6605762 33.0357523 44.8150132 32.7842202 44.8918807 32.4068349 44.9410199 32.1556514 44.9655894 31.7822752 44.9655894 31.2861835 44.9655894 30.6785321 44.9168013 30.2281101 44.8186987 29.9338716 44.6786523 29.5217982 44.3432782 29.270789 43.8120497 29.1796239 43.7071027 29.1658532 43.4556159 29.1585321 43.0572384 29.1585321L40.5973013 29.1585321 40.5973013 33.3397523zM36.7040827 40.3824771L36.7040827 26.0142936 43.9575364 26.0142936C44.9524271 26.0142936 45.7116258 26.095 46.233202 26.2562385 47.4262285 26.6275229 48.2266688 27.3876972 48.6366291 28.5365872 48.8482782 29.1395321 48.9541027 30.0473486 48.9541027 31.2595138 48.9541027 32.7169358 48.8366953 33.7643761 48.6045132 34.4020092 48.1392715 35.6629817 47.1815861 36.3893394 45.7354933 36.5775963 45.565437 36.6058349 44.8418643 36.6311101 43.5647749 36.6513303L42.9184206 36.6727706 40.5973013 36.6727706 40.5973013 40.3824771 36.7040827 40.3824771 36.7040827 40.3824771zM56.4915099 35.1001284L54.6673973 28.871789 52.8971623 35.1001284 56.4915099 35.1001284zM57.2647484 37.8992294L52.059341 37.8992294 51.3599868 40.3824771 47.3319868 40.3824771 51.6783377 26.0142936 57.551159 26.0142936 61.950861 40.3824771 58.0074503 40.3824771 57.2647484 37.8992294 57.2647484 37.8992294z"/>
    <path fill="#F6BC25" fill-rule="nonzero" d="M31.3305497,28.035789 C32.9363444,28.035789 34.3694503,28.7705138 35.3115166,29.9213211 L36.1507417,28.1341009 C34.838202,26.9018899 33.0518213,26.1422385 31.0815199,26.1422385 C28.0138377,26.1422385 25.3896357,27.9824495 24.3126126,30.587367 L22.676106,30.587367 L21.7098212,32.644945 L23.8150795,32.644945 C23.7992848,32.8358165 23.789106,33.0268624 23.789106,33.2217431 C23.789106,33.4575872 23.8013907,33.6906422 23.8249073,33.9209083 L22.7668378,33.9209083 L21.8007285,35.9791835 L24.3628046,35.9791835 C25.4705397,38.518211 28.0619238,40.3007248 31.0815199,40.3007248 C32.6032516,40.3007248 34.015298,39.8478624 35.184457,39.0742661 L35.184457,36.5517982 C34.2429173,37.6164954 32.8657946,38.2893394 31.3305497,38.2893394 C29.5359206,38.2893394 27.9573278,37.3701927 27.0380762,35.9791835 L32.4031854,35.9791835 L33.3692946,33.9209083 L26.2486921,33.9209083 C26.2120132,33.673211 26.1923576,33.4201101 26.1923576,33.1623027 C26.1923576,32.9879908 26.2014834,32.815422 26.2183312,32.644945 L33.9680894,32.644945 L34.9341987,30.587367 L26.8885529,30.587367 C27.7783213,29.0621376 29.4341325,28.035789 31.3305497,28.035789"/>
    <path fill="#0B4A8E" fill-rule="nonzero" d="M26.8885529,30.6492477 L34.9341987,30.6492477 L34.8778643,30.5612202 L33.912106,32.6189725 L33.9680894,32.5834128 L26.1623477,32.5834128 L26.1563807,32.639367 C26.1390067,32.8129817 26.1302318,32.9890367 26.1302318,33.1623027 C26.1302318,33.4167982 26.1495364,33.6754771 26.1872682,33.9301468 L26.195341,33.9829633 L33.3692946,33.9829633 L33.3133112,33.8951101 L32.3470265,35.9528624 L32.4031854,35.9173027 L26.9227749,35.9173027 L26.9861291,36.0124771 C27.9529404,37.4770459 29.5771623,38.3501743 31.3305497,38.3501743 C32.821043,38.3501743 34.2429173,37.7099266 35.2314901,36.5924128 L35.1223312,36.5517982 L35.1223312,39.0742661 L35.1497085,39.023367 C33.9475563,39.8184037 32.5411258,40.238844 31.0815199,40.238844 C28.1698543,40.238844 25.5551291,38.5570826 24.4201921,35.9542569 L24.4036954,35.9173027 L21.8007285,35.9173027 L21.8575894,36.0055046 L22.8233477,33.947055 L22.7668378,33.9829633 L23.893351,33.9829633 L23.8865066,33.914633 C23.8631656,33.6821009 23.8510563,33.4485229 23.8510563,33.2217431 C23.8510563,33.0472569 23.8596556,32.8602202 23.8770298,32.6503486 L23.8824702,32.5834128 L21.7098212,32.5834128 L21.7658046,32.6714404 L22.7322649,30.6133394 L22.676106,30.6492477 L24.3543808,30.6492477 L24.37,30.6108991 C24.901755,29.3248257 25.8062648,28.2284037 26.9852516,27.4392936 C28.1928444,26.6315321 29.6096291,26.2044679 31.0815199,26.2044679 C32.9665298,26.2044679 34.7513312,26.9052018 36.1079206,28.1787248 L36.0940563,28.1076055 L35.2553576,29.8953486 L35.3597782,29.8824495 C34.3664668,28.6695872 32.8982616,27.9739083 31.3305497,27.9739083 C29.4864305,27.9739083 27.764106,28.9634771 26.8343245,30.5565138 L26.7802715,30.6492477 L26.8885529,30.6492477 Z M31.3305497,28.0974954 C32.8607054,28.0974954 34.2939868,28.7766147 35.2630794,29.960367 L35.3257318,30.0368899 L35.368202,29.9476422 L36.2070762,28.1602477 L36.2258543,28.119633 L36.193563,28.0889541 C34.8139834,26.7938165 32.9984702,26.0807064 31.0815199,26.0807064 C29.5847085,26.0807064 28.1442318,26.5150917 26.9157549,27.3371468 C25.7162352,28.1395046 24.7962815,29.2556239 24.2555762,30.5640092 L24.3126126,30.5256606 L22.6362682,30.5256606 L22.619596,30.5612202 L21.6124205,32.707 L23.8150795,32.707 L23.7531291,32.6400642 C23.735404,32.8535963 23.7269801,33.0435963 23.7269801,33.2217431 C23.7269801,33.4527064 23.7387384,33.6902936 23.7627815,33.9270092 L23.8249073,33.8595505 L22.7275265,33.8595505 L22.7108543,33.8951101 L21.744394,35.9528624 L21.7035033,36.0407156 L24.3628046,36.0407156 L24.3059437,36.0034128 C25.4608874,38.651211 28.1205397,40.3624312 31.0815199,40.3624312 C32.5658709,40.3624312 33.9961688,39.9350183 35.2188543,39.1258624 L35.2464072,39.1075596 L35.2464072,36.3877706 L35.1377749,36.5110092 C34.1730695,37.6016789 32.7854173,38.2271101 31.3305497,38.2271101 C29.6189305,38.2271101 28.0336688,37.3738532 27.0898477,35.944844 L27.0380762,36.0407156 L32.4428477,36.0407156 L32.4595199,36.0055046 L33.4258047,33.947055 L33.4670464,33.8595505 L26.2486921,33.8595505 L26.3104668,33.9120183 C26.2736126,33.6629266 26.254659,33.4108716 26.254659,33.1623027 C26.254659,32.9930459 26.2632583,32.8213486 26.280457,32.6512202 L26.2183312,32.707 L34.0082782,32.707 L34.0245993,32.6714404 L34.9907085,30.6133394 L35.0323013,30.5256606 L26.8885529,30.5256606 L26.941904,30.6182202 C27.8492218,29.0633578 29.5310067,28.0974954 31.3305497,28.0974954 L31.3305497,28.0974954 Z"/>
  </g>
</svg>
