<svg xmlns="http://www.w3.org/2000/svg" width="62" height="19" viewBox="0 0 62 19">
  <g fill="none" fill-rule="evenodd" transform="translate(-4 -26)">
    <rect width="70" height="70"/>
    <path fill="#4EAD33" fill-rule="nonzero" d="M8.63233431 44.9988343C8.57901012 44.9838364 8.52613085 44.9670641 8.47230941 44.9541125 7.60410005 44.7451643 7.01031068 43.9739223 7.03975347 43.0927342 7.06867286 42.2268678 7.70979317 41.4959312 8.57605277 41.3411984 9.6252634 41.1537887 10.6230473 41.8730688 10.7563643 42.9129141 10.8834525 43.904165 10.2317197 44.7905078 9.24012536 44.9758064 9.2199734 44.9795624 9.20128705 44.9909857 9.18193331 44.9988343L8.63233431 44.9988343zM14.9658084 44.9988344C14.8995032 44.9813756 14.8333158 44.9634635 14.7668797 44.9465487 13.9137974 44.7294281 13.3386551 43.9563599 13.3709637 43.0700171 13.4018328 42.2231895 14.0483183 41.4937812 14.9027484 41.3417682 15.9331418 41.1584254 16.9191224 41.8447955 17.0812541 42.8582325 17.241436 43.8596374 16.5827678 44.7839284 15.5730891 44.9754697 15.5530941 44.9792645 15.534604 44.9908821 15.5154073 44.9988344L14.9658084 44.9988344zM12.0586064 33.9122256C11.4784916 33.9122256 10.8983767 33.9117205 10.3182619 33.9129768 10.257806 33.9130933 10.1957013 33.9167457 10.137313 33.9307593 10.0495734 33.9518316 10.0193586 33.988653 10.0185473 34.0770865 10.0159563 34.357683 10.0161264 34.6383183 10.018652 34.9189018 10.0193455 34.9952903 10.0506857 35.0274751 10.1265304 35.0424471 10.1645705 35.049959 10.2045604 35.0495575 10.2436866 35.0496871 10.4443164 35.0503346 10.6449593 35.0499979 10.8456021 35.0499979 10.9197457 35.0499979 10.9939154 35.0490265 11.0680458 35.050231 11.2013105 35.052381 11.2206773 35.071381 11.2231505 35.1987729 11.2237393 35.2289761 11.2232813 35.2592051 11.2232944 35.2894342 11.2232944 36.2953074 11.2232421 37.3011806 11.2234384 38.3070538 11.2234515 38.3588343 11.2216456 38.4110681 11.2276781 38.4622787 11.2377279 38.5475003 11.2727976 38.5840108 11.3564021 38.6032699 11.3902417 38.6110797 11.4252328 38.6183067 11.4597136 38.6184362 11.82169 38.6198479 12.1838888 38.6274505 12.5455772 38.6174648 12.8034962 38.6103414 12.8308322 38.5298084 12.8221171 38.324396 12.8210179 38.2985316 12.8219601 38.2725896 12.8219601 38.2466864 12.8219732 37.2365003 12.82179 36.2263012 12.8221957 35.2161151 12.822248 35.0700211 12.8412615 35.0507879 12.9869183 35.0502958 13.279161 35.0493115 13.5713907 35.0502958 13.8636334 35.0496482 13.9070779 35.0495575 13.9514907 35.0498813 13.9937575 35.0415534 14.0692881 35.026698 14.1001442 34.9939174 14.1008246 34.917231 14.103324 34.6366346 14.1035595 34.3559992 14.1007984 34.0754157 14.0999479 33.9889897 14.0672991 33.9505494 13.9800306 33.930047 13.9215376 33.9163053 13.859446 33.9130415 13.7989508 33.9129249 13.218836 33.9117334 12.6387212 33.9121997 12.0586064 33.9122256L12.0586064 33.9122256zM15.0966064 31.994974C15.0984384 31.9630872 15.1007022 31.9422092 15.1007022 31.9213183 15.10082 31.4337811 15.1067871 30.9461145 15.0975224 30.4587327 15.0939369 30.2703128 15.0722408 30.0788752 15.0307199 29.8950143 14.6735853 28.3137143 13.1536954 27.3115064 11.5408318 27.5876346 10.1468917 27.8262808 9.08835099 29.0234491 9.04870134 30.417987 9.0344772 30.9180742 9.04164816 31.4187573 9.03961987 31.9191683 9.03952829 31.9432712 9.044985 31.9673742 9.04826952 31.994974L15.0966064 31.994974zM4.04087315 33.0864314C4.04070304 32.9808241 4.04054601 32.8752167 4.04036281 32.7695964 4.09392254 32.4720074 4.27763255 32.2774226 4.54463297 32.1512999 4.79402005 32.0335051 5.06129527 32.0005044 5.33376551 32.0000252 5.95740334 31.9989372 6.58102807 31.9996755 7.20466589 31.9996755L7.35749366 31.9996755C7.35749366 31.9449031 7.35748059 31.90294 7.35749366 31.8609768 7.35751985 31.4768193 7.35580561 31.0926489 7.35791241 30.7085044 7.36463845 29.4825316 7.77346159 28.4074451 8.61586598 27.5061819 9.36753419 26.702004 10.2965528 26.2095841 11.3953974 26.062428 12.9159154 25.858777 14.2442307 26.2838875 15.3548132 27.3310374 16.1040082 28.0374566 16.5541822 28.9100061 16.7230399 29.9223292 16.7764688 30.2426611 16.7893189 30.5645603 16.7795177 30.8893217 16.7689707 31.2386264 16.7764295 31.5884751 16.776508 31.9380906 16.776508 31.9544096 16.7811535 31.9707286 16.7855502 31.9996755L16.9291395 31.9996755C17.5527643 31.9996755 18.1764021 31.9991315 18.8000399 31.9999734 19.0232425 32.0002712 19.2443645 32.0196468 19.4563396 32.0953619 19.5257461 32.1201642 19.5954012 32.1470129 19.6600315 32.1818657 20.0105971 32.3709461 20.1758955 32.6913169 20.1007051 33.0798002 20.0187887 33.5029938 19.9183953 33.9227423 19.8235895 34.3434362 19.5050053 35.756974 19.1852826 37.1702528 18.8660834 38.5836611 18.760652 39.0505534 18.661397 39.5189352 18.5485329 39.984092 18.4297672 40.4734941 18.1354569 40.8044723 17.6261226 40.9178636 17.5123426 40.943184 17.3929356 40.9542058 17.2761197 40.9542706 13.8090792 40.9561356 10.3420255 40.95655 6.874985 40.9532733 6.72431639 40.9531308 6.56824336 40.9342474 6.42402597 40.8925173 5.96645863 40.7601131 5.70475792 40.4369447 5.59829274 39.9897389 5.45246581 39.3772317 5.31828514 38.7620047 5.17976002 38.1477879 4.86096644 36.7343278 4.54247383 35.3208029 4.22409899 33.9072392 4.16249156 33.6337532 4.1019179 33.360047 4.04087315 33.0864314L4.04087315 33.0864314z"/>
    <path fill="#050406" fill-rule="nonzero" d="M21.8547215,32.3971472 C21.8570377,32.1379209 21.9379203,32.0459256 22.1944129,32.0164219 C22.272142,32.0074853 22.3507477,32.0019031 22.4289609,32.0018513 C23.5366253,32.0009188 24.6443028,32.0012167 25.7519672,32.0012167 C26.8596316,32.0012167 27.967296,32.0007116 29.0749736,32.0021233 C29.1704991,32.0022528 29.2668097,32.0097389 29.3613801,32.0232603 C29.5489504,32.0500831 29.6402099,32.1501731 29.6411653,32.336702 C29.6437953,32.8589365 29.6436776,33.3812228 29.6412174,33.9034703 C29.6403669,34.0847538 29.5638287,34.1600415 29.3793859,34.1725916 C29.3055564,34.1776298 29.2312299,34.1765678 29.1571123,34.1766066 C28.6120148,34.1769045 28.0668912,34.176244 27.5217806,34.1775003 C27.4612855,34.1776427 27.4002277,34.1845589 27.3404653,34.1944669 C27.2612184,34.2076128 27.2205088,34.2606884 27.2135864,34.337595 L27.2100926,40.4621874 C27.2100533,40.5350272 27.2030132,40.6084887 27.1918119,40.6805514 C27.1743948,40.7926993 27.1062053,40.8710695 26.9987849,40.9041608 C26.9124193,40.9307505 26.8207409,40.9544389 26.7312741,40.9549181 C26.0117967,40.9587907 25.2922931,40.9570551 24.5727895,40.9561356 C24.5338988,40.9560838 24.4945632,40.9505794 24.456196,40.9435466 C24.2343804,40.9028527 24.1620166,40.8179938 24.1553167,40.5924417 C24.154283,40.5579515 24.1551335,40.5233837 24.1551335,40.4888547 L24.1550812,34.454807 C24.1540605,34.2248513 24.106494,34.1776945 23.8687401,34.1770081 C23.5416764,34.1760626 23.2146126,34.176775 22.8875489,34.176775 C22.6782171,34.176762 22.4688984,34.1770729 22.2595666,34.1765418 C22.2072893,34.1763994 22.1547371,34.1763476 22.1027739,34.171426 C21.9419638,34.1562078 21.8786553,34.0949986 21.8603484,33.9377661 L21.8547215,32.3971472 Z"/>
    <path fill="#040405" fill-rule="nonzero" d="M39.9130251 34.3801138C39.7408697 34.3985828 39.6282019 34.4865372 39.5932499 34.6549727 39.56895 34.7719516 39.5627342 34.8942665 39.5624854 35.0142372L39.5376881 38.2887519C39.4859604 38.5365419 39.2978144 38.6808357 39.0410078 38.6776108 38.8006105 38.674606 38.6461077 38.5430048 38.5965523 38.2868609L38.5719641 34.9220736C38.5723438 34.7431343 38.502584 34.6047335 38.3599368 34.5007451 38.2443769 34.4165208 38.1132716 34.3755678 37.9691719 34.3756196 37.3890702 34.3758528 36.8089685 34.3760341 36.2288668 34.3755419 36.0378549 34.3753865 35.9069195 34.4671486 35.825592 34.6327996 35.7655154 34.7551534 35.74484 34.8860941 35.7448924 35.0217491 35.7455074 36.3815896 35.745285 37.7414301 35.7452457 39.1012836 35.7452457 39.3224063 35.7730136 39.5406019 35.8292821 39.7539795 35.9583855 40.2435889 36.2327793 40.6186285 36.7136915 40.824002 36.9781402 40.936953 37.2586713 40.9759243 37.5432326 40.9767791 38.5943801 40.9799134 39.6455535 40.9791752 40.6967139 40.9771677 40.943353 40.9767014 41.1817088 40.9292597 41.4033803 40.8167232 41.7958463 40.6174758 42.0267566 40.2895931 42.1562787 39.8829257 42.25696 39.5667512 42.2788917 39.2405133 42.2784598 38.9114908L42.2624035 34.7941377C42.2299119 34.5915876 42.1145091 34.4556476 41.9115108 34.4058098 41.8280112 34.3853204 41.7394601 34.3773163 41.653147 34.3769277L39.9130251 34.3801138zM61.5768458 34.9092839C61.5207865 34.7506397 61.4346827 34.6140392 61.3032762 34.5072791 61.2107212 34.4320692 61.1084042 34.3761183 60.9842733 34.3760924 60.2865442 34.3759888 59.5888285 34.3757038 58.8911255 34.3781776 58.8268487 34.3784107 58.760321 34.3903521 58.6988575 34.4094945 58.5756427 34.4478831 58.5200938 34.5278333 58.5363725 34.6549663 58.5466185 34.7347611 58.5733135 34.8143228 58.603947 34.889455 59.3918234 36.8208497 60.1807073 38.7518299 60.9719072 40.6818776 61.0058777 40.7647549 61.0032345 40.8334373 60.9683742 40.9145143 60.6788794 41.5876738 60.3929572 42.2623487 60.1065376 42.9368163 60.0846844 42.988273 60.0630799 43.040455 60.0483979 43.0941912 60.0069031 43.2461265 60.0559089 43.337241 60.2119821 43.3753187 60.3039743 43.3977379 60.4013974 43.4061694 60.4964781 43.4068688 60.9368899 43.4100419 61.3773542 43.4067522 61.8177663 43.4091094 61.9798587 43.4099901 62.1139216 43.3523296 62.2299263 43.2440283 62.3463496 43.1353643 62.4253349 43.0031026 62.4873349 42.858757 63.6339684 40.1892505 64.7810601 37.5199383 65.9271833 34.8501987 65.9489319 34.799545 65.9599631 34.7443712 65.976006 34.6912955 65.9751947 34.6303064 65.9743966 34.5693173 65.9735983 34.5083282 65.9494944 34.4438033 65.8922184 34.4170971 65.8330579 34.4065934 65.7393644 34.3899376 65.6435381 34.3775429 65.5485359 34.3769731 65.0732242 34.3740978 64.5977426 34.3823739 64.1226405 34.3726731 63.9003147 34.3681401 63.7324644 34.4529601 63.6038714 34.6184557 63.5358912 34.7059697 63.4788114 34.8058265 63.4364008 34.9080535L62.4506558 37.326014 61.5768458 34.9092839z"/>
    <path fill="#050406" fill-rule="nonzero" d="M46.9747477 34.1314029C47.3200006 34.1413886 47.7564215 34.1443934 48.1867314 34.2246156 48.2975934 34.2452864 48.405956 34.2789346 48.5157448 34.3054854 48.6168187 34.329938 48.6637441 34.3924813 48.682064 34.4946954 48.713221 34.6685188 48.6986173 34.8411248 48.6690438 35.0099619 48.6320243 35.2212155 48.5759128 35.4297492 48.5171318 35.6364179 48.4940618 35.7175079 48.4455007 35.7927308 48.4011928 35.8663089 48.3576565 35.9385917 48.2905793 35.9715665 48.2018321 35.9593143 48.0336156 35.9360662 47.8648494 35.9167035 47.6964498 35.894647 47.3464076 35.8487983 46.9965093 35.7963314 46.6419787 35.828801 46.5608211 35.8362223 46.4764186 35.8526061 46.4025237 35.884998 46.2410723 35.9558303 46.2207765 36.1171037 46.3633581 36.2199653 46.4751362 36.300602 46.598796 36.3670178 46.7226912 36.4289135 46.9556426 36.5452707 47.1954249 36.6483654 47.4272379 36.7668078 47.7966075 36.9555386 48.1436924 37.1775808 48.4354773 37.4753252 48.906549 37.9559851 49.1076761 38.5298188 49.0505571 39.1970205 49.0240847 39.5063177 48.9547568 39.8012905 48.7986051 40.0719142 48.5575012 40.4898106 48.1828841 40.7434159 47.7360601 40.9049612 47.4105668 41.0226524 47.072223 41.0847683 46.7283313 41.1094929 45.7518638 41.1797294 44.7872783 41.0901432 43.8331745 40.8799646 43.7188055 40.8547738 43.6081923 40.8130048 43.4939411 40.7871405 43.3845971 40.7623641 43.3315346 40.6970103 43.3193517 40.591118 43.3026153 40.4455031 43.2795451 40.3003675 43.268985 40.1543252 43.2480347 39.8652714 43.2501023 39.5763211 43.3094459 39.290829 43.3216156 39.2323136 43.3399094 39.1734875 43.3655966 39.1195829 43.4113574 39.0235597 43.4592118 39.0068262 43.5659123 39.028844 43.8170923 39.0806892 44.066898 39.1427922 44.3204332 39.1787458 44.7657655 39.2419108 45.214657 39.2629183 45.6636139 39.2183777 45.7658131 39.2082237 45.8687321 39.1779817 45.9648336 39.1406033 46.1258792 39.0779435 46.1941079 38.8659905 46.0034756 38.7418365 45.9058038 38.6782182 45.801511 38.6228242 45.6953598 38.5740485 45.3916802 38.434482 45.0816541 38.3079449 44.7817824 38.1609701 44.5992764 38.0715263 44.4228682 37.9648051 44.2576612 37.8467513 43.6662535 37.4241664 43.378787 36.8499183 43.405639 36.1247192 43.4264844 35.5614929 43.6911818 35.1311371 44.1407799 34.8035393 44.5117068 34.5332523 44.9350028 34.3793225 45.3791442 34.2755802 45.8741889 34.1599612 46.377242 34.1239428 46.9747477 34.1314029M53.0158259 34.384314L53.7038979 34.3841068C53.9737116 34.3653399 54.1303865 34.4896753 54.1685445 34.7932738 54.1888928 34.955117 54.1848754 35.1203924 54.1853073 35.2841525 54.1858962 35.4997708 54.1870476 35.7157905 54.1748647 35.9309166 54.1635587 36.1308117 54.0825977 36.2007892 53.8720227 36.2060086 53.6671924 36.2111116 53.4621395 36.2072002 53.2571915 36.2072261 53.2094026 36.2072391 53.1616136 36.2072261 53.0981742 36.2072261L53.0982397 38.785359C53.098279 39.0447278 53.2130927 39.162963 53.4772012 39.1725601 53.5727006 39.1760441 53.6684224 39.173117 53.7635948 39.173117 53.836181 39.2457626 53.8564507 39.3405683 53.8783824 39.4311907 53.9751773 39.8309678 54.0272059 40.2377776 54.0262636 40.6482527 54.0255572 40.9488076 54.0274153 40.9006276 53.7867433 40.9615001 53.217555 41.1054572 52.6392329 41.1759916 52.051921 41.1098607 51.5957277 41.0584817 51.1794065 40.9085022 50.8488225 40.5759051 50.5761429 40.3015513 50.4212085 39.9678532 50.3787062 39.5892132 50.3528225 39.3585192 50.3526787 39.1242766 50.3521944 38.891601L50.3495511 36.1763365C50.3170595 36.1738369 50.283835 36.1693945 50.250558 36.1690836 50.1459247 36.1681123 50.0412132 36.1704954 49.936606 36.1682806 49.7271695 36.1638382 49.6173807 36.0648491 49.5917457 35.8565356 49.5843785 35.796751 49.5826774 35.735995 49.582468 35.6756794 49.5815258 35.4080993 49.5814997 35.1405063 49.5824812 34.8729262 49.5827167 34.8126106 49.5837504 34.7516603 49.5924131 34.6921607 49.616805 34.5245281 49.7097394 34.4294892 49.8784141 34.4020577 49.9510788 34.3902459 50.0255626 34.3866065 50.0993529 34.3850523 50.2249754 34.3823972 50.3506765 34.384314 50.4908506 34.384314 50.4908506 34.3428171 50.4908635 34.3099718 50.4908635 34.2771136 50.4908635 34.0526883 50.4962549 33.8280945 50.4894112 33.6038635 50.4819915 33.3612411 50.5992654 33.2065342 50.8117508 33.1050714 50.9719852 33.0285792 51.1456716 33.0109521 51.3167016 32.9822902 51.7158281 32.9153822 52.1153341 32.8505076 52.5152461 32.7884047 52.6006826 32.7751423 52.688893 32.7700393 52.7752324 32.7738083 52.9091254 32.7796624 52.9740695 32.8379575 52.995674 32.9678103L53.0158259 34.384314zM55.5316009 31.8679965C55.2984402 31.8738895 55.1686563 32.0025896 55.162519 32.2308097L55.1653456 40.6208575C55.1656072 40.6762385 55.1752776 40.7321894 55.1864136 40.7867027 55.2025875 40.8659406 55.2534253 40.9202078 55.333706 40.9325896 55.4320974 40.9477559 55.5322029 40.9592051 55.631628 40.9596196 56.2202878 40.9620415 56.8089737 40.9609147 57.3976597 40.9606168 57.4455926 40.9606039 57.4937609 40.9604096 57.5414061 40.9559672 57.7438284 40.937032 57.8384641 40.8492849 57.8674751 40.6514491L57.8726572 32.172398C57.8475719 32.005944 57.7754436 31.92567 57.6093076 31.8960626 57.5335546 31.8788629 55.5316009 31.8679965 55.5316009 31.8679965"/>
    <path fill="#040405" fill-rule="nonzero" d="M30.0708614,40.3090891 C30.0710577,40.3948546 30.0776919,40.4818894 30.0936173,40.5660618 C30.1298777,40.7577067 30.2469555,40.8835185 30.4383466,40.9298594 C30.5260862,40.9510871 30.6190077,40.9590523 30.7096393,40.9595056 C31.2415464,40.9621477 31.7734666,40.9609044 32.3053737,40.9606194 C32.348936,40.9605935 32.3927731,40.9605158 32.4360082,40.9559569 C32.6135025,40.9373195 32.7260655,40.8436794 32.7618812,40.6709698 C32.7809602,40.5789616 32.7878824,40.4830291 32.7880526,40.3888321 L32.7930774,37.2560598 C32.8110701,36.9854879 32.9035076,36.7513229 33.1376497,36.590723 C33.3148299,36.4691982 33.5080404,36.3844817 33.7212979,36.3446815 C34.0226612,36.2884326 34.3278458,36.287267 34.6324674,36.2783174 C34.8475176,36.27201 34.9363957,36.1896508 34.9370238,35.9800032 C34.9384108,35.5182786 34.9381491,35.0565281 34.9370499,34.5948035 C34.9366836,34.4425445 34.8847595,34.3871505 34.7306363,34.3683318 C34.6918897,34.3635915 34.65241,34.3629957 34.6132969,34.3633325 C34.3997646,34.3651198 34.1862586,34.3691089 33.9727263,34.3698989 C33.4800762,34.3716992 32.9874391,34.371492 32.4947892,34.3733052 C32.2245303,34.3743025 31.9539706,34.3708055 31.6840782,34.381918 C31.3606132,34.3952452 31.0427485,34.4462486 30.7474308,34.5879003 C30.4082889,34.7505594 30.1911582,35.0133345 30.1201682,35.3810175 C30.0892859,35.540918 30.0731774,35.7058955 30.0720521,35.8687101 L30.0708614,40.3090891 Z"/>
  </g>
</svg>
