<svg xmlns="http://www.w3.org/2000/svg" width="44" height="18" viewBox="0 0 44 18">
  <g fill="none" fill-rule="evenodd" transform="translate(-12 -26)">
    <rect width="70" height="70"/>
    <text fill="#225E63" font-family="Arial-Black, Arial Black" font-size="2.227" font-weight="700" transform="translate(40.733 34.067)">
      <tspan x="0" y="2">COMPLIANT</tspan>
    </text>
    <g fill-rule="nonzero" transform="translate(12.2 26.33)">
      <path fill="#225E63" d="M23.819719,11.0675115 L25.248679,10.6132751 L24.7860214,9.57370304 C24.4420231,10.0020889 24.1031415,10.5558556 23.8197188,11.0675117 L23.819719,11.0675115 Z M23.3330159,6.30886115 L20.5308607,0.0125370624 L0.0172393815,1.18727927 L5.70035618,16.8272767 L16.6406468,13.3495879 C15.9471298,12.3407808 15.689771,11.1416241 16.4940986,10.5554792 C17.3943564,9.8994261 18.7487931,10.6581816 19.6188589,11.7369799 C20.4538904,10.3217553 22.796756,7.05351111 23.3330159,6.30886115 Z"/>
      <g fill="#FEFEFE" transform="translate(3.922 1.604)">
        <path d="M15.971778 2.95803163C16.8304564 2.95803163 17.5265528 2.29585369 17.5265528 1.47901581 17.5265528.662177933 16.8304564 0 15.971778 0 15.1130995 0 14.4170031.662177933 14.4170031 1.47901581 14.4170031 2.29585369 15.1130995 2.95803163 15.971778 2.95803163zM14.6996894 3.59953246L17.2438665 3.59953246 17.2438665 10.2996523 14.6996894 10.2996523 14.6996894 3.59953246zM13.4436553 5.5549118C13.46186 5.56570442 13.4766179 5.55688751 13.4766179 5.53573328L13.4766179 3.83835153C13.4766179 3.81696692 13.4620669 3.79106693 13.4430229 3.78083802 13.4430229 3.78083802 13.109368 3.56149208 12.0909924 3.50038079 12.0366111 3.47003662 11.1503403 3.46557143 10.9044268 3.50038079 7.20446582 3.79963126 7.06721934 6.49943234 7.06721934 6.62273434L7.06721934 7.27862729C7.06721934 7.3591523 7.06721934 10.1194114 10.904273 10.3641579 11.279141 10.3929271 12.0136397 10.3641579 12.0908473 10.3641579 12.9745673 10.3641577 13.5869887 10.0957478 13.5869887 10.0957478 13.6064665 10.087787 13.6222565 10.0637433 13.6222565 10.0425878L13.6222565 8.4533589C13.6222565 8.43196013 13.6081766 8.42436681 13.5898231 8.43563766 13.5898231 8.43563766 13.3151908 8.6583015 12.1073771 8.77710496 11.7649871 8.81593789 11.6025496 8.79773013 11.4791124 8.77710496 9.76666659 8.48664718 9.68513703 7.22118905 9.68513703 7.22118905 9.68277918 7.20025427 9.68086781 7.16584684 9.68086781 7.1446534L9.68086781 6.65989407C9.68086781 6.63855941 9.68282002 6.60410382 9.68576804 6.58312241 9.68576804 6.58312241 9.80154784 5.22742887 11.4791849 5.08443654L12.1074563 5.08443654C12.8484927 5.18537057 13.4436553 5.5549118 13.4436553 5.5549118zM.0102480791 10.2730789C.0102475618 10.2943969.0272358572 10.3116785.0483421629 10.3116785L2.52677779 10.3116785C2.54781709 10.3116785 2.56487281 10.2942016 2.56487281 10.2730994L2.56487281 8.32864993C2.56487281 8.30734327 2.5818131 8.29115676 2.60312483 8.29234471 2.60312483 8.29234471 6.5591637 8.58100519 6.55916405 5.90256545 6.55916378 3.78908097 4.07713929 3.55717106 3.2599848 3.59587729 3.24354871 3.59665582.0489765139 3.59588637.0489765139 3.59588637.027676874 3.59588136.0104096789 3.61339626.0104091674 3.63447689L.0102480791 10.2730789zM2.52072997 6.80724655L2.52072997 5.05536929 3.12723219 5.05536929C3.12723219 5.05536929 4.00917512 5.09541223 4.07783868 5.7005772 4.09387216 5.74786051 4.09000541 6.04408673 4.07775019 6.06041287 3.96412838 6.77253055 3.19788917 6.80739207 3.19788917 6.80739207L2.52072997 6.80724655z"/>
      </g>
      <path fill="#2BBC5D" d="M19.9639794,15.1382758 C20.1707269,15.1382758 20.3290979,15.1382758 20.590508,15.0213061 C21.4938364,14.5422135 24.5344087,7.0528658 27.7414378,4.74925297 C27.7609825,4.73448568 27.7871918,4.71297994 27.8023493,4.6911038 C27.8233892,4.66073791 27.8242412,4.62974668 27.8242412,4.62974668 C27.8242412,4.62974668 27.8242409,4.47525265 27.3487458,4.47525265 C24.4936949,4.39676421 21.5247274,10.4332443 19.9639794,12.8215897 C19.9444854,12.8478982 19.8371271,12.8215897 19.8371271,12.8215897 C19.8371271,12.8215897 18.7912611,11.5772602 17.8826532,11.0996551 C17.863709,11.0896971 17.7603458,11.0579215 17.6530849,11.0659453 C17.5812393,11.0659453 17.1586067,11.151724 16.9616825,11.3612903 C16.7289418,11.6089722 16.7337575,11.7479769 16.7358033,12.0493818 C16.7359699,12.0739331 16.7515957,12.1731936 16.7804186,12.2240271 C17.0025438,12.6157776 18.0172627,14.0229384 18.8486824,14.7992467 C18.9773367,14.8915816 19.1730828,15.1382758 19.9639794,15.1382758 Z"/>
    </g>
    <g fill="#225E63" font-family="Arial-Black, Arial Black" font-size="7.219" font-weight="700" transform="translate(40.233 26)">
      <text>
        <tspan x="0" y="8">DS</tspan>
      </text>
      <text transform="translate(10)">
        <tspan x=".598" y="8">S</tspan>
      </text>
    </g>
  </g>
</svg>
