<svg xmlns="http://www.w3.org/2000/svg" width="54" height="29" viewBox="0 0 54 29">
  <g fill="none" fill-rule="evenodd" transform="translate(-8 -21)">
    <rect width="70" height="70"/>
    <g fill="#161E6F" fill-rule="nonzero" transform="translate(8 21)">
      <path d="M16.5523392,0.344094923 L12.6712604,8.20092899 C11.8280498,9.92140361 11.0079409,11.5845291 10.3610944,13.3050037 L10.3148911,13.3050037 C10.2109336,11.5845291 10.0838745,9.94434327 9.8990612,8.20092899 L9.49478216,4.08325975 L9.1251556,0.344094923 L8.70932573,0.344094923 L5.25562759,0.344094923 L5.25562759,0.344094923 L0.196364108,0.344094923 L0,0.344094923 L0,0.917586461 L0.311872407,0.917586461 C4.53947614,1.14698308 5.61370332,3.59005703 5.89092324,4.84026858 L5.38268672,0.917586461 L5.38268672,0.917586461 L5.9140249,4.95496689 C5.90247407,4.9205574 5.90247407,4.87467807 5.89092324,4.84026858 L5.98332988,5.57433775 C5.98332988,5.57433775 5.98332988,5.55139809 5.98332988,5.4825791 L7.4618361,16.8606512 L11.747194,16.8606512 L20.6759855,0.344094923 L16.5523392,0.344094923 Z"/>
      <polygon points="26.451 .287 23.171 16.815 19.475 16.815 22.755 .287"/>
      <path d="M26.7055187 12.9953182C27.7335425 13.5802796 29.2004979 14.0505427 30.7829616 14.0505427 32.2152645 14.0505427 33.5320591 13.4082322 33.5320591 12.1121413 33.5320591 11.183085 32.792806 10.5637141 31.1987915 9.78376564 29.3506587 8.83176968 27.6064834 7.55861847 27.6064834 5.39082046 27.6064834 2.05309971 30.6559025.0229396615 34.4330239.0229396615 36.5352749.0229396615 37.7712137.45879323 38.5104668.860237307L36.8586981 3.79651398C36.2927075 3.49829838 35.8537759 2.91333701 34.1211515 2.93627667 32.4000778 2.95921634 31.4991131 3.88827263 31.4991131 4.79438926 31.4991131 5.74638521 32.5502386 6.34281641 34.017194 7.1227649 36.119445 8.17798933 37.4593413 9.51995953 37.4593413 11.4813006 37.4593413 15.1631163 34.2713122 17.0441685 30.4248859 17.0441685 28.0107624 17.0441685 26.0471214 16.0921726 25.2270124 15.4957414L26.7055187 12.9953182zM42.8189263 12.5250552L40.7628786 16.8147719 36.8355965 16.8147719 45.2561515.286745769 50.0035425.286745769 52.0364886 16.8147719 48.1554098 16.8147719 47.797334 12.5250552 42.8189263 12.5250552zM47.6471732 9.82964496L47.3121992 6.27399742C47.2313434 5.36788079 47.1273859 4.04885026 47.0580809 3.03950515L47.0118776 3.03950515C46.5729461 4.04885026 46.0878112 5.32200147 45.625778 6.27399742L43.9047044 9.82964496 47.6471732 9.82964496z"/>
    </g>
    <g fill="#161E6F" fill-rule="nonzero" transform="translate(8.4 41.542)">
      <path d="M3.29179798 8.3594697C2.24145455 8.3594697 1.44016162 8.09583333.866262626 7.57954545.292363636 7.05227273.0108282828 6.30530303.0108282828 5.33863636.0108282828 4.56969697.140767677 3.86666667.389818182 3.2405303.638868687 2.61439394.985373737 2.07613636 1.42933333 1.61477273 1.86246465 1.17537879 2.37139394.823863636 2.97777778.571212121 3.58416162.318560606 4.21220202.197727273 4.87272727.197727273 5.40331313.197727273 5.90141414.252651515 6.35620202.3625 6.8109899.472348485 7.22246465.637121212 7.59062626.845833333L7.13583838 2.74621212 6.90844444 2.74621212C6.58359596 2.38371212 6.24791919 2.12007576 5.92307071 1.95530303 5.59822222 1.7905303 5.20840404 1.70265152 4.77527273 1.70265152 4.00646465 1.70265152 3.36759596 2.02121212 2.85866667 2.64734848 2.36056566 3.27348485 2.11151515 4.07537879 2.11151515 5.0530303 2.11151515 5.67916667 2.25228283 6.12954545 2.5229899 6.41515152 2.80452525 6.70075758 3.20517172 6.83257576 3.73575758 6.83257576 4.21220202 6.83257576 4.6669899 6.73371212 5.07846465 6.53598485 5.50076768 6.33825758 5.89058586 6.09659091 6.26957576 5.78901515L6.47531313 5.78901515 6.02052525 7.66742424C5.86892929 7.73333333 5.68484848 7.81022727 5.47911111 7.89810606 5.27337374 7.98598485 5.06763636 8.06287879 4.88355556 8.11780303 4.63450505 8.19469697 4.39628283 8.24962121 4.17971717 8.28257576 3.98480808 8.34848485 3.68161616 8.3594697 3.29179798 8.3594697zM13.9035152 3.625C13.9035152 3.71287879 13.8926869 3.82272727 13.8818586 3.95454545 13.8710303 4.08636364 13.8493737 4.21818182 13.8168889 4.36098485L12.939798 8.21666667 11.0448485 8.21666667 11.716202 5.27272727C11.7595152 5.0530303 11.8028283 4.85530303 11.8353131 4.70151515 11.867798 4.54772727 11.8786263 4.40492424 11.8786263 4.28409091 11.8786263 4.05340909 11.8244848 3.87765152 11.7053737 3.77878788 11.5862626 3.67992424 11.3805253 3.625 11.0773333 3.625 10.9257374 3.625 10.7524848 3.65795455 10.5575758 3.72386364 10.3626667 3.78977273 10.146101 3.88863636 9.90787879 4.02045455L8.9549899 8.22765152 7.07086869 8.22765152 8.93333333.0109848485 10.8174545.0109848485 10.146101 2.95492424C10.5250909 2.70227273 10.8824242 2.49356061 11.1964444 2.35075758 11.5104646 2.20795455 11.867798 2.13106061 12.2467879 2.13106061 12.7773737 2.13106061 13.1888485 2.26287879 13.4703838 2.52651515 13.7627475 2.76818182 13.9035152 3.14166667 13.9035152 3.625zM17.6825859 8.37045455C16.6863838 8.37045455 15.9175758 8.15075758 15.3761616 7.70037879 14.8347475 7.25 14.5640404 6.63484848 14.5640404 5.84393939 14.5640404 5.30568182 14.6506667 4.81136364 14.8347475 4.36098485 15.008 3.91060606 15.2678788 3.51515152 15.6035556 3.17462121 15.9175758 2.84507576 16.3182222 2.58143939 16.8054949 2.38371212 17.2819394 2.18598485 17.8125253 2.09810606 18.3864242 2.09810606 19.2526869 2.09810606 19.9132121 2.27386364 20.3571717 2.63636364 20.8011313 2.99886364 21.017697 3.52613636 21.017697 4.21818182 21.017697 4.45984848 20.9960404 4.6905303 20.941899 4.92121212 20.8877576 5.15189394 20.8336162 5.38257576 20.7578182 5.60227273L16.4048485 5.60227273C16.4048485 5.62424242 16.4048485 5.64621212 16.4048485 5.66818182 16.4048485 5.69015152 16.4048485 5.71212121 16.4048485 5.73409091 16.4048485 6.1405303 16.5456162 6.47007576 16.8379798 6.70075758 17.1195152 6.93143939 17.5634747 7.05227273 18.148202 7.05227273 18.5596768 7.05227273 18.9494949 6.98636364 19.3176566 6.84356061 19.6858182 6.70075758 19.9998384 6.5469697 20.2705455 6.37121212L20.4762828 6.37121212 20.1297778 7.89810606C19.7616162 8.06287879 19.3826263 8.18371212 18.9819798 8.26060606 18.5596768 8.3375 18.1373737 8.37045455 17.6825859 8.37045455zM19.1119192 4.49280303C19.1227475 4.42689394 19.1335758 4.3719697 19.1335758 4.31704545 19.1335758 4.26212121 19.144404 4.20719697 19.144404 4.15227273 19.144404 3.87765152 19.0577778 3.65795455 18.8845253 3.51515152 18.7112727 3.36136364 18.4730505 3.29545455 18.148202 3.29545455 17.7583838 3.29545455 17.4335354 3.40530303 17.1736566 3.61401515 16.9137778 3.82272727 16.7080404 4.11931818 16.578101 4.50378788L19.1119192 4.50378788 19.1119192 4.49280303zM24.2120404 8.37045455C23.8113939 8.37045455 23.4432323 8.3155303 23.085899 8.21666667 22.7285657 8.11780303 22.436202 7.96401515 22.1763232 7.74431818 21.9272727 7.53560606 21.7215354 7.2719697 21.5807677 6.96439394 21.44 6.65681818 21.364202 6.28333333 21.364202 5.87689394 21.364202 5.34962121 21.4616566 4.85530303 21.6673939 4.39393939 21.862303 3.93257576 22.1438384 3.53712121 22.512 3.19659091 22.8693333 2.86704545 23.3024646 2.59242424 23.8113939 2.40568182 24.3203232 2.20795455 24.8725657 2.10909091 25.4681212 2.10909091 25.8254545 2.10909091 26.1827879 2.1530303 26.5292929 2.22992424 26.8866263 2.30681818 27.2114747 2.42765152 27.5146667 2.58143939L27.1140202 4.20719697 26.8433131 4.20719697C26.6375758 3.95454545 26.4101818 3.76780303 26.150303 3.6469697 25.8904242 3.52613636 25.5980606 3.46022727 25.2840404 3.46022727 24.6993131 3.46022727 24.2228687 3.66893939 23.8655354 4.09734848 23.508202 4.52575758 23.3241212 5.0530303 23.3241212 5.69015152 23.3241212 6.12954545 23.432404 6.45909091 23.659798 6.67878788 23.8763636 6.89848485 24.2228687 7.00833333 24.6884848 7.00833333 25.0458182 7.00833333 25.3814949 6.93143939 25.6738586 6.78863636 25.9662222 6.63484848 26.226101 6.47007576 26.4318384 6.29431818L26.7025455 6.29431818 26.301899 7.92007576C25.9229091 8.08484848 25.5980606 8.20568182 25.3165253 8.27159091 25.0349899 8.3375 24.6668283 8.37045455 24.2120404 8.37045455z"/>
      <polygon points="33.47 8.206 31.499 8.206 30.341 5.591 29.518 6.338 29.085 8.217 27.201 8.217 29.063 0 30.947 0 29.832 4.899 32.452 2.285 34.607 2.285 31.9 4.866"/>
      <path d="M40.8226263 4.44886364C40.8226263 5.00909091 40.736 5.52537879 40.5519192 6.00871212 40.3678384 6.49204545 40.1079596 6.9094697 39.7722828 7.26098485 39.4257778 7.62348485 39.0251313 7.89810606 38.5703434 8.09583333 38.1155556 8.29356061 37.5741414 8.39242424 36.9677576 8.39242424 36.1014949 8.39242424 35.4301414 8.18371212 34.9645253 7.75530303 34.4989091 7.33787879 34.2715152 6.74469697 34.2715152 5.99772727 34.2715152 5.47045455 34.3581414 4.96515152 34.5313939 4.49280303 34.7046465 4.02045455 34.9645253 3.6030303 35.300202 3.2405303 35.6250505 2.88901515 36.0365253 2.60340909 36.5129697 2.39469697 36.9894141 2.18598485 37.5308283 2.08712121 38.1263838 2.08712121 39.0034747 2.08712121 39.664 2.29583333 40.1296162 2.71325758 40.584404 3.14166667 40.8226263 3.71287879 40.8226263 4.44886364zM38.3862626 6.39318182C38.5486869 6.15151515 38.667798 5.87689394 38.743596 5.58030303 38.8302222 5.28371212 38.8627071 4.93219697 38.8627071 4.51477273 38.8627071 4.15227273 38.7869091 3.87765152 38.6244848 3.67992424 38.4728889 3.48219697 38.2238384 3.38333333 37.8773333 3.38333333 37.6174545 3.38333333 37.3792323 3.44924242 37.1843232 3.58106061 36.9894141 3.71287879 36.8053333 3.89962121 36.6537374 4.13030303 36.5129697 4.35 36.4046869 4.62462121 36.3180606 4.95416667 36.2314343 5.28371212 36.1989495 5.61325758 36.1989495 5.96477273 36.1989495 6.37121212 36.2855758 6.65681818 36.4696566 6.83257576 36.6537374 7.00833333 36.8919596 7.09621212 37.1951515 7.09621212 37.4225455 7.09621212 37.6391111 7.03030303 37.8448485 6.9094697 38.0614141 6.78863636 38.2346667 6.61287879 38.3862626 6.39318182zM48.3049697 2.28484848L46.9514343 8.21666667 45.0673131 8.21666667 45.2189091 7.55757576C45.0348283 7.67840909 44.8507475 7.79924242 44.6666667 7.89810606 44.4934141 8.00795455 44.3201616 8.09583333 44.1577374 8.15075758 43.952 8.23863636 43.7679192 8.29356061 43.6054949 8.32651515 43.4430707 8.3594697 43.2698182 8.37045455 43.1073939 8.37045455 42.5984646 8.37045455 42.1869899 8.24962121 41.8946263 7.9969697 41.6022626 7.74431818 41.4506667 7.38181818 41.4506667 6.8875 41.4506667 6.75568182 41.4614949 6.63484848 41.4723232 6.51401515 41.4831515 6.40416667 41.5048081 6.27234848 41.5372929 6.1405303L42.4143838 2.28484848 44.3093333 2.28484848 43.6379798 5.22878788C43.5838384 5.4594697 43.5513535 5.64621212 43.5188687 5.81098485 43.4972121 5.97575758 43.4755556 6.10757576 43.4755556 6.22840909 43.4755556 6.45909091 43.529697 6.62386364 43.6379798 6.73371212 43.7462626 6.83257576 43.9628283 6.8875 44.2660202 6.8875 44.4176162 6.8875 44.5908687 6.85454545 44.7966061 6.78863636 44.9915152 6.72272727 45.2080808 6.62386364 45.446303 6.5030303L46.3991919 2.29583333 48.3049697 2.29583333 48.3049697 2.28484848zM50.6871919 8.32651515C50.0374949 8.32651515 49.5718788 8.21666667 49.3011717 7.9969697 49.0196364 7.77727273 48.889697 7.45871212 48.889697 7.03030303 48.889697 6.92045455 48.9005253 6.81060606 48.9113535 6.70075758 48.9330101 6.59090909 48.9546667 6.47007576 48.9763232 6.32727273L49.6151919 3.51515152 48.8463838 3.51515152 49.1279192 2.26287879 49.8967273 2.26287879 50.2865455.571212121 52.1706667.571212121 51.7916768 2.26287879 53.5458586 2.26287879 53.2643232 3.51515152 51.5101414 3.51515152 51.0228687 5.65719697C50.9903838 5.8 50.957899 5.95378788 50.9254141 6.10757576 50.8929293 6.26136364 50.882101 6.38219697 50.882101 6.49204545 50.882101 6.70075758 50.9362424 6.85454545 51.0553535 6.93143939 51.1744646 7.01931818 51.3477172 7.05227273 51.5967677 7.05227273 51.6942222 7.05227273 51.8241616 7.03030303 51.9757576 6.99734848 52.1381818 6.96439394 52.2572929 6.92045455 52.3547475 6.87651515L52.5063434 6.87651515 52.2139798 8.15075758C51.9974141 8.20568182 51.7808485 8.24962121 51.5426263 8.27159091 51.304404 8.29356061 51.0120404 8.32651515 50.6871919 8.32651515z"/>
    </g>
  </g>
</svg>
