<svg xmlns="http://www.w3.org/2000/svg" width="47" height="16" viewBox="0 0 47 16">
  <g fill="none" fill-rule="evenodd" transform="translate(-13 -27)">
    <rect width="70" height="70"/>
    <path fill="#0A2171" fill-rule="nonzero" d="M30.7979591,27.7119486 L24.7047211,42.3810875 L20.7182042,42.3810875 L17.7283165,30.6524667 C17.536657,29.9181336 17.3833295,29.6855683 16.846683,29.3749501 C15.6660606,28.8015013 14.4164409,28.385751 13.1284893,28.1372565 L13.205153,27.7119486 L19.6065793,27.7119486 C20.4713469,27.7151344 21.2042527,28.3570785 21.3315145,29.2204376 L22.9031222,37.6979224 L26.8114421,27.7119486 L30.7979591,27.7119486 Z M46.3975066,37.5816397 C46.3591747,40.6384403 43.7909378,42.6136529 39.8442861,42.5738301 C38.4137398,42.6009096 36.9939264,42.338079 35.6661096,41.7996742 L36.3560837,38.5883609 C37.5443723,39.2334909 38.8783223,39.5536664 40.2276049,39.5170294 C41.3008979,39.5170294 42.4891867,39.0518987 42.4891867,38.0850003 C42.4891867,37.465357 41.9525402,36.9619963 40.5342601,36.2658933 C39.11598,35.5681973 37.1993854,34.4069634 37.2377173,32.2788312 C37.2760491,29.4530029 39.8826179,27.4395604 43.5992783,27.4395604 C44.8059664,27.4395604 46.0003882,27.6625683 47.1258126,28.0990266 L46.4741704,31.1940572 C45.3165472,30.6445021 44.0316621,30.4167155 42.7575099,30.536184 C41.645885,30.6922895 41.1475704,31.23388 41.1475704,31.7754706 C41.1092385,33.4782949 46.3975066,33.7108603 46.3975066,37.5816397 Z M56.2104714,42.3810875 L55.7121568,40.1749026 L50.8823382,40.1749026 L50.1157003,42.3810875 L46.1675152,42.3810875 L51.8406355,28.7951297 C52.104359,28.1324777 52.743735,27.7023911 53.4505751,27.7119486 L56.6704542,27.7119486 L59.6986738,42.3810875 L56.2104714,42.3810875 Z M51.9939631,37.1945617 L55.1371784,37.1945617 L53.9872216,31.6974178 L51.9939631,37.1945617 Z M36.1644242,27.7119486 L33.0595408,42.3810875 L29.3030152,42.3810875 L32.4078986,27.7119486 L36.1644242,27.7119486 Z"/>
  </g>
</svg>
