<svg xmlns="http://www.w3.org/2000/svg" xmlns:xlink="http://www.w3.org/1999/xlink" width="27" height="36" viewBox="0 0 27 36">
  <defs>
    <polygon id="yamoney_icon-a" points=".008 36 .008 .114 26.939 .114 26.939 36"/>
  </defs>
  <g fill="none" fill-rule="evenodd" transform="translate(-22 -15)">
    <rect width="70" height="70"/>
    <g transform="translate(22 15)">
      <mask id="yamoney_icon-b" fill="#fff">
        <use xlink:href="#yamoney_icon-a"/>
      </mask>
      <path fill="#FACA22" d="M0.000382075472,17.9148387 C0.000382075472,15.8997419 0.16709434,14.6210323 4.28612264,11.5058065 C7.69627358,8.92683871 18.6266887,0.113677419 18.6266887,0.113677419 L18.6266887,14.8256774 L26.9389953,14.8256774 L26.9389953,36 L2.59671226,36 C1.16876887,36 0,34.815871 0,33.3690323 L0.000382075472,17.9148387" mask="url(#yamoney_icon-b)"/>
    </g>
    <polyline fill="#C9A521" points="40.627 29.826 40.627 38.35 25.352 48.893 44.664 42.527 44.664 29.826 40.627 29.826"/>
    <path fill="#6F8F9D" d="M33.6466792,29.3847742 C34.5398443,28.3064516 35.8443774,27.9256774 36.5606415,28.5347097 C37.2769057,29.1437419 37.1337547,30.5117419 36.2404623,31.5900645 C35.3478066,32.6682581 34.0428915,33.0485161 33.3266274,32.4394839 C32.6102358,31.8305806 32.7537689,30.4629677 33.6466792,29.3847742"/>
  </g>
</svg>
