<svg xmlns="http://www.w3.org/2000/svg" width="59" height="11" viewBox="0 0 59 11">
  <g fill="none" fill-rule="evenodd" transform="translate(-6 -30)">
    <rect width="70" height="70"/>
    <path fill="#F00" fill-rule="nonzero" d="M9.73853612,30.85734 L9.18712167,30.85734 C8.35326996,30.85734 7.54645057,31.3981 7.54645057,32.96769 C7.54645057,34.48437 8.28596958,34.97244 9.18712167,34.97244 L9.73853612,34.97244 L9.73853612,30.85734 Z M8.87776426,35.81658 L7.23709316,39.43041 L6.04004373,39.43041 L7.84234791,35.56589 C6.99481179,35.14382 6.42993726,34.37888 6.42993726,32.96769 C6.42993726,30.98923 7.70763498,30 9.2275019,30 L10.7741768,30 L10.7741768,39.43041 L9.73853612,39.43041 L9.73853612,35.81658 L8.87776426,35.81658 L8.87776426,35.81658 Z"/>
    <path fill="#000" fill-rule="nonzero" d="M30.8955323 36.10676C30.8955323 34.0227 31.7161483 32.69071 33.3032034 32.69071 33.9082338 32.69071 34.2579715 32.849 34.5538688 33.03347L34.4059202 34.00972C34.1234829 33.77212 33.7200171 33.54805 33.2896312 33.54805 32.5364278 33.54805 31.9985855 34.37888 31.9985855 36.05396 31.9985855 37.71573 32.4019391 38.66558 33.249251 38.66558 33.7602852 38.66558 34.150403 38.46769 34.3924601 38.25671L34.6345171 39.02154C34.2714316 39.32481 33.8410456 39.5227 33.2223308 39.5227 31.7697643 39.5227 30.8955323 38.3754 30.8955323 36.10676zM27.8292148 36.11974L27.8292148 39.43041 26.7801141 39.43041 26.7801141 32.78289 27.8292148 32.78289 27.8292148 35.85607 29.456538 32.78289 30.5190989 32.78289 28.8379354 35.90887 30.7610437 39.43041 29.6179468 39.43041 27.8292148 36.11974zM22.8932928 35.5L24.6282966 35.5C24.6282966 34.36568 24.4399677 33.53474 23.8348251 33.53474 23.1891901 33.53474 22.9605931 34.31288 22.8932928 35.5zM24.049962 39.5227C22.6512357 39.5227 21.790576 38.4282 21.790576 36.38396 21.790576 34.24699 22.3958308 32.69071 23.8348251 32.69071 24.9645741 32.69071 25.7043175 33.52154 25.7043175 35.77676L25.7043175 36.34414 22.8798327 36.34414C22.8798327 37.84784 23.3102186 38.63918 24.1440703 38.63918 24.735865 38.63918 25.2066312 38.3754 25.4756084 38.19082L25.7177776 38.98172C25.2873916 39.31172 24.722405 39.5227 24.049962 39.5227zM19.5848061 33.61383L18.4146768 33.61383 18.4146768 33.73274C18.4146768 35.13073 18.3474886 37.17486 17.7826141 38.58627L19.5848061 38.58627 19.5848061 33.61383zM21.158289 40.73622L20.216981 40.73622 20.216981 39.43041 17.3118479 39.43041 17.3118479 40.73622 16.3705399 40.73622 16.3705399 38.58627 16.7874658 38.58627C17.4059563 37.17486 17.4732567 35.11753 17.4732567 33.35005L17.4732567 32.78289 20.6204468 32.78289 20.6204468 38.58627 21.158289 38.58627 21.158289 40.73622zM15.7652852 32.78289L15.7652852 39.43041 14.7296445 39.43041 14.7296445 36.44974 13.1695095 36.44974 13.1695095 39.43041 12.1204088 39.43041 12.1204088 32.78289 13.1695095 32.78289 13.1695095 35.60527 14.7296445 35.60527 14.7296445 32.78289 15.7652852 32.78289 15.7652852 32.78289zM41.0555342 30.54076L38.9710171 30.54076C38.9305247 32.92798 38.8632243 34.74815 38.7556559 36.10676 38.6346274 37.51784 38.4193783 38.45427 38.056405 38.88987L41.0555342 38.88987 41.0555342 30.54076zM41.7683574 39.43041L37.6529391 39.43041 37.5586065 41 37.0342243 41 37.0342243 38.88987 37.3166616 38.88987C37.7874278 38.50707 38.0159126 37.45206 38.1504011 36.10676 38.2848897 34.70877 38.32527 32.6246 38.3657624 30L41.7279771 30 41.7279771 38.88987 42.3872965 38.88987 42.3872965 41 41.8623535 41 41.7683574 39.43041 41.7683574 39.43041zM43.6926996 35.72396L46.1543232 35.72396C46.2616674 33.95681 45.7238252 33.16558 45.0379221 33.16558 44.3250988 33.16558 43.7465399 34.0623 43.6926996 35.72396zM45.1721864 39.02154C46.073114 39.02154 46.5438802 38.30951 46.5438802 38.30951L46.7457814 38.81023C46.7457814 38.81023 46.2347473 39.56208 45.1589504 39.56208 43.7200686 39.56208 43.0607492 38.28267 43.0607492 36.10676 43.0607492 33.93041 43.8944887 32.651 45.0379221 32.651 46.2078271 32.651 46.9608062 33.85143 46.7457814 36.21247L43.6794639 36.21247C43.7063841 38.03242 44.190386 39.02154 45.1721864 39.02154L45.1721864 39.02154z"/>
    <polyline fill="#000" fill-rule="nonzero" points="50.889 36.225 48.576 36.225 48.576 39.43 47.944 39.43 47.944 32.783 48.576 32.783 48.576 35.724 50.889 35.724 50.889 32.783 51.521 32.783 51.521 39.43 50.889 39.43 50.889 36.225"/>
    <path fill="#000" fill-rule="nonzero" d="M53.6470988,35.73738 L53.6470988,38.94234 L54.0507891,38.94234 C55.005557,38.94234 55.6511919,38.481 55.6511919,37.33337 C55.6511919,36.21247 55.0864298,35.73738 54.1178651,35.73738 L53.6470988,35.73738 Z M53.0154849,32.78289 L53.6470988,32.78289 L53.6470988,35.24942 L54.1452337,35.24942 C55.4361674,35.24942 56.270019,35.93527 56.270019,37.32028 C56.270019,38.73136 55.3823271,39.43041 54.1046294,39.43041 L53.0154849,39.43041 L53.0154849,32.78289 L53.0154849,32.78289 Z"/>
    <polyline fill="#000" fill-rule="nonzero" points="57.979 33.297 57.979 39.43 57.36 39.43 57.36 32.783 60.225 32.783 60.225 33.297 57.979 33.297"/>
    <path fill="#000" fill-rule="nonzero" d="M64.354926,34.80095 C64.354926,34.45797 64.3813973,34.16779 64.4087663,33.89081 L64.3681616,33.89081 C64.2740531,34.18099 64.1531368,34.45797 64.0051884,34.74815 L61.7996426,39.43041 L61.2616884,39.43041 L61.2616884,32.78289 L61.8534829,32.78289 L61.8534829,37.39915 C61.8534829,37.75522 61.826114,38.0454 61.7996426,38.33558 L61.8397985,38.33558 C61.933907,38.03242 62.0681709,37.74224 62.2028841,37.45206 L64.4087663,32.78289 L64.9599562,32.78289 L64.9599562,39.43041 L64.354926,39.43041 L64.354926,34.80095"/>
  </g>
</svg>
