<svg id="Layer_1" xmlns="http://www.w3.org/2000/svg" viewBox="0 0 512 512"><style>.st1{fill:#760314}</style><path fill="#f9c333" d="M0 0h512v512H0z"/><path class="st1" d="M498 221.8c.3.2.5.6.8.7 1.2.3 2.4.3 3.5.6 3.1.6 6.1 1.4 9.2 2.1 0-1.3 0-2.7-.1-3.9h-12.7c-.2 0-.5.3-.7.5zm1.2 9.7c2.3.5 4.6.9 6.9 1.4l5.4 1.2v-3.9h-12.2c-.4 0-.9.4-1.3.6.4.2.8.5 1.2.7zm12.3-66.4c-4.7.3-9.4.4-14.1.7-.7 0-1.5.4-2.2.6 0 .1.1.3.1.4 5.4.5 10.8 1.1 16.2 1.7v-3.4zM497 195v.5c.5.1 1.1.2 1.6.3 1.3.2 2.5.2 3.8.4 3 .4 6.1.9 9.1 1.4 0-1.3 0-2.5.1-3.7-4.1.1-8.1.3-12.1.5-.9 0-1.7.4-2.5.6zm2.4 18.5c2.6.6 5.3 1.1 8 1.7 1.3.3 2.7.6 4.1.9 0-1.3 0-2.5.1-3.8-3.2-.9-12.1-.3-12.8.9.2.1.4.3.6.3zm-4.7-28.9v.4c1.4.2 2.7.3 4.1.5 4.2.5 8.5 1 12.7 1.5v-2.8c-.6-.1-1.2-.3-1.7-.3-4.4.1-8.9.2-13.3.4-.6 0-1.2.2-1.8.3zm16.8 58.2c0-1.3 0-2.6-.1-4-4.3-.2-8.6-.2-12.9.6.5.5 1 .7 1.5.8 1.3.2 2.6.4 3.8.7 2.6.6 5.1 1.3 7.7 1.9zm-6.3 7.4l6.3 1.5V248c-4.3-.6-8.6-.3-12.9.3.5.5 1.1.8 1.7.9 1.7.4 3.3.6 4.9 1zm5.6 6.5l-11.2.3c-.2 0-.4.2-.7.4.4.2.6.3.9.4 2.1.5 4.1 1 6.2 1.4 1.8.4 3.7.7 5.5 1.1 0-1.1 0-2.3.1-3.3-.3-.1-.5-.3-.8-.3zm.6-53.4c-3.9-.2-7.9-.4-11.8.9 1.1.5 2.2.7 3.2.9 2.9.6 5.8 1.3 8.7 1.9 0-1.2 0-2.5-.1-3.7zm0 62.2c-3.9-.1-7.8-.2-11.6.4v.5c3.9 1 7.8 1.9 11.7 2.8 0-1.4 0-2.6-.1-3.7zm0 8.7c-3.6-.3-7.2-.1-10.8.5v.5c3.7.9 7.3 1.8 10.9 2.7 0-1.3 0-2.4-.1-3.7zm.1-227.6c-4.1.1-8.2.1-12.3.3-.8 0-1.6.3-2.4.5v.5c.3.1.7.3 1 .3 4.5.3 9.1.5 13.7.7v-2.3zm0 236.6c-3.4-.1-6.9-.2-10.3.6v.4c3.4.7 6.9 1.5 10.3 2.3v-3.3zm0 8.9c-2.7-.4-5.3-.4-7.9.5v.4c2.6.6 5.3 1.1 7.9 1.7v-2.6zm0 8.9c-2.4-.4-4.8-.2-7.2.1-.1.3-.1.5-.1.8 2.4.4 4.9.9 7.3 1.3V301zm0-143.5c-1.8-.4-3.6-.1-5.3.3v.4c1.8.1 3.5.3 5.3.4v-1.1z"/><path class="st1" d="M283.3 491.4c-.4-3-.6-6-1.1-9-.9-5.4-1.9-10.9-3.1-16.3-1-4.7-2.2-9.5-3.4-14.2-1.2-4.5-2.6-8.9-3.7-13.3-1.2-4.5-3.4-8.4-6.5-11.7-2.7-2.9-5.8-5.5-8.9-7.9-2.5-2-5.4-3.5-8.7-4.3-3.5-.9-7-1.9-10.3-3.2-4.8-1.9-8.2-5.5-10.2-10.3-.4-1-.6-1.9-.9-2.9.1-.1.3-.1.4-.2.4.4.8.8 1.1 1.2 3 4.1 7.4 5.9 12 7.1 3.4.9 6.9 1.5 10.2 2.5 5.5 1.6 10.2 4.6 14.2 8.8 1.1 1.2 2.1 2.5 3.2 3.8.1-.1.2-.1.3-.2-.1-.5-.2-.9-.4-1.3-1.8-3.5-3.8-6.7-6.5-9.5-3.4-3.6-7.4-6.4-12.1-8-5-1.7-10-3.2-15-4.9-2.3-.8-4.3-2.1-5.9-4-3.5-4-.9-13.1 3.5-15.5.3-.2.9-.1 1.3-.2 0 .4.2.9.1 1.3-.4 2.6-.2 5.1 1.5 7.3 2.2 2.8 5.2 4.1 8.4 5.2 3.5 1.2 7 2.1 10.4 3.4 3.3 1.3 6.4 3.2 8.6 6.1.9 1.1 1.7 2.3 2.6 3.5.3-.7.4-1.2.3-1.8-.5-5.8-1.1-11.5-1.6-17.3-.5-6.8-1.1-13.5-1.5-20.3-.7-11.7-1.6-23.4-1.8-35.1-.2-12.9.2-25.8.3-38.7 0-.7-.5-1.8-1.1-2-4.8-2-9.3-4.6-13.3-8-4.5-3.8-8.5-8-11.5-13.2-.3-.6-.8-1.1-1.2-1.7-.2.5-.2.9-.1 1.2.8 2.1 1.7 4.2 2.4 6.3 1.5 4.5 3.7 8.7 6.5 12.5 1.9 2.5 4.1 4.8 6.9 6.4.4.2.7.7 1 1.1-.5.2-1.1.6-1.6.5-3.5-.4-6.9-.8-10.3-1.3-3.5-.5-6.9-1.5-10.1-3.1-.4-.2-.8-.2-1.4-.3.2.5.2.6.3.7 4.6 5.2 8.2 11 10.9 17.4 1.6 3.7 2.7 7.6 2.8 11.7 0 .5-.1 1-.2 1.6-1.7-3-3.2-5.9-5.1-8.6-1.9-2.7-4.4-4.9-7.8-6.4.2.8.2 1.3.4 1.7.9 1.7 1.8 3.3 2.6 5 2.2 5.1 3.7 10.2 3.7 15.8 0 6.5-2.7 11.7-7.5 15.9-.3.3-.8.5-1.2.7l-.3-.3c.6-1.1 1.3-2.1 1.9-3.2 2.6-5 4-10.2 1.9-15.8-.6-1.6-1.5-3.2-3-4.5-.2.5-.3.7-.3.9-.5 2.7-.7 5.6-1.4 8.3-1.4 5.3-5 8.5-10.2 9.6-7.4 1.5-13.3-1.1-17.5-6.9-5.1-7-5.3-14.8-2.3-22.7 2.6-6.7 7.2-12 12.5-16.8.4-.4.8-.7 1.2-1.1-.1-.1-.1-.2-.2-.3-.4 0-.9 0-1.3.2-1.7.8-3.5 1.4-5.1 2.4-2.8 1.7-5.8 3.3-8.2 5.5-2.5 2.2-4.9 4.3-8.1 5.3-3 1-6.1 1.7-9.2.6-1.9-.6-3.6-1.7-3.8-3.8-.2-2-.2-4.2.3-6.1 1.6-6.2 3.4-12.3 5.4-18.4 2-6.2 4.6-12.2 7.7-18 1.5-2.7 2.8-5.5 3.5-8.4 1.4-5.9.1-11.4-3.9-16.1-.8-.9-1.5-1.7-2.3-2.7.5-.1.7-.2 1-.2 4.5.2 9.1.3 13.6.5.9 0 1.3.4 1.4 1.3.6 7.6.1 15.1-2.6 22.3-1.9 4.9-4.2 9.5-6.5 14.1-2.6 5.3-4.7 10.7-5.9 16.5-.1.6 0 1.3 0 1.9.6-.2.9-.4 1.1-.8 1.7-3.4 3.3-6.9 5.1-10.3 2.6-4.9 5.8-9.3 9.6-13.2 1.8-1.8 3.1-4 4.5-6.1.4-.7.7-1.5 1.1-2.5.2.5.4.8.4 1 .5 6-.6 11.5-4.4 16.3-3.9 4.9-5.7 10.6-6.5 16.7-.1.2.2.5.4 1 .8-1.5 1.5-2.7 2.2-4 1.8-3.2 3.7-6.4 6.6-8.8 2.8-2.4 5-5.2 5.9-8.8.2-.7.5-1.4.8-2.1.1.1.3.1.4.1 2.3 6.6 5.7 12.4 10.4 17.4-1.5-4.7-2.6-9.4-3-14.2-.2-2.7-.4-5.4-1-8-1.3-5.3-2.9-10.5-4.4-15.7-.1-.4-.2-1.1 0-1.2.3-.3.9-.2 1.3-.2.3 0 .6.2.9.4 4.9 2.5 8.6 6.4 12.3 10.4.3.5.8.8 1.2 1.2.3-.6.3-1 .2-1.4-1-4.5-1.6-8.9-.6-13.5.6-3.1 3.8-5.2 6.6-4.2 1.6.6 3.1 1.4 4.7 2 .4.2.8.2 1.3.3v-.5c-2.5-5.7-3.7-11.5-3.4-17.7.2-4.7 2-8.7 5.1-12.2.4-.5 1.1-.7 1.7-1 .1.6.4 1.2.4 1.8-.1 2.7-.7 5.4-.5 8.1.2 3 .9 6 1.6 8.9.6 2.2 1.5 4.2 2.3 6.3.1 0 .3-.1.5-.1-.1-.8-.1-1.6-.3-2.4-.9-3.9-.4-7.8.6-11.5.9-3.2 2.5-6.2 3.8-9.3.2-.5.8-.9 1.2-1.3.2 0 .3.1.4.2 0 1-.2 2.1-.1 3.1.2 5.2.8 10.3 2.8 15.2 1.5 3.7 3.3 7.2 6.1 10 3.1 3.2 6.5 6.2 9.4 9.6 4.1 4.8 6.4 10.5 6.6 17 0 .5.1 1 .1 1.5.2 0 .4.1.6.1.4-1.2.9-2.3 1.2-3.5 1.9-7.8-.2-14.5-5.5-20.4.1-.2.1-.3.2-.5h8.3v-.5c-.3-.1-.5-.2-.8-.3-3.2-.7-6.3-1.4-9.4-2.3-.9-.3-1.9-.8-2.7-1.4-1-.8-1.8-1.8-2.6-2.7-.3-.4-.5-.9-.7-1.3.1-.2.1-.3.2-.5h12.1v-.6l-12.3-3.3c-2.5-.7-5-1.2-6-4.1-.5-1.4-.4-1.8 1.1-1.9 4.2-.2 8.3-.3 12.4-.5.4 0 .8-.2 1.2-.3-3.2-1.2-6.3-2.1-9.4-3-2.1-.6-4.3-1.2-6.4-1.9-1.2-.4-1.7-1.7-1.5-3.2.2-1.3 1.2-.8 1.9-.9 4.6-.4 9.2-.7 13.8-1 .5-.1 1.1-.3 1.6-.4v-.4c-1.6-.3-3.1-.7-4.6-1.1-3.6-.9-7.1-1.8-10.6-2.8-.7-.2-1.7-.3-1.4-1.5.3-1.2.3-2.5 1.9-2.7 1.6-.2 3.2-.3 4.8-.5l12.9-1.2c.6 0 1.1-.2 1.7-.4-1.8-.7-3.6-1-5.4-1.4-3.2-.6-6.5-1.3-9.7-2-1.8-.5-1.8-.7-.6-1.9.3-.4.6-.7.9-1.1 1.1-1.4 2.4-2.3 4.3-2.3 1.6 0 3.1-.1 4.7-.2 4.8-.1 9.7-.3 14.5-.5.5 0 .9-.2 1.4-.3v-.4c-.4-.1-.9-.2-1.4-.3-4.9-.9-9.8-1.7-14.7-2.6-3.2-.7-3.2-.7-2.2-3.8v-.1c.1-1.5 1-1.8 2.3-1.8 6-.2 11.9-.4 17.8-.7.6 0 1.1-.2 1.7-.3v-.4c-3.3-.6-6.6-1.2-9.9-1.7-2.9-.4-5.8-.8-8.7-1.3-1.1-.2-1.4-.7-1-1.8.4-1.1.8-2.3 1.1-3.4.3-1.2.9-1.5 2-1.6 5.7-.3 11.5-.6 17.2-.9.4 0 .8-.1 1.2-.2-.3-.4-.7-.6-1-.6-4.1-.6-8.3-1.2-12.5-1.7-3-.4-6.2-.6-6.5-4.7l-.1-.1c-.5-1.4-.2-2 1.3-2.1 4.5-.4 9.1-.8 13.7-1.1 3.1-.3 6.3-.4 9.5-.6.6 0 1.2-.3 1.8-.4-.1-.1-.1-.3-.1-.4-6.9-.9-13.7-1.8-20.8-2.8.2-.4.3-.5.4-.6 4.1-2.5 8.7-3.8 13.5-4.2l12.9-1.2c.5-.1 1-.3 1.5-.5v-.4c-5-.7-9.9-1.3-14.7-2 .2-1.6.6-2.9.5-4.2-.1-1.3.4-1.5 1.5-1.6 5.6-.5 11.2-1 16.8-1.6.5-.1 1.1-.3 1.6-.4v-.6l-11.4-2.1c1.9-1.4 3.7-2.3 5.5-3.2 8.1-4 15.7-8.7 22.4-14.8 5.6-5.1 10.2-10.9 13.1-18 1.4-3.3 2.7-6.7 4.4-9.8 3.2-5.8 7.5-10.9 13.1-14.7 3-2 6.1-3.7 9.2-5.5 1.1-.6 2.3-1 3.4-1.5 0-.1-.1-.3-.1-.5-.7 0-1.4-.2-2.1 0-4.2.9-8.5 1.7-12.6 3.1-4.3 1.4-8.1 3.7-11.2 7.2-2.8 3.2-6.2 5.8-10.3 7.3-5.4 1.9-10.8 2.2-16.3.2-5-1.8-9-4.8-11.4-9.5-.5-1-1.5-2.1-.9-3.7 3 3.3 6.2 5.7 10.2 7 3.9 1.3 7.9 1.8 12.1 1.2-3.6-1.6-7-2.9-10.2-4.6-3.3-1.7-5.9-4.3-7.2-7.9 5.3 2.9 10.5 5.6 16.8 5.2-.7-.6-1.5-1.1-2.3-1.5-3.6-1.9-6.8-4.2-8.8-7.8-.7-1.3-1.1-2.7-.9-4.5 1.3 1.2 2.4 2.2 3.6 3.2 4 3.3 8.5 5.4 13.8 5.2 5.4-.3 10.5-1.8 15.7-3.2 4-1.1 8-1.9 12.1-2.5 5.6-.8 11.1.5 16.5 1.5 5.1.9 10.3 1.7 15.5.7 2-.4 4-.5 5.9-.9 6.8-1.4 13.6-2.8 20.4-4.4 3.3-.8 6.4-1.9 9.5-3 5.4-1.9 10.9-4 16.3-6.1 3.3-1.3 6.4-2.9 9.7-4.3 1-.4 2.1-.5 3.2-.6 4.5-.5 9-.8 13.4-1.5 4.9-.8 9.7-2.5 14.3-4.4 8.3-3.5 15.5-8.4 21.4-15.2 0-4.7 0-9.3-.7-13.6-2.8 3-5.5 6.1-8.5 8.9-4.5 4.1-9.9 6.8-15.6 8.6-7 2.2-14.3 2.5-21.5 1.6-6.5-.9-12.8-2.7-18.8-5.3-3.7-1.5-7.2-3.2-10.9-4.9.2.2.3.5.5.7 5.1 5 11 8.6 17.9 10.5 2.7.8 5.5 1.8 7.6 3.9 1.4 1.4 1.1 2.7-.8 3.4-3.3 1.2-6.7 1.5-10.1 1.2-4.9-.5-9.4-2.1-14-3.6-5.7-1.9-11.4-1.8-17 .3-3.4 1.2-6.8 2.6-10.3 3.4-4.2 1-8.6.8-12.8-.3-6.9-1.7-12.8-5.1-17.1-10.8-2.6-3.4-4.2-7.2-4.8-11.5-.2-1.5-.5-1.7-2.1-1.7-5.6.1-11.2-.6-16.6-2.1-4.9-1.3-9.5-3.3-13.3-6.7-2.3-2-4.1-4.5-6.1-6.8h-3.4c.7 5.5 1.7 11 4 16.1 1.4 3.1 2.7 6.3 4.5 9.2 3.5 5.7 8.3 10 14.3 12.9.1.1.4.1.9.2-.2-.6-.4-1-.5-1.4-.5-1.5-1.1-2.9-1.4-4.4-.4-2.3.9-4 2.7-5.1.4-.2 1.4 0 1.8.3 3.3 2.6 6.3 5.3 9.7 7.7 4.5 3.1 9.2 6 14.7 7.2.3 0 .5.3.8.5-.3.3-.4.7-.7.8-2.6 1-5.2 2-7.9 2.7-4.7 1.2-9.5 1.2-14.2 0-3.3-.9-6.6-2.1-9.7-3.6-2.7-1.3-5-3.3-7.5-5-.1-.1-.3-.1-.8-.3.1.6 0 1 .2 1.3 4.3 5.6 9.1 10.7 15.8 13.5 1 .4 2.1.7 3.3 1.1-.4.3-.6.5-.8.5-6.5 1.4-13.2 1.7-19.7-.1-5.6-1.5-10.2-4.8-13.6-9.5-2-2.8-3.3-5.8-4.5-9-.1-.3-.3-.5-.6-1.2-.2.7-.4 1.1-.5 1.5-.7 5.5-2 10.9-3.9 16-2.2 5.8-5 11.3-10.4 14.9-1.2.7-2.5 1.3-3.8 1.9-1 .4-1.4 0-1.3-1.1.5-3.7 1.7-7.1 3.7-10.1 2.9-4.3 5-8.9 6.8-13.8 1.7-4.6 3.3-9.2 4.6-13.9 1.1-4.1 2-8.3 2.8-12.5.9-4.6 1.6-9.3 2.3-14 .1-1 .1-2.1.2-3.1H323c-1.2 5.3-2.2 10.6-3.6 15.8-1.8 6.9-4 13.6-6.1 20.4-1.6 5.2-3.7 10.3-6.6 15-1.4 2.4-3.5 4.1-5.5 5.9-4.5 3.9-8 8.5-9.8 14.2-.8 2.8-1.1 5.8-.3 8.7.2.4.1.9 0 1.5-2.7-3-3.3-6.8-4.2-10.6-1.9 7-3.7 13.9-2.8 21.4-.5-.7-1.1-1.4-1.6-2.2-3-4.9-4.7-10.3-4.8-16 0-2.5.5-5.1.9-7.6.8-5.9 5-9.3 9.3-12.5 5.2-3.9 9.3-8.5 11.9-14.4.7-1.5 1.2-3.1 1.7-4.7.1-.2 0-.5-.2-.9-4.6 6.2-8.8 12.7-16.2 16.1 9.1-11.4 15.2-23.9 15.9-38.6-.2 0-.3-.1-.5-.2-.3.7-.6 1.3-.9 2-1.3 3.6-2.6 7.4-4 11-2.2 5.6-5.3 10.6-9.1 15.2-2.9 3.5-6.2 6.7-9.5 9.8-4.6 4.3-9 8.8-11.3 14.9-1.5 4-1.6 8-.3 12.1.1.4.5.7 1.1 1.4.9-6 2.1-11.6 7.3-15.1-1.6 10.3-1.7 20.3 4 29.6-3.7-1.8-7-4.1-9.5-7.8-.2.6-.4.9-.4 1.1.8 4.1 1.8 8.1 4.3 11.7 4.1 5.9 9.7 9 16.5 10.6 7.4 1.7 14.8 1.2 22.2.3 1.2-.1 2.3-.4 3.4-.6.1.2.1.4.2.6-1.1.4-2.2.9-3.3 1.2-2.8.7-5.6 1.6-8.5 2.1-2.8.5-5.8.8-8.7 1-7.5.4-14.7-.7-21.7-3.3-5-1.9-9.6-4.5-13.8-7.8-5.4-4.2-10.4-8.7-14.7-14-3.4-4.2-6.3-8.7-7.6-14-.9-3.5-1.2-7-.9-10.6.1-.3.1-.7.1-1.1 0 0-.1-.1-.3-.5-.5.7-.9 1.3-1.3 2-2.3 3.8-5.1 7-8.8 9.5-3.9 2.6-7.5 5.3-10.2 9.2-4.5 6.5-4.1 11.8.5 18 1.5 2 3.5 3.7 5.3 5.5.2.2.5.3.7.4.1-.1.2-.1.3-.2-.3-.5-.5-1.1-.8-1.6-2-3.3-3.5-6.8-3.5-10.8 0-.6.1-1.2.4-1.9 3.4 7.1 7.7 13.3 14.5 17.5-3.2-6.2-7.2-12.2-6.5-19.7 5.6 9.6 11.1 19.1 20.6 25.4-.6.5-.6.6-3.6-.1-1.3-.3-2.5-.6-3.7-1.1-1.2-.5-2.3-1.1-3.5-1.6l-.3.3c.7.9 1.3 2 2.2 2.8 2.6 2.6 5.3 5 8 7.5.7.6.4 1.1-.3 1.3-1.1.3-2.3.4-3.4.6-3.9.8-7.7.2-11.4-.7-9.7-2.4-16.9-8.4-22.8-16.2-1.7-2.3-3.2-4.7-4.7-7.1-.4-.8-1-1.2-1.8-.7-2.8 1.6-5.4 3.6-7.5 6.2-.2.2-.3.4-.4.6-.1.1 0 .3 0 .7.6-.2 1.1-.4 1.5-.7 3.8-2.3 7.2-1 9 3 2.3 5.1.1 9.3-4.3 12.1-3.8 2.4-7.9 4.2-11.9 6.3-7.1 3.7-13.2 8.6-18.1 14.9-2.7 3.5-5.2 7.1-7.4 10.9-2.6 4.4-4 9.2-4.8 14.3-1 6-.5 11.9.4 17.8.7 4 1.8 7.9 2.9 11.8 1.6 5.9 4.2 11.3 7.4 16.5 2.7 4.3 5.9 8.4 9.7 11.8.3.3.6.7.9 1-.1.1-.1.3-.2.4-.9-.3-1.8-.5-2.7-.8-7.6-2.5-14.2-6.4-20.1-11.7-7.2-6.4-12.5-14.1-16.1-23-3.7-8.9-5.7-18.1-5.3-27.8.3-6.3 1.8-12.3 4.1-18.2 3.4-8.5 8.5-15.9 14.5-22.7.7-.8.8-1.5-.1-2.3-2.4-2.2-3.5-4.9-3.7-8.1-.4-5.1 1-9.8 3-14.3 4.6-10.4 11.4-19.3 18.9-27.8.7-.8 1.1-1.6 1-2.7-.3-4.1.2-8.1 1.9-11.8 1.3-2.8 3.2-5.2 5.5-7.2 4-3.4 8.7-5.4 13.7-6.6.9-.2 1.5-.6 1.4-1.7-.3-4.8.5-9.3 1.8-13.9 1.9-6.6 5.1-12.4 9.2-17.8 2.4-3.1 5.2-5.9 7.8-8.8h-24.2c.8 1.4 1.7 2.9 2.2 4.4 1.1 3.3 1.1 6.7-.2 10-.4 1-.9 1.1-1.6.4C183.3 9.9 177 5 170.4.5h-34.7c1.3 2.8 2.8 5.6 4.1 8.5.6 1.1.9 2.4 1.3 3.6l-.4.2c-2.2-1.1-4.5-2-6.5-3.3-.9-.6-1.1-2.1-1.7-3.2-1.1-2-2.3-3.9-3.4-5.9H122c.5 1 1.1 2 1.6 3.1.2.5.3 1 .6 1.9-2.9-1.1-5.3-2-7.7-3.1-1-.4-1.7-1.3-2.5-1.9H81C75.7 5.3 69.7 9.2 63.1 12c-2.2.9-4.3 1.9-6.5 2.8-.4.1-.8.3-1.2.2-3.5-.8-7-1.5-10.5-2.3-.2 0-.2-.2-.5-.4 1.3-.7 2.5-1.3 3.7-1.8C53.8 8 59 4.8 64 1.1c.3-.2.5-.5.8-.8h-9.4C50.1 4.5 44.3 8 38.3 11c-.3.2-.7.2-1.1.1-3.2-.7-6.5-1.4-9.7-2-1.2-.2-2.3-.3-3.5-.5 0-.2-.1-.3-.1-.4.5-.3 1.1-.6 1.7-.9 4.6-2.2 9.3-4.3 14-6.4.2-.1.4-.4.6-.6h-9.4C26.5 2.5 22.3 4.5 18 6.6c-.5.2-1 .4-1.5.4C12.3 6 8.2 5.1 4 4.2c-.4-.1-.8-.4-1.3-.6C6.1 2.4 9.3 1.3 12.6.1H.6v15.7l12.3.9c.1 0 .3.2.6.4-3.9 3.7-8.3 6.4-12.9 8.7v6.8c7-2.9 13.7-6.6 20-10.9l4.2-3c.4-.3 1-.6 1.4-.6 3.4.3 6.7.8 10.5 1.2-.5.7-.8 1.2-1.2 1.6-3.6 3.7-7.8 6.6-12.1 9.2-5.6 3.4-11.4 6.1-17.5 8.4-1.8.7-3.5.3-5.3.1v19.7c1-1.1 1.9-2.2 3-3.2.5-.5 1.2-.9 1.8-1 4.3-.5 8.5-1 12.8-1.5.3 0 .6.1 1.1.1-.2.5-.3.8-.5 1.1-5.1 6.4-11.1 12-17.7 16.8-.1.1-.3.2-.5.2v6c.6-.3 1.3-.6 1.9-1.1 8.4-6.7 16.2-14 23.2-22.2.5-.6 1.5-1 2.4-1.1 3.9-.4 7.8-.7 11.7-1 .3 0 .7.2 1.1.3-.1.4-.1.8-.4 1.1-3.4 3.4-6.6 7-10.1 10.2-3.7 3.4-7.6 6.6-11.7 9.4-4.5 3.1-9.3 5.7-14 8.4-1.3.8-2.8 1.4-4.3 2v29c3.2-4 6.2-8.2 8.4-12.9.7-1.4 3-2.7 4.5-2.5 1 .1.7.7.4 1.2-2.3 3.8-4.5 7.7-7 11.3-1.8 2.6-4.2 4.9-6.3 7.4v10.3c5.8.3 11.6.3 17.3 1 6.5.8 12.8 2.7 19 5.9-.4.2-.7.5-1 .5-3.4.5-6.9 1.1-10.3 1.2-1.3.1-2.7-1-4-1.5-4.1-1.6-8-3.3-12.1-4.6-2.9-.9-5.9-1.3-8.9-1.9v5.7c2.5 1 5.1 2 7.7 3 .9.4 1.7.9 2.5 1.4 0 .1-.1.3-.1.4-3.3.7-6.7 1.4-10.1 2.1v5.1l5.7-.9c.6-.1 1.2.1 1.8.1-.1.6 0 1.2-.2 1.7-1.1 3.3-2.2 6.6-3.6 9.8-1 2.2-2.5 4.2-3.7 6.2v8c3.4-2.8 6.1-6.2 8.7-9.7 3.5-5 6.2-10.4 8.2-16.1.4-1.1 1.1-1.7 2.3-1.8 2-.1 3.9-.5 5.9-.7 1.2-.1 1.5.3 1.1 1.4-1.8 4.2-3.3 8.4-5.3 12.5-2.7 5.4-6.1 10.4-11.3 13.9-.9.6-2.1.8-3.2 1-2.1.4-4.3.7-6.4 1.1v1.7c15.6-1.5 31.3-2.5 47-1.9 0 .2.1.4.1.6-.6.1-1.2.3-1.8.4-7.3 1-14.5 2-21.8 3-4.1.6-8.2 1.3-12.3 2-3.7.7-7.4 1.5-11.1 2.2v10.3c1.2-1.8 2.5-3.7 3.7-5.6.8-1.2 1.6-2 3.2-2.1 2.5-.3 5-.9 7.5-1.4.5-.1 1 0 1.5 0 0 .5 0 1.1-.2 1.5-4 7.6-9 14.4-14.7 20.8-.3.4-.7.6-1 .8v6c3.9-3.8 8.1-7.2 11.6-11.3 4.1-4.7 7.6-9.9 11.3-14.9.8-1.1 1.4-2.4 2.2-3.5.4-.6 1.1-1.2 1.7-1.3 2.9-.5 5.8-.9 8.7-1.3.2 0 .8.2.8.3 0 .4 0 .9-.2 1.2-1.4 2.4-2.7 4.8-4.2 7.2-5.5 9-12.4 17.1-20.1 24.3-.5.4-1.2.8-1.8.9-3.3.4-6.7.7-10 1.1v9.1c.7-1.1 1.5-2.2 2.2-3.3 1.1-1.8 2.2-2.3 4.6-1.9-1.5 3.7-3.6 6.8-6.9 9.1v11.1c1.5-.3 3-.5 5-.9-1.4 3.2-3.1 5.6-5 8v4.3c1.2-1.1 2.5-2.1 3.5-3.3 2.2-2.5 4.3-5 6.2-7.6 1.1-1.5 2.2-2.7 4.1-2.9 2.1-.2 4.2-.5 6.8-.9-.6 1.2-.9 2-1.4 2.8-3.8 6.5-8.7 12-14.8 16.6-1.4 1-2.8.8-4.3.9v16.8c1.4-1 2.7-2.1 4.1-3.2.4-.2.7-.5 1.1-.6l6.6-.9c1-.1 1.9-.3 3-.3-3.8 5.9-8.9 10.4-14.7 14.2v4.3c8 1 16.1 2.1 24.1 3.1 4.9.6 9.9 1 14.8 1.5.3 0 .5.2 1.1.4-5.2 2-10.4 3.3-15.3 5.4 0 .2.1.4.1.6h1.8c6.3.1 12.6.2 18.9.4.3 0 .7.4 1 .6-.3.2-.5.6-.9.7-4.3 1.3-8.7 2.5-12.9 4-6.8 2.4-13.4 5-20.1 7.5-1.2.4-2.4 1.1-3.6 1.7.1.2.1.4.2.6 9-2.5 17.9-4.9 26.9-7.4.1.2.2.3.3.5-.8.9-1.5 1.8-2.3 2.6-3.8 3.9-8.2 7.1-12.8 10-.4.2-.9.5-1.3.4-3.5-.5-7-.9-10.3-1.9-3-.9-3.8-3.4-2.9-6.5 1-3.5 3.4-6.3 5.6-9.1.1-.2.2-.3.6-.8-.6.1-1 0-1.2.2-3.8 2.8-7.4 6.1-8.6 10.8-1.1 4.6-.1 7 4 9.6 3.8 2.3 8.1 3 12.4 3.4 2.1.2 4.3.3 6.5.4.5 0 .9.1 1.8.2-1 .7-1.7 1.1-2.2 1.6-.8.9-1.8 1.8-2.4 2.9-1 1.7-.6 3.3 1.1 4.3 2 1.1 4.2 2.3 6.4 2.9 3 .9 6.2 1.1 9.3 1.8 2.6.5 4.6-.8 6.6-2 3.7-2.3 6.6-5.4 9.3-8.7 1-1.2 2.3-2.4 3.4-3.6l.6.3c-.2.9-.1 1.8-.4 2.5-1.8 3.7-3.7 7.3-5.5 11-.3.5-.4 1.2-.6 1.8.6.2 1.1.4 1.7.4 3.4 0 6.8-.2 10.2.1 3.2.3 5.7-1.1 8.1-2.8 5.8-4.2 10.4-9.5 14.3-15.5.3-.6.9-1.1 1.4-1.5.2-.1.9-.2 1 0 .2.2.3.8.2 1.1-1.2 3.8-2.8 7.4-5.1 10.7-1.5 2-3.1 4-4.7 6l-.8 1.2h5.2c.1.2.1.3.1.4-7.2 4.6-14.3 9.3-20.2 15.7 3.5-1.9 6.5-4.7 10.7-5.1 4-.4 8-1.4 12-.2-10.2 4.7-20.3 9.5-30.1 15.7.2-1.1.4-1.8.5-2.5-.1-.1-.3-.2-.4-.3-.5.6-1.1 1-1.4 1.6-1 1.9-2.2 3.7-2.7 5.7-1 4.2.7 7.2 4.6 9.6 1.3.7 2.4.9 3.7.1 6-3.6 11.7-7.5 16.2-13 2.4-2.9 4.4-6.1 6.7-9.1.6-.7 1.4-1.4 2.2-1.8 1.9-1 4-1.7 6.1-2.6.6 3.8-14.9 21.1-25.6 28.7.7.4 1.3.8 2 .9 6.3.7 12.7 1.3 19 .4 6.1-.9 12.1-1.9 18.2-3 1.8-.3 3.4-.8 5.3-1.1-11.2 9.1-21.6 18.9-29.8 30.7.2.1.3.3.4.4.7-.6 1.4-1.1 2-1.8 2.1-2.5 4.9-3.6 7.9-4.5 4.1-1.3 8.3-2.3 12.6-2.7 1.1-.1 2.2-.1 3.8-.2-.7.8-1.2 1.4-1.7 1.8-3.8 3.1-7.8 6.1-11.5 9.3-6 5.2-11.8 10.6-17.8 16-1.8-2.7 0-5.8-.2-8.7-.2-.2-.4-.3-.6-.4-.2.3-.3.7-.5 1-1.4 3.2-3 6.3-2.8 9.9.1 3.8 2 6.5 5.4 8.2 4 2 8.3 2.5 12.6 2.3.9-.1 1.9-.8 2.6-1.5 3.8-3.7 6.8-8.1 9.3-12.8 2.8-5.3 4.9-11 5.6-17 .2-2.1 1.2-3.1 2.6-4.1 1.4-1 2.9-2.1 4.4-3.1.3-.2.7-.3 1.1-.4 0 .4.2.8.2 1.2-.3 5-1.5 9.7-3.1 14.4-2 5.6-4.6 10.8-8.2 15.5-1.3 1.8-2.8 3.3-4.2 5-.2.3-.3.7-.4 1.1.4 0 .9.3 1.2.2 2.2-.6 4.4-1.3 6.5-2 1.9-.6 3.7-1.4 5.7-2-3.4 5.2-6.5 10.4-8.4 16.2.1.2.3.3.5.4.6-.8 1.2-1.5 1.8-2.3 1.8-2.3 3.5-4.8 5.5-7 .8-.9 2-1.5 3.1-1.9 3.8-1.5 7.6-2.8 11.8-2.8.5 0 1 .1 1.8.2-.5.6-.8 1.1-1.1 1.4-3.4 3.3-6.8 6.4-10.1 9.8-4.7 4.8-9.2 9.7-13.8 14.6-.3.4-.8.5-1.2.8-.2-.5-.5-1-.5-1.4.1-1.7.3-3.4.5-5.1 0-.5.1-.9.2-1.5-1.5.2-1.5 1.4-1.9 2.2-1.4 2.9-2 6-.9 9.2 1.1 3.4 3.9 5.2 7.2 6.3 3.9 1.3 7.8 1.1 11.7.4 3.3-.6 6.5-1.2 9.7-2.1 3-.8 5.8-2 8.7-3 .6-.2 1.2-.3 1.8-.5-1.7 4.9-3.7 9.6-5 14.5-1.3 4.9-2.3 10-1.1 15.1.2 0 .4.1.6.1.1-.4.3-.8.3-1.3.5-6.8 3-13 5.9-19 1-2 3.1-2.4 4.8-3.1 3.9-1.7 8-3 12.4-3.2h1.1c.1.2.2.3.3.4-4.1 5.1-8.2 10.2-12.2 15.5-4 5.2-8 10.4-11.4 16 .1.2.3.3.4.4 1.2-1.1 2.3-2.3 3.5-3.4 2.5-2.4 4.9-4.9 7.4-7.3.3-.2.7-.3 1-.3.2 0 .4.5.4.8 0 4.5-.6 8.9-2.2 13.1-.1.5-.9.9-1.5 1-1.1.2-2.3.1-3.5.1-.5 0-1.1.1-1.6.4 3.2 1.6 6.6 1.8 10 1.8 3.3 0 6.7-.5 10.1-.8-1 1.3-2.1 2.6-3.2 3.9h25.6c0-.9 0-1.9.1-2.8.1-.6.1-1.3.4-1.7 1.8-2.1 3.8-4.1 6-6.5.7 3.9.6 7.5.9 11.1h4c.1-4.1.5-8.1.2-12.1-.2-3.2.6-5.8 3.1-7.8.9-.7 1.6-1.6 2.4-2.4.2-.3.6-.4.9-.6.2.3.6.6.6 1 .3 4.2.8 8.4 1 12.6.2 3 .1 6.1.1 9.2h3.4c1.1-9.1 1-18.2.7-27.3-.1-1.3.2-2.4 1.2-3.3 1.3-1.1 2.3-2.5 3.5-3.7.2-.3.7-.4 1.1-.6.2.4.6.8.6 1.3.8 8.9.9 17.7.1 26.6-.3 2.4-.5 4.7-.7 7.1h13.7c-.4-.9-.2-1.6.6-2.2 1.5-1.1 2.8-2.4 4.1-3.7.7-.8 1.3-.5 1.6.3.7 1.8 1.3 3.7 1.9 5.6h8.5c-.3-1.8-.5-3.6-.9-5.4-.7-2.5-1.5-5-2.2-7.5-.2-.6 0-1.4.4-1.8 1.4-1.5 3-2.9 4.5-4.3.8-.7 1.3-.2 1.5.5.6 2.4 1.3 4.9 1.8 7.3.6 3.5 1.1 6.9 1.6 10.4v.8h5.7c.1-5.3-.4-10.6-1.6-15.8-.7-3.1-1.6-6.1-2.3-9.2-.1-.4.1-1.1.4-1.5 1.9-2.1 3.9-4.2 5.9-6.2.9-.9 1.2-.8 1.7.5 4.2 10.4 3.9 21.3 3.3 32.2h21.9c-.2-1.6-.3-3.2-.5-4.8-.6-5.2-1.3-10.4-2-15.6zm20.8-387.6c-3.9-.5-7.8-1.8-11.6-2.8-1.4-.4-2.7-1-4.1-1.5.1-.2.1-.5.1-.7 15.3 3.3 30.2 2.2 44.4-4.6.1.1.1.2.2.3-.4.5-.8.9-1.2 1.3-8.1 6.6-17.5 9.1-27.8 8zM181 205.8c-2.7-10.9-.5-21.1 5.4-30.6-3.1 18-.6 35 7.9 51-6.6-5.4-11.2-12.1-13.3-20.4zm11.1 1.8c-2.8-8-1.6-15.8 1.5-23.5.6 11.6 1.8 23.1 5.8 34.2-3.5-2.9-5.9-6.5-7.3-10.7zm76.1-25.8c-1 2.7-2.7 4.9-4.8 6.9-3 2.9-6 5.6-9 8.5-1 1-1.9 2.1-2.9 3.2-.1-.1-.2-.1-.3-.2.2-.7.2-1.4.5-2.1 2.1-5.1 4.7-9.9 8.3-14.1 3.7-4.3 6.5-9.2 8.7-14.5.2-.4.6-.7 1.1-1.2 0 4.7 0 9.1-1.6 13.5zm21.2-42.3c1.2-.2 1.6.2 1.6 1.4.1 4.4-2.4 7.2-5.7 9.4-3.1 2-6.7 3.1-10.2 4.2-7.3 2.3-13.2 6.3-16.8 13.3-2.6 5.1-5.2 10.2-8.1 15.2-2.4 4.2-5.6 7.9-9.5 10.7-3.3 2.3-6.8 4-10.9 3.9-4.2-.1-7-2.2-9-5.7-.4-.7-.7-1.5-1-2.2.1 0 .3-.1.4-.1 1.5.8 3 1.6 4.8 2.3 2.5 1.1 5 .9 7.5.2 3.9-1.1 6.4-3.9 8.8-6.9 4.7-5.9 8.2-12.6 12.1-19 2.8-4.5 5.1-9.4 9-13.2 4.4-4.4 9.5-8 15.3-10.3 3.8-1.5 7.6-2.7 11.7-3.2zm-13.9-5.7c.1.2.1.5.2.7-1.5.8-3.1 1.6-4.7 2.4-4.1 2.3-7.6 5.5-10.2 9.3-4.3 6.2-8.3 12.5-12.3 18.9-3.9 6.2-8.8 11-16 13.3-3.6 1.2-8.6 1.2-11.5-.3.6-.2.9-.4 1.3-.4 8.4-.8 14.8-5.1 19.5-11.7 4.1-5.6 7.7-11.7 11.4-17.6 3.2-5.1 7.2-9.5 13-11.8 3-1.1 6.2-1.8 9.3-2.8zm-63.2 11.6c3.3-.7 6.5-1.6 9-4-.1 3.8-2.1 6.4-5 8.1 2.9 0 5.5-1.1 7.7-2.7 2.3-1.6 4.3-3.5 6.5-5.4-.2 2.4-.7 4.6-1.7 6.6-1 2.1-2.4 3.9-3.7 6 .6-.2 1.2-.2 1.8-.4 6.9-2 12.2-6.4 16.5-12.1 2.2-2.8 4.5-5.5 7.5-7.5 2.7-1.8 5.8-2.4 9-2.5h2.2c-.5.5-.7.9-1.1 1.1-4.3 2.3-6.9 6.1-9.2 10.2-2.7 4.7-5.3 9.4-8.1 14-2.4 3.9-5.4 7.2-9.1 9.9-5.9 4.3-12.4 6.2-19.6 5.2-4.6-.6-8.3-3-10.3-7.4-1.4-3-1.5-6.4-.7-9.6.4-1.9 1.2-3.8 2.1-5.6 1.3-2.4 3.7-3.3 6.2-3.9zm-46.6 12.2c2.7-5.6 5.8-10.9 10.2-15.4 4.3-4.4 9.3-7.8 15.1-10.1 5.3-2.1 10.4-4.5 14.3-9 1.6-1.8 2.5-3.9 3-6.3.1-.4.2-.8.4-1.4 2.9 2.6 3.3 7.2 1.3 10.4-1.9 3-4.7 4.9-7.8 6.4-2.6 1.3-5.5 2.1-8.1 3.4-3.3 1.6-6.7 3.3-9.8 5.3-5.8 3.7-10.5 8.5-15 13.6-1.2 1.3-2.2 2.8-3.6 4.2 0-.3-.2-.8 0-1.1zm-2.6 38.5c-.8-6.1 1-11.6 5.2-16.3-1.7 10.1-.5 20 1.5 30-3.7-3.8-6.1-8.3-6.7-13.7zm8.1 2.2c-.7-6.8.2-13.2 4.9-18.7-2.1 12.2-.4 23.9 3.6 35.5-2.3-.6-8-12-8.5-16.8zM79.1 358.5c-3.5 5.5-7.9 10.3-12.8 14.6-.8.7-1.5.9-2.6.4-2.8-1.2-4.5-3.1-5.4-5.9-.4-1-.1-1.8.9-2.2 2.9-1.2 5.8-2.3 8.7-3.5 3.3-1.4 6.6-2.7 9.9-4 .4-.2.8-.2 1.4-.4-.1.5-.1.6-.1 1zm5.4 74.3c-2.2-.5-3.8-1.7-5.1-3.4-.5-.7-.7-1.5.2-2.1 4.7-3.4 9.3-6.8 14-10.2.1-.1.3-.1.9-.3-.8 2.3-1.3 4.4-2.2 6.1-1.8 3.2-3.8 6.2-5.7 9.3-.5.8-1.2.8-2.1.6zm19.7-17.6c-1.1 3.6-2.4 7.1-3.8 10.5-.9 2.1-2.1 4.2-3.5 6.1-.5.7-1.8.8-2.7 1-1.7.3-3.4.4-5.1.6 0-.1-.1-.3-.1-.4 1.1-1.4 2.2-2.8 3.3-4.3 3.2-4.4 5.5-9.2 6.3-14.7.1-.4.3-.9.6-1.1l5.4-3.9c.2-.1.5-.1 1-.1-.4 2.2-.7 4.3-1.4 6.3zm70.4-89.4c1.4 1.8 3.4 3.1 5.2 4.6.3.2.7.3.9.2.2-.2.3-.6.3-.9-.5-3.7.2-7.4 1.6-10.8.9-2.2 2.3-4.2 3.7-6.2.8-1.3 2-2.3 3-3.5.2.1.3.2.5.3-.3.9-.6 1.8-1 2.6-2.1 6.9-2.3 13.7 1.1 20.3 1.9 3.6 4.6 6.5 8 8.7.4.2.7.4 1 .9-3.3.6-6.5.3-9.7-.8-3.3-1.1-5.7-3.3-7.9-6-1.1 6.2 1.5 10.8 5.8 15-.5.1-.8.3-1.1.2-5.9-1.2-11.6-2.9-16.2-7-4.8-4.3-6.6-9.8-6.4-16.1.2-6.2 2.1-11.9 4.7-17.5.3-.5.5-1.1.8-1.7h.5c.1.6.2 1.2.2 1.8-.1 5.9 1.3 11.2 5 15.9zm17 39.8c-.1 4.5-.4 8.9-1.6 13.2-.1.5-.1.9-.2 1.4-.4 1.6-.9 3.1-2.5 4.1-2.3 1.5-4.4 3.1-6.6 4.7-.2.2-.6.3-1.2.6.9-2.7 1.7-4.9 2.3-7.3 1.7-5.3 2.5-10.8 2.9-16.4.1-2.3 0-2.2 2.3-1.9 1 .2 2.1.2 3.1.2 1.1-.1 1.5.4 1.5 1.4zm-33.8-1.3c.1.1.1.3.2.5-2.2 1.5-4.5 2.9-6.8 4.4-.3.2-.8.1-1.2.1-4.3 0-8.5 0-12.8.1-.5 0-1 .2-1.5.3-.6.1-1.2.1-1.8-.1 7.5-3.8 15.7-4.6 23.9-5.3zm-21.1-1.1c4.9-5.2 9-10.5 12.5-16.4 3.4-5.8 6.3-11.9 8.7-18.3.1.6.2 1.1.2 1.6.2 2.3.4 4.6.7 6.9.2 1.4.1 2.7-.6 4-3.2 6.1-6.5 12.2-10.8 17.6-.6.8-1.6 1.5-2.5 1.9-2.2 1-4.5 1.8-6.7 2.7-.3.1-.7 0-1.5 0zm17.5-6.2c-.6.2-1.1.5-2 .8 3-4.7 5.9-9 8.7-13.2 1.6 2.3 3.2 4.5 4.8 6.7.5.6.4 1.2-.4 1.5-3.7 1.4-7.4 2.9-11.1 4.2zm6.4-55.1c-1.7 1.9-3.7 3.2-6.5 3.1-1.8-.1-3.7.4-5.5.6-.4.1-.9 0-1.5-.1 1.5-1.9 2.7-3.6 3.9-5.4 2.1-3 3.6-6.2 4.6-9.7.1-.4.7-.9 1.2-1.1 2.5-1 5.2-1.6 7.6-2.7 1.5-.6 2.8-1.9 4.3-3 0 .4.2.8.1 1.1-1.5 6.3-3.6 12.4-8.2 17.2zm-7.7 25.9c.3-.1.6 0 .9 0 0 .3.1.6 0 .8-3 8.2-7 15.8-11.9 23-2.7 3.9-5.6 7.7-8.5 11.5-1.7 2.3-3.9 3.7-6.7 4.5-1.9.5-3.8 1.4-5.8 2.1-.5.2-1 .2-1.5.3 1.8-2 3.5-3.9 5.1-5.7 5.8-6.3 10.7-13.3 14.6-20.9 1.9-3.6 3.4-7.5 5.1-11.2.3-.6 1-1.2 1.6-1.5 2.3-1.2 4.7-2 7.1-2.9zm-29 48.7c4.5-.6 8.9-1.1 13.3-1.5 1.1-.1 2.3.2 3.4.3.3.1.6.4.7.6 0 .1-.3.4-.5.6-1 .7-1.9 1.5-3 2.1-.5.3-1.1.5-1.7.5-5.7-.5-11.3.3-16.9 1.5-1 .2-1.9.5-2.9.8-.1-.1-.1-.3-.2-.5 2.7-1.6 4.8-3.9 7.8-4.4zm9.7 25.5c1-4.2 1.5-8.7 2.1-13 .2-1.2.5-2.1 1.6-2.8 2-1.3 3.9-2.7 5.8-4.1.3-.2.7-.4 1-.6.1 0 .3.1.4.1-.2 1.8-.1 3.6-.2 5.4-.9 4.1-1.8 8.3-2.9 12.3-1.6 5.5-4.3 10.5-7 15.6-1.8 3.5-4.8 4.9-8 6.4-.2.1-.4 0-.8 0 .1-.5.2-.9.4-1.2 3.5-5.6 6-11.7 7.6-18.1zm6.9 7.4c1.9-3.9 3.8-7.8 5.2-11.8 1.3-3.8 2.1-7.8 2.9-11.7.5-2.4.5-4.9.9-7.3 0-.6.5-1.3 1-1.7 1.5-1.2 3.2-2.2 4.8-3.3.3-.2.7-.3 1-.4.1.3.3.7.3 1-.2 2.9-.3 5.9-.7 8.8-1 7.7-3.3 15.1-6.6 22.1-.6 1.4-1.4 2.8-2.1 4.2-.9 1.8-2.8 2.4-4.4 3.4-1.4.9-2.9 1.7-4.4 2.5-.3.2-.7.2-1.3.3 1.3-2.2 2.6-4 3.4-6.1zm13.6-8.2c2.1-4.3 3.6-8.9 4.8-13.6 1.4-5.5 2.2-11 2.3-16.7.1-1 .4-1.7 1.3-2.2 1.8-1.1 3.4-2.3 5.1-3.4.3-.1.5-.2 1-.4.1.6.2 1.1-.1 1.6-.3 4.1-.5 8.2-1.1 12.3-.9 6.3-2.6 12.4-5.3 18.1-.9 1.9-1.8 3.9-3.1 5.6-.9 1.1-2.3 2-3.6 2.8-1.4.9-2.9 1.7-4.6 2.3 1.1-2.1 2.3-4.1 3.3-6.4zm1.7 28.9c.2-2.8.4-5.7.6-8.6 0-.4 0-1 .3-1.2 2.2-2 4.3-4 6.5-5.9.1 0 .3.1.4.2.1.4.2.9.1 1.5-.7 6.2-1.3 12.5-2.2 18.7-.8 6.2-2.7 12-5.1 17.7-1.5 3.4-4.4 5.9-8.1 6.8.1-.5.1-.9.2-1.2 4-8.9 6.4-18.3 7.3-28zm4.8 18.1c1.1-2.8 2.2-5.5 3-8.3 1.2-4.2 2.4-8.4 3-12.7.7-5 .9-9.9 1.2-14.9.1-1.4.5-2.5 1.6-3.4 1.9-1.5 3.7-3.2 5.8-5 .1.8.3 1.3.2 2-.1 6.8-.8 13.6-2 20.3-1.3 7.6-3.3 15-6.7 22-.4.8-1.1 1.6-1.8 2.1-1.7 1.2-3.6 2.3-5.5 3.4-.3.2-.8.2-1.4.3.9-2.2 1.9-3.9 2.6-5.8zm13.8-55.4c-.2.5-.6.9-1 1.2-2.9 2-5.9 3.9-8.8 5.8-.1.1-.3.1-.8.2 1.2-2.5 2.4-4.7 3.4-7 2.7-6 4.8-12.1 5.5-18.6.5-3.9.7-7.8 1-11.7.2-2.1 1.1-2.5 3-1.9 2.4.8 3 2.2 2.7 4.5-.6 5.4-.9 10.8-1.8 16.1-.7 3.8-2.1 7.6-3.2 11.4zm-31.8-166.6c2.7 1.7 5.1 3.7 6.9 6.4.3.3.7.6 1 .9.1 0 .2-.1.3-.2-.3-.9-.7-1.8-1-2.4-2-4.8-2.7-9.8-3.1-14.9-.1-.3.2-.7.3-1.1.3.3.7.5 1 .8 3.3 2.8 6.4 5.8 9.9 8.4 4.9 3.7 10.6 5.8 16.3 7.6 1 .3 1.9.5 2.9.7.9.2 1.2.6.6 1.5-1.6 2.3-3.2 4.6-4.6 7-.4.6-.6 1.6-.4 2.3 1.8 6.6 2.6 13.3 1.8 20-1 8.6-5.1 15.4-13.1 19.5-.1.1-.2.1-.7.2.4-.6.5-1.1.8-1.4 5.5-6.5 7.5-14.1 6.6-22.5-.6-4.7-2.2-9.1-4.3-13.3-.2-.6-.8-1.1-1.3-1.4-1.6-.8-3.3-1.5-4.9-2.2-.2-.1-.4-.1-.9-.2.5 1 .8 1.8 1.2 2.6 2.5 4.7 4.4 9.5 5.2 14.7 1.7 11.2-1.8 19.8-12.4 25.4-1.1.6-2.4 1-3.6 1.6-.3.2-.7.6-.8 1-1.2 5.5-3.7 10.4-7.3 14.7-.6.7-1.9 1-3 1.3-2.2.6-4.3 1-6.5 1.5-.1 0-.3 0-.8-.1.5-.6.7-1 1.1-1.4 4.1-4.4 7.9-9.1 10.8-14.4.5-.8 1.6-1.4 2.5-2.2-.5-.1-.8-.3-1.1-.3-6.5-.6-12.3-2.9-17-7.4-2.3-2.2-4.2-5-5.6-7.9-1.7-3.4-3.1-7.2-3.9-10.9-.9-4.2-1.4-8.6-.6-13 .4-1.9-.1-4 1.7-6-.3 8.8 3.3 15.9 7.9 22.5.1-.1.3-.1.5-.2-.1-.8-.2-1.6-.4-2.3-2.2-7.5-3.3-15.2-3.1-23.1.1-2.6.5-5.1 1.4-7.5.9-2.4 2.5-4.2 4.6-5.2 2-1 4.2-1.6 6.4-1.9 3.2-.4 6.1 1.1 8.7 2.8zm-89.3-8.4c.9-1.4 1.5-3 2.1-4.5.4-.9 2.3-1.7 3.1-1.2.2.1.4.6.3.9-1.3 4.5-4 8-8.2 10.2-.4.2-.9.1-1.4.2 1.4-2.1 2.9-3.8 4.1-5.6zm-7.5 2.7c-1.6 2-3.6 3.5-6.1 4.2-.3.1-.6.2-1.4.3.6-.7.9-1.1 1.2-1.4 3.2-2.6 5.2-6 6.9-9.7.5-1 2.1-1.8 3-1.3.3.2.4 1.4.2 1.8-1.2 2.1-2.4 4.2-3.8 6.1zm14.2-1.3c1.3-2.1 2.4-4.3 3.6-6.4.3-.5.8-1 1.4-1.3.3-.2 1.1-.2 1.4.1.2.2.1 1-.1 1.4-1.3 3.5-3.2 6.7-6.8 8.5-.4.2-.9.2-1.4.3-.1-.1-.1-.3-.2-.4.7-.8 1.5-1.4 2.1-2.2zM56.9 208c-.4 0-.7-.1-1.4-.2 2-1.4 3.8-2.6 5.6-3.8 5.9-4 11.1-8.7 15.6-14.2 2.9-3.5 5.6-7.3 8.4-11 .5-.7 1.1-1.1 2-.4 1.5 1 3 2 4.6 3 1.3.8 1 1.9.3 2.8-2.2 3-4.3 6.1-6.8 8.9-4.1 4.5-8.8 8.3-14.2 11.2-4.4 2.3-9 3.9-14.1 3.7zM73.2 83.5c4.8-2.1 9.2-5 13.2-8.3 1.9-1.6 3.8-3.4 5.7-5.1.4-.3 1-.6 1.5-.6 3.1-.3 6.1-.5 9.2-.7.3-.1.7 0 1 0 .1.1.1.2.2.3-.9.7-1.7 1.4-2.6 2-5.2 3.4-10.3 7-15.7 10.2-3.4 2-7.1 3.6-10.8 5.2-1.7.8-4.5.2-6.1-1.1 1.5-.6 3-1.3 4.4-1.9zm-13.1.6H60c-2.1-.3-4.1-.5-6.2-.7v-.5c1.6-.8 3.1-1.7 4.7-2.5 7.3-3.9 14-8.7 19.8-14.6.8-.8 1.5-.8 2.6-.8 2.7 0 5.4-.3 8.1-.5.3 0 .6-.1.9-.1.1.2.2.3.3.5-1.5 1.3-2.9 2.6-4.5 3.9-4.7 3.4-9.4 6.9-14.4 10-3.5 2.1-7.5 3.5-11.2 5.3zM87.2 116c2.7-3.2 5.5-6.4 8.2-9.7 1-1.2 2.5-1.6 3.8-.6.3.2.4 1.1.2 1.4-2.9 4-6 7.8-9.8 11-.3.2-.8.4-1 .5-.3 0-.5-.1-.7-.2l-1.8-.9c.4-.5.7-1 1.1-1.5zm-9-1c-1.4 1.3-2.8.8-4.2.7-.8-.1-.5-.8 0-1.3.9-.9 1.9-1.7 2.7-2.7 2.4-2.9 4.8-5.8 7.1-8.8 1.4-2 2-2.1 4.2-.3-2.9 4.4-6 8.6-9.8 12.4zm22.8 19.4c-2.4.8-5.2-.4-6.6-2.3-1.4-1.9-3.2-3.5-4.8-5.3-.1-.2-.4-.4-.6-.6 2.6-1 10.4 3.9 12 8.2zm-1.5-12.2c-.1-.3.2-1.1.5-1.4 2.1-2.2 4.4-4.4 6.5-6.7 1.3-1.4 2.4-3 3.5-4.6.6-1 1.3-1.3 2.4-1.1.6.1 1.2 0 1.8.1.3.1.6.3 1 .5-.3.4-.4.6-.5.8-3.5 4.7-7.5 8.9-11.9 12.7-.8.6-2.8.5-3.3-.3zm-1.7-25.6c-2.3.9-4.4-.4-6.5-1v-.4c.8-.2 1.6-.4 2.4-.7 6.5-2.4 12.3-5.9 17.5-10.4l.3-.3c2.1-2.3 4.6-3 7.7-3 2.2 0 4.5-1.1 6.8-1.7.2-.1.4-.1.6-.2 0 .1.1.2.2.3-2.7 2.2-5.4 4.6-8.2 6.7-3.6 2.5-7.3 4.9-11.2 6.9-3 1.6-6.4 2.6-9.6 3.8zm13.4-18.8c-5 4-10.4 7.2-16.1 9.8-3.3 1.5-6.7 2.9-10.2 3.8-1.4.3-3.2-.8-4.8-1.3.1-.2.1-.4.1-.6.8-.3 1.6-.6 2.5-.9 5.9-1.9 11.1-5.2 16.1-8.8 1.3-1 2.5-2.1 3.6-3.2.8-.8 1.6-.9 2.7-.9 2.9-.1 5.8-.3 9.1-.5-1 .8-2 1.7-3 2.6zM72.6 96.6c.2-.3.7-.6 1-.5.6.2 1.3.4 1.8.8.3.3.6 1.1.4 1.4-3.5 5.8-7.6 11-12.8 15.3-.7.6-2.2.3-3.4.5-.1-.1-.1-.3-.2-.4.3-.5.5-.9.8-1.3 5-4.6 9.1-9.9 12.4-15.8zm-1.9 25.2c.5 0 1 0 1.4.1 4.5 1 8.7 2.7 12.2 5.6 1.6 1.4 2.9 3.2 4.3 4.9.2.2.2.7.1.9-.1.2-.5.3-.8.3-1.5-.1-3-.2-4.5-.4-.3-.1-.9-.5-1-.8-1.8-4.4-5.6-6.7-9.5-8.9-.8-.5-1.5-.9-2.3-1.3 0-.1.1-.3.1-.4zm14.2 19.1c.3-.8.7-1.3 1.6-1.2 2.5.2 4.9.3 7.4.5 1.2.1 1 .8.7 1.5-1.9 5.2-4.6 9.9-8.1 14.2-4.3 5.4-9.6 9.4-16 11.9-1.1.4-2.4.3-3.6.3-1.4 0-2.8-.1-4.2-.2 0-.1-.1-.3-.1-.4.9-.5 1.8-.9 2.7-1.4 5.7-3.6 10.4-8.1 13.9-13.8 2.2-3.5 3.9-7.5 5.7-11.4zm-3.5 24.7c3-2.1 6-4.3 8.9-6.7 5.1-4.3 8.8-9.7 12-15.5.2-.3.2-.8.5-1.1.6-.5 1.2-1.1 1.8-1.1 2.9.1 5.7.5 8.5.8.3 0 .5.2.9.4-.8 1.2-1.5 2.5-2.5 3.5-3.9 4.6-7.8 9.2-12 13.5-3.8 3.8-8.1 7.1-13.2 9.2-1 .4-2.2.6-3.4.6-1.6 0-3.2-.2-4.8-.3-.5-.1-.9-.2-1.4-.6 1.6-.8 3.2-1.7 4.7-2.7zm-1.2 38.3c4.3-2.2 8.1-5.2 11.5-8.5 2.9-2.9 5.6-6.1 8.2-9.3 1-1.3 2.4-1.8 3.8-2.2 1.8-.6 3.6-1.1 5.6-1.7-2.3 7.5-27.6 25.8-32.9 23.7 1.4-.7 2.6-1.4 3.8-2zm18.4-3.4c7-4.8 13.1-10.6 17.9-17.6 1.1-1.6 2.6-2.6 4.2-3.4 1.3-.6 2.7-1.2 4-1.8.2.1.3.3.4.4-5.1 8.3-11.6 15.3-19.5 20.8-3.8 2.7-7.9 5.1-12.7 5.7-.1-.1-.1-.2-.2-.3 2-1.3 4-2.5 5.9-3.8zm26.2-49.7c-4.4 4.8-9.2 9.2-14.6 12.8-4.6 3.1-9.5 5.5-15 6.8-.8.1-1.6 0-2.4-.1-.3 0-.6-.3-.9-.5.2-.3.3-.6.6-.8 2.8-1.7 5.8-3.3 8.5-5.1 6.7-4.5 12.3-9.9 16.9-16.5.8-1.1 1.4-2.2 2-3.3.5-.9 1.1-1.3 2.3-1 2.2.5 4.4.8 6.6 1.2.3 0 .5.2 1.1.5-1.8 2.1-3.4 4-5.1 6zm-9.1-52.5c-2.2.8-4.3 2-6.7 1.4-1.3-.3-2.5-.6-3.7-.9v-.4c1.8-.9 3.7-1.7 5.4-2.6 6.2-3.1 12-6.7 17.2-11.4.4-.3 1-.7 1.5-.7 3.9-.3 7.1-1.8 10.2-4 .3-.2.6-.2 1.2-.4-.4.8-.6 1.3-.9 1.8-2.2 3.6-5.4 6.2-8.7 8.7-4.7 3.6-9.9 6.5-15.5 8.5zm9.1-28.8c-1.7.6-3.7 1.5-5.8-.3 1.8-.7 3.3-1.3 4.9-1.7 5.4-2.1 10.4-5 15.2-8.4 2-1.4 3.9-2.9 5.8-4.3.7-.5 2.1-.2 2.5.5.1.2 0 .6-.2.8-3.5 3.4-7.4 6.4-11.8 8.7-3.5 1.7-7 3.2-10.6 4.7zM137.9 52c-6.9 6.2-14.6 10.8-23.2 14.1-1.5.6-2.2-1-3.3-1.5.1-.2.1-.3.1-.5 1.2-.5 2.5-.8 3.6-1.5 4-2 8-3.9 11.9-6.2 3-1.8 5.6-4 8.4-5.9.6-.3 1.5-.5 2.2-.3 1.1.3 1.2.9.3 1.8zm-9-4.4c-2.4 1.9-4.7 4-7.3 5.6-3.6 2.3-7.5 4.3-11.2 6.4-.7.4-1.4.7-2.2.9-1.6.5-1.8-1.1-3.1-2 1.4-.7 2.4-1.3 3.5-1.7 5.5-2.7 10.8-5.9 15.6-9.7.3-.3.6-.5.9-.7 1.7-1.2 2.4-1.2 4-.1.2.1.1 1.1-.2 1.3zm-17 .9c-2.9 2-6 3.6-9 5.4-.9.5-3.2-.5-3.3-1.5 0-.3.5-.8.8-1 3.5-2.4 7.1-4.7 10.6-7.1 1.2-.9 2.3-2 3.4-3 .6-.6 1.3-.9 2.2-.4 1 .5 2 .8 3 1.2 0 .2.1.3.1.5-2.6 2-5.1 4.2-7.8 5.9zm-5-9.4c-3.5 3.3-7.3 6.3-11.5 8.7-.9.6-1.6.7-2.5.1-.9-.5-1.9-.8-3.2-1.4 1.2-.8 2.2-1.3 3.2-2.1 3.4-2.5 6.7-5 9.9-7.6.8-.6 1.5-.9 2.4-.5.4.2.9.4 1.3.6 1.9.6 2 .7.4 2.2zm-16.4-.3c-2.4 1.9-5.2 3.5-7.7 5.3-1.9 1.4-3.8.5-5.7.2 5-3.6 9.1-7.8 13.2-12.2.3-.2.8-.6 1.1-.5 1.6.5 3.2 1 5.2 1.7-2.3 2-4.1 3.8-6.1 5.5zm-21.8 4.5c-1.2.7-2.7 1-4.2 1.3-1.3.2-2.7.1-4 .2-.1-.1-.1-.2-.2-.3.6-.4 1.2-.8 1.7-1.2 3.4-2.8 6.9-5.6 10.3-8.6 2-1.8 3.8-3.7 5.5-5.6 1-1.1 1.9-1.6 3.3-1 .9.4 1.9.7 3.1 1.1-4.7 5.6-9.6 10.3-15.5 14.1zm-.5 11.2c1.5-1.6 2.9-2.2 4.9-2.2 2.6 0 5.2-.4 7.8-.6h2c-.5.7-.7 1.2-1 1.6-5.5 6-11.3 11.7-18.2 16.2-4.6 3-9.1 6.1-14 8.6-5.3 2.7-10.9 4.8-16.4 7-1.8.8-3.8 1.1-5.7 1.6-.1-.3-.2-.5-.3-.7 1.4-.7 2.9-1.4 4.2-2.3 5-3.1 10.2-6.2 15-9.6 8-5.6 15.3-12.1 21.7-19.6zm-34.7 53.9c4.5-4.9 8.3-10.3 10.8-16.5.4-.9 1-1.2 2-1.2 4.1 0 3.1.2 1.8 2.9-3.6 7.3-8.3 13.8-14.2 19.5-1.7 1.7-3.6 1.3-5.6 1.3-.1-.2-.3-.4-.4-.6 1.8-1.8 3.8-3.5 5.6-5.4zm16.9-1.6c3.9-4.6 7.2-9.5 9.4-15.1.1-.4.7-.7 1.1-.8.6-.1 1.2 0 1.8.2 1.4.4 1.6.7.9 2-3.8 7.3-8.5 13.9-14.6 19.5-1.3 1.2-3.2 1.4-4.6.7 2-2.2 4.1-4.4 6-6.5zm-5.2 13.6c2 .1 4.1.2 6.3.2 5.2.2 10.1 1.4 14.8 3.5 3.9 1.7 7.3 4.4 9.7 8.6h-5.2c-2.2.1-3.8-.5-5.2-2.4-2.7-3.8-6.7-5.8-11-7.1-2.4-.7-4.9-1.1-7.3-1.7-.7-.1-1.5-.5-2.2-.7 0 0 .1-.3.1-.4zm21.9 24.5c.6-1.5 1-3.1 1.7-4.6.3-.5 1-1 1.6-1 2.3 0 4.7.1 7 .1 1.2 0 1.5.5 1.1 1.5-3.6 10.3-9.4 18.9-18.9 24.6-1.1.6-2.1 1.1-3.2 1.6-2.6 1.2-5.2.4-7.8.3-.1-.1-.1-.3-.1-.5 1.6-1 3.2-1.9 4.7-3.3 6.3-5 10.8-11.3 13.9-18.7zm-5 38c1.8-2.4 3.6-4.8 5.3-7.2.6-.8 1.3-1.1 2.3-1.1 2.3.1 4.7 0 7 .1 1.5 0 1.7.4 1 1.7-5.7 10.9-13.4 20.1-22.8 27.9-3.5 2.9-7 4.9-11.7 4.5-2.5-.2-5.1.4-7.6.6 0 0-.1-.1-.6-.3 1.3-1 2.5-1.9 3.6-2.9 9.1-6.4 16.7-14.4 23.5-23.3zM36 214.2c.4-.8 3.4-1.8 4.1-1.2.2.3.3 1.1.1 1.4-1.2 2.1-2.2 4.4-3.8 6.1-1.7 1.9-3.9 3.4-6 4.8-.7.5-1.9.4-2.8.6-.1-.1-.1-.3-.2-.5.7-.5 1.3-1 2-1.7 2.8-2.7 5-5.9 6.6-9.5zm5.5 17.9c.8-1.3 1.7-2.2 3.4-2.3 1.7-.1 3.5-.6 5.3-.8.4 0 .8.1 1.2.1 0 .4 0 .9-.2 1.2-2.4 4.8-5.2 9.5-8.7 13.6-2.2 2.6-4.6 5-7 7.5-.4.3-.9.6-1.4.6-3 .2-6 .5-9 .7-.3 0-.7-.1-1.4-.2 2.3-2 4.4-3.8 6.3-5.6 4.5-4.4 8.3-9.4 11.5-14.8zm-.1 16.7c6.6-5.6 12-12.2 16.1-19.8.5-1 1.2-1.5 2.5-1.6 1.7-.1 3.5-.5 5.3-.7.6-.1 1.3 0 2.2 0-2.7 6.1-6.1 11.4-10.2 16.1-2.1 2.3-4.4 4.5-6.6 6.8-.9 1-2 1.5-3.5 1.5-2.5.1-5 .4-7.5.6-.4.1-.7 0-1.2-.3 1-.9 1.9-1.8 2.9-2.6zm16.4-2.6c5.2-4.7 9.7-10 13.6-15.8.6-1 1.4-2 1.9-3.1.7-1.4 1.7-2 3.1-2.2 2-.3 3.9-.6 5.9-.8 1.1-.1 1.4.3.9 1.3-3.5 6.4-7.3 12.4-12.5 17.5-2.3 2.2-4.6 4.3-6.9 6.4-.3.3-.8.7-1.2.7-3.2.2-6.3.3-9.9.5 1.9-1.7 3.5-3.1 5.1-4.5zm9.9 2.6c6.4-4.4 11.3-10.1 16.1-16 2.1-2.6 4-5.4 5.9-8.2.7-.9 1.4-1.3 2.5-1.4 2.1-.1 4.1-.4 6.2-.6h1.9c-1.3 2.5-2.3 4.7-3.7 6.7-4.2 7.1-9.4 13.3-15.7 18.6-.4.3-1 .8-1.5.9-4 .4-8 .7-12.4 1.1.4-.6.5-.9.7-1.1zm27.3-10c4.2-4.7 7.9-9.7 10.9-15.2.7-1.2 1.4-1.7 2.8-1.8 2.1-.1 4.1-.4 6.1-.6.4 0 1 0 1.1.2.1.4 0 .9-.2 1.3-2.4 3.9-4.7 8-7.3 11.8-3.2 4.8-7.2 9-11.7 12.7-.4.3-.8.7-1.2.7-3.5.3-6.9.5-10.4.7-.2 0-.4-.1-.9-.3 4.2-2.9 7.6-6.1 10.8-9.5zm16 .6c-.3 2.1-.6 4.2-1 6.3-.1.5-.6 1.3-1 1.3-2.7.3-5.4.5-8.6.7 3.6-3.4 6.9-6.4 10.5-9.6 0 .5.2.9.1 1.3zM93.5 254c.4-.5.9-1 1.5-1.1 2.6-.5 5.1-.9 7.7-1.3.2 0 .7.1.7.2.1.4.1.9-.1 1.2l-3 5.1c-4.4 7.2-9.7 13.7-16 19.4-3 2.7-6.2 5.3-9.5 7.8-.8.6-2 .7-3 .8-3.3.3-6.6.5-9.9.7-.3 0-.6-.1-.9-.1 0-.2-.1-.3-.1-.4.7-.5 1.5-1.1 2.1-1.4 10.4-7 19.8-15.3 27.1-25.6 1.2-1.8 2.2-3.6 3.4-5.3zm15.6.1c.2.1.3.1.5.2.2 1.2.4 2.5.6 3.8.2 1.4.5 2.7.6 4.1 0 .6 0 1.3-.3 1.9-2.7 6.1-6.8 11.2-11.9 15.5-1.6 1.3-3.2 2.7-5 3.7-1.1.7-2.6.9-3.9 1.1-3.1.4-6.1.6-9.1.9-.4 0-.9-.1-1.4-.1 11.9-8.7 22.4-18.4 29.9-31.1zm3.9 15.7c.8 1.6 1.3 2.9 2 4.1.9 1.6 2 3 3 4.6.2.3.5.8.4 1.2 0 .2-.6.4-1 .5-5.2.9-10.4 1.7-15.6 2.5-1 .2-2 .2-3 .3l-.3-.3c5.4-3.5 10.3-7.5 14.5-12.9zm2.6 16.9c1.4-.4 2.8-.5 4.2-.6.7-.1 1.3.1 2 .2-.2.6-.3 1.2-.6 1.8-2.9 5.9-6.4 11.5-10.6 16.7-.9 1.2-2 2.4-3 3.6-.2.2-.5.5-.8.5-3.8.6-7.6 1.1-11.4 1.7-.4.1-.8 0-1.6-.1 2-1.8 3.7-3.3 5.4-4.7 2.3-2.2 4.8-4.5 6.8-7 2.8-3.5 5.2-7.3 7.9-10.9.4-.6 1.1-1.1 1.7-1.2zm-2.4 28.9c.2-.5.8-1.1 1.3-1.3 1.7-.5 3.3-.8 5-1.2 1-.3 1.4.1 1.1 1.1-1.8 5.8-4 11.4-8.2 16-.3.3-.6.6-.9.7l-5.4 1.2c0-.1-.1-.3-.2-.4.1-.4.3-.9.4-1.2 3-4.6 5.3-9.6 6.9-14.9zm1.4-8.1c-.9.2-1.7.4-2.6.6-.1-.1-.1-.3-.2-.4.2-.3.5-.6.7-.8 4.4-4.3 8.4-9 11.7-14.2 1.1-1.8 2.1-3.5 3.2-5.3.5-.8.9-1.3 2.1-.8 1.5.5 3.1.7 4.6 1 .3 0 .7.1 1.3.3-1.5 2.8-2.8 5.4-4.2 8-1.8 2.9-3.7 5.7-5.7 8.5-.5.7-1.5 1.3-2.3 1.5-2.8.6-5.7 1.1-8.6 1.6zm7.1 16.5c2.2-3.5 4-7.2 4.8-11.3.1-.5.6-1.2 1.1-1.3 2.4-.7 4.9-1.3 7.3-1.9.7-.2 1.3 0 1.2 1-.7 3.2-2.1 6.1-4.4 8.6-2.6 2.7-5.7 4.5-9.1 5.9-.4.1-.7 0-1.1 0 .1-.3 0-.7.2-1zm28.8-235.5c-5.6 5.1-11.7 9.4-19.1 11.7-3.5 1.1-7.2 1.7-10.9 1.3-.5 0-1-.2-1.7-.4 2.6-1 4.9-1.8 7.1-3 5.6-2.6 11.1-5.3 15.5-9.8 1.2-1.3 2.4-1.8 4.2-2 2.6-.3 5.1-1.2 7.7-1.9h1.1c-1.5 1.4-2.6 2.8-3.9 4.1zm1.3-22.3c-4.5 2.7-9.5 4.6-14.5 6.3-2.4.9-4.7.6-7.1-.2 2.1-.8 4.3-1.6 6.3-2.4 6-2.4 11.4-5.7 16.2-9.9 2.2-1.9 4.2-1 6.4 1.3-2.5 1.6-4.8 3.5-7.3 4.9zm9.7-56.2c1.5 1.1 3 2 4.1 3.2 4.1 3.6 6.7 8.3 8.4 13.4.6 1.7.4 3.7.4 5.5 0 1.1-.7 1.2-1.5.6-1.8-1.3-3.6-2.6-5.3-4-.6-.5-1.1-1.5-1.2-2.3-.7-4.8-2.3-9.3-4.2-13.8-.3-.7-.6-1.2-.9-1.8-.1 0 0-.2.2-.8zm.5 25c1.1.8 2.1 1.7 3.2 2.6.8.8.7 1.3-.3 1.8-3.2 1.5-6.5 2.5-10 2.6-3.6.2-7.3.2-10.9.1-4.4-.1-8.7-.7-12.7-2.7-.7-.3-1.5-.6-2.3-.9 0-.2.1-.3.1-.5.6 0 1.3-.1 2.1-.1 6.7.3 13.3-.5 19.8-1.8 2.5-.5 5-1.3 7.5-2.1 1.5-.5 2.5.2 3.5 1zM150.2 5c1.2.9 2.1 2.3 2.8 3.7 2 3.7 3.4 7.6 4.2 11.8 0 .4-.1.8-.1 1.2-.4-.2-.8-.2-1.1-.4-1.6-.9-3.3-1.8-4.8-2.8-.5-.4-1-1-1.2-1.6-1.2-3.3-2.2-6.6-3.4-9.8-.4-1.3-1.2-2.4-1.9-3.6-.1-.3-.3-.7-.6-1.4 2.3 1 4.4 1.7 6.1 2.9zm-6.4 19.8c1-.4 1.9-.3 2.8.2 1.8 1 3.6 2 5.3 3.1.2.1.5.5.5.7-.1.2-.3.6-.6.7-3.4 1.2-6.9 2.4-10.4 3.3-6.1 1.5-12.4 2-18.6 2.2-1.9 0-3.8-.9-5.7-1.5-1.6-.5-3.1-1.1-4.6-1.7v-.3c.4 0 .9-.2 1.5-.3 5.4-.2 10.8-.7 16-2.2 4.6-1.2 9.2-2.7 13.8-4.2zm-16.9-8.3c.6-.3 1.5-.5 2.1-.2 2.7 1.1 5.3 2.5 7.9 3.8l.6.3c-.1.1-.1.3-.1.4-1.1.5-2.2 1.2-3.3 1.7-6.8 2.9-13.8 4.9-21 5.9-1.5.2-3 .3-4.5.7-2.8.7-5.2-.3-7.7-1.2-.8-.3-1.6-.5-2.4-.8v-.5c1-.3 2-.6 3.3-.6 7.9-1.2 15.2-4 22.2-7.8 1-.6 1.9-1.4 2.9-1.7zM108.8 9c.6-.3 1.5-.5 2.1-.3 2.9 1 5.8 2.2 8.7 3.4.2 0 .2.2.5.5-1.7 1.1-3.4 2.4-5.3 3.4-5.2 2.9-10.7 5.1-16.4 6.6-1.9.5-3.8.9-5.7 1.5-2.3.7-4.4-.5-6.6-1-1.8-.4-3.6-1-5.4-1.5-.2 0-.5-.1-.8-.6.5-.2 1-.6 1.6-.7 7.7-1.5 14.9-4.3 21.8-8.1 1.9-1.1 3.6-2.2 5.5-3.2zM70 13.5c4.8-2 9.3-4.4 13.6-7.3 1.9-1.3 3.7-2.7 5.6-4.1.8-.7 1.6-.8 2.7-.4 2.8 1 5.7 1.9 8.5 2.8.4.1.9.4.9.7s-.3.8-.6 1c-4 3.3-8.5 5.9-13.3 7.8-4.5 1.8-9.1 3.3-13.6 4.9-.5.2-1.2.2-1.8.1-3-.7-6-1.6-9-2.4-.1 0-.2-.2-.4-.4 2.6-.9 5-1.7 7.4-2.7zM23.1 42.3c-1.7-.5-3.5-.5-5.3-.8-.5 0-.9-.2-1.3-.3v-.4c1.6-.7 3.2-1.3 4.7-2.1 9.3-4.3 18.2-9.4 25.5-16.9.4-.4 1.4-.6 2-.5 2 .2 4 .6 6 .9.4.1.7.2 1.5.4-2.4 2.4-4.4 4.7-6.6 6.7-5.7 5.2-12.1 9.3-19.2 12.3-2.4 1.2-4.7 1.4-7.3.7zm16.3 2c-.2 0-.3-.2-.6-.3 2.4-1.2 4.6-2.2 6.6-3.5 6.3-3.6 12.1-8.1 17.2-13.3.3-.2.5-.4.7-.7 1.6-2.5 3.9-1.8 6.1-1.2.7.2 1.4.4 2.4.7-.9 1-1.6 1.9-2.4 2.8-5 5.9-10.8 10.9-17.6 14.6-1.2.6-2.5 1.1-3.8 1.6-.3.1-.7.1-1 .1-2.5-.3-5.1-.5-7.6-.8zM4 88.5c.7-.5 1.5-1 2.3-1.5 5.7-3.8 11.6-7.3 17-11.5C29 71 34.4 66 39.7 61c2.8-2.5 5.1-5.5 7.7-8.2.6-.5 1.4-.9 2.2-1 3.8-.4 7.7-.6 11.5-.9.5-.1 1 0 1.8.1C53.8 65.3 17.4 88.5 4 88.5zm11.2 27.6c-1.1.9-2.3.7-3.5.8-.1-.1-.1-.3-.2-.4 1.5-1.7 2.9-3.4 4.5-5 4.1-4.6 7.5-9.6 10-15.2.1-.4.2-.9.4-1.2.4-.5.8-1.3 1.3-1.4 1.5-.4 3.1-.6 5.1-.9-.7 1.6-1.2 2.8-1.9 4-4.2 7.2-9.3 13.8-15.7 19.3zm20.9 10.5c-5.3-1.3-10.6-2.3-16.1-2.5-.3 0-.5-.1-.8-.2v-.3c.5-.1 1.1-.3 1.6-.3 5.6 0 11.4-.4 17 .2 6.5.6 12.7 2.3 18 6.4.9.7 1.7 1.6 2.9 2.6-.8.2-1.1.4-1.4.4-2.1.1-4.3.3-6.5.2-.9 0-2-.3-2.7-.9-3.6-2.8-7.7-4.4-12-5.6zM25.7 168c-1.4.6-3.1.6-4.7.8-.8.1-1.6 0-2.5 0 2-2.2 4-4.3 5.9-6.6 3.9-4.8 7.2-10.1 9.4-15.9.6-1.5 1.1-2.9 1.6-4.4.4-1.1 1-1.6 2.3-1.6 2 0 4.1-.2 6.1-.4 1.2-.1 1.6.4 1.1 1.5-1.3 3-2.6 6-4.1 8.9-2.2 4.2-4.6 8.2-7.8 11.8-2.1 2.4-4.4 4.7-7.3 5.9zm16.4-1.2c-2.3 1.4-5 1-7.6 1.3 2.8-3 5.5-5.6 7.9-8.5 3.5-4.3 6.3-9.1 8.3-14.3.6-1.5 1.1-3.1 1.8-4.5.3-.5 1-1.1 1.6-1.1 2.3-.1 4.7-.1 7-.1 1.1 0 1.2.6.9 1.4-2 5-4.4 9.8-7.6 14.2-3.4 4.6-7.4 8.6-12.3 11.6zM19 208.6c3.3-3 6.6-5.9 9.8-9 5.7-5.6 10.4-12 15-18.5.9-1.2 1.6-2.6 2.5-3.8.4-.6 1-1.1 1.6-1.2 3.1-.4 6.2-.6 9.3-.8.4 0 .9.1 1.8.2-1.5 2.3-2.7 4.5-4 6.4-3 4.1-5.9 8.3-9.1 12.3-4.3 5.4-9.4 10-14.8 14.3-1.8 1.4-3.9 1.3-5.9 1.6-2.2.4-4.6.4-6.9.5-.3 0-.6-.1-1.4-.3.9-.7 1.5-1.2 2.1-1.7zM4.9 227.2c1.9-2 4-3.8 5.7-5.7 1.2-1.4 2.1-3.1 3-4.8.6-1.1 1.3-1.6 2.5-1.5h2.5c-.6 5.4-8.9 13.4-13.7 12zm15.9-1.6c-1.4.9-3 1-4.6 1 2.2-2.3 4.4-4.4 6.3-6.6.9-1.1 1.5-2.4 2.1-3.7.8-1.6 2.8-2.8 4.5-2.3.3 0 .6 1 .4 1.3-2.1 4.1-4.7 7.8-8.7 10.3zm-10.5 27.9H7.6c3-2.6 6-5 8.8-7.4 4-3.6 7.2-8 10.2-12.4.4-.7 1.4-1.2 2.2-1.4 2.1-.5 4.2-.8 6.4-1.1.3 0 .8 0 .9.2.1.2.1.6 0 .9-2.4 4.8-5.1 9.4-8.7 13.4-2.1 2.3-4.3 4.4-6.5 6.6-.4.3-.9.6-1.4.6-3.1.2-6.1.4-9.2.6zm-.8 28.3c-1.6-.2-3.2-.7-4.8-1.1-.3-.1-.6-.3-.9-.5 3-2.2 6-4.1 8.7-6.4 3.3-2.7 6.3-5.8 9.5-8.7.6-.5 1.3-1 2.1-1.2 2.3-.5 4.7-.8 7.1-1.2.6-.1 1.1 0 2-.1-.3.6-.4 1.1-.7 1.4-5.6 6.9-12.1 12.8-19.6 17.5-.9.5-2.3.5-3.4.3zm14.4 2.2c-.3.2-.6.4-.9.3-2.4-.4-4.8-.9-7.2-1.4-.1-.1-.2-.2-.5-.4 2.1-1.4 4-2.6 5.7-3.8 6.2-3.9 12-8.4 16.7-14 2.3-2.7 4.7-4.2 8.1-4.3 1.3 0 2.5-.4 3.8-.6 0 .2.1.3.2.5-.6 1-1.3 1.9-2 2.8-5 6-10.6 11.4-16.9 16.1-2.3 1.7-4.7 3.2-7 4.8zm16.7 1.7c-.5.3-1.2.7-1.8.6-3.8-.4-7.6-.9-11.4-1.4-.1-.1-.1-.3-.2-.4 1.2-.8 2.3-1.5 3.5-2.2 3.6-2.4 7.3-4.6 10.7-7.2 6-4.5 11.6-9.6 16.1-15.7.4-.5 1-.9 1.5-1 2.9-.6 5.9-1 8.8-1.5.3-.1.6 0 1.3.1-.8 1.3-1.4 2.4-2.1 3.4-7.3 10-16.1 18.5-26.4 25.3zm3.7 1.3c-.4 0-.8-.1-1.5-.2 4.2-2.8 8.1-5.3 11.8-8 7.2-5.2 13.6-11.2 19.1-18.1 1-1.3 1.8-2.7 2.9-4 .5-.6 1.4-1.2 2.2-1.4 1.9-.5 3.9-.7 5.8-.9.4-.1.9.1 1.1.3.1.1 0 .7-.2 1-5.6 9.9-13 18.2-21.8 25.3-2.3 1.9-4.8 3.7-7.2 5.5-.4.3-.9.5-1.4.5H44.3zM40 316.4c-.3.2-.9.4-1.4.4-4.6.1-9.2.1-13.8.1-.3 0-.6-.1-1.4-.3 2-1.1 3.6-1.9 5.2-2.8 5.5-2.9 10.6-6.4 15.2-10.6.6-.5 1.2-1.1 1.7-1.7 1.1-1.3 2.7-1.7 4.2-2.1l6.6-1.8c.4-.1.7 0 1.5 0-1.1 1.5-2 2.8-3 4-3.1 4.4-6.9 8.2-10.9 11.8-1.2 1.1-2.6 2-3.9 3zm19.2-3.4c-1.2 1.5-2.5 2.6-4.7 2.7-3.2.1-6.3.5-9.5.7-.4 0-.8-.1-1.2-.2 0-.2-.1-.3-.1-.4.8-.5 1.6-1 2.3-1.5 6-4.3 11.6-9.1 16.5-14.7.7-.8 1.4-1.7 2-2.6.8-1.2 1.7-2.2 3.2-2.5 2.1-.4 4.1-1.1 6.1-1.7l.3.3c-1.4 2.3-2.6 4.7-4.2 6.8-3.4 4.6-7.1 8.9-10.7 13.1zm14.9-.7c-.7.8-2 1.2-3.1 1.4-2.6.5-5.3.7-8 1h-1.3c0-.2-.1-.3-.1-.4 1.4-1.3 2.8-2.6 4.3-3.9 5.5-4.6 10.2-10 14.2-16 .8-1.2 1.4-2.7 2.4-3.7.7-.7 2-1 3.1-1.3 1.4-.3 2.8-.5 4.2-.6.4-.1.8.1 1.2.2-.1.4-.1.9-.3 1.2-2.5 3.9-4.7 7.9-7.4 11.6-2.8 3.7-6 7.2-9.2 10.5zm16.6-2.1c-1.3 1.5-3.1 1.4-4.7 1.7-2.4.4-4.9.6-7.3.9-.4.1-.8 0-1.5-.1 2.6-2.4 5.1-4.5 7.4-6.7 5.1-5 9.7-10.4 13.3-16.6.3-.6 1-1.1 1.6-1.2 2-.3 4.1-.4 6.2-.6 1-.1 1.5.2.8 1.3-2.4 3.8-4.4 7.8-7.1 11.4-2.6 3.5-5.8 6.7-8.7 9.9zm.1 24.8c-.2 0-.5-.1-.9-.2.7-1 1.4-2 2-2.7 3-4.2 5.3-8.8 6.8-13.7.1-.5.8-1.1 1.3-1.2 1.9-.5 3.7-.8 5.6-1.1 1.4-.2 1.7 0 1.2 1.4-.7 2-1.6 4-2.5 6-1.6 3.6-3.8 6.9-6.7 9.6-.6.5-1.4.9-2.2 1.1-1.5.3-3.1.6-4.6.8zm-4.2 40.3c-.8.8-1.7 1.3-3 1.2-2-.1-3.9 0-5.9 0 0-.2-.1-.3-.1-.5.3-.3.6-.6.9-.8 6.1-4.3 11.1-9.6 15.2-15.8 1.7-2.7 3.3-5.4 4.6-8.3.8-1.8 2.1-2.5 3.6-3.1 2.1-.8 4.3-1.6 6.4-2.4.3-.1.5-.1 1.2-.2-.6 1.2-.9 2-1.4 3-3.9 7.2-8.6 13.8-14.3 19.7-2.3 2.4-4.8 4.8-7.2 7.2zm15.3-2.3c-1.5 2-3.5 2.7-5.9 2.8-1.8.1-3.6.3-5.4.5h-1.4c.4-.5.7-.9 1-1.2 4.6-3.5 8.6-7.4 12-11.9 3.1-4.3 6.1-8.6 9.1-13 1.1-1.7 1.9-3.7 2.9-5.4.5-.8 1.2-1.6 2-2 2.1-1.1 4.4-2 6.7-2.9.4-.2.9-.2 1.3-.3.2.1.3.2.4.3-.6 1.2-1.1 2.4-1.6 3.8-5 10.6-12 19.9-20.2 28.4-.3.2-.7.6-.9.9zm9.7-.2c-1.6.2-3.2.8-4.9 1.2-.8.2-1.6.2-2.7.3.2-.5.2-.9.4-1 6.8-5.7 12.3-12.5 17-19.9 3-4.7 5.7-9.6 7.6-14.9.6-1.7 2.3-1.9 3.6-2.5 1.9-1 3.9-1.6 5.9-2.4.2-.1.4-.1.9-.1-.4 1.1-.6 2.1-1.1 3-2.7 6.1-5.8 12-9.6 17.5-2.7 3.9-5.7 7.6-8.6 11.3a48.1 48.1 0 0 1-4.2 4.8c-1.2 1.1-2.3 2.4-4.3 2.7zm-12.3 22.1c-.1.1-.3.1-.7.1.2-.4.2-.7.4-.8 1.7-1.3 3.2-3 5.1-4 1.8-1 3.9-1.6 5.9-2 3.7-.8 7.4-1.5 11.2-2 1.6-.2 3.2.1 4.8.1 0 .3.1.5.1.7-.5.5-1 1-1.6 1.3-1.2.9-2.3 1.9-3.6 2.6-.7.4-1.7.7-2.6.7-6.6-.3-12.9.7-19 3.3zm19.5 29.9c-1.9 1-3.9 1.8-5.9 2.6-.1 0-.1-.1-.2-.2.8-1.5 1.7-3 2.5-4.4 3.1-5.5 5.4-11.3 6.4-17.6.4-2.4.5-4.8 1-7.2.2-.9.7-1.9 1.4-2.5 1.7-1.4 3.7-2.7 5.6-4 .2-.2.6-.3.6-.2.1.2.3.5.3.8-.3 2.9-.5 5.8-1.1 8.7-.6 2.9-1.3 5.8-2.3 8.6s-2.2 5.6-3.5 8.3c-.9 1.9-2 3.7-3.1 5.5-.4.6-1 1.3-1.7 1.6zm4.8 7.3s-.1 0-.5-.1c2-2.1 3.8-4.2 6.4-5.2 3.1-.9 6.1-1.6 9.2-2.3 1.2-.3 2.5-.2 3.8-.1.9 0 1.2.6.5 1.3-1.1 1.2-2.4 2.3-3.6 3.4-.2.3-.7.4-1 .4-5.1-.1-10 .7-14.8 2.6zm-7.6 36.6c-3.3-.1-6.6-.7-9-3.4-.7-.7-.8-1.4.1-2.1l12.6-10.8c.2-.2.4-.3.6-.4.2 0 .4.1.6.1-.2 2.3 0 4.7-.6 6.9-.7 3-1.8 5.8-2.9 8.6-.2.5-.9 1.1-1.4 1.1zm10.3-1.7c-.3.5-.8 1.1-1.3 1.2-1.5.3-3 .4-4.5.5-.7.1-.9-.4-.5-1 3.5-5.6 4.4-11.7 4.6-18.1 0-.8.4-1.7.9-2.2 1.5-1.4 3-2.7 4.7-4.1.1.6.3.8.3 1 .2 6.3-.6 12.5-2.5 18.5-.5 1.4-1 2.9-1.7 4.2zm8.1-1.2c-1.5.7-3.2 1.1-4.9 1.6-.2.1-.6 0-.6-.1 0-.3 0-.7.1-1 .8-1.8 1.8-3.5 2.4-5.3.9-2.8 1.7-5.6 2.1-8.5.5-3.7.5-7.5.7-11.3 0-.6.1-1.3.5-1.7 1.9-1.8 3.8-3.4 5.7-5 .1-.1.3-.1.6-.1.1.6.2 1.1.1 1.7.1 5.4-.1 10.8-1.2 16.1-.8 3.9-2.1 7.7-3.4 11.5-.3.8-1.2 1.6-2.1 2.1zm11.3-6.1c-.5 1.9-2.2 2.3-3.7 3-.7.4-1.5.6-2.5 1 1-2.9 2-5.4 2.7-8 .8-3.1 1.7-6.2 2-9.4.6-5 .7-9.9 1-14.9 0-.6.3-1.4.7-1.8 1.9-1.7 3.8-3.4 5.8-5 .1-.1.3 0 .6-.1 0 1 .1 2 0 3-.7 6.1-1.2 12.3-2.4 18.3-.9 4.7-2.8 9.3-4.2 13.9zm12.5 43.1c-.1.4-.3 1.1-.6 1.2-2 .7-4.1 1.2-6.1 1.8-.1-.1-.1-.3-.2-.4.4-1.3.9-2.5 1.3-3.7 1.6-4.6 2.4-9.3 1.7-14.2 0-.4 0-1 .3-1.3 1.3-1.4 2.7-2.7 4.3-4.2.2 1.1.5 2.1.7 3 .6 6 0 12-1.4 17.8zm9-4.2c-.4 1.8-1.2 2.8-2.9 3.2-.9.2-1.7.7-2.6 1-.3.1-.6.1-.9.2-.1-.3-.2-.7-.1-1 .4-1.2.9-2.4 1.2-3.6 1.7-6 2.5-12.1 1.7-18.3-.4-2.4.5-3.8 2-5.2.9-.8 1.7-1.7 2.5-2.6.2.1.4.1.6.2.2 1.2.4 2.4.4 3.4.4 7.7-.1 15.2-1.9 22.7zm2.9-38.2c-1 1.6-2.2 2.7-4.4 2.7-5.7 0-11.2 1.3-16.1 4.4-.4.2-.7.4-1.1.6l-.3-.3c.8-1.7 1.9-3.4 3.6-4.3 4.3-2.4 9-3.9 13.9-4.6 1.3-.1 2.8.3 4.1.5.1 0 .4.8.3 1zm7.6 30.6c-.2 1.5-.5 3.1-.8 4.6-.1.4-.4 1-.8 1.2-1.5.9-3.1 1.7-4.7 2.4-.3.1-.8.2-1 0-.2-.1-.2-.7-.1-1 .6-2.6 1.3-5.1 1.9-7.7 1.2-5.2 1.6-10.4 1.4-15.7-.1-1.8-.4-3.7-.5-5.6 0-.7.2-1.5.6-2 1.1-1.3 2.3-2.4 3.8-3.8.3 2.1.7 3.8.9 5.5.5 7.3.4 14.8-.7 22.1zm-.3-49.2c-.3.6-.7 1.1-1.2 1.4l-5.1 3.3c-.3.2-.7.3-1.2.5 1.5-3.7 2.9-7.1 3.9-10.5 2.2-6.2 3.9-12.4 4.6-18.9.7-5.5 1-11.1 1.5-16.6 0-.4 0-1 .3-1.3 1.9-1.8 3.8-3.5 5.7-5.3.1.1.3.1.4.2.1.4.2.9.2 1.4-.4 8.5-.8 16.9-2.5 25.2-1.1 5.4-2.4 10.8-4.6 15.9-.7 1.7-1.3 3.2-2 4.7zm10.8 33.4c-.2 5.2-1 10.3-2.4 15.3-.1.3-.3.6-.5.8-1.8 1.3-3.7 2.5-5.7 3.9.5-3.2 1.1-6 1.5-8.8 1.2-7.7 2.1-15.4.7-23.1-.7-3.8 1.3-5.6 3.5-7.7.5-.5 1.1-.7 1.7-1.1.2.7.4 1.3.5 2 1 6.2.9 12.4.7 18.7zm.2-40c-2.1 1.6-4.3 3-6.5 4.4-.1.1-.3.1-.8.2 1.2-2.7 2.3-5.2 3.3-7.9 1.1-3.2 2.2-6.4 3-9.6 1.1-4.4 2.2-8.8 2.7-13.2.6-5.4.7-10.8.8-16.2 0-2.4 1.3-5.1 3.6-5.9.3-.1 1 .5 1 .7.2 5.2.4 10.3.3 15.4 0 3.9-.4 7.7-1 11.5-.7 4.4-1.9 8.8-3 13.2-.5 1.8-1.2 3.5-1.9 5.2-.3.8-.8 1.8-1.5 2.2zm7.2 48.3c-.1.4-.3.9-.6 1.1-1.8 1.4-3.7 2.7-5.6 4-.1-.1-.3-.1-.4-.2 0-.4 0-.8.2-1.4 2.8-10.2 3.8-20.5 2.9-31-.1-1.5-.4-3.1-.7-4.6-.3-1.1 0-1.9.8-2.7 1.3-1.3 2.5-2.7 3.7-4 .2.1.3.2.5.3.3 1 .6 2.1.7 3.2.3 5.3.7 10.6.8 16 0 6.5-.8 13-2.3 19.3zm-.4-105.1c-.2-.1-.3-.2-.5-.3 0-.4 0-.8.2-1.2 1.2-3.7 2.1-7.4 2.3-11.3 0-1 .4-1.5 1.4-1.5.9-.1 1.9-.3 2.8-.4 1.1-.2 1.3.3 1.2 1.3-.2 2.3-.3 4.5-.5 6.8-.1.4 0 1.1-.3 1.3-2.2 1.8-4.4 3.6-6.6 5.3zm12.4 81.2c-.3 5.3-1.3 10.6-2 15.9-.1.3-.1.6-.3.8-1.9 1.8-3.9 3.6-5.9 5.4-.1 0-.3-.1-.4-.2 0-.3-.1-.6-.1-.9.7-3.3 1.5-6.6 2.1-10 1.2-7.1 1.3-14.2.8-21.3-.2-2.5-.8-4.9-1.1-7.4-.1-.6 0-1.3.3-1.7.9-1.1 2-2.1 3-3.1.7-.6 1.2-.5 1.4.5 1.6 7.3 2.7 14.6 2.2 22zm6.2-59.9c.8-6 1.3-12 1.3-18.2.3.3.8.7.9 1.1 2.2 6.7 2.4 13.5 2.1 20.4 0 1.1-.2 2.3-.3 3.5-.2 1.8-.8 3.3-2.2 4.6-2.1 1.9-3.8 4-5.7 6.1-.2-.1-.4-.1-.6-.2 2.1-5.7 3.7-11.5 4.5-17.3zm-.3 68c-.8 1-1.8 1.9-2.7 2.9-.1-.1-.3-.1-.4-.2-.1-.3-.1-.7 0-.9 1.6-8.6 2.1-17.2.9-25.8-.5-3.5-1.2-7.1-1.7-10.6 0-.4.1-.9.3-1.2 1.5-1.7 3.1-3.3 4.7-5 .1 0 .3.1.5.1.3.9.6 1.8.8 2.7 1.1 6.3 1.8 12.7 1.5 19.1-.2 5.2-.8 10.3-1.5 15.5-.2 1.2-1.5 2.2-2.4 3.4zm11.2 29c-.1 1.7-.4 3.4-.7 5.1-.1.5-.4 1-.8 1.4-1.6 1.6-3.1 3.1-4.7 4.6-.2.2-.6.3-.9.4-.1-.3-.2-.7-.2-1 1.2-7.9 1.9-15.8 1.9-23.8.1-3.8 0-7.6 0-11.4-.1-1.1.2-2 1-2.8 1.4-1.4 2.7-2.8 4-4.2.2.1.3.1.5.2.1.7.1 1.4.2 2.1 1.4 9.8.4 19.6-.3 29.4zm11.1-18.6c-.4 4.2-.8 8.4-1.1 12.7-.1 1.2-.5 2.2-1.4 3-1.9 1.7-3.7 3.5-5.9 5.1 0-.4-.1-.9 0-1.4 1.7-7 2.2-14.2 2.5-21.4.2-5.4.3-10.8.5-16.2 0-.7.3-1.5.8-2 1.1-1.3 2.4-2.5 3.8-3.9.3.6.5.8.5 1 .6 7.7 1.2 15.4.3 23.1zm-3.8-29.5c-.1.1-.3 0-.7.1 0-.7-.1-1.4-.1-2.1 1.4-8 1-16 .8-24-.1-1.2-.3-2.3-.5-3.5-.2-.9.2-1.3 1.1-.9 2 1 4.1 2 6.1 3 .4.1.6.7.7 1.1.7 5.6 1.2 11.3.7 16.9 0 .9-.5 2-1.1 2.6-2.2 2.4-4.6 4.6-7 6.8zm13.6 25.2c-.4 3.1-1.3 6.1-1.8 9.2-.3 2-2.1 2.7-3.1 4-.7.8-1.6 1.4-2.4 2.1-.1-.1-.3-.1-.4-.2v-1.6c.8-5.7 1.7-11.3 2.2-16.9.5-5.4.5-10.9.7-16.3.1-1.2 0-2.5-.1-3.7-.1-1.5.3-2.7 1.4-3.7.9-.8 1.7-1.8 2.8-3 .4 2.1.8 3.8 1 5.5 1 8.1 1 16.3-.3 24.6zm261.9-126.1c-1.7-.8-3.1-2-4.2-4.1 1.2.1 2.1.1 3 .3 1.5.3 3 .8 4.5 1.2h.8v-4.8c-2.3-.3-4.7-.7-7-.9-1.2-.1-1.5-.7-1.2-1.7 0-.1.1-.2.1-.3 1.4-3.9 1.4-3.9 5.6-3.1.8.1 1.7.1 2.5.2v-4c-1-.2-2-.5-3-.6-.9-.1-1.3-.4-.6-1.2 1-1.1 1.6-2.9 3.6-2.5v-20.5c-6.6 3.6-14 3.5-21.1 5 4.2 1.2 8.6 1.7 13.3 2.3-.2.5-.6.8-1.1 1-1.8.6-3.6 1.4-5.5 1.8-3.8.8-7.7.6-11.5.1-4.1-.6-7.9-1.8-11.3-4-6.5-4.2-13.7-6.7-21.4-7.4-2-.2-4 .2-5.9.7-.8.2-1.8 1.2-2 2-.3 1.2-.9 1.3-1.8 1.2-2.7-.4-5.4-.9-8.1-1.3-.3 0-.7.1-1 .2.1.3.2.8.5 1 3.8 2.6 8 4.3 12.7 4.2.3 0 .7.3 1 .5-.3.3-.5.9-.8 1-1.2.4-2.5.8-3.7.7-2.3-.1-4.6-.7-6.9-1-.5-.1-1.1-.1-1.6-.2-.1.2-.1.3-.2.5.9.8 1.8 1.6 2.7 2.3 3.5 2.8 7.3 4.4 11.8 4.1 2-.1 4-.5 5.9-.9 5.5-1.1 10 .6 13.5 4.7 2 2.5 3.6 5.3 5.5 7.9.8.9 1.7 2 2.7 2.4 2.4.8 4.9 1.3 7.3 1.7 1.9.3 3.3 1.1 4.3 3-.5.3-1 .5-1.4.6-4.8 1.2-9.6 1.4-14-1.4-.3-.2-.7-.2-1.1-.3 0 .4-.1.9.1 1.2 2 4.1 5.5 6.1 10 5.8 3-.2 5.9-1 8.8-1.6 1.7-.3 2.1-.2 3 1.4-1.8 1-3.6 2-5.3 3-1.1.7-2.2 1.7-3.4 2.2-4.4 1.7-8.8 1.8-13.1-.4-2.6-1.3-5.1-2.9-7.8-4-5.2-2.1-10.7-2.1-16.1-.9-4.5 1-8.3 3.5-12.2 5.8-4.6 2.7-9.4 4.6-14.8 4.5-3.9-.1-7.7-.6-11.6-.9-.6 0-1.4.2-1.9.6-2.3 2-4.4 4-6.6 6.1-.2.3-.4.7-.4 1 0 .2.5.5.8.5 5 .8 9.9 1.7 14.9 2.3 8.5 1.1 16.7-.3 24.9-2.4 4.9-1.2 9.8-.9 14.8-.3 4.3.6 8.1 2.6 12.1 4.3 3.5 1.5 7.2 2.3 11 1.6 5.5-1 10.9-2.1 16.3-3.3 4.4-1 8.3.5 12.3 1.9.2.1.5.5.5.7s-.3.5-.6.6c-1.5.5-3 .9-4.5 1.2-4.7.9-9.3 1.7-14 2.6-.3 0-.6.3-.9.4.1.2.1.4.1.6h2.8c5.7-.2 11.5-.5 17.3-.7 1.5-.1 2.2.8 1.6 2-.5 1-1.6 2.3-2.5 2.4-5.1.7-10.2 1.2-15.4 1.5-4.6.3-9.3.1-13.9.2-.7 0-1.3.1-1.9.2v.4c1.1.3 2.1.8 3.1.9 4.9.4 9.7.9 14.5 1.1 4 .1 8.1-.2 12.1-.2.5 0 1.1.3 1.6.5-.3.5-.4 1.2-.8 1.5-1.2.8-2.5 1.8-3.9 1.9-5.2.5-10.3.9-15.5 1.1-10 .3-19.9-.6-29.7-1.8-2.7-.3-5.4-.9-8.1-1.3-.8-.1-1.6-.1-2.4-.1-.1.2-.1.3-.1.5 1.5.6 3 1.3 4.6 1.7 7.5 2.1 15.1 3.4 22.8 3.9 7.5.5 15.1.2 22.6.3.5 0 1 .1 1.5.2v.4c-1 .4-1.9.8-2.9 1-5.9 1.3-11.9 2.1-17.9 2.2-3.7.1-7.5-.2-11.2-.5-3.3-.3-6.6-.6-9.9-1-5.2-.7-10.4-1.4-15.6-2.2-2.8-.4-5.5-1-8.3-1.4-.9-.1-1.8-.1-2.7-.2 0 .2-.1.4-.1.6 9.1 4 18.7 6.6 28.6 9.6-.8.3-1.1.5-1.5.6-2.7.4-5.3 1.2-8 1.2-7.1.1-14.1-.2-21.2-.3-.4 0-.9.2-1.3.3.3.5.5.7.8.8 2.4.5 4.7 1.1 7.1 1.5 5.8.9 11.7 1.9 17.6 2.4 7 .6 14 .5 21 .9 6.3.3 12.6.8 18.9 1.3s12.7 1 19 1.5c0-19.2 0-38.4.1-57.8-1.4-.7-2.7-1.4-4.1-2zm-30-29.6c3.5.7 6.8 1.7 10.2 2 3.5.3 7-.2 10.4-.3-4.3 4.3-13.6 5.8-20.6-1.7z"/><path class="st1" d="M326.8 482.2c7.6 1.3 15.2 2.4 22.9 3.1 8.5.8 17.1 1.2 25.6 1.5 11.4.5 22.9.8 34.3.9 14.3.2 28.5-.4 42.8.1 9.3.2 18.6 0 27.9-.4 7.2-.3 14.4-1.1 21.6-1.7 3.2-.3 6.4-.7 9.6-1.1 0-1.3 0-2.6-.1-4.1-.7 0-1.3-.1-2-.1-10.5.3-21.1.4-31.7.8-8.2.3-16.5.8-24.7 1.3-6.2.3-12.3 1-18.5 1-13.1 0-26.2-.3-39.3-.5-4-.1-8.1-.1-12.1-.4-9.3-.6-18.6-1.3-27.9-2.1-5.6-.5-11.2-1.2-16.8-1.8-6.9-.7-13.9-1.5-20.8-2.2-5.4-.6-10.9-1-16.3-1.5-.7-.1-1.4 0-2.1 0-.1.1-.1.3-.1.4.6.3 1.2.6 1.9.8 3.3.9 6.5 1.8 9.8 2.5 5.3 1.3 10.6 2.6 16 3.5zM309 460.6c3.5.9 7.1 1.9 10.7 2.7 3.2.7 6.4 1.3 9.6 1.9 3.8.7 7.6 1.7 11.4 2.1 9.3.9 18.6 1.8 27.9 2.4 10.4.7 20.9 1.2 31.3 1.4 16.2.2 32.5.3 48.7 0 12.7-.2 25.4-1.3 38.1-1.8 8.3-.3 16.5-.2 24.8-.3v-5.4c-.5 0-.9-.1-1.3-.1-6.9.8-13.7 1.5-20.6 2.3-2.8.3-5.5 1-8.3 1.1-13.5.6-26.9 1-40.3 1.3-8 .2-16 .3-24-.7-7.1-.9-14.3-1.6-21.5-2.2-8.1-.6-16.2-1.1-24.3-1.6l-21.3-1.5c-5.1-.4-10.3-.8-15.4-1.3-6.4-.7-12.8-1.5-19.2-2.2-3.6-.4-7.1-.8-10.7-1.3-2.6-.4-5.3-.8-7.9-1.1-.7-.1-1.5 0-2.2 0v.4c1.1.3 2.1.7 3.2 1 3.8 1 7.5 1.9 11.3 2.9zM444.6 14c6 4.6 12.7 7.6 20.2 8.3 10.1.9 20 0 29.2-4.7 7.4-3.7 13.5-8.8 17.5-16.2 0-.3 0-.7.1-1.3h-8c-7.7 5.2-16.2 7.7-25.5 6.7-5.3-.6-10.2-2.5-14.9-5.1-.9-.5-1.9-1.1-2.8-1.6h-4.3c2.5 3.1 5.6 5.5 9 7.5 1.7 1.1 3.5 2 5.3 3.2-.5 0-1.1.2-1.5.1-3.1-1-6.3-2-9.4-3.3-4.2-1.8-7.9-4.5-11.4-7.4h-3.7c3.1 4.8 6.6 9.3 11.3 13.2-.7.1-1 .2-1.2.1-7.2-3.3-13.8-7.5-19.3-13.2h-3.1c.1.3.3.8.5 1.1 3.5 4.6 7.3 8.9 12 12.6z"/><path class="st1" d="M326.1 473.3c7.1 1.1 14.3 2.4 21.5 3 9.2.8 18.4 1.2 27.6 1.5 8.8.3 17.7.5 26.5.6 6.7.1 13.4 0 20.1.2 7.3.2 14.6.9 21.9.9 10.8 0 21.5-.2 32.2-.5 8.8-.3 17.5-1 26.3-1.5 3.1-.2 6.2-.5 9.3-.8 0-1.5 0-2.9-.2-4.3h-2.1c-8.1.3-16.1.7-24.2 1-6.4.3-12.9.6-19.3.9-8.5.3-17.1.7-25.6.9-6.7.1-13.4-.1-20.1-.1-18.5 0-36.9-.4-55.3-2.4-7.4-.8-14.9-1.7-22.3-2.5s-14.8-1.8-22.3-2.5c-7.1-.6-14.3-1.1-21.4-1.6-.5 0-1 .1-1.5.2.2.4.5.6.8.7 5.3 1.3 10.6 2.6 15.9 3.8 4 .9 8.1 1.8 12.2 2.5zm-6.6 24.5c4 1 8 2.3 12.1 2.9 5.4.8 10.9 1.2 16.3 1.6 6 .4 11.9.7 17.9 1 9.5.5 18.9 1.2 28.4 1.5 8.6.3 17.2.3 25.8.2 13.2-.1 26.4.1 39.6.6 15.7.5 31.5-.3 47.2-1.5 1.6-.1 3.1-.3 4.7-.4 0-1.4 0-2.8-.2-4.3-.3-.1-.7-.1-1.1-.1l-49.9 1.2c-9.2.2-18.4.6-27.6.6-21.7 0-43.4-.3-65-1.8-7.9-.5-15.8-1.6-23.7-2.4-2.7-.3-5.3-.7-7.9-1-3.1-.3-6.1-.6-9.2-.9-6.6-.5-13.1-1-19.7-1.5-.5 0-1 .2-1.5.3v.4c1.2.3 2.3.7 3.5 1 3.4.9 6.9 1.7 10.3 2.6zm8.6-6.5c5.2.9 10.4 1.7 15.6 2.1 7.9.5 15.8.7 23.7 1.1 9.7.5 19.3 1.3 29 1.4 21.1.3 42.2.3 63.3.4 6.7 0 13.4.1 20.1 0 8.1-.1 16.1-.6 24.2-.9 2.5-.1 5-.3 7.5-.5v-4.5h-2.1c-12.7.2-25.3.4-38 .7-5.6.1-11.3.5-16.9.8-4.3.2-8.5.8-12.8.8-12.7 0-25.3-.2-38-.5-13.2-.3-26.3-.8-39.5-1.5-5.4-.3-10.7-1.1-16.1-1.7-5.6-.7-11.2-1.4-16.9-2-4-.5-7.9-.8-11.9-1.1l-15.3-1.2c-.5 0-.9.1-1.4.2.4.5.9.7 1.3.8 3.8 1 7.6 2 11.4 2.9 4.3 1 8.5 2 12.8 2.7zm172.7-34.2c-6.2.4-12.4.6-18.6.6-18.4 0-36.8-.1-55.2-.2-7.5 0-15-.3-22.5-.5-3.6 0-7.2-.2-10.8-.2-5.4.1-10.7.5-16.1.4-2.6-.1-5.2-.9-7.8-1.5-3.4-.7-6.8-1.8-10.2-2.4-3.7-.6-7.5-.8-11.2-1.1-7.6-.7-15.3-1.5-22.9-2.2-5.9-.5-11.7-1.1-17.6-1.6l-15.6-1.2c-.3 0-.5.1-1 .2.5.4.7.6 1 .7 2 .6 4 1.1 6 1.7 3.5.9 6.9 1.9 10.4 2.8 4 1.1 8 2.1 12 2.9s8.1 1.4 12.2 2c5.8.8 11.6 1.5 17.4 2.1 5.3.5 10.6.8 15.9 1 4 .1 8.1-.1 12.1-.3 2.9-.1 5.7-.8 8.5-.7 7 .2 13.9.6 20.8.9 3.4.1 6.8.1 10.2.1l62.5-.9c5.1-.1 10.1-.5 15.1-.7 1.7-.1 3.4 0 5.1.1 3.7.3 7.3.6 11 .9v-4.3c-.6.1-1.1.1-1.7.2-3 .4-6 1-9 1.2zm-8.1 52c-4.9.1-9.9.1-14.8.4-6.4.4-12.9 1.2-19.3 1.3-11.9.2-23.8.2-35.7 0-14.5-.3-28.9-.9-43.4-1.4-6.9-.3-13.7-.6-20.5-1-7.2-.5-14.4-1.8-21.6-3-5.2-.9-10.5-1.2-15.7-1.7-3.9-.4-7.7-.6-11.6-.9-.4-.1-.9 0-1.4.1 0 .1-.1.3-.1.4.5.3.9.7 1.4.8 2.1.7 4.2 1.2 6.3 1.8 3.5 1 6.9 2 10.4 2.9 3 .7 6 1.5 9 1.8 4.9.5 9.9.6 14.9.9.6.1 1.1.2 1.7.3 53.1 0 106.2 0 159.2.2v-3.1c-.7-.1-1.3-.1-2-.1l-16.8.3zM200.6 31.3c-.1.4.1.9.1 1.4.1.1.3.1.4.1.3-.7.6-1.4 1-2 1.6-2.9 3.1-6 4.9-8.8 2.5-4 6.3-6.8 10.3-9.2 3.4-2.1 6.8-3.8 10.7-4 5.8-.3 11.7-.2 17.5-.2.4 0 .7.2 1.3.3-1.6 2.2-2.9 4.3-4 6.9.5-.1.7-.1.8-.2 3.2-2 6.4-4 9.7-5.8 2.5-1.4 5.3-2.3 7.8-3.7 3.4-1.9 6.7-3.9 10.1-5.9-6.1 0-12.2 0-18.2.3-3.8.7-7.7 1.4-11.5 1.9-6.7.9-13.4 1.3-20 3.2-3.7 1-6.9 2.6-9.8 5-6.5 5.4-9.3 12.9-11.1 20.7zm210.2-15.8c5.9 1.6 11.9 1.6 17.9 1.2.5 0 1-.4 1.5-.7-.4-.4-.8-.8-1.2-1.1-6.4-3.7-11.8-8.7-16.3-14.6-1.4 0-2.8 0-4.3.1 1 1.7 1.7 3.5 2.8 5 1.4 1.9 3.2 3.7 5.1 5.8-10-1.3-18.4-5.7-26.6-10.8h-4.3c.3.4.6.8.9 1.1 7 6.6 15.1 11.5 24.5 14zM472.4 448c-11.5.4-22.9.7-34.4 1-1 0-1.9.2-2.9.3v.4c1 .1 1.9.4 2.9.4 8.3.4 16.7 1 25.1 1.1 13.9.2 27.9.2 41.8.2 2.2 0 4.4-.3 6.6-.5 0-1.4 0-2.7.1-4-.7-.1-1.3-.2-2-.2-12.4.3-24.8.8-37.2 1.3zm-7.1-8c-.8.1-1.6.3-2.4.5v.6c.7.1 1.4.3 2.1.3 5.7.2 11.4.4 17.1.5 9.8.2 19.6.3 29.4.4 0-1.4 0-2.8.1-4.4h-1.3c-10.5.4-20.9.7-31.4 1.2-4.5.1-9.1.6-13.6.9zm14.7-7.8c0 .3.1.5.1.7 10.4 1.1 20.9 1.5 31.4 1.3 0-1.9 0-3.8-.1-5.7-4.4.4-8.9.6-13.4 1.1-5.3.6-10.7 1.4-16 2.1-.7.1-1.3.3-2 .5zM468.9 94.1v.4c.7.1 1.5.3 2.3.3 3.7.2 7.4.3 11.1.6 9.2.8 18.3 1.7 27.5 2.6.6 0 1.1-.1 1.7-.1 0-1.3 0-2.7.1-3.9-4.5-.3-9-.7-13.5-.7-9 0-17.9.2-26.8.4-.8.1-1.6.3-2.4.4zm42.6 11.5c-12.4-1-24.7-1.1-37 .4 1.6.5 3.1.7 4.6.8 9.1.8 18.3 1.7 27.4 2.5 1.7.1 3.3.2 5 .3v-4zm0 304.7c-6.7.7-13.5 1.4-20.3 2.1-.4.1-.8.5-1.2.7 0 .1.1.3.1.4 7 1.3 14.2 2.2 21.4 2.2v-5.4zm-21.2 12.2c7 1.5 14.1 2.1 21.2 2.3v-5.4c-6.7.7-13.3 1.3-20 2-.5.1-.9.5-1.3.7 0 .1.1.4.1.4zM479.1 82.2v.6c1.3.2 2.5.4 3.8.5 9.5.8 19.1 1.5 28.6 2.3v-3.8c-.5-.1-1-.2-1.5-.2l-29.3.3c-.6 0-1.1.2-1.6.3zm32.4 91.7c-7.7-.3-15.4.3-23 1.1.6.4 1.3.5 2 .6 4.7.5 9.3.9 13.9 1.4 2.4.2 4.7.4 7.1.6v-3.7zM487.6 70.8v.5c8 .7 15.9 1.3 23.9 1.9V70c-.6-.1-1.1-.2-1.7-.2-7.1.3-14.2.5-21.3.8-.3-.1-.6 0-.9.2zm23.9 48c-6.1-.3-12.3-.6-18.4-.9-.3 0-.5.2-.7.3v.3c6.4 1.1 12.7 2.1 19.1 3.1v-2.8zm-18.4-59c2.8.2 5.7.3 8.6.5 3.3.2 6.5.4 9.8.6v-2.6c-6.6-.1-13.2-.2-19.8 1.1.4.4.9.4 1.4.4zM354.8 185c-1.4.1-2.7 0-4.1-.2-7.9-.9-15.8-.8-23.6.2-.4.1-.7.3-1 .4.3.5.6.8 1 .8 3 .4 6 .7 9 1.1 3.3.4 6.6.8 9.9 1.3.5 0 .9.3 1.6.7-6.1 2.4-11.9 3.9-18.3 3.7.3.5.4.6.5.7 5.7 3.1 11.5 5.9 18.3 5.7.9 0 1.8-.4 2.4-.9 5-4.9 10.3-9.4 16.1-13.3 4.8-3.2 9.9-5.9 15.4-8 6.1-2.4 12.5-3.9 19.1-3.7 3.9.1 7.9.6 11.7 1.4 8.6 1.8 15.7 6.1 20.9 13.2.3.4.5.9.7 1.3-1.5-.5-2.7-1.1-4-1.7-5.8-2.7-11.9-4.3-18.2-5.1-9.1-1.2-18 .4-26.7 3.3-8.4 2.9-16.3 6.7-23.9 11.2-1 .7-2.1 1.3-3.1 2 .4.4.8.6 1.1.6 2.1.2 4.1.2 6.2.5 1.4.2 2.9.6 4.1 1.2 2.7 1.3 5.2 3.1 7.9 4.4 4.5 2.1 9.3 3.5 14.2 4.3 5.4.8 10.8 1.2 16.2-.1l7.2-1.8c4.2-1 8.4-2.2 12.6-2.9 2.2-.4 4.6 0 6.8.2.6.1 1.2.9 1.8 1.4-.4.4-.9.9-1.4 1.2-3.1 1.6-6.1 3.2-9.2 4.7-4.5 2.2-9 4.1-14.1 4.5-.6 0-1.3.3-1.9.4v.4c.7.1 1.3.3 2 .3 4.7-.3 9.5-.4 14.2-.9 5.8-.6 11.7-1.4 17.5-2.1 2.9-.4 5.9-.6 8.8-.9l.6-.3c-1.1-.5-2.3-.8-3.4-.9-2.9-.3-5.9-.5-8.8-.8-.4 0-.9-.3-1.3-.5.3-.3.6-.8 1-1 1.1-.5 2.2-1.2 3.4-1.3 5.9-.7 11.9-1.1 17.8-1.7.5-.1.9-.2 1.3-.3.1-.2.1-.3.1-.5-.8-.2-1.6-.6-2.4-.7-3.6-.4-7.3-.7-11-1.1-.4 0-1-.3-1.1-.6-.1-.3.1-.9.4-1.2 1.5-1.9 3.6-2.7 6-2.7 4.9-.1 9.9-.1 14.8-.2.4 0 .9-.1 1.3-.2v-.2c-1-.3-1.9-.7-2.8-.9-3.3-.7-6.5-1.6-9.8-2.1-1.9-.3-3.5-.9-4.6-2.5-.3-.4-.4-.9-.6-1.4.5-.1.9-.4 1.4-.4 7.2-.2 14.3-.5 21.5-.7.5-.1.9-.2 1.3-.3v-.5c-.9-.3-1.7-.7-2.6-.8-6.4-.9-12.8-1.7-19.2-2.6-1.1-.2-1.6-.8-1.7-1.8-.2-1.8 1-3.1 3.2-3.1 3.8.1 7.7.3 11.5.5h1.7c-.3-.6-.6-1-1.1-1.2-1.6-.7-3.3-1.2-4.9-1.8-1.9-.8-3.8-1.6-5.7-2.5-.4-.1-.8-.6-.8-1 0-.3.5-.8.9-.9.7-.3 1.5-.4 2.2-.5 1.7-.3 3.5-.5 5.2-.8v-.5l-1.5-.9c-2.1-1.1-4.3-2.1-6.4-3.1-4-2-8-4.3-12.2-6-4.5-1.8-9.3-3.2-14-4.5-5-1.3-10.2-1.6-15.4-1.1-4.1.4-8.2 1.2-12.3 1.4-7.2.4-14.5.4-21.7.9-5.4.3-10.7 1.1-16.1 1.8-1.2.1-2.3.5-3.5.8v.5h3.9c13.8.2 27.6.3 41.4.6 3.7 0 7.5.6 11.2.8 1.5.1 2.1 1.1 2.7 2.2.7 1.4.1 2.5-1.4 2.4-2.1 0-4.1-.4-6.2-.5-7-.4-13.9-.9-20.9-1.2-15.5-.7-30.9-.1-46.3 1.8-.9.1-1.8.5-2.7.7 0 .1.1.3.1.4.8.1 1.6.2 2.4.2 9.2.3 18.4.5 27.6.7.6 0 1.1.2 1.9.4-2.7 1.2-5.1 2.1-7.3 3.2-1.3.7-2.6.8-4 .7-3.4-.2-6.7-.5-10.1-.4-7.2.3-14.4.9-21.6 1.4-.4 0-.7.2-1 .3v.6c9.2.7 18.4 1.6 27.7 2.6-1.2 1.2-2.5 2.1-3.9 3-.6.3-1.2.8-1.9.8zm51 20.3c-2.2.3-4.4.8-6.6.9-7.4.3-14.1-1.6-20.3-5.5-1.1-.6-.6-1.2.1-1.5 2-1 4-2 6.1-2.7 1.7-.5 3.5-.7 5.3-.8 1.2-.1 1.4.5.8 1.6-.8 1.4-2.1 1.9-3.5 2.2-.4 0-.9.2-1.4.3v.5c5.7 4.7 12.6 4.5 19.5 4.4v.6zm12.3-4.3c-1.4 1.1-3.1 1.7-4.8 1.4-1.6-.2-1.2-1.6-1.2-2.5.2-2.9.5-3.2 3.1-2.6 1.1.3 2.1.8 3 1.5.8.6.7 1.6-.1 2.2zm-157.9 76.6c-1 0-1.9-.2-2.8-.5-3.7-1.3-7.4-2.7-11-4 .3.3.6.9 1.1 1.4 4.3 4.2 9 7.7 14.8 9.5 3.2 1 6.5 1.6 9.9 1.5.9-.1 1.4-.4 1.6-1.3.3-1.3.8-2.5 1.1-3.7 1-5 .5-9.8-2-14.3-1.8-3.3-4.5-5.9-7.3-8.3-4.7-4-9.1-8.3-12.6-13.3-.8-1.1-1.5-2.1-2.3-3.2-.2.1-.3.2-.5.4.7 1.6 1.4 3.3 2.2 4.9 2.9 5.3 6.7 10 10.9 14.3 2 2.1 4.2 4.2 5.3 7.1.7 1.9.2 4-1.4 5.1-.6.4-1.3.6-1.8-.3-.5-.9-1-1.7-1.5-2.6-2-3.6-4.2-7.3-7.8-9.7-3.9-2.6-7-5.9-9.6-9.8-1-1.6-2.1-3.1-3.2-4.7-.1.1-.3.1-.4.2l.9 3c1.2 4.6 2.9 8.9 6.1 12.5 1.8 2 3.7 3.9 5.5 5.8 2.4 2.5 4 5.5 5.4 8.6.3.7.5 1.4-.6 1.4zm20.2 97.4c1.3.2 2.5.7 3.7 1.1 3.6 1.2 7.2 2.5 10.8 3.6 3.4 1 6.9 1.8 10.4 2.7 4.2 1 8.4 2.1 12.6 2.9 4.3.9 8.5 1.5 12.8 2.1 5.6.7 11.2 1.5 16.8 2 5.9.6 11.8.8 17.7 1.2 12.6.9 25.1.5 37.6-.3.5 0 .9-.1 1.3-.2-.4-.3-.7-.4-1-.4-6-.5-12-1.1-18-1.6-5.9-.6-11.8-1-17.6-1.6-7.7-.8-15.5-1.6-23.2-2.5-8.3-1-16.5-2.1-24.8-3.3-5.4-.7-10.7-1.5-16.1-2.5-5.9-1-11.8-2.2-17.7-3.5-1.8-.4-3.6-1.1-5.1-2-4-2.4-8.4-3-12.9-3.4-.3 0-.5.1-.7.1 0 .1 0 .2-.2.5 1.6.7 3.1 1.5 4.6 2.2 2.9 1.2 5.8 2.6 9 2.9zm44.1 71.1c6 1 12.2 1.7 18.3 2.2 4.3.4 8.5.2 12.8.2 2.2 0 4.4-.3 6.6-.1 2.8.2 5.5.9 8.2 1.1 5.6.4 11.2.6 16.8.6 10.2 0 20.3-.2 30.5-.3 1.6 0 3.2-.2 4.8-.3v-.5c-.8 0-1.7-.2-2.6-.2-7.5-.3-15.1-.5-22.6-.9-7.4-.4-14.9-1-22.3-1.4-5.3-.3-10.5-.2-15.8-.3-1.5 0-3-.1-4.4-.4-3.2-.7-6.3-1.8-9.5-2.4-6.3-1.2-12.6-2.3-18.9-3.3-5.8-1-11.7-1.7-17.6-2.4-6.7-.8-13.4-1.4-20.1-2.1-.4 0-.8.1-1.2.2v.4c.9.4 1.8.8 2.8 1.1 5.6 1.7 11.1 3.6 16.7 5.1 5.8 1.5 11.6 2.7 17.5 3.7zm-57.3-88c2.5 1.2 5 2.5 7.6 3.5 1.6.6 3.4.6 5 1.1 3.3 1 6.5 2.3 9.8 3.3 6.2 1.8 12.3 3.8 18.6 5.2 8.8 1.9 17.7 3.6 26.6 4.8 8.9 1.3 17.9 2.1 26.9 2.6 13.9.8 27.9.6 41.8.1.5 0 1-.1 1.5-.1 0-.2 0-.4.1-.7-.7-.1-1.4-.3-2.1-.4-4.1-.3-8.1-.6-12.1-.9-5.4-.4-10.8-.7-16.2-1.2-9.4-.9-18.9-2-28.3-3l-7.5-.9c-3.3-.4-6.7-.7-10-1.2-4.5-.6-9-1.3-13.5-2-4.3-.6-8.6-1.1-12.8-1.9-6.3-1.2-12.6-2.6-18.9-4-2.4-.6-4.8-1.3-7-2.7-3-1.9-6.5-2-10.2-2.6.4.5.5.9.7 1zm23.5 69c4.2 1.5 8.5 3.2 12.8 4.5 4.8 1.4 9.7 2.5 14.5 3.6 6 1.3 12.1 2.1 18.2 2.1 3.2 0 6.3-.2 9.4.1 3.1.3 6.1 1.2 9.1 1.6 4.1.5 8.2 1.1 12.4 1.2 9.2.2 18.3.2 27.5.2 1.4 0 2.9-.3 4.3-.5 0-.2 0-.4.1-.5-.6-.1-1.3-.3-1.9-.3-3.1-.3-6.1-.4-9.2-.7-5.7-.5-11.3-1-17-1.5-5.7-.4-11.3-.9-17-1.3-3-.2-6 0-9-.2-3.5-.2-7-.7-10.3-2-4.5-1.8-9.1-3.4-13.8-4.7-3.5-1-7.1-1.5-10.6-2.1-5-.8-9.9-1.5-14.9-2.2-3.8-.6-7.5-1-11.3-1.5h-1.2c-.1.2-.1.3-.2.5.5.4.9.8 1.5 1 2.2 1 4.4 1.9 6.6 2.7zm116.4-26.7v-.6c-1.3-.1-2.7-.2-4-.3-6.3-.4-12.6-.6-18.9-1.1-8.1-.7-16.1-1.4-24.1-2.2-6.6-.6-13.2-1.2-19.7-2-6-.7-11.9-1.6-17.9-2.4-2.2-.3-4.3-.7-6.5-1-5.9-1-11.8-1.8-17.7-2.9-3.9-.7-8.1-1-11.5-3.6-.3-.2-.6-.2-.9-.4-4.6-2.4-9.6-2.7-14.5-3.3-.4-.1-.7.1-1.1.1 0 .1-.1.3 0 .6 1.4.7 2.7 1.5 4.1 2.1 3.5 1.5 6.9 3.5 10.8 3.8 6.2.5 12.1 2 18.1 3.8 6.7 1.9 13.5 3.4 20.4 4.8 6 1.2 12 2.1 18.1 2.8 7.8.9 15.6 1.8 23.5 2.1 9.3.4 18.6.3 27.9.3 3.7 0 7.4-.1 11.1-.2 1 0 1.9-.2 2.8-.4zM289 417c7.9 3.1 16 5.5 24.4 7 2.7.5 5.5.5 8.3.7 2.4.1 4.8-.1 7.2.3 4.1.7 8 1.9 12.1 2.4 7.2.9 14.3 1.9 21.5 2.2 8.7.3 17.5.1 26.3 0 1.8 0 3.7-.3 5.5-.5v-.6c-.3-.1-.6-.2-.9-.2-6-.4-12-.9-18-1.4-5.1-.4-10.2-.9-15.3-1.4-5.7-.6-11.4-1.4-17.2-1.9-5.1-.5-10.2-.5-15.2-1-3-.3-5.9-1.1-8.8-1.9-3.6-1-7-2.5-10.6-3.5-4.4-1.1-8.8-1.9-13.2-2.8-5.3-1-10.5-1.9-15.8-2.8-.3-.1-.7.1-1.4.2.6.5.8.8 1.1.9 3.3 1.4 6.6 2.9 10 4.3zm119.6-49.9c-1-.1-2.1-.2-3.2-.3-7.9-.4-15.7-.7-23.6-1.2-7.6-.5-15.2-1.3-22.8-2-6.7-.6-13.4-1.3-20-2-1.8-.2-3.7-.5-5.5-.8-3.1-.4-6.2-.9-9.3-1.4-2.5-.4-5.1-.8-7.6-1.2-3.5-.7-7.1-1.3-10.6-2s-7.1-1.3-10.6-2.1c-2.8-.6-5.6-1.3-8.4-2-3.6-.9-7.1-1.9-10.7-2.9l-4.2-1.2c-.1.1-.1.3-.1.6 2.8 1.1 5.5 2.4 8.3 3.3 6.3 2.1 12.7 4.2 19.2 6 5 1.4 10.1 2.7 15.3 3.7 8.1 1.5 16.2 2.8 24.4 4 5.5.8 11.1 1.4 16.7 1.7 7.7.5 15.5.8 23.2.9 8.8.1 17.7-.2 26.5-.3 1 0 2-.3 3-.4v-.4zM296.5 400c4-.1 7.9.7 11.6 1.9 7.4 2.3 15 3.9 22.7 5.2 5.1.9 10.3 1.5 15.4 1.9 7.6.6 15.3 1.2 22.9 1.3 7.4.1 14.9-.3 22.3-.5.6 0 1.1-.1 1.7-.2 0-.1 0-.2-.2-.3-.5-.1-1-.3-1.6-.3-7-.5-14.1-1-21.1-1.6-8-.7-15.9-1.5-23.9-2.4-7.5-.8-14.9-1.7-22.4-2.7-6.5-.8-12.9-1.8-19.3-2.7-3.8-.5-7.5-1.2-10.8-3.5-1.7-1.2-3.7-1.9-5.7-2.5-4.5-1.4-9.2-1.6-13.8-1.9-.4-.1-.9.1-1.4.2v.5c.7.3 1.3.7 2 1 2.8 1.2 5.8 2.3 8.6 3.6 4.1 1.8 8.4 3 13 3zm-7.4 8.2c6.4 2.7 13.1 4.2 20.1 3.9 1.6 0 3.2 0 4.7.3 6.5 1.3 13 2.9 19.5 3.9 8.9 1.3 17.7 2.6 26.6 3 10.5.5 21 .1 31.5.1.5 0 1-.1 1.5-.2 0-.2 0-.4-.3-.8-1.4-.2-2.9-.5-4.4-.6-2.7-.2-5.5-.2-8.2-.4-5.4-.5-10.9-.9-16.3-1.4-7.5-.7-15-1.6-22.5-2.4-7.8-.8-15.5-1.7-23.3-2.5-2.4-.2-4.8-.4-7.1-.8-1.3-.2-2.7-.8-4-1.3-3.3-1.4-6.5-3.2-9.9-4.1-5.5-1.4-11.1-2.2-16.6-3.2-1.3-.2-2.7-.1-4-.2 0 .2-.1.3-.1.5.4.4.8.8 1.3 1 3.8 1.9 7.6 3.7 11.5 5.2zm82.1-53.8c-4.4-.1-8.8-.4-13.2-.8-7-.6-14.1-1.3-21.1-2.1-7.1-.8-14.2-1.7-21.3-2.6-4.3-.5-8.6-1.2-12.8-2-5.5-1.1-11.1-2.4-16.6-3.7-3.4-.8-6.7-1.9-10-2.8-.4-.1-.7-.2-1.1-.3.1.3.2.5.3.5 6.1 2.1 12.1 4.5 18.2 6.4 4.7 1.5 9.4 2.6 14.2 3.7 4.8 1.1 9.7 2.1 14.6 2.9 4.9.8 9.9 1.6 14.8 2 8.9.7 17.8 1.5 26.8 1.7 10.4.1 20.8-.3 31.2-.6 1.4-.1 2.7-.5 4-.8 0-.1 0-.3-.1-.4-.5 0-1.1-.1-1.7-.1-8.8-.3-17.5-.6-26.2-1zm31.7-7.9c-43.6 0-86.7-4.3-129-15.1.7.3 1.4.7 2.3 1 2 .7 4 1.4 6 2 3.9 1.2 7.9 2.5 11.9 3.6 3.8 1 7.7 1.9 11.5 2.7 6.3 1.3 12.5 2.6 18.8 3.7 4.9.8 9.9 1.2 14.9 1.9 10.1 1.4 20.3 1.9 30.5 2 9.5.2 19.1-.4 28.7-.7 1.5 0 2.9-.4 4.4-.7v-.4zM310.8 333c4.3 1 8.7 1.8 13.1 2.4 8.8 1.2 17.6 2.4 26.4 3.1 14.9 1.3 29.9 1 44.8.3.5 0 .9-.2 1.4-.3v-.5c-.7-.1-1.3-.2-2-.2-9.7-.4-19.3-.6-29-1-5.4-.2-10.8-.6-16.2-1.2-6.1-.7-12.2-1.5-18.3-2.3-4.7-.7-9.3-1.4-13.9-2.2-4.1-.6-8.2-1.3-12.3-2.1-4.5-.9-8.9-1.8-13.3-2.9-5.2-1.2-10.4-2.6-15.6-3.9-.5-.2-1.1-.2-1.7-.2-.1.2-.1.3-.1.5 3.3 1.1 6.6 2.3 9.9 3.3 4 1.3 8 2.4 12.1 3.5 4.9 1.4 9.8 2.7 14.7 3.7zm100.7-2c0-.2-.1-.3-.1-.5-.5-.1-1-.2-1.5-.2-2.4 0-4.8.1-7.2.1-6.4-.1-12.9-.2-19.3-.4-8.3-.3-16.7-.8-25-1.2-3.1-.2-6.2-.4-9.3-.8-2.6-.3-5.1-.8-7.7-1.2-3.7-.6-7.4-1.1-11.1-1.8-4.9-.9-9.7-2-14.5-3-4.5-1-9.1-2-13.6-3-3.9-.9-7.8-1.8-11.7-2.8-4.8-1.2-9.6-2.5-14.4-3.8-1.4-.4-2.8-.7-4.2-1.1-.1.2-.1.3-.1.5.1.1.2.2.4.3 6.4 2.1 12.7 4.4 19.2 6.4 4.6 1.3 9.3 2.4 14 3.4 6.1 1.3 12.2 2.6 18.4 3.7 6.4 1.1 12.9 1.9 19.4 2.8 4.8.7 9.5 1.6 14.2 2.1 7 .8 14 1.4 21 1.9 10.5.8 21.1.4 31.6-1 .5 0 1-.2 1.5-.4zm-140-28.9c.2.5.4.9.8 1 2.9 1.2 5.8 2.4 8.8 3.4 4.8 1.5 9.6 3 14.4 4.3 7.3 1.9 14.6 3.7 21.9 5.3 5.2 1.1 10.5 1.8 15.8 2.7 2.2.3 4.4.7 6.7 1 4.8.7 9.6 1.4 14.4 2 6.4.8 12.7 1.4 19.1 2 6.2.5 12.5 1.1 18.7 1.4 8.3.4 16.6-.3 24.9-1.7 1.4-.3 2.7-.7 4-1.1 0-.2 0-.3.1-.3h-1.8c-5.3.2-10.5.6-15.8.7-14.7.2-29.5.3-44.1-1.4-3-.3-6-.7-8.9-1.2-4.2-.6-8.4-1.4-12.6-2.1-3.4-.6-6.8-1.1-10.1-1.8-3.6-.7-7.1-1.5-10.6-2.3-5.1-1.1-10.1-2.2-15.2-3.4-3.9-1-7.7-2-11.5-3.1-5.3-1.5-10.5-3.1-15.8-4.6-1-.3-2.1-.5-3.2-.8zm-66.1 8.1c-1.1 1.7-2.4 3.2-3.3 5-2.2 4.4-1.2 9 3.3 11.2 3.2 1.6 8.8.9 10.2-4.2.7-2.7-.3-5.4-2.8-6.5-1.2-.4-2.5-.4-3.8-.5-2-.2-3.1-1.4-3-3.5v-1.2c-.2 0-.4-.2-.6-.3zm225.4-88.7c-9.4 1.1-18.7 2.1-28 1.6-9.4-.5-18.7-1.5-27.8-3.8 11.5 5.3 23.7 7.9 36.4 7.3 6.5-.3 18-3.2 19.4-5.1zm-111 85c15.1 3.5 30.4 6.2 46 7-30.7-4.6-60.9-11.4-90.3-21.4 14.3 6.4 29.1 10.9 44.3 14.4zm42.3-3.9c-24.1-3.3-47.5-8.6-70.3-16.3 12.3 7.2 64.2 19.2 70.3 16.3zm44 14.5c7.9.6 15.8.6 23.6-.4 1.6-.2 3.4-.3 4.6-2-.4 0-.9-.1-1.4-.1-6.2.2-12.4.5-18.6.5-9.8 0-19.5-.2-29.2-.4h-3.8v.6c2.2.2 4.3.6 6.5.7 6.1.4 12.2.8 18.3 1.1zm-10.6-8.2c.1.1.1.3.1.4 1.2.1 2.4.3 3.6.3 5.2.2 10.4.5 15.6.5 5.1 0 10.1-.2 15.1-.4.8-.1 1.5-.5 2.3-.7 0-.3 0-.5-.2-.7-1.1-.3-2.3-.6-3.5-.7-10.7-.6-21.4.5-32.1 1-.3 0-.6.2-.9.3zM322 284.2c12.1 5 24.8 7.7 37.8 8.7.1-.2.1-.4 0-.5-6.3-1.3-12.6-2.5-18.9-4s-12.5-3.2-18.8-4.8c0 .2-.1.4-.1.6zm108.4 18.1c.4-.1.7-.5 1-.8-.4-.3-.7-.8-1.1-.8-2.2-.3-4.4-.6-6.6-.5-4.4.1-8.8.4-13.1.7-1.2.1-2.4.4-3.6.6v.5c.4 0 .8.2 1.2.2 5.9.3 11.8.6 17.7.7 1.5 0 3-.3 4.5-.6zm25.1-141.5c-.3 0-.7.3-1 .5.2.3.5.7.8.8 1.8.9 3.8 1.5 5.6 2.4 3.6 1.8 7.2 3 11.2 2.8.6 0 1.1-.1 1.6-.2v-.4c-.6-.3-1.1-.7-1.7-.9-2-.9-4.1-1.5-6.1-2.5-3.3-1.8-6.7-2.8-10.4-2.5zm-23.8 133.4c-.2-.1-.4-.1-.6-.1l-14.6.3c-.6.1-1.2.5-1.8.7 0 .1 0 .2.1.4.2.1.3.2.5.2 4.4.2 8.8.5 13.2.7 1.1 0 2.2-.3 3.2-.6.3-.1.6-.6.9-.9-.3-.1-.6-.4-.9-.7zm-5.7-5.4c2.4 1.6 9.1 1.5 10.8 0-1.2-1.3-7.9-1.3-10.8 0zM271.4 42.3c-3 2.4-6.1 4.6-9.2 6.9-3.9 3-7.8 6-10.8 10-2.3 3.1-3.5 6.5-3 10.4.3 1.8.6 3.6 2.1 5.1.4-2.2.6-4.1 1.1-6.1.5-1.9 1.4-3.6 3-4.5.6 2.7.9 5.4 1.8 7.9.8 2.5 2.3 4.7 5.1 6.2v-4.8c0-4.6.7-9 2.4-13.2 1.2-2.9 3.2-5.3 5.3-7.6 4.4-5 8.6-10.1 12-15.8 3-5 5.7-10.1 7.2-15.8 1-3.8 1.6-7.7 2.4-11.5.1-.5-.1-1.1-.1-1.7-.5.3-.7.5-.8.8-.8 2.3-1.5 4.7-2.5 6.9-2.5 5.3-5 10.6-7.7 15.9-2.1 4.1-4.7 7.9-8.3 10.9z"/><path class="st1" d="M231.6 32c1.5-4.1 3.9-7.6 6.5-11 .2-.3.4-.8.3-1.1 0-.3-.7-.4-1-.4-3 .4-6.1.6-9.1 1.3-4.8 1.1-8.8 3.7-11.6 7.7-2.4 3.5-4.3 7.5-6.6 11.2-2.9 4.7-6.1 9.1-10.5 12.6-3.2 2.6-6.9 4.1-11 4-1.5-.1-3.1-.6-4.6-1.1-1.1-.3-2-.9-3-1.3 0 .2-.1.3-.2.4.3.3.6.7.9 1 2.3 1.9 5 3.2 7.9 3.7 4.6.8 8.7-.6 12.5-3.2 4.6-3.3 7.8-7.9 11.1-12.3 2.7-3.6 4.9-7.7 7.5-11.5 1.1-1.6 2.5-3 4-4.2 1-.8 2.3-1.5 4-1.2-4.3 9.7-4 19.3-.4 28.9h.3c0-.4.1-.9.1-1.3-.3-4.9-.5-9.8.7-14.7.7-2.5 1.3-5.1 2.2-7.5zm-57.2 41.9c1.9 4.8 2.5 9.5.2 14.3 2.5-1.8 4.8-3.8 8.3-4-.4.6-.5.9-.7 1.1-2.3 2.9-4 6.1-5.4 9.6-1.6 3.9-3 7.9-4.7 11.8-2.8 6.6-6.9 12.2-11.7 17.5-1 1.1-2 2.3-3 3.4.4.2.6.1.8 0 4.9-3.2 9.3-6.9 12.9-11.5 4.8-6.1 7.9-13.1 10.6-20.4 2.3-6.3 6.8-10.1 12.9-12.2.2 0 .9.4 1 .7.9 2.4 1.6 4.8 2.5 7.2.4 1 1.1 1.9 1.7 2.8.1 0 .3-.1.4-.1-1.8-8.5 2.5-15.4 5.9-22.6-9.9 9.5-20.3 11.3-31.7 2.4zM267 14.5c-2.6 2.4-5.7 4-9.1 4.9-3.6.9-7.1 2.1-10.1 4.4-3.7 2.8-5.9 6.7-7.6 10.9-.1.3.1.8.1 1.2.8-.4 1.1-.9 1.5-1.4 3.8-5 8.6-8.6 15-9.7 1.8-.3 3.5-1.1 5.2-1.9 1.7-.8 3.2-1.7 4.8-2.6l.3.3-2.4 4.2c-2.6 4.2-6 7.7-10.6 9.8-6.9 3.1-11.5 8.4-14.4 15.3-.3.7-.4 1.5-.6 2.3.1.1.2.2.3.5.3-.3.7-.5.9-.8 2.9-3.9 6.4-7.2 10.6-9.7 2.2-1.4 4.7-2.3 7-3.7 6.2-3.8 10.4-9.4 13.1-16.1 1.7-4 2.5-8.3 3.2-12.6.1-.7 0-1.3 0-2.3-.6.4-.7.5-.9.7-2.1 2-4.1 4.3-6.3 6.3zM151.5 156.4c.4-2 1.1-3.9 1.6-5.9.2-.6.2-1.3.3-1.9-.2-.1-.3-.1-.3-.2-.2.1-.4.2-.5.4-4.9 6.4-8 13.4-9.2 21.4-1.3 8.7.3 17 3.9 24.8 1.7 3.7 4 7.1 6.2 10.5 1 1.6 2.3 2.9 3.4 4.4.1 0 .2-.1.3-.2-.4-.9-.8-1.7-1.2-2.6-2-3.8-3.6-7.7-4.5-11.9-.7-3.1-1.3-6.1-1.8-9.2-1-6.1-.8-12.3-.2-18.4.3-3.8 1.2-7.5 2-11.2zM381.6 13.8c5.3 7.2 12.6 11.3 21 13.4 4.5 1.2 9.1 1.5 13.7 2.2.6.1 1.1-.1 1.7-.2 0-.2 0-.4.2-.7-.4-.1-.7-.3-1-.4-1.4-.3-2.8-.5-4.2-.9-3.2-.9-6.5-1.7-9.6-2.9-4.2-1.6-8.3-3.6-12.1-6.1-5.2-3.4-9.7-7.5-12.8-12.9-.6-1-1.2-1.9-1.8-2.9-.2.1-.3.1-.4.2 0 .5 0 1 .2 1.5 1.2 3.4 2.9 6.7 5.1 9.7zM129 240.2c-.3 3.2-.1 6.4.6 9.5 1.3 5.3 3.4 10.2 6.7 14.6 2.9 3.9 6.5 6.8 11.5 7.7.4.1.9-.1 1.4-.2-.2-.5-.4-1-.7-1.3-3.5-3.6-6.7-7.3-8.7-12-.8-1.8-1.5-3.6-.5-5.7 1.5-3 4.3-3.5 6.2-.8.9 1.4 1.6 3.1 2.2 4.7.6 1.7 1.1 3.5 1.6 5.3h.6c0-.7.1-1.4 0-2-.7-4.8-1.3-9.5-2.2-14.2-.7-3.5-2.2-6.8-4.4-9.7-2.2-2.7-5.4-3.7-9.1-2.6-3.1.7-4.9 3-5.2 6.7z"/></svg>