<svg id="Layer_1" xmlns="http://www.w3.org/2000/svg" viewBox="0 0 512 512"><style>.st1{fill:#760314}</style><path fill="#f9c333" d="M0 0h512v512H0z"/><path class="st1" d="M511.4 26.6c-5.9 6.8-13.1 11.7-21.4 15.2-4.6 1.9-9.4 3.6-14.3 4.4-4.4.7-8.9 1-13.4 1.5-1.1.1-2.2.2-3.2.6-3.3 1.4-6.4 3-9.7 4.3-5.4 2.1-10.9 4.2-16.3 6.1-3.1 1.1-6.2 2.2-9.5 3-6.8 1.6-13.6 3-20.4 4.4-1.9.4-3.9.5-5.9.9-5.2 1-10.4.2-15.5-.7-5.4-1-10.9-2.3-16.5-1.5-4.1.6-8.1 1.4-12.1 2.5-5.2 1.4-10.3 2.9-15.7 3.2-5.3.2-9.8-1.9-13.8-5.2-1.2-1-2.3-2-3.6-3.2-.2 1.8.2 3.2.9 4.5 2 3.6 5.2 5.9 8.8 7.8.8.4 1.6.9 2.3 1.5-6.3.4-11.5-2.3-16.8-5.2 1.3 3.6 3.9 6.2 7.2 7.9 3.2 1.7 6.6 3 10.2 4.6-4.2.6-8.2.1-12.1-1.2-4-1.3-7.2-3.7-10.2-7-.6 1.6.4 2.7.9 3.7 2.4 4.7 6.4 7.7 11.4 9.5 5.5 2 10.9 1.7 16.3-.2 4.1-1.5 7.5-4.1 10.3-7.3 3.1-3.5 6.9-5.8 11.2-7.2 4.1-1.4 8.4-2.2 12.6-3.1.7-.2 1.4 0 2.1 0 0 .2.1.4.1.5-1.1.5-2.3.9-3.4 1.5-3.1 1.8-6.2 3.5-9.2 5.5-5.6 3.8-9.9 8.9-13.1 14.7-1.7 3.1-3 6.5-4.4 9.8-2.9 7.1-7.5 12.9-13.1 18-6.7 6.1-14.3 10.8-22.4 14.8-1.8.9-3.6 1.8-5.5 3.2l11.4 2.1v.6c-.5.1-1.1.3-1.6.4-5.6.6-11.2 1.1-16.8 1.6-1.1.1-1.6.3-1.5 1.6.1 1.3-.3 2.6-.5 4.2 4.8.7 9.7 1.3 14.7 2v.4c-.5.2-1 .4-1.5.5l-12.9 1.2c-4.8.4-9.4 1.7-13.5 4.2-.1.1-.2.2-.4.6 7.1 1 13.9 1.9 20.8 2.8 0 .1 0 .3.1.4-.6.1-1.2.4-1.8.4-3.2.2-6.4.3-9.5.6-4.6.3-9.2.7-13.7 1.1-1.5.1-1.8.7-1.3 2.1l.1.1c.3 4.1 3.5 4.3 6.5 4.7 4.2.5 8.4 1.1 12.5 1.7.3 0 .7.2 1 .6-.4.1-.8.2-1.2.2-5.7.3-11.5.6-17.2.9-1.1.1-1.7.4-2 1.6-.3 1.1-.7 2.3-1.1 3.4-.4 1.1-.1 1.6 1 1.8 2.9.5 5.8.9 8.7 1.3 3.3.5 6.6 1.1 9.9 1.7v.4c-.6.1-1.1.3-1.7.3-5.9.3-11.8.5-17.8.7-1.3 0-2.2.3-2.3 1.8v.1c-1 3.1-1 3.1 2.2 3.8 4.9.9 9.8 1.7 14.7 2.6.5.1 1 .2 1.4.3v.4c-.5.1-.9.3-1.4.3-4.8.2-9.7.4-14.5.5-1.6.1-3.1.2-4.7.2-1.9 0-3.2.9-4.3 2.3-.3.4-.6.7-.9 1.1-1.2 1.2-1.2 1.4.6 1.9 3.2.7 6.5 1.4 9.7 2 1.8.4 3.6.7 5.4 1.4-.6.2-1.1.4-1.7.4l-12.9 1.2c-1.6.2-3.2.3-4.8.5-1.6.2-1.6 1.5-1.9 2.7-.3 1.2.7 1.3 1.4 1.5 3.5 1 7 1.9 10.6 2.8 1.5.4 3 .8 4.6 1.1v.4c-.5.1-1.1.3-1.6.4-4.6.3-9.2.6-13.8 1-.7.1-1.7-.4-1.9.9-.2 1.5.3 2.8 1.5 3.2 2.1.7 4.3 1.3 6.4 1.9 3.1.9 6.2 1.8 9.4 3-.4.1-.8.3-1.2.3-4.1.2-8.2.3-12.4.5-1.5.1-1.6.5-1.1 1.9 1 2.9 3.5 3.4 6 4.1l12.3 3.3v.6h-12.1c-.1.2-.1.3-.2.5.2.4.4.9.7 1.3.8.9 1.6 1.9 2.6 2.7.8.6 1.8 1.1 2.7 1.4 3.1.9 6.2 1.6 9.4 2.3.3.1.5.2.8.3v.5h-8.3c-.1.2-.1.3-.2.5 5.3 5.9 7.4 12.6 5.5 20.4-.3 1.2-.8 2.3-1.2 3.5-.2 0-.4-.1-.6-.1 0-.5-.1-1-.1-1.5-.2-6.5-2.5-12.2-6.6-17-2.9-3.4-6.3-6.4-9.4-9.6-2.8-2.8-4.6-6.3-6.1-10-2-4.9-2.6-10-2.8-15.2-.1-1 .1-2.1.1-3.1-.1-.1-.2-.2-.4-.2-.4.4-1 .8-1.2 1.3-1.3 3.1-2.9 6.1-3.8 9.3-1 3.7-1.5 7.6-.6 11.5.2.8.2 1.6.3 2.4-.2 0-.4.1-.5.1-.8-2.1-1.7-4.1-2.3-6.3-.7-2.9-1.4-5.9-1.6-8.9-.2-2.7.4-5.4.5-8.1 0-.6-.3-1.2-.4-1.8-.6.3-1.3.5-1.7 1-3.1 3.5-4.9 7.5-5.1 12.2-.3 6.2.9 12 3.4 17.7v.5c-.5-.1-.9-.1-1.3-.3-1.6-.6-3.1-1.4-4.7-2-2.8-1-6 1.1-6.6 4.2-1 4.6-.4 9 .6 13.5.1.4.1.8-.2 1.4-.4-.4-.9-.7-1.2-1.2-3.7-4-7.4-7.9-12.3-10.4-.3-.2-.6-.4-.9-.4-.4 0-1-.1-1.3.2-.2.1-.1.8 0 1.2 1.5 5.2 3.1 10.4 4.4 15.7.6 2.6.8 5.3 1 8 .4 4.8 1.5 9.5 3 14.2-4.7-5-8.1-10.8-10.4-17.4-.1 0-.3 0-.4-.1-.3.7-.6 1.4-.8 2.1-.9 3.6-3.1 6.4-5.9 8.8-2.9 2.4-4.8 5.6-6.6 8.8-.7 1.3-1.4 2.5-2.2 4-.2-.5-.5-.8-.4-1 .8-6.1 2.6-11.8 6.5-16.7 3.8-4.8 4.9-10.3 4.4-16.3 0-.2-.2-.5-.4-1-.4 1-.7 1.8-1.1 2.5-1.4 2.1-2.7 4.3-4.5 6.1-3.8 3.9-7 8.3-9.6 13.2-1.8 3.4-3.4 6.9-5.1 10.3-.2.4-.5.6-1.1.8 0-.6-.1-1.3 0-1.9 1.2-5.8 3.3-11.2 5.9-16.5 2.3-4.6 4.6-9.2 6.5-14.1 2.7-7.2 3.2-14.7 2.6-22.3-.1-.9-.5-1.3-1.4-1.3-4.5-.2-9.1-.3-13.6-.5-.3 0-.5.1-1 .2.8 1 1.5 1.8 2.3 2.7 4 4.7 5.3 10.2 3.9 16.1-.7 2.9-2 5.7-3.5 8.4-3.1 5.8-5.7 11.8-7.7 18-2 6.1-3.8 12.2-5.4 18.4-.5 1.9-.5 4.1-.3 6.1.2 2.1 1.9 3.2 3.8 3.8 3.1 1.1 6.2.4 9.2-.6 3.2-1 5.6-3.1 8.1-5.3 2.4-2.2 5.4-3.8 8.2-5.5 1.6-1 3.4-1.6 5.1-2.4.4-.2.9-.2 1.3-.2.1.1.1.2.2.3-.4.4-.8.7-1.2 1.1-5.3 4.8-9.9 10.1-12.5 16.8-3 7.9-2.8 15.7 2.3 22.7 4.2 5.8 10.1 8.4 17.5 6.9 5.2-1.1 8.8-4.3 10.2-9.6.7-2.7.9-5.6 1.4-8.3 0-.2.1-.4.3-.9 1.5 1.3 2.4 2.9 3 4.5 2.1 5.6.7 10.8-1.9 15.8-.6 1.1-1.3 2.1-1.9 3.2l.3.3c.4-.2.9-.4 1.2-.7 4.8-4.2 7.5-9.4 7.5-15.9 0-5.6-1.5-10.7-3.7-15.8-.8-1.7-1.7-3.3-2.6-5-.2-.4-.2-.9-.4-1.7 3.4 1.5 5.9 3.7 7.8 6.4 1.9 2.7 3.4 5.6 5.1 8.6.1-.6.2-1.1.2-1.6-.1-4.1-1.2-8-2.8-11.7-2.7-6.4-6.3-12.2-10.9-17.4-.1-.1-.1-.2-.3-.7.6.1 1 .1 1.4.3 3.2 1.6 6.6 2.6 10.1 3.1 3.4.5 6.8.9 10.3 1.3.5.1 1.1-.3 1.6-.5-.3-.4-.6-.9-1-1.1-2.8-1.6-5-3.9-6.9-6.4-2.8-3.8-5-8-6.5-12.5-.7-2.1-1.6-4.2-2.4-6.3-.1-.3-.1-.7.1-1.2.4.6.9 1.1 1.2 1.7 3 5.2 7 9.4 11.5 13.2 4 3.4 8.5 6 13.3 8 .6.2 1.1 1.3 1.1 2-.1 12.9-.5 25.8-.3 38.7.2 11.7 1.1 23.4 1.8 35.1.4 6.8 1 13.5 1.5 20.3.5 5.8 1.1 11.5 1.6 17.3.1.6 0 1.1-.3 1.8-.9-1.2-1.7-2.4-2.6-3.5-2.2-2.9-5.3-4.8-8.6-6.1-3.4-1.3-6.9-2.2-10.4-3.4-3.2-1.1-6.2-2.4-8.4-5.2-1.7-2.2-1.9-4.7-1.5-7.3.1-.4-.1-.9-.1-1.3-.4.1-1 0-1.3.2-4.4 2.4-7 11.5-3.5 15.5 1.6 1.9 3.6 3.2 5.9 4 5 1.7 10 3.2 15 4.9 4.7 1.6 8.7 4.4 12.1 8 2.7 2.8 4.7 6 6.5 9.5.2.4.3.8.4 1.3-.1.1-.2.1-.3.2-1.1-1.3-2.1-2.6-3.2-3.8-4-4.2-8.7-7.2-14.2-8.8-3.3-1-6.8-1.6-10.2-2.5-4.6-1.2-9-3-12-7.1-.3-.4-.7-.8-1.1-1.2-.1.1-.3.1-.4.2.3 1 .5 1.9.9 2.9 2 4.8 5.4 8.4 10.2 10.3 3.3 1.3 6.8 2.3 10.3 3.2 3.3.8 6.2 2.3 8.7 4.3 3.1 2.4 6.2 5 8.9 7.9 3.1 3.3 5.3 7.2 6.5 11.7 1.1 4.4 2.5 8.8 3.7 13.3 1.2 4.7 2.4 9.5 3.4 14.2 1.2 5.4 2.2 10.9 3.1 16.3.5 3 .7 6 1.1 9 .7 5.2 1.4 10.4 2 15.6.2 1.6.3 3.2.5 4.8h-21.9c.6-10.9.9-21.8-3.3-32.2-.5-1.3-.8-1.4-1.7-.5-2 2-4 4.1-5.9 6.2-.3.4-.5 1.1-.4 1.5.7 3.1 1.6 6.1 2.3 9.2 1.2 5.2 1.7 10.5 1.6 15.8h-5.7v-.8c-.5-3.5-1-6.9-1.6-10.4-.5-2.4-1.2-4.9-1.8-7.3-.2-.7-.7-1.2-1.5-.5-1.5 1.4-3.1 2.8-4.5 4.3-.4.4-.6 1.2-.4 1.8.7 2.5 1.5 5 2.2 7.5.4 1.8.6 3.6.9 5.4h-8.5c-.6-1.9-1.2-3.8-1.9-5.6-.3-.8-.9-1.1-1.6-.3-1.3 1.3-2.6 2.6-4.1 3.7-.8.6-1 1.3-.6 2.2h-13.7c.2-2.4.4-4.7.7-7.1.8-8.9.7-17.7-.1-26.6 0-.5-.4-.9-.6-1.3-.4.2-.9.3-1.1.6-1.2 1.2-2.2 2.6-3.5 3.7-1 .9-1.3 2-1.2 3.3.3 9.1.4 18.2-.7 27.3h-3.4c0-3.1.1-6.2-.1-9.2-.2-4.2-.7-8.4-1-12.6 0-.4-.4-.7-.6-1-.3.2-.7.3-.9.6-.8.8-1.5 1.7-2.4 2.4-2.5 2-3.3 4.6-3.1 7.8.3 4-.1 8-.2 12.1h-4c-.3-3.6-.2-7.2-.9-11.1-2.2 2.4-4.2 4.4-6 6.5-.3.4-.3 1.1-.4 1.7-.1.9-.1 1.9-.1 2.8h-25.6c1.1-1.3 2.2-2.6 3.2-3.9-3.4.3-6.8.8-10.1.8-3.4 0-6.8-.2-10-1.8.5-.3 1.1-.4 1.6-.4 1.2 0 2.4.1 3.5-.1.6-.1 1.4-.5 1.5-1 1.6-4.2 2.2-8.6 2.2-13.1 0-.3-.2-.8-.4-.8-.3 0-.7.1-1 .3-2.5 2.4-4.9 4.9-7.4 7.3-1.2 1.1-2.3 2.3-3.5 3.4-.1-.1-.3-.2-.4-.4 3.4-5.6 7.4-10.8 11.4-16 4-5.3 8.1-10.4 12.2-15.5-.1-.1-.2-.2-.3-.4h-1.1c-4.4.2-8.5 1.5-12.4 3.2-1.7.7-3.8 1.1-4.8 3.1-2.9 6-5.4 12.2-5.9 19 0 .5-.2.9-.3 1.3-.2 0-.4-.1-.6-.1-1.2-5.1-.2-10.2 1.1-15.1s3.3-9.6 5-14.5c-.6.2-1.2.3-1.8.5-2.9 1-5.7 2.2-8.7 3-3.2.9-6.4 1.5-9.7 2.1-3.9.7-7.8.9-11.7-.4-3.3-1.1-6.1-2.9-7.2-6.3-1.1-3.2-.5-6.3.9-9.2.4-.8.4-2 1.9-2.2-.1.6-.2 1-.2 1.5-.2 1.7-.4 3.4-.5 5.1 0 .4.3.9.5 1.4.4-.3.9-.4 1.2-.8 4.6-4.9 9.1-9.8 13.8-14.6 3.3-3.4 6.7-6.5 10.1-9.8.3-.3.6-.8 1.1-1.4-.8-.1-1.3-.2-1.8-.2-4.2 0-8 1.3-11.8 2.8-1.1.4-2.3 1-3.1 1.9-2 2.2-3.7 4.7-5.5 7-.6.8-1.2 1.5-1.8 2.3-.2-.1-.4-.2-.5-.4 1.9-5.8 5-11 8.4-16.2-2 .6-3.8 1.4-5.7 2-2.1.7-4.3 1.4-6.5 2-.3.1-.8-.2-1.2-.2.1-.4.2-.8.4-1.1 1.4-1.7 2.9-3.2 4.2-5 3.6-4.7 6.2-9.9 8.2-15.5 1.6-4.7 2.8-9.4 3.1-14.4 0-.4-.2-.8-.2-1.2-.4.1-.8.2-1.1.4-1.5 1-3 2.1-4.4 3.1-1.4 1-2.4 2-2.6 4.1-.7 6-2.8 11.7-5.6 17-2.5 4.7-5.5 9.1-9.3 12.8-.7.7-1.7 1.4-2.6 1.5-4.3.2-8.6-.3-12.6-2.3-3.4-1.7-5.3-4.4-5.4-8.2-.2-3.6 1.4-6.7 2.8-9.9.2-.3.3-.7.5-1 .2.1.4.2.6.4.2 2.9-1.6 6 .2 8.7 6-5.4 11.8-10.8 17.8-16 3.7-3.2 7.7-6.2 11.5-9.3.5-.4 1-1 1.7-1.8-1.6.1-2.7.1-3.8.2-4.3.4-8.5 1.4-12.6 2.7-3 .9-5.8 2-7.9 4.5-.6.7-1.3 1.2-2 1.8-.1-.1-.2-.3-.4-.4 8.2-11.8 18.6-21.6 29.8-30.7-1.9.3-3.5.8-5.3 1.1-6.1 1.1-12.1 2.1-18.2 3-6.3.9-12.7.3-19-.4-.7-.1-1.3-.5-2-.9 10.7-7.6 26.2-24.9 25.6-28.7-2.1.9-4.2 1.6-6.1 2.6-.8.4-1.6 1.1-2.2 1.8-2.3 3-4.3 6.2-6.7 9.1-4.5 5.5-10.2 9.4-16.2 13-1.3.8-2.4.6-3.7-.1-3.9-2.4-5.6-5.4-4.6-9.6.5-2 1.7-3.8 2.7-5.7.3-.6.9-1 1.4-1.6.1.1.3.2.4.3-.1.7-.3 1.4-.5 2.5 9.8-6.2 19.9-11 30.1-15.7-4-1.2-8-.2-12 .2-4.2.4-7.2 3.2-10.7 5.1 5.9-6.4 13-11.1 20.2-15.7 0-.1 0-.2-.1-.4h-5.2l.8-1.2c1.6-2 3.2-4 4.7-6 2.3-3.3 3.9-6.9 5.1-10.7.1-.3 0-.9-.2-1.1-.1-.2-.8-.1-1 0-.5.4-1.1.9-1.4 1.5-3.9 6-8.5 11.3-14.3 15.5-2.4 1.7-4.9 3.1-8.1 2.8-3.4-.3-6.8-.1-10.2-.1-.6 0-1.1-.2-1.7-.4.2-.6.3-1.3.6-1.8 1.8-3.7 3.7-7.3 5.5-11 .3-.7.2-1.6.4-2.5l-.6-.3c-1.1 1.2-2.4 2.4-3.4 3.6-2.7 3.3-5.6 6.4-9.3 8.7-2 1.2-4 2.5-6.6 2-3.1-.7-6.3-.9-9.3-1.8-2.2-.6-4.4-1.8-6.4-2.9-1.7-1-2.1-2.6-1.1-4.3.6-1.1 1.6-2 2.4-2.9.5-.5 1.2-.9 2.2-1.6-.9-.1-1.3-.2-1.8-.2-2.2-.1-4.4-.2-6.5-.4-4.3-.4-8.6-1.1-12.4-3.4-4.1-2.6-5.1-5-4-9.6 1.2-4.7 4.8-8 8.6-10.8.2-.2.6-.1 1.2-.2-.4.5-.5.6-.6.8-2.2 2.8-4.6 5.6-5.6 9.1-.9 3.1-.1 5.6 2.9 6.5 3.3 1 6.8 1.4 10.3 1.9.4.1.9-.2 1.3-.4 4.6-2.9 9-6.1 12.8-10 .8-.8 1.5-1.7 2.3-2.6-.1-.2-.2-.3-.3-.5-9 2.5-17.9 4.9-26.9 7.4-.1-.2-.1-.4-.2-.6 1.2-.6 2.4-1.3 3.6-1.7 6.7-2.5 13.3-5.1 20.1-7.5 4.2-1.5 8.6-2.7 12.9-4 .4-.1.6-.5.9-.7-.3-.2-.7-.6-1-.6-6.3-.2-12.6-.3-18.9-.4h-1.8c0-.2-.1-.4-.1-.6 4.9-2.1 10.1-3.4 15.3-5.4-.6-.2-.8-.4-1.1-.4-4.9-.5-9.9-.9-14.8-1.5-8-1-16.1-2.1-24.1-3.1v-4.3c5.8-3.8 10.9-8.3 14.7-14.2-1.1 0-2 .2-3 .3l-6.6.9c-.4.1-.7.4-1.1.6-1.4 1.1-2.7 2.2-4.1 3.2v-16.8c1.5-.1 2.9.1 4.3-.9 6.1-4.6 11-10.1 14.8-16.6.5-.8.8-1.6 1.4-2.8-2.6.4-4.7.7-6.8.9-1.9.2-3 1.4-4.1 2.9-1.9 2.6-4 5.1-6.2 7.6-1 1.2-2.3 2.2-3.5 3.3v-4.3c1.9-2.4 3.6-4.8 5-8-2 .4-3.5.6-5 .9v-11.1c3.3-2.3 5.4-5.4 6.9-9.1-2.4-.4-3.5.1-4.6 1.9-.7 1.1-1.5 2.2-2.2 3.3v-9.1c3.3-.4 6.7-.7 10-1.1.6-.1 1.3-.5 1.8-.9 7.7-7.2 14.6-15.3 20.1-24.3 1.5-2.4 2.8-4.8 4.2-7.2.2-.3.2-.8.2-1.2 0-.1-.6-.3-.8-.3-2.9.4-5.8.8-8.7 1.3-.6.1-1.3.7-1.7 1.3-.8 1.1-1.4 2.4-2.2 3.5-3.7 5-7.2 10.2-11.3 14.9-3.5 4.1-7.7 7.5-11.6 11.3v-6c.3-.2.7-.4 1-.8 5.7-6.4 10.7-13.2 14.7-20.8.2-.4.2-1 .2-1.5-.5 0-1-.1-1.5 0-2.5.5-5 1.1-7.5 1.4-1.6.1-2.4.9-3.2 2.1-1.2 1.9-2.5 3.8-3.7 5.6v-10.3c3.7-.7 7.4-1.5 11.1-2.2 4.1-.7 8.2-1.4 12.3-2 7.3-1 14.5-2 21.8-3 .6-.1 1.2-.3 1.8-.4 0-.2-.1-.4-.1-.6-15.7-.6-31.4.4-47 1.9v-1.7c2.1-.4 4.3-.7 6.4-1.1 1.1-.2 2.3-.4 3.2-1 5.2-3.5 8.6-8.5 11.3-13.9 2-4.1 3.5-8.3 5.3-12.5.4-1.1.1-1.5-1.1-1.4-2 .2-3.9.6-5.9.7-1.2.1-1.9.7-2.3 1.8-2 5.7-4.7 11.1-8.2 16.1-2.6 3.5-5.3 6.9-8.7 9.7v-8c1.2-2 2.7-4 3.7-6.2 1.4-3.2 2.5-6.5 3.6-9.8.2-.5.1-1.1.2-1.7-.6 0-1.2-.2-1.8-.1l-5.7.9v-5.1c3.4-.7 6.8-1.4 10.1-2.1 0-.1.1-.3.1-.4-.8-.5-1.6-1-2.5-1.4-2.6-1-5.2-2-7.7-3v-5.7c3 .6 6 1 8.9 1.9 4.1 1.3 8 3 12.1 4.6 1.3.5 2.7 1.6 4 1.5 3.4-.1 6.9-.7 10.3-1.2.3 0 .6-.3 1-.5-6.2-3.2-12.5-5.1-19-5.9-5.7-.7-11.5-.7-17.3-1v-10.3c2.1-2.5 4.5-4.8 6.3-7.4 2.5-3.6 4.7-7.5 7-11.3.3-.5.6-1.1-.4-1.2-1.5-.2-3.8 1.1-4.5 2.5-2.2 4.7-5.2 8.9-8.4 12.9v-29c1.5-.6 3-1.2 4.3-2 4.7-2.7 9.5-5.3 14-8.4 4.1-2.8 8-6 11.7-9.4 3.5-3.2 6.7-6.8 10.1-10.2.3-.3.3-.7.4-1.1-.4-.1-.8-.3-1.1-.3-3.9.3-7.8.6-11.7 1-.9.1-1.9.5-2.4 1.1C18.6 63 10.8 70.3 2.4 77c-.6.5-1.3.8-1.9 1.1v-6c.2 0 .4-.1.5-.2C7.6 67 13.6 61.5 18.7 55.1c.2-.3.3-.6.5-1.1-.5 0-.8-.1-1.1-.1-4.3.5-8.5 1-12.8 1.5-.6.1-1.3.5-1.8 1-1.1 1-2 2.1-3 3.2V39.9c1.8.2 3.5.6 5.3-.1 6.1-2.3 11.9-5 17.5-8.4 4.3-2.6 8.5-5.5 12.1-9.2.4-.4.7-.9 1.2-1.6-3.8-.4-7.1-.9-10.5-1.2-.4 0-1 .3-1.4.6l-4.2 3c-6.3 4.3-13 8-20 10.9v-6.8c4.6-2.3 9-5 12.9-8.7-.3-.2-.5-.4-.6-.4L.5 17.1V1.4h12C9.2 2.6 6 3.7 2.6 4.9c.5.2.9.5 1.3.6 4.2.9 8.3 1.8 12.5 2.7.5.1 1-.1 1.5-.3 4.3-2.1 8.5-4.2 12.8-6.4h9.4c-.2.2-.4.5-.6.6-4.7 2.1-9.4 4.2-14 6.4-.6.3-1.2.6-1.7.9 0 .1.1.2.1.4 1.2.2 2.3.3 3.5.5 3.2.6 6.5 1.3 9.7 2 .4.1.8.1 1.1-.1 6-2.9 11.8-6.4 17.1-10.6h9.4c-.3.3-.5.6-.8.8-5 3.6-10.2 6.9-15.9 9.4-1.2.5-2.4 1.1-3.7 1.8.3.2.3.4.5.4 3.5.8 7 1.5 10.5 2.3.4.1.8-.1 1.2-.2 2.2-.9 4.3-1.9 6.5-2.8 6.6-2.8 12.6-6.7 17.9-11.6h33c.8.6 1.5 1.5 2.5 1.9 2.4 1.1 4.8 2 7.7 3.1-.3-.9-.4-1.4-.6-1.9-.5-1.1-1.1-2.1-1.6-3.1h7.1c1.1 2 2.3 3.9 3.4 5.9.6 1.1.8 2.6 1.7 3.2 2 1.3 4.3 2.2 6.5 3.3l.4-.2c-.4-1.2-.7-2.5-1.3-3.6-1.3-2.9-2.8-5.7-4.1-8.5h34.7c6.6 4.5 12.9 9.4 18.8 14.8.7.7 1.2.6 1.6-.4 1.3-3.3 1.3-6.7.2-10-.5-1.5-1.4-3-2.2-4.4h24.2c-2.6 2.9-5.4 5.7-7.8 8.8-4.1 5.4-7.3 11.2-9.2 17.8-1.3 4.6-2.1 9.1-1.8 13.9.1 1.1-.5 1.5-1.4 1.7-5 1.2-9.7 3.2-13.7 6.6-2.3 2-4.2 4.4-5.5 7.2-1.7 3.7-2.2 7.7-1.9 11.8.1 1.1-.3 1.9-1 2.7-7.5 8.5-14.3 17.4-18.9 27.8-2 4.5-3.4 9.2-3 14.3.2 3.2 1.3 5.9 3.7 8.1.9.8.8 1.5.1 2.3-6 6.8-11.1 14.2-14.5 22.7-2.3 5.9-3.8 11.9-4.1 18.2-.4 9.7 1.6 18.9 5.3 27.8 3.6 8.9 8.9 16.6 16.1 23 5.9 5.3 12.5 9.2 20.1 11.7.9.3 1.8.5 2.7.8.1-.1.1-.3.2-.4-.3-.3-.6-.7-.9-1-3.8-3.4-7-7.5-9.7-11.8-3.2-5.2-5.8-10.6-7.4-16.5-1.1-3.9-2.2-7.8-2.9-11.8-.9-5.9-1.4-11.8-.4-17.8.8-5.1 2.2-9.9 4.8-14.3 2.2-3.8 4.7-7.4 7.4-10.9 4.9-6.3 11-11.2 18.1-14.9 4-2.1 8.1-3.9 11.9-6.3 4.4-2.8 6.6-7 4.3-12.1-1.8-4-5.2-5.3-9-3-.4.3-.9.5-1.5.7 0-.4-.1-.6 0-.7.1-.2.2-.4.4-.6 2.1-2.6 4.7-4.6 7.5-6.2.8-.5 1.4-.1 1.8.7 1.5 2.4 3 4.8 4.7 7.1 5.9 7.8 13.1 13.8 22.8 16.2 3.7.9 7.5 1.5 11.4.7 1.1-.2 2.3-.3 3.4-.6.7-.2 1-.7.3-1.3-2.7-2.5-5.4-4.9-8-7.5-.9-.8-1.5-1.9-2.2-2.8l.3-.3c1.2.5 2.3 1.1 3.5 1.6 1.2.5 2.4.8 3.7 1.1 3 .7 3 .6 3.6.1-9.5-6.3-15-15.8-20.6-25.4-.7 7.5 3.3 13.5 6.5 19.7-6.8-4.2-11.1-10.4-14.5-17.5-.3.7-.4 1.3-.4 1.9 0 4 1.5 7.5 3.5 10.8.3.5.5 1.1.8 1.6-.1.1-.2.1-.3.2-.2-.1-.5-.2-.7-.4-1.8-1.8-3.8-3.5-5.3-5.5-4.6-6.2-5-11.5-.5-18 2.7-3.9 6.3-6.6 10.2-9.2 3.7-2.5 6.5-5.7 8.8-9.5.4-.7.8-1.3 1.3-2 .2.4.3.5.3.5 0 .4 0 .8-.1 1.1-.3 3.6 0 7.1.9 10.6 1.3 5.3 4.2 9.8 7.6 14 4.3 5.3 9.3 9.8 14.7 14 4.2 3.3 8.8 5.9 13.8 7.8 7 2.6 14.2 3.7 21.7 3.3 2.9-.2 5.9-.5 8.7-1 2.9-.5 5.7-1.4 8.5-2.1 1.1-.3 2.2-.8 3.3-1.2-.1-.2-.1-.4-.2-.6-1.1.2-2.2.5-3.4.6-7.4.9-14.8 1.4-22.2-.3-6.8-1.6-12.4-4.7-16.5-10.6-2.5-3.6-3.5-7.6-4.3-11.7 0-.2.2-.5.4-1.1 2.5 3.7 5.8 6 9.5 7.8-5.7-9.3-5.6-19.3-4-29.6-5.2 3.5-6.4 9.1-7.3 15.1-.6-.7-1-1-1.1-1.4-1.3-4.1-1.2-8.1.3-12.1 2.3-6.1 6.7-10.6 11.3-14.9 3.3-3.1 6.6-6.3 9.5-9.8 3.8-4.6 6.9-9.6 9.1-15.2 1.4-3.6 2.7-7.4 4-11 .3-.7.6-1.3.9-2 .2.1.3.2.5.2-.7 14.7-6.8 27.2-15.9 38.6 7.4-3.4 11.6-9.9 16.2-16.1.2.4.3.7.2.9-.5 1.6-1 3.2-1.7 4.7-2.6 5.9-6.7 10.5-11.9 14.4-4.3 3.2-8.5 6.6-9.3 12.5-.4 2.5-.9 5.1-.9 7.6.1 5.7 1.8 11.1 4.8 16 .5.8 1.1 1.5 1.6 2.2-.9-7.5.9-14.4 2.8-21.4.9 3.8 1.5 7.6 4.2 10.6.1-.6.2-1.1 0-1.5-.8-2.9-.5-5.9.3-8.7 1.8-5.7 5.3-10.3 9.8-14.2 2-1.8 4.1-3.5 5.5-5.9 2.9-4.7 5-9.8 6.6-15 2.1-6.8 4.3-13.5 6.1-20.4 1.4-5.2 2.4-10.5 3.6-15.8h1.4c-.1 1-.1 2.1-.2 3.1-.7 4.7-1.4 9.4-2.3 14-.8 4.2-1.7 8.4-2.8 12.5-1.3 4.7-2.9 9.3-4.6 13.9-1.8 4.9-3.9 9.5-6.8 13.8-2 3-3.2 6.4-3.7 10.1-.1 1.1.3 1.5 1.3 1.1 1.3-.6 2.6-1.2 3.8-1.9 5.4-3.6 8.2-9.1 10.4-14.9 1.9-5.1 3.2-10.5 3.9-16 .1-.4.3-.8.5-1.5.3.7.5.9.6 1.2 1.2 3.2 2.5 6.2 4.5 9 3.4 4.7 8 8 13.6 9.5 6.5 1.8 13.2 1.5 19.7.1.2 0 .4-.2.8-.5-1.2-.4-2.3-.7-3.3-1.1-6.7-2.8-11.5-7.9-15.8-13.5-.2-.3-.1-.7-.2-1.3.5.2.7.2.8.3 2.5 1.7 4.8 3.7 7.5 5 3.1 1.5 6.4 2.7 9.7 3.6 4.7 1.2 9.5 1.2 14.2 0 2.7-.7 5.3-1.7 7.9-2.7.3-.1.4-.5.7-.8-.3-.2-.5-.5-.8-.5-5.5-1.2-10.2-4.1-14.7-7.2-3.4-2.4-6.4-5.1-9.7-7.7-.4-.3-1.4-.5-1.8-.3-1.8 1.1-3.1 2.8-2.7 5.1.3 1.5.9 2.9 1.4 4.4.1.4.3.8.5 1.4-.5-.1-.8-.1-.9-.2-6-2.9-10.8-7.2-14.3-12.9-1.8-2.9-3.1-6.1-4.5-9.2-2.3-5.1-3.3-10.6-4-16.1h3.4c2 2.3 3.8 4.8 6.1 6.8 3.8 3.4 8.4 5.4 13.3 6.7 5.4 1.5 11 2.2 16.6 2.1 1.6 0 1.9.2 2.1 1.7.6 4.3 2.2 8.1 4.8 11.5 4.3 5.7 10.2 9.1 17.1 10.8 4.2 1.1 8.6 1.3 12.8.3 3.5-.8 6.9-2.2 10.3-3.4 5.6-2.1 11.3-2.2 17-.3 4.6 1.5 9.1 3.1 14 3.6 3.4.3 6.8 0 10.1-1.2 1.9-.7 2.2-2 .8-3.4-2.1-2.1-4.9-3.1-7.6-3.9-6.9-1.9-12.8-5.5-17.9-10.5-.2-.2-.3-.5-.5-.7 3.7 1.7 7.2 3.4 10.9 4.9 6 2.6 12.3 4.4 18.8 5.3 7.2.9 14.5.6 21.5-1.6 5.7-1.8 11.1-4.5 15.6-8.6 3-2.8 5.7-5.9 8.5-8.9.7 4.3.7 8.9.7 13.6zm-360.7 208c-.1.1-.2.2-.3.2-.3-.3-.7-.6-1-.9-1.8-2.7-4.2-4.7-6.9-6.4-2.6-1.7-5.5-3.2-8.7-2.8-2.2.3-4.4.9-6.4 1.9-2.1 1-3.7 2.8-4.6 5.2-.9 2.4-1.3 4.9-1.4 7.5-.2 7.9.9 15.6 3.1 23.1.2.7.3 1.5.4 2.3-.2.1-.4.1-.5.2-4.6-6.6-8.2-13.7-7.9-22.5-1.8 2-1.3 4.1-1.7 6-.8 4.4-.3 8.8.6 13 .8 3.7 2.2 7.5 3.9 10.9 1.4 2.9 3.3 5.7 5.6 7.9 4.7 4.5 10.5 6.8 17 7.4.3 0 .6.2 1.1.3-.9.8-2 1.4-2.5 2.2-2.9 5.3-6.7 10-10.8 14.4-.4.4-.6.8-1.1 1.4.5.1.7.1.8.1 2.2-.5 4.3-.9 6.5-1.5 1.1-.3 2.4-.6 3-1.3 3.6-4.3 6.1-9.2 7.3-14.7.1-.4.5-.8.8-1 1.2-.6 2.5-1 3.6-1.6 10.6-5.6 14.1-14.2 12.4-25.4-.8-5.2-2.7-10-5.2-14.7-.4-.8-.7-1.6-1.2-2.6.5.1.7.1.9.2 1.6.7 3.3 1.4 4.9 2.2.5.3 1.1.8 1.3 1.4 2.1 4.2 3.7 8.6 4.3 13.3.9 8.4-1.1 16-6.6 22.5-.3.3-.4.8-.8 1.4.5-.1.6-.1.7-.2 8-4.1 12.1-10.9 13.1-19.5.8-6.7 0-13.4-1.8-20-.2-.7 0-1.7.4-2.3 1.4-2.4 3-4.7 4.6-7 .6-.9.3-1.3-.6-1.5-1-.2-1.9-.4-2.9-.7-5.7-1.8-11.4-3.9-16.3-7.6-3.5-2.6-6.6-5.6-9.9-8.4-.3-.3-.7-.5-1-.8-.1.4-.4.8-.3 1.1.4 5.1 1.1 10.1 3.1 14.9.3.6.7 1.5 1 2.4zm70.5-91.9c-2.5 2.4-5.7 3.3-9 4-2.5.6-4.9 1.5-6.2 3.9-.9 1.8-1.7 3.7-2.1 5.6-.8 3.2-.7 6.6.7 9.6 2 4.4 5.7 6.8 10.3 7.4 7.2 1 13.7-.9 19.6-5.2 3.7-2.7 6.7-6 9.1-9.9 2.8-4.6 5.4-9.3 8.1-14 2.3-4.1 4.9-7.9 9.2-10.2.4-.2.6-.6 1.1-1.1h-2.2c-3.2.1-6.3.7-9 2.5-3 2-5.3 4.7-7.5 7.5-4.3 5.7-9.6 10.1-16.5 12.1-.6.2-1.2.2-1.8.4 1.3-2.1 2.7-3.9 3.7-6 1-2 1.5-4.2 1.7-6.6-2.2 1.9-4.2 3.8-6.5 5.4-2.2 1.6-4.8 2.7-7.7 2.7 2.9-1.7 4.9-4.3 5-8.1zm-31.5 168c-.2-.1-.3-.2-.5-.3-1 1.2-2.2 2.2-3 3.5-1.4 2-2.8 4-3.7 6.2-1.4 3.4-2.1 7.1-1.6 10.8 0 .3-.1.7-.3.9-.2.1-.6 0-.9-.2-1.8-1.5-3.8-2.8-5.2-4.6-3.7-4.6-5.1-10-5-15.9 0-.6-.1-1.2-.2-1.8h-.5c-.3.6-.5 1.2-.8 1.7-2.6 5.6-4.5 11.3-4.7 17.5-.2 6.3 1.6 11.8 6.4 16.1 4.6 4.1 10.3 5.8 16.2 7 .3.1.6-.1 1.1-.2-4.3-4.2-6.9-8.8-5.8-15 2.2 2.7 4.6 4.9 7.9 6 3.2 1.1 6.4 1.4 9.7.8-.3-.5-.6-.7-1-.9-3.4-2.2-6.1-5.1-8-8.7-3.4-6.6-3.2-13.4-1.1-20.3.4-.8.7-1.7 1-2.6zm30.4-119.9c-.1 0-.3.1-.4.1.3.7.6 1.5 1 2.2 2 3.5 4.8 5.6 9 5.7 4.1.1 7.6-1.6 10.9-3.9 3.9-2.8 7.1-6.5 9.5-10.7 2.9-5 5.5-10.1 8.1-15.2 3.6-7 9.5-11 16.8-13.3 3.5-1.1 7.1-2.2 10.2-4.2 3.3-2.2 5.8-5 5.7-9.4 0-1.2-.4-1.6-1.6-1.4-4.1.5-7.9 1.7-11.7 3.2-5.8 2.3-10.9 5.9-15.3 10.3-3.9 3.8-6.2 8.7-9 13.2-3.9 6.4-7.4 13.1-12.1 19-2.4 3-4.9 5.8-8.8 6.9-2.5.7-5 .9-7.5-.2-1.8-.7-3.3-1.5-4.8-2.3zM62.8 52.3c-.8-.1-1.3-.2-1.8-.1-3.8.3-7.7.5-11.5.9-.8.1-1.6.5-2.2 1-2.6 2.7-4.9 5.7-7.7 8.2-5.3 4.9-10.7 9.9-16.4 14.4-5.4 4.2-11.3 7.7-17 11.5-.8.5-1.6 1-2.3 1.5 13.4.1 49.8-23.1 58.9-37.4zM34.9 210.4c.5.2.6.3.6.3 2.5-.2 5.1-.8 7.6-.6 4.7.4 8.2-1.6 11.7-4.5 9.4-7.8 17.1-17 22.8-27.9.7-1.3.5-1.7-1-1.7-2.3-.1-4.7 0-7-.1-1 0-1.7.3-2.3 1.1-1.7 2.4-3.5 4.8-5.3 7.2-6.8 8.8-14.4 16.9-23.5 23.3-1.1 1-2.3 1.9-3.6 2.9zm24-33.6c-.9-.1-1.4-.2-1.8-.2-3.1.2-6.2.4-9.3.8-.6.1-1.2.6-1.6 1.2-.9 1.2-1.6 2.6-2.5 3.8-4.6 6.5-9.3 12.9-15 18.5-3.2 3.1-6.5 6-9.8 9-.6.5-1.2 1-2.1 1.7.8.2 1.1.3 1.4.3 2.3-.1 4.7-.1 6.9-.5 2-.3 4.1-.2 5.9-1.6 5.4-4.3 10.5-8.9 14.8-14.3 3.2-4 6.1-8.2 9.1-12.3 1.3-1.9 2.5-4.1 4-6.4zm1.9 110.7c0 .1.1.2.1.4.3 0 .6.1.9.1 3.3-.2 6.6-.4 9.9-.7 1-.1 2.2-.2 3-.8 3.3-2.5 6.5-5.1 9.5-7.8 6.3-5.7 11.6-12.2 16-19.4l3-5.1c.2-.3.2-.8.1-1.2 0-.1-.5-.2-.7-.2-2.6.4-5.1.8-7.7 1.3-.6.1-1.1.6-1.5 1.1-1.2 1.7-2.2 3.6-3.4 5.3-7.3 10.3-16.7 18.6-27.1 25.6-.6.3-1.4.9-2.1 1.4zM27.2 87.3c.1.2.2.4.3.7 1.9-.5 3.9-.8 5.7-1.6 5.5-2.2 11.1-4.3 16.4-7 4.9-2.5 9.4-5.6 14-8.6 6.9-4.5 12.7-10.2 18.2-16.2.3-.4.5-.9 1-1.6h-2c-2.6.2-5.2.6-7.8.6-2 0-3.4.6-4.9 2.2-6.4 7.4-13.7 13.9-21.7 19.6-4.8 3.4-10 6.5-15 9.6-1.3.9-2.8 1.6-4.2 2.3zm-.1 198.5c.1.1.1.3.2.4 3.8.5 7.6 1 11.4 1.4.6.1 1.3-.3 1.8-.6 10.3-6.8 19.1-15.3 26.4-25.3.7-1 1.3-2.1 2.1-3.4-.7-.1-1-.2-1.3-.1-2.9.5-5.9.9-8.8 1.5-.5.1-1.1.5-1.5 1-4.5 6.1-10.1 11.2-16.1 15.7-3.4 2.6-7.1 4.8-10.7 7.2-1.2.7-2.3 1.4-3.5 2.2zm15.6 2.2c.7.1 1.1.2 1.5.2H55c.5 0 1-.2 1.4-.5 2.4-1.8 4.9-3.6 7.2-5.5 8.8-7.1 16.2-15.4 21.8-25.3.2-.3.3-.9.2-1-.2-.2-.7-.4-1.1-.3-1.9.2-3.9.4-5.8.9-.8.2-1.7.8-2.2 1.4-1.1 1.3-1.9 2.7-2.9 4-5.5 6.9-11.9 12.9-19.1 18.1-3.7 2.7-7.6 5.2-11.8 8zm96.6 46.7c-.5 0-.7 0-.9.1-2 .8-4 1.4-5.9 2.4-1.3.6-3 .8-3.6 2.5-1.9 5.3-4.6 10.2-7.6 14.9-4.7 7.4-10.2 14.2-17 19.9-.2.1-.2.5-.4 1 1.1-.1 1.9-.1 2.7-.3 1.7-.4 3.3-1 4.9-1.2 2-.2 3.1-1.5 4.3-2.7 1.5-1.5 2.9-3.1 4.2-4.8 2.9-3.7 5.9-7.4 8.6-11.3 3.8-5.5 6.9-11.4 9.6-17.5.5-.9.7-1.9 1.1-3zM55.4 209.1c.7.1 1 .2 1.4.2 5.1.2 9.7-1.4 14.1-3.7 5.4-2.9 10.1-6.7 14.2-11.2 2.5-2.8 4.6-5.9 6.8-8.9.7-.9 1-2-.3-2.8-1.6-1-3.1-2-4.6-3-.9-.7-1.5-.3-2 .4-2.8 3.7-5.5 7.5-8.4 11-4.5 5.5-9.7 10.2-15.6 14.2-1.8 1.2-3.6 2.4-5.6 3.8zm63.9 162.1c.5-.1 1-.1 1.5-.3 2-.7 3.9-1.6 5.8-2.1 2.8-.8 5-2.2 6.7-4.5 2.9-3.8 5.8-7.6 8.5-11.5 4.9-7.2 8.9-14.8 11.9-23 .1-.2 0-.5 0-.8-.3 0-.6-.1-.9 0-2.4.9-4.8 1.8-7.1 2.9-.6.3-1.3.9-1.6 1.5-1.7 3.7-3.2 7.6-5.1 11.2-3.9 7.6-8.8 14.6-14.6 20.9-1.6 1.8-3.3 3.7-5.1 5.7zm55.8 34c-2.1 1.8-3.9 3.5-5.8 5-1.1.9-1.5 2-1.6 3.4-.3 5-.5 9.9-1.2 14.9-.6 4.3-1.8 8.5-3 12.7-.8 2.8-1.9 5.5-3 8.3-.7 1.9-1.7 3.6-2.6 5.8.6-.1 1.1-.1 1.4-.3 1.9-1.1 3.8-2.2 5.5-3.4.7-.5 1.4-1.3 1.8-2.1 3.4-7 5.4-14.4 6.7-22 1.2-6.7 1.9-13.5 2-20.3.1-.7-.1-1.2-.2-2zm-50.6-64.1c-.1-.1-.2-.2-.4-.3-.4.1-.9.1-1.3.3-2.3.9-4.6 1.8-6.7 2.9-.8.4-1.5 1.2-2 2-1 1.7-1.8 3.7-2.9 5.4-3 4.4-6 8.7-9.1 13-3.4 4.5-7.4 8.4-12 11.9-.3.3-.6.7-1 1.2h1.4c1.8-.2 3.6-.4 5.4-.5 2.4-.1 4.4-.8 5.9-2.8.2-.3.6-.6.9-.9 8.2-8.5 15.2-17.8 20.2-28.4.5-1.4 1-2.6 1.6-3.8zm-24.3-117.2h-1.9c-2.1.2-4.1.5-6.2.6-1.1.1-1.8.5-2.5 1.4-1.9 2.8-3.8 5.6-5.9 8.2-4.8 5.9-9.7 11.6-16.1 16-.2.2-.3.5-.7 1.1 4.4-.4 8.4-.7 12.4-1.1.5-.1 1.1-.6 1.5-.9 6.3-5.3 11.5-11.5 15.7-18.6 1.4-2 2.4-4.2 3.7-6.7zm69.6 224.4c.5-.2.9-.3 1.2-.5l5.1-3.3c.5-.3.9-.8 1.2-1.4.7-1.5 1.3-3.1 2-4.7 2.2-5.1 3.5-10.5 4.6-15.9 1.7-8.3 2.1-16.7 2.5-25.2 0-.5-.1-1-.2-1.4-.1-.1-.3-.1-.4-.2-1.9 1.8-3.8 3.5-5.7 5.3-.3.3-.3.9-.3 1.3-.5 5.5-.8 11.1-1.5 16.6-.7 6.5-2.4 12.7-4.6 18.9-1 3.4-2.4 6.8-3.9 10.5zm105.8-312.5c-.1-.2-.1-.5-.2-.7-3.1.9-6.3 1.6-9.3 2.8-5.8 2.3-9.8 6.7-13 11.8-3.7 5.9-7.3 12-11.4 17.6-4.7 6.6-11.1 10.9-19.5 11.7-.4 0-.7.2-1.3.4 2.9 1.5 7.9 1.5 11.5.3 7.2-2.3 12.1-7.1 16-13.3 4-6.4 8-12.7 12.3-18.9 2.6-3.8 6.1-7 10.2-9.3 1.6-.8 3.2-1.6 4.7-2.4zm-161.7 7.9c-.4-.2-.6-.4-.9-.4-2.8-.3-5.6-.7-8.5-.8-.6 0-1.2.6-1.8 1.1-.3.3-.3.8-.5 1.1-3.2 5.8-6.9 11.2-12 15.5-2.9 2.4-5.9 4.6-8.9 6.7-1.5 1-3.1 1.8-4.7 2.7.5.4.9.5 1.4.6 1.6.1 3.2.3 4.8.3 1.2 0 2.4-.2 3.4-.6 5.1-2.1 9.4-5.4 13.2-9.2 4.2-4.3 8.1-8.9 12-13.5 1-1 1.7-2.3 2.5-3.5zm-51.4 25.1c0 .1.1.3.1.4 1.4.1 2.8.2 4.2.2 1.2 0 2.5.1 3.6-.3 6.4-2.5 11.7-6.5 16-11.9 3.5-4.3 6.2-9 8.1-14.2.3-.7.5-1.4-.7-1.5-2.5-.2-4.9-.3-7.4-.5-.9-.1-1.3.4-1.6 1.2-1.8 3.8-3.5 7.8-5.7 11.4-3.5 5.7-8.2 10.2-13.9 13.8-.9.5-1.8.9-2.7 1.4zm16.6 117.7c.5 0 1 .1 1.4.1 3-.3 6-.5 9.1-.9 1.3-.2 2.8-.4 3.9-1.1 1.8-1 3.4-2.4 5-3.7 5.1-4.3 9.2-9.4 11.9-15.5.3-.6.3-1.3.3-1.9-.1-1.4-.4-2.7-.6-4.1-.2-1.3-.4-2.6-.6-3.8-.2-.1-.3-.1-.5-.2-7.5 12.7-18 22.4-29.9 31.1zm5-36.9c.5.2.7.3.9.3 3.5-.2 6.9-.4 10.4-.7.4 0 .8-.4 1.2-.7 4.5-3.7 8.5-7.9 11.7-12.7 2.6-3.8 4.9-7.9 7.3-11.8.2-.4.3-.9.2-1.3-.1-.2-.7-.2-1.1-.2-2 .2-4 .5-6.1.6-1.4.1-2.1.6-2.8 1.8-3 5.5-6.7 10.5-10.9 15.2-3.2 3.4-6.6 6.6-10.8 9.5zM181 441.1c.5-.1.7-.1.8-.2 2.2-1.4 4.4-2.8 6.5-4.4.7-.5 1.2-1.4 1.5-2.2.7-1.7 1.4-3.4 1.9-5.2 1.1-4.4 2.3-8.8 3-13.2.6-3.8 1-7.6 1-11.5.1-5.1-.1-10.2-.3-15.4 0-.2-.7-.8-1-.7-2.3.8-3.6 3.5-3.6 5.9-.1 5.4-.2 10.8-.8 16.2-.5 4.4-1.6 8.8-2.7 13.2-.8 3.2-1.9 6.4-3 9.6-1 2.7-2.1 5.2-3.3 7.9zM62.5 17.5c.2.2.3.4.4.4 3 .8 6 1.7 9 2.4.6.1 1.3.1 1.8-.1 4.5-1.6 9.1-3.1 13.6-4.9 4.8-1.9 9.3-4.5 13.3-7.8.3-.2.6-.7.6-1 0-.3-.5-.6-.9-.7-2.8-.9-5.7-1.8-8.5-2.8-1.1-.4-1.9-.3-2.7.4-1.9 1.4-3.7 2.8-5.6 4.1-4.3 2.9-8.8 5.3-13.6 7.3-2.4 1-4.8 1.8-7.4 2.7zM48.4 168.2c0 .2 0 .4.1.5 2.6.1 5.2.9 7.8-.3 1.1-.5 2.1-1 3.2-1.6 9.5-5.7 15.3-14.3 18.9-24.6.4-1 .1-1.5-1.1-1.5-2.3 0-4.7-.1-7-.1-.6 0-1.3.5-1.6 1-.7 1.5-1.1 3.1-1.7 4.6-3.1 7.4-7.6 13.7-13.9 18.7-1.5 1.4-3.1 2.3-4.7 3.3zm-32-126.1v.4c.4.1.8.3 1.3.3 1.8.3 3.6.3 5.3.8 2.6.7 4.9.4 7.3-.7 7.1-3 13.5-7.1 19.2-12.3 2.2-2 4.2-4.3 6.6-6.7-.8-.2-1.1-.3-1.5-.4-2-.3-4-.7-6-.9-.6-.1-1.6.1-2 .5-7.3 7.5-16.2 12.6-25.5 16.9-1.5.8-3.1 1.4-4.7 2.1zm192.2 74.6c-.2.6-.3 1-.4 1.4-.5 2.4-1.4 4.5-3 6.3-3.9 4.5-9 6.9-14.3 9-5.8 2.3-10.8 5.7-15.1 10.1-4.4 4.5-7.5 9.8-10.2 15.4-.2.3 0 .8 0 1.1 1.4-1.4 2.4-2.9 3.6-4.2 4.5-5.1 9.2-9.9 15-13.6 3.1-2 6.5-3.7 9.8-5.3 2.6-1.3 5.5-2.1 8.1-3.4 3.1-1.5 5.9-3.4 7.8-6.4 2-3.2 1.6-7.8-1.3-10.4zm-40.1 249.5c-.5.2-.7.3-1 .4-1.7 1.1-3.3 2.3-5.1 3.4-.9.5-1.2 1.2-1.3 2.2-.1 5.7-.9 11.2-2.3 16.7-1.2 4.7-2.7 9.3-4.8 13.6-1 2.2-2.2 4.2-3.3 6.4 1.7-.6 3.2-1.4 4.6-2.3 1.3-.8 2.7-1.7 3.6-2.8 1.3-1.7 2.2-3.7 3.1-5.6 2.7-5.7 4.4-11.8 5.3-18.1.6-4.1.8-8.2 1.1-12.3.3-.5.2-1 .1-1.6zM137 416.8c.6-.1 1-.1 1.3-.3 1.5-.8 3-1.6 4.4-2.5 1.6-1 3.5-1.6 4.4-3.4.7-1.4 1.5-2.8 2.1-4.2 3.3-7 5.6-14.4 6.6-22.1.4-2.9.5-5.9.7-8.8 0-.3-.2-.7-.3-1-.3.1-.7.2-1 .4-1.6 1.1-3.3 2.1-4.8 3.3-.5.4-1 1.1-1 1.7-.4 2.4-.4 4.9-.9 7.3-.8 3.9-1.6 7.9-2.9 11.7-1.4 4-3.3 7.9-5.2 11.8-.8 2-2.1 3.9-3.4 6.1zm-17-403c-.3-.3-.3-.5-.5-.5-2.9-1.2-5.8-2.4-8.7-3.4-.6-.2-1.5 0-2.1.3-1.9 1-3.6 2.2-5.5 3.2-6.9 3.8-14.1 6.6-21.8 8.1-.6.1-1.1.5-1.6.7.3.5.6.6.8.6 1.8.5 3.6 1.1 5.4 1.5 2.2.5 4.3 1.7 6.6 1 1.9-.6 3.8-1 5.7-1.5 5.7-1.5 11.2-3.7 16.4-6.6 1.9-1 3.6-2.3 5.3-3.4zm43.5 402.1c-.1-.1-.3-.2-.4-.2-2.2 1.9-4.3 3.9-6.5 5.9-.3.2-.3.8-.3 1.2-.2 2.9-.4 5.8-.6 8.6-.9 9.7-3.3 19.1-7.3 28-.1.3-.1.7-.2 1.2 3.7-.9 6.6-3.4 8.1-6.8 2.4-5.7 4.3-11.5 5.1-17.7.9-6.2 1.5-12.5 2.2-18.7.1-.6 0-1.1-.1-1.5zm-19.1-33c-.1 0-.3-.1-.4-.1-.3.2-.7.4-1 .6-1.9 1.4-3.8 2.8-5.8 4.1-1.1.7-1.4 1.6-1.6 2.8-.6 4.3-1.1 8.8-2.1 13-1.6 6.4-4.1 12.5-7.6 18.1-.2.3-.3.7-.4 1.2.4 0 .6.1.8 0 3.2-1.5 6.2-2.9 8-6.4 2.7-5.1 5.4-10.1 7-15.6 1.1-4 2-8.2 2.9-12.3.1-1.8 0-3.6.2-5.4zM52.6 252c3.6-.2 6.7-.3 9.9-.5.4 0 .9-.4 1.2-.7 2.3-2.1 4.6-4.2 6.9-6.4 5.2-5.1 9-11.1 12.5-17.5.5-1 .2-1.4-.9-1.3-2 .2-3.9.5-5.9.8-1.4.2-2.4.8-3.1 2.2-.5 1.1-1.3 2.1-1.9 3.1-3.9 5.8-8.4 11.1-13.6 15.8-1.6 1.4-3.2 2.8-5.1 4.5zm-34.2-81.9c.9 0 1.7.1 2.5 0 1.6-.2 3.3-.2 4.7-.8 2.9-1.3 5.2-3.5 7.3-5.9 3.2-3.6 5.6-7.6 7.8-11.8 1.5-2.9 2.8-5.9 4.1-8.9.5-1.1.1-1.6-1.1-1.5-2 .2-4.1.4-6.1.4-1.3 0-1.9.5-2.3 1.6-.5 1.5-1 2.9-1.6 4.4-2.2 5.8-5.5 11.1-9.4 15.9-1.9 2.3-3.9 4.4-5.9 6.6zm16-.8c2.6-.3 5.3.1 7.6-1.3 4.9-3 8.9-7 12.3-11.6 3.2-4.4 5.6-9.2 7.6-14.2.3-.8.2-1.4-.9-1.4-2.3 0-4.7 0-7 .1-.6 0-1.3.6-1.6 1.1-.7 1.4-1.2 3-1.8 4.5-2 5.2-4.8 10-8.3 14.3-2.4 2.9-5.1 5.5-7.9 8.5zm200.5 286c-1.4 1.4-2.7 2.6-3.8 3.9-.5.5-.8 1.3-.8 2-.2 5.4-.3 10.8-.5 16.2-.3 7.2-.8 14.4-2.5 21.4-.1.5 0 1 0 1.4 2.2-1.6 4-3.4 5.9-5.1.9-.8 1.3-1.8 1.4-3 .3-4.3.7-8.5 1.1-12.7.9-7.7.3-15.4-.3-23.1 0-.2-.2-.4-.5-1zM129.8 146.1c-.6-.3-.8-.5-1.1-.5-2.2-.4-4.4-.7-6.6-1.2-1.2-.3-1.8.1-2.3 1-.6 1.1-1.2 2.2-2 3.3-4.6 6.6-10.2 12-16.9 16.5-2.7 1.8-5.7 3.4-8.5 5.1-.3.2-.4.5-.6.8.3.2.6.5.9.5.8.1 1.6.2 2.4.1 5.5-1.3 10.4-3.7 15-6.8 5.4-3.6 10.2-8 14.6-12.8 1.7-2 3.3-3.9 5.1-6zM77.1 314c.7.1 1.1.2 1.5.1 2.4-.3 4.9-.5 7.3-.9 1.6-.3 3.4-.2 4.7-1.7 2.9-3.3 6.1-6.4 8.7-9.9 2.7-3.6 4.7-7.6 7.1-11.4.7-1.1.2-1.4-.8-1.3-2.1.2-4.2.3-6.2.6-.6.1-1.3.6-1.6 1.2-3.6 6.2-8.2 11.6-13.3 16.6-2.3 2.2-4.8 4.3-7.4 6.7zm147.6 152.5c-.2-.1-.3-.1-.5-.2-1.3 1.4-2.6 2.8-4 4.2-.8.8-1.1 1.7-1 2.8 0 3.8.1 7.6 0 11.4 0 8-.7 15.9-1.9 23.8 0 .3.1.7.2 1 .3-.1.7-.2.9-.4 1.6-1.5 3.1-3 4.7-4.6.4-.4.7-.9.8-1.4.3-1.7.6-3.4.7-5.1.7-9.8 1.7-19.6.3-29.4-.1-.7-.1-1.4-.2-2.1zM67.4 228c-.9 0-1.6-.1-2.2 0-1.8.2-3.6.6-5.3.7-1.3.1-2 .6-2.5 1.6-4.1 7.6-9.5 14.2-16.1 19.8-1 .8-1.9 1.7-2.9 2.6.5.3.8.4 1.2.3 2.5-.2 5-.5 7.5-.6 1.5 0 2.6-.5 3.5-1.5 2.2-2.3 4.5-4.5 6.6-6.8 4.1-4.7 7.5-10 10.2-16.1zm-5.9 87.6c0 .1.1.2.1.4h1.3c2.7-.3 5.4-.5 8-1 1.1-.2 2.4-.6 3.1-1.4 3.2-3.4 6.4-6.8 9.2-10.5 2.7-3.7 4.9-7.7 7.4-11.6.2-.3.2-.8.3-1.2-.4-.1-.8-.3-1.2-.2-1.4.1-2.8.3-4.2.6-1.1.3-2.4.6-3.1 1.3-1 1-1.6 2.5-2.4 3.7-4 6-8.7 11.4-14.2 16-1.5 1.3-2.9 2.6-4.3 3.9zm176.3 174.5c.1.1.3.1.4.2.8-.7 1.7-1.3 2.4-2.1 1-1.3 2.8-2 3.1-4 .5-3.1 1.4-6.1 1.8-9.2 1.3-8.2 1.3-16.4.3-24.6-.2-1.7-.6-3.4-1-5.5-1.1 1.2-1.9 2.2-2.8 3-1.1 1-1.5 2.2-1.4 3.7.1 1.2.2 2.5.1 3.7-.2 5.4-.2 10.9-.7 16.3-.5 5.6-1.4 11.2-2.2 16.9v1.6zm-48.9-.5c.1.1.3.1.4.2 1.9-1.3 3.8-2.6 5.6-4 .3-.2.5-.7.6-1.1 1.5-6.3 2.3-12.8 2.3-19.3-.1-5.4-.5-10.7-.8-16-.1-1.1-.4-2.2-.7-3.2-.2-.1-.3-.2-.5-.3-1.2 1.3-2.4 2.7-3.7 4-.8.8-1.1 1.6-.8 2.7.3 1.5.6 3.1.7 4.6.9 10.5-.1 20.8-2.9 31-.2.6-.2 1-.2 1.4zm10-6.9c.1.1.3.2.4.2 2-1.8 4-3.6 5.9-5.4.2-.2.2-.5.3-.8.7-5.3 1.7-10.6 2-15.9.5-7.4-.6-14.7-2.2-22-.2-1-.7-1.1-1.4-.5-1 1-2.1 2-3 3.1-.3.4-.4 1.1-.3 1.7.3 2.5.9 4.9 1.1 7.4.5 7.1.4 14.2-.8 21.3-.6 3.4-1.4 6.7-2.1 10 0 .3.1.6.1.9zm-35.2-81.4c.5-.1.7-.1.8-.2 2.9-1.9 5.9-3.8 8.8-5.8.4-.3.8-.7 1-1.2 1.1-3.8 2.5-7.6 3.2-11.4.9-5.3 1.2-10.7 1.8-16.1.3-2.3-.3-3.7-2.7-4.5-1.9-.6-2.8-.2-3 1.9-.3 3.9-.5 7.8-1 11.7-.7 6.5-2.8 12.6-5.5 18.6-1 2.3-2.2 4.5-3.4 7zm-54.3-54.6c-.7.1-.9.1-1.2.2-2.1.8-4.3 1.6-6.4 2.4-1.5.6-2.8 1.3-3.6 3.1-1.3 2.9-2.9 5.6-4.6 8.3-4.1 6.2-9.1 11.5-15.2 15.8-.3.2-.6.5-.9.8 0 .2.1.3.1.5 2 0 3.9-.1 5.9 0 1.3.1 2.2-.4 3-1.2 2.4-2.4 4.9-4.8 7.2-7.2 5.7-5.9 10.4-12.5 14.3-19.7.5-1 .8-1.8 1.4-3zm100.9 124.9c.1.1.3.1.4.2.9-1 1.9-1.9 2.7-2.9.9-1.1 2.2-2.2 2.4-3.4.7-5.2 1.3-10.3 1.5-15.5.3-6.4-.4-12.8-1.5-19.1-.2-.9-.5-1.8-.8-2.7-.2 0-.4-.1-.5-.1-1.6 1.7-3.2 3.3-4.7 5-.2.3-.3.8-.3 1.2.5 3.5 1.2 7.1 1.7 10.6 1.2 8.6.7 17.2-.9 25.8-.1.2-.1.6 0 .9zM93.7 311.8c.8.1 1.2.2 1.6.1 3.8-.6 7.6-1.1 11.4-1.7.3 0 .6-.3.8-.5 1-1.2 2.1-2.4 3-3.6 4.2-5.2 7.7-10.8 10.6-16.7.3-.6.4-1.2.6-1.8-.7-.1-1.3-.3-2-.2-1.4.1-2.8.2-4.2.6-.6.1-1.3.6-1.7 1.2-2.7 3.6-5.1 7.4-7.9 10.9-2 2.5-4.5 4.8-6.8 7-1.7 1.4-3.4 2.9-5.4 4.7zm-86.2-57h2.7c3.1-.2 6.1-.4 9.2-.6.5 0 1-.3 1.4-.6 2.2-2.2 4.4-4.3 6.5-6.6 3.6-4 6.3-8.6 8.7-13.4.1-.3.1-.7 0-.9-.1-.2-.6-.2-.9-.2-2.2.3-4.3.6-6.4 1.1-.8.2-1.8.7-2.2 1.4-3 4.4-6.2 8.8-10.2 12.4-2.8 2.4-5.8 4.8-8.8 7.4zm16.1-1c.7.1 1.1.2 1.4.2 3-.2 6-.5 9-.7.5 0 1-.3 1.4-.6 2.4-2.5 4.8-4.9 7-7.5 3.5-4.1 6.3-8.8 8.7-13.6.2-.3.2-.8.2-1.2-.4 0-.8-.1-1.2-.1-1.8.2-3.6.7-5.3.8-1.7.1-2.6 1-3.4 2.3-3.2 5.4-7 10.4-11.5 14.8-1.9 1.8-4 3.6-6.3 5.6zm-8.4 30c.3.2.4.3.5.4 2.4.5 4.8 1 7.2 1.4.3.1.6-.1.9-.3 2.3-1.6 4.7-3.1 7-4.8 6.3-4.7 11.9-10.1 16.9-16.1.7-.9 1.4-1.8 2-2.8-.1-.2-.2-.3-.2-.5-1.3.2-2.5.6-3.8.6-3.4.1-5.8 1.6-8.1 4.3-4.7 5.6-10.5 10.1-16.7 14-1.7 1.2-3.6 2.4-5.7 3.8zm42.5 15.1c-.8 0-1.1-.1-1.5 0l-6.6 1.8c-1.5.4-3.1.8-4.2 2.1-.5.6-1.1 1.2-1.7 1.7-4.6 4.2-9.7 7.7-15.2 10.6-1.6.9-3.2 1.7-5.2 2.8.8.2 1.1.3 1.4.3 4.6 0 9.2 0 13.8-.1.5 0 1.1-.2 1.4-.4 1.3-1 2.7-1.9 3.9-3 4-3.6 7.8-7.4 10.9-11.8 1-1.2 1.9-2.5 3-4zm121.8 197.5c2-1.4 3.9-2.6 5.7-3.9.2-.2.4-.5.5-.8 1.4-5 2.2-10.1 2.4-15.3.2-6.3.3-12.5-.7-18.7-.1-.7-.3-1.3-.5-2-.6.4-1.2.6-1.7 1.1-2.2 2.1-4.2 3.9-3.5 7.7 1.4 7.7.5 15.4-.7 23.1-.4 2.8-1 5.6-1.5 8.8zm6.8-319.9c-5.9 9.5-8.1 19.7-5.4 30.6 2.1 8.3 6.7 15 13.3 20.4-8.5-16-11-33-7.9-51zM98.4 27.8v.5c.8.3 1.6.5 2.4.8 2.5.9 4.9 1.9 7.7 1.2 1.5-.4 3-.5 4.5-.7 7.2-1 14.2-3 21-5.9 1.1-.5 2.2-1.2 3.3-1.7 0-.1 0-.3.1-.4l-.6-.3c-2.6-1.3-5.2-2.7-7.9-3.8-.6-.3-1.5-.1-2.1.2-1 .4-1.9 1.2-2.9 1.7-7 3.8-14.3 6.6-22.2 7.8-1.3 0-2.3.3-3.3.6zm14.2 400.6c.1.1.1.2.2.2 2-.8 4-1.6 5.9-2.6.7-.3 1.3-.9 1.7-1.6 1.1-1.8 2.2-3.6 3.1-5.5 1.3-2.7 2.5-5.5 3.5-8.3 1-2.8 1.7-5.7 2.3-8.6.6-2.9.8-5.8 1.1-8.7 0-.3-.2-.6-.3-.8 0-.1-.4 0-.6.2-1.9 1.3-3.9 2.6-5.6 4-.7.6-1.2 1.6-1.4 2.5-.5 2.4-.6 4.8-1 7.2-1 6.3-3.3 12.1-6.4 17.6-.8 1.4-1.7 2.9-2.5 4.4zm39.6-2.6c-.3.1-.5 0-.6.1-2 1.6-3.9 3.3-5.8 5-.4.4-.7 1.2-.7 1.8-.3 5-.4 9.9-1 14.9-.3 3.2-1.2 6.3-2 9.4-.7 2.6-1.7 5.1-2.7 8 1-.4 1.8-.6 2.5-1 1.5-.7 3.2-1.1 3.7-3 1.4-4.6 3.3-9.2 4.2-13.9 1.2-6 1.7-12.2 2.4-18.3.1-1 0-2 0-3zm79 24.2c.4-.1.6 0 .7-.1 2.4-2.2 4.8-4.4 7-6.8.6-.6 1.1-1.7 1.1-2.6.5-5.6 0-11.3-.7-16.9-.1-.4-.3-1-.7-1.1-2-1-4.1-2-6.1-3-.9-.4-1.3 0-1.1.9.2 1.2.4 2.3.5 3.5.2 8 .6 16-.8 24 0 .7.1 1.4.1 2.1zM74 294.4l-.3-.3c-2 .6-4 1.3-6.1 1.7-1.5.3-2.4 1.3-3.2 2.5-.6.9-1.3 1.8-2 2.6-4.9 5.6-10.5 10.4-16.5 14.7-.7.5-1.5 1-2.3 1.5 0 .1.1.2.1.4.4.1.8.2 1.2.2 3.2-.2 6.3-.6 9.5-.7 2.2-.1 3.5-1.2 4.7-2.7 3.6-4.3 7.3-8.6 10.7-13.1 1.6-2.1 2.8-4.5 4.2-6.8zm73 12.4c.6.1 1.1.2 1.5.1 1.8-.2 3.7-.7 5.5-.6 2.8.1 4.8-1.2 6.5-3.1 4.6-4.8 6.7-10.9 8.2-17.2.1-.3-.1-.7-.1-1.1-1.5 1.1-2.8 2.4-4.3 3-2.4 1.1-5.1 1.7-7.6 2.7-.5.2-1.1.7-1.2 1.1-1 3.5-2.5 6.7-4.6 9.7-1.2 1.8-2.4 3.5-3.9 5.4zm-34.6-274v.3c1.5.6 3 1.2 4.6 1.7 1.9.6 3.8 1.5 5.7 1.5 6.2-.2 12.5-.7 18.6-2.2 3.5-.9 7-2.1 10.4-3.3.3-.1.5-.5.6-.7 0-.2-.3-.6-.5-.7-1.7-1.1-3.5-2.1-5.3-3.1-.9-.5-1.8-.6-2.8-.2-4.6 1.5-9.2 2.9-13.8 4.2-5.2 1.5-10.6 2-16 2.2-.6.1-1.1.3-1.5.3zm28.5 402.8c-.3 0-.5 0-.6.1-1.9 1.6-3.8 3.2-5.7 5-.4.4-.5 1.1-.5 1.7-.2 3.8-.2 7.6-.7 11.3-.4 2.9-1.2 5.7-2.1 8.5-.6 1.8-1.6 3.5-2.4 5.3-.1.3-.1.7-.1 1 0 .1.4.2.6.1 1.7-.5 3.4-.9 4.9-1.6.9-.4 1.8-1.2 2.1-2.1 1.3-3.8 2.6-7.6 3.4-11.5 1.1-5.3 1.3-10.7 1.2-16.1.1-.6 0-1.1-.1-1.7zM90.1 66.2c-.1-.2-.2-.3-.3-.5-.3 0-.6.1-.9.1-2.7.2-5.4.5-8.1.5-1.1 0-1.8 0-2.6.8-5.8 5.9-12.5 10.7-19.8 14.6-1.6.8-3.1 1.7-4.7 2.5v.5c2.1.2 4.1.4 6.2.7h.1c3.7-1.8 7.7-3.2 11.2-5.3 5-3.1 9.7-6.6 14.4-10 1.6-1.3 3-2.6 4.5-3.9zM3.7 281.5c.3.2.6.4.9.5 1.6.4 3.2.9 4.8 1.1 1.1.1 2.5.2 3.4-.3 7.5-4.7 14-10.6 19.6-17.5.3-.3.4-.8.7-1.4-.9.1-1.4 0-2 .1-2.4.4-4.8.7-7.1 1.2-.8.2-1.5.7-2.1 1.2-3.2 2.9-6.2 6-9.5 8.7-2.7 2.3-5.7 4.2-8.7 6.4zm131.6 7.7c-.6-.2-1-.3-1.3-.3-1.5-.3-3.1-.5-4.6-1-1.2-.5-1.6 0-2.1.8-1.1 1.8-2.1 3.5-3.2 5.3-3.3 5.2-7.3 9.9-11.7 14.2-.2.2-.5.5-.7.8.1.1.1.3.2.4.9-.2 1.7-.4 2.6-.6 2.9-.5 5.8-1 8.6-1.6.8-.2 1.8-.8 2.3-1.5 2-2.8 3.9-5.6 5.7-8.5 1.4-2.6 2.7-5.2 4.2-8zM38.7 45.3c.3.1.4.3.6.3 2.5.3 5.1.5 7.6.8.3 0 .7 0 1-.1 1.3-.5 2.6-1 3.8-1.6C58.5 41 64.3 36 69.3 30.1c.8-.9 1.5-1.8 2.4-2.8-1-.3-1.7-.5-2.4-.7-2.2-.6-4.5-1.3-6.1 1.2-.2.3-.4.5-.7.7-5.1 5.2-10.9 9.7-17.2 13.3-2 1.3-4.2 2.3-6.6 3.5zm138.7 419.3c-1.5 1.4-2.7 2.5-3.8 3.8-.4.5-.6 1.3-.6 2 .1 1.9.4 3.8.5 5.6.2 5.3-.2 10.5-1.4 15.7-.6 2.6-1.3 5.1-1.9 7.7-.1.3-.1.9.1 1 .2.2.7.1 1 0 1.6-.7 3.2-1.5 4.7-2.4.4-.2.7-.8.8-1.2.3-1.5.6-3.1.8-4.6 1.1-7.3 1.2-14.7.7-22.1-.2-1.7-.6-3.4-.9-5.5zM129 39.2c0 .2-.1.3-.1.5.8.3 1.6.6 2.3.9 4 2 8.3 2.6 12.7 2.7 3.6.1 7.3.1 10.9-.1 3.5-.1 6.8-1.1 10-2.6 1-.5 1.1-1 .3-1.8-1.1-.9-2.1-1.8-3.2-2.6-1-.7-2-1.5-3.5-1-2.5.8-5 1.6-7.5 2.1-6.5 1.3-13.1 2.1-19.8 1.8-.8 0-1.5.1-2.1.1zm-23.8 60.5v.4c1.2.3 2.4.6 3.7.9 2.4.6 4.5-.6 6.7-1.4 5.6-2 10.8-4.9 15.5-8.5 3.3-2.5 6.5-5.1 8.7-8.7.3-.5.5-1 .9-1.8-.6.2-.9.2-1.2.4-3.1 2.2-6.3 3.7-10.2 4-.5 0-1.1.4-1.5.7-5.2 4.7-11 8.3-17.2 11.4-1.7.9-3.6 1.7-5.4 2.6zm52.6 230.1c-2.4 6.4-5.3 12.5-8.7 18.3-3.5 5.9-7.6 11.2-12.5 16.4.8 0 1.2.1 1.5 0 2.2-.9 4.5-1.7 6.7-2.7.9-.4 1.9-1.1 2.5-1.9 4.3-5.4 7.6-11.5 10.8-17.6.7-1.3.8-2.6.6-4-.3-2.3-.5-4.6-.7-6.9 0-.5-.1-1-.2-1.6zm21.6 61.1c.6-.3 1-.4 1.2-.6 2.2-1.6 4.3-3.2 6.6-4.7 1.6-1 2.1-2.5 2.5-4.1.1-.5.1-.9.2-1.4 1.2-4.3 1.5-8.7 1.6-13.2 0-1-.4-1.5-1.5-1.4-1 0-2.1 0-3.1-.2-2.3-.3-2.2-.4-2.3 1.9-.4 5.6-1.2 11.1-2.9 16.4-.6 2.4-1.4 4.6-2.3 7.3zM126.7 80.5c-.1-.1-.2-.2-.2-.3-.2.1-.4.1-.6.2-2.3.6-4.6 1.7-6.8 1.7-3.1 0-5.6.7-7.7 3l-.3.3c-5.2 4.5-11 8-17.5 10.4-.8.3-1.6.5-2.4.7v.4c2.1.6 4.2 1.9 6.5 1 3.2-1.2 6.6-2.2 9.6-3.8 3.9-2 7.6-4.4 11.2-6.9 2.8-2.1 5.5-4.5 8.2-6.7zm-22.8-10.1c-.1-.1-.1-.2-.2-.3-.3 0-.7-.1-1 0-3.1.2-6.1.4-9.2.7-.5 0-1.1.3-1.5.6-1.9 1.7-3.8 3.5-5.7 5.1-4 3.3-8.4 6.2-13.2 8.3-1.4.6-2.9 1.3-4.4 1.9 1.6 1.3 4.4 1.9 6.1 1.1 3.7-1.6 7.4-3.2 10.8-5.2 5.4-3.2 10.5-6.8 15.7-10.2.9-.6 1.7-1.3 2.6-2zm14.8 31.9c.7.2 1.2.4 1.7.4 3.7.4 7.4-.2 10.9-1.3 7.4-2.3 13.5-6.6 19.1-11.7 1.3-1.2 2.4-2.6 3.9-4.1h-1.1c-2.6.7-5.1 1.6-7.7 1.9-1.8.2-3 .7-4.2 2-4.4 4.5-9.9 7.2-15.5 9.8-2.2 1.2-4.5 2-7.1 3zm49.9 371.5c-.2-.1-.4-.1-.6-.2-.8.9-1.6 1.8-2.5 2.6-1.5 1.4-2.4 2.8-2 5.2.8 6.2 0 12.3-1.7 18.3-.3 1.2-.8 2.4-1.2 3.6-.1.3 0 .7.1 1 .3-.1.6-.1.9-.2.9-.3 1.7-.8 2.6-1 1.7-.4 2.5-1.4 2.9-3.2 1.8-7.5 2.3-15 1.9-22.7 0-1-.2-2.2-.4-3.4zM114.1 76.4c-3.3.2-6.2.4-9.1.5-1.1 0-1.9.1-2.7.9-1.1 1.1-2.3 2.2-3.6 3.2-5 3.6-10.2 6.9-16.1 8.8-.9.3-1.7.6-2.5.9 0 .2 0 .4-.1.6 1.6.5 3.4 1.6 4.8 1.3 3.5-.9 6.9-2.3 10.2-3.8 5.7-2.6 11.1-5.8 16.1-9.8 1-.8 2-1.7 3-2.6zm-35 282.3c-.6.2-1 .2-1.4.4-3.3 1.3-6.6 2.6-9.9 4-2.9 1.2-5.8 2.3-8.7 3.5-1 .4-1.3 1.2-.9 2.2.9 2.8 2.6 4.7 5.4 5.9 1.1.5 1.8.3 2.6-.4 4.9-4.3 9.3-9.1 12.8-14.6 0-.3 0-.5.1-1zm190.6-189.1c-.5.5-.9.8-1.1 1.2-2.2 5.3-5 10.2-8.7 14.5-3.6 4.2-6.2 9-8.3 14.1-.3.7-.3 1.4-.5 2.1.1.1.2.1.3.2 1-1.1 1.9-2.2 2.9-3.2 3-2.9 6-5.6 9-8.5 2.1-2 3.8-4.2 4.8-6.9 1.6-4.4 1.6-8.8 1.6-13.5zM105.5 410.2c-.5 0-.8 0-1 .1l-5.4 3.9c-.3.2-.5.7-.6 1.1-.8 5.5-3.1 10.3-6.3 14.7-1.1 1.5-2.2 2.9-3.3 4.3 0 .1.1.3.1.4 1.7-.2 3.4-.3 5.1-.6.9-.2 2.2-.3 2.7-1 1.4-1.9 2.6-4 3.5-6.1 1.4-3.4 2.7-6.9 3.8-10.5.7-2 1-4.1 1.4-6.3zm-15.7-74.1c.4.1.7.2.9.2 1.5-.3 3.1-.5 4.6-.8.8-.2 1.6-.6 2.2-1.1 2.9-2.7 5.1-6 6.7-9.6.9-2 1.8-4 2.5-6 .5-1.4.2-1.6-1.2-1.4-1.9.3-3.7.6-5.6 1.1-.5.1-1.2.7-1.3 1.2-1.5 4.9-3.8 9.5-6.8 13.7-.6.7-1.3 1.7-2 2.7zM19.1 124.9v.3c.3.1.5.2.8.2 5.5.2 10.8 1.2 16.1 2.5 4.3 1.1 8.4 2.8 12 5.6.7.6 1.8.9 2.7.9 2.2.1 4.4-.1 6.5-.2.3 0 .6-.2 1.4-.4-1.2-1-2-1.9-2.9-2.6-5.3-4.1-11.5-5.8-18-6.4-5.6-.6-11.4-.2-17-.2-.5 0-1.1.2-1.6.3zm111 319.6c-1.7 1.4-3.2 2.7-4.7 4.1-.5.5-.9 1.4-.9 2.2-.2 6.4-1.1 12.5-4.6 18.1-.4.6-.2 1.1.5 1 1.5-.1 3-.2 4.5-.5.5-.1 1-.7 1.3-1.2.7-1.3 1.2-2.7 1.7-4.2 1.9-6 2.7-12.2 2.5-18.5 0-.2-.2-.4-.3-1zm-9.3 8.9c-.2 0-.4-.1-.6-.1-.2.1-.4.2-.6.4L107 464.5c-.9.7-.8 1.4-.1 2.1 2.4 2.7 5.7 3.3 9 3.4.5 0 1.2-.6 1.4-1.1 1.1-2.8 2.2-5.6 2.9-8.6.6-2.2.4-4.6.6-6.9zm4.2-274c-.1-.1-.2-.3-.4-.4-1.3.6-2.7 1.2-4 1.8-1.6.8-3.1 1.8-4.2 3.4-4.8 7-10.9 12.8-17.9 17.6-1.9 1.3-3.9 2.5-5.9 3.8.1.1.1.2.2.3 4.8-.6 8.9-3 12.7-5.7 7.9-5.5 14.4-12.5 19.5-20.8zm84.2 238.8c.2.1.4.1.6.2 1.9-2.1 3.6-4.2 5.7-6.1 1.4-1.3 2-2.8 2.2-4.6.1-1.2.3-2.4.3-3.5.3-6.9.1-13.7-2.1-20.4-.1-.4-.6-.8-.9-1.1 0 6.2-.5 12.2-1.3 18.2-.8 5.9-2.4 11.7-4.5 17.3zM288.4 100c0 .2 0 .5-.1.7 1.4.5 2.7 1.1 4.1 1.5 3.8 1 7.7 2.3 11.6 2.8 10.3 1.2 19.7-1.3 27.8-8 .4-.4.8-.8 1.2-1.3-.1-.1-.1-.2-.2-.3-14.2 6.8-29.1 7.9-44.4 4.6zm-179.2 83.5c-2 .6-3.8 1.1-5.6 1.7-1.4.4-2.8.9-3.8 2.2-2.6 3.2-5.3 6.4-8.2 9.3-3.4 3.3-7.2 6.3-11.5 8.5-1.2.6-2.4 1.3-3.8 2 5.3 2.1 30.6-16.2 32.9-23.7zm52.2-172.2c-.2.6-.3.7-.2.8.3.6.6 1.1.9 1.8 1.9 4.5 3.5 9 4.2 13.8.1.8.6 1.8 1.2 2.3 1.7 1.4 3.5 2.7 5.3 4 .8.6 1.5.5 1.5-.6 0-1.8.2-3.8-.4-5.5-1.7-5.1-4.3-9.8-8.4-13.4-1.1-1.2-2.6-2.1-4.1-3.2zM105.8 333c.1.1.2.3.2.4l5.4-1.2c.3-.1.6-.4.9-.7 4.2-4.6 6.4-10.2 8.2-16 .3-1-.1-1.4-1.1-1.1-1.7.4-3.3.7-5 1.2-.5.2-1.1.8-1.3 1.3-1.6 5.3-3.9 10.3-6.9 14.9-.1.3-.3.8-.4 1.2zM176 180.9c-4.7 5.5-5.6 11.9-4.9 18.7.5 4.8 6.2 16.2 8.5 16.8-4-11.6-5.7-23.3-3.6-35.5zm-17.2 302.4c-1.6 1.5-3 2.8-4.3 4.2-.3.3-.3.9-.3 1.3.7 4.9-.1 9.6-1.7 14.2-.4 1.2-.9 2.4-1.3 3.7.1.1.1.3.2.4 2-.6 4.1-1.1 6.1-1.8.3-.1.5-.8.6-1.2 1.4-5.8 2-11.8 1.4-17.8-.2-.9-.5-1.9-.7-3zm34.7-297.9c-3.1 7.7-4.3 15.5-1.5 23.5 1.4 4.2 3.8 7.8 7.3 10.7-4-11.1-5.2-22.6-5.8-34.2zM84.1 30.5c-1.2-.4-2.2-.7-3.1-1.1-1.4-.6-2.3-.1-3.3 1-1.7 1.9-3.5 3.8-5.5 5.6-3.4 3-6.9 5.8-10.3 8.6-.5.4-1.1.8-1.7 1.2.1.1.1.2.2.3 1.3-.1 2.7 0 4-.2 1.5-.3 3-.6 4.2-1.3 5.9-3.8 10.8-8.6 15.5-14.1zm-56.3 84.6c.1.2.3.4.4.6 2 0 3.9.4 5.6-1.3 5.9-5.7 10.6-12.2 14.2-19.5 1.3-2.7 2.3-2.9-1.8-2.9-1 0-1.6.3-2 1.2-2.5 6.2-6.3 11.6-10.8 16.5-1.8 1.9-3.8 3.6-5.6 5.4zm17.3 6.6c0 .1-.1.3-.1.4.7.2 1.5.6 2.2.7 2.4.6 4.9 1 7.3 1.7 4.3 1.3 8.3 3.3 11 7.1 1.4 1.9 3 2.5 5.2 2.4h5.2c-2.4-4.2-5.8-6.9-9.7-8.6-4.7-2.1-9.6-3.3-14.8-3.5-2.2 0-4.3-.1-6.3-.2zM94.4 418c-.6.2-.8.2-.9.3-4.7 3.4-9.3 6.8-14 10.2-.9.6-.7 1.4-.2 2.1 1.3 1.7 2.9 2.9 5.1 3.4.9.2 1.6.3 2.1-.6 1.9-3.1 3.9-6.1 5.7-9.3.9-1.7 1.4-3.8 2.2-6.1zm-83-300.2c.1.1.1.3.2.4 1.2-.1 2.4.1 3.5-.8 6.4-5.5 11.5-12.1 15.7-19.3.7-1.2 1.2-2.4 1.9-4-2 .3-3.6.5-5.1.9-.5.1-.9.9-1.3 1.4-.2.3-.3.8-.4 1.2-2.5 5.6-5.9 10.6-10 15.2-1.6 1.6-3 3.3-4.5 5zm87 166.2l.3.3c1-.1 2-.1 3-.3 5.2-.8 10.4-1.6 15.6-2.5.4-.1 1-.3 1-.5.1-.4-.2-.9-.4-1.2-1-1.6-2.1-3-3-4.6-.7-1.2-1.2-2.5-2-4.1-4.2 5.4-9.1 9.4-14.5 12.9zm31.7-210.4c2.4.8 4.7 1.1 7.1.2 5-1.7 10-3.6 14.5-6.3 2.5-1.5 4.8-3.3 7.3-4.9-2.2-2.3-4.2-3.2-6.4-1.3-4.8 4.2-10.2 7.5-16.2 9.9-2 .8-4.2 1.6-6.3 2.4zm38.1 107.5c-4.2 4.7-6 10.2-5.2 16.3.6 5.3 3 9.8 6.7 13.7-2-10-3.2-19.9-1.5-30zM136 311.8c.1-1-.5-1.2-1.2-1-2.4.6-4.9 1.2-7.3 1.9-.5.1-1 .8-1.1 1.3-.8 4.1-2.6 7.8-4.8 11.3-.2.3-.1.7-.2 1 .4 0 .7.1 1.1 0 3.4-1.4 6.5-3.2 9.1-5.9 2.3-2.5 3.7-5.4 4.4-8.6zm8-308.4c.3.7.5 1.1.6 1.4.7 1.2 1.5 2.3 1.9 3.6 1.2 3.2 2.2 6.5 3.4 9.8.2.6.7 1.2 1.2 1.6 1.5 1 3.2 1.9 4.8 2.8.3.2.7.2 1.1.4 0-.4.1-.8.1-1.2-.8-4.2-2.2-8.1-4.2-11.8-.7-1.4-1.6-2.8-2.8-3.7-1.7-1.3-3.8-1.9-6.1-2.9zm-18 384.9c0-.2-.1-.4-.1-.7-1.6 0-3.2-.3-4.8-.1-3.8.5-7.5 1.2-11.2 2-2 .4-4.1 1-5.9 2-1.9 1-3.4 2.7-5.1 4-.2.1-.2.4-.4.8.4 0 .6 0 .7-.1 6.1-2.6 12.4-3.6 19-3.3.9 0 1.9-.3 2.6-.7 1.3-.7 2.4-1.7 3.6-2.6.6-.3 1.1-.8 1.6-1.3zM44.3 114.5c1.4.7 3.3.5 4.6-.7 6.1-5.6 10.8-12.2 14.6-19.5.7-1.3.5-1.6-.9-2-.6-.2-1.2-.3-1.8-.2-.4.1-1 .4-1.1.8-2.2 5.6-5.5 10.5-9.4 15.1-1.9 2.2-4 4.4-6 6.5zm67.1-49.2c0 .2 0 .3-.1.5 1.1.5 1.8 2.1 3.3 1.5 8.6-3.3 16.3-7.9 23.2-14.1.9-.8.8-1.5-.3-1.8-.7-.2-1.6 0-2.2.3-2.8 1.9-5.4 4.1-8.4 5.9-3.9 2.3-7.9 4.2-11.9 6.2-1.1.7-2.4 1-3.6 1.5zm-6.4-5.5c1.3.9 1.5 2.5 3.1 2 .8-.2 1.5-.5 2.2-.9 3.7-2.1 7.6-4.1 11.2-6.4 2.6-1.6 4.9-3.7 7.3-5.6.3-.2.4-1.2.2-1.3-1.6-1.1-2.3-1.1-4 .1-.3.2-.6.4-.9.7-4.8 3.8-10.1 7-15.6 9.7-1.1.4-2.1 1-3.5 1.7zM77 45.5c1.9.3 3.8 1.2 5.7-.2 2.5-1.8 5.3-3.4 7.7-5.3 2-1.6 3.8-3.4 6.1-5.5-2-.7-3.6-1.2-5.2-1.7-.3-.1-.8.3-1.1.5-4.1 4.4-8.2 8.6-13.2 12.2zm41.9 24.9c2.1 1.8 4.1.9 5.8.3 3.6-1.4 7.1-3 10.6-4.7 4.4-2.3 8.3-5.3 11.8-8.7.2-.2.3-.6.2-.8-.4-.7-1.8-1-2.5-.5-1.9 1.4-3.8 2.9-5.8 4.3-4.8 3.4-9.8 6.3-15.2 8.4-1.6.4-3.1 1-4.9 1.7zm.7-26.5c0-.2-.1-.3-.1-.5-1-.4-2-.7-3-1.2-.9-.5-1.6-.2-2.2.4-1.1 1-2.2 2.1-3.4 3-3.5 2.4-7.1 4.7-10.6 7.1-.3.2-.8.7-.8 1 .1 1 2.4 2 3.3 1.5 3-1.8 6.1-3.4 9-5.4 2.7-1.8 5.2-3.9 7.8-5.9zm-30 3.9c1.3.6 2.3.9 3.2 1.4.9.6 1.6.5 2.5-.1 4.2-2.4 8-5.4 11.5-8.7 1.6-1.5 1.5-1.6-.4-2.2-.4-.2-.9-.4-1.3-.6-.9-.4-1.6-.1-2.4.5-3.2 2.6-6.5 5.1-9.9 7.6-1 .8-2 1.3-3.2 2.1zM116 382.1c.1.2.1.4.2.5 1-.3 1.9-.6 2.9-.8 5.6-1.2 11.2-2 16.9-1.5.6 0 1.2-.2 1.7-.5 1.1-.6 2-1.4 3-2.1.2-.2.5-.5.5-.6-.1-.2-.4-.5-.7-.6-1.1-.1-2.3-.4-3.4-.3-4.4.4-8.8.9-13.3 1.5-3 .5-5.1 2.9-7.8 4.4zM59.3 115c.1.1.1.3.2.4 1.2-.2 2.7.1 3.4-.5 5.2-4.3 9.3-9.5 12.8-15.3.2-.3-.1-1.1-.4-1.4-.5-.4-1.2-.6-1.8-.8-.3-.1-.8.2-1 .5-3.3 5.9-7.4 11.2-12.4 15.8-.3.4-.5.8-.8 1.3zm92.8 244.1c.9-.3 1.4-.6 2-.8l11.1-4.2c.8-.3.9-.9.4-1.5-1.6-2.2-3.2-4.4-4.8-6.7-2.8 4.2-5.7 8.5-8.7 13.2zm-4 110l.3.3c.4-.2.7-.4 1.1-.6 4.9-3.1 10.4-4.4 16.1-4.4 2.2 0 3.4-1.1 4.4-2.7.1-.2-.2-1-.3-1-1.3-.2-2.8-.6-4.1-.5-4.9.7-9.6 2.2-13.9 4.6-1.7.9-2.8 2.6-3.6 4.3zM123 433.3c.4.1.5.1.5.1 4.8-1.9 9.7-2.7 14.8-2.6.3 0 .8-.1 1-.4 1.2-1.1 2.5-2.2 3.6-3.4.7-.7.4-1.3-.5-1.3-1.3-.1-2.6-.2-3.8.1-3.1.7-6.1 1.4-9.2 2.3-2.6 1-4.4 3.1-6.4 5.2zm71.6-53.9c.2.1.3.2.5.3 2.2-1.7 4.4-3.5 6.6-5.3.3-.2.2-.9.3-1.3.2-2.3.3-4.5.5-6.8.1-1-.1-1.5-1.2-1.3-.9.1-1.9.3-2.8.4-1 0-1.4.5-1.4 1.5-.2 3.9-1.1 7.6-2.3 11.3-.2.4-.2.8-.2 1.2zm-79.5-269.1c-.4-.2-.7-.4-1-.5-.6-.1-1.2 0-1.8-.1-1.1-.2-1.8.1-2.4 1.1-1.1 1.6-2.2 3.2-3.5 4.6-2.1 2.3-4.4 4.5-6.5 6.7-.3.3-.6 1.1-.5 1.4.5.8 2.5.9 3.3.3 4.4-3.8 8.4-8 11.9-12.7.1-.2.2-.4.5-.8zm42.8 255.8c-.1-.2-.1-.4-.2-.5-8.2.6-16.4 1.4-23.9 5.3.6.2 1.2.2 1.8.1.5-.1 1-.3 1.5-.3 4.3-.1 8.5-.1 12.8-.1.4 0 .9.1 1.2-.1 2.3-1.5 4.6-2.9 6.8-4.4zm-70-262.3c-2.2-1.8-2.8-1.7-4.2.3-2.3 3-4.7 5.9-7.1 8.8-.8 1-1.8 1.8-2.7 2.7-.5.5-.8 1.2 0 1.3 1.4.1 2.8.6 4.2-.7 3.8-3.7 6.9-7.9 9.8-12.4zm-17.3 19.3c0 .1-.1.3-.1.4.8.4 1.5.8 2.3 1.3 3.9 2.2 7.7 4.5 9.5 8.9.1.3.7.7 1 .8 1.5.2 3 .3 4.5.4.3 0 .7-.1.8-.3.1-.2.1-.7-.1-.9-1.4-1.7-2.7-3.5-4.3-4.9-3.5-2.9-7.7-4.6-12.2-5.6-.4-.1-.9-.1-1.4-.1zm17.9-3.2c.2-.1.7-.3 1-.5 3.8-3.2 6.9-7 9.8-11 .2-.3.1-1.2-.2-1.4-1.3-1-2.8-.6-3.8.6-2.7 3.3-5.5 6.5-8.2 9.7-.4.5-.7 1-1.1 1.5l1.8.9c.2.1.4.2.7.2zM4.8 228.5c4.8 1.4 13.1-6.6 13.7-12H16c-1.2-.1-1.9.4-2.5 1.5-.9 1.7-1.8 3.4-3 4.8-1.7 1.9-3.8 3.7-5.7 5.7zm11.3-.6c1.6 0 3.2-.1 4.6-1 4-2.5 6.6-6.2 8.7-10.3.2-.3-.1-1.3-.4-1.3-1.7-.5-3.7.7-4.5 2.3-.6 1.3-1.2 2.6-2.1 3.7-1.9 2.2-4.1 4.3-6.3 6.6zm11.2-1.2c.1.2.1.4.2.5.9-.2 2.1-.1 2.8-.6 2.1-1.4 4.3-2.9 6-4.8 1.6-1.7 2.6-4 3.8-6.1.2-.3.1-1.1-.1-1.4-.7-.6-3.7.4-4.1 1.2-1.6 3.6-3.8 6.8-6.6 9.5-.7.7-1.3 1.2-2 1.7zm73 22.3c3.2-.2 5.9-.4 8.6-.7.4 0 .9-.8 1-1.3.4-2.1.7-4.2 1-6.3.1-.4-.1-.8-.1-1.3-3.6 3.2-6.9 6.2-10.5 9.6zm-62.1-22.7c.8-.1 1.1-.2 1.4-.3 2.5-.7 4.5-2.2 6.1-4.2 1.4-1.9 2.6-4 3.8-6.1.2-.4.1-1.6-.2-1.8-.9-.5-2.5.3-3 1.3-1.7 3.7-3.7 7.1-6.9 9.7-.3.3-.6.7-1.2 1.4zm62.7-90.6c-1.6-4.3-9.4-9.2-12-8.2.2.2.5.4.6.6 1.6 1.8 3.4 3.4 4.8 5.3s4.2 3.1 6.6 2.3zm-51.8 88.9c.5-.1 1 0 1.4-.2 4.2-2.2 6.9-5.7 8.2-10.2.1-.3-.1-.8-.3-.9-.8-.5-2.7.3-3.1 1.2-.6 1.5-1.2 3.1-2.1 4.5-1.2 1.9-2.7 3.6-4.1 5.6zm8.7-1.9c.1.1.1.3.2.4.5-.1 1-.1 1.4-.3 3.6-1.8 5.5-5 6.8-8.5.2-.4.3-1.2.1-1.4-.3-.3-1.1-.3-1.4-.1-.6.3-1.1.8-1.4 1.3-1.2 2.1-2.3 4.3-3.6 6.4-.6.8-1.4 1.4-2.1 2.2zm453.6 186.1c-6.3-.5-12.7-1-19-1.5-6.3-.5-12.6-1-18.9-1.3-7-.4-14-.3-21-.9-5.9-.5-11.8-1.5-17.6-2.4-2.4-.4-4.7-1-7.1-1.5-.3-.1-.5-.3-.8-.8.4-.1.9-.3 1.3-.3 7.1.1 14.1.4 21.2.3 2.7 0 5.3-.8 8-1.2.4-.1.7-.3 1.5-.6-9.9-3-19.5-5.6-28.6-9.6 0-.2.1-.4.1-.6.9.1 1.8.1 2.7.2 2.8.4 5.5 1 8.3 1.4 5.2.8 10.4 1.5 15.6 2.2 3.3.4 6.6.7 9.9 1 3.7.3 7.5.6 11.2.5 6-.1 12-.9 17.9-2.2 1-.2 1.9-.6 2.9-1v-.4c-.5-.1-1-.2-1.5-.2-7.5-.1-15.1.2-22.6-.3-7.7-.5-15.3-1.8-22.8-3.9-1.6-.4-3.1-1.1-4.6-1.7 0-.2 0-.3.1-.5.8 0 1.6 0 2.4.1 2.7.4 5.4 1 8.1 1.3 9.8 1.2 19.7 2.1 29.7 1.8 5.2-.2 10.3-.6 15.5-1.1 1.4-.1 2.7-1.1 3.9-1.9.4-.3.5-1 .8-1.5-.5-.2-1.1-.5-1.6-.5-4 0-8.1.3-12.1.2-4.8-.2-9.6-.7-14.5-1.1-1-.1-2-.6-3.1-.9v-.4c.6-.1 1.2-.2 1.9-.2 4.6-.1 9.3.1 13.9-.2 5.2-.3 10.3-.8 15.4-1.5.9-.1 2-1.4 2.5-2.4.6-1.2-.1-2.1-1.6-2-5.8.2-11.6.5-17.3.7h-2.8c0-.2 0-.4-.1-.6.3-.1.6-.4.9-.4 4.7-.9 9.3-1.7 14-2.6 1.5-.3 3-.7 4.5-1.2.3-.1.6-.4.6-.6 0-.2-.3-.6-.5-.7-4-1.4-7.9-2.9-12.3-1.9-5.4 1.2-10.8 2.3-16.3 3.3-3.8.7-7.5-.1-11-1.6-4-1.7-7.8-3.7-12.1-4.3-5-.6-9.9-.9-14.8.3-8.2 2.1-16.4 3.5-24.9 2.4-5-.6-9.9-1.5-14.9-2.3-.3 0-.8-.3-.8-.5 0-.3.2-.7.4-1 2.2-2.1 4.3-4.1 6.6-6.1.5-.4 1.3-.6 1.9-.6 3.9.3 7.7.8 11.6.9 5.4.1 10.2-1.8 14.8-4.5 3.9-2.3 7.7-4.8 12.2-5.8 5.4-1.2 10.9-1.2 16.1.9 2.7 1.1 5.2 2.7 7.8 4 4.3 2.2 8.7 2.1 13.1.4 1.2-.5 2.3-1.5 3.4-2.2 1.7-1 3.5-2 5.3-3-.9-1.6-1.3-1.7-3-1.4-2.9.6-5.8 1.4-8.8 1.6-4.5.3-8-1.7-10-5.8-.2-.3-.1-.8-.1-1.2.4.1.8.1 1.1.3 4.4 2.8 9.2 2.6 14 1.4.4-.1.9-.3 1.4-.6-1-1.9-2.4-2.7-4.3-3-2.4-.4-4.9-.9-7.3-1.7-1-.4-1.9-1.5-2.7-2.4-1.9-2.6-3.5-5.4-5.5-7.9-3.5-4.1-8-5.8-13.5-4.7-1.9.4-3.9.8-5.9.9-4.5.3-8.3-1.3-11.8-4.1-.9-.7-1.8-1.5-2.7-2.3.1-.2.1-.3.2-.5.5.1 1.1.1 1.6.2 2.3.3 4.6.9 6.9 1 1.2.1 2.5-.3 3.7-.7.3-.1.5-.7.8-1-.3-.2-.7-.5-1-.5-4.7.1-8.9-1.6-12.7-4.2-.3-.2-.4-.7-.5-1 .3-.1.7-.2 1-.2 2.7.4 5.4.9 8.1 1.3.9.1 1.5 0 1.8-1.2.2-.8 1.2-1.8 2-2 1.9-.5 3.9-.9 5.9-.7 7.7.7 14.9 3.2 21.4 7.4 3.4 2.2 7.2 3.4 11.3 4 3.8.5 7.7.7 11.5-.1 1.9-.4 3.7-1.2 5.5-1.8.5-.2.9-.5 1.1-1-4.7-.6-9.1-1.1-13.3-2.3 7.1-1.5 14.5-1.4 21.1-5v20.5c-2-.4-2.6 1.4-3.6 2.5-.7.8-.3 1.1.6 1.2 1 .1 2 .4 3 .6v4c-.8-.1-1.7-.1-2.5-.2-4.2-.8-4.2-.8-5.6 3.1 0 .1-.1.2-.1.3-.3 1 0 1.6 1.2 1.7 2.3.2 4.7.6 7 .9v4.8h-.8c-1.5-.4-3-.9-4.5-1.2-.9-.2-1.8-.2-3-.3 1.1 2.1 2.5 3.3 4.2 4.1 1.4.6 2.7 1.3 4.1 2-.1 19.4-.1 38.6-.1 57.8zM498 321.1c-3.4.1-6.9.6-10.4.3-3.4-.3-6.7-1.3-10.2-2 7 7.5 16.3 6 20.6 1.7z"/><path class="st1" d="M511.4 485.9c-3.2.4-6.4.8-9.6 1.1-7.2.6-14.4 1.4-21.6 1.7-9.3.4-18.6.6-27.9.4-14.3-.5-28.5.1-42.8-.1-11.4-.1-22.9-.4-34.3-.9-8.5-.3-17.1-.7-25.6-1.5-7.7-.7-15.3-1.8-22.9-3.1-5.4-.9-10.7-2.2-16-3.5-3.3-.7-6.5-1.6-9.8-2.5-.7-.2-1.3-.5-1.9-.8 0-.1 0-.3.1-.4.7 0 1.4-.1 2.1 0 5.4.5 10.9.9 16.3 1.5 6.9.7 13.9 1.5 20.8 2.2 5.6.6 11.2 1.3 16.8 1.8 9.3.8 18.6 1.5 27.9 2.1 4 .3 8.1.3 12.1.4 13.1.2 26.2.5 39.3.5 6.2 0 12.3-.7 18.5-1 8.2-.5 16.5-1 24.7-1.3 10.6-.4 21.2-.5 31.7-.8.7 0 1.3.1 2 .1.1 1.5.1 2.8.1 4.1zm0-15.6c-8.3.1-16.5 0-24.8.3-12.7.5-25.4 1.6-38.1 1.8-16.2.3-32.5.2-48.7 0-10.4-.2-20.9-.7-31.3-1.4-9.3-.6-18.6-1.5-27.9-2.4-3.8-.4-7.6-1.4-11.4-2.1-3.2-.6-6.4-1.2-9.6-1.9-3.6-.8-7.2-1.8-10.7-2.7-3.8-1-7.5-1.9-11.3-2.9-1.1-.3-2.1-.7-3.2-1v-.4c.7 0 1.5-.1 2.2 0 2.6.3 5.3.7 7.9 1.1 3.6.5 7.1.9 10.7 1.3 6.4.7 12.8 1.5 19.2 2.2 5.1.5 10.3.9 15.4 1.3l21.3 1.5c8.1.5 16.2 1 24.3 1.6 7.2.6 14.4 1.3 21.5 2.2 8 1 16 .9 24 .7 13.4-.3 26.8-.7 40.3-1.3 2.8-.1 5.5-.8 8.3-1.1 6.9-.8 13.7-1.5 20.6-2.3.4 0 .8.1 1.3.1v5.4zm0-467.7c-4 7.4-10.1 12.5-17.5 16.2-9.2 4.7-19.1 5.6-29.2 4.7-7.5-.7-14.2-3.7-20.2-8.3-4.7-3.6-8.5-7.9-12-12.6-.2-.3-.4-.8-.5-1.1h3.1c5.5 5.7 12.1 9.9 19.3 13.2.2.1.5 0 1.2-.1-4.7-3.9-8.2-8.4-11.3-13.2h3.7c3.5 2.9 7.2 5.6 11.4 7.4 3.1 1.3 6.3 2.3 9.4 3.3.4.1 1-.1 1.5-.1-1.8-1.2-3.6-2.1-5.3-3.2-3.4-2-6.5-4.4-9-7.5h4.3c.9.5 1.9 1.1 2.8 1.6 4.7 2.6 9.6 4.5 14.9 5.1 9.3 1 17.8-1.5 25.5-6.7h8c-.1.6-.1 1-.1 1.3z"/><path class="st1" d="M511.4 478c-3.1.3-6.2.6-9.3.8-8.8.5-17.5 1.2-26.3 1.5-10.7.3-21.4.5-32.2.5-7.3 0-14.6-.7-21.9-.9-6.7-.2-13.4-.1-20.1-.2-8.8-.1-17.7-.3-26.5-.6-9.2-.3-18.4-.7-27.6-1.5-7.2-.6-14.4-1.9-21.5-3-4.1-.7-8.2-1.6-12.2-2.5-5.3-1.2-10.6-2.5-15.9-3.8-.3-.1-.6-.3-.8-.7.5-.1 1-.2 1.5-.2 7.1.5 14.3 1 21.4 1.6 7.5.7 14.9 1.7 22.3 2.5s14.9 1.7 22.3 2.5c18.4 2 36.8 2.4 55.3 2.4 6.7 0 13.4.2 20.1.1 8.5-.2 17.1-.6 25.6-.9 6.4-.3 12.9-.6 19.3-.9 8.1-.3 16.1-.7 24.2-1h2.1c.2 1.4.2 2.8.2 4.3zm0 27c-1.6.1-3.1.3-4.7.4-15.7 1.2-31.5 2-47.2 1.5-13.2-.5-26.4-.7-39.6-.6-8.6.1-17.2.1-25.8-.2-9.5-.3-18.9-1-28.4-1.5-6-.3-11.9-.6-17.9-1-5.4-.4-10.9-.8-16.3-1.6-4.1-.6-8.1-1.9-12.1-2.9-3.4-.9-6.9-1.7-10.3-2.6-1.2-.3-2.3-.7-3.5-1v-.4c.5-.1 1-.3 1.5-.3 6.6.5 13.1 1 19.7 1.5 3.1.3 6.1.6 9.2.9 2.6.3 5.2.7 7.9 1 7.9.8 15.8 1.9 23.7 2.4 21.6 1.5 43.3 1.8 65 1.8 9.2 0 18.4-.4 27.6-.6l49.9-1.2c.4 0 .8 0 1.1.1.2 1.5.2 2.9.2 4.3zm0-8.8c-2.5.2-5 .4-7.5.5-8.1.3-16.1.8-24.2.9-6.7.1-13.4 0-20.1 0-21.1-.1-42.2-.1-63.3-.4-9.7-.1-19.3-.9-29-1.4-7.9-.4-15.8-.6-23.7-1.1-5.2-.4-10.4-1.2-15.6-2.1-4.3-.7-8.5-1.7-12.8-2.7-3.8-.9-7.6-1.9-11.4-2.9-.4-.1-.9-.3-1.3-.8.5-.1.9-.2 1.4-.2a36337170664697256 36337170664697256 0 0 0 44.1 4.3c5.4.6 10.7 1.4 16.1 1.7 13.2.7 26.3 1.2 39.5 1.5 12.7.3 25.3.5 38 .5 4.3 0 8.5-.6 12.8-.8 5.6-.3 11.3-.7 16.9-.8 12.7-.3 25.3-.5 38-.7h2.1v4.5zm0-35c-3.7-.3-7.3-.6-11-.9-1.7-.1-3.4-.2-5.1-.1-5 .2-10 .6-15.1.7l-62.5.9c-3.4 0-6.8 0-10.2-.1-6.9-.3-13.8-.7-20.8-.9-2.8-.1-5.6.6-8.5.7-4 .2-8.1.4-12.1.3-5.3-.2-10.6-.5-15.9-1-5.8-.6-11.6-1.3-17.4-2.1-4.1-.6-8.2-1.2-12.2-2s-8-1.8-12-2.9c-3.5-.9-6.9-1.9-10.4-2.8-2-.6-4-1.1-6-1.7-.3-.1-.5-.3-1-.7.5-.1.7-.2 1-.2l15.6 1.2c5.9.5 11.7 1.1 17.6 1.6 7.6.7 15.3 1.5 22.9 2.2 3.7.3 7.5.5 11.2 1.1 3.4.6 6.8 1.7 10.2 2.4 2.6.6 5.2 1.4 7.8 1.5 5.4.1 10.7-.3 16.1-.4 3.6 0 7.2.2 10.8.2 7.5.2 15 .5 22.5.5 18.4.1 36.8.2 55.2.2 6.2 0 12.4-.2 18.6-.6 3-.2 6-.8 9-1.2.6-.1 1.1-.1 1.7-.2v4.3zM352.2 513c-.6-.1-1.1-.2-1.7-.3-5-.3-10-.4-14.9-.9-3-.3-6-1.1-9-1.8-3.5-.9-6.9-1.9-10.4-2.9-2.1-.6-4.2-1.1-6.3-1.8-.5-.1-.9-.5-1.4-.8 0-.1.1-.3.1-.4.5-.1 1-.2 1.4-.1 3.9.3 7.7.5 11.6.9 5.2.5 10.5.8 15.7 1.7 7.2 1.2 14.4 2.5 21.6 3 6.8.4 13.6.7 20.5 1 14.5.5 28.9 1.1 43.4 1.4 11.9.2 23.8.2 35.7 0 6.4-.1 12.9-.9 19.3-1.3 4.9-.3 9.9-.3 14.8-.4l16.8-.3c.7 0 1.3 0 2 .1v3.1c-53-.2-106.1-.2-159.2-.2zM271.1 1.5c-3.4 2-6.7 4-10.1 5.9-2.5 1.4-5.3 2.3-7.8 3.7-3.3 1.8-6.5 3.8-9.7 5.8-.1.1-.3.1-.8.2 1.1-2.6 2.4-4.7 4-6.9-.6-.1-.9-.3-1.3-.3-5.8 0-11.7-.1-17.5.2-3.9.2-7.3 1.9-10.7 4-4 2.4-7.8 5.2-10.3 9.2-1.8 2.8-3.3 5.9-4.9 8.8-.4.6-.7 1.3-1 2-.1 0-.3 0-.4-.1 0-.5-.2-1-.1-1.4 1.8-7.9 4.6-15.3 11.1-20.7 2.9-2.4 6.1-4 9.8-5 6.6-1.9 13.3-2.3 20-3.2 3.8-.5 7.7-1.2 11.5-1.9 6-.3 12.1-.3 18.2-.3zm141.5 0c4.5 5.9 9.9 10.9 16.3 14.6.4.3.8.7 1.2 1.1-.5.3-1 .7-1.5.7-6 .4-12 .4-17.9-1.2-9.4-2.5-17.5-7.3-24.5-14-.3-.3-.6-.7-.9-1.1h4.3c8.2 5.1 16.6 9.5 26.6 10.8-1.9-2.1-3.7-3.9-5.1-5.8-1.1-1.5-1.8-3.3-2.8-5 1.5-.1 2.9-.1 4.3-.1zm98.8 450.6c-2.2.2-4.4.5-6.6.5-13.9 0-27.9 0-41.8-.2-8.4-.1-16.8-.7-25.1-1.1-1 0-1.9-.3-2.9-.4v-.4c1-.1 1.9-.3 2.9-.3 11.5-.3 22.9-.6 34.4-1 12.4-.4 24.8-.9 37.2-1.3.7 0 1.3.1 2 .2-.1 1.3-.1 2.6-.1 4zm0-8.6c-9.8-.1-19.6-.2-29.4-.4-5.7-.1-11.4-.3-17.1-.5-.7 0-1.4-.2-2.1-.3v-.6c.8-.2 1.6-.4 2.4-.5 4.5-.3 9.1-.7 13.6-.9 10.5-.5 20.9-.8 31.4-1.2h1.3c-.1 1.6-.1 3-.1 4.4zm0-8c-10.5.2-21-.2-31.4-1.3 0-.2-.1-.4-.1-.7.7-.2 1.3-.4 2-.5 5.3-.7 10.7-1.5 16-2.1 4.5-.5 9-.7 13.4-1.1.1 1.9.1 3.8.1 5.7zm0-336.3c-.6 0-1.1.1-1.7.1-9.2-.9-18.3-1.8-27.5-2.6-3.7-.3-7.4-.4-11.1-.6-.8 0-1.6-.2-2.3-.3v-.4c.8-.1 1.6-.4 2.4-.4 8.9-.2 17.8-.4 26.8-.4 4.5 0 9 .4 13.5.7-.1 1.2-.1 2.6-.1 3.9zm0 11.7c-1.7-.1-3.3-.2-5-.3-9.1-.8-18.3-1.7-27.4-2.5-1.5-.1-3-.3-4.6-.8 12.3-1.5 24.6-1.4 37-.4v4zm0 306.1c-7.2 0-14.4-.9-21.4-2.2 0-.1-.1-.3-.1-.4.4-.2.8-.6 1.2-.7 6.8-.7 13.6-1.4 20.3-2.1v5.4zm0 9.1c-7.1-.2-14.2-.8-21.2-2.3 0-.1-.1-.3-.1-.4.4-.2.8-.6 1.3-.7 6.7-.7 13.3-1.3 20-2v5.4zm0-339.2c-9.5-.8-19.1-1.5-28.6-2.3-1.3-.1-2.5-.3-3.8-.5v-.6c.5-.1 1-.3 1.6-.3l29.3-.3c.5 0 1 .1 1.5.2v3.8zm0 92c-2.4-.2-4.7-.4-7.1-.6-4.6-.5-9.2-.9-13.9-1.4-.7-.1-1.4-.2-2-.6 7.6-.8 15.3-1.4 23-1.1v3.7zm0-104.5c-8-.6-15.9-1.2-23.9-1.9V72c.3-.1.6-.2.9-.2 7.1-.3 14.2-.5 21.3-.8.6 0 1.1.1 1.7.2v3.2zm0 152.1c-3.1-.7-6.1-1.5-9.2-2.1-1.1-.3-2.3-.3-3.5-.6-.3-.1-.5-.5-.8-.7.2-.2.5-.5.7-.5h12.7c.1 1.2.1 2.6.1 3.9zm0-103.7c-6.4-1-12.7-2-19.1-3.1v-.3c.2-.1.4-.3.7-.3 6.1.3 12.3.6 18.4.9v2.8zm0 112.5l-5.4-1.2c-2.3-.5-4.6-.9-6.9-1.4-.4-.1-.8-.5-1.2-.7.4-.2.9-.6 1.3-.6h12.2v3.9zm0-173.1c-3.3-.2-6.5-.4-9.8-.6-2.9-.2-5.8-.3-8.6-.5-.5 0-1-.1-1.4-.4 6.6-1.3 13.2-1.2 19.8-1.1v2.6zm0 107.6c-5.4-.6-10.8-1.2-16.2-1.7 0-.1-.1-.3-.1-.4.7-.2 1.5-.6 2.2-.6 4.7-.3 9.4-.4 14.1-.7v3.4zm0 29.1c-3-.5-6.1-1-9.1-1.4-1.3-.2-2.5-.2-3.8-.4-.5-.1-1.1-.2-1.6-.3v-.5c.8-.2 1.6-.6 2.5-.6 4-.2 8-.4 12.1-.5-.1 1.2-.1 2.4-.1 3.7zm0 18.5c-1.4-.3-2.8-.6-4.1-.9-2.7-.6-5.4-1.1-8-1.7-.2 0-.4-.2-.6-.3.7-1.2 9.6-1.8 12.8-.9-.1 1.3-.1 2.5-.1 3.8zm0-29.1c-4.2-.5-8.5-1-12.7-1.5-1.4-.2-2.7-.3-4.1-.5v-.4c.6-.1 1.2-.3 1.8-.3 4.4-.2 8.9-.3 13.3-.4.5 0 1.1.2 1.7.3v2.8zm0 55.8c-2.6-.6-5.1-1.3-7.7-1.9-1.2-.3-2.5-.5-3.8-.7-.5-.1-1-.3-1.5-.8 4.3-.8 8.6-.8 12.9-.6.1 1.4.1 2.7.1 4zm0 8.9l-6.3-1.5c-1.6-.4-3.2-.6-4.9-1-.6-.1-1.2-.4-1.7-.9 4.3-.6 8.6-.9 12.9-.3v3.7zm0 8.5c-1.8-.4-3.7-.7-5.5-1.1-2.1-.4-4.1-.9-6.2-1.4-.3-.1-.5-.2-.9-.4.3-.2.5-.4.7-.4l11.2-.3c.3 0 .5.2.8.3-.1 1-.1 2.2-.1 3.3zm0-53.2c-2.9-.6-5.8-1.3-8.7-1.9-1-.2-2.1-.4-3.2-.9 3.9-1.3 7.9-1.1 11.8-.9.1 1.2.1 2.4.1 3.7zm0 62.1c-3.9-.9-7.8-1.8-11.7-2.8v-.5c3.8-.6 7.7-.5 11.6-.4.1 1.2.1 2.4.1 3.7zm0 8.8c-3.6-.9-7.2-1.8-10.9-2.7v-.5c3.6-.6 7.2-.8 10.8-.5.1 1.2.1 2.4.1 3.7zm0-229c-4.6-.2-9.2-.4-13.7-.7-.3 0-.7-.2-1-.3v-.5c.8-.2 1.6-.5 2.4-.5 4.1-.2 8.2-.2 12.3-.3v2.3zm0 237.5c-3.4-.8-6.9-1.6-10.3-2.3v-.4c3.4-.8 6.9-.7 10.3-.6v3.3zm0 8.3c-2.6-.6-5.3-1.1-7.9-1.7v-.4c2.6-.9 5.2-.9 7.9-.5v2.6zm0 8.5c-2.4-.4-4.9-.9-7.3-1.3 0-.3 0-.5.1-.8 2.4-.3 4.8-.5 7.2-.1v2.2zm0-144.7c-1.8-.1-3.5-.3-5.3-.4v-.4c1.7-.4 3.5-.7 5.3-.3v1.1zm-40.3 41.9c-.4.1-.9.2-1.3.2-4.9.1-9.9.1-14.8.2-2.4 0-4.5.8-6 2.7-.3.3-.5.9-.4 1.2.1.3.7.6 1.1.6 3.7.4 7.4.7 11 1.1.8.1 1.6.5 2.4.7 0 .2 0 .3-.1.5-.4.1-.8.2-1.3.3-5.9.6-11.9 1-17.8 1.7-1.2.1-2.3.8-3.4 1.3-.4.2-.7.7-1 1 .4.2.9.5 1.3.5 2.9.3 5.9.5 8.8.8 1.1.1 2.3.4 3.4.9l-.6.3c-2.9.3-5.9.5-8.8.9-5.8.7-11.7 1.5-17.5 2.1-4.7.5-9.5.6-14.2.9-.7 0-1.3-.2-2-.3v-.4c.6-.1 1.3-.4 1.9-.4 5.1-.4 9.6-2.3 14.1-4.5 3.1-1.5 6.1-3.1 9.2-4.7.5-.3 1-.8 1.4-1.2-.6-.5-1.2-1.3-1.8-1.4-2.2-.2-4.6-.6-6.8-.2-4.2.7-8.4 1.9-12.6 2.9l-7.2 1.8c-5.4 1.3-10.8.9-16.2.1-4.9-.8-9.7-2.2-14.2-4.3-2.7-1.3-5.2-3.1-7.9-4.4-1.2-.6-2.7-1-4.1-1.2-2.1-.3-4.1-.3-6.2-.5-.3 0-.7-.2-1.1-.6 1-.7 2.1-1.3 3.1-2 7.6-4.5 15.5-8.3 23.9-11.2 8.7-2.9 17.6-4.5 26.7-3.3 6.3.8 12.4 2.4 18.2 5.1 1.3.6 2.5 1.2 4 1.7-.2-.4-.4-.9-.7-1.3-5.2-7.1-12.3-11.4-20.9-13.2-3.8-.8-7.8-1.3-11.7-1.4-6.6-.2-13 1.3-19.1 3.7-5.5 2.1-10.6 4.8-15.4 8-5.8 3.9-11.1 8.4-16.1 13.3-.6.5-1.5.9-2.4.9-6.8.2-12.6-2.6-18.3-5.7-.1-.1-.2-.2-.5-.7 6.4.2 12.2-1.3 18.3-3.7-.7-.4-1.1-.7-1.6-.7-3.3-.5-6.6-.9-9.9-1.3-3-.4-6-.7-9-1.1-.4 0-.7-.3-1-.8.3-.1.6-.3 1-.4 7.8-1 15.7-1.1 23.6-.2 1.4.2 2.7.3 4.1.2.7 0 1.3-.4 1.9-.8 1.4-.9 2.7-1.8 3.9-3-9.3-1-18.5-1.9-27.7-2.6v-.6c.3-.1.6-.3 1-.3 7.2-.5 14.4-1.1 21.6-1.4 3.4-.1 6.7.2 10.1.4 1.4.1 2.7 0 4-.7 2.2-1.1 4.6-2 7.3-3.2-.8-.2-1.3-.4-1.9-.4-9.2-.2-18.4-.4-27.6-.7-.8 0-1.6-.1-2.4-.2 0-.1-.1-.3-.1-.4.9-.2 1.8-.6 2.7-.7 15.4-1.9 30.8-2.5 46.3-1.8 7 .3 13.9.8 20.9 1.2 2.1.1 4.1.5 6.2.5 1.5.1 2.1-1 1.4-2.4-.6-1.1-1.2-2.1-2.7-2.2-3.7-.2-7.5-.8-11.2-.8-13.8-.3-27.6-.4-41.4-.6h-3.9v-.5c1.2-.3 2.3-.7 3.5-.8 5.4-.7 10.7-1.5 16.1-1.8 7.2-.5 14.5-.5 21.7-.9 4.1-.2 8.2-1 12.3-1.4 5.2-.5 10.4-.2 15.4 1.1 4.7 1.3 9.5 2.7 14 4.5 4.2 1.7 8.2 4 12.2 6 2.1 1 4.3 2 6.4 3.1l1.5.9v.5c-1.7.3-3.5.5-5.2.8-.7.1-1.5.2-2.2.5-.4.1-.9.6-.9.9 0 .4.4.9.8 1 1.9.9 3.8 1.7 5.7 2.5 1.6.6 3.3 1.1 4.9 1.8.5.2.8.6 1.1 1.2h-1.7c-3.8-.2-7.7-.4-11.5-.5-2.2 0-3.4 1.3-3.2 3.1.1 1 .6 1.6 1.7 1.8 6.4.9 12.8 1.7 19.2 2.6.9.1 1.7.5 2.6.8v.5c-.4.1-.8.2-1.3.3-7.2.2-14.3.5-21.5.7-.5 0-.9.3-1.4.4.2.5.3 1 .6 1.4 1.1 1.6 2.7 2.2 4.6 2.5 3.3.5 6.5 1.4 9.8 2.1.9.2 1.8.6 2.8.9v.2zm-84.9-.1v-.5c.5-.1 1-.3 1.4-.3 1.4-.3 2.7-.8 3.5-2.2.6-1.1.4-1.7-.8-1.6-1.8.1-3.6.3-5.3.8-2.1.7-4.1 1.7-6.1 2.7-.7.3-1.2.9-.1 1.5 6.2 3.9 12.9 5.8 20.3 5.5 2.2-.1 4.4-.6 6.6-.9v-.6c-6.9.1-13.8.3-19.5-4.4zm25.8-.4c0 .9-.4 2.3 1.2 2.5 1.7.3 3.4-.3 4.8-1.4.8-.6.9-1.6.1-2.2-.9-.7-1.9-1.2-3-1.5-2.6-.6-2.9-.3-3.1 2.6zm-161.4 41.5c.8 1.1 1.5 2.1 2.3 3.2 3.5 5 7.9 9.3 12.6 13.3 2.8 2.4 5.5 5 7.3 8.3 2.5 4.5 3 9.3 2 14.3-.3 1.2-.8 2.4-1.1 3.7-.2.9-.7 1.2-1.6 1.3-3.4.1-6.7-.5-9.9-1.5-5.8-1.8-10.5-5.3-14.8-9.5-.5-.5-.8-1.1-1.1-1.4 3.6 1.3 7.3 2.7 11 4 .9.3 1.8.5 2.8.5 1.1 0 .9-.7.6-1.4-1.4-3.1-3-6.1-5.4-8.6-1.8-1.9-3.7-3.8-5.5-5.8-3.2-3.6-4.9-7.9-6.1-12.5l-.9-3c.1-.1.3-.1.4-.2 1.1 1.6 2.2 3.1 3.2 4.7 2.6 3.9 5.7 7.2 9.6 9.8 3.6 2.4 5.8 6.1 7.8 9.7.5.9 1 1.7 1.5 2.6.5.9 1.2.7 1.8.3 1.6-1.1 2.1-3.2 1.4-5.1-1.1-2.9-3.3-5-5.3-7.1-4.2-4.3-8-9-10.9-14.3-.8-1.6-1.5-3.3-2.2-4.9.2-.2.3-.3.5-.4zm16.3 128c.2 0 .4-.1.7-.1 4.5.4 8.9 1 12.9 3.4 1.5.9 3.3 1.6 5.1 2 5.9 1.3 11.8 2.5 17.7 3.5 5.4 1 10.7 1.8 16.1 2.5 8.3 1.2 16.5 2.3 24.8 3.3 7.7.9 15.5 1.7 23.2 2.5 5.8.6 11.7 1 17.6 1.6 6 .5 12 1.1 18 1.6.3 0 .6.1 1 .4-.4.1-.8.2-1.3.2-12.5.8-25 1.2-37.6.3-5.9-.4-11.8-.6-17.7-1.2-5.6-.5-11.2-1.3-16.8-2-4.3-.6-8.5-1.2-12.8-2.1-4.2-.8-8.4-1.9-12.6-2.9-3.5-.9-7-1.7-10.4-2.7-3.6-1.1-7.2-2.4-10.8-3.6-1.2-.4-2.4-.9-3.7-1.1-3.2-.3-6.1-1.7-9-2.9-1.5-.7-3-1.5-4.6-2.2.2-.3.2-.4.2-.5zm155.5 80.1c-1.6.1-3.2.3-4.8.3-10.2.1-20.3.3-30.5.3-5.6 0-11.2-.2-16.8-.6-2.7-.2-5.4-.9-8.2-1.1-2.2-.2-4.4.1-6.6.1-4.3 0-8.5.2-12.8-.2-6.1-.5-12.3-1.2-18.3-2.2-5.9-1-11.7-2.2-17.5-3.7-5.6-1.5-11.1-3.4-16.7-5.1-1-.3-1.9-.7-2.8-1.1v-.4c.4-.1.8-.2 1.2-.2 6.7.7 13.4 1.3 20.1 2.1 5.9.7 11.8 1.4 17.6 2.4 6.3 1 12.6 2.1 18.9 3.3 3.2.6 6.3 1.7 9.5 2.4 1.4.3 2.9.4 4.4.4 5.3.1 10.5 0 15.8.3 7.4.4 14.9 1 22.3 1.4 7.5.4 15.1.6 22.6.9.9 0 1.8.2 2.6.2v.5zm-17.5-70.9c-.5 0-1 .1-1.5.1-13.9.5-27.9.7-41.8-.1-9-.5-18-1.3-26.9-2.6-8.9-1.2-17.8-2.9-26.6-4.8-6.3-1.4-12.4-3.4-18.6-5.2-3.3-1-6.5-2.3-9.8-3.3-1.6-.5-3.4-.5-5-1.1-2.6-1-5.1-2.3-7.6-3.5-.2-.1-.3-.5-.7-1 3.7.6 7.2.7 10.2 2.6 2.2 1.4 4.6 2.1 7 2.7 6.3 1.4 12.6 2.8 18.9 4 4.2.8 8.5 1.3 12.8 1.9 4.5.7 9 1.4 13.5 2 3.3.5 6.7.8 10 1.2l7.5.9c9.4 1 18.9 2.1 28.3 3 5.4.5 10.8.8 16.2 1.2 4 .3 8 .6 12.1.9.7.1 1.4.3 2.1.4-.1.3-.1.5-.1.7zm-6.1 61.3c-1.4.2-2.9.5-4.3.5-9.2 0-18.3 0-27.5-.2-4.2-.1-8.3-.7-12.4-1.2-3-.4-6-1.3-9.1-1.6-3.1-.3-6.2-.1-9.4-.1-6.1 0-12.2-.8-18.2-2.1-4.8-1.1-9.7-2.2-14.5-3.6-4.3-1.3-8.6-3-12.8-4.5-2.2-.8-4.4-1.7-6.6-2.7-.6-.2-1-.6-1.5-1 .1-.2.1-.3.2-.5h1.2c3.8.5 7.5.9 11.3 1.5 5 .7 9.9 1.4 14.9 2.2 3.5.6 7.1 1.1 10.6 2.1 4.7 1.3 9.3 2.9 13.8 4.7 3.3 1.3 6.8 1.8 10.3 2 3 .2 6 0 9 .2 5.7.4 11.3.9 17 1.3 5.7.5 11.3 1 17 1.5 3.1.3 6.1.4 9.2.7.6 0 1.3.2 1.9.3-.1.1-.1.3-.1.5zM270.2 382c.4 0 .7-.2 1.1-.1 4.9.6 9.9.9 14.5 3.3.3.2.6.2.9.4 3.4 2.6 7.6 2.9 11.5 3.6 5.9 1.1 11.8 1.9 17.7 2.9 2.2.3 4.3.7 6.5 1 6 .8 11.9 1.7 17.9 2.4 6.5.8 13.1 1.4 19.7 2 8 .8 16 1.5 24.1 2.2 6.3.5 12.6.7 18.9 1.1 1.3.1 2.7.2 4 .3v.6c-.9.2-1.8.4-2.8.4-3.7.1-7.4.2-11.1.2-9.3 0-18.6.1-27.9-.3-7.9-.3-15.7-1.2-23.5-2.1-6.1-.7-12.1-1.6-18.1-2.8-6.9-1.4-13.7-2.9-20.4-4.8-6-1.8-11.9-3.3-18.1-3.8-3.9-.3-7.3-2.3-10.8-3.8-1.4-.6-2.7-1.4-4.1-2.1-.1-.3 0-.5 0-.6zm124 48.4c-1.8.2-3.7.5-5.5.5-8.8.1-17.6.3-26.3 0-7.2-.3-14.3-1.3-21.5-2.2-4.1-.5-8-1.7-12.1-2.4-2.4-.4-4.8-.2-7.2-.3-2.8-.2-5.6-.2-8.3-.7-8.4-1.5-16.5-3.9-24.4-7-3.4-1.4-6.7-2.9-10-4.3-.3-.1-.5-.4-1.1-.9.7-.1 1.1-.3 1.4-.2 5.3.9 10.5 1.8 15.8 2.8 4.4.9 8.8 1.7 13.2 2.8 3.6 1 7 2.5 10.6 3.5 2.9.8 5.8 1.6 8.8 1.9 5 .5 10.1.5 15.2 1 5.8.5 11.5 1.3 17.2 1.9 5.1.5 10.2 1 15.3 1.4 6 .5 12 1 18 1.4.3 0 .6.1.9.2v.6zM272 349.3l4.2 1.2c3.6 1 7.1 2 10.7 2.9 2.8.7 5.6 1.4 8.4 2 3.5.8 7.1 1.4 10.6 2.1 3.5.7 7.1 1.3 10.6 2 2.5.4 5.1.8 7.6 1.2 3.1.5 6.2 1 9.3 1.4 1.8.3 3.7.6 5.5.8 6.6.7 13.3 1.4 20 2 7.6.7 15.2 1.5 22.8 2 7.9.5 15.7.8 23.6 1.2 1.1.1 2.2.2 3.2.3v.4c-1 .1-2 .4-3 .4-8.8.1-17.7.4-26.5.3-7.7-.1-15.5-.4-23.2-.9-5.6-.3-11.2-.9-16.7-1.7-8.2-1.2-16.3-2.5-24.4-4-5.2-1-10.3-2.3-15.3-3.7-6.5-1.8-12.9-3.9-19.2-6-2.8-.9-5.5-2.2-8.3-3.3 0-.3 0-.5.1-.6zm121 61.5c-.6.1-1.1.2-1.7.2-7.4.2-14.9.6-22.3.5-7.6-.1-15.3-.7-22.9-1.3-5.1-.4-10.3-1-15.4-1.9-7.7-1.3-15.3-2.9-22.7-5.2-3.7-1.2-7.6-2-11.6-1.9-4.6.1-8.9-1.1-13-3-2.8-1.3-5.8-2.4-8.6-3.6-.7-.3-1.3-.7-2-1v-.5c.5-.1 1-.3 1.4-.2 4.6.3 9.3.5 13.8 1.9 2 .6 4 1.3 5.7 2.5 3.3 2.3 7 3 10.8 3.5 6.4.9 12.8 1.9 19.3 2.7 7.5 1 14.9 1.9 22.4 2.7 8 .9 15.9 1.7 23.9 2.4 7 .6 14.1 1.1 21.1 1.6.6 0 1.1.2 1.6.3.2.1.2.2.2.3zm-.1 9.7c-.5.1-1 .2-1.5.2-10.5 0-21 .4-31.5-.1-8.9-.4-17.7-1.7-26.6-3-6.5-1-13-2.6-19.5-3.9-1.5-.3-3.1-.3-4.7-.3-7 .3-13.7-1.2-20.1-3.9-3.9-1.6-7.7-3.4-11.5-5.2-.5-.2-.9-.6-1.3-1 0-.2.1-.3.1-.5 1.3.1 2.7 0 4 .2 5.5 1 11.1 1.8 16.6 3.2 3.4.9 6.6 2.7 9.9 4.1 1.3.5 2.7 1.1 4 1.3 2.3.4 4.7.6 7.1.8 7.8.8 15.5 1.7 23.3 2.5 7.5.8 15 1.7 22.5 2.4 5.4.5 10.9.9 16.3 1.4 2.7.2 5.5.2 8.2.4 1.5.1 3 .4 4.4.6.3.4.3.6.3.8zm6.2-63.3c-1.3.3-2.6.7-4 .8-10.4.3-20.8.7-31.2.6-9-.2-17.9-1-26.8-1.7-4.9-.4-9.9-1.2-14.8-2s-9.8-1.8-14.6-2.9c-4.8-1.1-9.5-2.2-14.2-3.7-6.1-1.9-12.1-4.3-18.2-6.4-.1 0-.2-.2-.3-.5.4.1.7.2 1.1.3 3.3.9 6.6 2 10 2.8 5.5 1.3 11.1 2.6 16.6 3.7 4.2.8 8.5 1.5 12.8 2 7.1.9 14.2 1.8 21.3 2.6 7 .8 14.1 1.5 21.1 2.1 4.4.4 8.8.7 13.2.8 8.7.4 17.4.7 26.2 1 .6 0 1.2.1 1.7.1.1.1.1.3.1.4zm-125.3-24.5c42.3 10.8 85.4 15.1 129 15.1v.4c-1.5.3-2.9.7-4.4.7-9.6.3-19.2.9-28.7.7-10.2-.1-20.4-.6-30.5-2-5-.7-10-1.1-14.9-1.9-6.3-1.1-12.5-2.4-18.8-3.7-3.8-.8-7.7-1.7-11.5-2.7-4-1.1-8-2.4-11.9-3.6-2-.6-4-1.3-6-2-.9-.3-1.6-.7-2.3-1zm.3-9.4c.6 0 1.2 0 1.7.2 5.2 1.3 10.4 2.7 15.6 3.9 4.4 1.1 8.8 2 13.3 2.9 4.1.8 8.2 1.5 12.3 2.1 4.6.8 9.2 1.5 13.9 2.2 6.1.8 12.2 1.6 18.3 2.3 5.4.6 10.8 1 16.2 1.2 9.7.4 19.3.6 29 1 .7 0 1.3.1 2 .2v.5c-.5.1-.9.3-1.4.3-14.9.7-29.9 1-44.8-.3-8.8-.7-17.6-1.9-26.4-3.1-4.4-.6-8.8-1.4-13.1-2.4-4.9-1.1-9.8-2.4-14.7-3.7-4.1-1.1-8.1-2.2-12.1-3.5-3.3-1-6.6-2.2-9.9-3.3 0-.2 0-.3.1-.5zm-2.3-10.7c1.4.4 2.8.7 4.2 1.1 4.8 1.3 9.6 2.6 14.4 3.8 3.9 1 7.8 1.9 11.7 2.8 4.5 1 9.1 2 13.6 3 4.8 1 9.6 2.1 14.5 3 3.7.7 7.4 1.2 11.1 1.8 2.6.4 5.1.9 7.7 1.2 3.1.4 6.2.6 9.3.8 8.3.4 16.7.9 25 1.2 6.4.2 12.9.3 19.3.4 2.4 0 4.8-.1 7.2-.1.5 0 1 .1 1.5.2 0 .2.1.3.1.5-.5.2-1 .4-1.5.4-10.5 1.4-21.1 1.8-31.6 1-7-.5-14-1.1-21-1.9-4.7-.5-9.4-1.4-14.2-2.1-6.5-.9-13-1.7-19.4-2.8-6.2-1.1-12.3-2.4-18.4-3.7-4.7-1-9.4-2.1-14-3.4-6.5-2-12.8-4.3-19.2-6.4-.2-.1-.3-.2-.4-.3 0-.2 0-.3.1-.5zm149.1 11c-1.3.4-2.6.8-4 1.1-8.3 1.4-16.6 2.1-24.9 1.7-6.2-.3-12.5-.9-18.7-1.4-6.4-.6-12.7-1.2-19.1-2-4.8-.6-9.6-1.3-14.4-2-2.3-.3-4.5-.7-6.7-1-5.3-.9-10.6-1.6-15.8-2.7-7.3-1.6-14.6-3.4-21.9-5.3-4.8-1.3-9.6-2.8-14.4-4.3-3-1-5.9-2.2-8.8-3.4-.4-.1-.6-.5-.8-1 1.1.3 2.2.5 3.2.8 5.3 1.5 10.5 3.1 15.8 4.6 3.8 1.1 7.6 2.1 11.5 3.1 5.1 1.2 10.1 2.3 15.2 3.4 3.5.8 7 1.6 10.6 2.3 3.3.7 6.7 1.2 10.1 1.8 4.2.7 8.4 1.5 12.6 2.1 2.9.5 5.9.9 8.9 1.2 14.6 1.7 29.4 1.6 44.1 1.4 5.3-.1 10.5-.5 15.8-.7h1.8c-.1 0-.1.1-.1.3zm-215-11.8v1.2c-.1 2.1 1 3.3 3 3.5 1.3.1 2.6.1 3.8.5 2.5 1.1 3.5 3.8 2.8 6.5-1.4 5.1-7 5.8-10.2 4.2-4.5-2.2-5.5-6.8-3.3-11.2.9-1.8 2.2-3.3 3.3-5l.6.3zm169-91.2c9.1 2.3 18.4 3.3 27.8 3.8 9.3.5 18.6-.5 28-1.6-1.4 1.9-12.9 4.8-19.4 5.1-12.7.6-24.9-2-36.4-7.3zm-99.5 72.8c29.4 10 59.6 16.8 90.3 21.4-15.6-.8-30.9-3.5-46-7-15.2-3.5-30-8-44.3-14.4zm16.3-5.8c22.8 7.7 46.2 13 70.3 16.3-6.1 2.9-58-9.1-70.3-16.3zM434.2 316c-1.2 1.7-3 1.8-4.6 2-7.8 1-15.7 1-23.6.4-6.1-.4-12.2-.7-18.3-1.1-2.2-.1-4.3-.5-6.5-.7v-.6h3.8c9.7.2 19.4.4 29.2.4 6.2 0 12.4-.3 18.6-.5.5 0 1 .1 1.4.1zm-2.1-5.8c-.8.2-1.5.6-2.3.7-5 .2-10 .4-15.1.4-5.2 0-10.4-.3-15.6-.5-1.2 0-2.4-.2-3.6-.3 0-.1 0-.3-.1-.4.3-.1.6-.3.9-.3 10.7-.5 21.4-1.6 32.1-1 1.2.1 2.4.4 3.5.7.2.2.2.4.2.7zm-72.4-16c-13-1-25.7-3.7-37.8-8.7 0-.2.1-.4.1-.6 6.3 1.6 12.5 3.3 18.8 4.8 6.3 1.5 12.6 2.7 18.9 4 .1.1.1.3 0 .5zm47.2 8.6c1.2-.2 2.4-.5 3.6-.6 4.3-.3 8.7-.6 13.1-.7 2.2-.1 4.4.2 6.6.5.4 0 .7.5 1.1.8-.3.3-.6.7-1 .8-1.5.3-3 .6-4.5.6-5.9-.1-11.8-.4-17.7-.7-.4 0-.8-.2-1.2-.2v-.5zm66.7-134.5c-.5.1-1 .2-1.6.2-4 .2-7.6-1-11.2-2.8-1.8-.9-3.8-1.5-5.6-2.4-.3-.1-.6-.5-.8-.8.3-.2.7-.5 1-.5 3.7-.2 7.1.8 10.4 2.5 2 1 4.1 1.6 6.1 2.5.6.2 1.1.6 1.7.9v.4zm-59 128.1c.6-.2 1.2-.6 1.8-.7l14.6-.3c.2 0 .4 0 .6.1.3.2.6.5.9.7-.3.3-.6.8-.9.9-1 .3-2.1.6-3.2.6-4.4-.2-8.8-.5-13.2-.7-.2 0-.3-.1-.5-.2-.1-.2-.1-.3-.1-.4zm11.3-6.3c2.9-1.4 9.6-1.4 10.8 0-1.7 1.5-8.4 1.6-10.8 0zM250.4 76c-1.5-1.5-1.8-3.3-2.1-5.1-.5-3.9.7-7.3 3-10.4 3-4 6.9-7 10.8-10 3.1-2.3 6.2-4.5 9.2-6.9 3.6-3 6.2-6.8 8.3-10.9 2.7-5.3 5.2-10.6 7.7-15.9 1-2.2 1.7-4.6 2.5-6.9.1-.3.3-.5.8-.8 0 .6.2 1.2.1 1.7-.8 3.8-1.4 7.7-2.4 11.5-1.5 5.7-4.2 10.8-7.2 15.8-3.4 5.7-7.6 10.8-12 15.8-2.1 2.3-4.1 4.7-5.3 7.6-1.7 4.2-2.4 8.6-2.4 13.2v4.8c-2.8-1.5-4.3-3.7-5.1-6.2-.9-2.5-1.2-5.2-1.8-7.9-1.6.9-2.5 2.6-3 4.5-.5 2-.7 3.9-1.1 6.1z"/><path class="st1" d="M228.2 56.8c-3.6-9.6-3.9-19.2.4-28.9-1.7-.3-3 .4-4 1.2-1.5 1.2-2.9 2.6-4 4.2-2.6 3.8-4.8 7.9-7.5 11.5-3.3 4.4-6.5 9-11.1 12.3-3.8 2.6-7.9 4-12.5 3.2-2.9-.5-5.6-1.8-7.9-3.7-.3-.3-.6-.7-.9-1 .1-.1.2-.2.2-.4 1 .4 1.9 1 3 1.3 1.5.5 3.1 1 4.6 1.1 4.1.1 7.8-1.4 11-4 4.4-3.5 7.6-7.9 10.5-12.6 2.3-3.7 4.2-7.7 6.6-11.2 2.8-4 6.8-6.6 11.6-7.7 3-.7 6.1-.9 9.1-1.3.3 0 1 .1 1 .4.1.3-.1.8-.3 1.1-2.6 3.4-5 6.9-6.5 11-.9 2.4-1.5 5-2.2 7.5-1.2 4.9-1 9.8-.7 14.7 0 .4-.1.9-.1 1.3h-.3zm-22.2 16c-3.4 7.2-7.7 14.1-5.9 22.6-.1 0-.3.1-.4.1-.6-.9-1.3-1.8-1.7-2.8-.9-2.4-1.6-4.8-2.5-7.2-.1-.3-.8-.7-1-.7-6.1 2.1-10.6 5.9-12.9 12.2-2.7 7.3-5.8 14.3-10.6 20.4-3.6 4.6-8 8.3-12.9 11.5-.2.1-.4.2-.8 0 1-1.1 2-2.3 3-3.4 4.8-5.3 8.9-10.9 11.7-17.5 1.7-3.9 3.1-7.9 4.7-11.8 1.4-3.5 3.1-6.7 5.4-9.6.2-.2.3-.5.7-1.1-3.5.2-5.8 2.2-8.3 4 2.3-4.8 1.7-9.5-.2-14.3 11.4 8.9 21.8 7.1 31.7-2.4zm33-19.4c.2-.8.3-1.6.6-2.3 2.9-6.9 7.5-12.2 14.4-15.3 4.6-2.1 8-5.6 10.6-9.8l2.4-4.2-.3-.3c-1.6.9-3.1 1.8-4.8 2.6-1.7.8-3.4 1.6-5.2 1.9-6.4 1.1-11.2 4.7-15 9.7-.4.5-.7 1-1.5 1.4 0-.4-.2-.9-.1-1.2 1.7-4.2 3.9-8.1 7.6-10.9 3-2.3 6.5-3.5 10.1-4.4 3.4-.9 6.5-2.5 9.1-4.9 2.2-2 4.2-4.2 6.3-6.3.2-.2.3-.3.9-.7 0 1 .1 1.6 0 2.3-.7 4.3-1.5 8.6-3.2 12.6-2.7 6.7-6.9 12.3-13.1 16.1-2.3 1.4-4.8 2.3-7 3.7-4.2 2.5-7.7 5.8-10.6 9.7-.2.3-.6.5-.9.8-.1-.3-.2-.4-.3-.5zm-85.7 96.5c-.1.6-.1 1.3-.3 1.9-.5 2-1.2 3.9-1.6 5.9-.8 3.7-1.7 7.4-2 11.2-.6 6.1-.8 12.3.2 18.4.5 3.1 1.1 6.1 1.8 9.2.9 4.2 2.5 8.1 4.5 11.9.4.9.8 1.7 1.2 2.6-.1.1-.2.2-.3.2-1.1-1.5-2.4-2.8-3.4-4.4-2.2-3.4-4.5-6.8-6.2-10.5-3.6-7.8-5.2-16.1-3.9-24.8 1.2-8 4.3-15 9.2-21.4.1-.2.3-.3.5-.4 0 .1.1.1.3.2zM417.9 30.5c-.6.1-1.1.3-1.7.2-4.6-.7-9.2-1-13.7-2.2-8.4-2.1-15.7-6.2-21-13.4-2.2-3-3.9-6.3-5.1-9.7-.2-.5-.2-1-.2-1.5.1-.1.2-.1.4-.2.6 1 1.2 1.9 1.8 2.9 3.1 5.4 7.6 9.5 12.8 12.9 3.8 2.5 7.9 4.5 12.1 6.1 3.1 1.2 6.4 2 9.6 2.9 1.4.4 2.8.6 4.2.9.3.1.6.3 1 .4-.2.3-.2.5-.2.7zM149.2 263.2c-.5-1.8-1-3.6-1.6-5.3-.6-1.6-1.3-3.3-2.2-4.7-1.9-2.7-4.7-2.2-6.2.8-1 2.1-.3 3.9.5 5.7 2 4.7 5.2 8.4 8.7 12 .3.3.5.8.7 1.3-.5.1-1 .3-1.4.2-5-.9-8.6-3.8-11.5-7.7-3.3-4.4-5.4-9.3-6.7-14.6-.7-3.1-.9-6.3-.6-9.5.3-3.6 2.1-5.9 5.2-6.7 3.7-1.1 6.9-.1 9.1 2.6 2.2 2.9 3.7 6.2 4.4 9.7.9 4.7 1.5 9.4 2.2 14.2.1.6 0 1.3 0 2h-.6z"/></svg>