<svg id="Layer_1" xmlns="http://www.w3.org/2000/svg" viewBox="0 0 512 512"><style>.st0{fill:#24a770}</style><path class="st0" d="M0 0h512v512H0z"/><path class="st0" d="M489.6 21.7v476.7H24c.1-2.3.3-4.6.3-6.9V27.2c0-5.2 0-5.2 5.2-5.2h455c1.7 0 3.4-.2 5.1-.3zM255.4 144.4c.3.4.5.8.8 1.2 8.2-1.3 16.4-2.7 24.6-3.9 5-.8 9.9-1.5 14.9-2.1 5.6-.6 11.2-1.1 16.7-1.6 9.4-.9 18.8-1.7 28.3-2.6 3.3-.3 6.6-.8 9.9-1 2.9-.2 5.8 0 9.3 0-.8 1.3-1.3 2.3-2 3.2-9.6 13.8-20 26.8-31.6 39-.8.9-1 2.3-1.5 3.5 1.2-.2 2.6-.1 3.7-.7 4.7-2.6 9.2-5.6 14-8.1 12-6.3 24.1-12.3 36.1-18.5 6.4-3.3 12.6-6.9 19.2-10.5.6 1.1 1.2 2.1 1.6 3.1 3.4 7.5 6 15.2 7 23.5 1 8.7 2.9 17.3 3.8 26 .9 10 1.1 20.1 1.6 30.2.1 1.2.5 2.4.7 3.7.4.1.7.1 1.1.2.8-1.3 1.9-2.5 2.3-3.9 1.6-5.1 3.3-10.2 4.5-15.4 2.8-12.3 5.5-24.7 8-37.1.9-4.7.7-9.6 1.7-14.3 2-9.8 3.2-19.8 2.3-29.7-.5-6 1.1-9.9 6.3-13.1 6.9-4.3 11.5-10.7 15-18 1.1-2.2.5-3.3-1.9-3.4-.8 0-1.6-.1-2.4 0-10.1 1.5-20.4.7-30.3 3.7-2.2.7-5 .6-7.1-.3-7.6-3.3-15-7.4-22.6-10.7-7-3-14.2-5.7-21.6-7.8-9.4-2.8-18.9-5-28.4-7.3-8.3-2-16.6-3.8-25-5.4-6.1-1.1-12.2-1.8-18.3-2.5-1.2-.1-2.5.4-3.8.6 0 .4-.1.9-.1 1.3 24.6 12.9 49.7 25.1 71.7 42.4-2.8 1.1-5.3 1.8-7.8 2.3-7.4 1.6-14.8 2.8-22.1 4.7-10.8 2.9-21.6 5.7-32.1 9.5-14.4 5.1-28.5 11-42.7 16.8-1.5.6-2.6 2-3.8 3zm-47.9 41.4c.6-1.9.9-3.7 1.7-5.3 3.2-6.1 6.6-12.1 9.8-18.1.3-.6.5-1.7.2-2.2-.3-.4-1.4-.5-2.1-.4-2 .3-4.1.6-6 1.3-12.7 4.8-24.6 11-35.8 18.6-2 1.4-4.8 2.2-7.3 2.3-15.9.2-31.9-.7-47.6 2.8-2.4.5-4.9.8-7.4 1.4-5.1 1.1-10.3 2.2-15.3 3.5-1 .3-1.7 1.6-2.5 2.5 1 .6 2 1.5 3 1.6 6.1.8 12.3 1.3 18.3 2.3 7.8 1.3 15.3 3.6 22.2 7.6 3.5 2 3.4 2.5.8 5.6-7.3 8.8-15.2 17.3-21.5 26.8-8.8 13.1-16.5 27-24.5 40.6-.5.9-.2 2.3-.3 3.4 1.1-.4 2.4-.6 3.2-1.3 12.1-10.6 23.9-21.4 36.2-31.7 7.2-6 15-11.3 22.5-16.9 2.2-1.7 3.8-1.8 4.6 1.5 1.1 4.1 2.6 8 3.9 12 3.7 11 7.4 22.1 11.2 33.1.3.8 1.4 1.2 2.1 1.8.6-.8 1.6-1.6 1.9-2.5.4-1.3 0-2.8.3-4.1 1.7-7.4 3.2-14.9 5.3-22.2 3-10.7 6.4-21.4 9.8-32 .3-1.1 1.7-2.3 2.8-2.5 3.8-.8 7.6-1.3 11.5-1.6 7.9-.6 15.7-1.4 23.6-1.3 15.5.1 31.1.7 46.3 4.1 2.8.6 5.8.3 8.8.5-1.2-7.5-49.7-26.3-79.7-31.2zm-34.8 225.1c.1-.5.3-1.1.4-1.6-1.4-.8-2.8-1.8-4.3-2.5-5.6-2.8-11.6-5-16.9-8.3-6.7-4.3-13-9.3-19.3-14.3-1-.8-1.7-3.2-1.2-4.4 3.3-9.2 7.8-17.8 13.3-25.9.7-1 .6-2.5.9-3.8-1.4-.2-2.8-.7-4.1-.6-4.5.6-9 1.4-13.5 2.1-4.5.8-9 1.4-13.4 2.4s-6.1.5-7.9-3.6c-2.6-5.7-5.5-11.4-7.4-17.3-3.2-10.6-5.7-21.5-8.7-32.3-.3-1.1-1.6-1.8-2.4-2.8-.5 1-1.5 2-1.6 3-.5 15-1 30-1.4 45-.1 3.1.3 6.2.9 9.2.7 3.3-.1 5-3.5 6.1-7.1 2.2-14 4.8-21 7.4-.9.4-2 1.3-2.3 2.2-.2.5.8 1.9 1.5 2.3 10.4 5.8 20.9 11.5 31.2 17.4 2.4 1.4 5.2 3.1 6.3 5.4 4.8 10.1 11 19.3 18.1 27.8 2.5 3 5.3 5.8 8 8.5.5.5 1.6.7 2.4.7.3 0 .8-1.2.7-1.7-.5-3.5-1.5-6.9-1.8-10.4-.5-5.6-.7-11.2-1-17.7 16.6 5.1 32.2 7.1 48 7.7zm52.8 13.3c-.1.1-.2.4-.4.6-7.2 5.5-14.4 10.9-21.5 16.4-.7.6-1.1 1.7-1.6 2.6.9.2 1.9.7 2.7.5 1.8-.3 3.5-1.1 5.3-1.5 12.6-2.9 24.6-7.7 36.3-13.2 3.3-1.6 6.2-3.9 10.5-3.7 5.3.2 10.7-.7 16.1-1.2 2-.2 2.8-1.2 2-3.3-.7-1.9-1.3-3.9-1.7-5.9-.6-3.4-.8-6.2 2.6-9 10.2-8.7 19.9-18 29.7-27.1.9-.8 1.5-1.9 2.2-2.8l-.6-.9c-1.2.4-2.4.6-3.4 1.2-7.3 4.5-14.5 9.1-21.9 13.5-3.5 2.1-7.4 3.7-11.2 5.6-.7-5.3-1.2-9.8-1.8-14.3-.2-1.2-.7-2.3-1.1-3.4-1.1.7-2.5 1.1-3.2 2.1-4.7 5.8-9 11.8-13.9 17.5-3.1 3.5-5.4 8.2-10.5 9.5-1.9.5-3.9.4-5.7 1-9.6 3.1-19.6 2.9-29.5 3.9-1.2.1-2.3 1-3.4 1.5.9.9 1.7 2.1 2.8 2.5 6.9 2.7 14.1 5.3 21.2 7.9z"/><path d="M255.4 144.4c1.2-1 2.2-2.5 3.6-3 14.2-5.7 28.3-11.6 42.7-16.8 10.5-3.7 21.3-6.6 32.1-9.5 7.3-1.9 14.7-3.2 22.1-4.7 2.5-.5 5.1-1.2 7.8-2.3-22-17.3-47.1-29.5-71.7-42.4 0-.4.1-.9.1-1.3 1.3-.2 2.6-.7 3.8-.6 6.1.7 12.3 1.4 18.3 2.5 8.4 1.6 16.7 3.4 25 5.4 9.5 2.3 19.1 4.5 28.4 7.3 7.3 2.2 14.5 4.8 21.6 7.8 7.7 3.3 15 7.4 22.6 10.7 2 .9 4.9 1 7.1.3 9.9-3 20.2-2.3 30.3-3.7.8-.1 1.6-.1 2.4 0 2.4.1 3 1.2 1.9 3.4-3.5 7.3-8.1 13.8-15 18-5.2 3.2-6.8 7-6.3 13.1.9 9.9-.3 19.9-2.3 29.7-1 4.7-.8 9.6-1.7 14.3-2.5 12.4-5.2 24.8-8 37.1-1.2 5.2-2.8 10.3-4.5 15.4-.4 1.4-1.5 2.6-2.3 3.9-.4-.1-.7-.1-1.1-.2-.3-1.2-.7-2.4-.7-3.7-.5-10.1-.7-20.2-1.6-30.2-.8-8.7-2.8-17.3-3.8-26-.9-8.3-3.6-16-7-23.5-.5-1-1-2-1.6-3.1-6.6 3.6-12.8 7.2-19.2 10.5-12 6.2-24.1 12.2-36.1 18.5-4.8 2.5-9.3 5.5-14 8.1-1 .6-2.4.5-3.7.7.5-1.2.6-2.6 1.5-3.5 11.6-12.1 22-25.2 31.6-39 .6-.9 1.1-1.9 2-3.2-3.5 0-6.4-.1-9.3 0-3.3.2-6.6.7-9.9 1-9.4.9-18.8 1.7-28.3 2.6-5.6.5-11.2 1-16.7 1.6-5 .6-9.9 1.3-14.9 2.1l-24.6 3.9c0-.4-.3-.8-.6-1.2zm-47.9 41.4c30 4.8 78.5 23.7 79.9 31.2-3-.1-6 .2-8.8-.5-15.3-3.4-30.8-4.1-46.3-4.1-7.9 0-15.8.8-23.6 1.3-3.8.3-7.7.8-11.5 1.6-1.1.2-2.4 1.5-2.8 2.5-3.4 10.6-6.8 21.3-9.8 32-2.1 7.3-3.6 14.8-5.3 22.2-.3 1.3 0 2.8-.3 4.1-.3.9-1.2 1.7-1.9 2.5-.7-.6-1.8-1-2.1-1.8-3.8-11-7.5-22-11.2-33.1-1.3-4-2.8-7.9-3.9-12-.9-3.3-2.4-3.2-4.6-1.5-7.5 5.6-15.4 10.9-22.5 16.9-12.3 10.3-24.1 21.2-36.2 31.7-.8.7-2.1.9-3.2 1.3.1-1.1-.2-2.5.3-3.4 8-13.6 15.7-27.5 24.5-40.6 6.4-9.5 14.2-17.9 21.5-26.8 2.6-3.1 2.7-3.6-.8-5.6-6.9-4-14.4-6.3-22.2-7.6-6.1-1-12.2-1.4-18.3-2.3-1.1-.1-2-1.1-3-1.6.8-.9 1.5-2.2 2.5-2.5 5.1-1.3 10.2-2.4 15.3-3.5 2.5-.5 5-.8 7.4-1.4 15.7-3.5 31.7-2.5 47.6-2.8 2.5 0 5.2-.9 7.3-2.3 11.2-7.7 23.1-13.9 35.8-18.6 1.9-.7 4-1 6-1.3.7-.1 1.8 0 2.1.4.3.5.1 1.6-.2 2.2-3.2 6-6.6 12-9.8 18.1-1 1.6-1.3 3.4-1.9 5.3zm-34.8 225.1c-15.8-.6-31.4-2.5-47.7-7.5.3 6.5.5 12.1 1 17.7.3 3.5 1.2 6.9 1.8 10.4.1.6-.4 1.7-.7 1.7-.8 0-1.9-.1-2.4-.7-2.8-2.7-5.5-5.5-8-8.5-7.1-8.6-13.3-17.7-18.1-27.8-1.1-2.3-3.9-4-6.3-5.4-10.3-5.9-20.8-11.5-31.2-17.4-.7-.4-1.7-1.7-1.5-2.3.3-.9 1.3-1.9 2.3-2.2 6.9-2.6 13.9-5.2 21-7.4 3.4-1.1 4.2-2.8 3.5-6.1-.6-3-1-6.1-.9-9.2.3-15 .8-30 1.4-45 0-1 1-2 1.6-3 .8.9 2.1 1.7 2.4 2.8 2.9 10.7 5.4 21.6 8.7 32.3 1.8 6 4.8 11.6 7.4 17.3 1.8 4.1 3.5 4.6 7.9 3.6 4.4-1 9-1.7 13.4-2.4 4.5-.8 9-1.6 13.5-2.1 1.3-.2 2.7.3 4.1.6-.3 1.3-.2 2.8-.9 3.8-5.4 8.1-10 16.7-13.3 25.9-.4 1.2.2 3.6 1.2 4.4 6.3 5 12.5 10 19.3 14.3 5.3 3.3 11.3 5.6 16.9 8.3 1.5.7 2.8 1.7 4.3 2.5-.4.3-.5.8-.7 1.4zm52.8 13.3c-7.2-2.6-14.3-5.1-21.4-7.8-1.1-.4-1.9-1.7-2.8-2.5 1.1-.5 2.2-1.4 3.4-1.5 9.9-1 19.9-.8 29.5-3.9 1.8-.6 3.8-.5 5.7-1 5.1-1.4 7.4-6 10.5-9.5 4.9-5.6 9.2-11.7 13.9-17.5.8-1 2.1-1.4 3.2-2.1.4 1.1.9 2.3 1.1 3.4.6 4.5 1.2 9 1.8 14.3 3.8-1.9 7.7-3.5 11.2-5.6 7.4-4.4 14.6-9 21.9-13.5 1-.6 2.3-.8 3.4-1.2l.6.9c-.7.9-1.4 2-2.2 2.8-9.8 9.1-19.5 18.4-29.7 27.1-3.4 2.9-3.2 5.7-2.6 9 .4 2 1 4 1.7 5.9.8 2.1 0 3.1-2 3.3-5.4.5-10.7 1.4-16.1 1.2-4.2-.2-7.2 2.1-10.5 3.7-11.7 5.5-23.7 10.3-36.3 13.2-1.8.4-3.5 1.2-5.3 1.5-.8.2-1.8-.3-2.7-.5.5-.9.8-2 1.6-2.6 7.1-5.5 14.4-11 21.5-16.4.4-.4.6-.7.6-.7z" fill="#fff"/></svg>