<svg id="Layer_1" xmlns="http://www.w3.org/2000/svg" viewBox="0 0 512 512"><style>.st0{fill:#128585}</style><path class="st0" d="M202.9 512H.5V-.5h295.7c.1 15.1.4 30.1.4 45.2.1 82.3.2 164.6.2 246.9 0 1.2-.1 2.5-.2 3.7-.5.3-1 .7-1.5 1-.5-1-1-2.2-1.7-3.1-2.8-3.7-5.6-7.4-8.5-11-14.4-18.2-28.8-36.3-43.2-54.4-10.1-12.7-20.1-25.5-30.3-38.1-1.1-1.3-3.9-2.3-5.5-1.9-1.4.4-2.7 2.8-3.1 4.6-.5 2.3-.1 4.8-.1 7.1.1 104.1.2 208.3.2 312.5zM70.6 258.4c.1 0 .1 0 0 0 .1 21.3.1 42.6.1 63.9 0 4.5 1.3 6.1 5.2 6.1 15 0 29.9.3 44.8-.1 12.1-.3 23.1-4.8 32.6-12.3 14.8-11.7 21.5-27.9 23.5-45.9 2.1-18.4-.4-36.5-9.7-53-9.5-16.6-24.3-26.2-43-28-15.4-1.5-31.1-.6-46.6-.7-5.8 0-6.9 1.1-6.9 6.9v63.1z"/><path class="st0" d="M311.3-.5h200.3V512H217.3V221.2c.3-.1.6-.2.9-.2 3.4 4.2 6.9 8.4 10.2 12.7 9.9 12.4 19.7 24.8 29.6 37.3 11.9 15 23.8 29.9 35.6 44.8 3.1 3.9 6.2 7.9 9.6 11.6 1 1.1 3.4 2 4.5 1.5 1.3-.6 2.1-2.7 2.9-4.2.3-.7.1-1.6.1-2.5.1-102.9.1-205.8.2-308.6.1-4.8.3-9.4.4-14.1zm112.1 252.9c11.1-10.4 11.3-24 9-37.9-2.2-13.4-16.9-24.9-32.3-25.5-16.8-.6-33.7-.5-50.6-.6-6.4-.1-7.5 1.1-7.5 7.5 0 41.7.1 83.5.1 125.2v2.5c.2 2.9 1.7 4.7 4.8 4.7 18.7 0 37.3.5 56-.3 14-.6 26.2-6.2 34.4-18.4 5.3-7.9 6-16.8 5.8-26.1-.2-6.5-2-12.4-5.9-17.3-4-4.8-8.9-9-13.8-13.8z"/><path d="M311.3-.5c-.1 4.7-.3 9.3-.4 14-.1 102.9-.2 205.8-.2 308.6 0 .8.3 1.8-.1 2.5-.8 1.6-1.6 3.6-2.9 4.2-1.1.5-3.5-.4-4.5-1.5-3.4-3.7-6.4-7.7-9.6-11.6-11.9-14.9-23.8-29.9-35.6-44.8-9.9-12.4-19.7-24.9-29.6-37.3-3.4-4.2-6.8-8.4-10.2-12.7-.3.1-.6.2-.9.2v290.8h-14.4c-.1-104.2-.1-208.4-.2-312.5 0-2.4-.4-4.9.1-7.1.4-1.7 1.7-4.2 3.1-4.6 1.6-.4 4.4.5 5.5 1.9 10.3 12.6 20.3 25.4 30.3 38.1 14.4 18.1 28.8 36.3 43.2 54.4 2.9 3.6 5.7 7.3 8.5 11 .7.9 1.1 2.1 1.7 3.1.5-.3 1-.7 1.5-1 .1-1.2.2-2.5.2-3.7-.1-82.3-.1-164.6-.2-246.9 0-15.1-.3-30.1-.4-45.2 5.1.1 10.1.1 15.1.1zM70.6 258.4v-63.2c0-5.8 1.1-7 6.9-6.9 15.5.1 31.2-.8 46.6.7 18.7 1.8 33.5 11.4 43 28 9.4 16.5 11.8 34.6 9.7 53-2.1 18-8.7 34.2-23.5 45.9-9.5 7.5-20.4 12-32.6 12.3-14.9.4-29.9.2-44.8.1-3.9 0-5.2-1.6-5.2-6.1 0-21.2 0-42.5-.1-63.8.1 0 .1 0 0 0zm14.7-.5c-.1 17.5-.1 34.9-.1 52.4 0 2.3 0 4.2 3.3 4.2 9.2-.2 18.4 0 27.6-.2 12.1-.2 23-4 31.7-12.7 9.7-9.7 13.8-22 14.6-35.2.4-7.4-.3-15-1.3-22.4-1.3-10.7-5.6-20.2-13.1-28.1-8.5-9-19.7-12.4-31.6-13.2-9-.7-18.2-.1-27.3-.4-3.3-.1-4 1.1-3.9 4.1.2 17.1.1 34.3.1 51.5zm338.1-5.5c4.8 4.8 9.8 9 13.7 13.9 3.9 4.9 5.7 10.8 5.9 17.3.2 9.2-.5 18.2-5.8 26.1-8.2 12.2-20.4 17.7-34.4 18.4-18.6.8-37.3.3-56 .3-3.1 0-4.5-1.8-4.8-4.7-.1-.8 0-1.7 0-2.5 0-41.7-.1-83.5-.1-125.2 0-6.4 1.1-7.6 7.5-7.5 16.9.1 33.7 0 50.6.6 15.4.6 30.1 12.1 32.3 25.5 2.5 13.7 2.2 27.4-8.9 37.8zm-66.7 35.9c-.1 0-.1 0 0 0 0 7.4.1 14.8-.1 22.2-.1 3 .9 3.9 3.9 3.9 10.4-.1 20.8.2 31.2-.2 6.3-.2 12.6-.8 18.8-2.2 18.2-4 22.4-24 16-36-5.2-9.7-14.2-13.3-24.4-13.7-14.1-.5-28.2-.1-42.3-.2-2.3 0-3.1.7-3.1 3.1v23.1zm.2-40.9c.7.1 1.1.3 1.6.3 13.9 0 27.7.1 41.6-.2 3-.1 6.2-1 8.9-2.3 8.4-4.4 12.3-15.2 9.7-25.5-1.3-5.4-3.8-10-8.9-12.8-6-3.1-12.5-4.1-19-4.4-9-.4-17.9-.2-26.9-.3H357c-.1 15.3-.1 30-.1 45.2z" fill="#fff"/><path class="st0" d="M85.3 257.9c0-17.2.1-34.4-.1-51.7 0-3 .6-4.2 3.9-4.1 9.1.3 18.2-.3 27.3.4 11.9.9 23.1 4.2 31.6 13.2 7.5 7.9 11.7 17.4 13.1 28.1.9 7.4 1.7 15 1.3 22.4-.8 13.3-4.9 25.6-14.6 35.2-8.7 8.7-19.5 12.5-31.7 12.7-9.2.2-18.4 0-27.6.2-3.3.1-3.3-1.8-3.3-4.2 0-17.3 0-34.7.1-52.2zm271.4 30.4c0-7.7.1-15.3 0-23 0-2.3.7-3.1 3.1-3.1 14.1.1 28.2-.3 42.3.2 10.2.4 19.2 4 24.4 13.7 6.4 12 2.2 31.9-16 36-6.1 1.4-12.5 2-18.8 2.2-10.4.4-20.8 0-31.2.2-3 0-4-.9-3.9-3.9.1-7.4 0-14.9.1-22.3-.1 0-.1 0 0 0zm.2-40.9v-45.2h6.9c9 .1 17.9-.1 26.9.3 6.5.3 13.1 1.3 19 4.4 5.2 2.7 7.6 7.3 8.9 12.8 2.5 10.3-1.3 21.2-9.7 25.5-2.7 1.4-5.9 2.3-8.9 2.3-13.9.3-27.7.1-41.6.2-.4 0-.8-.2-1.5-.3z"/></svg>