<svg id="Layer_1" xmlns="http://www.w3.org/2000/svg" viewBox="0 0 512 512"><style>.st0{fill:#2f435e}.st8{fill:#475c7e}.st9{fill:#2b4e76}.st13{fill:#2b4462}.st14{fill:#244468}.st17{fill:#7d839a}.st18{fill:#6f7892}.st21{fill:#9899ab}.st27{fill:#d1e3ea}.st35{fill:#bbd8e0}.st45{fill:#2d5076}.st50{fill:#bab9c5}.st52{fill:#c6c4ce}.st53{fill:#b0b0bd}.st59{fill:#9295a8}.st62{fill:#aaaab9}</style><path class="st0" d="M65.1 254.4C64 149.7 149.2 60.6 256.4 61.7c111.6 1.1 195.9 89 193.3 198.1-2.5 105.8-90.9 189.8-197 187.2-105-2.7-190.1-90-187.6-192.6zm193.4-127.6c-65.4-2.5-125.9 53.9-128.5 120-2.9 73.6 51.1 132.3 124.3 135.2 68.8 2.7 128.5-53.5 130.6-124.2 2-72.3-55.8-131.1-126.4-131zm170.7 79c-.5-6.3-.5-10.2-1.1-13.9-7.8-46-61.5-99.6-107.9-107.5-3.5-.6-7.3-.1-11.1-.1 23.6 17.4 48.6 31.8 68.1 51.5 19.6 19.8 33.7 44.9 52 70zM217.4 388.9c-42-19.2-73.2-49.4-92.9-91.4-4.7 34.2 50.7 94.7 92.9 91.4z"/><path class="st0" d="M428.9 340.8c-36.6 71.8-114.4 114.3-192.2 104.9-81-9.7-146.1-66.3-165.6-144.4-2.7-10.6-5.4-21.5-4.5-32.7.8-9.7 1.6-19.5 0-29.2 1.4-35 13.8-66.3 33.4-94.7 16.2-23.5 36.3-43 61.7-56.5 5.8 5.6 3.6 10.9-.3 16.4-13.3 19.3-26.7 38.5-38.2 58.9-15.6 27.7-24.5 57.7-24.5 89.3 0 32 9.1 62 27.3 89.1 26.8 39.8 64.2 63 111.2 69.9 38 5.6 74.3-2.3 108.2-20.4 25-13.3 48.3-29.2 70.3-47.1 3.8-3 7.8-6.3 13.2-3.5z"/><path d="M428.9 340.8c-14.7 4.4-24.4 16.4-36.6 24.6-29.6 19.9-59.4 39.4-95.1 46.3-53.3 10.3-101.8.8-143.7-35.5-32.8-28.4-51.3-63.9-55.9-107-5-47 10.1-88.2 35.3-126.6 9.2-14 18.4-28.2 28.4-41.7 3.6-4.9-.3-8.6.5-12.8 4.2-3.2 8.8-5.7 13.9-7.1 7.3 10 17.4 14.8 29.2 17.7 14.8 3.6 29.1 7.4 44.8 5.7 37.3-4 71.3 5.9 101.5 28.4 17.5 13 30.2 30.1 41.8 48.2.6.9 1 1.8 1.3 2.8 4.9 14.1 10.6 27.8 12.7 42.8 3.2 22.4 1.2 44-6.4 65.2-1.7 4.6-3.5 9.1-4.7 13.8-1.9 7.7-1 14.9 5 20.8 6 5.8 12.9 4.7 20.1 2.9 4-1 8-5.8 12.1-.3.1 4.5-2.1 8.2-4.2 11.8z" fill="#2c4460"/><path d="M445.2 291.1c.3 3.8-.3 7.4-2.3 10.7-5.7 10.7-12.7 19.5-26.3 20.1-7 .3-10.9-2.8-12.2-9.7-1-5-.4-9.7 1-14.4 17.5-56.1 3.4-105.8-34.2-148.2-28.4-32-66.1-48.4-109.5-50.1-15.5-.6-31.2 2.5-46.3-3.9-4.2-1.8-8.4-3.4-12.5-5.4-10.7-5.3-11.2-10.9-1.9-18.8 7.6-4.3 16.2-5 24.6-6.1 2.8-1.1 5.9-1.3 8.4-.4 3.9 1.3 1.5 3-.4 4.3-1.5.7-3.1.9-4.7 1.1-6.3 1-10.3 4.7-10.1 11 .3 6.7 6.7 6.8 11 6.7 14.9-.4 29.6 2.3 44.4 2.3 5.6-.2 10.8 1.9 16.3 2.4 1 .2 1.9.4 2.8.7 16.7 5.2 33 11.5 48 20.7 21.9 13.4 39.5 31.2 53.9 52.3 7.8 12.9 14.7 26.3 19.6 40.7.4.9.7 1.9.9 2.8 1.8 10.1 5.9 19.6 6.2 30v14c-.6 12.2 1 24.4-1.8 36.5-.4 1.9-.2 3.9.1 5.8.9 7.3 4 8.7 10.3 4.6 3.8-2.5 6.8-5.8 8.1-10.4 1.4-2.4 1.9-6.6 5.2-5.9 3.7.8 1.6 4.3 1.4 6.6z" fill="#164971"/><path d="M201.1 71.5c-7.8 13.2-5.3 12.6 6.1 17.9 11.1 5.2 22.3 8.3 34.6 7.6 27.5-1.6 54.3 2.1 79.5 13.7 37.6 17.3 65.2 44.6 81.4 83.1 8.6 20.5 12.8 41.9 12.9 64.1.1 14.3-3.3 28.2-8 41.6-2.5 7.1-1.9 13.7 2.5 19.1 3.1 3.7 18.2-.2 22.1-5.7 3-4.4 7.5-7.1 10.7-11-.3 4.4-1.4 8.5-3.4 12.4-5.7 6.7-12 12.4-21 14.4-10.7 2.3-19.6-3.6-20.9-14.6-.8-6.5.1-13 2.2-19.2 12.2-35.6 11.1-70.6-4.9-104.8-1.1-2.4-1.2-5.1-2.7-7.2-21.5-39.5-54.5-64.3-97.6-75.6-16.7-4.4-34.2-2.7-51.4-2.3-17.8.5-33.8-5.7-49.5-12.5-9.3-4-10.4-10.4-4.7-17.1 3.7-2.5 7.6-4 12.1-3.9z" fill="#20466b"/><path d="M361 93.4c27 16.1 48 37.9 62.4 66 3.8 13.2 10.8 25.4 13 39.3 1.6 9.7 1.6 19.3 1.3 28.9-.1 3.6-.9 7.5-5.1 8.4-4.5 1-6-2.9-7.6-6-2.8-5.1-3.4-11.2-6.9-15.9-2.3-3.6-3.4-7.6-4.3-11.6-.3-2-.1-4 1.1-5.7 4.7-2.2 5.3 2.2 6.9 4.6 2.3 3.5 3.8 7.5 6.6 12.7 1.1-10.9-.4-19.7-4.9-27.9-1.3-1.9-2-4.1-2.4-6.4-1.5-8.5-5.1-16.1-10.3-22.9-1.5-1.7-3.1-3.4-4.3-5.3-17.4-28.2-42-47.8-72.5-60.2-3.6-1.5-7.4-2.5-10.8-4.3-8.5-4-17.7-3.5-27.9-4.7 2.6 3.9 7.7 4 7.7 8.5-1.4 1.8-3.3 2-5.4 1.9-1-.1-2-.4-3-.7-4.4-1.3-8.5-3.2-12.4-5.5-2.7-1.6-6.1-3.2-4.9-7.3 1-3.2 4.1-4 7.1-4.1 9.3-.5 18.9-1.7 28 .5 12.8 3.1 25.9 5.6 37.1 13.3 3.3 2.2 7.2 4 11.5 4.4z" fill="#546484"/><path d="M189 75.3c-3.6 7.3-1.4 12.2 7.5 15.8 18.6 7.6 37.7 13.4 58.2 11.6 31.9-2.8 60.8 6.6 87.3 23 20.7 12.9 37.2 30.9 49.6 52.2.7 1.3.5 3.1.7 4.7-11.3-13.2-19.7-28.8-33.3-40.2-25.2-21.1-53.1-35.6-86.8-35.8-11.9-.1-24.3 1.7-35.7.9-19.3-1.3-39.1-5.2-55.8-16.7-3.3-2.3-5.5-5.5-5-9.9 3.9-2.8 8.5-4.6 13.3-5.6zm203.3 107.5c11.9 16.9 15.4 36.6 17.4 56.5 2 20.2-1.7 39.9-8.1 59-1.8 5.5-1.7 10.9-1.4 16.3.5 8.7 8.8 14.2 17.2 11.8 7.5-2.2 14.8-5 19.4-11.9.9-1.4 1.8-1.7 2.8 0-2.1 4.9-4.2 9.9-6.3 14.8-6.5-3.4-10.1 3.9-16 4.3-19.3 1.3-30.7-12.7-23.2-30.9 8.1-19.6 12.7-39.7 11.9-60.9-.6-16.2-3.8-32-10.6-46.8-1.9-4.1-3.6-7.8-3.1-12.2z" fill="#234467"/><path d="M415.7 202.3c.8 3.4 1.3 7 3.9 9.8 4.3 11.4 7 23.4 13.7 36.7 3.4-12.2 6.9-22.2 6.5-33.1-.1-3.5-2.6-7.8 3-9.4 4.1 13.4 6.5 26.9 5.9 41-1.9 8.5-.2 18.1-8.8 24.6-7 5.2-12 4.4-14.5-3.9-1.9-6.2-3.1-12.7-3.3-19.1-.5-14.1-4.2-27.4-8.3-40.7-1.4-1.8-1-3.7-.6-5.7.7-.8 1.6-.9 2.5-.2z" fill="#3a547b"/><path d="M277.1 63.9c8.1-.4 15.8 1.3 23.4 3.8-.5 5.1-5 4.2-8 5-6.5 1.8-13.4 2.1-19.9 3.7-1.6.4-3.3 1-3.5 2.8-.2 2 1.6 2.8 3.1 3.2 8.3 2.5 16 6.5 24.5 8.6 2.6 2.9 10.2-1.5 9.4 6.4-4.8 1.1-8.8-1.8-13.3-2.5-13-4-26.6-3.9-39.8-6.5-6.1-1.2-13.8-.5-14.5-9.5-.5-6.2 8.6-14.1 16.7-15.1 7.2-.8 14.6 1 21.9.1z" fill="#3b557b"/><path class="st8" d="M296.7 91.1c-9.2 0-17.3-4.8-26.2-6-3.4-.5-6.6-2.5-6-6.2.5-3.4 3.7-4.8 7.2-5.3 9.7-1.4 19.7-1.9 28.9-5.8 22.2 3.7 41.9 13.2 60.4 25.7-4.5 2.5-8.1-.7-11.5-2.4-20-9.7-40.7-15.5-63.2-13.6-2.8.2-6.9-.9-7.6 2.5-.8 3.5 3.7 3.8 6 5.2 3.9 2 8 3.9 12 5.9zm146.1 115.1c-2.4 2.1-1.7 4.6-1.1 7.2 3.1 12.3-3.7 23.1-5.3 34.7-.3 1.8-2.1 3.7-4.1 3.6-2.3-.1-2.5-2.5-3.2-4.3-4.1-11.6-7.6-23.2-9.6-35.4 5.1 4.7 4.5 12 7.8 17.5 1.2 2 1.5 5.7 5 4.8 2.5-.6 2.7-3.3 2.8-5.7.9-18.6-1.1-36.8-8.9-54-2.2-4.9-4.7-9.7-3-15.3 10.1 14.3 15.9 30.2 19.6 46.9z"/><path class="st9" d="M277.1 63.9c-3.3 3.1-7.4 1.4-11.1 1.7-3.2.3-6.6-.5-9.7.2-7.2 1.6-14.6 5.1-15.6 12.5-1.2 9 8 6.5 12.9 7.6 13.1 2.8 26.7 3.4 39.1 9-5.9-.7-11.7-1.3-17.6-2-13.9-2.4-28-2.8-42.1-3.7-5.1-.3-11.3.1-12.1-6.9-.8-6.9 2.6-11.8 9.5-13.8.6-.2 1.1-.6 1.7-1 .8-.4 3.3-.6 1.1-1.7-2.1-1-5.1-.4-7.7-.5 17.2-3.6 34.4-4.6 51.6-1.4zm136.6 144.2c7.9 14.4 8.4 30.7 11.7 46.3.5 2.2.5 4.5 1.2 6.6 1.4 4.6-.1 12.8 6.4 12 4.7-.6 9.7-6.3 12-12.2 1.7-4.5.8-9.6 3.7-13.7.9 10.7 1.1 21.4-1.4 32-1.7.8-.2-3.9-2.4-1.5-4.6 4.8-8.9 12.4-16.1 10-7.9-2.6-7-11.5-7.1-18.6-.2-9.9-.1-19.9-2-29.7-2.1-10.4-4-20.8-6-31.2z"/><path d="M419.6 239.4c3 7.2 3 14.9 3.9 22.5.2 1.6-.1 3.3 0 4.9.5 7.3-.7 18.1 6.6 19.1 4.7.7 14.7-5.8 16.4-15.2.2 2.8.5 5.7.8 8.5-.2 4.1.1 8.2-2.1 11.9-.2-1.6-.3-3.1-.6-6.3-1.6 3.2-2.6 5.2-3.5 7.2-1.1 2-3.1 3.3-4.7 4.8-3.4 3.1-6.8 6.7-11.8 3.8-4.5-2.6-4.8-7.6-4.6-12.1.7-11.2 1.6-22.5-.3-33.7-.1-5-.1-10.2-.1-15.4z" fill="#224c74"/><path d="M144.5 196.6c7.5-11.9 15.4-23.4 25.2-33.6 3.3-7.7 10.1-11.8 16.5-16.1 76.1-50.8 180.7-6.8 197.7 83.1 7.2 37.9-1.9 72.1-24.3 103-1.7 2.3-3.2 5-6.7 5.1-5.8 5.4-11.6 10.7-17.4 16.1-6 9.6-16.6 12.6-25.5 18-11.2 4.8-22.7 8.3-34.8 10.2-5.1.5-10.2-.3-15.2 1.1-1.5.3-3.1.3-4.6 0-5.5-1.5-11.1-.5-16.7-1.3-25.5-4.4-48.5-14.5-67.7-31.9-22.1-20.1-35.2-45.4-40.8-74.6-.3-6.9-2.7-13.7-2.2-20.7-.1-13.7.4-27.3 5.9-40.2 3.8-6 4.6-13.7 10.6-18.2z" fill="#fefefe"/><path class="st0" d="M352.9 338c25.4-32.2 36.6-68.3 28-109.1-20.3-95.8-133.4-133.3-207.5-69.1-1.2 1.1-2.5 2.1-3.7 3.1.3-11.4 8-19.2 13.8-27.7 4-5.8 9.3-11.2 15.1-15 6.6-4.3 13.1-7 22.9-4.9 12.8 2.7 26.9-.3 40.4-1.5 25.3-2.2 48.7 3.6 70.5 16.1 10.9 6.3 20.5 14.3 29.5 23.3 29.5 29.4 40.3 65.5 35.4 105.6-1.7 13.7-2.8 28.9-11.9 41.4-4.3 5.8-4.2 13.5-4.9 20.5-.8 8.1-18.3 20.6-26.6 18.8-.3 0-.6-.9-1-1.5z"/><path d="M136.9 214.8c-6 12.8-5.1 26.6-6.2 40.1-5.2-.9-3.8-5.2-4.4-8.4.6-4.9-1.2-9.3-2.9-13.7-.3-.9-.4-1.7-.6-2.6-.5-2.4.2-5.7-2.5-6.6-2.1-.8-2.5 2.2-3.5 3.7-4.2 8.8-4.8 18.2-5.3 27.7-.1.9-.3 1.9-.5 2.8-1.4 5.7-1.3 11.4.3 17 1 5.3.6 10.8 2.5 16 1.1 5.6 2.4 11.2 4.8 16.4 2 9.1 6.5 17 11.3 24.8 3.9 7.4 8.1 14.6 15.1 19.7.6.7 1.1 1.4 1.5 2.2 2.5 5.9 7.3 9.6 12.4 13.1 1.1.8 2.2 1.6 3.2 2.5 12.6 10.5 26.1 19.6 42.3 23.8 21.1 7.1 42.6 9.6 64.6 5.2 2.6 0 5.2.2 7.7-.8 2.1-.8 4.5-.8 7-4-13.7-7.4-29.5-5.6-43.4-10.8 5.5-3 11.1-2.4 16.7-1.4h1.9c5.4-2 11.2.5 16.6-1.6 11.9-2.4 23.5-6 34.9-10.1 2.9-.4 5.8-.6 8.7.2 8.9 2.3 11.6 9.7 6.2 17.1-5.4 7.4-13.4 11.9-21.6 14.3-19.8 5.8-39.6 11.2-60.9 7-7.7-1.5-15.9-1.8-23.7-3.3-2.1-.1-4.5.3-5.9-2-3.8-1.6-8.1-1.7-11.7-3.9-15.1-3.1-26.5-13.1-38.1-21.9-30.2-22.9-49-53.6-56.3-90.9-5.6-28.5-4.2-56.3 10.5-82.3 11.1-5.9 18.6-1.9 19.3 10.7z" fill="#244467"/><path class="st13" d="M218.6 405.2c9.2 1 18.5 2.7 27.7 2.9 25.8.7 50.8-2.4 72.3-18.3 3.6-2.7 8.7-5.8 6.9-11.7-1.5-5.1-6.5-5.5-11-6.4-1.5-.3-3-1.2-4.5-1.8 8.5-5.3 17-10.6 25.5-15.8 1.9 4.6 5.9 4.2 9.8 4.3 4.7.1 9.6.9 11.2 5.8 1.7 5.2-1.6 9.5-5.4 12.6-9.7 7.9-19.8 15.2-31.4 20.5-21.5 9.8-43.8 15.3-67.4 13.6-11.2-.8-22.9-.9-33.7-5.7z"/><path class="st14" d="M136.9 214.8c-2.7-10.7-10.2-12.6-19.8-10.6.5-5.2 3.8-8.7 7.3-12.2 7.7-7.5 8.8-7.6 14.6 1.4 1.5 2.4 4.3 1 5.5 3.1-2.5 6.2-5 12.2-7.6 18.3z"/><path class="st13" d="M201.1 399.4c4.3.2 8.3 1 11.7 3.9-4.4.1-8.7-.1-11.7-3.9z"/><path class="st9" d="M292.8 95c4.6.6 9.1 1.3 13.7 1.9 8.3-1.7 14.8 3.3 21.5 6.6 8.9 4.4 17.5 9.6 25.7 15.3 14.9 10.3 27 23.4 38.2 37.5 2 2.5 4.2 4.9 3.8 8.5-.2 1-.7 1.8-1.4 2.4-6.1-7.1-12-14.2-18.2-21.2-20.8-23.4-46.6-38.7-76.4-47.8-2.4-.7-5.3-.8-6.9-3.2z"/><path d="M232.3 67.7c-1.3 1.3-2.5 2.9-4.1 3.9-4.4 2.8-5.6 7.3-5.1 11.7.5 4.7 5.3 3.7 8.7 4.1 12.1 1.3 24.2 2.5 36.2 3.7 2.5.2 5.2-.5 7.1 2-14.5.5-28.7-2.9-43.3-2.1-6.8.3-15.3.2-16.7-9-1.1-8.2 6.1-13.6 17.2-14.3z" fill="#1e4b73"/><path d="M419.6 255c4.1 6.6 1 13.8 1.9 20.7.2 1.3 0 2.6 0 3.9 0 22.1.8 22.6 19.5 12.5-1.7 7.9-8.7 10.8-14.4 14.7-3.1 2.1-5.3-.2-7-2.9-2.5-4.2-2.8-8.9-1.8-13.2 2.9-11.9 1.3-23.9 1.8-35.7z" fill="#1a4972"/><path class="st9" d="M394.2 167.2v-2c6.7-.4 6.6 6.1 9.4 9.5 3 9.3 11.6 16.6 10.1 27.6v5.9c-6.5-13.7-13-27.4-19.5-41z"/><path class="st17" d="M324 85.2c32.6 10.3 58.7 29.7 79.4 56.8 2.2 2.9 4.2 5.8 4.6 9.5-.7.6-1.5.7-2.4.5-3.4-2-4.9-5.8-7.6-8.5-.6-.6-1-1.3-1.5-2-1.5-2.6-3.5-4.6-6-6.1-10.1-8.6-19-18.6-30.2-26-3.1-5.1-8.6-6.9-13.6-9.3-5.3-3.1-10.9-5.1-17.5-6.3 5.3 3 9.7 6.4 14.5 9.1 3.4 2 6.7 4.1 10 6.3 3.1 2.3 5.7 5.4 9.1 7.3.8.5 1.5 1 2.1 1.6 9.2 9 18.3 18 27.2 27.2.6.7 1.1 1.4 1.6 2.2 1.1 2 2 4.1 1.7 6.5-.3.9-.9 1.5-1.8 1.9-8.1-4-12.2-12.2-18.3-18.2-7.6-7.5-15.5-14.6-24.5-20.3-4.7-3.9-10.5-6.3-15.2-10.2-7.6-5.7-16.8-8.3-24.4-13.9-2.5-1.8-6.4-3.2-4.9-7.3 1.5-3.9 5.5-3.1 8.5-2.4 2.9.8 6.3-.3 9.2 1.6z"/><path class="st18" d="M425.4 184.8c6.5 10.6 6.5 22.1 5.3 35.8-7.9-8-8.9-17.6-15-24.2-5.2-5.4-9-11.7-11.2-18.9.1-1 .4-1.9.9-2.7.8-.6 1.7-.9 2.7-.9 4.2 1.2 5.6 4.8 7.5 8.2 1.8 4.9 4 9.5 8.1 14.8.4-4.8-1.6-9 1.7-12.1z"/><path d="M324 85.2h-18.1c9.6 11.2 23.4 12.4 31.8 21.4-1.1.8-2.3 1.5-3.5.8-10.2-6.1-22.2-8.8-31.6-16.4-4.2-2.7-8.3-5.3-13.7-8.8 13.1-3.3 24.2-1.7 35.1 3z" fill="#66718d"/><path class="st8" d="M302.5 91.1l35.1 15.6c4.1 3.8 10.4 4.7 13.7 9.7 1.1 1.1 3.1 1.8 1.9 4-15.4-8.2-30-18-46.8-23.5-2.2-3.7-7.2-2.8-9.8-5.8h5.9z"/><path d="M425.4 184.8c.2 3.5-.1 7 1.3 10.5.8 1.9 1.8 4.8-1 5.8s-3.4-2.1-4.7-3.8c-3.2-4.5-6.2-9-7.2-14.5 3.4.3 6.7.4 7.4-4.1.8-.5 1.6-.4 2.3.3.1 2.1-.3 4.3 1.9 5.8z" fill="#878b9f"/><path class="st8" d="M405.9 176.9c.4 7.9 8.8 11.9 9.8 19.5v5.9h-1.9L402.1 175c2.1-1.1 2.8.7 3.8 1.9z"/><path class="st18" d="M423.4 178.9h-1.9c-5.7-3.1-5.1-10.4-9.6-14.3-1.2-1.6-1.9-3.3-1.9-5.3.1-1.5.6-2.9 1.8-3.8 7 6.2 9.3 14.8 11.6 23.4z"/><path class="st21" d="M411.8 155.4v3.9c-.7.6-1.5 1-2.4.9-2.5-.7-3.6-2.6-4.4-4.9-.3-1.4-.1-2.7 1-3.8.7 0 1.4-.1 2.1-.1 1.1 1.4 2.4 2.7 3.7 4z"/><path d="M269.3 401.3c-23.3 4.6-46 1.2-68.3-5.9-.5-1.9.7-2.8 2.2-3.5 2-.6 4-.5 6 0 14.2 5.2 28.8 5.6 43.7 3.8-11.5-2.6-22.6-6.5-33.8-9.7-2.8-.8-5.5-1.7-8.2-2.7-30.7-13.3-55.1-33.8-72.2-62.8-2.1-3.6-4.1-7.4-5.5-11.4-.8-3.3-1.5-6.8-3.2-9.8-.4-.8-.7-1.6-1-2.4-.8-2.9-2.1-5.7-3.4-8.4-.4-.8-.7-1.7-.9-2.5-2.5-9.6-5.7-19-8-28.9-3.1 6.8-3.5 13.7-2.1 20.8.9 4.7 2 9.5-.9 14-.8.6-1.7.6-2.5 0-2-5.7-2.2-11.6-2-17.6-1.5-5.9-1.5-11.7 0-17.6v-2c1.6-4.5 1.3-9.4 2.4-14.1.7-3.2 1.6-5.9 5-6.1 4-.3 5.8 2.7 6.4 6 1.8 9.2 3.5 18.5 5.6 27.6.7 2.8-.4 6.9 3.9 8.1 8.1 36.8 27 66.1 59.4 86.1 14.2 8.8 30 13.5 46.1 17.3-.6 4.1 1.9 4.6 5.1 4.9 9.3.8 18.5 2.1 27.5 4.6 3.4.9 8 .2 8.3 4.7.3 4.8-3.9 6-8 6.3-.5.4-1.1.7-1.6 1.2z" fill="#184870"/><path d="M261.8 198.5c1.4-3.6 4.1-6.1 7.2-8.2 4.3-.4 2.6 2.5 2.2 4.4-3.3 15.9 2.1 29.3 13.7 39.3 12.5 10.7 27.4 14.4 43.5 7.1 3.8-1.7 3.8-1.6 7.3.3-.6 3.4-2.6 5.9-5.3 7.9-12.5 9.3-25.7 6.9-38.5 1.2-22-9.8-32.8-29-30.1-52z" fill="#73b8c8"/><path d="M339.5 212.1c1.5 5.9 3.8 11.8.3 17.8-4.8-4.4-6.7 1.6-9.3 3.1-12.3 6.9-27.6 6.5-38.3-1.8-12.7-9.9-17.6-24.4-13.3-38.6 1.5-4.9 4.6-8.4 7.8-12 2.9-2.7 6.5-1.5 9.9-1.7 1.1 3.6-2 5.1-3.6 7.3-8.6 11.6-7.4 27.4 2.8 35.8 11.1 9.2 27.1 7.4 37.1-4 2-2 2.2-6.4 6.6-5.9z" fill="#aed1da"/><path d="M286.7 180.6c1.4 1 1.1 2.2.1 3.2-11.4 11.9-7.5 32 2.8 41.8 12.2 11.5 27.2 13.3 41.5 3.7 2.6-1.8 5.1-3.8 8.1-6 .2 2.3.4 4.4.7 6.5-.2 2.7.3 5.5-2.1 7.6-1.6-.6-3.2-.7-4.9.1-22.7 9.2-43.9 3.4-54.8-14.9-7.4-12.5-6.9-25.3-1.2-38.3 2.7-2.5 6.1-3.6 9.8-3.7z" fill="#9dcad5"/><path d="M249.9 317.5c-1.5 2.4-3.4 4.4-6.2 5.3-25.4 11.3-70.5-18.8-63.8-52.1.7-3.5 2.5-6.4 5.2-8.7 2.7 2 2.5 5 2.8 7.9 3 30 23.6 47 53.7 44.5 3.3-.2 7.3-2.3 8.3 3.1z" fill="#62b2c4"/><path class="st27" d="M310.3 180.8c10.5 2.2 17.4 9.4 23.4 17.6 2.8 11.7-4.4 23.5-15.5 25.6-14 2.7-25.6-5.2-27.7-18.8-1.9-12.9 6.1-22.7 19.8-24.4z"/><path d="M259.7 301.9c-.4 3.1-1.5 5.8-3.8 7.9-30.7 16.5-69.5-5.8-68.4-44.1.1-2.3 0-4.5 0-6.8 1.6-3 4-5.2 7.3-6.2 5.2.9 3.2 4.8 2.6 7.3-4.5 18.7 4.1 32.3 18.8 41 13.6 8.1 28.6 6.9 41.7-3.6 2.9.6 3.1 2.3 1.8 4.5z" fill="#85bfce"/><path d="M180 270.8c3.2 6.6 1.3 14.2 5.1 21.1 11.8 21.9 32.4 33.2 57.1 30 .5-.1 1.1.6 1.6.9-4.1 3-8.2 5.8-13.5 6.1-24.3-.3-41.7-10.9-51.3-33.7-.4-1-.7 1.1-1.5 1-3.6-8.9-1.1-17.2 2.5-25.4z" fill="#3da9bd"/><path class="st27" d="M234.2 247.2c9.1 3.5 16.8 8.7 21.5 17.5 1.1 16.1-7.3 26.3-21.4 25.9-14.4-.4-23.6-11.3-22-26.2 1.1-10.5 9.3-17 21.9-17.2z"/><path d="M319.9 258.6c-3 2-5.8 4.2-9.7 4.1-21.1 1.9-36.6-7.4-48.4-24.2-2.4-3.5-4.3-7.2-4.8-11.5 0-.1-.4-.2-.6-.3.1.6-.3 1.1-1 1.4-3.1-8.3.7-15.8 2.5-23.6 3.3-.1 3.2 2.5 3.5 4.6 4.1 27.3 22.9 44.3 50.9 46 2.9.1 6.9-1.6 7.6 3.5z" fill="#3faabd"/><path d="M206.6 246.9c3.7-2.9 8-1.5 12.1-1.8 1 3.3-2 4.4-3.5 6.3-8.3 10.7-8.2 26.6.3 34.7 9.8 9.4 25.6 10 36.3 1.5 2.4-1.9 4.5-5 8.4-3.4-.3 11.6-13.7 20.7-27.2 19.3-27.8-2.6-44.7-30.9-26.4-56.6z" fill="#add1da"/><path d="M319.9 258.6c-5.8-3.9-12.5-1.1-18.8-2.9-25.4-6.9-39-22-41.7-47.9-.1-1.2-1-2.3-1.5-3.4.1-2.7 2.5-4 3.9-5.9 3.8 5.2.9 11.3 2.3 17 5.5 22.3 37.3 46 62.5 34.4 1.1-.5 2.5-.4 3.8-.6-2.7 3.9-5.9 7.3-10.5 9.3z" fill="#5cb1c2"/><path d="M206.6 246.9c2.8 3.2-.5 5.3-1.6 7.7-6.6 15.1-4.3 28.2 7.8 38.4 10.4 8.7 25.5 12 39.3 2.8 4.1-2.7 8-5.7 7.4-11.5-.4-1.8.2-2.4 2-2-.7 6.5 2 13.4-1.9 19.6-.2-1.6-.4-3.1-2-4-16 16-51.4 9.6-60.3-18.2-3.5-10.9-1.7-20.9 3.6-30.7 1.4-2 3.6-1.9 5.7-2.1z" fill="#a0cbd6"/><path d="M187.4 258.9c4.2 4.9 2.4 11.3 2.9 16.6 2 25.8 35.6 46.4 59.4 34.5 1.6-.8 4.1-2.6 6.2-.2-1.4 3-2.8 6-5.9 7.7-1.3-1.9-3.1-2-5.1-1.5-28.8 7.5-60.8-15.9-59.4-49.1.1-1.6-.1-3.2-.2-4.9.7-1 1.4-2 2.1-3.1z" fill="#75b9c8"/><path class="st35" d="M261.6 282.3l-2 2c-9.5 10.6-21.1 15-34.8 10.6-8.6-2.8-16.2-8.2-17.6-17.9-1.8-12.3-.4-24.1 11.5-31.8 2.6 0 5.1.1 7.7.1.7 3.9-3.2 3.6-4.9 4.8-9.2 6.4-9.9 15.6-8.3 25.2 1.3 7.6 10 14 18.7 14.8 11 1.1 17-2.4 22.7-12.8 1.1-2 1.2-5.4 5.1-4.7 1.7 2.9 2.2 6.2 1.9 9.7z"/><path d="M259.5 272.6c-4.1 2.8-3.4 8.1-6.6 11.6-6 6.5-17.1 10.2-25.6 7.1-8.1-2.9-15.4-7.4-16.5-17.2-1.2-11 .7-20.7 11.4-26.6 1.4-.8 2.8-1.5 4.1-2.2 2.9-.4 5.4.5 7.8 1.9-4.3 3.1-10 2.3-14.2 6.9-6.8 7.4-6.9 15-3.3 23 3.9 8.5 13.5 13 22.5 10.7 8.6-2.1 14-7.7 14.6-17 .1-2.2-.3-4.6 1.9-6.1 2.5 2.1 3.7 4.7 3.9 7.9zm50.8-91.8c-5.5 3.6-12.5 4.9-15.5 12-3.9 9.1-2 17.2 4.2 24.2 5.9 6.6 14.8 6.7 21.6 3.7 7.5-3.3 13.5-9.9 12.5-19.8-.1-.8.4-1.7.6-2.6 2.5 2 3.6 4.7 3.9 7.8-1.7 12.5-9.7 20.7-20.7 21.5-15.6 1.1-26.1-4.9-29.2-17.6-2.5-9.9-.9-24.5 14.8-31 2.8-.4 5.4.5 7.8 1.8z" fill="#c7dde4"/><path d="M335.7 233.5c1.6.9 1.9 2.4 2 4-.7 1.3-1.3 2.6-2 3.9-10.7 3.2-20.7 7.2-33 4.7-22.8-4.6-41.6-32.7-33.1-55.1 0-.1-.4-.4-.7-.7.7-.6 1.3-1.3 2-1.9 6.4 1.3 3.1 5.5 2.6 8.8-2.4 15.2 6.1 31.6 20.3 39.8 10.1 5.7 32.5 7.2 41.9-3.5z" fill="#87c0ce"/><path class="st35" d="M302.5 179c-7.3 6.4-14.3 12.8-13.7 24 .6 11.4 7.7 21.2 17.3 22.7 14.7 2.3 25.8-3.9 29.7-16.2.4-1.2 1.2-2.2 1.8-3.2.6 2 1.2 3.9 1.9 5.9-5.5 11.9-14.7 19.1-27.9 18.6-11.7-.4-21.2-6.2-25.2-18-4.6-13.4-.3-24.6 10.2-33.8h5.9z"/><path d="M255.5 228c.3-1.9.5-3.8.9-6.8 6.6 19.8 19.1 32.3 38.1 38.7 5.2 1.8 11.1-1.1 15.8 2.7-25.3 8.3-51-7.9-54.8-34.6z" fill="#07a1b6"/><path d="M132.6 276.5c-.9 1.3-1.6 3.5-2.6 3.7-2.2.3-1.6-2.3-1.9-3.5-2.5-11.3-4.9-22.6-7-34-.5-2.6-.2-5.8-3.3-6.3-4.1-.6-3.7 3.2-4.8 5.8-1.7 4.1-.4 9.1-3.7 12.7-.3-10.2.8-20.1 5.8-29.3 5.1-3.4 7.5.2 9.8 3.9v2c-.5 5.1 1.8 9.3 3.9 13.7.5 3.3-1.3 7 1.9 9.7.7 7.2 1.3 14.4 1.9 21.6z" fill="#20466c"/><path d="M200.9 249c.5 8-5.3 14.7-3.7 23.1 5.1 26.9 31.3 40.2 56 27.9 1.5-.7 2.9-1.4 4.4-2.2 0 4.5-3.5 6.1-6.8 7.2-24.4 8.1-45.5.1-55.8-26.3-3.6-9.1 1.8-17.5-.3-26.2 1.6-1.9 3.6-3.3 6.2-3.5z" fill="#93c5d2"/><path d="M177.4 296.3c.2-1.9.4-3.8.7-6.5 9.4 22.8 25.8 35.3 49.7 37.7.8.1 1.6 1 2.4 1.5-23.9 6.8-47.6-7.8-52.8-32.7z" fill="#08a1b6"/><path d="M335.7 233.5c-1.9 6.6-8.1 6.9-13.1 8.4-26.7 8.1-55.7-18.3-50.2-45.6.6-3 1.6-5.7-1.4-7.9 1.4-2.1 3.3-3.5 5.9-3.9 2.5 2.4.6 5.1 0 7.2-4.5 15.3-1 28.8 10.7 38.8 12.9 11 28.2 11.8 43.8 5.2 1.4-.7 2.8-1.5 4.3-2.2z" fill="#8fc3d1"/><path d="M269.3 401.3c1.4-.8 2.7-1.6 4.1-2.2 2.1-1 4.5-2.2 4.3-4.7-.3-2.8-3.2-2.5-5.3-2.9-12.9-2.3-25.7-4.8-39.7-7.4 2.6-2 4-3.1 5.4-4.2 6.2.2 12.5-.1 18.6 1.7h-14.3c11.8.1 22.7 4.6 34.1 6.1 2.5.3 5 1.2 7.5 1.9 2 .5 3.8 1.3 4.1 3.5.4 2.7-1.7 4.6-3.7 5.2-4.9 1.5-9.7 3.4-15.1 3zm5.9-21.3c-5.2 3.6-11.1 1.1-16.6 1.6 5.4-1.9 11-1.4 16.6-1.6z" fill="#23486d"/><path d="M134.7 307.6c14.7 31.3 37.8 54.3 68.7 69.6 2.6 1.3 5 2.9 7.4 4.4.5.5.6 1.1.5 1.6-.1.5-.3.8-.4.8-2.3 1-4.5.3-6.8-.1-5.8-1.4-9.6-6.9-15.5-8.1-14.6-8.1-27.9-17.6-37.6-31.5-1.2-3.2-3-6-5.9-7.9-2.3-2-4-4.5-5.7-7-1.1-1.9-2-3.9-2.8-5.9-1.8-5-5.7-8.8-7.7-13.6-.9-2.3-1.7-4.8-3.5-7.8 1.7 5.5 2.3 10.4 4.9 14.6 2.9 5.8 5.2 12 9.7 17 7.2 9.3 13.9 19 22.8 26.8 2.3 2.5 4.7 4.8 7.7 6.3 1.9 1.1 3.6 2.3 5 3.9 2.9 3.3 6.5 5.5 10.6 7.1.8.4 1.6.9 2.3 1.5 1.2 1.5 2.3 3.1.8 5-5.1 2.8-8.3-1.4-12.1-3.4-4.8-2.5-8.9-6.1-13.3-9.3-2.3-2.7-4.6-5.4-8.1-6.5-3.8-3.5-7.7-7-11-11.1 0-.5 0-1.1-.2-1.6-5.4-4.7-10.4-9.7-13.2-16.5-.8-3.9-2.9-7-5.6-9.7-1.4-1.2-1.8-2.9-2.3-4.5-.4-3.6-2.2-6.8-3.6-10.1-.3-.9-.5-1.9-.6-2.9-4.3-9.9-4.3-20.5-5.3-31-.3-3.6.1-6.8 4.1-7.4 3.8-.5 4 3.4 5.1 5.9 1.6 3.8 2.2 8 4 11.8 1.6 3.1 2.3 6.7 3.9 9.8 1.5 3.2 1.9 6.8 3.7 9.8z" fill="#6b748f"/><path class="st14" d="M164 370.1c8.6 4.3 14.8 13.1 25.4 13.6.8-.5 1.6-.6 2.5-.3 3.2 4 9.8 4.1 11.2 10-.7.7-1.4 1.3-2.1 2-15.2-5.9-29.7-13.1-41-25.4 1.4-1.2 2.7-1 4 .1zM132.7 335c1.2 7.7 9.8 10.4 11.8 17.5-9.4-3.1-12.6-11.3-15.6-19.5.4-.2.8-.3 1.1-.5 1.3.4 2 1.5 2.7 2.5zm-7.7-13.7c.6 1.3 1.2 2.6 1.9 3.9 1.1 2.5 4.3 4.4 2 7.8-6.6-7.2-11.2-15.4-11.7-25.4.4-.1.8-.2 1.3-.3 2 .7 1.3 3.2 2.7 4.2 1.4 3.2 1.9 6.8 3.8 9.8zm19.6 32.8c5.5 1.4 8.4 5.9 11.6 9.9.9 1.3 3 1.9 1.8 4.1-6.7-2.4-11.6-6.7-13.4-14zM125 229.6c-3.1-1.8-5.7-4.7-9.8-3.9 1.9-2.1 1.6-7.6 5.6-6.1 3.6 1.4 4.3 6 4.2 10zm3.8 15.6c-5.6-3.3-6.5-8-3.9-13.7 2.3 4.3 4.7 8.6 3.9 13.7zM111.3 292h2c4.3 4.5 6 9.5 3.9 15.6-4.8-4.1-3.9-10.4-5.9-15.6zm-2-35.1v17.6c-3.1-5.9-3.1-11.7 0-17.6z"/><path class="st45" d="M158.1 368.1c-.6-1.4-1.2-2.7-1.8-4.1 3.7.6 6 2.9 7.7 6.1h-3.9l-2-2z"/><path d="M405.9 176.9c-1.3-.6-2.6-1.3-3.8-1.9-3.6-2.5-3.3-8-7.8-9.8-8.9-16.7-22.9-28.8-36.9-40.9-1.4-1.2-2.7-2.6-4.1-3.9-.6-1.3-1.3-2.7-1.9-4 14.2 7.4 24.6 19.2 34.9 31 2.5 2.9 4.7 6.1 8 8.2 4.3 2.6 6.7 6.8 9.2 10.9 1 2.7 4 4.9 2.7 8.4-.3.7-.3 1.4-.3 2z" fill="#4d6082"/><path d="M406 155.4c1.3 1.3 2.5 2.7 3.8 4 1.5 1.6 1.7 3.7.4 5.1-1.6 1.9-3.5.5-5.1-.5-1.9-1.2-3.4-2.8-4.9-4.5-.6-.7-1.1-1.4-1.6-2.1-2-3.3-3.6-6.9-6.4-9.7h.1c-8.8-10.7-18.6-20.5-29.3-29.3-2.6-2.4-6.2-3.9-6.8-8 .3-1.5 1.2-2.5 2.6-2.9 1 0 1.8.2 2.6.8 12.7 5.6 20.7 17 31 25.6 1.8 2.7 4 5.2 6 7.7l-.1-.1c3 4.5 5.9 8.9 7.7 13.9z" fill="#c7c5cf"/><path d="M343.5 104.7c-7.2-2.6-13.1-7-19.7-13.6 9.7.9 17.4 2.2 23.7 7.7-2.3 1.4-4 3.1-4 5.9z" fill="#a5a6b5"/><path d="M343.5 104.7c-5-6.2-.6-6.1 4-5.9 5.3 2.2 11.9 2.6 13.8 9.6-.7.1-1.5.1-2.2.2-1.7-.8-3.4-1.4-4.9.5-.2.7-.5 1.2-1 1.7-4.1-.8-6.8-3.5-9.7-6.1z" fill="#b6b5c2"/><path class="st50" d="M362.9 118.5c12.3 7.3 22 17 29.3 29.3-10.3-9.3-20.1-19-29.3-29.3z"/><path d="M402 167.2c-2.7-3.8-6.9-6.5-7.8-11.5 0-.8.1-1.5.1-2.3 3.6-.9 4.1 2.4 5.7 4.1 1.4 3.3 6.4 4.9 4.5 9.7-.8.6-1.7.6-2.5 0z" fill="#7e839a"/><path class="st52" d="M406 155.4c-3.2-4.2-6.5-8.4-7.7-13.8 4.1 2.1 5.9 6 7.6 9.9 0 1.4 0 2.7.1 3.9z"/><path class="st50" d="M353.2 110.8c0-.7.1-1.4.1-2.2 2.2-1.1 3 .6 3.9 2 1.9 2.6 3.9 5.3 5.8 7.9-4.8-.7-7.3-4.3-9.8-7.7z"/><path class="st53" d="M400 157.5c-1.9-1.4-3.8-2.7-5.7-4.1-.7-1.9-1.4-3.7-2.1-5.6 3.8 2.2 7.4 4.6 7.8 9.7z"/><path class="st52" d="M398.3 141.7c-3.3-1.5-5.8-3.7-6-7.7 3.2 1.7 5.5 4 6 7.7z"/><path class="st21" d="M413.7 163.4c4.8 4.1 5.2 10.3 7.9 15.5v9.3c-3.3-2.3-5.6-3.9-7.8-5.4-1.9-2.6-3.8-5.3-5.7-7.9-1.2-1-1.3-2.2-.7-3.6 7.9 2.1 3.3-6 6.3-7.9z"/><path d="M407.9 171c0 1.3.1 2.6.1 3.8-.7 0-1.3 0-2 .1-1.2-2.6-4.1-4.4-4-7.8h2.1c2.2.4 4.5.7 3.8 3.9z" fill="#7c8299"/><path class="st53" d="M407.9 171l-3.9-3.9c-1.4-3.2-2.7-6.5-4.1-9.7 2.1 1.8 4.2 3.7 6.5 5.2 5.5 3.6 2.4-1.9 3.3-3.2.7 0 1.3-.1 2-.1.6 1.3 1.3 2.7 1.9 4-.6 4.5 3.1 8 3.5 12.5-4.9.9-5.9-3.9-9.2-4.8z"/><path class="st45" d="M117.2 307.6c.1-5.5-1.2-10.8-3.9-15.6.4-12.2-4.5-24.3-.1-36.6.6-1.8.2-4.4 2.4-4.8 3.2-.6 3.3 2.5 3.7 4.5 2.6 11 5 22 7.5 33-3.7-2.8-3.6-7.4-5.4-11.1-.9-1.9-.7-5.4-3.5-5-3.3.4-2.7 3.9-2.7 6.4-.2 7.5 1.7 14.7 3.7 21.8 1 3.7 2.6 7.3 2.2 11.3l-3.9-3.9z"/><path d="M218.6 383.8c13.2 3.5 26.5 7 39.7 10.5-.1 1.1-.3 2.3-.4 3.4-16.5 3.2-33 3.3-49.1-4.1 6.9-5.4 14.1 1.4 21.1-.9-2.9-3.8-10.9-1.7-11.3-8.9z" fill="#465c7f"/><path d="M218.6 383.8c4.9 5.3 13.4 4.2 18.3 10.6-9.8 3.6-18.9-1.4-28.2-.8-1.9 0-3.8-.1-5.7-.1-3.9-3.3-10.3-3.5-12.1-9.5 2.7-1.9 5.4-.4 8.1.2 5.9 2.9 12.2 4.1 18.6 5.3 1.1.5.5-1.6.4-.3 0 .3-.3.2-1-.1-2.8-1-5.4-2.2-6.3-5.4 0-.7 0-1.4.1-2.1 2.7.7 5.2 1.4 7.8 2.2z" fill="#626e8b"/><path class="st45" d="M134.7 307.6c-3.1-2.5-4-5.9-4-9.7 3.3 2.5 4.1 5.9 4 9.7z"/><path class="st45" d="M130.7 298c-3-2.6-4-6-3.9-9.8 3.2 2.5 4.2 5.9 3.9 9.8z"/><path d="M313.6 186.7c8.4.2 14.3 7.5 14.2 17.5-.1 7-7.3 13.7-14.7 13.6-8.6-.1-14.9-7.4-14.5-16.8.3-7.9 7.2-14.5 15-14.3z" fill="#e1ecf0"/><path d="M233.8 253c9.3-.1 15.9 6.2 16 15.4 0 6.9-8.8 15.8-15.7 15.7-6.9-.1-15.6-9-15.5-15.9.2-8.7 6.5-15.1 15.2-15.2z" fill="#dfebef"/><path class="st53" d="M140.8 329c1.9 2 3.7 4.1 5.6 6.1 1.9 2.6 4 5.1 6 7.7 10 13.1 23.1 22.7 36.9 31.3 1.8 1.4 5.1 2.4 3.7 5.4-1.1 2.4-3.6 1.6-5.6.3-.6-.1-1.2-.2-1.8-.2-3.5-3.2-8-4.9-11.8-7.7-1.4-1.2-2.7-2.3-4.1-3.5-2.4-2.3-4.9-4.5-7.9-6.1-10.2-7.1-16.4-17.5-23.4-27.2-.8-1.3-1.2-2.7-1-4.3.7-1.4 1.6-2.5 3.4-1.8z"/><path class="st59" d="M187.4 379.8c7.7.4 3.2-3.2 1.9-5.7 6.7-.4 9.5 7.1 15.6 7.8 1.4.8 2.9 2.1 1.7 3.6-2.2 2.6-5 1.4-7.5.3-2.7-.6-5.3-1.2-8-1.8-.6 0-1.1-.1-1.7-.3-.7-1.3-1.3-2.6-2-3.9z"/><path d="M138.6 331.1c0 1.3-.1 2.7-.1 4-5.3-4.8-7.5-11.2-9.6-17.7-1.2-2.2-2.5-4.8-2.5-7.1.2-4.8 2.5-3.1 4.5-.8 2.4 4.7 6.9 8.1 7.7 13.7-3.3 2.7.1 5.3 0 7.9z" fill="#9698aa"/><path class="st17" d="M199.1 385.8c1.8-1.5 7.9 3.5 5.8-3.9 2 .6 3.9 1.2 5.9 1.9 3.5 1.9 7.1 3.7 10.6 5.6-8.4 2.4-15.8 1.3-22.3-3.6z"/><path d="M130.8 309.6c-1.4-.2-3.8-2.2-3.1 1.6.4 2.1.7 4.1 1.1 6.2-5.1-5.6-4.6-12.7-6.6-21.2 6.3 4 7.3 8.8 8.6 13.4z" fill="#81869c"/><path class="st62" d="M138.6 331.1c-2.9-2.9-4.3-6.4-5.8-11.3 2.7 1.6 4.2 2.6 5.8 3.5.8 1.9 1.5 3.8 2.3 5.7-.8.7-1.6 1.4-2.3 2.1z"/><path class="st59" d="M173.8 372c4.6 1.6 9.9 2 11.8 7.7-5.1-.8-8.9-3.6-11.8-7.7z"/><path class="st45" d="M128.9 333c-.7-2.6-1.3-5.2-2-7.8 3.9 2.1 5.2 5.7 5.8 9.7-1.3-.6-2.6-1.2-3.8-1.9zm-3.9-11.7c-3.2-2.5-4.1-5.9-3.9-9.8 3 2.6 4 6 3.9 9.8z"/><path class="st62" d="M152.4 342.8c-3.1-1.7-5.7-3.8-6-7.7 3.2 1.6 5.5 3.9 6 7.7zm9.5 19.6c4.2.1 6.4 2.5 7.9 6.1-3.7-.8-6-3.2-7.9-6.1z"/><path class="st52" d="M357.1 110.6c-1.3-.7-2.6-1.3-3.9-2-.8-.8-2.4-1.7-2.4-2.5 0-1.9 1.8-1.4 2.8-1 1.9 1 3.6 2.3 5.4 3.5-.6.7-1.2 1.3-1.9 2z"/><path d="M311.5 194.5c6 0 10 2 10.3 7.4.3 5.4-3.3 8.1-8.6 8.1s-8.3-3-8.6-8.3c-.4-5.5 2.7-7.5 6.9-7.2z" fill="#f4f8fa"/><path d="M224.4 269.7c.1-7.5 3.1-10.8 9.5-10.8 6.8-.1 10 3.2 10.1 10 0 6.9-4.5 9.3-10 9.2-5.5-.1-10-2.8-9.6-8.4z" fill="#edf4f7"/><path d="M239.5 268.2c-.3 2.8-2 4.1-4.6 4-2.6-.1-4.2-1.8-4.3-4.4-.1-2.6 1.4-4.4 4-4.6 3.5-.3 4 2.7 4.9 5z" fill="#fbfcfc"/></svg>