<svg id="Layer_1" xmlns="http://www.w3.org/2000/svg" viewBox="0 0 512 512"><style>.st1{fill:#fff}</style><path fill="#fc6822" d="M0 0h512v512H0z"/><path class="st1" d="M438.8 509.5c-1-.3-2.1-1.3-2.3-2-1.4-5.9-3.2-11.9-3.6-17.9-.6-8.8-.1-17.6-.2-26.4 0-4.9-.5-5.5-4.9-3.7-5.3 2.1-10.5 4.7-15.5 7.5-3.4 1.9-5.1 5.1-4.7 9.3.9 8.6 1.3 17.3 2.3 25.9.3 2.7 2.1 5.2 3 7.3h-.4c0 .1.1.2.1.2 13 0 22.3 0 26.1-.1.2 0 .1 0 .1-.1zm-120.2-19.7c1.5 4.1 3.3 8.1 5.3 11.9 1.5 2.7 3.6 5.1 5.5 7.8h-.4c.1.1.2.3.3.4h24.4v-.1c-1.3-.2-2-1.1-2.2-2.7-.8-6.9-1.6-13.7-2.4-20.6-.6-5.6-3.5-9.1-9-10.5-3.5-.9-7.1-1.4-10.4-2.7-3.4-1.3-6.5-1.4-10 0-3.3 1.4-4.7 3.1-3.9 6.5.9 3.3 1.6 6.7 2.8 10zM191 509.4h-.2c2-2.3 3.6-4.4 5.3-6.4 5.5-6 11-11.9 16.5-17.8 1.4-1.5 2.5-2.8.9-5.1-2.3-3.3-4.3-6.9-6-10.5-1.2-2.5-2.8-3.3-5.2-2.7-2.9.7-5.8 1.5-8.7 2.4-8.7 3-17.4 6.1-26.2 9.2-2.5.9-2.8 2.3-1.6 4.5 2.1 4 4.2 8 6.1 12.1 2 4.6 3.7 9.3 5.9 14.9h12.9c.2-.2.2-.4.3-.6zm197.6-3.4c9.6-11.3 7.1-23.9 4.2-36.6-.5-2-1.7-2.9-3.9-2.3-4.9 1.3-10 2.2-14.8 3.8-4 1.3-8.8 3-9 8-.2 6.1.6 12.3 1.1 18.5.3 3.2.9 6.4 1.3 9.6.2 1.6-.4 2.4-1.5 2.7v.2h21.1c0-.1.1-.2.1-.3h-.2c-.1-.4-.2-.7-.1-.9.6-1 1-1.9 1.7-2.7zM487 247.8c2.7-1.5 4.9-3.1 7.3-4 1.5-.6 3.4-.7 4.9-.2.5.2.6 2.7.4 4-1.5 9.8-5.3 18.3-11.8 26.1-3.7 4.4-5.3 10.6-7.8 16-4.4 9.3-9.7 17.9-18.8 23.5-1 .6-2.2 2.5-1.9 3.4.3 1 2.1 2.2 3.3 2.2 16.5.4 32.1 4.8 47.6 10.3 1 .4 2.5 1.5 2.5 2.4.2 4.7.1 9.4.1 14.5-6.2-1.8-11.8-3.6-17.5-5-8.4-2-16.9-3.7-25.4-5.5-.8-.2-1.6-.2-2.4-.4-5.3-1.3-5.3-1.3-5.2 4.3.2 10.9-1.7 7.7 8.1 12.4 13.4 6.5 26.7 13.2 40 19.9 1 .5 2.2 1.7 2.2 2.6.2 4.7.1 9.4.1 14.9-3.3-1.8-6-3.3-8.7-4.6-15.7-7.4-31.4-14.6-47.1-22-3.1-1.4-4.8-.7-6.6 2-2 3.1-4.4 6-6.9 8.7-2.9 3.1-4.7 3.1-8.3.8-6.9-4.5-13.6-9.2-20.7-13.3-3.7-2.2-8-3.4-12.2-4.7-4.7-1.5-9.7-2.3-14.4-3.9-1.5-.5-2.8-2.5-3.4-4.1-1.1-3.1-1.4-6.5-2.3-9.7-1.6-5.4-.9-7.6 3.9-10.5 6.3-3.7 10.7-8.7 11-16.5.1-3 1.9-3.7 4.5-2.9 1 .3 2 .7 2.9 1.1 5.8 2.1 11.2-2.6 10.1-8.6-.3-1.8-.4-3.8-1.2-5.4-.9-1.7-2.4-3.7-4-4.3-13.7-5.1-27.9-7.3-42.6-5.9-8 .8-15.8 2.4-23.1 5.7-1.9.8-4.2 3.2-4.4 5.1-.4 3.8 0 7.8.9 11.5.6 2.8 3.9 3.7 7.3 2.5 2.1-.7 4-1.8 6-2.8 2.8-1.4 4.2-.8 3.8 2.2-1.1 8.7 3.7 14.2 10.1 18.7 4.3 3 5.4 6.6 3.6 11.6-.9 2.7-1.6 5.5-2.1 8.3-.6 3.5-2.6 5.7-6.1 6.7-12.1 3.5-24.1 7.1-36.1 10.9-3 1-5.7 3-8.5 4.7-6.7 4.1-11.9 3.4-16.1-2.3-4.8-6.5-9.9-8.2-17.3-4.8-16 7.3-31.9 14.7-47.6 22.4-6.8 3.3-13.3 7.4-19.9 11.3-2.8 1.7-4.8 1.1-5.6-1.8-1-3.7-1.7-7.6-2.2-11.5-.1-.8 1-2.1 1.8-2.6 14.2-7.9 28.4-15.9 42.8-23.5 8.8-4.6 18-8.4 27-12.6 2.1-1 2.9-2.3 2.4-4.7-1.7-7.7-2.1-8.6-10-7.5-10.2 1.4-20.2 3.6-30.3 5.8-13.2 2.9-25.3 8.6-37.5 14.1-4.7 2.1-5.6 1.6-6.1-3.5-.2-2-.5-3.9-.8-5.8-.7-4.2-.1-5.9 3.8-7.4 13.5-5.5 26.8-11.4 40.6-16 7.9-2.6 16.6-2.8 24.9-4 4.3-.6 8.7-.9 13.2-1.4.8-4.3-1.1-7.7-3.4-10.6-6.7-8.4-13.5-16.7-20.7-24.7-6.3-7-9.3-15.3-11.6-24.1-1.3-4.9 2-7 6.8-5 1.9.8 3.9 1.6 6.6 2.7-1.1-5.6-2.5-10.1-2.9-14.7-1.1-10.2-3.6-20.3-2.5-30.7.5-4 1-8 1.9-12 .8-3.6-.7-5.8-3.8-7.2-2.5-1.2-5-2.5-7.7-3.2-4.6-1.3-8.1-3.9-10.4-8-2.8-5-5.7-10.1-8.4-15.1-4.8-8.9-4.2-18.1-1.3-27.3 1.7-5.5 4-10.8 6.1-16.2 1.8-4.7 4.8-8.4 9.2-11 3.1-1.9 6-3.8 9.1-5.8 3.9-2.5 8-3.7 12.8-3.8 18.4-.3 34.1 6.7 48.4 17.3 6.1 4.4 9.6 10.9 12 17.9.9 2.6 2.2 3.7 5 3.5 16.1-1.2 31.1 2.9 45.7 9.4 1.2.5 3.3.3 4.4-.5 10.7-6.9 22.4-10.8 35.1-11.8 4.3-.3 8.5-.8 12.7-1.5.9-.1 1.9-1.8 2.1-2.8 1.4-9.9 5-18.8 12.8-25.4 3.7-3.2 7.7-5.8 12.8-6.5 5-.7 10-2 15-2.6 15.3-1.7 26.8 4.9 36 16.6 2.6 3.3 5.3 6.5 7.5 9.9 1.2 1.8 2.1 4.2 2.1 6.3.2 17.3 0 34.5.2 51.8 0 3.5-1.3 6.1-3.9 8-3.4 2.5-7.2 4.6-10.7 7-.8.6-1.7 1.6-1.9 2.5-2.1 10.2-4 20.4-5.9 30.6-1.1 6.6-2.2 13.1-3.4 20.1zm-27.2 42.8c-4.2-2.5-8.1-4.6-11.7-7.1-6.1-4.1-13.7-6.4-17.4-13.7-2-4-5.3-6.8-9.7-8.4-1.3-.5-2.8-2.6-2.9-4.1-.8-9-1.2-18-1.7-27-.1-1.1.5-2.2 1.1-4.4 4.7 8.3 11.6 8.7 18.7 8.3 7.6-.4 14.3-2.5 17.1-10.9.5-1.6 2.5-3 4.2-3.8 4.9-2.3 8.5-6 12.5-10.7-2.3-.4-3.9-.8-5.5-.9-5-.2-9.9-.3-14.9-.3-11.7-.2-23.4-.5-35.1-.4-7.9.1-13.4 6.7-12.4 14.3 1.9 15.3 3.9 30.7 5.6 46.1.3 2.6 1 4.4 3.4 5.4 6.8 3 10.7 8.4 13.4 15.1.8 2 2.9 3.8 4.8 4.9 6.6 4 13.4 7.7 20 11.7 1.9 1.1 3 1 3.9-.9 2.1-4.3 4.2-8.5 6.6-13.2zm-151.4-83.7v.7h-25.3c-1.1 0-2.1.6-3.2 1 .5 1.1.7 2.5 1.4 3.3 6.6 6.8 13.1 13.7 20.2 20 2.5 2.2 6.3 3.5 9.7 4 4.1.5 8.3-.1 12.4-.8 2.5-.4 3.2.1 3.7 2.5 1.9 8.3-.2 16.6-.6 24.8-.2 5.6-4 8.9-9.6 11-4.5 1.7-9 4.5-12.6 7.7-5.6 5.1-8 11.8-5.7 19.5 1.1 3.5 3.4 4.4 6.7 2.6 3.5-1.8 6.7-4.1 10.3-5.8 3.2-1.6 5.2-4 5.8-7.3.7-3.9 2.8-6.5 6.3-8.2 2-1 4.1-1.8 5.7-3.2 1.6-1.3 3.6-3.1 3.8-4.9 1.1-7.9 1.5-15.9 2.4-23.8 1.1-9.3 2.2-18.6 3.9-27.8 1.9-10.5-4.3-15.7-12.8-15.4-7.5.3-15 .1-22.5.1zm-64.2-62.7c.3 1.3.5 3.8 1.3 6 3.6 9.8 10.7 16.9 18.4 23.4.8.7 3.2.5 4.3-.2 1.6-1 2.7-2.8 4-4.3 2.5-2.7 4.7-5.8 7.6-8.1 6.5-5.2 13.4-9.9 19.9-15.1 1.1-.9 2-3.2 1.7-4.6-1.3-6.4-4.3-11.9-10.7-14.9-3.1-1.5-6-3.6-9.3-4.5-3.6-1.1-7.6-2.1-11.1-1.5-5 .9-10.1 2.9-14.6 5.3-6.5 3.7-11.5 9-11.5 18.5zm254.6-.4c-.2 0-.3 0-.5-.1 0-2 .2-4 0-5.9-.8-7.5-3.3-14-10.8-17.2-6-2.6-12.4-4-18.9-3.1-5.5.7-10.5 3.1-13.7 7.9-2 3-3.9 6-5.4 9.3-1.1 2.4-1.4 5.1-1.9 7.6-.4 2.5.6 4.1 3.3 4.7 1.9.4 3.7 1.4 5.4 2.2 9.7 4.4 17.4 11.3 24.4 19.1 2.3 2.6 4.8 2.9 7.4 1.5 4.2-2.2 7.7-5.2 8.5-10.3.8-5.2 1.4-10.5 2.2-15.7zm-91 41.3c.1.3.2.7.2 1 4.1 0 8.3-.2 12.4.1 5.8.4 10.6-1.8 15.2-5 3.8-2.7 4-5.4 0-7.8-3.5-2.1-7.4-3.9-11.4-4.9-7.9-2.1-16-3.6-24-5.3-2.8-.6-5.7-1-8.8-1.5 1.1 5 1.9 6.3 6.5 8.3 6.4 2.8 10.6 6.9 9.8 14.5-.1.2 0 .4.1.6zm-56.7-20.6c-1.9.6-5.4 1.4-8.7 2.7-9 3.4-16.4 8.9-22.2 16.6-2 2.7-1.4 3.5 1.9 3.7 5.3.4 10.6.6 15.9 1.4 2.8.4 4.7-.4 6.3-2.4 1.9-2.3 3.9-4.6 5.7-7 2.2-3.1 4.5-6.2 6.2-9.6 1.6-3.8.2-5.7-5.1-5.4zm77.1 161.3c-.1.2-.1.5-.2.7-1.6.1-3.2.1-4.8.3-2.6.3-2.8 2.3-2.9 4.4-.1 2.1 1.1 2.5 2.9 3 3.6.9 7.1 2.1 10.5 3.3 2.4.9 4.6 2.3 7 3 .9.3 2.9-.3 3.2-1 .8-2 1.3-4.2 1.4-6.4 0-1.1-.9-2.9-1.8-3.2-5.1-1.4-10.2-2.7-15.3-4.1zm-102.5 5.4c-.1-.4-.2-.9-.3-1.3-7.1-.7-14.2-1.1-21.2.7-3.8 1-1.1 4-.5 5.7.6 1.8.3 5.1 3.9 4.7.1 0 .2 0 .3-.1 5.9-3.2 11.8-6.5 17.8-9.7z"/><path class="st1" d="M388.2 68.6c6.9.6 13.3-3.7 15.6-10.6 2.6-8.1 4.9-16.4 7-24.6.8-3 2-4 5.1-3.4 3.6.7 7.3 1 11 1.3 3.4.3 4.1 1.2 3.7 4.7-.4 3.8-.9 7.6-1.1 11.4-.2 4.8 2.5 6.5 6.6 3.9 4.8-3 9.2-6.6 13.7-10 1.3-1 2.7-1.9 3.6-3.2 3.7-5.1 8.2-4.2 12.8-1.8l42.9 23.4c2.7 1.5 4.2 3.5 3.6 6.7-.1.6.1 1.2 0 1.7-.5 2.9 1.5 6.4-1.6 8.8-4.2 3.3-8.8 6-14.3 4.9-4.7-.9-9.9-1.8-13.9-4.2-8.9-5.4-18.6-8-28.6-10-5.7-1.2-11.1-.4-15.7 3.4-2.9 2.3-5.7 4.8-8.4 7.2l-10.5 9.6c-5.6 5-12.6 6.5-19.6 8.1-8.8 2-17.5 4.1-25.6 8.3-4.6 2.4-6.3 1.4-7-3.6-.9-6.7-1.6-13.5-2.2-20.3-.2-2.2-.9-3.2-3.1-3.7-4.7-1.1-9.4-2.4-14-3.8-1.9-.5-2.5 0-3.2 1.8-3.2 7.3-6.7 14.4-10.1 21.6-1.1 2.4-2.7 2.6-5.1 1.6-19.8-8.3-37.3-20.3-55.1-31.9-6-3.9-5.6-3.9-11.4 0-11.9 7.9-24 15.7-36.3 23-4.3 2.6-7.2 5.9-9.8 9.9-2.6 3.9-5.5 7.7-8.2 11.6-1.8 2.5-3.8 3.3-6.8 1.9-4.8-2.2-9.8-4.1-14.7-6-3.5-1.4-3.8-2-1.9-5.3 9.4-17 21-32.3 35.6-45.3 4.2-3.7 8.6-6.4 13.8-8.3 9.3-3.4 18.4-7.4 27.7-10.8 3.6-1.3 7.7-1.6 11.5-2.4 2.8-.6 4.8.3 6.8 2.4 10.4 10.8 23 19 35.1 27.6 2 1.4 2.6.1 3.2-1.5 2.3-6.5 4.5-13.1 6.8-19.6 1.9-5.2 2-5.1 7.1-2.8 5.9 2.7 11.9 5 17.9 7.4 4.5 1.8 8.4-.8 11.7-3 8.6-5.7 18.3-8.1 28.1-10.3 3.7-.8 5.1.6 4 4.3-1 3.2-2.1 6.5-3.8 9.3-4.5 6.4-2.2 13.5-2.9 20.6zM402.9 411c-1.3 6.3-2.4 11.5-3.5 16.8-.4 2.2-1.7 3.3-3.9 3.7-11 2.4-15.7 2.2-26.1-10.4-1.2 2.8-2.4 5.7-3.7 8.4-1.9 3.8-5.2 5.4-9.4 5.4-1.4 0-2.8 0-4.2-.1-7.7-.8-9.7-2.7-10.8-10.5-.4-3.3-1.1-6.6-1.3-10-.2-3.2 0-6.4 0-10.7-2 1.2-3.4 1.8-4.5 2.8-2.4 2.2-4.6 4.6-6.7 7-2 2.3-3.8 1.8-6 .3-3.8-2.5-5.7-6.3-7.2-10.3-1.6-4.1-2.7-8.3-4.1-12.5-1-2.9-.3-4.8 2.6-6.6 13.8-8.6 28.8-13 45.1-14.4 15.6-1.4 31-.5 46.3 2.1 8.8 1.5 17.3 4.2 24.9 9.1 1.2.8 2.5 2.6 2.5 4 .4 13.7-2.4 26.6-10.6 38-2.3 3.1-3 3-5.8.1-4.5-4-9-7.9-13.6-12.2zM161 226.4c-.3-1-.8-2.1-.9-3.1-1.2-9.9-2.3-19.7-3.6-29.6-.3-2.4.6-3.8 2.6-5.1 5.4-3.7 10.8-7.5 16.1-11.4.9-.7 1.6-2.5 1.5-3.7-.6-4.9-2-9.8-2.3-14.7-.6-8-1.8-16.3-.6-24.2 1.7-10.7 7.6-18.2 19.2-17.3 1.3.1 2.5.1 3.8.1 5.3.3 5.9 1.4 4.9 6.8-1.5 8.5-2.8 17.1-3.6 25.7-.8 8.6 4 15.7 7.1 23.2.8 2 1.8 4 2.4 6.1 1.8 6.5.4 11-5.9 13.6-6.3 2.6-10.7 7.4-15.8 11.5-6.7 5.5-13.2 11.2-19.7 17-1.6 1.5-2.8 3.5-4.2 5.3-.3-.1-.6-.1-1-.2zm-19.7 80.2c-1-4.3.8-6.9 4.5-9.3 7.7-4.8 14.7-11 22.7-15.1 8.2-4.3 17.3-6.9 26-10.2 3.3-1.2 6.8-2.1 10.3-3 2.6-.7 4.2.3 3.7 3.2-1.2 6.4-2.6 12.9-4.1 19.3-.2 1-1.5 2-2.6 2.5-9.4 5.3-18.6 10.9-26 18.8-7.3 7.7-14.2 15.8-21.2 23.8-2 2.3-3.8 4.6-5.8 6.9-.6.6-1.5.9-2.2 1.4-.4-.9-1.1-1.7-1.3-2.6-.4-2.4-.4-4.8-.7-7.2l-3.3-28.5zm34.8 34.6c-.8 5.3-1.5 10.7-2.5 16-1.8 9.7-.2 19 2.3 28.4 1.3 5 2.1 10.2 3 15.3.1.7-.1 1.6-.4 2.3-3.7 9.1-8.8 17.3-15.5 24.4-.9 1-2.5 1.4-3.8 2.1-.5-1.2-1.2-2.3-1.6-3.5-1.6-4.6-3.4-9.1-4.5-13.7-1.5-6.5-2.9-13.1-3.4-19.7-1-11.9-1.3-23.8-2-35.6-.2-3.1 1-4.8 3.8-6.2 7.1-3.6 14-7.6 21-11.4.9-.5 2.2-.8 3.2-.6.5.1.8 1.4 1.2 2.2h-.8zm-20-93.3c.5-4 1-8 1.4-12 .4-4.7 3.7-7.1 7.5-8.7 9.3-4.1 18.9-7.5 29.2-8.3 4.4-.4 8.7-1.2 13.1-1.3 5.1-.1 7 2.9 5.7 7.8-1 3.9-1.6 7.9-2.7 11.8-.3 1.2-1.2 2.5-2.2 3.3-6.6 4.9-13.3 9.6-19.9 14.4-5.7 4.2-11.4 8.3-17 12.6-2.6 2-4.9 4.2-7.2 6.4-2.4 2.2-3.7 1.9-4.4-1.3-1.1-4.8-2.3-9.7-2.9-14.6-.4-3.3-.1-6.7-.1-10-.2-.1-.3-.1-.5-.1zM474 470.3c.6 8.2 3.6 18.9 9.1 28.8 2.6 4.6 1.2 7.4-4.2 7.4-4.1 0-8.8.2-12.1-1.7-3.8-2.1-6.7-6.2-9.2-9.9-6.4-9.7-9.4-20.5-9.3-32.1.1-3.4.9-6.8 1.4-10.3.3-2.1 1.7-2.7 3.5-2l12.6 4.8c.4.2.8.5 1.2.6 7.3 3.3 7.3 3.3 7 14.4zm-223.4-32.8c-.9 8.8 2.5 16.8 4.8 25 1 3.6 2.3 7 3.3 10.6.3.9-.1 2-.2 2.9-.9-.2-2-.2-2.8-.6-6.9-3.7-13.9-7.2-20.7-11.3-2.2-1.3-4.5-3.7-5-6-1.8-7.6-3.2-15.4-3.8-23.2-.3-3.7.7-7.9 2.2-11.4 3.4-8.2 5.9-8.5 13.8-4.4 7.6 4 9.3 10.5 8.4 18.4zm-64-21.2c.8.5 1.6.9 2.2 1.5 5 4.5 8.5 10 10.7 16.3.4 1.1-.5 3-1.4 4-7.2 7.4-14.6 14.5-21.7 21.9-2.2 2.3-3.4 5.4-5.3 7.9-.7.9-2.3 1.1-3.4 1.7-.4-1.1-1-2.3-1.1-3.4-.7-6.1-1.1-12.2-2-18.2-.4-2.5-2-4.9-3.1-7.3-1.4-2.9-1.4-5.7 1.7-7.2 8-3.9 13.6-10.9 20.9-15.7.7-.5 1.5-.9 2.5-1.5zm105.8 75.6c-1.6-2.5-2.9-4.2-3.7-6.1-1.8-4.4-2.9-9-5-13.2-2.9-5.9-6.4-11.4-9.5-17.1-.7-1.3-1.2-3-1-4.4.7-4.6 2-9.2 2.7-13.9.7-4.3 2.3-5.4 6.3-3.8 9.5 3.6 14.5 11 17.1 20.3.4 1.4.8 2.9 1.3 4.3 2.9 7.5.5 14.6-2.2 21.5-1.5 3.8-3.6 7.5-6 12.4zm220.4-27.7v1.3c0 7.1-.4 7.3-7.5 5.4-8.7-2.2-14.6-7.1-16.8-16-1.2-4.8-2.8-9.5-4.2-14.2-.7-2.4.3-3.6 2.7-3.4 1.1.1 2.3.2 3.4.5 3.1.7 6.2 1.6 9.3 2.2 2.6.5 4.3 1.6 5.3 4.3 1.3 3.5 3 7 5 10.2 2 3.2 3.6 6.6 2.8 9.7z"/></svg>