<svg id="Layer_1" xmlns="http://www.w3.org/2000/svg" viewBox="0 0 512 512"><style>.st0{fill:#401715}.st1{fill:#61cbe8}</style><path class="st0" d="M0 512V0h512v512H0zm164-277.6c-.2-.3-.4-.5-.6-.8-7.5-12.4-18.3-18.7-33-17.7-11.1.8-20.8 4.5-28.7 12.5-10.1 10.3-14 23.2-14.6 37.2-.7 16.6 2.4 32.6 8.1 48.2 11 30.1 29.3 55.1 54.2 75.1 37 29.6 79.3 41.6 126.4 36.5 26.2-2.8 50.4-11.8 72.5-26 18.7-12.1 34.8-27 47.4-45.4 3-4.3 4.7-9.1 4.3-14.4-.4-6.7-6.3-11.3-12.9-10.3-6.4.9-11.1 4.4-14.3 9.8-7.4 12.5-16.2 23.9-26.9 33.8-35.5 32.6-77.1 42.4-123.5 31.7-34.6-8-64.1-25.5-88.4-51.4-19.8-21-33-45.3-36-74.5-1-9.7-.8-19.3 2.4-28.7 4.8-14.1 16.8-22.7 31.4-22.4 9.2.2 14.9 6.4 13.4 15.4-1.3 7.7-3.4 15.2-5.4 22.7-2.2 8.2-4.7 16.4-6.8 24.6-1.6 6.5 1.9 12.3 8.1 13.7 5.3 1.3 10.4-2.2 12.1-8.4.9-3.3 1.9-6.7 2.8-10 3.7-13.5 8.1-26.8 9.2-40.9 0-.5.3-1.2.7-1.5 3-2.5 6.2-4.5 10.2-5 5.3-.5 8 2.3 7.1 7.5-.5 3.2-1.1 6.4-1.9 9.5-2.8 10.6-5.8 21.1-8.5 31.8-2.1 8.1 2.7 15.4 11 16.9 4.1.7 8.1-.5 11.7-2.3 4.4-2.1 8.7-4.6 13-6.9 1.1-.6 2.3-1.2 3.3-1.8 5.4 8.6 11.7 11.8 21.1 11 8.2-.7 15.9-3.1 22.9-7.4 3.9-2.3 7.4-5.1 10.9-7.6 1.9 2 3.8 4.4 6 6.3 11.9 9.9 28.6 11.5 42.2 4.3 9.2-4.9 14-14.1 12.8-24.5-.6-5.4-3-10.1-6.4-14.3-4.3-5.3-9-10.2-13.4-15.3-1.4-1.6-2.6-3.5-3.4-5.4-1-2.3-.1-4.7 1.7-6 2.1-1.4 4.3-1.2 6.4.5 1.2 1 2.4 2.1 3.6 3.1 3.4 2.7 7.2 3.9 11.5 3.5 5.4-.5 9-3.9 9.3-9.1.2-4.6-3-8.7-8-9.5-2.5-.4-5.2-.5-7.8-.4-4.5 0-4.9-.2-5.6-4.7-.2-1.4-.2-2.9.1-4.3 1.5-8 8.2-13.8 17-14 6-.2 12.1.4 18.2.6 2.1.1 4.1.3 6.4.4-.3 1.1-.5 1.8-.7 2.6-6 20.1-12.2 40.2-18.1 60.3-4.5 15.3 3.2 32 17.7 38.8 9.7 4.5 19.7 3.9 29.7 1.3 15.4-4 25.5-14.2 31.6-28.5 8.5-20 9.4-40.6 4.4-61.6-5.2-21.9-15.1-41.7-28.7-59.4-32.1-41.5-74.2-59.8-126.6-53-7.7 1-15.1 3.4-21.3 8.4-5.3 4.2-5.8 11.1-1.1 15.9 3.9 4.1 9.4 4.9 14.7 2.4 4.1-1.9 8.1-4 12.4-5.1 18.1-4.5 36.2-4.2 54.1 1 17.7 5.2 32.9 14.7 46.6 26.7 23.8 20.8 39.1 46.5 43 78.2 2.1 16.6-1 32.4-9.7 46.9-6.3 10.6-15.7 16.8-28.1 17.8-13.8 1.1-22.7-10.2-18.8-22.4 3.5-10.6 6.4-21.3 9.5-31.9.4-1.4 1-2 2.5-1.9 4.4.1 8.8.1 13.2 0 4 0 6.7-2.7 6.8-6.4 0-3.5-2.7-6.2-6.5-6.5-1.5-.1-3 0-4.6 0h-6.8c.2-.8.2-1.2.3-1.6 2.4-8.1 4.9-16.2 7.3-24.3.8-2.6 1.7-5.2 2.2-7.9.7-3.4-1.2-5.8-4.7-5.8-2.2 0-4.6.5-6.7 1.3-9.6 3.8-19.1 3.9-28.8.6-5.4-1.8-10.9-2.5-16.6-1.9-12.9 1.2-23.3 10.7-25.4 23.5-.9 5.4-.3 10.6 2.2 15.7-.9.3-1.6.5-2.4.8-18.2 5.6-19.7 25.7-10.3 35.6 4.9 5.3 9.6 10.8 14.1 16.5 1.7 2.1 3 4.8 3.7 7.4 1 3.9-1 7.8-4 9.2-3.1 1.4-7.4.4-9.9-2.8-1.3-1.6-2.3-3.3-3.3-5.1-1.3-2.4-2.4-4.9-3.8-7.3-4.1-6.9-11-7.8-17.2-2.7-4.1 3.3-8.5 6.5-13.2 9.1-5.7 3.2-12 5.4-18.7 5.5-2.4 0-4.1-1.1-5.4-3-1-1.5-1-2.5.9-3.6 6.6-4.1 13.3-8.2 19.5-12.8 7.7-5.7 14.4-12.5 19.1-21 2.1-3.7 3.1-7.7 2.7-12.1-.6-7.4-4.7-12.6-11.7-14-2.9-.6-5.9-.6-8.8-.4-6.7.5-12.8 3.1-18 7.3-16.3 12.9-25.5 29.7-26.6 50.6 0 .7-.4 1.8-1 2.1-2.9 1.4-5.8 2.9-8.9 3.8-4.2 1.2-5.8-.6-4.5-4.8 1.7-5.7 3.7-11.4 5.2-17.2 2.1-8 4.1-16.1 5.6-24.2 1.7-9.4-3.3-16-12.9-17.5-7.7-1.2-14.8.7-21.1 5.1-2.4 2.4-4.7 4.5-7.4 6.6zm-48.8-39.2c5.6-.3 10.4-3.1 13.2-9 8.5-18.4 19.9-34.8 34.7-48.8 24.9-23.4 54.2-37.6 88.1-42.2 2.6-.4 5.3-.7 7.8-1.5 1.1-.4 2.2-2 2.6-3.3.5-1.6-.5-3.2-2.1-3.9-1.5-.6-3.2-1.1-4.8-1.1-10.4-.2-20.8.8-31 3-52.7 11.2-92.1 40.5-118.2 87.7-1.2 2.1-1.7 4.8-1.7 7.2.1 7.2 4.5 11.8 11.4 11.9zM188 333.4v22h17.1c1.7 0 3.5-.1 5.2-.3 2.7-.5 4.7-1.8 5.5-4.6.7-2.8-.5-4.7-2.7-6.3-.1-.1-.1-.2-.2-.5 1.8-1.7 2.5-3.8 1.4-6.2-1.1-2.5-3.3-4-5.9-4.1-6.9-.1-13.6 0-20.4 0zm90.7.1v15.2l-.6.3c-.6-.7-1.1-1.5-1.8-2.2-3.4-3.6-7.1-6.9-10.1-10.7-2.6-3.2-5.6-2.8-9-2.5v21.8h5.3v-14.2c4 3.6 8.6 7.3 12.4 11.5 2.7 3 5.6 3 9 2.6v-21.8h-5.2zm27.3 11.7c3 3 6 6 9.1 8.9.6.6 1.4 1.2 2.1 1.3 1.9.2 3.8.1 6.3.1-4.7-4.7-9-8.9-13.5-13.4 4.1-2.9 7.9-5.6 12.2-8.6-4.2-.1-7.6-.6-10.8 2.1-2.7 2.4-6 4.3-9 6.4-.6.4-1.3.8-2.4 1.5v-9.9h-5.2v21.7h5.5c-1.3-5.2.8-8.5 5.7-10.1zm-54.6 10.2c-3.3-6.1-6.6-11.7-9.3-17.5-1.6-3.5-3.7-5.3-7.6-4.6-1.2.2-2 .3-2.6 1.4-3.4 6.5-7 12.9-10.4 19.4-.2.4-.3.8-.4 1.1 3.3.7 6.1.4 7.3-3.4.2-.6 1.4-1.1 2.2-1.1 3.5-.1 6.9 0 10.4-.1 1.8-.1 2.9.4 3.5 2.1.7 2.3 2.3 3.1 4.6 2.7h2.3z"/><path class="st1" d="M164 234.4c2.6-2.1 5-4.3 7.6-6.1 6.4-4.4 13.4-6.3 21.1-5.1 9.5 1.5 14.6 8.1 12.9 17.5-1.5 8.1-3.5 16.2-5.6 24.2-1.5 5.8-3.4 11.5-5.2 17.2-1.3 4.2.3 6 4.5 4.8 3.1-.9 6-2.4 8.9-3.8.5-.3.9-1.4 1-2.1 1.1-21 10.3-37.7 26.6-50.6 5.2-4.1 11.3-6.7 18-7.3 2.9-.2 6-.2 8.8.4 6.9 1.4 11 6.6 11.7 14 .4 4.3-.7 8.3-2.7 12.1-4.7 8.5-11.5 15.3-19.1 21-6.2 4.6-12.9 8.7-19.5 12.8-1.8 1.1-1.8 2.1-.9 3.6 1.3 1.9 3 3.1 5.4 3 6.7-.1 13-2.2 18.7-5.5 4.6-2.6 9-5.7 13.2-9.1 6.2-5 13.1-4.2 17.2 2.7 1.4 2.3 2.5 4.9 3.8 7.3 1 1.8 2 3.5 3.3 5.1 2.5 3.1 6.8 4.2 9.9 2.8 3-1.4 5-5.3 4-9.2-.7-2.6-2-5.3-3.7-7.4-4.5-5.7-9.1-11.2-14.1-16.5-9.4-10-7.9-30 10.3-35.6.7-.2 1.5-.5 2.4-.8-2.4-5.1-3.1-10.3-2.2-15.7 2.1-12.8 12.5-22.3 25.4-23.5 5.7-.5 11.3.1 16.6 1.9 9.7 3.3 19.2 3.2 28.8-.6 2.1-.8 4.5-1.3 6.7-1.3 3.4 0 5.3 2.4 4.7 5.8-.5 2.7-1.4 5.3-2.2 7.9-2.4 8.1-4.9 16.2-7.3 24.3-.1.4-.2.8-.3 1.6h6.8c1.5 0 3-.1 4.6 0 3.8.2 6.5 2.9 6.5 6.5 0 3.7-2.8 6.3-6.8 6.4-4.4 0-8.8.1-13.2 0-1.5 0-2.1.5-2.5 1.9-3.1 10.7-6 21.4-9.5 31.9-4 12.2 4.9 23.5 18.8 22.4 12.5-1 21.8-7.2 28.1-17.8 8.6-14.5 11.7-30.3 9.7-46.9-4-31.7-19.2-57.4-43-78.2-13.7-12-29-21.5-46.6-26.7-17.9-5.3-36-5.5-54.1-1-4.3 1.1-8.3 3.2-12.4 5.1-5.3 2.4-10.9 1.6-14.7-2.4-4.7-4.9-4.3-11.8 1.1-15.9 6.3-4.9 13.6-7.3 21.3-8.4 52.4-6.8 94.5 11.4 126.6 53 13.7 17.7 23.6 37.5 28.7 59.4 4.9 20.9 4.1 41.6-4.4 61.6-6.1 14.3-16.2 24.5-31.6 28.5-10 2.6-20 3.2-29.7-1.3-14.5-6.8-22.2-23.5-17.7-38.8 5.9-20.1 12.1-40.2 18.1-60.3.2-.7.4-1.5.7-2.6-2.2-.2-4.3-.4-6.4-.4-6.1-.3-12.1-.8-18.2-.6-8.7.2-15.5 6-17 14-.3 1.4-.3 2.9-.1 4.3.7 4.5 1.1 4.7 5.6 4.7 2.6 0 5.2 0 7.8.4 5 .9 8.3 4.9 8 9.5-.3 5.1-3.9 8.6-9.3 9.1-4.3.4-8.1-.8-11.5-3.5-1.2-1-2.4-2.1-3.6-3.1-2.1-1.8-4.3-1.9-6.4-.5-1.8 1.2-2.7 3.7-1.7 6 .8 1.9 2 3.8 3.4 5.4 4.4 5.2 9.1 10.1 13.4 15.3 3.4 4.1 5.7 8.9 6.4 14.3 1.2 10.4-3.6 19.6-12.8 24.5-13.7 7.3-30.4 5.6-42.2-4.3-2.2-1.9-4.1-4.2-6-6.3-3.5 2.4-7 5.2-10.9 7.6-7 4.3-14.7 6.7-22.9 7.4-9.4.8-15.6-2.4-21.1-11l-3.3 1.8c-4.3 2.3-8.6 4.8-13 6.9-3.7 1.8-7.6 3-11.7 2.3-8.2-1.5-13-8.8-11-16.9 2.7-10.6 5.7-21.2 8.5-31.8.8-3.1 1.4-6.3 1.9-9.5.8-5.2-1.9-8-7.1-7.5-4 .4-7.2 2.5-10.2 5-.4.3-.7 1-.7 1.5-1.2 14.1-5.5 27.4-9.2 40.9-.9 3.3-1.9 6.7-2.8 10-1.8 6.2-6.8 9.7-12.1 8.4-6.1-1.5-9.7-7.3-8.1-13.7 2.1-8.2 4.7-16.4 6.8-24.6 2-7.5 4.1-15.1 5.4-22.7 1.5-9.1-4.2-15.3-13.4-15.4-14.5-.3-26.5 8.3-31.4 22.4-3.2 9.4-3.4 19-2.4 28.7 3 29.2 16.2 53.5 36 74.5 24.3 25.8 53.8 43.4 88.4 51.4 46.5 10.8 88.1 1 123.5-31.7 10.7-9.8 19.5-21.3 26.9-33.8 3.2-5.4 7.9-8.9 14.3-9.8 6.6-1 12.5 3.7 12.9 10.3.3 5.3-1.3 10.1-4.3 14.4-12.7 18.4-28.7 33.3-47.4 45.4-22.2 14.3-46.3 23.2-72.5 26-47 5-89.4-7-126.4-36.5-25-20-43.3-45-54.2-75.1-5.7-15.5-8.8-31.6-8.1-48.2.6-14 4.5-26.9 14.6-37.2 7.8-8 17.6-11.8 28.7-12.5 14.7-1 25.5 5.3 33 17.7 0-.2.2 0 .4.3zm67.3 35.3c.3.2.5.4.8.6 3.5-3.2 7.2-6.4 10.6-9.8 4.5-4.5 8.4-9.5 10.8-15.5.9-2.2 1.3-4.7 1.4-7.1.1-2.4-1-3.1-3.1-2.1s-4.2 2.1-5.8 3.6c-6.6 6.3-9.8 14.4-12.6 22.8-.9 2.5-1.5 5-2.1 7.5zm-116.1-74.5c-6.9-.1-11.3-4.7-11.3-11.8 0-2.4.5-5.1 1.7-7.2 26-47.2 65.4-76.5 118.2-87.7 10.2-2.2 20.5-3.2 31-3 1.6 0 3.3.5 4.8 1.1 1.6.7 2.6 2.2 2.1 3.9-.4 1.3-1.5 2.9-2.6 3.3-2.5.9-5.2 1.2-7.8 1.5-33.9 4.6-63.2 18.8-88.1 42.2-14.8 13.9-26.1 30.4-34.7 48.8-2.9 5.8-7.7 8.6-13.3 8.9z"/><path class="st1" d="M188 333.4c6.9 0 13.6-.1 20.3.1 2.7.1 4.8 1.6 5.9 4.1 1.1 2.4.5 4.5-1.4 6.2.1.2.1.4.2.5 2.2 1.6 3.4 3.5 2.7 6.3-.7 2.8-2.8 4.1-5.5 4.6-1.7.3-3.4.3-5.2.3h-17.1c.1-7.4.1-14.6.1-22.1zm5.3 17.8h5.3c3 0 6.1.1 9.1-.2.9-.1 2.3-1.3 2.4-2.1.1-.8-1.3-2.4-2-2.4-4.9-.2-9.7-.1-14.7-.1-.1 1.6-.1 3-.1 4.8zm0-9.3c4.6 0 9.1.1 13.6-.1.7 0 1.4-1.5 2.1-2.2-.7-.6-1.4-1.8-2.2-1.8-2.7-.2-5.5-.1-8.2-.1h-5.3v4.2zm85.4-8.4h5.2v21.8c-3.4.3-6.3.4-9-2.6-3.8-4.3-8.4-7.9-12.4-11.5v14.2h-5.3v-21.8c3.4-.3 6.4-.7 9 2.5 3 3.8 6.7 7.1 10.1 10.7.6.7 1.2 1.4 1.8 2.2l.6-.3v-15.2zm27.3 11.7c-4.9 1.7-7 4.9-5.7 10.1h-5.5v-21.7h5.2v9.9c1.1-.7 1.7-1.1 2.4-1.5 3-2.1 6.3-4 9-6.4 3.1-2.8 6.6-2.2 10.8-2.1-4.3 3-8.1 5.7-12.2 8.6 4.5 4.5 8.8 8.7 13.5 13.4-2.5 0-4.4.1-6.3-.1-.7-.1-1.5-.7-2.1-1.3-3.1-2.9-6.1-6-9.1-8.9zm-54.6 10.2c-1.1 0-1.8-.1-2.4 0-2.3.4-3.9-.4-4.6-2.7-.5-1.7-1.7-2.2-3.5-2.1-3.5.1-6.9 0-10.4.1-.8 0-2 .6-2.2 1.1-1.2 3.8-3.9 4.1-7.3 3.4.1-.4.2-.8.4-1.1 3.5-6.5 7-12.9 10.4-19.4.6-1.2 1.4-1.2 2.6-1.4 4-.7 6 1.1 7.6 4.6 2.8 5.9 6.1 11.5 9.4 17.5zm-15.4-18c-1.7 3.1-3.2 5.9-4.8 8.9h9.6c-1.6-3-3.1-5.8-4.8-8.9z"/><path class="st0" d="M231.3 269.7c.7-2.5 1.2-5 2-7.5 2.8-8.4 6-16.6 12.6-22.8 1.6-1.5 3.7-2.7 5.8-3.6 2.1-1 3.3-.3 3.1 2.1-.1 2.4-.5 4.9-1.4 7.1-2.3 6-6.3 11-10.8 15.5-3.4 3.4-7 6.5-10.6 9.8-.2-.2-.4-.4-.7-.6zm-38 81.5v-4.9c5 0 9.9-.1 14.7.1.8 0 2.1 1.6 2 2.4-.1.8-1.5 2.1-2.4 2.1-3 .3-6 .2-9.1.2-1.6.1-3.3.1-5.2.1zm0-9.3v-4.3h5.3c2.7 0 5.5-.1 8.2.1.8.1 1.5 1.2 2.2 1.8-.7.8-1.3 2.2-2.1 2.2-4.4.3-8.9.2-13.6.2zm42.7-4.5c1.7 3.1 3.2 5.9 4.8 8.9h-9.6c1.6-3.1 3.1-5.8 4.8-8.9z"/></svg>