<svg id="Layer_1" xmlns="http://www.w3.org/2000/svg" viewBox="0 0 512 512"><style>.st0{fill:#ff7901}</style><path class="st0" d="M0 512V0h512c-.1 1.1-.2 2.3-.2 3.4v504.1c0 .6-.1 1.3 0 1.9.2 1.9-.5 2.7-2.4 2.4-.6-.1-1.3 0-1.9 0H3.4c-1.1 0-2.3.1-3.4.2zm359-52.3c-.2 4.3-.2 8.4-.7 12.4-.7 5.7-4.1 9.3-9.5 10-3.3.4-6.8.2-10.2-.2-3.3-.3-5.9-1.9-7-5.4-.1-.4-1.2-.8-1.8-.7-4.8.7-9.7 1.5-14.5 2.2-2.9.4-3.1.6-2 3.3 2.7 7 8.2 10.9 15.1 13.1 8.4 2.8 16.9 2.6 25.5 1.1 5.7-1 11-2.9 15.4-6.8 6.1-5.3 8.1-12.5 8.1-20.2.2-23.1.1-46.3.1-69.4 0-1.5-.5-2-2-2-4.1.1-8.1.1-12.2 0-1.5 0-2 .6-2.3 1.9-.3 1.8-.7 3.5-1 5-2.1-1.7-4-3.7-6.3-5-5.7-3.2-11.9-3.8-18.2-2.9-8.3 1.2-14.5 5.9-18.9 13-5.7 9.2-6.8 19.3-5.9 29.8.5 5.9 1.9 11.5 5 16.6 5.8 9.7 14.6 13.8 25.6 13.6 7.2-.1 13.2-2.8 17-9.2.1 0 .3 0 .7-.2zM27.5 433c.2 2.5.3 5.1.6 7.6 1.5 10.2 5.8 18.9 14.8 24.6 8.2 5.3 17.2 6.5 26.6 5 14.1-2.2 23.2-10.3 27.2-24 2-6.7 2.2-13.6 1.2-20.5-1.8-12.8-7.9-22.6-20.2-27.7-6.4-2.7-13.1-3.4-20.1-2.4-9.1 1.2-16.9 5-22.6 12.4-5.6 7.3-7.4 15.9-7.5 25zm131.6-23.6c4.6 2.6 8.6 4.9 12.7 7.1.4.2 1.3-.3 1.7-.7 5-5.4 11.1-7.3 18.3-6.8 6.5.4 9.2 3.4 9 9.8-.1 1.3-.6 1.7-1.7 1.9-3 .4-6.1.8-9.1 1.3-8 1.5-15.8 3.4-22.9 7.7-6.2 3.7-10.2 9-11 16.3-.8 8 2.3 17.5 11.4 21.4 6.6 2.8 13.4 2.4 20.1.6 4.5-1.2 8.7-3.2 13.2-4.9.3.9.8 2.2 1.1 3.5.3 1.5 1.1 1.9 2.5 1.8 3.1-.1 6.3 0 9.4 0h5.5c.1-.9.1-1.3.1-1.8v-51.5c0-.7-.1-1.4-.2-2.1-1.6-8.5-7.2-13.3-15-15.8-5.9-1.9-12-2.2-18.1-1.8-7 .5-13.6 2.4-19.3 6.7-2.7 2.2-4.9 4.7-7.7 7.3zM453.7 454c-4.3-2.4-8.3-4.5-12.3-6.9-1.4-.8-2.1-.6-2.9.7-4.2 6-10.1 8.3-17.2 7.6-5.6-.6-9.9-3.2-12-8.6-1-2.5-1.3-5.3-1.9-8-.7-3.4.1-3 2.8-3h41.6c2.9 0 3.1-.1 3-3-.2-4.2-.4-8.6-1.3-12.7-2.4-11.2-8.6-19.4-19.9-23-4.9-1.6-10-2-15.2-1.6-12.6.9-22.1 6.7-26.8 18.5-5.1 12.8-4.9 25.9.5 38.6 2.9 6.7 7.9 11.7 14.7 14.5 11.8 4.7 23.5 4 34.9-1.5 5.2-2.4 9.1-6.3 12-11.6zm-202.5-49c-.5-2.3-1-4.4-1.3-6.6-.2-1.1-.7-1.6-1.9-1.4-4.1.6-8.3 1.2-12.4 1.7-1.4.2-2 .8-2 2.3.1 21.9.1 43.9 0 65.8 0 1.6.5 2.1 2.1 2.1 4.7-.1 9.4 0 14.1 0 3 0 3 0 3-2.9v-46.3c0-.9.1-2 .7-2.5 5-4.2 10.4-7.5 17.2-7.3 4.1.2 6.6 2 7.4 6 .5 2.5.6 5.1.6 7.6.1 14.2.1 28.5 0 42.7 0 2 .5 2.8 2.6 2.7 4.6-.1 9.3 0 13.9 0 2.8 0 2.9 0 2.9-2.8v-45.3c0-2.6-.2-5.3-.4-7.9-.9-8.5-6.3-14.6-14.6-16.6-8.4-2-16.4-.6-23.8 3.7-2.8 1.6-5.3 3.3-8.1 5zm-122-.4c0-2.1-.1-3.6 0-5 .2-2-.5-2.8-2.6-2.7-4.3.1-8.7 0-13 0-2.8 0-2.8 0-2.8 2.9v66.3c0 1.9.6 2.6 2.6 2.5 4.8-.1 9.7-.2 14.5 0 2.2.1 2.7-.7 2.7-2.8-.1-14.1 0-28.2-.1-42.3 0-3 1.2-5 3.6-6.5 1.2-.8 2.6-1.6 4.1-1.8 3.7-.6 7.4-1.1 11.2-1.4 1.5-.1 2.1-.7 2.1-2.2-.1-4.6-.1-9.3 0-13.9 0-1.7-.8-2.4-2.3-2.2-2.5.3-5.1.6-7.5 1.3-4.8 1.3-8.7 4.1-12.5 7.8zm341.1-28.8h.3c2.2 5.5 4.3 11 6.5 16.4.4 1 .7 2 2.1 2 1.4 0 1.8-.8 2.2-1.9l3-7.5c1.2-3 2.4-6.1 3.6-9.1.3 5.6.3 11.1.3 16.5 0 1.5.4 2 1.9 2 1.3 0 1.9-.4 1.9-1.8-.1-6.8-.1-13.7 0-20.5 0-1.4-.5-1.9-1.9-1.8-.7 0-1.4.1-2.1 0-1.7-.2-2.6.5-3.1 2.1-1.1 3.2-2.4 6.4-3.6 9.6-.7 1.7-1.4 3.5-2.3 5.8-2-4.9-3.6-9.3-5.4-13.6-1.8-4.4-.7-3.7-5.6-3.8-1.7-.1-2.4.5-2.4 2.3.1 6.5.1 13.1 0 19.6 0 1.9.8 2.2 2.4 2.3 1.7 0 2.2-.6 2.2-2.2-.1-5.6 0-11 0-16.4zm-8.6-2.1c-.3-1.6 1.2-3.6-1.7-3.6h-15.6c-1.5 0-1.8.8-1.8 2 0 1.4.7 1.7 1.9 1.7 1.1-.1 2.3.1 3.4 0 1.8-.2 2.2.6 2.2 2.2-.1 5.3 0 10.7 0 16 0 1.8.7 2.3 2.4 2.3 1.8 0 2.1-.7 2.1-2.3-.1-4.6 0-9.3 0-13.9 0-4.3 0-4.3 4.2-4.3.9-.1 1.8-.1 2.9-.1z"/><path d="M359 459.7c-.5.2-.6.2-.7.3-3.8 6.4-9.8 9.1-17 9.2-10.9.2-19.8-3.9-25.6-13.6-3-5.1-4.5-10.7-5-16.6-.9-10.5.3-20.6 5.9-29.8 4.4-7.1 10.6-11.8 18.9-13 6.3-.9 12.6-.4 18.2 2.9 2.3 1.3 4.2 3.3 6.3 5 .3-1.4.6-3.2 1-5 .2-1.3.8-1.9 2.3-1.9 4.1.1 8.1.1 12.2 0 1.5 0 2 .5 2 2 0 23.1.1 46.3-.1 69.4-.1 7.6-2 14.8-8.1 20.2-4.4 3.9-9.7 5.7-15.4 6.8-8.6 1.6-17.1 1.7-25.5-1.1-6.8-2.3-12.3-6.2-15.1-13.1-1.1-2.7-.9-2.9 2-3.3 4.8-.7 9.7-1.5 14.5-2.2.6-.1 1.7.3 1.8.7 1.1 3.4 3.7 5 7 5.4 3.4.3 6.8.6 10.2.2 5.4-.7 8.8-4.4 9.5-10 .5-4.1.5-8.2.7-12.5zm-30-29.3c.8 4.7 1.3 9.3 2.4 13.8 1 3.9 3.5 6.9 7.5 8.1 7 2 14.7 0 17.8-8.5 1.8-5 2.1-10.3 2-15.6-.1-4-.9-7.9-2.9-11.5-2.8-5-7.1-7.6-12.8-7.4-5.9.2-9.9 3.6-11.6 9.1-1.2 3.9-1.6 8-2.4 12zM27.5 433c.1-9.1 2-17.7 7.7-25.1 5.7-7.4 13.4-11.2 22.6-12.4 6.9-.9 13.7-.2 20.1 2.4 12.3 5.1 18.4 14.9 20.2 27.7 1 6.9.7 13.8-1.2 20.5-4 13.7-13.1 21.8-27.2 24-9.4 1.5-18.5.3-26.6-5-8.9-5.8-13.3-14.4-14.8-24.6-.6-2.4-.6-4.9-.8-7.5zm52.3.2c-.6-3.6-.9-7-1.8-10.3-1.3-4.9-4-9-9.1-10.5-9.2-2.7-17.8 0-20.8 10.5-1.9 6.7-1.9 13.5 0 20.2 2 7 7 10.9 13.7 11.1 8.6.2 13.6-2.9 16-10.5 1-3.4 1.3-7.1 2-10.5zm79.3-23.8c2.7-2.6 5-5.2 7.7-7.2 5.6-4.3 12.2-6.2 19.3-6.7 6.1-.4 12.2-.1 18.1 1.8 7.8 2.5 13.5 7.2 15 15.8.1.7.2 1.4.2 2.1v51.5c0 .5-.1 1-.1 1.8h-5.5c-3.1 0-6.3-.1-9.4 0-1.4 0-2.2-.3-2.5-1.8-.3-1.3-.8-2.5-1.1-3.5-4.5 1.7-8.7 3.7-13.2 4.9-6.7 1.8-13.5 2.2-20.1-.6-9.2-3.9-12.2-13.4-11.4-21.4.8-7.4 4.8-12.6 11-16.3 7.1-4.3 14.9-6.2 22.9-7.7 3-.6 6-.9 9.1-1.3 1.2-.2 1.7-.6 1.7-1.9.3-6.4-2.5-9.4-9-9.8-7.2-.5-13.3 1.5-18.3 6.8-.4.4-1.4.9-1.7.7-4.1-2.2-8.1-4.5-12.7-7.2zm40.8 23.4c-.8-.1-1.3-.2-1.7-.1-5.3 1.4-10.7 2.6-15.9 4.4-2.2.8-4.3 2.6-5.7 4.5-2.5 3.3-2.4 7.2-.4 10.8 1.8 3.2 4.9 4.2 8.4 3.8 3.9-.4 7.5-2 10.9-4 3.2-1.9 5-4.1 4.5-8.2-.4-3.6-.1-7.4-.1-11.2zM453.7 454c-2.9 5.3-6.8 9.2-11.9 11.7-11.4 5.5-23.1 6.2-34.9 1.5-6.8-2.7-11.8-7.7-14.7-14.5-5.4-12.7-5.6-25.8-.5-38.6 4.7-11.9 14.2-17.6 26.8-18.5 5.2-.4 10.2 0 15.2 1.6 11.3 3.6 17.5 11.8 19.9 23 .9 4.1 1.1 8.4 1.3 12.7.2 2.9-.1 3-3 3h-41.6c-2.7 0-3.5-.4-2.8 3 .6 2.7.9 5.5 1.9 8 2.1 5.4 6.4 8 12 8.6 7.2.7 13-1.6 17.2-7.6.9-1.2 1.6-1.4 2.9-.7 3.9 2.3 7.9 4.5 12.2 6.8zm-32-30.8h12.2c1.3 0 2.1-.3 1.9-1.8-.6-5.1-2.9-10.7-9.5-12.2-9.4-2.1-16.3 1.7-18.3 11.6-.3 1.7.1 2.5 2 2.5 3.9-.2 7.8-.1 11.7-.1zM251.2 405c2.8-1.7 5.3-3.3 7.9-4.8 7.5-4.2 15.4-5.7 23.8-3.7 8.3 2 13.7 8 14.6 16.6.3 2.6.4 5.2.4 7.9v45.3c0 2.8 0 2.8-2.9 2.8-4.6 0-9.3-.1-13.9 0-2.1.1-2.7-.7-2.6-2.7.1-14.2.1-28.5 0-42.7 0-2.5-.1-5.1-.6-7.6-.8-4-3.3-5.8-7.4-6-6.9-.3-12.3 3-17.2 7.3-.5.5-.7 1.7-.7 2.5v46.3c0 2.9 0 2.9-3 2.9h-14.1c-1.6 0-2.1-.6-2.1-2.1v-65.8c0-1.6.5-2.2 2-2.3 4.2-.5 8.3-1.1 12.4-1.7 1.2-.2 1.7.2 1.9 1.4.5 1.9 1 4 1.5 6.4zm-122-.4c3.8-3.8 7.7-6.5 12.3-7.9 2.4-.7 5-1 7.5-1.3 1.5-.2 2.3.5 2.3 2.2-.1 4.6-.1 9.3 0 13.9 0 1.5-.6 2.1-2.1 2.2-3.7.3-7.5.8-11.2 1.4-1.4.2-2.8 1-4.1 1.8-2.3 1.5-3.6 3.5-3.6 6.5.1 14.1 0 28.2.1 42.3 0 2.1-.5 2.9-2.7 2.8-4.8-.2-9.7-.1-14.5 0-2 .1-2.6-.6-2.6-2.5.1-11.2 0-22.5 0-33.8v-32.5c0-2.8 0-2.9 2.8-2.9 4.3 0 8.7.1 13 0 2.1-.1 2.8.7 2.6 2.7.1 1.6.2 3.1.2 5.1zm341.1-28.8c0 5.4-.1 10.8 0 16.2 0 1.7-.4 2.3-2.2 2.2-1.7 0-2.5-.4-2.4-2.3.1-6.5.1-13.1 0-19.6 0-1.8.6-2.4 2.4-2.3 4.8.1 3.8-.6 5.6 3.8 1.8 4.3 3.4 8.7 5.4 13.6.9-2.3 1.6-4 2.3-5.8 1.2-3.2 2.5-6.3 3.6-9.6.6-1.6 1.4-2.3 3.1-2.1.7.1 1.4.1 2.1 0 1.3-.1 1.9.4 1.9 1.8-.1 6.8-.1 13.7 0 20.5 0 1.4-.5 1.8-1.9 1.8-1.5 0-2-.5-1.9-2 .1-5.5 0-11-.3-16.5-1.2 3-2.4 6.1-3.6 9.1l-3 7.5c-.4 1.1-.8 1.9-2.2 1.9-1.4 0-1.7-1-2.1-2-2.2-5.5-4.3-11-6.5-16.4-.1.2-.2.2-.3.2zm-8.6-2.1h-2.9c-4.2 0-4.2 0-4.2 4.3 0 4.6-.1 9.3 0 13.9 0 1.6-.3 2.3-2.1 2.3-1.7 0-2.4-.5-2.4-2.3.1-5.3 0-10.7 0-16 0-1.6-.4-2.4-2.2-2.2-1.1.1-2.3 0-3.4 0-1.2.1-1.9-.3-1.9-1.7 0-1.3.3-2 1.8-2H460c2.9.1 1.4 2.1 1.7 3.7z" fill="#fff"/><path class="st0" d="M329 430.4c.8-4 1.2-8.2 2.4-12 1.7-5.5 5.7-8.9 11.6-9.1 5.7-.2 10 2.4 12.8 7.4 2 3.6 2.8 7.5 2.9 11.5.1 5.3-.2 10.5-2 15.6-3.1 8.5-10.7 10.5-17.8 8.5-4-1.1-6.5-4.2-7.5-8.1-1.1-4.5-1.6-9.1-2.4-13.8zm-249.2 2.8c-.6 3.4-1 7-2 10.4-2.4 7.6-7.4 10.7-16 10.5-6.7-.1-11.8-4-13.8-11-1.9-6.7-2-13.5 0-20.2 3-10.4 11.7-13.2 20.8-10.5 5.1 1.5 7.8 5.6 9.1 10.5 1 3.3 1.3 6.7 1.9 10.3zm120.1-.4c0 3.8-.3 7.6.1 11.3.5 4-1.3 6.3-4.5 8.2-3.4 2-7 3.5-10.9 4-3.5.4-6.6-.6-8.4-3.8-2.1-3.6-2.1-7.5.4-10.8 1.4-1.9 3.5-3.8 5.7-4.5 5.2-1.8 10.6-3 15.9-4.4.4-.2 1-.1 1.7 0zm221.8-9.6c-3.9 0-7.8-.1-11.7 0-1.9 0-2.3-.7-2-2.5 1.9-9.9 8.9-13.7 18.3-11.6 6.7 1.5 9 7.1 9.5 12.2.2 1.5-.6 1.8-1.9 1.8-4.1.1-8.1.1-12.2.1z"/></svg>