<?xml version="1.0" standalone="no"?>
<!DOCTYPE svg PUBLIC "-//W3C//DTD SVG 20010904//EN"
 "http://www.w3.org/TR/2001/REC-SVG-20010904/DTD/svg10.dtd">
<svg version="1.0" xmlns="http://www.w3.org/2000/svg"
 width="596.000000pt" height="596.000000pt" viewBox="0 0 596.000000 596.000000"
 preserveAspectRatio="xMidYMid meet">
<metadata>
Created by potrace 1.14, written by Peter Selinger 2001-2017
</metadata>
<g transform="translate(0.000000,596.000000) scale(0.100000,-0.100000)"
fill="#000000" stroke="none">
<path d="M3069 5325 c-3 -2 -54 -7 -114 -10 -61 -3 -123 -7 -140 -9 -44 -5
-137 -18 -160 -22 -11 -3 -36 -7 -55 -10 -110 -17 -318 -90 -430 -152 -267
-147 -428 -333 -536 -619 -35 -95 -87 -285 -98 -358 -4 -23 -9 -52 -11 -65 -3
-14 -7 -41 -10 -60 -3 -19 -7 -44 -9 -56 -2 -12 -7 -45 -11 -75 -3 -30 -8 -61
-10 -69 -2 -8 -7 -40 -11 -70 -4 -30 -8 -64 -10 -75 -1 -11 -5 -40 -8 -65 -4
-25 -8 -56 -11 -70 -3 -14 -8 -45 -10 -70 -3 -25 -7 -56 -10 -70 -3 -14 -8
-45 -11 -70 -3 -25 -7 -56 -9 -70 -2 -14 -7 -47 -11 -75 -3 -27 -8 -59 -10
-70 -4 -19 -10 -65 -19 -130 -2 -16 -4 -30 -5 -30 -1 0 -3 -13 -5 -30 -4 -46
-30 -229 -40 -285 -2 -14 -7 -45 -10 -70 -2 -25 -7 -56 -9 -70 -3 -14 -10 -61
-16 -105 -6 -44 -13 -91 -15 -105 -2 -14 -7 -47 -11 -75 -3 -27 -8 -59 -10
-70 -2 -11 -6 -41 -9 -66 -3 -25 -7 -54 -9 -65 -6 -32 -16 -97 -21 -139 -3
-22 -7 -51 -9 -65 -3 -14 -7 -47 -11 -75 -3 -27 -10 -75 -15 -105 -5 -30 -11
-71 -14 -90 -6 -48 -26 -189 -31 -220 -2 -14 -7 -47 -11 -75 -3 -27 -8 -59
-10 -70 -3 -11 -7 -40 -9 -65 -3 -25 -8 -56 -10 -70 -7 -38 -13 -77 -25 -166
-6 -44 -12 -91 -15 -103 -2 -12 -7 -48 -10 -79 l-6 -57 551 1 c302 0 553 4
557 7 4 4 8 20 9 35 2 33 12 108 19 142 3 14 8 45 11 70 7 53 13 96 19 130 2
14 7 48 11 75 8 58 8 62 19 135 4 30 9 64 11 75 2 11 6 41 9 66 3 25 7 54 9
65 5 27 20 126 21 144 2 21 16 121 21 145 3 11 7 38 9 59 2 21 7 57 11 80 3
23 8 52 9 66 4 41 16 114 20 130 2 8 7 42 10 75 4 33 10 80 15 105 5 24 6 48
4 51 -2 4 6 8 19 11 12 2 478 3 1035 3 900 0 1012 1 1013 15 0 8 2 22 3 30 2
8 6 35 9 60 3 25 10 74 16 110 6 36 13 85 16 110 3 25 7 56 10 70 2 14 7 50
11 80 4 30 8 57 9 60 2 7 15 99 20 135 7 55 17 130 21 149 10 52 27 188 25
201 -1 7 -348 9 -1026 7 l-1025 -2 5 47 c2 27 7 59 10 73 3 14 7 45 10 70 5
43 9 71 20 135 3 17 8 50 10 75 3 25 8 56 10 70 3 14 7 40 10 59 28 167 118
287 250 331 87 30 128 31 1027 32 l827 1 6 26 c13 63 22 120 40 261 3 24 8 56
21 138 9 56 11 72 18 132 4 30 9 66 11 80 7 36 13 78 20 130 3 25 8 56 10 70
5 24 8 46 21 150 4 25 7 60 8 79 l1 35 -875 1 c-481 0 -885 -3 -898 -7 -15 -5
-21 -4 -17 2 6 10 2 14 -6 5z"/>
</g>
</svg>
